<?xml version="1.0" standalone="no"?><!DOCTYPE svg PUBLIC "-//W3C//DTD SVG 1.1//EN" "http://www.w3.org/Graphics/SVG/1.1/DTD/svg11.dtd"><svg class="icon" width="48px" height="48.00px" viewBox="0 0 1024 1024" version="1.1" xmlns="http://www.w3.org/2000/svg"><path d="M518.4 512h144a23.52 23.52 0 0 0 23.52-23.52A23.52 23.52 0 0 0 662.24 464h-144a23.52 23.52 0 0 0-23.52 23.68A23.52 23.52 0 0 0 518.4 512z m0-101.28h224a23.52 23.52 0 0 0 23.52-23.52 23.52 23.52 0 0 0-23.52-23.68h-224a23.52 23.52 0 0 0-23.52 23.68 23.52 23.52 0 0 0 23.52 22.72zM347.2 468.16a119.52 119.52 0 0 0 43.04-91.68A120.96 120.96 0 1 0 192 468.16a169.6 169.6 0 0 0-91.52 150.08 24.32 24.32 0 0 0 48 0 120.96 120.96 0 0 1 241.76 0 24.32 24.32 0 0 0 48 0 169.6 169.6 0 0 0-91.04-150.08z m-80-24a72.48 72.48 0 1 1 72.48-72.48 72.48 72.48 0 0 1-72.8 72.48zM814.56 927.04a210.4 210.4 0 0 1-206.56-208 208 208 0 1 1 207.2 208z m0-360.32a150.4 150.4 0 0 0-151.68 152.32 154.08 154.08 0 0 0 151.68 152.32 152.32 152.32 0 0 0 0-304z" fill="#333333" /><path d="M662.88 822.88H93.76a94.24 94.24 0 0 1-91.52-96V193.6a94.24 94.24 0 0 1 91.52-96H816a94.4 94.4 0 0 1 91.52 96v355.04H848V193.6a32 32 0 0 0-32-32H93.76a32 32 0 0 0-32 32v532.64a32 32 0 0 0 32 32h569.12z" fill="#333333" /><path d="M816 681.92l18.72 11.84c-6.88 9.28-13.92 18.08-20.96 26.72l18.24 12L816 752l-26.88-20.64v65.6h-25.6v-71.68c-6.88 6.88-14.24 13.92-21.92 21.12-2.56-9.92-5.28-19.36-8.48-28.32A265.44 265.44 0 0 0 778.88 672H736v-24.64h33.76c-5.28-7.84-11.68-16-19.04-26.08l21.6-12.16c8.48 10.08 16 19.52 22.24 28.48l-16 9.76h30.56v22.56c-5.76 8.64-12.32 17.44-19.68 26.56v8.8l7.68 4.8c6.72-9.44 12.96-18.72 18.88-28.16z m62.08-13.76c16 14.24 31.2 28 44.48 41.12l-20.48 20.32q-16-17.76-33.12-35.52v102.88h-27.2V612.16h27.2v64z" fill="#1678FF" /></svg>