<?xml version="1.0" standalone="no"?><!DOCTYPE svg PUBLIC "-//W3C//DTD SVG 1.1//EN" "http://www.w3.org/Graphics/SVG/1.1/DTD/svg11.dtd"><svg class="icon" width="48px" height="48.00px" viewBox="0 0 1024 1024" version="1.1" xmlns="http://www.w3.org/2000/svg"><path d="M958.88 757.44A213.28 213.28 0 1 1 748.16 512a210.88 210.88 0 0 1 110.88 32v-72.96A277.76 277.76 0 0 0 748.16 448a320 320 0 0 0-79.04 10.72l-14.88-91.84 113.76-115.2C878.24 138.72 818.56 64 805.76 51.2a96 96 0 0 0-68.32-29.92q-57.6 0-128 70.4l-110.88 113.12-335.04-66.08-34.08-6.4-23.52 23.36L71.84 192l-70.4 72.48L96 300.8l240 89.6-87.36 98.08-100.32-19.2-48.8-8.48-21.28 49.12-6.4 16.96L50.56 576l42.56 29.92 111.04 78.88L256 770.08l27.68 44.8 49.12-16.96 16.96-6.4 49.12-17.12-6.4-53.28-12.8-96 91.68-87.52L496 610.08a265.92 265.92 0 0 0-25.44 108.8 277.28 277.28 0 0 0 551.36 48 32 32 0 0 0-32-37.28 32 32 0 0 0-31.04 27.84zM310.72 601.6l17.12 130.08-17.12 6.4L251.04 640l-121.6-87.52 8.48-19.2 136.64 27.84 174.88-198.4-330.72-123.84 34.24-36.16 366.88 72.48L656 136.48c42.72-42.56 68.32-48.96 81.12-48.96a27.36 27.36 0 0 1 21.6 8.48c21.44 21.28 8.64 61.92-36.16 108.8l-134.4 138.72 23.36 140.8a231.04 231.04 0 0 0-70.4 57.6l-42.56-121.6z" fill="#333333" /><path d="M793.692776 424.031316m25.534297-13.320648l0.141857-0.074004q25.534297-13.320648 38.854945 12.21365l38.037851 72.914604q13.320648 25.534297-12.213649 38.854945l-0.141858 0.074004q-25.534297 13.320648-38.854945-12.213649l-38.03785-72.914605q-13.320648-25.534297 12.213649-38.854945Z" fill="#333333" /><path d="M785.343091 586.089886m-13.320648-25.534297l-0.074004-0.141858q-13.320648-25.534297 12.21365-38.854945l72.914604-38.03785q25.534297-13.320648 38.854945 12.213649l0.074004 0.141857q13.320648 25.534297-12.213649 38.854945l-72.914605 38.037851q-25.534297 13.320648-38.854945-12.213649Z" fill="#333333" /><path d="M867.2 794.08l-98.4-98.24v-93.6a30.72 30.72 0 1 0-61.44 0v105.12a30.56 30.56 0 0 0 8.8 22.24l107.36 107.36a30.72 30.72 0 1 0 43.52-43.52z" fill="#1678FF" /></svg>