<?xml version="1.0" standalone="no"?><!DOCTYPE svg PUBLIC "-//W3C//DTD SVG 1.1//EN" "http://www.w3.org/Graphics/SVG/1.1/DTD/svg11.dtd"><svg class="icon" width="48px" height="48.00px" viewBox="0 0 1024 1024" version="1.1" xmlns="http://www.w3.org/2000/svg"><path d="M781.14 388.86h-76.71v-17.42C704.43 265.34 618.11 179 512 179s-192.44 86.34-192.44 192.44v17.42h-76.7v-17.42C242.86 223 363.59 102.3 512 102.3S781.14 223 781.14 371.44zM828.69 455.71H195.31a43.83 43.83 0 0 0-43.83 43.83v378.33a43.83 43.83 0 0 0 43.83 43.83h633.38a43.83 43.83 0 0 0 43.83-43.83V499.54a43.83 43.83 0 0 0-43.83-43.83zM512 834a145.33 145.33 0 1 1 145.33-145.3A145.33 145.33 0 0 1 512 834z" fill="#2F3240" /><path d="M512 777.87A21.92 21.92 0 0 1 490.08 756v-97.49a21.92 21.92 0 1 1 43.84 0V756A21.92 21.92 0 0 1 512 777.87z" fill="#4169E1" /><path d="M512 665.26m-52.93 0a52.93 52.93 0 1 0 105.86 0 52.93 52.93 0 1 0-105.86 0Z" fill="#4169E1" /></svg>