<?xml version="1.0" standalone="no"?><!DOCTYPE svg PUBLIC "-//W3C//DTD SVG 1.1//EN" "http://www.w3.org/Graphics/SVG/1.1/DTD/svg11.dtd"><svg class="icon" width="48px" height="48.00px" viewBox="0 0 1024 1024" version="1.1" xmlns="http://www.w3.org/2000/svg"><path d="M508 924.64zM786.88 1014.72H139.2c-68 0-123.2-59.84-123.2-133.6V214.4c0-73.76 55.2-133.6 123.2-133.6h482.24v61.76H139.2c-33.92 0-61.6 32-61.6 71.84v666.72c0 39.68 27.68 71.84 61.6 71.84h647.68c33.92 0 61.6-32 61.6-71.84v-480h61.76v480c0 73.76-55.36 133.6-123.36 133.6z" fill="#333333" /><path d="M824.16 276l-11.52-5.12h20.32v-44.48a126.24 126.24 0 0 0 12.96 7.04c5.12-8.16 9.76-14.88 13.76-20.32a119.52 119.52 0 0 1-26.4-13.12c8.48-5.28 16.8-10.72 25.12-16l-13.92-14.08c-8.16 6.08-16.8 12.16-26.08 18.08-2.4-2.56-4.8-5.12-7.04-7.84 9.92-5.92 19.52-12 29.12-18.24l-13.92-14.08c-7.84 5.76-16 11.36-25.28 17.28a102.88 102.88 0 0 1-7.68-16l-20.32 7.52a150.08 150.08 0 0 0 23.36 39.68h-43.84a148.48 148.48 0 0 0 16.96-22.56v-19.2h-69.92v18.08h46.08a148.48 148.48 0 0 1-16 17.92c-7.04-5.6-14.24-10.88-21.6-16l-13.12 12.8c6.4 4.8 12.8 9.92 19.04 15.2a131.84 131.84 0 0 1-24.64 12.48 216.48 216.48 0 0 1 11.68 20.48c4.8-2.72 9.6-5.44 14.24-8.48v43.84H736l-12 4.64a117.6 117.6 0 0 1 7.2 9.92h-38.88V304h164.64v-18.56h-39.84z m-103.2-53.12a198.4 198.4 0 0 0 20.96-16v7.36h64v-8.16a138.88 138.88 0 0 0 21.44 17.28z m69.12 62.56h-32l-9.6-14.56H800c-3.36 4.8-6.56 9.76-9.92 14.56z m20.64-32h-73.76v-11.84h73.76z" fill="#1678FF" /><path d="M774.24 464a227.52 227.52 0 1 1 227.52-227.2A227.84 227.84 0 0 1 774.24 464z m0-400a173.44 173.44 0 1 0 173.44 172.8A173.6 173.6 0 0 0 774.24 64zM477.12 824.16h-6.88a834.24 834.24 0 0 1-165.44-17.12 99.52 99.52 0 0 1-25.92-8.96l-5.28-2.72-3.52-4.8a57.92 57.92 0 0 1-10.56-32 121.6 121.6 0 0 1 1.92-38.56 62.72 62.72 0 0 1 18.56-36.32l1.28-1.12a92.8 92.8 0 0 1 29.28-16S356 649.6 368 646.4a52.16 52.16 0 0 0 16-7.36 34.4 34.4 0 0 0 8.32-6.72 11.68 11.68 0 0 0 1.44-2.08 12.32 12.32 0 0 0 0-2.4v-11.2c-2.56-2.08-5.92-5.28-9.28-8.16a48 48 0 0 1-12.32-16.48c-1.44-3.52-3.04-7.52-4.48-11.52l-1.44-4.64-2.08-1.92a64.96 64.96 0 0 1-7.36-8.8 58.56 58.56 0 0 1-8.32-18.4 57.92 57.92 0 0 1-2.24-20.96v-2.72a64 64 0 0 1 4-12.96 54.72 54.72 0 0 1 2.72-6.4 233.92 233.92 0 0 1 6.88-58.72 119.52 119.52 0 0 1 14.72-34.08 106.4 106.4 0 0 1 48-39.04 102.08 102.08 0 0 1 22.4-7.04 145.44 145.44 0 0 1 21.76-2.24 140.8 140.8 0 0 1 28 3.68 160 160 0 0 1 23.04 8.8 109.12 109.12 0 0 1 20.64 13.44 80.96 80.96 0 0 1 15.04 16 121.28 121.28 0 0 1 18.08 36.8 168.96 168.96 0 0 1 7.52 33.6 225.6 225.6 0 0 1 2.08 27.84 33.6 33.6 0 0 1 2.08 4.16 64 64 0 0 1 3.68 11.84 57.76 57.76 0 0 1 0 18.88 73.6 73.6 0 0 1-5.28 20.16 55.68 55.68 0 0 1-10.72 16l-1.92 2.08a64 64 0 0 1-2.4 7.2c-1.76 4.48-3.2 8-4.8 11.52a52.64 52.64 0 0 1-10.56 15.2 92.8 92.8 0 0 1-9.28 8 5.6 5.6 0 0 0-1.44 1.12 22.4 22.4 0 0 0-1.28 9.92 9.6 9.6 0 0 0 0.96 4.32 10.24 10.24 0 0 0 2.88 4 38.08 38.08 0 0 0 9.6 6.24 160 160 0 0 0 17.44 5.92 233.12 233.12 0 0 1 38.72 16l9.6 4.16a112 112 0 0 1 24.32 14.24 64 64 0 0 1 19.84 29.28 102.08 102.08 0 0 1 3.52 19.52 32 32 0 0 1 1.12 10.4 168.16 168.16 0 0 1-1.44 21.92 64 64 0 0 1-6.24 19.2l-1.92 4-3.52 3.04a48 48 0 0 1-20.64 11.36 553.6 553.6 0 0 1-156.32 21.76z m-169.44-65.92a41.28 41.28 0 0 0 6.72 1.76 776.8 776.8 0 0 0 156.16 16 509.76 509.76 0 0 0 147.52-20 101.6 101.6 0 0 0 1.12-15.2 29.92 29.92 0 0 1 0-4 58.4 58.4 0 0 0-2.24-12.48 15.04 15.04 0 0 0-4-5.44 62.56 62.56 0 0 0-12.32-7.04c-1.92 0-6.08-2.56-11.2-4.96s-24.48-11.2-29.12-12.48h-1.6a232.8 232.8 0 0 1-23.84-8.32 79.04 79.04 0 0 1-23.36-14.72 59.36 59.36 0 0 1-19.68-41.6 74.4 74.4 0 0 1 4.16-31.68 47.04 47.04 0 0 1 8.8-13.76 68.64 68.64 0 0 1 8.96-7.68 22.4 22.4 0 0 0 3.2-2.72 4.16 4.16 0 0 0 1.12-1.6c1.12-2.4 2.24-5.44 3.52-8.32s1.12-4.32 1.6-6.24l3.84-16 9.44-4.16a3.36 3.36 0 0 0 1.12-1.44 25.28 25.28 0 0 0 1.44-5.76v-1.92a12.96 12.96 0 0 0 0-2.56l-6.88-4.8v-12.8a177.76 177.76 0 0 0-1.6-29.12 132.48 132.48 0 0 0-5.76-25.6 75.68 75.68 0 0 0-10.08-21.6 33.92 33.92 0 0 0-6.4-6.24 60.16 60.16 0 0 0-12-8 107.04 107.04 0 0 0-14.88-5.6 52.16 52.16 0 0 0-14.4-1.92 104.16 104.16 0 0 0-13.44 1.44 53.76 53.76 0 0 0-11.84 3.84 58.4 58.4 0 0 0-26.72 21.44 64 64 0 0 0-8.32 19.36 192 192 0 0 0-5.28 52.48v8.64l-5.12 6.88a8.64 8.64 0 0 0-1.12 2.08v1.6l-0.96 2.72a4.96 4.96 0 0 0 0 2.08v1.92a8.32 8.32 0 0 0 0.96 2.56l9.92 2.72 7.52 25.44 3.2 8a145.76 145.76 0 0 1 12.48 12.16 48 48 0 0 1 12.64 31.04v12.16a59.2 59.2 0 0 1-3.04 17.92v1.76a54.88 54.88 0 0 1-10.4 16 77.76 77.76 0 0 1-17.76 14.72 90.56 90.56 0 0 1-29.44 13.44c-7.04 1.92-42.72 16-53.44 19.2a45.6 45.6 0 0 0-14.08 7.68 14.4 14.4 0 0 0-3.84 8.16v2.4a72.48 72.48 0 0 0-1.12 23.52v3.36a3.52 3.52 0 0 0-0.16 1.28z m228.48-219.52z" fill="#333333" /><path d="M489.92 757.6a59.2 59.2 0 0 1-6.72 7.36 48 48 0 0 1-7.68 6.4 12.32 12.32 0 0 1-6.08 2.72 13.76 13.76 0 0 1-5.6-2.56 76.48 76.48 0 0 1-8-6.24 62.24 62.24 0 0 1-6.88-7.68 10.56 10.56 0 0 1-2.88-5.6 71.68 71.68 0 0 1 1.28-10.24 72.48 72.48 0 0 1 3.04-14.4c1.12-4.8 2.24-9.76 3.68-14.56s1.92-7.2 3.04-10.72a40.48 40.48 0 0 1-6.88-8A10.72 10.72 0 0 1 448 688a12.64 12.64 0 0 1 1.92-6.72 24.32 24.32 0 0 1 4.16-5.6 59.04 59.04 0 0 1 6.56-6.08H480l6.56 6.08a21.6 21.6 0 0 1 4.8 5.92 11.52 11.52 0 0 1 2.08 6.72 15.04 15.04 0 0 1-2.72 8.16 39.2 39.2 0 0 1-7.2 7.36 89.6 89.6 0 0 0 2.72 11.84l3.2 14.72a89.12 89.12 0 0 0 2.56 13.6 53.28 53.28 0 0 1 1.12 8.64 9.92 9.92 0 0 1-2.88 5.76z" fill="#1678FF" /></svg>