<?xml version="1.0" standalone="no"?><!DOCTYPE svg PUBLIC "-//W3C//DTD SVG 1.1//EN" "http://www.w3.org/Graphics/SVG/1.1/DTD/svg11.dtd"><svg class="icon" width="48px" height="48.00px" viewBox="0 0 1024 1024" version="1.1" xmlns="http://www.w3.org/2000/svg"><path d="M2.22 560h40.192c22.456 222.348 199.24 399.132 421.588 421.588v40.192C219.54 999.052 24.948 804.46 2.22 560z m0-96C24.948 219.54 219.54 24.948 464 2.22v40.192C241.652 64.868 64.868 241.652 42.412 464H2.22z m1019.56 0h-40.192C959.132 241.652 782.348 64.868 560 42.412V2.22C804.46 24.948 999.052 219.54 1021.78 464z m0 96c-22.728 244.46-217.32 439.052-461.78 461.78v-40.192c222.348-22.456 399.132-199.24 421.588-421.588h40.192z" fill="#2c2c2c" /><path d="M632.14 157.964c131.216 131.216 131.216 343.96 0 475.176s-343.96 131.216-475.176 0l86.94-86.936c84.708 65.292 206.756 59.116 284.4-18.528 77.64-77.644 83.816-199.692 18.524-284.4l85.312-85.312z" fill="#4169E1" /><path d="M605.624 844.868c-67.172-67.172-67.172-176.076 0-243.244 67.168-67.172 176.072-67.172 243.24 0l-66.184 66.184c-31.06-20.58-73.32-17.184-100.692 10.18-27.364 27.368-30.76 69.632-10.18 100.692l-66.184 66.188z" fill="#2c2c2c" /></svg>