<?xml version="1.0" standalone="no"?><!DOCTYPE svg PUBLIC "-//W3C//DTD SVG 1.1//EN" "http://www.w3.org/Graphics/SVG/1.1/DTD/svg11.dtd"><svg class="icon" width="48px" height="48.00px" viewBox="0 0 1024 1024" version="1.1" xmlns="http://www.w3.org/2000/svg"><path d="M131.04 109.76C112 92.8 98.88 81.92 69.92 81.92V8.16a152 152 0 0 1 109.28 45.76c19.52 16 32 27.84 61.44 27.84s41.92-11.2 61.44-27.84a153.92 153.92 0 0 1 219.04 0c19.52 16 32 27.84 61.44 27.84v73.6a152.8 152.8 0 0 1-109.6-45.6c-19.52-16.96-32-27.84-61.44-27.84s-41.76 11.04-61.28 27.84A152.8 152.8 0 0 1 240 155.36a153.12 153.12 0 0 1-108.96-45.6zM550.24 438.08h120.16v73.76h-120.16zM550.24 598.24h120.16V672h-120.16zM550.24 758.56h120.16v73.76h-120.16z" fill="#1678FF" /><path d="M1010.88 1015.84H208l173.76-809.92h455.52z m-722.88-64h643.68l-146.24-681.92h-352zM179.36 1015.84H13.12l117.76-598.88h164.16l-13.28 64h-94.08L85.12 951.84h105.76l-11.52 64z" fill="#333333" /></svg>