<?xml version="1.0" standalone="no"?><!DOCTYPE svg PUBLIC "-//W3C//DTD SVG 1.1//EN" "http://www.w3.org/Graphics/SVG/1.1/DTD/svg11.dtd"><svg class="icon" width="48px" height="48.00px" viewBox="0 0 1024 1024" version="1.1" xmlns="http://www.w3.org/2000/svg"><path d="M967.890411 385.837589a56.109589 56.109589 0 0 1-56.109589-56.109589V112.219178H112.219178v217.508822a56.109589 56.109589 0 0 1-112.219178 0V0h1024v329.728a56.109589 56.109589 0 0 1-56.109589 56.109589z" fill="#0D0A16" /><path d="M1024 1024H0V694.272a56.109589 56.109589 0 0 1 112.219178 0V911.780822h799.561644v-217.508822a56.109589 56.109589 0 0 1 112.219178 0z" fill="#0D0A16" /><path d="M542.102795 235.660274v552.679452h-48.56285V235.660274zM735.905315 235.660274v552.679452h-99.931178V235.660274zM432.885479 235.660274v552.679452H266.492493V235.660274z" fill="#4169E1" /></svg>