<?xml version="1.0" standalone="no"?><!DOCTYPE svg PUBLIC "-//W3C//DTD SVG 1.1//EN" "http://www.w3.org/Graphics/SVG/1.1/DTD/svg11.dtd"><svg class="icon" width="48px" height="48.00px" viewBox="0 0 1024 1024" version="1.1" xmlns="http://www.w3.org/2000/svg"><path d="M976 474.4H48a32 32 0 0 1-29.76-43.84l92.8-232.16a32 32 0 0 1 29.76-20h185.6a32 32 0 0 1 0 64H162.4L96 410.4h833.6l-67.2-168H697.6a32 32 0 0 1 0-64h185.6a32 32 0 0 1 29.76 20l92.8 232.16A32 32 0 0 1 976 474.4z" fill="#333333" /><path d="M883.2 984.8H140.8a32 32 0 0 1-32-32v-510.4a32 32 0 0 1 32-32h742.4a32 32 0 0 1 32 32v510.4a32 32 0 0 1-32 32z m-710.4-64h678.4v-446.4H172.8z" fill="#333333" /><path d="M697.6 474.4H326.4a32 32 0 0 1-32-32V71.2a32 32 0 0 1 32-32h371.2a32 32 0 0 1 32 32v371.2a32 32 0 0 1-32 32z m-339.2-64h307.2V103.2H358.4zM512 984.8H326.4a32 32 0 0 1-32-32v-324.8a32 32 0 0 1 32-32H512a32 32 0 0 1 32 32v324.8a32 32 0 0 1-32 32z m-153.6-64H480v-260.8h-121.6z" fill="#333333" /><path d="M697.6 984.8H512a32 32 0 0 1-32-32v-324.8a32 32 0 0 1 32-32h185.6a32 32 0 0 1 32 32v324.8a32 32 0 0 1-32 32z m-153.6-64h121.6v-260.8H544z" fill="#333333" /><path d="M581.6 288.8h-139.2a32 32 0 0 1 0-64h139.2a32 32 0 0 1 0 64z" fill="#1678FF" /><path d="M790.4 984.8H233.6a32 32 0 1 1 0-64h556.8a32 32 0 0 1 0 64z" fill="#333333" /><path d="M512 358.4a32 32 0 0 1-32-32v-139.2a32 32 0 0 1 64 0v139.2a32 32 0 0 1-32 32z" fill="#1678FF" /></svg>