<?xml version="1.0" standalone="no"?><!DOCTYPE svg PUBLIC "-//W3C//DTD SVG 1.1//EN" "http://www.w3.org/Graphics/SVG/1.1/DTD/svg11.dtd"><svg class="icon" width="48px" height="48.00px" viewBox="0 0 1024 1024" version="1.1" xmlns="http://www.w3.org/2000/svg"><path d="M263.28 355.69C290.47 630.59 438 760.57 512 809.16c74-48.59 221.54-178.59 248.72-453.47C655.05 330.91 569.48 274.13 512 225.75c-57.49 48.38-143.06 105.16-248.72 129.94z" fill="#2F3240" /><path d="M512 80.4S364.7 264.69 155.25 264.69C155.25 674.34 388.92 874 512 927.6 635.08 874 868.75 674.34 868.75 264.69 659.3 264.69 512 80.4 512 80.4z m10.83 771L512 858l-10.83-6.64c-76.12-46.63-255.85-189.73-280.82-510.52l-1.44-18.42 18.15-3.52C351 296.78 442 232.69 498.25 182.83L512 170.66l13.74 12.17c56.29 49.86 147.31 113.93 261.2 136.1l18.15 3.52-1.44 18.42c-24.97 320.79-204.71 463.87-280.82 510.52z" fill="#2F3240" /><path d="M423.087 467.62l108.102 108.103-43.975 43.975-108.102-108.103z" fill="#4169E1" /><path d="M653.96 452.962L487.224 619.697l-43.975-43.975 166.736-166.735z" fill="#4169E1" /></svg>