<?xml version="1.0" standalone="no"?><!DOCTYPE svg PUBLIC "-//W3C//DTD SVG 1.1//EN" "http://www.w3.org/Graphics/SVG/1.1/DTD/svg11.dtd"><svg class="icon" width="48px" height="48.00px" viewBox="0 0 1024 1024" version="1.1" xmlns="http://www.w3.org/2000/svg"><path d="M804.48 998.88h-584a101.6 101.6 0 0 1-101.44-101.44V511.04h-48a66.72 66.72 0 0 1-61.76-43.68 65.92 65.92 0 0 1 20.16-73.28L448 48a101.44 101.44 0 0 1 129.28 0l417.44 346.08a66.08 66.08 0 0 1-42.24 116.96h-46.56v386.4a101.6 101.6 0 0 1-101.44 101.44zM512 86.56a39.68 39.68 0 0 0-24.8 9.44L68.48 441.44a4.8 4.8 0 0 0-1.44 4.96 4.96 4.96 0 0 0 4.48 3.2h109.12v448a40 40 0 0 0 39.84 40h584a40 40 0 0 0 39.84-40v-448h108.16a4.64 4.64 0 0 0 4.32-3.04 4.32 4.32 0 0 0-1.28-5.12L538.08 96A40 40 0 0 0 512 86.56z" fill="#333333" /><path d="M612.16 744.96h-72.48v-41.92h69.6a27.84 27.84 0 0 0 2.88-55.68h-72.16v-67.68a130.56 130.56 0 1 0-60.96-1.28l5.12 1.28v248.64a27.84 27.84 0 0 0 55.52 2.72V800h69.6a27.84 27.84 0 0 0 2.72-55.52zM512 517.12a64 64 0 1 1 56-32 64 64 0 0 1-56 32z" fill="#1678FF" /></svg>