<?xml version="1.0" standalone="no"?><!DOCTYPE svg PUBLIC "-//W3C//DTD SVG 1.1//EN" "http://www.w3.org/Graphics/SVG/1.1/DTD/svg11.dtd"><svg class="icon" width="48px" height="48.00px" viewBox="0 0 1024 1024" version="1.1" xmlns="http://www.w3.org/2000/svg"><path d="M151.72 151.72m0.5 0l279.01 0q0.5 0 0.5 0.5l0 279.01q0 0.5-0.5 0.5l-279.01 0q-0.5 0-0.5-0.5l0-279.01q0-0.5 0.5-0.5Z" fill="#4169E1" /><path d="M420.77 464.61H162.68a43.88 43.88 0 0 1-43.83-43.83v-258.1a43.88 43.88 0 0 1 43.83-43.83h258.09a43.89 43.89 0 0 1 43.84 43.83v258.1a43.89 43.89 0 0 1-43.84 43.83zM184.6 398.86h214.26V184.6H184.6z" fill="#4169E1" /><path d="M420.77 905.15H162.68a43.88 43.88 0 0 1-43.83-43.83v-258.1a43.88 43.88 0 0 1 43.83-43.83h258.09a43.89 43.89 0 0 1 43.84 43.83v258.1a43.89 43.89 0 0 1-43.84 43.83zM184.6 839.4h214.26V625.14H184.6zM861.32 905.15H603.23a43.89 43.89 0 0 1-43.84-43.83v-258.1a43.89 43.89 0 0 1 43.84-43.83h258.09a43.88 43.88 0 0 1 43.83 43.83v258.1a43.88 43.88 0 0 1-43.83 43.83zM625.14 839.4H839.4V625.14H625.14zM861.32 464.61H603.23a43.89 43.89 0 0 1-43.84-43.83v-258.1a43.89 43.89 0 0 1 43.84-43.83h258.09a43.88 43.88 0 0 1 43.83 43.83v258.1a43.88 43.88 0 0 1-43.83 43.83z m-236.18-65.75H839.4V184.6H625.14z" fill="#2F3240" /></svg>