<?xml version="1.0" standalone="no"?><!DOCTYPE svg PUBLIC "-//W3C//DTD SVG 1.1//EN" "http://www.w3.org/Graphics/SVG/1.1/DTD/svg11.dtd"><svg class="icon" width="48px" height="48.00px" viewBox="0 0 1024 1024" version="1.1" xmlns="http://www.w3.org/2000/svg"><path d="M308.7133 670.896552h403.546799v353.103448h-403.546799z" fill="#4169E1" /><path d="M1004.327094 0H20.681773L19.672906 348.815764C19.672906 399.763547 38.336946 448.945813 72.638424 486.778325l0.504433 537.221675h877.462069l-0.252217-536.969458c34.301478-37.832512 52.965517-87.014778 52.965518-137.962562L1004.327094 0zM225.986207 454.242365c-57.757635 0-104.669951-46.660099-105.426601-104.417734l1.008867-248.937931h781.871921l-1.008867 248.685714c-0.252217 58.262069-47.668966 105.174384-105.931034 104.669951-26.987192-0.252217-52.965517-10.593103-72.386207-29.257143l-69.86404-67.089655-69.864039 67.089655c-40.606897 39.093596-105.174384 39.093596-145.781281 0l-69.864039-67.089655-69.86404 67.089655c-19.672906 18.664039-45.651232 29.257143-72.89064 29.257143z m285.50936 100.886699c53.217734 0 104.417734-20.681773 142.754679-57.505419 51.704433 49.6867 125.603941 68.855172 195.215764 50.695567l0.504433 374.794088h-675.940886L173.525123 548.319212c69.359606 18.159606 143.259113-1.008867 195.215764-50.695567 38.336946 37.075862 89.536946 57.505419 142.75468 57.505419z" fill="#0D0A16" /></svg>