<?xml version="1.0" standalone="no"?><!DOCTYPE svg PUBLIC "-//W3C//DTD SVG 1.1//EN" "http://www.w3.org/Graphics/SVG/1.1/DTD/svg11.dtd"><svg class="icon" width="48px" height="48.00px" viewBox="0 0 1024 1024" version="1.1" xmlns="http://www.w3.org/2000/svg"><path d="M953.4464 503.1936c-14.1312 0-25.6-11.4688-25.6-25.6v-7.8336c0-14.1312 11.4688-25.6 25.6-25.6s25.6 11.4688 25.6 25.6v7.8336c0 14.1312-11.4688 25.6-25.6 25.6z" fill="#44454A" /><path d="M706.7136 935.1168H328.4992c-56.576 0-102.4-45.824-102.4-102.4V636.416c0-56.576 45.824-102.4 102.4-102.4h378.2144c56.576 0 102.4 45.824 102.4 102.4v196.3008c0 56.576-45.8752 102.4-102.4 102.4z" fill="#4169E1" /><path d="M953.4464 531.9168c-14.1312 0-25.6 11.4688-25.6 25.6v61.9008c0 60.16-38.4512 112.7424-93.1328 132.4032V636.4672c0-70.6048-57.3952-128-128-128H328.4992c-70.6048 0-128 57.3952-128 128V752.8448a140.56448 140.56448 0 0 1-95.9488-133.4272V459.52c0-77.568 63.1296-140.6976 140.6976-140.6976H787.2512c53.0944 0 101.12 29.3888 125.3376 76.7488a25.58464 25.58464 0 0 0 34.4576 11.1104 25.58464 25.58464 0 0 0 11.1104-34.4576c-32.8704-64.256-97.9968-104.2944-170.0864-104.6016V185.4976c0-70.6048-57.3952-128-128-128h-293.376c-70.6048 0-128 57.3952-128 128V267.776c-102.8096 3.4304-185.3952 88.064-185.3952 191.6928v159.8976c0 89.7536 61.8496 166.2976 147.2 186.5728v26.7776c0 70.6048 57.3952 128 128 128h378.2144c70.6048 0 128-57.3952 128-128v-27.4944c83.6608-21.3504 144.3328-97.5872 144.3328-185.8048v-61.9008c0-14.1312-11.4688-25.6-25.6-25.6zM289.8944 185.4976c0-42.3424 34.4576-76.8 76.8-76.8h293.3248c42.3424 0 76.8 34.4576 76.8 76.8v82.1248H289.8944V185.4976z m493.6192 647.2192c0 42.3424-34.4576 76.8-76.8 76.8H328.4992c-42.3424 0-76.8-34.4576-76.8-76.8v-187.9552c0.0512-46.9504 38.2976-85.1456 85.248-85.1456h361.3184c47.0016 0 85.248 38.2464 85.248 85.248v187.8528z" fill="#44454A" /><path d="M673.024 675.9424H361.2672c-14.1312 0-25.6-11.4688-25.6-25.6s11.4688-25.6 25.6-25.6h311.7568c14.1312 0 25.6 11.4688 25.6 25.6s-11.4176 25.6-25.6 25.6zM582.8608 787.712H361.2672c-14.1312 0-25.6-11.4688-25.6-25.6s11.4688-25.6 25.6-25.6h221.5936c14.1312 0 25.6 11.4688 25.6 25.6s-11.4688 25.6-25.6 25.6zM306.9952 421.6832H216.6784c-14.1312 0-25.6-11.4688-25.6-25.6s11.4688-25.6 25.6-25.6h90.3168c14.1312 0 25.6 11.4688 25.6 25.6s-11.4176 25.6-25.6 25.6z" fill="#44454A" /></svg>