<?xml version="1.0" standalone="no"?><!DOCTYPE svg PUBLIC "-//W3C//DTD SVG 1.1//EN" "http://www.w3.org/Graphics/SVG/1.1/DTD/svg11.dtd"><svg class="icon" width="48px" height="48.00px" viewBox="0 0 1024 1024" version="1.1" xmlns="http://www.w3.org/2000/svg"><path d="M511.990661 372.796018m-197.311819 0a197.311819 197.311819 0 1 0 394.623639 0 197.311819 197.311819 0 1 0-394.623639 0Z" fill="#4169E1" /><path d="M511.990661 0A372.796018 372.796018 0 1 0 884.78668 372.796018 372.796018 372.796018 0 0 0 511.990661 0z m193.834199 566.630217A274.115445 274.115445 0 1 1 318.156463 178.96182a274.115445 274.115445 0 1 1 387.668397 387.668397z" fill="#0D0A16" /><path d="M671.443275 788.236054H352.538048A38.130509 38.130509 0 0 0 325.58032 853.373618l159.452614 159.452614a38.105845 38.105845 0 0 0 53.915455 0L698.401003 853.373618a38.130509 38.130509 0 0 0-26.957728-65.137564z" fill="#0D0A16" /></svg>