<?xml version="1.0" standalone="no"?><!DOCTYPE svg PUBLIC "-//W3C//DTD SVG 1.1//EN" "http://www.w3.org/Graphics/SVG/1.1/DTD/svg11.dtd"><svg class="icon" width="48px" height="48.00px" viewBox="0 0 1024 1024" version="1.1" xmlns="http://www.w3.org/2000/svg"><path d="M898.048 563.2C521.216 506.368 332.8 335.6672 332.8 51.2c210.1248 12.6976 372.224 29.7984 486.4 51.2L896 232.5504 898.048 563.2z" fill="#4169E1" /><path d="M947.2 921.6a51.2 51.2 0 0 1 0 102.4h-358.4a51.2 51.2 0 0 1 0-102.4v-128a179.2 179.2 0 0 1 358.4 0V921.6zM435.2 921.6a51.2 51.2 0 0 1 0 102.4H281.6a256 256 0 0 1-256-256V256a256 256 0 0 1 256-256h409.6a256 256 0 0 1 256 256v256a51.2 51.2 0 0 1-102.4 0V256a153.6 153.6 0 0 0-153.6-153.6H281.6a153.6 153.6 0 0 0-153.6 153.6v512a153.6 153.6 0 0 0 153.6 153.6h153.6zM281.6 256h409.6a51.2 51.2 0 0 1 0 102.4H281.6a51.2 51.2 0 1 1 0-102.4z m0 256h256a51.2 51.2 0 0 1 0 102.4H281.6a51.2 51.2 0 0 1 0-102.4z" fill="#2c2c2c" /><path d="M691.2 921.6h153.6v-128a76.8 76.8 0 0 0-153.6 0V921.6z" fill="#4169E1" /></svg>