<?xml version="1.0" standalone="no"?><!DOCTYPE svg PUBLIC "-//W3C//DTD SVG 1.1//EN" "http://www.w3.org/Graphics/SVG/1.1/DTD/svg11.dtd"><svg class="icon" width="48px" height="48.00px" viewBox="0 0 1024 1024" version="1.1" xmlns="http://www.w3.org/2000/svg"><path d="M927.2832 528.6912c-14.1312 0-25.6-11.4688-25.6-25.6v-13.7216c0-14.1312 11.4688-25.6 25.6-25.6s25.6 11.4688 25.6 25.6v13.7216c0 14.1312-11.4688 25.6-25.6 25.6z" fill="#44454A" /><path d="M361.5744 388.8128h172.544c29.2352 0 52.9408-23.7056 52.9408-52.9408V99.584H311.4496c-0.9728 0-1.8944 0.0512-2.816 0.0512V335.872c0 29.2352 23.7056 52.9408 52.9408 52.9408z" fill="#4169E1" /><path d="M927.2832 563.0976c-14.1312 0-25.6 11.4688-25.6 25.6v126.72c0 98.816-80.384 179.2-179.2 179.2H311.4496c-98.816 0-179.2-80.384-179.2-179.2V304.384c0-89.1392 65.4336-163.2768 150.784-176.896v208.384c0 43.3152 35.2256 78.5408 78.5408 78.5408h172.544c43.3152 0 78.5408-35.2256 78.5408-78.5408V125.184h7.424c155.2896 0 281.6 126.3104 281.6 281.6 0 14.1312 11.4688 25.6 25.6 25.6s25.6-11.4688 25.6-25.6c0-183.5008-149.2992-332.8-332.8-332.8H311.4496c-0.8704 0-1.6896 0-2.56 0.0512h-0.6656c-125.5424 1.7408-227.1232 104.3456-227.1232 230.2976v411.0336c0 127.0272 103.3728 230.4 230.4 230.4h411.0336c127.0272 0 230.4-103.3728 230.4-230.4v-126.72a25.6768 25.6768 0 0 0-25.6512-25.5488z m-365.824-437.9136V335.872c0 15.0528-12.288 27.3408-27.3408 27.3408h-172.544c-15.0528 0-27.3408-12.288-27.3408-27.3408V125.184h227.2256z" fill="#44454A" /><path d="M467.456 655.4624m-126.464 0a126.464 126.464 0 1 0 252.928 0 126.464 126.464 0 1 0-252.928 0Z" fill="#4169E1" /><path d="M467.456 807.5264c-83.8656 0-152.064-68.1984-152.064-152.064s68.1984-152.064 152.064-152.064 152.064 68.1984 152.064 152.064-68.1984 152.064-152.064 152.064z m0-252.928c-55.6032 0-100.864 45.2608-100.864 100.864s45.2608 100.864 100.864 100.864 100.864-45.2608 100.864-100.864-45.2608-100.864-100.864-100.864z" fill="#44454A" /></svg>