<?xml version="1.0" standalone="no"?><!DOCTYPE svg PUBLIC "-//W3C//DTD SVG 1.1//EN" "http://www.w3.org/Graphics/SVG/1.1/DTD/svg11.dtd"><svg class="icon" width="48px" height="48.00px" viewBox="0 0 1024 1024" version="1.1" xmlns="http://www.w3.org/2000/svg"><path d="M496.68608 999.69024c-219.47904 0-361.344-136.38656-361.4208-347.44832-0.02048-58.22464 20.75136-92.98432 40.84224-126.60736 27.68896-46.34112 56.32-94.2592 31.3344-221.20448-7.81824-39.72096-4.74624-62.76096 9.96352-74.70592 9.30816-7.56736 21.72928-8.90368 34.05312-3.67616 37.21216 15.77984 86.78912 100.58752 106.42432 195.10272 36.42368-59.59168 90.38848-173.17888 67.69152-295.84896-7.26528-39.26528-3.7376-62.3616 11.42784-74.88512 5.94432-4.91008 18.87744-11.99616 38.63552-4.2496 52.17792 20.44928 150.56384 158.03392 190.72512 289.42848 9.56416-36.0448 16.41984-78.71488 7.38816-109.41952-2.78528-9.46176-11.25376-38.26176 6.8352-54.5792 4.56192-4.1216 17.41824-12.79488 38.0416-4.33664 52.864 21.66784 162.74432 169.96864 177.17248 414.60224 6.33344 107.3664-31.57504 210.4064-106.74688 290.14016-76.49792 81.14688-183.0656 127.68768-292.36736 127.68768zM247.28064 277.05344c0.47104 4.9408 1.34656 11.17184 2.88256 18.96448 28.2112 143.34464-6.26176 201.04192-36.67968 251.94496-18.61632 31.1552-34.688 58.0608-34.67264 104.25856 0.06656 187.46368 121.87136 303.9232 317.88032 303.9232 97.36704 0 192.37888-41.55392 260.6848-114.01216 66.86208-70.92224 100.58752-162.44736 94.97088-257.7152-7.72608-130.97472-43.52-223.88224-72.192-278.7584-24.74496-47.36512-48.35328-74.86464-63.65696-88.27904 17.17248 65.54624-15.42144 159.27296-30.44352 197.00736-4.20352 10.55232-14.9504 16.9728-26.11712 15.57504-11.2128-1.3824-20.11648-10.23488-21.64224-21.5296-8.2688-61.49632-39.28576-139.12064-85.08928-212.98688-38.3744-61.87008-71.75168-95.60576-87.71072-105.85088-0.14848 5.4016 0.36352 14.14656 2.88768 27.79136 33.20832 179.46624-79.25248 338.87744-102.13888 369.00864a24.56576 24.56576 0 0 1-26.56768 8.8576c-10.01984-2.8928-17.08544-11.52-18.00192-21.98528-7.82848-90.22976-49.67936-167.94624-74.3936-196.21376z"  /><path d="M613.56544 653.08672c3.50208 62.17728-46.08 112.7936-102.92224 112.7936s-92.61056-36.21888-92.63104-93.056c-0.01024-37.43232 31.63136-36.38272 19.57376-100.57216-7.50592-39.94624 28.41088 2.35008 31.4112 51.2256 0 0 37.73952-47.70304 28.08832-102.33344-9.03168-51.1232 53.6064 29.96224 58.42944 84.59264 0 0 15.0016-35.4304 9.1136-56.3968-8.576-30.54592 43.72992 11.27936 48.93696 103.74656z" fill="#4169E1" /></svg>