<?xml version="1.0" standalone="no"?><!DOCTYPE svg PUBLIC "-//W3C//DTD SVG 1.1//EN" "http://www.w3.org/Graphics/SVG/1.1/DTD/svg11.dtd"><svg class="icon" width="48px" height="46.99px" viewBox="0 0 1046 1024" version="1.1" xmlns="http://www.w3.org/2000/svg"><path d="M283.911675 463.912872H180.001197A180.200347 180.200347 0 0 1 0 283.911675V180.001197A180.200347 180.200347 0 0 1 180.001197 0h103.910478a180.200347 180.200347 0 0 1 180.001197 180.001197v103.910478a180.200347 180.200347 0 0 1-180.001197 180.001197zM180.001197 53.617378A126.521692 126.521692 0 0 0 53.617378 180.001197v103.910478a126.521692 126.521692 0 0 0 126.383819 126.383819h103.910478a126.521692 126.521692 0 0 0 126.383819-126.383819V180.001197a126.521692 126.521692 0 0 0-126.383819-126.383819zM866.456825 463.912872h-103.895159a180.200347 180.200347 0 0 1-180.001197-180.001197V180.001197A180.200347 180.200347 0 0 1 762.561666 0h103.910478a180.200347 180.200347 0 0 1 179.955239 180.001197v103.910478a180.200347 180.200347 0 0 1-179.970558 180.001197zM762.561666 53.617378a126.521692 126.521692 0 0 0-126.383819 126.383819v103.910478a126.521692 126.521692 0 0 0 126.383819 126.383819h103.910478a126.521692 126.521692 0 0 0 126.383819-126.383819V180.001197a126.521692 126.521692 0 0 0-126.383819-126.383819zM283.911675 1024H180.001197A180.200347 180.200347 0 0 1 0 843.998803v-103.849201a180.200347 180.200347 0 0 1 180.001197-180.062474h103.910478a180.200347 180.200347 0 0 1 180.001197 180.062474v103.910478a180.200347 180.200347 0 0 1-180.001197 179.93992zM180.001197 613.704506a126.521692 126.521692 0 0 0-126.383819 126.383819v103.910478a126.521692 126.521692 0 0 0 126.383819 126.383819h103.910478a126.521692 126.521692 0 0 0 126.383819-126.383819v-103.849201a126.521692 126.521692 0 0 0-126.383819-126.383819z"  /><path d="M609.353839 586.895817m153.192508 0l103.910478 0q153.192508 0 153.192508 153.192508l0 103.910478q0 153.192508-153.192508 153.192508l-103.910478 0q-153.192508 0-153.192508-153.192508l0-103.910478q0-153.192508 153.192508-153.192508Z" fill="#4169E1" /><path d="M866.456825 1024h-103.895159a180.200347 180.200347 0 0 1-180.001197-180.001197v-103.849201a180.200347 180.200347 0 0 1 180.001197-180.062474h103.910478a180.200347 180.200347 0 0 1 179.955239 180.062474v103.910478A180.200347 180.200347 0 0 1 866.456825 1024z m-103.895159-410.295494a126.521692 126.521692 0 0 0-126.383819 126.445096v103.910478a126.521692 126.521692 0 0 0 126.383819 126.383819h103.910478a126.521692 126.521692 0 0 0 126.383819-126.383819v-103.910478a126.521692 126.521692 0 0 0-126.383819-126.383819z"  /></svg>