<?xml version="1.0" standalone="no"?><!DOCTYPE svg PUBLIC "-//W3C//DTD SVG 1.1//EN" "http://www.w3.org/Graphics/SVG/1.1/DTD/svg11.dtd"><svg class="icon" width="48px" height="48.00px" viewBox="0 0 1024 1024" version="1.1" xmlns="http://www.w3.org/2000/svg"><path d="M273.92 137.728c0 75.264-60.928 136.192-136.192 136.192-75.264 0-136.192-60.928-136.192-136.192 0-75.264 60.928-136.192 136.192-136.192 74.752 0 136.192 60.928 136.192 136.192zM273.92 887.296c0 75.264-60.928 136.192-136.192 136.192-75.264 0-136.192-60.928-136.192-136.192 0-75.264 60.928-136.192 136.192-136.192 74.752 0 136.192 60.928 136.192 136.192zM137.216 648.192c-75.264 0-136.192-60.928-136.192-136.192s60.928-136.192 136.192-136.192 136.192 60.928 136.192 136.192-60.928 136.192-136.192 136.192z m0-205.824c-38.4 0-69.632 31.232-69.632 69.632s31.232 69.632 69.632 69.632 69.632-31.232 69.632-69.632c0.512-38.4-31.232-69.632-69.632-69.632zM512 273.92c-75.264 0-136.192-60.928-136.192-136.192s60.928-136.192 136.192-136.192 136.192 60.928 136.192 136.192-60.928 136.192-136.192 136.192z m0-206.336c-38.4 0-69.632 31.232-69.632 69.632s31.232 69.632 69.632 69.632 69.632-31.232 69.632-69.632-31.232-69.632-69.632-69.632zM512 1023.488c-75.264 0-136.192-60.928-136.192-136.192s60.928-136.192 136.192-136.192 136.192 60.928 136.192 136.192-60.928 136.192-136.192 136.192z m0-205.824c-38.4 0-69.632 31.232-69.632 69.632s31.232 69.632 69.632 69.632 69.632-31.232 69.632-69.632-31.232-69.632-69.632-69.632zM648.192 512c0 75.264-61.44 136.192-136.192 136.192s-136.192-61.44-136.192-136.192 61.44-136.192 136.192-136.192 136.192 60.928 136.192 136.192zM1022.976 137.728c0 75.264-60.928 136.192-136.192 136.192-75.264 0-136.192-60.928-136.192-136.192 0-75.264 60.928-136.192 136.192-136.192 75.264 0 136.192 60.928 136.192 136.192zM1022.976 887.296c0 75.264-60.928 136.192-136.192 136.192-75.264 0-136.192-60.928-136.192-136.192 0-75.264 60.928-136.192 136.192-136.192 75.264 0 136.192 60.928 136.192 136.192zM886.784 648.192c-75.264 0-136.192-60.928-136.192-136.192s60.928-136.192 136.192-136.192 136.192 60.928 136.192 136.192-60.928 136.192-136.192 136.192z m0-205.824c-38.4 0-69.632 31.232-69.632 69.632s31.232 69.632 69.632 69.632 69.632-31.232 69.632-69.632-31.232-69.632-69.632-69.632z" fill="#4F8DFC" /></svg>