<?xml version="1.0" standalone="no"?><!DOCTYPE svg PUBLIC "-//W3C//DTD SVG 1.1//EN" "http://www.w3.org/Graphics/SVG/1.1/DTD/svg11.dtd"><svg class="icon" width="48px" height="48.00px" viewBox="0 0 1024 1024" version="1.1" xmlns="http://www.w3.org/2000/svg"><path d="M508.017778 113.777778c27.591111 0 50.119111 26.510222 50.119111 59.448889v711.850666c0 32.768-22.357333 59.448889-50.176 59.448889-27.704889 0-50.119111-26.680889-50.119111-59.448889V173.226667c0-32.824889 22.414222-59.448889 50.119111-59.448889z m200.988444 167.537778c27.591111 0.170667 50.062222 23.665778 50.176 52.849777v389.802667c0 29.184-22.414222 52.679111-50.176 52.679111-27.704889 0-50.176-23.495111-50.176-52.679111V333.937778c0-29.013333 22.471111-52.679111 50.176-52.679111z m-401.578666 0c27.761778 0.170667 50.232889 23.665778 50.232888 52.849777v389.802667c0 29.184-22.471111 52.679111-50.232888 52.679111-27.704889 0-50.176-23.495111-50.176-52.679111V333.937778c0-29.013333 22.471111-52.679111 50.176-52.679111z m601.941333 107.349333c27.761778 0 50.176 26.168889 50.062222 58.595555v163.612445c0 32.256-22.300444 58.424889-50.062222 58.424889-27.704889 0-50.176-26.168889-50.176-58.424889V447.146667c0-32.312889 22.471111-58.481778 50.176-58.481778z m-802.304 0.113778c27.591111 0 50.062222 26.168889 50.062222 58.368v163.84c0 32.142222-22.300444 58.311111-50.062222 58.311111S56.888889 643.299556 56.888889 610.986667V447.146667c0-32.142222 22.414222-58.368 50.176-58.368z" fill="#4F8DFC" /></svg>