<?xml version="1.0" standalone="no"?><!DOCTYPE svg PUBLIC "-//W3C//DTD SVG 1.1//EN" "http://www.w3.org/Graphics/SVG/1.1/DTD/svg11.dtd"><svg class="icon" width="48px" height="48.00px" viewBox="0 0 1024 1024" version="1.1" xmlns="http://www.w3.org/2000/svg"><path d="M815.1 380.1c-81.4-27.7-189-42.9-302.9-42.9h-7.3c30.1-39 61.1-72.7 91.3-99.2 26.5-23.2 51.4-39.7 72-47.7 14.4-5.6 26.2-6.7 32.4-3.2 6.7 3.9 11.8 16 13.9 33.3 3 24.4 0 57.5-8.7 95.7L776 332c10.6-46.9 14-87.4 9.9-120.4-3.5-28.7-14.9-67-49.4-86.9-33.1-19.1-92.5-24.4-187.8 59.1-45.6 39.9-92.3 94.2-135.8 157.3-29.3 2.4-57.6 5.8-84.7 10.2-4.9-16.7-8.9-32.9-12-48.4-6.9-34.6-8.7-64.4-5.3-86.2 2.4-15.2 7.2-26 13.4-29.6 10.2-5.9 46.5-1.7 110.5 56.4l48.4-53.3c-34.5-31.3-67.1-53.4-97-65.7-26-10.7-64.1-19.3-97.9 0.2-33.1 19.1-67.4 68-42.7 192.2 3.1 15.8 7.1 32.1 11.9 49-16.9 4.3-33 9-48.2 14.2C89.4 420.9 64.2 475 64.2 513.2c0 39.3 26.8 68.1 49.4 85.3 25.9 19.8 61.8 37.1 106.7 51.3l21.8-68.6c-83.7-26.5-105.8-56.1-105.8-68 0-7.1 6.9-16.8 18.9-26.4 17.2-13.8 44-27.1 77.3-38.5 15-5.1 31-9.7 47.8-13.8 9.7 25.7 21 52 33.6 78.6-17.6 37.2-32.6 74.1-44.6 109.4-21 62.2-32 118.9-31.8 163.8 0.2 38.9 9.2 90.3 51.1 114.5 14.7 8.5 30.1 11.6 45.1 11.6 19.7 0 38.4-5.5 53.3-11.6 30.1-12.4 62.9-34.8 97.5-66.4L436 781.2c-64.6 58.9-101.1 63.2-111.4 57.2-7.2-4.2-14.9-20.1-15.1-52.5-0.2-37.1 9.5-85.7 28-140.5 5.6-16.6 11.9-33.5 19-50.7 1.2 2 2.3 4 3.5 6.1 38.1 65.9 81.5 127.3 125.6 177.4 43.4 49.3 87 87.2 126 109.5 22.1 12.7 50.9 24.7 79.8 24.7 15.2 0 30.5-3.3 45-11.7 41.9-24.2 50.9-75.7 51.1-114.6 0.2-44.9-10.8-101.6-31.8-163.9-10.7-31.8-24-65-39.4-98.5L650.8 554c14.4 31.2 26.7 61.9 36.6 91.4 18.5 54.8 28.2 103.4 28 140.6-0.1 32.4-7.9 48.4-15.1 52.5-7.2 4.2-24.9 2.9-53-13.2-32.2-18.4-69.5-51.1-107.7-94.6-41-46.6-81.6-103.9-117.3-165.8-10-17.3-19.4-34.5-28.2-51.8 8.9-17.5 18.4-34.9 28.4-52.2 9.9-17.2 20.1-33.9 30.6-50.1 19.4-1 39.1-1.5 59.1-1.5 106.2 0 205.6 13.9 279.7 39.1 33.4 11.3 60.1 24.6 77.3 38.5 12 9.7 18.9 19.3 18.9 26.4 0 7.7-7.9 18.1-21.7 28.6-19.4 14.7-49.3 28.6-86.4 40.2l21.5 68.7c45.6-14.2 82.1-31.6 108.4-51.5 22.9-17.3 50.2-46.3 50.2-86 0.1-38.3-25.1-92.4-145-133.2z m-455 44.7c-1.3 2.2-2.5 4.4-3.8 6.6-1.5-3.6-2.9-7.2-4.4-10.8 3.8-0.6 7.7-1.1 11.6-1.6-1.1 1.8-2.2 3.8-3.4 5.8z" fill="#4F8DFC" /><path d="M538.7 526.3m-90 0a90 90 0 1 0 180 0 90 90 0 1 0-180 0Z" fill="#4F8DFC" /></svg>