<?xml version="1.0" standalone="no"?><!DOCTYPE svg PUBLIC "-//W3C//DTD SVG 1.1//EN" "http://www.w3.org/Graphics/SVG/1.1/DTD/svg11.dtd"><svg class="icon" width="48px" height="48.00px" viewBox="0 0 1024 1024" version="1.1" xmlns="http://www.w3.org/2000/svg"><path d="M883 592.1H775.1V431.9H883c13.8 0 25-11.2 25-25s-11.2-25-25-25H775.1v-38.5c0-52.1-42.4-94.5-94.5-94.5h-38.5V141c0-13.8-11.2-25-25-25s-25 11.2-25 25v107.9H431.9V141c0-13.8-11.2-25-25-25s-25 11.2-25 25v107.9h-38.5c-52.1 0-94.5 42.4-94.5 94.5v38.5H141c-13.8 0-25 11.2-25 25s11.2 25 25 25h107.9v160.2H141c-13.8 0-25 11.2-25 25s11.2 25 25 25h107.9v38.5c0 52.1 42.4 94.5 94.5 94.5h38.5V883c0 13.8 11.2 25 25 25s25-11.2 25-25V775.1h160.2V883c0 13.8 11.2 25 25 25s25-11.2 25-25V775.1h38.5c52.1 0 94.5-42.4 94.5-94.5v-38.5H883c13.8 0 25-11.2 25-25s-11.2-25-25-25z m-157.9 88.5c0 24.5-19.9 44.5-44.5 44.5H343.4c-24.5 0-44.5-19.9-44.5-44.5V343.4c0-24.5 19.9-44.5 44.5-44.5h337.2c24.5 0 44.5 19.9 44.5 44.5v337.2z" fill="#4F8DFC" /><path d="M506.5 413.1c-54.6 54.6 12.1 128.5-17.7 158.2-9 9-21.8 10-33.8-2.1-11.5-11.5-12.6-24.9 1.8-39.2l-37.4-37.4c-36.2 36.2-34.4 77.4-0.3 111.5 35.6 35.6 78 34.9 107.4 5.4 57.2-57.2-12.3-130.3 15.9-158.5 8.2-8.2 19-7.7 28.5 1.8 10.5 10.5 10 21.8-1.8 33.6l37.4 37.4c33.1-33.1 32.8-72.8-0.3-105.9-33-33.1-72.3-32.3-99.7-4.8z" fill="#4F8DFC" /></svg>