<?xml version="1.0" standalone="no"?><!DOCTYPE svg PUBLIC "-//W3C//DTD SVG 1.1//EN" "http://www.w3.org/Graphics/SVG/1.1/DTD/svg11.dtd"><svg class="icon" width="48px" height="37.10px" viewBox="0 0 1325 1024" version="1.1" xmlns="http://www.w3.org/2000/svg"><path d="M783.952854 457.184765v122.929171c0 78.227655 121.029357 141.14504 270.332424 141.14504s270.332424-63.140893 270.332424-141.14504v-122.929171z" fill="#99C9F2" /><path d="M783.952854 457.184765a270.332424 141.14504 0 1 0 540.664848 0 270.332424 141.14504 0 1 0-540.664848 0Z" fill="#E0EFFB" /><path d="M783.952854 299.164902v122.929172c0 78.227655 121.029357 141.14504 270.332424 141.14504s270.332424-63.140893 270.332424-141.14504v-122.929172z" fill="#99C9F2" /><path d="M783.952854 299.164902a270.332424 141.14504 0 1 0 540.664848 0 270.332424 141.14504 0 1 0-540.664848 0Z" fill="#E0EFFB" /><path d="M783.952854 141.14504v122.929172c0 78.227655 121.029357 141.14504 270.332424 141.145039s270.332424-63.140893 270.332424-141.145039v-122.929172z" fill="#99C9F2" /><path d="M783.952854 141.14504a270.332424 141.14504 0 1 0 540.664848 0 270.332424 141.14504 0 1 0-540.664848 0Z" fill="#E0EFFB" /><path d="M0 457.184765v122.929171c0 78.227655 121.029357 141.14504 270.332424 141.14504s270.332424-63.140893 270.332424-141.14504v-122.929171z" fill="#99C9F2" /><path d="M0 457.184765a270.332424 141.14504 0 1 0 540.664848 0 270.332424 141.14504 0 1 0-540.664848 0Z" fill="#E0EFFB" /><path d="M0 299.164902v122.929172c0 78.227655 121.029357 141.14504 270.332424 141.14504s270.332424-63.140893 270.332424-141.14504v-122.929172z" fill="#99C9F2" /><path d="M0 299.164902a270.332424 141.14504 0 1 0 540.664848 0 270.332424 141.14504 0 1 0-540.664848 0Z" fill="#E0EFFB" /><path d="M0 141.14504v122.929172c0 78.227655 121.029357 141.14504 270.332424 141.145039s270.332424-63.140893 270.332424-141.145039v-122.929172z" fill="#99C9F2" /><path d="M0 141.14504a270.332424 141.14504 0 1 0 540.664848 0 270.332424 141.14504 0 1 0-540.664848 0Z" fill="#E0EFFB" /><path d="M370.799083 759.925788v122.929172c0 78.227655 121.029357 141.14504 270.332424 141.14504S911.463931 960.300338 911.463931 882.85496V759.925788z" fill="#99C9F2" /><path d="M370.799083 759.478773a270.332424 141.14504 0 1 0 540.664848 0 270.332424 141.14504 0 1 0-540.664848 0Z" fill="#E0EFFB" /><path d="M370.799083 601.458911v122.929172c0 78.227655 121.029357 141.14504 270.332424 141.145039s270.332424-63.140893 270.332424-141.145039v-122.929172z" fill="#99C9F2" /><path d="M370.799083 601.458911a270.332424 141.14504 0 1 0 540.664848 0 270.332424 141.14504 0 1 0-540.664848 0Z" fill="#E0EFFB" /><path d="M370.799083 443.327295v122.929171c0 78.227655 121.029357 141.14504 270.332424 141.14504s270.332424-63.140893 270.332424-141.14504v-122.929171z" fill="#99C9F2" /><path d="M370.799083 443.327295a270.332424 141.14504 0 1 0 540.664848 0 270.332424 141.14504 0 1 0-540.664848 0Z" fill="#E0EFFB" /></svg>