<?xml version="1.0" standalone="no"?><!DOCTYPE svg PUBLIC "-//W3C//DTD SVG 1.1//EN" "http://www.w3.org/Graphics/SVG/1.1/DTD/svg11.dtd"><svg class="icon" width="48px" height="48.00px" viewBox="0 0 1024 1024" version="1.1" xmlns="http://www.w3.org/2000/svg"><path d="M581.794454 1024l-1.774878-728.013051 189.389886-105.866231 1.774877 728.01305-189.389885 105.866232z" fill="#99C9F2" /><path d="M581.794454 1024L254.590538 833.879282 252.815661 105.866232l327.203915 190.120717 1.774878 728.013051z" fill="#B8D9F6" /><path d="M580.019576 295.986949L252.815661 105.866232 442.205546 0l327.203916 190.120718-189.389886 105.866231zM396.058728 850.688418l-95.738989-52.619903-1.252855-587.693311 95.634584 52.515497 1.35726 587.797717zM535.54323 922.831974l-95.634584-52.515498-1.357259-587.797716 95.634584 52.619902 1.357259 587.693312z" fill="#E0EFFB" /><path d="M379.66721 317.076672l-63.373572-34.766721L315.458401 258.088091l63.269168 34.766721 0.939641 24.22186zM516.750408 387.862969l-63.269168-34.766721-0.835237-24.22186 63.269168 34.871126 0.835237 24.117455z" fill="#5CA8EA" /></svg>