<?xml version="1.0" standalone="no"?><!DOCTYPE svg PUBLIC "-//W3C//DTD SVG 1.1//EN" "http://www.w3.org/Graphics/SVG/1.1/DTD/svg11.dtd"><svg class="icon" width="48px" height="32.90px" viewBox="0 0 1494 1024" version="1.1" xmlns="http://www.w3.org/2000/svg"><path d="M845.513663 355.716996a27.387343 27.387343 0 0 0-3.184575-6.050692v-1.114601a37.259524 37.259524 0 0 0-5.254548-5.732235 51.430882 51.430882 0 0 0-4.617633-3.343803c-1.433059-0.955372-2.54766-2.069974-4.139947-2.866117l-53.500856-31.845748-3.343803-2.229202-3.184575-2.388431a25.635826 25.635826 0 0 1-2.706888-3.025346l-0.796144-1.114601a17.992847 17.992847 0 0 1-1.114601-2.54766v-2.54766a15.922874 15.922874 0 0 1 0-2.547659V127.382989a15.922874 15.922874 0 0 0 0 4.458404 18.470533 18.470533 0 0 0 2.069974 4.139947 25.15814 25.15814 0 0 0 3.503032 3.980719l3.184574 2.388431 2.866118 2.069973 53.500855 31.845748L828.157731 175.151609c1.27383 0 2.229202 1.592287 3.343803 2.388431a51.112424 51.112424 0 0 1 4.617634 3.343804 37.73721 37.73721 0 0 1 4.139947 4.458404v2.229203l1.27383 1.751516a26.750428 26.750428 0 0 1 1.751516 3.82149v1.273829a23.565853 23.565853 0 0 1 0 2.388431 22.451252 22.451252 0 0 1 0 3.82149v160.980252a23.088167 23.088167 0 0 0-1.114601-6.687607z" fill="#99C9F2" /><path d="M0.168305 722.102317a18.788991 18.788991 0 0 0 2.069973 4.139947 25.476598 25.476598 0 0 0 3.503033 3.980718l3.184574 2.388431 2.706889 1.910745 205.723526 119.580781a54.296999 54.296999 0 0 0 13.8529 5.254548h2.229203a74.200591 74.200591 0 0 0 15.922873 1.751516 74.519048 74.519048 0 0 0 15.922874-1.910745 55.093143 55.093143 0 0 0 14.649044-5.573005l813.499611-469.724771a71.652931 71.652931 0 0 1 9.553724-4.617633h1.592287l5.891464-1.910745h6.846835l6.528378-1.114601h40.921785l6.528379 1.592287 3.503032 0.796144h1.433058a73.882133 73.882133 0 0 1 12.897528 5.732234l53.500855 31.845747a54.456228 54.456228 0 0 0 14.330587 5.573006h1.910744a73.882133 73.882133 0 0 0 15.922874 1.592288 75.315192 75.315192 0 0 0 15.922874-2.069974 54.933914 54.933914 0 0 0 14.012128-5.413777 27.865029 27.865029 0 0 0 11.623698-11.623698l87.098118-185.979163L1492.141559 32.80112a15.922874 15.922874 0 0 0 1.592288-7.006065v160.980252a15.922874 15.922874 0 0 1-1.592288 7.006064l-86.461203 186.138393-87.257347 186.138392a27.865029 27.865029 0 0 1-11.623698 11.623698 47.768621 47.768621 0 0 1-6.36915 3.025346l-5.573005 1.910744H1258.234546l-4.458404-1.114601a51.430882 51.430882 0 0 1-10.031411-4.458404l-53.500855-31.845748a73.882133 73.882133 0 0 0-13.056756-5.732234l-4.936091-1.592287-6.528378-1.592288-7.961437-1.433058h-27.387342a104.454051 104.454051 0 0 0-10.509097 1.751516h-1.910745a89.48655 89.48655 0 0 0-9.076038 2.706888h-1.592287a72.130617 72.130617 0 0 0-10.03141 4.776862L283.117768 1016.357021a49.042451 49.042451 0 0 1-6.528378 3.184574l-5.413777 1.910745h-27.546571l-5.732235-0.796143H233.279174l-3.82149-0.955373a50.953195 50.953195 0 0 1-9.872181-4.299176L13.702747 896.77624l-2.229202-1.592287L7.811284 891.680921a25.795055 25.795055 0 0 1-2.866117-3.025346l-0.796144-1.27383a18.470533 18.470533 0 0 1-1.27383-2.54766v-0.796144a16.719017 16.719017 0 0 1 0-1.592287 15.922874 15.922874 0 0 1 0-2.54766L0.168305 717.484684a15.922874 15.922874 0 0 0 0 4.617633z" fill="#99C9F2" /><path d="M774.019961 107.320168c-15.922874 9.553724-18.629762 26.113513 0 36.941067l53.500855 31.845747c25.635826 14.808272 25.476598 39.01104 0 53.819313L13.543519 699.01415a19.425906 19.425906 0 0 0 0 36.781838l205.723526 119.580781a69.901415 69.901415 0 0 0 63.691495 0l813.499611-469.724771a102.384077 102.384077 0 0 1 92.989582 0l53.500855 31.845747a70.060644 70.060644 0 0 0 63.691494 0 27.865029 27.865029 0 0 0 11.623698-11.623697l87.098118-185.979164 86.93889-187.093764c9.235267-19.425906-21.336651-37.100295-54.933914-31.845748l-321.642046 49.838595-321.482818 49.838594a58.436946 58.436946 0 0 0-20.222049 6.687607z" fill="#E0EFFB" /></svg>