<?xml version="1.0" standalone="no"?><!DOCTYPE svg PUBLIC "-//W3C//DTD SVG 1.1//EN" "http://www.w3.org/Graphics/SVG/1.1/DTD/svg11.dtd"><svg class="icon" width="48px" height="48.00px" viewBox="0 0 1024 1024" version="1.1" xmlns="http://www.w3.org/2000/svg"><path d="M295.962849 936.49989a66.133804 66.133804 0 0 1-15.374696-70.090528l108.075072-295.39766 71.10797-194.444689c19.557518-53.47229 84.899978-53.47229 104.457497 0l71.10797 194.444689 108.075072 295.39766a66.133804 66.133804 0 0 1-15.374696 70.090528c-126.502098 116.666814-305.68514 116.666814-432.074189 0z" fill="#B8D9F6" /><path d="M471.528316 363.679399a40.471627 26.114374 0 1 0 80.943255 0 40.471627 26.114374 0 1 0-80.943255 0Z" fill="#E0EFFB" /><path d="M526.809394 362.09671L511.547747 117.571208l-15.487746 244.525502h30.749393z" fill="#E0EFFB" /><path d="M595.882478 99.596379c-0.791345-2.826231-1.582689-5.539413-2.374034-8.252595s-2.034886-5.426363-3.278428-7.913446a67.829543 67.829543 0 0 0-21.479355-25.888276 83.769486 83.769486 0 0 1 0 117.910356 67.829543 67.829543 0 0 0 21.479355-25.888276c1.243542-2.600132 2.260985-5.313314 3.278428-7.913446s1.582689-5.539413 2.374034-8.252595 0.904394-5.652462 1.46964-8.591742 0-5.765511 0-8.704791V107.396776c0-2.93928-0.904394-4.974166-1.46964-7.800397zM657.607362 64.890263a108.075072 108.075072 0 0 0-32.784279-40.697726 130.797969 130.797969 0 0 1 0 184.157209 108.30117 108.30117 0 0 0 32.784279-40.697726 120.17134 120.17134 0 0 0 8.704792-25.20998 131.476264 131.476264 0 0 0 2.93928-26.67962A131.928461 131.928461 0 0 0 666.312154 90.439391a120.397439 120.397439 0 0 0-8.704792-25.549128zM724.193364 51.324354A136.56348 136.56348 0 0 0 682.817342 0l-0.678295 0.678295a165.956282 165.956282 0 0 1 20.235814 24.983882A165.617134 165.617134 0 0 1 717.410409 179.63524a167.425922 167.425922 0 0 1-35.384411 53.472289l0.678295 0.678296a136.789578 136.789578 0 0 0 41.262972-51.324354 153.407816 153.407816 0 0 0 0-131.024068zM427.552163 134.076397c0.791345 2.826231 1.582689 5.539413 2.374034 8.252594s2.034886 5.426363 3.278427 7.913447a67.829543 67.829543 0 0 0 21.479356 25.888275 83.769486 83.769486 0 0 1 0-117.910355 67.829543 67.829543 0 0 0-21.479356 25.888275c-1.243542 2.600132-2.260985 5.313314-3.278427 7.913447s-1.582689 5.539413-2.374034 8.252594-0.904394 5.652462-1.469641 8.591742 0 5.765511 0 8.704792v8.704791c0 2.93928 0.904394 4.974166 1.469641 7.800398zM365.827278 168.782513a108.075072 108.075072 0 0 0 32.78428 40.697725 130.797969 130.797969 0 0 1 0-184.157209 108.30117 108.30117 0 0 0-32.78428 40.697726A120.17134 120.17134 0 0 0 357.122487 90.439391a131.476264 131.476264 0 0 0-2.93928 26.67962 131.928461 131.928461 0 0 0 2.93928 26.67962 120.397439 120.397439 0 0 0 8.704791 24.983882zM299.128228 182.348421a136.56348 136.56348 0 0 0 41.376021 51.324354l0.678295-0.678295a165.956282 165.956282 0 0 1-20.235813-24.983882A165.617134 165.617134 0 0 1 305.798133 54.037536 167.425922 167.425922 0 0 1 341.182544 0.678295L340.617298 0A136.789578 136.789578 0 0 0 299.128228 51.324354a153.407816 153.407816 0 0 0 0 131.024067z" fill="#5CA8EA" /><path d="M511.660796 119.379996m-21.705454 0a21.705454 21.705454 0 1 0 43.410908 0 21.705454 21.705454 0 1 0-43.410908 0Z" fill="#5CA8EA" /></svg>