<?xml version="1.0" standalone="no"?><!DOCTYPE svg PUBLIC "-//W3C//DTD SVG 1.1//EN" "http://www.w3.org/Graphics/SVG/1.1/DTD/svg11.dtd"><svg class="icon" width="48px" height="48.00px" viewBox="0 0 1024 1024" version="1.1" xmlns="http://www.w3.org/2000/svg"><path d="M627.677265 708.211496l-0.906917 315.788504L121.889647 732.42618l0.906917-315.697812 504.880701 291.483128z" fill="#B8D9F6" /><path d="M627.677265 708.211496L902.110353 548.684793l-0.906917 315.788504-274.433088 159.526703 0.906917-315.788504z" fill="#99C9F2" /><path d="M122.796564 416.728368l274.433088-159.526703L902.110353 548.684793 627.677265 708.211496 122.796564 416.728368z" fill="#E0EFFB" /><path d="M407.024356 398.952794h-82.62014l15.054822-283.502258h52.601187l14.964131 283.502258z" fill="#B8D9F6" /><path d="M339.459038 115.450536a26.300593 14.419981 0 1 0 52.601187 0 26.300593 14.419981 0 1 0-52.601187 0Z" fill="#E0EFFB" /><path d="M324.494907 398.952794a41.264724 22.582234 0 1 0 82.529449 0 41.264724 22.582234 0 1 0-82.529449 0Z" fill="#99C9F2" /><path d="M556.121513 494.813923h-67.65601l12.24338-231.989372h43.078558l12.334072 231.989372z" fill="#B8D9F6" /><path d="M500.799575 262.824551a21.493933 11.789921 0 1 0 42.987866 0 21.493933 11.789921 0 1 0-42.987866 0Z" fill="#E0EFFB" /><path d="M488.465503 494.813923a33.828005 18.501107 0 1 0 67.65601 0 33.828005 18.501107 0 1 0-67.65601 0Z" fill="#99C9F2" /><path d="M726.077761 579.157205H631.577008l17.140732-324.585599h60.219289l17.140732 324.585599z" fill="#B8D9F6" /><path d="M648.71774 254.571606a30.109645 16.50589 0 1 0 60.219289 0 30.109645 16.50589 0 1 0-60.219289 0Z" fill="#E0EFFB" /><path d="M631.577008 579.157205a47.250376 25.847135 0 1 0 94.500753 0 47.250376 25.847135 0 1 0-94.500753 0Z" fill="#99C9F2" /><path d="M506.603844 162.610221m-5.350811 0a5.35081 5.35081 0 1 0 10.701621 0 5.35081 5.35081 0 1 0-10.701621 0Z" fill="#5CA8EA" /><path d="M543.787441 179.932335m-6.257727 0a6.257727 6.257727 0 1 0 12.515455 0 6.257727 6.257727 0 1 0-12.515455 0Z" fill="#5CA8EA" /><path d="M524.832876 219.745992m-4.625277 0a4.625277 4.625277 0 1 0 9.250554 0 4.625277 4.625277 0 1 0-9.250554 0Z" fill="#5CA8EA" /><path d="M658.965902 172.676999m-5.804269 0a5.804269 5.804269 0 1 0 11.608538 0 5.804269 5.804269 0 1 0-11.608538 0Z" fill="#5CA8EA" /><path d="M699.142326 150.548224m-6.711186 0a6.711186 6.711186 0 1 0 13.422372 0 6.711186 6.711186 0 1 0-13.422372 0Z" fill="#5CA8EA" /><path d="M678.736693 214.757949m-4.988044 0a4.988044 4.988044 0 1 0 9.976088 0 4.988044 4.988044 0 1 0-9.976088 0Z" fill="#5CA8EA" /><path d="M382.991055 5.804269m-5.804269 0a5.804269 5.804269 0 1 0 11.608538 0 5.804269 5.804269 0 1 0-11.608538 0Z" fill="#5CA8EA" /><path d="M346.170224 31.742095m-6.711186 0a6.711186 6.711186 0 1 0 13.422372 0 6.711186 6.711186 0 1 0-13.422372 0Z" fill="#5CA8EA" /><path d="M371.835976 75.274112m-4.988044 0a4.988044 4.988044 0 1 0 9.976087 0 4.988044 4.988044 0 1 0-9.976087 0Z" fill="#5CA8EA" /><path d="M345.263307 634.025684l-0.090692 40.992649-35.641838-23.035692 0.090691-40.992649 35.641839 23.035692zM422.16987 681.729519l-0.181384 40.901957-36.004605-23.217075 0.090692-40.992649 36.095297 23.307767zM191.540873 539.071473l-0.090691 40.992649-35.641839-23.035692 0.090692-40.901958 35.641838 22.945001zM268.447436 586.775308l-0.181383 40.992649-36.004606-23.307767 0.181384-40.901958 36.004605 23.217076zM498.985741 728.979895l-0.090692 40.901958-35.641838-22.945001 0.090691-40.992649 35.641839 23.035692zM575.801612 776.411655l-0.090692 40.992649-35.641838-23.035692 0.090691-40.992649 35.641839 23.035692zM595.663095 897.213002l-0.090692 44.8017L141.751129 680.006377l0.090692-44.801701 453.821274 262.008326z" fill="#5CA8EA" /></svg>