<?xml version="1.0" standalone="no"?><!DOCTYPE svg PUBLIC "-//W3C//DTD SVG 1.1//EN" "http://www.w3.org/Graphics/SVG/1.1/DTD/svg11.dtd"><svg class="icon" width="48px" height="37.66px" viewBox="0 0 1305 1024" version="1.1" xmlns="http://www.w3.org/2000/svg"><path d="M0 373.14949l650.250205 379.752843v271.097667L0 644.367218V373.269551z" fill="#B8D9F6" /><path d="M1300.620471 373.14949L650.250205 752.902333v271.097667l650.250205-379.632782V373.14949z" fill="#99C9F2" /><path d="M1305.302849 373.269551L651.330754 0 4.9225 373.14949l645.327705 378.672294z" fill="#E0EFFB" /><path d="M918.466409 402.204244a9.124634 9.124634 0 0 1 13.086645 4.562317l14.767499 36.018291 12.846524 31.816156a9.124634 9.124634 0 0 1-9.724938 12.006097l-64.712862-8.64439-53.667253-7.083597a9.124634 9.124634 0 0 1-3.361707-17.048657 9.124634 9.124634 0 0 0 0-15.848048l-147.915114-84.2828a9.124634 9.124634 0 0 1 0-15.848048l30.97573-18.009145a9.124634 9.124634 0 0 1 9.244695 0l166.044319 96.048775a9.124634 9.124634 0 0 0 9.244695 0zM698.274593 530.189237a9.124634 9.124634 0 0 1 13.086645 4.562317l14.647438 36.01829 12.846524 31.816157a9.124634 9.124634 0 0 1-9.724939 12.006097l-64.712862-8.524329-53.547191-5.762927a9.124634 9.124634 0 0 1-3.361708-17.048657 9.124634 9.124634 0 0 0 0-15.848048l-147.915113-85.723532a9.124634 9.124634 0 0 1 0-15.848047l30.97573-18.009146a9.124634 9.124634 0 0 1 9.244695 0l166.044319 96.048775a9.124634 9.124634 0 0 0 9.244695 0zM477.602533 291.508031a9.124634 9.124634 0 0 0 0 15.848048l147.795052 85.363349a9.124634 9.124634 0 0 1 0 15.848048l-30.97573 18.009145a9.124634 9.124634 0 0 1-9.244695 0l-166.044319-96.048775a9.124634 9.124634 0 0 0-9.244695 0l-23.171767 13.446829a9.124634 9.124634 0 0 1-13.086645-4.562317l-14.647438-36.018291-12.846524-31.816156a9.124634 9.124634 0 0 1 9.724939-12.006097l64.712862 8.64439 53.547191 7.083597a9.124634 9.124634 0 0 1 3.481769 16.20823zM697.794349 163.523039a9.124634 9.124634 0 0 0 0 15.848048l147.795052 85.363348a9.124634 9.124634 0 0 1 0 15.848048l-30.97573 18.009146a9.124634 9.124634 0 0 1-9.244695 0l-166.044319-96.048775a9.124634 9.124634 0 0 0-9.244695 0L607.028257 216.109743a9.124634 9.124634 0 0 1-13.086646-4.562317l-14.647438-36.01829-12.846524-31.816157a9.124634 9.124634 0 0 1 9.724939-12.006097l64.712862 8.64439 53.547192 7.083597a9.124634 9.124634 0 0 1 3.361707 16.08817z" fill="#5CA8EA" /></svg>