<?xml version="1.0" standalone="no"?><!DOCTYPE svg PUBLIC "-//W3C//DTD SVG 1.1//EN" "http://www.w3.org/Graphics/SVG/1.1/DTD/svg11.dtd"><svg class="icon" width="48px" height="48.00px" viewBox="0 0 1024 1024" version="1.1" xmlns="http://www.w3.org/2000/svg"><path d="M184.442622 828.168611V851.583234c0 82.407308 121.634403 149.204868 272.055614 149.204867S728.655213 933.88918 728.655213 851.583234v-23.313261z" fill="#99C9F2" /><path d="M184.543984 828.168611a272.055614 149.204868 0 1 0 544.111229 0 272.055614 149.204868 0 1 0-544.111229 0Z" fill="#E0EFFB" /><path d="M917.999433 446.135224a34.158995 34.158995 0 0 0-16.927454-29.39498L196.301976 4.906428A34.158995 34.158995 0 0 0 144.505993 34.504132l1.824516 525.156535a34.158995 34.158995 0 0 0 16.927454 29.394981l228.165868 133.392395v96.19254l71.561574 42.572041v-96.902074l405.448009 236.781637a34.158995 34.158995 0 0 0 51.491897-29.597704z" fill="#99C9F2" /><path d="M877.150546 464.481747a34.158995 34.158995 0 0 0-16.927454-29.394981L155.453089 23.050226A34.158995 34.158995 0 0 0 103.961192 52.647931L105.481622 577.905827a34.158995 34.158995 0 0 0 16.927454 29.394981l260.905795 152.043004v53.620499l71.561573 42.572041v-54.330033l372.302635 217.624219a34.158995 34.158995 0 0 0 51.491897-29.597705z" fill="#E0EFFB" /><path d="M788.864242 948.789394L164.778393 583.784824A30.408601 30.408601 0 0 1 149.371369 557.633427l-1.317706-437.985213a30.408601 30.408601 0 0 1 45.612901-26.252758l624.491297 364.903209a30.408601 30.408601 0 0 1 15.001576 26.050034L834.477143 922.536636a30.408601 30.408601 0 0 1-45.612901 26.252758z" fill="#5CA8EA" /></svg>