<?xml version="1.0" standalone="no"?><!DOCTYPE svg PUBLIC "-//W3C//DTD SVG 1.1//EN" "http://www.w3.org/Graphics/SVG/1.1/DTD/svg11.dtd"><svg class="icon" width="48px" height="40.42px" viewBox="0 0 1216 1024" version="1.1" xmlns="http://www.w3.org/2000/svg"><path d="M0 454.196908L739.462978 885.272579v138.727421L0 593.653377V454.301058z" fill="#B8D9F6" /><path d="M1216.468674 612.192026L739.462978 885.272579v138.727421l477.005696-275.580146z" fill="#99C9F2" /><path d="M1216.468674 612.192026L473.985354 187.469487 0 454.301058l739.462978 429.617575z" fill="#E0EFFB" /><path d="M783.726607 711.863303c1.874695 3.957689-4.374288 7.602929-11.248169 6.561433l-37.285598-5.728235-37.389748-5.832384a11.977217 11.977217 0 0 1-4.165989-1.353946c-3.436941-1.978845-3.853539-5.415785 0-7.602929l20.100895-11.664768c-29.995118-18.538649-39.472742-30.620016-37.910496-64.989423 0-7.18633 1.041497-14.68511 1.666395-21.87144 0-5.103336 1.041497-10.414972 1.353947-15.414158-54.8869 0-67.280716-2.707893-89.672905-15.622457l-4.478438-2.603743-8.540276-4.999186c-24.475183-14.164361-30.515867-35.515053-31.244915-58.844589l-40.410089 0.729048c-58.740439 1.145647-104.149715-3.957689-135.39463-15.101709a112.585842 112.585842 0 0 1-18.642799-8.331977l-4.270139-2.707893-17.913751 10.414972a14.47681 14.47681 0 0 1-13.122864 0 5.624085 5.624085 0 0 1-2.395443-2.395444l-10.414972-21.558991-10.414971-21.558991c-1.874695-3.957689 4.374288-7.602929 11.248169-6.561432l37.285598 5.832384 37.285598 5.832384a11.873068 11.873068 0 0 1 4.165989 1.353946c3.436941 1.978845 3.853539 5.415785 0 7.60293l-17.393003 10.414971a44.576078 44.576078 0 0 0 4.165989 2.707893c13.643613 7.915378 49.262815 20.829943 134.769731 19.059398l41.659886-0.729048c0-5.519935 0.937347-11.03987 1.458096-16.663955s1.353946-14.47681 1.666396-21.350691c1.458096-33.432059-4.999186-39.264443-46.034174-63.114728l-15.622458 9.061025a14.372661 14.372661 0 0 1-13.018714 0 5.624085 5.624085 0 0 1-2.395443-2.395443l-10.414972-21.558991-10.414971-21.558991c-1.874695-3.957689 4.374288-7.602929 11.248169-6.561432l37.285598 5.832384 38.535395 5.519935a11.977217 11.977217 0 0 1 4.165988 1.353946c3.436941 1.978845 3.853539 5.311635 0 7.49878l-19.788446 11.560618c42.597234 24.683483 55.615948 34.681855 53.949553 74.467046 0 7.18633-1.041497 14.58096-1.770545 21.87144 0 5.103336-0.937347 10.414972-1.353947 15.414158 54.78275 0 67.280716 2.707893 89.568755 15.622458l4.686738 2.707892 8.540276 4.999187c24.475183 14.164361 30.515867 35.619203 31.244915 58.844589l40.410089-0.833198c58.740439-1.145647 104.149715 3.957689 135.39463 15.101709l5.832384 2.291293 18.851099-10.93572a14.372661 14.372661 0 0 1 13.018714 0 5.624085 5.624085 0 0 1 2.395443 2.395444l10.414972 21.558991 10.414971 21.558991c1.874695 3.957689-4.374288 7.602929-11.248169 6.561432l-37.285598-5.832384L857.152156 614.48332a11.977217 11.977217 0 0 1-4.165988-1.353947c-3.436941-1.978845-3.853539-5.311635 0-7.498779l16.247355-9.373474c-19.475997-6.978031-55.720098-14.372661-121.438568-13.018715l-41.659886 0.729048c0 5.519935-0.833198 11.14402-1.458096 16.663955-0.624898 7.082181-1.353946 14.47681-1.666395 21.350691-1.249797 28.537022 3.332791 36.973149 30.099267 53.532954l14.89341-8.956876a14.47681 14.47681 0 0 1 13.122864 0 5.624085 5.624085 0 0 1 2.395443 2.395444l10.414972 21.558991zM609.067535 557.930024c14.997559 8.644426 23.433686 10.414972 70.405207 10.414972 0-19.996745-4.895037-37.806347-22.912937-48.221318l-8.748576-5.207486-5.207486-3.020342c-14.997559-8.644426-23.433686-10.414972-70.405208-10.414971 0 19.996745 4.790887 37.806347 22.808788 48.221318l8.852726 5.207486 5.207486 3.020341" fill="#5CA8EA" /><path d="M676.973149 903.602929v39.472742l-38.951994-21.66314v-39.472743z" fill="#5CA8EA" /><path d="M48.325468 580.634662l37.077298 22.07974v-38.118796l-37.077298-22.079739v38.118795zM106.753458 613.858421l37.077299 22.07974V597.819365l-37.077299-22.079739v38.118795zM165.077299 608.963385v38.118796l37.181448 22.079739v-38.118796l-37.181448-22.079739z" fill="#5CA8EA" /><path d="M0 266.519121l739.462978 430.763222V836.322213L0 405.558991V266.519121z" fill="#B8D9F6" /><path d="M1216.468674 424.514239L739.462978 697.282343V836.322213l477.005696-275.580146z" fill="#99C9F2" /><path d="M1216.468674 424.514239L473.985354 0 0 266.519121l739.462978 429.721725z" fill="#E0EFFB" /><path d="M783.726607 524.185517c1.874695 3.957689-4.374288 7.602929-11.248169 6.561432l-37.285598-5.728235-37.389748-5.832384a11.977217 11.977217 0 0 1-4.165989-1.353946c-3.436941-1.978845-3.853539-5.415785 0-7.602929l20.100895-11.664768c-29.995118-18.538649-39.472742-30.620016-37.910496-64.989423 0-7.18633 1.041497-14.68511 1.666395-21.87144 0-5.103336 1.041497-10.414972 1.353947-15.414158-54.8869 0-67.280716-2.707893-89.672905-15.622457l-4.478438-2.603743-8.540276-4.999186c-24.475183-14.164361-30.515867-35.515053-31.244915-58.844589l-40.410089 0.729048c-58.740439 1.145647-104.149715-3.957689-135.39463-15.101709a112.585842 112.585842 0 0 1-18.642799-8.331977l-4.270139-2.707893-17.913751 10.414972a14.47681 14.47681 0 0 1-13.122864 0 5.624085 5.624085 0 0 1-2.395443-2.395444l-10.414972-21.558991-10.414971-21.558991c-1.874695-3.957689 4.374288-7.602929 11.248169-6.561432l37.285598 5.832384 37.285598 5.832384a11.873068 11.873068 0 0 1 4.165989 1.353947c3.436941 1.978845 3.853539 5.415785 0 7.602929l-17.393003 10.414971a44.576078 44.576078 0 0 0 4.165989 2.707893c13.643613 7.915378 49.262815 20.829943 134.769731 19.059398l41.659886-0.729048c0-5.519935 0.937347-11.03987 1.458096-16.663955s1.353946-14.47681 1.666396-21.350691c1.458096-33.432059-4.999186-39.264443-46.034174-63.114728l-15.622458 9.061026a14.372661 14.372661 0 0 1-13.018714 0 5.624085 5.624085 0 0 1-2.395443-2.395444l-10.414972-21.558991-10.414971-21.558991c-1.874695-3.957689 4.374288-7.602929 11.248169-6.561432l38.327095 5.311635 37.493898 6.248983a11.977217 11.977217 0 0 1 4.165988 1.353947c3.436941 1.978845 3.853539 5.311635 0 7.498779l-19.788446 11.560619c42.597234 24.683483 55.615948 34.681855 53.949553 74.467046 0 7.18633-1.041497 14.58096-1.770545 21.87144 0 5.103336-0.937347 10.414972-1.353947 15.414158 54.78275 0 67.280716 2.707893 89.568755 15.622457l4.686738 2.707893 8.540276 4.999186c24.475183 14.164361 30.515867 35.619203 31.244915 58.844589l40.410089-0.833197c58.740439-1.145647 104.149715 3.957689 135.39463 15.101708l5.832384 2.291294 18.851099-10.93572a14.372661 14.372661 0 0 1 13.018714 0 5.624085 5.624085 0 0 1 2.395443 2.395443l10.414972 21.558991 10.414971 21.558991c1.874695 3.957689-4.374288 7.602929-11.248169 6.561432l-37.285598-5.832384L857.152156 427.013832a11.977217 11.977217 0 0 1-4.165988-1.353946c-3.436941-1.978845-3.853539-5.311635 0-7.498779l16.247355-9.373475c-19.475997-6.978031-55.720098-14.372661-121.438568-13.018714l-41.659886 0.729048c0 5.519935-0.833198 11.14402-1.458096 16.663954-0.624898 7.082181-1.353946 14.47681-1.666395 21.350692-1.249797 28.537022 3.332791 36.973149 30.099267 53.532954l14.89341-8.956876a14.47681 14.47681 0 0 1 13.122864 0 5.624085 5.624085 0 0 1 2.395443 2.395443l10.414972 21.558991zM609.067535 370.252238c14.997559 8.644426 23.433686 10.414972 70.405207 10.414971 0-19.996745-4.895037-37.806347-22.912937-48.221318l-8.748576-5.207486-5.207486-3.020342c-14.997559-8.644426-23.433686-10.414972-70.405208-10.414971 0 19.996745 4.790887 37.806347 22.808788 48.221318l8.852726 5.207486 5.207486 3.020342" fill="#5CA8EA" /><path d="M676.973149 715.925142v39.472742l-38.951994-21.66314v-39.472742z" fill="#5CA8EA" /><path d="M48.325468 392.956876l37.077298 22.079739v-38.222945l-37.077298-22.07974v38.222946zM106.753458 426.180635l37.077299 22.079739v-38.222945l-37.077299-22.07974v38.222946zM165.077299 421.181448v38.222946l37.181448 22.079739v-38.222945l-37.181448-22.07974z" fill="#5CA8EA" /></svg>