<?xml version="1.0" standalone="no"?><!DOCTYPE svg PUBLIC "-//W3C//DTD SVG 1.1//EN" "http://www.w3.org/Graphics/SVG/1.1/DTD/svg11.dtd"><svg class="icon" width="48px" height="48.00px" viewBox="0 0 1024 1024" version="1.1" xmlns="http://www.w3.org/2000/svg"><path d="M699.733333 633.386667m-196.266666 0a196.266667 196.266667 0 1 0 392.533333 0 196.266667 196.266667 0 1 0-392.533333 0Z" fill="#4169E1" /><path d="M246.186667 206.08m-46.293334 0a46.293333 46.293333 0 1 0 92.586667 0 46.293333 46.293333 0 1 0-92.586667 0Z" fill="#4169E1" /><path d="M677.76 654.506667l-199.893333-125.013334v-202.666666h64v167.253333l169.813333 106.026667-33.92 54.4z" fill="#2c2c2c" /><path d="M509.866667 901.76A378.453333 378.453333 0 0 1 207.146667 296.106667l51.2 38.4A314.026667 314.026667 0 1 0 362.666667 245.12l-29.866667-56.746667a378.666667 378.666667 0 1 1 177.066667 713.386667z" fill="#2c2c2c" /></svg>