<?xml version="1.0" standalone="no"?><!DOCTYPE svg PUBLIC "-//W3C//DTD SVG 1.1//EN" "http://www.w3.org/Graphics/SVG/1.1/DTD/svg11.dtd"><svg class="icon" width="48px" height="48.00px" viewBox="0 0 1024 1024" version="1.1" xmlns="http://www.w3.org/2000/svg"><path d="M613.546667 523.306667m-192 0a192 192 0 1 0 384 0 192 192 0 1 0-384 0Z" fill="#4169E1" /><path d="M263.68 195.84m-45.226667 0a45.226667 45.226667 0 1 0 90.453334 0 45.226667 45.226667 0 1 0-90.453334 0Z" fill="#4169E1" /><path d="M509.44 821.76a33.92 33.92 0 0 1-23.68-9.6c-42.666667-40.96-256-253.44-256-394.24a277.333333 277.333333 0 0 1 28.373333-123.093333l57.386667 27.946666a215.253333 215.253333 0 0 0-21.333333 95.146667C293.12 505.813333 424.533333 661.333333 509.44 746.666667c21.333333-21.333333 55.68-57.6 90.88-99.84a948.693333 948.693333 0 0 0 77.866667-105.386667c39.466667-64 47.786667-101.546667 47.786666-122.453333A216.32 216.32 0 0 0 393.6 234.666667l-34.346667-53.76A280.533333 280.533333 0 0 1 789.333333 417.92c0 42.666667-18.986667 94.293333-57.6 156.16a1004.373333 1004.373333 0 0 1-82.773333 112.64A1695.36 1695.36 0 0 1 533.333333 812.373333a34.56 34.56 0 0 1-23.893333 9.386667z m21.333333-55.893333z" fill="#2c2c2c" /><path d="M509.44 553.386667a135.466667 135.466667 0 1 1 135.466667-135.466667 135.68 135.68 0 0 1-135.466667 135.466667z m0-206.933334a71.466667 71.466667 0 1 0 71.466667 71.466667 71.466667 71.466667 0 0 0-71.466667-71.466667zM302.506667 841.173333h414.08v64H302.506667z" fill="#2c2c2c" /></svg>