<?xml version="1.0" standalone="no"?><!DOCTYPE svg PUBLIC "-//W3C//DTD SVG 1.1//EN" "http://www.w3.org/Graphics/SVG/1.1/DTD/svg11.dtd"><svg class="icon" width="48px" height="48.00px" viewBox="0 0 1024 1024" version="1.1" xmlns="http://www.w3.org/2000/svg"><path d="M700.16 661.333333m-181.333333 0a181.333333 181.333333 0 1 0 362.666666 0 181.333333 181.333333 0 1 0-362.666666 0Z" fill="#4169E1" /><path d="M158.506667 232.106667m-42.666667 0a42.666667 42.666667 0 1 0 85.333333 0 42.666667 42.666667 0 1 0-85.333333 0Z" fill="#4169E1" /><path d="M518.826667 654.08a152.746667 152.746667 0 1 1 152.746666-152.746667 152.96 152.96 0 0 1-152.746666 152.746667z m0-241.493333a88.746667 88.746667 0 1 0 88.746666 88.746666 88.746667 88.746667 0 0 0-88.746666-88.746666z" fill="#2c2c2c" /><path d="M310.186667 533.333333H157.866667v-32a360.96 360.96 0 0 1 700.373333-122.666666l-60.16 21.333333A296.96 296.96 0 0 0 223.573333 469.333333h86.613334zM518.826667 862.08A362.666667 362.666667 0 0 1 179.413333 624.213333l60.16-21.333333A296.96 296.96 0 0 0 813.866667 533.333333h-86.613334v-64h152.32v32a361.173333 361.173333 0 0 1-360.746666 360.746667z" fill="#2c2c2c" /></svg>