<?xml version="1.0" standalone="no"?><!DOCTYPE svg PUBLIC "-//W3C//DTD SVG 1.1//EN" "http://www.w3.org/Graphics/SVG/1.1/DTD/svg11.dtd"><svg class="icon" width="48px" height="48.00px" viewBox="0 0 1024 1024" version="1.1" xmlns="http://www.w3.org/2000/svg"><path d="M793.22 363.55m0 119.91l0 185.18q0 119.91-119.91 119.91l-185.18 0q-119.91 0-119.91-119.91l0-185.18q0-119.91 119.91-119.91l185.18 0q119.91 0 119.91 119.91Z" fill="#4169E1" /><path d="M696 848H328c-83.81 0-152-68.19-152-152V328c0-83.81 68.19-152 152-152h368c83.81 0 152 68.19 152 152v368c0 83.81-68.19 152-152 152zM328 240a88.1 88.1 0 0 0-88 88v368a88.1 88.1 0 0 0 88 88h368a88.1 88.1 0 0 0 88-88V328a88.1 88.1 0 0 0-88-88z" fill="#2c2c2c" /><path d="M359.63 226.78a32 32 0 0 1-32-32V114.4a32 32 0 1 1 64 0v80.38a32 32 0 0 1-32 32zM512.1 226.78a32 32 0 0 1-32-32V114.4a32 32 0 1 1 64 0v80.38a32 32 0 0 1-32 32zM664.57 226.78a32 32 0 0 1-32-32V114.4a32 32 0 1 1 64 0v80.38a32 32 0 0 1-32 32zM359.63 942.1a32 32 0 0 1-32-32v-80.38a32 32 0 0 1 64 0v80.38a32 32 0 0 1-32 32zM512.1 942.1a32 32 0 0 1-32-32v-80.38a32 32 0 0 1 64 0v80.38a32 32 0 0 1-32 32zM664.57 942.1a32 32 0 0 1-32-32v-80.38a32 32 0 0 1 64 0v80.38a32 32 0 0 1-32 32zM910 391.78h-80.43a32 32 0 1 1 0-64H910a32 32 0 0 1 0 64zM910 544.25h-80.43a32 32 0 0 1 0-64H910a32 32 0 0 1 0 64zM910 696.72h-80.43a32 32 0 1 1 0-64H910a32 32 0 0 1 0 64zM194.63 391.78h-80.38a32 32 0 0 1 0-64h80.38a32 32 0 0 1 0 64zM194.63 544.25h-80.38a32 32 0 0 1 0-64h80.38a32 32 0 0 1 0 64zM194.63 696.72h-80.38a32 32 0 0 1 0-64h80.38a32 32 0 0 1 0 64z" fill="#2c2c2c" /><path d="M349.96 512m-40 0a40 40 0 1 0 80 0 40 40 0 1 0-80 0Z" fill="#2c2c2c" /><path d="M512 512m-40 0a40 40 0 1 0 80 0 40 40 0 1 0-80 0Z" fill="#2c2c2c" /><path d="M674.04 512m-40 0a40 40 0 1 0 80 0 40 40 0 1 0-80 0Z" fill="#2c2c2c" /></svg>