<?xml version="1.0" standalone="no"?><!DOCTYPE svg PUBLIC "-//W3C//DTD SVG 1.1//EN" "http://www.w3.org/Graphics/SVG/1.1/DTD/svg11.dtd"><svg class="icon" width="48px" height="32.90px" viewBox="0 0 1494 1024" version="1.1" xmlns="http://www.w3.org/2000/svg"><path d="M1493.678908 145.563066a15.922366 15.922366 0 0 1 0 4.77671 18.947616 18.947616 0 0 1-2.229131 4.299039 25.794233 25.794233 0 0 1-3.50292 3.821368l-2.388355 1.910684a36.143771 36.143771 0 0 1-3.821368 2.706802L666.830441 633.742809l-2.229132 1.273789c-1.273789 0.796118-2.229131 1.75146-3.343696 2.547579l-3.662145 2.706802h-0.796118a36.939889 36.939889 0 0 0-3.821368 4.299039v0.955342l-1.433013 2.229131a26.590351 26.590351 0 0 0-1.75146 3.662144v0.955342a23.405878 23.405878 0 0 0 0 2.706802 22.132089 22.132089 0 0 0 0 3.821368v109.545878L377.998721 812.073308 56.685375 862.069538a77.064252 77.064252 0 0 1-10.508762 0.955341h-0.955342a74.675897 74.675897 0 0 1-9.55342 0 68.147727 68.147727 0 0 1-9.712643-3.184473 57.161294 57.161294 0 0 1-6.846617-2.388355l-4.77671-1.75146-3.184473-1.75146a33.436969 33.436969 0 0 1-3.662144-3.02525l-2.229132-2.069907a21.654418 21.654418 0 0 1-2.706802-3.821368A20.699076 20.699076 0 0 1 1.434764 843.91804a15.922366 15.922366 0 0 1-1.433012-6.846617v160.97512a15.922366 15.922366 0 0 0 1.433012 6.209723 19.743734 19.743734 0 0 0 1.27379 1.910684 21.813641 21.813641 0 0 0 2.547578 3.821368l2.229132 2.069907a32.959298 32.959298 0 0 0 3.662144 3.02525l3.184473 1.75146 4.617486 2.229132h1.273789l5.413605 1.75146 4.139815 0.955342h27.068022l321.47257-49.837006L700.585857 923.52987h1.75146a67.351608 67.351608 0 0 0 8.120407-1.910684 50.951571 50.951571 0 0 0 9.712643-4.139815l1.433013-0.955342 2.229131-1.75146 2.388355-1.910684 2.706802-3.025249 1.114566-1.592237a18.469945 18.469945 0 0 0 1.114565-2.547579 15.922366 15.922366 0 0 0 0-2.069907 15.922366 15.922366 0 0 0 0-2.547579v-141.072163L1480.781792 325.008131l1.433013-0.955342 2.229131-1.75146 2.388355-1.910684 2.706802-2.866026 0.955342-1.433013a17.673826 17.673826 0 0 0 1.114566-2.547578 15.922366 15.922366 0 0 0 0-1.910684 15.922366 15.922366 0 0 0 0-2.547579z" fill="#99C9F2" /><path d="M187.567223 445.85889a70.217634 70.217634 0 0 1 63.689464 0l53.49915 31.844732A102.699261 102.699261 0 0 0 398.060902 477.703622L1211.375359 7.675377a69.899187 69.899187 0 0 1 63.689464 0L1480.781792 127.411569a19.425287 19.425287 0 0 1 0 36.780666L666.830441 633.742809c-25.794233 14.8078-25.953457 39.009797 0 53.817597l53.339926 31.048614c18.469945 10.827209 15.922366 27.38647 0 36.939889a58.435083 58.435083 0 0 1-20.062181 6.687394L377.998721 812.073308 56.685375 862.069538c-33.436969 5.254381-63.689464-12.578669-54.932163-31.844733l86.936118-186.132458L175.147778 457.959888a27.545693 27.545693 0 0 1 12.419445-12.100998z" fill="#E0EFFB" /></svg>