<?xml version="1.0" standalone="no"?><!DOCTYPE svg PUBLIC "-//W3C//DTD SVG 1.1//EN" "http://www.w3.org/Graphics/SVG/1.1/DTD/svg11.dtd"><svg class="icon" width="48px" height="48.00px" viewBox="0 0 1024 1024" version="1.1" xmlns="http://www.w3.org/2000/svg"><path d="M217.397628 791.576285l-1.011857-496.417392L557.179447 104.221344l1.011857 496.518577-340.793676 190.836364z" fill="#99C9F2" /><path d="M216.385771 791.576285L36.983399 687.354941 35.971542 190.836364l179.402371 104.322529 1.011858 496.417392z" fill="#B8D9F6" /><path d="M177.024506 364.066403L65.315415 298.902767l-0.303557-27.52253 111.709091 65.062451 0.303557 27.623715zM177.024506 425.081423L65.315415 360.018972l-0.303557-27.522529 111.709091 65.06245 0.303557 27.52253zM177.024506 712.044269L65.315415 646.880632l-0.303557-27.522529 111.709091 65.06245 0.303557 27.623716zM82.618182 433.27747l-17.403953-10.017391-0.202371-24.385771 17.302767 10.017392 0.303557 24.38577zM114.086957 451.895652L96.683004 441.878261l-0.202372-24.385771 17.403953 10.017391 0.202372 24.385771zM145.555731 469.704348l-17.302767-9.916206-0.303557-24.38577 17.403953 10.017391 0.202371 24.284585zM177.024506 488.221344l-17.302767-10.017391-0.303557-24.385771 17.403952 10.017391 0.202372 24.385771z" fill="#5CA8EA" /><path d="M216.385771 295.664822L35.971542 190.836364 376.765217 0l179.402372 104.221344-339.781818 191.443478z" fill="#E0EFFB" /><path d="M547.364427 726.61502v13.963636c0 49.378656 73.056126 89.448221 163.111462 89.448221s163.111462-40.474308 163.111463-89.448221v-13.963636z" fill="#99C9F2" /><path d="M547.364427 726.61502a163.111462 89.448221 0 1 0 326.222925 0 163.111462 89.448221 0 1 0-326.222925 0Z" fill="#E0EFFB" /><path d="M987.117787 497.631621a20.237154 20.237154 0 0 0-10.118578-17.606325L554.447431 232.727273a20.237154 20.237154 0 0 0-30.355731 17.808695l0.910672 314.788933a20.237154 20.237154 0 0 0 10.118577 17.606324l136.803162 79.936759v57.67589l42.902766 25.498814L713.916206 688.063241l242.845849 141.660079a20.237154 20.237154 0 0 0 30.355732-17.808695z" fill="#B8D9F6" /><path d="M962.63083 508.559684a20.237154 20.237154 0 0 0-10.118577-17.606324L529.960474 243.857708a20.237154 20.237154 0 0 0-30.355731 17.808695L500.009486 576.758893a20.237154 20.237154 0 0 0 10.118577 17.606324l156.433202 91.067194v32.177075l42.902767 25.498814v-32.480632l223.21581 130.529644a20.237154 20.237154 0 0 0 30.355731-17.808695z" fill="#E0EFFB" /><path d="M909.710672 799.367589l-374.387352-218.864822a18.213439 18.213439 0 0 1-9.005533-15.683795l-0.809487-263.083004a18.213439 18.213439 0 0 1 27.320158-15.78498l374.387352 218.864822a18.213439 18.213439 0 0 1 9.309091 15.784981l0.809486 263.083003A18.213439 18.213439 0 0 1 909.710672 799.367589z" fill="#5CA8EA" /><path d="M314.434783 844.0917L588.344664 1003.762846v20.237154L314.434783 863.924111v-20.237154z" fill="#B8D9F6" /><path d="M708.249802 934.75415L588.344664 1003.762846v20.237154l119.905138-70.020553z" fill="#99C9F2" /><path d="M708.249802 934.75415L433.125692 777.511462l-118.690909 66.681423 273.909881 159.165218z" fill="#E0EFFB" /><path d="M655.835573 925.748617L440.714625 803.010277l-9.207906 6.577075 214.109091 124.256126z" fill="#5CA8EA" /></svg>