<?xml version="1.0" standalone="no"?><!DOCTYPE svg PUBLIC "-//W3C//DTD SVG 1.1//EN" "http://www.w3.org/Graphics/SVG/1.1/DTD/svg11.dtd"><svg class="icon" width="48px" height="48.00px" viewBox="0 0 1024 1024" version="1.1" xmlns="http://www.w3.org/2000/svg"><path d="M233.68 941.82C93.036 850.56 0 692.144 0 512 0 229.232 229.232 0 512 0c282.768 0 512 229.232 512 512 0 180.144-93.036 338.56-233.68 429.82L1024 984v40H0v-40l233.68-42.18z m60.576-10.936L512 891.58l217.744 39.304C880.832 852.184 984 694.14 984 512c0-260.68-211.32-472-472-472S40 251.32 40 512c0 182.14 103.168 340.184 254.256 418.88z" fill="#2c2c2c" /><path d="M802.492 534.172c-90.136 78.872-159.152 132.264-207.056 160.172-47.3 27.56-119.988 57.064-218.072 88.508a32 32 0 0 1-40.912-23.12C312.152 656.788 300 573.26 300 509.144c0-64.4 12.26-147.288 36.776-248.66a32 32 0 0 1 39.536-23.344c74.384 20.32 147.428 51.368 219.124 93.144 72.552 42.272 141.852 94.432 207.896 156.48a32 32 0 0 1-0.84 47.408z m-60.204-4.24a26.924 26.924 0 0 0 0.688-39.928c-53.256-49.892-109.12-91.86-167.6-125.904-57.76-33.628-116.6-58.672-176.52-75.132a26.924 26.924 0 0 0-33.308 19.644C345.848 390.224 336 456.988 336 508.912c0 51.688 9.76 118.96 29.28 201.816a26.924 26.924 0 0 0 34.44 19.464c78.948-25.336 137.5-49.112 175.66-71.332 38.66-22.504 94.296-65.48 166.908-128.932z" fill="#2c2c2c" /><path d="M628.092 528.332c-33.912 29.12-60.308 49.176-79.184 60.164-18.36 10.692-45.488 22.052-81.384 34.08a26.924 26.924 0 0 1-34.856-19.748c-8.444-38.44-12.668-70.128-12.668-95.08 0-25.12 4.28-56.7 12.848-94.732a26.924 26.924 0 0 1 34.38-19.76c27.656 8.74 54.88 20.908 81.68 36.512 27.588 16.06 54.1 35.4 79.536 58.016a26.924 26.924 0 0 1-0.352 40.548z" fill="#4169E1" /></svg>