<?xml version="1.0" standalone="no"?><!DOCTYPE svg PUBLIC "-//W3C//DTD SVG 1.1//EN" "http://www.w3.org/Graphics/SVG/1.1/DTD/svg11.dtd"><svg class="icon" width="48px" height="48.00px" viewBox="0 0 1024 1024" version="1.1" xmlns="http://www.w3.org/2000/svg"><path d="M303.3 711.6S253 489.5 355.7 368.4s284.8-93.8 329.5-80.6c44.7 13.2 155.6 11 182.9-12.2 0 0-41.1 344.5-181.7 431.5-144.7 89.4-295.1 60.9-383.1 4.5z" fill="#4169E1" /><path d="M128 898.6c-3.4 0-6.9-0.7-10.3-2.2-12.6-5.7-18.2-20.5-12.5-33 1.4-3.1 35.4-77.9 101-166.4 38.6-52.1 80.2-98.3 123.8-137.1 54.9-48.9 112.9-86.4 172.5-111.3 0.9-0.4 1.7-0.7 2.6-0.9 1.7-0.5 170.8-50.8 249.9-143.8 8.9-10.5 24.7-11.8 35.2-2.9 10.5 8.9 11.8 24.7 2.9 35.2C707.3 437 539 489.6 520.5 495.2 397.5 546.9 304 649 247.1 725.7c-62.7 84.4-95.9 157.4-96.2 158.2-4.3 9.2-13.4 14.7-22.9 14.7z" fill="#2c2c2c" /><path d="M452.8 789.4c-6.5 0-13-0.1-19.5-0.4-74.3-3.3-147.6-25.9-206.5-63.7-5.5-3.5-9.4-9.1-10.9-15.5-0.6-2.7-15-67-14.6-149.5 0.2-48.8 5.5-94 15.8-134.1 13.2-51.4 34.7-94.9 63.8-129.3 29.5-34.8 66.4-62.2 109.8-81.4 35.7-15.8 75.8-26.1 119.2-30.6 76.3-7.9 144.4 4 172.7 12.3 22.1 6.5 63.7 9.6 103.4 7.6 52.3-2.6 76.4-12 81.8-16.6 7.8-6.7 19-7.9 28-3 9.1 4.9 14.2 14.8 13 25-0.5 4.1-12.3 101.4-44.2 212.7-43.9 152.9-102.6 253-174.5 297.4-41.5 25.7-85.5 44.5-130.7 55.9-34.9 8.7-70.7 13.2-106.6 13.2zM262.7 688.7c92.3 54.8 249 83.2 401.1-10.9 60.2-37.2 113-130.1 152.8-268.7 18.4-64 29.9-124.1 36.3-162.4-21.1 4.8-44.5 7.1-64.4 8.1-46.2 2.3-92.2-1.4-120-9.6-57.8-17-246-38-349.5 84.1-95 112-65 312.4-56.3 359.4z" fill="#2c2c2c" /></svg>