<?xml version="1.0" standalone="no"?><!DOCTYPE svg PUBLIC "-//W3C//DTD SVG 1.1//EN" "http://www.w3.org/Graphics/SVG/1.1/DTD/svg11.dtd"><svg class="icon" width="48px" height="48.00px" viewBox="0 0 1024 1024" version="1.1" xmlns="http://www.w3.org/2000/svg"><path d="M513.7 878.3c-56 0-104.4-39.6-115.1-94.1L380 692.9l71.4-14.5 18.6 91.4c0 0.1 0 0.2 0.1 0.3 4 20.5 22.3 35.3 43.6 35.3 21.1 0 39.5-15 43.7-35.7L600 559.3l71.4 14.4-42.6 210.5c-11.1 54.5-59.5 94.1-115.1 94.1z" fill="#27282A" /><path d="M312.9 54.5h398v234h-398v-234z" fill="#4169E1" /><path d="M902.1 1011.5H121.4c-54 0-98-43.8-98-97.6v-69.6c0-121.1 81.9-226.6 199.3-256.7 0.3-0.1 0.5-0.1 0.8-0.2l110.7-25.6c-14-13.2-26.7-28-37.6-44.1-29.1-43-44.5-93.2-44.5-145.3V122.3c0-57.4 46.7-104.1 104.1-104.1h311c57.4 0 104.1 46.7 104.1 104.1v250.2c0 50.4-14.5 99.2-42 141.3-10.9 16.7-23.5 31.9-37.7 45.5l108.9 28.4C918 617.8 1000 723.3 1000 844.4V914c0.1 53.8-43.9 97.5-97.9 97.5zM240.4 658.4c-84.9 21.9-144.1 98.4-144.1 186V914c0 13.7 11.3 24.8 25.1 24.8h780.7c13.9 0 25.1-11.1 25.1-24.8v-69.6c0-87.8-59.6-164.3-144.8-186.1h-0.2l-183.1-47.9c-14.2-2.6-25.7-13.5-28.9-28-3.7-16.7 4.7-33.7 20.2-40.9 65.7-30.5 108.2-96.9 108.2-169.1V122.3c0-17-14.3-31.3-31.3-31.3h-311C339 91 325 105 325 122.3v250.2c0 75.3 44.9 142.8 114.3 172.2 14.5 6.1 23.5 21 22.1 36.7-1.4 15.7-12.7 28.8-28.1 32.3l-192.9 44.7z" fill="#27282A" /></svg>