<?xml version="1.0" standalone="no"?><!DOCTYPE svg PUBLIC "-//W3C//DTD SVG 1.1//EN" "http://www.w3.org/Graphics/SVG/1.1/DTD/svg11.dtd"><svg class="icon" width="48px" height="48.00px" viewBox="0 0 1024 1024" version="1.1" xmlns="http://www.w3.org/2000/svg"><path d="M80 0h864c44.184 0 80 35.816 80 80v664c0 44.184-35.816 80-80 80H414.652a80 80 0 0 0-48.984 16.748L129.048 1024v-135.48c0-35.632-28.888-64.52-64.524-64.52C28.888 824 0 795.112 0 759.48V80C0 35.816 35.816 0 80 0z m33.752 40C73.02 40 40 73.02 40 113.752v606.392c0 35.06 28.424 63.48 63.48 63.48 35.064 0 63.484 28.424 63.484 63.48V940l177.98-140.512a73.748 73.748 0 0 1 45.7-15.864h519.604c40.732 0 73.752-33.02 73.752-73.748V113.752C984 73.02 950.98 40 910.248 40H113.752z" fill="#2c2c2c" /><path d="M372 292a20 20 0 0 1 20 20v224a20 20 0 1 1-40 0V312a20 20 0 0 1 20-20z m136 40a20 20 0 0 1 20 20v184a20 20 0 1 1-40 0V352a20 20 0 0 1 20-20zM232 396a20 20 0 0 1 20 20v120a20 20 0 1 1-40 0v-120a20 20 0 0 1 20-20z" fill="#2c2c2c" /><path d="M812 444l-184 112V332z" fill="#4169E1" /></svg>