<?xml version="1.0" standalone="no"?><!DOCTYPE svg PUBLIC "-//W3C//DTD SVG 1.1//EN" "http://www.w3.org/Graphics/SVG/1.1/DTD/svg11.dtd"><svg class="icon" width="48px" height="44.36px" viewBox="0 0 1108 1024" version="1.1" xmlns="http://www.w3.org/2000/svg"><path d="M902.664605 693.708772H600.073131c-16.117694 0-29.400617-23.488096-29.400617-52.483746V514.95626c0-28.99565 13.282923-52.483746 29.400617-52.483746h302.591474c35.394131 0 64.389781 51.916792 64.389781 115.658626s-28.99565 115.577632-64.389781 115.577632z" fill="#4169E1" /><path d="M745.699328 264.281579c-12.877956 0-25.755912-3.968678-35.556118-12.068022L679.203717 227.186585c-0.161987-0.161987-0.323974-0.24298-0.566954-0.48596-20.086372-16.846635-31.182473-38.876849-31.182472-62.040971l-1.619869-131.290359c-0.080993-8.828284 3.320731-17.332595 9.557226-23.569089s14.659812-9.800206 23.488096-9.800206h130.480424c18.061536 0 32.802341 14.497825 33.045321 32.640354l1.619869 131.371352v0.485961c0 23.407103-11.339081 45.599304-31.911414 62.526932h-0.080993l-30.534525 25.107964c-9.881199 8.099344-22.921142 12.149015-35.799098 12.149016z m6.317488-63.17488s0.080993 0 0 0c0.080993 0 0 0 0 0z m-12.553983 0s-0.080993 0 0 0c-0.080993 0 0 0 0 0z m-18.38551-25.107965L745.780321 195.92312l24.460018-20.086372c4.778613-3.968678 7.613383-8.099344 7.694376-11.339081l-1.295895-98.488017h-64.389781l1.295895 98.08305v0.48596c0 3.239737 2.672783 7.370403 7.532389 11.420074zM245.564866 693.708772c-19.357431 0-38.552875-4.292652-56.452424-12.877957C157.201028 665.685043 133.064985 639.038203 121.15895 605.668908c-11.825042-33.207308-9.962193-68.925413 5.102586-100.67484 15.145772-31.911413 41.792613-56.047457 75.161908-67.953492 33.207308-11.825042 68.925413-9.962193 100.67484 5.102586 31.83042 15.064779 55.966464 41.711619 67.872498 74.999921 11.906035 33.288302 10.043186 69.0874-5.021593 101.160801v0.080993c-15.145772 31.749427-41.711619 55.804477-74.918927 67.548525-14.578818 5.264573-29.643597 7.77537-44.465396 7.77537z m0.080993-198.190936c-7.451396 0-14.902792 1.295895-22.030214 3.806691-16.684648 5.912521-30.048564 18.061536-37.661947 34.098237-7.532389 15.874713-8.423317 33.693269-2.510797 50.134936 5.912521 16.684648 18.061536 30.048564 34.098236 37.661947 15.874713 7.532389 33.774262 8.423317 50.377917 2.510797s29.967571-17.899549 37.49996-33.774263c7.532389-15.955707 8.423317-33.936249 2.510797-50.539903-5.993514-16.603654-18.061536-29.967571-34.017243-37.580954-9.152258-4.211659-18.709484-6.317488-28.266709-6.317488zM1025.85562 1024h-65.604683V858.692399H49.155786v-65.604682h943.978486c18.142529 0 32.721348 14.659812 32.721348 32.721347v198.190936zM880.877371 693.708772H477.530064c-39.767777 0-72.003164-34.989164-72.003164-77.915685V507.666851c0-20.086372 6.884442-39.119829 19.519418-53.617654 13.525904-15.712726 32.640354-24.702998 52.483746-24.702998h403.347307c32.721348 0 63.255873 14.335838 85.853041 40.334731 21.46326 24.783991 33.369295 57.343352 33.369295 91.765562s-11.906035 67.143558-33.369295 91.765562c-22.678162 26.16088-53.212687 40.496718-85.853041 40.496718zM477.530064 495.517836c-1.538875 0-5.993514 4.211659-5.993514 12.230009v108.045242c0 7.694376 4.454639 11.906035 5.993514 11.906035h403.347307c29.319624 0 53.131693-29.643597 53.131693-66.00965 0-36.447046-23.893063-66.00965-53.131693-66.009649H477.530064v-0.161987z" fill="#27282A" /><path d="M590.596899 493.654987l-21.787234-62.445939c74.27098-25.917899 120.194258-66.49561 136.554932-120.761211 11.663055-38.714862 3.725698-70.383295 3.644705-70.626276l63.741833-17.251601c1.376888 5.021593 12.796963 50.70189-4.211659 107.073321-10.124179 33.531282-28.266709 63.741833-53.941627 89.821719-30.858499 31.263466-72.570118 56.209444-124.00095 74.189987zM20.565103 435.663687h65.604683v561.608479h-65.604683z" fill="#27282A" /></svg>