<?xml version="1.0" standalone="no"?><!DOCTYPE svg PUBLIC "-//W3C//DTD SVG 1.1//EN" "http://www.w3.org/Graphics/SVG/1.1/DTD/svg11.dtd"><svg class="icon" width="48px" height="48.00px" viewBox="0 0 1024 1024" version="1.1" xmlns="http://www.w3.org/2000/svg"><path d="M256 654.72m-181.333333 0a181.333333 181.333333 0 1 0 362.666666 0 181.333333 181.333333 0 1 0-362.666666 0Z" fill="#4169E1" /><path d="M759.466667 281.386667m-42.666667 0a42.666667 42.666667 0 1 0 85.333333 0 42.666667 42.666667 0 1 0-85.333333 0Z" fill="#4169E1" /><path d="M791.253333 859.946667H229.973333A81.493333 81.493333 0 0 1 149.333333 778.666667V477.226667a81.493333 81.493333 0 0 1 81.28-81.28h560.64a81.493333 81.493333 0 0 1 81.28 81.28V778.666667a81.493333 81.493333 0 0 1-81.28 81.28zM229.973333 459.946667a17.28 17.28 0 0 0-17.28 17.28V778.666667a17.28 17.28 0 0 0 17.28 17.28h561.28a17.28 17.28 0 0 0 17.28-17.28V477.226667a17.28 17.28 0 0 0-17.28-17.28z" fill="#2c2c2c" /><path d="M372.693333 437.973333h-64v-80a202.026667 202.026667 0 1 1 403.84 0h-64a138.026667 138.026667 0 1 0-275.84 0zM478.506667 557.866667h64v139.946666h-64z" fill="#2c2c2c" /></svg>