<?xml version="1.0" standalone="no"?><!DOCTYPE svg PUBLIC "-//W3C//DTD SVG 1.1//EN" "http://www.w3.org/Graphics/SVG/1.1/DTD/svg11.dtd"><svg class="icon" width="48px" height="48.00px" viewBox="0 0 1024 1024" version="1.1" xmlns="http://www.w3.org/2000/svg"><path d="M672.64 657.493333m-196.48 0a196.48 196.48 0 1 0 392.96 0 196.48 196.48 0 1 0-392.96 0Z" fill="#4169E1" /><path d="M268.16 183.68m-46.293333 0a46.293333 46.293333 0 1 0 92.586666 0 46.293333 46.293333 0 1 0-92.586666 0Z" fill="#4169E1" /><path d="M565.76 918.613333H448a52.906667 52.906667 0 0 1-52.693333-52.693333v-46.506667a321.493333 321.493333 0 0 1-95.146667-55.04l-40.32 23.253334A52.693333 52.693333 0 0 1 188.586667 768l-58.666667-101.12A52.48 52.48 0 0 1 149.333333 594.986667l40.533334-23.253334a297.173333 297.173333 0 0 1 0-109.866666L149.333333 438.613333a52.693333 52.693333 0 0 1-19.2-71.893333l58.666667-101.546667a52.693333 52.693333 0 0 1 71.893333-19.413333l40.32 23.466667A316.8 316.8 0 0 1 395.946667 213.333333V167.68A52.906667 52.906667 0 0 1 448 114.986667h117.12A52.906667 52.906667 0 0 1 618.666667 167.68V213.333333a316.8 316.8 0 0 1 95.146666 55.04l40.32-23.466666a52.906667 52.906667 0 0 1 71.893334 19.413333l58.666666 101.546667a52.053333 52.053333 0 0 1 5.333334 39.893333 52.906667 52.906667 0 0 1-24.533334 32l-40.533333 23.253333a309.973333 309.973333 0 0 1 0 109.866667l40.533333 23.253333a52.48 52.48 0 0 1 19.2 71.893334L825.813333 768a52.48 52.48 0 0 1-71.893333 19.2l-40.32-23.253333a321.493333 321.493333 0 0 1-94.933333 55.466666v46.506667a52.906667 52.906667 0 0 1-52.906667 52.693333z m-106.666667-64H554.666667V810.666667a52.693333 52.693333 0 0 1 36.053333-49.706667 264.106667 264.106667 0 0 0 86.826667-50.133333 52.906667 52.906667 0 0 1 61.226666-6.4l37.546667 21.333333 47.146667-81.92-37.546667-21.333333a52.906667 52.906667 0 0 1-25.173333-56.32 245.973333 245.973333 0 0 0 0-99.84 53.12 53.12 0 0 1 25.173333-56.32l37.546667-21.333334-47.146667-81.706666-37.546667 21.333333a52.906667 52.906667 0 0 1-61.226666-6.186667 256 256 0 0 0-86.826667-50.133333A52.693333 52.693333 0 0 1 554.666667 222.293333v-42.666666h-94.72v42.666666a52.693333 52.693333 0 0 1-36.053334 49.92 252.8 252.8 0 0 0-86.826666 50.133334 52.906667 52.906667 0 0 1-61.226667 6.186666l-37.546667-21.333333L192 388.693333l37.76 21.333334a52.693333 52.693333 0 0 1 24.96 56.32 245.973333 245.973333 0 0 0 0 99.84 52.693333 52.693333 0 0 1-24.96 56.32L192 644.693333l47.36 81.92 37.546667-21.333333a52.906667 52.906667 0 0 1 61.226666 6.4 259.84 259.84 0 0 0 86.826667 50.133333A52.693333 52.693333 0 0 1 459.946667 810.666667zM192 579.413333z m626.773333-11.733333zM192 454.186667z" fill="#2c2c2c" /><path d="M507.093333 680.746667a164.266667 164.266667 0 0 1-164.053333-164.053334h64a100.053333 100.053333 0 1 0 100.053333-100.053333 98.56 98.56 0 0 0-40.746666 8.746667l-26.24-58.453334a164.053333 164.053333 0 1 1 66.986666 313.813334z" fill="#2c2c2c" /></svg>