<?xml version="1.0" standalone="no"?><!DOCTYPE svg PUBLIC "-//W3C//DTD SVG 1.1//EN" "http://www.w3.org/Graphics/SVG/1.1/DTD/svg11.dtd"><svg class="icon" width="48px" height="48.00px" viewBox="0 0 1024 1024" version="1.1" xmlns="http://www.w3.org/2000/svg"><path d="M862.72 914.432H170.496c-11.264 0-20.48-9.216-20.48-20.48s9.216-20.48 20.48-20.48h692.224c11.264 0 20.48 9.216 20.48 20.48s-9.216 20.48-20.48 20.48z" fill="#181818" /><path d="M170.496 960c-11.264 0-20.48-9.216-20.48-20.48v-91.136c0-11.264 9.216-20.48 20.48-20.48s20.48 9.216 20.48 20.48v91.136c0 11.264-9.216 20.48-20.48 20.48zM862.72 960c-11.264 0-20.48-9.216-20.48-20.48v-91.136c0-11.264 9.216-20.48 20.48-20.48s20.48 9.216 20.48 20.48v91.136c0 11.264-9.216 20.48-20.48 20.48zM516.608 117.248c168.448 0 305.152 136.704 305.152 305.152s-136.704 305.152-305.152 305.152-305.152-136.704-305.152-305.152S348.16 117.248 516.608 117.248m0-40.96c-190.976 0-346.112 155.136-346.112 346.112s155.136 346.112 346.112 346.112 346.112-155.136 346.112-346.112-155.136-346.112-346.112-346.112z" fill="#181818" /><path d="M516.608 909.312c-11.264 0-20.48-9.216-20.48-20.48v-140.8c0-11.264 9.216-20.48 20.48-20.48s20.48 9.216 20.48 20.48v140.8c0 11.264-9.216 20.48-20.48 20.48z" fill="#181818" /><path d="M516.608 422.4m-305.152 0a305.152 305.152 0 1 0 610.304 0 305.152 305.152 0 1 0-610.304 0Z" fill="#4F8DFC" /><path d="M516.608 158.208c145.408 0 264.192 118.272 264.192 264.192s-118.272 264.192-264.192 264.192c-145.408 0-264.192-118.272-264.192-264.192s118.784-264.192 264.192-264.192m0-40.96c-168.448 0-305.152 136.704-305.152 305.152s136.704 305.152 305.152 305.152 305.152-136.704 305.152-305.152-136.704-305.152-305.152-305.152z" fill="#181818" /><path d="M382.976 318.976c-5.12 0-10.24-2.048-14.336-6.144-8.192-8.192-8.192-20.992 0-29.184l34.304-34.304c8.192-8.192 20.992-8.192 29.184 0 8.192 8.192 8.192 20.992 0 29.184l-34.304 34.304c-4.608 4.096-9.728 6.144-14.848 6.144zM410.112 400.384c-5.12 0-10.24-2.048-14.336-6.144-8.192-8.192-8.192-20.992 0-29.184L483.84 276.48c8.192-8.192 20.992-8.192 29.184 0 8.192 8.192 8.192 20.992 0 29.184L424.448 394.24c-4.096 4.096-9.216 6.144-14.336 6.144z" fill="#181818" /></svg>