<?xml version="1.0" standalone="no"?><!DOCTYPE svg PUBLIC "-//W3C//DTD SVG 1.1//EN" "http://www.w3.org/Graphics/SVG/1.1/DTD/svg11.dtd"><svg class="icon" width="48px" height="48.00px" viewBox="0 0 1024 1024" version="1.1" xmlns="http://www.w3.org/2000/svg"><path d="M614.4 679.893333m-181.333333 0a181.333333 181.333333 0 1 0 362.666666 0 181.333333 181.333333 0 1 0-362.666666 0Z" fill="#4169E1" /><path d="M539.733333 135.893333m-42.666666 0a42.666667 42.666667 0 1 0 85.333333 0 42.666667 42.666667 0 1 0-85.333333 0Z" fill="#4169E1" /><path d="M818.56 583.68H205.44a40.106667 40.106667 0 0 1-36.266667-56.96l152.106667-329.386667a40.106667 40.106667 0 0 1 36.266667-23.04h139.52v64h-124.16l-129.92 281.386667h538.026666l-129.92-281.386667H603.733333v-64h62.72a39.68 39.68 0 0 1 36.266667 23.253334l152.106667 329.386666a40.106667 40.106667 0 0 1-36.266667 56.746667zM227.2 554.666667z m417.493333-330.453334z" fill="#2c2c2c" /><path d="M480 551.68h64v184.32h-64z" fill="#2c2c2c" /><path d="M693.973333 882.986667H330.026667a57.173333 57.173333 0 0 1-57.173334-57.386667v-41.386667a57.386667 57.386667 0 0 1 57.173334-57.386666h363.946666a57.6 57.6 0 0 1 57.386667 57.386666v41.386667a57.386667 57.386667 0 0 1-57.386667 57.386667z m-357.12-64h350.506667v-28.16H336.853333z" fill="#2c2c2c" /></svg>