<?xml version="1.0" standalone="no"?><!DOCTYPE svg PUBLIC "-//W3C//DTD SVG 1.1//EN" "http://www.w3.org/Graphics/SVG/1.1/DTD/svg11.dtd"><svg class="icon" width="48px" height="48.00px" viewBox="0 0 1024 1024" version="1.1" xmlns="http://www.w3.org/2000/svg"><path d="M229.96391927 789.27020662c4.41869063 14.58167909 73.20297484 74.67587171 117.68446056 81.59848704s146.11137027-140.36707246 146.11137029-140.36707246l-232.27583765-36.08597352-31.5199932 94.85455894z" fill="#CC6633" /><path d="M130.8379594 476.13233037c-13.55065127 11.34130596-63.18727606 99.27324957-40.65195384 184.84855819 22.53532223 85.72259829 29.31064787 108.25792053 106.04857521 135.35922309s87.93194362-27.10130255 87.93194361-27.10130257l-153.32856498-293.10647871z" fill="#CC6633" /><path d="M112.57403813 511.03998639s-20.47326659 138.45230653 0 170.11958939c20.47326659 31.51999319 95.00184863 65.39662137 196.3371538 112.67661116s121.8085718 69.9626017 157.89454532 22.53532224-354.23169913-305.33152278-354.23169912-305.33152279z" fill="#A55734" /><path d="M708.06624585 155.62996975s-207.38388041-58.62129573-331.40179753 11.34130596-270.71844614 178.07323253-263.94312053 299.88180433c6.77532564 121.8085718 10.16298847 228.59359545 92.49792395 252.60181458 101.48259488 29.45793756 146.40594965 119.74651617 205.02724539 92.49792392 135.35922309-62.89269668 112.82390085-15.75999659 88.07923332-144.34389403-24.74466755-128.58389744 13.55065127-302.09114965 135.35922306-392.37972827s169.08856159-124.01791712 74.38129234-119.59922649z" fill="#FFBD7B" /><path d="M707.32979741 155.62996975s-207.38388041-58.62129573-331.40179753 11.34130596c-11.63588534 6.62803595-23.56635005 13.55065127-35.49681476 20.76784597 8.3955122-2.06205563 16.9383141-3.82953187 25.48111598-5.15513906 23.71363973-3.68224221 47.72185885-4.27140094 71.73007796-3.82953189 52.72970823 1.03102783 105.31212677 6.62803595 157.01080718 16.79102441 25.48111599 5.0078494 50.81494228 11.04672658 76.59063767 12.66691316 19.44223878 1.17831749 39.32634663-0.29457937 57.59026792-6.33345659 41.53569195-35.49681476 40.94653321-49.19475572-21.50429442-46.24896196z" fill="#EAA86C" /><path d="M682.43784018 173.30473229c-89.55213018 57.14839887-162.75510501 138.01043746-216.66313076 229.47733357s-88.96297143 193.39136006-109.43623801 297.52516933c-5.74429781 29.31064787-13.55065127 69.07886357 8.54280189 89.11026112 10.01569877 8.98467097 29.45793756 17.23289347 42.41943008 21.06242535 8.10093283 2.35663501 16.05457598-2.79850407 23.56635004-6.92261532 5.59700814-2.94579374 10.31027814-7.36448439 13.84523065-12.66691315 54.93905355-81.30390766 87.04820548-175.42201817 118.420909-268.36181117 10.75214722-31.96186226 21.65158411-63.77643483 32.40373131-95.73829705 26.36485411-77.91624484 52.87699792-156.27435874 65.10204199-237.5782664" fill="#EAA86C" /><path d="M717.05091681 146.64529879c-8.83738127 2.79850407-189.41453851 205.1745351-227.70985734 329.19245221-38.29531883 124.01791712-17.96934191 313.43245562-85.72259828 349.51842913-67.6059667 36.0859735-85.72259829 42.56671978-31.51999319 50.52036291s155.5379103-1.03102783 232.27583765-82.18764578c63.18727606-36.0859735 94.70726925-2.20934532 180.42986753-54.05531542s173.6545419-220.9345317 121.80857182-351.72777445-110.61455552-266.00517615-189.56182819-241.2605086z" fill="#CC6633" /><path d="M906.46545531 387.90580739c-9.5738297-24.30279849-19.44223878-48.60559698-29.60522724-72.17194703 12.37233377 154.5068825-84.98614986 321.82796783-180.13528818 379.41823576-113.26576992 68.48970482-154.94875155 23.86092942-238.31471485 71.58278826-8.24822251 8.69009158-16.79102442 16.79102442-25.3338263 24.30279851-7.36448439 15.75999659-16.9383141 27.6904613-29.45793755 34.31849724-67.6059667 36.0859735-85.72259829 42.56671978-31.51999319 50.52036291 54.05531542 8.10093283 155.5379103-1.03102783 232.27583765-82.18764578 63.18727606-36.0859735 94.70726925-2.20934532 180.42986753-54.05531542s173.50725221-220.9345317 121.66128213-351.72777445z" fill="#AF532B" /><path d="M592.59113062 759.81226907c-5.30242877-7.95364315 0.73644845-18.41121097 6.33345658-26.07027475 35.49681476-47.86914853 66.57493887-99.12595989 92.79250331-152.73940625 7.06990501-14.58167909 14.13981003-29.89980661 26.80672317-40.06279506s32.40373131-13.55065127 44.62877541-2.94579377c5.0078494 4.41869063 8.10093283 10.45756784 10.60485753 16.49644504 10.45756784 25.33382629 12.81420285 54.05531542 6.62803594 80.8620386-11.48859565 49.78391447-52.43512885 90.14128893-100.74614645 106.78502364-15.75999659 5.44971845-32.40373131 8.54280189-48.75288665 11.78317504-6.33345658 1.17831749-13.10878221 2.35663501-19.14765943 0.14728967-6.03887719-2.35663501-10.75214722-9.5738297-7.80635344-15.31812752" fill="#AF532B" /><path d="M410.24649713 214.98771392c-52.14054948 67.90054606-85.42801891 147.87884654-118.27361928 226.9734089-6.33345658 15.31812754-12.66691315 30.63625506-16.64373473 46.69083102-10.31027814 42.56671978-2.79850407 87.19549519 3.09308344 130.4986634 5.89158752 43.45045791 9.5738297 89.25755079-7.51177409 129.61492523-11.48859565-62.30353794-20.17868721-125.04894493-26.07027473-188.08893129-3.09308345-32.55102101-5.30242877-65.24933169-2.20934531-97.80035272 2.65121438-27.83775099 9.27925033-55.23363292 19.58952848-81.15661795 4.56598032-11.34130596 9.72111939-22.53532223 16.79102441-32.6983107 6.1861669-8.98467097 13.55065127-16.9383141 21.06242534-24.74466755 23.27177067-24.89195725 46.54354135-49.78391447 72.6138161-71.73007795 12.81420285-10.75214722 26.36485411-20.91513568 37.264291-33.58204882" fill="#EAA86C" /><path d="M359.28426516 241.7944371c-20.47326659 1.76747625-36.0859735 18.11663161-49.93120416 33.28746944-44.92335477 49.93120416-91.17231675 102.5136227-107.52147209 167.6156647-3.68224221 14.72896878-5.74429781 29.75251694-7.65906378 44.77606511-3.97682157 29.75251694-7.95364315 59.50503387-8.24822249 89.40484047-0.1472897 34.907656 4.8605597 69.9626017 14.87625846 103.39736083 4.27140094 14.28709972 9.72111939 28.57419943 19.58952848 39.7682157s25.03924691 18.55850066 39.62092601 15.61270693c0.88373813-17.08560379-1.3256072-34.31849726-6.62803595-50.52036293-2.79850407-8.54280189-6.33345658-16.64373472-8.83738127-25.33382628-3.38766283-11.34130596-4.71327001-23.27177067-5.74429783-35.05494572-6.03887719-66.86951826-2.50392469-134.62277465 10.45756784-200.60855476 2.65121438-13.40336159 5.59700814-26.80672317 10.31027814-39.7682157 5.44971845-15.02354815 13.2560719-29.16335819 20.91513567-43.15587853l22.53532223-41.09382289c4.56598032-8.24822251 9.13196064-16.64373472 15.90728628-22.97719129 6.1861669-5.89158752 13.99252034-9.86840908 21.06242537-14.43438941 6.92261532-4.56598032 13.40336159-9.72111939 19.14765941-15.61270691 1.76747625-1.76747625 3.5349525-3.97682157 3.24037311-6.33345658-0.44186907-2.50392469-4.41869063-3.68224221-5.15513906-1.32560717" fill="#EAA86C" /><path d="M448.68910564 194.07257825c14.72896878-6.48074626-182.63921287 77.32708608-191.6238838 293.84292716-8.98467097 216.51584105 36.0859735 270.57115648 36.0859735 270.57115646s-27.24859225-2.20934532-37.26429102-13.55065128c-10.01569877-11.34130596-46.10167228-78.50540358-46.10167226-183.52295099s6.62803595-264.38498958 238.90387358-367.34048135z" fill="#C57723" /><path d="M430.13060498 276.84938278c-19.00036972 14.58167909-31.07812413 36.2332632-42.41943008 57.29568857-20.47326659 37.85344976-41.24111259 76.0014789-52.72970823 117.53717087-3.38766283 12.22504409-5.44971845 26.80672317 3.09308345 36.23326319 1.3256072 1.47289687 2.94579374 2.79850407 5.00784938 3.53495251 2.94579374 1.03102783 6.1861669 0.44186907 8.98467096-0.73644846 10.01569877-3.97682157 16.05457598-13.84523065 22.38803254-22.6826119 18.26392129-25.62840566 43.45045791-45.9543826 59.50503386-73.05568516 8.24822251-13.99252034 13.84523065-29.31064787 19.4422388-44.48148571 7.36448439-20.17868721 14.72896878-40.21008477 22.09345318-60.38877199 1.91476594-5.15513907 3.82953187-10.31027814 3.68224218-15.75999659s-2.50392469-11.19401627-7.36448438-13.55065127c-6.62803595-3.24037312-14.28709972 0.44186907-20.62055631 4.12411124-7.06990501 4.12411126-14.13981003 8.24822251-21.35700471 12.37233377" fill="#F4C9A2" /><path d="M613.06439722 277.29125185c-26.80672317 36.38055289-56.70652981 70.84633982-78.06353453 110.90913491-15.61270692 29.31064787-28.13233036 60.97793075-38.4426085 92.49792394-8.54280189 25.92298506-12.51962347 51.84597011-16.64373474 78.65269328-4.71327001 30.48896537-9.5738297 60.83064105-14.58167907 91.17231674-4.56598032 27.54317163-8.3955122 55.38092261-15.17083785 82.48222516-3.38766283 13.69794096 17.67476253 19.58952848 21.06242536 5.89158752 5.74429781-22.97719129 9.13196064-46.54354135 13.1087822-69.96260169 5.30242877-31.07812413 10.31027814-62.30353794 15.02354816-93.52895175 3.68224221-24.15550879 6.33345658-48.75288667 13.10878221-72.31923672 8.83738127-30.63625506 20.6205563-60.97793075 34.31849726-89.84670953 21.94616349-45.80709291 55.23363292-84.10241173 85.13343954-124.75436558 8.3955122-11.48859565-10.60485751-22.38803254-18.85308004-11.19401628z" fill="#E87D4D" /></svg>