<?xml version="1.0" standalone="no"?><!DOCTYPE svg PUBLIC "-//W3C//DTD SVG 1.1//EN" "http://www.w3.org/Graphics/SVG/1.1/DTD/svg11.dtd"><svg class="icon" width="48px" height="34.98px" viewBox="0 0 1405 1024" version="1.1" xmlns="http://www.w3.org/2000/svg"><path d="M352.935912 725.567828s-186.068073 263.712655-248.112386 273.685799c-21.616589 3.486547-39.535817-15.373238-52.946859-49.508961-25.054486-63.795694-34.330322-180.99231-22.44363-305.437699 7.167691-75.049943 20.351702-125.467028 33.697878-159.002741 20.643599-51.811704 41.708827-63.374066 41.708828-63.374065z" fill="#EA8F34" /><path d="M247.528689 710.972982S131.256414 875.781228 51.892884 949.744666C26.822181 885.948971 17.546346 768.752356 29.433037 644.306967c7.167691-75.049943 20.351702-125.467028 33.697878-159.002741z" fill="#F6A849" /><path d="M99.747763 1024c-11.643444 0-26.205857-3.664928-40.54124-17.108403-25.216651-23.643651-42.779116-71.563396-52.249549-142.429483-8.627176-64.768684-9.259619-143.775452-1.735165-222.409239 7.865-82.363582 23.74095-146.889019 47.190003-191.77628 18.535455-35.481693 35.854672-46.946755 40.719621-49.622477l17.740846-9.729897 272.583078 333.557102-10.654238 15.113774c-0.470278 0.664876-47.595415 67.347107-101.742295 134.369884-101.385532 125.499461-139.997008 145.721431-162.359555 149.305277a56.190158 56.190158 0 0 1-8.951506 0.729742z m3.940608-565.015146c-15.357022 23.238238-39.389868 76.136448-50.044106 187.641072-7.167691 75.114809-6.632547 150.197184 1.540567 211.39824 11.092083 83.15819 31.346486 107.807264 37.297941 113.369522 4.735217 4.44332 7.26499 4.054124 8.481227 3.859526 3.032485-0.486495 32.432992-8.319062 132.115791-131.694163 37.962817-47.027838 72.439087-93.828645 89.190727-117.03445z" fill="#6D2F2E" /><path d="M611.070092 610.479357s-94.8665 96.21247-184.251825 158.22435-153.213452-10.702887-153.213453-10.702887-144.164648-211.62527-175.105721-262.982913 1.751382-126.148121 1.751381-126.148121 2.675722-3.664928 7.605537-10.135309c21.47064-28.200486 85.720397-109.81811 158.402731-175.884114 89.369108-81.244644 155.045916-53.514436 155.045916-53.514436l165.910968 420.623468z" fill="#EA8F34" /><path d="M587.215626 549.959395c-35.903322 33.405981-88.493418 79.704077-139.299698 114.958739-89.369108 61.995663-153.213452-10.702887-153.213453-10.702888S150.521611 442.589976 119.580537 391.232334a91.817799 91.817799 0 0 1-11.65966-32.432991c21.47064-28.200486 85.720397-109.81811 158.402731-175.884114 89.369108-81.244644 155.045916-53.514436 155.045916-53.514436z" fill="#F6A849" /><path d="M354.622427 818.06672a129.731966 129.731966 0 0 1-46.638642-8.756908 141.651091 141.651091 0 0 1-52.654961-35.254662l-0.989207-1.118938-0.843257-1.232454C247.593555 763.027933 108.666836 558.894684 77.677112 507.601908c-37.119559-61.41187-1.183804-144.975472 0.356763-148.510669l1.135155-2.44869 1.621649-2.156794c3.243299-4.346021 79.104066-107.693749 169.267783-189.651919 99.747666-90.666428 177.635495-59.238859 180.895011-57.860457l9.405568 3.989258 199.2683 505.306009-11.124516 11.270465c-3.924392 3.989258-97.477356 98.547645-187.689723 161.127102-31.914064 22.038218-61.249705 29.400507-86.190675 29.400507z m-61.995663-75.358056a97.444923 97.444923 0 0 0 34.411404 21.79497c27.568043 9.973145 56.465838 4.654134 85.947428-15.794867 68.936324-47.822446 142.186235-117.423646 169.592113-144.229513L403.288131 149.849794c-18.227341-2.708155-62.563241-1.767598-120.618296 51.00088-79.331097 72.114757-149.467442 164.613649-161.062236 180.116618-7.881217 19.638176-21.405774 69.844447-2.302742 101.450398 28.914012 47.854879 159.943298 240.717664 173.321907 260.290974z" fill="#6D2F2E" /><path d="M1371.915641 877.840723c-12.535351 77.304035-37.29794 126.877863-71.352581 121.412904-62.028096-9.973145-248.112386-273.6858-248.112386-273.685799l83.596036-102.326089 164.581216-201.311578s57.163148 31.362703 75.406705 222.376806c8.254196 86.515005 6.292 169.543464-4.11899 233.533756z" fill="#EA8F34" /><path d="M1371.915641 877.840723c-0.518928 0-1.037856-0.129732-1.621649-0.210814-51.698189-8.319062-189.878949-193.414145-234.166199-254.38817l164.500133-201.311578s57.163148 31.362703 75.406705 222.376806c8.254196 86.515005 6.292 169.543464-4.11899 233.533756z" fill="#F6A849" /><path d="M1305.719906 1024a56.400972 56.400972 0 0 1-8.967723-0.729742c-22.330115-3.583846-60.957808-23.805816-162.359555-149.305277-54.146879-67.022777-101.272016-133.705008-101.742295-134.369884l-10.654238-15.113774 272.583078-333.605752 17.740846 9.729898c4.864949 2.675722 22.184166 14.140784 40.719621 49.622477 23.449053 44.88726 39.325002 109.412697 47.190003 191.824929 7.524454 78.682438 6.908227 157.689205-1.735165 222.457889-9.454217 70.866087-27.032898 118.785832-52.249549 142.429482-14.335382 13.394826-28.897796 17.059754-40.525023 17.059754zM1083.148501 726.524601c16.784073 23.205805 51.27656 70.055262 89.190727 117.03445 99.699016 123.3751 129.083307 131.207667 132.115791 131.694163 1.216237 0.194598 3.746011 0.583794 8.481227-3.859526 5.951454-5.562258 26.205857-30.211332 37.297941-113.369522 8.108248-61.201055 8.708258-136.218565 1.540567-211.39824-10.654238-111.504625-34.687085-164.402834-50.044106-187.641072z" fill="#6D2F2E" /><path d="M1306.968576 495.017907c-17.303001 28.638332-69.828231 107.207254-112.883027 171.067814-34.054641 50.57925-62.238911 91.915098-62.238911 91.915099s-63.844344 72.698551-153.229669 10.702887-184.300475-158.224349-184.300475-158.22435l189.733001-481.078564s16.767857-7.102825 44.871044-3.632495c27.568043 3.373031 65.952488 16.881372 110.174872 57.082065 89.433974 81.244644 166.0407 186.019423 166.040701 186.019423s32.838404 74.822912 1.832464 126.148121z" fill="#EA8F34" /><path d="M1306.968576 495.017907c-17.303001 28.638332-69.828231 107.207254-112.883027 171.067814-26.627486 15.746217-72.325571 29.189692-127.899503-9.275835-89.385325-62.01188-184.300475-158.224349-184.300474-158.22435l147.01875-372.817238c27.568043 3.373031 65.952488 16.881372 110.174873 57.082065 89.450191 81.244644 166.056917 186.019423 166.056917 186.019423s32.838404 74.822912 1.832464 126.148121z" fill="#F6A849" /><path d="M1050.829025 818.06672c-24.940971 0-54.276611-7.31364-86.07716-29.38429-90.212366-62.579457-183.76533-157.137844-187.689722-161.127103l-11.124516-11.270464L965.205927 110.978854l9.405567-3.989258c3.243299-1.378402 81.082479-32.805971 180.895011 57.860457 90.163717 81.95817 166.073133 185.305897 169.267783 189.733001l1.62165 2.156794 1.070288 2.432474c1.62165 3.535196 37.476322 87.098799 0.356763 148.510668C1296.784616 558.894684 1157.857897 763.027933 1151.955092 771.784841l-0.843257 1.232454-0.989207 1.118938a141.861905 141.861905 0 0 1-52.654961 35.254662 129.731966 129.731966 0 0 1-46.638642 8.675825zM822.88996 604.479254c27.422094 26.805868 100.736872 96.471933 169.592113 144.229513 30.049167 20.854414 59.51454 25.946393 87.569077 15.194857a98.044934 98.044934 0 0 0 32.789755-21.081445c13.265094-19.459795 144.407895-212.436095 173.338123-260.30719 19.086816-31.589734 5.594691-81.747355-2.318959-101.450398-11.578578-15.535403-81.731139-108.034295-161.046019-180.132835-58.038838-52.768477-102.374738-53.692818-120.618296-51.000879z" fill="#6D2F2E" /><path d="M974.789876 579.570716c-29.189692 65.838973-71.839076 111.893821-132.667152 111.893821h-3.632495q-67.768736 5.513609-135.764503 5.529825t-135.748286-5.529825c-192.149259 5.708207-206.744105-441.89951-182.419361-547.387815 7.702836-33.405981 42.422353-58.233436 86.287974-76.558077a496.224771 496.224771 0 0 1 62.774055-20.903063 655.681574 655.681574 0 0 1 338.227453 0c70.152561 18.730053 137.921297 49.103549 149.062029 97.46114 16.378661 70.914736 15.113774 297.069986-46.119714 435.493994z" fill="#EA8F34" /><path d="M974.789876 579.570716a110.142439 110.142439 0 0 1-41.854776 8.108248h-3.632495q-67.768736 5.513609-135.764503 5.529825t-135.748286-5.529825c-178.559835 5.189279-203.792703-380.990352-186.943763-520.273834a496.224771 496.224771 0 0 1 62.774055-20.903063 655.681574 655.681574 0 0 1 338.227453 0c70.152561 18.730053 137.921297 49.103549 149.062029 97.461139 16.378661 71.028252 15.113774 297.183502-46.119714 435.60751z" fill="#F6A849" /><path d="M702.725726 721.189374c-45.58457 0-91.169139-1.832464-136.429379-5.481176h-3.048701c-44.060219 0-82.525747-19.686826-114.407378-58.557766-57.422612-70.006612-80.952747-188.111351-90.585346-274.902037-11.43263-103.055831-7.362289-200.646702 2.59464-243.782581 11.578578-50.271137 67.590354-89.093428 166.478546-115.493883a681.092823 681.092823 0 0 1 350.795237 0c98.920624 26.400455 154.899968 65.255179 166.478545 115.493883 9.956928 43.135879 14.043485 140.72675 2.59464 243.782581-9.632599 86.774469-33.162734 204.895424-90.585346 274.902037-32.562724 39.795281-72.082324 59.498323-117.439862 58.557766-45.276456 3.648712-90.861026 5.481176-136.445596 5.481176z m-135.115843-54.195529l1.345969 0.113516a1648.455447 1648.455447 0 0 0 267.572181 0l1.362185-0.113516h1.34597c30.503229 0.92434 56.59557-12.405619 79.801375-40.703404 88.331253-107.709965 97.996284-391.012147 78.195943-476.910925-7.021743-30.422146-53.757684-58.622632-131.629296-79.46083a632.216305 632.216305 0 0 0-325.692102 0c-77.83918 20.789548-124.607554 48.990034-131.629296 79.46083-19.800341 85.947428-10.13531 369.20096 78.195943 476.910925 23.222022 28.297785 49.363013 41.643961 79.801375 40.703404z" fill="#6D2F2E" /><path d="M794.70569 265.295028a52.833343 52.833343 0 0 1-35.676291-13.702939l-19.200331-17.578682a12.162372 12.162372 0 0 1 16.378661-17.967877l19.29763 17.562465a28.492383 28.492383 0 0 0 32.027579 4.297371l61.022674-31.184321a12.165615 12.165615 0 0 1 11.075867 21.665238l-60.990241 31.184322a52.557663 52.557663 0 0 1-23.935548 5.724423zM827.00895 318.177021h-53.384704a12.162372 12.162372 0 0 1 0-24.324744h53.384704a12.162372 12.162372 0 0 1 0 24.324744zM607.372731 265.295028a52.557663 52.557663 0 0 1-23.870682-5.724423l-61.022674-31.184322a12.165615 12.165615 0 0 1 11.075867-21.665238l61.022674 31.184321a28.492383 28.492383 0 0 0 32.027579-4.297371l19.29763-17.562465a12.162372 12.162372 0 1 1 16.37866 17.967877l-19.281413 17.578682a52.865776 52.865776 0 0 1-35.627641 13.702939zM628.454175 318.177021h-53.384704a12.162372 12.162372 0 1 1 0-24.324744h53.384704a12.162372 12.162372 0 0 1 0 24.324744zM699.51486 419.449037h-21.616589a12.162372 12.162372 0 0 1 0-24.324744h21.616589a12.162372 12.162372 0 0 1 0 24.324744z" fill="#6D2F2E" /><path d="M732.499212 493.623289a12.129939 12.129939 0 0 1-8.610959-3.567629c-25.605847-25.605847-34.054641-58.379385-24.486909-94.655686a145.088988 145.088988 0 0 1 21.778754-46.152147 12.186697 12.186697 0 0 1 19.459795 14.675928c-1.962196 2.627072-45.892683 62.530808 0.518928 108.942419a12.162372 12.162372 0 0 1-8.594743 20.757115z" fill="#6D2F2E" /><path d="M504.819611 369.550879a48.649487 32.432992 0 1 0 97.298975 0 48.649487 32.432992 0 1 0-97.298975 0Z" fill="#E65257" /><path d="M791.851587 369.550879a48.649487 32.432992 0 1 0 97.298975 0 48.649487 32.432992 0 1 0-97.298975 0Z" fill="#E65257" /><path d="M1187.096239 354.437105a12.129939 12.129939 0 0 1-8.335279-3.243299l-91.898882-86.547438a12.165615 12.165615 0 0 1 16.670558-17.72463l91.898882 86.498789a12.162372 12.162372 0 0 1-8.335279 21.081444zM1238.989025 410.64348a12.146155 12.146155 0 0 1-9.048804-4.021691l-19.459795-21.616589a12.162372 12.162372 0 0 1 18.081393-16.216496l19.459795 21.632805a12.146155 12.146155 0 0 1-9.032589 20.286837z" fill="#FFFFFF" /></svg>