<?xml version="1.0" standalone="no"?><!DOCTYPE svg PUBLIC "-//W3C//DTD SVG 1.1//EN" "http://www.w3.org/Graphics/SVG/1.1/DTD/svg11.dtd"><svg class="icon" width="48px" height="48.00px" viewBox="0 0 1024 1024" version="1.1" xmlns="http://www.w3.org/2000/svg"><path d="M796.8 450.4H227.2c-20 0-35.2-16-35.2-35.2 0-78.4 64-142.4 142.4-142.4h355.2c78.4 0 142.4 64 142.4 142.4 0 19.2-16 35.2-35.2 35.2zM689.6 751.2H334.4c-78.4 0-142.4-64-142.4-142.4 0-20 16-35.2 35.2-35.2h568.8c20 0 35.2 16 35.2 35.2 0.8 78.4-63.2 142.4-141.6 142.4z" fill="#FFA9D0" /><path d="M689.6 272.8h-4c-58.4 0-95.2 60-72.8 113.6 4 9.6 6.4 19.2 6.4 28.8 0 6.4-4 12.8-9.6 18.4-6.4 6.4-1.6 16.8 7.2 16.8h180c20 0 35.2-16 35.2-35.2 0-78.4-64-142.4-142.4-142.4zM831.2 603.2c-2.4-16.8-17.6-30.4-35.2-30.4H650.4c-19.2 0-32.8 16-32 35.2v0.8c0 9.6-2.4 19.2-6.4 28.8v0.8c-12 29.6-41.6 48.8-73.6 48.8H329.6c-6.4 0-13.6-1.6-20-2.4-39.2-8.8-55.2 49.6-16.8 60.8 12.8 4 26.4 5.6 40 5.6H688c78.4 0 142.4-64 142.4-142.4 1.6-1.6 1.6-4 0.8-5.6z" fill="#F261B1" /><path d="M832 439.2c-13.6 0-24-10.4-24-24 0-64.8-52.8-118.4-118.4-118.4H398.4c-13.6 0-24-10.4-24-24s10.4-24 24-24h291.2c92 0 166.4 74.4 166.4 166.4 0 12.8-10.4 24-24 24zM286.4 304.8c-15.2 0-21.6-13.6-22.4-15.2 0-0.8-8-21.6 15.2-32 23.2-10.4 33.6 8.8 34.4 9.6 0.8 0.8 10.4 20-11.2 33.6l-4.8 2.4c-4.8 0.8-8 1.6-11.2 1.6zM192 439.2c-13.6 0-24-10.4-24-24 0-43.2 16.8-84 46.4-115.2 9.6-9.6 24.8-9.6 33.6-0.8 9.6 9.6 9.6 24.8 0.8 33.6C228 355.2 216 384 216 415.2c0 12.8-10.4 24-24 24zM689.6 775.2H334.4C242.4 775.2 168 700.8 168 608.8c0-13.6 10.4-24 24-24s24 10.4 24 24c0 64.8 52.8 118.4 118.4 118.4h355.2c64.8 0 118.4-52.8 118.4-118.4 0-13.6 10.4-24 24-24s24 10.4 24 24c0 92-74.4 166.4-166.4 166.4z" fill="#3F4A54" /><path d="M832 544H192c-17.6 0-32-14.4-32-32s14.4-32 32-32h640c17.6 0 32 14.4 32 32s-14.4 32-32 32z" fill="#755DA5" /><path d="M832 544H618.4c-17.6 0-32-14.4-32-32s14.4-32 32-32H832c17.6 0 32 14.4 32 32s-14.4 32-32 32z" fill="#4B376B" /><path d="M796.8 1008.8H227.2c-20 0-35.2-16-35.2-35.2 0-78.4 64-142.4 142.4-142.4h355.2c78.4 0 142.4 64 142.4 142.4 0 19.2-16 35.2-35.2 35.2z" fill="#70E9D4" /><path d="M689.6 831.2h-4c-58.4 0-95.2 60-72.8 113.6 4 9.6 6.4 19.2 6.4 28.8 0 6.4-4 12.8-9.6 18.4-6.4 6.4-1.6 16.8 7.2 16.8h180c20 0 35.2-16 35.2-35.2 0-79.2-64-142.4-142.4-142.4z" fill="#009F96" /><path d="M832 997.6c-13.6 0-24-10.4-24-24 0-64.8-52.8-118.4-118.4-118.4H398.4c-13.6 0-24-10.4-24-24s10.4-24 24-24h291.2c92 0 166.4 74.4 166.4 166.4 0 12.8-10.4 24-24 24z" fill="#3F4A54" /><path d="M286.4 863.2c-16 0-21.6-13.6-22.4-15.2 0-0.8-8-21.6 15.2-32 23.2-10.4 33.6 8.8 34.4 9.6s10.4 20-11.2 33.6l-4.8 2.4c-4.8 0.8-8 1.6-11.2 1.6z" fill="#3F4A54" /><path d="M192 997.6c-13.6 0-24-10.4-24-24 0-43.2 16.8-84 46.4-115.2 9.6-9.6 24.8-9.6 33.6-0.8 9.6 9.6 9.6 24.8 0.8 33.6-21.6 22.4-33.6 51.2-33.6 82.4 0.8 12.8-9.6 24-23.2 24z" fill="#3F4A54" /><path d="M689.6 192.8H334.4C256 192.8 192 129.6 192 50.4c0-20 16-35.2 35.2-35.2h568.8c20 0 35.2 16 35.2 35.2 0.8 79.2-63.2 142.4-141.6 142.4z" fill="#FFEC7B" /><path d="M831.2 44.8c-2.4-16.8-17.6-30.4-35.2-30.4H650.4c-19.2 0-32.8 16-32 35.2v0.8c0 9.6-2.4 19.2-6.4 28.8v0.8c-12 29.6-41.6 48.8-73.6 48.8H329.6c-6.4 0-13.6-1.6-20-2.4-39.2-8.8-55.2 49.6-16.8 60.8 12.8 4 26.4 5.6 40 5.6H688c78.4 0 142.4-64 142.4-142.4 1.6-1.6 1.6-3.2 0.8-5.6z" fill="#EFC71D" /><path d="M689.6 216.8H334.4C242.4 216.8 168 142.4 168 50.4c0-13.6 10.4-24 24-24s24 10.4 24 24c0 64.8 52.8 118.4 118.4 118.4h355.2c64.8 0 118.4-52.8 118.4-118.4 0-13.6 10.4-24 24-24s24 10.4 24 24c0 92-74.4 166.4-166.4 166.4z" fill="#3F4A54" /></svg>