<?xml version="1.0" standalone="no"?><!DOCTYPE svg PUBLIC "-//W3C//DTD SVG 1.1//EN" "http://www.w3.org/Graphics/SVG/1.1/DTD/svg11.dtd"><svg class="icon" width="48px" height="48.00px" viewBox="0 0 1024 1024" version="1.1" xmlns="http://www.w3.org/2000/svg"><path d="M279.272727 907.636364V628.363636c0-102.4 83.781818-186.181818 186.181818-186.181818h279.272728c102.4 0 186.181818 83.781818 186.181818 186.181818v279.272728H279.272727z" fill="#F04B4D" /><path d="M325.818182 1000.727273c-25.6 0-46.545455-20.945455-46.545455-46.545455v-46.545454h651.636364v46.545454c0 25.6-20.945455 46.545455-46.545455 46.545455H325.818182z" fill="#B0C4D8" /><path d="M93.090909 558.545455h93.090909l93.090909 69.818181v186.181819l-44.218182 11.636363z" fill="#F04B4D" /><path d="M134.981818 581.818182h-2.327273L256 814.545455v-58.181819z" fill="#DE333F" /><path d="M465.454545 442.181818v-46.545454c0-25.6 20.945455-46.545455 46.545455-46.545455h186.181818c25.6 0 46.545455 20.945455 46.545455 46.545455v46.545454H465.454545z" fill="#F04B4D" /><path d="M698.181818 325.818182h-46.545454c0-13.963636-9.309091-23.272727-23.272728-23.272727h-46.545454c-13.963636 0-23.272727 9.309091-23.272727 23.272727h-46.545455c-39.563636 0-69.818182 30.254545-69.818182 69.818182v46.545454c0 13.963636 9.309091 23.272727 23.272727 23.272727h279.272728c13.963636 0 23.272727-9.309091 23.272727-23.272727v-46.545454c0-39.563636-30.254545-69.818182-69.818182-69.818182z m23.272727 93.090909H488.727273v-23.272727c0-13.963636 9.309091-23.272727 23.272727-23.272728h186.181818c13.963636 0 23.272727 9.309091 23.272727 23.272728v23.272727z" fill="#014463" /><path d="M651.636364 930.909091c0 13.963636-9.309091 23.272727-23.272728 23.272727H302.545455c0 13.963636 9.309091 23.272727 23.272727 23.272727h558.545454c13.963636 0 23.272727-9.309091 23.272728-23.272727v-23.272727H651.636364z" fill="#82A7C4" /><path d="M721.454545 418.909091h-93.090909v-46.545455h69.818182c13.963636 0 23.272727 9.309091 23.272727 23.272728v23.272727z" fill="#DE333F" /><path d="M411.927273 542.254545c-2.327273-6.981818-9.309091-9.309091-13.963637-6.981818-27.927273 11.636364-46.545455 39.563636-48.872727 69.818182v11.636364c0 6.981818 4.654545 11.636364 11.636364 11.636363s11.636364-4.654545 11.636363-11.636363V605.090909c0-20.945455 13.963636-41.890909 32.581819-48.872727 6.981818 0 9.309091-6.981818 6.981818-13.963637zM360.727273 721.454545c-6.981818 0-11.636364-4.654545-11.636364-11.636363v-46.545455c0-6.981818 4.654545-11.636364 11.636364-11.636363s11.636364 4.654545 11.636363 11.636363v46.545455c0 6.981818-4.654545 11.636364-11.636363 11.636363zM372.363636 756.363636c0 6.981818-4.654545 11.636364-11.636363 11.636364s-11.636364-4.654545-11.636364-11.636364 4.654545-11.636364 11.636364-11.636363 11.636364 4.654545 11.636363 11.636363z" fill="#F26A56" /><path d="M442.181818 23.272727h325.818182v93.090909H442.181818z" fill="#D98B37" /><path d="M465.454545 69.818182h279.272728v23.272727H465.454545z" fill="#C87729" /><path d="M861.090909 453.818182V116.363636c0-39.563636-30.254545-69.818182-69.818182-69.818181V23.272727c0-13.963636-9.309091-23.272727-23.272727-23.272727H442.181818c-13.963636 0-23.272727 9.309091-23.272727 23.272727v23.272728c-39.563636 0-69.818182 30.254545-69.818182 69.818181v337.454546c-44.218182 30.254545-76.8 76.8-88.436364 130.327273l-60.50909-44.218182c-4.654545-2.327273-9.309091-4.654545-13.963637-4.654546H93.090909c-9.309091 0-16.290909 4.654545-20.945454 11.636364s-4.654545 16.290909 0 23.272727L256 914.618182V954.181818c0 39.563636 30.254545 69.818182 69.818182 69.818182h558.545454c39.563636 0 69.818182-30.254545 69.818182-69.818182V628.363636c0-72.145455-37.236364-137.309091-93.090909-174.545454zM256 814.545455L132.654545 581.818182h46.545455l76.8 58.181818V814.545455z m209.454545-768h279.272728v46.545454H465.454545V46.545455z m-69.818181 186.181818V116.363636c0-13.963636 9.309091-23.272727 23.272727-23.272727v23.272727c0 13.963636 9.309091 23.272727 23.272727 23.272728h325.818182c13.963636 0 23.272727-9.309091 23.272727-23.272728V93.090909c13.963636 0 23.272727 9.309091 23.272728 23.272727v314.181819c-20.945455-6.981818-44.218182-11.636364-69.818182-11.636364H465.454545c-25.6 0-48.872727 4.654545-69.818181 11.636364V232.727273z m512 721.454545c0 13.963636-9.309091 23.272727-23.272728 23.272727H325.818182c-13.963636 0-23.272727-9.309091-23.272727-23.272727v-23.272727h605.090909v23.272727z m0-69.818182H302.545455V628.363636c0-90.763636 72.145455-162.909091 162.90909-162.909091h279.272728c90.763636 0 162.909091 72.145455 162.909091 162.909091v256z" fill="#014463" /><path d="M828.509091 488.727273h-134.981818c-27.927273 0-48.872727 23.272727-46.545455 51.2 2.327273 25.6 4.654545 55.854545 4.654546 88.436363v256h256V628.363636c0-58.181818-32.581818-111.709091-79.127273-139.636363z" fill="#DE333F" /></svg>