<?xml version="1.0" standalone="no"?><!DOCTYPE svg PUBLIC "-//W3C//DTD SVG 1.1//EN" "http://www.w3.org/Graphics/SVG/1.1/DTD/svg11.dtd"><svg class="icon" width="48px" height="48.00px" viewBox="0 0 1024 1024" version="1.1" xmlns="http://www.w3.org/2000/svg"><path d="M597.504 416.58368a19.6096 19.6096 0 0 1-7.7824 26.624 246.9888 246.9888 0 0 0-40.30464 27.38176c20.992 24.50432 37.2736 52.92032 48.76288 85.15584 0.77824 2.17088 1.14688 4.4032 1.14688 6.58432h98.95936a19.6096 19.6096 0 1 1 0 39.2192H541.41952v274.51392a29.40928 29.40928 0 1 1 0 58.8288h-58.8288a29.40928 29.40928 0 1 1 0-58.8288V601.5488H325.7344a19.6096 19.6096 0 0 1 0-39.2192h118.24128c0-2.19136 0.36864-4.4032 1.13664-6.58432 11.49952-32.23552 27.77088-60.65152 48.7424-85.15584a245.64736 245.64736 0 0 0-40.28416-27.38176 19.6096 19.6096 0 0 1 18.8416-34.39616 284.928 284.928 0 0 1 49.2544 33.92512 283.72992 283.72992 0 0 1 49.22368-33.92512 19.6096 19.6096 0 0 1 26.624 7.7824z m-38.7072 145.73568c-9.27744-23.93088-21.63712-45.18912-37.15072-63.85664-15.52384 18.66752-27.88352 39.936-37.15072 63.85664zM541.41952 81.92v121.06752c56.2176 13.27104 98.03776 63.77472 98.03776 124.03712 0 1.69984-0.2048 3.33824-0.6144 4.9152a19.6096 19.6096 0 0 1-18.98496 24.50432H404.16256a19.6096 19.6096 0 0 1-18.9952-24.5248 19.456 19.456 0 0 1-0.6144-4.89472c0-60.2624 41.8304-110.76608 98.03776-124.03712V81.92h58.8288z m-29.40928 156.8768a88.24832 88.24832 0 0 0-87.7056 78.41792h175.40096a88.24832 88.24832 0 0 0-87.69536-78.42816z" fill="#ffffff" /><path d="M108.81024 377.32352l0.44032 1.66912 63.8976 271.5648h221.20448a39.2192 39.2192 0 0 1 39.168 37.2736l0.0512 1.9456v245.11488h-58.8288V709.39648H178.65728v225.4848h-58.81856L119.808 680.07936a29.61408 29.61408 0 0 1-0.38912-1.21856l-0.44032-1.66912-67.00032-284.71296a29.40928 29.40928 0 0 1 56.82176-15.14496z m804.7616 0a29.40928 29.40928 0 0 1 56.82176 15.1552l-66.22208 281.3952v261.0176h-58.81856V709.39648h-196.096v225.4848H590.4384V689.79712a39.2192 39.2192 0 0 1 37.26336-39.168l1.95584-0.0512h219.56608l63.90784-271.5648z" fill="#ffffff" /></svg>