<?xml version="1.0" standalone="no"?><!DOCTYPE svg PUBLIC "-//W3C//DTD SVG 1.1//EN" "http://www.w3.org/Graphics/SVG/1.1/DTD/svg11.dtd"><svg class="icon" width="48px" height="48.00px" viewBox="0 0 1024 1024" version="1.1" xmlns="http://www.w3.org/2000/svg"><path d="M782.46912 71.68a60.1088 60.1088 0 0 1 60.1088 60.1088v243.79392c18.7392-8.61184 41.0624-13.1072 66.46784-13.39392 1.91488-0.02048 3.7888 0.13312 5.60128 0.45056v-0.45056c30.95552 0 56.92416 23.62368 58.112 54.14912l0.04096 2.19136v368.13824c0 30.85312-25.2416 55.1936-55.94112 56.32l-2.2016 0.03072h-1.96608v70.12352a30.0544 30.0544 0 0 1-30.04416 30.0544h-100.17792a30.0544 30.0544 0 0 1-30.0544-30.0544v-70.12352H271.57504v70.12352a30.0544 30.0544 0 0 1-30.04416 30.0544h-100.17792a30.0544 30.0544 0 0 1-30.04416-30.0544l-0.01024-70.12352h-1.9456c-30.95552 0-56.92416-23.62368-58.112-54.15936L51.2 786.66752v-368.128c0-30.85312 25.2416-55.1936 55.94112-56.32l2.2016-0.03072h0.34816c27.84256 0.3072 51.95776 5.67296 71.74144 15.9744V131.7888A60.1088 60.1088 0 0 1 241.52064 71.68h540.93824zM231.51616 843.01824h-80.13824v60.1088h80.13824v-60.1088z m641.10592 0h-80.13824v60.1088h80.13824v-60.1088z m40.07936-420.90496a30.4128 30.4128 0 0 1-2.9696 0.17408c-37.2736 0.43008-57.6512 11.55072-67.15392 34.26304v125.46048a60.1088 60.1088 0 0 1-68.67968 59.4944A1834.65984 1834.65984 0 0 0 512 622.62272c-87.296 0-174.592 6.28736-261.89824 18.86208a60.1088 60.1088 0 0 1-68.67968-59.4944V468.09088a29.98272 29.98272 0 0 1-3.04128-5.65248l-0.6144-1.65888c-8.54016-25.05728-28.43648-37.5296-66.4576-38.44096v360.59136h801.3824zM782.46912 131.7888H241.53088v450.22208l15.90272-2.22208a1894.2464 1894.2464 0 0 1 238.65344-17.19296L512 562.5344c84.86912 0 169.728 5.75488 254.5664 17.2544l15.90272 2.22208V131.7888z" fill="#ffffff" /><path d="M440.3712 211.69152a15.02208 15.02208 0 0 1 0 21.248l-28.33408 28.32384 28.33408 28.34432a15.02208 15.02208 0 1 1-21.25824 21.248l-28.32384-28.33408-28.33408 28.33408a15.02208 15.02208 0 0 1-21.25824-21.248l28.33408-28.34432-28.33408-28.32384a15.02208 15.02208 0 0 1 21.25824-21.248l28.33408 28.32384 28.32384-28.32384a15.02208 15.02208 0 0 1 21.25824 0zM440.3712 411.77088a15.02208 15.02208 0 0 1 0 21.248l-28.33408 28.32384 28.33408 28.34432a15.02208 15.02208 0 0 1-21.25824 21.248l-28.32384-28.33408-28.33408 28.33408a15.02208 15.02208 0 1 1-21.25824-21.248l28.33408-28.34432-28.33408-28.32384a15.02208 15.02208 0 1 1 21.25824-21.248l28.33408 28.32384 28.32384-28.32384a15.02208 15.02208 0 0 1 21.25824 0zM678.35904 211.69152a15.02208 15.02208 0 0 1 0 21.248l-28.33408 28.32384 28.33408 28.34432a15.02208 15.02208 0 1 1-21.248 21.248l-28.33408-28.33408-28.33408 28.33408a15.02208 15.02208 0 0 1-21.248-21.248l28.33408-28.34432-28.33408-28.32384a15.02208 15.02208 0 1 1 21.248-21.248l28.33408 28.32384 28.33408-28.32384a15.02208 15.02208 0 0 1 21.248 0zM678.35904 411.77088a15.02208 15.02208 0 0 1 0 21.248l-28.33408 28.32384 28.33408 28.34432a15.02208 15.02208 0 1 1-21.248 21.248l-28.33408-28.33408-28.33408 28.33408a15.02208 15.02208 0 1 1-21.248-21.248l28.33408-28.34432-28.33408-28.32384a15.02208 15.02208 0 1 1 21.248-21.248l28.33408 28.32384 28.33408-28.32384a15.02208 15.02208 0 0 1 21.248 0z" fill="#ffffff" /></svg>