<?xml version="1.0" standalone="no"?><!DOCTYPE svg PUBLIC "-//W3C//DTD SVG 1.1//EN" "http://www.w3.org/Graphics/SVG/1.1/DTD/svg11.dtd"><svg class="icon" width="48px" height="48.00px" viewBox="0 0 1024 1024" version="1.1" xmlns="http://www.w3.org/2000/svg"><path d="M942.08 481.28a30.72 30.72 0 0 1 0 61.44h-6.15424l-9.20576 92.16c-5.5296 55.3984-34.26304 102.23616-74.7008 129.14688A179.5072 179.5072 0 0 1 916.48 860.16l25.41568 94.4128A30.72 30.72 0 0 1 912.2304 993.28h-800.4608a30.72 30.72 0 0 1-29.66528-38.7072L107.52 860.16a179.6096 179.6096 0 0 1 64.4608-96.1536c-40.448-26.89024-69.16096-73.728-74.7008-129.1264l-9.216-92.16H81.92a30.72 30.72 0 0 1 0-61.44h122.95168C143.04256 451.26656 100.48512 412.2112 86.7328 368.64H71.68a30.72 30.72 0 0 1 0-61.44h15.0528c27.78112-87.97184 173.08672-157.62432 357.36576-171.54048a71.68 71.68 0 1 1 135.80288 0c184.27904 13.91616 329.58464 83.5584 357.376 171.54048H952.32a30.72 30.72 0 0 1 0 61.44h-15.0528c-13.75232 43.56096-56.32 82.61632-118.13888 112.64H942.08zM742.77888 788.48H281.22112a118.44608 118.44608 0 0 0-113.55136 84.74624l-0.8192 2.90816L151.83872 931.84h720.31232l-15.0016-55.7056a118.44608 118.44608 0 0 0-111.34976-87.61344L742.77888 788.48z m130.65216-245.76H150.55872l7.7824 84.0192c5.19168 56.02304 44.00128 98.6624 90.68544 100.2496l2.70336 0.0512h520.54016c46.97088 0 86.5792-41.58464 93.05088-97.0752l0.33792-3.2256 7.77216-84.0192z m-4.33152-174.08H154.90048c13.84448 19.38432 40.20224 39.95648 79.40096 58.624C305.69472 461.2608 405.0944 481.28 512 481.28c106.9056 0 206.30528-20.0192 277.69856-54.016 39.19872-18.66752 65.55648-39.23968 79.40096-58.61376zM512 194.56c-106.9056 0-206.30528 20.0192-277.69856 54.016-39.19872 18.66752-65.56672 39.24992-79.4112 58.624h714.21952c-13.84448-19.37408-40.21248-39.95648-79.4112-58.624C718.30528 214.5792 618.9056 194.56 512 194.56z m0-112.64a30.72 30.72 0 0 0-22.6304 51.48672 867.04128 867.04128 0 0 1 45.2608 0A30.72 30.72 0 0 0 512 81.92z" fill="#ffffff" /><path d="M245.76 829.44m30.72 0l92.16 0q30.72 0 30.72 30.72l0 0q0 30.72-30.72 30.72l-92.16 0q-30.72 0-30.72-30.72l0 0q0-30.72 30.72-30.72Z" fill="#ffffff" /><path d="M512 798.72a61.44 61.44 0 1 1 0 122.88 61.44 61.44 0 0 1 0-122.88z m0 40.96a20.48 20.48 0 1 0 0 40.96 20.48 20.48 0 0 0 0-40.96z" fill="#ffffff" /><path d="M624.64 829.44m30.72 0l92.16 0q30.72 0 30.72 30.72l0 0q0 30.72-30.72 30.72l-92.16 0q-30.72 0-30.72-30.72l0 0q0-30.72 30.72-30.72Z" fill="#ffffff" /></svg>