<?xml version="1.0" standalone="no"?><!DOCTYPE svg PUBLIC "-//W3C//DTD SVG 1.1//EN" "http://www.w3.org/Graphics/SVG/1.1/DTD/svg11.dtd"><svg class="icon" width="48px" height="48.00px" viewBox="0 0 1024 1024" version="1.1" xmlns="http://www.w3.org/2000/svg"><path d="M942.08 81.92a30.72 30.72 0 0 1 30.72 30.72v757.76a30.72 30.72 0 0 1-30.72 30.72h-20.48v20.48a30.72 30.72 0 0 1-61.44 0v-20.48H163.84v20.48a30.72 30.72 0 0 1-61.44 0v-20.48H81.92a30.72 30.72 0 0 1-30.72-30.72V112.64a30.72 30.72 0 0 1 30.72-30.72h860.16zM481.28 686.08H112.64v153.6h368.64V686.08z m430.08 0H542.72v153.6h368.64V686.08zM276.48 143.36H112.64v481.28h163.84V143.36z m430.08 0H542.72v481.28h163.84V143.36zM481.28 143.36H317.44v481.28h163.84V143.36z m430.08 0H747.52v481.28h163.84V143.36z" fill="#ffffff" /><path d="M225.28 716.8m30.72 0l81.92 0q30.72 0 30.72 30.72l0 0q0 30.72-30.72 30.72l-81.92 0q-30.72 0-30.72-30.72l0 0q0-30.72 30.72-30.72Z" fill="#ffffff" /><path d="M655.36 716.8m30.72 0l81.92 0q30.72 0 30.72 30.72l0 0q0 30.72-30.72 30.72l-81.92 0q-30.72 0-30.72-30.72l0 0q0-30.72 30.72-30.72Z" fill="#ffffff" /></svg>