<?xml version="1.0" standalone="no"?><!DOCTYPE svg PUBLIC "-//W3C//DTD SVG 1.1//EN" "http://www.w3.org/Graphics/SVG/1.1/DTD/svg11.dtd"><svg class="icon" width="48px" height="48.00px" viewBox="0 0 1024 1024" version="1.1" xmlns="http://www.w3.org/2000/svg"><path d="M683.093333 894.72a42.666667 42.666667 0 0 1-42.666666 43.093333H383.701333a42.666667 42.666667 0 0 1-42.666666-42.368L340.48 810.666667a85.333333 85.333333 0 0 1 85.333333-85.333334h171.093334c46.933333 0 84.906667 37.973333 85.333333 84.906667l0.853333 84.48z" fill="#ffffff" /><path d="M789.333333 426.666667v92.586666c0 22.613333 8.96 44.373333 25.173334 60.586667l34.986666 34.986667c16.213333 16.213333 25.173333 37.973333 25.173334 60.586666V725.333333c0 98.176-38.784 170.410667-123.477334 199.082667-12.885333 4.352-25.472-5.802667-25.514666-19.370667L725.333333 809.813333c-0.853333-69.973333-58.453333-127.146667-128-127.146666H426.24c-70.826667 0-128 57.6-128 128v94.890666c0 13.568-12.544 23.722667-25.386667 19.498667C187.136 896.682667 149.333333 824.021333 149.333333 725.333333V298.666667c0-102.656 40.618667-177.749333 134.186667-203.221334 12.8-3.498667 24.746667 6.826667 24.576 20.053334L306.773333 209.066667c-0.426667 20.053333 6.826667 39.253333 20.48 53.76 14.08 14.506667 32.426667 22.613333 54.186667 23.04 21.930667 0 41.472-9.088 54.826667-23.893334a13.568 13.568 0 0 1 18.986666-0.426666c13.653333 14.506667 32.426667 23.04 54.186667 23.466666 21.930667 0 41.984-9.642667 55.637333-25.173333 4.48-5.12 13.653333-5.504 18.176-0.426667 13.653333 14.506667 32.426667 23.04 54.186667 23.466667 40.96 0 73.813333-32 74.666667-73.386667l1.706666-94.848c0.213333-13.013333 11.946667-22.869333 24.533334-19.498666C832.384 120.106667 874.666667 195.712 874.666667 298.666667v42.666666c0 23.466667-19.2 42.666667-42.666667 42.666667s-42.666667 19.2-42.666667 42.666667z" fill="#ffffff" /><path d="M393.728 85.461333a21.333333 21.333333 0 0 1 21.461333 21.717334L413.44 211.626667c-0.426667 17.493333-14.506667 31.573333-32 31.573333h-0.426667a32.042667 32.042667 0 0 1-31.573333-32.853333V106.965333a21.333333 21.333333 0 0 1 21.205333-21.333333l23.082667-0.170667zM521.898667 85.333333a21.333333 21.333333 0 0 1 21.333333 21.674667L541.44 211.2c-0.426667 17.066667-14.506667 31.146667-32 31.146667h-0.426667a31.957333 31.957333 0 0 1-31.573333-32.426667V106.666667a21.333333 21.333333 0 0 1 21.333333-21.333334h23.125334zM650.026667 85.632a21.333333 21.333333 0 0 1 21.162666 21.674667L669.44 208.64c-0.426667 17.493333-14.506667 31.573333-32 31.573333h-0.426667a31.957333 31.957333 0 0 1-31.573333-32.426666V106.794667a21.333333 21.333333 0 0 1 21.461333-21.333334l23.125334 0.170667z" fill="#ffffff" /></svg>