<?xml version="1.0" standalone="no"?><!DOCTYPE svg PUBLIC "-//W3C//DTD SVG 1.1//EN" "http://www.w3.org/Graphics/SVG/1.1/DTD/svg11.dtd"><svg class="icon" width="48px" height="48.00px" viewBox="0 0 1024 1024" version="1.1" xmlns="http://www.w3.org/2000/svg"><path d="M906.666667 544c17.92 0 32-14.506667 32-32 0-17.92-14.08-32-32-32H853.333333v-93.866667h53.333334c17.92 0 32-14.08 32-32 0-17.493333-14.08-32-32-32h-63.146667a212.266667 212.266667 0 0 0-141.653333-141.653333V117.333333c0-17.493333-14.506667-32-32-32s-32 14.506667-32 32V170.666667h-93.866667V117.333333c0-17.493333-14.506667-32-32-32s-32 14.506667-32 32V170.666667H386.56V117.333333a31.957333 31.957333 0 1 0-64 0v63.146667a212.053333 212.053333 0 0 0-142.08 141.653333H117.333333a31.957333 31.957333 0 1 0 0 64H170.666667v93.866667H117.333333a31.957333 31.957333 0 1 0 0 64H170.666667v93.866667H117.333333a31.957333 31.957333 0 1 0 0 64h63.146667a211.2 211.2 0 0 0 142.08 141.653333v63.146667a31.957333 31.957333 0 1 0 64 0V853.333333h93.866667v53.333334a31.957333 31.957333 0 1 0 64 0V853.333333h93.44v53.333334c0 17.493333 14.506667 32 32 32s32-14.506667 32-32v-63.146667a212.266667 212.266667 0 0 0 141.653333-141.653333h63.146667c17.92 0 32-14.506667 32-32 0-17.92-14.08-32-32-32H853.333333v-93.866667h53.333334z m-170.24 64.426667c0 70.4-57.6 128-128 128H415.573333c-70.4 0-128-57.6-128-128V415.573333c0-70.4 57.6-128 128-128h192.853334c70.4 0 128 57.6 128 128v192.853334z" fill="#ffffff" /><path d="M427.52 693.333333h169.386667c53.333333 0 96.853333-43.093333 96.853333-96.853333v-169.386667c0-53.333333-43.093333-96.853333-96.853333-96.853333h-169.386667c-53.333333 0-96.853333 43.093333-96.853333 96.853333v169.386667c0 53.76 43.093333 96.853333 96.853333 96.853333z" fill="#ffffff" /></svg>