<?xml version="1.0" standalone="no"?><!DOCTYPE svg PUBLIC "-//W3C//DTD SVG 1.1//EN" "http://www.w3.org/Graphics/SVG/1.1/DTD/svg11.dtd"><svg class="icon" width="48px" height="48.00px" viewBox="0 0 1024 1024" version="1.1" xmlns="http://www.w3.org/2000/svg"><path d="M682.666667 160H341.333333c-17.493333 0-32-14.506667-32-32s14.506667-32 32-32h341.333334c17.493333 0 32 14.506667 32 32s-14.506667 32-32 32zM682.666667 928H341.333333c-17.493333 0-32-14.506667-32-32s14.506667-32 32-32h341.333334c17.493333 0 32 14.506667 32 32s-14.506667 32-32 32zM661.333333 213.333333h-298.666666C263.253333 213.333333 213.333333 263.253333 213.333333 362.666667v298.666666C213.333333 760.746667 263.253333 810.666667 362.666667 810.666667h298.666666c99.413333 0 149.333333-49.92 149.333334-149.333334v-298.666666C810.666667 263.253333 760.746667 213.333333 661.333333 213.333333z m-245.333333 384a31.957333 31.957333 0 1 1-64 0v-42.666666c0-17.493333 14.506667-32 32-32s32 14.506667 32 32v42.666666z m128 0c0 17.493333-14.506667 32-32 32s-32-14.506667-32-32v-170.666666c0-17.493333 14.506667-32 32-32s32 14.506667 32 32v170.666666z m128 0c0 17.493333-14.506667 32-32 32s-32-14.506667-32-32v-85.333333c0-17.493333 14.506667-32 32-32s32 14.506667 32 32v85.333333z" fill="#ffffff" /></svg>