<?xml version="1.0" standalone="no"?><!DOCTYPE svg PUBLIC "-//W3C//DTD SVG 1.1//EN" "http://www.w3.org/Graphics/SVG/1.1/DTD/svg11.dtd"><svg class="icon" width="48px" height="48.00px" viewBox="0 0 1024 1024" version="1.1" xmlns="http://www.w3.org/2000/svg"><path d="M512 902.23a38.35 38.35 0 0 1-38.35-38.36V741.06a38.35 38.35 0 0 1 76.7 0v122.81A38.35 38.35 0 0 1 512 902.23z" fill="#2F3240" /><path d="M685.59 902.23H338.42a38.36 38.36 0 1 1 0-76.71h347.17a38.36 38.36 0 0 1 0 76.71z" fill="#2F3240" /><path d="M532.64 121.77h-41.28c-88.12 0-159.81 71.7-159.81 159.82v208.52c0 88.11 71.69 159.81 159.81 159.81h41.28c88.13 0 159.81-71.7 159.81-159.81V281.59c0-88.12-71.68-159.82-159.81-159.82z m52 333.92H439.4a38.35 38.35 0 1 1 0-76.7h145.19a38.35 38.35 0 1 1 0 76.7z m0-143.37H439.4a38.36 38.36 0 0 1 0-76.71h145.19a38.36 38.36 0 1 1 0 76.71z" fill="#4169E1" /><path d="M512 779.41c-145.58 0-269.85-99-302.18-240.76a38.36 38.36 0 1 1 74.79-17.06C308.93 628.23 402.44 702.71 512 702.71s203.07-74.48 227.4-181.12a38.35 38.35 0 0 1 74.78 17.06C781.84 680.41 657.58 779.41 512 779.41z" fill="#2F3240" /></svg>