<?xml version="1.0" standalone="no"?><!DOCTYPE svg PUBLIC "-//W3C//DTD SVG 1.1//EN" "http://www.w3.org/Graphics/SVG/1.1/DTD/svg11.dtd"><svg class="icon" width="48px" height="48.00px" viewBox="0 0 1024 1024" version="1.1" xmlns="http://www.w3.org/2000/svg"><path d="M815.75 888.71h-607.5a113.66 113.66 0 0 1-98.43-170.49l303.75-526.1a113.66 113.66 0 0 1 196.86 0l303.75 526.1a113.66 113.66 0 0 1-98.43 170.49zM476.4 228.39L172.65 754.5c-10.71 18.55-3.56 34.93 0 41.11s14.18 20.55 35.6 20.55h607.5c21.42 0 32-14.37 35.59-20.55s10.72-22.56 0-41.11L547.6 228.39c-10.71-18.54-28.47-20.55-35.6-20.55s-24.89 2-35.6 20.55z" fill="#2F3240" /><path d="M512 442.88m-57.01 0a57.01 57.01 0 1 0 114.02 0 57.01 57.01 0 1 0-114.02 0Z" fill="#4169E1" /><path d="M471.19 540.05m1.19 0l79.24 0q1.19 0 1.19 1.19l0 212.69q0 1.19-1.19 1.19l-79.24 0q-1.19 0-1.19-1.19l0-212.69q0-1.19 1.19-1.19Z" fill="#4169E1" /></svg>