<?xml version="1.0" standalone="no"?><!DOCTYPE svg PUBLIC "-//W3C//DTD SVG 1.1//EN" "http://www.w3.org/Graphics/SVG/1.1/DTD/svg11.dtd"><svg class="icon" width="48px" height="48.00px" viewBox="0 0 1024 1024" version="1.1" xmlns="http://www.w3.org/2000/svg"><path d="M819.76 784.9H204.24A68.08 68.08 0 0 1 150 675.72l34.11-45.08A159.38 159.38 0 0 0 216.16 535V390.78C216.16 227.66 348.87 95 512 95s295.84 132.66 295.84 295.78V535a159.38 159.38 0 0 0 32.1 95.62l34.11 45.08a68.09 68.09 0 0 1-54.29 109.2z m-6.87-62.9z m-591.32-13.81h580.86l-23.66-31.26A236.56 236.56 0 0 1 731.13 535V390.78c0-120.82-98.3-219.12-219.13-219.12S292.87 270 292.87 390.78V535a236.56 236.56 0 0 1-47.64 141.91z" fill="#2F3240" /><path d="M648.61 630H375.4a27.4 27.4 0 1 1 0-54.79h273.21a27.4 27.4 0 0 1 0 54.79z" fill="#2F3240" /><path d="M389.87 840.76a128.62 128.62 0 0 0 244.26 0z" fill="#4169E1" /></svg>