<?xml version="1.0" standalone="no"?><!DOCTYPE svg PUBLIC "-//W3C//DTD SVG 1.1//EN" "http://www.w3.org/Graphics/SVG/1.1/DTD/svg11.dtd"><svg class="icon" width="48px" height="48.00px" viewBox="0 0 1024 1024" version="1.1" xmlns="http://www.w3.org/2000/svg"><path d="M309.768342 0h404.463316v252.789572h-404.463316z" fill="#4169E1" /><path d="M826.723018 76.039103H197.276982a151.673743 151.673743 0 0 0-151.673743 151.673744v796.287153h932.793522v-796.287153a151.673743 151.673743 0 0 0-151.673743-151.673744z m50.557914 846.845068H146.719068v-695.171324a50.557914 50.557914 0 0 1 50.557914-50.557915h629.446036a50.557914 50.557914 0 0 1 50.557914 50.557915z" fill="#0D0A16" /><path d="M663.673743 333.884467h-303.347486a50.557914 50.557914 0 0 0 0 101.115829h303.347486a50.557914 50.557914 0 0 0 0-101.115829zM360.326257 617.008788h151.673743a50.557914 50.557914 0 0 0 0-101.115829h-151.673743a50.557914 50.557914 0 0 0 0 101.115829zM663.673743 697.901452h-303.347486a50.557914 50.557914 0 0 0 0 101.115829h303.347486a50.557914 50.557914 0 0 0 0-101.115829z" fill="#0D0A16" /></svg>