<?xml version="1.0" standalone="no"?><!DOCTYPE svg PUBLIC "-//W3C//DTD SVG 1.1//EN" "http://www.w3.org/Graphics/SVG/1.1/DTD/svg11.dtd"><svg class="icon" width="48px" height="48.00px" viewBox="0 0 1024 1024" version="1.1" xmlns="http://www.w3.org/2000/svg"><path d="M901.9392 561.664c-14.1312 0-25.6-11.4688-25.6-25.6v-13.056c0-14.1312 11.4688-25.6 25.6-25.6s25.6 11.4688 25.6 25.6v13.056c0 14.1312-11.4688 25.6-25.6 25.6z" fill="#44454A" /><path d="M901.9392 401.4592l-4.5056-9.3184c0-77.056-23.3472-101.4272-135.0144-101.4272h-184.32c-21.7088 0-41.984-10.7008-54.2208-28.6208l-27.648-40.448a65.6896 65.6896 0 0 0-54.2208-28.6208H322.304C245.248 193.024 182.784 255.488 182.784 332.5952v68.864h719.1552z" fill="#4169E1" /><path d="M748.3392 202.9568h-202.9056c-11.5712 0-22.5792-4.3008-31.0272-11.776A46.21824 46.21824 0 0 1 506.88 182.6304l-15.2064-22.272-15.2064-22.272a97.49504 97.49504 0 0 0-20.2752-21.7088s-0.0512 0-0.0512-0.0512c-0.8704-0.7168-1.792-1.3312-2.7136-1.9968-0.6656-0.512-1.3312-1.024-2.048-1.536-0.4608-0.3584-0.9728-0.6144-1.4848-0.9728-1.1264-0.768-2.304-1.536-3.4816-2.2528-0.6656-0.4096-1.3312-0.7168-1.9456-1.1264-1.0752-0.6144-2.0992-1.2288-3.1744-1.792a97.90976 97.90976 0 0 0-45.6704-11.3152H263.9872c-98.816 0-179.2 80.384-179.2 179.2v480.3072c0 98.816 80.384 179.2 179.2 179.2h484.352c98.816 0 179.2-80.384 179.2-179.2v-143.8208c0-14.1312-11.4688-25.6-25.6-25.6s-25.6 11.4688-25.6 25.6v143.8208c0 70.6048-57.3952 128-128 128h-484.352c-70.6048 0-128-57.3952-128-128v-333.824h740.352V450.56c0 14.1312 11.4688 25.6 25.6 25.6s25.6-11.4688 25.6-25.6V382.1568c0-98.816-80.384-179.2-179.2-179.2z m-612.352 71.68c0-70.6048 57.3952-128 128-128h131.6352c15.4112 0 29.8496 7.6288 38.5536 20.3264l30.4128 44.544c18.2784 26.7264 48.4864 42.6496 80.8448 42.6496h202.9056c2.1504 0 4.2496 0.0512 6.4 0.1536l2.0992 0.1536 4.1984 0.3072 2.4576 0.3072 3.7376 0.4608c0.8704 0.1536 1.7408 0.3072 2.6624 0.4608l3.4816 0.6144 2.7136 0.6144 3.328 0.768c0.9216 0.2048 1.792 0.4608 2.7136 0.7168l3.2256 0.9216c0.9216 0.256 1.792 0.5632 2.7136 0.8704 1.024 0.3584 2.048 0.6656 3.072 1.024 0.9216 0.3072 1.792 0.6656 2.6624 0.9728 1.024 0.3584 1.9968 0.768 2.9696 1.1776 0.8704 0.3584 1.792 0.7168 2.6624 1.1264 0.9728 0.4096 1.9456 0.8704 2.9184 1.3312l2.6112 1.2288c0.9216 0.4608 1.8944 0.9728 2.816 1.4336 0.8704 0.4608 1.6896 0.8704 2.5088 1.3824 0.9216 0.512 1.8432 1.024 2.7136 1.5872 0.8192 0.4608 1.6384 0.9728 2.4576 1.4848 0.8704 0.5632 1.792 1.1264 2.6624 1.6896a110.86848 110.86848 0 0 1 4.9152 3.4304c0.768 0.5632 1.536 1.0752 2.304 1.6896 0.8704 0.6656 1.6896 1.3312 2.5088 1.9968 0.7168 0.5632 1.4336 1.1264 2.1504 1.7408 0.8704 0.7168 1.6896 1.4848 2.56 2.2016 0.6656 0.5632 1.3312 1.1264 1.9456 1.7408 0.9728 0.8704 1.8944 1.792 2.8672 2.7136l2.304 2.304c1.0752 1.0752 2.1504 2.2016 3.1744 3.328 0.5632 0.6144 1.1264 1.28 1.6384 1.8944 0.768 0.8704 1.536 1.7408 2.2528 2.6112l1.6896 2.1504c0.6656 0.8704 1.3824 1.6896 1.9968 2.56 0.5632 0.768 1.1264 1.536 1.6384 2.2528 0.6144 0.8704 1.2288 1.6896 1.8432 2.56 0.512 0.768 1.0752 1.5872 1.5872 2.4064 0.5632 0.8704 1.1264 1.7408 1.6896 2.6624 0.512 0.8192 0.9728 1.6384 1.4848 2.4576 0.512 0.9216 1.0752 1.792 1.5872 2.7136 0.4608 0.8192 0.9216 1.6896 1.3824 2.56 0.4608 0.9216 0.9728 1.8432 1.4336 2.7648l1.2288 2.6112c0.4608 0.9728 0.8704 1.8944 1.28 2.8672 0.4096 0.8704 0.768 1.792 1.1264 2.6624 0.4096 0.9728 0.768 1.9456 1.1776 2.9696 0.3584 0.9216 0.6656 1.792 1.024 2.7136 0.3584 1.024 0.7168 2.048 1.024 3.072 0.3072 0.9216 0.6144 1.8432 0.8704 2.7648 0.3072 1.024 0.6144 2.0992 0.8704 3.1232 0.256 0.9216 0.512 1.8432 0.7168 2.7648l0.768 3.2256 0.6144 2.816c0.2048 1.0752 0.4096 2.2016 0.6144 3.328 0.1536 0.9216 0.3072 1.8432 0.4608 2.816l0.4608 3.4816c0.1024 0.9216 0.256 1.8432 0.3072 2.7648 0 0.1536 0 0.256 0.0512 0.4096H135.9872V274.6368z" fill="#44454A" /></svg>