<?xml version="1.0" standalone="no"?><!DOCTYPE svg PUBLIC "-//W3C//DTD SVG 1.1//EN" "http://www.w3.org/Graphics/SVG/1.1/DTD/svg11.dtd"><svg class="icon" width="48px" height="48.00px" viewBox="0 0 1024 1024" version="1.1" xmlns="http://www.w3.org/2000/svg"><path d="M0 576l107.456 345.152A128 128 0 0 0 232.96 1024h558.144a128 128 0 0 0 125.504-102.848L1024 576H0z m640 256H384v-64h256v64zM896 320H128V256a64 64 0 0 1 64-64h640a64 64 0 0 1 64 64v64zM960 512H64V448a64 64 0 0 1 64-64h768a64 64 0 0 1 64 64v64zM832 128H192V64a64 64 0 0 1 64-64h512a64 64 0 0 1 64 64v64z" fill="#13227a" /></svg>