<svg xml:space="preserve" style="enable-background:new 0 0 1024 1024;" viewBox="0 0 1024 1024" y="0px" x="0px" xmlns:xlink="http://www.w3.org/1999/xlink" xmlns="http://www.w3.org/2000/svg" id="图层_1" version="1.1">
<style type="text/css">
	.st0{fill:url(#椭圆形_1_);}
	.st1{opacity:0.9;}
	.st2{fill:url(#SVGID_1_);}
	.st3{fill:url(#SVGID_2_);}
	.st4{fill:url(#SVGID_3_);}
	.st5{fill:#CDE0FC;}
	.st6{fill:url(#SVGID_4_);}
	.st7{fill:#FFFFFF;}
	.st8{opacity:0.32;fill:url(#路径_1_);enable-background:new    ;}
	.st9{fill:#63A6F9;}
	.st10{fill:url(#SVGID_5_);}
	.st11{fill:url(#SVGID_6_);}
	.st12{fill:url(#SVGID_7_);}
	.st13{fill:url(#SVGID_8_);}
	.st14{fill:url(#SVGID_9_);}
	.st15{fill:url(#SVGID_10_);}
	.st16{opacity:0.31;fill:url(#SVGID_11_);}
	.st17{fill:#DCF0FF;}
	.st18{fill:url(#SVGID_12_);}
	.st19{fill:#E6F3FF;}
	.st20{fill:#F7F8F8;}
	.st21{fill:url(#SVGID_13_);}
</style>
<linearGradient gradientTransform="matrix(480 0 0 250 -161842 -83255)" y2="336.7625" x2="338.2462" y1="335.2688" x1="338.2462" gradientUnits="userSpaceOnUse" id="椭圆形_1_">
	<stop style="stop-color:#CFDFFA" offset="6.050502e-08"></stop>
	<stop style="stop-color:#D3E2FA;stop-opacity:0.6178" offset="0.3822"></stop>
	<stop style="stop-color:#E0E9FB;stop-opacity:0.2214" offset="0.7786"></stop>
	<stop style="stop-color:#EAF0FC;stop-opacity:0" offset="1"></stop>
</linearGradient>
<ellipse ry="219.7" rx="421.9" cy="913.3" cx="516.2" class="st0" id="椭圆形"></ellipse>
<g class="st1">
	
		<linearGradient gradientTransform="matrix(-1 0 0 1 1016.5887 2)" y2="311" x2="330.739" y1="197.4" x1="330.739" gradientUnits="userSpaceOnUse" id="SVGID_1_">
		<stop style="stop-color:#CFDFFA" offset="0"></stop>
		<stop style="stop-color:#EAF0FC;stop-opacity:0" offset="1"></stop>
	</linearGradient>
	<path d="M625,305L625,305L625,305c1.1,0.1,2.3,0.2,3.5,0.2s2.3-0.1,3.5-0.2h79.1c6.7,5,15.1,8,24.2,8
		c22.3,0,40.4-18.1,40.4-40.4s-18.1-40.4-40.4-40.4c-2,0-3.9,0.1-5.8,0.4c-4.3-10.9-14.9-18.7-27.3-18.7c-4.2,0-8.1,0.9-11.7,2.5
		c-5.8-10.2-16.8-17-29.4-17c-18.7,0-33.9,15.2-33.9,33.9c0,2.4,0.2,4.6,0.7,6.9c-17.7,0.3-31.9,14.8-31.9,32.5
		C595.9,289.4,608.6,303.3,625,305z" class="st2"></path>
	
		<linearGradient gradientTransform="matrix(-1 0 0 1 1016.5887 2)" y2="447.1" x2="641.6887" y1="299" x1="641.6887" gradientUnits="userSpaceOnUse" id="SVGID_2_">
		<stop style="stop-color:#CFDFFA" offset="1.210100e-07"></stop>
		<stop style="stop-color:#EAF0FC;stop-opacity:0" offset="1"></stop>
	</linearGradient>
	<path d="M279.6,440L279.6,440h0.2c1.8,0.2,3.6,0.3,5.4,0.3s3.7-0.1,5.5-0.3h143.9c7.7,5.7,17.3,9.1,27.6,9.1
		c25.7,0,46.6-20.9,46.6-46.6s-20.9-46.6-46.6-46.6c-1.5,0-3.1,0.1-4.6,0.2c-7.5-15.5-23.3-26.1-41.6-26.1c-2.2,0-4.4,0.2-6.5,0.5
		c-11.1-17.7-30.8-29.5-53.2-29.5c-31,0-56.7,22.4-61.8,51.9c-3-0.6-6-1-9.2-1c-24.4,0-44.3,19.8-44.3,44.3
		C241,418.6,257.8,437.2,279.6,440z" class="st3"></path>
</g>
<g>
	
		<linearGradient gradientTransform="matrix(1 0 0 -1 -221.6724 1024)" y2="241.6781" x2="596.5724" y1="241.6781" x1="513.1724" gradientUnits="userSpaceOnUse" id="SVGID_3_">
		<stop style="stop-color:#CFDFFA" offset="6.050502e-08"></stop>
		<stop style="stop-color:#D3E2FA;stop-opacity:0.6178" offset="0.3822"></stop>
		<stop style="stop-color:#E0E9FB;stop-opacity:0.2214" offset="0.7786"></stop>
		<stop style="stop-color:#EAF0FC;stop-opacity:0" offset="1"></stop>
	</linearGradient>
	<ellipse ry="14.8" rx="41.7" cy="782.3" cx="333.2" class="st4"></ellipse>
	<path d="M336.5,782.6c-32.9,5.4-114.1-219.5-80.3-240.9c14.6-9.3,48.8,21.2,61.9,35.1
		C386.5,649.6,360.1,778.6,336.5,782.6z" class="st5"></path>
	
		<linearGradient gradientTransform="matrix(1 0 0 -1 -221.6724 1024)" y2="296.9005" x2="562.6023" y1="296.9005" x1="448.4871" gradientUnits="userSpaceOnUse" id="SVGID_4_">
		<stop style="stop-color:#B5D1FC" offset="0"></stop>
		<stop style="stop-color:#94BAF6" offset="1"></stop>
	</linearGradient>
	<path d="M339.8,782.6c12.9-18-88.5-125.8-108.7-113.7c-10.1,6-1,42,13.3,65.2C272.4,779.2,331.7,793.8,339.8,782.6z" class="st6"></path>
	<path d="M268.6,565c10.8,16.1,20.6,32.9,29.6,50.2c8.9,17.3,16.9,35,23.8,53.2c3.4,9.1,6.4,18.3,9.2,27.7
		c2.6,9.4,4.9,18.9,6.6,28.4c1.6,9.7,2.8,19.3,3.2,29.1s0,19.5-1.2,29.1h-0.1c0.8-9.7,0.8-19.5,0.1-29.1c-0.7-9.7-2-19.3-3.7-28.8
		c-3.4-19.1-8.8-37.7-15.4-55.9c-6.6-18.2-14.4-35.9-23.2-53.2c-8.7-17.3-18.2-34.2-28.9-50.4L268.6,565z" class="st7"></path>
	<path d="M248,698c2.9,4.2,6,8.5,9,12.7c3.1,4.2,6.2,8.3,9.4,12.4c6.5,8.2,13.1,16.1,20.2,23.6c3.6,3.9,7.2,7.6,11,11
		c3.9,3.5,7.7,6.8,11.8,10c4.1,3.2,8.3,6.1,12.8,8.6c4.5,2.7,9.3,4.8,14.3,6.1c-10.2-2.2-19.4-7.6-27.9-13.7
		c-8.3-6.2-16-13.5-23.1-21c-7-7.7-13.7-15.6-19.9-23.9C259.4,715.6,253.4,707,248,698z" class="st7"></path>
</g>
<linearGradient gradientTransform="matrix(78.2896 93.302 155.5811 -130.548 -78214.0469 13250.7969)" y2="337.1945" x2="337.3159" y1="335.6197" x1="337.7789" gradientUnits="userSpaceOnUse" id="路径_1_">
	<stop style="stop-color:#BFD4FA;stop-opacity:0" offset="0"></stop>
	<stop style="stop-color:#5792F0" offset="0.6012"></stop>
	<stop style="stop-color:#5792F0;stop-opacity:0" offset="1"></stop>
</linearGradient>
<polygon points="622.3,701 748.6,734.2 642.7,792.9 463.3,789.6" class="st8" id="路径"></polygon>
<g>
	<path d="M643.5,790.4H350.3c-11.3,0-20.5-9.2-20.5-20.5V404.4c0-11.3,9.2-20.5,20.5-20.5h293.2
		c11.3,0,20.5,9.2,20.5,20.5v365.5C664,781.2,654.7,790.4,643.5,790.4z" class="st9"></path>
	<g>
		<linearGradient y2="445.4521" x2="697.6139" y1="777.24" x1="365.826" gradientUnits="userSpaceOnUse" id="SVGID_5_">
			<stop style="stop-color:#BFD4FA" offset="0"></stop>
			<stop style="stop-color:#87B6FA" offset="1"></stop>
		</linearGradient>
		<path d="M648.1,794.9H354.8c-11.3,0-20.5-9.2-20.5-20.5V500.5l112.1-112.1H648c11.3,0,20.5,9.2,20.5,20.5v365.5
			C668.6,785.7,659.4,794.9,648.1,794.9z" class="st10"></path>
		<g>
			<path d="M578.6,543.2H416.5c-11.8,0-21.5-9.7-21.5-21.5l0,0c0-11.8,9.6-21.5,21.5-21.5h162.1
				c11.8,0,21.5,9.7,21.5,21.5l0,0C600.2,533.5,590.4,543.2,578.6,543.2z" class="st9"></path>
			<linearGradient y2="576.9866" x2="533.2919" y1="475.7398" x1="470.026" gradientUnits="userSpaceOnUse" id="SVGID_6_">
				<stop style="stop-color:#CFDFFA" offset="0"></stop>
				<stop style="stop-color:#EAF0FC;stop-opacity:0" offset="1"></stop>
			</linearGradient>
			<path d="M581.7,546.3H419.6c-11.8,0-21.5-9.7-21.5-21.5l0,0c0-11.8,9.6-21.5,21.5-21.5h162.1
				c11.8,0,21.5,9.7,21.5,21.5l0,0C603.2,536.6,593.5,546.3,581.7,546.3z" class="st11"></path>
		</g>
		<g>
			<path d="M578.6,645.8H416.5c-11.8,0-21.5-9.7-21.5-21.5l0,0c0-11.8,9.6-21.5,21.5-21.5h162.1
				c11.8,0,21.5,9.7,21.5,21.5l0,0C600.2,636.1,590.4,645.8,578.6,645.8z" class="st9"></path>
			<linearGradient y2="679.5696" x2="533.292" y1="578.3229" x1="470.026" gradientUnits="userSpaceOnUse" id="SVGID_7_">
				<stop style="stop-color:#CFDFFA" offset="0"></stop>
				<stop style="stop-color:#EAF0FC;stop-opacity:0" offset="1"></stop>
			</linearGradient>
			<path d="M581.7,648.9H419.6c-11.8,0-21.5-9.7-21.5-21.5l0,0c0-11.8,9.6-21.5,21.5-21.5h162.1
				c11.8,0,21.5,9.7,21.5,21.5l0,0C603.2,639.1,593.5,648.9,581.7,648.9z" class="st12"></path>
		</g>
		
			<linearGradient gradientTransform="matrix(-1 0 0 -1 780.086 928.9973)" y2="487.4892" x2="392.3025" y1="434.3834" x1="346.1383" gradientUnits="userSpaceOnUse" id="SVGID_8_">
			<stop style="stop-color:#BFD4FA" offset="0"></stop>
			<stop style="stop-color:#87B6FA" offset="1"></stop>
		</linearGradient>
		<path d="M334.3,500.5l112.1-112.1l0.4,90.5c0,11.9-9.6,21.6-21.5,21.6H334.3z" class="st13"></path>
	</g>
</g>
<g>
	<linearGradient y2="911.2834" x2="805.0417" y1="911.2834" x1="725.8317" gradientUnits="userSpaceOnUse" id="SVGID_9_">
		<stop style="stop-color:#B5D1FC" offset="0"></stop>
		<stop style="stop-color:#CDE0FC" offset="1"></stop>
	</linearGradient>
	<path d="M729.4,914.3c6-11,18.7-21.9,35.2-23.2c2.5-0.2,12-0.7,22.3,4.3c1.1,0.5,18.8,9.3,18,17.6
		c-1,10.9-31.3,15.1-43.4,16.8c-11.1,1.6-31.5,4.4-35.2-3.4C724.8,922.9,727,918.8,729.4,914.3z" class="st14"></path>
	<linearGradient y2="933.6184" x2="833.5304" y1="917.1845" x1="775.6962" gradientUnits="userSpaceOnUse" id="SVGID_10_">
		<stop style="stop-color:#B5D1FC" offset="0"></stop>
		<stop style="stop-color:#B9D4FC" offset="0.1129"></stop>
		<stop style="stop-color:#C8DDFC" offset="0.5951"></stop>
		<stop style="stop-color:#CDE0FC" offset="1"></stop>
	</linearGradient>
	<path d="M768.2,923.2c4.6-8.4,14.2-16.7,26.8-17.7c3-0.2,9.9-0.7,17,3.3c7.8,4.4,15.5,14.1,13.1,20
		c-0.6,1.4-2.3,4.1-32.4,6.2c-20,1.4-25.3,0.6-26.8-2.6C764.7,929.7,766.4,926.6,768.2,923.2z" class="st15"></path>
</g>
<linearGradient y2="425.7896" x2="368.6733" y1="407.0305" x1="352.3663" gradientUnits="userSpaceOnUse" id="SVGID_11_">
	<stop style="stop-color:#CFDFFA" offset="0"></stop>
	<stop style="stop-color:#EAF0FC;stop-opacity:0" offset="1"></stop>
</linearGradient>
<polygon points="349.9,407.3 349.9,442.9 385.9,406.9" class="st16"></polygon>
<g>
	<path d="M584.6,643.3c41.9,0,75.9,33.9,75.9,75.9c0,41.9-33.9,75.9-75.9,75.9s-75.9-33.9-75.9-75.9c0,0,0,0,0,0
		C508.7,677.3,542.7,643.4,584.6,643.3 M584.6,627.9c-50.4,0-91.3,40.9-91.3,91.3c0,50.4,40.9,91.3,91.3,91.3s91.3-40.9,91.3-91.3
		l0,0C675.9,668.8,635,627.9,584.6,627.9z" class="st9"></path>
	<path d="M646.3,773.9c-3.1,0-6,1.2-8.2,3.4l-0.6,0.6c-4.5,4.5-4.5,11.8,0,16.4c0,0,0,0,0,0l35.7,35.7
		c4.5,4.5,11.8,4.5,16.4,0c0,0,0,0,0,0l0.6-0.6c4.5-4.5,4.5-11.8,0-16.4c0,0,0,0,0,0l-35.7-35.7
		C652.3,775.1,649.4,773.9,646.3,773.9z" class="st9"></path>
	<circle r="91.3" cy="718.3" cx="589.4" class="st17"></circle>
	<linearGradient y2="657.4596" x2="663.5015" y1="810.6665" x1="564.0078" gradientUnits="userSpaceOnUse" id="SVGID_12_">
		<stop style="stop-color:#BFD4FA" offset="0"></stop>
		<stop style="stop-color:#87B6FA" offset="1"></stop>
	</linearGradient>
	<path d="M695.1,813C695.1,813,695.1,813,695.1,813l-35.8-35.7c0,0-0.1-0.1-0.1-0.1c13.5-15.9,21.6-36.5,21.6-58.9
		c0-50.4-40.9-91.3-91.3-91.3c-50.4,0-91.3,40.9-91.3,91.3c0,50.4,40.9,91.3,91.3,91.3c19.3,0,37.3-6,52-16.3c0.3,0.3,0.6,0.7,0.9,1
		c0,0,0,0,0,0l35.7,35.7c4.5,4.5,11.8,4.5,16.4,0c0,0,0,0,0,0l0.6-0.6C699.6,824.9,699.6,817.6,695.1,813z M513.5,718.3
		C513.5,718.3,513.5,718.3,513.5,718.3c0-41.9,34-75.9,75.9-75.9c41.9,0,75.9,34,75.9,75.9c0,41.9-33.9,75.9-75.9,75.9
		C547.5,794.2,513.5,760.2,513.5,718.3z" class="st18"></path>
	<g>
		<path d="M559.6,669.4c0,0-24.7,16.3-23.2,46.5" class="st19"></path>
		<path d="M536.3,723.6c-4.1,0-7.5-3.2-7.7-7.3c-1.7-34.2,25.5-52.6,26.7-53.3c3.6-2.3,8.3-1.4,10.7,2.2
			c2.3,3.6,1.4,8.3-2.2,10.7c-0.9,0.6-21,14.5-19.8,39.7c0.2,4.3-3.1,7.9-7.3,8.1C536.6,723.6,536.5,723.6,536.3,723.6z" class="st20"></path>
	</g>
</g>
<g>
	<g>
		<g>
			<polygon points="898.1,329.9 896,335.5 895.9,335.5" class="st9"></polygon>
			<polygon points="891.8,346.6 887.6,357.6 887.2,357.4 891.6,346.5" class="st9"></polygon>
			<polygon points="883.2,368.5 878.7,379.4 878,379.2 882.6,368.3" class="st9"></polygon>
			<polygon points="874,390.3 869.2,401.1 868.2,400.6 873.2,389.9" class="st9"></polygon>
			<polygon points="864.1,411.7 858.7,422.3 857.7,421.7 863.1,411.2" class="st9"></polygon>
			<polygon points="853,432.6 846.9,442.7 845.7,442 851.9,432" class="st9"></polygon>
			<path d="M840,452.4c-2.5,3.1-5.1,6.1-8.1,8.8l-1-1.2c2.9-2.6,5.5-5.5,7.9-8.5L840,452.4z" class="st9"></path>
			<path d="M821.6,467.4c-1,0.3-2,0.4-3.1,0.5c-1,0-2.1-0.1-3.1-0.3c-2-0.4-4-1.3-5.7-2.3l0.9-1.5
				c1.6,1,3.4,1.7,5.2,2.1s3.7,0.3,5.5-0.2L821.6,467.4z" class="st9"></path>
			<path d="M800.7,457.1c-2.5-3.2-4.5-6.7-5.9-10.5l1.7-0.6c1.4,3.6,3.3,7,5.6,10L800.7,457.1z" class="st9"></path>
			<path d="M793,434.7c0.1-1,0.4-2.1,0.8-3.1c0.4-1,1-1.9,1.6-2.8c1.3-1.7,3.1-2.9,4.9-3.9l0.9,1.6
				c-1.7,0.9-3.2,2-4.3,3.4s-1.8,3.1-2,4.9L793,434.7z" class="st9"></path>
			<path d="M811.7,421.4c4-0.6,7.9-0.8,11.9-0.8v1.9c-3.9,0-7.8,0.2-11.6,0.8L811.7,421.4z" class="st9"></path>
			<path d="M835.6,421.5c3.9,0.6,7.8,1.3,11.7,2.4l-0.5,1.9c-3.7-1.1-7.6-1.8-11.4-2.4L835.6,421.5z" class="st9"></path>
			<path d="M858.4,428.1c3.6,1.8,7,4.1,9.7,7.3l-1.5,1.3c-2.4-2.9-5.7-5-9.1-6.8L858.4,428.1z" class="st9"></path>
			<path d="M871.4,447.2c-0.3,2.1-1,4-1.9,5.8s-1.9,3.6-3,5.2l-1.6-1.1c2.1-3.2,4-6.6,4.6-10.3L871.4,447.2z" class="st9"></path>
			<path d="M858.8,467.5c-2.8,2.9-5.7,5.5-8.6,8.1l-1.2-1.4c2.9-2.6,5.8-5.2,8.5-8.1L858.8,467.5z" class="st9"></path>
			<polygon points="841,483.1 831.7,490.4 830.6,488.9 839.9,481.7" class="st9"></polygon>
			<polygon points="822.1,497.3 812.1,503.7 811.2,502.2 821.1,495.8" class="st9"></polygon>
			<polygon points="801.9,509.7 791.5,515.3 790.7,513.8 801.1,508.2" class="st9"></polygon>
			<polygon points="780.8,520.3 769.9,524.9 769.3,523.6 780.1,518.9" class="st9"></polygon>
			<polygon points="758.8,529.1 747.6,532.9 747.2,531.7 758.3,527.8" class="st9"></polygon>
			<polygon points="736.3,536.3 724.9,539.3 724.6,538.2 736,535.1" class="st9"></polygon>
		</g>
	</g>
	<g>
		<path d="M706.2,532.8c0.4,0.1,0.8,0.3,1.2,0.5c2.8,1.8,14.9,10.1,0.9,14c-12.9,3.5-25.7-1.6-30-3.6
			c-0.7-0.3-0.7-1.2-0.1-1.6C682.5,539.2,696.6,530.9,706.2,532.8z" class="st9"></path>
		<g>
			
				<linearGradient gradientTransform="matrix(1 0 0 -1 0 1024)" y2="484.7792" x2="692.4796" y1="484.7792" x1="720.7501" gradientUnits="userSpaceOnUse" id="SVGID_13_">
				<stop style="stop-color:#63A6F9" offset="0"></stop>
				<stop style="stop-color:#FFFFFF;stop-opacity:0.2" offset="1"></stop>
			</linearGradient>
			<path d="M692.8,541.2l-0.3-1c0.2,0,16.3-5,28.3-2l-0.2,1C708.9,536.3,693,541.1,692.8,541.2z" class="st21"></path>
		</g>
	</g>
	<g>
		<path d="M303.5,693.8v-1c0.6,0,1.1,0,1.7-0.1v1C304.6,693.7,304.1,693.8,303.5,693.8z M291.5,693.7
			c-4.5-0.3-8.5-0.8-12-1.6l0.2-1c3.4,0.8,7.4,1.3,11.8,1.6V693.7z M268.3,687.5c-2.1-1.5-3.6-3.2-4.6-5.1c-0.8-1.6-1.3-3.4-1.4-5.3
			l1-0.1c0.1,1.8,0.5,3.4,1.3,4.9c0.9,1.8,2.3,3.4,4.3,4.8L268.3,687.5z M265.9,665.7l-0.9-0.4c1.4-3.2,3.4-6.8,6-10.5l0.8,0.6
			C269.2,659,267.2,662.5,265.9,665.7z M279,645.8l-0.8-0.6c2.4-2.9,5.1-5.9,8-9l0.7,0.7C284,639.9,281.4,642.9,279,645.8z
			 M295.4,628.3l-0.7-0.7c2.8-2.7,5.7-5.5,8.8-8.2l0.7,0.7C301.1,622.9,298.2,625.6,295.4,628.3z M313.2,612.2l-0.6-0.8
			c4.7-4,8.1-6.7,9.3-7.7l0.6,0.8C321.3,605.6,317.9,608.3,313.2,612.2z" class="st9"></path>
	</g>
</g>
</svg>
