<?xml version="1.0" standalone="no"?><!DOCTYPE svg PUBLIC "-//W3C//DTD SVG 1.1//EN" "http://www.w3.org/Graphics/SVG/1.1/DTD/svg11.dtd"><svg class="icon" width="48px" height="48.00px" viewBox="0 0 1024 1024" version="1.1" xmlns="http://www.w3.org/2000/svg"><path d="M718.44143 444.448829h162.880395c44.192355 0 79.546239 35.353884 79.546239 79.546239v196.97164c0 154.041924-123.738594 277.780518-277.780518 277.780518H463.388409c-31.565968 0-56.818742-25.252774-56.818742-56.818743V757.583231c0-172.981504 138.890259-311.871763 311.871763-313.134402z" fill="#4F8DFC" /><path d="M714.653514 1024H87.122072c-13.889026 0-25.252774-11.363748-25.252775-25.252774V281.568434C61.869297 126.263872 188.133169 0 343.437731 0h570.712701c26.515413 0 47.980271 21.464858 47.980271 47.980271v731.067818c-1.262639 135.102343-112.374846 244.951911-247.477189 244.951911zM112.374846 973.494451h602.278668c108.58693 0 195.709001-88.38471 195.709001-195.709001V50.505549H343.437731C215.911221 50.505549 112.374846 154.041924 112.374846 281.568434v691.926017z" fill="#181818" /><path d="M671.723798 266.416769h-378.791616c-13.889026 0-25.252774-11.363748-25.252774-25.252774v-12.626387c0-13.889026 11.363748-25.252774 25.252774-25.252774h378.791616c13.889026 0 25.252774 11.363748 25.252774 25.252774v12.626387c0 13.889026-11.363748 25.252774-25.252774 25.252774zM768.946979 429.297164H292.932182c-13.889026 0-25.252774-11.363748-25.252774-25.252774v-12.626388c0-13.889026 11.363748-25.252774 25.252774-25.252774H768.946979c13.889026 0 25.252774 11.363748 25.252774 25.252774v12.626388c0 13.889026-11.363748 25.252774-25.252774 25.252774zM671.723798 590.91492h-378.791616c-13.889026 0-25.252774-11.363748-25.252774-25.252775v-12.626387c0-13.889026 11.363748-25.252774 25.252774-25.252774h378.791616c13.889026 0 25.252774 11.363748 25.252774 25.252774v12.626387c0 13.889026-11.363748 25.252774-25.252774 25.252775z" fill="#181818" /></svg>