<?xml version="1.0" standalone="no"?><!DOCTYPE svg PUBLIC "-//W3C//DTD SVG 1.1//EN" "http://www.w3.org/Graphics/SVG/1.1/DTD/svg11.dtd"><svg class="icon" width="48px" height="48.00px" viewBox="0 0 1024 1024" version="1.1" xmlns="http://www.w3.org/2000/svg"><path d="M600.62 579.76m-287.37 0a287.37 287.37 0 1 0 574.74 0 287.37 287.37 0 1 0-574.74 0Z" fill="#4F8DFC" /><path d="M920.57 370.38c-0.24-0.61-0.51-1.22-0.8-1.82L797.23 114.94a30 30 0 0 0-27-17H259a30 30 0 0 0-26.9 16.72L109.37 363.35a79.27 79.27 0 0 0-10.22 39L98 845.64a80.1 80.1 0 0 0 80 80h668.17a80.08 80.08 0 0 0 80-79.93l1.12-443.25a79.5 79.5 0 0 0-6.72-32.08zM277.66 158h473.73l79.47 164.47H196.47z m588.51 687.64a20 20 0 0 1-20 20H178a20 20 0 0 1-20-19.93l1.13-443.25a20 20 0 0 1 20-20h668.16a20 20 0 0 1 17.9 11.06l0.29 0.6a19.73 19.73 0 0 1 1.81 8.27z" fill="#181818" /><path d="M541.96 322.46h-60l-0.53-164.47h60l0.53 164.47zM766.25 543.22H257.89a30 30 0 0 1 0-60h508.36a30 30 0 0 1 0 60z" fill="#181818" /></svg>