<?xml version="1.0" standalone="no"?><!DOCTYPE svg PUBLIC "-//W3C//DTD SVG 1.1//EN" "http://www.w3.org/Graphics/SVG/1.1/DTD/svg11.dtd"><svg class="icon" width="48px" height="48.00px" viewBox="0 0 1024 1024" version="1.1" xmlns="http://www.w3.org/2000/svg"><path d="M247.442072 570.331605h349.650504c6.266138 0 11.279049 5.01291 11.279049 11.279048v391.007015c0 6.266138-5.01291 11.279049-11.279049 11.279048H247.442072c-6.266138 0-11.279049-5.01291-11.279048-11.279048V581.610653c0-6.266138 5.01291-11.279049 11.279048-11.279048z" fill="#4F8DFC" /><path d="M718.655654 1024H253.70821c-13.785504 0-25.064552-11.279049-25.064552-25.064552V349.763545c0-13.785504 11.279049-25.064552 25.064552-25.064552h464.947444c13.785504 0 25.064552 11.279049 25.064553 25.064552v649.171903c0 13.785504-11.279049 25.064552-25.064553 25.064552zM278.772763 973.870896h414.818339V374.828097H278.772763v599.042799z" fill="#181818" /><path d="M711.136289 372.321642c-3.759683 0-7.519366-1.253228-11.279049-2.506455l-413.565112-203.022873c-6.266138-2.506455-10.025821-7.519366-12.532276-13.785504-2.506455-6.266138-1.253228-13.785504 1.253228-18.798414l58.901698-120.309851c2.506455-6.266138 7.519366-10.025821 13.785503-12.532276 6.266138-2.506455 13.785504-1.253228 20.051642 1.253227l413.565112 203.022873c12.532276 6.266138 17.545187 21.304869 11.279049 33.837146l-58.901698 120.309851c-2.506455 6.266138-7.519366 10.025821-13.785504 12.532276h-8.772593z m-379.727967-238.113246l368.448918 180.464776 36.343601-75.193657L367.751923 59.014739l-36.343601 75.193657z" fill="#181818" /></svg>