<?xml version="1.0" standalone="no"?><!DOCTYPE svg PUBLIC "-//W3C//DTD SVG 1.1//EN" "http://www.w3.org/Graphics/SVG/1.1/DTD/svg11.dtd"><svg class="icon" width="48px" height="48.00px" viewBox="0 0 1024 1024" version="1.1" xmlns="http://www.w3.org/2000/svg"><path d="M495.735705 39.034307H526.963151c97.585769 0 176.955527 79.369759 176.955528 176.955528v75.466328c0 97.585769-78.068615 176.955527-176.955528 176.955527h-32.528589C398.149936 468.41169 318.780178 389.041931 318.780178 291.456163v-75.466328C318.780178 118.404066 398.149936 39.034307 495.735705 39.034307z" fill="#4F8DFC" /><path d="M495.735705 1001.880559c-1.301144-7.806861-2.602287-15.613723-2.602287-24.721728v-111.898348c0-7.806861 1.301144-15.613723 2.602287-23.420585l50.7446 13.011436c-1.301144 3.903431-1.301144 6.505718-1.301144 10.409149v111.898348c0 3.903431 0 7.806861 1.301144 11.710292l-50.7446 13.011436z" fill="#181818" /><path d="M373.428208 1024l-7.806861-52.045743c14.312579-1.301144 27.324015-2.602287 41.636595-2.602287h231.603557c13.011436 0 26.022872 1.301144 39.034308 2.602287l-7.806862 52.045743c-10.409149-1.301144-20.818297-2.602287-31.227446-2.602287H407.257942c-11.710292 0-22.119441 0-33.829734 2.602287zM513.951715 667.486658h-6.505718c-134.017789 0-243.31385-109.296061-243.31385-243.31385V243.31385C265.433291 109.296061 374.729352 0 508.747141 0h5.204574c134.017789 0 243.31385 109.296061 243.31385 243.31385v180.858958c1.301144 134.017789-107.994917 243.31385-243.31385 243.31385zM508.747141 52.045743c-105.39263 0-191.268107 85.875476-191.268107 191.268107v180.858958c0 105.39263 85.875476 191.268107 191.268107 191.268107h5.204574c105.39263 0 191.268107-85.875476 191.268107-191.268107V243.31385C706.520966 137.92122 620.645489 52.045743 513.951715 52.045743h-5.204574zM610.236341 862.658196H411.161372c-113.199492 0-215.989835-66.358323-261.52986-169.148666l48.142313-20.818297c37.733164 84.574333 121.006353 139.222363 213.387547 139.222363h199.074969c93.682338 0 179.557814-55.949174 215.989834-143.125794l48.142313 20.818297c-45.540025 104.091487-149.631512 173.052097-264.132147 173.052097z" fill="#181818" /></svg>