<?xml version="1.0" standalone="no"?><!DOCTYPE svg PUBLIC "-//W3C//DTD SVG 1.1//EN" "http://www.w3.org/Graphics/SVG/1.1/DTD/svg11.dtd"><svg class="icon" width="48px" height="48.00px" viewBox="0 0 1024 1024" version="1.1" xmlns="http://www.w3.org/2000/svg"><path d="M192.236308 270.355692s-109.497108 216.146708 158.735754 493.843693c0 0 102.084923 129.240615 282.198646 70.545723 0 0 44.079262-22.051446 35.2768-88.182154 0 0-49.057477-109.438031-194.012554-17.644308 0 0-193.681723-120.123077-194.008616-282.194708 0 0 94.735754-76.563692 35.272862-176.364307-0.5632 1.063385-39.069538-50.136615-123.462892 0z" fill="#4F8DFC" /><path d="M244.184615 181.169231c176.391877-46.934646 209.088985 119.646523 212.3776 139.803569l0.169354 1.087015c0.090585 0.582892 0.129969 0.890092 0.129969 0.890093 13.682215 86.433477-8.637046 138.948923-66.953846 157.538461l66.784493 110.001231 0.110277 0.177231 0.059076 0.098461c63.763692-35.851815 133.525662-2.1504 137.65317-0.094523l0.169354 0.086646C760.532677 676.131446 689.230769 815.2576 689.230769 815.2576c-81.565538 117.563077-263.876923 39.384615-263.876923 39.384615-238.678646-131.131077-271.753846-397.784615-271.753846-397.784615-43.390031-217.611815 82.628923-272.454892 90.230154-275.550523z m11.815385 51.2s-95.531323 59.529846-39.380677 242.707692c0 0 0.078769 0.539569 0.256 1.583262l0.259939 1.4848c4.714338 26.663385 44.118646 220.278154 208.009846 310.3232 0 0 148.472123 94.810585 216.824123 3.162584 0 0 61.715692-110.237538-90.584616-161.476923 0 0-55.051815-5.639877-118.153846 31.507692l-0.110277-0.173292L311.138462 468.676923c65.3312-23.0912 96.838892-51.971938 94.523076-86.646154 0 0 9.393231-199.297969-149.661538-149.661538zM586.830769 145.723077c165.312985 0 299.323077 140.181662 299.323077 313.107692 0 103.774523-48.261908 195.757292-122.588554 252.731077l-26.18683-40.916677c61.688123-48.128 101.635938-125.085538 101.635938-211.8144 0-145.801846-112.907815-263.999015-252.183631-263.999015a241.896369 241.896369 0 0 0-108.252554 25.489723l-31.807015-38.273969C488.558277 158.857846 536.229415 145.723077 586.830769 145.723077z" fill="#000000" /><path d="M531.692308 330.830769h7.876923a19.692308 19.692308 0 0 1 19.692307 19.692308v31.507692a19.692308 19.692308 0 0 1-19.692307 19.692308h-7.876923a19.692308 19.692308 0 0 1-19.692308-19.692308v-31.507692a19.692308 19.692308 0 0 1 19.692308-19.692308zM732.553846 330.830769h7.876923a19.692308 19.692308 0 0 1 19.692308 19.692308v31.507692a19.692308 19.692308 0 0 1-19.692308 19.692308h-7.876923a19.692308 19.692308 0 0 1-19.692308-19.692308v-31.507692a19.692308 19.692308 0 0 1 19.692308-19.692308zM594.707692 448.984615s45.296246 53.925415 78.769231 3.938462c0 0 33.717169-14.603815 39.384615 15.753846 0 0-15.808985 49.683692-78.76923 47.261539 0 0-47.430892-1.157908-70.892308-43.323077 0 0-2.749046-30.633354 31.507692-23.63077z" fill="#000000" /></svg>