<?xml version="1.0" standalone="no"?><!DOCTYPE svg PUBLIC "-//W3C//DTD SVG 1.1//EN" "http://www.w3.org/Graphics/SVG/1.1/DTD/svg11.dtd"><svg class="icon" width="48px" height="48.00px" viewBox="0 0 1024 1024" version="1.1" xmlns="http://www.w3.org/2000/svg"><path d="M642.521437 472.25029h151.87949c41.529548 0 74.753187 33.223638 74.753187 74.753186v185.103129c0 144.760139-116.282735 261.042874-261.042874 261.042874H401.650058c-29.663963 0-53.395133-23.73117-53.395133-53.395134V766.516802c0-162.558517 131.707995-294.266512 294.266512-294.266512z" fill="#4F8DFC" /><path d="M643.707995 1024H412.329085c-70.006952 0-136.454229-27.290846-186.289688-77.126304C176.20394 895.85168 148.913094 830.590962 148.913094 759.397451V461.571263c0-136.454229 87.80533-243.244496 214.767091-261.042874l7.119352 47.462341C267.568946 262.229432 196.375435 350.034762 196.375435 461.571263V759.397451c0 58.141367 22.544612 112.723059 62.887601 153.066048 40.34299 40.34299 94.924681 62.887601 153.066049 62.887602h230.192352c100.857474 0 183.91657-81.872538 183.91657-183.91657v-344.10197c0-105.603708-66.447277-188.662804-162.558517-201.714948l7.119351-47.462341c119.84241 16.611819 202.901506 119.84241 202.901507 249.177289v344.10197c0 128.14832-103.230591 232.565469-230.192353 232.565469z" fill="#181818" /><path d="M643.707995 463.94438h-355.967555c-13.052144 0-23.73117-10.679027-23.73117-23.73117v-11.865585c0-13.052144 10.679027-23.73117 23.73117-23.731171h355.967555c13.052144 0 23.73117 10.679027 23.731171 23.731171v11.865585c0 13.052144-10.679027 23.73117-23.731171 23.73117zM735.073001 617.010429H287.74044c-13.052144 0-23.73117-10.679027-23.73117-23.731171v-11.865585c0-13.052144 10.679027-23.73117 23.73117-23.73117h447.332561c13.052144 0 23.73117 10.679027 23.73117 23.73117v11.865585c0 13.052144-10.679027 23.73117-23.73117 23.731171zM643.707995 768.889919h-355.967555c-13.052144 0-23.73117-10.679027-23.73117-23.73117v-11.865586c0-13.052144 10.679027-23.73117 23.73117-23.73117h355.967555c13.052144 0 23.73117 10.679027 23.731171 23.73117v11.865586c0 13.052144-10.679027 23.73117-23.731171 23.73117zM433.687138 325.117034c-60.514484 0-110.349942-49.835458-110.349942-110.349942 0-52.208575 36.783314-96.11124 86.618772-107.976825 1.186559-59.327926 49.835458-106.790267 110.349942-106.790267 60.514484 0 110.349942 49.835458 110.349942 110.349942 18.984936 3.559676 35.596756 13.052144 49.835457 26.104287 21.358053 18.984936 33.223638 46.275782 34.410197 74.753187v4.746234c0 60.514484-49.835458 110.349942-110.349942 110.349942H433.687138v-1.186558z m-2.373117-173.237544c-33.223638 1.186559-60.514484 28.477404-60.514484 62.887602 0 16.611819 5.932793 32.03708 17.798377 43.902665s27.290846 17.798378 43.902665 17.798377h170.864427c34.410197 0 62.887601-28.477404 62.887601-62.887601v-2.373117c-1.186559-15.425261-7.119351-30.850521-18.984936-41.529548-11.865585-10.679027-27.290846-16.611819-42.716107-15.425261l-1.186558-17.798378-24.917729-8.305909c2.373117-5.932793 3.559676-13.052144 3.559675-20.171495 0-34.410197-28.477404-62.887601-62.887601-62.887601C485.895713 47.462341 457.418308 75.939745 457.418308 110.349942c0 3.559676 1.186559 7.119351 2.373117 9.492468l18.984937 41.529548-47.462341-9.492468z" fill="#181818" /></svg>