<?xml version="1.0" standalone="no"?><!DOCTYPE svg PUBLIC "-//W3C//DTD SVG 1.1//EN" "http://www.w3.org/Graphics/SVG/1.1/DTD/svg11.dtd"><svg class="icon" width="48px" height="48.00px" viewBox="0 0 1024 1024" version="1.1" xmlns="http://www.w3.org/2000/svg"><path d="M524.6976 79.9232l432.2816 240.128a10.24 10.24 0 0 1 0 17.92l-419.84 233.2672a51.2 51.2 0 0 1-49.7152 0L67.584 337.92a10.24 10.24 0 0 1 0-17.92l432.2816-240.128a25.6 25.6 0 0 1 24.832 0z" fill="#ffffff" fill-opacity=".5" /><path d="M487.424 57.5488l-432.2816 240.128a35.84 35.84 0 0 0 0 62.6688l419.84 233.2672a76.8 76.8 0 0 0 74.5984 0l419.84-233.2672a35.84 35.84 0 0 0 0-62.6688l-432.2816-240.128a51.2 51.2 0 0 0-49.7152 0z m24.832 44.7488l408.064 226.7136-395.6224 219.8528-4.8128 2.048a25.6 25.6 0 0 1-20.0192-2.048L104.1408 329.0112l408.1152-226.7136z" fill="#ffffff" /><path d="M93.952 459.776a25.6 25.6 0 0 1 30.8224 40.6528l-3.6864 2.7648-20.4288 12.7488 397.568 218.2144a25.6 25.6 0 0 0 23.552 1.7408l4.8128-2.4576 396.288-217.4976-18.432-11.52a25.6 25.6 0 0 1-10.24-31.1296l2.1504-4.096a25.6 25.6 0 0 1 31.1296-10.24l4.096 2.048 40.6528 25.4464a35.84 35.84 0 0 1 2.816 58.7264l-4.0448 2.7648-418.5088 229.632a76.6464 76.6464 0 0 1-73.5232 4.4032l-427.6736-234.752a35.84 35.84 0 0 1-4.352-57.6l4.352-3.1744 42.6496-26.624z" fill="#ffffff" /><path d="M95.0784 642.8672a25.6 25.6 0 0 1 30.8224 40.6528l-3.6864 2.7648-20.4288 12.7488 397.5168 218.2144a25.6 25.6 0 0 0 23.552 1.7408l4.864-2.4576 396.288-217.4976-18.432-11.52a25.6 25.6 0 0 1-10.24-31.1296l2.0992-4.096a25.6 25.6 0 0 1 31.1808-10.24l4.096 2.048 40.6528 25.4464a35.84 35.84 0 0 1 2.816 58.7264l-4.096 2.7648-418.5088 229.632a76.6464 76.6464 0 0 1-73.5232 4.4032l-427.6224-234.752a35.84 35.84 0 0 1-4.352-57.6l4.352-3.1744 42.6496-26.624z" fill="#ffffff" /></svg>