<?xml version="1.0" standalone="no"?><!DOCTYPE svg PUBLIC "-//W3C//DTD SVG 1.1//EN" "http://www.w3.org/Graphics/SVG/1.1/DTD/svg11.dtd"><svg class="icon" width="48px" height="48.00px" viewBox="0 0 1024 1024" version="1.1" xmlns="http://www.w3.org/2000/svg"><path d="M870.4 25.6a76.8 76.8 0 0 1 76.4416 69.4272L947.2 102.4v106.752a25.6 25.6 0 0 1-50.7904 4.608L896 209.152V102.4a25.6 25.6 0 0 0-20.992-25.1904L870.4 76.8h-716.8a25.6 25.6 0 0 0-25.1904 20.992L128 102.4v819.2a25.6 25.6 0 0 0 20.992 25.1904L153.6 947.2h716.8a25.6 25.6 0 0 0 25.1904-20.992L896 921.6V412.9792a25.6 25.6 0 0 1 50.7904-4.608l0.4096 4.608V921.6a76.8 76.8 0 0 1-69.4272 76.4416L870.4 998.4h-716.8a76.8 76.8 0 0 1-76.4416-69.4272L76.8 921.6v-819.2A76.8 76.8 0 0 1 146.2272 25.9584L153.6 25.6h716.8z" fill="#ffffff" /><path d="M204.8 153.6m51.2 0l512 0q51.2 0 51.2 51.2l0 153.6q0 51.2-51.2 51.2l-512 0q-51.2 0-51.2-51.2l0-153.6q0-51.2 51.2-51.2Z" fill="#ffffff" fill-opacity=".5" /><path d="M768 153.6a51.2 51.2 0 0 1 51.2 51.2v153.6a51.2 51.2 0 0 1-51.2 51.2h-512a51.2 51.2 0 0 1-51.2-51.2v-153.6a51.2 51.2 0 0 1 51.2-51.2h512z m0 51.2h-512v153.6h512v-153.6zM794.88 716.8a25.6 25.6 0 0 1 4.608 50.7904l-4.608 0.4096H588.8a25.6 25.6 0 0 1-4.608-50.7904L588.8 716.8h206.08zM794.88 819.2a25.6 25.6 0 0 1 4.608 50.7904l-4.608 0.4096H588.8a25.6 25.6 0 0 1-4.608-50.7904L588.8 819.2h206.08z" fill="#ffffff" /><path d="M487.5264 613.9904a25.6 25.6 0 0 1 4.608 50.7904l-4.608 0.4096h-256a25.6 25.6 0 0 1-4.608-50.7904l4.608-0.4096h256z" fill="#ffffff" /><path d="M359.2704 487.68a25.6 25.6 0 0 1 25.1392 20.992l0.4608 4.608v256a25.6 25.6 0 0 1-50.7904 4.608l-0.4096-4.608v-256a25.6 25.6 0 0 1 25.6-25.6z" fill="#ffffff" /></svg>