<?xml version="1.0" standalone="no"?><!DOCTYPE svg PUBLIC "-//W3C//DTD SVG 1.1//EN" "http://www.w3.org/Graphics/SVG/1.1/DTD/svg11.dtd"><svg class="icon" width="48px" height="48.00px" viewBox="0 0 1024 1024" version="1.1" xmlns="http://www.w3.org/2000/svg"><path d="M615.68 614.4H460.8c-28.2624 0-51.2-20.8384-51.2-46.592V148.992C409.6 123.1872 432.5376 102.4 460.8 102.4h460.8c28.2624 0 51.2 20.8384 51.2 46.592v418.816c0 25.7536-22.9376 46.592-51.2 46.592h-104.0384" fill="#ffffff" fill-opacity=".5" /><path d="M308.3776 281.6a25.6 25.6 0 0 1 4.608 50.7904l-4.608 0.4096H102.4c-12.9536 0-23.0912 8.0384-25.1904 17.92l-0.4096 3.7376v519.8848c0 10.24 8.704 19.4048 20.8896 21.2992L102.4 896h563.2c12.9536 0 23.0912-8.0384 25.1904-17.92l0.4096-3.7376V354.4576c0-10.24-8.704-19.4048-20.8896-21.2992L665.6 332.8h-152.7808a25.6 25.6 0 0 1-4.608-50.7904l4.608-0.4096H665.6c39.5264 0 72.704 28.4672 76.4416 65.792l0.3584 7.0656v519.8848c0 38.2976-30.8224 69.0688-69.4784 72.5504L665.6 947.2H102.4c-39.5264 0-72.704-28.4672-76.4416-65.792L25.6 874.3424V354.4576c0-38.2976 30.8224-69.0688 69.4784-72.5504L102.4 281.6h205.9776z" fill="#ffffff" /><path d="M281.6 665.6a25.6 25.6 0 0 1 4.608 50.7904L281.6 716.8h-102.4a25.6 25.6 0 0 1-4.608-50.7904L179.2 665.6h102.4z" fill="#ffffff" /><path d="M384 768a25.6 25.6 0 0 1 4.608 50.7904L384 819.2h-204.8a25.6 25.6 0 0 1-4.608-50.7904L179.2 768h204.8z" fill="#ffffff" /><path d="M921.6 76.8c39.424 0 72.704 28.1088 76.4416 65.1264l0.3584 7.0144v418.9184c0 38.0416-30.9248 68.4032-69.4784 71.8336L921.6 640h-104.0384a25.6 25.6 0 0 1-4.608-50.7904l4.608-0.4096H921.6c13.0048 0 23.1424-7.8848 25.1904-17.3568l0.4096-3.584V148.9408c0-9.728-8.6528-18.7392-20.8384-20.5824L921.6 128H460.8c-13.0048 0-23.1424 7.8848-25.1904 17.3568l-0.4096 3.584v418.9184c0 9.728 8.6528 18.7392 20.8384 20.5824L460.8 588.8h154.88a25.6 25.6 0 0 1 4.608 50.7904l-4.608 0.4096H460.8c-39.424 0-72.704-28.1088-76.4416-65.1264l-0.3584-7.0144V148.9408c0-38.0416 30.9248-68.4032 69.4784-71.8336L460.8 76.8h460.8z" fill="#ffffff" /></svg>