<?xml version="1.0" standalone="no"?><!DOCTYPE svg PUBLIC "-//W3C//DTD SVG 1.1//EN" "http://www.w3.org/Graphics/SVG/1.1/DTD/svg11.dtd"><svg class="icon" width="48px" height="48.00px" viewBox="0 0 1024 1024" version="1.1" xmlns="http://www.w3.org/2000/svg"><path d="M608.8 639.96m-287.37 0a287.37 287.37 0 1 0 574.74 0 287.37 287.37 0 1 0-574.74 0Z" fill="#4F8DFC" /><path d="M923.71 396.26A99.39 99.39 0 0 0 886 344.88l-0.1-0.1-299.18-216.95a108.33 108.33 0 0 0-147.65 0l-295.4 214.58C116.1 360.27 98 390.34 98 424.42V829c0 54.78 46.75 99.18 104.41 99.18h621.17q1.81 0 3.6-0.06c54.8-1.77 98.9-43.65 100.75-95.7 0-1.14 0.07-2.28 0.07-3.42V424.42a94.24 94.24 0 0 0-4.29-28.16zM865.35 829c0 21.87-18.74 39.67-41.77 39.67H202.41c-23 0-41.76-17.8-41.76-39.67V424.42c0-16 10-29.86 24.48-36.12 0.68-1 1.26-1.83 1.72-2.43l81.48-60.63 215-155.33a43.32 43.32 0 0 1 59 0l211.18 155.32 89.83 63.66 0.87 1A39.79 39.79 0 0 1 865 419.11a37.29 37.29 0 0 1 0.37 5.31z" fill="#181818" /><path d="M669.73 672.67a31.21 31.21 0 0 1-31.22 31.21H511.37a31.21 31.21 0 0 1-30.55-31.2V479.43a31.22 31.22 0 1 1 62.43 0v162h95.26a31.22 31.22 0 0 1 31.22 31.24z" fill="#181818" /></svg>