<?xml version="1.0" standalone="no"?><!DOCTYPE svg PUBLIC "-//W3C//DTD SVG 1.1//EN" "http://www.w3.org/Graphics/SVG/1.1/DTD/svg11.dtd"><svg class="icon" width="48px" height="48.00px" viewBox="0 0 1024 1024" version="1.1" xmlns="http://www.w3.org/2000/svg"><path d="M485.290667 938.666667H267.835733C195.345067 938.666667 136.533333 879.744 136.533333 807.522133V216.477867C136.533333 144.0768 195.528533 85.333333 267.835733 85.333333h488.328534C828.654933 85.333333 887.466667 144.256 887.466667 216.477867v245.2224a26.926933 26.926933 0 0 1-26.978134 26.944 26.926933 26.926933 0 0 1-26.9824-26.944V216.477867c0-42.581333-34.7136-77.248-77.341866-77.248H267.835733c-42.628267 0-77.341867 34.670933-77.341866 77.248V807.338667c0 42.577067 34.7136 77.248 77.341866 77.248h217.275734a26.926933 26.926933 0 0 1 26.978133 26.948266c0 14.912-11.869867 27.127467-26.798933 27.127467z" fill="#000000" /><path d="M694.749867 938.666667c-118.929067 0-215.581867-96.6528-215.581867-215.5776 0-118.929067 96.6528-215.581867 215.581867-215.581867 118.9248 0 215.5776 96.6528 215.5776 215.581867 0 118.9248-96.6528 215.5776-215.5776 215.5776z m0-377.262934c-89.109333 0-161.685333 72.576-161.685334 161.685334 0 89.105067 72.576 161.681067 161.685334 161.681066 89.105067 0 161.681067-72.576 161.681066-161.681066 0-89.109333-72.576-161.685333-161.681066-161.685334z" fill="#000000" /><path d="M482.4448 408.704c15.138133 0 27.3536 13.3376 27.3536 29.866667 0 16.5248-12.215467 29.866667-27.3536 29.866666H289.685333c-15.133867 0-27.349333-13.341867-27.349333-29.866666 0-16.529067 12.215467-29.866667 27.349333-29.866667h192.759467z m0-143.722667c15.138133 0 27.3536 13.341867 27.3536 29.866667 0 16.529067-12.215467 29.866667-27.3536 29.866667H289.685333c-15.133867 0-27.349333-13.3376-27.349333-29.866667 0-16.5248 12.215467-29.866667 27.349333-29.866667h192.759467z" fill="#4F8DFC" /><path d="M820.501333 615.296l-161.681066 71.863467-71.863467 143.7184 143.722667-71.8592z" fill="#000000" /><path d="M804.5568 626.077867l-150.6432 68.266666-66.9568 136.533334 133.909333-68.266667z" fill="#000000" /></svg>