<?xml version="1.0" standalone="no"?><!DOCTYPE svg PUBLIC "-//W3C//DTD SVG 1.1//EN" "http://www.w3.org/Graphics/SVG/1.1/DTD/svg11.dtd"><svg class="icon" width="48px" height="48.00px" viewBox="0 0 1024 1024" version="1.1" xmlns="http://www.w3.org/2000/svg"><path d="M417.493333 397.627733V292.5312c0-67.8528-55.005867-122.858667-122.862933-122.858667-67.8528 0-122.858667 55.005867-122.858667 122.858667 0 67.8528 55.005867 122.862933 122.858667 122.862933h105.096533c8.192 0 13.687467-0.285867 17.058134-0.708266 0.4224-3.370667 0.708267-8.8704 0.708266-17.058134zM294.6304 106.666667c102.651733 0 185.8688 83.217067 185.8688 185.864533v105.096533c0 28.087467-2.926933 38.272-8.418133 48.5376a57.258667 57.258667 0 0 1-23.816534 23.816534c-10.2656 5.4912-20.450133 8.413867-48.5376 8.413866H294.6304c-102.647467 0-185.864533-83.2128-185.864533-185.864533C108.765867 189.883733 191.982933 106.666667 294.6304 106.666667z m102.997333 499.84H292.5312c-67.8528 0-122.858667 55.005867-122.858667 122.862933 0 67.8528 55.005867 122.858667 122.858667 122.858667 67.8528 0 122.862933-55.005867 122.862933-122.858667v-105.096533c0-8.192-0.285867-13.687467-0.708266-17.058134-3.370667-0.4224-8.8704-0.708267-17.058134-0.708266z m-105.096533 308.727466C189.883733 915.234133 106.666667 832.017067 106.666667 729.3696c0-102.651733 83.217067-185.8688 185.864533-185.8688h105.096533c28.087467 0 38.272 2.926933 48.5376 8.418133a57.258667 57.258667 0 0 1 23.816534 23.816534c5.4912 10.2656 8.413867 20.450133 8.413866 48.5376v105.096533c0 102.647467-83.2128 185.864533-185.864533 185.864533z m333.841067-499.84h105.096533c67.8528 0 122.858667-55.010133 122.858667-122.862933 0-67.8528-55.005867-122.858667-122.858667-122.858667-67.8528 0-122.862933 55.005867-122.862933 122.858667v105.096533c0 8.192 0.285867 13.6832 0.708266 17.058134 3.370667 0.4224 8.8704 0.708267 17.058134 0.708266zM731.4688 106.666667C834.116267 106.666667 917.333333 189.883733 917.333333 292.5312c0 102.651733-83.217067 185.864533-185.864533 185.864533h-105.096533c-28.087467 0-38.272-2.922667-48.5376-8.413866a57.258667 57.258667 0 0 1-23.816534-23.816534c-5.4912-10.2656-8.413867-20.450133-8.413866-48.5376V292.5312c0-102.647467 83.2128-185.864533 185.864533-185.864533z" fill="#000000" /><path d="M729.3696 543.5008c102.647467 0 185.864533 83.217067 185.864533 185.8688 0 102.647467-83.217067 185.864533-185.864533 185.864533-102.651733 0-185.8688-83.217067-185.8688-185.864533v-105.096533c0-28.087467 2.926933-38.272 8.418133-48.5376a57.258667 57.258667 0 0 1 23.816534-23.816534c10.2656-5.4912 20.450133-8.418133 48.5376-8.418133h105.096533z m0 63.005867h-105.096533c-8.192 0-13.687467 0.285867-17.058134 0.708266-0.4224 3.370667-0.708267 8.8704-0.708266 17.058134v105.096533c0 67.8528 55.005867 122.858667 122.862933 122.858667 67.8528 0 122.858667-55.005867 122.858667-122.858667 0-67.857067-55.005867-122.862933-122.858667-122.862933z" fill="#4F8DFC" /></svg>