<?xml version="1.0" standalone="no"?><!DOCTYPE svg PUBLIC "-//W3C//DTD SVG 1.1//EN" "http://www.w3.org/Graphics/SVG/1.1/DTD/svg11.dtd"><svg class="icon" width="48px" height="48.00px" viewBox="0 0 1024 1024" version="1.1" xmlns="http://www.w3.org/2000/svg"><path d="M347.0336 302.564431h333.229292l-29.455754 176.372184H368.608492z" fill="#4F8DFC" /><path d="M827.076923 157.538462c21.752123 0 39.384615 17.632492 39.384615 39.384615v630.153846c0 21.752123-17.632492 39.384615-39.384615 39.384615H196.923077c-21.752123 0-39.384615-17.632492-39.384615-39.384615V196.923077c0-21.752123 17.632492-39.384615 39.384615-39.384615h630.153846z m-47.261538 47.261538H244.184615c-21.752123 0-39.384615 17.632492-39.384615 39.384615v535.63077c0 21.752123 17.632492 39.384615 39.384615 39.384615h535.63077c21.752123 0 39.384615-17.632492 39.384615-39.384615V244.184615c0-21.752123-17.632492-39.384615-39.384615-39.384615z" fill="#000000" /><path d="M677.415385 299.319138s40.637046 25.915077 31.507692 63.015385c0 0-33.555692 85.8112-66.953846 133.907692 0 0-25.544862 32.571077-70.892308 11.819323 0 0-77.737354-15.761723-122.092308 3.938462 0 0-42.322708 12.681846-63.015384-11.815385 0 0-42.732308-50.865231-74.830769-141.784615v-0.342646c0.070892-4.277169 1.488738-46.6944 31.507692-54.795816 0 0 127.870031-78.296615 334.769231-3.9424z m-39.262523 29.538462c-158.188308-56.843815-255.952738 3.008985-255.952739 3.008985-31.216246 7.128615-24.091569 42.157292-24.091569 42.157292 24.544492 69.513846 53.275569 88.717785 53.275569 88.717785 9.393231 25.769354 52.117662 9.030892 52.117662 9.030892 33.910154-15.060677 93.349415-3.012923 93.349415-3.012923 41.290831 17.053538 54.784-2.520615 57.556677-7.794216l0.263877-0.519877c0.220554-0.452923 0.315077-0.7168 0.315077-0.7168 2.351262-3.383138 4.667077-6.841108 6.935631-10.334523l1.693538-2.626953c21.051077-32.886154 37.738338-67.859692 38.592985-69.65957l0.031507-0.070892c20.7872-31.397415-24.087631-48.175262-24.08763-48.175262z" fill="#000000" /><path d="M583.420062 351.232l6.821415 3.938462a19.692308 19.692308 0 0 1 7.207385 26.899692l-59.076924 102.321231a19.692308 19.692308 0 0 1-26.899692 7.207384l-6.821415-3.938461a19.696246 19.696246 0 0 1-7.207385-26.899693l59.076923-102.32123a19.692308 19.692308 0 0 1 26.899693-7.207385z" fill="#000000" /></svg>