<?xml version="1.0" standalone="no"?><!DOCTYPE svg PUBLIC "-//W3C//DTD SVG 1.1//EN" "http://www.w3.org/Graphics/SVG/1.1/DTD/svg11.dtd"><svg class="icon" width="48px" height="48.00px" viewBox="0 0 1024 1024" version="1.1" xmlns="http://www.w3.org/2000/svg"><path d="M208.832985 423.967508C203.267938 305.467077 258.374892 249.477908 374.153846 255.996062l169.791016 97.417846 176.376123-17.632493c87.611077-6.959262 117.003815 28.317538 88.182153 105.826462l-299.835076 299.835077-299.835077-317.479385z" fill="#4F8DFC" /><path d="M496.246154 192.984615c67.213785 74.499938 124.9792 96.815262 173.292308 66.953847 0 0 34.819938-25.844185 51.2 3.938461 0 0 7.266462 23.839508-19.692308 35.446154 0 0-74.791385 61.936246-192.984616-27.569231l-11.815384-78.769231zM208.738462 401.723077s-1.981046-143.202462 157.538461-149.661539c0 0 35.261046 10.054892 15.753846 31.507693 0 0-116.271262-21.090462-149.661538 129.965292 0 0-22.173538 13.319877-23.630769-11.811446z" fill="#000000" /><path d="M527.753846 224.492308c123.210831-163.079877 391.904492-98.563938 393.889477 152.49723 0.413538 52.097969-20.235815 91.356554-51.164554 123.195077h-77.445907c32.043323-27.096615 56.698092-60.857108 63.019323-107.165538 28.230892-206.678646-195.820308-273.2032-331.047385-102.372431-125.014646-167.494892-379.431385-115.940431-360.999385 103.569723 3.800615 45.280492 27.963077 78.9504 60.423877 105.968246H154.734277c-29.451815-31.822769-48.8448-70.888369-48.443077-121.706338C108.268308 128.043323 389.001846 66.760862 527.753846 224.492308zM870.589046 500.184615l-360.503138 389.104247L153.198277 500.184615h72.046277l284.864984 301.64677L794.970585 500.184615h75.618461z" fill="#000000" /></svg>