<?xml version="1.0" standalone="no"?><!DOCTYPE svg PUBLIC "-//W3C//DTD SVG 1.1//EN" "http://www.w3.org/Graphics/SVG/1.1/DTD/svg11.dtd"><svg class="icon" width="48px" height="48.00px" viewBox="0 0 1024 1024" version="1.1" xmlns="http://www.w3.org/2000/svg"><path d="M929.198933 891.797333l-95.991466-80.285866c-10.909867-9.160533-27.490133-7.850667-37.090134 3.490133-9.160533 10.909867-7.850667 27.490133 3.4944 37.090133l95.991467 80.285867c4.8 3.925333 10.909867 6.1056 16.580267 6.1056 7.419733 0 14.8352-3.050667 20.0704-9.6 9.6-11.3408 8.290133-27.921067-3.054934-37.085867zM677.870933 542.293333c-86.391467 0-156.642133 70.250667-156.642133 156.6464 0 86.391467 70.250667 156.642133 156.642133 156.642134 86.395733 0 156.6464-70.250667 156.6464-156.642134 0-86.395733-70.250667-156.6464-156.6464-156.6464z m0 260.928c-57.595733 0-104.2816-46.685867-104.2816-104.2816 0-57.6 46.685867-104.285867 104.2816-104.285866 57.6 0 104.285867 46.690133 104.285867 104.285866s-46.690133 104.2816-104.285867 104.2816z" fill="#4F8DFC" /><path d="M841.9328 710.2848a26.184533 26.184533 0 0 0 22.690133 13.090133c4.3648 0 8.725333-1.309867 13.090134-3.4944l45.380266-26.180266a26.184533 26.184533 0 0 0 13.090134-22.685867c0-9.6-5.239467-17.890133-13.090134-22.690133l-45.380266-25.745067c-12.654933-6.980267-28.360533-2.615467-35.780267 10.0352-6.980267 12.654933-2.615467 28.3648 10.0352 35.780267l5.674667 3.054933-5.674667 3.490133c-13.090133 6.980267-17.450667 22.690133-10.0352 35.345067z m-298.013867 138.3168l-35.345066 20.5056L164.309333 671.018667l83.776-48c0.874667-0.4352 1.309867-0.8704 2.180267-1.3056l210.752 118.6816c3.925333 2.615467 8.290133 3.490133 12.650667 3.490133 9.1648 0 17.890133-4.8 22.690133-13.525333 6.980267-12.654933 2.619733-28.360533-10.0352-35.780267L164.309333 513.0624l95.556267-54.1056 236.0576 135.261867c3.925333 2.180267 8.725333 3.490133 13.090133 3.490133 4.360533 0 8.725333-1.309867 13.090134-3.490133l245.218133-139.191467 92.066133 57.160533-46.250666 26.180267c-12.654933 6.980267-17.019733 23.125333-10.0352 35.780267a26.184533 26.184533 0 0 0 22.685866 13.090133c4.3648 0 8.7296-1.309867 13.090134-3.490133l84.650666-48c7.850667-4.360533 13.090133-13.090133 13.090134-22.250667 0-9.1648-4.3648-17.890133-12.219734-22.690133l-105.156266-65.450667 103.850666-58.9056a26.184533 26.184533 0 0 0 13.090134-22.685867c0-9.1648-5.239467-18.3296-13.090134-22.690133l-401.429333-228.202667c-7.850667-4.3648-17.885867-4.3648-26.176 0L98.423467 321.0752A26.184533 26.184533 0 0 0 85.333333 343.765333c0 9.160533 5.2352 17.885867 13.090134 22.685867l108.6464 62.395733-108.6464 61.960534A26.184533 26.184533 0 0 0 85.333333 513.4976c0 9.6 5.2352 17.890133 13.525334 22.690133l98.6112 55.4112-99.0464 56.725334A26.184533 26.184533 0 0 0 85.333333 671.0144a26.184533 26.184533 0 0 0 13.090134 22.685867l397.064533 228.202666c3.925333 2.184533 8.725333 3.490133 13.085867 3.490134 4.3648 0 9.1648-1.3056 13.090133-3.490134l48.4352-27.925333c12.654933-7.415467 17.015467-23.125333 9.6-35.776-7.419733-12.654933-23.125333-17.019733-35.780267-9.6zM163.874133 343.765333l344.704-198.097066 348.189867 198.097066-348.194133 197.6576-344.704-197.6576z" fill="#000000" /></svg>