<?xml version="1.0" standalone="no"?><!DOCTYPE svg PUBLIC "-//W3C//DTD SVG 1.1//EN" "http://www.w3.org/Graphics/SVG/1.1/DTD/svg11.dtd"><svg class="icon" width="48px" height="48.00px" viewBox="0 0 1024 1024" version="1.1" xmlns="http://www.w3.org/2000/svg"><path d="M827.562667 327.8592l16.128-16.170667C849.066667 300.9152 849.066667 290.133333 849.066667 279.36c-5.376-10.781867-10.752-21.559467-21.504-26.948267l-263.381334-150.907733c-32.256-21.5552-75.255467-21.5552-107.5072 0L198.656 252.407467c-12.398933 9.937067-15.3856 13.572267-17.476267 16.413866-6.997333 10.781867-11.0208 21.691733-5.6448 32.469334 5.376 10.781867 9.7792 17.258667 23.125334 26.568533l263.381333 150.907733c16.128 10.7776 37.632 16.1664 53.755733 16.1664 16.128 0 37.627733-5.3888 53.751467-16.170666l258.013867-150.903467zM483.195733 423.253333L247.466667 290.133333l240.96-133.12c15.714133-10.24 36.667733-10.24 52.381866 0L776.533333 290.133333l-240.96 133.12c-15.714133 10.24-36.667733 10.24-52.381866 0z m-51.4816 96.797867L217.0368 396.612267c-12.416-3.8528-16.1024-5.367467-26.837333-5.367467-32.200533 0-53.666133 26.837333-53.666134 53.6704v273.706667c0 37.572267 21.4656 75.136 53.6704 91.2384l214.673067 123.438933C415.616 938.666667 420.9792 938.666667 431.714133 938.666667c32.200533 0 53.666133-21.4656 53.666134-53.6704v-273.706667c0-37.572267-21.4656-69.7728-53.6704-91.2384zM426.666667 874.666667l-204.8-115.054934c-15.36-10.001067-25.6-25.0112-25.6-45.0176V459.477333l10.24-20.010666-10.24 20.010666 204.8 115.050667c15.36 10.005333 25.6 25.0112 25.6 45.021867V874.666667z" fill="#000000" /><path d="M834.2272 391.2448c32.200533 0 53.6704 26.837333 53.6704 53.6704v273.706667c0 37.572267-21.469867 69.7728-53.6704 91.2384l-214.673067 123.438933c-10.734933 5.367467-16.1024 5.367467-26.837333 5.367467-32.200533 0-53.666133-21.4656-53.666133-53.6704v-273.706667c0-37.572267 21.4656-69.7728 53.666133-91.2384l214.677333-123.438933c9.757867-4.881067 15.0784-5.320533 24.029867-5.3632zM832 448l-204.8 120.597333c-15.36 10.487467-25.6 26.218667-25.6 47.189334V883.2l204.8-120.597333c15.36-10.487467 25.6-26.218667 25.6-47.189334V448z" fill="#4F8DFC" /></svg>