<?xml version="1.0" standalone="no"?><!DOCTYPE svg PUBLIC "-//W3C//DTD SVG 1.1//EN" "http://www.w3.org/Graphics/SVG/1.1/DTD/svg11.dtd"><svg class="icon" width="48px" height="42.23px" viewBox="0 0 1164 1024" version="1.1" xmlns="http://www.w3.org/2000/svg"><path d="M0 257.733487V784.975086c0 132.268302 260.611729 239.024914 582.059026 239.024914S1164.379711 917.243388 1164.379711 784.975086V257.733487z" fill="#99C9F2" /><path d="M0 258.387633a582.059026 258.387633 0 1 0 1164.118053 0 582.059026 258.387633 0 1 0-1164.118053 0Z" fill="#E0EFFB" /><path d="M517.952728 220.054683c4.186534-2.485754 6.279801-6.148972 4.448192-9.943018L497.150888 152.677654c-3.401559-7.718922-19.493548-10.204676-28.913249-4.579021a26.165836 26.165836 0 0 1-24.334228 0L347.482305 90.272135a26.165836 26.165836 0 0 0-24.334228 0l-21.455986 13.082918a7.849751 7.849751 0 0 0 0 14.652868l96.290278 57.695669a7.849751 7.849751 0 0 1 0 14.652868c-9.419701 5.625655-5.102338 15.176185 7.588092 17.269452L501.206593 222.409608a26.165836 26.165836 0 0 0 16.746135-2.354925zM862.295132 415.513479a7.849751 7.849751 0 0 0 0-14.652868l-96.290277-57.695669a7.849751 7.849751 0 0 1 0-14.652868c9.419701-5.625655 5.233167-15.176185-7.588093-17.269452l-95.897789-15.307014a26.165836 26.165836 0 0 0-16.615306 2.616583c-4.186534 2.485754-6.279801 6.148972-4.579022 9.943018L667.228823 366.321707c3.401559 7.718922 19.493548 10.204676 28.913249 4.579021a26.165836 26.165836 0 0 1 24.465057 0l96.290277 57.695669a26.165836 26.165836 0 0 0 24.465057 0zM301.692091 426.50313c-4.186534-2.485754-6.279801-6.148972-4.448192-9.943018l25.380861-57.43401c3.401559-7.718922 19.493548-10.204676 28.913249-4.579021a26.165836 26.165836 0 0 0 24.334228 0l96.290277-57.695669a26.165836 26.165836 0 0 1 24.334228 0l21.455986 13.082918a7.849751 7.849751 0 0 1 0 14.652868l-96.159448 57.434011a7.849751 7.849751 0 0 0 0 14.652868c9.419701 5.625655 5.102338 15.176185-7.588093 17.269452l-95.89779 15.437843a26.165836 26.165836 0 0 1-16.615306-2.878242zM645.903667 207.233423a7.849751 7.849751 0 0 1 0-14.652869l96.290277-57.695668a7.849751 7.849751 0 0 0 0-14.652869c-9.419701-5.625655-5.233167-15.176185 7.588093-17.269452l95.897789-15.307014a26.165836 26.165836 0 0 1 16.615306 2.616584c4.186534 2.485754 6.279801 6.148972 4.579022 9.943018l-25.380862 57.303181c-3.401559 7.718922-19.493548 10.204676-28.913249 4.579021a26.165836 26.165836 0 0 0-24.465056 0l-96.290278 57.695669a26.165836 26.165836 0 0 1-24.465057 0zM864.911716 817.289894l-36.108854-31.268174a7.195605 7.195605 0 0 0-11.905456 5.494825v43.827776h-106.102465a26.165836 26.165836 0 0 1-17.400281-7.326434l-78.497509-76.404242 79.93663-78.497509a26.165836 26.165836 0 0 1 17.923597-7.326434h103.485883v43.304459a7.195605 7.195605 0 0 0 11.905455 5.494826l36.108854-31.268174 41.734509-36.108854a7.195605 7.195605 0 0 0 0-10.858822l-41.734509-36.108854-36.108854-31.268175a7.195605 7.195605 0 0 0-11.905455 5.494826v43.827776h-102.831737a72.217708 72.217708 0 0 0-51.02338 20.932669l-80.329118 79.413312-80.329117-79.413312a72.217708 72.217708 0 0 0-51.02338-20.932669h-103.616712v-43.827776a7.195605 7.195605 0 0 0-11.905455-5.494826l-36.108854 31.268175-41.734509 36.108854a7.195605 7.195605 0 0 0 0 10.858822l41.734509 36.108854 36.108854 31.268174a7.195605 7.195605 0 0 0 11.905455-5.494826v-43.827775h103.485883a26.165836 26.165836 0 0 1 17.923597 7.326434l79.93663 78.497508L470.985052 828.017887a26.165836 26.165836 0 0 1-17.923598 7.326434h-105.971637V791.516545a7.195605 7.195605 0 0 0-11.905455-5.494825l-36.108854 31.268174-41.734509 36.108854a7.195605 7.195605 0 0 0 0 10.858822l41.734509 36.108854 36.108854 31.268174a7.195605 7.195605 0 0 0 11.905455-5.494825v-43.696947h106.102466a72.217708 72.217708 0 0 0 51.023381-20.932669L582.059026 784.975086l77.843363 76.79673a72.217708 72.217708 0 0 0 51.023381 20.932668h106.102466v43.566118a7.195605 7.195605 0 0 0 11.905455 5.494825l36.108854-31.268174 41.734509-36.108854a7.195605 7.195605 0 0 0 0-10.858822z" fill="#5CA8EA" /></svg>