<?xml version="1.0" standalone="no"?><!DOCTYPE svg PUBLIC "-//W3C//DTD SVG 1.1//EN" "http://www.w3.org/Graphics/SVG/1.1/DTD/svg11.dtd"><svg class="icon" width="48px" height="48.00px" viewBox="0 0 1024 1024" version="1.1" xmlns="http://www.w3.org/2000/svg"><path d="M635.936508 1024V567.351351l322.333762-180.001716v456.538825l-322.333762 180.11154z" fill="#99C9F2" /><path d="M635.936508 1024L79.128271 700.348348V243.809524l556.808237 323.541827v456.648649z" fill="#B8D9F6" /><path d="M636.375804 622.812527v-50.848563l342.211927-191.203775v50.848563L636.375804 622.812527z" fill="#99C9F2" /><path d="M636.375804 622.812527L45.412269 279.392535V228.434148l590.963535 343.529816v50.848563z" fill="#B8D9F6" /><path d="M636.375804 571.963964L45.412269 228.434148 387.624196 37.340197l590.963535 343.419992-342.211927 191.203775z" fill="#E0EFFB" /><path d="M631.214071 516.832261V444.787645l284.554269-159.025311v72.044616L631.214071 516.832261z" fill="#99C9F2" /><path d="M631.214071 516.832261L139.531532 231.179751v-72.15444L631.214071 444.787645v72.044616z" fill="#B8D9F6" /><path d="M631.214071 444.787645L139.531532 159.025311 424.195624 0l491.572716 285.762334L631.214071 444.787645z" fill="#E0EFFB" /><path d="M316.458172 133.326469a12.629773 12.629773 0 0 1 0 23.722008 45.137709 45.137709 0 0 1-40.964393 0 12.519949 12.519949 0 0 1 0-23.612184 45.137709 45.137709 0 0 1 40.964393-0.109824zM520.072072 166.932647c9.88417 5.710854 9.993994 14.826255 0 20.537108a39.207207 39.207207 0 0 1-35.583012 0L350.723295 109.82411a10.982411 10.982411 0 0 1 0-20.537109 38.987559 38.987559 0 0 1 35.473187 0zM749.494637 299.270699c9.88417 5.710854 9.88417 14.826255 0 20.427285a38.987559 38.987559 0 0 1-35.473187 0l-134.095238-76.876877a10.982411 10.982411 0 0 1 0-20.537109 38.987559 38.987559 0 0 1 35.473187 0zM676.791077 343.200343a12.519949 12.519949 0 0 1 0 23.612184 44.918061 44.918061 0 0 1-40.854569 0c-10.982411-6.589447-10.982411-17.132561 0-23.722008a45.137709 45.137709 0 0 1 40.854569 0.109824z" fill="#5CA8EA" /></svg>