<?xml version="1.0" standalone="no"?><!DOCTYPE svg PUBLIC "-//W3C//DTD SVG 1.1//EN" "http://www.w3.org/Graphics/SVG/1.1/DTD/svg11.dtd"><svg class="icon" width="48px" height="32.90px" viewBox="0 0 1494 1024" version="1.1" xmlns="http://www.w3.org/2000/svg"><path d="M0.180088 145.563066a15.922366 15.922366 0 0 0 0 4.77671 18.947616 18.947616 0 0 0 2.229131 4.299039 25.794233 25.794233 0 0 0 5.254381 4.617486l2.388355 1.910684a36.143771 36.143771 0 0 0 3.821367 2.706802L828.143121 633.742809l2.229131 1.273789c1.273789 0.796118 2.229131 1.75146 3.343697 2.547579l3.662144 2.706802h0.796119a36.939889 36.939889 0 0 1 3.821368 4.299039v0.955342l1.433012 2.229131a26.590351 26.590351 0 0 1 1.751461 3.662144v0.955342a23.405878 23.405878 0 0 1 0 2.706802 22.132089 22.132089 0 0 1 0 3.821368v109.545878L1116.337946 812.073308l321.47257 49.837006a77.064252 77.064252 0 0 0 10.508762 0.955342H1449.115396a74.675897 74.675897 0 0 0 9.55342 0 68.147727 68.147727 0 0 0 9.075748-1.75146 57.161294 57.161294 0 0 0 6.846618-2.388355l4.617486-2.229132 3.184473-1.75146a33.436969 33.436969 0 0 0 3.662144-3.025249l2.229132-2.069908a21.654418 21.654418 0 0 0 2.706802-3.821368 20.699076 20.699076 0 0 0 1.273789-1.910684 15.922366 15.922366 0 0 0 1.433013-6.209723v160.975121a15.922366 15.922366 0 0 1-1.433013 6.209723 19.743734 19.743734 0 0 1-1.273789 1.910684 21.813641 21.813641 0 0 1-2.547579 3.821368l-2.229131 2.069907a32.959298 32.959298 0 0 1-3.662144 3.02525l-3.184473 1.75146-4.617487 2.229131h-1.273789l-5.413604 1.75146-4.139816 0.955342H1437.651293l-321.791018-49.200111L794.228481 923.52987h-1.75146a67.351608 67.351608 0 0 1-8.120407-1.910684 50.951571 50.951571 0 0 1-9.712643-4.139815l-1.433013-0.955342-2.229131-1.75146-2.388355-1.910684-4.139815-4.139815-1.114566-1.592237a18.469945 18.469945 0 0 1-1.114565-2.547578 15.922366 15.922366 0 0 1 0-2.069908 15.922366 15.922366 0 0 1 0-2.547578v-141.072163L13.395652 325.008131l-1.433013-0.955342-2.229132-1.75146-2.388355-1.910684-2.706802-2.866026-0.955342-1.433013a17.673826 17.673826 0 0 1-1.114565-2.547578 15.922366 15.922366 0 0 1 0-1.910684 15.922366 15.922366 0 0 1 0-2.547579z" fill="#99C9F2" /><path d="M1306.769444 445.85889a70.217634 70.217634 0 0 0-63.689464 0l-53.49915 31.844732a102.699261 102.699261 0 0 1-92.986618 0L282.961308 7.675377a69.899187 69.899187 0 0 0-63.689464 0L13.714099 127.411569a19.425287 19.425287 0 0 0 0 36.780666L828.143121 633.742809c25.794233 14.8078 25.953457 39.009797 0 53.817597l-53.339926 31.048614c-18.469945 10.827209-15.922366 27.38647 0 36.939889a58.435083 58.435083 0 0 0 20.062181 6.687394L1116.337946 812.073308l321.47257 49.837006c33.436969 5.254381 63.689464-12.578669 54.932163-31.844732l-87.095342-185.973235-87.254566-186.132459a27.545693 27.545693 0 0 0-11.623327-12.100998z" fill="#E0EFFB" /></svg>