<?xml version="1.0" standalone="no"?><!DOCTYPE svg PUBLIC "-//W3C//DTD SVG 1.1//EN" "http://www.w3.org/Graphics/SVG/1.1/DTD/svg11.dtd"><svg class="icon" width="48px" height="48.00px" viewBox="0 0 1024 1024" version="1.1" xmlns="http://www.w3.org/2000/svg"><path d="M359.062588 561.131922H323.463529l-175.686274 86.859294v72.001255l351.372549 173.718588h35.599059l351.372549-173.718588v-72.001255l-175.686275-86.879373H674.836078l-157.916862 78.064941-157.856628-78.044862z m333.562981 80.755451l85.072313 42.084392-260.778666 128.923608-260.73851-128.90353 85.072314-42.084392 157.896784 78.08502h35.599059l157.876706-78.105098z" fill="#0433E3" /><path d="M710.435137 387.393255H674.836078l-157.916862 78.064941-157.856628-78.044863H323.463529L147.777255 474.252549v72.001255l351.372549 173.738667h35.599059l351.372549-173.738667V474.252549l-175.686275-86.859294z m-17.809568 80.775529l85.072313 42.084392-260.778666 128.923608-260.758589-128.903529 85.092393-42.084392 157.896784 78.064941h35.599059l157.876706-78.08502z" fill="#0433E3" /><path d="M534.748863 126.815373H499.149804l-351.372549 173.718588v72.001255l351.372549 173.718588h35.599059l351.372549-173.718588v-72.001255l-351.372549-173.718588z m-17.809569 80.775529l260.758588 128.923608-260.758588 128.943686-260.778667-128.943686 260.778667-128.90353z" fill="#0433E3" /></svg>