<?xml version="1.0" standalone="no"?><!DOCTYPE svg PUBLIC "-//W3C//DTD SVG 1.1//EN" "http://www.w3.org/Graphics/SVG/1.1/DTD/svg11.dtd"><svg class="icon" width="48px" height="48.00px" viewBox="0 0 1024 1024" version="1.1" xmlns="http://www.w3.org/2000/svg"><path d="M906.199843 278.14651H691.641725l-2.369254 380.084706H338.020392l2.369255-380.084706H127.698824v658.81349h778.501019V278.14651z m-80.313725 80.313725v498.18604H207.972392V358.460235h51.561412l-2.329098 380.104785h511.879529l2.329098-380.104785h54.432628z" fill="#0433E3" /><path d="M889.173333 662.066196v80.313726H144.725333v-80.313726z" fill="#0433E3" /><path d="M772.879059 83.566431H261.019608v658.813491h511.859451V83.566431z m-80.313726 80.313726v498.186039H341.293176V163.880157h351.232z" fill="#0433E3" /><path d="M442.006588 239.23451l104.006275 99.408314-55.476706 58.066823-104.006275-99.408314z" fill="#0433E3" /><path d="M602.613961 239.174275l-104.528314 99.408313 55.356235 58.187294 104.528314-99.388235z" fill="#0433E3" /><path d="M555.77098 351.974902v235.319216h-80.313725V351.974902z" fill="#0433E3" /><path d="M622.812863 358.199216v80.313725H410.603922v-80.313725zM622.812863 458.551216v80.313725H410.603922v-80.313725z" fill="#0433E3" /></svg>