<?xml version="1.0" standalone="no"?><!DOCTYPE svg PUBLIC "-//W3C//DTD SVG 1.1//EN" "http://www.w3.org/Graphics/SVG/1.1/DTD/svg11.dtd"><svg class="icon" width="48px" height="48.00px" viewBox="0 0 1024 1024" version="1.1" xmlns="http://www.w3.org/2000/svg"><path d="M515.654275 795.848784v80.313726H92.80251v-80.313726z" fill="#0433E3" /><path d="M697.906196 157.093647v165.044706h141.472628v122.679216h-80.313726v-42.365491h-141.472627V237.407373H273.448157V857.429333h-80.313726V157.093647z" fill="#0433E3" /><path d="M499.370667 677.345882l110.431372-191.267137h220.862745l110.431373 191.267137-110.431373 191.287216h-220.862745l-110.431372-191.287216z m92.722196 0l64.050196 110.973491h128.140549l64.050196-110.953412-64.050196-110.953412h-128.140549l-64.050196 110.953412z" fill="#0433E3" /><path d="M720.233412 677.345882m-46.481569 0a46.481569 46.481569 0 1 0 92.963137 0 46.481569 46.481569 0 1 0-92.963137 0Z" fill="#0433E3" /><path d="M547.056941 296.759216v80.313725h-210.823529v-80.313725zM458.129569 444.436078v80.313726h-121.876079v-80.313726z" fill="#0433E3" /></svg>