<?xml version="1.0" standalone="no"?><!DOCTYPE svg PUBLIC "-//W3C//DTD SVG 1.1//EN" "http://www.w3.org/Graphics/SVG/1.1/DTD/svg11.dtd"><svg class="icon" width="48px" height="48.00px" viewBox="0 0 1024 1024" version="1.1" xmlns="http://www.w3.org/2000/svg"><path d="M85.5552 127.6672m50.2784 0l439.2576 0q50.2784 0 50.2784 50.2784l0 0q0 50.2784-50.2784 50.2784l-439.2576 0q-50.2784 0-50.2784-50.2784l0 0q0-50.2784 50.2784-50.2784Z" fill="#1890FF" /><path d="M176.2176 158.7712l381.056 659.9808a50.2784 50.2784 0 0 1-87.0912 50.2784L89.1264 209.0496a50.2784 50.2784 0 0 1 87.0912-50.2784z" fill="#1890FF" /><path d="M481.088 819.8784l207.8208-374.912a50.2784 50.2784 0 0 1 87.936 48.7424L569.0496 868.6336a50.2784 50.2784 0 0 1-87.9488-48.7552z" fill="#1890FF" /><path d="M765.568 307.2896l82.112-148.1216a50.2784 50.2784 0 1 1 87.936 48.7552l-82.0992 148.1216a50.2784 50.2784 0 1 1-87.936-48.7552zM502.8096 514.048l-84.0192-141.2992a25.6 25.6 0 0 1 22.016-38.6816h168.0128a25.6 25.6 0 0 1 22.016 38.6816L546.816 514.048a25.6 25.6 0 0 1-44.0064 0z" fill="#8BC7FF" /><path d="M662.4128 127.6672m50.2784 0l185.2288 0q50.2784 0 50.2784 50.2784l0 0q0 50.2784-50.2784 50.2784l-185.2288 0q-50.2784 0-50.2784-50.2784l0 0q0-50.2784 50.2784-50.2784Z" fill="#8BC7FF" /></svg>