<?xml version="1.0" standalone="no"?><!DOCTYPE svg PUBLIC "-//W3C//DTD SVG 1.1//EN" "http://www.w3.org/Graphics/SVG/1.1/DTD/svg11.dtd"><svg class="icon" width="48px" height="48.00px" viewBox="0 0 1024 1024" version="1.1" xmlns="http://www.w3.org/2000/svg"><path d="M551.0912 228.544C714.0096 248.896 797.0944 367.8208 797.0944 512c0 37.4656-5.7088 73.3056-18.7392 105.8944L920.0896 700.16c26.0608-57.0112 39.0912-121.3696 39.0912-188.16 0-234.5856-163.712-427.648-408.0896-448v164.544z" fill="#1890FF" /><path d="M469.632 795.456C347.4688 775.104 226.112 656.1792 226.112 512s121.3568-263.0912 243.5456-283.456V64C265.984 84.352 64 277.4144 64 512s202.0096 427.648 405.632 448V795.456z" fill="#5DB1FF" /><path d="M736.8192 688.7552c-44.8 57.0112-104.2688 95.3088-185.728 106.7008V960c122.1888-12.224 251.6992-83.904 325.0176-188.9792L736.8192 688.768z" fill="#8BC7FF" /></svg>