<?xml version="1.0" standalone="no"?><!DOCTYPE svg PUBLIC "-//W3C//DTD SVG 1.1//EN" "http://www.w3.org/Graphics/SVG/1.1/DTD/svg11.dtd"><svg class="icon" width="48px" height="48.00px" viewBox="0 0 1024 1024" version="1.1" xmlns="http://www.w3.org/2000/svg"><path d="M584.5504 270.6176c-152.1536 0-275.4816 123.3408-275.4816 275.4816 0 152.1536 123.328 275.4816 275.4816 275.4816 152.1408 0 275.4816-123.328 275.4816-275.4816 0-152.1408-123.3408-275.4816-275.4816-275.4816z m0 413.2224c-76.0704 0-137.7408-61.6704-137.7408-137.728 0-76.0832 61.6704-137.7536 137.728-137.7536 76.0832 0 137.7536 61.6704 137.7536 137.7408a137.7408 137.7408 0 0 1-137.7408 137.7408z" fill="#8BC7FF" /><path d="M860.032 339.4816l-165.2864 124.672a137.7408 137.7408 0 0 1 27.5456 81.9456 137.7408 137.7408 0 0 1-40.2944 97.4592l146.0096 145.9968c121.1648-121.152 134.8224-312.96 32.0256-450.0736z" fill="#1890FF" /><path d="M681.9968 643.5584a137.7408 137.7408 0 0 1-194.9056 0L292.1856 838.464a413.2352 413.2352 0 0 0 585.408 0l-195.584-194.9056z" fill="#8BC7FF" /><path d="M446.8096 546.0992c0-76.0704 61.6704-137.7408 137.728-137.7408V64a482.0992 482.0992 0 0 0-340.9024 823.0144l243.456-243.456a137.7408 137.7408 0 0 1-40.2816-97.4592z" fill="#1890FF" /></svg>