<?xml version="1.0" standalone="no"?><!DOCTYPE svg PUBLIC "-//W3C//DTD SVG 1.1//EN" "http://www.w3.org/Graphics/SVG/1.1/DTD/svg11.dtd"><svg class="icon" width="48px" height="48.00px" viewBox="0 0 1024 1024" version="1.1" xmlns="http://www.w3.org/2000/svg"><path d="M197.8496 700.032c0 55.0912 43.6224 98.7008 98.7136 98.7008 55.0784 0 98.688-43.6096 98.688-98.7008s-43.6096-98.7008-98.688-98.7008c-55.0912 0-98.7136 43.6096-98.7136 98.688z" fill="#1890FF" /><path d="M443.7248 361.2928c0 39.0272 29.8368 68.864 68.864 68.864 36.736 0 68.864-32.128 68.864-68.864 0-39.0272-29.8368-68.864-68.864-68.864s-68.864 32.128-68.864 68.864z" fill="#1890FF" /><path d="M694.528 635.2384c0 43.6096 34.432 78.0416 78.0416 78.0416 43.6096 0 78.0416-34.432 78.0416-78.0416 0-43.6096-34.432-78.0544-78.0416-78.0544-43.6224-2.2912-78.0544 34.432-78.0544 78.0544z" fill="#8BC7FF" /><path d="M64 539.6736a41.1392 41.1392 0 0 0 41.3184 41.3184 41.1392 41.1392 0 0 0 41.3184-41.3184 41.1392 41.1392 0 0 0-41.3184-41.3056A41.1392 41.1392 0 0 0 64 539.6736z m854.6816-65.7024a20.5696 20.5696 0 0 0 20.6592 20.6464A20.5696 20.5696 0 0 0 960 473.984a20.5696 20.5696 0 0 0-20.6592-20.6592 20.5696 20.5696 0 0 0-20.6592 20.6592zM778.6624 444.1216c0 13.7728 11.4816 22.9632 22.9504 22.9632 13.7728 0 22.9504-11.4816 22.9504-22.9632 0-13.7728-11.4688-22.9504-22.9504-22.9504-13.7728-2.304-22.9504 9.1776-22.9504 22.9504z" fill="#98DB8E" /><path d="M266.7776 260.48c0 16.0768 13.7728 29.8496 29.8496 29.8496 16.064 0 29.8368-13.7728 29.8368-29.8368s-13.7728-29.8368-29.8368-29.8368c-16.0768-2.304-29.8496 11.4688-29.8496 29.824z" fill="#8BC7FF" /><path d="M581.4528 520.064c0 16.0768 11.4816 27.5584 27.5456 27.5584 16.064 0 27.5456-13.7856 27.5456-27.5584 0-16.064-11.4816-27.5328-27.5456-27.5328-16.064 0-27.5456 11.4688-27.5456 27.5328z" fill="#F6C244" /><path d="M337.9456 477.056c0 16.064 11.4688 27.5328 27.5456 27.5328 16.064 0 27.5456-11.4688 27.5456-27.5456 0-16.064-11.4816-27.5456-27.5456-27.5456-16.0768 0-27.5456 11.4816-27.5456 27.5456z" fill="#8BC7FF" /><path d="M225.664 395.9168c0 11.4816 9.1776 22.9632 20.6592 22.9632 11.4816 0 20.6592-9.1904 20.6592-22.9632 0-11.4688-9.1776-22.9504-20.6592-22.9504-11.4816 0-20.6592 11.4816-20.6592 22.9504z" fill="#F6C244" /><path d="M466.4832 657.6a20.5696 20.5696 0 0 0 20.6592 20.6592 20.5696 20.5696 0 0 0 20.6592-20.6592 20.5696 20.5696 0 0 0-20.6592-20.6592 20.5696 20.5696 0 0 0-20.6592 20.6592z" fill="#98DB8E" /></svg>