<?xml version="1.0" standalone="no"?><!DOCTYPE svg PUBLIC "-//W3C//DTD SVG 1.1//EN" "http://www.w3.org/Graphics/SVG/1.1/DTD/svg11.dtd"><svg class="icon" width="48px" height="48.00px" viewBox="0 0 1024 1024" version="1.1" xmlns="http://www.w3.org/2000/svg"><path d="M181.632 520.6144c1.4848 181.2864 149.0688 328.7552 330.2528 330.24 181.2992 1.4848 328.768-151.3472 330.24-330.24 0.6912-75.9552 118.4384-75.9552 117.8752 0-0.9088 116.032-45.44 225.7024-124.8128 310.1952-78.6944 83.8144-189.6064 130.624-303.36 137.344-115.9424 6.8352-229.0176-37.248-316.3648-111.8336-87.5776-74.7008-137.216-183.3472-149.5168-296.32-1.4848-13.0816-1.8304-26.176-1.9456-39.3856-0.7936-76.0704 117.0688-75.9552 117.632 0z" fill="#1890FF" /><path d="M512 169.0624c-75.9552-0.6784-75.9552-118.4256 0-117.8624a456.448 456.448 0 0 1 314.6496 129.152C912.2816 263.232 958.976 380.7488 960 499.3024c0.6784 76.0704-117.184 75.9552-117.76 0-1.472-181.2992-149.056-328.768-330.24-330.24z" fill="#1890FF" /><path d="M494.0032 637.7856c82.2272 4.096 139.9552-43.6096 149.5296-124.1216 8.9984-75.264-54.0928-135.296-131.3024-141.7728-32-2.7392-52.16-40.0896-46.5792-69.0176 6.6048-34.048 37.12-49.3056 69.0048-46.5792 129.2544 10.8288 232.5504 128.4608 226.048 258.048-6.7072 135.0656-121.1648 247.9104-259.072 240.9728-32-1.6-60.352-20.16-62.6304-55.0016-1.8176-29.2736 22.8864-64.128 55.0016-62.528z" fill="#8BC7FF" /><path d="M389.248 574.2464c26.8672 38.144 51.1232 53.632 93.7088 63.2064-5.2352-1.024-4.2112-1.024 2.9696 0.1152 6.2592 0.7936 12.5184 0.896 18.7904 1.1392 13.2096 0.3328 9.4464 0.2176 22.4256-2.048 23.0016-3.9936 36.224-10.7136 57.6256-24.7168 26.88-17.536 65.8176-0.576 79.2576 25.728 15.7184 30.8608 1.152 61.7216-25.728 79.2704-108.544 70.9376-262.272 41.792-336.9728-64.3456-18.4448-26.1888-21.2992-60.0192 4.7872-83.136 21.8624-19.584 64.5632-21.632 83.1232 4.7872z" fill="#8BC7FF" /></svg>