<?xml version="1.0" standalone="no"?><!DOCTYPE svg PUBLIC "-//W3C//DTD SVG 1.1//EN" "http://www.w3.org/Graphics/SVG/1.1/DTD/svg11.dtd"><svg class="icon" width="48px" height="48.00px" viewBox="0 0 1024 1024" version="1.1" xmlns="http://www.w3.org/2000/svg"><path d="M150.616276 471.251862L458.187034 169.648552a66.436414 66.436414 0 0 1 93.095725 0l307.976827 301.60331a47.668966 47.668966 0 0 1 0.812138 67.531035 48.551724 48.551724 0 0 1-34.039172 14.318344 39.618207 39.618207 0 0 1-27.06538-10.593103L489.277793 256.812138l-305.434483 296.606896a47.474759 47.474759 0 0 1-47.563034-48.286896 46.680276 46.680276 0 0 1 14.336-33.880276z" fill="#783CF9" /><path d="M692.841931 170.866759a62.605241 62.605241 0 0 1 62.605241 62.605241v138.804966l-124.822069-125.228138v-13.506207a62.004966 62.004966 0 0 1 62.216828-62.675862z" fill="#F89EEF" /><path d="M490.319448 304.463448l-234.107586 242.65269v260.343172a75.581793 75.581793 0 0 0 75.917241 75.634759h337.990621a75.581793 75.581793 0 0 0 75.917242-75.634759V547.186759z m127.682207 492.579311l-117.124414-82.308414-117.124413 73.039448 40.165517-115.67669-115.641379-98.992551 153.6-2.224552 39.035586-122.721103 43.873103 127.540965h130.136276l-104.165517 87.128276z" fill="#783CF9" /></svg>