<?xml version="1.0" standalone="no"?><!DOCTYPE svg PUBLIC "-//W3C//DTD SVG 1.1//EN" "http://www.w3.org/Graphics/SVG/1.1/DTD/svg11.dtd"><svg class="icon" width="48px" height="47.54px" viewBox="0 0 1034 1024" version="1.1" xmlns="http://www.w3.org/2000/svg"><path d="M745.903158 158.809825l-265.880702-71.141053C341.333333 50.301754 198.332632 132.940351 161.684211 271.629474l-68.985264 258.694737c-37.367018 138.689123 45.271579 281.689825 183.960702 318.338245l265.880702 71.141053c138.689123 37.367018 281.689825-45.271579 318.338245-183.960702l68.985264-258.694737c37.367018-137.970526-45.271579-280.971228-183.960702-318.338245z" fill="#FF544E" /><path d="M648.174035 131.503158h-258.694737c-135.09614 0-244.322807 109.226667-244.322807 244.322807v251.508772c0 135.09614 109.226667 244.322807 244.322807 244.322807h258.694737c135.09614 0 244.322807-109.226667 244.322807-244.322807v-251.508772c0-134.377544-109.226667-244.322807-244.322807-244.322807z" fill="#FF544E" /><path d="M408.881404 516.670877c-58.206316 0-105.633684 47.427368-105.633685 106.352281 0 58.924912 47.427368 106.352281 105.633685 106.352281s105.633684-47.427368 105.633684-106.352281c0-58.924912-47.427368-106.352281-105.633684-106.352281z m0 152.342456c-25.150877 0-45.271579-20.120702-45.271579-45.990175 0-25.150877 20.120702-45.990175 45.271579-45.990176s45.271579 20.120702 45.271578 45.990176c0 25.150877-20.120702 45.990175-45.271578 45.990175z m263.724912-76.171228c-37.367018 0-68.266667 30.899649-68.266667 68.266667s30.181053 68.266667 68.266667 68.266667 67.54807-30.899649 67.54807-68.266667-29.462456-68.266667-67.54807-68.266667z m58.206316-20.839298l5.748772-20.120702c17.246316-55.33193-24.432281-112.101053-81.92-112.101052h-20.120702V409.6c0-12.934737 13.653333-22.995088 26.58807-22.995088 12.21614 0 24.432281-10.060351 24.432281-22.995087 0-12.934737-12.934737-22.995088-25.150878-22.995088-37.367018 0-70.422456 30.899649-70.422456 68.266667v30.181052h-40.96L517.389474 334.865965c-11.497544-37.367018-45.990175-63.236491-84.794386-63.236491h-53.894737c-30.181053 0-56.050526 22.276491-59.643509 53.17614l-0.718596 159.528421c0 7.185965 2.874386 14.37193 7.904561 20.120702 22.995088-16.527719 51.738947-26.58807 82.638597-26.58807 79.045614 0 143.719298 64.673684 143.719298 144.437894 0 5.030175 0 10.060351-0.718597 15.090527h18.683509C580.625965 589.249123 623.023158 553.319298 674.043509 553.319298c20.120702 1.437193 40.241404 7.904561 56.769123 18.683509z m-352.112281-131.503158V334.147368h53.894737c12.21614 0 22.995088 7.904561 26.58807 20.120702l26.58807 86.231579H378.700351z" fill="#FFFFFF" /></svg>