<?xml version="1.0" standalone="no"?><!DOCTYPE svg PUBLIC "-//W3C//DTD SVG 1.1//EN" "http://www.w3.org/Graphics/SVG/1.1/DTD/svg11.dtd"><svg class="icon" width="48px" height="48.00px" viewBox="0 0 1024 1024" version="1.1" xmlns="http://www.w3.org/2000/svg"><path d="M447.883709 120.24324c-29.18376-29.18376-65.446006-45.990166-103.477874-51.299032-8.848108 27.424136-11.057636 56.157992-7.078487 84.022035-31.833193-4.419055-65.446006 0-95.519576 13.267163 8.398204 25.204611 22.995083 48.6396 43.340733 68.98525 40.241396 40.241396 94.18986 57.927614 147.258513 52.618749 18.576028-1.769622 37.591962-6.638581 55.718087-14.146975 3.539243-1.769622 7.958298-3.539243 11.937447-5.748771 5.308865-53.068653-11.937448-107.457024-52.178843-147.698419z" fill="#69BD50" /><path d="M414.000954 311.042443c-54.068439 0-105.867364-21.285449-144.60908-60.077154-22.685149-22.685149-39.091641-48.839557-48.709585-77.703386l-6.398632-19.285876 18.586026-8.188249c24.944666-10.967655 52.718728-16.716426 80.312828-16.756417-0.299936-22.725141 3.089339-45.450282 10.00786-66.905695l5.748771-17.846184 18.546034 2.609442c44.530479 6.228668 84.671896 26.114416 116.145166 57.597685 43.440712 43.40072 64.816141 103.77781 58.597471 165.684573l-1.129758 11.537534-10.147831 5.698781c-2.919376 1.609656-6.048707 3.089339-9.058063 4.439051l-5.218884 2.439478c-20.325654 8.448194-41.221186 13.717067-62.116718 15.756631-6.888527 0.649861-13.767056 0.999786-20.555605 0.999786z m-142.569516-131.771824c7.358427 14.4969 17.236315 27.944025 29.473698 40.181408 34.132702 34.172693 81.052669 50.759147 129.292355 46.230115 16.016575-1.569664 32.733001-5.748771 48.44964-12.187394 1.179748-44.180553-15.456695-86.451515-46.540048-117.494877-19.895746-19.895746-44.320523-33.912749-71.394735-41.051223-3.479256 17.976156-3.919162 36.612172-1.30972 54.848273l4.219098 29.343725-29.383717-4.089125c-20.925526-2.919376-42.470919-1.399701-62.806571 4.219098z" fill="#000000" /><path d="M612.068603 150.26682c35.742358-20.635588 75.123937-27.484123 113.225791-22.765132 1.44969 28.773848-3.859175 57.107789-14.906813 82.992255 31.893181 3.969151 63.216483 16.936379 88.831006 37.531975-14.63687 22.175259-34.802559 41.031227-59.717231 55.41815-49.279463 28.453916-105.97734 31.573249-155.856675 12.717281-17.486261-6.518606-34.592603-16.13655-50.159275-28.093993-2.959367-2.61944-6.768553-5.478829-10.047852-8.648151 8.608159-52.628747 39.341588-100.698469 88.631049-129.152385z" fill="#69BD50" /><path d="M648.200878 350.304049c-24.424778 0-48.929538-4.399059-72.434512-13.277162-19.545821-7.308437-38.391791-17.846184-55.848059-31.303306l-4.309079-3.609229c-2.529459-2.049562-5.178893-4.269087-7.618371-6.618584l-8.448193-8.098269 1.919589-11.577524c10.057849-61.376876 46.320096-114.185585 99.468732-144.829033 38.611744-22.335224 82.712315-31.253317 127.112821-25.594528l18.586026 2.309506 0.909805 18.676007c1.129758 22.545179-1.479684 45.360301-7.658362 67.25562 26.684294 7.178465 52.018877 19.895746 73.304326 37.002088l15.80662 12.707283-11.147616 16.936379c-16.756417 25.374574-39.351586 46.410077-67.215628 62.466643-31.683226 18.28609-66.945686 27.554108-102.428099 27.554109z m-100.338546-79.27305l0.389917 0.299935c12.577311 9.667933 27.944025 18.28609 43.180767 23.944881 45.140348 17.066351 95.119662 12.927236 136.910726-11.147617 15.016789-8.658149 28.073997-19.105915 38.921678-31.173334-18.196109-10.70771-38.741716-17.756203-59.637249-20.375644l-29.383717-3.659217 11.627514-27.204184c7.268446-16.936379 11.627514-35.082499 12.927236-53.368588h-0.479898c-27.814053 0-54.808281 7.178465-79.093088 21.195468-38.061862 22.005295-65.046092 58.527486-75.363886 101.4883z" fill="#000000" /><path d="M505.681351 276.039928h-0.439906c-12.317366-0.259944-22.115271-10.447766-21.855327-22.725141 0.829823-39.311594 9.927877-98.428954 48.709585-157.1464 25.11463-38.051864 59.507276-70.304968 99.42874-93.200072 10.537747-6.098696 24.244816-2.529459 30.433493 8.228241 6.138687 10.667719 2.439478 24.294805-8.22824 30.433493-33.912749 19.45584-63.126502 46.839985-84.451943 79.093088-32.912963 49.839343-40.611317 100.078601-41.311167 133.471462-0.259944 12.177396-10.187822 21.845329-22.285235 21.845329z" fill="#000000" /><path d="M678.584381 369.359974m-95.799516 0a95.799516 95.799516 0 1 0 191.599033 0 95.799516 95.799516 0 1 0-191.599033 0Z" fill="#7D0E7C" /><path d="M678.584381 487.434728c-65.126075 0-118.104747-52.978672-118.104747-118.054758 0-65.126075 52.978672-118.104747 118.104747-118.104747 65.076086 0 118.054758 52.978672 118.054758 118.104747 0.009998 65.076086-52.968674 118.054758-118.054758 118.054758z m0-191.589035c-40.531334 0-73.524279 32.992946-73.524279 73.524279s32.992946 73.484288 73.524279 73.484288 73.484288-32.952954 73.484288-73.484288-32.952954-73.524279-73.484288-73.524279z" fill="#000000" /><path d="M678.584381 638.652394m-95.799516 0a95.799516 95.799516 0 1 0 191.599033 0 95.799516 95.799516 0 1 0-191.599033 0Z" fill="#7D0E7C" /><path d="M678.584381 756.71715c-65.126075 0-118.104747-52.978672-118.104747-118.054758 0-65.126075 52.978672-118.104747 118.104747-118.104747 65.076086 0 118.054758 52.978672 118.054758 118.104747 0.009998 65.076086-52.968674 118.054758-118.054758 118.054758z m0-191.579037c-40.531334 0-73.524279 32.992946-73.524279 73.524279 0 40.531334 32.992946 73.484288 73.524279 73.484288s73.484288-32.952954 73.484288-73.484288-32.952954-73.524279-73.484288-73.524279z" fill="#000000" /><path d="M505.671353 905.365366m-95.799516 0a95.799516 95.799516 0 1 0 191.599032 0 95.799516 95.799516 0 1 0-191.599032 0Z" fill="#7D0E7C" /><path d="M505.681351 1023.44012c-65.126075 0-118.104747-52.978672-118.104747-118.054758 0-65.126075 52.978672-118.104747 118.104747-118.104747 65.076086 0 118.054758 52.978672 118.054758 118.104747 0 65.076086-52.978672 118.054758-118.054758 118.054758z m0-191.579037c-40.531334 0-73.524279 32.992946-73.524279 73.524279 0 40.531334 32.992946 73.484288 73.524279 73.484288 40.531334 0 73.484288-32.952954 73.484288-73.484288s-32.962952-73.524279-73.484288-73.524279z" fill="#000000" /><path d="M334.807887 646.53071m-95.799516 0a95.799516 95.799516 0 1 0 191.599032 0 95.799516 95.799516 0 1 0-191.599032 0Z" fill="#7D0E7C" /><path d="M334.817885 764.595465c-65.126075 0-118.104747-52.978672-118.104747-118.054757 0-65.126075 52.978672-118.104747 118.104747-118.104747 65.076086 0 118.054758 52.978672 118.054758 118.104747 0 65.086083-52.978672 118.054758-118.054758 118.054757z m0-191.579036c-40.531334 0-73.524279 32.992946-73.524279 73.524279 0 40.531334 32.992946 73.484288 73.524279 73.484287s73.484288-32.952954 73.484287-73.484287-32.962952-73.524279-73.484287-73.524279z" fill="#000000" /><path d="M331.838522 374.128954m-95.799516 0a95.799516 95.799516 0 1 0 191.599032 0 95.799516 95.799516 0 1 0-191.599032 0Z" fill="#7D0E7C" /><path d="M331.858518 492.223704c-65.126075 0-118.104747-52.978672-118.104747-118.104748 0-65.076086 52.978672-118.054758 118.104747-118.054757 65.076086 0 118.054758 52.978672 118.054757 118.054757 0 65.126075-52.978672 118.104747-118.054757 118.104748z m0-191.589035c-40.531334 0-73.524279 32.952954-73.52428 73.484287s32.992946 73.524279 73.52428 73.52428 73.484288-32.992946 73.484287-73.52428-32.962952-73.484288-73.484287-73.484287z" fill="#000000" /><path d="M759.157153 492.783584m-95.799516 0a95.799516 95.799516 0 1 0 191.599033 0 95.799516 95.799516 0 1 0-191.599033 0Z" fill="#7D0E7C" /><path d="M759.167151 610.888331c-65.126075 0-118.104747-52.978672-118.104747-118.104747s52.978672-118.104747 118.104747-118.104747c65.076086 0 118.054758 52.978672 118.054758 118.104747S824.243237 610.888331 759.167151 610.888331z m0-191.629026c-40.531334 0-73.524279 32.992946-73.524279 73.524279s32.992946 73.524279 73.524279 73.524279 73.484288-32.992946 73.484288-73.524279-32.952954-73.524279-73.484288-73.524279z" fill="#000000" /><path d="M265.322744 492.783584m-95.799516 0a95.799516 95.799516 0 1 0 191.599032 0 95.799516 95.799516 0 1 0-191.599032 0Z" fill="#7D0E7C" /><path d="M265.34274 610.888331c-65.126075 0-118.104747-52.978672-118.104747-118.104747s52.978672-118.104747 118.104747-118.104747c65.076086 0 118.054758 52.978672 118.054758 118.104747S330.418825 610.888331 265.34274 610.888331z m0-191.629026c-40.531334 0-73.524279 32.992946-73.524279 73.524279s32.992946 73.524279 73.524279 73.524279 73.484288-32.992946 73.484288-73.524279-32.962952-73.524279-73.484288-73.524279z" fill="#000000" /><path d="M510.170391 349.544211m-95.799516 0a95.799516 95.799516 0 1 0 191.599033 0 95.799516 95.799516 0 1 0-191.599033 0Z" fill="#7D0E7C" /><path d="M510.160393 467.628962c-65.076086 0-118.054758-52.978672-118.054757-118.054757 0-65.126075 52.978672-118.104747 118.054757-118.104747 65.126075 0 118.104747 52.978672 118.104747 118.104747 0 65.076086-52.978672 118.054758-118.104747 118.054757z m0-191.589034c-40.531334 0-73.484288 32.992946-73.484287 73.524279s32.952954 73.484288 73.484287 73.484287 73.524279-32.952954 73.52428-73.484287-32.992946-73.524279-73.52428-73.524279z" fill="#000000" /><path d="M601.460872 774.553336m-95.799517 0a95.799516 95.799516 0 1 0 191.599033 0 95.799516 95.799516 0 1 0-191.599033 0Z" fill="#7D0E7C" /><path d="M601.450874 892.62809c-65.076086 0-118.054758-52.978672-118.054758-118.054758 0-65.126075 52.978672-118.104747 118.054758-118.104747 65.126075 0 118.104747 52.978672 118.104747 118.104747 0 65.076086-52.978672 118.054758-118.104747 118.054758z m0-191.589035c-40.531334 0-73.484288 32.992946-73.484288 73.524279 0 40.531334 32.952954 73.484288 73.484288 73.484288s73.524279-32.952954 73.524279-73.484288c0-40.521336-32.992946-73.524279-73.524279-73.524279z" fill="#000000" /><path d="M427.638038 780.412084m-95.799516 0a95.799516 95.799516 0 1 0 191.599032 0 95.799516 95.799516 0 1 0-191.599032 0Z" fill="#7D0E7C" /><path d="M427.62804 898.506833c-65.076086 0-118.054758-52.978672-118.054757-118.104747 0-65.076086 52.978672-118.054758 118.054757-118.054758 65.126075 0 118.104747 52.978672 118.104747 118.054758 0 65.126075-52.978672 118.104747-118.104747 118.104747z m0-191.589035c-40.531334 0-73.484288 32.952954-73.484287 73.484288s32.952954 73.524279 73.484287 73.524279 73.524279-32.992946 73.524279-73.524279c0-40.531334-32.992946-73.484288-73.524279-73.484288z" fill="#000000" /><path d="M505.671353 646.53071m-95.799516 0a95.799516 95.799516 0 1 0 191.599032 0 95.799516 95.799516 0 1 0-191.599032 0Z" fill="#7D0E7C" /><path d="M505.681351 764.595465c-65.126075 0-118.104747-52.978672-118.104747-118.054757 0-65.126075 52.978672-118.104747 118.104747-118.104747 65.076086 0 118.054758 52.978672 118.054758 118.104747 0 65.086083-52.978672 118.054758-118.054758 118.054757z m0-191.579036c-40.531334 0-73.524279 32.992946-73.524279 73.524279 0 40.531334 32.992946 73.484288 73.524279 73.484287 40.531334 0 73.484288-32.952954 73.484288-73.484287s-32.962952-73.524279-73.484288-73.524279z" fill="#000000" /><path d="M427.638038 481.346029m-95.799516 0a95.799516 95.799516 0 1 0 191.599032 0 95.799516 95.799516 0 1 0-191.599032 0Z" fill="#7D0E7C" /><path d="M427.62804 599.440779c-65.076086 0-118.054758-52.978672-118.054757-118.104747 0-65.076086 52.978672-118.054758 118.054757-118.054758 65.126075 0 118.104747 52.978672 118.104747 118.054758 0 65.126075-52.978672 118.104747-118.104747 118.104747z m0-191.589035c-40.531334 0-73.484288 32.952954-73.484287 73.484288s32.952954 73.524279 73.484287 73.524279 73.524279-32.992946 73.524279-73.524279-32.992946-73.484288-73.524279-73.484288z" fill="#000000" /><path d="M593.70253 492.783584m-95.799516 0a95.799516 95.799516 0 1 0 191.599033 0 95.799516 95.799516 0 1 0-191.599033 0Z" fill="#7D0E7C" /><path d="M593.70253 610.888331c-65.076086 0-118.054758-52.978672-118.054757-118.104747s52.978672-118.104747 118.054757-118.104747c65.126075 0 118.104747 52.978672 118.104748 118.104747S658.828605 610.888331 593.70253 610.888331z m0-191.629026c-40.531334 0-73.484288 32.992946-73.484287 73.524279s32.952954 73.524279 73.484287 73.524279 73.524279-32.992946 73.52428-73.524279-32.992946-73.524279-73.52428-73.524279z" fill="#000000" /><path d="M391.575749 455.281602m-14.436913 0a14.436913 14.436913 0 1 0 28.873826 0 14.436913 14.436913 0 1 0-28.873826 0Z" fill="#FFFFFF" /><path d="M233.409568 450.722577m-14.436913 0a14.436913 14.436913 0 1 0 28.873826 0 14.436913 14.436913 0 1 0-28.873826 0Z" fill="#FFFFFF" /></svg>