<?xml version="1.0" standalone="no"?><!DOCTYPE svg PUBLIC "-//W3C//DTD SVG 1.1//EN" "http://www.w3.org/Graphics/SVG/1.1/DTD/svg11.dtd"><svg class="icon" width="48px" height="48.00px" viewBox="0 0 1024 1024" version="1.1" xmlns="http://www.w3.org/2000/svg"><path d="M512 328.46848l59.63264 120.82688 133.34528 19.3792-96.4864 94.04416 22.77888 132.8128L512 632.832l-119.26528 62.69952 22.77888-132.8128-96.49152-94.04416 133.34528-19.3792zM348.16 150.20544C348.16 95.52384 303.83616 51.2 249.15968 51.2H150.20032C95.52384 51.2 51.2 95.52384 51.2 150.20544v98.94912C51.2 303.83616 95.52384 348.16 150.20032 348.16c0 0 1.87904-0.03584 4.92032-0.55808 23.92064-4.11648 133.07904-18.98496 193.03936 30.5408V250.88l-0.2048 0.1024c0.0512-0.6144 0.2048-1.21344 0.2048-1.82784V150.20544z" fill="#987EFB" /><path d="M675.84 150.20544C675.84 95.52384 720.16384 51.2 774.84032 51.2h98.95936C928.47616 51.2 972.8 95.52384 972.8 150.20544v98.94912C972.8 303.83616 928.47616 348.16 873.79968 348.16c0 0-1.87904-0.03584-4.92032-0.55808-23.92064-4.11648-133.07904-18.98496-193.03936 30.5408V250.88l0.19968 0.1024c-0.04608-0.6144-0.19968-1.21344-0.19968-1.82784V150.20544zM348.16 873.05728C348.16 927.73376 303.83616 972.8 249.15968 972.8H150.20032C95.52384 972.8 51.2 927.73376 51.2 873.05728v-98.94912c0-54.6816 44.32384-99.00544 99.00032-99.00544 0 0 1.87904 0.04096 4.92032 0.55808 23.92064 4.11648 133.07904 18.97984 193.03936-30.5408v127.2576l-0.19968-0.1024c0.04608 0.60928 0.19968 1.20832 0.19968 1.82272v98.95936z" fill="#CDC5FF" /><path d="M675.84 873.05728c0 54.6816 44.32384 99.74272 99.00032 99.74272h98.95936c54.67648 0 99.00032-45.06624 99.00032-99.74272v-98.94912c0-54.6816-44.32384-99.00544-99.00032-99.00544 0 0-1.87904 0.04096-4.92032 0.55808-23.92064 4.11648-133.07904 18.97984-193.03936-30.5408v127.2576l0.19968-0.1024c-0.04608 0.60928-0.19968 1.20832-0.19968 1.82272v98.95936z" fill="#987EFB" /></svg>