<?xml version="1.0" standalone="no"?><!DOCTYPE svg PUBLIC "-//W3C//DTD SVG 1.1//EN" "http://www.w3.org/Graphics/SVG/1.1/DTD/svg11.dtd"><svg class="icon" width="48px" height="48.00px" viewBox="0 0 1024 1024" version="1.1" xmlns="http://www.w3.org/2000/svg"><path d="M664.574139 295.017764a196.196006 196.196006 0 0 0 28.876447-66.968783 185.751334 185.751334 0 0 0-66.149593-183.396163c-42.188285-40.9595-105.061118-51.199375-158.308468-40.9595-63.282428 20.47975-137.214326 61.43925-147.761398 143.358251-10.239875 51.199375 0 112.638626 42.188286 143.358251a312.418588 312.418588 0 0 0-114.686601 155.441304 365.665939 365.665939 0 0 0-16.3838 65.125605C207.363717 634.879218 248.835211 757.757719 352.462746 829.436844a302.178713 302.178713 0 0 0 58.469687 24.063706 307.196252 307.196252 0 0 0 60.62006 11.263863C684.234699 901.11597 860.155752 686.078593 778.236752 481.281092a370.376281 370.376281 0 0 0-78.847038-154.622114 284.46373 284.46373 0 0 0-34.815575-31.641214z" fill="#1C8E37" /><path d="M642.865603 433.256077c-30.719625 36.453955-80.690216 51.199375-116.427379 83.147786v-28.67165q0-11.366261 0.511994-22.732523v-29.388441-17.817383-18.226978-30.719625c27.442865-11.980654 73.419904-54.578534 74.648689-81.919a89.291711 89.291711 0 0 0-18.943769 2.150373c-14.028629 17.510186-39.116323 28.159656-56.319313 43.314672-1.63838-72.907911-5.73433-148.887784-7.884704-222.614884a4.710343 4.710343 0 0 0-8.089501-2.969564 51.813768 51.813768 0 0 0-14.540623 20.47975l-0.921588 18.738972c0.81919 21.810934 1.331184 47.717818 1.63838 74.751088-15.257414-7.782305-34.815575-16.895794-39.935513-31.846012-10.239875-10.239875-27.135669-8.1919-19.353364 17.100592 18.534174 19.250965 44.031463 44.645855 60.005668 45.772241V382.875892c-20.47975-19.046168-51.199375-27.238068-72.907911-48.127413-10.239875 0-31.231619 3.071963-16.895794 22.630124 27.85246 15.769408 64.920808 45.87464 89.803705 57.855294v171.927503C453.83751 561.152117 412.980408 522.240592 362.088229 512.000717c-20.47975 0-16.690996 5.119938-8.396698 25.39489 43.826665 20.47975 70.962334 46.284235 111.921835 68.607163l19.66056 9.625483a142.64146 142.64146 0 0 1 12.390249 7.679906V1015.80257c0 10.239875 9.113489 7.987103 18.226978 7.987103s18.226978 1.945576 18.124578-7.884704q-0.614393-10.239875-1.023987-19.66056c-2.867165-69.119157-3.686355-134.961553-3.891153-202.647128v-29.183644q0-107.518688-2.150373-215.037376c53.144952-13.619034 82.533393-62.156042 127.076849-88.472521 20.786946-10.342274 10.444673-30.822024-11.161464-27.647663z" fill="#3A3635" /></svg>