<?xml version="1.0" standalone="no"?><!DOCTYPE svg PUBLIC "-//W3C//DTD SVG 1.1//EN" "http://www.w3.org/Graphics/SVG/1.1/DTD/svg11.dtd"><svg class="icon" width="48px" height="48.00px" viewBox="0 0 1024 1024" version="1.1" xmlns="http://www.w3.org/2000/svg"><path d="M800.256 149.504c56.32 0 102.4 42.496 102.4 94.72l20.48 147.456c0 52.224-46.08 94.72-102.4 94.72h-614.4c-56.32 0-102.4-42.496-102.4-94.72l20.48-147.456c0-52.224 46.08-94.72 102.4-94.72h573.44m0-40.96h-573.44c-77.824 0-141.824 59.392-143.36 132.608l-19.968 144.896c-0.512 2.048-0.512 3.584-0.512 5.632 0 74.752 64.512 135.68 143.36 135.68h614.4c78.848 0 143.36-60.928 143.36-135.68 0-2.048 0-3.584-0.512-5.632l-19.968-144.896c-1.536-73.728-65.024-132.608-143.36-132.608z" fill="#181818" /><path d="M230.912 932.352h-2.048c-11.264-1.024-19.456-11.264-18.432-22.528l40.96-399.36c1.024-11.264 11.264-19.456 22.528-18.432 11.264 1.024 19.456 11.264 18.432 22.528l-40.96 399.36c-1.024 10.752-10.24 18.432-20.48 18.432zM796.672 932.352c-10.24 0-19.456-7.68-20.48-18.432l-40.96-399.36c-1.024-11.264 7.168-21.504 18.432-22.528 11.264-1.024 21.504 7.168 22.528 18.432l40.96 399.36c1.024 11.264-7.168 21.504-18.432 22.528h-2.048z" fill="#181818" /><path d="M767.488 649.728H260.096c-5.632 0-11.264-2.56-15.36-6.656-4.096-4.096-5.632-10.24-5.12-15.872l11.776-122.88c1.024-10.24 9.728-18.432 20.48-18.432h483.84c10.752 0 19.456 8.192 20.48 18.432l11.776 122.88c0.512 5.632-1.536 11.264-5.12 15.872-4.096 4.096-9.728 6.656-15.36 6.656z m-484.864-40.96h462.336l-8.192-81.92H290.304l-7.68 81.92z" fill="#181818" /><path d="M820.736 486.4h-614.4c-56.32 0-102.4-42.496-102.4-94.72l20.48-147.456c0-52.224 46.08-94.72 102.4-94.72h573.44c56.32 0 102.4 42.496 102.4 94.72l20.48 147.456c0 52.224-45.568 94.72-102.4 94.72z" fill="#4F8DFC" /><path d="M800.256 190.464c33.792 0 61.44 24.064 61.44 53.76 0 2.048 0 3.584 0.512 5.632l19.968 144.384c-1.536 28.672-28.672 51.2-61.44 51.2h-614.4c-32.768 0-59.904-23.04-61.44-51.2l19.968-144.384c0.512-2.048 0.512-3.584 0.512-5.632 0-29.696 27.648-53.76 61.44-53.76h573.44m0-40.96h-573.44c-56.32 0-102.4 42.496-102.4 94.72l-20.48 147.456c0 52.224 46.08 94.72 102.4 94.72h614.4c56.32 0 102.4-42.496 102.4-94.72l-20.48-147.456c0-52.224-45.568-94.72-102.4-94.72z" fill="#181818" /></svg>