<?xml version="1.0" standalone="no"?><!DOCTYPE svg PUBLIC "-//W3C//DTD SVG 1.1//EN" "http://www.w3.org/Graphics/SVG/1.1/DTD/svg11.dtd"><svg class="icon" width="48px" height="48.00px" viewBox="0 0 1024 1024" version="1.1" xmlns="http://www.w3.org/2000/svg"><path d="M612.02 605.61m-310.22 0a310.22 310.22 0 1 0 620.44 0 310.22 310.22 0 1 0-620.44 0Z" fill="#4F8DFC" /><path d="M847.4 303.49h-79v-125a80.39 80.39 0 0 0-80.3-80.29H335.89a80.39 80.39 0 0 0-80.3 80.29v125h-77.16A80.63 80.63 0 0 0 98 384.12v463.47a80.63 80.63 0 0 0 80.43 80.63h669a80.62 80.62 0 0 0 80.43-80.63V384.12a80.62 80.62 0 0 0-80.46-80.63z m-531.81-125a20.32 20.32 0 0 1 20.3-20.29h352.22a20.32 20.32 0 0 1 20.3 20.29v125H315.59z m552.14 669.1A20.38 20.38 0 0 1 847.4 868h-669a20.37 20.37 0 0 1-20.32-20.38v-463.5a20.38 20.38 0 0 1 20.32-20.38h669a20.38 20.38 0 0 1 20.33 20.38z" fill="#181818" /><path d="M628.82 573.66a120.9 120.9 0 1 1-120.9-120.9 120.58 120.58 0 0 1 120.9 120.9z" fill="#181818" /><path d="M622.82 713.28a180.59 180.59 0 0 0 66-139.62c0-99.75-81.16-180.9-180.9-180.9S327 473.91 327 573.66s81.15 180.9 180.9 180.9a179.9 179.9 0 0 0 62.91-11.29l49.51 81.22a30 30 0 1 0 51.23-31.24z m-114.9-18.72a120.5 120.5 0 1 1 30.79-4 121 121 0 0 1-30.79 4z" fill="#181818" /></svg>