<?xml version="1.0" standalone="no"?><!DOCTYPE svg PUBLIC "-//W3C//DTD SVG 1.1//EN" "http://www.w3.org/Graphics/SVG/1.1/DTD/svg11.dtd"><svg class="icon" width="48px" height="40.59px" viewBox="0 0 1211 1024" version="1.1" xmlns="http://www.w3.org/2000/svg"><path d="M602.874459 625.038961m-130.031746 0a130.031746 130.031746 0 1 0 260.063492 0 130.031746 130.031746 0 1 0-260.063492 0Z" fill="#4F8DFC" /><path d="M933.864358 1024H288.138528C135.94228 1024 11.821068 899.878788 11.821068 747.68254L0 302.914863c0-7.388167 1.477633-13.298701 5.910534-19.209235 22.164502-29.55267 42.851371-104.911977 57.627706-161.062049 5.910534-20.686869 10.343434-38.41847 14.776334-53.194806L88.658009 33.98557C91.613276 22.164502 103.434343 13.298701 115.255411 13.298701 118.210678 13.298701 325.079365 0 450.678211 0c11.821068 0 22.164502 7.388167 26.597402 17.731602l110.822511 246.76479c16.253968 0 35.463203-1.477633 57.627706-1.477633 229.033189-5.910534 459.544012-5.910534 537.858586 67.97114 17.731602 17.731602 28.075036 39.896104 28.075036 63.53824v351.676767c-1.477633 153.673882-125.598846 277.795094-277.795094 277.795094zM59.105339 310.30303l11.821068 435.901876c0 121.165945 97.52381 218.689755 217.212121 218.689755h645.72583c119.688312 0 217.212121-97.52381 217.212121-217.212121V394.528139c0-4.4329-1.477633-11.821068-10.343434-20.686869-66.493506-63.53824-354.632035-56.150072-495.007215-51.717172-31.030303 1.477633-57.627706 1.477633-78.314575 1.477634-11.821068 0-22.164502-7.388167-26.597402-17.731602L431.468975 59.105339c-99.001443 1.477633-239.376623 8.865801-291.093795 11.821068l-4.4329 16.253968c-4.4329 13.298701-10.343434 31.030303-14.776335 51.717172-16.253968 59.105339-35.463203 131.50938-62.060606 171.405483z" fill="#181818" /><path d="M489.096681 834.862915c-5.910534 0-10.343434-1.477633-16.253968-4.432901-8.865801-5.910534-14.776335-16.253968-13.298701-28.075036l13.298701-118.210678-88.658009-76.836941c-8.865801-7.388167-11.821068-19.209235-8.865801-29.552669 2.955267-10.343434 11.821068-19.209235 22.164502-22.164502l116.733045-23.642136 45.806638-109.344877c4.4329-10.343434 14.776335-17.731602 25.119769-17.731602 11.821068 0 22.164502 4.4329 28.075036 14.776335l59.105339 103.434343 118.210679 10.343434c11.821068 1.477633 20.686869 8.865801 25.119769 19.209236 4.4329 10.343434 1.477633 22.164502-5.910534 31.030303l-79.792208 87.180375 26.597403 115.255411c2.955267 10.343434-1.477633 22.164502-10.343435 29.55267s-20.686869 8.865801-31.030303 4.4329L605.829726 769.847042l-101.95671 62.060606c-2.955267 1.477633-8.865801 2.955267-14.776335 2.955267z m-22.164502-233.46609l56.150072 48.761905c7.388167 5.910534 11.821068 16.253968 10.343434 25.119769l-7.388167 73.881674 63.53824-38.41847c8.865801-4.4329 19.209235-5.910534 28.075036-1.477634l67.97114 31.030303-16.253969-72.40404c-2.955267-8.865801 0-19.209235 7.388168-26.597403l50.239538-54.672438-73.881674-5.910534c-10.343434-1.477633-17.731602-5.910534-23.642136-14.776335l-36.940836-65.015873-31.030303 67.97114c-4.4329 8.865801-11.821068 14.776335-20.686869 17.731602l-73.881674 14.776334z" fill="#181818" /></svg>