<?xml version="1.0" standalone="no"?><!DOCTYPE svg PUBLIC "-//W3C//DTD SVG 1.1//EN" "http://www.w3.org/Graphics/SVG/1.1/DTD/svg11.dtd"><svg class="icon" width="48px" height="43.69px" viewBox="0 0 1125 1024" version="1.1" xmlns="http://www.w3.org/2000/svg"><path d="M362.146341 840.845528V564.726287c0-67.98916 55.501355-123.490515 123.490515-123.490515h484.249323c67.98916 0 123.490515 55.501355 123.49051501 123.490515v276.119241c0 67.98916-55.501355 123.490515-123.49051501 123.490515H485.636856c-67.98916 0-123.490515-55.501355-123.490515-123.490515z" fill="#4F8DFC" /><path d="M865.82113801 1024H259.468835C116.55284601 1024 0 907.44715399 0 764.531165V462.04878C0 319.132791 116.55284601 201.192412 259.468835 201.192412h606.35230301c142.915989 0 259.468835 116.55284599 259.46883499 259.468835V763.143631c0 144.303523-116.55284599 260.856369-259.46883499 260.856369zM259.468835 256.693767C147.078591 256.693767 55.501355 349.658537 55.501355 462.04878v302.482385c0 112.390244 91.577236 203.96748 203.96748 203.96748h606.35230301c112.390244 0 203.96748-91.577236 203.96748-203.96748V462.04878c0-112.390244-91.577236-203.96748-203.96748-203.967479H259.468835z" fill="#181818" /><path d="M838.070461 831.132791c-15.262873 0-27.75067801-12.487805-27.750678-27.75067701V448.17344201c0-15.262873 12.487805-27.75067801 27.750678-27.75067801s27.75067801 12.487805 27.75067701 27.75067801V804.769648c0 13.875339-12.487805 26.363144-27.75067701 26.363143zM815.869919 263.631436c-5.550136 0-11.100271-1.38753401-16.650407-5.550135l-288.60704601-208.130081c-12.487805-8.325203-15.262873-26.363144-6.93766899-38.850949 4.16260199-5.550136 11.100271-9.712737 18.03794-11.100271 6.937669-1.38753401 15.262873 0 20.813008 4.16260201l288.607046 208.13008099c12.487805 8.325203 15.262873 26.363144 6.93767 38.850948-4.16260199 5.550136-11.100271 9.712737-18.037941 11.10027101-1.38753401 1.38753401-2.775068 1.38753401-4.162601 1.38753399zM710.417344 789.506775c-15.262873 0-27.75067801-12.487805-27.750677-27.75067699V489.79945801c0-15.262873 12.487805-27.75067801 27.750677-27.75067801s27.75067801 12.487805 27.75067801 27.75067801v271.95663998c0 15.262873-12.487805 27.75067801-27.75067801 27.75067701zM946.298103 781.181572c-15.262873 0-27.75067801-12.487805-27.750678-27.75067799V496.737127c0-15.262873 12.487805-27.75067801 27.750678-27.75067701s27.75067801 12.487805 27.750677 27.75067701v256.69376699c0 16.650407-12.487805 27.75067801-27.750677 27.75067801zM376.02168 753.43089399c-77.701897 0-141.528455-63.82655799-141.528455-141.52845499s63.82655799-141.528455 141.528455-141.528455 141.528455 63.82655799 141.528456 141.528455-63.82655799 141.528455-141.528456 141.52845501z m0-227.55555499c-47.176152 0-86.0271 38.850949-86.0271 86.0271s38.850949 86.0271 86.0271 86.0271 86.0271-38.850949 86.0271-86.0271-38.850949-86.0271-86.0271-86.0271z" fill="#181818" /></svg>