<?xml version="1.0" standalone="no"?><!DOCTYPE svg PUBLIC "-//W3C//DTD SVG 1.1//EN" "http://www.w3.org/Graphics/SVG/1.1/DTD/svg11.dtd"><svg class="icon" width="48px" height="48.00px" viewBox="0 0 1024 1024" version="1.1" xmlns="http://www.w3.org/2000/svg"><path d="M366.276923 126.030769s-239.938954 106.9568-206.072123 285.262769c0 0 42.988308 136.164431 265.149046 108.583385 0 0-161.803815-110.009108-59.076923-393.846154z" fill="#4F8DFC" /><path d="M339.708062 115.641108a356.647385 356.647385 0 0 0-27.963077 60.54203C186.037169 231.888738 98.343385 357.769846 98.343385 504.123077c0 198.006154 160.515938 358.522092 358.522092 358.522092 156.305723 0 289.248492-100.021169 338.313846-239.552984a357.5296 357.5296 0 0 0 58.131692-32.618339C813.737354 773.029415 651.271877 909.784615 456.861538 909.784615c-224.039385 0-405.661538-181.622154-405.661538-405.661538 0-181.472492 119.162092-335.115815 283.506215-386.945969z" fill="#000000" /><path d="M467.184246 554.645662c50.601354 35.485538 112.2304 56.308185 178.727385 56.308184 55.445662 0 107.512123-14.481723 152.619323-39.869046L850.707692 571.076923l0.007877 22.401969C792.662646 633.974154 722.057846 657.723077 645.907692 657.723077c-76.437662 0-147.286646-23.930092-205.4656-64.708923zM366.276923 118.153846l-0.003938 43.480616C345.785108 203.149785 334.276923 249.895385 334.276923 299.323077c0 31.519508 4.678892 61.952 13.382892 90.627938l-46.66683 7.104985A358.663877 358.663877 0 0 1 287.507692 299.323077c0-66.095262 17.892431-128.015754 49.096862-181.173169L366.276923 118.153846z" fill="#000000" /><path d="M350.523077 114.215385a23.630769 23.630769 0 1 1 0 47.261538 23.630769 23.630769 0 0 1 0-47.261538zM827.076923 559.261538a23.630769 23.630769 0 1 1 0 47.261539 23.630769 23.630769 0 0 1 0-47.261539z" fill="#000000" /><path d="M326.892308 433.230769c38.730831 0 71.786338 22.193231 84.739938 53.413416H371.424492c-9.964308-12.599138-26.198646-20.795077-44.532184-20.795077-28.864985 0-52.523323 20.3264-54.724923 46.150892h-35.761231c2.2528-43.846892 41.905231-78.769231 90.486154-78.769231z" fill="#000000" /><path d="M402.865231 468.188554c8.211692 17.856985 27.529846 30.397046 50.057846 30.397046 17.986954 0 33.929846-7.995077 43.803569-20.306708h40.936369C524.709415 509.499077 491.653908 531.692308 452.923077 531.692308c-42.787446 0-78.651077-27.088738-88.130954-63.503754z" fill="#000000" /><path d="M578.953846 433.230769c38.730831 0 71.786338 22.193231 84.739939 53.413416h-40.207754c-9.964308-12.599138-26.198646-20.795077-44.532185-20.795077-19.156677 0-36.017231 8.952123-45.839754 22.520123H493.528615c12.433723-32.122092 45.985477-55.138462 85.42917-55.138462z" fill="#000000" /><path d="M654.926769 468.188554c8.211692 17.856985 27.529846 30.397046 50.057846 30.397046 17.986954 0 33.929846-7.995077 43.80357-20.306708h40.936369C776.770954 509.499077 743.715446 531.692308 704.984615 531.692308c-42.787446 0-78.651077-27.088738-88.130953-63.503754z" fill="#000000" /><path d="M831.015385 433.230769c38.730831 0 71.786338 22.193231 84.739938 53.413416h-40.207754c-9.964308-12.599138-26.198646-20.795077-44.532184-20.795077-19.156677 0-36.017231 8.952123-45.839754 22.520123H745.590154c12.433723-32.122092 45.985477-55.138462 85.429169-55.138462z" fill="#000000" /><path d="M906.988308 468.188554c8.211692 17.856985 27.529846 30.397046 50.057846 30.397046 2.678154 0 5.305108-0.177231 7.876923-0.519877v33.319385c-2.595446 0.2048-5.2224 0.3072-7.876923 0.3072-42.787446 0-78.651077-27.088738-88.130954-63.503754zM251.199015 495.013415a15.631754 15.631754 0 1 1 0 31.263508 15.631754 15.631754 0 0 1 0-31.263508z" fill="#000000" /><path d="M960.122092 498.951877a15.631754 15.631754 0 1 1 0 31.263508 15.631754 15.631754 0 0 1 0-31.263508z" fill="#000000" /></svg>