<?xml version="1.0" standalone="no"?><!DOCTYPE svg PUBLIC "-//W3C//DTD SVG 1.1//EN" "http://www.w3.org/Graphics/SVG/1.1/DTD/svg11.dtd"><svg class="icon" width="48px" height="42.37px" viewBox="0 0 1160 1024" version="1.1" xmlns="http://www.w3.org/2000/svg"><path d="M397.65423 997.767735m0-119.592223l0-168.693641q0-119.592223 119.592223-119.592223l468.817656 0q119.592223 0 119.592223 119.592223l0 168.693641q0 119.592223-119.592223 119.592223l-468.817656 0q-119.592223 0-119.592223-119.592223Z" fill="#4F8DFC" /><path d="M896.201787 1024h-645.717289A250.888071 250.888071 0 0 1 0 773.380977V522.896479a58.652654 58.652654 0 0 1 58.652654-58.518129h1043.506043a58.652654 58.652654 0 0 1 58.652653 58.518129v236.493957a264.878613 264.878613 0 0 1-264.609563 264.609564z m205.95691-505.811876H58.652654a4.84288 4.84288 0 0 0-4.84288 4.708355v250.484498a197.078297 197.078297 0 0 0 196.809249 196.809249h645.717288a211.068839 211.068839 0 0 0 210.665265-210.79979V522.896479a4.84288 4.84288 0 0 0-4.842879-4.708355z"  /><path d="M338.059905 520.609564H182.28061a26.904887 26.904887 0 0 1-26.904887-26.904887V73.315817a26.904887 26.904887 0 0 1 26.904887-26.904887h155.779295a26.904887 26.904887 0 0 1 26.904887 26.904887V493.704677a26.904887 26.904887 0 0 1-26.904887 26.904887z m-128.874408-53.809774h101.969521V100.220704h-101.969521zM527.066737 501.776143a26.904887 26.904887 0 0 1-12.107199-2.825013 26.904887 26.904887 0 0 1-13.452444-15.604835l-131.161324-399.537572a26.904887 26.904887 0 0 1 1.479769-20.447714 26.904887 26.904887 0 0 1 15.604834-13.452444L535.407252 1.345244a26.904887 26.904887 0 0 1 33.900157 17.219128l131.161325 399.403048a26.904887 26.904887 0 0 1-17.084604 33.900158l-147.976878 48.563321a25.156069 25.156069 0 0 1-8.340515 1.345244zM430.478192 92.687336l114.34577 348.283762 96.857593-31.747766-115.152916-348.418287zM932.792433 518.0536H777.147662a26.904887 26.904887 0 0 1-26.904887-26.904887V70.759853a26.904887 26.904887 0 0 1 26.904887-26.904887h155.644771a26.904887 26.904887 0 0 1 26.904887 26.904887v420.38886a26.904887 26.904887 0 0 1-26.904887 26.904887z m-128.739884-53.809774h101.834997V97.66474h-101.834997z"  /></svg>