<?xml version="1.0" standalone="no"?><!DOCTYPE svg PUBLIC "-//W3C//DTD SVG 1.1//EN" "http://www.w3.org/Graphics/SVG/1.1/DTD/svg11.dtd"><svg class="icon" width="48px" height="48.00px" viewBox="0 0 1024 1024" version="1.1" xmlns="http://www.w3.org/2000/svg"><path d="M405.333333 128H128a42.666667 42.666667 0 0 0-42.666667 42.666667v682.666666a42.666667 42.666667 0 0 0 42.666667 42.666667h277.333333zM896 128h-192v768h192a42.666667 42.666667 0 0 0 42.666667-42.666667V170.666667a42.666667 42.666667 0 0 0-42.666667-42.666667z" fill="#B71C1C" /><path d="M298.666667 170.666667v682.666666H128V170.666667z" fill="#FFFFFF" /><path d="M298.666667 213.333333v42.666667H170.666667v-42.666667zM298.666667 277.333333v42.666667H170.666667v-42.666667zM298.666667 341.333333v42.666667H170.666667v-42.666667zM298.666667 448v42.666667H170.666667v-42.666667zM298.666667 512v42.666667H170.666667v-42.666667zM298.666667 618.666667v42.666666H170.666667v-42.666666zM298.666667 682.666667v42.666666H170.666667v-42.666666zM298.666667 746.666667v42.666666H170.666667v-42.666666z" fill="#263238" /><path d="M864 224m-32 0a32 32 0 1 0 64 0 32 32 0 1 0-64 0Z" fill="#E57373" /><path d="M778.666667 288m-32 0a32 32 0 1 0 64 0 32 32 0 1 0-64 0Z" fill="#E57373" /><path d="M864 352m-32 0a32 32 0 1 0 64 0 32 32 0 1 0-64 0Z" fill="#E57373" /><path d="M778.666667 416m-32 0a32 32 0 1 0 64 0 32 32 0 1 0-64 0Z" fill="#E57373" /><path d="M864 480m-32 0a32 32 0 1 0 64 0 32 32 0 1 0-64 0Z" fill="#E57373" /><path d="M778.666667 544m-32 0a32 32 0 1 0 64 0 32 32 0 1 0-64 0Z" fill="#E57373" /><path d="M864 608m-32 0a32 32 0 1 0 64 0 32 32 0 1 0-64 0Z" fill="#E57373" /><path d="M778.666667 672m-32 0a32 32 0 1 0 64 0 32 32 0 1 0-64 0Z" fill="#E57373" /><path d="M778.666667 800m-32 0a32 32 0 1 0 64 0 32 32 0 1 0-64 0Z" fill="#E57373" /><path d="M864 736m-32 0a32 32 0 1 0 64 0 32 32 0 1 0-64 0Z" fill="#E57373" /><path d="M448 128m21.333333 0l0 0q21.333333 0 21.333334 21.333333l0 725.333334q0 21.333333-21.333334 21.333333l0 0q-21.333333 0-21.333333-21.333333l0-725.333334q0-21.333333 21.333333-21.333333Z" fill="#263238" /><path d="M490.666667 192h42.666666v640h-42.666666z" fill="#607D8B" /><path d="M512 128a21.333333 21.333333 0 0 1 21.333333 21.333333v42.666667h-42.666666V149.333333a21.333333 21.333333 0 0 1 21.333333-21.333333zM490.666667 832h42.666666v42.666667a21.333333 21.333333 0 0 1-21.333333 21.333333 21.333333 21.333333 0 0 1-21.333333-21.333333v-42.666667z" fill="#B0BEC5" /><path d="M405.333333 192h42.666667v640h-42.666667z" fill="#607D8B" /><path d="M426.666667 128a21.333333 21.333333 0 0 1 21.333333 21.333333v42.666667h-42.666667V149.333333a21.333333 21.333333 0 0 1 21.333334-21.333333zM405.333333 832h42.666667v42.666667a21.333333 21.333333 0 0 1-21.333333 21.333333 21.333333 21.333333 0 0 1-21.333334-21.333333v-42.666667z" fill="#B0BEC5" /><path d="M533.333333 128m21.333334 0l0 0q21.333333 0 21.333333 21.333333l0 725.333334q0 21.333333-21.333333 21.333333l0 0q-21.333333 0-21.333334-21.333333l0-725.333334q0-21.333333 21.333334-21.333333Z" fill="#263238" /><path d="M576 192h42.666667v640h-42.666667z" fill="#607D8B" /><path d="M597.333333 128a21.333333 21.333333 0 0 1 21.333334 21.333333v42.666667h-42.666667V149.333333a21.333333 21.333333 0 0 1 21.333333-21.333333zM576 832h42.666667v42.666667a21.333333 21.333333 0 0 1-21.333334 21.333333 21.333333 21.333333 0 0 1-21.333333-21.333333v-42.666667z" fill="#B0BEC5" /><path d="M618.666667 128m21.333333 0l0 0q21.333333 0 21.333333 21.333333l0 725.333334q0 21.333333-21.333333 21.333333l0 0q-21.333333 0-21.333333-21.333333l0-725.333334q0-21.333333 21.333333-21.333333Z" fill="#263238" /><path d="M661.333333 192h42.666667v640h-42.666667z" fill="#607D8B" /><path d="M682.666667 128a21.333333 21.333333 0 0 1 21.333333 21.333333v42.666667h-42.666667V149.333333a21.333333 21.333333 0 0 1 21.333334-21.333333zM661.333333 832h42.666667v42.666667a21.333333 21.333333 0 0 1-21.333333 21.333333 21.333333 21.333333 0 0 1-21.333334-21.333333v-42.666667z" fill="#B0BEC5" /></svg>