<?xml version="1.0" standalone="no"?><!DOCTYPE svg PUBLIC "-//W3C//DTD SVG 1.1//EN" "http://www.w3.org/Graphics/SVG/1.1/DTD/svg11.dtd"><svg class="icon" width="48px" height="22.62px" viewBox="0 0 2173 1024" version="1.1" xmlns="http://www.w3.org/2000/svg"><path d="M1891.687489 75.53634c101.898894 37.109106 235.91217 83.853617 265.232341 208.23149 18.219574 74.975319 11.803234 156.230809 14.72817 236.821787-0.833362 148.349277 0.397617 287.656851-1.726638 433.914553-0.168851 23.802553-11.53634 48.405787-34.979405 57.218724-61.701447 7.712681-124.895319 8.344511-186.536851 1.230978-9.907745-1.301787-15.926468-14.897021-27.430127-10.043915-14.09634 14.662809-33.841021 15.692255-53.558468 17.157447-51.428766 2.058894-103.162553-1.26366-154.525958-2.124255-14.357787-3.46417-32.844255-3.627574-38.492596-21.351489-4.48817-44.386043-1.595915-93.254809-4.48817-136.878298-0.735319-9.041702-10.207319-8.279149-16.825191-8.344511-157.085957 20.017021-332.119149 19.281702-492.266213 6.781277-4.123234-0.435745-7.843404 4.455489-8.709447 7.712681 0.397617 42.35983-2.859574 87.911489-2.358468 129.034893-2.924936 9.009021-8.780255 18.421106-17.854638 22.909277-57.245957 9.738894-120.84834 4.221277-179.59217 2.091574-14.030979 1.497872-21.678298-14.559319-35.273532-12.200851-11.601702 8.910979-23.938723 14.962383-39.52749 13.633362-58.74383 0.266894-122.88 2.156936-181.623829-3.660255-9.804255-5.882553-19.145532-14.09634-23.138043-24.870128-1.329021-38.628766 0.63183-77.262979-8.044936-114.301277-4.84766-9.875064-14.695489-15.724936-24.532426-17.026723-143.822979-1.726638-288.441191-0.462979-432.558298-9.570043-55.851574-4.155915-118.587915-21.149957-139.465532-78.466723-0.326809-8.605957-3.19183-16.057191-3.889021-24.701277-26.629447-9.275915-55.154383-36.243064-58.574979-65.399829-6.51983-60.94434 24.766638-111.577872 74.403405-146.486469 18.181447-12.16817 37.964255-20.643404 55.350468-34.875914 35.676596-43.623489 77.96017-80.727149 126.235234-101.637447 12.298894-2.331234 25.894128-3.894468 36.537191 3.654808 16.356766 7.478468 7.40766 45.644255 33.00766 25.698043C415.428085 391.821617 503.197957 363.465532 592.558298 339.123745c9.542809-13.862128-9.237787-23.475745-9.570043-37.435915-13.965617-45.780426-10.174638-104.497021 28.786383-136.616851 39.331404-33.345362 92.857191-50.56817 145.320851-33.28 22.936511 5.523064 39.990468 26.700255 57.578213 42.855489 20.044255 3.061106 28.127319-23.138043 44.582128-28.356085 31.417191-24.374468 76.266213-30.589277 115.624851-19.554043 41.428426 11.040681 82.186894 50.769702 87.906042 94.458554 4.749617 25.164255-4.025191 47.212936-8.415319 69.751829 5.719149 4.155915 9.575489-2.396596 14.030979-4.787744 14.995064-17.484255 33.944511-28.857191 51.330723-41.858724 4.085106-0.430298 6.982809 0.898723 9.804256 2.162383 26.602213 18.317617 50.203234 43.52 76.767319 61.843064 4.123234-0.364936 9.406638 1.29634 12.734638-1.92817 23.601021-19.118298 44.718298-44.78366 69.550298-60.612085 3.687489-1.634043 9.074383-1.525106 12.761872 0.130723 26.961702 18.720681 50.965787 44.789106 78.363234 62.676426 4.123234-0.332255 8.573277 0.893277 11.835915-0.702639 21.569362-21.574809 44.413277-43.552681 67.551319-63.466212 7.483915-4.520851 15.659574-0.299574 21.809022 3.85634 24.004085 19.946213 48.171574 39.462128 72.142978 59.01617 4.123234-0.403064 9.510128 1.688511 12.004766-1.998978 22.402723-21.574809 43.52-47.708596 67.485958-65.563234 4.586213-1.16017 10.702979-1.127489 14.858893 0.13617 24.472511 21.177191 49.702128 41.989447 73.373958 63.133957 10.24 4.221277 16.923234-6.045957 19.880851-13.034213 2.995745-20.910298-5.419574-41.924085-25.033532-53.226212-34.374809-19.581277-75.438298-23.241532-114.001702-32.582809-118.086809-19.913532-242.557277-25.534638-365.796766-33.644936-23.404936-3.458723-45.377362-22.179404-52.627064-44.78366-2.957617-31.319149 5.915234-62.442213 30.355064-84.817702C1270.66417-10.403404 1356.070128 1.862809 1431.601021 2.56c159.809362 8.747574 311.644596 37.169021 460.086468 72.97634" fill="#231916" /><path d="M1866.784681 99.954383c98.271319 35.774638 229.893447 66.56 260.542638 188.481362 18.023489 51.897191 12.533106 113.941787 14.461277 171.057021 1.432511 171.323915 4.48817 338.693447-4.384681 510.747234-12.500426 16.721702-35.077447 12.435064-54.457192 14.297872-41.853277 0.468426-89.997617 6.683234-131.420595-3.159149-18.284936-22.342809-8.540596-55.955064-14.826213-83.150978-5.354213-8.714894-15.561532-10.839149-23.802553-6.781277-3.322553 1.628596-6.285617 5.283404-7.946894 8.546043-0.533787 24.270979 0.435745 51.330723-1.465191 76.037446-15.289191 17.952681-44.843574 9.477447-67.088341 14.161703-35.404255 2.195064-74.338043-1.067574-109.644255-1.764766-7.810723-2.924936-20.97566-1.394383-21.678298-13.29566-7.44034-44.119149 4.956596-98.614468-8.605957-141.867574-8.845617-23.508426-33.606809-9.341277-50.900426-10.34349-129.988085 17.39166-259.44783 14.19983-394.588596 11.405617-34.107915-0.762553-65.198298-7.178894-97.710298-10.702978-11.901277 1.92817-24.238298 9.640851-29.717787 21.444085-10.643064 41.858723-1.301787 92.492255-6.154893 136.747574-3.72017 2.156936-6.612426 6.182128-10.73566 6.149447-52.594383 1.16017-109.709617 4.390128-161.841021-4.722383-15.060426-20.643404-3.224511-52.234894-9.172426-76.903489-4.057872-8.676766-13.900255-11.999319-22.54434-8.840171-13.197617 5.64834-10.904511 20.877617-10.136511 32.381277 0.299574 16.923234 3.355234 36.172255-3.360681 52.131404-6.944681 3.224511-14.428596 5.653787-21.809021 6.852085-51.72834 0.299574-110.537532 1.862809-164.765957-3.556766-8.573277-2.897702-10.534128-11.574468-10.501447-19.815489-6.585191-45.186723 14.956936-107.460085-38.334639-128.506553a114.693447 114.693447 0 0 0-31.547914-6.045958c-144.285957 1.198298-288.871489-2.06434-433.854639-9.945872-36.869447-8.878298-88.630468-9.804255-98.96851-55.121702-1.198298-4.885787 0.893277-10.637617 6.677787-9.777021 228.896681 4.057872 447.820255 5.555745 672.686298-2.756086 88.733957-5.75183 176.002723-16.122553 241.495149-80.062638 5.75183-5.283404 9.145191-14.72817 5.054638-22.571574-4.820426-7.385872-14.657362-12.435064-21.64017-5.920681-84.643404 92.922553-215.965957 70.786723-333.186724 83.782808-184.913702 2.892255-381.331064 4.455489-565.00834-0.827915-25.066213-1.862809-51.298043-6.252936-63.836596-31.351829-16.950468-34.67983-3.818213-76.473191 20.681532-103.369532 26.564085-35.110128 64.098043-52.861277 98.407489-75.204085 28.726468-37.572085 67.224511-72.910979 110.08-87.775319 11.100596-2.756085 11.035234 7.843404 11.830468 14.86434-2.195064 11.933957-1.062128 23.437617 5.419575 32.947745 8.148426 5.817191 15.626894-1.830128 22.642383-4.684256 54.522553-34.516426 116.322043-49.974468 175.267404-72.518808 44.516766-14.428596 89.796085-26.297191 134.312851-39.462128 33.045787-20.681532-7.413106-45.715064-8.012255-69.991489-9.575489-30.818043-7.647319-67.387915 10.675745-93.554383 26.961702-31.820255 62.828936-48.373106 104.687659-41.428426 37.800851 2.396596 64.196085 40.034043 81.184681 69.757277 36.439149 16.356766 33.541447-32.582809 54.685957-47.180255 27.293957-24.036766 62.769021-34.805106 100.068766-27.528171 23.769872 7.614638 50.764255 22.277447 60.77549 47.844766 18.148766 40.861957 0.49566 86.277447-19.118298 121.049873-0.462979 9.842383 8.878298 18.154213 16.65634 21.879829 190.632851 8.279149 389.435915 7.979574 578.870468 7.113532 58.847319-8.910979 137.531915 14.793532 167.260596-49.037617 9.706213-29.924766-5.190809-58.019404-27.195915-79.131234-55.622809-36.706043-124.138213-43.852255-191.929191-52.63251-100.896681-13.627915-206.886128-17.086638-309.144511-27.35932-10.643064-2.124255-23.31234-10.474213-25.665362-22.043234-3.594894-16.460255 2.788766-33.214638 10.24-47.180255 51.06383-57.485617 138.795574-36.204936 212.403745-38.835745 148.20766 10.408851 291.796426 32.152511 429.627915 67.028426" fill="#A1CC56" /><path d="M956.366979 225.154723c2.761532 9.940426 2.690723 19.84817-0.266894 29.619745-4.651574 9.009021-15.327319 15.49617-25.567319 11.705192-11.465532-9.510128-15.392681-23.508426-11.569021-37.904341 3.692936-6.116766 7.516596-15.523404 15.763064-17.522383 10.272681-2.391149 18.410213 5.920681 21.64017 14.101787M716.734638 233.014468c4.057872 9.439319 0.266894 19.679319-3.126468 28.356085-5.849872 7.282383-13.197617 11.340255-21.874383 7.979575-10.24-5.446809-12.102809-16.122553-13.764085-25.997617 0.931404-11.106043 4.820426-24.270979 16.324085-28.225362 11.470979-1.595915 18.818723 8.774809 22.440851 17.887319" fill="#231916" /><path d="M1695.264681 310.54434c-0.866043 4.923915-8.344511 6.51983-14.030979 5.686469-31.645957 1.329021-63.798468 5.12-95.379064 3.22451-2.097021-0.397617-1.198298-3.725617 0-4.918468 15.425362-17.522383 32.408511-35.910809 50.633532-48.91234 23.769872 4.324766 40.856511 29.957447 58.776511 44.919829M1530.400681 317.717787c1.26366 3.725617-2.494638 0.800681-2.924936 3.295319-38.999149-0.332255-75.569021-0.664511-113.369873-0.996766 0-1.634043 0-2.859574 0.032681-4.123234 16.160681-14.232511 32.78434-32.185191 50.502809-44.750978 3.687489 0.397617 8.279149-0.762553 11.067915 0.893276 18.023489 15.36 37.964255 29.091404 54.691404 45.682383M1301.901617 273.402553c17.985362 13.262979 35.507745 29.085957 52.229447 42.822809v3.289872c-36.569872 0.898723-76.037447 0.533787-111.741277-1.034894-2.091574-0.39217 0.038128-2.821447 0.038128-4.085106 17.320851-12.963404 31.88017-30.954213 49.664-41.891404 3.262638 0.435745 7.380426-0.762553 9.809702 0.898723M1130.545021 273.985362c15.926468 12.473191 31.847489 27.762383 46.907915 40.660425-0.032681 1.230979-0.032681 2.06434-0.032681 3.262639-34.941277 2.592681-71.478468-2.260426-104.360851-0.833362-4.052426-2.162383-0.729872-6.285617 0.936851-6.982809 15.321872-13.43183 30.58383-25.698043 46.706383-37.038298 3.295319 0.468426 7.015489-0.729872 9.842383 0.931405" fill="#15AB4A" /><path d="M231.233362 586.653957c1.634043 9.041702-5.484936 19.249021-14.962383 19.581277-10.24 1.563234-17.582298-7.113532-20.409192-15.822979-0.27234-8.611404 7.54383-15.926468 14.956936-18.682553 9.940426-2.03166 18.453787 6.710468 20.414639 14.924255M133.866213 588.669277c1.16017 9.041702-5.953362 19.281702-14.924256 19.581276-9.150638 1.998979-15.196596-6.683234-18.856851-12.898042-2.826894-9.875064 5.484936-17.555064 12.936171-20.414639 10.305362-2.826894 18.813277 5.517617 20.844936 13.731405" fill="#231916" /></svg>