<?xml version="1.0" standalone="no"?><!DOCTYPE svg PUBLIC "-//W3C//DTD SVG 1.1//EN" "http://www.w3.org/Graphics/SVG/1.1/DTD/svg11.dtd"><svg class="icon" width="48px" height="48.00px" viewBox="0 0 1024 1024" version="1.1" xmlns="http://www.w3.org/2000/svg"><path d="M879.4 647.11c-9.67 0-19.18-4.53-25.13-13.02L655.04 350.97 514.37 547.89c-9.85 13.76-29 16.96-42.81 7.13-13.78-9.85-16.98-29.02-7.13-42.81l165.83-232.13c5.75-8.11 14.3-13.44 25.09-12.84 9.95 0.04 19.26 4.89 24.97 13.02l224.12 318.5c9.75 13.86 6.43 33-7.43 42.75a30.5 30.5 0 0 1-17.61 5.6zM311.05 560.31c-9.61 0-19.1-4.51-25.07-12.96L122.1 315.64c-9.79-13.84-6.51-32.98 7.33-42.77 13.82-9.77 32.98-6.53 42.77 7.33l163.88 231.71c9.79 13.84 6.51 32.98-7.33 42.77-5.38 3.82-11.57 5.63-17.7 5.63z" fill="#B2150A" /><path d="M147.15 297.91m-85.15 0a85.15 85.15 0 1 0 170.3 0 85.15 85.15 0 1 0-170.3 0Z" fill="#FF4F4F" /><path d="M399.91 839.97c-101.79 0-184.61-82.82-184.61-184.63s82.82-184.63 184.61-184.63c101.81 0 184.65 82.82 184.65 184.63s-82.83 184.63-184.65 184.63z m0-307.9c-67.96 0-123.25 55.29-123.25 123.27s55.3 123.26 123.25 123.26c67.98 0 123.29-55.29 123.29-123.27s-55.31-123.26-123.29-123.26z" fill="#FF4F4F" /><path d="M655.2 297.91m-113.88 0a113.88 113.88 0 1 0 227.76 0 113.88 113.88 0 1 0-227.76 0Z" fill="#FF4F4F" /><path d="M879.36 616.55m-82.64 0a82.64 82.64 0 1 0 165.28 0 82.64 82.64 0 1 0-165.28 0Z" fill="#FF4F4F" /></svg>