<?xml version="1.0" standalone="no"?><!DOCTYPE svg PUBLIC "-//W3C//DTD SVG 1.1//EN" "http://www.w3.org/Graphics/SVG/1.1/DTD/svg11.dtd"><svg class="icon" width="48px" height="48.00px" viewBox="0 0 1024 1024" version="1.1" xmlns="http://www.w3.org/2000/svg"><path d="M852.59 532.61H171.41c-41.8 0-75.69-33.89-75.69-75.69V312.19c0-41.8 33.89-75.69 75.69-75.69h681.17c41.8 0 75.69 33.89 75.69 75.69v144.73c0 41.8-33.88 75.69-75.68 75.69z" fill="#FF554D" /><path d="M813.32 962H210.68c-42.59 0-77.11-34.52-77.11-77.11V509.31c0-42.58 34.52-77.11 77.11-77.11h602.65c42.59 0 77.11 34.52 77.11 77.11v375.58c-0.01 42.59-34.53 77.11-77.12 77.11z" fill="#FF554D" /><path d="M890.59 509.3v13.24c-10.97 6.43-24.22 10.22-37.84 10.22H171.58c-14 0-26.87-3.4-37.84-9.84V509.3c0-42.77 34.44-77.2 76.82-77.2H813.4c42.38 0 77.19 34.44 77.19 77.2z" fill="#B2150A" /><path d="M274.69 236.59h75.69v43.14c0 20.82-17.03 37.84-37.84 37.84-21.19 0-37.84-17.03-37.84-37.84v-43.14zM749.62 236.59v43.14c0 20.82-17.03 37.84-37.84 37.84-21.19 0-37.84-17.03-37.84-37.84v-43.14h75.68z" fill="#1AADF9" /><path d="M711.54 317.64c-20.9 0-37.84-16.94-37.84-37.84V167.54c0-16.46-13.4-29.85-29.86-29.85H380.01c-16.46 0-29.86 13.39-29.86 29.85V279.8c0 20.9-16.94 37.84-37.84 37.84-20.9 0-37.84-16.94-37.84-37.84V167.54C274.46 109.34 321.8 62 380.01 62h263.83c58.21 0 105.55 47.34 105.55 105.54V279.8c-0.01 20.9-16.95 37.84-37.85 37.84z" fill="#FFBC55" /><path d="M274.61 236.59h75.69v43.14c0 20.82-17.03 37.84-37.84 37.84-21.19 0-37.84-17.03-37.84-37.84v-43.14zM749.54 236.59v43.14c0 20.82-17.03 37.84-37.84 37.84-21.19 0-37.84-17.03-37.84-37.84v-43.14h75.68z" fill="#B2150A" /><path d="M644.3 706.15c-1.05-5.8-6.64-11.71-12.44-13.01l-4.34-0.99c-10.19-3.08-19.23-9.83-24.98-19.76-5.75-9.98-7.11-21.32-4.6-31.72l1.36-4.08c1.72-5.65-0.52-13.43-5.07-17.3 0 0-4.08-3.45-15.58-10.09-11.5-6.58-16.46-8.42-16.46-8.42-5.59-2.04-13.43-0.1-17.5 4.23l-3.03 3.24c-7.73 7.32-18.13 11.76-29.63 11.76s-22-4.5-29.74-11.87l-2.93-3.13c-4.02-4.34-11.91-6.27-17.51-4.23 0 0-5.02 1.83-16.51 8.41-11.5 6.69-15.52 10.14-15.52 10.14-4.55 3.81-6.79 11.55-5.07 17.25l1.25 4.13c2.46 10.4 1.15 21.69-4.6 31.67-5.75 9.99-14.89 16.78-25.14 19.81l-4.18 0.94c-5.75 1.31-11.39 7.16-12.44 13.01 0 0-0.94 5.23-0.94 18.5s0.94 18.5 0.94 18.5c1.04 5.85 6.64 11.71 12.44 13.01l4.08 0.94c10.25 3.03 19.44 9.83 25.19 19.86 5.75 9.99 7.11 21.33 4.6 31.72l-1.2 4.02c-1.72 5.65 0.52 13.43 5.07 17.3 0 0 4.08 3.45 15.57 10.09 11.5 6.64 16.46 8.42 16.46 8.42 5.59 2.04 13.43 0.1 17.51-4.24l2.88-3.08c7.79-7.37 18.24-11.86 29.79-11.86s22.06 4.55 29.79 11.92l2.88 3.08c4.02 4.34 11.91 6.27 17.51 4.23 0 0 5.02-1.83 16.51-8.42 11.5-6.63 15.52-10.09 15.52-10.09 4.55-3.81 6.79-11.6 5.07-17.3l-1.25-4.18c-2.46-10.35-1.15-21.64 4.6-31.57 5.75-9.98 14.95-16.83 25.19-19.86l4.08-0.94c5.75-1.3 11.39-7.16 12.44-13.01 0 0 0.94-5.23 0.94-18.5-0.07-13.3-1.01-18.53-1.01-18.53m-132.27 71.66c-29.32 0-53.15-23.78-53.15-53.15 0-29.32 23.78-53.1 53.15-53.1 29.32 0 53.15 23.78 53.15 53.15-0.06 29.32-23.83 53.1-53.15 53.1m0 0" fill="#FFFFFF" /></svg>