<?xml version="1.0" standalone="no"?><!DOCTYPE svg PUBLIC "-//W3C//DTD SVG 1.1//EN" "http://www.w3.org/Graphics/SVG/1.1/DTD/svg11.dtd"><svg class="icon" width="32px" height="32.00px" viewBox="0 0 1024 1024" version="1.1" xmlns="http://www.w3.org/2000/svg"><path d="M811.485733 862.179008c193.39521-163.895941 217.294619-453.488769 53.498675-646.88398-163.895941-193.39521-453.488769-217.394616-646.883979-53.498675-193.295213 163.895941-217.294619 453.488769-53.398678 646.88398 15.899606 18.799534 33.399173 36.299101 52.198707 52.398702l-75.09814 75.09814c-19.899507 20.1995-19.899507 52.698695 0 72.898195 19.999505 19.899507 52.298705 19.899507 72.29821 0l89.297788-89.397786c131.896733 68.598301 288.792848 69.098289 421.089572 1.099972l88.197815 88.197816c19.999505 19.899507 52.298705 19.899507 72.29821 0 19.899507-20.1995 19.899507-52.698695 0-72.898195l-73.49818-73.898169z m-85.397885-300.492559h-232.19425c-17.699562-0.299993-31.89921-14.699636-31.89921-32.399197V221.994862c-0.199995-28.299299 22.59944-51.398727 50.798742-51.598722 2.199946 0 4.399891 0.099998 6.599837 0.39999 26.099354 3.499913 45.498873 25.999356 44.998886 52.398702v235.594166h160.496025c26.499344-0.299993 48.898789 19.299522 52.298705 45.498873 3.299918 28.299299-16.999579 53.898665-45.298879 57.098586-1.899953 0.199995-3.899903 0.299993-5.799856 0.299992zM884.883915 0.00036c-43.59892-0.099998-84.697902 20.399495-110.997251 55.198633 81.097992 46.998836 148.296327 114.797157 194.595181 196.395136 61.598474-46.598846 73.798172-134.396672 27.099329-195.995146-26.199351-34.799138-67.198336-55.398628-110.697259-55.598623zM145.102237 140.596878c31.89921-31.999208 67.898318-59.798519 106.99735-82.497957-45.398876-62.19846-132.696714-75.798123-194.895174-30.399247-62.19846 45.498873-75.798123 132.696714-30.299249 194.895173 8.89978 12.299695 19.899507 22.99943 32.2992 31.799213 23.299423-41.698967 52.198707-79.998019 85.897873-113.797182z" fill="#222222" /></svg>