<?xml version="1.0" standalone="no"?><!DOCTYPE svg PUBLIC "-//W3C//DTD SVG 1.1//EN" "http://www.w3.org/Graphics/SVG/1.1/DTD/svg11.dtd"><svg class="icon" width="48px" height="48.00px" viewBox="0 0 1024 1024" version="1.1" xmlns="http://www.w3.org/2000/svg"><path d="M916.48 340.992v454.144c0 56.32-45.056 102.4-101.376 102.4H208.896c-55.808 0-101.376-46.08-101.376-102.4v-236.032c292.864-5.12 570.368-58.88 808.96-218.112m0-41.472c-8.192 0-15.872 2.56-22.528 6.656C686.08 445.44 436.224 512.512 107.008 517.632c-22.528 0.512-40.448 18.432-40.448 40.96v236.032c0 78.848 63.488 143.36 142.336 143.36h606.72c78.336 0 142.336-64.512 142.336-143.36V340.992c0-15.36-8.192-29.184-21.504-36.352-6.656-3.072-13.312-5.12-19.968-5.12z" fill="#181818" /><path d="M222.208 548.352c-11.264 0-20.48-9.216-20.48-20.48V223.232c0-82.432 67.072-149.504 149.504-149.504s149.504 67.072 149.504 149.504c0 11.264-9.216 20.48-20.48 20.48s-20.48-9.216-20.48-20.48c0-59.904-48.64-108.544-108.544-108.544s-108.544 48.64-108.544 108.544v304.64c0 11.264-9.216 20.48-20.48 20.48z" fill="#181818" /><path d="M812.544 897.024H205.824c-55.808 0-100.864-46.08-100.864-102.4v-236.032c292.864-4.608 570.368-58.368 808.96-217.6v454.144c0 56.32-45.056 101.888-101.376 101.888z" fill="#4F8DFC" /><path d="M872.96 414.72v379.904c0 33.792-27.136 61.44-60.416 61.44H205.824c-33.28 0-60.416-27.648-60.416-61.44v-196.096c294.4-9.216 528.384-68.096 727.552-183.808m40.96-73.728c-238.592 159.232-516.096 212.992-808.96 217.6v236.032c0 56.32 45.056 102.4 101.376 102.4h606.72c55.808 0 101.376-46.08 101.376-102.4V340.992h-0.512z" fill="#181818" /><path d="M762.368 796.672h-48.64c-11.264 0-20.48-9.216-20.48-20.48s9.216-20.48 20.48-20.48h48.64c11.264 0 20.48 9.216 20.48 20.48s-9.216 20.48-20.48 20.48z" fill="#181818" /></svg>