<?xml version="1.0" standalone="no"?><!DOCTYPE svg PUBLIC "-//W3C//DTD SVG 1.1//EN" "http://www.w3.org/Graphics/SVG/1.1/DTD/svg11.dtd"><svg class="icon" width="48px" height="48.00px" viewBox="0 0 1024 1024" version="1.1" xmlns="http://www.w3.org/2000/svg"><path d="M753.9712 921.5488H272.0256c-69.5296 0-125.9008-56.3712-125.9008-125.9008V487.0144h733.7472v308.6336c0 69.5296-56.3712 125.9008-125.9008 125.9008z" fill="#FFDF99" /><path d="M781.7728 109.8752H244.2752c-34.4576 0-65.3312 21.2992-77.568 53.504l-91.648 241.4592c-14.6944 38.656-12.288 82.2784 8.6016 117.9648 28.2624 48.2304 80.5888 80.5888 140.4928 80.5888 62.8736 0 117.3504-35.6864 144.4864-87.8592 27.0848 52.1728 81.6128 87.8592 144.4864 87.8592s117.3504-35.6864 144.4864-87.8592c27.0848 52.1728 81.6128 87.8592 144.4864 87.8592 57.8048 0 108.544-30.1056 137.4208-75.52 23.3472-36.7104 27.0336-82.5344 11.6224-123.1872l-91.648-241.3056c-12.3904-32.2048-43.264-53.504-77.7216-53.504z" fill="#FF5D50" /><path d="M705.3312 425.0624H320.6144a46.08 46.08 0 0 1 0-92.16h384.768a46.08 46.08 0 1 1-0.0512 92.16z" fill="#FFDF99" /></svg>