<?xml version="1.0" standalone="no"?><!DOCTYPE svg PUBLIC "-//W3C//DTD SVG 1.1//EN" "http://www.w3.org/Graphics/SVG/1.1/DTD/svg11.dtd"><svg class="icon" width="48px" height="48.00px" viewBox="0 0 1024 1024" version="1.1" xmlns="http://www.w3.org/2000/svg"><path d="M670.293333 705.493333m-190.506666 0a190.506667 190.506667 0 1 0 381.013333 0 190.506667 190.506667 0 1 0-381.013333 0Z" fill="#4169E1" /><path d="M367.786667 223.786667m-44.8 0a44.8 44.8 0 1 0 89.6 0 44.8 44.8 0 1 0-89.6 0Z" fill="#4169E1" /><path d="M275.84 890.666667a34.346667 34.346667 0 0 1-33.493333-40.106667l42.666666-244.906667L106.666667 432a33.92 33.92 0 0 1-8.533334-34.986667 34.346667 34.346667 0 0 1 27.733334-23.253333l262.613333-38.186667 9.173333 64-203.306666 28.8 158.293333 154.24-2.56 18.773334-34.346667 200.32 196.266667-102.613334 16.64 7.68 180.693333 94.933334-37.333333-217.6 12.8-13.653334 145.706667-142.08-219.52-31.573333-8.96-16.64L512 197.76 482.773333 256l-57.386666-28.373333 56.106666-113.493334a33.92 33.92 0 0 1 61.013334 0l110.08 223.146667 246.186666 35.626667a34.133333 34.133333 0 0 1 18.56 59.093333l-177.92 173.653333 42.666667 245.12a34.133333 34.133333 0 0 1-49.28 36.053334L512 770.986667l-220.16 115.626666a33.066667 33.066667 0 0 1-16 4.053334z m29.653333-29.226667z m-42.666666-31.36z m626.56-392.96z m-754.56 0z m738.133333-50.986667z m-722.133333 0z" fill="#2c2c2c" /></svg>