<?xml version="1.0" standalone="no"?><!DOCTYPE svg PUBLIC "-//W3C//DTD SVG 1.1//EN" "http://www.w3.org/Graphics/SVG/1.1/DTD/svg11.dtd"><svg class="icon" width="48px" height="48.00px" viewBox="0 0 1024 1024" version="1.1" xmlns="http://www.w3.org/2000/svg"><path d="M672 708.053333m-181.333333 0a181.333333 181.333333 0 1 0 362.666666 0 181.333333 181.333333 0 1 0-362.666666 0Z" fill="#4169E1" /><path d="M380.373333 145.92m-42.666666 0a42.666667 42.666667 0 1 0 85.333333 0 42.666667 42.666667 0 1 0-85.333333 0Z" fill="#4169E1" /><path d="M827.306667 418.986667H196.693333v-128a130.773333 130.773333 0 0 1 125.226667-135.466667v64a66.986667 66.986667 0 0 0-61.226667 71.466667v64h502.613334v-64a66.986667 66.986667 0 0 0-61.226667-71.466667h-234.666667v-64h234.666667a130.773333 130.773333 0 0 1 125.226667 135.466667z" fill="#2c2c2c" /><path d="M789.333333 429.653333v309.333334a96.64 96.64 0 0 0-90.666666-65.92h-373.333334A96.64 96.64 0 0 0 234.666667 738.986667V429.866667h554.666666m5.973334-64H228.693333a61.44 61.44 0 0 0-58.026666 64v371.413333a34.133333 34.133333 0 0 0 32.213333 35.626667h58.026667a34.133333 34.133333 0 0 0 32.213333-35.626667v-28.586667a33.92 33.92 0 0 1 32.213333-35.626666h373.333334a33.92 33.92 0 0 1 32.213333 35.626666v28.586667a34.133333 34.133333 0 0 0 32.213333 35.626667h58.026667A34.133333 34.133333 0 0 0 853.333333 801.28V429.866667a61.44 61.44 0 0 0-58.026666-64z" fill="#2c2c2c" /></svg>