<?xml version="1.0" standalone="no"?><!DOCTYPE svg PUBLIC "-//W3C//DTD SVG 1.1//EN" "http://www.w3.org/Graphics/SVG/1.1/DTD/svg11.dtd"><svg class="icon" width="48px" height="48.00px" viewBox="0 0 1024 1024" version="1.1" xmlns="http://www.w3.org/2000/svg"><path d="M714.666667 655.146667m-191.36 0a191.36 191.36 0 1 0 382.72 0 191.36 191.36 0 1 0-382.72 0Z" fill="#4169E1" /><path d="M320.64 261.333333m-45.013333 0a45.013333 45.013333 0 1 0 90.026666 0 45.013333 45.013333 0 1 0-90.026666 0Z" fill="#4169E1" /><path d="M810.666667 859.946667h-178.346667a52.693333 52.693333 0 0 1-52.693333-52.48V597.333333H439.466667v209.92a52.48 52.48 0 0 1-52.48 52.48H209.493333a52.693333 52.693333 0 0 1-52.693333-52.48V472.533333a52.693333 52.693333 0 0 1 17.28-38.826666l103.253333-93.866667 42.666667 47.36-99.626667 90.453333v318.293334h155.093334v-209.706667A52.906667 52.906667 0 0 1 428.16 533.333333h162.986667a52.693333 52.693333 0 0 1 52.48 52.693334v209.706666h154.666666V477.653333L509.653333 215.04l-65.92 59.946667-42.666666-47.36 76.586666-69.546667a48 48 0 0 1 64 0l303.573334 275.626667a52.906667 52.906667 0 0 1 17.066666 38.826666v334.933334A52.48 52.48 0 0 1 810.666667 859.946667zM217.173333 481.066667z" fill="#2c2c2c" /></svg>