<?xml version="1.0" standalone="no"?><!DOCTYPE svg PUBLIC "-//W3C//DTD SVG 1.1//EN" "http://www.w3.org/Graphics/SVG/1.1/DTD/svg11.dtd"><svg class="icon" width="48px" height="48.00px" viewBox="0 0 1024 1024" version="1.1" xmlns="http://www.w3.org/2000/svg"><path d="M513.024 514.8672m-424.2944 0a424.2944 424.2944 0 1 0 848.5888 0 424.2944 424.2944 0 1 0-848.5888 0Z" fill="#FF5D50" /><path d="M697.7536 283.0848H294.9632c-37.9904 0-56.832 46.0288-29.8496 72.704L402.2272 491.008v213.8112a33.9456 33.9456 0 0 0 16.4352 29.0816l102.0416 61.4912c22.6304 13.6192 51.5072-2.6624 51.5072-29.0816V496.128l154.0096-139.1104c28.8768-26.0096 10.4448-73.9328-28.4672-73.9328z" fill="#FFDF99" /><path d="M712.1408 568.832h-77.1072c-16.9472 0-30.72-13.7728-30.72-30.72s13.7728-30.72 30.72-30.72h77.1072c16.9472 0 30.72 13.7728 30.72 30.72s-13.7728 30.72-30.72 30.72zM712.1408 663.6544h-77.1072c-16.9472 0-30.72-13.7728-30.72-30.72s13.7728-30.72 30.72-30.72h77.1072c16.9472 0 30.72 13.7728 30.72 30.72s-13.7728 30.72-30.72 30.72zM712.1408 758.4256h-77.1072c-16.9472 0-30.72-13.7728-30.72-30.72s13.7728-30.72 30.72-30.72h77.1072c16.9472 0 30.72 13.7728 30.72 30.72s-13.7728 30.72-30.72 30.72z" fill="#FFDF99" /></svg>