<?xml version="1.0" standalone="no"?><!DOCTYPE svg PUBLIC "-//W3C//DTD SVG 1.1//EN" "http://www.w3.org/Graphics/SVG/1.1/DTD/svg11.dtd"><svg class="icon" width="48px" height="48.00px" viewBox="0 0 1024 1024" version="1.1" xmlns="http://www.w3.org/2000/svg"><path d="M855.8592 940.8512c-15.4112 0-30.8224-5.9904-42.3424-17.9712l-174.1312-180.3264c-22.5792-23.3984-21.9136-60.672 1.4848-83.2512 23.3984-22.5792 60.672-21.9648 83.2512 1.4848l174.1312 180.3264c22.5792 23.3984 21.9136 60.672-1.4848 83.2512a58.74176 58.74176 0 0 1-40.9088 16.4864z" fill="#FFDF99" /><path d="M508.672 496.64m-418.5088 0a418.5088 418.5088 0 1 0 837.0176 0 418.5088 418.5088 0 1 0-837.0176 0Z" fill="#FF5D50" /><path d="M508.672 496.64m-248.32 0a248.32 248.32 0 1 0 496.64 0 248.32 248.32 0 1 0-496.64 0Z" fill="#FFDF99" /></svg>