<?xml version="1.0" standalone="no"?><!DOCTYPE svg PUBLIC "-//W3C//DTD SVG 1.1//EN" "http://www.w3.org/Graphics/SVG/1.1/DTD/svg11.dtd"><svg class="icon" width="48px" height="48.00px" viewBox="0 0 1024 1024" version="1.1" xmlns="http://www.w3.org/2000/svg"><path d="M893.164308 234.247877c96.897969 96.897969 96.897969 254.0032 0 350.901169l-4.6592 4.6592-44.354954 44.354954-6.329108 6.329108-9.948554 9.944615-6.896246 6.900185-7.081354 7.081354-7.246769 7.246769-18.640738 18.640738-19.105477 19.101539-1.92197 1.925907-32.405661 32.401723-9.735877 9.735877-9.511385 9.511385-6.183384 6.187323-14.820431 14.816492-8.357415 8.357416-49.014154 49.014154c-96.897969 96.897969-253.999262 96.897969-350.897231 0-96.897969-96.894031-96.897969-253.999262 0-350.897231l0.393846-0.393846 0.488369-0.48837 0.315077-0.315076 3.45797-3.45797 1.449353-1.453292 4.4032-4.4032 3.15077-3.150769 6.037661-6.033723 1.094892-1.098831 18.829785-18.825846 4.178708-4.182646 16.450954-16.447016 5.04123-5.041231 13.9776-13.981538 10.917416-10.913477 4.942769-4.946708 29.1328-29.128861 3.843938-3.843939 30.483693-30.483692 7.431877-7.435815 10.917415-10.917416 21.118031-21.11803 12.890584-12.890585 4.0448-4.040862 7.652431-7.656369 6.919877-6.915938 6.947446-6.951385 6.037662-6.037661 5.923446-5.919508 1.630523-1.630523 4.2496-4.253539 0.657723-0.657723 0.894031-0.894031 0.228431-0.224492 0.078769-0.078769c96.897969-96.897969 253.999262-96.897969 350.897231 0z m-422.053416 137.649231L368.364308 474.635815l-6.474831 6.47877-8.101415 8.097477-14.72197 14.721969-4.68283 4.686769-7.6288 7.6288-1.520247 1.520246-5.848615 5.848616c-78.493538 78.485662-78.493538 205.745231 0 284.230892 77.705846 77.705846 203.204923 78.481723 281.863877 2.331569l2.370954-2.331569 0.677415-0.677416 1.181539-1.181538 2.796307-2.796308 2.174031-2.17403 6.514215-6.514216 2.209477-2.213415 6.3488-6.344862 8.9088-8.912738 6.596923-6.596923 3.477662-3.477662 13.020554-13.020554 25.312492-25.308554 7.234954-7.238892 26.238031-26.230154 5.7344-5.738338 13.430154-13.434092 19.771077-19.771077c-66.831754-15.698708-130.244923-49.604923-182.35077-101.71077-52.176738-52.176738-86.106585-115.692308-101.7856-182.618584z m-87.587446 160.334769a23.638646 23.638646 0 0 1-3.257108 36.1472l0.2048-0.208739c-49.364677 49.368615-49.364677 129.406031 0 178.774647a127.094154 127.094154 0 0 0 18.266585 15.147323l-1.287877 1.287877a23.634708 23.634708 0 1 1-37.289354 28.341169 175.174892 175.174892 0 0 1-12.839384-11.630277c-67.674585-67.670646-67.674585-177.396185 0-245.074708 0.673477-0.669538 1.350892-1.339077 2.032246-2.000738a23.630769 23.630769 0 0 1 34.170092-0.787693z m194.268554-266.980431l-2.367015 2.327631-58.564923 58.564923-4.537108 4.537108c9.381415 69.884062 40.920615 137.338092 94.609723 191.0272 53.055015 53.058954 119.555938 84.48 188.549908 94.28283l5.616246-5.616246 9.578338-9.582277 2.197662-2.193723 6.364554-6.368492 6.01403-6.014031 14.72197-14.721969 7.825723-7.825723 1.910154-1.910154 3.359507-3.355569 0.740431-0.740431 3.190154-3.194092 1.457231-1.457231 0.897969-0.894031 0.129969-0.133907 0.1536-0.149662 0.019692-0.019692c78.4896-78.4896 78.4896-205.745231 0-284.234831-77.705846-77.705846-203.208862-78.481723-281.867815-2.327631z" fill="#4F8DFC" /><path d="M885.287385 183.047877c96.897969 96.897969 96.897969 254.0032 0 350.901169l-4.6592 4.6592-44.354954 44.354954-6.329108 6.329108-9.948554 9.944615-6.896246 6.900185-7.081354 7.081354-7.246769 7.246769-18.640738 18.640738-19.105477 19.101539-1.92197 1.925907-32.405661 32.401723-9.735877 9.735877-9.511385 9.511385-6.183384 6.187323-14.820431 14.816492-8.357415 8.357416-49.014154 49.014154c-96.897969 96.897969-253.999262 96.897969-350.897231 0-96.897969-96.894031-96.897969-253.999262 0-350.897231l0.393846-0.393846 0.488369-0.48837 0.315077-0.315076 3.457969-3.45797 1.449354-1.453292 4.4032-4.4032 3.15077-3.150769 6.037661-6.033723 1.094892-1.098831 18.829785-18.825846 4.178708-4.182646 16.450954-16.447016 5.04123-5.041231 13.9776-13.981538 10.917416-10.913477 4.942769-4.946708 29.1328-29.128861 3.843938-3.843939 30.483693-30.483692 7.431877-7.435815 10.917415-10.917416 21.118031-21.11803 12.890584-12.890585 4.0448-4.040862 7.652431-7.656369 6.919877-6.915938 6.947446-6.951385 6.037662-6.037661 5.923446-5.919508 1.630523-1.630523 4.2496-4.253539 0.657723-0.657723 0.894031-0.894031 0.228431-0.224492 0.078769-0.078769c96.897969-96.897969 253.999262-96.897969 350.897231 0z m-422.053416 137.649231L360.487385 423.435815l-6.474831 6.47877-8.101416 8.097477-14.721969 14.721969-4.682831 4.686769-7.6288 7.6288-1.520246 1.520246-5.848615 5.848616c-78.493538 78.485662-78.493538 205.745231 0 284.230892 77.705846 77.705846 203.204923 78.481723 281.863877 2.331569l2.370954-2.331569 0.677415-0.677416 1.181539-1.181538 2.796307-2.796308 2.174031-2.17403 6.514215-6.514216 2.209477-2.213415 6.3488-6.344862 8.9088-8.912738 6.596923-6.596923 3.477662-3.477662 13.020554-13.020554 25.312492-25.308554 7.234954-7.238892 26.238031-26.230154 5.7344-5.738338 13.430154-13.434092 19.771076-19.771077c-66.831754-15.698708-130.244923-49.604923-182.350769-101.71077-52.176738-52.176738-86.106585-115.692308-101.7856-182.618584z m-87.587446 160.334769a23.638646 23.638646 0 0 1-3.257108 36.1472l0.2048-0.208739c-49.364677 49.368615-49.364677 129.406031 0 178.774647a127.094154 127.094154 0 0 0 18.266585 15.147323l-1.287877 1.287877a23.634708 23.634708 0 1 1-37.289354 28.341169 175.174892 175.174892 0 0 1-12.839384-11.630277c-67.674585-67.670646-67.674585-177.396185 0-245.074708 0.673477-0.669538 1.350892-1.339077 2.032246-2.000738a23.630769 23.630769 0 0 1 34.170092-0.787693z m194.268554-266.980431l-2.367015 2.327631-58.564924 58.564923-4.537107 4.537108c9.381415 69.884062 40.920615 137.338092 94.609723 191.0272 53.055015 53.058954 119.555938 84.48 188.549908 94.28283l5.616246-5.616246 9.578338-9.582277 2.197662-2.193723 6.364554-6.368492 6.01403-6.014031 14.72197-14.721969 7.825723-7.825723 1.910153-1.910154 3.359508-3.355569 0.740431-0.740431 3.190154-3.194092 1.457231-1.457231 0.897969-0.894031 0.129969-0.133907 0.1536-0.149662 0.019692-0.019692c78.4896-78.4896 78.4896-205.745231 0-284.234831-77.705846-77.705846-203.208862-78.481723-281.867815-2.327631z" fill="#000000" /></svg>