<?xml version="1.0" standalone="no"?><!DOCTYPE svg PUBLIC "-//W3C//DTD SVG 1.1//EN" "http://www.w3.org/Graphics/SVG/1.1/DTD/svg11.dtd"><svg class="icon" width="48px" height="48.00px" viewBox="0 0 1024 1024" version="1.1" xmlns="http://www.w3.org/2000/svg"><path d="M891.8528 958.3104H508.0576v-140.9024h383.7952c36.3008 0 65.7408 29.44 65.7408 65.7408v9.3696c0 36.352-29.44 65.792-65.7408 65.792z" fill="#FFDF99" /><path d="M511.2832 512m-446.3104 0a446.3104 446.3104 0 1 0 892.6208 0 446.3104 446.3104 0 1 0-892.6208 0Z" fill="#FF5D50" /><path d="M511.2832 302.848m-95.6416 0a95.6416 95.6416 0 1 0 191.2832 0 95.6416 95.6416 0 1 0-191.2832 0Z" fill="#FFDF99" /><path d="M511.2832 677.8368m-95.6416 0a95.6416 95.6416 0 1 0 191.2832 0 95.6416 95.6416 0 1 0-191.2832 0Z" fill="#FFDF99" /><path d="M698.7776 490.3424m-95.6416 0a95.6416 95.6416 0 1 0 191.2832 0 95.6416 95.6416 0 1 0-191.2832 0Z" fill="#FFDF99" /><path d="M323.84 490.3424m-95.6416 0a95.6416 95.6416 0 1 0 191.2832 0 95.6416 95.6416 0 1 0-191.2832 0Z" fill="#FFDF99" /></svg>