<?xml version="1.0" standalone="no"?><!DOCTYPE svg PUBLIC "-//W3C//DTD SVG 1.1//EN" "http://www.w3.org/Graphics/SVG/1.1/DTD/svg11.dtd"><svg class="icon" width="48px" height="48.00px" viewBox="0 0 1024 1024" version="1.1" xmlns="http://www.w3.org/2000/svg"><path d="M819.2 865.28H204.8c-67.584 0-122.88-55.296-122.88-122.88V281.6c0-67.584 55.296-122.88 122.88-122.88h614.4c67.584 0 122.88 55.296 122.88 122.88v460.8c0 67.584-55.296 122.88-122.88 122.88zM204.8 199.68c-45.056 0-81.92 36.864-81.92 81.92v460.8c0 45.056 36.864 81.92 81.92 81.92h614.4c45.056 0 81.92-36.864 81.92-81.92V281.6c0-45.056-36.864-81.92-81.92-81.92H204.8z" fill="#181818" /><path d="M263.168 325.12H208.896c-11.264 0-20.48-9.216-20.48-20.48s9.216-20.48 20.48-20.48h54.784c11.264 0 20.48 9.216 20.48 20.48s-9.728 20.48-20.992 20.48zM263.168 394.24H208.896c-11.264 0-20.48-9.216-20.48-20.48s9.216-20.48 20.48-20.48h54.784c11.264 0 20.48 9.216 20.48 20.48s-9.728 20.48-20.992 20.48zM263.168 463.36H208.896c-11.264 0-20.48-9.216-20.48-20.48s9.216-20.48 20.48-20.48h54.784c11.264 0 20.48 9.216 20.48 20.48s-9.728 20.48-20.992 20.48zM263.168 532.48H208.896c-11.264 0-20.48-9.216-20.48-20.48s9.216-20.48 20.48-20.48h54.784c11.264 0 20.48 9.216 20.48 20.48s-9.728 20.48-20.992 20.48zM263.168 601.6H208.896c-11.264 0-20.48-9.216-20.48-20.48s9.216-20.48 20.48-20.48h54.784c11.264 0 20.48 9.216 20.48 20.48s-9.728 20.48-20.992 20.48zM263.168 670.72H208.896c-11.264 0-20.48-9.216-20.48-20.48s9.216-20.48 20.48-20.48h54.784c11.264 0 20.48 9.216 20.48 20.48s-9.728 20.48-20.992 20.48zM263.168 739.84H208.896c-11.264 0-20.48-9.216-20.48-20.48s9.216-20.48 20.48-20.48h54.784c11.264 0 20.48 9.216 20.48 20.48s-9.728 20.48-20.992 20.48zM593.408 308.224c112.64 0 203.776 91.136 203.776 203.776s-91.136 203.776-203.776 203.776S389.632 624.64 389.632 512s91.136-203.776 203.776-203.776m0-40.96c-135.168 0-244.736 109.568-244.736 244.736s109.568 244.736 244.736 244.736 244.736-109.568 244.736-244.736-110.08-244.736-244.736-244.736z" fill="#181818" /><path d="M593.408 512m-203.776 0a203.776 203.776 0 1 0 407.552 0 203.776 203.776 0 1 0-407.552 0Z" fill="#4F8DFC" /><path d="M593.408 349.184c89.6 0 162.816 73.216 162.816 162.816s-73.216 162.816-162.816 162.816-162.816-73.216-162.816-162.816 73.216-162.816 162.816-162.816m0-40.96c-112.64 0-203.776 91.136-203.776 203.776s91.136 203.776 203.776 203.776 203.776-91.136 203.776-203.776-91.136-203.776-203.776-203.776z" fill="#181818" /><path d="M593.408 532.48c-6.144 0-11.776-2.56-15.872-7.68-24.064-29.696-32.256-61.952-24.576-96.768 2.56-11.264 13.312-17.92 24.576-15.36 11.264 2.56 17.92 13.312 15.36 24.576-5.12 22.528 0 41.984 16.384 61.952 7.168 8.704 5.632 21.504-3.072 28.672-3.584 3.072-8.192 4.608-12.8 4.608z" fill="#181818" /><path d="M534.016 555.52c-8.192 0-16.384-1.024-24.576-2.56-11.264-2.56-17.92-13.312-15.36-24.576 2.56-11.264 13.312-17.92 24.576-15.36 22.528 5.12 41.984 0 61.952-16.384 8.704-7.168 21.504-5.632 28.672 3.072 7.168 8.704 5.632 21.504-3.072 28.672-22.528 17.92-46.592 27.136-72.192 27.136z" fill="#181818" /><path d="M613.888 611.84c-1.536 0-3.072 0-4.608-0.512-11.264-2.56-17.92-13.312-15.36-24.576 5.12-22.528 0-41.984-16.384-61.952-7.168-8.704-5.632-21.504 3.072-28.672 8.704-7.168 21.504-5.632 28.672 3.072 24.064 29.696 32.256 61.952 24.576 96.768-2.048 9.216-10.752 15.872-19.968 15.872z" fill="#181818" /><path d="M593.408 532.48c-6.144 0-11.776-2.56-15.872-7.68-7.168-8.704-5.632-21.504 3.072-28.672 29.696-24.064 61.952-32.256 96.768-24.576 11.264 2.56 17.92 13.312 15.36 24.576-2.56 11.264-13.312 17.92-24.576 15.36-22.528-5.12-41.984 0-61.952 16.384-3.584 3.072-8.192 4.608-12.8 4.608z" fill="#181818" /></svg>