<?xml version="1.0" standalone="no"?><!DOCTYPE svg PUBLIC "-//W3C//DTD SVG 1.1//EN" "http://www.w3.org/Graphics/SVG/1.1/DTD/svg11.dtd"><svg class="icon" width="48px" height="48.00px" viewBox="0 0 1024 1024" version="1.1" xmlns="http://www.w3.org/2000/svg"><path d="M733.184 237.568C718.848 317.44 660.992 391.68 604.16 463.872c-1.536 2.048-3.584 4.096-5.12 6.144l-1.536 2.048-7.168 9.216c-4.096 5.12-10.24 7.68-15.872 7.68-3.072 0-6.144-0.512-9.216-2.048-1.024-0.512-2.56-1.536-3.584-2.048-8.704-7.168-10.24-19.968-3.072-28.672l8.704-10.752c1.536-1.536 2.56-3.584 4.096-5.12 54.272-68.096 109.568-138.752 122.368-209.408 5.12-29.696-5.12-58.88-27.136-76.288-14.336-11.264-31.232-17.408-49.664-17.408h-199.68c-28.672 0-55.296 15.36-69.12 40.448-8.192 14.336-10.752 32.768-7.68 51.2C351.744 295.936 406.528 370.688 446.976 424.96c3.584 4.608 6.656 9.216 9.728 13.312 4.096 5.632 8.192 10.752 11.776 15.872 6.656 9.216 4.096 22.016-5.12 28.672-0.512 0.512-1.024 0.512-1.536 1.024-9.216 5.12-20.992 3.072-27.136-5.632-2.048-2.56-3.584-5.12-5.632-8.192-2.048-2.56-4.096-5.632-6.144-8.192-2.56-4.096-5.632-7.68-8.704-11.776-43.008-59.392-101.888-138.752-114.688-215.04-4.608-27.648 0-55.296 12.8-77.824 20.992-37.888 61.44-61.44 104.96-61.44h199.168c27.136 0 53.76 9.216 75.264 26.624 33.792 26.112 49.664 70.656 41.472 115.2z" fill="#181818" /><path d="M518.656 600.576c-1.536 3.072-2.56 6.144-4.096 9.216-1.536 3.072-3.072 6.144-4.096 9.728-2.048 4.096-4.096 8.704-6.144 13.312-4.096 9.216-8.192 18.944-12.8 29.184-27.648 61.44-64 134.144-115.2 176.64-21.504 17.92-48.128 27.648-73.728 28.16h-1.536c-43.008 0-82.432-23.04-103.936-59.904L97.28 633.856c-13.824-23.552-18.944-51.2-14.848-78.336 6.656-42.496 36.864-78.848 79.36-93.696 76.8-27.648 169.984-14.336 260.608-1.024 2.56 0.512 5.12 1.024 7.68 1.024l2.56 0.512 11.264 1.536c9.728 1.536 16.896 9.728 17.408 18.944v4.096c-1.536 11.264-12.288 18.944-23.04 17.408l-13.824-2.048c-2.048-0.512-4.608-0.512-6.656-1.024-86.528-12.8-174.592-25.6-242.688-1.024-28.16 10.24-48.64 33.792-52.736 61.44-2.56 17.92 0.512 35.84 9.728 51.712l99.84 172.544c14.336 24.576 40.448 39.424 68.608 39.424h1.024c16.896 0 33.792-6.656 48.64-18.944 52.736-43.008 89.6-128 116.736-190.464 2.048-5.12 4.608-10.24 6.656-14.848 3.072-6.144 5.632-12.288 8.192-17.92 4.608-10.24 16.896-14.848 27.136-10.24 0.512 0 1.024 0.512 1.536 0.512 4.608 2.56 7.68 6.656 9.216 11.264 1.536 5.12 1.536 10.752-1.024 15.872z" fill="#181818" /><path d="M922.624 641.536L822.784 814.08c-13.824 23.552-35.328 41.984-60.416 51.712-13.312 5.12-27.648 7.68-41.472 7.68-28.16 0-56.32-10.24-79.36-29.696-48.64-41.472-80.896-103.936-109.056-169.984-7.68-18.432-14.848-36.864-22.016-55.296l-3.072-7.68-1.024-2.048-4.096-10.752c-1.536-4.096-1.536-8.192-1.024-11.776 1.024-5.12 4.096-9.728 8.704-12.8 1.024-0.512 2.56-1.536 3.584-2.048 10.752-4.096 22.528 1.024 26.624 11.776l5.12 12.8c0.512 2.048 1.536 4.096 2.56 6.144 31.744 81.408 65.536 163.84 120.32 210.432 23.04 19.456 53.248 25.088 79.872 14.848 16.896-6.656 30.72-18.432 39.936-34.304l99.84-172.544c14.336-24.576 14.336-55.296-0.512-80.384-8.704-14.336-23.04-25.6-40.448-32.256-63.488-24.064-155.648-13.312-223.232-5.632-5.632 0.512-10.752 1.024-16.384 1.536-6.656 1.024-13.312 1.536-19.456 2.048-11.264 1.024-21.504-7.168-22.528-18.432v-1.536c0-10.24 7.68-19.456 18.432-20.48 3.072-0.512 6.656-0.512 9.728-1.024 3.584-0.512 6.656-0.512 10.24-1.024 4.608-0.512 9.728-1.024 14.848-1.536 71.68-8.192 169.472-18.944 242.176 8.192 26.112 9.728 48.128 27.648 61.44 49.664 22.016 37.888 22.528 84.48 0.512 121.856z" fill="#181818" /><path d="M606.72 504.32c-1.024-11.776-4.608-22.528-9.728-32.768-1.024-2.56-2.56-4.608-4.096-7.168-6.144-9.728-13.824-18.432-22.528-25.6-15.872-12.8-36.352-19.968-58.368-19.968-20.992 0-39.936 6.656-55.808 18.432-9.216 6.656-17.408 14.848-23.552 24.576-1.536 2.048-3.072 4.608-4.096 6.656-5.12 9.728-9.216 20.48-10.752 32.256-0.512 4.096-1.024 8.704-1.024 13.312 0 38.912 23.04 72.192 56.32 87.04 5.632 2.56 11.776 4.608 18.432 6.144 4.608 1.024 9.728 2.048 14.848 2.048h8.192c6.144 0 12.288-1.024 17.92-2.048 5.12-1.024 10.24-2.56 15.36-4.608 34.816-14.336 59.392-48.64 59.392-88.064 0.512-3.584 0-6.656-0.512-10.24zM512 568.832c-29.696 0-54.272-24.576-54.272-54.272s24.576-54.272 54.272-54.272c30.208 0 54.272 24.576 54.272 54.272 0.512 29.696-24.064 54.272-54.272 54.272z" fill="#181818" /><path d="M512.512 940.032c-11.264 0-20.48-9.216-20.48-20.48V604.16c0-11.264 9.216-20.48 20.48-20.48s20.48 9.216 20.48 20.48v314.88c0 11.776-9.216 20.992-20.48 20.992z" fill="#181818" /><path d="M693.248 229.888c-12.8 70.656-68.096 141.312-122.368 209.408-15.872-12.8-36.352-19.968-58.368-19.968-20.992 0-39.936 6.656-55.808 18.432-3.072-4.096-6.144-8.704-9.728-13.312-40.448-54.272-95.232-129.024-106.496-196.096-3.072-18.432-0.512-36.864 7.68-51.2 13.824-25.088 40.448-40.448 69.12-40.448h199.168c17.92 0 35.328 6.144 49.664 17.408 22.016 17.408 32.256 46.592 27.136 75.776z" fill="#4F8DFC" /><path d="M616.448 177.152c8.704 0 16.896 3.072 24.064 8.192 10.24 8.192 14.848 22.528 12.288 36.864-9.728 53.248-50.688 111.104-92.672 164.352-15.36-5.632-31.232-8.704-47.616-8.704-14.848 0-29.696 2.56-43.52 7.168-34.816-47.104-79.872-111.616-88.576-163.84-1.536-9.216-0.512-17.92 3.072-24.576 6.656-12.288 19.456-19.456 33.28-19.456h199.68m0-40.96H417.28c-28.672 0-55.296 15.36-69.12 40.448-8.192 14.336-10.752 32.768-7.68 51.2 11.264 67.072 66.048 141.824 106.496 196.096 3.584 4.608 6.656 9.216 9.728 13.312 15.872-11.264 34.816-18.432 55.808-18.432 22.016 0 42.496 7.68 58.368 19.968 54.272-68.096 109.568-138.752 122.368-209.408 5.12-29.696-5.12-58.88-27.136-76.288-14.336-10.752-31.232-16.896-49.664-16.896z" fill="#181818" /><path d="M887.296 621.056L787.456 793.6c-9.216 15.872-23.04 27.648-39.936 34.304-26.112 10.24-56.832 4.608-79.872-14.848-54.784-46.592-88.064-129.536-120.32-210.432 34.816-14.336 59.392-48.64 59.392-88.064 0-3.584 0-6.656-0.512-9.728 5.12-0.512 10.752-1.024 16.384-1.536 67.584-7.68 159.744-17.92 223.232 5.632 17.408 6.656 32.256 17.92 40.448 32.256 15.36 24.576 15.36 55.296 1.024 79.872z" fill="#4F8DFC" /><path d="M744.448 493.568v40.96c36.352 0 66.048 4.096 87.552 12.288 8.704 3.072 15.872 8.704 19.456 14.848 7.168 11.776 7.168 26.624 0.512 38.912L752.128 773.12c-4.608 7.68-10.752 13.312-19.456 16.384-3.584 1.536-7.68 2.048-11.776 2.048-9.216 0-18.432-3.584-26.112-10.24-40.96-34.816-70.656-99.328-95.744-162.304 24.064-19.968 40.96-47.616 47.104-78.336 30.208-3.584 65.536-6.656 98.304-6.656v-40.448m0 0c-41.984 0-84.992 5.12-120.832 8.704-5.632 0.512-10.752 1.024-16.384 1.536 0.512 3.072 0.512 6.656 0.512 9.728 0 39.936-24.576 74.24-59.392 88.064 31.744 81.408 65.536 163.84 120.32 210.432 15.36 12.8 34.304 19.968 52.736 19.968 9.216 0 18.432-1.536 27.136-5.12 16.896-6.656 30.72-18.432 39.936-34.304l99.84-172.544c14.336-24.576 14.336-55.296-0.512-80.384-8.704-14.336-23.04-25.6-40.448-32.256-30.72-9.728-66.56-13.824-102.912-13.824z" fill="#181818" /><path d="M473.6 601.6c-2.048 4.608-4.096 9.728-6.656 14.848-27.136 61.952-64 147.456-116.736 190.464-14.336 11.776-31.744 18.432-48.64 18.944h-1.024c-28.16 0-54.272-15.36-68.608-39.424l-99.84-172.544c-9.216-15.872-12.288-33.792-9.728-51.712 4.096-27.648 24.576-51.2 52.736-61.44 67.584-24.064 156.16-11.776 242.688 1.024-0.512 4.096-1.024 8.704-1.024 13.312 0.512 37.888 23.552 71.68 56.832 86.528z" fill="#4F8DFC" /><path d="M268.8 527.36c33.28 0 68.608 4.096 109.056 9.728 5.12 31.232 20.992 59.392 44.032 79.872-24.576 55.808-56.832 124.928-97.792 158.72-7.168 6.144-15.36 9.216-22.528 9.216h-1.536c-13.312-0.512-25.6-7.68-32.256-18.944l-99.84-172.544c-4.608-7.68-6.144-15.872-4.608-25.088 2.048-12.8 11.776-24.064 26.112-29.184 21.504-8.192 47.616-11.776 79.36-11.776m0-40.96c-33.792 0-65.024 3.584-93.184 13.824s-48.64 33.792-52.736 61.44c-2.56 17.92 0.512 35.84 9.728 51.712l99.84 172.544c14.336 24.576 40.448 39.424 68.608 39.424h1.024c16.896 0 33.792-6.656 48.64-18.944 52.736-43.008 89.6-128 116.736-190.464 2.048-5.12 4.608-10.24 6.656-14.848-33.28-14.848-56.32-48.128-56.32-87.04 0-4.608 0.512-8.704 1.024-13.312-51.2-7.168-102.4-14.336-150.016-14.336z" fill="#181818" /></svg>