<?xml version="1.0" standalone="no"?><!DOCTYPE svg PUBLIC "-//W3C//DTD SVG 1.1//EN" "http://www.w3.org/Graphics/SVG/1.1/DTD/svg11.dtd"><svg class="icon" width="48px" height="48.00px" viewBox="0 0 1024 1024" version="1.1" xmlns="http://www.w3.org/2000/svg"><path d="M922.624 412.16l-384-321.024c-7.68-6.144-16.896-9.728-26.112-9.728-9.216 0-18.432 3.072-26.112 9.216L92.16 416.768c-9.728 8.192-15.36 19.968-15.36 32.256V798.72c0 78.848 64.512 143.36 143.36 143.36H800.256c73.728-3.584 133.12-62.464 136.192-136.192V443.904c0.512-12.288-4.608-24.064-13.824-31.744zM798.72 901.12H220.16c-56.832 0-102.4-46.08-102.4-102.4V449.024L512 122.88l361.472 302.08 22.528 18.944v359.424c-2.56 52.736-44.544 95.232-97.28 97.792z" fill="#181818" /><path d="M873.472 424.96h-86.016c-22.528 0-40.96 18.432-40.96 40.96v67.584h-67.584c-22.528 0-40.96 18.432-40.96 40.96v67.584h-66.56c-22.528 0-40.96 18.432-40.96 40.96v67.584H462.848c-5.12 0-10.24 1.024-14.848 2.56-16.384 6.656-26.624 22.016-26.624 38.4V901.12H220.16c-56.832 0-102.4-46.08-102.4-102.4V449.024L512 122.88l361.472 302.08z" fill="#4F8DFC" /><path d="M512 176.128l252.928 210.944c-34.304 9.728-58.88 41.472-58.88 78.848v26.624h-26.624c-45.056 0-81.92 36.864-81.92 81.92v26.624h-25.6c-45.056 0-81.92 36.864-81.92 81.92v26.624h-26.112c-10.752 0-20.48 2.048-29.696 5.12-31.744 12.288-52.736 42.496-52.736 76.8V860.16H220.16c-33.792 0-61.44-27.648-61.44-61.44V467.968l353.28-291.84m0-53.248L117.76 449.024V798.72c0 56.32 45.568 102.4 102.4 102.4h201.216v-109.056c0-16.384 9.728-31.744 26.624-38.4 4.608-2.048 9.728-2.56 14.848-2.56h67.072v-67.584c0-22.528 18.432-40.96 40.96-40.96h66.56v-67.584c0-22.528 18.432-40.96 40.96-40.96h67.584V465.92c0-22.528 18.432-40.96 40.96-40.96h86.016L512 122.88z" fill="#181818" /><path d="M268.8 496.64m-30.72 0a30.72 30.72 0 1 0 61.44 0 30.72 30.72 0 1 0-61.44 0Z" fill="#181818" /><path d="M896 424.96h-108.544c-22.528 0-40.96 18.432-40.96 40.96v67.584h-67.584c-22.528 0-40.96 18.432-40.96 40.96v67.584h-66.56c-22.528 0-40.96 18.432-40.96 40.96v67.584H462.848c-5.12 0-10.24 1.024-14.848 2.56-16.384 6.656-26.624 22.016-26.624 38.4V901.12c0 22.528 18.432 40.96 40.96 40.96h337.92c73.728-3.584 132.608-62.976 136.192-136.192V465.92c0.512-22.528-17.92-40.96-40.448-40.96z m0 373.248v5.12c-2.56 52.736-45.056 94.72-97.792 97.28H462.848v-109.056h108.544v-108.544h107.52v-108.544h108.544V465.92H896v332.288z" fill="#181818" /></svg>