<?xml version="1.0" standalone="no"?><!DOCTYPE svg PUBLIC "-//W3C//DTD SVG 1.1//EN" "http://www.w3.org/Graphics/SVG/1.1/DTD/svg11.dtd"><svg class="icon" width="48px" height="48.00px" viewBox="0 0 1024 1024" version="1.1" xmlns="http://www.w3.org/2000/svg"><path d="M783.36 185.856c56.32 0 102.4 46.08 102.4 102.4v255.488c0 56.32-46.08 102.4-102.4 102.4H199.68c-56.32 0-102.4-46.08-102.4-102.4V288.256c0-56.32 46.08-102.4 102.4-102.4h583.68m0-40.96H199.68c-78.848 0-143.36 64.512-143.36 143.36v255.488c0 78.848 64.512 143.36 143.36 143.36h583.68c78.848 0 143.36-64.512 143.36-143.36V288.256c0-78.848-64.512-143.36-143.36-143.36zM491.52 886.272c-11.264 0-20.48-9.216-20.48-20.48v-81.92c0-11.264 9.216-20.48 20.48-20.48s20.48 9.216 20.48 20.48v81.92c0 11.264-9.216 20.48-20.48 20.48zM799.232 859.136c-5.632 0-11.776-2.56-15.872-7.168l-52.736-62.976c-7.168-8.704-6.144-21.504 2.56-28.672 8.704-7.168 21.504-6.144 28.672 2.56l52.736 62.976c7.168 8.704 6.144 21.504-2.56 28.672-3.072 3.072-7.68 4.608-12.8 4.608zM183.808 859.136c-4.608 0-9.216-1.536-13.312-4.608-8.704-7.168-9.728-19.968-2.56-28.672L220.672 762.88c7.168-8.704 19.968-9.728 28.672-2.56 8.704 7.168 9.728 19.968 2.56 28.672l-52.736 62.976c-4.096 4.608-9.728 7.168-15.36 7.168z" fill="#181818" /><path d="M783.36 646.144H199.68c-56.32 0-102.4-46.08-102.4-102.4V288.256c0-56.32 46.08-102.4 102.4-102.4h583.68c56.32 0 102.4 46.08 102.4 102.4v255.488c0 56.832-46.08 102.4-102.4 102.4z" fill="#4F8DFC" /><path d="M783.36 226.816c33.792 0 61.44 27.648 61.44 61.44v255.488c0 33.792-27.648 61.44-61.44 61.44H199.68c-33.792 0-61.44-27.648-61.44-61.44V288.256c0-33.792 27.648-61.44 61.44-61.44h583.68m0-40.96H199.68c-56.32 0-102.4 46.08-102.4 102.4v255.488c0 56.32 46.08 102.4 102.4 102.4h583.68c56.32 0 102.4-46.08 102.4-102.4V288.256c0-56.32-46.08-102.4-102.4-102.4z" fill="#181818" /><path d="M652.8 532.992h-322.56c-11.264 0-20.48-9.216-20.48-20.48s9.216-20.48 20.48-20.48h322.56c11.264 0 20.48 9.216 20.48 20.48s-9.216 20.48-20.48 20.48z" fill="#181818" /></svg>