<?xml version="1.0" standalone="no"?><!DOCTYPE svg PUBLIC "-//W3C//DTD SVG 1.1//EN" "http://www.w3.org/Graphics/SVG/1.1/DTD/svg11.dtd"><svg class="icon" width="48px" height="48.00px" viewBox="0 0 1024 1024" version="1.1" xmlns="http://www.w3.org/2000/svg"><path d="M870.4 223.744H153.6c-11.264 0-20.48 9.216-20.48 20.48v409.6c0 67.584 55.296 122.88 122.88 122.88h512c67.584 0 122.88-55.296 122.88-122.88v-409.6c0-11.264-9.216-20.48-20.48-20.48z m-20.48 430.08c0 45.056-36.864 81.92-81.92 81.92H256c-45.056 0-81.92-36.864-81.92-81.92v-389.12h675.84v389.12z" fill="#181818" /><path d="M941.056 240.64c0 11.264-9.216 20.48-20.48 20.48h-819.2c-11.264 0-20.48-9.216-20.48-20.48s9.216-20.48 20.48-20.48h819.2c11.264 0 20.48 9.216 20.48 20.48zM237.056 922.624c-5.12 0-10.24-2.048-14.336-6.144-8.192-8.192-8.192-20.992 0-29.184L280.576 829.44c8.192-8.192 20.992-8.192 29.184 0 8.192 8.192 8.192 20.992 0 29.184L251.392 916.48c-4.096 4.096-9.216 6.144-14.336 6.144zM400.384 922.624c-5.12 0-10.24-2.048-14.336-6.144-8.192-8.192-8.192-20.992 0-29.184L443.904 829.44c8.192-8.192 20.992-8.192 29.184 0 8.192 8.192 8.192 20.992 0 29.184L414.72 916.48c-4.096 4.096-9.216 6.144-14.336 6.144zM563.2 922.624c-5.12 0-10.24-2.048-14.336-6.144-8.192-8.192-8.192-20.992 0-29.184l57.856-57.856c8.192-8.192 20.992-8.192 29.184 0 8.192 8.192 8.192 20.992 0 29.184L578.048 916.48c-4.096 4.096-9.216 6.144-14.848 6.144zM726.528 922.624c-5.12 0-10.24-2.048-14.336-6.144-8.192-8.192-8.192-20.992 0-29.184l57.856-57.856c8.192-8.192 20.992-8.192 29.184 0 8.192 8.192 8.192 20.992 0 29.184L740.864 916.48c-3.584 4.096-9.216 6.144-14.336 6.144z" fill="#181818" /><path d="M572.416 264.704c-3.584 0-6.656-1.024-10.24-2.56-9.728-5.632-13.312-17.92-7.68-27.648 5.12-9.216 7.68-19.456 7.68-30.208 0-34.304-27.648-61.952-61.952-61.952-34.304 0-61.952 27.648-61.952 61.952 0 10.752 2.56 20.992 7.68 30.208 5.632 9.728 2.048 22.528-7.68 27.648-9.728 5.632-22.528 2.048-27.648-7.68-8.704-15.36-13.312-32.768-13.312-50.176 0-56.832 46.08-102.912 102.912-102.912 56.832 0 102.912 46.08 102.912 102.912 0 17.408-4.608 34.816-13.312 50.176-3.584 6.656-10.24 10.24-17.408 10.24z" fill="#181818" /><path d="M849.92 264.704v389.12c0 45.056-36.864 81.92-81.92 81.92H256c-45.056 0-81.92-36.864-81.92-81.92v-389.12h675.84z" fill="#4F8DFC" /><path d="M808.96 305.664v348.16c0 22.528-18.432 40.96-40.96 40.96H256c-22.528 0-40.96-18.432-40.96-40.96v-348.16h593.92m40.96-40.96H174.08v389.12c0 45.056 36.864 81.92 81.92 81.92h512c45.056 0 81.92-36.864 81.92-81.92v-389.12z" fill="#181818" /><path d="M696.32 627.2h-48.64c-11.264 0-20.48-9.216-20.48-20.48s9.216-20.48 20.48-20.48h48.64c11.264 0 20.48 9.216 20.48 20.48s-8.704 20.48-20.48 20.48z" fill="#181818" /></svg>