<?xml version="1.0" standalone="no"?><!DOCTYPE svg PUBLIC "-//W3C//DTD SVG 1.1//EN" "http://www.w3.org/Graphics/SVG/1.1/DTD/svg11.dtd"><svg class="icon" width="48px" height="48.00px" viewBox="0 0 1024 1024" version="1.1" xmlns="http://www.w3.org/2000/svg"><path d="M942.08 446.976c0-20.48-1.536-40.96-4.608-61.44-1.536-10.24-10.24-17.408-20.48-17.408H106.496c-10.24 0-18.944 7.68-20.48 17.408-3.072 19.968-4.096 40.448-4.096 61.44 0 174.592 104.448 329.728 262.656 396.288-4.608 8.192-6.656 17.408-6.656 27.136 0 31.232 25.088 56.32 56.32 56.32h235.52c14.848 0 29.184-5.632 39.936-16.384 10.752-10.752 16.384-24.576 16.384-39.936 0-9.728-2.56-18.944-6.656-27.136 158.208-66.56 262.656-221.696 262.656-396.288z m-307.2 369.664c-8.704 2.56-14.848 10.24-14.848 19.968 0 9.216 6.144 16.896 14.848 19.456 6.144 2.048 10.752 8.192 10.752 14.336 0 4.096-1.536 7.68-4.608 10.752-3.072 3.072-6.656 4.608-10.752 4.608H394.24c-8.704 0-15.36-7.168-15.36-15.36 0-4.096 1.536-8.192 4.608-10.752 1.536-1.536 3.584-3.072 6.144-3.584 3.072-1.024 5.632-2.56 7.68-4.608 7.168-6.656 8.704-16.896 4.096-25.6-2.56-4.608-7.168-8.192-12.288-9.728-159.232-52.736-266.24-201.216-266.24-369.152 0-12.8 0.512-25.6 1.536-37.888h774.656c1.024 12.8 2.048 25.6 2.048 37.888 0 168.448-107.008 316.416-266.24 369.664zM629.248 255.488c-11.264 0-20.48-9.216-20.48-20.48 0-53.248-43.52-96.768-96.768-96.768s-96.768 43.52-96.768 96.768c0 11.264-9.216 20.48-20.48 20.48s-20.48-9.216-20.48-20.48C374.272 159.232 436.224 97.28 512 97.28s137.728 61.952 137.728 137.728c0 11.264-9.216 20.48-20.48 20.48z" fill="#181818" /><path d="M174.08 334.336c-8.192 0-16.384-5.12-19.456-13.312-12.8-34.816-10.752-72.192 4.608-105.472 15.36-33.28 43.008-58.88 77.824-71.168 71.68-26.112 150.528 10.752 176.64 82.432 4.096 10.752-1.536 22.528-12.288 26.112-10.752 4.096-22.528-1.536-26.112-12.288-18.432-50.176-74.24-76.288-124.416-57.856-24.576 8.704-43.52 26.624-54.784 50.176s-12.288 49.664-3.072 74.24c4.096 10.752-1.536 22.528-12.288 26.112-2.048 0.512-4.608 1.024-6.656 1.024zM849.92 334.336c-2.56 0-4.608-0.512-7.168-1.024-10.752-4.096-15.872-15.872-12.288-26.112 18.432-50.176-7.68-105.984-57.856-124.416-24.576-8.704-50.688-7.68-74.24 3.072s-41.472 30.208-50.176 54.784c-4.096 10.752-15.872 15.872-26.112 12.288-10.752-4.096-15.872-15.872-12.288-26.112 12.8-34.816 37.888-62.464 71.168-77.824s70.656-17.408 105.472-4.608c71.68 26.112 108.544 105.472 82.432 176.64-2.56 8.192-10.24 13.312-18.944 13.312z" fill="#181818" /><path d="M620.032 836.096c0 9.216 6.144 16.896 14.848 19.456 6.144 2.048 10.752 8.192 10.752 14.336 0 4.096-1.536 7.68-4.608 10.752-3.072 3.072-6.656 4.608-10.752 4.608H394.24c-8.704 0-15.36-7.168-15.36-15.36 0-4.096 1.536-8.192 4.608-10.752 1.536-1.536 3.584-3.072 6.144-3.584 3.072-1.024 5.632-2.56 7.68-4.608 7.168-6.656 8.704-16.896 4.096-25.6-2.56-4.608-7.168-8.192-12.288-9.728C229.888 762.88 122.88 614.4 122.88 446.464c0-12.8 0.512-25.6 1.536-37.888h774.656c1.024 12.8 2.048 25.6 2.048 37.888 0 167.936-107.008 316.416-266.24 369.152-8.704 3.072-14.848 11.264-14.848 20.48z" fill="#4F8DFC" /><path d="M860.16 450.048c-1.024 148.992-96.256 280.064-237.568 327.168-25.6 7.68-43.52 31.744-43.52 58.88 0 3.072 0 5.632 0.512 8.704H444.416c2.048-13.312-0.512-26.624-7.68-38.912v-0.512c-7.68-13.312-20.48-23.552-35.328-28.16C260.096 730.112 164.864 599.04 163.84 450.048h696.32m38.912-40.96H124.928c-1.024 12.288-1.536 25.088-1.536 37.888 0 167.936 107.008 316.416 266.24 369.152 5.12 1.536 9.216 4.608 12.288 9.728 4.608 8.192 3.072 18.944-4.096 25.6-2.56 2.048-5.12 3.584-7.68 4.608-2.048 1.024-4.096 2.048-6.144 3.584-3.072 3.072-4.608 6.656-4.608 10.752 0 8.192 6.656 15.36 15.36 15.36h235.52c4.096 0 8.192-1.536 10.752-4.608 3.072-3.072 4.608-6.656 4.608-10.752 0-6.656-4.096-12.288-10.752-14.336-8.704-2.56-14.848-10.24-14.848-19.456 0-9.216 6.144-17.408 14.848-19.968 159.232-52.736 266.24-201.216 266.24-369.152 0-12.8-0.512-25.6-2.048-38.4z" fill="#181818" /><path d="M660.48 714.752c-6.656 0-13.824-3.584-17.408-9.728-5.632-9.728-3.072-22.016 6.656-28.16 16.384-9.728 30.72-22.016 43.008-36.864 7.168-8.704 20.48-9.728 28.672-2.048 8.704 7.168 9.728 20.48 2.048 28.672-15.36 17.92-33.28 32.768-52.736 45.056-3.072 2.048-6.656 3.072-10.24 3.072z" fill="#181818" /></svg>