<?xml version="1.0" standalone="no"?><!DOCTYPE svg PUBLIC "-//W3C//DTD SVG 1.1//EN" "http://www.w3.org/Graphics/SVG/1.1/DTD/svg11.dtd"><svg class="icon" width="48px" height="48.00px" viewBox="0 0 1024 1024" version="1.1" xmlns="http://www.w3.org/2000/svg"><path d="M819.2 820.224H204.8c-67.584 0-122.88-55.296-122.88-122.88v-141.824c0-11.264 9.216-20.48 20.48-20.48s20.48 9.216 20.48 20.48v141.824c0 45.056 36.864 81.92 81.92 81.92h614.4c45.056 0 81.92-36.864 81.92-81.92v-141.824c0-11.264 9.216-20.48 20.48-20.48s20.48 9.216 20.48 20.48v141.824c0 67.584-55.296 122.88-122.88 122.88z" fill="#181818" /><path d="M696.32 154.624c56.32 0 102.4 46.08 102.4 102.4v401.92H225.28V257.024c0-56.32 46.08-102.4 102.4-102.4h368.64m0-40.96H327.68c-78.848 0-143.36 64.512-143.36 143.36v401.92c0 22.528 18.432 40.96 40.96 40.96h573.44c22.528 0 40.96-18.432 40.96-40.96V257.024c0-79.36-64.512-143.36-143.36-143.36z" fill="#181818" /><path d="M102.4 679.424c-11.264 0-20.48-9.216-20.48-20.48V504.32c0-39.424 32.256-71.68 71.68-71.68s71.68 32.256 71.68 71.68c0 11.264-9.216 20.48-20.48 20.48s-20.48-9.216-20.48-20.48c0-16.896-13.824-30.72-30.72-30.72s-30.72 13.824-30.72 30.72v154.624c0 11.264-9.216 20.48-20.48 20.48zM921.6 679.424c-11.264 0-20.48-9.216-20.48-20.48V504.32c0-16.896-13.824-30.72-30.72-30.72s-30.72 13.824-30.72 30.72c0 11.264-9.216 20.48-20.48 20.48s-20.48-9.216-20.48-20.48c0-39.424 32.256-71.68 71.68-71.68s71.68 32.256 71.68 71.68v154.624c0 11.264-9.216 20.48-20.48 20.48zM204.8 944.128c-11.264 0-20.48-9.216-20.48-20.48v-124.416c0-11.264 9.216-20.48 20.48-20.48s20.48 9.216 20.48 20.48v124.416c0 11.264-9.216 20.48-20.48 20.48zM819.2 944.128c-11.264 0-20.48-9.216-20.48-20.48v-124.416c0-11.264 9.216-20.48 20.48-20.48s20.48 9.216 20.48 20.48v124.416c0 11.264-9.216 20.48-20.48 20.48z" fill="#181818" /><path d="M798.72 658.432H225.28V257.024c0-56.32 46.08-102.4 102.4-102.4h368.64c56.32 0 102.4 46.08 102.4 102.4v401.408z" fill="#4F8DFC" /><path d="M696.32 195.584c33.792 0 61.44 27.648 61.44 61.44v360.96H266.24V257.024c0-33.792 27.648-61.44 61.44-61.44h368.64m0-40.96H327.68c-56.32 0-102.4 46.08-102.4 102.4v401.92h573.44V257.024c0-56.832-46.08-102.4-102.4-102.4z" fill="#181818" /></svg>