<?xml version="1.0" standalone="no"?><!DOCTYPE svg PUBLIC "-//W3C//DTD SVG 1.1//EN" "http://www.w3.org/Graphics/SVG/1.1/DTD/svg11.dtd"><svg class="icon" width="48px" height="48.00px" viewBox="0 0 1024 1024" version="1.1" xmlns="http://www.w3.org/2000/svg"><path d="M819.2 257.024V337.92c0 9.728-6.656 17.92-15.872 19.968-0.512 0-1.024 0.512-2.048 0.512h-3.072c-11.264 0-20.48-9.216-20.48-20.48V257.024c0-45.056-36.864-81.92-81.92-81.92H327.68c-45.056 0-81.92 36.864-81.92 81.92v81.408c0 11.264-9.216 20.48-20.48 20.48-1.536 0-2.56 0-4.096-0.512-9.216-2.048-16.384-10.24-16.384-19.968V257.024c0-67.584 55.296-122.88 122.88-122.88h368.64c67.584 0 122.88 54.784 122.88 122.88zM307.2 944.128c-11.264 0-20.48-9.216-20.48-20.48v-124.416c0-11.264 9.216-20.48 20.48-20.48s20.48 9.216 20.48 20.48v124.416c0 11.264-9.216 20.48-20.48 20.48zM716.288 944.128c-11.264 0-20.48-9.216-20.48-20.48v-124.416c0-11.264 9.216-20.48 20.48-20.48s20.48 9.216 20.48 20.48v124.416c0 11.264-9.216 20.48-20.48 20.48z" fill="#181818" /><path d="M798.72 358.4c-11.264 0-20.48-9.216-20.48-20.48v-15.36c-48.128 16.896-82.432 62.464-82.432 116.736v183.808H327.68v-184.32c0-53.248-34.304-98.816-81.92-115.712v15.36c0 11.264-9.216 20.48-20.48 20.48-1.536 0-2.56 0-4.096-0.512C258.56 366.08 286.72 399.36 286.72 439.296v204.288c0 11.264 9.216 20.48 20.48 20.48h409.088c11.264 0 20.48-9.216 20.48-20.48v-204.8c0-39.424 27.648-72.192 65.024-80.384h-3.072z m20.48-42.496c-14.848 0-28.16 2.56-40.96 6.656-48.128 16.896-82.432 62.464-82.432 116.736v183.808H327.68v-184.32c0-53.248-34.304-98.816-81.92-115.712-12.8-4.608-26.624-7.168-40.96-7.168-67.584 0-122.88 55.296-122.88 122.88 0 60.928 44.544 111.616 102.4 121.344v137.216c0 67.584 43.52 122.88 97.28 122.88h460.8c53.76 0 97.28-55.296 97.28-122.88v-137.728c57.856-10.24 101.888-60.416 101.888-120.832 0-67.584-54.784-122.88-122.368-122.88z m-0.512 204.8c-5.632 0-11.264 2.56-14.848 6.656-4.096 4.096-6.144 9.728-5.632 15.36l0.512 8.704v146.432c0 44.544-25.6 81.92-56.32 81.92H281.6c-30.72 0-56.32-37.376-56.32-81.92v-156.16c0-11.264-9.216-20.48-20.48-20.48-45.056 0-81.92-36.864-81.92-81.92s36.864-81.92 81.92-81.92c5.632 0 11.264 0.512 16.384 1.536 37.376 7.68 65.536 40.96 65.536 80.896v204.288c0 11.264 9.216 20.48 20.48 20.48h409.088c11.264 0 20.48-9.216 20.48-20.48v-204.8c0-39.424 27.648-72.192 65.024-80.384 0.512 0 1.024 0 2.048-0.512 5.12-1.024 10.24-1.536 15.36-1.536 45.056 0 81.92 36.864 81.92 81.92-0.512 45.056-37.376 81.92-82.432 81.92z" fill="#181818" /><path d="M778.24 257.024V322.56c-48.128 16.896-82.432 62.464-82.432 116.736v183.808H327.68v-184.32c0-53.248-34.304-98.816-81.92-115.712V257.024c0-45.056 36.864-81.92 81.92-81.92h368.64c45.056 0 81.92 36.352 81.92 81.92z" fill="#4F8DFC" /><path d="M696.32 216.064c22.528 0 40.96 18.432 40.96 40.96v39.424c-50.176 28.672-82.432 82.944-82.432 142.848v142.848H368.64v-143.36c0-58.88-31.744-113.152-81.92-141.824v-39.936c0-22.528 18.432-40.96 40.96-40.96h368.64m0-40.96H327.68c-45.056 0-81.92 36.864-81.92 81.92V322.56c47.616 16.896 81.92 62.464 81.92 115.712v184.32h368.128V438.784c0-53.76 34.304-99.84 82.432-116.224V257.024c0-45.568-36.864-81.92-81.92-81.92z" fill="#181818" /></svg>