<?xml version="1.0" standalone="no"?><!DOCTYPE svg PUBLIC "-//W3C//DTD SVG 1.1//EN" "http://www.w3.org/Graphics/SVG/1.1/DTD/svg11.dtd"><svg class="icon" width="48px" height="48.00px" viewBox="0 0 1024 1024" version="1.1" xmlns="http://www.w3.org/2000/svg"><path d="M274.432 532.48c-11.264 0-20.48-9.216-20.48-20.48V357.888c0-11.264 9.216-20.48 20.48-20.48s20.48 9.216 20.48 20.48V512c0 11.264-9.216 20.48-20.48 20.48z" fill="#181818" /><path d="M901.12 152.064c-94.72 98.816-88.064 201.216 0 307.2H278.528c-86.016 0-155.648-68.608-155.648-153.6s69.632-153.6 155.648-153.6H901.12m0-40.96H278.528c-108.544 0-196.608 87.04-196.608 194.56s88.064 194.56 196.608 194.56H901.12c15.872 0 30.208-9.216 36.864-23.552 6.656-14.336 4.608-31.232-5.632-43.52-78.336-94.208-78.848-172.032-2.048-252.928 11.264-11.776 14.336-29.184 8.192-44.544-6.144-14.848-20.992-24.576-37.376-24.576z m0 81.92zM745.472 595.456c86.016 0 155.648 68.608 155.648 153.6s-69.632 153.6-155.648 153.6H122.88c88.064-105.984 94.72-208.384 0-307.2h622.592m0-40.96H122.88c-16.384 0-31.232 9.728-37.888 25.088-6.656 14.848-3.072 32.768 8.192 44.544 77.312 80.384 76.288 158.208-2.048 252.928-10.24 12.288-12.288 29.184-5.632 43.52 6.656 14.336 20.992 23.552 36.864 23.552h622.592c108.544 0 196.608-87.04 196.608-194.56 0.512-107.52-87.552-195.072-196.096-195.072z" fill="#181818" /><path d="M124.928 902.656H747.52c86.016 0 155.648-68.608 155.648-153.6s-69.632-153.6-155.648-153.6H124.928c94.72 98.816 88.064 201.216 0 307.2z" fill="#4F8DFC" /><path d="M747.52 636.416c63.488 0 114.688 50.688 114.688 112.64s-51.2 112.64-114.688 112.64H202.752c47.616-89.088 36.352-164.864 3.584-225.28H747.52m0-40.96H124.928c94.72 98.816 88.064 201.216 0 307.2H747.52c86.016 0 155.648-68.608 155.648-153.6s-69.632-153.6-155.648-153.6z" fill="#181818" /></svg>