<?xml version="1.0" standalone="no"?><!DOCTYPE svg PUBLIC "-//W3C//DTD SVG 1.1//EN" "http://www.w3.org/Graphics/SVG/1.1/DTD/svg11.dtd"><svg class="icon" width="48px" height="48.00px" viewBox="0 0 1024 1024" version="1.1" xmlns="http://www.w3.org/2000/svg"><path d="M898.56 122.88v721.408c-124.928 6.144-255.488 13.824-389.12 56.832-113.664-41.984-245.76-45.056-389.12-56.832V122.88c131.072 12.8 261.12 38.4 389.12 76.288 126.464-37.376 256-62.976 389.12-76.288m-778.24-40.96c-10.24 0-19.968 3.584-27.648 10.752-8.704 7.68-13.312 18.944-13.312 30.208v721.408c0 21.504 16.384 38.912 37.888 40.96 23.04 2.048 46.08 3.584 68.608 5.12 113.152 8.192 219.648 15.872 309.76 49.152 4.608 1.536 9.216 2.56 14.336 2.56 4.096 0 8.192-0.512 12.288-2.048 133.632-42.496 269.312-49.664 378.88-54.784 22.016-1.024 38.912-18.944 38.912-40.96V122.88c0-11.776-5.12-22.528-13.312-30.208-7.68-6.656-17.408-10.752-27.648-10.752h-4.096c-130.048 13.312-259.584 38.4-385.024 74.752C384 120.32 254.464 95.232 124.416 81.92h-4.096z" fill="#181818" /><path d="M120.32 123.904c123.904 12.288 246.784 35.84 368.128 70.144l0.512 544.768c-109.056-37.376-233.472-58.88-368.64-69.632V123.904m0-40.96c-10.24 0-19.968 3.584-27.648 10.752-8.704 7.68-13.312 18.944-13.312 30.208v545.28c0 21.504 16.384 38.912 37.888 40.96 142.336 11.264 259.584 33.792 358.4 67.584 4.608 1.536 8.704 2.048 13.312 2.048 8.192 0 16.896-2.56 23.552-7.68 10.752-7.68 17.408-19.968 17.408-33.28l-0.512-544.768c0-18.432-12.288-34.304-29.696-39.424-122.368-34.816-248.832-59.392-375.296-71.68h-4.096z" fill="#181818" /><path d="M898.56 123.904v545.28c-118.784 5.632-242.688 31.744-369.152 71.168V194.56c119.808-34.304 243.2-58.368 369.152-70.656m0-40.96h-4.096c-127.488 12.8-253.952 37.376-376.32 72.192-17.408 5.12-29.696 20.992-29.696 39.424v545.792c0 12.8 6.144 25.088 16.896 32.768 7.168 5.12 15.872 8.192 24.064 8.192 4.096 0 8.192-0.512 12.288-2.048 133.12-40.96 250.368-64 359.424-69.12 22.016-1.024 38.912-18.944 38.912-40.96V123.904c0-11.776-5.12-22.528-13.312-30.208-8.192-7.168-17.92-10.752-28.16-10.752z" fill="#181818" /><path d="M488.96 737.792c-109.056-37.376-233.472-58.88-368.64-69.632V122.368c123.904 12.288 246.784 35.84 368.128 70.144l0.512 545.28z" fill="#4F8DFC" /><path d="M161.28 168.448c96.256 11.776 192.512 30.208 286.208 55.808l0.512 457.728c-83.456-24.064-178.176-40.96-286.72-51.712V168.448m-40.96-46.08v545.28c135.168 10.752 259.584 32.256 368.64 69.632l-0.512-544.256c-121.344-34.816-244.224-58.368-368.128-70.656z" fill="#181818" /><path d="M529.408 193.536c119.808-34.304 243.2-57.856 369.152-70.656v545.28c-118.784 5.632-242.688 31.744-369.152 71.168V193.536z" fill="#4F8DFC" /><path d="M857.6 168.448V629.76c-89.6 7.168-184.32 25.6-287.232 54.272V224.256c93.696-25.088 190.464-44.032 287.232-55.808m40.96-46.08c-125.952 12.8-249.344 36.352-369.152 70.656v545.792c126.976-39.424 250.368-65.024 369.152-71.168V122.368z" fill="#181818" /></svg>