<?xml version="1.0" standalone="no"?><!DOCTYPE svg PUBLIC "-//W3C//DTD SVG 1.1//EN" "http://www.w3.org/Graphics/SVG/1.1/DTD/svg11.dtd"><svg class="icon" width="48px" height="48.00px" viewBox="0 0 1024 1024" version="1.1" xmlns="http://www.w3.org/2000/svg"><path d="M582.08 944h-140.16a16 16 0 0 1-16-16v-89.92c0-47.456 38.624-86.08 86.08-86.08s86.08 38.624 86.08 86.08V928a16 16 0 0 1-16 16z m-124.16-32h108.16v-73.92c0-29.824-24.256-54.08-54.08-54.08s-54.08 24.288-54.08 54.08v73.92zM384.96 552h-96a16 16 0 0 1-16-16v-96a16 16 0 0 1 16-16h96a16 16 0 0 1 16 16v96a16 16 0 0 1-16 16z m-80-32h64v-64h-64v64zM560 552h-96a16 16 0 0 1-16-16v-96a16 16 0 0 1 16-16h96a16 16 0 0 1 16 16v96a16 16 0 0 1-16 16z m-80-32h64v-64h-64v64zM735.04 552h-96a16 16 0 0 1-16-16v-96a16 16 0 0 1 16-16h96a16 16 0 0 1 16 16v96a16 16 0 0 1-16 16z m-80-32h64v-64h-64v64zM384.96 716h-96a16 16 0 0 1-16-16v-96a16 16 0 0 1 16-16h96a16 16 0 0 1 16 16v96a16 16 0 0 1-16 16z m-80-32h64v-64h-64v64zM560 716h-96a16 16 0 0 1-16-16v-96a16 16 0 0 1 16-16h96a16 16 0 0 1 16 16v96a16 16 0 0 1-16 16z m-80-32h64v-64h-64v64zM735.04 716h-96a16 16 0 0 1-16-16v-96a16 16 0 0 1 16-16h96a16 16 0 0 1 16 16v96a16 16 0 0 1-16 16z m-80-32h64v-64h-64v64z" fill="#FC9F42" /><path d="M923.456 944h-832a16 16 0 0 1 0-32h832a16 16 0 0 1 0 32z" fill="#304763" /><path d="M832 944H192a16 16 0 0 1-16-16V352a16 16 0 0 1 16-16h640a16 16 0 0 1 16 16v576a16 16 0 0 1-16 16z m-624-32h608v-544h-608v544z" fill="#304763" /><path d="M832 368H192a16 16 0 0 1-14.144-23.488l67.872-128a16.064 16.064 0 0 1 14.144-8.512H764.16c5.92 0 11.36 3.296 14.144 8.512l67.872 128A15.968 15.968 0 0 1 832 368z m-613.408-32h586.816l-50.88-96H269.472l-50.88 96z" fill="#304763" /><path d="M512 240a16 16 0 0 1-16-16V96a16 16 0 0 1 32 0v128a16 16 0 0 1-16 16z" fill="#304763" /><path d="M640 176h-128a16 16 0 0 1-16-16V96a16 16 0 0 1 16-16h128a16 16 0 0 1 16 16v64a16 16 0 0 1-16 16z m-112-32h96v-32h-96v32z" fill="#304763" /></svg>