<?xml version="1.0" standalone="no"?><!DOCTYPE svg PUBLIC "-//W3C//DTD SVG 1.1//EN" "http://www.w3.org/Graphics/SVG/1.1/DTD/svg11.dtd"><svg class="icon" width="48px" height="48.00px" viewBox="0 0 1024 1024" version="1.1" xmlns="http://www.w3.org/2000/svg"><path d="M427.8 679.2h-57.5c-28.9 0-52.4 23.5-52.4 52.4h113.9c-2-17.6-3.3-37.6-4-52.4zM344.7 367.1c10 32.5 35.1 56.3 65.4 63.5 6.3 1.5 12.9 2.3 19.5 2.3 38.6 0 72.9-26.6 84.9-65.9l25.5-83.3c-15.1-6.8-31.9-10.8-49.7-10.8-32.1 0-52.4 27.6-95.2 25.5-16.1-0.8-46.5 0.7-68.3 8.1 0 0 3.5 12.6 8.2 29l9.7 31.6z" fill="#FF9E3D" /><path d="M629.6 460.1c-99.6 0-180.3 98.1-180.3 219.1s80.7 219 180.3 219 180.3-98.1 180.3-219.1-80.8-219-180.3-219z m-91.5 197.3c-20 0-36.1-9.9-36.1-22.2 0-12.2 16.2-22.2 36.1-22.2 20 0 36.1 9.9 36.1 22.2 0 12.2-16.1 22.2-36.1 22.2z m80.3 125c-24.4 0-44.2-12.1-44.2-27.1 0-15 19.8-27.1 44.2-27.1s44.2 12.1 44.2 27.1c-0.1 15-19.8 27.1-44.2 27.1z m80.3-125c-20 0-36.1-9.9-36.1-22.2 0-12.2 16.2-22.2 36.1-22.2 20 0 36.1 9.9 36.1 22.2 0 12.2-16.2 22.2-36.1 22.2z" fill="#009370" /><path d="M490.4 273.1c-3.3 0-6.4 0.5-9.6 1 12.4 1.5 24.2 4.9 35.1 9.8l-25.5 83.3c-10.8 35.2-39.4 60-73 64.8 4 0.6 8.1 1 12.3 1 38.6 0 72.9-26.6 84.9-65.9l25.5-83.3c-15.2-6.7-31.9-10.7-49.7-10.7z" fill="#FF7F15" /><path d="M418.9 478.4c4.7-0.5 8.1-4.8 7.5-9.5-0.5-4.7-4.8-8.1-9.5-7.5-4.7 0.5-8.1 4.8-7.5 9.5s4.8 8 9.5 7.5zM435.4 510.7c-0.5-4.7-4.8-8.1-9.5-7.5-4.4 0.5-7.6 4.2-7.6 8.5-0.7 0-1.4 0-2.1 0.1-8.3 1-14.2 8.4-13.3 16.7s8.4 14.2 16.7 13.3c8.3-1 14.2-8.4 13.3-16.7-0.2-2.1-0.9-4.1-1.9-5.8 3-1.7 4.8-5 4.4-8.6z" fill="#FFE67D" /><path d="M699.9 477.4c52.4 38.3 87.6 107.9 87.6 187.6 0 121-80.7 219.1-180.3 219.1-25 0-48.7-6.2-70.3-17.3 27.1 19.8 58.8 31.4 92.7 31.4 99.6 0 180.3-98.1 180.3-219.1 0-90.6-45.4-168.4-110-201.7z" fill="#007C56" /><path d="M759.8 519c-37.7-43.1-87.9-66.9-141.4-66.9-43.4 0-84.6 15.6-118.8 44.6-12.5-14.1-28.6-25.1-46.8-31.2h-0.1c-0.3-0.2-0.7-0.3-1-0.4-0.3-0.1-1.1-0.5-1.8-0.8-3.4-1.9-5.5-5.5-5.5-9.4 0-4.6 2.9-8.7 7.2-10.2 0.4-0.1 0.7-0.3 1-0.4h0.1c32.4-10.9 58.1-36.8 68.8-69.3l58.1-177.1c2.5-7.6 1.2-15.6-3.5-22.1-4.7-6.5-11.9-10.2-19.9-10.2H279.6c-8 0-15.3 3.7-19.9 10.2-4.7 6.5-5.9 14.5-3.5 22.1l47.2 143.9 10.9 33.2c10.7 32.7 36.6 58.6 69.1 69.5 0.6 0.2 2.2 1.1 3.6 2 2.6 2 4.2 5.1 4.2 8.5 0 3.3-1.5 6.3-4 8.3-1.5 0.9-3.3 1.9-3.8 2.1-32.6 10.8-58.5 36.8-69.2 69.5L256.1 712c-1.8 5.4-1.6 11.1 0.3 16.3h-22.8c-4.4 0-8 3.6-8 8s3.6 8 8 8H427c9.3 35.6 26.2 68.2 49.8 95.2 37.7 43.1 87.9 66.9 141.4 66.9s103.7-23.8 141.4-66.9c37.4-42.8 58.1-99.7 58.1-160.2S797.2 561.8 759.8 519z m-19.8 2.3c0.9 0.9 1.8 1.8 2.7 2.8l-5.2 3.5 2.5-6.3z m-241.8-1.5l3.2 7.8-6.5-4.4c1.1-1.1 2.2-2.3 3.3-3.4zM303.7 291.3l-32.3-98.4c-0.9-2.7-0.4-5.5 1.2-7.7 1.6-2.3 4.2-3.6 7-3.6h276.6c2.8 0 5.3 1.3 7 3.6 1.6 2.3 2.1 5.1 1.2 7.7L537.8 274c-16.6-5.9-33.8-8.9-51.2-8.9-19.7 0-41.6 6.4-65.1 19-70.5-15.1-115.2 5.9-117.1 6.8-0.2 0.1-0.4 0.2-0.7 0.4z m4.9 14.7c1-0.1 2-0.3 2.9-0.8 0.4-0.2 34.2-16.1 89.1-8.7-12.2 8.1-21.9 15.7-27.4 20.1-18.9 15-36.3 19.9-55.9 15.7l-8.7-26.3z m44.6 422.1h-73.6c-2.8 0-5.3-1.3-7-3.6-1.6-2.3-2.1-5.1-1.2-7.7l58.1-177.1c9.1-27.9 31.2-50 59.1-59.3 0.8-0.3 1.7-0.7 2.6-1.1 0.2-0.1 0.4-0.1 0.6-0.2 9.4-4.4 15.5-13.9 15.5-24.3 0-8.4-3.9-16.2-10.5-21.2-0.1-0.1-0.2-0.2-0.3-0.2-0.6-0.4-1.2-0.9-1.8-1.3l-1.2-0.6c-1.6-0.9-3.4-1.9-4.9-2.3-27.8-9.3-49.9-31.4-59.1-59.3l-6.7-20.5c2.4 0.2 4.8 0.4 7.2 0.4 18.2 0 35.7-6.8 53.1-20.6 15-11.9 60.7-48.2 103.5-48.2 15.7 0 31.2 2.7 46.2 8.1l-26.5 80.7c-9.1 27.7-31 49.8-58.7 59.2-0.4 0.1-0.7 0.3-1.1 0.5-0.1 0-0.1 0-0.2 0.1-10.7 3.7-18 13.9-18 25.3 0 9.8 5.3 18.7 13.9 23.5 0.1 0 0.2 0.1 0.2 0.1 0.6 0.3 2.6 1.3 4.2 1.8 0.3 0.1 0.6 0.3 0.9 0.4 15.6 5.3 29.5 14.7 40.1 26.8-3.7 3.7-7.3 7.5-10.9 11.5-37.4 42.8-58.1 99.7-58.1 160.2 0 16.7 1.6 33.1 4.6 49h-70z m145.6 111l-2.8-2.8 5.4-3.7-2.6 6.5z m240.7-1.5l-2-5 4.2 2.8c-0.8 0.7-1.5 1.4-2.2 2.2z m12.8-14.3l-27.7-18.6c-2.9-2-6.8-1.8-9.5 0.4s-3.7 6-2.4 9.2l14.2 34.9c-30.4 25.8-68 41-108.6 41-39.9 0-76.9-14.7-107-39.7l14.7-36.2c1.3-3.3 0.4-7-2.4-9.2-2.7-2.2-6.6-2.4-9.5-0.4l-29 19.5c-31.2-37.8-50.3-88.9-50.3-145 0-55.5 18.7-106.1 49.3-143.8l30 20.2c1.4 0.9 2.9 1.4 4.5 1.4 1.8 0 3.6-0.6 5-1.8 2.7-2.2 3.7-6 2.4-9.2l-15.1-37c-0.1-0.2-0.2-0.3-0.2-0.5 30.2-25.3 67.4-40.2 107.6-40.2 40.9 0 78.6 15.4 109.1 41.5l-14.8 36.3c-1.3 3.3-0.4 7 2.4 9.2 1.5 1.2 3.3 1.8 5 1.8 1.6 0 3.1-0.5 4.5-1.4l28.6-19.3c30.1 37.6 48.6 87.8 48.6 142.9 0.2 55.5-18.7 106.2-49.4 144z" fill="#003D3D" /><path d="M582.2 635.2c0-16.9-19.4-30.2-44.1-30.2S494 618.3 494 635.2s19.4 30.2 44.1 30.2 44.1-13.3 44.1-30.2z m-44.1 14.2c-16.1 0-28.1-7.5-28.1-14.2 0-6.7 12-14.2 28.1-14.2s28.1 7.5 28.1 14.2c0 6.7-12 14.2-28.1 14.2zM698.7 605c-24.7 0-44.1 13.3-44.1 30.2s19.4 30.2 44.1 30.2 44.1-13.3 44.1-30.2-19.4-30.2-44.1-30.2z m0 44.4c-16.1 0-28.1-7.5-28.1-14.2 0-6.7 12-14.2 28.1-14.2s28.1 7.5 28.1 14.2c0 6.7-12 14.2-28.1 14.2zM618.4 720.2c-29.2 0-52.2 15.4-52.2 35.1s22.9 35.1 52.2 35.1 52.2-15.4 52.2-35.1-23-35.1-52.2-35.1z m0 54.2c-21.3 0-36.2-10.1-36.2-19.1 0-9 14.8-19.1 36.2-19.1s36.2 10.1 36.2 19.1c-0.1 9.1-14.9 19.1-36.2 19.1z" fill="#003D3D" /><path d="M486.9 704.8h0.7c5.5-0.4 9.7-5.2 9.3-10.7-0.3-4.3-0.2-6.5 0.4-9 1.3-5.4-2-10.8-7.4-12-5.4-1.3-10.8 2-12 7.4-1.2 5.2-1.3 9.6-0.9 15 0.3 5.3 4.7 9.3 9.9 9.3zM508.3 750.2c-2.1-3.7-7.8-15.5-8.5-25.1-0.4-5.5-5.2-9.7-10.7-9.3-5.5 0.4-9.7 5.2-9.3 10.7 1.1 16.2 10.7 33 11.1 33.7 1.8 3.2 5.2 5 8.7 5 1.7 0 3.4-0.4 5-1.3 4.8-2.8 6.5-8.9 3.7-13.7z" fill="#FFFFFF" /></svg>