<?xml version="1.0" standalone="no"?><!DOCTYPE svg PUBLIC "-//W3C//DTD SVG 1.1//EN" "http://www.w3.org/Graphics/SVG/1.1/DTD/svg11.dtd"><svg class="icon" width="48px" height="48.00px" viewBox="0 0 1024 1024" version="1.1" xmlns="http://www.w3.org/2000/svg"><path d="M747.072 571.04l158.384 158.4-176.048 176.048-158.384-158.4z" fill="#2DE0C7" /><path d="M806.08 353.6l-67.84 67.84a48 48 0 0 1-67.84 0l-67.84-67.84a48 48 0 0 1 0-67.84l67.84-67.84a48 48 0 0 1 67.84 0l67.84 67.84a48 48 0 0 1 0 67.84zM421.44 738.24l-67.84 67.84a48 48 0 0 1-67.84 0l-67.84-67.84a48 48 0 0 1 0-67.84l67.84-67.84a48 48 0 0 1 67.84 0l67.84 67.84a48 48 0 0 1 0 67.84zM665.12 562.56l-102.56 102.56a55.52 55.52 0 0 1-78.4 0l-125.28-125.28a55.52 55.52 0 0 1 0-78.4l102.56-102.56a55.52 55.52 0 0 1 78.4 0l125.28 125.28a55.52 55.52 0 0 1 0 78.4z" fill="#FFE5C0" /><path d="M766.08 313.6l-67.84 67.84a48 48 0 0 1-67.84 0l-27.84-27.84a48 48 0 0 1 0-67.84l67.84-67.84a48 48 0 0 1 67.84 0l27.84 27.84a48 48 0 0 1 0 67.84zM381.44 698.24l-67.84 67.84a48 48 0 0 1-67.84 0l-27.84-27.84a48 48 0 0 1 0-67.84l67.84-67.84a48 48 0 0 1 67.84 0l27.84 27.84a48 48 0 0 1 0 67.84zM625.12 522.56l-102.56 102.56a55.52 55.52 0 0 1-78.4 0l-85.28-85.28a55.52 55.52 0 0 1 0-78.4l102.56-102.56a55.52 55.52 0 0 1 78.4 0l85.28 85.28a55.52 55.52 0 0 1 0 78.4z" fill="#FEF5E3" /><path d="M569.024 70.992l78.848 78.864-113.12 113.12-78.88-78.848zM118.512 294.592L294.544 118.544l158.4 158.4L276.896 452.96z" fill="#2DE0C7" /><path d="M270.56 347.36l-49.6 49.6-102.4-102.4 152-152a144.8 144.8 0 0 1 0 204.8zM723.04 795.36l-49.6 49.6-102.4-102.4 152-152a144.8 144.8 0 0 1 0 204.8z" fill="#93E6D9" /><path d="M823.76 552.24l-74.224-74.224 113.136-113.136 74.224 74.224zM184.144 455.904l78.848 78.864-113.12 113.12-78.88-78.848zM447.04 944.944l-82.128-82.144 113.12-113.136 82.144 82.144z" fill="#2DE0C7" /><path d="M398.944 512l113.12-113.136L625.232 512l-113.136 113.136z" fill="#6163AA" /><path d="M496 577.12l-16 16L398.88 512 496 414.88a114.72 114.72 0 0 1 0 162.24z" fill="#898EC9" /><path d="M704 451.52c-34.24 0-44.16-17.6-113.12-86.56a64 64 0 0 1 0-90.56l67.84-67.84a64 64 0 0 1 90.56 0l67.84 67.84a64 64 0 0 1 0 90.56C752 430.88 739.68 451.52 704 451.52z m-90.56-154.56a32 32 0 0 0 0 45.28l68 68a32 32 0 0 0 45.28 0l67.84-68a32 32 0 0 0 0-45.28c-103.36-103.52-77.12-103.52-180.8 0zM320 836.16c-29.28 0-43.04-16-56.96-30.4a16 16 0 0 1 22.72-22.72l11.68 11.68a32 32 0 0 0 45.12 0l67.84-68a32 32 0 0 0 0-45.12l-67.84-67.84a32 32 0 0 0-45.12 0c-67.84 67.68-77.44 71.68-77.44 90.4 0 16 10.4 23.36 21.28 34.24a16 16 0 0 1-22.72 22.72c-14.56-14.72-30.56-28.16-30.56-56.96 0-34.72 18.88-45.12 86.72-113.12a64 64 0 0 1 90.56 0l67.84 67.84a64 64 0 0 1 0 90.56C368 814.88 354.88 836.16 320 836.16zM523.36 697.28c-39.2 0-50.56-20.8-130.72-100.96A16 16 0 0 1 416 573.6l80 80a39.52 39.52 0 0 0 55.84 0l102.4-102.56a39.36 39.36 0 0 0 0-55.68L528 370.24a39.52 39.52 0 0 0-55.84 0l-102.4 102.56a39.36 39.36 0 0 0 0 55.68 16 16 0 0 1-22.56 22.88 71.84 71.84 0 0 1 0-101.12l102.56-102.72a72 72 0 0 1 101.12 0l125.28 125.28a71.68 71.68 0 0 1 0 100.96c-106.24 106.56-113.92 123.52-152.8 123.52z" fill="#35214C" /><path d="M602.56 437.44a16 16 0 0 1-11.36-27.2l33.92-34.08a16 16 0 0 1 22.72 22.72c-36.96 36.8-36.64 38.56-45.28 38.56zM387.52 652.48a16 16 0 0 1-11.36-27.36L410.24 592a16 16 0 0 1 22.56 22.56c-36.8 36.16-36.64 37.92-45.28 37.92zM625.12 256c-8.8 0-9.12-2.56-45.28-38.56a16 16 0 0 1 22.72-22.72l33.92 33.92a16 16 0 0 1-11.36 27.36z" fill="#35214C" /><path d="M534.56 279.04c-9.44 0-6.24 0-90.08-83.52a16 16 0 0 1 0-22.56C566.24 51.2 560 55.04 568.96 55.04s6.24 0 90.08 83.68a16 16 0 0 1 0 22.56c-121.92 121.92-115.04 117.76-124.48 117.76z m-56.16-94.88L534.56 240l90.56-90.56-56.16-55.68zM276.96 468.96c-9.44 0 2.08 8.64-169.76-163.04a16 16 0 0 1 0-22.72l49.44-49.44A16 16 0 0 1 179.36 256l-38.24 38.56 135.84 135.84 153.44-153.44-135.84-135.84L224 211.36a16 16 0 0 1-22.72-22.72L283.2 107.2a16 16 0 0 1 22.72 0c171.84 171.84 163.04 160 163.04 169.76S480 272.8 288 464a16 16 0 0 1-11.04 4.96zM729.44 921.44c-9.44 0 2.08 8.8-169.76-163.04A16 16 0 0 1 560 736l33.6-33.6a16 16 0 0 1 22.4 22.4l-22.4 22.24 135.84 135.84 153.44-153.44-135.84-135.84-86.24 86.4a16 16 0 0 1-22.72-22.72L736 560a16 16 0 0 1 22.72 0l158.4 158.4a16 16 0 0 1 0 22.72C725.28 932.16 738.88 921.44 729.44 921.44zM806.08 437.44c-8.8 0-8.96-2.4-45.12-38.56A16 16 0 0 1 784 376.16l33.92 34.08a16 16 0 0 1-11.84 27.2z" fill="#35214C" /><path d="M823.84 568.16c-9.12 0-5.6 0.96-85.6-78.72a16 16 0 0 1 0-22.72l113.12-113.12a16 16 0 0 1 22.72 0c80 80 78.88 76.32 78.88 85.44s-3.2 9.76-39.04 45.76a16 16 0 0 1-22.72-22.72l23.04-23.04-51.52-51.52-90.56 90.56 51.68 51.52 22.24-22.4a16 16 0 0 1 22.72 22.72c-35.68 35.68-36.8 38.24-44.96 38.24zM240 641.12c-8.8 0-9.12-2.4-45.28-38.56a16 16 0 0 1 22.72-22.72l33.92 33.92a16 16 0 0 1-11.36 27.36z" fill="#35214C" /><path d="M149.92 663.84c-9.44 0-6.24 0-90.08-83.68a16 16 0 0 1 0-22.56l113.12-113.12a16 16 0 0 1 22.56 0l78.88 78.88a16 16 0 0 1 0 22.56c-121.92 121.92-114.4 117.92-124.48 117.92z m-56.16-94.88l56.16 56.16L240 534.56l-55.84-56.16zM421.44 822.08c-8.8 0-9.12-2.4-45.28-38.56a16 16 0 0 1 22.72-22.56l33.92 33.92a16 16 0 0 1-11.36 27.2z" fill="#35214C" /><path d="M447.04 960.96c-9.12 0-5.6 0.96-93.44-86.88a16 16 0 0 1 0-22.72l113.12-113.12a16 16 0 0 1 22.72 0l82.08 82.24a16 16 0 0 1 0 22.56c-121.92 121.92-115.04 117.92-124.48 117.92z m-59.52-98.24l59.52 59.52L537.6 832l-59.52-59.68zM410.24 426.24c-8.96 0-7.36-0.8-56.64-50.08a16 16 0 0 1 22.56-22.56l45.28 45.28a16 16 0 0 1-11.2 27.36zM659.04 675.04c-8.8 0-7.36 0-56.48-49.92a16 16 0 0 1 22.56-22.56l45.28 45.28a16 16 0 0 1-11.36 27.2zM512 641.12a16 16 0 0 1-11.36-4.64l-113.12-113.12a16 16 0 0 1 0-22.72l113.12-113.12a16 16 0 0 1 22.72 0l58.08 58.08a16 16 0 0 1-22.72 22.72L512 421.44 421.44 512 512 602.56 602.56 512a16 16 0 0 1 23.84-21.44l10.08 10.08a16 16 0 0 1 0 22.72c-121.92 121.92-115.2 117.76-124.48 117.76z" fill="#35214C" /><path d="M749.6 336c-8.8 0-7.36-0.8-56.64-49.92a16 16 0 0 1 22.72-22.72l45.28 45.28a16 16 0 0 1-11.36 27.36zM704 380.96c-8.8 0-7.36 0-56.48-49.92a16 16 0 0 1 22.56-22.72l45.28 45.28a16 16 0 0 1-11.36 27.36zM364.96 720c-8.8 0-7.36 0-56.64-49.92a16 16 0 0 1 22.72-22.56l45.12 45.12a16 16 0 0 1-11.2 27.36zM320 765.6c-8.8 0-7.36-0.8-56.64-49.92a16 16 0 0 1 22.72-22.72l45.28 45.28a16 16 0 0 1-11.36 27.36z" fill="#898EC9" /></svg>