<?xml version="1.0" standalone="no"?><!DOCTYPE svg PUBLIC "-//W3C//DTD SVG 1.1//EN" "http://www.w3.org/Graphics/SVG/1.1/DTD/svg11.dtd"><svg class="icon" width="48px" height="48.00px" viewBox="0 0 1024 1024" version="1.1" xmlns="http://www.w3.org/2000/svg"><path d="M140.074 925.925c-23.25 0.13-42.21-18.6-42.34-41.86a42.078 42.078 0 0 1 12.45-30.13l178.49-178.49c15.13-17.66 41.7-19.71 59.36-4.58 17.66 15.13 19.71 41.71 4.58 59.36a42.14 42.14 0 0 1-4.58 4.58l-178.49 178.49a42.096 42.096 0 0 1-29.47 12.63z m684.5-428.97l-297.63-297.63-327.52 327.52 297.63 297.63 327.52-327.52z" fill="#9B1967" /><path d="M526.944 199.325l297.63 297.63-80.41 80.41-297.63-297.63 80.41-80.41z m-238.27 477.38l-80.41 80.41 59.36 59.36 80.41-80.41c17.66-15.12 19.71-41.7 4.58-59.36-15.13-17.66-41.7-19.71-59.36-4.58a42.14 42.14 0 0 0-4.58 4.58z" fill="#7F165A" /><path d="M779.954 571.465l-327.52-327.52c-41.15-41.05-41.24-107.68-0.19-148.84l0.19-0.19c41.05-41.15 107.68-41.23 148.84-0.19 0.06 0.07 0.13 0.13 0.19 0.19l327.52 327.52c41.15 41.05 41.24 107.68 0.19 148.84l-0.19 0.19c-41.05 41.15-107.68 41.23-148.84 0.19l-0.19-0.19z m-208.39 357.4c41.15-41.05 41.24-107.68 0.19-148.84l-0.19-0.19-327.52-327.52c-41.05-41.15-107.68-41.23-148.84-0.19-0.06 0.07-0.13 0.13-0.19 0.19-41.15 41.05-41.24 107.68-0.19 148.84l0.19 0.19 327.52 327.52c40.93 41.27 107.57 41.54 148.83 0.61 0.06-0.07 0.13-0.13 0.19-0.19v-0.42z" fill="#D1026C" /></svg>