<?xml version="1.0" standalone="no"?><!DOCTYPE svg PUBLIC "-//W3C//DTD SVG 1.1//EN" "http://www.w3.org/Graphics/SVG/1.1/DTD/svg11.dtd"><svg class="icon" width="48px" height="48.00px" viewBox="0 0 1024 1024" version="1.1" xmlns="http://www.w3.org/2000/svg"><path d="M685.653333 701.226667m-181.333333 0a181.333333 181.333333 0 1 0 362.666667 0 181.333333 181.333333 0 1 0-362.666667 0Z" fill="#4169E1" /><path d="M393.813333 128m-42.666666 0a42.666667 42.666667 0 1 0 85.333333 0 42.666667 42.666667 0 1 0-85.333333 0Z" fill="#2c2c2c" /><path d="M688.853333 868.906667H331.946667A96.426667 96.426667 0 0 1 234.666667 772.693333V271.573333a96.426667 96.426667 0 0 1 96.426666-96.213333v64A32.426667 32.426667 0 0 0 298.666667 271.573333v501.12a32.426667 32.426667 0 0 0 32.426666 32.213334h357.76a32.426667 32.426667 0 0 0 32.426667-32.213334V271.573333a32.426667 32.426667 0 0 0-32.426667-32.213333h-234.666666v-64h234.666666a96.426667 96.426667 0 0 1 96.426667 96.213333v501.12a96.426667 96.426667 0 0 1-96.426667 96.213334z" fill="#2c2c2c" /><path d="M267.52 392.533333h485.76v64H267.52zM346.24 302.506667h65.066667v64h-65.066667zM346.24 482.346667h65.066667v64h-65.066667z" fill="#2c2c2c" /></svg>