<?xml version="1.0" standalone="no"?><!DOCTYPE svg PUBLIC "-//W3C//DTD SVG 1.1//EN" "http://www.w3.org/Graphics/SVG/1.1/DTD/svg11.dtd"><svg class="icon" width="48px" height="48.00px" viewBox="0 0 1024 1024" version="1.1" xmlns="http://www.w3.org/2000/svg"><path d="M810.73 901.12L527.58 790.35a42.75 42.75 0 0 0-31.16 0L213.27 901.12a21.39 21.39 0 0 1-29.17-19.91V292.29a21.91 21.91 0 0 1 21.9-21.92h612a21.91 21.91 0 0 1 21.92 21.92v588.92a21.39 21.39 0 0 1-29.19 19.91z" fill="#4169E1" /><path d="M267.2 370.28m0.99 0l487.61 0q0.99 0 0.99 0.99l0 62.16q0 0.99-0.99 0.99l-487.61 0q-0.99 0-0.99-0.99l0-62.16q0-0.99 0.99-0.99Z" fill="#2F3240" /><path d="M267.2 500.75m0.99 0l487.61 0q0.99 0 0.99 0.99l0 62.16q0 0.99-0.99 0.99l-487.61 0q-0.99 0-0.99-0.99l0-62.16q0-0.99 0.99-0.99Z" fill="#2F3240" /><path d="M267.2 631.21m0.99 0l320.83 0q0.99 0 0.99 0.99l0 62.16q0 0.99-0.99 0.99l-320.83 0q-0.99 0-0.99-0.99l0-62.16q0-0.99 0.99-0.99Z" fill="#2F3240" /><path d="M184.1 121.39m1 0l653.8 0q1 0 1 1l0 72.47q0 1-1 1l-653.8 0q-1 0-1-1l0-72.47q0-1 1-1Z" fill="#4169E1" /></svg>