<?xml version="1.0" standalone="no"?><!DOCTYPE svg PUBLIC "-//W3C//DTD SVG 1.1//EN" "http://www.w3.org/Graphics/SVG/1.1/DTD/svg11.dtd"><svg class="icon" width="48px" height="48.00px" viewBox="0 0 1024 1024" version="1.1" xmlns="http://www.w3.org/2000/svg"><path d="M122.82 122.82m1 0l326.74 0q1 0 1 1l0 326.74q0 1-1 1l-326.74 0q-1 0-1-1l0-326.74q0-1 1-1Z" fill="#4169E1" /><path d="M572.43 572.43m1 0l326.74 0q1 0 1 1l0 326.74q0 1-1 1l-326.74 0q-1 0-1-1l0-326.74q0-1 1-1Z" fill="#4169E1" /><path d="M506.69 779.16H374.87a130.18 130.18 0 0 1-130-130V517.32h65.75v131.81a64.35 64.35 0 0 0 64.28 64.28h131.79zM779.16 506.68h-65.75V374.87a64.35 64.35 0 0 0-64.28-64.28H517.31v-65.75h131.82a130.18 130.18 0 0 1 130 130z" fill="#2F3240" /></svg>