<?xml version="1.0" standalone="no"?><!DOCTYPE svg PUBLIC "-//W3C//DTD SVG 1.1//EN" "http://www.w3.org/Graphics/SVG/1.1/DTD/svg11.dtd"><svg class="icon" width="48px" height="48.00px" viewBox="0 0 1024 1024" version="1.1" xmlns="http://www.w3.org/2000/svg"><path d="M113.737143 149.036698V989.460317h812.275809V149.036698H113.737143z" fill="#94A5B3" /><path d="M921.990095 1005.714286H109.714286a16.253968 16.253968 0 0 1-16.253969-16.253969V149.036698a16.253968 16.253968 0 0 1 16.253969-16.253968h812.275809a16.253968 16.253968 0 0 1 16.253968 16.253968V989.460317a16.253968 16.253968 0 0 1-16.253968 16.253969zM125.968254 973.206349h779.767873V165.290667H125.968254V973.206349z" fill="#6E6E96" /><path d="M226.328381 140.995048l309.629968 844.446476 273.440508-844.446476z" fill="#FFFFFF" /><path d="M535.958349 1001.695492a16.253968 16.253968 0 0 1-15.258412-10.65854L211.069968 146.590476a16.253968 16.253968 0 0 1 15.258413-21.845333h583.066413a16.258032 16.258032 0 0 1 15.461587 21.26019l-273.436444 844.442413a16.253968 16.253968 0 0 1-15.152762 11.243683l-0.308826 0.004063zM249.6 157.249016l285.407492 778.374095 252.038095-778.374095H249.6z" fill="#6E6E96" /><path d="M292.693333 24.380952h440.852318l75.853206 116.614096H226.328381z" fill="#FFFFFF" /><path d="M809.476063 157.249016H226.328381a16.253968 16.253968 0 0 1-14.128762-24.291556L278.564571 16.339302A16.266159 16.266159 0 0 1 292.693333 8.126984h440.856381c5.501968 0 10.626032 2.783492 13.628953 7.391492l75.060825 115.399111a16.258032 16.258032 0 0 1-12.763429 26.331429z m-555.19492-32.507937h525.157587L724.731937 40.634921H302.145016L254.281143 124.741079z" fill="#6E6E96" /><path d="M499.781079 454.631619l-120.649142 327.736889 156.826412 184.982349 152.803556-193.015873-128.666413-319.703365z" fill="#FF8A8A" /><path d="M536.393143 992.991492l-175.79073-207.339682 127.841524-347.274159h82.631111l136.289523 338.643301-170.971428 215.97054z m-138.735746-213.902222l137.870222 162.620952 134.631619-170.061206-121.043301-300.763429h-37.997715l-113.460825 308.203683z" fill="#6E6E96" /><path d="M434.468571 419.145143l57.181461 57.185524 77.612698-0.373842 57.307429-53.292698-97.487238-98.917587z" fill="#FF8A8A" /><path d="M484.949333 492.617143l-73.419174-73.423238 117.589333-118.564572 120.775111 122.546794-74.211555 69.006222-90.733715 0.434794z m-27.542349-73.520762l40.943746 40.947809 64.491683-0.312888 40.407365-37.579175-74.203429-75.292444-71.639365 72.236698z" fill="#6E6E96" /><path d="M226.328381 140.995048L355.360508 492.901587l171.979175-172.966603L292.693333 24.380952z" fill="#FFFFFF" /><path d="M355.360508 509.155556a16.262095 16.262095 0 0 1-15.258413-10.65854L211.069968 146.590476a16.253968 16.253968 0 0 1 1.133715-13.633016L278.564571 16.339302a16.253968 16.253968 0 0 1 26.855619-2.068318l234.650413 295.554032a16.253968 16.253968 0 0 1-1.202793 21.569016L366.888635 504.360635a16.266159 16.266159 0 0 1-11.528127 4.794921zM244.187429 142.478222l117.646222 320.857397 143.79073-144.615619-210.704254-265.39073-50.732698 89.148952z" fill="#6E6E96" /><path d="M527.339683 319.934984L733.545651 24.380952l75.853206 116.614096-112.985397 348.923936z" fill="#FFFFFF" /><path d="M696.41346 506.172952a16.266159 16.266159 0 0 1-11.524063-4.790857L515.819683 331.398095a16.253968 16.253968 0 0 1-1.804191-20.760381l206.205968-295.554031A16.241778 16.241778 0 0 1 733.545651 8.126984h0.264127a16.253968 16.253968 0 0 1 13.360762 7.387429l75.849143 116.614095a16.282413 16.282413 0 0 1 1.836698 13.872762l-112.985397 348.923936a16.274286 16.274286 0 0 1-15.457524 11.247746z m-147.972063-188.074666l140.714666 141.470476 102.391874-316.208762-58.473651-89.896635-184.632889 264.634921z" fill="#6E6E96" /><path d="M863.683048 136.97219v782.116572H109.714286v58.311111h812.275809V136.976254l-58.307047-0.004064z" fill="#6E6E96" /><path d="M793.908825 117.182984l-119.222857 251.005968-106.621968-106.617904-40.724317 58.363936 169.073777 169.984 112.985397-348.923936z" fill="#6E6E96" /><path d="M253.34654 93.52127l119.755174 274.667682 107.33308-107.333079 46.904889 59.079111L355.360508 492.901587 226.328381 140.995048z" fill="#6E6E96" /><path d="M537.969778 476.107175l72.37892 270.071873-72.37892 112.595301-133.558857-145.078857-25.278984 68.673016 153.876317 195.027302 155.753651-203.060826-119.499175-298.378159z" fill="#6E6E96" /><path d="M460.739048 445.419683l61.143365-61.143366 38.200889 38.200889-22.113524 53.629969 31.292952-0.15035 56.775111-56.783238-98.698158-99.238603-86.702731 105.37854z" fill="#6E6E96" /><path d="M374.117587 126.939429s19.090286-60.338794 139.723175-60.338794c120.636952 0 138.349714 74.394413 138.349714 74.394413L733.545651 24.380952H292.693333l81.424254 102.558477z" fill="#6E6E96" /><path d="M662.617397 919.096889l84.455619-136.728381-48.253968-172.909714L863.683048 167.131429h-40.216381l-181.39835 490.609777 32.617651 116.593778-96.95492 144.761905z" fill="#6E6E96" /></svg>