<?xml version="1.0" standalone="no"?><!DOCTYPE svg PUBLIC "-//W3C//DTD SVG 1.1//EN" "http://www.w3.org/Graphics/SVG/1.1/DTD/svg11.dtd"><svg class="icon" width="48px" height="45.09px" viewBox="0 0 1090 1024" version="1.1" xmlns="http://www.w3.org/2000/svg"><path d="M595.853565 959.876686l446.890173 0 0 60.177264-991.445087 0 0-60.177264 442.944123 0 0-239.722543-346.265896 0 0-70.042389 346.265896 0 0-184.477842-286.088632 0 0-69.055877 668.855491 0 0 69.055877-281.156069 0 0 184.477842 346.265896 0 0 70.042389-346.265896 0 0 239.722543zM595.853565 0q178.558767 263.398844 493.256262 387.699422l0 64.123314q-356.131021-124.300578-544.554913-350.211946-190.396917 221.965318-544.554913 350.211946l0-64.123314q319.630058-129.233141 489.310212-387.699422l106.543353 0z" fill="#4169E1" /></svg>