<?xml version="1.0" standalone="no"?><!DOCTYPE svg PUBLIC "-//W3C//DTD SVG 1.1//EN" "http://www.w3.org/Graphics/SVG/1.1/DTD/svg11.dtd"><svg class="icon" width="48px" height="37.69px" viewBox="0 0 1304 1024" version="1.1" xmlns="http://www.w3.org/2000/svg"><path d="M516.093733 264.059939s-39.757385-7.491866-122.265811 21.465691c0 0-59.842182 53.963076-48.97537 88.423599 10.86166 34.475981 9.851752 72.393891 31.044356 108.729957-0.005153-0.005153 138.31613-122.538899 140.196825-218.619247zM1225.909397 677.045191l-28.390772-57.554432s-61.120024-15.107394-106.710141 8.172008c-34.001942 17.348771-75.645176 40.478748-96.374046 45.636491-0.350376-35.254022-18.703902-84.193323-26.195768-107.941611-10.320638-32.755015-133.452084 141.979621-131.231319 201.476579 0 0 59.770046-16.735613 104.468765-35.877485 9.892973-1.73127 24.191411 3.065791 27.96826 42.637684 5.920326 62.114474 21.475996 198.194379 146.647867 194.329937 0.010305 0.010305 129.458827-201.492037 109.817154-290.879171z" fill="#E8E8E8" /><path d="M344.8474 373.944076s2.143477-47.372914-52.283332-19.61591c-54.437115 27.793071-201.399291 34.192588-234.319189 21.846982l47.063758-133.735477L154.577704 133.287202l212.740141-34.826357s45.270657 100.336388 27.174761 140.428691c-18.090744 40.097456-28.617486 60.903615-0.664684 46.630941-0.005153 0.005153 1.035671 62.918278-48.980522 88.423599z" fill="#E8E8E8" /><path d="M1065.653539 650.792744s47.208031-34.393539 70.456517-25.670204c23.248487 8.723335 62.032033 12.922696 62.032033 12.922696s13.061816 65.752203 27.489068 85.62059c0 0-68.467618-86.326495-104.303882-85.852456-35.836264 0.463733-55.673736 12.979375-55.673736 12.979374z" fill="#5E5E5E" /><path d="M396.934933 193.08301c-0.025763 0.149425-8.506926 46.70823-28.091921 66.952756-18.693597 19.31706-16.581035 59.373296 21.553285 51.809294 1.190248-4.956792 177.681918 7.151795 178.192024 3.266742 21.898508-96.611065-174.7604-29.586173-174.760399-29.586172-27.952801 14.272675-17.42606-6.533484 0.664684-46.630941 5.209269-11.552107 5.147438-28.107379 2.442327-45.811679z" fill="#CFCFCF" /><path d="M1200.878114 805.689909c-170.143679 112.228566-157.081863-70.064921-233.304129-81.385161-42.936534-6.363449-76.206808-29.30278-107.678828-28.447451-14.066571 28.014633-23.506116 54.127959-22.872348 70.971777 0 0 59.770046-16.735613 104.468765-35.877485 9.892973-1.73127 24.191411 3.065791 27.968259 42.637683 5.920326 62.114474 21.475996 198.194379 146.647868 194.329937-0.005153 0.015458 51.685632-80.452542 84.770413-162.2293z"  /><path d="M1197.523778 619.490759s-2.895756 53.33446 28.107379 104.15961l1.339674 97.523073s24.021375-26.654349 21.754235-71.780733c-2.26714-45.13669-4.096309-121.358955 9.140695-128.098543l-60.341983-1.803407z" fill="#E01B7F" /><path d="M1092.962266 966.950522s38.87114 23.804966 62.093864-0.02061c23.217571-23.87195 101.351448-145.632808 70.575027-243.279543 0 0-96.425572 224.807507-132.668891 243.300153zM344.8474 373.944076s24.242937 141.928095 70.719299 159.374766c46.481516 17.431212 30.235399 63.433537 80.591663 82.333237 50.356263 18.868785 194.762754 144.164319 270.387319 153.480203 56.843374 6.992065 106.715294-8.161703 102.526239-21.455386-4.194208-13.293683 33.682482-6.904471 26.700722-29.070913-6.976607-22.156138 13.247309-6.760198 13.144257-34.130757-0.092747-27.391169 20.780396-23.45459 29.333696-42.405817 8.532689-18.910006-16.27188-19.110957 16.101844-35.635313 32.337656-16.498594 7.651596-127.341113-59.749435-178.681521-67.395879-51.314645-259.839968-141.727144-278.98184-164.532508-19.15733-22.805364-103.129092-4.817672-108.657821 7.445493-5.533882 12.247707-45.605575 23.27425-40.947634 38.031267 4.642484 14.772476-24.768501 29.787124-17.786741 51.932956 6.976607 22.166443-51.556817 31.456563-41.787506 62.480308 9.769311 31.01344-23.062993 46.043545-37.680891 13.200936-14.607593-32.816847-23.913171-62.366951-23.913171-62.366951z" fill="#FF1F90" /><path d="M923.277168 543.824973c-205.428616 0-391.87509-34.058621-529.037039-89.428354-6.172803 1.339673-13.360666-0.968687-19.384044-8.11533-4.822824-2.091952-9.583818-4.204514-14.272675-6.347991 11.8355 39.618266 30.266314 84.105729 54.983289 93.385544 46.481516 17.431212 30.235399 63.433537 80.591663 82.333237 50.356263 18.868785 194.762754 144.164319 270.392472 153.480203 56.838222 6.992065 106.704989-8.161703 102.521086-21.455386-4.189056-13.293683 33.682482-6.904471 26.705875-29.070913-6.98176-22.156138 13.242157-6.760198 13.144257-34.130757-0.097899-27.391169 20.780396-23.45459 29.328543-42.405817 8.532689-18.910006-16.277032-19.110957 16.101844-35.635313 14.169623-7.223931 17.389992-32.574675 10.866813-63.083161-13.896536 0.304003-27.875513 0.474038-41.942084 0.474038z" fill="#E01B7F" /><path d="M101.068055 254.481274l-42.828329 121.699026c32.925051 12.345606 179.887227 5.940936 234.319189-21.846982 11.675769-5.956394 20.734023-8.43479 27.782766-8.687267 1.056281-2.313513 1.586998-3.632576 1.586998-3.632576-111.945173 0-185.276836-53.288087-220.860624-87.532201z" fill="#B2B2B2" /><path d="M99.18736 203.821008l-50.86637-19.085194s29.735598-49.166015 83.399824-64.371309c53.653921-15.200141 105.020092-12.536252 120.848849-20.61036L99.18736 203.821008z" fill="#E01B7F" /><path d="M393.822769 285.52563c-27.952801 14.272675-17.42606-6.533484 0.664684-46.630941 18.101049-40.092304-27.169608-140.428691-27.169608-140.428692l-123.842503 20.275443c49.0372 43.317825 108.291987 107.843711 115.376798 171.596709 3.715017 33.44031 17.30755 31.168018 33.785533 9.862057 1.27269-8.836692 1.185096-14.674577 1.185096-14.674576z" fill="#FFFFFF" /><path d="M154.577704 133.287202s10.629793-14.44271 53.803346-19.487096C251.554603 108.740262 354.240572 46.357853 354.240572 46.357853s6.080056 40.540579 13.077273 52.102992c0 0-91.216303 56.57544-120.173859 40.494206-28.957557-16.076081-69.559967 6.533484-88.887333 49.361813-19.332518 42.818024-71.105744 74.238519-45.89412 154.242786 0 0 7.868005 37.959132-54.117654 33.62065-0.005153-0.005153-6.873555-140.263809 96.332825-242.893098z" fill="#E01B7F" /><path d="M154.577704 133.287202S60.908768 236.138053 84.183018 309.990128c0 0 2.14863 31.188628-3.426473 43.699116-11.567565 25.948444-35.465278 37.794249-34.33686-10.918338C48.728045 242.073837 156.396568 131.205555 154.577704 133.287202z" fill="#FF1F90" /><path d="M354.230266 0a46.301175 46.301175 0 0 0-24.047138 6.72413c-0.525564 0.314308-53.066526 32.110942-95.884549 50.423247a12.881475 12.881475 0 0 0-0.468886 0.206104c-4.560042 1.076891-16.751071 2.328971-25.793866 3.246132-23.423675 2.395954-55.498548 5.678154-88.949164 15.15892-29.56041 8.372959-57.930571 25.58261-82.029235 49.763715-17.209651 17.276635-26.680112 32.368571-28.406229 35.217954a46.352701 46.352701 0 0 0 22.965094 67.251606C11.45936 268.403573 0.870788 306.496671 0.056678 341.709472c-0.412207 17.755826 1.700355 32.121247 6.456196 43.900068 3.792306 9.403477 9.300425 17.297245 16.369779 23.470048a54.024908 54.024908 0 0 0 23.856492 12.175571c9.109779 2.854535 29.009082 7.311525 71.87348 7.311525a663.55571 663.55571 0 0 0 24.036833-0.45858c21.275045-0.772889 82.740292-4.168445 133.06564-18.250474-4.565195-11.887025 1.185096-13.221546 11.078069-13.221547 1.437573 0 2.962739 0.025763 4.554889 0.056679 1.602456 0.030916 3.266742 0.056678 4.987708 0.056678 1.839475 0 3.730475-0.030916 5.662696-0.133967 0.262782 1.267537 0.541022 2.607211 0.839872 4.003562a153.181352 153.181352 0 0 0 10.815287-4.982554h-0.005152c0.860483-0.43797 1.767338-0.87594 2.756635-1.324216l0.061831-0.025763 0.788347-0.345223 0.113357-0.046374c-5.317473 2.432023-9.898126 5.930631-13.922299 9.563208a717.085969 717.085969 0 0 0 6.270702 26.530686c1.334521 6.440738 6.590163 30.328146 16.323406 56.122012 6.98176 18.497799 14.942511 34.512049 23.665846 47.60478 13.58738 20.399104 29.658309 34.630558 47.769663 42.307918 8.197771 3.472846 9.521987 5.781206 16.081234 19.095499 4.621873 9.367409 10.372164 21.048331 20.296053 32.590132 12.031298 13.994435 27.082014 24.248089 46.017782 31.358664 13.7265 5.142285 48.202481 28.859657 78.61822 49.779173 30.766116 21.161688 65.638846 45.162453 99.053393 64.670159 42.812871 25.000367 75.645176 38.227066 103.340348 41.638081 11.376919 1.396352 22.99601 2.107409 34.501743 2.107409 28.339246 0 54.772033-4.199361 74.774388-11.87672 15.328956-4.678552 34.57388-10.856507 54.066129-17.910403 2.86484 28.205278 8.980965 75.665786 27.556052 118.334385 32.059416 73.656276 84.785871 98.517523 126.506393 105.803285 10.949254 5.260795 29.493426 12.283775 50.345958 12.283775 23.330928 0 43.951594-8.501774 59.646383-24.603618 12.716592-13.056663 29.447053-37.397499 43.699117-63.521131 12.129197-22.233426 28.086769-56.055028 37.933369-94.730369 10.804982-16.204896 27.396322-48.836249 25.139487-93.967787-3.240979-64.19612-0.664684-90.257921 0.778041-99.135834a46.373311 46.373311 0 0 0-36.573085-72.991592l-56.075638-1.674591a261.303303 261.303303 0 0 0-50.340806-4.961945c-31.672972 0-59.641231 6.080056-83.116431 18.059829a3035.906106 3035.906106 0 0 0-21.810914 11.289325c-5.461746 2.84423-11.634549 6.059446-17.987692 9.321035-4.400312-16.065776-9.388019-31.090729-13.484329-43.431182l-2.153782-6.512874c0 1.004755 0.030916 2.024968 0.108204 3.045181l-0.005153-0.066984c-0.082441-1.025365-0.149425-2.055883-0.252477-3.112164-0.010305-0.149425-0.02061-0.304003-0.04122-0.448276l-0.319461-0.978992c-3.570745-18.827564-19.002752-33.450615-11.119289-38.932971 3.42132 5.353541 6.682909 11.449055 8.151397 18.28139-0.056678-0.262782-0.103052-0.525564-0.149425-0.772889l-0.097899-0.463733 0.015458 0.061831a232.09327 232.09327 0 0 0-4.760994-18.487493 28.231041 28.231041 0 0 1 5.281405-0.814109c2.395954-14.28298 6.992065-25.252844-3.972647-25.252844-1.55093 0-3.405862 0.216409-5.626628 0.674989a30.797031 30.797031 0 0 0-4.323023 1.179943 268.990968 268.990968 0 0 0-16.122455-32.574675c-15.777231-27.102624-35.954774-50.443857-58.353083-67.509236-38.067336-28.988472-108.936061-67.292827-171.436979-101.088666-25.355896-13.70589-49.299982-26.649196-68.338803-37.500551-23.562795-13.437955-31.209238-18.966684-33.337258-20.656733-15.43716-17.075684-39.499756-25.716577-71.59524-25.716578-21.924271 0-47.177115 4.065394-67.241301 10.629794-3.704712 0.015458-7.584613 0.123662-11.55726 0.324613-13.231851 0.185493-31.487478 1.700355-54.854474 6.440738 0.99445-11.108984 0.968687-24.356294-1.705508-38.165236-7.728885-49.217541-32.002737-103.422789-33.048713-105.725996a45.73439 45.73439 0 0 0-1.581845-3.184301c-2.097104-5.59056-5.776054-22.640481-7.904073-36.74312A46.373311 46.373311 0 0 0 354.230266 0z m-0.237019 46.512431l0.247325-0.149425s6.074904 40.535427 13.072121 52.102991c0 0 22.934179 50.856065 29.62224 94.622166v-0.005153l0.010306 0.072136c1.159333 5.667849 1.602456 11.309935 1.602455 16.606798 0.010305 16.220354-4.065394 29.132745-4.065393 29.132745-10.114534 22.41892-17.86403 38.804156-17.853725 46.404227 0.005153 3.091554 1.298453 4.730078 4.235429 4.730077 2.761788 0 6.976607-1.45303 12.953611-4.503363l0.741973-0.247325c9.733243-3.400709 18.873938-6.291313 27.406627-8.749098 2.499006-0.721363 4.941334-1.401505 7.337289-2.045578 33.656719-9.073711 57.286497-11.145052 71.296389-11.268715 3.745933-0.206104 7.44034-0.319461 11.057459-0.31946 2.303208 0 4.5755 0.046373 6.811724 0.13912 14.045961-5.739985 38.29405-10.763761 59.512416-10.763761 16.374931 0 30.946456 2.988502 37.634518 10.944101 19.13672 22.805364 211.580809 113.217863 278.976688 164.537661 37.881843 28.8442 62.253594 76.46959 70.616248 115.593207l0.010305 0.041221c0.087594 0.381292 0.13912 0.757431 0.221561 1.13357 0.340071 1.664287 0.669837 3.323421 0.958382 4.941334 0.123662 0.747126 0.231867 1.458183 0.340071 2.184698 0.200951 1.257232 0.396749 2.509311 0.551327 3.751085 0.113357 0.778041 0.200951 1.561235 0.293698 2.349581 0.13912 1.143875 0.262782 2.272292 0.360681 3.390405 0.072136 0.783194 0.123662 1.57154 0.180341 2.334123 0.041221 0.674989 0.108204 1.360284 0.13912 2.024968 4.513669 14.277827 12.912391 37.59845 18.982142 61.557994l0.108204 0.432818c3.9778 15.808147 6.935386 31.884228 7.069354 45.832289 10.274265-2.54538 25.670204-9.521987 42.735582-18.00315l2.395955-1.190248c16.725308-8.388417 34.877883-18.090744 51.242508-26.443093 19.847777-10.12484 42.622226-12.98968 62.02688-12.989679 25.191013 0 44.683262 4.817672 44.683262 4.817671l60.341983 1.80856c-8.403875 4.281802-10.737998 36.557627-10.74315 71.105743 0 19.878693 0.767736 40.509664 1.607608 56.997952 0.108204 2.112562 0.154578 4.183903 0.149425 6.219177-0.092747 41.339231-21.908813 65.561557-21.908813 65.561557-12.644456 57.044325-43.384809 109.250369-62.346341 134.302261-3.725323 4.920724-6.98176 8.785166-9.563207 11.454208-7.754648 7.950447-17.245719 10.598878-26.443093 10.598878-18.384442 0-35.655924-10.578268-35.655923-10.578267-100.346693-12.180723-116.871049-126.789785-122.889275-187.002954-0.221561-2.195003-0.422512-4.312718-0.623464-6.347991-3.364641-35.315853-15.122852-42.931381-24.644838-42.931381-1.138722 0-2.256834 0.108204-3.318268 0.29885-29.483121 12.613541-65.494573 24.186258-86.625345 30.606385-13.334903 5.394762-34.749068 9.326188-59.496959 9.326189-9.228289 0-18.930616-0.546175-28.833894-1.777644-75.624565-9.31073-220.036209-134.601112-270.38732-153.469897-50.356263-18.899701-31.338053-61.460095-80.591662-82.333238-42.168798-17.88464-60.640833-113.774343-60.640833-113.774343-2.524769-9.748701-4.580653-18.647224-6.157346-25.943291a0.097899 0.097899 0 0 1-0.036068-0.010305c-5.379304-1.210859-11.45936-2.42687-17.766131-2.42687a42.61192 42.61192 0 0 0-7.785563 0.685295l0.02061-0.005153c0.824414-0.15973 1.633371-0.340071 2.437175-0.546175a40.241729 40.241729 0 0 0-2.74633 0.597701l-0.211256 0.041221-0.030916 0.005152c9.197373-2.818467 16.761376-8.846997 22.975399-13.819247-0.510106-2.699957-0.762583-4.194208-0.762583-4.194208a29.297627 29.297627 0 0 1-1.303605-8.821234c0-0.561632 0.010305-1.128417 0.036068-1.700355-2.097104-8.058651-7.630986-17.791894-22.068544-17.791894-0.43797 0-0.891398 0.010305-1.344826 0.025763a41.097059 41.097059 0 0 0-4.637331 0.489496c-0.324613 0.051526-0.623463 0.082441-0.953229 0.144273-0.608006 0.108204-1.252079 0.25763-1.885848 0.396749-0.525564 0.11851-1.051128 0.226714-1.59215 0.365834-0.592548 0.149425-1.205706 0.324613-1.824017 0.499801a91.035962 91.035962 0 0 0-3.740781 1.174791 98.811221 98.811221 0 0 0-4.024173 1.509709c-0.927466 0.376139-1.885848 0.788346-2.849382 1.216011-0.494649 0.216409-0.968687 0.412207-1.473641 0.644074-1.494251 0.685294-3.034876 1.422115-4.627026 2.231071-32.322198 16.503746-97.255139 25.4641-151.578896 27.43239a581.97475 581.97475 0 0 1-22.367394 0.427665c-27.319033 0-49.722495-2.035273-60.33683-6.002767C51.592885 375.850535 46.373311 367.359066 46.373311 346.017038c0-1.051128 0.010305-2.133172 0.036068-3.240979 0.762583-33.167223 12.958764-67.421642 28.900878-98.383556l0.319461-0.623464a442.684781 442.684781 0 0 1 23.547337-39.948031l-50.856065-19.080041s29.735598-49.166015 83.399824-64.366156c53.648768-15.205293 105.014939-12.536252 120.848849-20.615513 38.546527-16.483136 83.142194-42.390359 97.188155-50.722098l0.27824-0.164883 0.685295-0.407054 0.118509-0.072136 2.035273-1.216012 1.118112-0.664684z m-119.534938 10.676167l0.072136-0.02061-0.072136 0.02061z m172.622074 17.420907l-0.087594-0.144272a2.158935 2.158935 0 0 1 0.087594 0.144272z m35.398295 109.75017a9.413782 9.413782 0 0 0 0.010305 0.030915l-0.010305-0.030915z m0.551327 3.637729z m205.985096 43.152942l-0.010306-0.005153 0.010306 0.005153z m2.128019 2.256834l-0.262782-0.309155 0.262782 0.309155z m-329.358714 158.596725c0.025763 0 0.02061 0 0 0z m0.566785 0.04122l0.051526-0.010305a4.240582 4.240582 0 0 0-0.242172 0.066984l0.056679-0.015458 0.133967-0.041221z m-1.669439 0.515259l0.046373-0.015457-0.108204 0.036068 0.061831-0.020611z m-3.220369 1.288148c0-0.005153 0-0.005153 0 0l0.015458-0.005153-0.015458 0.005153z m-261.983445 28.627791z m955.42933 112.89325l0.041221 0.200951-0.005152-0.010306-0.015458-0.082441-0.020611-0.097899v-0.010305z m1.623066 8.929438l0.030916 0.200951-0.010305-0.087594a1.066586 1.066586 0 0 1-0.020611-0.113357z" fill="#821049" /></svg>