<?xml version="1.0" standalone="no"?><!DOCTYPE svg PUBLIC "-//W3C//DTD SVG 1.1//EN" "http://www.w3.org/Graphics/SVG/1.1/DTD/svg11.dtd"><svg class="icon" width="48px" height="48.00px" viewBox="0 0 1024 1024" version="1.1" xmlns="http://www.w3.org/2000/svg"><path d="M516.4544 515.1232m-436.2752 0a436.2752 436.2752 0 1 0 872.5504 0 436.2752 436.2752 0 1 0-872.5504 0Z" fill="#FFDFCA" /><path d="M687.0016 775.936H356.1984c-68.9664 0-124.8256-55.9104-124.8256-124.8256V377.9072c0-68.9664 55.9104-124.8256 124.8256-124.8256h330.8032c68.9664 0 124.8256 55.9104 124.8256 124.8256v273.2032c0 68.9152-55.9104 124.8256-124.8256 124.8256z" fill="#F1A883" /><path d="M681.5744 347.5968H361.6256c-71.936 0-130.2528 58.3168-130.2528 130.2528v167.8336c0 71.936 58.3168 130.2528 130.2528 130.2528h319.9488c71.936 0 130.2528-58.3168 130.2528-130.2528V477.8496c0-71.936-58.3168-130.2528-130.2528-130.2528z" fill="#F09B77" /><path d="M681.5744 442.0608H361.6256c-71.936 0-130.2528 58.3168-130.2528 130.2528v73.3696c0 71.936 58.3168 130.2528 130.2528 130.2528h319.9488c71.936 0 130.2528-58.3168 130.2528-130.2528v-73.3696c0-71.936-58.3168-130.2528-130.2528-130.2528z" fill="#EF8461" /><path d="M361.6256 536.576c-68.352 0-124.416 52.6848-129.792 119.7056 5.376 66.9696 61.44 119.7056 129.792 119.7056h319.9488c68.352 0 124.416-52.6848 129.792-119.7056-5.376-66.9696-61.44-119.7056-129.792-119.7056H361.6256z" fill="#EE7553" /><path d="M361.6256 631.0912c-51.1488 0-95.4368 29.4912-116.736 72.448 21.2992 42.9056 65.536 72.448 116.736 72.448h319.9488c51.1488 0 95.4368-29.4912 116.736-72.448-21.2992-42.9056-65.536-72.448-116.736-72.448H361.6256z" fill="#EE6342" /><path d="M447.0272 682.3424a30.5664 30.5664 0 0 1-22.272-9.5744c-57.9584-61.1328-127.7952-39.168-130.7648-38.1952-16.0256 5.2736-33.4336-3.3792-38.8096-19.3536-5.376-15.9744 3.072-33.28 18.9952-38.8096 3.84-1.3312 83.3536-27.6992 160.3072 24.3712 25.4464-48.5888 71.5776-97.28 134.656-119.552 48.5888-17.152 124.8256-24.576 211.712 37.7856a30.72512 30.72512 0 0 1 7.0656 42.8544 30.72512 30.72512 0 0 1-42.8544 7.0656c-51.7632-37.12-105.472-47.4112-155.4432-29.7472-60.6208 21.4016-101.0688 77.568-112.9984 120.6272a30.64832 30.64832 0 0 1-22.1696 21.6064c-2.4576 0.6144-4.9152 0.9216-7.424 0.9216zM380.9792 505.7536c-45.6192 0-82.7392-37.12-82.7392-82.7392s37.12-82.7392 82.7392-82.7392 82.7392 37.12 82.7392 82.7392-37.12 82.7392-82.7392 82.7392z m0-104.0384a21.3504 21.3504 0 0 0-21.2992 21.2992c0 11.7248 9.5744 21.2992 21.2992 21.2992s21.2992-9.5744 21.2992-21.2992c0-11.776-9.5232-21.2992-21.2992-21.2992z" fill="#FFFFFF" /></svg>