<?xml version="1.0" standalone="no"?><!DOCTYPE svg PUBLIC "-//W3C//DTD SVG 1.1//EN" "http://www.w3.org/Graphics/SVG/1.1/DTD/svg11.dtd"><svg class="icon" width="48px" height="48.00px" viewBox="0 0 1024 1024" version="1.1" xmlns="http://www.w3.org/2000/svg"><path d="M762.197333 486.058667a78.506667 78.506667 0 0 0-8.874666 0 341.333333 341.333333 0 1 0-338.602667 375.466666h347.477333a188.074667 188.074667 0 0 0 0-375.466666zM546.133333 535.552a34.133333 34.133333 0 0 1-48.128 0l-47.786666-47.786667v149.162667a34.133333 34.133333 0 0 1-68.266667 0v-149.162667l-47.786667 47.786667a34.133333 34.133333 0 0 1-48.128-48.128l105.813334-106.154667a34.133333 34.133333 0 0 1 11.264-7.168 34.133333 34.133333 0 0 1 25.941333 0 34.133333 34.133333 0 0 1 11.264 7.168l105.813333 106.154667a34.133333 34.133333 0 0 1 0 48.128z" fill="#ffffff" /></svg>