<?xml version="1.0" standalone="no"?><!DOCTYPE svg PUBLIC "-//W3C//DTD SVG 1.1//EN" "http://www.w3.org/Graphics/SVG/1.1/DTD/svg11.dtd"><svg class="icon" width="48px" height="48.00px" viewBox="0 0 1024 1024" version="1.1" xmlns="http://www.w3.org/2000/svg"><path d="M224.256 332.8h402.432v-15.701333a126.293333 126.293333 0 0 0-126.293333-126.293334H224.256a126.293333 126.293333 0 0 0-126.293333 126.293334v141.994666a126.293333 126.293333 0 0 1 126.293333-126.293333z" fill="#ffffff" /><path d="M793.941333 366.933333H234.496a136.533333 136.533333 0 0 0-136.533333 136.533334v299.690666a136.533333 136.533333 0 0 0 136.533333 136.533334h559.445333a136.533333 136.533333 0 0 0 136.533334-136.533334v-299.690666a136.533333 136.533333 0 0 0-136.533334-136.533334z m-154.965333 320.512h-90.794667v90.453334a34.133333 34.133333 0 1 1-68.266666 0v-90.453334h-90.453334a34.133333 34.133333 0 0 1 0-68.266666h90.453334v-90.453334a34.133333 34.133333 0 1 1 68.266666 0v90.453334h90.794667a34.133333 34.133333 0 0 1 0 68.266666z" fill="#ffffff" /></svg>