<?xml version="1.0" standalone="no"?><!DOCTYPE svg PUBLIC "-//W3C//DTD SVG 1.1//EN" "http://www.w3.org/Graphics/SVG/1.1/DTD/svg11.dtd"><svg class="icon" width="32px" height="32.00px" viewBox="0 0 1024 1024" version="1.1" xmlns="http://www.w3.org/2000/svg"><path d="M491.26912 749.84448a20.72576 20.72576 0 1 0 41.45152 0 20.72576 20.72576 0 0 0-41.45152 0z" fill="#515151" /><path d="M932.1984 57.6H91.79648c-38.6816 0-70.03648 31.35488-70.03648 70.03648v631.6288c0 38.67648 31.35488 70.03648 70.03648 70.03648h307.13344c-21.29408 63.72352-60.32896 122.56256-132.04992 122.56256a17.5104 17.5104 0 1 0-0.02048 35.02592h490.26048a17.50016 17.50016 0 0 0 17.52064-17.50528 17.50016 17.50016 0 0 0-17.50016-17.52064h-0.02048c-71.72096 0-110.75584-58.8288-132.04992-122.56256h307.12832c38.6816 0 70.0416-31.36 70.0416-70.03648V127.63648c0-38.6816-31.36-70.03648-70.0416-70.03648zM56.33536 127.63648a35.49184 35.49184 0 0 1 35.45088-35.45088h840.40704c19.54816 0 35.456 15.90272 35.456 35.45088v538.07104H56.33536V127.63648z m576.40448 797.312l20.59776 22.23104H375.77216l15.488-17.11104c22.65088-32.82944 34.33472-55.53152 48.15872-93.6448l2.2784-7.12704h140.59008l2.26816 7.12192c13.43488 41.83552 26.112 64.1536 48.18432 88.52992z m334.91968-165.67296a35.4816 35.4816 0 0 1-35.44576 35.44576H91.79648a35.4816 35.4816 0 0 1-35.45088-35.44576v-59.40736h911.31392v59.40736z" fill="#515151" /><path d="M670.8736 550.9888c-25.50784 0-45.86496-6.4256-60.48768-19.10272-14.57664-12.63616-21.96992-29.57312-21.96992-50.34496 0-19.89632 7.12704-36.49024 21.18656-49.31584 14.3872-13.13792 38.73792-21.62176 74.4704-25.93792l39.07072-5.81632c11.53536-1.82272 21.62688-4.03968 30.07488-6.59968l7.36256-2.23232-0.09728-7.69536c-0.11264-9.18528-0.50176-16.07168-1.152-20.46976-0.78336-5.40672-3.1744-11.06432-7.09632-16.81408-3.99872-5.83168-10.37824-10.55744-18.9696-14.0544-8.55552-3.47136-20.08576-5.22752-34.28864-5.22752-18.21696 0-32.83968 3.44576-43.47392 10.24-10.49088 6.67648-17.84832 19.0208-21.86752 36.7104l-37.72928-4.9408c4.60288-23.87968 15.90784-42.10688 33.6128-54.20032 18.23744-12.45184 43.71968-18.7648 75.73504-18.7648 29.52192 0 50.54976 4.20864 64.29184 12.87168 13.42976 8.48896 21.79072 18.83648 24.832 30.74048 3.11296 12.19072 4.69504 28.14976 4.69504 47.44192v157.696h-35.79904v-30.86848l-16.14336 11.392c-23.79264 16.78336-49.44384 25.2928-76.25728 25.2928z m76.56448-125.90592c-19.56352 5.66784-42.73664 10.32192-68.864 13.83936-32.35328 4.36736-48.75776 18.3808-48.75776 41.66656 0 11.75552 4.48512 21.58592 13.32736 29.21472 8.78592 7.58272 21.48352 11.42784 37.74976 11.42784 21.18144 0 39.3216-6.14912 55.45984-18.80576 16.04608-12.5696 24.18176-34.13504 24.18176-64.08704v-17.0496l-13.09696 3.79392z m-251.79648 120.10496l-39.93088-103.56736H311.33696l-37.61664 103.56736H229.5808l129.51552-337.22368h46.336l137.58464 337.22368h-47.37536zM322.95936 409.07776h120.27392l-5.22752-13.85472c-23.23968-61.58336-38.25152-102.4512-45.91104-124.928l-9.4464-27.73504-59.68896 166.51776z" fill="#515151" /></svg>