<?xml version="1.0" standalone="no"?><!DOCTYPE svg PUBLIC "-//W3C//DTD SVG 1.1//EN" "http://www.w3.org/Graphics/SVG/1.1/DTD/svg11.dtd"><svg class="icon" width="32px" height="32.00px" viewBox="0 0 1024 1024" version="1.1" xmlns="http://www.w3.org/2000/svg"><path d="M957.6 455.1c-0.7-3.5-1.5-7-2.5-10.5-0.5-1.7-1-3.4-1.6-5.1-1.1-3.4-2.4-6.7-3.7-9.9-0.3-0.8-0.7-1.6-1.1-2.4-1.1-2.4-2.2-4.8-3.5-7.1-0.4-0.8-0.8-1.5-1.2-2.3-0.8-1.5-1.7-3-2.6-4.5-1.4-2.2-2.8-4.4-4.3-6.6-6.9-10-15.3-19-24.7-26.7-0.7-0.5-1.4-1.1-2-1.6-13.7-10.7-29.6-18.7-46.9-23.1v-3.5-3.4c-0.1-3.4-0.2-6.8-0.4-10.2-0.2-2.2-0.4-4.5-0.6-6.7-0.3-3.3-0.8-6.6-1.3-9.9-0.5-3.3-1.1-6.5-1.8-9.7-0.7-3.2-1.4-6.4-2.3-9.6-0.3-1.1-0.6-2.1-0.9-3.1-2.2-7.6-4.8-15-7.8-22.2-1.2-2.9-2.5-5.7-3.8-8.5-1.3-2.8-2.8-5.6-4.2-8.3-1.5-2.7-3-5.4-4.6-8.1-0.8-1.3-1.6-2.6-2.5-3.9-1.7-2.6-3.4-5.2-5.2-7.7-5.4-7.5-11.2-14.7-17.6-21.4a199.195 199.195 0 0 0-13.3-12.7c-3.5-3-7.1-5.9-10.8-8.7-9.9-7.4-20.5-13.8-31.7-19.2-2.8-1.4-5.6-2.6-8.5-3.9-21.2-9-44.5-14.3-68.8-15-0.6-1-1.1-1.9-1.7-2.9-0.8-1.3-1.6-2.6-2.5-3.9-1.7-2.6-3.4-5.2-5.2-7.7-5.4-7.5-11.2-14.7-17.6-21.4a199.195 199.195 0 0 0-13.3-12.7c-3.5-3-7.1-5.9-10.8-8.7-9.9-7.4-20.5-13.8-31.7-19.2-2.8-1.4-5.6-2.6-8.5-3.9C563.3 69.4 538 64 511.5 64s-51.8 5.4-74.8 15.1c-2.9 1.2-5.7 2.5-8.5 3.9-11.2 5.4-21.8 11.9-31.7 19.2-3.7 2.8-7.3 5.7-10.8 8.7-2.3 2-4.6 4.1-6.8 6.2-8.9 8.5-17 17.8-24.1 27.9-1.8 2.5-3.5 5.1-5.2 7.7-0.8 1.3-1.7 2.6-2.5 3.9-0.6 1-1.1 1.9-1.7 2.9-24 0.9-46.8 6.1-67.8 15-2.9 1.2-5.7 2.5-8.5 3.9-11.2 5.4-21.8 11.9-31.7 19.2-3.7 2.8-7.3 5.7-10.8 8.7-2.3 2-4.6 4.1-6.8 6.2-8.9 8.5-17 17.8-24.1 27.9-1.8 2.5-3.5 5.1-5.2 7.7-0.8 1.3-1.7 2.6-2.5 3.9-1.6 2.6-3.1 5.3-4.6 8.1-1.5 2.7-2.9 5.5-4.2 8.3s-2.6 5.6-3.8 8.5c-3 7.2-5.7 14.6-7.8 22.2-0.3 1-0.6 2.1-0.9 3.1-0.8 3.2-1.6 6.3-2.3 9.6-0.9 4.3-1.7 8.6-2.3 13-0.3 2.2-0.6 4.4-0.8 6.6-0.2 2.2-0.4 4.5-0.6 6.7-0.2 3.4-0.4 6.7-0.4 10.2v6.9c-17.3 4.5-33.2 12.4-46.9 23.1-0.7 0.5-1.4 1.1-2 1.6-9.4 7.7-17.7 16.7-24.7 26.7-1.5 2.1-2.9 4.3-4.3 6.6-0.9 1.5-1.8 3-2.6 4.5-0.4 0.8-0.8 1.5-1.2 2.3-1.2 2.3-2.4 4.7-3.5 7.1-0.4 0.8-0.7 1.6-1.1 2.4-1.4 3.2-2.6 6.6-3.7 9.9-0.6 1.7-1.1 3.4-1.6 5.1-1 3.4-1.8 6.9-2.5 10.5-1.5 8-2.4 16.2-2.4 24.7 0 3 0.1 6 0.3 9 0.3 4.4 0.8 8.8 1.6 13.1 0.5 2.9 1.1 5.7 1.8 8.5s1.5 5.6 2.3 8.3c0.9 2.7 1.8 5.4 2.9 8.1 1 2.6 2.2 5.3 3.4 7.8 0.6 1.3 1.2 2.5 1.9 3.8 1.5 3 3.2 5.9 5 8.8 0.9 1.5 1.8 2.9 2.8 4.3 1.1 1.6 2.2 3.2 3.4 4.8 2.5 3.4 5.2 6.6 8 9.7 2.3 2.6 4.8 5 7.3 7.4 1.1 1 2.1 2 3.2 3 6.8 6 14.2 11.3 22.1 15.7-0.7 3.9-1.1 7.9-1.3 11.9 0 0.7-0.1 1.5-0.1 2.2v2.2c0 11.6 2.1 22.8 5.8 33.1 0.3 0.7 0.5 1.5 0.8 2.2 0.6 1.5 1.2 2.9 1.8 4.3 0.6 1.4 1.3 2.8 2 4.2 0.7 1.4 1.4 2.8 2.2 4.1 16.6 28.9 47.8 48.4 83.5 48.4 30.6 0 57.9-14.3 75.5-36.6 0.8-1 1.6-2 2.3-3.1 0.2-0.3 0.4-0.5 0.6-0.8 10.1 53.6 16.7 110.3 16.8 167.7-0.1 17.3 3.9 34.4 11.1 50.3 0.9 1.9 1.8 3.7 2.7 5.5 1.4 2.7 2.9 5.4 4.5 8.1 1.1 1.8 2.2 3.5 3.3 5.2 2.3 3.4 4.8 6.8 7.4 10 1.3 1.6 2.7 3.2 4 4.8 2.1 2.3 4.2 4.6 6.5 6.8 0.7 0.7 1.5 1.5 2.3 2.2 2.3 2.1 4.6 4.2 7.1 6.2 3.2 2.6 6.6 5.1 10.1 7.5 2.6 1.8 5.3 3.4 8 5 3.6 2.1 7.4 4 11.2 5.7 1.9 0.9 3.9 1.7 5.8 2.5 2.9 1.2 5.9 2.2 9 3.1 1 0.3 2 0.6 3.1 0.9 1.3 0.4 2.6 0.7 3.9 1 2.6 0.6 5.2 1.2 7.8 1.6 1.3 0.2 2.6 0.4 4 0.6 5.3 0.7 10.8 1.1 16.3 1.1h127.5c70.4 0 128.5-63.1 128-128.1 0.1-57.7 6.8-114.9 17-168.8 0.4 0.6 0.9 1.2 1.3 1.8 0.9 1.2 1.8 2.4 2.8 3.6 2.7 3.4 5.6 6.5 8.7 9.5 1.4 1.3 2.8 2.6 4.3 3.9 2 1.7 4 3.3 6.1 4.8 2.1 1.5 4.3 2.9 6.5 4.3 2.2 1.3 4.5 2.6 6.9 3.8 12.9 6.4 27.4 10 42.7 10 35.7 0 66.9-19.5 83.5-48.4 0.8-1.3 1.5-2.7 2.2-4.1 1.4-2.8 2.7-5.6 3.9-8.5 0.3-0.7 0.6-1.5 0.8-2.2 3.8-10.3 5.8-21.5 5.8-33.1 0-5.6-0.5-11.2-1.4-16.5 17.1-9.7 31.7-23.1 42.8-39.2 2.4-3.5 4.6-7 6.6-10.7 3.4-6.1 6.3-12.6 8.7-19.3 0.5-1.3 0.9-2.7 1.4-4.1 1.7-5.4 3.1-11 4.1-16.8 1.2-7.2 1.9-14.5 1.9-22 0.1-8.5-0.7-16.7-2.3-24.7zM351.9 284.6l-0.5-25.3v-0.3-2.7c0-42.8 16.7-83.1 46.9-113.3 30.2-30.3 70.4-47 113.2-47s83 16.7 113.2 46.9c30.2 30.3 46.9 70.5 46.9 113.3v3l-0.5 25.3 24.5 6.3c42.6 11 72.4 49.4 72.4 93.6 0 34.8-18.8 67.1-49.2 84.2l-19.6 11.1L703 502c0.6 3.6 1 7.4 1 11.1 0 35.5-28.8 64.3-64.3 64.3-10.3 0-20.2-2.5-29-6.9l-55.3-238.1c0-6.6-5.4-12-12-12h-64c-6.6 0-12 5.4-12 12L412 570.8c-8.6 4.3-18.3 6.6-28.4 6.6-35.4 0-64.3-28.9-64.3-64.3 0-3.6 0.3-7.3 0.9-10.9l3.8-22.3-19.7-11C274 451.7 255 419.4 255 384.4c0-44.1 29.8-82.6 72.4-93.6l24.5-6.2z m-9.3-120c-1.5 2.7-2.9 5.5-4.2 8.3 1.3-2.8 2.7-5.5 4.2-8.3z m-47.4 428.9l-8.4 31.5c-7.5 28.1-33 47.7-62.1 47.7-35.4 0-64.3-28.9-64.3-64.3 0-3.6 0.3-7.3 0.9-10.9l3.8-22.3-19.7-11C115 547.1 96 514.7 96 479.8c0-44.1 29.8-82.6 72.4-93.6l24.5-6.3-0.5-25.3v-0.3-2.7c0-42.8 16.7-83.1 46.9-113.3 24.9-24.9 56.5-40.6 90.8-45.4-1.2 3.5-2.4 7.1-3.4 10.7-0.3 1-0.6 2.1-0.9 3.1-0.8 3.2-1.6 6.3-2.3 9.6-0.9 4.3-1.7 8.6-2.3 13-0.3 2.2-0.6 4.4-0.8 6.6-0.2 2.2-0.4 4.5-0.6 6.7-0.2 3.4-0.4 6.7-0.4 10.2v6.9c-17.3 4.5-33.2 12.4-46.9 23.1-0.7 0.5-1.4 1.1-2 1.6-9.4 7.7-17.7 16.7-24.7 26.7-1.5 2.1-2.9 4.3-4.3 6.6-0.9 1.5-1.8 3-2.6 4.5-0.4 0.8-0.8 1.5-1.2 2.3-1.2 2.3-2.4 4.7-3.5 7.1-0.4 0.8-0.7 1.6-1.1 2.4-1.4 3.2-2.6 6.6-3.7 9.9-0.6 1.7-1.1 3.4-1.6 5.1-1 3.4-1.8 6.9-2.5 10.5-1.5 8-2.4 16.2-2.4 24.7 0 3 0.1 6 0.3 9 0.3 4.4 0.8 8.8 1.6 13.1 0.5 2.9 1.1 5.7 1.8 8.5s1.5 5.6 2.3 8.3c0.9 2.7 1.8 5.4 2.9 8.1 1 2.6 2.2 5.3 3.4 7.8 0.6 1.3 1.2 2.5 1.9 3.8 1.7 3.3 3.5 6.5 5.5 9.6 0.5 0.8 1.1 1.7 1.6 2.5 1.4 2.1 2.9 4.3 4.4 6.3 1.5 2.1 3.1 4.1 4.8 6 1.7 2.1 3.6 4.1 5.4 6 1 1.1 2.1 2.1 3.1 3.2 0.8 0.7 1.5 1.5 2.3 2.2 2.3 2.1 4.7 4.2 7.2 6.2 2.2 1.7 4.4 3.4 6.7 5 1.9 1.3 3.8 2.5 5.7 3.7 0.9 0.6 1.9 1.2 2.9 1.7l2.1 1.2c-0.7 3.9-1.1 7.9-1.3 11.9 0 0.7-0.1 1.5-0.1 2.2v2.2c0 11.6 2.1 22.8 5.8 33.1 0.3 0.7 0.5 1.5 0.8 2.2 0.6 1.5 1.2 2.9 1.8 4.3 0.6 1.4 1.3 2.8 2 4.2 0.7 1.4 1.4 2.8 2.2 4.1 12.5 21.7 33.2 38.2 57.9 44.9-1.9 0.1-3.8 0.2-5.7 0.2-8.8 0-17.6-1.2-25.9-3.6l-31.1-8.6zM352 829.8c-0.3-67.2-9.2-133.4-21.8-193.6 1.3 0.2 2.7 0.5 4 0.7 0.4 0.1 0.7 0.1 1.1 0.2 4.1 0.6 8.3 0.9 12.6 1.1 1.6 0.1 3.1 0.1 4.7 0.1 6.1 0 12.1-0.4 18-1.3 5.9-0.8 11.6-2.1 17.2-3.7 1.5 5.7 3.6 11.3 6.1 16.5l-41.9 180z m259.3 69.9C593.1 917.9 569 928 543.5 928h-15v-15.2h-32V928h-17c-25.5 0-49.6-10-67.8-28.3-17.4-17.4-27.3-40.2-28.2-64.4l112.1-482.9h0.8v224h32V357.6l110.9 477.7c-0.7 24.2-10.6 47-28 64.4z m60.1-63.2c0.1-1.5 0.1-3 0.1-4.6V832.2c0 1.4 0 2.8-0.1 4.3z m0.1-4.7l-41.8-180 0.9-1.8c0.9-1.8 1.7-3.6 2.4-5.5 1.5-3.6 2.7-7.4 3.8-11.3 5.3 1.5 10.8 2.7 16.4 3.5 0.4 0.1 0.7 0.1 1.1 0.2 4.1 0.6 8.3 0.9 12.6 1.1 1.6 0.1 3.1 0.1 4.7 0.1 3.1 0 6.1-0.1 9.1-0.3 3-0.2 6-0.5 8.9-1 1.3-0.2 2.6-0.4 3.8-0.6-12.8 60.9-21.8 127.8-21.9 195.6z m35.2-198.6c0.4 1.4 0.8 2.9 1.2 4.3-0.4-1.4-0.8-2.9-1.2-4.3zM878.8 564l-19.6 11.1 3.8 22.3c0.6 3.6 1 7.4 1 11.1 0 35.5-28.8 64.3-64.3 64.3-29.1 0-54.6-19.6-62.1-47.8l-8.4-31.7-31.5 9.1c-8.5 2.5-17.4 3.7-26.3 3.7-2 0-4.1-0.1-6.1-0.2 24.7-6.8 45.4-23.2 57.8-44.9 0.8-1.3 1.5-2.7 2.2-4.1 1.4-2.8 2.7-5.6 3.9-8.5 0.3-0.7 0.6-1.5 0.8-2.2 3.8-10.3 5.8-21.5 5.8-33.1 0-5.6-0.5-11.2-1.4-16.5 8.5-4.8 16.5-10.6 23.7-17.2 2.1-1.9 4-3.8 6-5.8 1.9-2 3.8-4.1 5.6-6.2 0.9-1.1 1.8-2.1 2.6-3.2 1.7-2.2 3.4-4.4 5-6.7 2.4-3.5 4.6-7 6.6-10.7 1.4-2.5 2.6-5 3.8-7.5 0.6-1.3 1.2-2.6 1.7-3.9 1.1-2.6 2.1-5.2 3.1-7.9 1.4-4 2.6-8.1 3.7-12.3 0.7-2.8 1.3-5.6 1.8-8.5 1.2-7.2 1.9-14.5 1.9-22 0-8.4-0.8-16.7-2.4-24.7-0.7-3.5-1.5-7-2.5-10.5-0.5-1.7-1-3.4-1.6-5.1-1.1-3.4-2.4-6.7-3.7-9.9-0.3-0.8-0.7-1.6-1.1-2.4-1.1-2.4-2.2-4.8-3.5-7.1-0.4-0.8-0.8-1.5-1.2-2.3-0.8-1.5-1.7-3-2.6-4.5-1.4-2.2-2.8-4.4-4.3-6.6-6.9-10-15.3-19-24.7-26.7-0.7-0.5-1.4-1.1-2-1.6-13.7-10.7-29.6-18.7-46.9-23.1v-3.5-3.4c-0.1-3.4-0.2-6.8-0.4-10.2-0.2-2.2-0.4-4.5-0.6-6.7-0.3-3.3-0.8-6.6-1.3-9.9-0.5-3.3-1.1-6.5-1.8-9.7-0.7-3.2-1.4-6.4-2.3-9.6-0.3-1.1-0.6-2.1-0.9-3.1-1-3.7-2.2-7.3-3.4-10.9 34.7 4.6 66.7 20.4 91.8 45.5 30.2 30.3 46.9 70.5 46.9 113.3v3l-0.5 25.3 24.5 6.3c42.6 11 72.4 49.4 72.4 93.6 0.2 34.4-18.6 66.6-49 83.8z" fill="#515151" /></svg>