<?xml version="1.0" standalone="no"?><!DOCTYPE svg PUBLIC "-//W3C//DTD SVG 1.1//EN" "http://www.w3.org/Graphics/SVG/1.1/DTD/svg11.dtd"><svg class="icon" width="32px" height="32.00px" viewBox="0 0 1024 1024" version="1.1" xmlns="http://www.w3.org/2000/svg"><path d="M512 426.666667a42.666667 42.666667 0 1 1-42.666667 42.666666 42.666667 42.666667 0 0 1 42.666667-42.666666m0-42.666667a85.333333 85.333333 0 1 0 85.333333 85.333333 85.333333 85.333333 0 0 0-85.333333-85.333333z"  /><path d="M490.666667 512h42.666666v213.333333h-42.666666zM128 810.666667h768v42.666666H128z"  /><path d="M843.946667 315.733333a182.613333 182.613333 0 0 0-101.973334-30.506666 188.373333 188.373333 0 0 0-40.106666 4.266666A248.533333 248.533333 0 0 0 492.373333 170.666667a231.04 231.04 0 0 0-65.706666 9.6 250.666667 250.666667 0 0 0-174.293334 213.333333h-16.426666a152.746667 152.746667 0 0 0-149.333334 132.053333A168.533333 168.533333 0 0 0 157.653333 682.666667H426.666667v-42.666667H172.16a124.8 124.8 0 0 1-42.666667-108.8 110.293333 110.293333 0 0 1 106.666667-95.146667 108.16 108.16 0 0 1 11.733333 0l42.666667 4.693334 4.693333-42.666667a207.573333 207.573333 0 0 1 144.213334-178.133333 189.013333 189.013333 0 0 1 52.906666-6.613334 207.146667 207.146667 0 0 1 173.44 98.773334l16.853334 25.386666 29.44-6.4a146.346667 146.346667 0 0 1 30.933333-3.2 139.52 139.52 0 0 1 78.293333 23.253334 180.053333 180.053333 0 0 1 74.666667 146.773333A165.333333 165.333333 0 0 1 810.666667 640H597.333333v42.666667h222.933334A207.573333 207.573333 0 0 0 938.666667 499.2a222.72 222.72 0 0 0-94.72-183.466667z"  /></svg>