<?xml version="1.0" standalone="no"?><!DOCTYPE svg PUBLIC "-//W3C//DTD SVG 1.1//EN" "http://www.w3.org/Graphics/SVG/1.1/DTD/svg11.dtd"><svg class="icon" width="48px" height="48.00px" viewBox="0 0 1024 1024" version="1.1" xmlns="http://www.w3.org/2000/svg"><path d="M917.5 289.7L583.6 146c-22.9-9.9-47.2-14.8-71.6-14.8s-48.7 4.9-71.6 14.8l-334 143.8c-56.6 24.4-56.6 106.5 0 130.9l2.5 1.1c0 0.2-0.1 0.4-0.1 0.7v134.4c0 12.4 10 22.4 22.4 22.4s22.4-10 22.4-22.4V441l44.8 19.3v298.1c0 74.2 140.4 134.4 313.6 134.4s313.6-60.2 313.6-134.4V460.2l91.9-39.6c56.7-24.3 56.7-106.5 0-130.9zM512 848c-166.7 0-268.8-58-268.8-89.6V693c54.8 39.1 154.5 65.4 268.8 65.4 41.2 0 80.3-3.5 116.3-9.7 10.6-1.8 18.1-11.2 18.1-21.9v-0.1c0-13.8-12.3-24.4-25.9-22-32.1 5.5-68.4 8.9-108.5 8.9-166.7 0-268.8-58-268.8-89.6V479.5l197.2 84.9c22.9 9.9 47.2 14.8 71.6 14.8s48.7-4.9 71.6-14.8l197.2-84.9V624c0 16.1-26.6 39.1-74.8 57.8-8.8 3.4-14.8 11.6-14.8 21v0.1c0 15.6 15.7 26.6 30.2 21.1 23.2-8.9 43.2-19.4 59.4-30.9v65.3C780.8 790 678.7 848 512 848z m387.8-468.5l-334 143.8c-17.2 7.4-35.3 11.1-53.9 11.1s-36.7-3.7-53.9-11.1L124 379.5c-13.9-6-15.4-19-15.4-24.3s1.5-18.3 15.4-24.3l334-143.8c17.2-7.4 35.3-11.1 53.9-11.1s36.7 3.7 53.9 11.1l334 143.8c13.9 6 15.4 19 15.4 24.3s-1.5 18.3-15.4 24.3z" fill="#181818" /><path d="M131.2 624c-12.4 0-22.4 10-22.4 22.4v44.8c0 12.4 10 22.4 22.4 22.4s22.4-10 22.4-22.4v-44.8c0-12.4-10-22.4-22.4-22.4z" fill="#181818" /></svg>