<?xml version="1.0" standalone="no"?><!DOCTYPE svg PUBLIC "-//W3C//DTD SVG 1.1//EN" "http://www.w3.org/Graphics/SVG/1.1/DTD/svg11.dtd"><svg class="icon" width="48px" height="48.00px" viewBox="0 0 1024 1024" version="1.1" xmlns="http://www.w3.org/2000/svg"><path d="M768 618.666667h-192a64 64 0 0 0-64 64v106.666666a64 64 0 0 0 64 64h192a64 64 0 0 0 64-64v-106.666666a64 64 0 0 0-64-64z m21.333333 170.666666a21.333333 21.333333 0 0 1-21.333333 21.333334h-192a21.333333 21.333333 0 0 1-21.333333-21.333334v-106.666666a21.333333 21.333333 0 0 1 21.333333-21.333334h192a21.333333 21.333333 0 0 1 21.333333 21.333334z" fill="#181818" /><path d="M932.053333 149.333333H874.666667V106.666667a64 64 0 0 0-64-64H213.333333a64 64 0 0 0-64 64v42.666666H91.946667L0 390.826667v3.84a117.546667 117.546667 0 0 0 85.333333 112.853333V896a64 64 0 0 0 64 64h725.333334a64 64 0 0 0 64-64V507.52a117.546667 117.546667 0 0 0 85.333333-112.853333v-3.84zM192 106.666667a21.333333 21.333333 0 0 1 21.333333-21.333334h597.333334a21.333333 21.333333 0 0 1 21.333333 21.333334v42.666666H192z m42.666667 810.666666V682.666667a21.333333 21.333333 0 0 1 21.333333-21.333334h128a21.333333 21.333333 0 0 1 21.333333 21.333334v234.666666z m640 0H448V682.666667a64 64 0 0 0-64-64h-128a64 64 0 0 0-64 64v234.666666H149.333333a21.333333 21.333333 0 0 1-21.333333-21.333333V512a117.333333 117.333333 0 0 0 85.333333-49.28 117.333333 117.333333 0 0 0 192-1.28 134.613333 134.613333 0 0 0 211.413334 0 117.333333 117.333333 0 0 0 192 1.28A117.333333 117.333333 0 0 0 896 512v384a21.333333 21.333333 0 0 1-21.333333 21.333333z m32-448a74.666667 74.666667 0 0 1-74.666667-74.666666h-42.666667a74.666667 74.666667 0 0 1-149.333333 0h-42.666667a80.64 80.64 0 0 1-85.333333 74.666666 80.64 80.64 0 0 1-85.333333-74.666666h-42.666667a74.666667 74.666667 0 0 1-149.333333 0H192a74.666667 74.666667 0 0 1-149.333333 3.626666L121.386667 192h781.226666L981.333333 398.293333A74.666667 74.666667 0 0 1 906.666667 469.333333z" fill="#181818" /></svg>