<?xml version="1.0" standalone="no"?><!DOCTYPE svg PUBLIC "-//W3C//DTD SVG 1.1//EN" "http://www.w3.org/Graphics/SVG/1.1/DTD/svg11.dtd"><svg class="icon" width="32px" height="32.00px" viewBox="0 0 1024 1024" version="1.1" xmlns="http://www.w3.org/2000/svg"><path d="M568.78592 848.29184c14.00832 0 15.12448 1.12128 15.12448 15.1296s-1.11616 15.12448-15.12448 15.12448H439.38816c-14.00832 0-10.0096-1.11616-10.0096-15.12448s-4.00384-15.1296 10.0096-15.1296h129.39776zM341.80608 882.03776a34.9184 34.9184 0 0 1-36.28032-59.65824c0.50176-0.30208 1.01376-0.59392 1.53088-0.87552a34.90304 34.90304 0 0 1 47.54944 13.27616 34.90816 34.90816 0 0 1-12.8 47.27808v-0.02048zM714.16832 882.03776a34.91328 34.91328 0 1 1-34.74432-60.53376 34.90816 34.90816 0 0 1 34.74432 60.55424v-0.02048zM885.95968 729.34912c-1.77664 0-3.7376-0.23552-5.83168-0.69632-10.1632-1.42336-14.34112-10.68032-12.0576-27.43296a24.8832 24.8832 0 0 1 0.29696-1.72544l57.1648-375.95648a22.6304 22.6304 0 0 0-4.91008-19.54816 25.76896 25.76896 0 0 0-19.712-9.14432H115.27168a25.89184 25.89184 0 0 0-19.78368 9.14432 23.71584 23.71584 0 0 0-4.72576 20.57728l62.06976 374.89664c0.9216 6.74304 1.5616 13.57312 0.1792 18.78016-1.53088 5.79584-5.23264 8.90368-11.648 9.7792a25.6512 25.6512 0 0 1-3.34336 0.23552c-5.81632 0-16.128-2.62144-19.79392-20.18304L53.26336 332.57984c-5.65248-26.22464 9.6512-47.0784 16.49664-54.81984 8.3456-11.136 27.0848-18.25792 48.64-18.26816h772.38784c22.59968 0.03072 49.31072 9.86624 58.33216 21.46816 12.0064 11.58656 17.4592 21.86752 15.96416 48.97792l-0.06144 0.54784-62.04416 377.58464c-1.33632 9.83552-4.5056 21.27872-17.01888 21.27872z" fill="#d4237a" /><path d="M825.55904 291.67104a19.2256 19.2256 0 0 1-14.06976-6.13376l-220.81536-217.70752c-5.91872-6.23104-13.6448-9.6-21.87776-9.6-8.4992 0-16.67584 3.6864-23.0144 10.37824L336.73728 275.02592v-0.95232l-10.6496 11.45344a19.0208 19.0208 0 0 1-14.09024 6.13888 19.1488 19.1488 0 0 1-13.07136-5.13536 19.0976 19.0976 0 0 1-6.12352-13.37856 19.06688 19.06688 0 0 1 6.28736-14.9504L518.3488 41.728c13.42464-14.19264 31.39072-22.08256 50.46272-22.08256 18.78528 0 36.28544 7.56224 49.26976 21.2992l220.20096 217.05728c3.9424 3.57888 6.23616 8.28928 6.49216 13.47584 0.256 5.12-1.50016 10.04544-4.95104 13.85472a18.97472 18.97472 0 0 1-14.26432 6.33856zM258.46272 254.75584c-4.8128 0-9.4208-1.792-12.97408-5.04832a19.2512 19.2512 0 0 1-0.01024-28.34432L452.8128 19.15904c3.81952-4.15744 8.83712-6.43584 14.36672-6.43584 4.8128 0 9.42592 1.792 12.9792 5.04832a19.08224 19.08224 0 0 1 6.2208 13.32736A19.12832 19.12832 0 0 1 480.1536 46.1312L272.83968 248.32c-3.82464 4.15744-8.84224 6.43584-14.37696 6.43584zM324.42368 721.6896c-71.84896 0-130.09408 58.24-130.09408 130.08896s58.24512 130.0992 130.09408 130.0992 130.09408-58.25024 130.09408-130.0992-58.25024-130.08896-130.09408-130.08896z m0 226.36032h-0.01024c-53.0176-0.03072-96.1792-43.19232-96.21504-96.2048-0.03072-53.08416 43.13088-96.29696 96.20992-96.3328 53.09952 0 96.2816 43.19232 96.2816 96.27136s-43.18208 96.26624-96.26624 96.26624zM696.78592 721.6896c-71.84896 0-130.09408 58.24-130.09408 130.08896s58.24512 130.0992 130.09408 130.0992 130.09408-58.25024 130.09408-130.0992-58.24512-130.08896-130.09408-130.08896z m0 228.06528h-0.01024c-53.95968-0.03072-97.88416-43.9552-97.91488-97.91488-0.03072-54.02112 43.89376-97.9968 97.90976-98.03264 54.03648 0 97.99168 43.9552 97.99168 97.97632s-43.9552 97.9712-97.97632 97.9712zM506.81856 776.42752a21.248 21.248 0 0 1-21.20192-21.11488l-0.23552-46.82752-10.85952-2.67776c-26.37824-6.50752-52.5824-18.5856-77.88544-35.90656-4.22912-3.09248-7.22944-8.00256-8.10496-13.59872a21.07904 21.07904 0 0 1 3.8144-15.77472 21.31456 21.31456 0 0 1 17.16224-8.71424 21.1456 21.1456 0 0 1 11.42784 3.36384c32.39936 22.17472 65.39776 34.0224 95.0784 34.0224 25.05216 0 45.9264-8.70912 58.7776-24.5248 11.25376-13.85472 8.92928-25.97888 6.54336-31.9744-6.46144-16.24064-27.1104-26.43456-63.10912-31.17568-44.14976-5.03808-98.5088-21.51936-108.16512-71.58272-6.64064-34.51904 12.11904-72.59136 44.61056-90.50624a92.95872 92.95872 0 0 1 20.22912-8.09984l10.61376-2.90816-0.22016-44.60032a21.23776 21.23776 0 0 1 21.10976-21.2992c11.73504 0 21.248 9.472 21.30944 21.10976l0.22016 46.50496 10.5472 2.86208c22.70208 6.17984 46.81216 17.67936 71.64416 34.19648 5.31968 3.2512 8.71936 7.90528 10.0608 13.40928a21.08416 21.08416 0 0 1-2.5088 16.03584 21.07904 21.07904 0 0 1-18.14016 10.17856 21.07904 21.07904 0 0 1-12.39552-4.03456c-30.27968-20.13184-56.576-31.0016-78.62784-32.6144l-0.68608-0.0512-0.59392 0.01024a18.49856 18.49856 0 0 0-1.27488-0.09728 73.60512 73.60512 0 0 0-3.12832-0.06656c-10.46016 0-19.77344 2.21184-27.6736 6.56384-16.33792 9.0112-26.63424 28.94848-23.4496 45.38368 4.28032 22.03136 45.20448 34.5344 71.66976 37.57056 48.9472 6.43584 85.89824 29.35296 98.60608 61.26592 9.14944 22.95296 4.07552 48.0512-14.2848 70.64576-16.22528 19.98336-39.67488 33.01888-67.79904 37.68832l-12.0576 1.9968 0.20992 44.05248a21.23264 21.23264 0 0 1-21.10976 21.29408h-0.12288z" fill="#d4237a" /></svg>