<?xml version="1.0" standalone="no"?><!DOCTYPE svg PUBLIC "-//W3C//DTD SVG 1.1//EN" "http://www.w3.org/Graphics/SVG/1.1/DTD/svg11.dtd"><svg class="icon" width="48px" height="43.81px" viewBox="0 0 1122 1024" version="1.1" xmlns="http://www.w3.org/2000/svg"><path d="M829.793103 778.593103c-3.531034 0-7.062069-1.765517-8.827586-3.531034l-188.910345-150.068966c-12.358621 5.296552-22.951724 8.827586-35.310344 8.827587-70.62069 7.062069-135.944828-44.137931-143.006897-114.758621-1.765517-15.889655 0-31.77931 3.531035-45.903448 1.765517-5.296552 5.296552-8.827586 10.593103-10.593104 5.296552-1.765517 10.593103 0 14.124138 1.765517l77.682759 63.558621 40.606896-49.434483-77.682759-63.55862c-3.531034-3.531034-5.296552-8.827586-5.296551-14.124138 0-5.296552 3.531034-8.827586 8.827586-12.358621 14.124138-7.062069 30.013793-12.358621 44.137931-14.124138 70.62069-7.062069 135.944828 44.137931 143.006897 114.758621 1.765517 12.358621 1.765517 24.717241-1.765518 37.075862L900.413793 676.193103c3.531034 1.765517 5.296552 7.062069 5.296552 10.593104 0 3.531034 0 8.827586-3.531035 10.593103l-58.262069 74.151724c-5.296552 5.296552-8.827586 7.062069-14.124138 7.062069zM633.82069 593.213793c3.531034 0 7.062069 1.765517 8.827586 3.531035l183.613793 146.537931 40.606897-49.434483L683.255172 547.310345c-5.296552-3.531034-7.062069-10.593103-5.296551-15.889655 3.531034-12.358621 3.531034-24.717241 1.765517-35.310345-5.296552-54.731034-54.731034-93.572414-109.462069-88.275862-3.531034 0-7.062069 1.765517-10.593103 1.765517l68.855172 54.731034c3.531034 1.765517 5.296552 7.062069 5.296552 10.593104 0 3.531034 0 8.827586-3.531035 10.593103l-58.262069 74.151725c-1.765517 3.531034-7.062069 5.296552-10.593103 5.296551-3.531034 0-8.827586 0-10.593104-3.531034l-68.855172-54.731035v10.593104c5.296552 54.731034 54.731034 93.572414 109.462069 88.275862 12.358621-1.765517 22.951724-5.296552 33.544827-10.593104 5.296552 0 7.062069-1.765517 8.827587-1.765517z" fill="#4169E1" /><path d="M633.82069 873.931034H476.689655c-7.062069 0-14.124138-5.296552-15.889655-14.124137l-7.062069-72.386207c-7.062069-1.765517-14.124138-5.296552-21.186207-8.827587l-56.496552 45.903449c-5.296552 5.296552-14.124138 5.296552-21.186206-1.765518L238.344828 706.206897c-5.296552-5.296552-5.296552-14.124138 0-21.186207l47.668965-56.496552c-3.531034-7.062069-5.296552-14.124138-8.827586-21.186207l-72.386207-7.062069c-7.062069 0-14.124138-7.062069-14.124138-15.889655v-164.193104c0-7.062069 5.296552-14.124138 14.124138-15.889655l72.386207-7.062069c1.765517-7.062069 5.296552-14.124138 8.827586-21.186207l-45.903448-56.496551c-5.296552-5.296552-5.296552-14.124138 1.765517-21.186207l116.524138-116.524138c5.296552-5.296552 14.124138-5.296552 21.186207 0l56.496552 47.668965c7.062069-3.531034 14.124138-5.296552 21.186207-8.827586l7.062068-72.386207c0-7.062069 7.062069-14.124138 15.889656-14.124138h164.193103c7.062069 0 14.124138 5.296552 15.889655 14.124138l7.062069 72.386207c7.062069 1.765517 14.124138 5.296552 21.186207 8.827586l56.496552-45.903448c7.062069-5.296552 15.889655-5.296552 21.186207 1.765517l127.117241 144.772414c3.531034 3.531034 5.296552 8.827586 3.531035 14.124138s-5.296552 8.827586-10.593104 10.593104c-104.165517 30.013793-132.413793 38.841379-141.241379 40.606896-10.593103 3.531034-17.655172-3.531034-42.372414-28.248276l-8.827586-8.827586c-68.855172-52.965517-174.786207-52.965517-248.937931 1.765517-42.372414 30.013793-65.324138 79.448276-65.324138 139.475862C377.82069 607.337931 459.034483 688.551724 559.668966 688.551724h5.296551c5.296552 0 12.358621 3.531034 14.124138 8.827586l68.855173 155.365518c1.765517 5.296552 1.765517 10.593103-1.765518 14.124138-1.765517 5.296552-7.062069 7.062069-12.35862 7.062068z m-143.006897-30.013793h120.055173l-54.731035-123.586207c-114.758621-3.531034-208.331034-97.103448-208.331034-213.627586 0-68.855172 28.248276-127.117241 77.682758-164.193103 84.744828-63.558621 204.8-63.558621 286.013793-1.765517l10.593104 10.593103c5.296552 5.296552 14.124138 14.124138 19.420689 17.655172 19.42069-5.296552 77.682759-22.951724 111.227587-33.544827l-102.4-116.524138-52.965518 44.137931c-5.296552 3.531034-10.593103 5.296552-15.889655 1.765517-10.593103-5.296552-22.951724-10.593103-35.310345-14.124138-5.296552-1.765517-10.593103-7.062069-10.593103-12.35862l-5.296552-68.855173h-137.710345l-7.062069 68.855173c0 5.296552-5.296552 10.593103-10.593103 12.35862-12.358621 3.531034-24.717241 8.827586-35.310345 14.124138-5.296552 3.531034-12.358621 1.765517-15.889655-1.765517l-52.965517-44.137931-97.103449 97.103448 44.137931 52.965517c3.531034 5.296552 5.296552 10.593103 1.765518 15.889656-5.296552 10.593103-10.593103 22.951724-14.124138 35.310344-1.765517 5.296552-7.062069 10.593103-12.358621 10.593104l-68.855172 5.296552v137.710344l68.855172 7.062069c5.296552 0 10.593103 5.296552 12.358621 10.593104 3.531034 12.358621 8.827586 24.717241 14.124138 35.310345 3.531034 5.296552 1.765517 12.358621-1.765518 15.889655l-44.137931 52.965517 97.103449 97.103448 52.965517-44.137931c5.296552-3.531034 10.593103-5.296552 15.889655-1.765517 12.358621 5.296552 22.951724 10.593103 35.310345 14.124138 5.296552 1.765517 10.593103 7.062069 10.593103 12.358621l5.296552 70.620689z" fill="#4169E1" /></svg>