<?xml version="1.0" standalone="no"?><!DOCTYPE svg PUBLIC "-//W3C//DTD SVG 1.1//EN" "http://www.w3.org/Graphics/SVG/1.1/DTD/svg11.dtd"><svg class="icon" width="48px" height="48.00px" viewBox="0 0 1024 1024" version="1.1" xmlns="http://www.w3.org/2000/svg"><path d="M881 837.5H613.8c-14.8 0-26.7-12-26.7-26.7V623.5c0-14.8 12-26.7 26.7-26.7v-53.5c0-73.9 59.8-133.7 133.6-133.7S881 469.5 881 543.3v53.5c14.8 0 26.7 12 26.7 26.7v187.2c0 14.8-12 26.8-26.7 26.8z m-34.7-294.2c0-44.3-54.7-99-98.9-99-44.3 0-98.9 54.7-98.9 99v53.5h197.8v-53.5z m26.7 88.2H621.7v171.2H873V631.5zM736.8 341.9c-25.2 0-49.1 5.6-70.5 15.5-1.4-7.5-3-14.9-4.6-22.3-47.2-10.8-96.7-17.1-147.8-18.3V483H571c-1.4 8.8-2.2 17.8-2.2 27v10.5h-54.9v168.2c7.1-0.2 14.2-0.4 21.3-0.8v37.7c-7.1 0.3-14.1 0.6-21.3 0.8v131.8c7.7-0.4 15.2-1.1 22.8-1.9 4.2 13.8 17 23.8 32.1 23.8h34.9c-34.5 9.9-70.9 15.2-108.5 15.2C278 895.3 102 719.1 102 501.8s176-393.6 393.1-393.6c190.1 0 348.7 135 385.3 314.4-29.5-48.4-82.8-80.7-143.6-80.7zM308.3 520.5c1.2 52 7.4 102.3 17.9 150.3 47.9 10.5 98.2 16.7 150.2 17.9V520.5H308.3zM476.4 483V316.8c-52.2 1.3-102.7 7.8-150.8 19-10.1 47.1-16.1 96.4-17.2 147.2h168zM387 842c28.4 9.1 58.4 14.6 89.4 16.2V726.4c-48.2-1.1-95-6.2-140.1-15.1 13 46.4 30 90.2 50.7 130.7z m-51.3-20.9c-16.5-37.6-30.2-77.4-40.7-119-41.6-10.5-81.4-24.2-118.9-40.7 34.5 69 90.6 125.2 159.6 159.7zM155.2 610c40.4 20.7 84.2 37.7 130.5 50.7-8.8-45.1-14-92-15.1-140.2H139c1.6 31.1 7.1 61.1 16.2 89.5zM139 483h131.7c1-46.9 6-92.6 14.4-136.6-46.9 13.8-91.2 32.1-132 54.3-7.9 26.3-12.7 53.9-14.1 82.3z m34.9-136.5c38.1-17.7 78.5-32.5 120.7-43.7 10.6-42.1 24.3-82.4 41-120.4-70.3 35.3-127.4 93.2-161.7 164.1zM387 161.6c-20.8 40.7-37.9 84.8-50.9 131.5 45.1-9.3 92-14.8 140.3-15.9V145.7v-0.4c-31 1.7-61 7.2-89.4 16.3z m126.9-16.2v131.8c47 1.1 92.7 6.3 136.7 15.2-13.8-47.2-32.2-91.8-54.5-132.9-26.3-7.9-53.8-12.7-82.2-14.1z m136.4 34.9c17.9 38.5 32.7 79.4 44 122.1 42.8 11.3 83.6 26.1 122.1 44.1-35.1-72.4-93.8-131.2-166.1-166.2z" fill="#4169E1" /></svg>