<?xml version="1.0" standalone="no"?><!DOCTYPE svg PUBLIC "-//W3C//DTD SVG 1.1//EN" "http://www.w3.org/Graphics/SVG/1.1/DTD/svg11.dtd"><svg class="icon" width="32px" height="32.00px" viewBox="0 0 1024 1024" version="1.1" xmlns="http://www.w3.org/2000/svg"><path d="M737.468125 774.147512c-35.177174 0-63.797002-28.619828-63.797002-63.797002s28.619828-63.797002 63.797002-63.797002 63.797002 28.619828 63.797002 63.797002S772.645298 774.147512 737.468125 774.147512zM737.468125 682.20345c-15.520485 0-28.14706 12.626575-28.14706 28.14706s12.626575 28.14706 28.14706 28.14706 28.14706-12.626575 28.14706-28.14706S752.98861 682.20345 737.468125 682.20345z" fill="#181818" /><path d="M294.196439 774.147512c-35.177174 0-63.795978-28.619828-63.795978-63.797002s28.618804-63.797002 63.795978-63.797002c35.175127 0 63.791885 28.619828 63.791885 63.797002S329.371566 774.147512 294.196439 774.147512zM294.196439 682.20345c-15.520485 0-28.14706 12.626575-28.14706 28.14706s12.626575 28.14706 28.14706 28.14706c15.518438 0 28.142967-12.626575 28.142967-28.14706S309.714877 682.20345 294.196439 682.20345z" fill="#181818" /><path d="M793.741779 197.86751 239.200894 197.86751c-9.844206 0-17.823947-7.979742-17.823947-17.823947s7.979742-17.823947 17.823947-17.823947L793.741779 162.219615c9.844206 0 17.824971 7.979742 17.824971 17.823947S803.585985 197.86751 793.741779 197.86751z" fill="#181818" /><path d="M769.46077 923.102009l-46.316885 0c-31.973202 0-57.985646-26.01449-57.985646-57.989739l0-25.140587L370.589316 839.971683l0 25.140587c0 31.975249-26.012444 57.989739-57.985646 57.989739l-45.192272 0c-31.973202 0-57.985646-26.01449-57.985646-57.989739l0-30.420847c-8.893554-3.524267-16.921391-9.003048-23.407106-16.08535-10.408047-11.365862-16.139585-26.123984-16.139585-41.556465L169.879062 595.863013c-0.387833-1.466398-0.592494-3.004427-0.590448-4.588505l0.590448-456.848912c0-34.671661 28.225855-62.898539 62.920028-62.898539l566.253648 0c34.694173 0 62.921052 28.225855 62.921052 62.921052l0 363.345332c0 0.135076-0.002047 0.271176-0.005117 0.406253-0.099261 6.069229 1.290389 24.320918 8.81476 35.06768 5.646604 8.064676 3.686972 19.178805-4.377704 24.825408-8.06263 5.64558-19.177781 3.685949-24.824385-4.376681-15.259542-21.793352-15.33322-51.697429-15.257495-56.094576L826.323848 134.448108c0-15.037485-12.233626-27.272133-27.27111-27.272133L232.800114 107.175975c-15.037485 0-27.27111 12.234649-27.27111 27.272133l-0.567935 439.437357 605.303013 0c19.993357 0 31.846312 8.327666 38.267559 15.313777 13.836123 15.050788 13.712303 35.284621 13.444197 40.312124l0 147.540288c0 23.668049-13.660114 44.787042-34.524305 55.265698l0 32.796964C827.450509 897.087519 801.437042 923.102009 769.46077 923.102009zM352.764346 804.321742l330.219887 0c9.844206 0 17.824971 7.980765 17.824971 17.824971l0 42.965557c0 12.31856 10.019191 22.339798 22.335704 22.339798l46.316885 0c12.31856 0 22.339798-10.021238 22.339798-22.339798l0-45.100174c0-8.193613 5.585205-15.331173 13.537318-17.301038 12.55392-3.109828 20.986987-13.422707 20.986987-25.660426L826.325895 628.951619c0-0.605797-0.004093-0.843204 0.054235-1.412163 0.127913-2.553149-0.36225-10.253528-4.167926-14.296611-0.86367-0.916882-3.490497-3.708462-11.948123-3.708462L205.529003 609.534384l0 167.515225c0 13.44829 10.091846 24.50716 23.997554 26.295899 8.891508 1.144056 15.549138 8.714476 15.549138 17.678638l0 44.087101c0 12.31856 10.020214 22.339798 22.336728 22.339798l45.192272 0c12.316513 0 22.335704-10.021238 22.335704-22.339798l0-42.965557C334.939375 812.302507 342.92014 804.321742 352.764346 804.321742z" fill="#181818" /></svg>