<?xml version="1.0" standalone="no"?><!DOCTYPE svg PUBLIC "-//W3C//DTD SVG 1.1//EN" "http://www.w3.org/Graphics/SVG/1.1/DTD/svg11.dtd"><svg class="icon" width="48px" height="48.00px" viewBox="0 0 1024 1024" version="1.1" xmlns="http://www.w3.org/2000/svg"><path d="M 840 728 c 16 0 30 13 30 30 c 0 16 -13 30 -30 30 c -16 0 -30 -13 -30 -30 c 0 -16 13 -30 30 -30 Z m 184 -216 C 1024 229 795 0 512 0 S 0 229 0 512 s 229 512 512 512 s 512 -229 512 -512 Z M 512 321 c 106 0 191 86 191 191 c 0 106 -86 191 -191 191 c -106 0 -191 -86 -191 -191 c 0 -106 86 -191 191 -191 Z" fill="#e8989a" /><path d="M 869 758 c 0 -16 -13 -30 -30 -30 c -16 0 -30 13 -30 30 c 0 16 13 30 30 30 c 16 0 30 -13 30 -30 Z" fill="#ffffff" /></svg>