<?xml version="1.0" standalone="no"?><!DOCTYPE svg PUBLIC "-//W3C//DTD SVG 1.1//EN" "http://www.w3.org/Graphics/SVG/1.1/DTD/svg11.dtd"><svg class="icon" width="48px" height="48.00px" viewBox="0 0 1024 1024" version="1.1" xmlns="http://www.w3.org/2000/svg"><path d="M789.504 374.442667c-2.304 0-4.608-1.109333-5.888-3.242667-1.877333-2.816-45.226667-70.997333-17.749333-180.053333 0.938667-3.754667 4.778667-6.058667 8.618666-5.12 3.754667 0.938667 6.058667 4.778667 5.12 8.618666-25.856 102.741333 15.445333 168.192 15.872 168.874667 2.133333 3.242667 1.194667 7.68-2.048 9.813333-1.28 0.768-2.645333 1.109333-3.925333 1.109334z" fill="#FFB814" /><path d="M803.84 69.888c-12.202667-0.256-21.76 3.413333-28.501333 7.509333-6.570667-4.437333-15.957333-8.533333-28.16-8.789333-24.32-0.512-43.776 19.114667-44.373334 44.8-0.341333 16.469333 7.338667 48.384 63.402667 76.970667l6.4 3.242666 6.570667-2.986666c57.344-26.026667 66.474667-57.6 66.901333-74.069334 0.682667-25.6-17.92-46.165333-42.24-46.677333z" fill="#F5F18D" /><path d="M799.744 85.674667c-10.581333-0.256-18.858667 2.986667-24.746667 6.570666-5.717333-3.84-13.824-7.424-24.405333-7.68-21.077333-0.512-37.973333 16.554667-38.485333 38.826667-0.341333 14.250667 6.4 41.898667 54.954666 66.730667l5.546667 2.816 5.717333-2.56c49.664-22.613333 57.6-49.92 57.941334-64.170667 0.597333-22.272-15.445333-40.106667-36.522667-40.533333z" fill="#FFB814" /><path d="M724.821333 131.328h-0.085333a4.693333 4.693333 0 0 1-4.608-4.864c0.426667-20.053333 15.616-35.498667 34.645333-35.498667h0.768c2.645333 0.085333 4.693333 2.218667 4.608 4.864-0.085333 2.56-2.133333 4.608-4.693333 4.608h-0.682667c-13.824 0-24.832 11.434667-25.173333 26.282667-0.170667 2.56-2.218667 4.608-4.778667 4.608z" fill="#FFFFFF" /><path d="M779.605333 394.410667c-3.498667 0-6.485333-2.56-6.997333-6.144-9.045333-65.792 6.826667-124.842667 45.824-170.837334l49.664-58.538666c2.56-2.986667 6.997333-3.328 9.984-0.853334 2.986667 2.56 3.328 6.997333 0.853333 9.984l-49.664 58.538667c-36.352 42.837333-51.114667 98.048-42.581333 159.744 0.512 3.84-2.218667 7.424-6.058667 8.021333-0.341333 0.085333-0.682667 0.085333-1.024 0.085334zM221.952 482.218667a7.082667 7.082667 0 0 1-6.997333-6.144L201.642667 372.906667c-10.325333-79.786667 4.010667-159.573333 41.472-230.741334 1.792-3.498667 6.058667-4.778667 9.557333-2.986666 3.498667 1.792 4.778667 6.144 2.986667 9.557333-36.096 68.608-49.92 145.493333-39.936 222.293333l13.312 103.168c0.512 3.84-2.218667 7.424-6.144 7.936-0.341333 0.085333-0.597333 0.085333-0.938667 0.085334z" fill="#55C179" /><path d="M130.901333 491.776c-2.218667 0-4.437333-1.109333-5.888-3.072-1.962667-2.816-46.762667-69.973333-21.845333-179.626667 0.853333-3.84 4.693333-6.229333 8.448-5.290666 3.84 0.853333 6.229333 4.693333 5.290667 8.448-23.637333 103.68 19.285333 167.850667 19.712 168.448 2.218667 3.242667 1.365333 7.594667-1.877334 9.813333-1.109333 0.853333-2.474667 1.28-3.84 1.28z" fill="#FFB814" /><path d="M893.44 433.408h-18.005333c-13.226667 0-23.893333 13.824-23.893334 30.890667v25.344c0 17.066667 10.666667 30.890667 23.893334 30.890666h73.557333c13.226667 0 23.893333-13.824 23.893333-30.890666-6.058667-52.224-79.445333-56.234667-79.445333-56.234667z" fill="#FF9797" /><path d="M929.194667 457.472c-7.168-4.266667-14.848-7.082667-22.784-8.874667-5.802667-1.28-25.6-1.962667-29.44-1.706666-10.24 1.194667-18.432 11.776-19.285334 25.088 0.170667 7.850667 0.341333 16.554667 0.341334 25.258666 0 5.717333 1.536 11.349333 4.778666 16.042667 3.072 4.522667 6.826667 7.168 12.629334 7.168h62.976c15.701333-0.256 18.858667-16.042667 18.858666-16.042667 0.256-1.877333 0.426667-3.84 0.426667-5.802666-0.085333-17.408-14.592-32.938667-28.501333-41.130667z" fill="#FCA4A4" /><path d="M79.445333 433.408h18.005334c13.226667 0 23.893333 13.824 23.893333 30.890667v25.344c0 17.066667-10.666667 30.890667-23.893333 30.890666H23.893333C10.666667 520.533333 0 506.709333 0 489.642667c5.973333-52.224 79.445333-56.234667 79.445333-56.234667z" fill="#FF9797" /><path d="M43.690667 457.472c7.168-4.266667 14.848-7.082667 22.784-8.874667 5.802667-1.28 25.6-1.962667 29.44-1.706666 10.24 1.194667 18.432 11.776 19.285333 25.088-0.170667 7.850667-0.341333 16.554667-0.341333 25.258666 0 5.717333-1.536 11.349333-4.778667 16.042667-3.072 4.522667-6.826667 7.168-12.629333 7.168H34.474667c-15.701333-0.256-18.858667-16.042667-18.858667-16.042667-0.256-1.877333-0.426667-3.84-0.426667-5.802666 0.085333-17.408 14.592-32.938667 28.501334-41.130667z" fill="#FCA4A4" /><path d="M873.813333 534.613333H99.072l84.48-217.856c23.125333-59.648 70.741333-92.501333 134.144-92.501333h337.493333c63.317333 0 111.018667 32.853333 134.144 92.501333l84.48 217.856z m-693.845333-49.834666h612.949333l-59.136-152.405334c-20.224-52.224-54.613333-58.282667-78.592-58.282666H317.696c-50.176 0-68.949333 33.28-78.592 58.282666l-59.136 152.405334z" fill="#FF9797" /><path d="M761.6 324.522667c-17.493333-44.970667-50.773333-75.349333-106.410667-75.349334H317.696c-55.552 0-88.917333 30.378667-106.410667 75.349334l-71.765333 185.088h693.845333l-71.765333-185.088z" fill="#FBE9E9" /><path d="M796.16 414.037333c-15.786667 14.08-46.933333 23.637333-85.077333 23.637334L486.4 438.016l-224.682667-0.341333c-38.144 0-69.290667-9.557333-85.077333-23.637334l-37.205333 95.658667h693.930666L796.16 414.037333z" fill="#FFDCDC" /><path d="M217.514667 421.632a9.437867 9.437867 0 0 1-6.4-16.384l147.626666-135.594667c3.84-3.498667 9.813333-3.242667 13.312 0.597334 3.498667 3.84 3.242667 9.813333-0.597333 13.312l-147.626667 135.594666c-1.706667 1.706667-4.010667 2.474667-6.314666 2.474667zM287.658667 421.632a9.437867 9.437867 0 0 1-6.4-16.384l84.053333-76.373333c3.84-3.498667 9.813333-3.242667 13.312 0.597333 3.498667 3.84 3.242667 9.813333-0.597333 13.312l-84.053334 76.373333c-1.792 1.706667-4.010667 2.474667-6.314666 2.474667z" fill="#FFFFFF" /><path d="M276.309333 950.528v-61.866667c0-23.722667-9.813333-44.629333-32.341333-51.968l-6.570667-2.133333c-30.037333-9.728-73.216-9.472-103.082666 0.768l-2.730667 0.938667c-22.101333 7.594667-31.488 28.330667-31.488 51.626666v63.317334c0 22.698667 8.533333 43.008 29.781333 51.029333 32.512 12.373333 79.36 12.714667 112.128 0.938667l3.584-1.28c21.674667-7.765333 30.72-28.330667 30.72-51.370667z" fill="#FD656F" /><path d="M246.016 837.461333v97.962667c0 17.664-7.936 33.450667-27.050667 39.338667l-3.157333 1.024c-28.842667 9.045333-70.058667 8.789333-98.730667-0.682667-6.570667-2.218667-11.776-5.546667-15.786666-9.728 2.986667 16.725333 11.861333 30.72 28.501333 37.034667 32.512 12.373333 79.36 12.714667 112.128 0.938666l3.584-1.28c21.674667-7.765333 30.72-28.330667 30.72-51.370666v-61.866667c0.085333-23.125333-9.130667-43.52-30.208-51.370667z" fill="#CC4B29" /><path d="M872.789333 950.528v-61.866667c0-23.722667-9.813333-44.629333-32.341333-51.968l-6.570667-2.133333c-30.037333-9.728-73.216-9.472-103.082666 0.768l-2.730667 0.938667c-22.101333 7.594667-31.488 28.330667-31.488 51.626666v63.317334c0 22.698667 8.533333 43.008 29.781333 51.029333 32.512 12.373333 79.36 12.714667 112.128 0.938667l3.584-1.28c21.674667-7.765333 30.72-28.330667 30.72-51.370667z" fill="#FD656F" /><path d="M842.496 837.461333v97.962667c0 17.664-7.936 33.450667-27.050667 39.338667l-3.157333 1.024c-28.842667 9.045333-70.058667 8.789333-98.730667-0.682667-6.570667-2.218667-11.776-5.546667-15.786666-9.728 2.986667 16.725333 11.861333 30.72 28.501333 37.034667 32.512 12.373333 79.36 12.714667 112.128 0.938666l3.584-1.28c21.674667-7.765333 30.72-28.330667 30.72-51.370666v-61.866667c0.085333-23.125333-9.130667-43.52-30.208-51.370667z" fill="#CC4B29" /><path d="M487.68 778.325333h-2.56c-242.090667-0.597333-439.552 7.424-452.693333-90.88v119.722667c0 54.869333 20.650667 104.106667 73.045333 120.149333 22.954667 6.997333 47.786667 10.922667 74.154667 12.8 23.381333 1.621333 61.354667-1.877333 83.968-8.362666a58.282667 58.282667 0 0 1 16.042666-2.218667h413.610667c5.546667 0 11.008 0.768 16.042667 2.218667 22.528 6.485333 60.501333 10.069333 83.968 8.362666 26.368-1.877333 51.114667-5.802667 74.154666-12.8 52.48-16.042667 73.045333-65.28 73.045334-120.149333V687.445333c-13.141333 98.304-210.602667 90.282667-452.778667 90.88z" fill="#FFBCC5" /><path d="M487.765333 794.709333h-2.730666c-196.437333-0.512-360.704 9.813333-438.101334-47.189333 0 64.597333-5.888 143.189333 68.010667 164.608 22.272 6.485333 48.981333 11.434667 74.496 13.141333 3.584 0.256 40.277333-2.048 54.613333-4.010666 0.853333-0.085333 19.797333-3.242667 26.624-5.12 4.864-1.365333 10.154667-2.048 15.530667-2.048h400.384c5.376 0 10.666667 0.682667 15.530667 2.048 6.826667 1.877333 25.770667 4.949333 26.624 5.12 14.336 1.962667 31.232 2.986667 44.458666 2.986666 4.096 0 62.378667-5.632 84.650667-12.117333 73.557333-21.333333 68.010667-101.034667 68.010667-164.608-77.397333 57.002667-241.578667 46.677333-438.101334 47.189333z" fill="#FF8383" /><path d="M485.205333 778.325333h2.56c250.709333-0.597333 453.461333 8.021333 453.461334-101.546666 0-233.728-203.52-225.792-454.741334-225.621334-251.306667-0.170667-454.826667-8.192-454.826666 225.536 0 109.568 202.837333 101.034667 453.546666 101.632z" fill="#FFBCC5" /><path d="M398.08 451.84s-69.461333 0.682667-82.261333 1.28h-0.170667c-166.485333 7.936-283.989333 45.994667-283.989333 223.573333 0 38.314667 29.696 62.805333 62.890666 75.264 0.170667 0.085333 0.341333 0.170667 0.597334 0.256 26.965333 9.984 61.696 16.213333 102.4 19.968-3.584-95.402667-3.413333-225.706667 75.861333-280.917333 37.632-26.197333 84.053333-36.096 131.754667-39.594667-4.522667 0.170667-8.874667 0.256-7.082667 0.170667zM574.72 451.84s69.461333 0.682667 82.261333 1.28h0.170667c166.570667 8.021333 283.989333 46.08 283.989333 223.658667 0 38.314667-29.696 62.805333-62.890666 75.264-0.170667 0.085333-0.341333 0.170667-0.597334 0.256-26.965333 9.984-61.696 16.213333-102.4 19.968 3.584-95.402667 3.413333-225.706667-75.861333-280.917334-37.632-26.197333-84.053333-36.096-131.754667-39.594666 4.608 0.085333 8.874667 0.170667 7.082667 0.085333z" fill="#FF9797" /><path d="M487.68 669.013333h-2.56c-220.330667-0.512-403.712 6.058667-444.842667-66.816-5.632 21.674667-8.618667 46.336-8.618666 74.496 0 109.568 202.837333 100.949333 453.461333 101.546667h2.56c250.709333-0.597333 453.461333 8.021333 453.461333-101.546667 0-28.245333-2.986667-52.906667-8.618666-74.496-41.130667 72.874667-224.426667 66.304-444.842667 66.816z" fill="#FCA4A4" /><path d="M150.357333 677.461333L73.898667 653.653333a13.482667 13.482667 0 0 0-3.584-0.768c-5.632-0.426667-7.936 5.205333-9.216 9.472-0.853333 2.730667-1.536 5.376-1.792 6.4-7.68 28.074667 12.629333 57.514667 39.338666 67.584l67.413334 16.213334c8.277333 3.072 17.066667-2.901333 16.810666-11.52 0 0-11.861333-33.365333-16.725333-47.445334-2.389333-7.338667-8.106667-13.312-15.786667-16.128zM822.528 677.461333l76.458667-23.808c1.194667-0.426667 2.389333-0.682667 3.584-0.768 5.632-0.426667 7.936 5.205333 9.216 9.472 0.853333 2.730667 1.536 5.376 1.792 6.4 7.68 28.074667-12.629333 57.514667-39.338667 67.584l-67.413333 16.213334c-8.277333 3.072-17.066667-2.901333-16.810667-11.52 0 0 11.861333-33.365333 16.725333-47.445334 2.389333-7.338667 8.106667-13.312 15.786667-16.128z" fill="#FBE9E9" /><path d="M245.845333 746.752l25.6 97.28a42.0096 42.0096 0 0 0 40.704 31.317333h348.586667c19.114667 0 35.84-12.885333 40.704-31.317333l25.6-97.28c6.997333-26.709333-13.141333-52.736-40.704-52.736H286.549333c-27.562667 0-47.701333 26.112-40.704 52.736z" fill="#FF9797" /><path d="M686.336 694.016H286.549333c-27.562667 0-47.701333 26.112-40.704 52.736l25.6 97.28c0.682667 2.56 1.621333 5.034667 2.730667 7.338667l-17.237333-65.621334c-6.656-25.429333 12.458667-50.346667 38.826666-50.346666h381.44c26.282667 0 45.482667 24.917333 38.826667 50.346666l-17.237333 65.621334c1.109333-2.304 2.048-4.778667 2.730666-7.338667l25.6-97.28c6.912-26.624-13.226667-52.736-40.789333-52.736z" fill="#FCA4A4" /><path d="M646.980267 873.361067l39.185066-181.333334 18.432 3.976534-39.185066 181.333333zM268.3136 696.072533l18.432-3.976533 39.168 181.333333-18.432 3.985067zM610.321067 873.796267l30.72-181.4016 18.602666 3.157333-30.72 181.393067zM313.224533 695.560533l18.594134-3.1488 30.737066 181.384534-18.5856 3.157333zM571.921067 874.24l21.905066-181.384533 18.722134 2.261333-21.905067 181.384533zM360.302933 695.133867l18.730667-2.261334 21.879467 181.384534-18.722134 2.261333zM533.504 874.692267l13.056-181.367467 18.816 1.348267-13.056 181.376zM407.424 694.664533l18.816-1.3568 13.038933 181.376-18.816 1.3568zM496.0768 875.153067l4.386133-181.358934 18.858667 0.452267-4.394667 181.367467zM453.504 694.254933l18.858667-0.4608 4.4032 181.367467-18.858667 0.452267z" fill="#FBE9E9" /><path d="M581.802667 839.765333H391.082667c-20.906667 0-37.888-16.981333-37.888-37.888s16.981333-37.888 37.888-37.888h190.634666c20.906667 0 37.888 16.981333 37.888 37.888 0 20.992-16.981333 37.888-37.802666 37.888z" fill="#EEFFFC" /><path d="M605.952 846.848H366.933333c-11.434667 0-20.736-9.301333-20.736-20.736v-48.384c0-11.434667 9.301333-20.736 20.736-20.736h239.018667c11.434667 0 20.736 9.301333 20.736 20.736v48.384c0 11.434667-9.301333 20.736-20.736 20.736zM366.933333 771.157333c-3.584 0-6.570667 2.986667-6.570666 6.570667v48.384c0 3.584 2.986667 6.570667 6.570666 6.570667h239.018667c3.584 0 6.570667-2.986667 6.570667-6.570667v-48.384c0-3.584-2.986667-6.570667-6.570667-6.570667H366.933333z" fill="#FD656F" /><path d="M660.736 884.138667H312.149333a50.944 50.944 0 0 1-49.152-37.888l-25.6-97.28c-4.010667-15.36-0.768-31.402667 8.874667-43.946667a50.688 50.688 0 0 1 40.277333-19.797333h399.786667c15.872 0 30.549333 7.253333 40.277333 19.797333a50.141867 50.141867 0 0 1 8.874667 43.946667l-25.6 97.28a50.8416 50.8416 0 0 1-49.152 37.888zM254.378667 744.533333l25.6 97.28c3.84 14.592 17.066667 24.832 32.170666 24.832h348.586667c15.104 0 28.330667-10.24 32.170667-24.832l25.6-97.28c2.645333-10.069333 0.512-20.565333-5.802667-28.757333a32.896 32.896 0 0 0-26.368-12.970667H286.549333c-10.410667 0-20.053333 4.693333-26.368 12.970667-6.314667 8.192-8.448 18.688-5.802666 28.757333z" fill="#FBE9E9" /><path d="M611.754667 839.765333H361.130667c-4.352 0-7.850667-3.498667-7.850667-7.850666v16.981333c0 4.352 3.498667 7.850667 7.850667 7.850667h250.624c4.352 0 7.850667-3.498667 7.850666-7.850667v-16.981333c0 4.352-3.498667 7.850667-7.850666 7.850666z" fill="#FCA4A4" /><path d="M84.224 685.226667m-14.848 0a14.848 14.848 0 1 0 29.696 0 14.848 14.848 0 1 0-29.696 0Z" fill="#FFFFFF" /><path d="M888.661333 685.226667m-14.848 0a14.848 14.848 0 1 0 29.696 0 14.848 14.848 0 1 0-29.696 0Z" fill="#FFFFFF" /><path d="M138.410667 186.88c-12.202667 0-21.674667 3.925333-28.330667 8.192-6.656-4.266667-16.128-8.192-28.330667-8.192-24.32 0-43.349333 20.138667-43.349333 45.824 0 16.469333 8.448 48.213333 65.194667 75.52l6.485333 3.157333 6.485333-3.157333c56.746667-27.392 65.194667-59.050667 65.194667-75.52 0-25.685333-19.029333-45.824-43.349333-45.824z" fill="#F5F18D" /><path d="M134.656 202.752c-10.581333 0-18.773333 3.413333-24.576 7.082667-5.802667-3.754667-13.994667-7.082667-24.576-7.082667-21.077333 0-37.546667 17.408-37.546667 39.68 0 14.250667 7.338667 41.728 56.490667 65.450667l5.632 2.730666 5.632-2.730666c49.152-23.722667 56.490667-51.2 56.490667-65.450667 0-22.186667-16.469333-39.68-37.546667-39.68z" fill="#FFB814" /><path d="M60.672 250.112c-2.645333 0-4.693333-2.133333-4.693333-4.693333 0-20.394667 15.189333-36.352 34.645333-36.352 2.645333 0 4.693333 2.133333 4.693333 4.693333 0 2.645333-2.133333 4.693333-4.693333 4.693333-14.08 0-25.173333 11.776-25.173333 26.88-0.085333 2.645333-2.133333 4.778667-4.778667 4.778667z" fill="#FFFFFF" /><path d="M284.416 57.6c-9.557333-1.536-17.493333 0.341333-23.210667 2.901333-4.693333-4.181333-11.605333-8.448-21.162666-9.898666-19.029333-2.986667-36.437333 10.410667-39.68 30.549333-2.048 12.885333 0.682667 38.826667 41.728 67.328l4.693333 3.242667 5.461333-1.621334c47.872-14.421333 58.453333-38.229333 60.416-51.114666 3.242667-20.309333-9.216-38.4-28.245333-41.386667z" fill="#94FFA6" /><path d="M279.466667 69.546667a36.608 36.608 0 0 0-20.138667 2.474666c-4.096-3.669333-10.069333-7.253333-18.346667-8.618666-16.469333-2.645333-31.573333 9.045333-34.389333 26.453333-1.792 11.178667 0.597333 33.621333 36.181333 58.368l4.096 2.816 4.778667-1.450667c41.472-12.458667 50.602667-33.109333 52.394667-44.288 2.730667-17.408-8.021333-33.194667-24.576-35.754666z" fill="#55C179" /><path d="M216.234667 98.474667c-0.256 0-0.512 0-0.768-0.085334a4.7104 4.7104 0 0 1-3.925334-5.376c1.28-7.936 5.290667-14.848 11.349334-19.541333a27.904 27.904 0 0 1 21.418666-5.461333 4.7104 4.7104 0 0 1-1.450666 9.301333c-5.034667-0.768-10.069333 0.512-14.165334 3.584-4.181333 3.157333-6.912 8.021333-7.765333 13.482667-0.426667 2.389333-2.389333 4.096-4.693333 4.096z" fill="#FFFFFF" /><path d="M1001.386667 88.234667A82.4576 82.4576 0 0 0 959.232 68.266667c-3.413333-12.032-10.496-26.538667-25.002667-39.338667C905.472 3.498667 861.866667 7.424 834.986667 37.888c-17.237333 19.541333-40.362667 65.962667-1.792 157.610667l4.437333 10.496 11.008 3.072c95.829333 26.88 139.008-1.792 156.245333-21.333334 26.794667-30.378667 25.258667-74.069333-3.498666-99.498666z" fill="#94FFA6" /><path d="M980.309333 103.082667a71.3216 71.3216 0 0 0-36.522666-17.322667 71.057067 71.057067 0 0 0-21.674667-34.133333c-24.917333-22.016-62.72-18.602667-86.016 7.765333-14.933333 16.896-34.986667 57.173333-1.536 136.618667l3.84 9.130666 9.557333 2.645334c83.029333 23.296 120.490667-1.621333 135.424-18.517334 23.210667-26.282667 21.845333-64.170667-3.072-86.186666z" fill="#55C179" /><path d="M848.042667 80.896a4.718933 4.718933 0 0 1-3.584-7.850667c9.728-11.093333 22.869333-17.834667 36.864-19.114666a50.176 50.176 0 0 1 38.229333 12.544 4.718933 4.718933 0 0 1-6.229333 7.082666 40.823467 40.823467 0 0 0-31.146667-10.154666c-11.605333 1.024-22.442667 6.741333-30.634667 15.957333-0.853333 0.938667-2.133333 1.536-3.498666 1.536z" fill="#FFFFFF" /></svg>