<?xml version="1.0" standalone="no"?><!DOCTYPE svg PUBLIC "-//W3C//DTD SVG 1.1//EN" "http://www.w3.org/Graphics/SVG/1.1/DTD/svg11.dtd"><svg class="icon" width="48px" height="48.00px" viewBox="0 0 1024 1024" version="1.1" xmlns="http://www.w3.org/2000/svg"><path d="M820.303 149.216c-113.71-113.63-297.98-113.63-411.68 0l-253.71 253.71c-20.27 20.27-20.27 53.13 0 73.4 20.27 20.27 53.13 20.27 73.4 0l253.71-253.71c73.26-73.26 192.03-73.26 265.28 0s73.26 192.03 0 265.28l-338.68 338.68c-26.97 26.83-66.02 37.58-102.92 28.32-57.56-15.01-92.06-73.83-77.06-131.39a107.65 107.65 0 0 1 27.99-48.92l338.68-338.68c11.13-10.74 28.76-10.74 39.89 0 11.02 10.79 11.2 28.47 0.4 39.49-0.13 0.14-0.27 0.27-0.4 0.4l-143.21 138.82c-20.27 20.27-20.27 53.13 0 73.4s53.13 20.27 73.4 0l141.22-141.22c51.44-51.38 51.5-134.73 0.12-186.17l-0.12-0.12c-52.11-49.79-134.18-49.79-186.29 0l-338.68 338.68c-82.59 82.54-82.63 216.41-0.09 299a211.533 211.533 0 0 0 96.62 55.24c72.48 18.44 149.31-2.62 202.25-55.45l338.68-338.68c113.63-113.71 113.63-297.98 0-411.68l1.2 1.6z" fill="#63BA3A" /><path d="M820.303 149.216c-113.71-113.63-297.98-113.63-411.68 0l-235.76 233.77c-20.27 20.27-20.27 53.13 0 73.4s53.13 20.27 73.4 0l233.77-233.77 19.95-19.95c73.26-73.26 192.03-73.26 265.28 0 73.26 73.26 73.26 192.03 0 265.28l-19.95 19.95-319.13 319.14-19.95 19.95c-26.97 26.83-66.02 37.58-102.92 28.32-57.56-15.01-92.06-73.83-77.06-131.39a107.65 107.65 0 0 1 27.99-48.92l19.95-19.95 319.13-319.14 19.95-19.95c11.13-10.74 28.76-10.74 39.89 0 11.02 10.79 11.2 28.47 0.4 39.49-0.13 0.14-0.27 0.27-0.4 0.4l-141.22 141.22c-20.27 20.27-20.27 53.13 0 73.4 20.27 20.27 53.13 20.27 73.4 0l119.68-119.68c51.44-51.38 51.5-134.73 0.12-186.17l-0.12-0.12c-52.11-49.79-134.18-49.79-186.29 0l-319.14 319.13c-82.59 82.54-82.63 216.41-0.09 299a211.533 211.533 0 0 0 96.62 55.24c72.48 18.44 149.31-2.62 202.25-55.45l319.14-319.12c113.63-113.71 113.63-297.98 0-411.68l2.79-2.4z" fill="#79E247" /></svg>