<?xml version="1.0" standalone="no"?><!DOCTYPE svg PUBLIC "-//W3C//DTD SVG 1.1//EN" "http://www.w3.org/Graphics/SVG/1.1/DTD/svg11.dtd"><svg class="icon" width="48px" height="48.00px" viewBox="0 0 1024 1024" version="1.1" xmlns="http://www.w3.org/2000/svg"><path d="M906.11 292.196l6.108 3.53v176.922L512 703.75 111.828 472.688v-176.962l6.062-3.53-21.578-12.454L512 39.758l415.688 239.984-21.578 12.454z" fill="#70180F" /><path d="M512 687.726l400.218-230.858v302.874L512 991.586v-303.86z" fill="#95271B" /><path d="M512.032 687.726v303.992l-0.032 0.04L111.828 759.742V456.868l400.204 230.858z" fill="#C0392B" /><path d="M512.344 671.54v-159.79l415.688-240.016v160.024L512.344 671.54z" fill="#95271B" /><path d="M96 431.758v-160.024l415.704 240.016v159.82L96 431.758z" fill="#C0392B" /><path d="M96.312 271.734L512 31.742l415.688 239.992L512 511.75 96.312 271.734z" fill="#E74C3C" /><path d="M672.36 415.734l95.344-51.21 0.202 483.226-95.546 55.118V415.734z" fill="#BDC3C7" /><path d="M351.672 415.734v487.134l-95.532-55.118 0.188-483.226 95.344 51.21z" fill="#EBEBEB" /><path d="M256.328 364.524L672.032 123.758l95.672 55.218v0.782L352.016 419.742l-95.688-55.218z" fill="#FFFFFF" /><path d="M672.032 415.734L259.156 177.382l92.86-53.624 415.688 240.766-95.672 51.21z" fill="#FFFFFF" /><path d="M464.016 255.742h96.016l15.984 207.984L512 431.758l-63.968 31.968 15.984-207.984z" fill="#EBEBEB" /><path d="M271.906 240.132c0.86 0.718 1.468 1.532 2.39 2.204 20.796 15.718 89.39 13.516 147.624 8.25 49.658 23.32 90.08 53.148 90.08 53.148s-199.5 31.43-237.704 2.578c-24.14-18.188-24.75-47.202-2.39-66.18z" fill="#BDC3C7" /><path d="M274.296 237.93c-7.376 5.562-12.328 12.148-15.344 19.14l13.062-65.336 0.172 0.04c0.438-12.016 6.11-24 17.406-33.196 64.25-52.368 202.078 50.774 220.296 64.89l2.11 0.274v79.992c0.002 0-164.092-121.366-237.702-65.804z" fill="#EBEBEB" /><path d="M749.75 242.336c0.922-0.672 1.516-1.484 2.376-2.204 22.36 18.976 21.75 47.992-2.376 66.18C711.532 335.164 512 303.734 512 303.734s40.39-29.828 90.078-53.148c58.234 5.226 126.828 7.468 147.672-8.25z" fill="#B7B7B7" /><path d="M749.75 237.93C676.14 182.368 512 303.734 512 303.734v-79.992l2.11-0.274c18.218-14.086 156.078-117.258 220.328-64.89 11.266 9.196 16.968 21.18 17.406 33.196l0.172-0.04 13.078 65.336c-3.032-6.992-7.984-13.578-15.344-19.14z" fill="#FFFFFF" /></svg>