<?xml version="1.0" standalone="no"?><!DOCTYPE svg PUBLIC "-//W3C//DTD SVG 1.1//EN" "http://www.w3.org/Graphics/SVG/1.1/DTD/svg11.dtd"><svg class="icon" width="48px" height="48.00px" viewBox="0 0 1024 1024" version="1.1" xmlns="http://www.w3.org/2000/svg"><path d="M620.96836 667.832505h-174.633513c-109.115964-109.411171-219.486559-254.487063-225.519856-363.787532h593.846198c4.446559 108.894559-94.300252 255.022126-193.692829 363.787532z" fill="#862459" /><path d="M208.453189 322.550775a309.284901 92.492108 0 1 0 618.569802 0 309.284901 92.492108 0 1 0-618.569802 0Z" fill="#FFFFFF" /><path d="M575.709405 658.699532l-108.507099 0.479711c-57.048793 54.410378-115.370667 127.215856-119.466666 181.570883l367.477621-0.479712c-10.922667-54.631784-76.753874-126.976-139.503856-181.570882z" fill="#862459" /><path d="M413.917405 613.97564c28.302991 17.767784 51.310703 37.768072 51.310703 44.686991v11.955892c0 6.918919-22.989261 28.229189-51.292252 47.565261l-40.978451 28.007784c-28.321441 19.354523-51.329153 0.996324-51.329153-41.070703v-72.953081c0-42.011676 23.007712-61.661405 51.329153-43.893622l40.96 25.701478z" fill="#EEEEEF" /><path d="M657.297297 747.335495c28.321441 17.749333 51.310703-1.900396 51.310703-43.875171v-72.93463c0-42.085477-23.007712-60.388324-51.310703-41.052253l-40.97845 27.989334c-28.321441 19.336072-51.310703 40.627892-51.310703 47.546811v11.974342c0 6.900468 22.989261 26.900757 51.310703 44.66854l40.97845 25.683027z" fill="#EEEEEF" /><path d="M578.882883 661.762306c0 22.786306-13.044468 41.292108-29.07791 41.292108h-52.177874c-16.070342 0-29.07791-18.505802-29.07791-41.292108 0-22.767856 13.007568-41.236757 29.07791-41.236756h52.177874c16.033441 0 29.07791 18.468901 29.07791 41.236756z" fill="#EEEEEF" /><path d="M589.288937 377.902126c0-44.22573 35.24036-80.093405 78.709622-80.093405 43.487712 0 78.746523 35.849225 78.746522 80.093405M399.655207 313.196396c0-44.24418 35.24036-80.111856 78.728072-80.111855 43.469261 0 78.709622 35.849225 78.709622 80.111855" fill="#8C275D" /><path d="M552.388036 316.388324c0-44.24418 35.24036-80.111856 78.709622-80.111856s78.709622 35.849225 78.709621 80.111856M284.395243 347.292829c0-44.207279 35.22191-80.093405 78.728072-80.093406 43.43236 0 78.709622 35.867676 78.709622 80.093406" fill="#8C275D" /><path d="M422.441514 393.418955c0-44.207279 35.24036-80.093405 78.709621-80.093405 43.450811 0 78.709622 35.867676 78.709622 80.093405" fill="#8C275D" /></svg>