<?xml version="1.0" standalone="no"?><!DOCTYPE svg PUBLIC "-//W3C//DTD SVG 1.1//EN" "http://www.w3.org/Graphics/SVG/1.1/DTD/svg11.dtd"><svg class="icon" width="48px" height="48.00px" viewBox="0 0 1024 1024" version="1.1" xmlns="http://www.w3.org/2000/svg"><path d="M512 327.85c-128.12 0-232.18 104.06-232.18 232.17S383.87 792.2 512 792.2 744.16 688.13 744.16 560c0-127.63-104.06-232.15-232.16-232.15z m93 371.38l-92.5-48.1-92 49 17.11-102.68-75.01-72.58 102.67-15.26 45.79-93.43 46.25 93L660 524l-74 72.61z" fill="#FF9600" /><path d="M866.72 519.78L848.22 499c-13-14.8-18.5-34.22-14.33-53.65l6-27.29c6.47-30.52-11.1-61-40.24-70.76l-26.82-8.79A61.28 61.28 0 0 1 734 299.63l-8.79-26.82a60.52 60.52 0 0 0-57.81-41.63 61.91 61.91 0 0 0-12.95 1.39l-27.29 6A61.32 61.32 0 0 1 614.2 240c-14.8 0-29.6-5.55-40.24-15.72l-20.81-18.5a61.11 61.11 0 0 0-81.86 0l-20.82 18.5c-11.56 10.14-25.9 15.72-40.23 15.72a61.25 61.25 0 0 1-12.95-1.39l-27.29-6a62 62 0 0 0-12.95-1.39 61.11 61.11 0 0 0-57.81 41.63l-8.79 26.82a61.28 61.28 0 0 1-38.85 38.85l-26.83 8.79A60.16 60.16 0 0 0 184.54 418l6 27.29c4.16 19-0.93 39.31-14.34 53.65l-18.5 20.81a60.27 60.27 0 0 0 0 80.94l18.5 20.81c12.95 14.8 18.5 34.23 14.34 53.65l-6 27.29a61.28 61.28 0 0 0 40.23 70.76l26.83 8.8a61.28 61.28 0 0 1 38.85 38.85l8.79 26.83a60.52 60.52 0 0 0 57.81 41.62 61.32 61.32 0 0 0 12.95-1.37l27.29-6a61.91 61.91 0 0 1 12.95-1.39c14.8 0 29.6 5.55 40.23 15.73l20.82 18.5a62.71 62.71 0 0 0 41.16 15.72 60.09 60.09 0 0 0 40.7-15.72L574 896.26c11.56-10.18 25.9-15.73 40.24-15.73a62 62 0 0 1 12.95 1.39l27.29 6a61 61 0 0 0 70.72-40.22l8.8-26.83A61.28 61.28 0 0 1 772.84 782l26.82-8.79a60.17 60.17 0 0 0 40.24-70.76l-6-27.29c-4.17-19 0.92-39.31 14.33-53.65l18.5-20.81c20.81-22.64 20.81-57.79-0.01-80.92z m-354.27 321c-152.16 0-276.11-124-276.11-276.11s124-276.12 276.11-276.12 276.11 124 276.11 276.12-123.95 276.09-276.11 276.09z" fill="#142E4F" /><path d="M881.06 216.85l-62.44 88.33a73 73 0 0 0-10.63-3.7l-24-7.86-7.87-24.51a126.9 126.9 0 0 0-89.72-83.25l26.09-36.62H311.86l25.76 36.16c-42.55 10.6-76.77 41.6-90.18 84.17l-7.87 24.05-24.51 7.86a85.66 85.66 0 0 0-9.71 3.7l-62.44-88.8c-15.72-22.66-10.64-53.65 12-69.37l62.9-44.4a50.38 50.38 0 0 1 41.69-7.43h506.88a50.37 50.37 0 0 1 39.76 7.89l63.36 44.4c22.2 15.73 27.29 46.71 11.56 69.38z" fill="#142E4F" /><path d="M776.54 95.18v27h-44.85l5.07-7.11a48.77 48.77 0 0 1 29.62-19.92z" fill="#142E4F" /><path d="M776.54 95.18v27h-44.85l5.07-7.11a48.77 48.77 0 0 1 29.62-19.92z" fill="#142E4F" /></svg>