<?xml version="1.0" standalone="no"?><!DOCTYPE svg PUBLIC "-//W3C//DTD SVG 1.1//EN" "http://www.w3.org/Graphics/SVG/1.1/DTD/svg11.dtd"><svg class="icon" width="48px" height="48.00px" viewBox="0 0 1024 1024" version="1.1" xmlns="http://www.w3.org/2000/svg"><path d="M813.3 787.7H337.9c-47.8 0-87-39.1-87-87V201c0-47.8 39.1-87 87-87h475.4c47.8 0 87 39.1 87 87v499.7c0 47.8-39.1 87-87 87z" fill="#2c2c2c" /><path d="M813.3 787.7H337.9c-47.8 0-87-39.1-87-87V201c0-47.8 39.1-87 87-87h475.4c47.8 0 87 39.1 87 87v499.7c0 47.8-39.1 87-87 87z" fill="#2c2c2c" /><path d="M813.3 787.7H337.9c-47.8 0-87-39.1-87-87V201c0-47.8 39.1-87 87-87h475.4c47.8 0 87 39.1 87 87v499.7c0 47.8-39.1 87-87 87z" fill="#2c2c2c" /><path d="M813.3 787.7H337.9c-47.8 0-87-39.1-87-87V201c0-47.8 39.1-87 87-87h475.4c47.8 0 87 39.1 87 87v499.7c0 47.8-39.1 87-87 87z" fill="#4169E1" /><path d="M713.5 908.7H238.1c-61.8 0-112-50.2-112-112V297.1c0-61.8 50.2-112 112-112h475.4c61.8 0 112 50.2 112 112v499.7c0 61.7-50.2 111.9-112 111.9zM238.1 235.1c-34.2 0-62 27.8-62 62v499.7c0 34.2 27.8 62 62 62h475.4c34.2 0 62-27.8 62-62V297.1c0-34.2-27.8-62-62-62H238.1z" fill="#2c2c2c" /><path d="M334.5 327.3m-47.7 0a47.7 47.7 0 1 0 95.4 0 47.7 47.7 0 1 0-95.4 0Z" fill="#2c2c2c" /><path d="M472.7 506.5c-87 0-157.8-70.8-157.8-157.8h50c0 59.4 48.3 107.8 107.8 107.8 59.4 0 107.8-48.3 107.8-107.8h50c0 87.1-70.8 157.8-157.8 157.8z" fill="#2c2c2c" /><path d="M611.2 327.3m-47.7 0a47.7 47.7 0 1 0 95.4 0 47.7 47.7 0 1 0-95.4 0Z" fill="#2c2c2c" /><path d="M713.5 908.7H238.1c-61.8 0-112-50.2-112-112V297.1c0-61.8 50.2-112 112-112h475.4c61.8 0 112 50.2 112 112v499.7c0 61.7-50.2 111.9-112 111.9zM238.1 235.1c-34.2 0-62 27.8-62 62v499.7c0 34.2 27.8 62 62 62h475.4c34.2 0 62-27.8 62-62V297.1c0-34.2-27.8-62-62-62H238.1z" fill="#2c2c2c" /><path d="M713.5 908.7H238.1c-61.8 0-112-50.2-112-112V297.1c0-61.8 50.2-112 112-112h475.4c61.8 0 112 50.2 112 112v499.7c0 61.7-50.2 111.9-112 111.9zM238.1 235.1c-34.2 0-62 27.8-62 62v499.7c0 34.2 27.8 62 62 62h475.4c34.2 0 62-27.8 62-62V297.1c0-34.2-27.8-62-62-62H238.1z" fill="#2c2c2c" /><path d="M713.5 908.7H238.1c-61.8 0-112-50.2-112-112V297.1c0-61.8 50.2-112 112-112h475.4c61.8 0 112 50.2 112 112v499.7c0 61.7-50.2 111.9-112 111.9zM238.1 235.1c-34.2 0-62 27.8-62 62v499.7c0 34.2 27.8 62 62 62h475.4c34.2 0 62-27.8 62-62V297.1c0-34.2-27.8-62-62-62H238.1z" fill="#2c2c2c" /></svg>