<?xml version="1.0" standalone="no"?><!DOCTYPE svg PUBLIC "-//W3C//DTD SVG 1.1//EN" "http://www.w3.org/Graphics/SVG/1.1/DTD/svg11.dtd"><svg class="icon" width="48px" height="48.00px" viewBox="0 0 1024 1024" version="1.1" xmlns="http://www.w3.org/2000/svg"><path d="M332.06 274.13a152.31 152.31 0 0 0 21 1.51l68.83 0.18v-1.69zM574.83 274.13v1.7l70.65 0.17h0.4a151.65 151.65 0 0 0 23.84-1.87z" fill="#FF9600" /><path d="M421.92 274.13V566H192.39c-57.14 0-103.63-44.45-103.63-99.09v-93.69c0-54.64 46.49-99.09 103.63-99.09zM922.16 373.22v93.64c0 54.64-46.49 99.09-103.63 99.09h-243.7V274.13h243.7c57.14 0 103.63 44.45 103.63 99.09zM421.92 606.22v325.72H277.56A103.73 103.73 0 0 1 174 828.31v-196.6a25.5 25.5 0 0 1 25.48-25.49zM836.94 631.71v196.6a103.74 103.74 0 0 1-103.58 103.63H574.84V606.22h236.61a25.5 25.5 0 0 1 25.49 25.49z" fill="#142E4F" /><path d="M743 102.53c-23.89-24-59.14-37.9-96.7-38h-0.55c-44.71 0-87 14-119.23 39.35a152.66 152.66 0 0 0-26.9 27.12 144.48 144.48 0 0 0-12.84-14.79c-32.7-32.91-81.14-51.86-132.91-52h-0.4c-32.41 0-63.16 10.18-86.62 28.68-25.39 20-39.44 47.26-39.56 76.69-0.1 24.93 10.24 49.11 29.11 68.11 19.36 19.49 46.19 32.28 75.66 36.48h89.86v1.69l40.77 0.1v656h71.37V275.72l40.77 0.11v-1.7h94.89c23.45-3.72 45.17-12.91 62.78-26.81 25.39-20 39.44-47.26 39.56-76.69 0.1-24.92-10.23-49.11-29.06-68.1zM471.68 221.88l-118.45-0.3c-23-0.06-44.84-8.29-58.49-22-6.14-6.18-13.45-16.37-13.4-29.79 0.12-28 33.12-51.54 72.14-51.54h0.25c37.52 0.1 72 13.23 94.7 36 10.69 10.76 23.41 28.63 23.31 52.63z m174.19 0.07h-0.25l-118.37-0.3 0.06-14.91c0.09-22.43 11.68-43.88 32.64-60.41 22.69-17.89 53.13-27.74 85.76-27.74h0.41c23 0.06 44.84 8.3 58.49 22 6.14 6.19 13.45 16.37 13.4 29.79-0.12 28.01-33.12 51.62-72.14 51.62z" fill="#FF9600" /><path d="M462.69 931.94h71.37v0.86h-71.37z" fill="#FF9600" /></svg>