<?xml version="1.0" standalone="no"?><!DOCTYPE svg PUBLIC "-//W3C//DTD SVG 1.1//EN" "http://www.w3.org/Graphics/SVG/1.1/DTD/svg11.dtd"><svg class="icon" width="48px" height="41.65px" viewBox="0 0 1180 1024" version="1.1" xmlns="http://www.w3.org/2000/svg"><path d="M866.403406 313.914278m-313.914277 0a313.914278 313.914278 0 1 0 627.828555 0 313.914278 313.914278 0 1 0-627.828555 0Z" fill="#4169E1" /><path d="M565.685155 117.863185a231.51178 231.51178 0 0 1 231.511779 231.51178v192.824751h35.111894a182.767868 182.767868 0 0 1 182.767868 182.767868 182.767868 182.767868 0 0 1-182.767868 182.767869h-484.532501A231.51178 231.51178 0 0 1 116.264547 676.223673a231.482714 231.482714 0 0 1 217.996026-231.075788V349.374965a231.51178 231.51178 0 0 1 231.51178-231.51178m0-116.264547A347.776327 347.776327 0 0 0 217.996026 349.374965v4.185523a347.805393 347.805393 0 0 0 129.780301 670.439512h484.532501a299.061482 299.061482 0 0 0 81.152654-586.903435V349.374965A347.834459 347.834459 0 0 0 565.685155 1.598638z" fill="#0D0A16" /></svg>