<?xml version="1.0" standalone="no"?><!DOCTYPE svg PUBLIC "-//W3C//DTD SVG 1.1//EN" "http://www.w3.org/Graphics/SVG/1.1/DTD/svg11.dtd"><svg class="icon" width="48px" height="48.00px" viewBox="0 0 1024 1024" version="1.1" xmlns="http://www.w3.org/2000/svg"><path d="M856.87 774a417.31 417.31 0 0 1-75.41 72.27A408.42 408.42 0 0 1 736 875.62c-4.38 2.43-8.81 4.81-13.29 7.08A86.43 86.43 0 1 1 856.87 774z" fill="#142E4F" /><path d="M949.52 520.38a414.14 414.14 0 0 1-35.68 160.7A403 403 0 0 1 889 728.43 140.11 140.11 0 0 0 787.46 685c-77.46 0-140.54 63-140.54 140.51a139.24 139.24 0 0 0 24.54 79.19 414.16 414.16 0 0 1-138.05 23.52c-146.65 0-275.51-75.79-349.68-190.33 6.65 0.92 13.46 1.79 20.38 2.49a724.49 724.49 0 0 0 74.33 3.62c91.29 0 194.43-15 298.27-43.3 134-36.59 255.13-91.67 341.13-155.13q16.95-12.49 31.68-25.19z" fill="#142E4F" /><path d="M948.71 484.7a480.37 480.37 0 0 1-46.92 39.14c-83.41 61.51-201.35 115.08-332.16 150.75C467.57 702.49 366.76 717 278.44 717a701.39 701.39 0 0 1-71.52-3.46q-21.57-2.19-41-5.84C78 691.4 22.38 654.22 7.9 601.13c-16.65-60.91 23.94-131.24 114.32-197.89 3.84-2.81 7.73-5.62 11.73-8.43a408.08 408.08 0 0 0-15.19 81C73.52 517 51.9 557.08 60.06 586.92c6.81 24.86 35.08 45.35 79.08 58.76 21 6.43 45.68 11.24 73.3 14.05a650.25 650.25 0 0 0 66.32 3.27c83.35 0 179.14-13.89 276.59-40.48C680 588.49 791.52 538 869.68 480.32c29.35-21.67 52.59-43.56 68.81-64.43 22-28.21 31.24-54.54 25.46-75.73-7.08-26-37.68-47.19-85.14-60.54a419.37 419.37 0 0 0-54.43-65.24c107.51 12.49 175.46 52 191.73 111.57 13.41 49.05-10.38 104.32-67.4 158.75z" fill="#FF9600" /><path d="M200.44 262.22a417.59 417.59 0 0 1 133-115.3A410.79 410.79 0 0 1 375.08 127a110.76 110.76 0 1 1-174.64 135.22z" fill="#142E4F" /><path d="M928.87 382c-12.22 21.19-36.49 48-75.25 76.59-75.51 55.73-183.94 104.65-305.35 137.79-94.81 25.89-188 39.62-269.51 39.62a620.09 620.09 0 0 1-63.51-3.09c-36.06-3.73-64.54-10.75-85.52-19.13a411.53 411.53 0 0 1-12.48-98.22c-0.06-1.19-0.06-2.32-0.06-3.51 0-5.51 0.11-11 0.38-16.49 0.22-6.65 0.6-13.19 1.19-19.73a408.08 408.08 0 0 1 15.19-81c1.73-5.89 3.51-11.68 5.57-17.4 0.32-1.19 0.75-2.38 1.19-3.57 2.48-7.19 5.24-14.33 8.16-21.35q6.88-16.62 15.24-32.54c1.68-3.25 3.41-6.49 5.25-9.68a164.33 164.33 0 0 0 123.51 55.78c90.92 0 164.86-73.94 164.86-164.86a164.26 164.26 0 0 0-28.27-92.32 417.14 417.14 0 0 1 360.65 75.46c6.11 4.81 12 9.72 17.89 14.86q8.43 7.38 16.38 15.19a419.37 419.37 0 0 1 54.43 65.24c3.84 5.79 7.57 11.62 11.14 17.57 3.78 6.22 7.35 12.49 10.81 18.92A408.44 408.44 0 0 1 928.87 382z" fill="#142E4F" /></svg>