<?xml version="1.0" standalone="no"?><!DOCTYPE svg PUBLIC "-//W3C//DTD SVG 1.1//EN" "http://www.w3.org/Graphics/SVG/1.1/DTD/svg11.dtd"><svg class="icon" width="48px" height="48.00px" viewBox="0 0 1024 1024" version="1.1" xmlns="http://www.w3.org/2000/svg"><path d="M963.35 312.27v198.92a111.15 111.15 0 0 0-27-72.81 113.32 113.32 0 0 0-27-23 111.72 111.72 0 0 0-57.84-16.11H172.54a113.71 113.71 0 0 0-13.51 0.81 111.5 111.5 0 0 0-44.33 15.3 113.32 113.32 0 0 0-27 23 111.15 111.15 0 0 0-27 72.81V252.81c0-77.78 63.3-141.08 141.08-141.08H409.3a141.42 141.42 0 0 1 126.48 79l3 6.38h309.44a115.3 115.3 0 0 1 115.13 115.16z" fill="#142E4F" /><path d="M864.43 371.51v28.54a111.26 111.26 0 0 0-13-0.75H172.54a113.71 113.71 0 0 0-13.51 0.81v-28.6a86.92 86.92 0 0 1 86.81-86.81h531.78a86.92 86.92 0 0 1 86.81 86.81z" fill="#FF9600" /><path d="M936.32 438.38a113.32 113.32 0 0 0-27-23 111.72 111.72 0 0 0-57.84-16.11H172.54a113.71 113.71 0 0 0-13.51 0.81 111.5 111.5 0 0 0-44.33 15.3 113.32 113.32 0 0 0-27 23 111.15 111.15 0 0 0-27 72.81v289.19a112 112 0 0 0 111.84 111.89h678.92a112 112 0 0 0 111.89-111.89V511.19a111.15 111.15 0 0 0-27.03-72.81zM450.38 681.46H220.65a27 27 0 1 1 0-54.06h229.73a27 27 0 0 1 0 54.06z m0-103.78H220.65a27 27 0 0 1 0-54.06h229.73a27 27 0 1 1 0 54.06z" fill="#142E4F" /></svg>