<?xml version="1.0" standalone="no"?><!DOCTYPE svg PUBLIC "-//W3C//DTD SVG 1.1//EN" "http://www.w3.org/Graphics/SVG/1.1/DTD/svg11.dtd"><svg class="icon" width="48px" height="45.01px" viewBox="0 0 1092 1024" version="1.1" xmlns="http://www.w3.org/2000/svg"><path d="M738.180249 443.697866s-31.757014 107.875629-22.508192 375.436656H453.512997c9.166973-267.561026-22.508193-375.436656-22.508193-375.436656h307.175445z" fill="#4169E1" /><path d="M89.698753 204.78363h-68.26121V98.626808c0-54.347055 44.279754-98.626808 98.626808-98.626808h106.156822v68.26121H120.064351c-16.696987 0-30.365598 13.668612-30.365598 30.365598v106.156822zM1045.355695 204.78363h-68.26121V98.626808c0-16.778835-13.586764-30.365598-30.365598-30.365598H840.572065v-68.26121h106.156822c54.347055 0 98.626808 44.279754 98.626808 98.626808v106.156822zM226.221173 1024H120.064351c-54.347055 0-98.626808-44.279754-98.626808-98.626808V819.21637h68.26121V925.373192c0 16.778835 13.586764 30.365598 30.365598 30.365598h106.156822v68.26121zM946.728887 1024H840.572065v-68.26121h106.156822c16.778835 0 30.365598-13.586764 30.365598-30.365598V819.21637h68.26121V925.373192c0 54.347055-44.279754 98.626808-98.626808 98.626808zM374.366006 716.742706H255.604596c-18.825034 0-34.130605-15.305571-34.130605-34.130605 0-74.7272-8.512189-141.351451-20.298298-233.594117-2.619135-20.134602-5.23827-40.923987-8.021101-63.677723-4.419791-36.422348 5.320118-70.225562 28.319399-97.644633 26.518744-31.757014 69.980018-55.411078 129.319798-70.225562 41.906163-10.394693 76.773399-12.52274 78.246663-12.686436l4.010551 68.179363-1.964351-34.130606 2.046199 34.048758c-32.411798 1.964351-124.163376 16.369595-159.358005 58.603149-10.967628 13.177524-15.060027 27.664615-12.93198 45.589321 2.782831 22.426345 5.401966 43.21573 7.939254 63.268484 10.394693 80.865798 18.252098 142.57917 20.298297 208.057549H374.284158l0.081848 68.343058z" fill="#27282A" /><path d="M362.940029 337.773492l17.747914-170.708682 67.892895 7.058569-17.747915 170.707864zM811.188642 716.742706H692.427232v-68.26121h85.203741c2.046199-65.478379 10.067301-127.273599 20.298297-208.057549 2.537287-20.052754 5.23827-40.760291 8.021102-63.350332 2.128047-17.842858-1.964351-32.32995-12.93198-45.425625C757.987459 289.414435 666.23588 275.009192 633.742235 273.044841l4.010551-68.179363c1.473264 0.081848 36.3405 2.209895 78.246662 12.686436 59.339781 14.814483 102.801055 38.468548 129.319799 70.225562 22.999281 27.500919 32.73919 61.304132 28.319399 97.644633-2.782831 22.753737-5.565662 43.543122-8.021101 63.759571-11.786108 92.242666-20.298297 158.866917-20.298298 233.594117 0 18.661338-15.305571 33.966909-34.130605 33.966909z" fill="#27282A" /><path d="M609.971946 174.228963l67.892895-7.058569 17.747096 170.708682-67.892895 7.057751zM708.223891 853.346975H358.733043c-9.248821 0-18.252098-3.846855-24.63624-10.558389-6.46599-6.711534-9.821757-15.878507-9.412517-25.127328 6.05675-133.002957-1.800655-224.1816-9.494365-277.382783-8.348493-57.539126-18.17025-83.976021-18.252098-84.139717l0.081848 0.163696 63.514027-24.963632c1.800655 4.501639 41.087683 107.793781 33.721366 353.828791h278.364958c-7.611862-246.035009 32.084406-349.409 33.721366-353.828791l63.432179 25.127328 0.081848-0.163696c-0.081848 0.245544-10.067301 26.682439-18.333946 84.139717-7.69371 53.119335-15.632963 144.379826-9.412517 277.219087 0.491088 9.248821-3.028375 18.333946-9.412517 25.209176-6.302294 6.629686-15.223723 10.476541-24.472544 10.476541z" fill="#27282A" /></svg>