<?xml version="1.0" standalone="no"?><!DOCTYPE svg PUBLIC "-//W3C//DTD SVG 1.1//EN" "http://www.w3.org/Graphics/SVG/1.1/DTD/svg11.dtd"><svg class="icon" width="48px" height="48.00px" viewBox="0 0 1024 1024" version="1.1" xmlns="http://www.w3.org/2000/svg"><path d="M512 931.47C280.71 931.47 92.54 743.3 92.54 512S280.71 92.53 512 92.53 931.46 280.7 931.46 512 743.29 931.47 512 931.47z m0-773.19C317 158.28 158.29 317 158.29 512S317 865.72 512 865.72 865.71 707 865.71 512 707 158.28 512 158.28z" fill="#2F3240" /><path d="M672.38 684.4a32.77 32.77 0 0 1-21.55-8.07L479.12 527V266.81a32.87 32.87 0 1 1 65.74 0V497L694 626.72a32.87 32.87 0 0 1-21.59 57.68z" fill="#4169E1" /><path d="M512 512m-76.62 0a76.62 76.62 0 1 0 153.24 0 76.62 76.62 0 1 0-153.24 0Z" fill="#2F3240" /></svg>