<?xml version="1.0" standalone="no"?><!DOCTYPE svg PUBLIC "-//W3C//DTD SVG 1.1//EN" "http://www.w3.org/Graphics/SVG/1.1/DTD/svg11.dtd"><svg class="icon" width="48px" height="48.00px" viewBox="0 0 1024 1024" version="1.1" xmlns="http://www.w3.org/2000/svg"><path d="M187.733333 358.4a324.266667 324.266667 0 0 0 648.533334 0V307.2h-648.533334z" fill="#4F8DFC" /><path d="M836.266667 0h-648.533334A51.2 51.2 0 0 0 136.533333 51.2V375.466667a375.466667 375.466667 0 0 0 324.266667 371.712V921.6h-136.533333a51.2 51.2 0 0 0 0 102.4h375.466666a51.2 51.2 0 0 0 0-102.4h-136.533333v-174.421333A375.466667 375.466667 0 0 0 887.466667 375.466667V51.2A51.2 51.2 0 0 0 836.266667 0zM785.066667 375.466667a273.066667 273.066667 0 0 1-546.133334 0V102.4h546.133334z" fill="#181818" /><path d="M417.792 389.12l-19.456 112.981333A8.533333 8.533333 0 0 0 409.6 512l102.4-53.248L614.4 512a8.533333 8.533333 0 0 0 12.288-8.874667l-19.456-112.981333 82.261333-80.213333a8.533333 8.533333 0 0 0-6.826666-15.36l-113.664-16.384-50.858667-102.4a8.533333 8.533333 0 0 0-15.018667 0l-50.858666 102.4-110.933334 16.384a8.533333 8.533333 0 0 0-4.778666 14.336z" fill="#181818" /></svg>