<?xml version="1.0" standalone="no"?><!DOCTYPE svg PUBLIC "-//W3C//DTD SVG 1.1//EN" "http://www.w3.org/Graphics/SVG/1.1/DTD/svg11.dtd"><svg class="icon" width="48px" height="48.00px" viewBox="0 0 1024 1024" version="1.1" xmlns="http://www.w3.org/2000/svg"><path d="M51.2 546.133333h921.6v375.466667h-921.6z" fill="#4F8DFC" /><path d="M1008.981333 288.085333l-204.8-204.8A51.2 51.2 0 0 0 768 68.266667h-512a51.2 51.2 0 0 0-36.181333 15.018666l-204.8 204.8A51.2 51.2 0 0 0 0 324.266667v614.4A51.2 51.2 0 0 0 51.2 989.866667h921.6a51.2 51.2 0 0 0 51.2-51.2v-614.4a51.2 51.2 0 0 0-15.018667-36.181334zM277.162667 170.666667h469.674666l136.533334 136.533333H140.629333zM102.4 409.6h512v477.866667H102.4z m614.4 477.866667V409.6h204.8v477.866667z" fill="#181818" /></svg>