<?xml version="1.0" standalone="no"?><!DOCTYPE svg PUBLIC "-//W3C//DTD SVG 1.1//EN" "http://www.w3.org/Graphics/SVG/1.1/DTD/svg11.dtd"><svg class="icon" width="48px" height="48.00px" viewBox="0 0 1024 1024" version="1.1" xmlns="http://www.w3.org/2000/svg"><path d="M392.533333 614.4a220.501333 220.501333 0 0 0 22.528 96.938667 221.525333 221.525333 0 0 0 296.277334-296.277334A221.525333 221.525333 0 0 0 392.533333 614.4z" fill="#4F8DFC" /><path d="M938.666667 34.133333h-853.333334A51.2 51.2 0 0 0 34.133333 85.333333v853.333334A51.2 51.2 0 0 0 85.333333 989.866667h853.333334a51.2 51.2 0 0 0 51.2-51.2v-853.333334A51.2 51.2 0 0 0 938.666667 34.133333zM887.466667 887.466667H136.533333V136.533333h750.933334z" fill="#181818" /><path d="M512 785.066667a273.066667 273.066667 0 1 0-273.066667-273.066667 273.066667 273.066667 0 0 0 273.066667 273.066667z m0-443.733334a170.666667 170.666667 0 1 1-170.666667 170.666667 170.666667 170.666667 0 0 1 170.666667-170.666667zM785.066667 238.933333h34.133333a34.133333 34.133333 0 0 0 0-68.266666h-34.133333a34.133333 34.133333 0 0 0 0 68.266666z" fill="#181818" /></svg>