<?xml version="1.0" standalone="no"?><!DOCTYPE svg PUBLIC "-//W3C//DTD SVG 1.1//EN" "http://www.w3.org/Graphics/SVG/1.1/DTD/svg11.dtd"><svg class="icon" width="48px" height="48.00px" viewBox="0 0 1024 1024" version="1.1" xmlns="http://www.w3.org/2000/svg"><path d="M221.833574 580.335583h580.176546v375.408353h-580.176546z" fill="#4F8DFC" /><path d="M836.138152 1024h-648.43261A51.192048 51.192048 0 0 1 136.513494 972.807952V468.054357L57.336459 477.951486A51.192048 51.192048 0 0 1 0.001365 426.759438v-273.024257a51.192048 51.192048 0 0 1 34.128032-48.120525l276.437061-102.384096a51.192048 51.192048 0 0 1 54.604851 12.286091A210.911238 210.911238 0 0 0 511.921847 68.415101 210.911238 210.911238 0 0 0 659.354946 15.857931a51.192048 51.192048 0 0 1 54.604851-12.286091l276.43706 102.384096A51.192048 51.192048 0 0 1 1023.842329 153.735181v273.024257a51.192048 51.192048 0 0 1-57.335094 51.192048L887.3302 468.054357V972.807952a51.192048 51.192048 0 0 1-51.192048 51.192048zM238.89759 921.615904h546.048514V409.695422a51.192048 51.192048 0 0 1 57.335094-50.850768l79.177034 9.555849V189.228335l-214.324041-79.177035A326.605267 326.605267 0 0 1 511.921847 170.799197a326.605267 326.605267 0 0 1-195.212344-60.747897L102.385462 189.228335v179.513448l79.177034-9.555849A51.192048 51.192048 0 0 1 238.89759 409.695422z" fill="#181818" /></svg>