<?xml version="1.0" standalone="no"?><!DOCTYPE svg PUBLIC "-//W3C//DTD SVG 1.1//EN" "http://www.w3.org/Graphics/SVG/1.1/DTD/svg11.dtd"><svg class="icon" width="48px" height="48.00px" viewBox="0 0 1024 1024" version="1.1" xmlns="http://www.w3.org/2000/svg"><path d="M69.818182 69.818182h209.454545v884.363636H69.818182z" fill="#EA5406" /><path d="M861.090909 1012.363636H162.909091C93.090909 1012.363636 34.909091 954.181818 34.909091 884.363636V139.636364C34.909091 69.818182 93.090909 11.636364 162.909091 11.636364h698.181818c69.818182 0 128 58.181818 128 128v744.727272c0 69.818182-58.181818 128-128 128zM162.909091 81.454545C130.327273 81.454545 104.727273 107.054545 104.727273 139.636364v744.727272c0 32.581818 25.6 58.181818 58.181818 58.181819h698.181818c32.581818 0 58.181818-25.6 58.181818-58.181819V139.636364c0-32.581818-25.6-58.181818-58.181818-58.181819H162.909091z" fill="#333333" /><path d="M244.363636 69.818182h69.818182v893.672727h-69.818182z" fill="#333333" /><path d="M772.654545 411.927273l-55.854545 130.327272 69.818182 97.745455-32.581818 23.272727-55.854546-76.8-37.236363 86.109091-34.909091-13.963636 46.545454-107.054546-53.527273-76.8 32.581819-23.272727 39.563636 58.181818 37.236364-88.436363-90.763637 11.636363-20.945454-27.927272 41.890909-79.127273 34.909091 18.618182-25.6 46.545454 109.381818-13.963636 4.654545 39.563636-9.309091-4.654545z m-311.854545-18.618182l37.236364-2.327273-2.327273-72.145454 39.563636-2.327273 2.327273 72.145454H544.581818l18.618182-65.163636 37.236364 9.309091-13.963637 51.2 18.618182-2.327273 2.327273 39.563637-34.909091 2.327272 41.890909 58.181819-32.581818 23.272727-41.890909-58.181818 2.327272 55.854545-39.563636 2.327273-2.327273-51.2-41.890909 58.181818-32.581818-23.272727 41.890909-58.181818-30.254545 2.327272-2.327273-39.563636 23.272727-2.327273-27.927272-41.890909 32.581818-23.272727 25.6 46.545454-27.927273 20.945455z m114.036364 209.454545l39.563636 4.654546-4.654545 39.563636-69.818182-9.309091-51.2 48.872728-27.927273-27.927273 27.927273-25.6-37.236364-4.654546-16.290909-25.6 11.636364-34.909091-23.272728-2.327272 2.327273-39.563637 34.909091 2.327273 9.309091-23.272727 37.236364 13.963636-4.654546 11.636364 95.418182 4.654545 11.636364 34.909091-34.909091 32.581818zM488.727273 567.854545l-9.309091 23.272728 44.218182 6.981818 27.927272-25.6-62.836363-4.654546z" fill="#EA5406" /></svg>