<?xml version="1.0" standalone="no"?><!DOCTYPE svg PUBLIC "-//W3C//DTD SVG 1.1//EN" "http://www.w3.org/Graphics/SVG/1.1/DTD/svg11.dtd"><svg class="icon" width="48px" height="48.00px" viewBox="0 0 1024 1024" version="1.1" xmlns="http://www.w3.org/2000/svg"><path d="M652.629122 178.517066a12.799981 12.799981 0 0 0-24.746629-6.65599l-119.466488 442.538002-9.386652-150.527774a12.117315 12.117315 0 0 0 3.071995-3.071995l57.685247-106.666507a12.799981 12.799981 0 0 0-22.869299-12.799981l-40.959939 75.775887-15.018644-241.322305a12.799981 12.799981 0 0 0-25.599961 1.535998l17.066641 281.258244-108.202505-159.914426a12.799981 12.799981 0 0 0-21.162635 14.335978l131.583803 194.389042 1.023999 0.853332 4.26666 67.071899-155.647767-95.57319a12.799981 12.799981 0 0 0-13.482646 21.845301l168.618414 103.765178 2.559996 1.194665 5.290658 85.333205-2.901329 11.093317a12.799981 12.799981 0 0 0 9.04532 15.701309h3.413328a12.799981 12.799981 0 0 0 12.287982-9.386652l1.023998-3.583995a12.629314 12.629314 0 0 0 3.242662-9.386652v-2.218664zM733.866334 533.332533a12.799981 12.799981 0 0 0-17.066641-4.26666l-95.402524 54.271919 93.013194-212.991681a12.799981 12.799981 0 1 0-23.381298-10.239984L549.54661 681.812311a12.799981 12.799981 0 0 0 6.65599 17.066641 12.629314 12.629314 0 0 0 5.119993 1.023998 12.799981 12.799981 0 0 0 11.775982-7.679988l30.549288-69.973229 125.098479-71.167893a12.799981 12.799981 0 0 0 5.119992-17.749307z" fill="#1A5B3E" /><path d="M472.917392 253.43962s-66.730567 75.946553-105.813175 13.823979C336.55493 218.965005 360.618894 68.266564 360.618894 68.266564s195.242374 51.199923 187.733051 128.85314-75.434554 56.319916-75.434553 56.319916z" fill="#329664" /><path d="M697.173056 544.42585s-31.573286-85.333205 45.909264-87.381202c85.333205-1.877331 194.559708 129.023806 194.559708 129.023806s-142.677119 93.013194-216.746341 58.197246-23.722631-99.83985-23.722631-99.83985z" fill="#42B275" /><path d="M622.591834 273.066257s-99.498517 14.335978-66.901233-70.485228c29.183956-75.775886 172.714408-98.815852 172.714408-98.815851S778.239601 261.631608 716.799693 307.199539s-94.207859-34.133282-94.207859-34.133282z" fill="#329664" /><path d="M393.386845 343.722151s55.978583-79.189215-17.919974-100.522516c-81.919877-23.722631-210.431684 37.034611-210.431684 37.034611s82.090544 160.597092 172.031742 154.965101 56.319916-91.477196 56.319916-91.477196z" fill="#42B275" /><path d="M317.098959 469.332629s-17.066641-92.501195-89.087866-58.367912c-92.842527 43.690601-127.658475 179.370398-127.658476 179.370397s142.335786 60.927909 218.111673-4.437326-1.365331-116.565158-1.365331-116.565159zM693.589061 394.922074s-77.653217-64.68257 7.509322-97.279854c76.287886-29.183956 201.557031 53.759919 201.557031 53.75992s-96.255856 146.43178-172.202408 130.901137-36.863945-87.381202-36.863945-87.381203z" fill="#258450" /><path d="M594.773209 1023.998464h-165.546418a51.199923 51.199923 0 0 1-51.199923-44.885266l-40.44794-292.180895a34.133282 34.133282 0 0 1 34.133282-38.399942h280.746246a34.133282 34.133282 0 0 1 34.133282 38.399942l-40.959938 292.180895A51.199923 51.199923 0 0 1 594.773209 1023.998464z" fill="#685245" /><path d="M492.544029 527.359209s-56.319916-72.703891-96.085189-11.43465C352.25624 583.679124 371.882877 716.798925 371.882877 716.798925s168.277081-30.207955 187.733052-113.322497-67.071899-76.117219-67.0719-76.117219zM552.618606 311.466199s-62.463906 19.455971-29.01329 73.386557c35.327947 56.831915 180.394396 56.831915 180.394396 56.831915S693.077062 290.132898 625.322497 259.412944s-72.703891 52.053255-72.703891 52.053255z" fill="#42B275" /></svg>