<?xml version="1.0" standalone="no"?><!DOCTYPE svg PUBLIC "-//W3C//DTD SVG 1.1//EN" "http://www.w3.org/Graphics/SVG/1.1/DTD/svg11.dtd"><svg class="icon" width="48px" height="48.00px" viewBox="0 0 1024 1024" version="1.1" xmlns="http://www.w3.org/2000/svg"><path d="M977.454545 721.454545a46.545455 46.545455 0 0 1 46.219637 41.099637L1024 768V884.363636a139.636364 139.636364 0 0 1-131.444364 139.403637L884.363636 1024h-162.909091a46.545455 46.545455 0 0 1-5.445818-92.765091L721.454545 930.909091H884.363636a46.545455 46.545455 0 0 0 46.219637-41.099636L930.909091 884.363636v-116.363636a46.545455 46.545455 0 0 1 46.545454-46.545455z m-930.90909 0a46.545455 46.545455 0 0 1 46.219636 41.099637L93.090909 768V884.363636a46.545455 46.545455 0 0 0 41.099636 46.219637L139.636364 930.909091h162.909091a46.545455 46.545455 0 0 1 5.445818 92.765091L302.545455 1024H139.636364a139.636364 139.636364 0 0 1-139.403637-131.444364L0 884.363636v-116.363636a46.545455 46.545455 0 0 1 46.545455-46.545455z m744.727272-139.636363a46.545455 46.545455 0 0 1 46.219637 41.099636L837.818182 628.363636v139.636364a46.545455 46.545455 0 0 1-92.765091 5.445818L744.727273 768v-139.636364a46.545455 46.545455 0 0 1 46.545454-46.545454z m-372.363636 0a46.545455 46.545455 0 0 1 46.219636 41.099636L465.454545 628.363636V744.727273a46.545455 46.545455 0 0 1-92.76509 5.445818L372.363636 744.727273v-116.363637a46.545455 46.545455 0 0 1 46.545455-46.545454z m-186.181818 0a46.545455 46.545455 0 0 1 46.219636 41.099636L279.272727 628.363636v93.090909a46.545455 46.545455 0 0 1-92.765091 5.445819L186.181818 721.454545v-93.090909a46.545455 46.545455 0 0 1 46.545455-46.545454z m372.363636 0a46.545455 46.545455 0 0 1 46.219636 41.099636L651.636364 628.363636V698.181818a46.545455 46.545455 0 0 1-92.765091 5.445818L558.545455 698.181818v-69.818182a46.545455 46.545455 0 0 1 46.545454-46.545454z m372.363636-116.363637a46.545455 46.545455 0 0 1 5.445819 92.765091L977.454545 558.545455H46.545455a46.545455 46.545455 0 0 1-5.445819-92.765091L46.545455 465.454545h930.90909zM325.818182 256a46.545455 46.545455 0 0 1 46.219636 41.099636L372.363636 302.545455v93.090909a46.545455 46.545455 0 0 1-92.765091 5.445818L279.272727 395.636364v-93.090909a46.545455 46.545455 0 0 1 46.545455-46.545455zM512 186.181818a46.545455 46.545455 0 0 1 46.219636 41.099637L558.545455 232.727273v162.909091a46.545455 46.545455 0 0 1-92.765091 5.445818L465.454545 395.636364V232.727273a46.545455 46.545455 0 0 1 46.545455-46.545455z m186.181818 69.818182a46.545455 46.545455 0 0 1 46.219637 41.099636L744.727273 302.545455v93.090909a46.545455 46.545455 0 0 1-92.765091 5.445818L651.636364 395.636364v-93.090909a46.545455 46.545455 0 0 1 46.545454-46.545455zM884.363636 0a139.636364 139.636364 0 0 1 139.403637 131.444364L1024 139.636364v162.909091a46.545455 46.545455 0 0 1-92.765091 5.445818L930.909091 302.545455V139.636364a46.545455 46.545455 0 0 0-41.099636-46.219637L884.363636 93.090909h-162.909091a46.545455 46.545455 0 0 1-5.445818-92.765091L721.454545 0H884.363636zM302.545455 0a46.545455 46.545455 0 0 1 5.445818 92.765091L302.545455 93.090909H139.636364a46.545455 46.545455 0 0 0-46.219637 41.099636L93.090909 139.636364v162.909091a46.545455 46.545455 0 0 1-92.765091 5.445818L0 302.545455V139.636364A139.636364 139.636364 0 0 1 131.444364 0.232727L139.636364 0h162.909091z" fill="#7C66FF" /></svg>