<?xml version="1.0" standalone="no"?><!DOCTYPE svg PUBLIC "-//W3C//DTD SVG 1.1//EN" "http://www.w3.org/Graphics/SVG/1.1/DTD/svg11.dtd"><svg class="icon" width="48px" height="48.00px" viewBox="0 0 1024 1024" version="1.1" xmlns="http://www.w3.org/2000/svg"><path d="M807 167c-1.1 0-8.3-0.2-12.8-5.7-2.1-2.6-4.3-7.3-2.7-14.9 1.8-8.4 7.3-13.7 15.6-15 1.7-0.3 3.6-0.4 5.6-0.3 0-0.1 0-0.1-0.1-0.2-1-3.4-2.9-11.8 1.5-17.1 4.4-5.3 9-6.2 12.4-6 4.8 0.2 9.1 2.9 12.3 5.7 2.1-3.9 5.3-8.1 10.1-10.7 5-2.7 10.9-2.8 17-0.5 8.8 3.3 12 8.9 13.2 13 1.3 4.6 0.7 9.3-0.6 13.5 6-1.4 12.9-1.9 18.3 1.4 3.7 2.2 8 7 8 17.2 0 16-12.2 19.5-16.9 19.5H807v0.1z m0.1-10.4h80.8c1.9-0.1 6.6-1.1 6.6-9.2 0-4.3-1-7.2-3-8.4-4.9-3-16.3 1.3-21.1 3.8l-6.6-7.7c2-2.7 7-11.1 5.3-17-0.8-2.7-3-4.7-6.9-6.2-3.3-1.3-6.1-1.3-8.4 0-4.8 2.5-7.5 9.8-8.2 12.4l-9.3 1.7c-1.7-2.5-6.5-7.8-10.2-8-0.6 0-1.9-0.1-3.9 2.3-0.3 0.5-0.7 2.8 0.2 6.5 0.8 3.4 2.2 5.8 3.2 6.9 2 0.9 3.5 1.9 4.2 3l-0.4 5.9-6.3 1.6c-1-0.3-1.9-0.8-2.7-1.3-3.5-1.1-10-2.4-14.2-0.4-1.4 0.7-3.4 2-4.3 6.1-0.4 2-0.7 4.6 0.6 6.1 1.2 1.8 4.4 1.9 4.6 1.9zM311.2 356.3l-2.3-0.6c-5.1-2.6-13.8-10.5-10.6-21.5 1.5-5.3 4.7-9.2 9.3-11.4 4.6-2.2 9.9-2.4 14.6-1.9-0.4-2.7-0.4-5.4 0.3-8 0.9-3.6 4.4-11.9 17.2-12h0.1c7.2 0 13 2.3 17.2 6.9 4.2 4.6 5.7 10.5 6.3 15 4.8-0.9 11.2-1.2 15.6 1.8 2.1 1.5 4.7 4.4 4.7 9.7 0 18.9-10.6 21.6-11.8 21.8l-60.6 0.2z m1.4-10.1h57.1c0.9-0.6 3.7-3.2 3.7-11.8 0-1.1-0.3-1.3-0.4-1.4-1.8-1.3-8.3-0.5-12.9 1.2l-6.8-5.3c0-0.1 0.8-9.2-3.9-14.3-2.2-2.4-5.4-3.6-9.7-3.6h-0.1c-6.1 0-7 2.9-7.3 4-1.1 3.7 0.8 8.3 2 9.1l-4.4 9.2c-3.1-1.3-12.5-4-18-1.3-2 1-3.3 2.6-4 5.1-1.2 4.5 2.8 7.8 4.7 9.1zM711.3 616.7l-2.3-0.6c-5.1-2.6-13.8-10.5-10.6-21.5 1.5-5.3 4.7-9.2 9.3-11.4 4.6-2.2 9.9-2.4 14.6-1.9-0.4-2.7-0.4-5.4 0.3-8 0.9-3.6 4.4-12 17.2-12 7.1 0.1 13.1 2.3 17.3 6.9 4.2 4.6 5.7 10.5 6.3 15 4.9-0.9 11.2-1.2 15.6 1.8 2.1 1.5 4.7 4.4 4.7 9.7 0 18.9-10.6 21.6-11.8 21.8l-60.6 0.2z m1.4-10.2h57.1c0.9-0.6 3.7-3.2 3.7-11.8 0-1.1-0.3-1.3-0.4-1.4-1.8-1.3-8.3-0.5-12.9 1.2l-6.8-5.3c0-0.1 0.8-9.2-3.9-14.3-2.2-2.4-5-3.5-9.7-3.6-6.1 0-7 2.9-7.3 4-1.1 3.7 0.8 8.3 2 9.1l-4.4 9.2c-3.1-1.3-12.5-4-18-1.3-2 1-3.3 2.6-4 5.1-1.3 4.5 2.7 7.9 4.6 9.1z" fill="#3EC69F" /><path d="M511.7 930.5c-86.6 0-169.5-26.4-240.2-76.3l-115.9 65c-10.2 5.2-22.5 1.5-28-8.4s-2.3-22.2 7.3-28.2l101-56.6C145.3 746.3 93.5 632.3 93.5 512 93.5 281.3 281.2 93.5 512 93.5S930.4 281.3 930.5 512c0 119.2-51 232.6-140.3 312.2l104.1 58.3c4.9 2.7 8.4 7.2 9.9 12.6 1.5 5.4 0.8 11.1-1.9 16-2.7 4.8-7.3 8.4-12.6 10-5.4 1.5-11.1 0.8-16-1.9l-118.9-66.6c-71.3 51-155.2 78-242.8 78-0.1-0.1-0.2-0.1-0.3-0.1z m-239.5-87.8l2.5 1.8c69.5 49.9 151.5 76.3 237 76.3h0.3c86.6 0 169.4-26.9 239.6-77.9l2.5-1.8 124.4 69.7c2.6 1.5 5.7 1.8 8.6 1 2.8-0.8 5.3-2.8 6.7-5.3 1.5-2.6 1.8-5.7 1-8.6-0.8-2.9-2.7-5.3-5.3-6.8L773.3 826l5.3-4.5c90.3-77.9 142.1-190.7 142.1-309.4 0-225.4-183.4-408.7-408.8-408.7S103.3 286.6 103.3 512c0 119.7 52.6 233.2 144.2 311.2l5.3 4.5-113 63.3c-5 3.1-6.7 9.7-3.7 15 3 5.3 9.5 7.3 14.9 4.5l121.2-67.8z m239.3 55.5l-8.5-0.2c-24.1-0.5-48.3-3.3-71.9-8.3l-8.5-1.8 52.9-55.3 36 65.6z m-69.7-16.3c17.5 3.3 35.2 5.3 53 6.1l-21.4-39.1-31.6 33z m83.7 16.1l34.8-65.4 50.4 52.8-8.2 2c-22.4 5.4-45.4 8.8-68.4 10.1l-8.6 0.5z m37-48.9l-20.3 38.1c16.7-1.3 33.3-3.8 49.7-7.3l-29.4-30.8z m-44 48.6L484.7 836l14.1 0.9c13.8 1 27.6 0.6 44-0.9l9-0.8-33.3 62.5z m-16.8-50.9l16.7 30.4 16.4-30.9c-11.9 0.9-22.5 1.2-33.1 0.5z m-91 38l-8-2.4c-23.5-6.9-46.3-16.1-67.9-27.3l-7.7-4 62.2-37.9 5.3 1.9 16.1 69.7z m-63.6-34.4c16.2 7.9 33.1 14.7 50.4 20.2L387.2 826l-40.1 24.4z m70.1 34l-15.3-66.2 8.2 2.7c15.1 4.9 30.7 8.8 46.3 11.5l9 1.5-48.2 50.5z m-2-51.7l7.4 31.9 23.2-24.3c-10.3-2.1-20.5-4.6-30.6-7.6z m203.3 51.7l-49.4-51.7 8.5-1.8c16.6-3.5 33-8.4 48.8-14.5l8.5-3.3-16.4 71.3z m-30.4-46l25 26.2 8.3-36.1c-10.9 3.9-22.1 7.2-33.3 9.9z m37.7 42.8l16.2-70.5 61 37.1-7.5 4c-19.7 10.6-40.4 19.5-61.6 26.6l-8.1 2.8z m22.7-55.2l-9.3 40.3c15.1-5.4 29.9-11.8 44.2-19.1L648.5 826z m-330.9 19.8l-7.1-4.3c-3.1-1.9-6.1-3.8-9.1-5.8l-7.8-5.1 25-14-1 29.2z m394.1-0.2l-63.2-38.5 10.5-5.2c3.6-1.8 7.3-3.6 10.8-5.5l2.4-1.3 38.5 21.6 1 28.9z m-43-37.6l32.7 19.9-0.2-5.5-29-16.3c-1.2 0.7-2.4 1.3-3.5 1.9z m-344.6 37.6l1.1-32.6 29.2-16.4 2.4 1.3c4.3 2.3 8.7 4.4 13.1 6.4l12.4 5.9-58.2 35.4z m10.6-26.8l-0.3 9.1 27.3-16.6c-2.5-1.2-4.9-2.3-7.3-3.6l-19.7 11.1z m383.4 19.4l-0.9-18 15.1 8.6-7.2 5.2-7 4.2zM273.8 816l-2.6-2c-7.2-5.7-14.1-11.6-20.5-17.5l-6.4-5.8 70.1-20.5 5.6 4.3-0.6 15.9-45.6 25.6z m-10-21c3.5 3.1 7.2 6.2 11 9.2l35.3-19.8 0.1-3-46.4 13.6zM512 815c-43.3 0-85.6-9.2-125.5-27.5l-8.7-4 136.9-76.7L649 782.1l-8.5 4c-40 18.9-84.4 28.8-128.5 28.9z m-112.6-32.5c36 15.1 73.9 22.7 112.6 22.7 39.5 0 79.3-8.3 115.6-24L514.7 718l-115.3 64.5z m353 31.7L716.3 794l-0.9-25.6 66.9 19.6-6.2 5.8c-7.1 6.6-14.1 12.8-21 18.4l-2.7 2z m-26.6-26l25.6 14.3c3.8-3.2 7.7-6.5 11.6-10l-37.5-11 0.3 6.7z m-16 2l-15.8-8.6 15-11.1 0.8 19.7z m81.9-6.2L719 762.7l6.7-5.8c14.6-12.7 27-25.4 38-38.7l5.8-7 22.2 72.8z m-53.1-25.6l38.5 11.3-11.8-38.4c-8.1 9.2-16.9 18.1-26.7 27.1zM244.1 784l19.2-62.8 5.8 6.5c10.4 11.7 21.2 22.4 32.2 31.7l6.8 5.8-64 18.8z m23.4-43.4l-8.9 29 29.5-8.6c-6.9-6.3-13.8-13.2-20.6-20.4z m-30 43.1l-5.7-6.1c-17.4-18.4-33.2-38.6-46.7-60.1l-4.6-7.3 72.7-1.7 5.2 6.7-20.9 68.5zM198 719.6c10.6 15.9 22.3 31 35.1 45.1l14.1-46.2-49.2 1.1z m597.4 54.8l-20.2-65.9 68.4 1.5-4.6 7.3c-11.2 17.8-24 34.8-37.9 50.6l-5.7 6.5z m-6.9-55.9l11.1 36.3c9.5-11.3 18.4-23.2 26.6-35.5l-37.7-0.8z m-433.8 52.1l-2.4-1.5C262.6 713.3 209 617.1 209 512c0-167.1 135.9-303 303-303s303 135.9 303 303c0 103.9-52.6 199.5-140.6 255.5l-2.5 1.6-149.2-83.6V504.3c0-6.2-5-11.2-11.2-11.2s-11.2 5-11.2 11.2v184.8l-145.6 81.5zM512 218.8c-161.7 0-293.2 131.5-293.2 293.2 0 100.8 50.9 193 136.2 247.3l135.5-75.9V504.3c0-11.6 9.4-21 21-21s21 9.4 21 21v175.5l139.1 78c83.8-54.5 133.7-146.1 133.7-245.8-0.1-161.7-131.6-293.2-293.3-293.2z m341 485.1l-76.8-1.8 5-7.4c10.3-15.3 19.4-31.5 27-48.4l3.7-8.3 41.1 65.9z m-59-11.1l41.1 0.9-22-35.2c-5.6 11.8-12 23.3-19.1 34.3z m-611.3 11.1L217 649l3.9 7.8c7.3 14.6 14.5 27.1 22.1 38.2l5.1 7.4-65.4 1.5z m33.4-35.1l-15.6 24.9 29.6-0.7c-4.7-7.4-9.4-15.4-14-24.2zM176 702.7l-4-7.4c-12.2-22.6-22.1-46.5-29.6-71.1l-2.5-8.1 70.2 17.1 1.5 3.7 1.2 3 1 2.3-37.8 60.5z m-21.7-73.1c6 18.4 13.5 36.4 22.3 53.6l26.2-41.8-48.5-11.8z m699.1 63l-35.9-57.5 65.7-16.1-2.6 8.2c-6.2 19.7-14 39.1-23.3 57.6l-3.9 7.8z m-20.5-51.2l19.5 31.3c6.2-13 11.6-26.4 16.2-40l-35.7 8.7z m-17.5-12.3l3-8.5c6.3-17.7 11.1-36.1 14.2-54.5l1.5-8.9 52.6 49-1.4 5.6-2.9 1-67 16.3z m25.2-52.6c-2.6 13.1-6 26.2-10.1 38.9l41.1-10-31-28.9z m-633.3 49.4l-63-15.4 46.8-43.6 1.7 8.6c2.7 13.5 6.5 27.2 11.6 42l2.9 8.4z m-43.2-20.5l28.3 6.9c-2.9-9.1-5.3-17.9-7.3-26.5l-21 19.6z m-26.3 2.5l-1.9-8.2c-5.8-25-9.1-50.8-9.9-76.5l-0.2-8.5 63.1 34.5 1.4 9.7-52.5 49z m-1.7-76.4c1 19.4 3.5 38.7 7.5 57.7l36.2-33.8-43.7-23.9z m752.3 67.6l-49.1-45.7 58.8-32.2-0.4 8.6c-0.9 20.4-3.5 40.8-7.6 60.7l-1.7 8.6z m-32.5-43.7l26.4 24.6c2.5-13.8 4.3-27.9 5.2-42l-31.6 17.4z m-20.7-7l0.9-9.1c0.8-9 1.3-18.2 1.4-27.3 0-8.6-0.5-18-1.5-29.3l-0.8-8.9 63 33.5 0.1 5.8-2.6 2.3-60.5 33z m11.2-57.8c0.5 7.8 0.8 14.8 0.8 21.3-0.1 6.4-0.3 12.8-0.7 19.1l37.5-20.5-37.6-19.9z m-658.3 51l-56.9-31.1 57-30.3-0.8 11.8c-0.5 6.5-1 13.3-1 20 0 5.3 0.4 10.5 0.7 15.8l1 13.8z m-36.3-31l25.5 14c-0.3-4.2-0.5-8.3-0.5-12.6 0-5.1 0.3-10.1 0.6-15l-25.6 13.6z m-26-4.4l0.3-8.4c0.9-25.7 4.4-51.3 10.4-76.1l2-8.2 52.1 49.8-1.4 9.3-63.4 33.6z m18.3-74c-4.1 18.8-6.7 38.1-7.8 57.4l43.6-23.2-35.8-34.2z m754 67.7l-58.7-31.2 48.4-46.3 1.8 8.5c4.3 19.9 7 40.2 8 60.4l0.5 8.6z m-42.2-33.5l31.5 16.8c-1.1-13.9-2.9-27.8-5.5-41.6l-26 24.8z m-22-1.3l-1.6-9c-3.2-18.6-8.2-37.1-14.7-54.9l-3.1-8.4 69.6 16.1 1.6 6.6-51.8 49.6z m-4.2-58.8c4.3 12.9 7.8 26 10.5 39.3l31.1-29.7-41.6-9.6z m-638.4 48.8l-46.7-44.6 63.7-14.7-3 8.4c-5 13.8-9.1 28.1-12.1 42.4l-1.9 8.5z m-26.9-39.2l21.2 20.2c2.2-9 4.7-18 7.7-26.9l-28.9 6.7z m-23.6-11.1l2.5-8.1c7.6-24.2 17.6-47.8 29.8-70l4-7.4 37.3 61.3-3.6 8.1-70 16.1z m36.8-66c-8.8 16.9-16.3 34.6-22.4 52.7l47.7-11-25.3-41.7z m704.7 63.1l-64.9-15 35-57.5 4 7.8c9.2 18.1 17.1 37.2 23.3 56.5l2.6 8.2z m-49.5-21.4l34.9 8.1c-4.6-13.3-10-26.3-16.1-39l-18.8 30.9z m-21.5 4.3l-3.8-8.3c-7.8-17.1-17.2-33.6-27.8-49.1l-5-7.3 70.9-2.5 3 5-1.2 3-36.1 59.2z m-18.7-55.7c7.3 11.2 13.9 23 19.8 35l22.2-36.5-42 1.5z m-575 44.6l-34.3-56.4 66.2 2.3-5 7.3c-8.5 12.3-16.2 25.4-23 38.9l-3.9 7.9z m-16.5-46.1l15.8 26.1c4.6-8.5 9.5-16.9 14.8-25l-30.6-1.1z m574-14l19.1-65.4 5.8 6.5c13.7 15.3 26.3 31.9 37.4 49.3l4.6 7.2-66.9 2.4z m23.5-45.7l-10.4 35.5 36.3-1.3c-8-11.8-16.6-23.3-25.9-34.2z m-543.9 45.5l-72.4-2.5 4.6-7.2c13.4-20.9 28.9-40.6 46.1-58.6l5.8-6.1 20.2 68.9-4.3 5.5z m-54.9-11.7l47.7 1.7-13.3-45.4c-12.5 13.7-24.1 28.4-34.4 43.7z m569.1 10.4l-5.8-7c-11.9-14.2-25-27.5-39-39.5l-6.7-5.8 73.5-22.5-22 74.8z m-32-48.2c9.7 8.8 19 18.2 27.7 28l11.7-40.1-39.4 12.1z m-473 38.1l-19-64.7 64.8 19.8-6.8 5.8c-11.2 9.4-22.1 20.1-33.2 32.5l-5.8 6.6z m-4.6-50.1l9 30.6c7.2-7.7 14.4-14.8 21.6-21.3l-30.6-9.3z m455.9 1.9l1.6-69.3 7.3 4.8c17.6 11.6 34.3 24.6 49.7 38.9l6.2 5.7-64.8 19.9z m10.9-51.4l-0.9 38.1 35.7-10.9c-11-9.7-22.7-18.8-34.8-27.2z m-17.3 50.8l-7.5-5.4c-14.8-10.6-30.5-20-46.8-28l-7.9-3.9 64-40-1.8 77.3zM666.6 215c11.3 5.9 22.4 12.5 33 19.7l0.9-40.8-33.9 21.1z m-350.5 37.4l-69.4-21.2 6.4-5.8c18-16.3 37.7-31 58.5-43.7l7.2-4.4 1.7 72.4-4.4 2.7z m-50-25.5l44.4 13.6-1.1-45.9c-15.2 9.7-29.7 20.6-43.3 32.3z m60.6 17.8l-1.5-68.6 59 36.9-8.1 3.8c-15.2 7-29.3 14.8-42 23.2l-7.4 4.7z m8.6-50.9l0.7 33.2c8.7-5.4 18.1-10.5 27.8-15.3l-28.5-17.9z m306.5 17.7L625 142.6l8.3 2.8c20.6 6.8 40.6 15.4 59.7 25.5l7.4 4-58.6 36.6z m-3.1-54l9.4 38.6 32.9-20.6c-13.7-6.8-27.8-12.9-42.3-18z m-244.9 54l-64.1-40.1 7.7-3.9c21.1-10.7 43.3-19.5 66-26.1l8.1-2.4-17.7 72.5z m-44.2-39.2l38 23.7 10.4-42.9c-16.5 5.3-32.7 11.7-48.4 19.2z m285.6 38.8l-8.7-3.3c-16.4-6.3-33.5-11.3-50.7-14.9l-8.5-1.7 50-53.6 17.9 73.5z m-49-25.9c11.9 2.8 23.7 6.2 35.2 10.3l-9.3-38.1-25.9 27.8z m-184.5 20.6l16.7-68.3 48.8 52.3-9 1.5c-16.3 2.7-32.5 6.6-48.2 11.7l-8.3 2.8z m21.9-48.4l-8.3 33.9c10.6-3.2 21.5-5.8 32.5-7.9l-24.2-26z m52 32.1l-50.4-54.1 8.5-1.7c22.5-4.6 45.5-7.2 68.4-7.7l8.4-0.2-34.9 63.7z m-31.4-47.9l29.3 31.5 20.3-37c-16.6 0.7-33.2 2.6-49.6 5.5z m116 47.8L526.5 126l8.7 0.5c21.7 1.3 43.6 4.5 65 9.5l8.2 1.9-48.2 51.5z m-16.9-52.5l19.1 36 27.2-29.2c-15.3-3.3-30.8-5.6-46.3-6.8z m9.5 52.1l-9-0.9c-10.5-1-21.2-1.6-31.8-1.6-4.7 0-9.4 0.3-14 0.6l-14.2 0.9 34.7-63.5 34.3 64.5zM512 176.8c7.9 0 15.8 0.3 23.7 0.9L518.4 145l-17.6 32.2c3.7-0.2 7.4-0.4 11.2-0.4z" fill="#ED70A3" /></svg>