<?xml version="1.0" standalone="no"?><!DOCTYPE svg PUBLIC "-//W3C//DTD SVG 1.1//EN" "http://www.w3.org/Graphics/SVG/1.1/DTD/svg11.dtd"><svg class="icon" width="48px" height="48.00px" viewBox="0 0 1024 1024" version="1.1" xmlns="http://www.w3.org/2000/svg"><path d="M512.99 568.6m-301.05 0a301.05 301.05 0 1 0 602.1 0 301.05 301.05 0 1 0-602.1 0Z" fill="#353F51" /><path d="M776.41 681.49m-112.89 0a112.89 112.89 0 1 0 225.78 0 112.89 112.89 0 1 0-225.78 0Z" fill="#353F51" /><path d="M249.57 681.49m-112.89 0a112.89 112.89 0 1 0 225.78 0 112.89 112.89 0 1 0-225.78 0Z" fill="#353F51" /><path d="M512.99 267.54m-150.53 0a150.53 150.53 0 1 0 301.06 0 150.53 150.53 0 1 0-301.06 0Z" fill="#353F51" /><path d="M647.1 334.59c71 40.87 121.3 112.32 133.07 196.75 25.39 0.64 48.95 7.81 69.72 19.53-6.58-125.01-80.37-231.25-186.46-284.25 0 0.31 0.09 0.61 0.09 0.92 0 24.22-6.26 46.78-16.42 67.05zM512.99 839.54c-58.82 0-112.91-19.33-157.38-51.29-17.06 16.94-38.42 29.18-61.97 36.44 59.23 50.78 135.22 82.59 219.35 82.59s160.13-31.81 219.35-82.59c-23.56-7.26-44.92-19.5-61.97-36.44-44.47 31.96-98.56 51.29-157.38 51.29zM378.88 334.59c-10.16-20.27-16.42-42.83-16.42-67.05 0-0.31 0.09-0.61 0.09-0.92-106.09 53-179.88 159.24-186.46 284.25 20.77-11.71 44.33-18.89 69.72-19.53 11.78-84.43 62.08-155.88 133.07-196.75zM686.09 681.49c0-49.8 40.52-90.32 90.32-90.32 1.82 0 3.34 0.93 5.14 1.04 0.7-7.91 2.39-15.53 2.39-23.62 0-12.76-2.05-24.96-3.77-37.25-1.28-0.03-2.47-0.38-3.76-0.38-83.13 0-150.53 67.39-150.53 150.53 0 41.75 17.03 79.49 44.49 106.76 16.58-11.92 31.35-25.88 44.84-41.15-17.69-16.5-29.12-39.57-29.12-65.61zM849.89 550.87c0.32 5.99 1.79 11.65 1.79 17.72 0 19.67-2.57 38.67-5.79 57.42 12.35 15.45 20.84 34.2 20.84 55.47 0 47.25-36.85 85-83.12 88.86-15 20.08-32.26 38.05-51.26 54.34 14.02 4.32 28.62 7.32 44.07 7.32 83.13 0 150.53-67.39 150.53-150.53-0.01-56.28-31.29-104.78-77.06-130.6z" fill="#70798B" /><path d="M783.6 770.35c-2.5 0.21-4.64 1.46-7.19 1.46-23.76 0-45.06-9.65-61.2-24.7-13.49 15.27-28.26 29.23-44.84 41.15 17.06 16.94 38.42 29.18 61.97 36.44 19.01-16.3 36.26-34.27 51.26-54.35zM783.94 568.6c0 8.09-1.69 15.71-2.39 23.62 26.32 1.57 48.83 14.41 64.34 33.8 3.22-18.75 5.79-37.75 5.79-57.42 0-6.07-1.47-11.73-1.79-17.72-20.77-11.71-44.33-18.89-69.72-19.53 1.71 12.29 3.77 24.49 3.77 37.25zM242.38 770.35c-46.27-3.86-83.12-41.61-83.12-88.86 0-21.27 8.49-40.02 20.84-55.47-3.22-18.75-5.79-37.75-5.79-57.42 0-6.07 1.47-11.73 1.79-17.72-45.78 25.82-77.05 74.32-77.05 130.62 0 83.13 67.39 150.53 150.53 150.53 15.44 0 30.04-3 44.07-7.32-19.02-16.31-36.27-34.28-51.27-54.36zM400.1 681.49c0-90.32-67.39-150.53-150.53-150.53-1.29 0-2.48 0.35-3.76 0.38-1.71 12.29-3.77 24.49-3.77 37.25 0 8.09 1.69 15.71 2.39 23.62 1.8-0.11 3.32-1.04 5.14-1.04 53.18 0 90.32 37.14 90.32 90.32 0 26.04-11.42 49.11-29.11 65.61 13.49 15.27 28.26 29.23 44.84 41.15 27.45-27.27 44.48-65.01 44.48-106.76z" fill="#70798B" /><path d="M310.77 747.1c-16.14 15.05-37.44 24.7-61.2 24.7-2.55 0-4.69-1.25-7.19-1.46 15 20.08 32.26 38.05 51.26 54.34 23.56-7.26 44.92-19.5 61.97-36.44-16.58-11.9-31.35-25.87-44.84-41.14zM180.1 626.02c15.51-19.39 38.02-32.24 64.34-33.8-0.7-7.91-2.39-15.53-2.39-23.62 0-12.76 2.05-24.96 3.77-37.25-25.39 0.64-48.95 7.81-69.72 19.53-0.32 5.99-1.79 11.65-1.79 17.72 0 19.67 2.57 38.67 5.79 57.42zM512.99 177.23c40.76 0 73.96 27.65 85.15 64.81 22.86 5.96 44.57 14.24 65.28 24.59-0.51-82.7-67.61-149.61-150.43-149.61s-149.92 66.91-150.43 149.61c20.71-10.35 42.42-18.63 65.28-24.59 11.19-37.16 44.39-64.81 85.15-64.81zM512.99 418.07c58.91 0 109.38-34.17 134.11-83.48-17.61-10.13-36.35-18.15-56.15-24.15-15.42 27.8-43.98 47.42-77.95 47.42s-62.54-19.61-77.95-47.42c-19.8 6-38.55 14.02-56.15 24.15 24.71 49.31 75.18 83.48 134.09 83.48z" fill="#70798B" /><path d="M603.31 267.54c0 15.83-5.18 29.96-12.36 42.9 19.8 6 38.55 14.02 56.15 24.15 10.16-20.27 16.42-42.83 16.42-67.05 0-0.31-0.09-0.61-0.09-0.92-20.71-10.35-42.42-18.63-65.28-24.59 2.48 8.25 5.16 16.47 5.16 25.51zM378.88 334.59c17.61-10.13 36.35-18.15 56.15-24.15-7.18-12.94-12.36-27.08-12.36-42.9 0-9.04 2.68-17.26 5.16-25.5-22.86 5.96-44.57 14.24-65.28 24.59 0 0.31-0.09 0.61-0.09 0.92 0.01 24.21 6.26 46.77 16.42 67.04z" fill="#70798B" /></svg>