<?xml version="1.0" standalone="no"?><!DOCTYPE svg PUBLIC "-//W3C//DTD SVG 1.1//EN" "http://www.w3.org/Graphics/SVG/1.1/DTD/svg11.dtd"><svg class="icon" width="48px" height="48.00px" viewBox="0 0 1024 1024" version="1.1" xmlns="http://www.w3.org/2000/svg"><path d="M512 469.25m-50.53 0a50.53 50.53 0 1 0 101.06 0 50.53 50.53 0 1 0-101.06 0Z" fill="#3E80F6" /><path d="M671.14 628.32c-19.1 19.1-40.67 33.92-63.72 44.78L566.75 586c13.34-6.09 25.68-14.65 36.72-25.52 50.38-50.55 50.38-132.22 0-182.76-50.55-50.38-132.38-50.38-182.76 0-50.55 50.55-50.55 132.22 0 182.76 11.03 11.03 23.38 19.59 36.72 25.52l-40.83 87.1c-23.05-10.87-44.62-25.69-63.72-44.78-87.92-87.93-87.92-230.51 0-318.44 87.92-87.92 230.51-87.92 318.27 0 87.91 87.93 87.91 230.51-0.01 318.44z" fill="#1C4CC3" /><path d="M799.89 756.91c-34.58 34.57-73.6 61.58-115.42 80.84l-39.19-83.64c32.27-14.98 62.57-35.89 89.24-62.56 122.83-122.83 122.83-322.06 0-444.89-122.83-122.83-322.06-122.83-445.05 0-122.83 122.83-122.83 322.06 0 444.89 26.67 26.67 56.97 47.42 89.24 62.56l-39.19 83.81c-41.66-19.43-80.85-46.43-115.42-81.01-159.06-158.89-159.06-416.73 0-575.62 159.05-159.06 416.73-159.06 575.79 0 159.06 158.89 159.06 416.73 0 575.62z" fill="#1C4CC3" /><path d="M512.02 571.6L338.1 962h347.85z" fill="#1AADF9" /></svg>