<?xml version="1.0" standalone="no"?><!DOCTYPE svg PUBLIC "-//W3C//DTD SVG 1.1//EN" "http://www.w3.org/Graphics/SVG/1.1/DTD/svg11.dtd"><svg class="icon" width="48px" height="48.00px" viewBox="0 0 1024 1024" version="1.1" xmlns="http://www.w3.org/2000/svg"><path d="M81.949567 233.479885L478.14591 3.350914l71.748989 41.393648L153.797113 274.972089l-71.847546-41.492204z" fill="#E0EFFB" /><path d="M215.296246 265.60924L611.394033 35.480269l-0.197113 44.646006-396.097786 230.227527 0.197112-44.744562z" fill="#99C9F2" /><path d="M153.895669 230.227526L549.993455 0l61.400578 35.480269-396.097787 230.128971-61.400577-35.381714zM215.099134 310.353802L611.19692 80.126275l198.295284 114.522426L413.394418 424.777671 215.099134 310.353802z" fill="#E0EFFB" /><path d="M580.250241 634.111261l396.097786-230.12897-1.084119 389.790183-396.097787 230.227526 1.08412-389.888739z" fill="#99C9F2" /><path d="M413.492974 380.131665l396.097786-230.227526 61.203465 35.283156-396.097786 230.227527-61.203465-35.283157z" fill="#E0EFFB" /><path d="M474.696439 415.414822l396.097786-230.227527-0.098556 44.744563-396.097786 230.227526 0.098556-44.744562z" fill="#99C9F2" /><path d="M546.543985 501.651588l396.097786-230.12897 80.421944 157.295861-396.097786 230.227527-80.421944-157.394418z" fill="#E0EFFB" /><path d="M474.597883 460.159384l396.097786-230.227526 71.946102 41.59076L546.543985 501.651588l-71.946102-41.492204z" fill="#E0EFFB" /><path d="M474.696439 415.414822l-0.098556 44.744562 71.946102 41.492204 80.421944 157.394418-0.985563 1.478344-45.730125-26.413089-1.08412 389.888739L46.469297 716.405775l1.08412-389.790183-45.730125-26.41309L0.936285 297.640038l81.013282-64.160153 71.847546 41.492204 0.098556-44.744563 61.400577 35.381714-0.197112 44.744562L413.394418 424.777671l0.098556-44.646006 61.203465 35.283157z" fill="#B8D9F6" /><path d="M145.912608 601.094899l1.281232 2.168239-0.098556 49.278152-1.281232 0.689894-42.871992-24.737633-1.281232-2.168238 0.098556-49.278152 1.281232-0.689894 42.871992 24.737632zM146.602502 443.601925l1.182676 1.87257-0.098556 49.573821-1.281232 0.492781-42.871993-24.737632-1.281231-1.971126 0.197112-49.475265 1.182676-0.591338 42.970548 24.836189zM314.641001 661.214244a126.447738 126.447738 0 0 1 57.359769 99.936093l-1.478345 144.089317-1.281232 0.985563-112.649855-65.047161-1.478345-2.562464 1.478345-141.231184c0-32.720693 19.711261-51.939172 47.898364-41.097979a70.566314 70.566314 0 0 1 10.151299 4.927815zM361.356689 543.143792l1.281232 1.971126-0.197113 82.688739-1.281231 0.689894-94.022715-54.205967-1.084119-2.069682 0.197113-82.688739 1.084119-0.591338 94.022714 54.205967zM524.368816 819.594225l1.182676 2.168239-0.098556 49.278152-1.281232 0.689894-42.871993-24.737632-1.084119-2.069683 0.197113-49.278152 1.084119-0.78845 42.871992 24.737632zM524.960154 662.002695l1.281232 1.971126-0.197113 49.475265-1.281232 0.492781-42.871992-24.737632-1.084119-1.87257 0.197112-49.475265 1.08412-0.591337 42.871992 24.737632z" fill="#5CA8EA" /></svg>