<?xml version="1.0" standalone="no"?><!DOCTYPE svg PUBLIC "-//W3C//DTD SVG 1.1//EN" "http://www.w3.org/Graphics/SVG/1.1/DTD/svg11.dtd"><svg class="icon" width="48px" height="42.45px" viewBox="0 0 1158 1024" version="1.1" xmlns="http://www.w3.org/2000/svg"><path d="M733.669627 1024V697.40675l424.809947-237.357016v326.706927L733.669627 1024z" fill="#99C9F2" /><path d="M733.669627 1024L0 597.712256V271.005329l733.669627 426.401421v326.59325z" fill="#B8D9F6" /><path d="M510.635879 897.477798L144.369449 684.674956v-19.325045l366.26643 212.916519v19.211368z" fill="#FFFFFF" /><path d="M733.669627 697.40675L0 271.005329 424.809947 33.648313l733.669627 426.401421-424.809947 237.357016z" fill="#E0EFFB" /><path d="M1013.428064 371.950266L632.042629 150.280639 700.134991 0l381.385435 221.669627-68.092362 150.280639z" fill="#B8D9F6" /><path d="M577.023091 779.367673L196.092362 557.9254V388.319716l380.930729 221.442273v169.605684z" fill="#E0EFFB" /><path d="M524.390764 653.527531l-27.509769-15.232682v-36.603908l27.509769 15.232682v36.603908z" fill="#5CA8EA" /><path d="M577.023091 609.761989L196.092362 388.319716l220.646537-123.225577L797.669627 486.536412 577.023091 609.761989z" fill="#EBF5FC" /><path d="M991.715808 386.046181L610.78508 164.717584l18.756661-12.16341L1010.472469 373.996448l-18.756661 12.049733z" fill="#FFFFFF" /><path d="M563.609236 558.039076L287.488455 397.527531l29.55595-13.641208 274.642984 159.602132-28.078153 14.550621z" fill="#5CA8EA" /><path d="M406.849023 947.268206L38.309059 733.101243l105.605683-48.312611 366.721137 213.030196-103.786856 49.449378z" fill="#B8D9F6" /></svg>