<?xml version="1.0" standalone="no"?><!DOCTYPE svg PUBLIC "-//W3C//DTD SVG 1.1//EN" "http://www.w3.org/Graphics/SVG/1.1/DTD/svg11.dtd"><svg class="icon" width="48px" height="48.00px" viewBox="0 0 1024 1024" version="1.1" xmlns="http://www.w3.org/2000/svg"><path d="M129.678728 627.010697l186.112547-108.105293 53.433541 30.860013L183.112269 657.965957 129.678728 627.010697zM419.515208 794.454841l186.112548-108.200539 53.624035 30.95526-186.112548 108.105292-53.624035-30.860013z" fill="#E0EFFB" /><path d="M708.399219 961.232257l186.112547-108.200539-0.190494 62.862989-186.112547 108.105293 0.190494-62.767743z" fill="#99C9F2" /><path d="M656.870617 931.419961l186.112547-108.105293 51.528602 29.71705-186.112547 108.200539-51.528602-29.812296zM184.350479 108.200539L370.463027 0l236.68868 7.048275L421.039159 115.248814l-236.68868-7.048275z" fill="#E0EFFB" /><path d="M421.039159 115.248814L607.151707 7.048275l-1.523951 679.206027-186.112548 108.200539 1.523951-679.206027zM657.727839 504.713608L843.840387 396.513069l-0.857223 426.801599-186.112547 108.105293 0.857222-426.706353z" fill="#99C9F2" /><path d="M474.186959 307.647661l186.112548-108.105293L843.840387 396.513069 657.727839 504.713608 474.186959 307.647661z" fill="#E0EFFB" /><path d="M421.039159 115.248814l-1.523951 679.206027 53.624035 30.860013 1.047716-517.667193 183.54088 197.065947-0.857222 426.706353 51.528602 29.812296-0.190494 62.767743L129.488234 689.873686l0.190494-62.862989 53.433541 30.95526 1.23821-549.765418 236.68868 7.048275z" fill="#B8D9F6" /><path d="M278.454469 639.202307l1.619199 2.571668-0.190494 62.482001-1.619199 0.571482-54.195516-33.241187-1.333458-2.381174 0.190494-62.482001 1.333458-0.761976 54.195516 33.241187zM371.796484 679.968003l1.619198 2.571668-0.190494 62.482001-1.619198 0.571482-54.195517-33.241187-1.333457-2.381174 0.190494-62.482001 1.333457-0.761976 54.195517 33.241187zM278.454469 538.716771l1.619199 2.47642-0.190494 62.482002-1.619199 0.666729-54.195516-33.241187-1.333458-2.381174 0.190494-62.482002 1.333458-0.761975 54.195516 33.241187zM371.796484 579.482467l1.619198 2.476421-0.190494 62.577248-1.619198 0.571482-54.195517-33.241187-1.333457-2.381174 0.190494-62.482001 1.333457-0.761976 54.195517 33.241187zM278.454469 438.231234l1.619199 2.476421-0.190494 62.482002-1.619199 0.571481-54.195516-33.145939-1.333458-2.381174 0.190494-62.577249 1.333458-0.666729 54.195516 33.241187zM371.796484 478.901684l1.619198 2.571667-0.190494 62.482002-1.619198 0.571482-54.195517-33.14594-1.333457-2.381174 0.190494-62.482002 1.333457-0.761975 54.195517 33.14594zM278.454469 337.650451l1.619199 2.571668-0.190494 62.482002-1.619199 0.571481-54.195516-33.14594-1.333458-2.47642 0.190494-62.482002 1.333458-0.666729 54.195516 33.14594zM371.796484 378.416147l1.619198 2.571668-0.190494 62.482002-1.619198 0.571481-54.195517-33.241186-1.333457-2.381174 0.190494-62.482002 1.333457-0.761976 54.195517 33.241187zM278.454469 237.164915l1.619199 2.476421-0.190494 62.577248-1.619199 0.571482-54.195516-33.241187-1.333458-2.381174 0.190494-62.482001 1.333458-0.761976 54.195516 33.241187zM371.796484 277.930611l1.619198 2.571668-0.190494 62.482002-1.619198 0.571481-54.195517-33.241187-1.333457-2.381173 0.190494-62.482002 1.333457-0.761976 54.195517 33.241187zM553.146684 804.170031l1.23821 1.904939-0.190493 47.432983-1.142964 0.476235-41.146684-25.240443-1.047716-1.809692 0.095247-47.432983 1.047716-0.571482 41.146684 25.240443zM624.010418 835.030044l1.142963 2.000186-0.095247 47.432983-1.23821 0.380988-41.051437-25.145196-1.047717-1.809692 0.095247-47.432983 1.047717-0.571482 41.146684 25.145196zM553.146684 702.446284l1.23821 1.904939-0.190493 47.432983-1.142964 0.476235-41.146684-25.240443-1.047716-1.809692 0.095247-47.432983 1.047716-0.571482 41.146684 25.240443zM624.010418 733.401544l1.142963 1.904939-0.095247 47.432983-1.23821 0.380988-41.051437-25.145196-1.047717-1.809692 0.095247-47.432983 1.047717-0.571482L624.010418 733.401544zM553.146684 600.722537l1.23821 1.90494-0.190493 47.432982-1.142964 0.476235-41.146684-25.240442-1.047716-1.809693 0.095247-47.432983 1.047716-0.571481 41.146684 25.240442zM624.010418 631.677797l1.142963 1.904939-0.095247 47.432983-1.23821 0.476235-41.051437-25.240443-1.047717-1.809692 0.095247-47.432983 1.047717-0.571481 41.146684 25.240442zM553.146684 498.998791l1.23821 1.904939-0.190493 47.432983-1.142964 0.476235-41.146684-25.240443-1.047716-1.809692 0.095247-47.432983 1.047716-0.571482 41.146684 25.240443zM624.010418 529.954051l1.142963 1.904939-0.095247 47.432983-1.23821 0.476235-41.051437-25.240443-1.047717-1.809692 0.095247-47.432983 1.047717-0.571482 41.146684 25.240443z" fill="#5CA8EA" /></svg>