<?xml version="1.0" standalone="no"?><!DOCTYPE svg PUBLIC "-//W3C//DTD SVG 1.1//EN" "http://www.w3.org/Graphics/SVG/1.1/DTD/svg11.dtd"><svg class="icon" width="48px" height="45.05px" viewBox="0 0 1091 1024" version="1.1" xmlns="http://www.w3.org/2000/svg"><path d="M750.234006 1024l-2.159686-377.122426 340.921964-197.457066 2.159687 377.122427-340.921965 197.457065z" fill="#99C9F2" /><path d="M750.234006 1024L2.159687 594.736567 0 217.716983 748.07432 646.877574l2.159686 377.122426z" fill="#B8D9F6" /><path d="M748.07432 646.877574L0 217.716983l340.921964-197.457065 748.07432 429.16059-340.921964 197.457066z" fill="#E0EFFB" /><path d="M745.091895 598.644572v-69.315658l276.234207-158.994074v67.361655L745.091895 598.644572z" fill="#99C9F2" /><path d="M745.091895 598.644572L97.802953 225.327307v-66.333232l647.288942 370.334839v69.315658z" fill="#B8D9F6" /><path d="M745.091895 529.328914L97.802953 158.994075 372.186 0l649.140102 370.33484-276.234207 158.994074z" fill="#E0EFFB" /><path d="M1003.534398 543.521141l42.57668-25.093502v56.563222l-42.57668 25.093502v-56.563222zM942.960329 578.076127l42.57668-25.093502v56.563222l-42.57668 25.093502v-56.563222zM853.693281 629.60008l42.473838-24.990659v56.563221l-42.473838 24.99066v-56.563222zM793.01637 664.155067l42.57668-24.99066v56.563222l-42.57668 24.99066v-56.563222zM1003.534398 623.635231l42.57668-24.990659v56.563222l-42.57668 24.990659v-56.563222zM942.960329 658.190218l42.57668-24.99066v56.563222l-42.57668 24.99066V658.190218zM853.693281 709.714171l42.473838-24.99066v56.563222l-42.473838 25.093502v-56.666064zM793.01637 744.269157l42.57668-24.990659v56.563221l-42.57668 25.093502v-56.666064zM1003.534398 703.749322l42.57668-24.99066v56.563222l-42.57668 25.093502v-56.666064zM942.960329 738.304309l42.57668-24.99066v56.563222l-42.57668 25.093502v-56.666064zM853.693281 789.931104l42.473838-25.093502v56.666064l-42.473838 24.99066v-56.563222zM793.01637 824.48609l42.57668-25.093502v56.563222l-42.57668 25.093502v-56.563222zM1003.534398 783.966255l42.57668-25.093502v56.666064l-42.57668 24.99066v-56.563222zM942.960329 818.521241l42.57668-25.093502v56.666064l-42.57668 24.99066v-56.563222zM853.693281 870.045194l42.473838-24.99066v56.563222l-42.473838 24.99066v-56.563222zM793.01637 904.600181l42.57668-24.99066v56.563222l-42.57668 24.99066v-56.563222zM477.702119 604.712263l64.893442 37.640253v-56.563222l-64.893442-37.640253v56.563222zM407.563724 509.068997l-64.893442-37.537411v56.563222L407.563724 565.632219v-56.563222zM207.638445 451.477353l64.893442 37.53741v-56.563221l-64.893442-37.537411v56.563222zM137.50005 355.834087l-64.893442-37.640254v56.563222l64.893442 37.640253v-56.563221zM612.733956 624.869338v56.563222l64.893442 37.537411v-56.563222l-64.893442-37.537411zM477.702119 707.040273l64.893442 37.537411v-56.563222l-64.893442-37.640253v56.666064zM407.563724 611.397007l-64.893442-37.640253v56.563222l64.893442 37.640253v-56.563222zM207.638445 553.702521l64.893442 37.537411v-56.563222l-64.893442-37.537411v56.563222zM137.50005 458.059255l-64.893442-37.640253v56.666064l64.893442 37.537411v-56.563222zM612.733956 727.094506v56.563222l64.893442 37.537411v-56.563222l-64.893442-37.537411zM477.702119 809.265441l64.893442 37.537411v-56.563222l-64.893442-37.53741v56.563221zM407.563724 713.622175l-64.893442-37.640253v56.666064l64.893442 37.537411v-56.563222zM207.638445 655.927689l64.893442 37.640253v-56.563222l-64.893442-37.640253v56.563222zM137.50005 560.284423l-64.893442-37.537411v56.563222l64.893442 37.537411v-56.563222zM612.733956 829.319675v56.563221l64.893442 37.640254v-56.563222l-64.893442-37.640253z" fill="#5CA8EA" /></svg>