<?xml version="1.0" standalone="no"?><!DOCTYPE svg PUBLIC "-//W3C//DTD SVG 1.1//EN" "http://www.w3.org/Graphics/SVG/1.1/DTD/svg11.dtd"><svg class="icon" width="48px" height="48.00px" viewBox="0 0 1024 1024" version="1.1" xmlns="http://www.w3.org/2000/svg"><path d="M695.05723486 98.14140246s-49.01800811-43.67630209-146.11137032 35.66374308-315.94619962 220.89525442-362.45046369 304.32013361-68.02819715 127.88672626-7.69834101 225.60852442 22.15236905 101.0210872 88.60947617 150.82464031c66.29999813 49.80355309 217.59596542 118.30307723 310.44738461 80.28269918 92.85141918-38.17748707 169.99193834-58.60165712 211.78293243-173.60544537s91.90876518-310.13316661 87.35260417-395.60046276S811.0036771 84.31581044 695.05723486 98.14140246z" fill="#F39E63" /><path d="M684.37382283 100.49803747s-53.73127811-32.99289006-150.8246403 46.34715509-315.94619962 220.89525442-362.45046371 304.3201336c-46.50426407 83.42487916-68.02819715 127.88672626-7.69834102 225.60852445s22.15236905 101.0210872 88.60947616 150.8246403c66.29999813 49.80355309 217.59596542 118.30307723 310.44738465 80.28269916s169.99193834-58.60165712 211.7829324-173.60544534c41.79099409-115.00378823 91.90876518-310.13316661 87.35260417-395.60046278s-61.27251012-252.00283649-177.21895235-238.17724448z" fill="#9E592A" /><path d="M275.89042203 832.94019691c-66.29999813-49.80355309-28.12251105-53.1028421-88.6094762-150.82464029s-38.96303209-142.18364529 7.69834104-225.60852444 265.35710154-224.98008846 362.4504637-304.3201336c49.64644411-40.53412209 82.32511617-63.47203613 106.67701123-62.05805513-19.63862503-8.16966803-62.68649111-2.19952601-132.91421428 54.98815011-97.2504712 79.34004516-313.58956463 222.62345345-360.0938287 306.0483326-46.50426407 83.42487916-68.02819715 127.88672626-7.69834102 225.60852445s22.15236905 101.0210872 88.60947616 150.8246403c42.89075709 32.20734506 121.13103925 72.11303115 196.22914141 86.09573216-67.39976113-16.96777203-134.01397727-52.00307911-172.34857334-80.75402616z" fill="#E0935F" /><path d="M876.83234822 325.7923439C872.2761872 240.32504776 811.0036771 84.31581044 695.05723486 98.14140246c0 0-26.70853004-23.72345905-79.96848117-4.24194301 27.02274804-0.15710901 40.69123108 11.94028402 40.6912311 11.94028403 115.94644224-13.82559203 177.21895234 142.18364529 181.77511334 227.65094146s-45.56161008 280.59667456-87.35260418 395.60046278c-41.79099409 115.00378823-118.93151324 135.42795827-211.7829324 173.60544533-2.35663501 0.94265401-4.87037901 1.885308-7.38412301 2.67085302 16.49644503-1.25687199 32.20734506-4.556161 46.66137309-10.52630301 92.85141918-38.17748707 169.99193834-58.60165712 211.78293241-173.60544537 41.79099409-114.84667922 91.90876518-310.13316661 87.35260418-395.44335379z" fill="#8C5129" /><path d="M672.43353882 130.66296553c-26.08009405 0.94265401-32.67867206 20.89549705-63.31492712 42.26232109-30.47914606 21.36682405-253.7310355 161.97937933-320.65946964 231.57866645s-108.71942821 142.34075428-69.28506914 207.38388041 56.71634912 125.05876425 88.60947617 171.87724636 141.39810029 113.27558924 245.87558549 54.20260508 155.69501932-89.86634818 186.01705637-141.71231828c30.16492806-51.84597011 56.08791312-243.04762348 54.20260509-330.24311863s-57.65900311-237.70591747-121.44525722-235.34928248z" fill="#724120" /><path d="M670.23401281 142.76035857c-11.78317502-1.57108999-115.31800624 22.46658704-209.11207941 121.75947523s-186.95971036 140.92677328-200.15686639 243.67605948c-13.04004703 102.59217721-40.69123108 194.81516039 86.40995017 270.85591655 127.10118125 76.04075616 225.92274246 30.63625506 303.53458859-60.17274715 77.61184614-90.80900218 129.77203426-359.93671972 119.24573124-431.73553285-10.36919402-71.95592213-13.66848304-132.59999627-99.9213242-144.38317126z" fill="#E2D9A6" /><path d="M323.49444912 714.16579269c127.10118125 76.04075616 225.92274246 30.63625506 303.5345886-60.17274714s129.77203426-359.93671972 119.24573125-431.73553284c-2.19952601-15.39668203-4.24194301-30.32203706-6.75568703-44.46184708-13.66848304-17.91042605-34.87819807-30.47914606-69.28506913-35.19241608-11.78317502-1.57108999-115.31800624 22.46658704-209.11207941 121.75947525s-186.95971036 140.92677328-200.15686639 243.67605948c-6.28436002 49.64644411-16.02511803 96.93625319-9.89786703 141.08388227 15.23957303 22.78080506 38.17748707 44.46184709 72.42724914 65.04312614z" fill="#F9F3C5" /><path d="M627.81458272 185.80822463c6.441469-5.49881501-262.21492153 177.21895234-296.77890159 301.4921716s-2.042417 128.98648925 24.50900405 84.52464217 46.97559108-191.04454438 272.26989754-386.01681377z" fill="#FFFFFF" /></svg>