<?xml version="1.0" standalone="no"?><!DOCTYPE svg PUBLIC "-//W3C//DTD SVG 1.1//EN" "http://www.w3.org/Graphics/SVG/1.1/DTD/svg11.dtd"><svg class="icon" width="48px" height="25.39px" viewBox="0 0 1936 1024" version="1.1" xmlns="http://www.w3.org/2000/svg"><path d="M636.934242 740.494144C84.792533 332.192192 60.11452 619.948586 56.039957 655.235838c-7.687854 66.269306 9.763575 179.203888 207.572071 169.132799 152.834547-7.841612 373.322214-83.874492 373.322214-83.874493z" fill="#2E3949" /><path d="M648.235389 748.566392c-102.709736-75.417853-209.109642-160.06113-328.732658-198.269768a333.268492 333.268492 0 0 0-90.409169-15.375709 204.035658 204.035658 0 0 0-87.795298 16.682645c-55.660066 24.062985-99.942108 77.416695-121.314344 137.305081a125.081393 125.081393 0 0 0-5.612134 46.127127 110.858862 110.858862 0 0 0 11.839296 44.589556 155.602175 155.602175 0 0 0 65.116127 64.96237 162.136851 162.136851 0 0 0 43.051986 15.375709 172.207941 172.207941 0 0 0 22.525413 2.998263 199.19231 199.19231 0 0 0 23.063564 0 769.707991 769.707991 0 0 0 94.56061-11.147389c15.375709-2.844506 31.289568-6.304041 46.895912-9.840453s30.751418-7.687854 46.588398-11.839296c30.751418-8.226004 62.117864-16.605766 93.253675-25.446799l46.742156-13.838138 46.742155-14.299409L602.031383 761.097594l23.678592-7.687854 11.839296-3.613292 5.919648-1.768206 2.998263-0.922543 1.537571-0.461271h0.461271a1.153178 1.153178 0 0 0-0.230635 1.921964z m4.535834 0.615028a4.920227 4.920227 0 0 1-1.537571 2.075721l-0.922543 0.615028-1.306935 0.922543-2.460113 1.845085-5.073984 3.69017-10.378604 7.149704c-6.84219 4.689591-13.991895 8.99479-21.064721 13.453746-14.222531 8.687276-28.598819 17.067037-43.3595 24.83177s-29.59824 15.375709-44.743313 22.217899-30.751418 13.530624-46.127127 19.911543a736.112067 736.112067 0 0 1-95.329395 31.520204c-8.149126 2.229478-16.37513 3.843927-24.601135 5.765891s-16.528887 3.15202-24.83177 4.766469c-16.605766 2.767628-33.365288 5.30462-50.201689 6.919069a451.892087 451.892087 0 0 1-101.940951 0.768786l-25.523677-3.843927a210.877849 210.877849 0 0 1-25.831191-6.304041 188.506192 188.506192 0 0 1-47.434062-23.063563 193.272662 193.272662 0 0 1-39.13118-34.134074 172.438576 172.438576 0 0 1-28.291304-43.051986A137.689474 137.689474 0 0 1 3.916304 761.097594 141.149008 141.149008 0 0 1 0.226134 735.42016 161.444944 161.444944 0 0 1 5.915146 684.219049a332.807221 332.807221 0 0 1 44.743313-91.024197A238.323489 238.323489 0 0 1 126.537583 522.774105a216.10559 216.10559 0 0 1 102.325343-27.98379 299.826325 299.826325 0 0 1 103.171007 16.452009 602.266521 602.266521 0 0 1 176.128747 98.942687 926.617102 926.617102 0 0 1 75.494731 65.116127c11.839296 11.60866 23.832349 23.063563 35.056616 35.210374 5.765891 6.150284 11.224268 11.531782 17.605187 18.912122z"  /><path d="M956.825868 735.266403C801.761843-267.306701 313.19869 73.265253 313.19869 73.265253a230.635635 230.635635 0 0 0-56.428852 69.190691c-36.132916 65.654277-82.95195 160.676159 24.216742 309.05175 174.821811 242.167416 675.839288 283.758709 675.839288 283.758709z" fill="#FFFFFF" /><path d="M954.519511 733.190683c-3.228899-12.223689-6.84219-23.063563-9.917332-33.442167s-5.842769-22.141021-8.841033-33.442167c-5.996527-23.063563-12.069932-46.127127-18.527729-69.190691-12.454324-46.127127-26.369341-91.101076-41.360657-135.76751s-32.135232-88.410327-51.277989-130.693526a843.74203 843.74203 0 0 0-66.192428-121.391223A501.94002 501.94002 0 0 0 670.607045 107.629963a324.273702 324.273702 0 0 0-53.814981-38.439273 274.456405 274.456405 0 0 0-195.194626-28.445061 324.811852 324.811852 0 0 0-65.961791 21.1416 284.450616 284.450616 0 0 0-30.751418 15.375709c-2.306356 1.460692-5.150863 3.075142-6.534677 4.151441s-4.305199 3.459535-6.380919 5.30462c-4.22832 3.767049-8.302883 7.687854-12.223688 11.916174a248.163943 248.163943 0 0 0-39.284937 56.736366 298.134997 298.134997 0 0 0-26.523098 64.116707 192.196362 192.196362 0 0 0-6.380919 67.268726 214.49114 214.49114 0 0 0 16.452009 65.269885A327.04133 327.04133 0 0 0 276.988895 411.915244c6.457798 9.456061 13.376867 18.681486 20.449693 27.676276s15.375709 16.682644 23.063564 24.447377a560.213957 560.213957 0 0 0 108.321869 81.3375c19.757786 11.378025 39.976843 22.141021 60.810929 31.827718s41.975686 18.835243 63.347921 27.676276c42.744471 17.605187 86.488363 33.595924 130.693527 48.664119 22.217899 7.687854 44.666435 14.376288 67.191848 21.449114 11.224268 3.459535 22.525414 6.765312 33.903438 9.994211s23.063563 6.765312 34.057196 9.917332c23.063563 6.304041 45.665856 12.838717 68.729419 18.912122l34.595345 9.225426 17.374551 4.612712 8.764154 2.306357 4.305199 1.153178 2.229478 0.53815h0.461271a1.460692 1.460692 0 0 0-0.768786 1.537571z m4.535835 4.151441a7.687854 7.687854 0 0 1-2.998264 1.0763h-35.90228c-12.069932 0-24.139863 0-36.286673-0.53815s-24.139863-1.153178-36.209795-1.921964-24.216742-1.768207-36.209795-3.15202-24.062985-2.613871-36.132916-4.151442-23.986106-3.613292-35.979159-5.612133c-23.986106-3.767049-47.741576-8.764154-71.497046-14.29941a897.941404 897.941404 0 0 1-139.995831-43.974527 739.955995 739.955995 0 0 1-130.693526-70.190112 567.748054 567.748054 0 0 1-59.427115-46.127127c-9.456061-8.302883-18.450851-17.143916-27.215005-26.215584s-16.836401-18.912122-24.524256-28.983211a375.705449 375.705449 0 0 1-21.372235-31.366446c-6.765312-10.455482-13.299988-20.987843-19.296515-31.904596A371.861522 371.861522 0 0 1 215.486059 362.636096a262.540231 262.540231 0 0 1-12.531202-74.418431 239.169153 239.169153 0 0 1 11.07051-74.264675 379.933769 379.933769 0 0 1 30.059511-67.114969 289.5246 289.5246 0 0 1 41.898807-60.657172c4.22832-4.535834 8.45664-9.071668 13.069353-13.376867 2.306356-2.152599 4.612713-4.305199 7.226583-6.380919a81.260622 81.260622 0 0 1 8.302883-5.689013C324.884229 53.814981 335.493468 48.049091 346.179586 42.513835A428.290374 428.290374 0 0 1 415.370276 15.375709 328.425144 328.425144 0 0 1 564.514653 4.22832 292.138471 292.138471 0 0 1 638.318056 26.830612a323.504917 323.504917 0 0 1 65.808035 39.823086A445.89556 445.89556 0 0 1 804.375713 179.12701a755.716096 755.716096 0 0 1 67.038091 131.692947 1069.226802 1069.226802 0 0 1 44.743313 138.842652 1425.251344 1425.251344 0 0 1 28.598819 141.840915c1.921964 11.839296 3.305777 23.832349 4.920227 35.748524s3.15202 23.75547 4.22832 35.748523 2.613871 23.063563 3.536413 37.132337 1.0763 25.90807 1.61445 37.209216z"  /><path d="M878.640388 670.611547c-276.762762-507.398396-553.525523-553.525523-553.525524-553.525523s-17.220794 33.28841-38.439272 69.19069c-29.982633 50.586083-57.04388 121.237465 31.827718 235.478983 144.916057 186.661107 560.137078 248.85585 560.137078 248.85585z" fill="#F2F2F2" /><path d="M956.825868 735.266403a813.682519 813.682519 0 0 1-119.39238-30.751418c-38.900544-12.761838-76.878545-27.676276-114.395275-44.205163a1227.750362 1227.750362 0 0 1-214.106748-121.468101 900.632153 900.632153 0 0 1-96.559452-79.415537 617.565351 617.565351 0 0 1-83.4901-96.021302 353.641306 353.641306 0 0 1-54.96816-117.85481c-10.147968-42.590714-8.072247-89.486626 11.685539-126.311449a222.94778 222.94778 0 0 0 30.751418 110.397591 434.748171 434.748171 0 0 0 69.190691 87.949055c52.892439 53.814981 114.549032 100.710894 177.589438 146.069235s128.92532 89.179112 195.117747 133.307397 132.538611 88.717841 198.577282 138.304502zM910.852498 661.693636c-40.361236-63.194164-77.339816-124.850757-115.932846-184.508508A1888.598334 1888.598334 0 0 0 673.682187 306.284123a922.542539 922.542539 0 0 0-68.114391-76.263517 651.084397 651.084397 0 0 0-76.186638-66.499941 554.063673 554.063673 0 0 0-87.257148-53.199953 678.530037 678.530037 0 0 0-101.402801-37.055459 307.51418 307.51418 0 0 1 114.010882-6.534676 382.317004 382.317004 0 0 1 111.781404 34.441588 461.271269 461.271269 0 0 1 98.020145 64.193585c15.375709 12.300567 28.752576 26.061827 42.667592 39.515572l19.604029 21.295357c6.457798 7.149705 12.377446 14.683802 18.52773 22.064142a768.785449 768.785449 0 0 1 113.857125 195.809654 803.688308 803.688308 0 0 1 34.672223 106.707421 559.983321 559.983321 0 0 1 16.990159 110.93574z" fill="#2E3949" /><path d="M1121.499711 837.976139c226.176679-352.565007 510.39666-498.864878 510.396659-498.864878s15.83698 28.060669 35.364131 58.197059c27.522519 42.590714 52.354289 147.145535-29.290726 243.320595C1504.893014 797.23051 1121.499711 837.976139 1121.499711 837.976139z" fill="#F2F2F2" /><path d="M1050.463935 874.800962c1.306935-9.456061 2.075721-19.911543 3.536413-30.751418s3.459535-21.064721 5.073984-31.212689c3.305777-19.988422 7.687854-39.823086 11.685539-59.734629 8.687276-39.669329 18.758365-79.184901 30.751418-118.085445a931.383571 931.383571 0 0 1 99.942109-225.023501 444.819261 444.819261 0 0 1 80.722472-96.482574 305.822852 305.822852 0 0 1 51.893017-37.593608 250.700935 250.700935 0 0 1 59.350237-25.062406 241.706145 241.706145 0 0 1 126.465206-0.384393 290.677778 290.677778 0 0 1 58.427695 22.525414 271.227506 271.227506 0 0 1 26.830612 15.990737 108.091234 108.091234 0 0 1 12.761838 9.763575c3.997684 3.613292 7.687854 7.687854 11.301146 11.070511a246.395736 246.395736 0 0 1 36.286674 50.586082 293.368527 293.368527 0 0 1 24.29362 57.120759 193.34954 193.34954 0 0 1-3.305778 124.927636c-14.837559 40.361236-42.206321 74.110917-72.112075 103.5554a507.398396 507.398396 0 0 1-99.942108 75.110338c-17.758944 10.532361-35.748523 20.834086-53.814982 30.13639s-36.671066 18.450851-55.42943 26.90749a1144.183384 1144.183384 0 0 1-114.625911 43.128864q-58.197058 18.912122-117.777931 32.75026c-19.757786 4.76647-39.746208 8.764154-59.734629 12.531203-10.071089 1.768207-20.0653 3.613292-30.13639 5.073984l-15.375709 2.229478-7.687854 0.922542-3.767049 0.461272h-3.382656a4.535834 4.535834 0 0 1-2.229478-0.461272z m3.152021-3.305777a1.0763 1.0763 0 0 0-0.768786-0.999421h0.384393l1.768207-0.691907 3.459534-1.537571 7.072826-2.998263 13.991895-5.84277 28.137548-11.60866 56.044459-23.063563 111.550769-45.512099q55.352552-23.063563 110.166954-46.819034c9.071668-3.997684 18.220215-7.687854 27.291884-11.916174s18.143337-7.687854 27.138126-12.14681c18.066458-8.149126 35.748523-16.91328 53.35371-25.831191s34.749102-18.681486 51.354868-28.906333c8.45664-4.997105 16.528887-10.378604 24.83177-15.375709 4.074563-2.613871 7.687854-5.458377 11.916175-8.226005s8.072247-5.458377 11.839296-8.45664 7.687854-5.689012 11.531781-8.841032 7.687854-6.457798 10.686118-9.840454a282.451774 282.451774 0 0 0 19.834665-20.910964 209.032764 209.032764 0 0 0 31.13581-47.895334 164.443208 164.443208 0 0 0 8.841033-112.473311 247.087643 247.087643 0 0 0-22.064142-54.737524 203.036237 203.036237 0 0 0-34.057196-47.510941 142.302187 142.302187 0 0 0-10.609239-9.917332 92.715525 92.715525 0 0 0-11.454903-8.226004 218.488825 218.488825 0 0 0-25.831191-13.838138 232.711355 232.711355 0 0 0-55.583188-17.605187 208.725249 208.725249 0 0 0-112.55019 10.071089 244.550651 244.550651 0 0 0-49.740418 26.215584 350.950557 350.950557 0 0 0-44.051407 36.056038 559.829564 559.829564 0 0 0-72.88086 89.947897c-42.975107 65.50052-75.648488 138.381381-104.6317 212.95357-14.222531 37.362973-27.906912 75.110338-40.361236 113.318975-6.304041 19.065879-12.454324 38.439272-18.527729 57.505151-3.075142 9.53294-6.150284 19.680907-8.99479 27.753155s-7.072826 17.45143-10.378603 27.906912z"  /><path d="M1076.987033 851.045492c58.043301-31.212689 115.317817-63.962949 170.67037-98.78893q41.821928-25.90807 82.106286-53.814982c26.984369-18.220215 53.35371-37.209216 78.877387-56.967001a772.091226 772.091226 0 0 0 71.958318-63.655436c22.448535-22.294778 44.820192-43.820771 65.808034-65.808034a362.559218 362.559218 0 0 0 54.583767-70.190112 158.677317 158.677317 0 0 0 21.910386-87.334027l6.457797-2.306356a112.242676 112.242676 0 0 1 20.065301 50.20169 154.525875 154.525875 0 0 1-2.460114 56.044459 261.925202 261.925202 0 0 1-47.664698 98.097023 363.789274 363.789274 0 0 1-74.187795 73.880282c-27.599398 20.526571-56.275095 38.439272-84.5664 56.967002s-57.58203 34.518467-86.872756 50.662961-59.350237 30.751418-89.486626 44.743313a1875.836495 1875.836495 0 0 1-184.508508 74.725946z" fill="#2E3949" /><path d="M1069.837329 847.4322a316.508969 316.508969 0 0 1 3.382656-56.121337 488.101881 488.101881 0 0 1 9.994211-52.123654 595.193695 595.193695 0 0 1 33.211531-96.328817 663.154328 663.154328 0 0 1 106.784299-167.057078A592.502945 592.502945 0 0 1 1381.50295 345.953452a395.540113 395.540113 0 0 1 104.401064-40.1306 227.637371 227.637371 0 0 1 60.580293-5.073984 141.149008 141.149008 0 0 1 31.289568 5.381498 80.876229 80.876229 0 0 1 27.98379 14.837559l-1.537571 12.223689a97.558873 97.558873 0 0 0-43.359499 7.687854 222.94778 222.94778 0 0 0-40.514993 21.525993 555.601244 555.601244 0 0 0-73.572768 57.658908 1544.797481 1544.797481 0 0 0-130.693526 136.382539c-41.821928 47.357184-81.491258 96.713209-120.699315 146.069235-19.680907 24.83177-38.977422 49.971054-58.12018 75.264096s-38.439272 50.355447-57.120759 75.956002z" fill="#2E3949" /><path d="M79.103521 616.796566a30.751418 30.751418 0 0 1 10.609239-14.683802 69.19069 69.19069 0 0 1 16.144494-8.917912c2.844506-1.153178 5.765891-2.460113 8.687276-3.382656l8.687276-2.07572 9.071668-2.075721c2.998263-0.461271 5.996527-0.691907 9.071668-1.0763 5.996527-0.461271 12.14681-1.306935 18.220215-1.383813h27.291884l8.917911 0.922542 17.989579 1.845085c12.069932 0.922543 23.678592 3.536413 35.517888 5.612134l17.682065 3.305777c5.765891 1.306935 11.531782 2.921385 17.297673 4.305199l34.595345 9.071668 33.980317 10.916754c11.224268 3.843927 22.602292 7.687854 33.672803 11.60866l33.057774 12.992474c10.916753 4.458956 21.987264 8.610397 32.827139 13.530624s21.67975 9.994211 32.135231 15.068195a1128.730796 1128.730796 0 0 1 124.773879 67.422483c-45.665856-13.146231-89.486626-30.059511-133.845547-45.204584-11.07051-3.920806-22.064142-7.687854-33.057774-11.916174l-33.134653-11.454904c-21.987264-7.687854-43.897649-15.83698-66.115549-23.063563l-33.057774-11.147389L276.988895 627.482683c-5.535255-1.691328-11.07051-3.536413-16.605765-5.073984l-16.759523-4.305198c-11.224268-2.690749-22.294778-6.380919-33.595924-8.379761s-22.525414-5.227741-33.82656-6.457798l-16.990158-2.536992c-5.689012-0.768785-11.301146-0.615028-16.990159-1.153178l-8.610397-0.53815h-16.91328l-8.302883 1.460692a42.513835 42.513835 0 0 0-29.290725 16.298252z" fill="#F2F2F2" /></svg>