<?xml version="1.0" standalone="no"?><!DOCTYPE svg PUBLIC "-//W3C//DTD SVG 1.1//EN" "http://www.w3.org/Graphics/SVG/1.1/DTD/svg11.dtd"><svg class="icon" width="48px" height="48.00px" viewBox="0 0 1024 1024" version="1.1" xmlns="http://www.w3.org/2000/svg"><path d="M914.6 930.4h-801c-8.6 0-15.6-7-15.6-15.6v-801c0-8.6 7-15.6 15.6-15.6h801c8.6 0 15.6 7 15.6 15.6v801c0 8.6-7 15.6-15.6 15.6z" fill="#3C3C3C" /><path d="M914.6 936.4h-801c-11.9 0-21.6-9.7-21.6-21.6v-801c0-11.9 9.7-21.6 21.6-21.6h801c11.9 0 21.6 9.7 21.6 21.6v801c0 11.9-9.7 21.6-21.6 21.6z m-801-832.2c-5.3 0-9.6 4.3-9.6 9.6v801c0 5.3 4.3 9.6 9.6 9.6h801c5.3 0 9.6-4.3 9.6-9.6v-801c0-5.3-4.3-9.6-9.6-9.6h-801z" fill="#0E040E" /><path d="M147 141.6h209.6v741.2H147z" fill="#101010" /><path d="M762.9 144.5h122.3v741.2H762.9z" fill="#242424" /><path d="M264.4 143.7h499.4v741.2H264.4z" fill="#1A1A1A" /><path d="M872.9 893.1H155.3c-11 0-20-9-20-20V155.5c0-11 9-20 20-20h717.6c11 0 20 9 20 20v717.6c0 11.1-9 20-20 20zM155.3 147.6c-4.4 0-8 3.6-8 8v717.6c0 4.4 3.6 8 8 8h717.6c4.4 0 8-3.6 8-8V155.5c0-4.4-3.6-8-8-8H155.3z" fill="#0E040E" /><path d="M332.1 348H196.8c-8.6 0-15.6-7-15.6-15.6V197.1c0-8.6 7-15.6 15.6-15.6H332c8.6 0 15.6 7 15.6 15.6v135.2c0.1 8.7-6.9 15.7-15.5 15.7z" fill="#FFF0E2" /><path d="M332.1 354H196.8c-11.9 0-21.6-9.7-21.6-21.6V197.1c0-11.9 9.7-21.6 21.6-21.6H332c11.9 0 21.6 9.7 21.6 21.6v135.2c0.1 12-9.6 21.7-21.5 21.7zM196.8 187.5c-5.3 0-9.6 4.3-9.6 9.6v135.2c0 5.3 4.3 9.6 9.6 9.6H332c5.3 0 9.6-4.3 9.6-9.6V197.1c0-5.3-4.3-9.6-9.6-9.6H196.8z" fill="#0E040E" /><path d="M581.6 347.9H446.5c-8.6 0-15.6-7-15.6-15.6V197.1c0-8.6 7-15.6 15.6-15.6h135.1c8.6 0 15.6 7 15.6 15.6v135.1c0 8.7-7 15.7-15.6 15.7z" fill="#EAC099" /><path d="M581.6 353.9H446.5c-11.9 0-21.6-9.7-21.6-21.6V197.1c0-11.9 9.7-21.6 21.6-21.6h135.1c11.9 0 21.6 9.7 21.6 21.6v135.1c0 12-9.7 21.7-21.6 21.7zM446.5 187.5c-5.3 0-9.6 4.3-9.6 9.6v135.1c0 5.3 4.3 9.6 9.6 9.6h135.1c5.3 0 9.6-4.3 9.6-9.6V197.1c0-5.3-4.3-9.6-9.6-9.6H446.5z" fill="#0E040E" /><path d="M831.6 348.2H696.1c-8.6 0-15.6-7-15.6-15.6V197.1c0-8.6 7-15.6 15.6-15.6h135.5c8.6 0 15.6 7 15.6 15.6v135.5c0 8.6-7 15.6-15.6 15.6z" fill="#EDB098" /><path d="M831.6 354.2H696.1c-11.9 0-21.6-9.7-21.6-21.6V197.1c0-11.9 9.7-21.6 21.6-21.6h135.5c11.9 0 21.6 9.7 21.6 21.6v135.5c0 11.9-9.7 21.6-21.6 21.6zM696.1 187.5c-5.3 0-9.6 4.3-9.6 9.6v135.5c0 5.3 4.3 9.6 9.6 9.6h135.5c5.3 0 9.6-4.3 9.6-9.6V197.1c0-5.3-4.3-9.6-9.6-9.6H696.1z" fill="#0E040E" /><path d="M332.1 597.6H196.8c-8.6 0-15.6-7-15.6-15.6V446.7c0-8.6 7-15.6 15.6-15.6H332c8.6 0 15.6 7 15.6 15.6V582c0.1 8.6-6.9 15.6-15.5 15.6z" fill="#EBA6AF" /><path d="M332.1 603.6H196.8c-11.9 0-21.6-9.7-21.6-21.6V446.7c0-11.9 9.7-21.6 21.6-21.6H332c11.9 0 21.6 9.7 21.6 21.6V582c0.1 11.9-9.6 21.6-21.5 21.6zM196.8 437.1c-5.3 0-9.6 4.3-9.6 9.6V582c0 5.3 4.3 9.6 9.6 9.6H332c5.3 0 9.6-4.3 9.6-9.6V446.7c0-5.3-4.3-9.6-9.6-9.6H196.8z" fill="#0E040E" /><path d="M581.7 597.6H446.5c-8.6 0-15.6-7-15.6-15.6V446.7c0-8.6 7-15.6 15.6-15.6h135.2c8.6 0 15.6 7 15.6 15.6V582c0 8.6-7 15.6-15.6 15.6z" fill="#EFB2A8" /><path d="M581.7 603.6H446.5c-11.9 0-21.6-9.7-21.6-21.6V446.7c0-11.9 9.7-21.6 21.6-21.6h135.2c11.9 0 21.6 9.7 21.6 21.6V582c0 11.9-9.7 21.6-21.6 21.6zM446.5 437.1c-5.3 0-9.6 4.3-9.6 9.6V582c0 5.3 4.3 9.6 9.6 9.6h135.2c5.3 0 9.6-4.3 9.6-9.6V446.7c0-5.3-4.3-9.6-9.6-9.6H446.5z" fill="#0E040E" /><path d="M829.7 597.5H696.1c-8.6 0-15.6-7-15.6-15.6V448.3c0-8.6 7-15.6 15.6-15.6h133.6c8.6 0 15.6 7 15.6 15.6v133.6c0 8.6-7 15.6-15.6 15.6z" fill="#D66D55" /><path d="M829.7 603.5H696.1c-11.9 0-21.6-9.7-21.6-21.6V448.3c0-11.9 9.7-21.6 21.6-21.6h133.6c11.9 0 21.6 9.7 21.6 21.6v133.6c0 11.9-9.7 21.6-21.6 21.6zM696.1 438.7c-5.3 0-9.6 4.3-9.6 9.6v133.6c0 5.3 4.3 9.6 9.6 9.6h133.6c5.3 0 9.6-4.3 9.6-9.6V448.3c0-5.3-4.3-9.6-9.6-9.6H696.1z" fill="#0E040E" /><path d="M331.8 846.8h-135c-8.6 0-15.6-7-15.6-15.6v-135c0-8.6 7-15.6 15.6-15.6h135c8.6 0 15.6 7 15.6 15.6v135c0 8.6-7 15.6-15.6 15.6z" fill="#E2648F" /><path d="M581.6 847.4H446.5c-8.6 0-15.6-7-15.6-15.6V696.6c0-8.6 7-15.6 15.6-15.6h135.1c8.6 0 15.6 7 15.6 15.6v135.1c0 8.7-7 15.7-15.6 15.7z" fill="#C18E76" /><path d="M581.6 853.4H446.5c-11.9 0-21.6-9.7-21.6-21.6V696.6c0-11.9 9.7-21.6 21.6-21.6h135.1c11.9 0 21.6 9.7 21.6 21.6v135.1c0 12-9.7 21.7-21.6 21.7zM446.5 687c-5.3 0-9.6 4.3-9.6 9.6v135.1c0 5.3 4.3 9.6 9.6 9.6h135.1c5.3 0 9.6-4.3 9.6-9.6V696.6c0-5.3-4.3-9.6-9.6-9.6H446.5z" fill="#0E040E" /><path d="M829.7 845.3H696.1c-8.6 0-15.6-7-15.6-15.6V696.2c0-8.6 7-15.6 15.6-15.6h133.6c8.6 0 15.6 7 15.6 15.6v133.6c0 8.6-7 15.5-15.6 15.5z" fill="#A47585" /><path d="M829.7 851.3H696.1c-11.9 0-21.6-9.7-21.6-21.6V696.2c0-11.9 9.7-21.6 21.6-21.6h133.6c11.9 0 21.6 9.7 21.6 21.6v133.6c0 11.9-9.7 21.5-21.6 21.5zM696.1 686.6c-5.3 0-9.6 4.3-9.6 9.6v133.6c0 5.3 4.3 9.6 9.6 9.6h133.6c5.3 0 9.6-4.3 9.6-9.6V696.2c0-5.3-4.3-9.6-9.6-9.6H696.1z" fill="#0E040E" /><path d="M909.2 274.9c-2.2 0-3.9-1.7-3.9-3.9v-13.5c0-2.2 1.7-3.9 3.9-3.9s3.9 1.7 3.9 3.9V271c0 2.1-1.8 3.9-3.9 3.9zM909.2 233.9c-2.2 0-3.9-1.7-3.9-3.9v-38.6c0-2.2 1.7-3.9 3.9-3.9s3.9 1.7 3.9 3.9V230c0 2.2-1.8 3.9-3.9 3.9z" fill="#F0F0F0" /></svg>