<?xml version="1.0" standalone="no"?><!DOCTYPE svg PUBLIC "-//W3C//DTD SVG 1.1//EN" "http://www.w3.org/Graphics/SVG/1.1/DTD/svg11.dtd"><svg class="icon" width="48px" height="48.00px" viewBox="0 0 1024 1024" version="1.1" xmlns="http://www.w3.org/2000/svg"><path d="M507.9 949.9H156.6c-9.4 0-14.9-5.2-17.7-8.2-2.4-3-6.6-9.3-5.5-18.2l54.7-565.8c0.3-5.9 3.1-11.5 7.3-15.2 4.2-4.1 10-6.3 15.9-6.3h71v-74.1h-71c-22.9 0-45 8.9-62 24.8-17 16.3-27.7 38.9-30.1 63L64.5 915.7c-2.8 27.8 5.9 55.6 23.6 76 17.7 20.4 42.6 32.3 68.6 32.3h351.2c19.1 0 34.6-16.7 34.6-37.1s-15.6-37-34.6-37zM351.7 262.1H661v74.1H351.7zM807.5 336.3c5.9 0 11.8 2.2 15.9 6.3s6.9 9.3 7.3 15.2l15.9 172.4c1.7 20.4 18.7 35.2 37.8 33.4 19.1-2.2 32.9-20.4 31.2-40.8l-15.9-172c-2.1-24.5-12.8-47.1-29.8-63.4-17.3-16.3-39.1-25.2-62.3-25.2h-77.2v74.1h77.1z" fill="#ffffff" /><path d="M351.7 239.5c0-91.2 69.3-165.4 154.8-165.4 85.2 0 154.5 74.1 154.5 165.4v22.6h69.3v-22.6C730.3 107.5 629.8 0 506.5 0 382.8 0 282.4 107.5 282.4 239.5v22.6h69.3v-22.6zM505.8 853.5c-19.1-20.8-18.7-54.5 0.7-74.9l226.9-236.9c1.7-1.9 4.2-2.6 5.9-4.1 3.1-2.6 6.2-5.2 9.7-7 6.2-2.6 12.5-3.7 18.7-3.7h0.3c0.7 0 1.7 0.4 2.4 0.4 5.5 0.4 11.1 1.1 16.3 3.3 3.1 1.5 5.9 4.1 9 6.3 1 1.1 2.1 1.5 3.5 2.2l-14.5-122.7c-4.8-30.4-27.7-53-54.4-55.2v126.4c0 20.4-15.2 37.1-34.6 37.1-19.1 0-34.6-16.7-34.6-37.1V360.7H351.7v126.8c0 20.4-15.6 37.1-34.6 37.1-19.1 0-34.6-16.7-34.6-37.1V362.2c-23.9 4.8-43.3 26.3-47.8 54.5l-55.8 415.6c-6.6 41.9 21.8 80.5 59.2 80.5h480.4V705.2L575.8 854.6c-19.8 20.4-50.9 20-70-1.1z" fill="#ffffff" /><path d="M949.4 725L788.8 559.2c-1.4-1.4-3.1-2.1-4.6-3.2-2.1-1.6-4-3.3-6.4-4.4-3.6-1.6-7.4-2.2-11.3-2.4-0.6 0-1.2-0.4-1.8-0.4h-0.1c-4.5 0-8.9 1-13.1 2.8-2.6 1.1-4.6 3-6.8 4.8-1.4 1.1-2.9 1.6-4.2 2.9L581.8 725.1c-13.7 14.3-14 37.8-0.6 52.4 13.4 14.7 35.3 14.9 49 0.7l99.9-104.4v303c0 20.5 15.5 37.1 34.6 37.1s34.6-16.6 34.6-37.1V673.1l102 105.2c6.7 7 15.4 10.4 24.1 10.4 9.1 0 18.1-3.8 24.9-11.3 13.3-14.8 12.9-38.2-0.9-52.4z" fill="#ffffff" /></svg>