<?xml version="1.0" standalone="no"?><!DOCTYPE svg PUBLIC "-//W3C//DTD SVG 1.1//EN" "http://www.w3.org/Graphics/SVG/1.1/DTD/svg11.dtd"><svg class="icon" width="48px" height="38.40px" viewBox="0 0 1280 1024" version="1.1" xmlns="http://www.w3.org/2000/svg"><path d="M581.09404 378.078c-40.59-20.298-88.294-22.398-129.478-7.78 85.212 0 142.416 40.95 171.156 101.152 17.152 35.798-10.296 76.142-47.234 76.142 36.858 0 64.422 40.272 47.234 76.142-29.45 61.692-92.246 101.708-160.596 101.708-1.114 0-188.942-17.23-188.942-17.23l-132.812 66.694c-18.768 9.386-39.63 0.758-47.79-15.562L3.72004 581.494c-8.334-17.23-2.222-37.794 13.892-47.242l116.144-66.138L216.00004 319.722c12.78-114.49 69.462-219.534 159.486-293.452 22.782-18.896 56.682-15.562 75.02 7.226 18.892 22.788 15.56 56.134-7.224 75.032-25.006 21.118-47.236 45.018-65.018 71.14 43.344-29.458 93.358-49.464 148.372-56.134 29.45-3.89 56.126 16.672 59.46 46.13 3.89 29.456-16.672 56.134-46.124 59.468-32.232 3.89-62.24 15.006-88.356 30.568 52.228-11.426 117.424-6.276 176.158 22.23 26.672 13.338 37.786 45.018 24.448 71.696-12.778 26.12-45.008 37.234-71.128 24.452z m-54.458 138.944c-12.224-25.01-36.676-40.572-64.462-40.572a70.92 70.92 0 0 0-71.13 71.14c0 42.856 35.616 71.14 71.13 71.14 27.786 0 52.238-15.562 64.462-40.572 8.892-18.898 27.228-30.012 46.678-30.568-19.45-0.554-37.786-11.67-46.678-30.568z m749.642-74.474c8.336 17.23 2.222 37.794-13.892 47.242l-116.142 66.138L1064.00004 704.32c-12.78 114.49-69.462 219.534-159.486 293.452-21.864 18.224-55.598 16.288-75.02-7.226-18.892-22.788-15.56-56.134 7.226-75.032 25.006-21.118 47.234-45.018 65.016-71.14-43.344 29.458-93.358 49.464-148.372 56.134-20.042 5.012-55.104-11.286-59.46-46.13-3.89-29.456 16.672-56.134 46.124-59.468 32.232-3.892 62.24-15.006 88.356-30.568-52.228 11.426-117.424 6.276-176.158-22.23-26.672-13.338-37.786-45.018-24.448-71.696 12.778-26.122 45.01-37.238 71.13-24.454 40.59 20.298 88.294 22.398 129.478 7.78-85.212 0-142.416-40.95-171.156-101.152-17.152-35.798 10.296-76.142 47.234-76.142-36.858 0-64.422-40.272-47.234-76.142 28.066-58.792 88.078-101.774 163.932-101.708l185.606 17.23 132.812-66.694c18.816-9.408 39.656-0.708 47.788 15.562l88.91 177.852z m-458.454-37.236c-27.786 0-52.238 15.562-64.462 40.572-8.892 18.898-27.228 30.012-46.678 30.568 19.45 0.556 37.786 11.672 46.678 30.568 12.224 25.01 36.676 40.572 64.462 40.572a70.92 70.92 0 0 0 71.13-71.14c0-42.858-35.616-71.14-71.13-71.14z" fill="#ffffff" /></svg>