<?xml version="1.0" standalone="no"?><!DOCTYPE svg PUBLIC "-//W3C//DTD SVG 1.1//EN" "http://www.w3.org/Graphics/SVG/1.1/DTD/svg11.dtd"><svg class="icon" width="48px" height="48.00px" viewBox="0 0 1024 1024" version="1.1" xmlns="http://www.w3.org/2000/svg"><path d="M512 16C238 16 16 238 16 512s222 496 496 496 496-222 496-496S786 16 512 16zM288 480c0-18.6 8.2-35 21-46.8l-62-18.6c-17-5-26.6-23-21.4-39.8 5-17 22.8-26.4 39.8-21.4l160 48c17 5 26.6 23 21.4 39.8-4.2 13.8-16.8 22.8-30.6 22.8-1 0-2.2-0.4-3.4-0.4 1.4 5.4 3.4 10.6 3.4 16.4 0 35.4-28.6 64-64 64S288 515.4 288 480z m336 308.4c-55.6-66.8-168.4-66.8-224.2 0-27 32.6-76.4-8.4-49.2-41 40-48 98.8-75.6 161.2-75.6s121.2 27.6 161.2 75.6c27.6 33-22.2 73.2-49 41z m153.2-373.8l-62 18.6c12.6 11.6 21 28.2 21 46.8 0 35.4-28.6 64-64 64s-64-28.6-64-64c0-5.8 1.8-11.2 3.4-16.4-1.2 0.2-2.2 0.4-3.4 0.4-13.8 0-26.4-9-30.6-22.8-5-17 4.6-34.8 21.4-39.8l160-48c16.8-5 34.8 4.6 39.8 21.4 5 17-4.6 34.8-21.6 39.8z" fill="#ffffff" /></svg>