<?xml version="1.0" standalone="no"?><!DOCTYPE svg PUBLIC "-//W3C//DTD SVG 1.1//EN" "http://www.w3.org/Graphics/SVG/1.1/DTD/svg11.dtd"><svg class="icon" width="48px" height="42.67px" viewBox="0 0 1152 1024" version="1.1" xmlns="http://www.w3.org/2000/svg"><path d="M25.942 704h64.788C134.344 909.47 363.888 1024 576 1024c212.458 0 441.706-114.76 485.27-320h64.788c21.382 0 32.09-25.852 16.97-40.97l-134.058-134.058c-9.372-9.372-24.568-9.372-33.942 0l-134.058 134.058c-15.12 15.12-4.412 40.97 16.97 40.97h70.292c-40.58 108.634-169.926 173.176-288.234 188.03V512h104c13.254 0 24-10.746 24-24v-80c0-13.254-10.746-24-24-24h-104v-10.94c74.562-26.356 127.99-97.45 128-181.036C768.01 87.544 683.21 1.476 578.74 0.02 471.446-1.478 384 85.05 384 192c0 83.596 53.432 154.7 128 181.06V384h-104c-13.254 0-24 10.746-24 24v80c0 13.254 10.746 24 24 24h104v380.03c-117.872-14.798-247.64-79.358-288.234-188.03h70.292c21.382 0 32.09-25.852 16.97-40.97l-134.058-134.058c-9.372-9.372-24.568-9.372-33.942 0L8.97 663.03C-6.148 678.148 4.56 704 25.942 704zM576 128c35.29 0 64 28.71 64 64s-28.71 64-64 64-64-28.71-64-64 28.71-64 64-64z" fill="#ffffff" /></svg>