<?xml version="1.0" standalone="no"?><!DOCTYPE svg PUBLIC "-//W3C//DTD SVG 1.1//EN" "http://www.w3.org/Graphics/SVG/1.1/DTD/svg11.dtd"><svg class="icon" width="48px" height="48.00px" viewBox="0 0 1024 1024" version="1.1" xmlns="http://www.w3.org/2000/svg"><path d="M808.96 159.744c56.32 0 102.4 46.08 102.4 102.4v363.008c0 56.32-46.08 102.4-102.4 102.4H215.04c-56.32 0-102.4-46.08-102.4-102.4V262.144c0-56.32 46.08-102.4 102.4-102.4h593.92m0-40.96H215.04c-78.848 0-143.36 64.512-143.36 143.36v363.008c0 78.848 64.512 143.36 143.36 143.36h593.92c78.848 0 143.36-64.512 143.36-143.36V262.144c0-78.848-64.512-143.36-143.36-143.36zM716.8 942.08H307.2c-11.264 0-20.48-9.216-20.48-20.48s9.216-20.48 20.48-20.48h409.6c11.264 0 20.48 9.216 20.48 20.48s-9.216 20.48-20.48 20.48z" fill="#181818" /><path d="M512 926.72c-11.264 0-20.48-9.216-20.48-20.48v-157.696c0-11.264 9.216-20.48 20.48-20.48s20.48 9.216 20.48 20.48V906.24c0 11.264-9.216 20.48-20.48 20.48z" fill="#181818" /><path d="M808.96 727.552H215.04c-56.32 0-102.4-46.08-102.4-102.4V262.144c0-56.32 46.08-102.4 102.4-102.4h593.92c56.32 0 102.4 46.08 102.4 102.4v363.008c0 56.832-46.08 102.4-102.4 102.4z" fill="#4F8DFC" /><path d="M808.96 200.704c33.792 0 61.44 27.648 61.44 61.44v363.008c0 33.792-27.648 61.44-61.44 61.44H215.04c-33.792 0-61.44-27.648-61.44-61.44V262.144c0-33.792 27.648-61.44 61.44-61.44h593.92m0-40.96H215.04c-56.32 0-102.4 46.08-102.4 102.4v363.008c0 56.32 46.08 102.4 102.4 102.4h593.92c56.32 0 102.4-46.08 102.4-102.4V262.144c0-56.32-46.08-102.4-102.4-102.4z" fill="#181818" /><path d="M747.52 605.184h-102.4c-11.264 0-20.48-9.216-20.48-20.48s9.216-20.48 20.48-20.48h102.4c11.264 0 20.48 9.216 20.48 20.48s-9.216 20.48-20.48 20.48z" fill="#181818" /></svg>