<?xml version="1.0" standalone="no"?><!DOCTYPE svg PUBLIC "-//W3C//DTD SVG 1.1//EN" "http://www.w3.org/Graphics/SVG/1.1/DTD/svg11.dtd"><svg class="icon" width="48px" height="48.00px" viewBox="0 0 1024 1024" version="1.1" xmlns="http://www.w3.org/2000/svg"><path d="M922.624 812.032c-11.264 0-20.48-9.216-20.48-20.48v-154.624c0-45.056-36.864-81.92-81.92-81.92h-614.4c-45.056 0-81.92 36.864-81.92 81.92v154.624c0 11.264-9.216 20.48-20.48 20.48s-20.48-9.216-20.48-20.48v-154.624c0-67.584 55.296-122.88 122.88-122.88h614.4c67.584 0 122.88 55.296 122.88 122.88v154.624c0 11.264-9.216 20.48-20.48 20.48z" fill="#181818" /><path d="M819.2 812.032H204.8c-11.264 0-20.48-9.216-20.48-20.48s9.216-20.48 20.48-20.48h614.4c11.264 0 20.48 9.216 20.48 20.48s-9.216 20.48-20.48 20.48z" fill="#181818" /><path d="M281.088 887.296c-11.264 0-20.48-9.216-20.48-20.48v-75.264c0-11.264 9.216-20.48 20.48-20.48s20.48 9.216 20.48 20.48v75.264c0 11.264-8.704 20.48-20.48 20.48zM744.448 887.296c-11.264 0-20.48-9.216-20.48-20.48v-75.264c0-11.264 9.216-20.48 20.48-20.48s20.48 9.216 20.48 20.48v75.264c0 11.264-9.216 20.48-20.48 20.48zM697.344 167.424c56.32 0 102.4 46.08 102.4 102.4v238.592h-573.44V269.824c0-56.32 46.08-102.4 102.4-102.4h368.64m0-40.96h-368.64c-78.848 0-143.36 64.512-143.36 143.36v238.592c0 22.528 18.432 40.96 40.96 40.96h573.44c22.528 0 40.96-18.432 40.96-40.96V269.824c0-78.848-64.512-143.36-143.36-143.36z" fill="#181818" /><path d="M799.744 508.416h-573.44V269.824c0-56.32 46.08-102.4 102.4-102.4h368.64c56.32 0 102.4 46.08 102.4 102.4v238.592z" fill="#4F8DFC" /><path d="M697.344 208.384c33.792 0 61.44 27.648 61.44 61.44v197.632h-491.52V269.824c0-33.792 27.648-61.44 61.44-61.44h368.64m0-40.96h-368.64c-56.32 0-102.4 46.08-102.4 102.4v238.592h573.44V269.824c0-56.32-46.08-102.4-102.4-102.4z" fill="#181818" /></svg>