<?xml version="1.0" standalone="no"?><!DOCTYPE svg PUBLIC "-//W3C//DTD SVG 1.1//EN" "http://www.w3.org/Graphics/SVG/1.1/DTD/svg11.dtd"><svg class="icon" width="48px" height="48.00px" viewBox="0 0 1024 1024" version="1.1" xmlns="http://www.w3.org/2000/svg"><path d="M803.84 112.128c56.32 0 102.4 46.08 102.4 102.4v532.48c0 56.32-46.08 102.4-102.4 102.4H220.16c-56.32 0-102.4-46.08-102.4-102.4v-532.48c0-56.32 46.08-102.4 102.4-102.4h583.68m0-40.96H220.16c-78.848 0-143.36 64.512-143.36 143.36v532.48c0 78.848 64.512 143.36 143.36 143.36h583.68c78.848 0 143.36-64.512 143.36-143.36v-532.48c0-78.848-64.512-143.36-143.36-143.36z" fill="#181818" /><path d="M233.472 951.296c-11.264 0-20.48-9.216-20.48-20.48v-54.784c0-11.264 9.216-20.48 20.48-20.48s20.48 9.216 20.48 20.48v54.784c0 11.264-9.216 20.48-20.48 20.48zM790.528 951.296c-11.264 0-20.48-9.216-20.48-20.48v-54.784c0-11.264 9.216-20.48 20.48-20.48s20.48 9.216 20.48 20.48v54.784c0 11.264-9.216 20.48-20.48 20.48zM614.4 540.672c-11.264 0-20.48-9.216-20.48-20.48V465.408c0-11.264 9.216-20.48 20.48-20.48s20.48 9.216 20.48 20.48v54.784c0 11.264-8.704 20.48-20.48 20.48z" fill="#181818" /><path d="M492.032 512v337.408H220.16c-56.32 0-102.4-46.08-102.4-102.4V512h374.272m40.96-40.96H76.8v275.968c0 78.848 64.512 143.36 143.36 143.36h312.832V471.04z" fill="#181818" /><path d="M492.032 112.128v357.376H117.76V214.528c0-56.32 46.08-102.4 102.4-102.4h271.872m40.96-40.96H220.16c-78.848 0-143.36 64.512-143.36 143.36v295.936h456.192V71.168z" fill="#181818" /><path d="M220.16 849.408h271.872V512H117.76v235.008c0 56.832 46.08 102.4 102.4 102.4z" fill="#4F8DFC" /><path d="M451.072 552.96v255.488H220.16c-33.792 0-61.44-27.648-61.44-61.44V552.96h292.352m40.96-40.96H117.76v235.008c0 56.32 46.08 102.4 102.4 102.4h271.872V512z" fill="#181818" /><path d="M117.76 469.504h374.272V112.128H220.16c-56.32 0-102.4 46.08-102.4 102.4v254.976z" fill="#4F8DFC" /><path d="M451.072 153.088v275.456H158.72V214.528c0-33.792 27.648-61.44 61.44-61.44h230.912m40.96-40.96H220.16c-56.32 0-102.4 46.08-102.4 102.4v254.976h374.272V112.128z" fill="#181818" /></svg>