<?xml version="1.0" standalone="no"?><!DOCTYPE svg PUBLIC "-//W3C//DTD SVG 1.1//EN" "http://www.w3.org/Graphics/SVG/1.1/DTD/svg11.dtd"><svg class="icon" width="48px" height="48.00px" viewBox="0 0 1024 1024" version="1.1" xmlns="http://www.w3.org/2000/svg"><path d="M921.6 942.08c-11.264 0-20.48-9.216-20.48-20.48V394.24c0-11.264 9.216-20.48 20.48-20.48s20.48 9.216 20.48 20.48v527.36c0 11.264-9.216 20.48-20.48 20.48zM122.88 102.4v819.2c0 11.264-9.216 20.48-20.48 20.48s-20.48-9.216-20.48-20.48V102.4c0-11.264 9.216-20.48 20.48-20.48s20.48 9.216 20.48 20.48z" fill="#181818" /><path d="M921.088 430.08h-819.2c-10.24 0-18.944 7.68-20.48 17.408V868.352c1.536 9.728 10.24 17.408 20.48 17.408h819.2c11.264 0 20.48-9.216 20.48-20.48V450.56c0-11.264-8.704-20.48-20.48-20.48z m-20.48 414.72h-778.24V471.04h778.24v373.76z" fill="#181818" /><path d="M122.88 471.04h778.24v373.76H122.88z" fill="#4F8DFC" /><path d="M859.648 512v291.84H163.84v-291.84h695.808m40.96-40.96H122.88v373.76h778.24V471.04h-0.512z" fill="#181818" /><path d="M430.08 444.928l-4.096-14.848L389.12 299.008c-2.56-8.704-10.752-14.848-19.456-14.848H101.888c-10.24 0-18.944 7.68-20.48 17.408V453.632c1.536 9.728 10.24 17.408 20.48 17.408h308.224c6.656 0 12.288-3.072 16.384-8.192s5.12-11.776 3.584-17.92zM122.368 430.08V325.12H353.28L382.976 430.08H122.368zM834.56 325.12h-322.56c-11.264 0-20.48-9.216-20.48-20.48s9.216-20.48 20.48-20.48h322.56c11.264 0 20.48 9.216 20.48 20.48s-9.216 20.48-20.48 20.48zM834.56 397.824h-322.56c-11.264 0-20.48-9.216-20.48-20.48s9.216-20.48 20.48-20.48h322.56c11.264 0 20.48 9.216 20.48 20.48s-9.216 20.48-20.48 20.48z" fill="#181818" /></svg>