<?xml version="1.0" standalone="no"?><!DOCTYPE svg PUBLIC "-//W3C//DTD SVG 1.1//EN" "http://www.w3.org/Graphics/SVG/1.1/DTD/svg11.dtd"><svg class="icon" width="48px" height="48.00px" viewBox="0 0 1024 1024" version="1.1" xmlns="http://www.w3.org/2000/svg"><path d="M665.6 256c56.32 0 102.4 46.08 102.4 102.4v307.2c0 56.32-46.08 102.4-102.4 102.4H358.4c-56.32 0-102.4-46.08-102.4-102.4V358.4c0-56.32 46.08-102.4 102.4-102.4h307.2m0-40.96H358.4c-78.848 0-143.36 64.512-143.36 143.36v307.2c0 78.848 64.512 143.36 143.36 143.36h307.2c78.848 0 143.36-64.512 143.36-143.36V358.4c0-78.848-64.512-143.36-143.36-143.36zM134.656 942.08c-11.264 0-20.48-9.216-20.48-20.48V102.4c0-11.264 9.216-20.48 20.48-20.48s20.48 9.216 20.48 20.48v819.2c0 11.264-9.216 20.48-20.48 20.48z" fill="#181818" /><path d="M512 327.68c-11.264 0-20.48-9.216-20.48-20.48V102.4c0-11.264 9.216-20.48 20.48-20.48s20.48 9.216 20.48 20.48v204.8c0 11.264-9.216 20.48-20.48 20.48zM889.344 942.08c-11.264 0-20.48-9.216-20.48-20.48V102.4c0-11.264 9.216-20.48 20.48-20.48s20.48 9.216 20.48 20.48v819.2c0 11.264-9.216 20.48-20.48 20.48z" fill="#181818" /><path d="M558.08 168.96c-5.12 0-10.24-2.048-14.336-6.144l-31.744-31.744-31.744 31.744c-8.192 8.192-20.992 8.192-29.184 0-8.192-8.192-8.192-20.992 0-29.184l46.08-46.08c8.192-8.192 20.992-8.192 29.184 0l46.08 46.08c8.192 8.192 8.192 20.992 0 29.184-3.584 4.096-8.704 6.144-14.336 6.144zM512 942.08c-11.264 0-20.48-9.216-20.48-20.48v-204.8c0-11.264 9.216-20.48 20.48-20.48s20.48 9.216 20.48 20.48v204.8c0 11.264-9.216 20.48-20.48 20.48z" fill="#181818" /><path d="M512 942.08c-5.12 0-10.24-2.048-14.336-6.144l-46.08-46.08c-8.192-8.192-8.192-20.992 0-29.184 8.192-8.192 20.992-8.192 29.184 0l31.744 31.744 31.744-31.744c8.192-8.192 20.992-8.192 29.184 0 8.192 8.192 8.192 20.992 0 29.184l-46.08 46.08c-5.12 4.096-10.24 6.144-15.36 6.144z" fill="#181818" /><path d="M665.6 768H358.4c-56.32 0-102.4-46.08-102.4-102.4V358.4c0-56.32 46.08-102.4 102.4-102.4h307.2c56.32 0 102.4 46.08 102.4 102.4v307.2c0 56.32-46.08 102.4-102.4 102.4z" fill="#4F8DFC" /><path d="M665.6 296.96c33.792 0 61.44 27.648 61.44 61.44v307.2c0 33.792-27.648 61.44-61.44 61.44H358.4c-33.792 0-61.44-27.648-61.44-61.44V358.4c0-33.792 27.648-61.44 61.44-61.44h307.2m0-40.96H358.4c-56.32 0-102.4 46.08-102.4 102.4v307.2c0 56.32 46.08 102.4 102.4 102.4h307.2c56.32 0 102.4-46.08 102.4-102.4V358.4c0-56.32-46.08-102.4-102.4-102.4z" fill="#181818" /><path d="M512 609.28c-11.264 0-20.48-9.216-20.48-20.48V435.2c0-11.264 9.216-20.48 20.48-20.48s20.48 9.216 20.48 20.48v153.6c0 11.776-9.216 20.48-20.48 20.48z" fill="#181818" /></svg>