<?xml version="1.0" standalone="no"?><!DOCTYPE svg PUBLIC "-//W3C//DTD SVG 1.1//EN" "http://www.w3.org/Graphics/SVG/1.1/DTD/svg11.dtd"><svg class="icon" width="48px" height="48.00px" viewBox="0 0 1024 1024" version="1.1" xmlns="http://www.w3.org/2000/svg"><path d="M532.48 901.12l-1.536-778.24v-20.48c0-11.264-9.216-20.48-20.48-20.48H209.408c-70.656 0-128 57.344-128 128v603.648c0 70.656 57.344 128.512 128 128.512H512c5.632 0 10.752-2.048 14.336-6.144 4.096-4.096 6.144-9.216 6.144-14.336v-20.48z m-323.072 0c-48.128 0-87.04-39.424-87.04-87.552V210.432c0-48.128 38.912-87.04 87.04-87.04h281.088L491.52 901.12H209.408z" fill="#181818" /><path d="M813.568 81.92H510.464c-5.632 0-10.752 2.048-14.336 6.144S489.984 97.28 489.984 102.4l1.536 798.72v20.48c0 11.264 9.216 20.48 20.48 20.48h301.568c70.656 0 128-57.344 128-128.512V210.432c0-71.168-57.856-128.512-128-128.512z m87.04 731.648c0 48.128-38.912 87.552-87.04 87.552H532.48l-1.536-778.24h282.112c48.128 0 87.04 38.912 87.04 87.04v603.648z" fill="#181818" /><path d="M491.52 901.12H209.408c-48.128 0-87.04-39.424-87.04-87.552V210.432c0-48.128 38.912-87.04 87.04-87.04h281.088L491.52 901.12z" fill="#4F8DFC" /><path d="M449.536 163.84l1.024 696.32H209.408c-25.6 0-46.08-20.992-46.08-46.592V210.432c0-25.6 20.48-46.08 46.08-46.08h240.128m40.448-41.472H209.408c-48.128 0-87.04 38.912-87.04 87.04v603.648c0 48.128 38.912 87.552 87.04 87.552H491.52l-1.536-778.24z" fill="#181818" /><path d="M900.608 210.432V814.08c0 48.128-38.912 87.552-87.04 87.552H532.48l-1.536-778.24h282.112c48.128-0.512 87.552 38.912 87.552 87.04z" fill="#4F8DFC" /><path d="M813.568 163.84c25.6 0 46.08 20.992 46.08 46.08v603.648c0 25.6-20.48 46.592-46.08 46.592H573.44l-1.024-696.32h241.152m0-40.96h-282.112l1.536 778.24H814.08c48.128 0 87.04-39.424 87.04-87.552V210.432c-0.512-48.128-39.936-87.552-87.552-87.552zM306.688 634.88c-11.264 0-20.48-9.216-20.48-20.48V409.6c0-11.264 9.216-20.48 20.48-20.48s20.48 9.216 20.48 20.48v204.8c0 11.264-9.216 20.48-20.48 20.48z" fill="#181818" /><path d="M353.28 476.16c-5.12 0-10.24-2.048-14.336-6.144L307.2 438.272l-31.744 31.744c-8.192 8.192-20.992 8.192-29.184 0-8.192-8.192-8.192-20.992 0-29.184l46.08-46.08c8.192-8.192 20.992-8.192 29.184 0l46.08 46.08c8.192 8.192 8.192 20.992 0 29.184C363.52 474.112 358.4 476.16 353.28 476.16zM715.776 634.88c-11.264 0-20.48-9.216-20.48-20.48V409.6c0-11.264 9.216-20.48 20.48-20.48s20.48 9.216 20.48 20.48v204.8c0 11.264-9.216 20.48-20.48 20.48z" fill="#181818" /><path d="M715.776 634.88c-5.12 0-10.24-2.048-14.336-6.144l-46.08-46.08c-8.192-8.192-8.192-20.992 0-29.184 8.192-8.192 20.992-8.192 29.184 0l31.744 31.744 31.744-31.744c8.192-8.192 20.992-8.192 29.184 0 8.192 8.192 8.192 20.992 0 29.184l-46.08 46.08c-4.608 4.096-10.24 6.144-15.36 6.144z" fill="#181818" /></svg>