<?xml version="1.0" standalone="no"?><!DOCTYPE svg PUBLIC "-//W3C//DTD SVG 1.1//EN" "http://www.w3.org/Graphics/SVG/1.1/DTD/svg11.dtd"><svg class="icon" width="48px" height="48.00px" viewBox="0 0 1024 1024" version="1.1" xmlns="http://www.w3.org/2000/svg"><path d="M765.71335 258c51.94 9.34 94.54 37.34 127.84 84 29.3 41.34 49.28 93.34 59.92 156 9.34 57.34 8.64 114.66-2 172-15.98 94.66-47.94 174-95.88 238-57.28 77.34-129.18 116-215.74 116-21.32 0-44.6-6.66-69.92-20-17.32-10.66-36.62-16-57.94-16s-40.6 5.34-57.94 16c-25.32 13.34-48.6 20-69.92 20-86.56 0-158.46-38.66-215.74-116-47.94-64-79.9-143.34-95.88-238-10.64-57.34-11.34-114.66-2-172 10.64-62.66 30.62-114.66 59.92-156 33.3-46.66 75.9-74.66 127.84-84 31.96-5.34 75.9-0.66 131.84 14 47.94 13.34 88.56 29.34 121.86 48 33.3-18.66 73.92-34.66 121.86-48 55.96-14.66 99.92-19.34 131.88-14z m-109.88-82c-18.64 17.34-43.3 30-73.92 38-21.32 6.66-44.6 10-69.92 10l-29.96-2c-2.66-18.66-2.66-40 0-64 5.34-48 20.64-84.66 45.94-110 18.64-17.34 43.3-30 73.92-38 21.32-6.66 44.6-10 69.92-10l29.96 2 2 30c0 25.34-3.34 48.66-9.98 70-7.98 30.66-20.62 55.34-37.96 74z" fill="#ffffff" /></svg>