<?xml version="1.0" standalone="no"?><!DOCTYPE svg PUBLIC "-//W3C//DTD SVG 1.1//EN" "http://www.w3.org/Graphics/SVG/1.1/DTD/svg11.dtd"><svg class="icon" width="48px" height="48.00px" viewBox="0 0 1024 1024" version="1.1" xmlns="http://www.w3.org/2000/svg"><path d="M704.401495 851.540021l-158.390143 158.390144c-18.74578 18.74578-49.135424 18.74578-67.881205 0l-158.390144-158.390144c-30.237646-30.237646-8.821897-81.94104 33.941602-81.93904h102.322801L456.002406 567.993344H254.396769v102.322801c0 42.763499-51.701394 64.179248-81.94104 33.941602L14.065585 545.867603c-18.74578-18.74578-18.74578-49.137424 0-67.881204L172.455729 319.596255c30.237646-30.237646 81.94104-8.821897 81.94104 33.941602V455.994656H456.002406V254.389019h-102.458799c-42.763499 0-64.179248-51.701394-33.941602-81.94104l158.390144-158.390144c18.74578-18.74578 49.135424-18.74578 67.881204 0l158.390144 158.390144c30.237646 30.237646 8.821897 81.94104-33.941602 81.94104h-102.322801V455.994656h201.605637v-102.322801c0-42.763499 51.701394-64.179248 81.93904-33.941602l158.390144 158.390144c18.74578 18.74578 18.74578 49.137424 0 67.881205L851.543771 704.391745c-30.237646 30.237646-81.94104 8.821897-81.93904-33.941602V567.993344H568.001094v201.605637h102.458799c42.763499 0 64.179248 51.701394 33.941602 81.94104z" fill="#ffffff" /></svg>