<?xml version="1.0" standalone="no"?><!DOCTYPE svg PUBLIC "-//W3C//DTD SVG 1.1//EN" "http://www.w3.org/Graphics/SVG/1.1/DTD/svg11.dtd"><svg class="icon" width="48px" height="48.00px" viewBox="0 0 1024 1024" version="1.1" xmlns="http://www.w3.org/2000/svg"><path d="M452.923077 118.153846c20.046769 0 39.778462 1.299692 59.076923 3.820308V492.307692a19.692308 19.692308 0 0 0 16.147692 19.377231l3.544616 0.315077h370.333538c2.520615 19.337846 3.820308 39.069538 3.820308 59.076923C905.846154 821.208615 703.054769 1024 452.923077 1024S0 821.208615 0 571.076923 202.791385 118.153846 452.923077 118.153846z m-19.692308 374.153846V197.435077l-1.575384 0.078769A374.153846 374.153846 0 0 0 452.923077 945.230769c195.938462 0 356.706462-150.646154 372.814769-342.409846l0.787692-12.051692H531.692308l-7.049846-0.315077-3.544616-0.315077-7.010461-0.945231a98.461538 98.461538 0 0 1-80.620308-90.112L433.230769 492.307692z" fill="#181818" /><path d="M630.153846 433.230769a39.384615 39.384615 0 0 1-39.384615-39.384615V39.384615c217.521231 0 393.846154 176.324923 393.846154 393.846154h-354.461539z" fill="#4F8DFC" /><path d="M630.153846 433.230769a39.384615 39.384615 0 0 1-39.384615-39.384615V39.384615c213.858462 0 387.859692 170.417231 393.688615 382.818462L984.615385 433.230769h-354.461539z m39.384616-78.769231h226.382769l-1.575385-5.868307a315.707077 315.707077 0 0 0-218.269538-218.742154L669.538462 128.118154V354.461538z" fill="#181818" /></svg>