<?xml version="1.0" standalone="no"?><!DOCTYPE svg PUBLIC "-//W3C//DTD SVG 1.1//EN" "http://www.w3.org/Graphics/SVG/1.1/DTD/svg11.dtd"><svg class="icon" width="48px" height="48.00px" viewBox="0 0 1024 1024" version="1.1" xmlns="http://www.w3.org/2000/svg"><path d="M204.8 580.266667h750.933333v375.466666H204.8z" fill="#4F8DFC" /><path d="M972.8 102.4H785.066667v-17.066667a51.2 51.2 0 0 0-102.4 0V102.4H341.333333v-17.066667a51.2 51.2 0 0 0-102.4 0V102.4H51.2A51.2 51.2 0 0 0 0 153.6v785.066667A51.2 51.2 0 0 0 51.2 989.866667h921.6a51.2 51.2 0 0 0 51.2-51.2v-785.066667A51.2 51.2 0 0 0 972.8 102.4zM238.933333 204.8v17.066667a51.2 51.2 0 0 0 102.4 0V204.8h341.333334v17.066667a51.2 51.2 0 0 0 102.4 0V204.8h136.533333v170.666667H102.4V204.8zM102.4 887.466667V477.866667h819.2v409.6z" fill="#181818" /></svg>