<?xml version="1.0" standalone="no"?><!DOCTYPE svg PUBLIC "-//W3C//DTD SVG 1.1//EN" "http://www.w3.org/Graphics/SVG/1.1/DTD/svg11.dtd"><svg class="icon" width="48px" height="44.20px" viewBox="0 0 1112 1024" version="1.1" xmlns="http://www.w3.org/2000/svg"><path d="M96.90575 96.907379C226.389502-32.300288 436.213919-32.300288 565.697671 96.907379c253.169724 252.893639 253.169724 663.155591 0 916.325315l-10.491221 10.491221-458.3007-458.3007C-32.301917 436.215548-32.301917 226.391131 96.90575 96.907379z" fill="#4169E1" /><path d="M780.491614 110.435532c122.029463 0 220.867807 98.838344 220.867807 220.867808 0 58.529969-23.19112 114.85126-64.603834 156.263973L562.660739 861.662162c-147.981431-213.689603-122.029463-502.750346 61.842986-686.346711 41.136629-41.688799 97.45792-65.156003 155.987889-64.879919m0-110.433903c-87.794953 0-172.27689 34.78668-234.395961 97.181835-253.169724 253.169724-253.169724 663.155591 0 916.325315l10.491221 10.491221 458.3007-458.024615c129.483752-129.483752 129.483752-339.032084 0-468.515836-62.119071-62.67124-146.324922-97.734005-234.39596-97.45792z" fill="#2c2c2c" /></svg>