<?xml version="1.0" standalone="no"?><!DOCTYPE svg PUBLIC "-//W3C//DTD SVG 1.1//EN" "http://www.w3.org/Graphics/SVG/1.1/DTD/svg11.dtd"><svg class="icon" width="48px" height="47.91px" viewBox="0 0 1026 1024" version="1.1" xmlns="http://www.w3.org/2000/svg"><path d="M314.936547 464.470732L221.609235 557.769916a172.956491 172.956491 0 1 0 244.709948 244.709948l93.299184-93.299184z" fill="#4169E1" /><path d="M923.926786 100.07793a341.778227 341.778227 0 0 0-483.288083 0L271.479435 269.265325l-169.187395 169.159268A341.7501 341.7501 0 1 0 585.580123 921.712676l169.187395-169.159267 169.159268-169.187395a341.693845 341.693845 0 0 0 0-483.288084zM506.035327 842.167879A229.211651 229.211651 0 0 1 181.864965 517.997517l129.386869-129.386869 324.170362 324.170362z m338.346662-338.346662l-129.386869 129.386869-324.19849-324.170362 129.386869-129.386869a229.211651 229.211651 0 1 1 324.19849 324.170362z" fill="#0D0A16" /></svg>