<?xml version="1.0" standalone="no"?><!DOCTYPE svg PUBLIC "-//W3C//DTD SVG 1.1//EN" "http://www.w3.org/Graphics/SVG/1.1/DTD/svg11.dtd"><svg class="icon" width="48px" height="48.00px" viewBox="0 0 1024 1024" version="1.1" xmlns="http://www.w3.org/2000/svg"><path d="M736.6 230.6l-14.9 7.3c-110 53.9-236.7 63.4-353.6 26.2-30.6 2.9-56.1 25.9-62.3 56.4l-37.5 189.4c-9.1 46.2 28 88.9 74.7 84.1 142-14.2 403.1-67.7 466.8-271.3 14.9-48.4-23-96.8-73.2-92.1z" fill="#4169E1" /><path d="M121.2 664.3h809.9v72.8H121.2zM229.7 790.7H391v72.8H229.7zM445.6 790.7h161.3v72.8H445.6zM661.6 790.7h161.3v72.8H661.6z" fill="#2c2c2c" /><path d="M814.2 994.9H229.3c-79.7 0-144.6-63.5-144.6-141.7V189.8c0-78.1 64.9-141.7 144.6-141.7h584.8c79.7 0 144.6 63.5 144.6 141.7v663.5c0 78.1-64.8 141.6-144.5 141.6zM229.3 121c-39.6 0-71.7 30.9-71.7 68.8v663.5c0 38 32.2 68.8 71.7 68.8h584.8c39.6 0 71.7-30.9 71.7-68.8V189.8c0-38-32.2-68.8-71.7-68.8H229.3z" fill="#2c2c2c" /></svg>