<?xml version="1.0" standalone="no"?><!DOCTYPE svg PUBLIC "-//W3C//DTD SVG 1.1//EN" "http://www.w3.org/Graphics/SVG/1.1/DTD/svg11.dtd"><svg class="icon" width="48px" height="43.85px" viewBox="0 0 1121 1024" version="1.1" xmlns="http://www.w3.org/2000/svg"><path d="M560.617211 577.329377m-243.086054 0a243.086053 243.086053 0 1 0 486.172107 0 243.086053 243.086053 0 1 0-486.172107 0Z" fill="#4169E1" /><path d="M999.691395 759.643917v142.813056h-15.192879c-35.247478 0-63.810089-28.562611-63.810089-63.810089 0-43.75549 35.247478-79.002967 79.002968-79.002967m-878.148368 0c43.75549 0 79.002967 35.247478 79.002967 79.002967 0 35.247478-28.562611 63.810089-63.810089 63.810089h-15.192878v-142.813056M560.617211 0h-10.331158C247.643917 5.469436 0 262.532938 0 565.478932V1024h136.735905c102.4 0 185.353116-82.953116 185.353116-185.353116 0-110.908012-89.637982-200.545994-200.545994-200.545994v-73.229673c0-239.135905 189.607122-437.554896 429.046884-443.024333h10.0273C802.791691 121.543027 999.691395 318.44273 999.691395 560.617211V638.10089c-110.908012 0-200.545994 89.637982-200.545994 200.545994 0 102.4 82.953116 185.353116 185.353115 185.353116h136.735905V560.617211C1121.234421 251.594065 869.640356 0 560.617211 0z" fill="#0D0A16" /></svg>