<?xml version="1.0" standalone="no"?><!DOCTYPE svg PUBLIC "-//W3C//DTD SVG 1.1//EN" "http://www.w3.org/Graphics/SVG/1.1/DTD/svg11.dtd"><svg class="icon" width="48px" height="35.41px" viewBox="0 0 1388 1024" version="1.1" xmlns="http://www.w3.org/2000/svg"><path d="M1121.52993 1023.999835h-155.823185a265.858835 265.858835 0 0 1-180.007208-69.938475 133.624171 133.624171 0 0 0-181.36363 0 265.925002 265.925002 0 0 1-180.040292 69.938475H266.719006a266.652839 266.652839 0 0 1-261.359482-319.123237L103.915207 213.454605A266.553588 266.553588 0 0 1 364.513769 0H1025.587842a266.355087 266.355087 0 0 1 260.797063 214.513276l96.636841 491.38891A266.652839 266.652839 0 0 1 1121.52993 1023.999835z m-426.776876-237.506294a266.024253 266.024253 0 0 1 180.007208 69.938474 134.021172 134.021172 0 0 0 90.681815 35.233905H1121.52993a134.318924 134.318924 0 0 0 131.804579-160.223288L1156.565334 240.020638A133.723421 133.723421 0 0 0 1025.587842 132.333915H364.513769a133.822672 133.822672 0 0 0-130.845159 107.190471L135.013677 730.913296a134.318924 134.318924 0 0 0 131.705329 160.752624h157.444275a134.021172 134.021172 0 0 0 90.681815-35.200822A266.024253 266.024253 0 0 1 694.753054 786.493541z" fill="#0D0A16" /><path d="M945.294239 690.849203a198.500873 198.500873 0 1 1 198.500872-198.500872 198.732457 198.732457 0 0 1-198.500872 198.500872z m0-264.66783a66.166958 66.166958 0 1 0 66.166957 66.166958 66.166958 66.166958 0 0 0-66.166957-66.166958z" fill="#4169E1" /><path d="M438.356094 690.849203a66.166958 66.166958 0 0 1-66.166958-66.166957v-264.66783a66.166958 66.166958 0 0 1 132.333915 0v264.66783a66.166958 66.166958 0 0 1-66.166957 66.166957z" fill="#4169E1" /><path d="M570.690009 558.515288h-264.66783a66.166958 66.166958 0 0 1 0-132.333915h264.66783a66.166958 66.166958 0 0 1 0 132.333915z" fill="#4169E1" /></svg>