<?xml version="1.0" standalone="no"?><!DOCTYPE svg PUBLIC "-//W3C//DTD SVG 1.1//EN" "http://www.w3.org/Graphics/SVG/1.1/DTD/svg11.dtd"><svg class="icon" width="48px" height="48.00px" viewBox="0 0 1024 1024" version="1.1" xmlns="http://www.w3.org/2000/svg"><path d="M385.468484 485.057167l325.524279-187.769146a19.690556 19.690556 0 0 1 29.142024 20.753847l-62.576588 325.524279a19.690556 19.690556 0 0 1-28.472545 13.704627l-262.90831-137.715752a19.690556 19.690556 0 0 1-0.70886-34.497855z" fill="#4F8DFC" /><path d="M886.908195 4.922639a39.381113 39.381113 0 0 1 58.205285 36.939484l-0.472574 4.213779-140.433048 827.003371a39.381113 39.381113 0 0 1-53.440171 29.969027l-4.25316-1.969056-299.847793-163.628524-0.787623 129.248812a39.381113 39.381113 0 0 1-35.04919 38.90854l-4.568209 0.236287a39.381113 39.381113 0 0 1-38.90854-35.049191l-0.236286-4.568209 1.181433-195.094033a39.381113 39.381113 0 0 1 54.070268-36.309386l4.174398 1.969055 309.220498 168.669307L853.355487 113.023794 160.917379 491.909481l110.660927 60.371246a39.381113 39.381113 0 0 1 17.682119 49.226391l-1.969055 4.174398a39.381113 39.381113 0 0 1-49.265772 17.721501l-4.174398-1.969056-173.906995-94.908482a39.381113 39.381113 0 0 1-4.331922-66.396556l4.292541-2.677916 827.003371-452.488987z" fill="#181818" /></svg>