<?xml version="1.0" standalone="no"?><!DOCTYPE svg PUBLIC "-//W3C//DTD SVG 1.1//EN" "http://www.w3.org/Graphics/SVG/1.1/DTD/svg11.dtd"><svg class="icon" width="48px" height="48.00px" viewBox="0 0 1024 1024" version="1.1" xmlns="http://www.w3.org/2000/svg"><path d="M945.230769 512H157.538462v118.153846a157.538462 157.538462 0 0 0 157.538461 157.538462h472.615385a157.538462 157.538462 0 0 0 157.538461-157.538462v-118.153846z" fill="#4F8DFC" /><path d="M481.910154 142.375385a78.769231 78.769231 0 0 1 106.574769 6.459077l4.253539 4.844307 185.107692 227.131077 127.566769-110.001231a59.076923 59.076923 0 0 1 97.595077 47.18277l-0.512 5.671384-54.862769 396.051693a78.769231 78.769231 0 0 1-71.876923 67.741538L869.612308 787.692308H193.772308a78.769231 78.769231 0 0 1-76.957539-61.912616l-1.063384-6.06523L60.888615 323.662769A59.076923 59.076923 0 0 1 153.206154 267.027692l4.765538 3.741539L285.538462 380.809846l185.107692-227.131077a78.769231 78.769231 0 0 1 11.264-11.303384z m49.782154 61.046153l-185.107693 227.131077a78.769231 78.769231 0 0 1-107.323077 13.981539l-5.159384-4.096-88.064-75.894154L193.772308 708.923077h675.84l47.694769-344.379077-88.024615 75.894154a78.769231 78.769231 0 0 1-108.11077-4.923077l-4.371692-4.962462-185.107692-227.091692z" fill="#181818" /><path d="M157.538462 866.461538m39.384615 0l669.538461 0q39.384615 0 39.384616 39.384616l0 0q0 39.384615-39.384616 39.384615l-669.538461 0q-39.384615 0-39.384615-39.384615l0 0q0-39.384615 39.384615-39.384616Z" fill="#181818" /></svg>