<?xml version="1.0" standalone="no"?><!DOCTYPE svg PUBLIC "-//W3C//DTD SVG 1.1//EN" "http://www.w3.org/Graphics/SVG/1.1/DTD/svg11.dtd"><svg class="icon" width="48px" height="48.00px" viewBox="0 0 1024 1024" version="1.1" xmlns="http://www.w3.org/2000/svg"><path d="M512 196.923077H78.769231v236.307692l67.150769 118.153846L78.769231 626.412308V827.076923h433.230769z" fill="#4F8DFC" /><path d="M945.230769 157.538462a78.769231 78.769231 0 0 1 78.769231 78.76923v198.892308a98.461538 98.461538 0 1 0 0 192.984615V787.692308a78.769231 78.769231 0 0 1-78.769231 78.76923H78.769231a78.769231 78.769231 0 0 1-78.769231-78.76923v-159.507693a98.461538 98.461538 0 1 0 0-192.984615V236.307692a78.769231 78.769231 0 0 1 78.769231-78.76923h866.461538zM78.769231 364.583385l4.411077 1.575384a177.309538 177.309538 0 0 1 0 331.067077L78.769231 698.761846V787.692308h866.461538v-88.930462l-4.411077-1.575384a177.309538 177.309538 0 0 1-113.545846-157.144616L827.076923 531.692308a177.309538 177.309538 0 0 1 113.742769-165.533539l4.411077-1.575384V236.307692H78.729846L78.769231 364.583385z" fill="#181818" /><path d="M354.461538 393.846154m39.384616 0l236.307692 0q39.384615 0 39.384616 39.384615l0 0q0 39.384615-39.384616 39.384616l-236.307692 0q-39.384615 0-39.384616-39.384616l0 0q0-39.384615 39.384616-39.384615Z" fill="#181818" /><path d="M354.461538 551.384615m39.384616 0l236.307692 0q39.384615 0 39.384616 39.384616l0 0q0 39.384615-39.384616 39.384615l-236.307692 0q-39.384615 0-39.384616-39.384615l0 0q0-39.384615 39.384616-39.384616Z" fill="#181818" /></svg>