<?xml version="1.0" standalone="no"?><!DOCTYPE svg PUBLIC "-//W3C//DTD SVG 1.1//EN" "http://www.w3.org/Graphics/SVG/1.1/DTD/svg11.dtd"><svg class="icon" width="48px" height="48.00px" viewBox="0 0 1024 1024" version="1.1" xmlns="http://www.w3.org/2000/svg"><path d="M157.538462 118.153846h708.923076v257.772308C710.892308 440.398769 592.738462 472.615385 512 472.615385s-198.892308-32.216615-354.461538-96.689231V118.153846z" fill="#4F8DFC" /><path d="M827.076923 39.384615a78.769231 78.769231 0 0 1 78.769231 78.769231v748.307692a78.769231 78.769231 0 0 1-78.769231 78.769231H196.923077a78.769231 78.769231 0 0 1-78.769231-78.769231V118.153846a78.769231 78.769231 0 0 1 78.769231-78.769231h630.153846z m0 78.769231H196.923077v748.307692h630.153846V118.153846z" fill="#181818" /><path d="M157.538462 196.923077a39.384615 39.384615 0 0 1 39.384615 39.384615c0 76.524308 76.8 150.252308 193.575385 201.137231a39.384615 39.384615 0 0 1-31.507693 72.192C216.576 447.527385 118.153846 353.161846 118.153846 236.307692a39.384615 39.384615 0 0 1 39.384616-39.384615z m708.923076 0a39.384615 39.384615 0 0 1 39.384616 39.384615c0 116.814769-98.304 211.140923-240.718769 273.289846a39.384615 39.384615 0 1 1-31.507693-72.192c112.915692-49.270154 188.455385-119.847385 193.220923-193.693538L827.076923 236.307692a39.384615 39.384615 0 0 1 39.384615-39.384615z" fill="#181818" /><path d="M512 315.076923a157.538462 157.538462 0 1 1 0 315.076923 157.538462 157.538462 0 0 1 0-315.076923z m0 78.769231a78.769231 78.769231 0 1 0 0 157.538461 78.769231 78.769231 0 0 0 0-157.538461z" fill="#181818" /></svg>