<?xml version="1.0" standalone="no"?><!DOCTYPE svg PUBLIC "-//W3C//DTD SVG 1.1//EN" "http://www.w3.org/Graphics/SVG/1.1/DTD/svg11.dtd"><svg class="icon" width="48px" height="48.00px" viewBox="0 0 1024 1024" version="1.1" xmlns="http://www.w3.org/2000/svg"><path d="M511.99827 448a64 64 0 1 0 64.014 64 64.128 64.128 0 0 0-64.016-64z m428.342-192c-21.754-39-81.02-101.5-232.55-83.75C664.78227 69.75 599.26627 0 511.99627 0s-152.78 69.75-195.792 172.25C164.67227 154.75 105.41027 217 83.65627 256 50.89827 314.75 53.64827 402.25 133.91427 512 53.64827 621.75 50.89827 709.25 83.65627 768c58.26 104.75 203.294 87.25 232.548 83.75C359.21427 954.25 424.72627 1024 511.99627 1024s152.786-69.75 195.794-172.25c29.258 3.5 174.288 21 232.55-83.75 32.758-58.75 30.008-146.25-50.26-256 80.268-109.75 83.018-197.25 50.26-256zM190.67827 704c-8-14.5-0.25-49.5 30.008-96.5a737.038 737.038 0 0 0 43.76 38.25c3.252 27.5 8 54.25 13.5 80.25-49.256 1.75-79.764-8.75-87.268-22z m73.77-325.75a737.012 737.012 0 0 0-43.762 38.25c-30.26-47-38.008-82-30.008-96.5 6.754-12.25 32.758-23 75.77-23 3.5 0 7.75 0.75 11.5 0.75a886.35 886.35 0 0 0-13.5 80.5zM511.99627 128c19.004 0 44.512 27 67.766 74.5-22.504 7.5-45.008 16-67.766 25.75a869.276 869.276 0 0 0-67.766-25.75C467.49027 155 492.99227 128 511.99827 128z m0 768c-19.004 0-44.508-27-67.766-74.5 22.508-7.5 45.012-16 67.766-25.75a870.46 870.46 0 0 0 67.766 25.75C556.50827 869 530.99827 896 511.99627 896z m0-224a160 160 0 1 1 160-160 160 160 0 0 1-160 160z m321.32 32c-7.25 13.25-38.008 23.75-87.268 22 5.504-26 10.254-52.75 13.504-80.25a735.712 735.712 0 0 0 43.756-38.25c30.26 47 38.008 82 30.008 96.5z m-30.008-287.5a735.738 735.738 0 0 0-43.758-38.25 884.976 884.976 0 0 0-13.504-80.5c3.75 0 8.004-0.75 11.504-0.75 43.008 0 69.016 10.75 75.766 23 8 14.5 0.25 49.5-30.008 96.5z" fill="#ffffff" /></svg>