<?xml version="1.0" standalone="no"?><!DOCTYPE svg PUBLIC "-//W3C//DTD SVG 1.1//EN" "http://www.w3.org/Graphics/SVG/1.1/DTD/svg11.dtd"><svg class="icon" width="48px" height="48.00px" viewBox="0 0 1024 1024" version="1.1" xmlns="http://www.w3.org/2000/svg"><path d="M325.85 477.418l17.644 61.31h-51.212l18.082-61.304c2.554-8.842 5.302-19.988 7.744-30.49 2.44 10.502 5.188 21.646 7.742 30.484z m332.948-64.198h-29.046v197.562h29.046c59.552 0 92.35-35.356 92.35-99.552 0-64.478-34.98-98.01-92.35-98.01zM1024 224v576c0 53.02-42.98 96-96 96H96c-53.02 0-96-42.98-96-96V224c0-53.02 42.98-96 96-96h832c53.02 0 96 42.98 96 96zM490.918 672.278l-114.194-336A24.002 24.002 0 0 0 354 320h-71.788a24.002 24.002 0 0 0-22.724 16.278l-114.194 336C140.006 687.844 151.578 704 168.018 704h58.266a24 24 0 0 0 23.07-17.386l17.148-59.812h102.734l17.586 59.954A24 24 0 0 0 409.852 704h58.344c16.44 0 28.012-16.156 22.722-31.722z m369.402-161.05c0-117.954-75.838-191.228-197.92-191.228h-114.732c-13.254 0-24 10.746-24 24v336c0 13.254 10.746 24 24 24H662.4c122.082 0 197.92-73.866 197.92-192.772z" fill="#ffffff" /></svg>