<?xml version="1.0" standalone="no"?><!DOCTYPE svg PUBLIC "-//W3C//DTD SVG 1.1//EN" "http://www.w3.org/Graphics/SVG/1.1/DTD/svg11.dtd"><svg class="icon" width="48px" height="48.00px" viewBox="0 0 1024 1024" version="1.1" xmlns="http://www.w3.org/2000/svg"><path d="M992.50118 405.04l-220-30.88 83.64-208.68c13.34-33.28-23.2-64.36-53.18-45.26L614.88118 240 546.70118 25.64C541.28118 8.54 526.64118 0 512.00118 0c-14.64 0-29.28 8.54-34.7 25.64l-68.18 214.38-188.08-119.78c-29.98-19.1-66.5 11.98-53.18 45.26l83.64 208.68-220 30.86c-35.08 4.92-43.36 52.54-12.06 69.34l196.32 105.32-148.96 167.08c-21.84 24.5-3.44 61.86 26.58 61.86 2.62 0 5.34-0.28 8.14-0.9l217.14-47.3-8.22 225.1c-0.86 23.3 17.74 38.44 36.82 38.44 10.3 0 20.78-4.42 28.4-14.36l136.36-177.8 136.36 177.8c7.62 9.94 18.08 14.36 28.4 14.36 19.08 0 37.68-15.14 36.82-38.44l-8.22-225.1 217.14 47.3c34.72 7.52 58.42-34.4 34.7-60.98l-148.96-167.08 196.32-105.32c31.28-16.78 23-64.4-12.08-69.32zM677.02118 623.36l-103.78-22.6 3.94 107.58L512.00118 623.36l-65.18 84.98 3.92-107.58-103.78 22.6 71.2-79.86-93.84-50.34 105.14-14.76-39.98-99.74 89.9 57.24L512.00118 333.44l32.58 102.46 89.9-57.24-39.98 99.74 105.14 14.76-93.84 50.34 71.22 79.86z" fill="#ffffff" /></svg>