<?xml version="1.0" standalone="no"?><!DOCTYPE svg PUBLIC "-//W3C//DTD SVG 1.1//EN" "http://www.w3.org/Graphics/SVG/1.1/DTD/svg11.dtd"><svg class="icon" width="48px" height="48.00px" viewBox="0 0 1024 1024" version="1.1" xmlns="http://www.w3.org/2000/svg"><path d="M886.24 736c6.016-10.816 9.76-23.04 9.76-33.952V321.92c0-10.944-3.744-23.136-9.76-33.92L512 512l374.24 224z" fill="#00599C" /><path d="M545.28 951.776l317.44-190.016c9.184-5.472 17.472-14.944 23.52-25.76L512 512 137.76 736c6.048 10.816 14.336 20.288 23.488 25.76l317.504 190.016c18.272 10.976 48.224 10.976 66.496 0z" fill="#004482" /><path d="M886.24 288c-6.048-10.816-14.336-20.288-23.488-25.76l-317.504-190.016c-18.272-10.976-48.224-10.976-66.496 0L161.248 262.24C142.976 273.184 128 300.064 128 321.952V702.08c0 10.944 3.744 23.136 9.76 33.952L512 512l374.24-224z" fill="#659AD2" /><path d="M513.216 768C371.392 768 256 653.152 256 512s115.392-256 257.216-256a258.432 258.432 0 0 1 220.192 123.584l-110.144 66.08A129.28 129.28 0 0 0 513.216 384c-70.912 0-128.608 57.408-128.608 128s57.696 128 128.64 128a129.28 129.28 0 0 0 109.824-61.344l110.4 65.696A258.432 258.432 0 0 1 513.216 768z" fill="#FFFFFF" /><path d="M736 495.84h-32V464h-32v31.84h-32v31.84h32v31.808h32v-31.84h32v-31.808zM864 496h-32v-32h-32v32h-32v32h32v32h32v-32h32v-32z" fill="#FFFFFF" /></svg>