<?xml version="1.0" standalone="no"?><!DOCTYPE svg PUBLIC "-//W3C//DTD SVG 1.1//EN" "http://www.w3.org/Graphics/SVG/1.1/DTD/svg11.dtd"><svg class="icon" width="48px" height="48.00px" viewBox="0 0 1024 1024" version="1.1" xmlns="http://www.w3.org/2000/svg"><path d="M512 64C264.48 64 64 264.48 64 512c0 198.24 128.256 365.664 306.304 425.024 22.4 3.936 30.816-9.504 30.816-21.28 0-10.624-0.576-45.888-0.576-83.424-112.544 20.704-141.664-27.456-150.624-52.64-5.024-12.864-26.88-52.64-45.92-63.264-15.68-8.416-38.08-29.12-0.576-29.696 35.296-0.576 60.48 32.48 68.896 45.92 40.32 67.744 104.736 48.736 130.496 36.96 3.904-29.12 15.68-48.736 28.544-59.936-99.68-11.2-203.84-49.824-203.84-221.184 0-48.736 17.344-89.056 45.92-120.416-4.48-11.2-20.16-57.12 4.48-118.72 0 0 37.504-11.744 123.2 45.92a415.68 415.68 0 0 1 112-15.104c38.08 0 76.16 5.024 112 15.104 85.664-58.24 123.2-45.888 123.2-45.888 24.64 61.568 8.96 107.52 4.48 118.72 28.576 31.36 45.92 71.104 45.92 120.384 0 171.904-104.736 210.016-204.384 221.184 16.224 14.016 30.208 40.896 30.208 82.88 0 59.936-0.544 108.096-0.544 123.2 0 11.776 8.384 25.76 30.784 21.28A448.704 448.704 0 0 0 960 512c0-247.52-200.48-448-448-448z" fill="#000000" /></svg>