<?xml version="1.0" standalone="no"?><!DOCTYPE svg PUBLIC "-//W3C//DTD SVG 1.1//EN" "http://www.w3.org/Graphics/SVG/1.1/DTD/svg11.dtd"><svg class="icon" width="48px" height="48.00px" viewBox="0 0 1024 1024" version="1.1" xmlns="http://www.w3.org/2000/svg"><path d="M512 64C264.64 64 64 264.64 64 512s200.64 448 448 448 448-200.64 448-448S759.36 64 512 64z m-0.8 42.72h0.064a2.848 2.848 0 0 0 0.736 0c185.216 0 341.44 124.288 389.76 293.92a705.216 705.216 0 0 1-171.584 223.84c-34.496 29.856-72.224 56.32-113.6 75.04-41.504 18.624-87.04 29.28-132.288 26.72a228.064 228.064 0 0 1-92.48-25.792 744.32 744.32 0 0 0 206.816-167.808c38.944-45.44 72.96-97.312 86.144-156.096 6.72-29.408 7.744-60.288 1.6-89.888a166.08 166.08 0 0 0-40.64-80 163.456 163.456 0 0 0-75.552-44.736 197.536 197.536 0 0 0-87.68-3.2c-57.984 10.656-109.696 44.256-150.912 85.856-72.8 73.312-117.696 176.768-109.44 280 4.16 51.616 21.344 102.272 50.976 144.736 5.824 8.352 12.32 16.224 19.04 23.808-40.832 14.08-82.912 24.192-125.696 30.08A405.088 405.088 0 0 1 511.2 106.72z m2.848 82.272c0.16-0.032 0.64 0.096 0.48 0.032 28.16 0 56.48 8.608 78.848 25.536a130.336 130.336 0 0 1 43.52 60.704c8.288 24.16 10.944 49.92 7.808 75.264-5.824 50.624-31.36 97.248-62.432 138.176-55.168 72.416-128.544 130.464-210.144 171.04-7.712 3.872-15.68 7.616-23.68 11.2a208.288 208.288 0 0 1-42.784-52.768c-24-42.528-31.904-93.024-27.264-141.824 4.704-48.832 21.44-95.936 44.064-139.68 26.176-50.656 61.76-98.496 111.264-125.856a168.64 168.64 0 0 1 80.32-21.856v0.032z m400.32 277.344c1.728 14.944 2.88 30.08 2.88 45.504 0 223.872-181.28 405.344-405.216 405.344a403.936 403.936 0 0 1-309.12-143.744 738.304 738.304 0 0 0 129.12-43.2 252.48 252.48 0 0 0 61.376 34.24c64.768 24.832 138.144 21.184 203.456-1.44 65.28-22.592 123.04-63.072 173.344-110.176a743.872 743.872 0 0 0 144.192-186.528z" fill="#000000" /></svg>