<?xml version="1.0" standalone="no"?><!DOCTYPE svg PUBLIC "-//W3C//DTD SVG 1.1//EN" "http://www.w3.org/Graphics/SVG/1.1/DTD/svg11.dtd"><svg class="icon" width="48px" height="48.00px" viewBox="0 0 1024 1024" version="1.1" xmlns="http://www.w3.org/2000/svg"><path d="M512 512m-448 0a448 448 0 1 0 896 0 448 448 0 1 0-896 0Z" fill="#231F20" /><path d="M529.344 445.088v274.496s-156.48-28.736-156.48-137.824c0-87.04 115.84-125.44 156.48-136.672z m0-5.152c-94.048-6.912-307.232 37.952-307.232 136.064 0 64 112.896 157.536 296.768 160 7.232 0 216.128-8.192 212.896-236.32-2.688-191.552-143.648-225.12-188.736-230.976v-11.68C722.72 268.608 864 378.624 864 512 864 653.12 705.92 768 511.584 768 317.248 768 160 653.12 160 512s157.248-256 351.584-256c5.984 0 11.904 0.128 17.76 0.32v183.616z" fill="#FFFFFF" /></svg>