<?xml version="1.0" standalone="no"?><!DOCTYPE svg PUBLIC "-//W3C//DTD SVG 1.1//EN" "http://www.w3.org/Graphics/SVG/1.1/DTD/svg11.dtd"><svg class="icon" width="48px" height="48.00px" viewBox="0 0 1024 1024" version="1.1" xmlns="http://www.w3.org/2000/svg"><path d="M512 512m-448 0a448 448 0 1 0 896 0 448 448 0 1 0-896 0Z" fill="#5FCF80" /><path d="M765.472 330.176c-25.504-15.264-54.272-36.672-80.896-9.28-33.088 46.944-93.76 110.176-62.816 171.616 12.512 23.584 33.184 41.184 49.792 61.664 9.76 10.016 14.912 23.072 13.024 37.248-2.24 19.2-17.536 34.336-36.224 36.64-24.896 2.912-46.4-17.44-46.4-42.464-2.24-13.376 1.152-43.648-21.472-47.136-14.72-2.304-33.408 21.536-43.008 52.96-7.68 25.92-3.392 48-3.392 73.888 0 27.712-20.096 52.64-49.792 49.44a46.208 46.208 0 0 1-39.616-38.976c-2.496-16.16 4.48-32.608 14.144-45.376 9.6-14.528 24.32-36.64 31.68-57.024 7.936-21.504 19.552-38.688 4.544-50.016-15.04-11.36-78.816 83.552-113.76 77.376-15.84-2.912-28.288-16.32-31.104-32-4.512-23.872 10.752-44.8 31.68-48.864 24.576-4.48 97.408-31.872 89.408-61.696-7.264-25.408-69.76 21.664-89.984 19.776-19.2-0.576-34.496-17.44-35.072-37.216 0-22.144 17.664-37.824 39.04-37.824 25.056 0 49.792 10.56 75.264 4.64 65.248-14.464 89.696-72.64 122.24-124.48 15.264-24.448 7.904-57.6-16.992-72.16-30.56-17.024-62.144-27.136-95.04-7.552l-212.8 126.816C237.056 342.4 224 365.696 224 390.72v243.2c0 25.024 13.024 48.32 33.92 60.512l213.344 126.24c24.896 15.136 56 15.136 81.472 0L766.08 694.4c20.928-12.224 33.952-35.52 33.952-60.48v-243.2c-0.576-25.056-13.568-48.32-34.528-60.544z" fill="#FFFFFF" /></svg>