<?xml version="1.0" standalone="no"?><!DOCTYPE svg PUBLIC "-//W3C//DTD SVG 1.1//EN" "http://www.w3.org/Graphics/SVG/1.1/DTD/svg11.dtd"><svg class="icon" width="48px" height="48.00px" viewBox="0 0 1024 1024" version="1.1" xmlns="http://www.w3.org/2000/svg"><path d="M960 512c0 247.296-200.48 448-448 448S64 759.296 64 512C64 264.48 264.48 64 512 64s448 200.48 448 448z" fill="#283544" /><path d="M721.984 398.624c-2.432 1.44-60.64 31.552-60.64 98.24 2.752 76.16 73.44 102.816 74.656 102.816-1.216 1.44-10.688 36.352-38.72 72.96-22.208 31.552-46.912 63.36-84.384 63.36-35.648 0-48.448-21.024-89.6-21.024-44.192 0-56.704 21.024-90.528 21.024-37.472 0-64-33.504-87.456-64.736-30.464-40.896-56.352-105.088-57.28-166.72-0.64-32.64 6.08-64.736 23.168-92 24.064-38.08 67.04-63.904 113.952-64.736 35.968-1.152 67.968 23.008 89.92 23.008 21.024 0 60.32-23.04 104.8-23.04 19.2 0.032 70.4 5.44 102.112 50.88z m-209.952-57.344c-6.4-29.824 11.264-59.648 27.712-78.656 21.024-23.04 54.24-38.624 82.88-38.624a106.688 106.688 0 0 1-30.464 80.352c-18.56 23.04-50.56 40.32-80.128 36.928z" fill="#FFFFFF" /></svg>