<?xml version="1.0" standalone="no"?><!DOCTYPE svg PUBLIC "-//W3C//DTD SVG 1.1//EN" "http://www.w3.org/Graphics/SVG/1.1/DTD/svg11.dtd"><svg class="icon" width="48px" height="48.00px" viewBox="0 0 1024 1024" version="1.1" xmlns="http://www.w3.org/2000/svg"><path d="M0 347.744v29.856h193.728v-29.856H0zM0 317.856h193.728V288H0v29.856zM221.408 347.744v29.856h330.176a116.224 116.224 0 0 0-9.696-29.856H221.44zM520.832 317.856H221.408V288h229.216c27.136 0 51.84 11.328 70.208 29.856zM581.184 347.744v29.856h189.76l-7.872-29.856h-181.888zM755.168 317.856h-173.984V288h166.08l7.904 29.856zM842.144 347.744l-7.904 29.856H1024v-29.856h-181.856zM1024 317.856h-173.952L857.92 288H1024v29.856zM968.64 407.456h-142.336l-7.904 29.888h150.24v-29.888zM968.64 467.2h-158.144l-7.904 29.856-7.904-29.856h-158.144v29.856h83.04V467.2l9.216 29.856h147.584l9.248-29.856v29.856h83.008V467.2zM968.64 526.944h-83.008v29.856h83.008v-29.856zM968.64 586.656h-83.008v29.888h83.008v-29.888zM1024 646.4h-138.368v29.856H1024V646.4zM1024 706.144h-138.368V736H1024v-29.856zM0 736h193.728v-29.856H0V736zM0 676.256h193.728V646.4H0v29.856zM55.36 616.544h83.008v-29.888H55.36v29.888zM55.36 556.8h83.008v-29.856H55.36v29.856zM55.36 497.056h83.008V467.2H55.36v29.856zM55.36 437.344h83.008v-29.888H55.36v29.888zM276.768 407.456v29.888h83.008v-29.888H276.8zM456.64 407.456v29.888h90.56c3.232-9.472 5.28-19.488 6.016-29.888H456.64zM636.544 407.456v29.888h150.24l-7.904-29.888h-142.336zM531.84 467.2H276.8v29.856h222.24c12.832-7.36 24-17.6 32.832-29.856zM499.008 526.944H276.768v29.856h255.072a105.504 105.504 0 0 0-32.864-29.856zM547.2 586.656h-104.384v29.888h110.4a118.08 118.08 0 0 0-5.984-29.888zM636.544 616.544v-29.888h83.04v29.888h-83.04zM719.552 646.4h-138.368v29.856h138.4V646.4zM784.16 676.256l-9.248-29.856h55.36l-9.216 29.856h-36.928zM719.552 706.144h-138.368V736h138.4v-29.856zM450.624 736c27.136 0 51.84-11.328 70.208-29.856H221.408V736h229.216zM221.408 676.256h320.48c4.48-9.28 7.776-19.296 9.696-29.856H221.44v29.856zM276.768 616.544h83.008v-29.888H276.8v29.888zM793.376 706.144h18.432l-9.216 29.856-9.216-29.856zM839.488 616.544h-73.792l-9.216-29.888h92.256l-9.248 29.888zM857.92 556.8l9.28-29.856h-129.184l9.216 29.856h110.72zM719.552 556.8h-83.008v-29.856h83.04v29.856z" fill="#1F70C1" /></svg>