<?xml version="1.0" standalone="no"?><!DOCTYPE svg PUBLIC "-//W3C//DTD SVG 1.1//EN" "http://www.w3.org/Graphics/SVG/1.1/DTD/svg11.dtd"><svg class="icon" width="48px" height="48.00px" viewBox="0 0 1024 1024" version="1.1" xmlns="http://www.w3.org/2000/svg"><path d="M512 512m-448 0a448 448 0 1 0 896 0 448 448 0 1 0-896 0Z" fill="#036CB5" /><path d="M510.464 192c49.92 0 97.44 11.616 140.064 32.384 6.72 3.072 13.44 6.72 20.096 10.4l-29.216 26.304-43.84-45.856-75.52 67.232-44.448-48.32-138.848 125.344 88.896 98.432-34.72 30.56 87.712 98.4-34.688 30.56 125.44 140 74.24-68.48 64.608 73.376c-12.8 9.792-26.816 19.584-42.016 28.128A317.344 317.344 0 0 1 511.104 832C335.104 832 192 688.384 192 511.712 191.36 336.256 334.496 192 510.464 192z m-58.464 300.16l76.16-68.48 68.16 76.416-76.096 68.48-68.224-76.416z m54.208 132.032l75.52-69.088 68.8 76.416-76.096 68.48-68.224-75.808z m-108.352-262.24l76.096-68.48 68.192 76.416-76.128 68.48-68.16-76.416z m139.424-36.704l56.64-51.328 51.136 56.832-56.64 51.968-51.136-57.472z m101.088 235.36l56.64-51.36 51.136 57.472-56.64 51.36-51.136-57.472z m49.92 115.52l56.64-51.328 51.136 56.864-56.64 51.936-51.136-57.44z m23.136-264.064l37.76-34.24 34.112 37.92-37.76 34.24-34.112-37.92zM662.72 298.976l37.76-34.848 34.112 38.528-37.76 34.24-34.112-37.92z m96.832 226.176l37.76-34.24L832 528.864l-38.336 34.24-34.112-37.92z m-169.92-84.96l56.64-51.36 51.168 56.864-56.64 51.328-51.168-56.832z" fill="#FFFFFF" /></svg>