<?xml version="1.0" standalone="no"?><!DOCTYPE svg PUBLIC "-//W3C//DTD SVG 1.1//EN" "http://www.w3.org/Graphics/SVG/1.1/DTD/svg11.dtd"><svg class="icon" width="48px" height="48.00px" viewBox="0 0 1024 1024" version="1.1" xmlns="http://www.w3.org/2000/svg"><path d="M512 64C264.896 64 64 264.896 64 512s200.896 448 448 448 448-200.896 448-448S759.104 64 512 64z" fill="#333333" /><path d="M665.92 577.216a482.56 482.56 0 0 0-3.968-5.568c-10.72-14.944-20.928-29.184-20.928-57.728v-106.368c0-3.712 0-7.36 0.064-11.04 0.224-40.768 0.416-78.016-28.992-106.464C586.88 264.864 544.96 256 512.896 256c-62.656 0-132.576 24.256-147.264 104.576-1.536 8.544 4.448 12.992 9.856 14.272l63.84 7.136c5.952-0.32 10.272-6.4 11.424-12.512 5.472-27.712 27.84-40.992 52.96-40.992 13.536 0 28.928 5.12 36.96 17.728 8.256 12.576 8.128 29.344 8 44.352V404.64a1665.6 1665.6 0 0 1-18.56 1.984c-34.784 3.648-75.104 7.872-105.312 21.632-41.28 18.496-70.208 56.192-70.208 111.584 0 70.976 43.104 106.496 98.56 106.496 46.816 0 72.448-11.488 108.576-49.664l4.96 7.584c8.608 13.28 14.24 21.952 32.8 37.952a13.472 13.472 0 0 0 15.712-1.472 2916.544 2916.544 0 0 1 50.496-45.344c5.376-4.576 4.416-12 0.224-18.176z m-129.6-30.688c-10.432 19.264-27.104 31.04-45.6 31.04-25.216 0-40.032-19.968-40.032-49.504 0-58.176 50.336-68.736 97.952-68.736l0.064 10.496c0.224 26.336 0.48 53.184-12.384 76.704z" fill="#FFFFFF" /><path d="M744.64 693.312C681.6 742.048 590.144 768 511.424 768c-110.304 0-209.696-42.72-284.864-113.888-5.92-5.6-0.64-13.216 6.432-8.896 81.152 49.504 181.44 79.264 285.056 79.264 69.92 0 146.752-15.168 217.44-46.624 10.656-4.736 19.584 7.36 9.152 15.456z" fill="#FFFFFF" /><path d="M697.28 659.36c20.256-2.56 65.536-8.256 73.6 2.56 8.064 10.784-8.896 55.2-16.512 75.2l-0.064 0.16c-2.304 6.048 2.624 8.448 7.84 3.872 33.856-29.632 42.56-91.776 35.648-100.8-6.88-8.864-66.016-16.544-102.112 10.016-5.568 4.128-4.608 9.728 1.6 8.96z" fill="#FFFFFF" /></svg>