<?xml version="1.0" standalone="no"?><!DOCTYPE svg PUBLIC "-//W3C//DTD SVG 1.1//EN" "http://www.w3.org/Graphics/SVG/1.1/DTD/svg11.dtd"><svg class="icon" width="48px" height="48.00px" viewBox="0 0 1024 1024" version="1.1" xmlns="http://www.w3.org/2000/svg"><path d="M512 512m-448 0a448 448 0 1 0 896 0 448 448 0 1 0-896 0Z" fill="#028CB0" /><path d="M206.56 512c0 121.024 70.4 225.28 172.224 274.816L233.12 387.744A304.32 304.32 0 0 0 206.56 512zM512 817.44a308.736 308.736 0 0 0 101.536-17.344l-2.176-4.064-93.952-257.216-91.52 266.144c27.072 8.128 56.064 12.48 86.112 12.48z m41.952-448.672l110.496 328.448 30.592-101.824c12.992-42.24 23.04-72.576 23.04-98.816 0-37.92-13.568-63.904-24.96-83.936-15.68-25.472-30.048-46.848-30.048-71.776 0-28.16 21.12-54.144 51.456-54.144h3.808A304.32 304.32 0 0 0 512 206.56a305.152 305.152 0 0 0-255.04 137.568l19.456 0.544c31.968 0 81.248-4.064 81.248-4.064 16.768-0.832 18.688 23.264 2.176 25.184 0 0-16.512 2.176-35.2 2.976l111.552 330.88 66.88-200.384-47.68-130.496a544.672 544.672 0 0 1-31.936-2.72c-16.512-1.088-14.624-26.24 1.92-25.44 0 0 50.336 4.064 80.384 4.064 31.968 0 81.248-4.064 81.248-4.064 16.512-0.832 18.688 23.264 2.144 25.184 0 0-16.512 1.888-35.2 2.976z m111.584 407.232a305.44 305.44 0 0 0 114.528-410.496 288.384 288.384 0 0 1-21.12 140.8l-93.44 269.696zM512 864a352 352 0 1 1 0-704 352 352 0 0 1 0 704z" fill="#FFFFFF" /></svg>