<?xml version="1.0" standalone="no"?><!DOCTYPE svg PUBLIC "-//W3C//DTD SVG 1.1//EN" "http://www.w3.org/Graphics/SVG/1.1/DTD/svg11.dtd"><svg class="icon" width="48px" height="48.00px" viewBox="0 0 1024 1024" version="1.1" xmlns="http://www.w3.org/2000/svg"><path d="M512 512m-448 0a448 448 0 1 0 896 0 448 448 0 1 0-896 0Z" fill="#3C60A7" /><path d="M254.944 477.12c-0.064-25.664 18.88-41.664 40.672-42.176 5.248-0.064 11.52 2.464 16.8 4.576 1.92 0.768 3.712 1.504 5.248 2.016 5.44 1.824 6.688 1.408 8.96 1.6 4.896 0.32 11.168 0.064 12.32-5.024h5.44l-12.8 43.328h-4.992c-2.08-17.12-8.832-33.472-24.384-33.28-8.32 0.128-16.704 3.392-19.36 15.072-3.264 14.112 3.84 22.624 22.048 40.256 11.776 11.52 20.8 21.376 20.864 35.968 0.16 28.16-22.528 43.264-45.664 43.328-9.824 0.064-15.52-2.144-20.16-3.936a23.296 23.296 0 0 0-9.664-2.24l-1.728 0.064c-4.96 0.064-13.472 0.224-14.88 4.96h-5.44l14.272-51.84h5.44c-5.184 21.76 7.936 39.808 26.72 39.808 12.704 0 24.48-11.104 24.8-18.208 0.544-13.856-1.92-16.096-9.632-23.2-3.136-2.88-7.104-6.528-12.064-12.032l-2.08-2.304c-10.496-11.584-20.64-22.816-20.736-36.768zM348.64 449.28l1.6-8.48h47.52l-2.336 8.512c-8.224 0-8.16 4.384-8.128 7.456V521.6l1.184-0.768 31.328-50.56v-12.032c0.064-6.592-3.104-8.768-10.464-8.96l1.6-8.48h48.768l-1.6 8.512c-7.008 0-9.504 0.16-9.28 9.28 0.096 1.824 0 4.16 0 6.56v53.344l0.768 1.184 36-58.784a12.576 12.576 0 0 0 1.92-7.36c-0.256-4.672-4.544-4.544-11.328-4.32-1.504 0.032-3.2 0.096-4.96 0.096l1.6-8.512h43.744l-1.92 8.512c-8.256 0.16-10.688 4.16-13.952 10.016 0 0-70.976 117.12-74.304 122.24-3.36 5.056-6.592 0-6.592 0l0.416-87.424v-2.688s-51.36 85.088-54.528 90.176c-3.2 5.088-5.44 0-5.44 0v-116.48c0-15.84-3.04-15.84-11.36-15.84h-0.256zM521.6 449.28l1.6-8.48h56.672l-1.92 8.512c-10.176 0.16-16.96 1.088-19.712 10.432l-27.04 99.84-0.8 2.4c-0.544 1.568-1.056 3.008-1.12 4.544v0.448c-0.192 3.36-0.32 5.984 9.28 6.144l-1.92 8.512h-56.896l1.6-8.512c10.592 0.064 18.56-3.424 20.128-10.016l26.72-99.456c0.928-3.648 2.08-6.592 1.92-8.512-0.416-4.48-4.512-6.016-8.512-5.824zM585.92 449.28l1.92-8.48h97.856l-10.048 37.472h-5.44c1.376-23.04-8.416-25.728-24.768-25.536h-1.536c-8 0.128-9.28 0.128-12.736 12l-8.544 34.08h5.44c4.256 0.16 16.128 0 21.696-14.272l5.44 0.736-10.016 41.408h-6.592a34.88 34.88 0 0 1-0.256-4c0-1.664-0.032-3.552-0.16-5.664-0.32-6.368-3.68-7.872-15.456-7.776h-2.688l-12.352 42.56c-0.544 2.752-1.408 5.952-2.016 8.16l-0.32 1.12c-2.656 10.176 2.688 12.032 15.872 12.032l-2.336 8.512h-60.384l2.336-8.512c7.616-0.256 13.856-3.008 15.872-12.032l25.92-96.672c0.8-3.52 0.064-2.496 0.736-4.672 2.816-9.024-7.104-9.728-15.264-10.272a270.4 270.4 0 0 1-2.208-0.16zM683.008 478.272l10.432-37.472h96.384l-10.016 37.472h-5.856c1.28-17.536-2.752-25.536-22.784-25.536l-26.336 100.16c-0.544 2.496-1.184 4.736-1.728 6.656-0.384 1.28-0.704 2.4-0.928 3.36-1.6 6.272 3.424 11.616 11.616 10.88l-1.6 7.744h-63.872l1.92-8.512h0.576c12-0.256 21.504-0.448 23.36-17.024l28.256-103.264c-10.784 0-17.6 2.24-24 7.744-5.632 5.056-6.176 6.944-8.544 15.36l-0.704 2.432h-6.176zM443.84 575.04c0.928-5.12 4.448-9.28 7.776-9.28 3.328 0 5.504 4.16 4.672 9.28-0.928 5.088-4.416 9.28-7.776 9.28-3.424 0-5.504-4.192-4.672-9.28zM542.88 575.04c0.928-5.12 4.448-9.28 7.776-9.28 3.328 0 5.504 4.16 4.672 9.28-0.928 5.088-4.416 9.28-7.776 9.28-3.424 0-5.504-4.192-4.672-9.28zM628.064 575.04c0.928-5.12 4.416-9.28 7.776-9.28 3.328 0 5.088 4.16 4.256 9.28-0.928 5.088-4.448 9.28-7.776 9.28-3.328 0-5.12-4.192-4.256-9.28zM323.52 575.36c0.832-5.088 4-9.28 7.36-9.28 3.328 0.096 5.504 4.192 4.672 9.28-0.96 5.12-4.448 9.28-7.776 9.28-3.328 0-5.12-4.16-4.256-9.28zM741.792 575.36c0.928-5.088 4.448-9.28 7.776-9.28 3.328 0.096 5.504 4.192 4.672 9.28-0.928 5.12-4.416 9.28-7.776 9.28-3.424 0-5.504-4.16-4.672-9.28z" fill="#FFFFFF" /><path d="M387.424 806.88A318.208 318.208 0 0 0 512 832c43.2 0 85.12-8.512 124.576-25.28a319.136 319.136 0 0 0 101.728-68.544A319.04 319.04 0 0 0 832 511.936a319.04 319.04 0 0 0-93.696-226.24A319.136 319.136 0 0 0 512 192a318.208 318.208 0 0 0-226.304 93.824A319.04 319.04 0 0 0 192 512.064a319.04 319.04 0 0 0 93.696 226.24 319.104 319.104 0 0 0 101.696 68.576z m132.416 6.752v-84.64h94.88c-9.6 12.576-20.288 24.704-32.064 36.224a333.344 333.344 0 0 1-62.816 48.416z m-78.4-48.992a313.824 313.824 0 0 1-31.392-35.648h93.12V812.8a330.752 330.752 0 0 1-61.76-48.16z m31.136 48.064a300.896 300.896 0 0 1-172.512-83.712h89.344c11.68 16.864 25.376 32.864 40.768 48 15.84 15.616 31.04 27.52 42.4 35.712z m121.344-35.2c15.616-15.2 29.472-31.488 41.408-48.512h88.544a300.736 300.736 0 0 1-171.968 83.648c11.872-8.512 26.656-20.224 42.016-35.168z m145.888-65.216h-93.536a283.2 283.2 0 0 0 35.584-89.408h112.736a302.848 302.848 0 0 1-54.784 89.408z m-113.312 0h-106.656v-89.504h144.896a267.232 267.232 0 0 1-38.24 89.504z m-123.36 0h-104.864a243.68 243.68 0 0 1-4.544-7.136l-2.144-3.488a266.784 266.784 0 0 1-31.328-78.784h142.88v89.408z m-124.576 0H284.16a300.416 300.416 0 0 1-54.784-89.504h113.824a281.664 281.664 0 0 0 34.24 87.68c0.32 0.64 0.736 1.216 1.088 1.824z m421.952-106.112H223.392a306.432 306.432 0 0 1-0.064-187.84H800.64c9.696 29.792 14.72 61.344 14.72 93.664 0 32.48-5.12 64.192-14.88 94.176z m-5.76-204.64h-115.648a284.576 284.576 0 0 0-34.176-88.064l-0.64-0.96-0.192-0.384h96.128a300.224 300.224 0 0 1 54.528 89.408z m-132.672 0h-142.24V312.064h104.64a269.696 269.696 0 0 1 37.568 89.504z m-158.944 0h-145.12a266.176 266.176 0 0 1 38.336-89.408h106.784v89.408z m-162.24 0h-111.68a300.32 300.32 0 0 1 54.56-89.408h92.864a279.328 279.328 0 0 0-35.744 89.408z m383.552-106.112h-91.04a348.544 348.544 0 0 0-40.832-48.736 364.064 364.064 0 0 0-41.6-35.584 301.408 301.408 0 0 1 173.44 84.32z m-111.584 0h-93.024V210.368c9.28 5.504 34.176 21.632 60.96 48.16 11.776 11.776 22.56 24.064 32.064 36.896z m-109.728 0H408.32c9.76-12.768 20.704-25.12 32.8-36.704 26.88-26.144 52.192-42.08 62.08-47.84v84.544z m-115.552 0h-88a301.28 301.28 0 0 1 172.256-84.16c-11.936 8.544-26.656 20.16-42.016 35.008-15.936 15.424-30.08 31.872-42.24 49.152z" fill="#FFFFFF" /></svg>