<?xml version="1.0" standalone="no"?><!DOCTYPE svg PUBLIC "-//W3C//DTD SVG 1.1//EN" "http://www.w3.org/Graphics/SVG/1.1/DTD/svg11.dtd"><svg class="icon" width="48px" height="48.00px" viewBox="0 0 1024 1024" version="1.1" xmlns="http://www.w3.org/2000/svg"><path d="M182.912 934.976l-110.08-137.12A184.096 184.096 0 0 1 32 682.56V186.08c0-62.528 50.048-114.432 114.56-118.848l510.464-34.848a166.4 166.4 0 0 1 104.416 27.936l179.328 121.248A114.88 114.88 0 0 1 992 276.608v564.48c0 61.184-49.184 111.84-112.384 115.744L313.056 991.68c-50.432 3.104-99.168-18.144-130.144-56.736z" fill="#FFFFFF" /><path d="M359.936 434.528v-6.496c0-16.48 13.216-30.144 30.208-31.296l123.872-8.256 171.328 252.256v-221.408l-44.096-5.888v-3.072c0-16.672 13.504-30.4 30.72-31.296l112.736-5.76v16.192a15.84 15.84 0 0 1-13.44 15.456l-27.136 4.576v358.592l-34.016 11.68c-28.48 9.792-60.128-0.672-76.384-25.248l-166.336-250.976v239.552l51.2 9.792-0.704 4.736c-2.24 14.88-15.104 26.144-30.624 26.816l-127.328 5.696c-1.696-16 10.304-30.304 26.848-32.064l16.736-1.76v-319.36l-43.584-2.464z" fill="#000000" /><path d="M661.6 94.944L151.136 129.792c-30.56 2.08-54.272 26.656-54.272 56.288V682.56c0 27.84 9.6 54.88 27.232 76.864l110.08 137.12a88.896 88.896 0 0 0 74.752 32.576l566.56-34.88c29.024-1.76 51.616-25.056 51.616-53.184V276.608a52.8 52.8 0 0 0-23.52-43.648l-179.328-121.28a99.84 99.84 0 0 0-62.656-16.736z m-485.12 98.88c-7.104-5.248-3.744-16.192 5.184-16.832l483.36-34.688c15.424-1.088 30.72 3.136 43.168 11.968l96.96 68.704c3.712 2.624 1.984 8.256-2.56 8.48l-511.904 27.84a66.432 66.432 0 0 1-43.104-12.8L176.448 193.792z m90.208 152.768c0-16.64 13.44-30.4 30.592-31.296l541.216-29.504c16.736-0.896 30.848 11.968 30.848 28.16v488.768c0 16.608-13.408 30.336-30.528 31.296l-537.792 30.624c-18.624 1.056-34.336-13.28-34.336-31.328v-486.72z" fill="#000000" /></svg>