<?xml version="1.0" standalone="no"?><!DOCTYPE svg PUBLIC "-//W3C//DTD SVG 1.1//EN" "http://www.w3.org/Graphics/SVG/1.1/DTD/svg11.dtd"><svg class="icon" width="48px" height="48.00px" viewBox="0 0 1024 1024" version="1.1" xmlns="http://www.w3.org/2000/svg"><path d="M468.416 276.096c-16.768-9.152-37.792-6.56-54.272 2.112-24.256 13.088-40.96 36.448-53.12 60.544-12.992 24.768-18.368 52.448-20.896 80a29.504 29.504 0 0 1-24.384-22.528c-4.48-13.728-1.504-27.744 1.408-41.472 0.672-3.296 1.376-6.56 1.952-9.824 1.056-3.712-0.864-6.912-2.72-9.984-0.576-0.96-1.12-1.92-1.6-2.88-10.176-0.64-20.576 4.384-25.216 13.728-13.856 25.92-12.64 60.864 6.528 83.84 11.008 13.92 28.352 20.8 45.6 22.656 5.824 17.92 17.184 35.392 35.456 42.432 22.4 9.024 46.944-0.416 66.368-12.16l-0.256 2.912c-0.576 6.272-1.184 12.608-3.328 18.56a84.064 84.064 0 0 1-15.52 9.184c-2.432 1.216-4.896 2.432-7.264 3.776l-2.112 1.12c-36.8 19.392-74.176 39.072-105.088 67.328-22.976 21.536-41.024 50.208-44.48 81.952-1.696 24.96 8.256 52.384 30.112 66.112 22.848 15.136 52.992 14.272 77.888 4.896 31.424-11.968 54.848-38.624 70.304-67.68 22.912-41.152 26.848-89.152 30.176-135.232 0.192-1.184 0.32-2.464 0.416-3.808 0.352-4.672 0.768-9.728 5.696-11.52a1117.632 1117.632 0 0 0 108.544-69.152c4.128 5.056 8.192 10.144 12.064 15.36-17.92 10.688-35.744 22.176-49.28 38.336-50.496 55.264-51.328 150.112 1.6 204.032 27.104 28.576 68.704 40.768 107.232 35.072a120.032 120.032 0 0 0 85.504-58.176c23.808-39.328 19.936-94.304-11.04-128.608-28.992-32-85.376-31.36-113.696 1.12-22.272 23.424-23.04 64.896 0.256 87.84 9.408 9.408 25.824 15.072 37.664 6.976 7.616-5.472 6.88-17.216 0.736-23.584l-0.352-0.448c-7.872-9.504-16.96-20.48-14.624-33.728 2.368-17.472 21.888-28.16 38.336-24.448 14.08 2.208 25.28 13.184 30.528 26.08 12.32 29.312 5.344 65.632-16.8 88.48-23.424 24.448-64.224 28.288-92.48 10.176-25.152-15.456-39.424-44.16-43.84-72.608-4.64-34.272 1.92-71.296 23.2-99.264 13.728-17.696 32.832-32.256 54.816-37.504 3.136 0.224 6.272 0.544 9.408 0.832 15.488 1.44 31.264 2.912 46.272-1.984 8.512-2.88 16.8-12.448 12.48-21.76-4.704-9.536-16.192-12.416-25.792-14.4-12.32-2.464-24.576 0-36.672 2.464l-5.888 1.184c-9.76-3.36-14.944-13.632-18.56-22.688 27.168-20.288 54.016-42.368 72.48-71.232 10.72-17.376 17.728-38.688 12.672-59.072-3.968-13.504-15.04-24.96-29.184-27.552-23.552-5.92-47.648 5.952-63.648 22.816-25.728 27.936-38.752 66.624-37.568 104.352a56 56 0 0 0 0.64 9.28c0.576 4.8 1.152 9.632-0.192 14.208-14.624 11.776-30.592 21.824-46.496 31.872-5.056 3.2-10.112 6.368-15.104 9.6-3.648 2.112-7.264 4.352-10.88 6.56-8.128 5.024-16.32 10.08-25.088 13.952 0.224-12.032 0.832-24.192 4.288-35.776 3.2-4.48 6.784-8.672 10.304-12.928 6.432-7.68 12.864-15.36 17.536-24.288 5.312-9.568 10.336-21.664 4.8-32.224-5.056-7.808-16.256-7.04-23.616-3.168-15.648 7.872-24.224 24.416-30.528 39.968a83.136 83.136 0 0 0-3.264 9.568c-2.208 7.392-4.384 14.848-10.816 19.712-12.896 11.264-28.448 22.592-46.368 21.952-10.24 0.032-17.056-9.6-19.2-18.624 28.32-11.008 51.936-31.52 71.104-54.72 17.728-22.784 31.84-49.696 34.24-78.88 1.312-14.72-3.936-31.36-17.376-39.04z m-72.96 75.296c8.576-17.28 18.56-35.072 34.88-46.208 6.624-4.992 17.472-2.88 20.576 5.152 2.4 9.92-1.248 19.968-5.44 28.8-12.032 24.48-29.92 45.728-50.4 63.552a63.136 63.136 0 0 1-17.216 10.976c0.864-21.76 8.32-42.752 17.6-62.272z m217.28 43.36a123.68 123.68 0 0 1 29.28-81.088c5.792-6.72 15.84-13.44 24.704-8.832 9.76 5.76 4.672 18.688 0.8 26.56-13.376 24.736-33.28 45.6-54.816 63.36z m-304.512 264.8c6.816-24.96 25.152-44.576 43.936-61.44a373.28 373.28 0 0 1 83.296-53.376 345.344 345.344 0 0 1-23.488 96.896c-10.72 24.864-26.688 50.432-53.12 60.608-13.696 5.12-31.552 8.384-43.424-2.464-11.2-9.952-10.464-26.88-7.2-40.224z" fill="#FEFFFE" /><path d="M715.552 137.536a421.728 421.728 0 0 0-236.064-50.784 422.624 422.624 0 0 0-151.68 40.512c-76.416 36.832-141.76 96.64-184.096 170.208-63.104 106.08-75.296 240.32-33.92 356.416a429.088 429.088 0 0 0 137.632 192.576c72.8 57.76 164.896 91.04 257.888 91.84a418.72 418.72 0 0 0 196.736-44.544 427.744 427.744 0 0 0 183.616-176.224 422.4 422.4 0 0 0 50.432-247.936c-12.288-138.24-98.656-266.368-220.544-332.064z m-496.96 115.84c43.552-63.104 112.096-106.272 185.472-126.08 74.464-20.8 155.04-19.936 228.672 3.84 2.784 0.896 5.024 2.784 7.2 4.672l0.96 0.8c-6.944-0.512-13.568-2.528-20.16-4.544a124.8 124.8 0 0 0-15.072-3.904c-30.08-6.016-61.28-8.96-91.808-4.448-19.104 3.456-39.168 10.848-51.296 26.816-9.152 11.84-10.112 30.496 0.48 41.76 11.744 12.416 32.608 11.744 45.6 1.696l7.712-5.792c12.8-9.728 25.792-19.648 41.792-23.136 39.04-9.696 79.936-1.92 117.728 9.312 45.376 12.384 88.288 34.784 123.104 66.56 58.016 51.2 92.896 124.8 106.112 200.256 11.52 64.384 8.096 131.68-11.904 194.048a6.272 6.272 0 0 1-5.6 5.12c11.584-42.496 20.192-87.584 11.52-131.456-4.544-21.152-14.976-45.024-37.248-52.256-17.056-6.048-37.824 5.664-39.2 24.224-2.56 15.552 6.88 27.68 15.936 39.36 2.496 3.232 4.96 6.4 7.136 9.632 21.696 31.136 19.008 71.52 13.696 107.2-9.952 48.384-26.08 96.512-55.36 136.8-45.248 64.896-117.248 107.744-193.376 126.048-66.112 15.808-136.224 15.68-202.24-0.576a142.72 142.72 0 0 0-5.76-1.568c-7.072-1.792-14.304-3.648-19.552-8.864 7.648 0 14.976 2.016 22.304 4.032 4.704 1.28 9.44 2.592 14.272 3.36 33.632 6.112 68.8 9.92 102.432 1.472 15.232-4.16 30.688-11.424 40.256-24.48 8.896-12.16 8.704-30.848-2.24-41.728-9.408-9.952-25.152-12.032-37.216-5.76a131.264 131.264 0 0 0-19.072 13.472c-6.656 5.312-13.28 10.624-20.896 14.432-29.536 14.368-63.808 12.256-95.36 6.944-52.224-10.24-103.872-29.216-145.984-62.56-55.936-42.976-94.688-105.696-113.664-173.216-20.096-70.688-20.224-146.656-1.92-217.728 1.024-2.336 1.6-5.12 2.176-7.904 1.216-6.016 2.464-12.16 8.192-14.56-10.72 40.608-19.2 83.168-12.672 125.248 3.296 18.688 9.856 38.464 25.312 50.592 10.72 8.864 27.488 12.096 39.36 3.616 12.64-7.392 16.8-24.96 10.912-37.92-3.328-7.904-8.512-14.624-13.728-21.376-4.416-5.76-8.832-11.52-12.16-17.952-15.488-28.352-13.792-62.208-9.664-93.216 8.64-49.728 25.504-98.816 54.848-140.32z" fill="#FEFFFE" /><path d="M430.368 305.184c6.56-4.992 17.44-2.88 20.544 5.184 2.4 9.92-1.248 19.936-5.44 28.8-12.032 24.48-29.92 45.696-50.4 63.52a63.2 63.2 0 0 1-17.216 10.976c0.864-21.76 8.32-42.752 17.6-62.272 8.576-17.28 18.56-35.072 34.88-46.208zM642.016 313.696c5.792-6.72 15.84-13.44 24.704-8.864 9.76 5.76 4.64 18.688 0.8 26.56-13.376 24.736-33.28 45.6-54.816 63.36a123.68 123.68 0 0 1 29.312-81.056zM435.456 544.736a373.12 373.12 0 0 0-83.296 53.376c-18.784 16.864-37.12 36.512-43.936 61.44-3.264 13.376-4.032 30.272 7.2 40.256 11.84 10.816 29.76 7.584 43.424 2.432 26.432-10.176 42.4-35.744 53.12-60.608 12.544-30.848 20.32-63.712 23.488-96.896z" fill="#3A73B8" /><path d="M404.064 127.264c74.464-20.8 155.04-19.872 228.672 3.872 2.784 0.896 5.024 2.784 7.232 4.672l0.96 0.8c-6.944-0.512-13.568-2.528-20.192-4.544a124.576 124.576 0 0 0-15.04-3.904c-30.144-6.016-61.312-8.96-91.84-4.416-19.104 3.424-39.168 10.816-51.296 26.784-9.12 11.84-10.112 30.496 0.48 41.76 11.744 12.416 32.608 11.744 45.632 1.696 2.56-1.888 5.12-3.84 7.68-5.792 12.8-9.728 25.824-19.648 41.792-23.136 39.04-9.664 79.936-1.92 117.728 9.344 45.376 12.352 88.288 34.752 123.104 66.496 58.016 51.264 92.896 124.864 106.144 200.32 11.52 64.352 8.064 131.648-11.936 194.016a6.272 6.272 0 0 1-5.6 5.12c11.584-42.496 20.192-87.584 11.52-131.424-4.544-21.184-14.944-45.056-37.248-52.288-17.056-6.048-37.792 5.696-39.2 24.224-2.56 15.552 6.88 27.712 15.936 39.36 2.496 3.232 4.96 6.432 7.136 9.632 21.696 31.136 19.008 71.52 13.728 107.2-9.984 48.384-26.112 96.512-55.424 136.8-45.216 64.896-117.216 107.744-193.312 126.048-66.144 15.808-136.256 15.68-202.272-0.576a149.792 149.792 0 0 0-5.76-1.568c-7.04-1.792-14.272-3.648-19.552-8.864 7.648 0 14.976 2.016 22.304 4.032 4.704 1.28 9.44 2.592 14.272 3.36 33.632 6.112 68.8 9.92 102.432 1.504 15.232-4.224 30.688-11.456 40.256-24.512 8.896-12.16 8.704-30.848-2.24-41.728-9.408-9.952-25.152-12-37.216-5.76a131.2 131.2 0 0 0-19.072 13.504c-6.624 5.28-13.28 10.56-20.896 14.4-29.536 14.368-63.808 12.256-95.36 6.944-52.224-10.24-103.84-29.216-145.984-62.56-55.936-42.976-94.688-105.696-113.664-173.216-20.096-70.688-20.224-146.656-1.92-217.728 1.024-2.336 1.6-5.12 2.176-7.904 1.216-6.016 2.464-12.16 8.192-14.56-10.72 40.64-19.2 83.2-12.672 125.248 3.296 18.688 9.856 38.464 25.312 50.592 10.72 8.864 27.488 12.096 39.36 3.616 12.64-7.392 16.8-24.96 10.912-37.92-3.328-7.904-8.512-14.624-13.76-21.376-4.384-5.76-8.832-11.52-12.128-17.952-15.488-28.352-13.792-62.208-9.664-93.216 8.64-49.696 25.504-98.816 54.848-140.288 43.52-63.104 112.064-106.272 185.44-126.08z m10.08 150.944c-24.256 13.088-40.96 36.448-53.12 60.544-12.992 24.768-18.368 52.448-20.896 80a29.504 29.504 0 0 1-24.384-22.528c-4.48-13.728-1.504-27.744 1.376-41.472 0.704-3.296 1.408-6.56 1.984-9.824 1.056-3.712-0.864-6.912-2.72-9.984-0.576-0.96-1.12-1.92-1.6-2.88-10.176-0.64-20.576 4.384-25.216 13.728-13.856 25.92-12.64 60.864 6.528 83.84 11.008 13.92 28.352 20.8 45.6 22.656 5.824 17.92 17.184 35.392 35.456 42.432 22.4 9.024 46.912-0.416 66.368-12.16l-0.288 2.912a72.544 72.544 0 0 1-3.328 18.56 84.352 84.352 0 0 1-15.488 9.184c-2.432 1.216-4.896 2.432-7.264 3.776l-2.112 1.12c-36.8 19.392-74.176 39.072-105.088 67.328-22.976 21.536-41.024 50.208-44.48 81.952-1.696 24.96 8.224 52.384 30.112 66.112 22.848 15.136 52.992 14.272 77.888 4.896 31.424-11.968 54.816-38.624 70.304-67.68 22.912-41.152 26.848-89.184 30.176-135.232 0.192-1.184 0.32-2.464 0.416-3.808 0.352-4.672 0.768-9.728 5.696-11.52a1118.24 1118.24 0 0 0 108.544-69.152c4.128 5.056 8.192 10.144 12.064 15.36-17.92 10.688-35.744 22.176-49.28 38.336-50.496 55.264-51.328 150.08 1.6 204.032 27.104 28.576 68.704 40.8 107.232 35.072a120.032 120.032 0 0 0 85.504-58.176c23.808-39.328 19.936-94.304-11.04-128.608-28.992-32-85.376-31.36-113.696 1.12-22.272 23.424-23.04 64.896 0.256 87.84 9.408 9.408 25.824 15.072 37.664 6.976 7.616-5.472 6.88-17.248 0.736-23.584l-0.352-0.448c-7.872-9.504-16.96-20.48-14.656-33.728 2.4-17.472 21.92-28.16 38.368-24.448 14.08 2.208 25.28 13.184 30.528 26.08 12.32 29.312 5.344 65.632-16.8 88.48-23.424 24.448-64.224 28.288-92.48 10.176-25.152-15.456-39.456-44.16-43.84-72.608-4.64-34.304 1.92-71.296 23.2-99.264 13.728-17.696 32.832-32.256 54.816-37.504 3.104 0.224 6.272 0.544 9.408 0.832 15.488 1.44 31.264 2.912 46.272-1.984 8.512-2.88 16.8-12.448 12.48-21.76-4.704-9.536-16.192-12.416-25.792-14.4-12.32-2.464-24.576 0-36.672 2.464l-5.888 1.184c-9.76-3.36-14.944-13.632-18.56-22.688 27.168-20.288 54.016-42.368 72.48-71.232 10.72-17.376 17.728-38.688 12.672-59.072-3.968-13.504-15.04-24.96-29.184-27.552-23.552-5.92-47.648 5.952-63.648 22.816-25.728 27.904-38.784 66.624-37.568 104.352-0.16 3.072 0.224 6.176 0.64 9.28 0.576 4.8 1.152 9.632-0.192 14.208-14.624 11.776-30.592 21.824-46.496 31.872-5.056 3.2-10.112 6.368-15.104 9.6-3.648 2.112-7.232 4.32-10.848 6.56-8.16 5.024-16.32 10.048-25.12 13.952 0.224-12.032 0.832-24.192 4.288-35.776 3.2-4.48 6.752-8.672 10.304-12.928 6.432-7.68 12.864-15.36 17.536-24.288 5.312-9.568 10.304-21.664 4.8-32.224-5.056-7.808-16.256-7.04-23.616-3.168-15.648 7.872-24.224 24.416-30.528 39.968-1.344 3.04-2.304 6.304-3.264 9.568-2.208 7.392-4.384 14.848-10.816 19.712-12.896 11.264-28.448 22.592-46.368 21.952-10.24 0.064-17.056-9.6-19.2-18.624 28.32-11.008 51.936-31.52 71.104-54.72 17.728-22.784 31.84-49.696 34.24-78.88 1.312-14.72-3.936-31.36-17.376-39.04-16.768-9.152-37.824-6.56-54.272 2.112z" fill="#3A73B8" /><path d="M734.912 123.52a445.92 445.92 0 0 0-255.328-58.24 446.24 446.24 0 0 0-243.68 94.208A450.784 450.784 0 0 0 98.784 339.2a445.92 445.92 0 0 0-29.408 241.088c13.184 90.944 56.32 176.896 120.096 242.944a447.872 447.872 0 0 0 223.488 125.856c80.736 18.08 166.464 13.824 244.704-13.248a447.904 447.904 0 0 0 219.84-164.48A447.872 447.872 0 0 0 960 515.616a447.168 447.168 0 0 0-72.224-247.136 449.472 449.472 0 0 0-152.864-144.896z m-407.104 3.744a422.656 422.656 0 0 1 151.68-40.512 421.664 421.664 0 0 1 236.064 50.784c121.92 65.696 208.256 193.792 220.512 332.064a422.336 422.336 0 0 1-50.4 247.936 427.744 427.744 0 0 1-183.616 176.256 418.72 418.72 0 0 1-196.736 44.48c-93.024-0.768-185.088-34.048-257.92-91.808a429.088 429.088 0 0 1-137.6-192.576c-41.376-116.128-29.216-250.336 33.92-356.416 42.368-73.536 107.68-133.376 184.096-170.208z" fill="#3A73B8" /></svg>