<?xml version="1.0" standalone="no"?><!DOCTYPE svg PUBLIC "-//W3C//DTD SVG 1.1//EN" "http://www.w3.org/Graphics/SVG/1.1/DTD/svg11.dtd"><svg class="icon" width="48px" height="48.00px" viewBox="0 0 1024 1024" version="1.1" xmlns="http://www.w3.org/2000/svg"><path d="M512 512m-448 0a448 448 0 1 0 896 0 448 448 0 1 0-896 0Z" fill="#1794D4" /><path d="M576 224h-64v64h64V224zM320 320h64v64h-64v-64zM192.064 542.112C197.504 634.976 252.8 768 448 768c217.6 0 314.656-160 336-240 26.656 0 86.4-16 112-80-16-16-80-16-112 0 0-25.6-16-80-48-96-21.344 21.344-54.4 76.8-16 128-16 32-58.656 32-80 32H222.176c-16.96 0-31.136 13.216-30.112 30.112zM288 416H224v64h64v-64z" fill="#FFFFFF" /><path d="M320 416h64v64h-64v-64zM480 416h-64v64h64v-64zM512 416h64v64h-64v-64zM672 416h-64v64h64v-64zM480 320h-64v64h64v-64zM512 320h64v64h-64v-64z" fill="#FFFFFF" /></svg>