<?xml version="1.0" standalone="no"?><!DOCTYPE svg PUBLIC "-//W3C//DTD SVG 1.1//EN" "http://www.w3.org/Graphics/SVG/1.1/DTD/svg11.dtd"><svg class="icon" width="48px" height="48.00px" viewBox="0 0 1024 1024" version="1.1" xmlns="http://www.w3.org/2000/svg"><path d="M960 512c0 247.296-200.48 448-448 448S64 759.296 64 512C64 264.48 264.48 64 512 64s448 200.48 448 448z" fill="#1D1D1D" /><path d="M286.56 256l-31.296 128h107.552c28.704 0 53.728-20 60.704-48.48C433.376 295.136 403.52 256 362.816 256H286.56zM255.264 448L224 576h107.52c28.736 0 53.76-20 60.704-48.48 9.888-40.384-19.968-79.52-60.672-79.52H255.264zM442.944 576l31.264-128h76.256c40.704 0 70.56 39.136 60.704 79.52-6.976 28.48-32 48.48-60.672 48.48h-107.552zM442.944 640l-31.296 128h107.552c28.704 0 53.728-20 60.672-48.48 9.888-40.384-19.968-79.52-60.672-79.52h-76.256zM738.144 704h-107.52l31.232-128h76.288c40.704 0 70.56 39.136 60.672 79.52-6.944 28.48-32 48.48-60.672 48.48zM693.12 384l-31.264 128h107.552c28.704 0 53.76-20 60.704-48.48 9.856-40.384-20-79.52-60.704-79.52h-76.256zM474.24 384l31.264-128h76.256c40.704 0 70.56 39.136 60.672 79.52-6.944 28.48-32 48.48-60.672 48.48h-107.52z" fill="#FFFFFF" /></svg>