<?xml version="1.0" standalone="no"?><!DOCTYPE svg PUBLIC "-//W3C//DTD SVG 1.1//EN" "http://www.w3.org/Graphics/SVG/1.1/DTD/svg11.dtd"><svg class="icon" width="48px" height="44.85px" viewBox="0 0 1096 1024" version="1.1" xmlns="http://www.w3.org/2000/svg"><path d="M0 510.229698L585.730679 851.658723v172.245585L0 682.666667v-172.245585z" fill="#B8D9F6" /><path d="M50.238295 589.175591l375.591067 220.09158v27.84637l-375.591067-220.09158v-27.84637zM50.238295 646.78217l375.591067 220.09158v27.84637l-375.591067-220.091581v-27.846369zM460.565555 827.352958l69.089617 41.434632v77.510513l-69.089617-41.33894v-77.510513z" fill="#5CA8EA" /><path d="M1096.05607 555.97047L585.730679 851.658723v172.245585l510.325391-297.984861z" fill="#99C9F2" /><path d="M1096.05607 555.97047L507.167554 219.421736 0 510.32539l585.730679 340.472106z" fill="#E0EFFB" /><path d="M0 290.807962l585.730679 341.429025v172.245585L0 463.149238v-172.245584z" fill="#B8D9F6" /><path d="M50.238295 369.658163l375.591067 220.09158v27.84637l-375.591067-220.091581v-27.750677zM50.238295 427.264742l375.591067 220.09158v27.846369l-375.591067-220.09158v-27.750677zM460.565555 607.931221l69.089617 41.434633V727.259135l-69.089617-41.338941v-77.510513z" fill="#5CA8EA" /><path d="M1096.05607 336.453042L585.730679 632.236987v172.245585l510.325391-297.984862z" fill="#99C9F2" /><path d="M1096.05607 336.453042L507.167554 0 0 290.807962 585.730679 631.567143z" fill="#E0EFFB" /></svg>