<?xml version="1.0" standalone="no"?><!DOCTYPE svg PUBLIC "-//W3C//DTD SVG 1.1//EN" "http://www.w3.org/Graphics/SVG/1.1/DTD/svg11.dtd"><svg class="icon" width="48px" height="41.90px" viewBox="0 0 1173 1024" version="1.1" xmlns="http://www.w3.org/2000/svg"><path d="M0 510.8736l626.7904 365.3632V1024L0 658.6368V510.976z" fill="#B8D9F6" /><path d="M53.76 608.768L480.5632 859.136v29.696L53.76 638.5664v-29.7984zM578.56 899.3792v43.7248l-43.1104-23.9616v-43.7248z" fill="#5CA8EA" /><path d="M1172.8896 559.8208l-546.0992 316.416V1024l546.0992-318.8736z" fill="#99C9F2" /><path d="M1172.8896 559.8208L542.72 199.7824 0 510.976l626.7904 364.4416z" fill="#E0EFFB" /><path d="M0 311.1936l626.7904 365.3632v147.6608L0 458.8544V311.1936z" fill="#B8D9F6" /><path d="M53.76 408.9856l426.8032 250.368v29.7984L53.76 438.784v-29.7984zM578.56 699.5968v43.7248l-43.1104-23.9616V675.84z" fill="#5CA8EA" /><path d="M1172.8896 360.0384L626.7904 676.5568v147.6608l546.0992-318.8736z" fill="#99C9F2" /><path d="M1172.8896 360.0384L542.72 0 0 311.1936 626.7904 675.84z" fill="#E0EFFB" /></svg>