<?xml version="1.0" standalone="no"?><!DOCTYPE svg PUBLIC "-//W3C//DTD SVG 1.1//EN" "http://www.w3.org/Graphics/SVG/1.1/DTD/svg11.dtd"><svg class="icon" width="48px" height="48.00px" viewBox="0 0 1024 1024" version="1.1" xmlns="http://www.w3.org/2000/svg"><path d="M377.889841 640.783354v17.964912c0 63.71277 94.002448 115.414117 210.565483 115.414117S799.020808 722.461036 799.020808 658.748266v-17.964912z" fill="#99C9F2" /><path d="M377.889841 640.783354a210.565483 115.414117 0 1 0 421.130967 0 210.565483 115.414117 0 1 0-421.130967 0Z" fill="#E0EFFB" /><path d="M945.56018 345.197878a26.425133 26.425133 0 0 0-13.160343-22.769481L387.081191 3.655651a26.425133 26.425133 0 0 0-39.794369 22.873929L348.853529 432.933497a26.425133 26.425133 0 0 0 13.160343 22.769481l176.515708 103.193799v74.366381l55.356997 32.900857V591.170951l313.341493 183.200326A26.425133 26.425133 0 0 0 946.709098 752.019584z" fill="#99C9F2" /><path d="M913.912689 359.298246a26.425133 26.425133 0 0 0-13.160343-22.769482L355.433701 17.756018a26.425133 26.425133 0 0 0-39.79437 22.873929l1.148919 406.403917a26.425133 26.425133 0 0 0 13.055895 22.978376l201.896369 118.025296v41.778865l55.356997 32.900857v-41.778866L875.162791 788.576091a26.425133 26.425133 0 0 0 39.794369-22.873929z" fill="#E0EFFB" /><path d="M845.604243 734.054672l-483.172582-282.007344a23.500612 23.500612 0 0 1-11.593636-20.158303l-1.044471-338.931049a23.500612 23.500612 0 0 1 35.303141-20.26275L868.269278 355.120359a23.500612 23.500612 0 0 1 11.593635 20.158303l1.044472 338.931048a23.500612 23.500612 0 0 1-35.303142 19.844962z" fill="#5CA8EA" /><path d="M77.290902 792.440636l353.449204 205.969809V1023.582211L77.290902 817.925745v-25.485109z" fill="#B8D9F6" /><path d="M585.530804 909.421461l-154.790698 88.988984V1023.582211l154.790698-90.346797z" fill="#99C9F2" /><path d="M585.530804 909.421461l-355.120359-203.045288L77.290902 792.440636l353.449204 205.447573z" fill="#E0EFFB" /><path d="M517.849041 898.245614L240.646267 739.27703l-11.906977 8.46022L504.688698 908.69033z" fill="#5CA8EA" /></svg>