<?xml version="1.0" standalone="no"?><!DOCTYPE svg PUBLIC "-//W3C//DTD SVG 1.1//EN" "http://www.w3.org/Graphics/SVG/1.1/DTD/svg11.dtd"><svg class="icon" width="48px" height="48.00px" viewBox="0 0 1024 1024" version="1.1" xmlns="http://www.w3.org/2000/svg"><path d="M755.2 121.856c56.32 0 102.4 46.08 102.4 102.4v536.576c0 56.32-46.08 102.4-102.4 102.4h-460.8c-56.32 0-102.4-46.08-102.4-102.4V224.256c0-56.32 46.08-102.4 102.4-102.4h460.8m0-40.96h-460.8c-78.848 0-143.36 64.512-143.36 143.36v536.576c0 78.848 64.512 143.36 143.36 143.36h461.312c78.848 0 143.36-64.512 143.36-143.36V224.256c-0.512-78.848-64.512-143.36-143.872-143.36z" fill="#181818" /><path d="M686.08 678.4H363.52c-11.264 0-20.48-9.216-20.48-20.48s9.216-20.48 20.48-20.48h322.56c11.264 0 20.48 9.216 20.48 20.48s-9.216 20.48-20.48 20.48zM315.392 962.56c-11.264 0-20.48-9.216-20.48-20.48v-55.808c0-11.264 9.216-20.48 20.48-20.48s20.48 9.216 20.48 20.48V942.08c0 11.264-8.704 20.48-20.48 20.48zM734.208 962.56c-11.264 0-20.48-9.216-20.48-20.48v-55.808c0-11.264 9.216-20.48 20.48-20.48s20.48 9.216 20.48 20.48V942.08c0 11.264-9.216 20.48-20.48 20.48zM755.2 120.32c56.32 0 102.4 46.08 102.4 102.4v266.24h-665.6v-266.24c0-56.32 46.08-102.4 102.4-102.4h460.8m0-40.96h-460.8c-78.848 0-143.36 64.512-143.36 143.36v266.24c0 22.528 18.432 40.96 40.96 40.96h666.112c22.528 0 40.96-18.432 40.96-40.96v-266.24c-0.512-79.36-64.512-143.36-143.872-143.36z" fill="#181818" /><path d="M857.6 486.912h-665.6v-266.24c0-56.32 46.08-102.4 102.4-102.4h461.312c56.32 0 102.4 46.08 102.4 102.4v266.24z" fill="#4F8DFC" /><path d="M755.2 159.232c33.792 0 61.44 27.648 61.44 61.44v225.28h-583.68v-225.28c0-33.792 27.648-61.44 61.44-61.44h460.8m0-40.96h-460.8c-56.32 0-102.4 46.08-102.4 102.4v266.24h666.112v-266.24c-0.512-56.32-46.08-102.4-102.912-102.4z" fill="#181818" /></svg>