<?xml version="1.0" standalone="no"?><!DOCTYPE svg PUBLIC "-//W3C//DTD SVG 1.1//EN" "http://www.w3.org/Graphics/SVG/1.1/DTD/svg11.dtd"><svg class="icon" width="48px" height="48.00px" viewBox="0 0 1024 1024" version="1.1" xmlns="http://www.w3.org/2000/svg"><path d="M830.976 589.312l-46.592 314.368H283.136l-46.592-314.368h594.432m0-40.96H236.544c-11.776 0-23.04 5.12-31.232 14.336-7.68 9.216-11.264 20.992-9.728 32.768l46.592 314.368c3.072 19.968 19.968 34.816 40.448 34.816h501.248c20.48 0 37.376-14.848 40.448-34.816l46.592-314.368c1.536-11.776-1.536-23.552-9.728-32.768-6.656-9.216-18.432-14.336-30.208-14.336z m0 81.92zM534.016 161.28c-11.776 0-21.504-9.728-21.504-21.504V84.992c0-11.776 9.728-21.504 21.504-21.504 11.776 0 21.504 9.728 21.504 21.504v54.272c0 12.288-9.728 22.016-21.504 22.016zM677.888 213.504c-9.216-7.68-10.24-21.504-2.56-30.72l34.816-41.472c7.68-9.216 21.504-10.24 30.72-2.56 9.216 7.68 10.24 21.504 2.56 30.72l-34.816 41.472c-8.192 9.216-22.016 10.24-30.72 2.56zM498.176 281.6c-6.656-10.24-3.584-23.552 6.656-30.208l45.568-29.696c10.24-6.656 23.552-3.584 30.208 6.656s3.584 23.552-6.656 30.208l-45.568 29.696c-10.24 6.144-23.552 3.072-30.208-6.656zM591.36 308.224c5.632-10.752 18.432-14.848 29.184-9.728l48.64 24.576c10.752 5.632 14.848 18.432 9.728 29.184s-18.432 14.848-29.184 9.728l-48.64-24.576c-10.752-5.632-15.36-18.432-9.728-29.184zM413.696 264.192c11.264-3.584 23.552 3.072 27.136 14.848l15.36 52.224c3.584 11.264-3.072 23.552-14.848 27.136s-23.552-3.072-27.136-14.848l-15.36-52.224c-3.584-11.776 3.072-23.552 14.848-27.136zM754.176 346.112c-2.048-11.776 5.632-23.04 17.408-25.088l53.248-9.216c11.776-2.048 23.04 5.632 25.088 17.408 2.048 11.776-5.632 23.04-17.408 25.088L779.264 363.52c-11.776 2.048-23.04-5.632-25.088-17.408zM390.144 213.504c-9.216 7.68-23.04 6.656-30.72-2.56l-34.816-41.472c-7.68-9.216-6.656-23.04 2.56-30.72s23.04-6.656 30.72 2.56l34.816 41.472c7.68 9.216 6.656 23.04-2.56 30.72zM313.856 346.112c-2.048 11.776-13.312 19.456-25.088 17.408L235.52 354.304c-11.776-2.048-19.456-13.312-17.408-25.088 2.048-11.776 13.312-19.456 25.088-17.408l53.248 9.216c11.264 2.048 19.456 13.312 17.408 25.088z" fill="#181818" /><path d="M886.784 456.704v89.088H181.248V456.704h705.536z m0-43.52H181.248c-24.064 0-43.52 19.456-43.52 43.52v89.088c0 24.064 19.456 43.52 43.52 43.52h705.536c24.064 0 43.52-19.456 43.52-43.52V456.704c0-24.064-19.456-43.52-43.52-43.52z" fill="#181818" /><path d="M300.032 433.664c-10.24 0-18.944-7.68-20.48-17.92-1.024-10.24-2.048-20.48-2.048-30.72 0-141.312 114.688-256 256-256s256 114.688 256 256c0 10.24-0.512 20.48-2.048 30.72-1.536 11.264-11.776 19.456-23.04 17.92-11.264-1.536-19.456-11.776-17.92-23.04 1.024-8.704 1.536-17.408 1.536-26.112 0-118.272-96.256-215.04-215.04-215.04s-215.04 96.256-215.04 215.04c0 8.704 0.512 17.408 1.536 26.112 1.536 11.264-6.656 21.504-17.92 23.04h-1.536z" fill="#181818" /><path d="M784.384 903.68H283.136l-46.592-314.368h594.432z" fill="#4F8DFC" /><path d="M783.36 630.272l-34.304 232.448H318.464l-34.304-232.448H783.36m47.616-40.96H236.544l46.592 314.368h501.248l46.592-314.368z" fill="#181818" /></svg>