<?xml version="1.0" standalone="no"?><!DOCTYPE svg PUBLIC "-//W3C//DTD SVG 1.1//EN" "http://www.w3.org/Graphics/SVG/1.1/DTD/svg11.dtd"><svg class="icon" width="48px" height="48.00px" viewBox="0 0 1024 1024" version="1.1" xmlns="http://www.w3.org/2000/svg"><path d="M901.12 462.848l-56.32 379.904c0 33.28-46.08 60.416-102.4 60.416H276.48c-56.32 0-102.4-27.136-102.4-60.416L122.88 462.848h778.24m0-40.96H122.88c-11.776 0-23.04 5.12-30.72 13.824s-11.264 20.48-9.728 32.256l50.688 377.856c2.048 56.32 62.976 98.304 143.36 98.304h465.92c79.872 0 140.8-41.984 143.36-98.304l55.808-377.344c1.536-11.776-1.536-23.552-9.728-32.768-7.68-8.192-18.944-13.824-30.72-13.824z m0 81.92z" fill="#181818" /><path d="M205.824 125.44c22.016 0 138.24 3.584 210.432 75.776C495.616 281.088 491.52 414.72 491.52 414.72h-3.584c-22.016 0-138.24-3.584-210.432-75.776-79.872-79.36-75.264-213.504-75.264-213.504h3.584m0-40.96h-5.12c-21.504 1.024-38.912 17.92-39.424 39.424 0 6.144-4.096 152.576 87.552 244.224C331.776 451.584 462.336 455.68 487.936 455.68h5.12c21.504-1.024 38.912-17.92 39.424-39.424 0-6.144 4.096-152.576-87.552-244.224-83.456-83.456-214.016-87.552-239.104-87.552z" fill="#181818" /><path d="M818.176 125.44h3.584s4.608 134.144-75.776 214.016c-71.68 72.192-187.392 75.264-209.92 75.264h-3.584s-4.608-134.144 75.776-214.016c71.68-71.68 187.904-75.264 209.92-75.264m0-40.96c-25.088 0-155.648 4.096-239.104 87.552C487.424 263.68 491.52 410.112 491.52 416.256c0.512 21.504 17.92 38.912 39.424 39.424h5.12c25.088 0 155.648-4.096 239.104-87.552 91.648-91.648 87.552-238.08 87.552-244.224-0.512-21.504-17.92-38.912-39.424-39.424h-5.12z" fill="#181818" /><path d="M742.4 903.68H276.48c-56.32 0-102.4-27.136-102.4-60.416L122.88 462.848h778.24l-56.32 379.904c0 33.792-46.08 60.928-102.4 60.928z" fill="#4F8DFC" /><path d="M853.504 503.808l-49.152 332.8c0 1.536-0.512 3.584-0.512 5.12-3.072 6.144-24.576 20.48-61.44 20.48H276.48c-36.864 0-58.368-14.336-61.44-20.48 0-1.536 0-3.072-0.512-4.608l-45.056-333.312h684.032m47.616-40.96H122.88l51.2 379.904c0 33.28 46.08 60.416 102.4 60.416h465.92c56.32 0 102.4-27.136 102.4-60.416l56.32-379.904z" fill="#181818" /><path d="M563.2 786.944H460.8c-11.264 0-20.48-9.216-20.48-20.48s9.216-20.48 20.48-20.48h102.4c11.264 0 20.48 9.216 20.48 20.48s-9.216 20.48-20.48 20.48z" fill="#181818" /></svg>