<?xml version="1.0" standalone="no"?><!DOCTYPE svg PUBLIC "-//W3C//DTD SVG 1.1//EN" "http://www.w3.org/Graphics/SVG/1.1/DTD/svg11.dtd"><svg class="icon" width="48px" height="48.00px" viewBox="0 0 1024 1024" version="1.1" xmlns="http://www.w3.org/2000/svg"><path d="M737.28 943.104H286.72c-11.264 0-20.48-9.216-20.48-20.48v-143.36c-113.664-49.152-153.088-140.8-183.808-290.304-1.024-6.144 0.512-12.288 4.096-16.896 4.096-4.608 9.728-7.68 15.872-7.68h819.2c6.144 0 11.776 2.56 15.872 7.68s5.632 10.752 4.096 16.896c-29.184 152.064-91.136 249.856-183.808 290.304v143.36c0 11.776-9.216 20.48-20.48 20.48z m-430.08-40.96h409.6v-136.704c0-8.704 5.12-16.384 13.312-19.456 80.896-29.696 136.704-110.592 166.4-240.64H128c33.28 145.92 75.264 205.824 166.4 241.152 7.68 3.072 13.312 10.752 13.312 18.944v136.704z" fill="#181818" /><path d="M686.08 105.472c56.32 0 102.4 46.08 102.4 102.4l30.72 256H204.8l30.72-256c0-56.32 46.08-102.4 102.4-102.4h348.16m0-40.96H337.92c-78.336 0-141.824 62.976-143.36 140.8l-30.208 253.952c-1.536 11.776 2.048 23.552 10.24 32.256 7.68 8.704 18.944 13.824 30.72 13.824h614.4c11.776 0 23.04-5.12 30.72-13.824s11.264-20.48 10.24-32.256L829.44 205.312c-1.536-77.824-65.024-140.8-143.36-140.8z" fill="#181818" /><path d="M819.2 463.872H204.8l30.72-256c0-56.32 46.08-102.4 102.4-102.4h348.16c56.32 0 102.4 46.08 102.4 102.4l30.72 256z" fill="#4F8DFC" /><path d="M686.08 146.432c33.792 0 61.44 27.648 61.44 61.44 0 1.536 0 3.072 0.512 5.12l25.088 209.92H250.88l25.088-209.92c0-1.536 0.512-3.072 0.512-5.12 0-33.792 27.648-61.44 61.44-61.44h348.16m0-40.96H337.92c-56.32 0-102.4 46.08-102.4 102.4l-30.72 256h614.4l-30.72-256c0-56.32-46.08-102.4-102.4-102.4z" fill="#181818" /><path d="M363.52 233.472m-30.72 0a30.72 30.72 0 1 0 61.44 0 30.72 30.72 0 1 0-61.44 0Z" fill="#181818" /><path d="M363.52 233.472m-30.72 0a30.72 30.72 0 1 0 61.44 0 30.72 30.72 0 1 0-61.44 0Z" fill="#181818" /><path d="M888.832 610.304H138.752c-11.264 0-20.48-9.216-20.48-20.48s9.216-20.48 20.48-20.48h750.08c11.264 0 20.48 9.216 20.48 20.48s-9.216 20.48-20.48 20.48z" fill="#181818" /></svg>