<?xml version="1.0" standalone="no"?><!DOCTYPE svg PUBLIC "-//W3C//DTD SVG 1.1//EN" "http://www.w3.org/Graphics/SVG/1.1/DTD/svg11.dtd"><svg class="icon" width="48px" height="48.00px" viewBox="0 0 1024 1024" version="1.1" xmlns="http://www.w3.org/2000/svg"><path d="M682.496 87.04c-4.096-4.096-10.24-5.632-15.872-5.12L203.776 133.12C136.192 133.632 81.92 188.416 81.92 256v512c0 67.584 54.272 122.368 121.856 122.88l462.848 51.2h2.048c5.12 0 9.728-2.048 13.824-5.12 4.096-4.096 6.656-9.216 6.656-15.36V102.4c0.512-5.632-2.048-11.264-6.656-15.36z m-33.792 811.52L206.848 849.92H204.8c-45.056 0-81.92-36.864-81.92-81.92V256c0-45.056 36.864-81.92 81.92-81.92h2.048l441.344-48.64v773.12z" fill="#181818" /><path d="M819.2 885.76h-150.016c-11.264 0-20.48-9.216-20.48-20.48V158.72c0-11.264 9.216-20.48 20.48-20.48H819.2c67.584 0 122.88 55.296 122.88 122.88v501.76c0 67.584-55.296 122.88-122.88 122.88z m-129.536-40.96H819.2c45.056 0 81.92-36.864 81.92-81.92V261.12c0-45.056-36.864-81.92-81.92-81.92h-129.536v665.6z" fill="#181818" /><path d="M648.704 125.44v773.632L206.848 849.92H204.8c-45.056 0-81.92-36.864-81.92-81.92V256c0-45.056 36.864-81.92 81.92-81.92h2.048l441.856-48.64z" fill="#4F8DFC" /><path d="M607.744 171.008v681.984l-395.776-43.52c-2.56-0.512-4.608-0.512-7.168-0.512-22.528 0-40.96-18.432-40.96-40.96V256c0-22.528 18.432-40.96 40.96-40.96h6.656l396.288-44.032m40.96-45.568L206.848 174.08H204.8c-45.056 0-81.92 36.864-81.92 81.92v512c0 45.056 36.864 81.92 81.92 81.92h2.048l441.344 48.64v-773.12h0.512z" fill="#181818" /><path d="M526.848 559.616c-11.264 0-20.48-9.216-20.48-20.48V484.864c0-11.264 9.216-20.48 20.48-20.48s20.48 9.216 20.48 20.48v54.784c0 10.752-9.216 19.968-20.48 19.968z" fill="#181818" /></svg>