<?xml version="1.0" standalone="no"?><!DOCTYPE svg PUBLIC "-//W3C//DTD SVG 1.1//EN" "http://www.w3.org/Graphics/SVG/1.1/DTD/svg11.dtd"><svg class="icon" width="48px" height="48.00px" viewBox="0 0 1024 1024" version="1.1" xmlns="http://www.w3.org/2000/svg"><path d="M834.56 942.08H179.2V204.8c0-67.584 55.296-122.88 122.88-122.88h409.6c67.584 0 122.88 55.296 122.88 122.88v737.28z m-614.4-40.96h573.44V204.8c0-45.056-36.864-81.92-81.92-81.92H302.08c-45.056 0-81.92 36.864-81.92 81.92v696.32z" fill="#181818" /><path d="M589.824 221.696c56.32 0 102.4 46.08 102.4 102.4v165.376c0 56.32-46.08 102.4-102.4 102.4H424.448c-56.32 0-102.4-46.08-102.4-102.4V324.096c0-56.32 46.08-102.4 102.4-102.4h165.376m0-40.96H424.448c-78.848 0-143.36 64.512-143.36 143.36v165.376c0 78.848 64.512 143.36 143.36 143.36h165.376c78.848 0 143.36-64.512 143.36-143.36V324.096c0-79.36-64.512-143.36-143.36-143.36zM916.48 942.08H97.28c-11.264 0-20.48-9.216-20.48-20.48s9.216-20.48 20.48-20.48h819.2c11.264 0 20.48 9.216 20.48 20.48s-9.216 20.48-20.48 20.48zM692.224 777.216H568.32c-11.264 0-20.48-9.216-20.48-20.48s9.216-20.48 20.48-20.48h123.904c11.264 0 20.48 9.216 20.48 20.48s-9.216 20.48-20.48 20.48z" fill="#181818" /><path d="M589.824 591.872H424.448c-56.32 0-102.4-46.08-102.4-102.4V324.096c0-56.32 46.08-102.4 102.4-102.4h165.376c56.32 0 102.4 46.08 102.4 102.4v165.376c0 56.832-46.08 102.4-102.4 102.4z" fill="#4F8DFC" /><path d="M589.824 262.656c33.792 0 61.44 27.648 61.44 61.44v165.376c0 33.792-27.648 61.44-61.44 61.44H424.448c-33.792 0-61.44-27.648-61.44-61.44V324.096c0-33.792 27.648-61.44 61.44-61.44h165.376m0-40.96H424.448c-56.32 0-102.4 46.08-102.4 102.4v165.376c0 56.32 46.08 102.4 102.4 102.4h165.376c56.32 0 102.4-46.08 102.4-102.4V324.096c0-56.832-46.08-102.4-102.4-102.4z" fill="#181818" /></svg>