<?xml version="1.0" standalone="no"?><!DOCTYPE svg PUBLIC "-//W3C//DTD SVG 1.1//EN" "http://www.w3.org/Graphics/SVG/1.1/DTD/svg11.dtd"><svg class="icon" width="48px" height="48.00px" viewBox="0 0 1024 1024" version="1.1" xmlns="http://www.w3.org/2000/svg"><path d="M1014.7875 553.1c-43.695833 238.9375-252.991667 420.1125-504.558333 420.1125-251.570833 0-460.858333-181.175-504.558334-420.1125h1009.116667z" fill="#F7CACC" /><path d="M450.229167 198.55l88.575 103.820833 107.9625-88.820833 7.3125 135.354167 140.441666-11.691667-76.658333 115.0375 119.170833 70.0375-131.3375 50.9 52.441667 124.845833-135.829167-32.716666-34.245833 132.166666-88.583333-103.941666-107.95 88.820833-7.441667-135.229167-140.3125 11.683334 76.654167-115.033334-119.170834-70.041666 131.333334-50.904167L280.033333 298l135.941667 32.716667z" fill="#FFB710" /><path d="M480.583333 330.241667l49.604167 58.229166 60.475-49.841666 4.133333 75.825 78.541667-6.495834-42.870833 64.491667 66.729166 39.208333-73.583333 28.4625 29.4125 69.920834-76.066667-18.304167-19.245833 74.05-49.6125-58.225-60.470833 49.725-4.133334-75.708333-78.658333 6.495833 42.991667-64.4875-66.85-39.2125 73.583333-28.4625-29.291667-69.920833 76.058334 18.304166z" fill="#FCF09C" /><path d="M330.583333 149.775l17.129167 52.9125 17.125 53.029167-67.0875-28.4625-42.516667-18.070834zM915.8125 424.729167l-43.695833 9.6875-43.825 9.8 27.870833-51.729167 17.716667-32.716667z" fill="#FFB710" /></svg>