<?xml version="1.0" standalone="no"?><!DOCTYPE svg PUBLIC "-//W3C//DTD SVG 1.1//EN" "http://www.w3.org/Graphics/SVG/1.1/DTD/svg11.dtd"><svg class="icon" width="48px" height="48.00px" viewBox="0 0 1024 1024" version="1.1" xmlns="http://www.w3.org/2000/svg"><path d="M464.213333 667.818667s227.157333 156.672 426.666667-223.232c0 0-421.205333-69.290667-426.666667 223.232m34.133334 194.218666c-68.266667-81.237333-126.293333-215.893333-15.872-401.237333C674.645333 138.069333 429.909333 78.848 429.909333 78.848s207.530667 80.554667 11.093334 354.304C499.541333 203.093333 133.12 134.997333 133.12 134.997333c6.826667 346.965333 203.264 358.4 268.458667 351.573334-120.832 166.4-85.333333 296.448-34.133334 376.832-85.333333 11.264-147.968 41.642667-155.648 79.018666h452.437334c-8.192-38.741333-76.117333-70.314667-166.058667-80.384" fill="#6DD77F" /></svg>