<?xml version="1.0" standalone="no"?><!DOCTYPE svg PUBLIC "-//W3C//DTD SVG 1.1//EN" "http://www.w3.org/Graphics/SVG/1.1/DTD/svg11.dtd"><svg class="icon" width="48px" height="48.00px" viewBox="0 0 1024 1024" version="1.1" xmlns="http://www.w3.org/2000/svg"><path d="M512 512m-512 0a512 512 0 1 0 1024 0 512 512 0 1 0-1024 0Z" fill="#049BFF" /><path d="M331.093333 450.41664h361.813334l79.872 402.773333H251.221333z" fill="#FBF9E9" /><path d="M772.778667 853.189973l23.210666 84.992c-81.237333 54.272-178.858667 85.674667-283.989333 85.674667s-202.752-31.402667-283.989333-85.674667l23.210666-84.992h521.557334z" fill="#EA736A" /><path d="M542.72 703.003307h122.88v157.013333h-122.88zM570.026667 528.923307h64.853333v95.573333h-64.853333z" fill="#050408" /><path d="M331.093333 406.043307h361.813334v44.373333H331.093333z" fill="#FFDC37" /><path d="M337.92 416.426667h27.306667v27.306666h-27.306667zM419.84 416.426667h27.306667v27.306666h-27.306667zM501.76 416.426667h27.306667v27.306666h-27.306667zM583.68 416.426667h27.306667v27.306666h-27.306667zM378.88 416.426667h27.306667v27.306666h-27.306667zM460.8 416.426667h27.306667v27.306666h-27.306667zM542.72 416.426667h27.306667v27.306666h-27.306667zM624.64 416.426667h27.306667v27.306666h-27.306667zM662.186667 416.426667h27.306666v27.306666h-27.306666z" fill="#050408" /><path d="M512 265.413973l180.906667 140.629334H331.093333z" fill="#FBF9E9" /><path d="M419.730773 231.39328l-78.4384 67.341653-171.608746-168.710826c26.548907-23.6544 54.787413-44.168533 84.718933-61.545814l165.328213 162.9184zM520.215893 345.992533l-19.790506-19.79392-83.510614 83.510614-59.613866-59.613867-288.18432 288.180907 79.650133 79.650133 371.69152-371.694933z" fill="#0C28F8" /><path d="M101.45792 670.6176l291.321173-285.044053-14.482773-14.47936-291.31776 285.044053z" fill="#FFFFFF" /><path d="M506.620587 313.941333l-19.790507 19.790507-83.75296-83.75296-59.613867 59.61728-176.192853-176.196267c18.343253-16.892587 37.894827-32.098987 58.651307-46.097066l4.102826-2.655574a607.552853 607.552853 0 0 1 29.68576-18.100906l246.910294 247.394986z" fill="#0C28F8" /><path d="M209.025707 99.372373l169.6768 175.465814-14.482774 14.482773L192.853333 111.680853c5.0688-4.102827 10.622293-8.205653 16.172374-12.30848z" fill="#FFFFFF" /><path d="M520.577707 327.7824l-19.790507 19.790507 83.510613 83.510613-59.61728 59.61728 288.18432 288.180907 79.64672-79.64672-371.69152-371.694934z" fill="#0C28F8" /><path d="M850.03264 741.71392l-293.976747-282.391893-14.47936 14.482773 293.973334 282.391893z" fill="#FFFFFF" /><path d="M786.599253 79.8208l-265.980586 265.977173-19.790507-19.790506 83.510613-83.510614-59.613866-59.613866 154.709333-154.712747a338.353493 338.353493 0 0 1 16.657067 6.034773l25.09824 10.61888c20.998827 9.413973 41.51296 20.2752 61.303466 32.826027l4.10624 2.17088z" fill="#0C28F8" /><path d="M558.994773 217.156267l-14.47936-14.482774 162.19136-164.608c3.140267 1.20832 6.034773 2.655573 9.171627 3.863894l5.311147 2.413226 2.413226 0.965974 3.3792 1.447253-167.9872 170.400427z" fill="#FFFFFF" /><path d="M508.586667 337.92m-27.306667 0a27.306667 27.306667 0 1 0 54.613333 0 27.306667 27.306667 0 1 0-54.613333 0Z" fill="#EA736A" /><path d="M508.586667 337.92m-17.066667 0a17.066667 17.066667 0 1 0 34.133333 0 17.066667 17.066667 0 1 0-34.133333 0Z" fill="#FBF9E9" /></svg>