<svg viewBox="0 0 400 400" xmlns:xlink="http://www.w3.org/1999/xlink" xmlns="http://www.w3.org/2000/svg" id="图层_1"><defs><style>.cls-1{fill:url(#未命名的渐变_23);}.cls-2{fill:url(#未命名的渐变_36);}.cls-3{fill:url(#未命名的渐变_36-2);}.cls-4{fill:url(#未命名的渐变_10);}.cls-5{fill:url(#未命名的渐变_10-2);}.cls-6{fill:url(#未命名的渐变_10-3);}.cls-7{fill:#f0e6e5;}.cls-8{fill:url(#未命名的渐变_27);}.cls-9{fill:url(#未命名的渐变_27-2);}.cls-10{fill:url(#未命名的渐变_9);}</style><linearGradient gradientUnits="userSpaceOnUse" y2="376.58" x2="200" y1="218.52" x1="200" id="未命名的渐变_23"><stop stop-color="#f8f1f0" offset="0"></stop><stop stop-color="#fdfbfb" offset="0.48"></stop><stop stop-color="#fff" offset="1"></stop></linearGradient><linearGradient gradientUnits="userSpaceOnUse" gradientTransform="translate(225.58 -178.02) rotate(-12.77)" y2="450.9" x2="-20.25" y1="434.61" x1="-20.25" id="未命名的渐变_36"><stop stop-color="#fdfbfa" offset="0"></stop><stop stop-color="#f8efef" offset="0.24"></stop><stop stop-color="#f3e2e2" offset="0.64"></stop><stop stop-color="#f1dede" offset="1"></stop></linearGradient><linearGradient xlink:href="#未命名的渐变_36" gradientTransform="translate(-543.44 261.45) rotate(23.16)" y2="-379.85" x2="564.29" y1="-404.72" x1="564.29" id="未命名的渐变_36-2"></linearGradient><linearGradient gradientUnits="userSpaceOnUse" y2="150.8" x2="79.02" y1="215.42" x1="88.43" id="未命名的渐变_10"><stop stop-opacity="0.2" stop-color="#fdfbfa" offset="0"></stop><stop stop-opacity="0.37" stop-color="#fcf7f6" offset="0.12"></stop><stop stop-opacity="0.56" stop-color="#faf3f2" offset="0.27"></stop><stop stop-opacity="0.72" stop-color="#f8f0ef" offset="0.43"></stop><stop stop-opacity="0.84" stop-color="#f7edec" offset="0.58"></stop><stop stop-opacity="0.93" stop-color="#f7eceb" offset="0.72"></stop><stop stop-opacity="0.98" stop-color="#f6eae9" offset="0.87"></stop><stop stop-color="#f6eae9" offset="1"></stop></linearGradient><linearGradient xlink:href="#未命名的渐变_10" y2="63.84" x2="271.55" y1="144.98" x1="283.36" id="未命名的渐变_10-2"></linearGradient><linearGradient xlink:href="#未命名的渐变_10" y2="191.37" x2="313.49" y1="224.88" x1="318.37" id="未命名的渐变_10-3"></linearGradient><linearGradient gradientUnits="userSpaceOnUse" y2="200.36" x2="228.17" y1="200.36" x1="171.83" id="未命名的渐变_27"><stop stop-color="#f0e0df" offset="0"></stop><stop stop-color="#f0dedd" offset="0.05"></stop><stop stop-color="#ecd2d0" offset="0.54"></stop><stop stop-color="#ebcecc" offset="1"></stop></linearGradient><linearGradient xlink:href="#未命名的渐变_27" y2="209.02" x2="258.35" y1="209.02" x1="141.65" id="未命名的渐变_27-2"></linearGradient><linearGradient gradientUnits="userSpaceOnUse" y2="249.25" x2="142.01" y1="126.87" x1="190.56" id="未命名的渐变_9"><stop stop-opacity="0.3" stop-color="#fff" offset="0"></stop><stop stop-opacity="0.28" stop-color="#fff" offset="0.03"></stop><stop stop-opacity="0.16" stop-color="#fff" offset="0.29"></stop><stop stop-opacity="0.07" stop-color="#fff" offset="0.55"></stop><stop stop-opacity="0.02" stop-color="#fff" offset="0.79"></stop><stop stop-opacity="0" stop-color="#fff" offset="1"></stop></linearGradient></defs><ellipse ry="78.92" rx="189.11" cy="300.54" cx="200" class="cls-1"></ellipse><circle r="8.15" cy="258.25" cx="303.72" class="cls-2"></circle><circle r="12.44" cy="121.94" cx="130.02" class="cls-3"></circle><path d="M114,181.6l-.69,0c-3.3-9.5-15.29-16.54-29.57-16.54-15.31,0-28,8.08-30.15,18.61-8.64,2.24-14.75,7.7-14.75,14.09,0,8.39,10.52,15.19,23.5,15.19A30.93,30.93,0,0,0,79,208.49a43.17,43.17,0,0,0,4.74.26,39.48,39.48,0,0,0,16.68-3.56A21.74,21.74,0,0,0,114,209.64c10.28,0,18.62-6.28,18.62-14S124.25,181.6,114,181.6Z" class="cls-4"></path><path d="M315.43,102.51c-.29,0-.57,0-.86,0-4.15-11.94-19.2-20.78-37.14-20.78-19.22,0-35.13,10.15-37.86,23.37-10.85,2.82-18.52,9.68-18.52,17.7,0,10.53,13.21,19.07,29.51,19.07,8.18,0,15.58-2.15,20.92-5.62a55.32,55.32,0,0,0,5.95.33,49.47,49.47,0,0,0,20.95-4.48,27.32,27.32,0,0,0,17.05,5.59c12.92,0,23.39-7.88,23.39-17.61S328.35,102.51,315.43,102.51Z" class="cls-5"></path><path d="M331.61,207.34h-.36c-1.71-4.92-7.93-8.57-15.33-8.57-7.94,0-14.51,4.19-15.64,9.64-4.48,1.17-7.64,4-7.64,7.31,0,4.35,5.45,7.88,12.18,7.88a16.07,16.07,0,0,0,8.64-2.32c.8.08,1.62.13,2.46.13a20.42,20.42,0,0,0,8.65-1.85,11.26,11.26,0,0,0,7,2.31c5.33,0,9.65-3.25,9.65-7.27S336.94,207.34,331.61,207.34Z" class="cls-6"></path><ellipse ry="9.86" rx="43.74" cy="276.2" cx="200" class="cls-7"></ellipse><path d="M171.83,200.36A28.17,28.17,0,1,0,200,172.19a28.18,28.18,0,0,0-28.17,28.17Zm0,0" class="cls-8"></path><path d="M244.91,237.16c7.78-10.65,13.44-23.12,13.44-37.07,0-31.57-26.12-57.16-58.35-57.16s-58.35,25.59-58.35,57.16c0,44.67,58.35,75,58.35,75A155.93,155.93,0,0,0,236.69,247L223,233.26a40,40,0,1,1,9.18-8.87Zm0,0" class="cls-9"></path><path d="M218.11,134.81,167.4,265.92s-35.69-63-36.05-68.77,26.24-57.44,26.24-57.44Z" class="cls-10"></path></svg>