<svg viewBox="0 0 400 400" xmlns:xlink="http://www.w3.org/1999/xlink" xmlns="http://www.w3.org/2000/svg" id="图层_1"><defs><style>.cls-1{fill:url(#未命名的渐变_23);}.cls-2{fill:url(#未命名的渐变_36);}.cls-3{fill:url(#未命名的渐变_36-2);}.cls-4{fill:url(#未命名的渐变_10);}.cls-5{fill:url(#未命名的渐变_10-2);}.cls-6{fill:url(#未命名的渐变_10-3);}.cls-7{fill:#f0e6e5;}.cls-8{fill:url(#未命名的渐变_27);}.cls-9{fill:#e8c2c1;}.cls-10{fill:#fff;}.cls-11{fill:url(#未命名的渐变_9);}.cls-12{fill:url(#未命名的渐变_9-2);}</style><linearGradient gradientUnits="userSpaceOnUse" y2="376.58" x2="200" y1="218.52" x1="200" id="未命名的渐变_23"><stop stop-color="#f8f1f0" offset="0"></stop><stop stop-color="#fdfbfb" offset="0.48"></stop><stop stop-color="#fff" offset="1"></stop></linearGradient><linearGradient gradientUnits="userSpaceOnUse" gradientTransform="translate(200.89 -398.59) rotate(-12.77)" y2="686.23" x2="-61.71" y1="669.93" x1="-61.71" id="未命名的渐变_36"><stop stop-color="#fdfbfa" offset="0"></stop><stop stop-color="#f8efef" offset="0.24"></stop><stop stop-color="#f3e2e2" offset="0.64"></stop><stop stop-color="#f1dede" offset="1"></stop></linearGradient><linearGradient xlink:href="#未命名的渐变_36" gradientTransform="translate(-623.87 653.88) rotate(23.16)" y2="-744.36" x2="510.82" y1="-769.24" x1="510.82" id="未命名的渐变_36-2"></linearGradient><linearGradient gradientUnits="userSpaceOnUse" y2="160.55" x2="74.6" y1="225.17" x1="84" id="未命名的渐变_10"><stop stop-opacity="0.2" stop-color="#fdfbfa" offset="0"></stop><stop stop-opacity="0.37" stop-color="#fcf7f6" offset="0.12"></stop><stop stop-opacity="0.56" stop-color="#faf3f2" offset="0.27"></stop><stop stop-opacity="0.72" stop-color="#f8f0ef" offset="0.43"></stop><stop stop-opacity="0.84" stop-color="#f7edec" offset="0.58"></stop><stop stop-opacity="0.93" stop-color="#f7eceb" offset="0.72"></stop><stop stop-opacity="0.98" stop-color="#f6eae9" offset="0.87"></stop><stop stop-color="#f6eae9" offset="1"></stop></linearGradient><linearGradient xlink:href="#未命名的渐变_10" y2="60.51" x2="271.55" y1="141.65" x1="283.36" id="未命名的渐变_10-2"></linearGradient><linearGradient xlink:href="#未命名的渐变_10" y2="201.08" x2="295.31" y1="234.59" x1="300.19" id="未命名的渐变_10-3"></linearGradient><linearGradient gradientUnits="userSpaceOnUse" y2="246.4" x2="255.18" y1="182.74" x1="150.89" id="未命名的渐变_27"><stop stop-color="#f0e0df" offset="0"></stop><stop stop-color="#f0dedd" offset="0.05"></stop><stop stop-color="#ecd2d0" offset="0.54"></stop><stop stop-color="#ebcecc" offset="1"></stop></linearGradient><linearGradient gradientUnits="userSpaceOnUse" y2="271.93" x2="135.1" y1="138.18" x1="197.41" id="未命名的渐变_9"><stop stop-opacity="0.3" stop-color="#fff" offset="0"></stop><stop stop-opacity="0.28" stop-color="#fff" offset="0.03"></stop><stop stop-opacity="0.16" stop-color="#fff" offset="0.29"></stop><stop stop-opacity="0.07" stop-color="#fff" offset="0.55"></stop><stop stop-opacity="0.02" stop-color="#fff" offset="0.79"></stop><stop stop-opacity="0" stop-color="#fff" offset="1"></stop></linearGradient><linearGradient xlink:href="#未命名的渐变_9" y2="272.1" x2="135.45" y1="138.34" x1="197.75" id="未命名的渐变_9-2"></linearGradient></defs><ellipse ry="78.92" rx="189.11" cy="300.54" cx="200" class="cls-1"></ellipse><circle r="8.15" cy="276.35" cx="290.62" class="cls-2"></circle><circle r="12.44" cy="158.21" cx="143.82" class="cls-3"></circle><path d="M109.54,191.35l-.69,0c-3.3-9.51-15.29-16.55-29.57-16.55-15.31,0-28,8.08-30.15,18.61-8.64,2.24-14.75,7.71-14.75,14.09,0,8.39,10.52,15.19,23.5,15.19a30.93,30.93,0,0,0,16.66-4.48,40.93,40.93,0,0,0,4.74.27A39.44,39.44,0,0,0,96,214.94a21.68,21.68,0,0,0,13.58,4.45c10.28,0,18.62-6.27,18.62-14S119.82,191.35,109.54,191.35Z" class="cls-4"></path><path d="M315.43,99.18c-.29,0-.57,0-.86,0-4.15-11.93-19.2-20.77-37.14-20.77-19.22,0-35.13,10.14-37.86,23.36-10.85,2.82-18.52,9.68-18.52,17.7,0,10.53,13.21,19.07,29.51,19.07,8.18,0,15.58-2.15,20.92-5.62a52.86,52.86,0,0,0,5.95.33,49.62,49.62,0,0,0,20.95-4.47,27.32,27.32,0,0,0,17.05,5.59c12.92,0,23.39-7.89,23.39-17.61S328.35,99.18,315.43,99.18Z" class="cls-5"></path><path d="M313.43,217.05h-.36c-1.71-4.92-7.92-8.57-15.33-8.57-7.94,0-14.5,4.19-15.63,9.65-4.48,1.16-7.65,4-7.65,7.3,0,4.35,5.46,7.88,12.19,7.88a16.06,16.06,0,0,0,8.63-2.32,22,22,0,0,0,2.46.13,20.57,20.57,0,0,0,8.65-1.84,11.31,11.31,0,0,0,7,2.3c5.33,0,9.66-3.25,9.66-7.27S318.76,217.05,313.43,217.05Z" class="cls-6"></path><ellipse ry="9.86" rx="43.74" cy="277.87" cx="200" class="cls-7"></ellipse><path d="M200,276.35c-41.65,0-59.12-14.9-59.12-45.52,0-25.36,19.81-51.83,43.82-60.18h30.6c24,8.35,43.82,34.82,43.82,60.18,0,30.62-17.47,45.52-59.12,45.52Zm23.9-125.79-1.06,1.32-.06.08-8.94,11.18H183.65L174.72,152l-.17-.21-1-1.21.17-.34a3.73,3.73,0,0,1-.19-.95,3.76,3.76,0,0,1,2.42-3.5l.12-.24s12.37-2.48,22.64-2.52a123.5,123.5,0,0,1,22.64,2.52l.13.24a3.76,3.76,0,0,1,2.4,3.5,3.5,3.5,0,0,1-.19.92Zm0,0" class="cls-8"></path><path d="M202.21,253.69a5.66,5.66,0,0,1-3.76-1.1,4.48,4.48,0,0,1-1.35-3.4v-7.81H183.44a2.37,2.37,0,0,1-1.82-1,5.3,5.3,0,0,1-.93-2.34,3.47,3.47,0,0,1,.85-1.94,2.75,2.75,0,0,1,2-.82H197.1V229l-13.66-.07a2.63,2.63,0,0,1-1.88-.86,4,4,0,0,1-.87-2.09,3.47,3.47,0,0,1,.85-1.95,2.8,2.8,0,0,1,2-.82h11.17L185,206.13l0,0a8.53,8.53,0,0,1-1.13-1.81,4.34,4.34,0,0,1-.42-2.11,5.06,5.06,0,0,1,1-2.31,4.67,4.67,0,0,1,2.85-1.08,4.2,4.2,0,0,1,2.12.85,8.33,8.33,0,0,1,1.8,1.81L202,221.12l11.86-19.88a6.94,6.94,0,0,1,1.7-1.61,5.12,5.12,0,0,1,2.22-.85,10.72,10.72,0,0,1,1.51.22,3,3,0,0,1,1,.47,2.47,2.47,0,0,1,.71.92,6.4,6.4,0,0,1,.52,1.88,4.73,4.73,0,0,1-1.09,2.77l-11.18,18.17h11.52a2.81,2.81,0,0,1,1.88.83,3.25,3.25,0,0,1,.82,2,3.64,3.64,0,0,1-.89,2.07,2.65,2.65,0,0,1-2,.93l-13.45.07v6.14h13.6a2.56,2.56,0,0,1,1.84.91,3.78,3.78,0,0,1,.86,2.2,3.68,3.68,0,0,1-.85,2,2.64,2.64,0,0,1-1.93.89l-13.52-.07v8C207,252.31,205.5,253.69,202.21,253.69Z" class="cls-9"></path><path d="M202.21,250.85a5.61,5.61,0,0,1-3.76-1.11,4.48,4.48,0,0,1-1.35-3.39v-7.82H183.44a2.31,2.31,0,0,1-1.82-1,5.25,5.25,0,0,1-.93-2.34,3.47,3.47,0,0,1,.85-1.94,2.83,2.83,0,0,1,2-.82H197.1v-6.28l-13.66-.07a2.55,2.55,0,0,1-1.88-.86,3.94,3.94,0,0,1-.87-2.09,3.53,3.53,0,0,1,.85-1.95,2.79,2.79,0,0,1,2-.81h11.17L185,203.28l0,0a8.79,8.79,0,0,1-1.13-1.81,4.38,4.38,0,0,1-.42-2.12,5,5,0,0,1,1-2.3,4.6,4.6,0,0,1,2.85-1.08,4.1,4.1,0,0,1,2.12.84,8.59,8.59,0,0,1,1.8,1.82L202,218.28l11.86-19.88a6.79,6.79,0,0,1,1.7-1.62,5.25,5.25,0,0,1,2.22-.85,10.67,10.67,0,0,1,1.51.23,2.83,2.83,0,0,1,1,.47,2.47,2.47,0,0,1,.71.92,6.31,6.31,0,0,1,.52,1.88,4.76,4.76,0,0,1-1.09,2.77l-11.18,18.17h11.52a2.77,2.77,0,0,1,1.88.83,3.21,3.21,0,0,1,.82,2,3.67,3.67,0,0,1-.89,2.07,2.64,2.64,0,0,1-2,.92l-13.45.07v6.15h13.6a2.56,2.56,0,0,1,1.84.91,3.78,3.78,0,0,1,.86,2.19,3.62,3.62,0,0,1-.85,2,2.64,2.64,0,0,1-1.93.9l-13.52-.08v8C207,249.47,205.5,250.85,202.21,250.85Z" class="cls-10"></path><path d="M173.56,149.27a3.73,3.73,0,0,0,.19.95l-.17.34,1,1.21.17.21,8.93,11.16h21.19l8.7-19a106.52,106.52,0,0,0-14.8-1.16c-10.27,0-22.64,2.52-22.64,2.52l-.12.24A3.76,3.76,0,0,0,173.56,149.27Z" class="cls-11"></path><path d="M184.7,170.65c-24,8.35-43.82,34.82-43.82,60.18,0,16.58,5.13,28.53,16.43,36l44.09-96.21Z" class="cls-12"></path></svg>