<?xml version="1.0" standalone="no"?><!DOCTYPE svg PUBLIC "-//W3C//DTD SVG 1.1//EN" "http://www.w3.org/Graphics/SVG/1.1/DTD/svg11.dtd"><svg class="icon" width="48px" height="48.00px" viewBox="0 0 1024 1024" version="1.1" xmlns="http://www.w3.org/2000/svg"><path d="M341.333333 409.6h512v546.133333H341.333333z" fill="#4F8DFC" /><path d="M938.666667 136.533333h-853.333334a51.2 51.2 0 0 0 0 102.4H102.4v733.866667A51.2 51.2 0 0 0 153.6 1024h716.8a51.2 51.2 0 0 0 51.2-51.2V238.933333h17.066667a51.2 51.2 0 0 0 0-102.4zM819.2 921.6H204.8V238.933333h614.4zM426.666667 102.4h170.666666a51.2 51.2 0 0 0 0-102.4h-170.666666a51.2 51.2 0 0 0 0 102.4z" fill="#181818" /><path d="M392.533333 750.933333a51.2 51.2 0 0 0 51.2-51.2v-238.933333a51.2 51.2 0 0 0-102.4 0v238.933333a51.2 51.2 0 0 0 51.2 51.2zM631.466667 750.933333a51.2 51.2 0 0 0 51.2-51.2v-238.933333a51.2 51.2 0 0 0-102.4 0v238.933333a51.2 51.2 0 0 0 51.2 51.2z" fill="#181818" /></svg>