<?xml version="1.0" standalone="no"?><!DOCTYPE svg PUBLIC "-//W3C//DTD SVG 1.1//EN" "http://www.w3.org/Graphics/SVG/1.1/DTD/svg11.dtd"><svg class="icon" width="48px" height="48.00px" viewBox="0 0 1024 1024" version="1.1" xmlns="http://www.w3.org/2000/svg"><path d="M358.421096 853.345393a462.132676 462.132676 0 0 0 10.239277 96.590508 460.42613 460.42613 0 0 0 593.878032-534.49023A460.42613 460.42613 0 0 0 358.421096 853.345393z" fill="#4F8DFC" /><path d="M938.64676 921.607236H819.188535a511.963821 511.963821 0 1 0-307.178292 102.392764h426.636517a51.196382 51.196382 0 0 0 0-102.392764zM102.439186 512.036179a409.571057 409.571057 0 1 1 409.571057 409.571057A409.571057 409.571057 0 0 1 102.439186 512.036179z" fill="#181818" /><path d="M785.057614 512.036179a51.196382 51.196382 0 0 0-24.574264-43.68758l-307.178292-187.720067A51.196382 51.196382 0 0 0 375.486557 324.316111v375.440136a51.196382 51.196382 0 0 0 77.818501 43.687579l307.178292-187.720068A51.196382 51.196382 0 0 0 785.057614 512.036179z m-307.178293 96.590507v-193.181015L635.564178 512.036179z" fill="#181818" /></svg>