<?xml version="1.0" standalone="no"?><!DOCTYPE svg PUBLIC "-//W3C//DTD SVG 1.1//EN" "http://www.w3.org/Graphics/SVG/1.1/DTD/svg11.dtd"><svg class="icon" width="48px" height="48.00px" viewBox="0 0 1024 1024" version="1.1" xmlns="http://www.w3.org/2000/svg"><path d="M238.933333 443.733333h716.8v477.866667H238.933333z" fill="#4F8DFC" /><path d="M972.8 204.8H887.466667V85.333333A51.2 51.2 0 0 0 836.266667 34.133333H136.533333a136.533333 136.533333 0 0 0-136.533333 136.533334v768A51.2 51.2 0 0 0 51.2 989.866667h921.6a51.2 51.2 0 0 0 51.2-51.2v-682.666667A51.2 51.2 0 0 0 972.8 204.8zM136.533333 136.533333h648.533334v68.266667H136.533333a34.133333 34.133333 0 0 1 0-68.266667zM102.4 887.466667V302.421333A136.533333 136.533333 0 0 0 136.533333 307.2h785.066667v580.266667z" fill="#181818" /><path d="M785.066667 580.266667m-68.266667 0a68.266667 68.266667 0 1 0 136.533333 0 68.266667 68.266667 0 1 0-136.533333 0Z" fill="#181818" /></svg>