<?xml version="1.0" standalone="no"?><!DOCTYPE svg PUBLIC "-//W3C//DTD SVG 1.1//EN" "http://www.w3.org/Graphics/SVG/1.1/DTD/svg11.dtd"><svg class="icon" width="48px" height="48.00px" viewBox="0 0 1024 1024" version="1.1" xmlns="http://www.w3.org/2000/svg"><path d="M512 546.133333a273.066667 273.066667 0 1 1 273.066667-273.066666 273.066667 273.066667 0 0 1-273.066667 273.066666z m0-443.733333a170.666667 170.666667 0 1 0 170.666667 170.666667 170.666667 170.666667 0 0 0-170.666667-170.666667z" fill="#181818" /><path d="M621.226667 644.437333a341.333333 341.333333 0 0 0-249.173334 328.362667h498.346667a341.333333 341.333333 0 0 0-249.173333-328.362667z" fill="#4F8DFC" /><path d="M870.4 1024h-716.8A51.2 51.2 0 0 1 102.4 972.8 392.874667 392.874667 0 0 1 494.933333 580.266667h34.133334A392.874667 392.874667 0 0 1 921.6 972.8a51.2 51.2 0 0 1-51.2 51.2zM209.237333 921.6h605.525334a290.474667 290.474667 0 0 0-285.696-238.933333h-34.133334a290.474667 290.474667 0 0 0-285.696 238.933333z" fill="#181818" /></svg>