<?xml version="1.0" standalone="no"?><!DOCTYPE svg PUBLIC "-//W3C//DTD SVG 1.1//EN" "http://www.w3.org/Graphics/SVG/1.1/DTD/svg11.dtd"><svg class="icon" width="48px" height="47.95px" viewBox="0 0 1025 1024" version="1.1" xmlns="http://www.w3.org/2000/svg"><path d="M990.369189 989.864357H341.837369V546.132059h546.132059l102.399761 443.732298z" fill="#4F8DFC" /><path d="M1024.502443 965.629747l-102.399761-716.798328A51.199881 51.199881 0 0 0 870.902801 204.799522h-122.197048A238.932776 238.932776 0 0 0 276.301522 204.799522H154.104474A51.199881 51.199881 0 0 0 102.904593 248.831419l-102.399761 716.798328A51.199881 51.199881 0 0 0 51.704713 1023.997611h921.597849a51.199881 51.199881 0 0 0 51.199881-58.367864zM512.503637 102.399761a136.533015 136.533015 0 0 1 131.75436 102.399761h-263.508719A136.533015 136.533015 0 0 1 512.503637 102.399761zM110.755241 921.59785L198.477703 307.199283H273.570862v51.199881a51.199881 51.199881 0 0 0 102.399761 0V307.199283h273.066029v51.199881a51.199881 51.199881 0 0 0 102.399761 0V307.199283h75.093158l87.722462 614.398567z" fill="#181818" /></svg>