<?xml version="1.0" standalone="no"?><!DOCTYPE svg PUBLIC "-//W3C//DTD SVG 1.1//EN" "http://www.w3.org/Graphics/SVG/1.1/DTD/svg11.dtd"><svg class="icon" width="48px" height="48.00px" viewBox="0 0 1024 1024" version="1.1" xmlns="http://www.w3.org/2000/svg"><path d="M204.8 802.133333h85.333333v136.533334l214.698667-136.533334H955.733333V375.466667H204.8v426.666666z" fill="#4F8DFC" /><path d="M290.133333 989.866667A51.2 51.2 0 0 1 238.933333 938.666667V853.333333H51.2A51.2 51.2 0 0 1 0 802.133333v-716.8A51.2 51.2 0 0 1 51.2 34.133333h921.6A51.2 51.2 0 0 1 1024 85.333333v716.8a51.2 51.2 0 0 1-51.2 51.2H519.509333l-201.728 128.682667a51.2 51.2 0 0 1-27.648 7.850667zM102.4 750.933333h187.733333a51.2 51.2 0 0 1 51.2 51.2v43.349334l136.533334-86.357334a51.2 51.2 0 0 1 27.648-7.850666H921.6V136.533333H102.4z" fill="#181818" /><path d="M512 443.733333m-68.266667 0a68.266667 68.266667 0 1 0 136.533334 0 68.266667 68.266667 0 1 0-136.533334 0Z" fill="#181818" /><path d="M750.933333 443.733333m-68.266666 0a68.266667 68.266667 0 1 0 136.533333 0 68.266667 68.266667 0 1 0-136.533333 0Z" fill="#181818" /><path d="M273.066667 443.733333m-68.266667 0a68.266667 68.266667 0 1 0 136.533333 0 68.266667 68.266667 0 1 0-136.533333 0Z" fill="#181818" /></svg>