<?xml version="1.0" standalone="no"?><!DOCTYPE svg PUBLIC "-//W3C//DTD SVG 1.1//EN" "http://www.w3.org/Graphics/SVG/1.1/DTD/svg11.dtd"><svg class="icon" width="48px" height="48.00px" viewBox="0 0 1024 1024" version="1.1" xmlns="http://www.w3.org/2000/svg"><path d="M948.906667 513.024L230.741333 857.770667h719.530667l-1.365333-344.746667z" fill="#4F8DFC" /><path d="M972.8 102.4h-921.6A51.2 51.2 0 0 0 0 153.6v716.8A51.2 51.2 0 0 0 51.2 921.6h921.6a51.2 51.2 0 0 0 51.2-51.2v-716.8A51.2 51.2 0 0 0 972.8 102.4zM921.6 204.8v105.472l-5.12 1.706667L512 506.538667 107.52 312.32 102.4 310.272V204.8zM102.4 819.2V423.253333l387.413333 186.026667a51.2 51.2 0 0 0 44.373334 0L921.6 423.253333V819.2z" fill="#181818" /></svg>