<?xml version="1.0" standalone="no"?><!DOCTYPE svg PUBLIC "-//W3C//DTD SVG 1.1//EN" "http://www.w3.org/Graphics/SVG/1.1/DTD/svg11.dtd"><svg class="icon" width="48px" height="48.00px" viewBox="0 0 1024 1024" version="1.1" xmlns="http://www.w3.org/2000/svg"><path d="M840.704 516.437333A141.994667 141.994667 0 0 1 955.733333 375.466667V170.666667H273.066667v682.666666h682.666666v-197.632a141.994667 141.994667 0 0 1-115.029333-139.264z" fill="#4F8DFC" /><path d="M978.602667 409.6A51.2 51.2 0 0 0 1024 360.106667V153.6A51.2 51.2 0 0 0 972.8 102.4h-921.6A51.2 51.2 0 0 0 0 153.6v716.8A51.2 51.2 0 0 0 51.2 921.6h921.6a51.2 51.2 0 0 0 51.2-51.2v-206.506667A51.2 51.2 0 0 0 978.602667 614.4a102.4 102.4 0 0 1 0-202.069333zM921.6 704.512V819.2H341.333333v-85.333333a51.2 51.2 0 0 0-102.4 0V819.2H102.4V204.8h136.533333v85.333333a51.2 51.2 0 0 0 102.4 0V204.8h580.266667v114.688a204.8 204.8 0 0 0 0 384.682667z" fill="#181818" /><path d="M290.133333 409.6A51.2 51.2 0 0 0 238.933333 460.8v102.4a51.2 51.2 0 0 0 102.4 0v-102.4A51.2 51.2 0 0 0 290.133333 409.6z" fill="#181818" /></svg>