<?xml version="1.0" standalone="no"?><!DOCTYPE svg PUBLIC "-//W3C//DTD SVG 1.1//EN" "http://www.w3.org/Graphics/SVG/1.1/DTD/svg11.dtd"><svg class="icon" width="48px" height="48.00px" viewBox="0 0 1024 1024" version="1.1" xmlns="http://www.w3.org/2000/svg"><path d="M102.4 512h819.2v443.733333H102.4z" fill="#4F8DFC" /><path d="M966.314667 281.258667l-426.666667-273.066667a51.2 51.2 0 0 0-55.296 0l-426.666667 273.066667A51.2 51.2 0 0 0 34.133333 324.266667v648.533333A51.2 51.2 0 0 0 85.333333 1024h853.333334a51.2 51.2 0 0 0 51.2-51.2v-648.533333a51.2 51.2 0 0 0-23.552-43.008zM887.466667 921.6H136.533333V352.256l375.466667-238.933333 375.466667 238.933333z" fill="#181818" /><path d="M512 716.8m-68.266667 0a68.266667 68.266667 0 1 0 136.533334 0 68.266667 68.266667 0 1 0-136.533334 0Z" fill="#181818" /></svg>