<?xml version="1.0" standalone="no"?><!DOCTYPE svg PUBLIC "-//W3C//DTD SVG 1.1//EN" "http://www.w3.org/Graphics/SVG/1.1/DTD/svg11.dtd"><svg class="icon" width="48px" height="36.25px" viewBox="0 0 1356 1024" version="1.1" xmlns="http://www.w3.org/2000/svg"><path d="M358.4 742.4h844.8c56.32 0 102.4-46.08 102.4-102.4V153.6c0-56.32-46.08-102.4-102.4-102.4H358.4c-56.32 0-102.4 46.08-102.4 102.4v486.4c0 56.32 46.08 102.4 102.4 102.4z" fill="#FFFFFF" /><path d="M1203.2 780.8H358.4c-76.8 0-140.8-64-140.8-140.8V153.6C217.6 76.8 281.6 12.8 358.4 12.8h844.8c76.8 0 140.8 64 140.8 140.8v486.4c0 76.8-64 140.8-140.8 140.8z m-844.8-691.2c-35.84 0-64 28.16-64 64v486.4c0 35.84 28.16 64 64 64h844.8c35.84 0 64-28.16 64-64V153.6c0-35.84-28.16-64-64-64H358.4z" fill="#333333" /><path d="M153.6 281.6h844.8c56.32 0 102.4 46.08 102.4 102.4v486.4c0 56.32-46.08 102.4-102.4 102.4H153.6c-56.32 0-102.4-46.08-102.4-102.4V384c0-56.32 46.08-102.4 102.4-102.4z" fill="#EA5406" /><path d="M998.4 1011.2H153.6C76.8 1011.2 12.8 947.2 12.8 870.4V384C12.8 307.2 76.8 243.2 153.6 243.2h844.8c76.8 0 140.8 64 140.8 140.8v486.4c0 76.8-64 140.8-140.8 140.8z m-844.8-691.2c-35.84 0-64 28.16-64 64v486.4c0 35.84 28.16 64 64 64h844.8c35.84 0 64-28.16 64-64V384c0-35.84-28.16-64-64-64H153.6z" fill="#333333" /><path d="M611.84 696.32c-7.68 0-15.36 0-23.04-2.56-30.72-5.12-56.32-23.04-74.24-48.64-35.84-53.76-20.48-125.44 30.72-158.72l104.96-71.68c53.76-35.84 125.44-20.48 158.72 30.72 35.84 53.76 20.48 125.44-30.72 158.72l-104.96 71.68c-17.92 12.8-38.4 20.48-61.44 20.48z m104.96-250.88c-12.8 0-25.6 2.56-35.84 10.24l-104.96 71.68c-28.16 20.48-35.84 58.88-17.92 89.6 20.48 28.16 58.88 35.84 89.6 17.92l104.96-71.68c15.36-10.24 23.04-23.04 28.16-40.96 2.56-17.92 0-33.28-10.24-48.64-12.8-20.48-33.28-28.16-53.76-28.16z" fill="#FFFFFF" /><path d="M483.84 834.56c-35.84 0-74.24-17.92-94.72-51.2-35.84-53.76-20.48-125.44 30.72-158.72l104.96-71.68c53.76-35.84 125.44-20.48 158.72 30.72 17.92 25.6 23.04 56.32 17.92 87.04-5.12 30.72-23.04 56.32-48.64 74.24l-104.96 71.68c-20.48 12.8-43.52 17.92-64 17.92z m104.96-250.88c-12.8 0-25.6 2.56-35.84 10.24L448 665.6c-28.16 20.48-35.84 58.88-17.92 89.6 20.48 28.16 58.88 35.84 89.6 17.92l104.96-71.68c15.36-10.24 23.04-23.04 28.16-40.96 2.56-17.92 0-33.28-10.24-48.64-12.8-17.92-33.28-28.16-53.76-28.16z" fill="#FFFFFF" /></svg>