<?xml version="1.0" standalone="no"?><!DOCTYPE svg PUBLIC "-//W3C//DTD SVG 1.1//EN" "http://www.w3.org/Graphics/SVG/1.1/DTD/svg11.dtd"><svg class="icon" width="48px" height="48.00px" viewBox="0 0 1024 1024" version="1.1" xmlns="http://www.w3.org/2000/svg"><path d="M261.513846 694.744615a315.076923 252.061538 90 1 0 504.123077 0 315.076923 252.061538 90 1 0-504.123077 0Z" fill="#94C1FF" /><path d="M726.252308 793.993846l-12.603077 12.603077-55.138462-55.138461 55.138462-55.138462 12.603077 12.603077c1.575385 1.575385 3.150769 1.575385 6.301538 1.575385s4.726154 0 6.301539-1.575385c3.150769-3.150769 3.150769-7.876923 0-11.027692l-14.178462-14.178462 12.603077-12.603077c3.150769-3.150769 3.150769-7.876923 0-11.027692-3.150769-3.150769-7.876923-3.150769-11.027692 0l-12.603077 12.603077-55.138462-55.138462 55.138462-55.138461 7.876923 7.876923c1.575385 1.575385 3.150769 1.575385 6.301538 1.575384 1.575385 0 4.726154 0 6.301539-1.575384 3.150769-3.150769 3.150769-7.876923 0-11.027693l-14.178462-14.178461-61.44-61.44 11.027693-11.027692c3.150769-3.150769 3.150769-7.876923 0-11.027693-3.150769-3.150769-7.876923-3.150769-11.027693 0l-11.027692 11.027693-59.864615-59.864616h-1.575385c-3.150769-3.150769-7.876923-3.150769-11.027692 0L513.575385 472.615385l-61.44-61.44h-1.575385c0-1.575385-1.575385-1.575385-3.150769-1.575385s-3.150769 0-4.726154 1.575385H441.107692L379.667692 472.615385l-11.027692-11.027693c-3.150769-3.150769-7.876923-3.150769-11.027692 0-3.150769 3.150769-3.150769 7.876923 0 11.027693l11.027692 11.027692-61.44 61.44-14.178462 14.178461c-3.150769 3.150769-3.150769 7.876923 0 11.027693 1.575385 1.575385 3.150769 1.575385 6.301539 1.575384 1.575385 0 4.726154 0 6.301538-1.575384l7.876923-7.876923 55.138462 55.138461-55.138462 55.138462-12.603076-11.027693c-3.150769-3.150769-7.876923-3.150769-11.027693 0-3.150769 3.150769-3.150769 7.876923 0 11.027693l12.603077 12.603077-14.178461 14.178461c-3.150769 3.150769-3.150769 7.876923 0 11.027693 1.575385 1.575385 3.150769 1.575385 6.301538 1.575384 1.575385 0 4.726154 0 6.301539-1.575384l14.178461-14.178462 55.138462 55.138462-55.138462 55.138461-12.603077-12.603077c-3.150769-3.150769-7.876923-3.150769-11.027692 0-3.150769 3.150769-3.150769 7.876923 0 11.027692l12.603077 12.603077-3.150769 1.575385c-3.150769 3.150769-3.150769 7.876923 0 11.027692 1.575385 1.575385 3.150769 3.150769 6.301538 3.15077 1.575385 0 4.726154 0 4.726154-1.575385l1.575384-1.575385 55.138462 55.138462-29.932308 29.932308c-3.150769 3.150769-3.150769 7.876923 0 11.027692 1.575385 1.575385 3.150769 1.575385 6.301539 1.575384 1.575385 0 4.726154 0 6.301538-1.575384l29.932308-29.932308 55.138461 55.138462-18.904615 18.904615c-3.150769 3.150769-3.150769 7.876923 0 11.027692 1.575385 1.575385 3.150769 1.575385 6.301539 1.575385 1.575385 0 4.726154 0 6.301538-1.575385l18.904615-18.904615 28.356923 28.356923c1.575385 1.575385 3.150769 1.575385 6.301539 1.575385 1.575385 0 4.726154 0 6.301538-1.575385 3.150769-3.150769 3.150769-7.876923 0-11.027692l-28.356923-28.356923 55.138462-55.138462 55.138461 55.138462-28.356923 28.356923c-3.150769 3.150769-3.150769 7.876923 0 11.027692 1.575385 1.575385 3.150769 1.575385 6.301539 1.575385 1.575385 0 4.726154 0 6.301538-1.575385l28.356923-28.356923 18.904616 18.904615c1.575385 1.575385 3.150769 1.575385 6.301538 1.575385 1.575385 0 4.726154 0 6.301539-1.575385 3.150769-3.150769 3.150769-7.876923 0-11.027692l-18.904616-18.904615 55.138462-55.138462 31.507692 31.507692c1.575385 1.575385 3.150769 1.575385 6.301539 1.575385 1.575385 0 4.726154 0 6.301538-1.575385 3.150769-3.150769 3.150769-7.876923 0-11.027692l-31.507692-31.507692 61.44-61.44 17.32923-17.329231c3.150769-3.150769 3.150769-7.876923 0-11.027692-9.452308-4.726154-14.178462-4.726154-17.32923-1.575385z m-23.63077-110.276923L647.483077 740.430769l-55.138462-55.138461 55.138462-55.138462 55.138461 53.563077z m-189.046153-77.193846L458.436923 551.384615l55.138462-55.138461 55.138461 55.138461-55.138461 55.138462z m67.741538-44.110769l55.138462 55.138461-55.138462 55.138462-55.138461-55.138462 55.138461-55.138461z m-78.769231 55.138461l-55.138461 55.138462-55.138462-55.138462 55.138462-55.138461 55.138461 55.138461z m11.027693 11.027693l55.138461 55.138461-55.138461 56.713846-55.138462-55.138461 55.138462-56.713846z m-11.027693 122.88l-55.138461 55.138461-55.138462-55.138461 55.138462-55.138462 55.138461 55.138462z m11.027693 11.027692l55.138461 55.138461-55.138461 55.138462-55.138462-55.138462 55.138462-55.138461z m11.027692-11.027692l55.138461-55.138462 55.138462 55.138462-55.138462 55.138461-55.138461-55.138461zM702.621538 551.384615l-55.138461 55.138462-55.138462-55.138462 55.138462-55.138461 55.138461 55.138461z m-121.304615-122.88l55.138462 55.138462-55.138462 55.138461-55.138461-55.138461 55.138461-55.138462z m-133.907692 0l55.138461 55.138462-55.138461 55.138461-55.138462-55.138461 55.138462-55.138462zM324.529231 551.384615l55.138461-55.138461 55.138462 55.138461-55.138462 55.138462-55.138461-55.138462z m0 132.332308l55.138461-55.138461 55.138462 55.138461-55.138462 56.713846-55.138461-56.713846z m0 133.907692l55.138461-55.138461 55.138462 55.138461-55.138462 55.138462-55.138461-55.138462z m122.88 122.88l-55.138462-55.138461 55.138462-55.138462 55.138461 55.138462-55.138461 55.138461z m132.332307 0l-55.138461-55.138461 55.138461-55.138462 55.138462 55.138462-55.138462 55.138461z m12.603077-122.88l55.138462-55.138461 55.138461 55.138461-55.138461 55.138462-55.138462-55.138462z" fill="#D7E9FF" /><path d="M308.775385 694.744615c0-281.993846 100.824615-311.926154 228.430769-315.076923h-23.630769c-138.633846 0-252.061538 15.753846-252.061539 315.076923 0 315.076923 113.427692 315.076923 252.061539 315.076923h28.356923c-130.756923-1.575385-233.156923-15.753846-233.156923-315.076923z" fill="#D7E9FF" /><path d="M718.375385 694.744615c0-281.993846-100.824615-311.926154-228.43077-315.076923h23.63077c138.633846 0 252.061538 15.753846 252.061538 315.076923 0 315.076923-113.427692 315.076923-252.061538 315.076923h-28.356923c130.756923-1.575385 233.156923-15.753846 233.156923-315.076923z" fill="#5C9EFF" /><path d="M434.806154 382.818462c-28.356923 4.726154-55.138462 11.027692-78.769231 26.781538-15.753846-94.523077-110.276923-155.963077-110.276923-155.963077 37.809231 0 69.316923 9.452308 94.523077 23.630769 67.741538 36.233846 94.523077 105.550769 94.523077 105.55077z" fill="#D7E9FF" /><path d="M281.993846 256.787692c-11.027692-1.575385-23.630769-3.150769-36.233846-3.150769 0 0 94.523077 61.44 110.276923 155.963077 9.452308-6.301538 18.904615-9.452308 28.356923-14.178462-18.904615-74.043077-85.070769-126.030769-102.4-138.633846z" fill="#FFFFFF" /><path d="M513.575385 253.636923s63.015385 66.166154 63.015384 127.606154c-20.48-1.575385-40.96-1.575385-63.015384-1.575385s-42.535385 0-63.015385 1.575385c0-63.015385 63.015385-127.606154 63.015385-127.606154z" fill="#D7E9FF" /><path d="M576.590769 174.867692h15.753846c31.507692-94.523077 138.633846-78.769231 138.633847-78.76923-61.44 47.261538-75.618462 121.304615-75.618462 121.304615-44.110769 31.507692-63.015385 67.741538-63.015385 67.741538h-15.753846c0-61.44-63.015385-141.784615-63.015384-141.784615s-63.015385 78.769231-63.015385 141.784615h-15.753846s-18.904615-36.233846-63.015385-67.741538c0 0-14.178462-74.043077-75.618461-121.304615 0 0 107.126154-15.753846 138.633846 78.76923h15.753846c0-72.467692 63.015385-157.538462 63.015385-157.538461s63.015385 86.646154 63.015384 157.538461z" fill="#D7E9FF" /><path d="M686.867692 277.267692c-67.741538 37.809231-94.523077 107.126154-94.523077 107.126154-4.726154 0-11.027692-1.575385-15.753846-1.575384 0-61.44-63.015385-127.606154-63.015384-127.606154s-63.015385 64.590769-63.015385 127.606154c-6.301538 0-11.027692 1.575385-15.753846 1.575384 0 0-26.781538-69.316923-94.523077-107.126154-25.206154-63.015385-78.769231-102.4-78.769231-102.4 47.261538 6.301538 83.495385 23.630769 110.276923 42.535385 44.110769 31.507692 63.015385 67.741538 63.015385 67.741538h15.753846c0-63.015385 63.015385-141.784615 63.015385-141.784615s63.015385 80.344615 63.015384 141.784615h15.753846s18.904615-36.233846 63.015385-67.741538c26.781538-18.904615 63.015385-36.233846 110.276923-42.535385 0 0-53.563077 39.384615-78.769231 102.4z" fill="#D7E9FF" /><path d="M452.135385 269.390769s-20.48-37.809231-64.59077-69.316923c-7.876923-6.301538-15.753846-11.027692-25.206153-15.753846 7.876923 18.904615 9.452308 31.507692 9.452307 31.507692 44.110769 31.507692 63.015385 67.741538 63.015385 67.741539h15.753846c0-4.726154 1.575385-14.178462 1.575385-14.178462z" fill="#94C1FF" /><path d="M360.763077 184.32c9.452308 4.726154 17.329231 11.027692 25.206154 15.753846 4.726154 3.150769 9.452308 7.876923 14.178461 11.027692-4.726154-15.753846-22.055385-75.618462-75.618461-116.578461h3.150769c-20.48-1.575385-34.658462 0-34.658462 0 37.809231 28.356923 58.289231 64.590769 67.741539 89.796923z" fill="#FFFFFF" /><path d="M326.104615 247.335385l14.178462 28.356923c50.412308 28.356923 83.495385 77.193846 94.523077 107.126154 6.301538-1.575385 15.753846-1.575385 15.753846-1.575385s-11.027692-81.92-124.455385-133.907692z" fill="#94C1FF" /><path d="M370.215385 272.541538c-18.904615-42.535385-48.836923-74.043077-66.166154-88.221538-12.603077-4.726154-26.781538-7.876923-42.535385-9.452308 0 0 37.809231 28.356923 64.590769 74.043077 15.753846 6.301538 31.507692 14.178462 44.11077 23.630769z" fill="#FFFFFF" /><path d="M576.590769 269.390769s20.48-37.809231 64.590769-69.316923c7.876923-6.301538 15.753846-11.027692 25.206154-15.753846-7.876923 18.904615-9.452308 31.507692-9.452307 31.507692-44.110769 31.507692-63.015385 67.741538-63.015385 67.741539h-15.753846c0-4.726154-1.575385-14.178462-1.575385-14.178462zM702.621538 247.335385l-14.178461 28.356923c-50.412308 28.356923-83.495385 77.193846-94.523077 107.126154-6.301538-1.575385-15.753846-1.575385-15.753846-1.575385s11.027692-81.92 124.455384-133.907692z" fill="#94C1FF" /><path d="M781.390769 253.636923s-94.523077 61.44-110.276923 155.963077c-23.630769-14.178462-50.412308-22.055385-78.769231-26.781538 0 0 26.781538-69.316923 94.523077-107.126154 25.206154-12.603077 56.713846-22.055385 94.523077-22.055385z" fill="#D7E9FF" /><path d="M745.156923 256.787692c11.027692-1.575385 23.630769-3.150769 36.233846-3.150769 0 0-94.523077 61.44-110.276923 155.963077-9.452308-6.301538-18.904615-9.452308-28.356923-14.178462 18.904615-74.043077 85.070769-126.030769 102.4-138.633846zM666.387692 184.32c-9.452308 4.726154-17.329231 11.027692-25.206154 15.753846-4.726154 3.150769-9.452308 7.876923-14.178461 11.027692 4.726154-15.753846 22.055385-75.618462 75.618461-116.578461h-3.150769c20.48-1.575385 34.658462 0 34.658462 0-37.809231 28.356923-58.289231 64.590769-67.741539 89.796923zM656.935385 272.541538c18.904615-42.535385 48.836923-74.043077 66.166153-88.221538 12.603077-4.726154 26.781538-7.876923 42.535385-9.452308 0 0-37.809231 28.356923-64.590769 74.043077-15.753846 6.301538-31.507692 14.178462-44.110769 23.630769z" fill="#94C1FF" /><path d="M526.178462 1017.698462h-12.603077c-140.209231 0-259.938462 0-259.938462-322.953847 0-55.138462 3.150769-102.4 11.027692-141.784615 14.178462-74.043077 42.535385-122.88 86.646154-149.661538 22.055385-14.178462 48.836923-22.055385 81.92-26.781539 4.726154-1.575385 11.027692-1.575385 17.329231-1.575385 17.329231-1.575385 37.809231-1.575385 63.015385-1.575384 26.781538 0 45.686154 0 64.590769 1.575384 6.301538 0 11.027692 1.575385 15.753846 1.575385 33.083077 4.726154 59.864615 12.603077 81.92 26.781539 44.110769 26.781538 72.467692 77.193846 86.646154 149.661538 7.876923 39.384615 11.027692 86.646154 11.027692 141.784615 0 146.510769-23.630769 236.307692-74.043077 281.993847-45.686154 39.384615-107.126154 40.96-173.292307 40.96z m-12.603077-630.153847c-25.206154 0-44.110769 0-61.44 1.575385-4.726154 0-11.027692 1.575385-15.753847 1.575385-31.507692 4.726154-55.138462 12.603077-75.618461 25.206153-39.384615 25.206154-66.166154 70.892308-78.769231 140.209231-7.876923 39.384615-11.027692 83.495385-11.027692 138.633846 0 307.2 107.126154 307.2 244.184615 307.2h4.726154c67.741538 0 126.030769 0 168.566154-37.80923 47.261538-42.535385 69.316923-127.606154 69.316923-269.39077 0-55.138462-3.150769-99.249231-11.027692-138.633846-12.603077-69.316923-39.384615-115.003077-78.769231-140.209231-20.48-12.603077-45.686154-20.48-75.618462-25.206153-4.726154 0-9.452308-1.575385-15.753846-1.575385-17.329231-1.575385-37.809231-1.575385-63.015384-1.575385zM272.541538 554.535385z" fill="#116FFF" /><path d="M299.323077 565.563077c-1.575385 0-4.726154 0-6.301539-1.575385-3.150769-3.150769-3.150769-7.876923 0-11.027692l148.086154-148.086154c3.150769-3.150769 7.876923-3.150769 11.027693 0 3.150769 3.150769 3.150769 7.876923 0 11.027692l-148.086154 148.086154c-1.575385 0-3.150769 1.575385-4.726154 1.575385zM293.021538 704.196923c-1.575385 0-4.726154 0-6.301538-1.575385-3.150769-3.150769-3.150769-7.876923 0-11.027692l286.72-286.72c3.150769-3.150769 7.876923-3.150769 11.027692 0s3.150769 7.876923 0 11.027692L299.323077 702.621538c-1.575385 1.575385-4.726154 1.575385-6.301539 1.575385zM305.624615 825.501538c-1.575385 0-4.726154-1.575385-6.301538-3.150769-3.150769-3.150769-3.150769-7.876923 0-11.027692l7.876923-7.876923 349.735385-349.735385c3.150769-3.150769 7.876923-3.150769 11.027692 0s3.150769 7.876923 0 11.027693L311.926154 823.926154c-1.575385 0-4.726154 1.575385-6.301539 1.575384zM345.009231 920.024615c-1.575385 0-4.726154 0-6.301539-1.575384-3.150769-3.150769-3.150769-7.876923 0-11.027693L708.923077 537.206154c3.150769-3.150769 7.876923-3.150769 11.027692 0s3.150769 7.876923 0 11.027692L349.735385 918.449231c-1.575385 1.575385-3.150769 1.575385-4.726154 1.575384zM422.203077 975.163077c-1.575385 0-4.726154 0-6.301539-1.575385-3.150769-3.150769-3.150769-7.876923 0-11.027692L724.676923 653.784615c3.150769-3.150769 7.876923-3.150769 11.027692 0s3.150769 7.876923 0 11.027693L428.504615 973.587692c-1.575385 1.575385-3.150769 1.575385-6.301538 1.575385zM546.658462 986.190769c-1.575385 0-4.726154 0-6.301539-1.575384-3.150769-3.150769-3.150769-7.876923 0-11.027693L726.252308 787.692308c3.150769-3.150769 7.876923-3.150769 11.027692 0 3.150769 3.150769 3.150769 7.876923 0 11.027692L551.384615 983.04c0 1.575385-3.150769 3.150769-4.726153 3.150769z" fill="#116FFF" /><path d="M727.827692 563.987692c-1.575385 0-4.726154 0-6.301538-1.575384l-146.510769-146.51077c-3.150769-3.150769-3.150769-7.876923 0-11.027692s7.876923-3.150769 11.027692 0l146.510769 146.510769c3.150769 3.150769 3.150769 7.876923 0 11.027693 0 1.575385-1.575385 1.575385-4.726154 1.575384zM732.553846 702.621538c-1.575385 0-4.726154 0-6.301538-1.575384L441.107692 414.326154c-3.150769-3.150769-3.150769-7.876923 0-11.027692s7.876923-3.150769 11.027693 0l286.72 286.72c3.150769 3.150769 3.150769 7.876923 0 11.027692-1.575385 1.575385-3.150769 1.575385-6.301539 1.575384zM713.649231 817.624615c-1.575385 0-4.726154 0-6.301539-1.575384L357.612308 464.738462c-3.150769-3.150769-3.150769-7.876923 0-11.027693s7.876923-3.150769 11.027692 0l351.310769 351.310769c3.150769 3.150769 3.150769 7.876923 0 11.027693-1.575385 1.575385-3.150769 1.575385-6.301538 1.575384zM683.716923 921.6c-1.575385 0-4.726154 0-6.301538-1.575385L307.2 548.233846c-3.150769-3.150769-3.150769-7.876923 0-11.027692s7.876923-3.150769 11.027692 0l370.215385 370.215384c3.150769 3.150769 3.150769 7.876923 0 11.027693 0 1.575385-3.150769 3.150769-4.726154 3.150769zM604.947692 976.738462c-1.575385 0-4.726154 0-6.301538-1.575385L289.870769 664.812308c-3.150769-3.150769-3.150769-7.876923 0-11.027693s7.876923-3.150769 11.027693 0l310.350769 310.35077c3.150769 3.150769 3.150769 7.876923 0 11.027692-1.575385 0-4.726154 1.575385-6.301539 1.575385zM480.492308 986.190769c-1.575385 0-4.726154 0-6.301539-1.575384L289.870769 797.144615c-3.150769-3.150769-3.150769-7.876923 0-11.027692s7.876923-3.150769 11.027693 0l185.895384 185.895385c3.150769 3.150769 3.150769 7.876923 0 11.027692-1.575385 1.575385-4.726154 3.150769-6.301538 3.150769zM592.344615 390.695385h-3.150769c-4.726154-1.575385-6.301538-6.301538-4.726154-9.452308 1.575385-3.150769 28.356923-72.467692 97.673846-110.276923 29.932308-15.753846 63.015385-25.206154 97.673847-25.206154 4.726154 0 7.876923 3.150769 7.876923 7.876923s-3.150769 7.876923-7.876923 7.876923c-33.083077 0-63.015385 7.876923-91.372308 22.055385-64.590769 36.233846-91.372308 102.4-91.372308 102.4 1.575385 3.150769-1.575385 4.726154-4.726154 4.726154z" fill="#116FFF" /><path d="M671.113846 417.476923c-6.301538-1.575385-7.876923-4.726154-7.876923-9.452308 15.753846-96.098462 110.276923-159.113846 113.427692-160.68923 3.150769-1.575385 7.876923-1.575385 11.027693 1.575384 3.150769 3.150769 1.575385 7.876923-1.575385 11.027693-1.575385 0-91.372308 61.44-107.126154 151.236923 0 3.150769-3.150769 6.301538-7.876923 6.301538zM576.590769 389.12c-4.726154 0-7.876923-3.150769-7.876923-7.876923 0-47.261538-39.384615-99.249231-55.138461-116.578462-15.753846 17.329231-55.138462 67.741538-55.138462 116.578462 0 4.726154-3.150769 7.876923-7.876923 7.876923s-7.876923-3.150769-7.876923-7.876923c0-66.166154 63.015385-130.756923 64.590769-133.907692 1.575385-1.575385 3.150769-3.150769 6.301539-3.15077 1.575385 0 4.726154 1.575385 6.301538 3.15077 3.150769 3.150769 64.590769 69.316923 64.590769 133.907692 0 4.726154-3.150769 7.876923-7.876923 7.876923z" fill="#116FFF" /><path d="M576.590769 293.021538c-4.726154 0-7.876923-3.150769-7.876923-7.876923 0-47.261538-39.384615-107.126154-55.138461-129.181538-15.753846 22.055385-55.138462 80.344615-55.138462 129.181538 0 4.726154-3.150769 7.876923-7.876923 7.876923s-7.876923-3.150769-7.876923-7.876923c0-64.590769 61.44-143.36 64.590769-146.510769 1.575385-1.575385 3.150769-3.150769 6.301539-3.150769s4.726154 1.575385 6.301538 3.150769c3.150769 3.150769 64.590769 83.495385 64.590769 146.510769 0 3.150769-3.150769 7.876923-7.876923 7.876923z" fill="#116FFF" /><path d="M576.590769 182.744615c-4.726154 0-7.876923-3.150769-7.876923-7.876923 0-53.563077-39.384615-119.729231-55.138461-143.36-15.753846 23.630769-55.138462 88.221538-55.138462 143.36 0 4.726154-3.150769 7.876923-7.876923 7.876923s-7.876923-3.150769-7.876923-7.876923C442.683077 100.824615 504.123077 15.753846 507.273846 12.603077c1.575385-1.575385 3.150769-3.150769 6.301539-3.150769s4.726154 1.575385 6.301538 3.150769c3.150769 3.150769 64.590769 89.796923 64.590769 162.264615 0 3.150769-3.150769 7.876923-7.876923 7.876923zM592.344615 293.021538c-1.575385 0-3.150769 0-3.150769-1.575384-3.150769-1.575385-4.726154-6.301538-3.150769-11.027692 1.575385-1.575385 20.48-39.384615 66.166154-70.892308 33.083077-23.630769 70.892308-37.809231 113.427692-42.535385 4.726154 0 7.876923 3.150769 9.452308 6.301539 0 4.726154-3.150769 7.876923-6.301539 9.452307-40.96 4.726154-75.618462 18.904615-107.126154 40.96-42.535385 29.932308-59.864615 64.590769-59.864615 66.166154-3.150769 1.575385-6.301538 3.150769-9.452308 3.150769z" fill="#116FFF" /><path d="M686.867692 285.144615h-3.150769c-4.726154-1.575385-6.301538-6.301538-4.726154-9.452307 25.206154-64.590769 78.769231-103.975385 81.92-105.55077 3.150769-3.150769 7.876923-1.575385 11.027693 1.575385 3.150769 3.150769 1.575385 7.876923-1.575385 11.027692 0 0-51.987692 39.384615-75.618462 99.249231-1.575385 0-4.726154 3.150769-7.876923 3.150769zM655.36 223.704615c-6.301538-1.575385-7.876923-4.726154-7.876923-9.452307 0-3.150769 12.603077-64.590769 64.590769-111.852308-29.932308 0-89.796923 9.452308-111.852308 74.043077-1.575385 4.726154-6.301538 6.301538-9.452307 4.726154-4.726154-1.575385-6.301538-6.301538-4.726154-9.452308 33.083077-100.824615 146.510769-83.495385 148.086154-83.495385 3.150769 0 6.301538 3.150769 6.301538 6.301539s0 6.301538-3.150769 7.876923c-58.289231 44.110769-72.467692 115.003077-72.467692 116.578462-1.575385 3.150769-4.726154 4.726154-9.452308 4.726153zM434.806154 390.695385c-3.150769 0-6.301538-1.575385-7.876923-4.726154 0 0-26.781538-66.166154-91.372308-102.4-26.781538-15.753846-58.289231-22.055385-91.372308-22.055385-4.726154 0-7.876923-3.150769-7.876923-7.876923s3.150769-7.876923 7.876923-7.876923c36.233846 0 69.316923 7.876923 97.673847 25.206154 69.316923 37.809231 97.673846 107.126154 97.673846 110.276923 1.575385 4.726154 0 7.876923-4.726154 9.452308 1.575385 0 0 0 0 0z" fill="#116FFF" /><path d="M356.036923 417.476923c-3.150769 0-7.876923-3.150769-7.876923-6.301538-15.753846-89.796923-105.550769-149.661538-107.126154-151.236923-3.150769-3.150769-4.726154-7.876923-1.575384-11.027693 3.150769-3.150769 7.876923-4.726154 11.027692-1.575384 4.726154 3.150769 97.673846 64.590769 113.427692 160.68923 0 4.726154-3.150769 7.876923-7.876923 9.452308zM434.806154 293.021538c-3.150769 0-6.301538-1.575385-6.301539-4.726153 0 0-18.904615-36.233846-59.864615-66.166154-29.932308-22.055385-66.166154-34.658462-107.126154-40.96-4.726154 0-7.876923-4.726154-6.301538-9.452308 0-4.726154 4.726154-7.876923 9.452307-6.301538 42.535385 4.726154 80.344615 20.48 113.427693 42.535384 45.686154 31.507692 64.590769 69.316923 66.166154 70.892308 1.575385 3.150769 0 7.876923-3.15077 11.027692-4.726154 1.575385-4.726154 3.150769-6.301538 3.150769z" fill="#116FFF" /><path d="M340.283077 285.144615c-3.150769 0-6.301538-1.575385-7.876923-4.726153-23.630769-59.864615-75.618462-99.249231-75.618462-99.249231-3.150769-3.150769-4.726154-7.876923-1.575384-11.027693 3.150769-3.150769 7.876923-4.726154 11.027692-1.575384 1.575385 1.575385 56.713846 40.96 81.92 105.550769 1.575385 4.726154 0 7.876923-4.726154 9.452308-1.575385 1.575385-3.150769 1.575385-3.150769 1.575384zM371.790769 223.704615c-3.150769 0-6.301538-3.150769-7.876923-6.301538 0 0-14.178462-70.892308-72.467692-116.578462-3.150769-1.575385-3.150769-4.726154-3.150769-7.876923s3.150769-4.726154 6.301538-6.301538c1.575385 0 115.003077-15.753846 148.086154 83.495384 1.575385 4.726154-1.575385 7.876923-4.726154 9.452308-4.726154 1.575385-7.876923-1.575385-9.452308-4.726154-22.055385-63.015385-81.92-72.467692-113.427692-72.467692 50.412308 47.261538 63.015385 108.701538 63.015385 111.852308 1.575385 4.726154 0 9.452308-6.301539 9.452307 1.575385 0 0 0 0 0z" fill="#116FFF" /></svg>