<?xml version="1.0" standalone="no"?><!DOCTYPE svg PUBLIC "-//W3C//DTD SVG 1.1//EN" "http://www.w3.org/Graphics/SVG/1.1/DTD/svg11.dtd"><svg class="icon" width="48px" height="48.00px" viewBox="0 0 1024 1024" version="1.1" xmlns="http://www.w3.org/2000/svg"><path d="M498.773333 185.6L467.84 170.666667s180.906667 375.893333 46.293333 710.4l108.16 21.333333c69.76-445.653333-123.52-716.8-123.52-716.8z" fill="#EF6C00" /><path d="M519.466667 177.066667s-106.666667 100.266667-128 189.226666l-27.733334-33.493333 21.333334 67.626667a414.08 414.08 0 0 0-7.893334 106.666666L341.333333 455.04l32.426667 90.24c-7.466667 45.44-17.706667 78.506667-13.653333 116.48 0 0-159.573333-163.2-55.04-329.813333C398.293333 181.973333 519.466667 177.066667 519.466667 177.066667z" fill="#4CAF50" /><path d="M512 192a445.653333 445.653333 0 0 0-173.866667 21.333333l13.44-42.666666-46.72 53.333333a407.253333 407.253333 0 0 0-95.36 49.706667L234.666667 214.613333l-59.733334 75.093334C132.906667 307.2 94.293333 318.08 64 341.333333c0 0 50.986667-200.533333 247.253333-213.333333C419.626667 122.24 512 192 512 192z" fill="#4CAF50" /><path d="M470.826667 192s108.586667 39.253333 166.613333 109.44l10.24-42.666667 12.373333 69.76a416.64 416.64 0 0 1 55.893334 91.733334l8.32-64 12.16 95.146666c27.306667 36.906667 51.626667 61.653333 65.493333 97.28 0 0 69.546667-221.653333-101.546667-318.506666C552.32 147.626667 470.826667 192 470.826667 192z" fill="#4CAF50" /><path d="M456.533333 218.24a433.493333 433.493333 0 0 1 170.666667-32.853333l-26.453333-37.333334 64 37.546667a430.506667 430.506667 0 0 1 109.653333 18.346667l-44.8-49.28 82.773333 54.613333c47.573333 3.626667 88.96 1.706667 126.293334 15.146667 0 0-114.56-181.12-311.466667-129.92a320 320 0 0 0-170.666667 123.733333z" fill="#4CAF50" /><path d="M917.333333 917.333333a1606.4 1606.4 0 0 0-405.333333-64 1606.4 1606.4 0 0 0-405.333333 64v21.333334h810.666666z" fill="#FFB74D" /><path d="M554.666667 730.24q0 8.106667-2.56 16a496.853333 496.853333 0 0 0 71.68 5.973333h12.8v-16a430.72 430.72 0 0 1-81.92-5.973333zM512 285.653333c1.493333 4.906667 2.986667 10.026667 4.693333 15.36 11.733333-3.84 24.533333-8.32 37.12-13.44l-6.613333-14.72c-12.586667 4.48-24.533333 9.173333-35.2 12.8zM589.653333 386.56c-1.493333-5.12-3.2-10.24-4.693333-15.36a474.666667 474.666667 0 0 1-47.146667 13.013333c1.28 5.12 2.346667 10.24 3.413334 15.573334a444.8 444.8 0 0 0 48.426666-13.226667zM563.84 602.026667V618.666667a459.733333 459.733333 0 0 0 64 4.906666h6.826667l-1.28-16a449.706667 449.706667 0 0 1-69.546667-5.546666zM614.4 482.773333a436.906667 436.906667 0 0 1-58.026667 8.32c0 5.333333 1.493333 10.453333 1.92 16a509.013333 509.013333 0 0 0 59.306667-8.533333z" fill="#E65100" /></svg>