<?xml version="1.0" standalone="no"?><!DOCTYPE svg PUBLIC "-//W3C//DTD SVG 1.1//EN" "http://www.w3.org/Graphics/SVG/1.1/DTD/svg11.dtd"><svg class="icon" width="48px" height="48.00px" viewBox="0 0 1024 1024" version="1.1" xmlns="http://www.w3.org/2000/svg"><path d="M658.346667 183.466667h-162.986667a62.293333 62.293333 0 0 1-44.16-17.92c-42.666667-42.666667-144-69.333333-198.613333-32.64-36.053333 24.106667 42.666667 97.066667 10.453333 124.373333A315.306667 315.306667 0 0 0 170.666667 388.053333a29.013333 29.013333 0 0 1-27.093334 19.626667H106.666667a55.253333 55.253333 0 0 0-55.466667 55.466667V576A55.253333 55.253333 0 0 0 106.666667 631.893333h45.013333a33.28 33.28 0 0 1 29.653333 19.413334A314.24 314.24 0 0 0 307.626667 789.333333a36.053333 36.053333 0 0 1 17.493333 31.36 154.453333 154.453333 0 0 1-1.066667 16.213334 68.693333 68.693333 0 0 0 68.48 75.733333H426.666667a68.906667 68.906667 0 0 0 67.413333-54.613333 32.853333 32.853333 0 0 1 32-26.026667h124.586667a32.426667 32.426667 0 0 1 32 21.333333l4.693333 13.226667a69.12 69.12 0 0 0 64 45.653333h39.68a68.906667 68.906667 0 0 0 67.2-84.053333l-9.813333-42.666667a38.613333 38.613333 0 0 1 13.866666-29.013333 312.96 312.96 0 0 0 110.72-238.933333v-18.773334A314.453333 314.453333 0 0 0 658.346667 183.466667z" fill="#FFAF37" /><path d="M790.826667 925.866667h-39.68a83.2 83.2 0 0 1-78.08-55.04l-4.693334-13.226667a19.2 19.2 0 0 0-17.706666-12.373333h-124.586667a18.56 18.56 0 0 0-18.133333 14.933333A83.626667 83.626667 0 0 1 426.666667 925.866667h-34.133334a83.84 83.84 0 0 1-62.293333-27.946667 81.92 81.92 0 0 1-21.333333-64 125.653333 125.653333 0 0 0 1.066666-14.506667 21.333333 21.333333 0 0 0-10.453333-19.2 327.04 327.04 0 0 1-130.986667-142.72 19.2 19.2 0 0 0-16.853333-11.52H106.666667A69.76 69.76 0 0 1 36.906667 576v-112.853333A69.973333 69.973333 0 0 1 106.666667 393.386667h36.906666a15.146667 15.146667 0 0 0 13.866667-9.386667 329.173333 329.173333 0 0 1 96.426667-136.746667c7.893333-6.613333-1.706667-27.306667-9.813334-45.653333-12.373333-27.093333-27.733333-60.8 0-79.786667C304 81.066667 411.733333 106.666667 461.013333 155.52a48.853333 48.853333 0 0 0 34.346667 13.866667h162.986667a328.96 328.96 0 0 1 328.746666 328.533333v18.773333a327.68 327.68 0 0 1-115.84 249.813334 24.746667 24.746667 0 0 0-8.746666 16.853333l9.386666 41.173333a83.2 83.2 0 0 1-81.066666 101.333334z m-264.746667-109.013334h124.586667a47.146667 47.146667 0 0 1 44.373333 31.36l4.693333 13.013334a54.613333 54.613333 0 0 0 51.413334 36.266666h39.68a54.613333 54.613333 0 0 0 53.333333-66.773333l-10.026667-46.08a52.48 52.48 0 0 1 19.2-39.68 298.666667 298.666667 0 0 0 106.666667-228.266667v-18.773333A300.586667 300.586667 0 0 0 658.346667 197.76h-162.986667a77.44 77.44 0 0 1-54.186667-21.333333c-40.746667-39.893333-133.973333-62.506667-180.693333-31.146667-7.68 5.12-1.066667 21.333333 9.386667 44.373333 11.733333 26.026667 26.666667 58.666667 2.346666 79.146667a301.44 301.44 0 0 0-88.32 125.013333 42.666667 42.666667 0 0 1-40.32 28.586667H106.666667a41.386667 41.386667 0 0 0-41.386667 41.386667V576A41.173333 41.173333 0 0 0 106.666667 618.666667h45.013333a47.146667 47.146667 0 0 1 42.666667 27.733333 298.666667 298.666667 0 0 0 120.533333 130.773333 50.346667 50.346667 0 0 1 24.746667 42.666667 135.466667 135.466667 0 0 1-1.28 17.706667 53.546667 53.546667 0 0 0 13.226666 42.666666 56.106667 56.106667 0 0 0 41.173334 18.346667H426.666667a55.04 55.04 0 0 0 53.546666-42.666667 47.146667 47.146667 0 0 1 45.866667-39.04z" fill="#7A0F0F" /><path d="M345.173333 386.133333a42.666667 42.666667 0 1 0 42.666667 42.666667 42.666667 42.666667 0 0 0-42.666667-42.666667z" fill="#6d2005" /><path d="M798.506667 459.306667a14.293333 14.293333 0 0 1-14.293334-14.293334 98.133333 98.133333 0 0 0-97.92-97.92 14.08 14.08 0 0 1-14.08-14.08 14.293333 14.293333 0 0 1 14.08-14.293333 126.506667 126.506667 0 0 1 126.293334 126.293333 14.08 14.08 0 0 1-14.08 14.293334z" fill="#FFFFFF" /></svg>