<?xml version="1.0" standalone="no"?><!DOCTYPE svg PUBLIC "-//W3C//DTD SVG 1.1//EN" "http://www.w3.org/Graphics/SVG/1.1/DTD/svg11.dtd"><svg class="icon" width="48px" height="48.00px" viewBox="0 0 1024 1024" version="1.1" xmlns="http://www.w3.org/2000/svg"><path d="M346.112 362.496l-75.776-30.72 36.864-90.112C339.968 157.696 421.888 102.4 512 102.4s172.032 55.296 206.848 139.264l36.864 90.112-75.776 30.72-36.864-90.112C620.544 219.136 569.344 184.32 512 184.32s-108.544 34.816-131.072 88.064l-34.816 90.112z" fill="#AAD300" /><path d="M331.776 307.2h358.4c38.912 0 71.68 26.624 79.872 65.536l88.064 409.6c10.24 45.056-18.432 88.064-63.488 96.256-4.096 2.048-10.24 2.048-14.336 2.048H243.712c-45.056 0-81.92-36.864-81.92-81.92 0-6.144 0-12.288 2.048-16.384l88.064-409.6c8.192-38.912 40.96-65.536 79.872-65.536zM266.24 798.72c22.528 0 40.96-18.432 40.96-40.96s-18.432-40.96-40.96-40.96-40.96 18.432-40.96 40.96 18.432 40.96 40.96 40.96z m81.92-163.84c22.528 0 40.96-18.432 40.96-40.96s-18.432-40.96-40.96-40.96-40.96 18.432-40.96 40.96 18.432 40.96 40.96 40.96z m81.92-163.84c22.528 0 40.96-18.432 40.96-40.96s-18.432-40.96-40.96-40.96-40.96 18.432-40.96 40.96 18.432 40.96 40.96 40.96z m163.84 0c22.528 0 40.96-18.432 40.96-40.96s-18.432-40.96-40.96-40.96-40.96 18.432-40.96 40.96 18.432 40.96 40.96 40.96z m-81.92 163.84c22.528 0 40.96-18.432 40.96-40.96s-18.432-40.96-40.96-40.96-40.96 18.432-40.96 40.96 18.432 40.96 40.96 40.96z m163.84 0c22.528 0 40.96-18.432 40.96-40.96s-18.432-40.96-40.96-40.96-40.96 18.432-40.96 40.96 18.432 40.96 40.96 40.96z m-245.76 163.84c22.528 0 40.96-18.432 40.96-40.96s-18.432-40.96-40.96-40.96-40.96 18.432-40.96 40.96 18.432 40.96 40.96 40.96z m163.84 0c22.528 0 40.96-18.432 40.96-40.96s-18.432-40.96-40.96-40.96-40.96 18.432-40.96 40.96 18.432 40.96 40.96 40.96z m163.84 0c22.528 0 40.96-18.432 40.96-40.96s-18.432-40.96-40.96-40.96-40.96 18.432-40.96 40.96 18.432 40.96 40.96 40.96z" fill="#AAD300" /></svg>