<?xml version="1.0" standalone="no"?><!DOCTYPE svg PUBLIC "-//W3C//DTD SVG 1.1//EN" "http://www.w3.org/Graphics/SVG/1.1/DTD/svg11.dtd"><svg class="icon" width="48px" height="48.00px" viewBox="0 0 1024 1024" version="1.1" xmlns="http://www.w3.org/2000/svg"><path d="M929.882353 493.929412c0 97.129412-74.541176 176.188235-165.647059 176.188235h-12.047059l2.258824-53.458823c64 0 115.2-54.964706 115.2-122.729412s-51.952941-122.729412-115.2-122.729412v-53.458824h9.035294c91.858824 0 166.4 79.058824 166.4 176.188236z" fill="#F1F1F1" /><path d="M506.729412 904.282353H440.470588c-137.035294 0-248.470588-111.435294-248.470588-248.470588V267.294118h563.2v388.517647c0 137.035294-111.435294 248.470588-248.470588 248.470588z" fill="#F1F1F1" /><path d="M192 267.294118a281.6 69.270588 0 1 0 563.2 0 281.6 69.270588 0 1 0-563.2 0Z" fill="#D5D5D5" /><path d="M709.270588 304.941176C658.823529 323.764706 572.235294 335.811765 473.6 335.811765c-98.635294 0-185.223529-12.047059-234.917647-30.870589 1.505882-8.282353 9.788235-15.811765 23.341176-22.588235 11.294118-5.270588 26.352941-10.541176 43.670589-15.058823 42.917647-10.541176 102.4-17.317647 167.905882-17.317647 65.505882 0 124.988235 6.776471 167.905882 17.317647 18.070588 4.517647 32.376471 9.788235 43.670589 15.058823 14.305882 6.776471 22.588235 14.305882 24.094117 22.588235z" fill="#432918" /><path d="M475.858824 279.341176c0 10.541176-6.023529 19.576471-12.8 19.576471-6.776471 0-12.8-8.282353-12.8-19.576471s6.023529-19.576471 12.8-19.57647c7.529412 0 12.8 8.282353 12.8 19.57647z" fill="#FFFFFF" /><path d="M438.964706 259.764706H463.058824v38.4h-24.094118z" fill="#FFFFFF" /><path d="M451.764706 279.341176c0 10.541176-6.023529 19.576471-12.8 19.576471-6.776471 0-12.8-8.282353-12.8-19.576471s6.023529-19.576471 12.8-19.57647c7.529412 0 12.8 8.282353 12.8 19.57647z" fill="#E8E8E8" /><path d="M423.152941 300.423529a21.835294 14.305882 90 1 0 28.611765 0 21.835294 14.305882 90 1 0-28.611765 0Z" fill="#FFFFFF" /><path d="M410.352941 279.341176h27.105883v43.670589H410.352941z" fill="#FFFFFF" /><path d="M396.047059 300.423529a21.835294 14.305882 90 1 0 28.611765 0 21.835294 14.305882 90 1 0-28.611765 0Z" fill="#E8E8E8" /><path d="M384 286.117647c-1.505882 10.541176-8.282353 18.070588-15.058824 17.317647-6.776471-0.752941-11.294118-9.788235-10.541176-20.329412 1.505882-10.541176 8.282353-18.070588 15.058824-17.317647 7.529412 0.752941 12.047059 9.788235 10.541176 20.329412z" fill="#FFFFFF" /><path d="M344.982588 300.544l4.74353-38.098824 23.913411 2.974118-4.743529 38.098824z" fill="#FFFFFF" /><path d="M359.905882 283.105882c-1.505882 10.541176-8.282353 18.070588-15.058823 17.317647-6.776471-0.752941-11.294118-9.788235-10.541177-20.329411 1.505882-10.541176 8.282353-18.070588 15.058824-17.317647 7.529412 0.752941 12.047059 9.788235 10.541176 20.329411z" fill="#E8E8E8" /><path d="M600.094118 298.164706c0-10.541176 6.023529-19.576471 12.8-18.82353 6.776471 0 12.8 9.035294 12.8 19.576471s-6.023529 19.576471-12.8 18.823529c-6.776471 0-12.8-9.035294-12.8-19.57647z" fill="#FFFFFF" /><path d="M612.924235 317.191529l0.188236-38.4 24.094117 0.120471-0.188235 38.4z" fill="#FFFFFF" /><path d="M624.941176 298.164706c0-10.541176 6.023529-19.576471 12.8-18.82353 6.776471 0 12.8 9.035294 12.8 19.576471 0 10.541176-6.023529 19.576471-12.8 18.823529-7.529412 0-13.552941-9.035294-12.8-19.57647z" fill="#E8E8E8" /><path d="M536.847059 305.694118c0 10.541176-6.023529 19.576471-12.8 18.823529-6.776471 0-12.8-9.035294-12.8-19.576471 0-10.541176 6.023529-19.576471 12.8-18.823529 6.776471 0.752941 12.8 9.035294 12.8 19.576471z" fill="#FFFFFF" /><path d="M499.538824 324.984471l0.188235-38.4 24.094117 0.12047-0.188235 38.4z" fill="#FFFFFF" /><path d="M512 305.694118c0 10.541176-6.023529 19.576471-12.8 18.823529-6.776471 0-12.8-9.035294-12.8-19.576471 0-10.541176 6.023529-19.576471 12.8-18.823529 7.529412 0 12.8 9.035294 12.8 19.576471z" fill="#E8E8E8" /><path d="M591.811765 286.117647c0 10.541176-6.023529 19.576471-12.8 18.823529-6.776471 0-12.8-9.035294-12.8-19.57647 0-10.541176 6.023529-19.576471 12.8-18.82353 6.776471 0.752941 12.8 9.035294 12.8 19.576471z" fill="#FFFFFF" /><path d="M554.337882 305.573647l0.188236-38.4 24.094117 0.112941-0.188235 38.4z" fill="#FFFFFF" /><path d="M566.964706 286.117647c0 10.541176-6.023529 19.576471-12.8 18.823529-6.776471 0-12.8-9.035294-12.8-19.57647 0-10.541176 6.023529-19.576471 12.8-18.82353 7.529412 0.752941 12.8 9.035294 12.8 19.576471z" fill="#E8E8E8" /><path d="M354.635294 298.164706c0 10.541176-6.023529 19.576471-12.8 19.57647-6.776471 0-12.8-8.282353-12.8-19.57647S335.058824 278.588235 341.835294 278.588235c6.776471 0.752941 12.8 9.035294 12.8 19.576471z" fill="#FFFFFF" /><path d="M317.741176 279.341176h24.094118v38.4h-24.094118z" fill="#FFFFFF" /><path d="M329.788235 298.164706c0 10.541176-6.023529 19.576471-12.8 19.57647-6.776471 0-12.8-8.282353-12.8-19.57647s6.023529-19.576471 12.8-19.576471c7.529412 0.752941 12.8 9.035294 12.8 19.576471z" fill="#E8E8E8" /><path d="M755.2 394.541176v243.952942c0 38.4-126.494118 69.270588-281.6 69.270588-152.847059 0-277.835294-30.117647-281.6-67.011765V396.047059c3.764706 36.894118 128.752941 67.011765 281.6 67.011765 155.858824 0 281.6-30.870588 281.6-68.517648z" fill="#BB1523" /><path d="M493.176471 672.376471c0-1.505882-0.752941-2.258824-2.258824-2.258824H455.529412c-1.505882 0-2.258824 0.752941-2.258824 2.258824v70.023529c0 1.505882 0.752941 2.258824 2.258824 2.258824h35.388235c1.505882 0 2.258824-0.752941 2.258824-2.258824v-70.023529z" fill="#8B321D" /><path d="M612.894118 684.423529c-27.858824 24.847059-54.964706 9.035294-63.247059 3.764706-1.505882-0.752941-3.764706-0.752941-5.270588 0-31.623529 22.588235-52.705882 7.529412-60.235295 0.752941-1.505882-1.505882-4.517647-1.505882-6.023529-0.752941-30.870588 22.588235-55.717647 5.270588-64-2.258823-1.505882-1.505882-4.517647-1.505882-6.023529 0-27.858824 21.835294-57.976471 9.788235-73.788236 0.752941-3.764706-2.258824-3.011765-7.529412 1.505883-8.282353 21.082353-5.270588 39.905882-29.364706 47.435294-40.658824-7.529412-2.258824-13.552941-7.529412-17.317647-11.294117-3.011765-3.011765-3.011765-8.282353 0.752941-10.541177 18.823529-13.552941 31.623529-31.623529 37.647059-42.164706-6.023529-0.752941-10.541176-3.011765-15.058824-6.023529-6.776471-4.517647-6.776471-14.305882-0.752941-18.823529 16.564706-12.047059 30.117647-28.611765 37.647059-38.4-2.258824-0.752941-4.517647-1.505882-6.02353-2.258824-5.270588-3.764706-6.023529-11.294118-0.752941-15.811765l11.294118-10.541176c0.752941-0.752941 0.752941-0.752941 0.752941-1.505882 16.564706-16.564706 27.105882-33.882353 33.129412-46.682353 3.764706-7.529412 14.305882-7.529412 18.070588 0 13.552941 24.847059 35.388235 48.941176 46.682353 60.988235 4.517647 4.517647 3.764706 12.047059-1.505882 15.058823-2.258824 1.505882-3.764706 2.258824-6.02353 3.011765 9.035294 17.317647 24.094118 29.364706 35.388236 36.141177 8.282353 4.517647 7.529412 16.564706-1.505883 20.329411-5.270588 2.258824-10.541176 3.011765-15.058823 3.011765 2.258824 9.035294 6.776471 16.564706 12.047059 23.341177l5.270588 5.270588c7.529412 7.529412 16.564706 13.552941 23.341176 17.317647 4.517647 3.011765 5.270588 9.788235 0.752941 12.8-8.282353 5.270588-16.564706 6.776471-24.094117 6.023529 12.047059 21.835294 39.905882 35.388235 52.705882 40.658824 3.764706 0 4.517647 4.517647 2.258824 6.77647z" fill="#3BA435" /><path d="M611.388235 676.141176c-12.8-5.270588-40.658824-19.576471-52.705882-40.658823 7.529412 0 15.811765-1.505882 24.094118-6.023529 4.517647-3.011765 4.517647-9.788235-0.752942-12.8-6.776471-3.764706-15.811765-9.788235-23.341176-17.317648l-5.270588-5.270588c-5.270588-6.776471-9.788235-14.305882-12.047059-23.341176 4.517647 0 9.788235-0.752941 15.058823-3.011765 9.035294-3.764706 9.788235-15.811765 1.505883-20.329412-11.294118-6.776471-25.6-18.070588-35.388236-36.141176 2.258824-0.752941 3.764706-1.505882 6.02353-3.011765 5.270588-3.764706 6.023529-11.294118 1.505882-15.058823-11.294118-11.294118-33.129412-35.388235-46.682353-60.988236-1.505882-2.258824-3.011765-3.764706-5.270588-4.517647v259.764706c1.505882-0.752941 3.764706 0 5.270588 0.752941 7.529412 6.776471 28.611765 21.835294 60.235294-0.752941 1.505882-0.752941 3.764706-1.505882 5.270589 0 8.282353 6.023529 36.141176 21.082353 63.247058-3.764706 3.011765-1.505882 2.258824-6.023529-0.752941-7.529412z" fill="#026633" /><path d="M499.2 407.341176c1.505882-1.505882 0.752941-3.764706-1.505882-3.764705l-14.305883-2.258824c-0.752941 0-1.505882-0.752941-1.505882-1.505882l-6.776471-12.8c-0.752941-0.752941-1.505882-1.505882-2.258823-1.505883-0.752941 0-1.505882 0.752941-2.258824 1.505883l-6.023529 12.8c0 0.752941-0.752941 0.752941-1.505882 1.505882l-14.305883 2.258824c-1.505882 0-2.258824 2.258824-1.505882 3.764705l10.541176 9.788236c0.752941 0.752941 0.752941 1.505882 0.752941 1.505882l-2.258823 14.305882c0 1.505882 1.505882 3.011765 3.011765 2.258824l12.8-6.776471h1.505882l12.8 6.776471c1.505882 0.752941 3.764706-0.752941 3.011765-2.258824l-2.258824-14.305882c0-0.752941 0-1.505882 0.752941-2.258823l11.294118-9.035295z" fill="#F0B000" /><path d="M648.282353 507.482353c0 6.776471-5.270588 11.294118-11.294118 11.294118s-11.294118-5.270588-11.294117-11.294118c0-6.776471 5.270588-11.294118 11.294117-11.294118s11.294118 4.517647 11.294118 11.294118zM262.023529 628.705882c0 6.776471-5.270588 11.294118-11.294117 11.294118-6.776471 0-11.294118-5.270588-11.294118-11.294118 0-6.776471 5.270588-11.294118 11.294118-11.294117 6.023529-0.752941 11.294118 4.517647 11.294117 11.294117zM304.941176 557.176471c0 3.011765-2.258824 6.023529-6.023529 6.023529-3.011765 0-6.023529-2.258824-6.023529-6.023529s2.258824-6.023529 6.023529-6.02353c3.011765 0.752941 6.023529 3.011765 6.023529 6.02353zM671.623529 649.035294c0 3.011765-2.258824 6.023529-6.023529 6.02353s-6.023529-2.258824-6.023529-6.02353c0-3.011765 2.258824-6.023529 6.023529-6.023529s6.023529 2.258824 6.023529 6.023529zM454.023529 649.035294c0 3.011765-2.258824 6.023529-6.023529 6.02353-3.011765 0-6.023529-2.258824-6.023529-6.02353 0-3.011765 2.258824-6.023529 6.023529-6.023529 3.011765 0 6.023529 2.258824 6.023529 6.023529zM478.870588 501.458824c0 3.011765-2.258824 6.023529-6.023529 6.023529-3.011765 0-6.023529-2.258824-6.02353-6.023529s2.258824-6.023529 6.02353-6.02353 6.023529 3.011765 6.023529 6.02353zM250.729412 474.352941c0 3.011765-2.258824 6.023529-6.02353 6.02353-3.011765 0-6.023529-2.258824-6.023529-6.02353s2.258824-6.023529 6.023529-6.023529c3.011765 0 6.023529 3.011765 6.02353 6.023529zM734.117647 538.352941c0 3.011765-2.258824 6.023529-6.023529 6.02353s-6.023529-2.258824-6.02353-6.02353 2.258824-6.023529 6.02353-6.023529 6.023529 2.258824 6.023529 6.023529zM339.576471 496.188235l6.77647 4.517647 9.788235-5.270588-9.788235-6.023529-6.77647 3.764706h-0.752942c-0.752941 0-0.752941 0-1.505882-0.752942s0-1.505882 0.752941-2.258823l5.270588-3.011765-4.517647-3.011765c-0.752941-0.752941-0.752941-1.505882-0.752941-2.258823 0.752941-0.752941 1.505882-0.752941 2.258824-0.752941l4.517647 3.011764v-6.023529c0-0.752941 0.752941-1.505882 1.505882-1.505882s1.505882 0.752941 1.505883 1.505882v7.529412l9.035294 6.023529 0.752941-10.541176-6.776471-4.517647c-0.752941-0.752941-0.752941-1.505882-0.752941-2.258824 0.752941-0.752941 1.505882-0.752941 2.258824-0.752941l4.517647 3.011765v-6.02353c0-0.752941 0.752941-1.505882 1.505882-1.505882s1.505882 0.752941 1.505882 1.505882v6.776471l5.270589-3.011765c0.752941-0.752941 1.505882 0 2.258823 0.752941 0.752941 0.752941 0 1.505882-0.752941 2.258824l-7.529412 3.764706-0.752941 10.541176 9.788235-5.270588v-8.282353c0-0.752941 0.752941-1.505882 1.505883-1.505882s1.505882 0.752941 1.505882 1.505882v6.023529l5.270588-3.011764c0.752941-0.752941 1.505882 0 2.258824 0.752941 0.752941 0.752941 0 1.505882-0.752941 2.258823l-2.258824 5.270589 5.270588 3.011764c0.752941 0.752941 0.752941 1.505882 0.752941 2.258824 0 0.752941-0.752941 0.752941-1.505882 0.752941h-0.752941l-6.776471-4.517647-9.035294 5.270588 9.035294 6.02353 6.776471-3.764706c0.752941-0.752941 1.505882 0 2.258823 0.752941 0.752941 0.752941 0 1.505882-0.752941 2.258824l-5.270588 3.011764 5.270588 3.011765c0.752941 0.752941 0.752941 1.505882 0.752941 2.258823 0 0.752941-0.752941 0.752941-1.505882 0.752942h-0.752941l-6.776471-3.764706v5.270588c0 0.752941-0.752941 1.505882-1.505882 1.505882s-1.505882-0.752941-1.505882-1.505882v-7.529412l-9.035294-6.023529-0.752942 10.541176 6.776471 4.517647c0.752941 0.752941 0.752941 1.505882 0.752941 2.258824 0 0.752941-0.752941 0.752941-1.505882 0.752941H365.176471l-5.270589-3.764706v6.776471c0 0.752941-0.752941 1.505882-1.505882 1.505882s-1.505882-0.752941-1.505882-1.505882v-6.02353l-3.764706 2.258824c-0.752941 0.752941-1.505882 0-2.258824-0.752941-0.752941-0.752941 0-1.505882 0.752941-2.258824l6.02353-3.011765 0.752941-10.541176-9.035294 5.270588v7.529412c0 0.752941-0.752941 1.505882-1.505882 1.505882s-1.505882-0.752941-1.505883-1.505882v-5.270588l-4.517647 2.258823h-0.752941c-0.752941 0-0.752941 0-1.505882-0.752941s0-1.505882 0.752941-2.258823l4.517647-2.258824-4.517647-3.011765c-0.752941-0.752941-0.752941-1.505882-0.752941-2.258823-1.505882-2.258824-0.752941-2.258824 0-2.258824zM651.294118 583.529412l5.270588 3.011764 7.529412-3.764705-6.776471-4.517647-6.023529 3.011764h-0.752942c-0.752941 0-0.752941 0-0.752941-0.752941s0-1.505882 0.752941-1.505882l3.764706-2.258824-3.764706-2.258823c-0.752941-0.752941-0.752941-1.505882-0.752941-1.505883 0.752941-0.752941 1.505882-0.752941 1.505883-0.752941l3.764706 2.258824v-4.517647c0-0.752941 0.752941-1.505882 1.505882-1.505883s1.505882 0.752941 1.505882 1.505883v6.023529l6.776471 4.517647v-7.529412l-5.270588-3.764706c-0.752941-0.752941-0.752941-1.505882 0-1.505882 0.752941-0.752941 1.505882-0.752941 1.505882 0l3.764706 2.258824v-4.517647c0-0.752941 0.752941-1.505882 1.505882-1.505883s1.505882 0.752941 1.505883 1.505883v4.517647l4.517647-2.258824c0.752941 0 1.505882 0 1.505882 0.752941s0 1.505882-0.752941 1.505883l-5.270588 3.011764v8.282353l7.529411-3.764706v-6.023529c0-0.752941 0.752941-1.505882 1.505883-1.505882s1.505882 0.752941 1.505882 1.505882v4.517647l3.764706-2.258824c0.752941 0 1.505882 0 1.505882 0.752942s0 1.505882-0.752941 1.505882l-3.764706 2.258824 3.764706 2.258823c0.752941 0.752941 0.752941 1.505882 0.752941 1.505882 0 0.752941-0.752941 0.752941-1.505882 0.752942H681.411765l-5.270589-3.011765-7.529411 3.764706 6.77647 4.517647 5.270589-3.011765c0.752941 0 1.505882 0 1.505882 0.752941s0 1.505882-0.752941 1.505883l-3.764706 2.258823 3.764706 2.258824c0.752941 0.752941 0.752941 1.505882 0.752941 1.505882 0 0.752941-0.752941 0.752941-1.505882 0.752941h-0.752942l-3.764706-2.258823v4.517647c0 0.752941-0.752941 1.505882-1.505882 1.505882-0.752941-1.505882-0.752941-2.258824-0.752941-3.011765v-5.270588l-6.776471-4.517647-0.752941 8.282353 5.270588 3.764706c0.752941 0.752941 0.752941 1.505882 0 1.505882 0 0.752941-0.752941 0.752941-1.505882 0.752941h-0.752941l-3.011765-3.011764v4.517647c0 0.752941-0.752941 1.505882-1.505882 1.505882s-1.505882-0.752941-1.505883-1.505882v-4.517647l-3.011764 1.505882c-0.752941 0-1.505882 0-1.505883-0.752941s0-1.505882 0.752942-1.505882l4.517647-2.258824v-7.529412l-7.529412 3.764706v5.270588c0 0.752941-0.752941 1.505882-1.505882 1.505883s-1.505882-0.752941-1.505883-1.505883v-4.517647l-2.258823 1.505883h-0.752942c-0.752941 0-0.752941 0-0.752941-0.752941s0-1.505882 0.752941-1.505883l3.764706-1.505882-3.764706-2.258824c-0.752941-0.752941-0.752941-1.505882-0.752941-1.505882 0-0.752941 0.752941-1.505882 1.505883-0.752941zM230.4 548.894118l3.011765 1.505882 4.517647-2.258824-3.764706-2.258823-3.011765 1.505882s-0.752941 0-0.752941-0.752941v-0.752941l2.258824-1.505882-2.258824-1.505883s-0.752941-0.752941 0-0.752941c0 0 0.752941-0.752941 0.752941 0l2.258824 1.505882v-2.258823c0-0.752941 0-0.752941 0.752941-0.752941s0.752941 0 0.752941 0.752941v3.011765l3.764706 2.258823V542.117647l-3.011765-2.258823s-0.752941-0.752941 0-0.752942c0 0 0.752941-0.752941 0.752941 0l2.258824 1.505883v-3.011765c0-0.752941 0-0.752941 0.752941-0.752941s0.752941 0 0.752941 0.752941v3.011765l2.258824-1.505883h0.752941v0.752942l-3.011765 1.505882v4.517647l4.517647-2.258824v-3.764705c0-0.752941 0-0.752941 0.752942-0.752942s0.752941 0 0.752941 0.752942v2.258823l2.258823-1.505882h0.752941v0.752941l-2.258823 1.505882 2.258823 1.505883s0.752941 0.752941 0 0.752941h-0.752941l-3.764706 1.505882-3.764706 2.258824 3.764706 2.258823 3.011765-1.505882h0.752941v0.752941l-2.258823 1.505882 2.258823 1.505883s0.752941 0.752941 0 0.752941h-0.752941l-3.011765-0.752941v2.258823c0 0.752941 0 0.752941-0.752941 0.752941s-0.752941 0-0.752941-0.752941v-3.011764l-3.764706-3.011765v4.517647l3.011765 2.258823s0.752941 0.752941 0 0.752942h-0.752941l-2.258824-1.505883v3.011765c0 0.752941 0 0.752941-0.752941 0.752941s-0.752941 0-0.752941-0.752941v-3.011765l-1.505883 1.505883h-0.752941v-0.752942l2.258824-1.505882v-4.517647l-3.764706 2.258824v3.011764c0 0.752941 0 0.752941-0.752941 0.752941s-0.752941 0-0.752941-0.752941v-2.258823l-2.258824 0.752941s-0.752941 0-0.752941-0.752941v-0.752941l2.258823-0.752942-2.258823-1.505882s-0.752941-0.752941 0-0.752941c0-0.752941 0.752941-0.752941 0.752941-0.752941zM614.4 655.058824l3.011765 1.505882 4.517647-2.258824-3.764706-2.258823-3.011765 1.505882s-0.752941 0-0.752941-0.752941v-0.752941l2.258824-1.505883-3.011765-0.752941s-0.752941-0.752941 0-0.752941c0 0 0.752941-0.752941 0.752941 0l2.258824 1.505882v-2.258823c0-0.752941 0-0.752941 0.752941-0.752941s0.752941 0 0.752941 0.752941v3.011765l3.764706 2.258823v-4.517647l-3.011765-2.258823s-0.752941-0.752941 0-0.752942c0 0 0.752941-0.752941 0.752941 0l2.258824 1.505883v-3.011765c0-0.752941 0-0.752941 0.752941-0.752941s0.752941 0 0.752941 0.752941v3.011765l2.258824-1.505883h0.752941v0.752942l-3.011765 1.505882v4.517647l4.517647-2.258824v-3.764705c0-0.752941 0-0.752941 0.752941-0.752942s0.752941 0 0.752942 0.752942v2.258823l2.258823-1.505882h0.752941v0.752941l-2.258823 1.505882 2.258823 1.505883s0.752941 0.752941 0 0.752941h-0.752941l-3.011765-1.505883-3.764706 2.258824 3.764706 2.258824 3.011765-1.505883h0.752941v0.752941l-2.258823 1.505883 2.258823 1.505882s0.752941 0.752941 0 0.752941h-0.752941l-3.011765 0.752941v2.258824c0 0.752941 0 0.752941-0.752941 0.752941s-0.752941 0-0.752941-0.752941v-3.011765l-3.764706-2.258823v4.517647l3.011765 2.258823s0.752941 0.752941 0 0.752941h-0.752941l-2.258824-1.505882v3.011765c0 0.752941 0 0.752941-0.752941 0.752941s-0.752941 0-0.752941-0.752941v-3.011765l-2.258824 0.752941h-0.752941v-0.752941l2.258824-1.505882v-4.517647l-3.764706 2.258823v3.011765c0 0.752941 0 0.752941-0.752941 0.752941s-0.752941 0-0.752942-0.752941v-2.258824l-2.258823 0.752942s-0.752941 0-0.752941-0.752942v-0.752941l2.258823-0.752941-1.505882-1.505882s-0.752941-0.752941 0-0.752941c0 0 0-0.752941 0.752941 0zM496.941176 583.529412l3.011765 1.505882 4.517647-2.258823-3.764706-2.258824-3.011764 1.505882s-0.752941 0-0.752942-0.752941v-0.752941l2.258824-1.505882-2.258824-1.505883s-0.752941-0.752941 0-0.752941c0 0 0.752941-0.752941 0.752942 0l2.258823 1.505883v-2.258824c0-0.752941 0-0.752941 0.752941-0.752941s0.752941 0 0.752942 0.752941v3.011765l3.764705 2.258823v-4.517647l-3.011764-2.258823s-0.752941-0.752941 0-0.752942c0 0 0.752941-0.752941 0.752941 0l2.258823 1.505883V572.235294c0-0.752941 0-0.752941 0.752942-0.752941s0.752941 0 0.752941 0.752941v3.011765l2.258823-1.505883h0.752941v0.752942l-3.011764 1.505882v4.517647l4.517647-2.258823v-3.764706c0-0.752941 0-0.752941 0.752941-0.752942s0.752941 0 0.752941 0.752942v2.258823l2.258824-1.505882h0.752941v0.752941l-3.011765 3.764706 2.258824 1.505882s0.752941 0.752941 0 0.752941h-0.752941l-3.011765-1.505882-3.764706 2.258824 3.764706 2.258823 3.011765-1.505882h0.752941v0.752941l-2.258824 1.505882 2.258824 1.505883s0.752941 0.752941 0 0.752941h-0.752941l-3.011765-0.752941v2.258823c0 0.752941 0 0.752941-0.752941 0.752941s-0.752941 0-0.752942-0.752941v-3.011765l-3.764705-2.258823v4.517647l3.011764 2.258824s0.752941 0.752941 0 0.752941H508.235294l-2.258823-1.505883v3.011765c0 0.752941 0 0.752941-0.752942 0.752941s-0.752941 0-0.752941-0.752941v-3.011765l-1.505882 0.752942h-0.752941v-0.752942l2.258823-1.505882v-4.517647l-3.764706 2.258823v3.011765c0 0.752941 0 0.752941-0.752941 0.752941s-0.752941 0-0.752941-0.752941V587.294118l-2.258824 0.752941s-0.752941 0-0.752941-0.752941v-0.752942l2.258824-0.752941-2.258824-1.505882s-0.752941-0.752941 0-0.752941c0-0.752941 0.752941-0.752941 0.752941 0zM700.988235 474.352941l3.011765 1.505883 4.517647-2.258824-4.517647-2.258824-3.011765 1.505883s-0.752941 0-0.752941-0.752941v-0.752942l2.258824-1.505882-2.258824-1.505882s-0.752941-0.752941 0-0.752941c0 0 0.752941-0.752941 0.752941 0l2.258824 1.505882V466.823529c0-0.752941 0-0.752941 0.752941-0.752941s0.752941 0 0.752941 0.752941v3.011765l3.764706 2.258824v-4.517647l-2.258823-0.752942s-0.752941-0.752941 0-0.752941c0 0 0.752941-0.752941 0.752941 0l2.258823 1.505883v-3.011765c0-0.752941 0-0.752941 0.752941-0.752941s0.752941 0 0.752942 0.752941v3.011765l2.258823-1.505883h0.752941v0.752941l-3.011764 1.505883v4.517647l4.517647-2.258824V466.823529c0-0.752941 0-0.752941 0.752941-0.752941s0.752941 0 0.752941 0.752941v2.258824l2.258824-1.505882h0.752941v0.752941l-2.258824 1.505882 2.258824 1.505882s0.752941 0.752941 0 0.752942H719.058824l-3.011765-1.505883-5.270588 3.764706 3.764705 2.258824 3.011765-1.505883h0.752941v0.752942l-2.258823 1.505882 2.258823 1.505882s0.752941 0.752941 0 0.752941h-0.752941l-2.258823-1.505882v2.258824c0 0.752941 0 0.752941-0.752942 0.752941s-0.752941 0-0.752941-0.752941v-3.011765l-3.764706-2.258824v4.517647l3.011765 2.258824s0.752941 0.752941 0 0.752941h-0.752941l-3.011765-0.752941v3.011765c0 0.752941 0 0.752941-0.752941 0.752941s-0.752941 0-0.752941-0.752941V481.882353l-1.505882 0.752941h-0.752942V481.882353l2.258824-1.505882v-4.517647l-3.764706 2.258823v3.011765c0 0.752941 0 0.752941-0.752941 0.752941s-0.752941 0-0.752941-0.752941v-2.258824l-2.258824 0.752941s-0.752941 0-0.752941-0.752941v-0.752941l2.258823-0.752941-2.258823-1.505882s-0.752941-0.752941 0-0.752942c0.752941-0.752941 1.505882-0.752941 1.505882-0.752941z" fill="#FFFFFF" /></svg>