<?xml version="1.0" standalone="no"?><!DOCTYPE svg PUBLIC "-//W3C//DTD SVG 1.1//EN" "http://www.w3.org/Graphics/SVG/1.1/DTD/svg11.dtd"><svg class="icon" width="48px" height="48.00px" viewBox="0 0 1024 1024" version="1.1" xmlns="http://www.w3.org/2000/svg"><path d="M0 0h1024v1024H0z" fill="#21303A" /><path d="M878.67 607.15c0 197.27-156.28 297.65-349.06 297.65s-373.42-97.68-373.42-294.91c0-181.58 103.68-382.34 275.09-405 14.81-2 163.27-124.43 178.6-124.43 14.78 0-7.64 119.4 6.65 121.23C788.72 223.6 878.67 425 878.67 607.15z" fill="#D83D4A" /><path d="M529.61 905.54c-100.29 0-192.42-26.15-259.43-73.63-75.06-53.19-114.73-130-114.73-222 0-181.51 103.14-382.91 275.73-405.77 6.79-0.9 44.92-29.69 81.8-57.55 43.54-32.88 88.55-66.88 96.9-66.88a3.42 3.42 0 0 1 2.56 1.18c5.22 5.57 3.48 32.06 1.65 60.1-1.82 27.72-3.88 59.14 2.53 60 80 10.2 147.82 59.67 196.19 143.05 42.32 73 66.6 168.89 66.6 263.2 0 93.31-35.45 170.56-102.52 223.38-62.3 48.98-147.81 74.92-247.28 74.92z m80.27-824.4c-7.85 0-54.69 35.37-96 66.58-38.73 29.25-75.32 56.89-82.5 57.84-171.8 22.75-274.45 223.43-274.45 404.33 0 203.23 187.17 294.21 372.68 294.21 211.6 0 348.32-116.55 348.32-296.92 0-94.05-24.2-189.72-66.4-262.46-48.13-83-115.59-132.19-195.09-142.33-7.27-0.93-6.29-23.86-3.83-61.52 1.74-26.49 3.54-53.89-1.24-59a2 2 0 0 0-1.49-0.73z"  /><path d="M317.61 428.89c-23.5-70.14 17-168.07 37.88-197.09 4.83-6.72 8.75-10.13 11.64-10.14v2c-1 0-4 0.91-10 9.32-20 27.83-60.57 126.8-37.61 195.32zM653.27 373.42C625.83 412.59 549 509.47 562.03 612.3a38.49 38.49 0 0 0 7.73 18.78c15.79 20.32 60 74.48 101.92 99.95a26.86 26.86 0 0 0 29.93-1.26c32.86-24.23 113.35-123 107.71-187.59 0 0-17.55-92-130.89-173.15a18 18 0 0 0-25.16 4.39z"  /><path d="M317.74 379.89c-27.44 39.18-104.27 136.05-91.24 238.88a38.49 38.49 0 0 0 7.73 18.79c15.79 20.31 60.05 74.47 101.92 99.95a26.86 26.86 0 0 0 29.92-1.26c32.87-24.24 113.35-123 107.72-187.6 0 0-17.55-92-130.89-173.14a18 18 0 0 0-25.16 4.38zM669.37 384.14c-12.26-52.56 26.46-156 26.86-157.09l1.84 0.7c-0.4 1-38.91 104-26.79 155.94z"  /><path d="M276.724586 585.530679a32.5 64.04 87.68 1 0 127.975016-5.184752 32.5 64.04 87.68 1 0-127.975016 5.184752Z" fill="#EFEDED" /><path d="M634.511185 552.952857a84.52 46.52 87.68 1 0 92.963738-3.766312 84.52 46.52 87.68 1 0-92.963738 3.766312Z" fill="#EFEDED" /><path d="M527.32 737.62c-15.73-7.87-23.9-17.18-24.27-27.67-0.64-18.32 23.07-32.58 24.09-33.18l3 5.08c-0.21 0.13-21.72 13.08-21.19 27.9 0.29 8.17 7.36 15.77 21 22.6z"  /></svg>