<?xml version="1.0" standalone="no"?><!DOCTYPE svg PUBLIC "-//W3C//DTD SVG 1.1//EN" "http://www.w3.org/Graphics/SVG/1.1/DTD/svg11.dtd"><svg class="icon" width="48px" height="48.00px" viewBox="0 0 1024 1024" version="1.1" xmlns="http://www.w3.org/2000/svg"><path d="M625.348562 898.027473c-50.575167-8.443803-96.675911-9.25354-127.249742-3.643816-22.217679-0.680346-47.223524 0.34226-73.544148 3.35999-87.681153 10.03406-156.450357 38.182853-153.6288 62.838091 2.825731 24.655237 76.182054 36.52164 163.85486 26.470884 36.337988-4.165554 69.403637-11.432317 95.507218-20.276814 23.060807 7.997196 50.504211 14.963438 80.255782 19.926206 87.038372 14.533526 160.903911 6.465374 164.998508-18.014559 4.082076-24.492455-63.159481-56.122282-150.193678-70.659982z" fill="#FFE38F" /><path d="M260.094598 330.180668s-121.318627 140.794052-86.787939 351.050176c0 0 40.574498 115.58786 51.389078-74.207798 10.810405-189.80818 35.39886-193.36017 35.398861-276.842378zM784.895954 330.180668s121.306105 140.8024 86.783764 351.050176c0 0-40.561977 115.58786-51.389077-74.207798-10.806232-189.80818-35.394686-193.36017-35.394687-276.842378z" fill="#9595AB" /><path d="M746.821623 227.33573c38.929981 100.924943 87.130198 213.666202 87.130198 326.674591 0 253.794093-119.102285 387.429904-309.181769 387.429903-190.096179 0-309.181769-145.660822-309.181768-399.438219 0-110.191005 34.175907-222.652612 83.331947-314.62871C362.952057 107.51136 374.13394 22.426374 524.761704 22.426374c120.592368 0 171.255187 73.201888 222.059919 204.909356z" fill="#9595AB" /><path d="M703.64261 210.243603c32.781824 84.972291 73.356322 179.903511 73.356322 275.0476 0 213.67455-100.269641 326.211287-260.317901 326.211287-160.056609 0-260.326249-122.654275-260.326249-336.324651 0-92.781661 28.783226-187.474969 70.163287-264.917541C380.432358 109.352051 389.840332 37.707028 516.672683 37.707028c101.530159 0 144.18326 61.64018 186.969927 172.536575z" fill="#A9A9BA" /><path d="M632.314803 208.348651c0 22.584982-17.029519 23.645153-43.450316 38.053462-18.795079 10.234407-42.340059 34.630862-67.901033 34.630862-22.964807 0-44.31014-24.584281-62.032527-34.630862-29.73905-16.862563-49.297953-20.14325-49.297953-38.053462 0 0 49.84056-12.23788 111.33048-12.23788 61.498268 0 111.35135 12.23788 111.351349 12.23788z" fill="#6E6E96" /><path d="M778.188494 617.474496c0 192.850954-98.349646 294.397809-255.305045 294.397809-156.963747 0-255.296698-110.683525-255.296698-303.526132 0-192.84678 149.701158-312.654455 255.296698-312.654455 105.603887 0 255.305045 128.944345 255.305045 321.782778z" fill="#F0F0FF" /><path d="M458.551102 100.181989a19.963772 15.88587 90 1 0 31.77174 0 19.963772 15.88587 90 1 0-31.77174 0Z" fill="#6E6E96" /><path d="M556.737965 101.525985a21.307768 16.958563 90 1 0 33.917126 0 21.307768 16.958563 90 1 0-33.917126 0Z" fill="#6E6E96" /><path d="M637.30679 194.829384c0-4.895987-16.052826-3.322426-41.279888-14.5377-20.176641-8.957193-46.209266-31.604784-74.654406-31.604784-32.001304 0-60.97653 22.334548-81.967081 31.629827-20.973856 9.295279-33.950516 5.551289-33.950517 14.516831 0 14.207961 20.36864 16.812476 51.322296 30.194004 18.461167 7.967978 40.687194 21.616637 64.595302 21.616637 26.600276 0 51.1136-13.494224 70.680852-21.616637 27.435056-11.398926 45.132399-12.279619 45.236746-30.052092 0.008348-0.054261 0.016696-0.100174 0.016696-0.146086z" fill="#FFE38F" /><path d="M716.464836 574.884003c0 156.137315-79.625523 238.359004-206.712482 238.359004-127.091133 0-206.704134-89.61367-206.704134-245.74681 0-156.128967 121.210105-253.13879 206.704134-253.13879 85.502376 0 206.712482 104.397629 206.712482 260.526596z" fill="#FFFFFF" /><path d="M413.084791 198.047462h218.098885S561.825952 246.635852 521.372496 246.635852c-40.432586 0-115.859163-36.888943-108.287705-48.58839z" fill="#6E6E96" /><path d="M689.221779 912.690389c20.193336 11.507447 31.867739 24.033326 30.319222 35.00234-3.184687 22.472287-60.609227 29.876788-128.268173 16.536999-23.127589-4.557901-44.456227-10.956492-62.387309-18.298385-20.289336 8.122413-46.000571 14.792308-74.245363 18.619775-68.155641 9.228497-125.18366-1.661213-127.379132-24.300456-0.93078-9.558235 8.105717-19.692468 23.958196-28.900095-49.569257 13.256312-82.255081 32.088956-80.289174 49.231171 2.825731 24.655237 76.182054 36.52164 163.854859 26.470884 36.337988-4.165554 69.403637-11.432317 95.507219-20.276814 23.060807 7.997196 50.504211 14.963438 80.255782 19.926206 87.038372 14.533526 160.903911 6.465374 164.998508-18.014559 2.996861-18.018734-32.631564-39.9025-86.324635-55.997066z" fill="#FFC58F" /></svg>