<?xml version="1.0" standalone="no"?><!DOCTYPE svg PUBLIC "-//W3C//DTD SVG 1.1//EN" "http://www.w3.org/Graphics/SVG/1.1/DTD/svg11.dtd"><svg class="icon" width="48px" height="48.00px" viewBox="0 0 1024 1024" version="1.1" xmlns="http://www.w3.org/2000/svg"><path d="M409.630665 115.780343v186.629719c0 66.310895-34.00999 65.885668-52.168005 76.91704C237.32374 436.969906 158.460468 539.314708 158.460468 681.471397c0 197.517986 160.114356 317.992182 357.624165 317.992182 197.513897 0 353.54362-100.04694 353.543621-297.548572 0-137.736781-77.873801-257.254215-191.977768-316.994533a309.818826 309.818826 0 0 0-11.109058-5.589284c-18.145749-11.019106-52.172094-10.602056-52.172093-76.921128V115.780343H409.630665z" fill="#F0F0FF" /><path d="M765.508946 571.051369c-0.016355-0.077686-26.061515-133.275985-181.036347-193.265715 0 0 108.097634 93.701244 108.097634 158.482956l0.286211 0.134928c-86.476472-19.38872-194.819429 19.278325-328.729167 75.768108-174.453505 73.596997-88.279598-154.230685 16.354889-168.999149 104.634487-14.772553 87.224708-144.466817 87.224708-144.466817V169.735119H415.915031v41.741764c0 186.948639-54.514931 160.821705-87.224708 182.630949s-152.644261 126.325157-152.644261 207.163281 122.661662 136.289373 299.838256 49.064665 289.628717-7.482361 289.628717-7.482361l-0.004089-71.802048z" fill="#FFFFFF" /><path d="M389.187055 115.780343v186.629719c0 40.637809-12.556465 45.969502-28.453417 52.715894-4.571191 1.938054-9.289577 3.941528-13.881211 6.730036 0.572421-0.347541 1.161197-0.67055 1.770416-0.952672C212.811851 426.057106 138.016858 539.907573 138.016858 681.471397c0 100.635716 38.720198 186.629719 111.977831 248.66381 68.355256 57.888127 162.857889 89.771982 266.089944 89.771982 227.181665 0 373.987231-124.820507 373.987231-317.992182 0-141.154952-77.763405-269.569446-202.939631-335.111661a346.572349 346.572349 0 0 0-11.771431-5.916381c0.605131 0.290299 1.210262 0.613308 1.79086 0.964939-4.587546-2.78442-9.305931-4.787894-13.881211-6.725948-15.90104-6.742303-28.461594-12.073996-28.461595-52.724071V115.780343a20.44361 20.44361 0 0 0-20.44361-20.44361H409.630665a20.44361 20.44361 0 0 0-20.44361 20.44361z m204.738669 0v186.62563c0 62.487939 27.553898 79.407071 53.386444 90.364847 3.373196 1.431053 6.562399 2.78442 8.614938 4.027391 0.584687 0.35163 1.181641 0.678728 1.79086 0.969027 3.197381 1.529182 6.607375 3.246445 10.438507 5.249919 111.671177 58.468726 181.024081 172.99792 181.024082 298.89785 0 204.317531-172.06978 277.104961-333.10001 277.104961-198.523812 0-337.176466-122.359097-337.176466-297.548571 0-124.963613 66.54804-225.730168 187.402487-283.716425 0.601042-0.290299 1.193907-0.60922 1.770417-0.956761 2.056627-1.251149 5.24583-2.604516 8.623115-4.03148 25.816191-10.957775 53.374178-27.876907 53.374178-90.356669V115.780343a20.44361 20.44361 0 0 1-20.443611 20.44361h204.73867a20.44361 20.44361 0 0 1-20.443611-20.44361z" fill="#6E6E96" /><path d="M868.741001 726.643598c-3.152405-78.344004-141.232638-119.946751-141.232638-119.94675-75.236575-16.309912-167.359572-8.271485-245.801705 37.121507-154.255218 89.289513-299.298545 48.27963-312.9099-42.686258L154.760175 693.569926c0 186.797357 180.185893 305.893653 361.324458 305.893653 189.09113 0.004089 339.793248-91.705947 352.656368-272.819981z" fill="#D0BFFF" /><path d="M889.168257 725.817677c-3.692116-91.844964-149.557276-136.833173-155.763957-138.697631a25.284657 25.284657 0 0 0-1.570069-0.412961c-88.888818-19.274236-183.792146-4.910555-260.37391 39.411192-100.259554 58.031232-186.408928 54.433157-233.600959 31.712129-27.737891-13.361944-45.086338-34.570145-48.852051-59.728052a20.44361 20.44361 0 0 0-40.425195-0.044976L134.541444 690.491118c-0.155371 1.018092-0.233057 2.044361-0.233057 3.07063 0 93.153355 42.813009 178.067935 120.55597 239.083935 70.653117 55.451249 165.8631 87.261507 261.212099 87.261506 101.048677 0.004089 189.017533-25.022979 254.404376-72.374469 71.078345-51.477011 112.104582-127.351426 118.650626-219.441714 0.057242-0.756414 0.06542-1.512827 0.036799-2.273329z m-373.083624 253.202291c-86.366076 0-172.372345-28.625143-235.968328-78.540262-67.651995-53.096145-104.91252-126.578658-104.91252-206.90978 0 1.026269-0.077686 2.052538-0.233057 3.07063l14.036583-92.43374a20.44361 20.44361 0 0 1-40.425195-0.044976c5.830518 38.953255 31.241925 71.102877 71.552636 90.516129 72.235453 34.786847 176.391559 22.070922 271.814155-33.159536 66.879227-38.707932 153.322989-51.722334 231.233588-34.835912a18.440137 18.440137 0 0 1-1.570069-0.412961c34.516992 10.467129 124.611983 49.040133 126.70132 101.195872a19.159752 19.159752 0 0 1 0.036798-2.27333c-5.732388 80.776793-39.999968 144.438196-101.841889 189.221969-58.366508 42.269209-138.043435 64.609986-230.424022 64.605897z" fill="#6E6E96" /><path d="M656.961552 74.893122c0 22.487971-18.399249 40.887221-40.88722 40.887221H406.183873c-22.487971 0-40.887221-18.399249-40.887221-40.887221V65.419553c0-22.487971 18.399249-40.887221 40.887221-40.887221h209.88637c22.487971 0 40.887221 18.399249 40.887221 40.887221l0.004088 9.473569z" fill="#F0F0FF" /><path d="M636.517942 74.893122c0 11.272607-9.171004 20.44361-20.44361 20.443611H406.183873c-11.272607 0-20.44361-9.171004-20.443611-20.443611V65.419553c0-11.272607 9.171004-20.44361 20.443611-20.44361h209.88637c11.272607 0 20.44361 9.171004 20.44361 20.44361l0.004089 9.473569-0.004089 20.443611h20.443611l-20.439522-20.443611z m40.883132 0V65.419553c0-33.81782-27.513011-61.330831-61.330831-61.330831H406.183873c-33.81782 0-61.330831 27.513011-61.330831 61.330831v9.473569c0 33.81782 27.513011 61.330831 61.330831 61.330831h209.890459c33.821909 0 61.330831-27.513011 61.326742-61.330831l0.004089-20.44361h-20.443611l20.439522 20.44361z" fill="#6E6E96" /><path d="M656.961552 74.893122c0 22.487971-18.399249 40.887221-40.88722 40.887221H406.183873c-22.487971 0-40.887221-18.399249-40.887221-40.887221V65.419553c0-22.487971 18.399249-40.887221 40.887221-40.887221h209.88637c22.487971 0 40.887221 18.399249 40.887221 40.887221l0.004088 9.473569z" fill="#F0F0FF" /><path d="M673.561764 384.597465a309.818826 309.818826 0 0 0-11.109058-5.589284c-18.145749-11.019106-52.172094-10.602056-52.172093-76.921128V115.465511H405.541943v54.269608h161.435014v157.027372c0 55.79879 28.355288 55.451249 43.471293 64.720381 3.119695 1.50465 6.202591 3.082896 9.256867 4.702031 91.742746 48.508599 155.359173 143.845331 159.713662 254.592457-5.37667-3.401817-122.735259-76.315998-228.571831-28.37982-108.351135 49.064665-275.367254 111.716153-363.761336 23.32616l9.228245 72.370381C190.295258 695.614287 187.081523 671.44585 187.081523 645.719611c0-119.615564 65.709852-205.724051 165.822212-254.23265 12.241634-7.506894 33.130915-8.721244 40.654164-38.466697-11.562906 16.694252-28.92362 19.151574-40.188049 25.987917C233.235018 436.655074 154.371746 538.999876 154.371746 681.156565c0 197.517986 160.114356 317.992182 357.624165 317.992182 197.513897 0 353.54362-100.04694 353.543621-297.548571 0-137.736781-77.873801-257.254215-191.977768-317.002711zM485.079854 913.285584c-139.069704 0-255.876316-72.394913-288.749642-195.10564 0.445671 0.359808 109.569574 88.001565 295.226178-9.923329 183.04391-96.551083 282.61247-11.297139 285.768963-8.524985-17.933135 141.755994-140.320853 213.553954-292.245499 213.553954z m292.376338-214.55978l2.068893-44.513917c0.085863 2.890727 0.151283 5.785542 0.151283 8.7008a293.120486 293.120486 0 0 1-2.220176 35.813117z" fill="#6E6E96" /><path d="M704.047276 742.855381c12.02902 23.362958-11.624237 59.51135-52.834467 80.739995-41.218407 21.224556-84.378957 19.503204-96.412066-3.859753-12.024932-23.35478 33.413037-37.718461 74.623266-58.943018 41.218407-21.228645 62.586069-41.292004 74.623267-17.937224z" fill="#FFFFFF" /><path d="M451.351985 44.975943h79.047264v50.36079H451.351985z" fill="#FFFFFF" /><path d="M636.517942 74.893122c0 11.272607-9.171004 20.44361-20.44361 20.443611H406.183873c-11.272607 0-20.44361-9.171004-20.443611-20.443611V65.419553c0-11.272607 9.171004-20.44361 20.443611-20.44361h209.88637c11.272607 0 20.44361 9.171004 20.44361 20.44361l0.004089 9.473569z m40.883132 0V65.419553c0-33.81782-27.513011-61.330831-61.330831-61.330831H406.183873c-33.81782 0-61.330831 27.513011-61.330831 61.330831v9.473569c0 33.81782 27.513011 61.330831 61.330831 61.330831h209.890459c33.821909 0 61.330831-27.513011 61.326742-61.330831z" fill="#6E6E96" /></svg>