<?xml version="1.0" standalone="no"?><!DOCTYPE svg PUBLIC "-//W3C//DTD SVG 1.1//EN" "http://www.w3.org/Graphics/SVG/1.1/DTD/svg11.dtd"><svg class="icon" width="48px" height="28.66px" viewBox="0 0 1715 1024" version="1.1" xmlns="http://www.w3.org/2000/svg"><path d="M855.129299 555.573164m-285.939947 0a285.939947 285.939947 0 1 0 571.879894 0 285.939947 285.939947 0 1 0-571.879894 0Z" fill="#E3E3F0" /><path d="M855.129299 303.690715c138.900102 0 251.882448 112.989157 251.882448 251.882449 0 138.906914-113.00278 251.882448-251.882448 251.882448-138.886479 0-251.882448-112.995969-251.882449-251.882448s112.995969-251.882448 251.882449-251.882449zM535.131853 555.566352c0 176.431466 143.552357 319.997446 319.997446 319.997446 176.438277 0 319.997446-143.545545 319.997445-319.997446 0-176.4519-143.559168-319.997446-319.997445-319.997445-176.445089 0-319.997446 143.559168-319.997446 319.997445z" fill="#6E6E96" /><path d="M612.789761 673.32356H68.114997a34.057499 34.057499 0 1 0 0 68.114997h544.674764a34.057499 34.057499 0 1 0 0-68.114997zM1097.468836 741.438557h550.117153c18.813362 0 34.057499-15.237325 34.057498-34.057499a34.057499 34.057499 0 0 0-34.057498-34.057498H1097.468836c-18.820174 0-34.057499 15.244136-34.057499 34.057498s15.237325 34.057499 34.057499 34.057499zM563.746963 303.690715h566.430695a34.057499 34.057499 0 1 0 0-68.114997H563.746963a34.057499 34.057499 0 0 0 0 68.114997z" fill="#6E6E96" /><path d="M889.186797 269.633217V68.114997a34.057499 34.057499 0 1 0-68.114997 0v201.51822a34.057499 34.057499 0 0 0 68.114997 0z" fill="#6E6E96" /><path d="M361.213831 831.622813m-124.255378 0a124.255378 124.255378 0 1 0 248.510756 0 124.255378 124.255378 0 1 0-248.510756 0Z" fill="#B1B1CC" /><path d="M1335.326407 831.622813m-124.255378 0a124.255378 124.255378 0 1 0 248.510756 0 124.255378 124.255378 0 1 0-248.510756 0Z" fill="#B1B1CC" /><path d="M839.803424 523.21854m-216.122074 0a216.122075 216.122075 0 1 0 432.244149 0 216.122075 216.122075 0 1 0-432.244149 0Z" fill="#F0F0FF" /><path d="M782.981894 534.57331h149.750821a34.057499 34.057499 0 1 0 0-68.114997H782.981894a34.057499 34.057499 0 0 0 0 68.114997z" fill="#6E6E96" /><path d="M738.298455 360.798329c41.8771-19.044953 86.206341-11.674911 98.998337 16.463395 12.805619 28.145117-10.775793 37.361076-52.652892 56.406029s-86.199529 40.712334-99.005149 12.567217c-12.791996-28.145117 10.782604-66.391688 52.659704-85.436641z" fill="#FFFFFF" /><path d="M358.945601 798.627909c44.867349 0 82.61668 30.140886 94.325648 71.248287 2.438517-8.555244 3.828063-17.560046 3.828063-26.898613 0-54.192292-43.934173-98.1469-98.146899-98.146899-54.205915 0-98.1469 43.954608-98.1469 98.146899 0 9.338566 1.389546 18.343369 3.828063 26.898613 11.695345-41.107401 49.444677-71.248287 94.312025-71.248287z" fill="#A0A0B8" /><path d="M361.213831 741.424934c49.737571 0 90.197879 40.460308 90.197879 90.197879 0 49.744383-40.460308 90.197879-90.197879 90.19788-49.73076 0-90.197879-40.453497-90.19788-90.19788 0-49.737571 40.46712-90.197879 90.19788-90.197879z m-158.312877 90.197879c0 87.282558 71.016696 158.312877 158.312877 158.312877s158.312877-71.030319 158.312876-158.312877S448.510011 673.309937 361.213831 673.309937s-158.312877 71.009885-158.312877 158.312876z" fill="#6E6E96" /><path d="M1336.395812 798.627909c44.867349 0 82.61668 30.140886 94.325648 71.248287 2.431705-8.555244 3.821251-17.560046 3.821252-26.898613 0-54.192292-43.913739-98.1469-98.126466-98.146899-54.205915 0-98.1469 43.954608-98.146899 98.146899 0 9.338566 1.389546 18.343369 3.834874 26.898613 11.674911-41.107401 49.417431-71.248287 94.291591-71.248287z" fill="#A0A0B8" /><path d="M1335.326407 741.424934c49.737571 0 90.197879 40.460308 90.197879 90.197879 0 49.744383-40.460308 90.197879-90.197879 90.19788s-90.197879-40.453497-90.19788-90.19788c0-49.737571 40.460308-90.197879 90.19788-90.197879z m-158.312877 90.197879c0 87.282558 71.023508 158.312877 158.312877 158.312877s158.312877-71.030319 158.312876-158.312877-71.023508-158.312877-158.312876-158.312876-158.312877 71.009885-158.312877 158.312876z" fill="#6E6E96" /></svg>