<?xml version="1.0" standalone="no"?><!DOCTYPE svg PUBLIC "-//W3C//DTD SVG 1.1//EN" "http://www.w3.org/Graphics/SVG/1.1/DTD/svg11.dtd"><svg class="icon" width="48px" height="48.00px" viewBox="0 0 1024 1024" version="1.1" xmlns="http://www.w3.org/2000/svg"><path d="M512.3072 515.84m-450.816 0a450.816 450.816 0 1 0 901.632 0 450.816 450.816 0 1 0-901.632 0Z" fill="#C65EDB" /><path d="M513.4848 191.6928c-176.7424-0.2048-324.352 147.5072-324.1472 324.4032 0.256 177.92 146.8416 324.4032 324.2496 323.9424 178.8416-0.4608 323.2256-145.152 323.328-324.096 0.1024-178.2272-145.3056-324.0448-323.4304-324.2496z m-1.28 512.4096c-30.1056-0.256-53.248-23.9104-52.8384-54.016 0.3584-29.3376 25.0368-53.4528 54.272-53.0944 28.9792 0.3584 53.9136 25.856 53.2992 54.528-0.6144 29.7984-24.5248 52.7872-54.7328 52.5824z m171.1616-130.048a35.7632 35.7632 0 0 1-26.2144 11.4176 35.6352 35.6352 0 0 1-24.4224-9.6256c-126.8736-118.272-236.544-6.2976-241.152-1.4848a35.84 35.84 0 0 1-50.688 1.1776 35.84 35.84 0 0 1-1.1776-50.688c1.6384-1.7408 41.1648-42.5984 102.4512-63.1296 58.112-19.5072 146.8416-24.6272 239.4112 61.696 14.5408 13.4656 15.3088 36.1472 1.792 50.6368z m38.8096-108.5952c-7.6288 0-15.3088-2.4064-21.8112-7.424C617.2672 394.24 528.7424 374.6816 437.2992 399.9744c-67.84 18.7392-112.8448 56.4224-113.2544 56.7808-15.0016 12.9024-37.632 11.264-50.5344-3.7376-12.9024-15.0016-11.264-37.632 3.7376-50.5344 2.2528-1.9456 56.6784-48.3328 141.0048-71.6288 78.592-21.7088 198.8608-27.0848 325.7856 70.2976 15.7184 12.032 18.688 34.56 6.6048 50.2272a35.67104 35.67104 0 0 1-28.4672 14.08z" fill="#FFFFFF" /></svg>