<?xml version="1.0" standalone="no"?><!DOCTYPE svg PUBLIC "-//W3C//DTD SVG 1.1//EN" "http://www.w3.org/Graphics/SVG/1.1/DTD/svg11.dtd"><svg class="icon" width="48px" height="48.00px" viewBox="0 0 1024 1024" version="1.1" xmlns="http://www.w3.org/2000/svg"><path d="M770.024727 72.308364l-511.953454-2.373819L0 509.742545l253.975273 442.181819 511.953454 2.373818L1024 514.466909l-253.975273-442.181818zM269.265455 89.6l489.355636 2.257455 242.664727 422.469818-246.574545 420.212363-489.332364-2.234181L22.690909 509.858909 269.265455 89.6z" fill="#181818" /><path d="M711.284364 170.193455l-395.403637-1.815273-199.237818 342.737454 196.072727 344.576 395.403637 1.861819 199.237818-342.784-196.072727-344.576z m-384.116364 17.896727l372.619636 1.745454 184.855273 324.817455-187.834182 323.141818-372.619636-1.745454-184.855273-324.840728 187.834182-323.118545z" fill="#181818" /><path d="M780.101818 924.811636L277.76 80.826182l-33.861818 20.154182 502.388363 843.985454z" fill="#181818" /><path d="M780.101818 98.839273l-33.861818-20.340364-500.433455 850.152727 33.885091 20.340364L780.101818 98.839273z m-26.996363 6.749091L272.779636 921.879273 753.105455 105.588364z" fill="#181818" /><path d="M1004.311273 493.614545H19.688727v39.377455h984.622546z" fill="#181818" /><path d="M344.32 227.374545L195.444364 513.698909l162.722909 265.029818 293.701818-22.644363 190.72-242.362182-164.468364-286.394182z" fill="#4F8DFC" /></svg>