<?xml version="1.0" standalone="no"?><!DOCTYPE svg PUBLIC "-//W3C//DTD SVG 1.1//EN" "http://www.w3.org/Graphics/SVG/1.1/DTD/svg11.dtd"><svg class="icon" width="48px" height="48.00px" viewBox="0 0 1024 1024" version="1.1" xmlns="http://www.w3.org/2000/svg"><path d="M756.363636 465.454545a128 128 0 1 1 0-256 128 128 0 1 1 0 256zM744.727273 849.454545a128 128 0 1 1-256 0 128 128 0 1 1 256 0zM500.363636 651.636364a58.181818 58.181818 0 1 1 0-116.363637 58.181818 58.181818 0 0 1 0 116.363637z" fill="#181818" /><path d="M337.454545 442.181818a197.818182 197.818182 0 1 1 0.023273-395.659636A197.818182 197.818182 0 0 1 337.454545 442.181818z" fill="#4F8DFC" /><path d="M302.545455 628.363636a93.090909 93.090909 0 1 1 0 186.181819 93.090909 93.090909 0 0 1 0-186.181819zM651.636364 616.727273a58.181818 58.181818 0 1 1 116.363636 0 58.181818 58.181818 0 0 1-116.363636 0z" fill="#181818" /></svg>