<?xml version="1.0" standalone="no"?><!DOCTYPE svg PUBLIC "-//W3C//DTD SVG 1.1//EN" "http://www.w3.org/Graphics/SVG/1.1/DTD/svg11.dtd"><svg class="icon" width="48px" height="48.00px" viewBox="0 0 1024 1024" version="1.1" xmlns="http://www.w3.org/2000/svg"><path d="M1024 954.181818H0V325.818182h20.48v605.090909h983.04V325.818182H1024z" fill="#181818" /><path d="M930.909091 372.363636v442.181819a46.545455 46.545455 0 0 1-46.545455 46.545454h-93.090909a46.545455 46.545455 0 0 1-46.545454-46.545454V372.363636a46.545455 46.545455 0 0 1 46.545454-46.545454h93.090909a46.545455 46.545455 0 0 1 46.545455 46.545454zM558.545455 861.090909h-93.09091a46.545455 46.545455 0 0 1-46.545454-46.545454v-186.181819a46.545455 46.545455 0 0 1 46.545454-46.545454h93.09091a46.545455 46.545455 0 0 1 46.545454 46.545454v186.181819a46.545455 46.545455 0 0 1-46.545454 46.545454zM279.272727 814.545455a46.545455 46.545455 0 0 1-46.545454 46.545454H139.636364a46.545455 46.545455 0 0 1-46.545455-46.545454V558.545455a46.545455 46.545455 0 0 1 46.545455-46.545455h93.090909a46.545455 46.545455 0 0 1 46.545454 46.545455v256z" fill="#4F8DFC" /><path d="M942.522182 72.96l23.319273 40.261818L505.786182 379.578182l-138.845091-185.111273-260.933818 173.986909-25.832728-38.725818 297.588364-198.4 140.450909 187.252364z" fill="#181818" /><path d="M919.272727 186.181818a58.181818 58.181818 0 1 1 0-116.363636 58.181818 58.181818 0 0 1 0 116.363636zM500.363636 418.909091a58.181818 58.181818 0 1 1 0-116.363636 58.181818 58.181818 0 0 1 0 116.363636zM337.454545 232.727273a58.181818 58.181818 0 1 1 0-116.363637 58.181818 58.181818 0 0 1 0 116.363637zM104.727273 395.636364a58.181818 58.181818 0 1 1 0-116.363637 58.181818 58.181818 0 0 1 0 116.363637z" fill="#181818" /></svg>