<?xml version="1.0" standalone="no"?><!DOCTYPE svg PUBLIC "-//W3C//DTD SVG 1.1//EN" "http://www.w3.org/Graphics/SVG/1.1/DTD/svg11.dtd"><svg class="icon" width="48px" height="48.00px" viewBox="0 0 1024 1024" version="1.1" xmlns="http://www.w3.org/2000/svg"><path d="M563.2 256s142.981908-39.132554 240.246154 200.861538c0 0 20.350031 232.369231-35.446154 299.323077 0 0-61.317908 168.384985-169.353846 161.476923 0 0-54.610708-11.740554-66.953846-27.56923 0 0-86.0672-119.552 106.338461-192.984616 0 0 52.310646-21.173169 55.138462-129.96923 0 0 17.073231-134.793846-94.523077-185.107693 0 0-98.623015-46.391138-35.446154-126.030769z" fill="#4F8DFC" /><path d="M460.8 417.476923c-35.005046 28.2624-65.201231 24.327877-90.584615-11.815385 0 0-79.836554-148.743877 118.153846-307.2 0 0 89.729969-32.547446 102.4 27.569231 0 0 6.813538 52.708431 59.076923 47.261539 0 0 95.574646 36.990031 43.323077 102.4l-51.2-7.876923c37.344492-23.772554 37.344492-42.153354 0-55.138462 0 0-82.392615 8.940308-86.646154-66.953846 0 0-30.759385-34.374892-59.076923 3.938461 0 0-135.305846 101.907692-86.646154 228.43077 0 0 30.223754 26.891815 43.323077-3.938462l7.876923 43.323077z" fill="#000000" /><path d="M189.046154 468.676923c121.777231-10.811077 217.611815 2.315815 287.507692 39.384615 0 0 48.860554 8.207754 27.569231-27.56923 0 0-66.071631-60.845292-66.953846-94.523077 0 0-32.539569-198.880492 204.8-157.538462 0 0 378.005662 196.970338 78.769231 669.538462 0 0-71.806031 68.899446-157.538462 31.507692 0 0-184.828062-49.723077-133.907692-224.492308 0 0 40.794585-51.274831 74.830769-63.015384 0 0-33.748677-70.207015-311.138462-43.323077v-43.323077c166.147938-25.639385 279.047877-8.574031 338.707693 51.2 0 0 39.384615 37.797415 15.753846 55.138461 0 0-92.435692 42.157292-82.707692 90.584616 0 0-14.442338 91.265969 118.153846 133.907692 0 0 68.466215 28.711385 118.153846-43.323077 0 0 222.247385-379.813415-74.830769-567.138461 0 0-150.488615-44.221046-141.784616 106.338461 0 0 17.415877 38.313354 39.384616 55.138462 0 0 86.567385 123.132062-43.323077 110.276923 0 0-150.984862-62.267077-287.507693-35.446154l-3.938461-43.323077z" fill="#000000" /></svg>