<?xml version="1.0" standalone="no"?><!DOCTYPE svg PUBLIC "-//W3C//DTD SVG 1.1//EN" "http://www.w3.org/Graphics/SVG/1.1/DTD/svg11.dtd"><svg class="icon" width="48px" height="48.00px" viewBox="0 0 1024 1024" version="1.1" xmlns="http://www.w3.org/2000/svg"><path d="M531.692308 0a334.769231 334.769231 0 1 1 0 669.538462 334.769231 334.769231 0 0 1 0-669.538462z m0 78.769231a256 256 0 1 0 0 512 256 256 0 0 0 0-512z" fill="#181818" /><path d="M707.820308 354.461538a177.230769 177.230769 0 0 1-352.256 0z" fill="#4F8DFC" /><path d="M275.928615 478.916923a39.384615 39.384615 0 0 0-51.712 7.995077l-2.756923 3.702154L47.655385 759.729231a58.407385 58.407385 0 0 0-7.68 38.281846 59.273846 59.273846 0 0 0 61.44 50.412308l5.671384-0.472616 82.116923-11.382154 28.829539 71.68c4.332308 10.712615 11.697231 19.849846 21.110154 26.387693l4.883692 3.032615a59.943385 59.943385 0 0 0 77.390769-16.620308l3.111385-4.726153 142.493538-237.843693a39.384615 39.384615 0 0 0-64.984615-44.268307l-2.599385 3.820307-122.722461 204.918154-20.164923-49.979077a59.470769 59.470769 0 0 0-58.092308-36.942769l-5.395692 0.472615-54.429539 7.522462 149.031385-230.596923a39.384615 39.384615 0 0 0-7.995077-51.751385l-3.741539-2.717538zM748.032 478.916923a39.384615 39.384615 0 0 1 51.751385 7.995077l2.717538 3.702154 173.843692 269.075692c6.852923 11.500308 9.609846 25.009231 7.68 38.281846a59.273846 59.273846 0 0 1-61.44 50.412308l-5.671384-0.472615-82.116923-11.382154-28.829539 71.68c-4.332308 10.712615-11.697231 19.849846-21.149538 26.387692l-4.883693 3.032615a59.943385 59.943385 0 0 1-77.351384-16.620307l-3.150769-4.726154-142.454154-237.843692a39.384615 39.384615 0 0 1 64.984615-44.268308l2.599385 3.820308 122.722461 204.918153 20.164923-49.979076c9.531077-23.630769 33.083077-38.163692 58.092308-36.94277l5.395692 0.472616 54.429539 7.522461-149.031385-230.596923a39.384615 39.384615 0 0 1 7.995077-51.751384l3.702154-2.717539z" fill="#181818" /></svg>