<?xml version="1.0" standalone="no"?><!DOCTYPE svg PUBLIC "-//W3C//DTD SVG 1.1//EN" "http://www.w3.org/Graphics/SVG/1.1/DTD/svg11.dtd"><svg class="icon" width="48px" height="48.00px" viewBox="0 0 1024 1024" version="1.1" xmlns="http://www.w3.org/2000/svg"><path d="M0 977.454545v-23.272727h1024v23.272727zM977.454545 884.363636h-93.090909a46.545455 46.545455 0 0 1-46.545454-46.545454V395.636364a46.545455 46.545455 0 0 1 46.545454-46.545455h93.090909a46.545455 46.545455 0 0 1 46.545455 46.545455v442.181818a46.545455 46.545455 0 0 1-46.545455 46.545454z" fill="#181818" /><path d="M698.181818 884.363636h-93.090909a46.545455 46.545455 0 0 1-46.545454-46.545454V605.090909a46.545455 46.545455 0 0 1 46.545454-46.545454h93.090909a46.545455 46.545455 0 0 1 46.545455 46.545454v232.727273a46.545455 46.545455 0 0 1-46.545455 46.545454z" fill="#181818" /><path d="M465.454545 861.090909a46.545455 46.545455 0 0 1-46.545454 46.545455h-93.090909a46.545455 46.545455 0 0 1-46.545455-46.545455V512a46.545455 46.545455 0 0 1 46.545455-46.545455h93.090909a46.545455 46.545455 0 0 1 46.545454 46.545455v349.090909z" fill="#181818" /><path d="M139.636364 907.636364H46.545455a46.545455 46.545455 0 0 1-46.545455-46.545455V628.363636a46.545455 46.545455 0 0 1 46.545455-46.545454h93.090909a46.545455 46.545455 0 0 1 46.545454 46.545454v232.727273a46.545455 46.545455 0 0 1-46.545454 46.545455z" fill="#181818" /><path d="M1001.774545 72.657455l22.295273 40.866909-527.290182 287.604363-185.530181-185.506909-286.859637 176.570182L0 352.535273l318.208-195.816728 186.88 186.856728z" fill="#4F8DFC" /><path d="M965.818182 162.909091a58.181818 58.181818 0 1 1 0-116.363636 58.181818 58.181818 0 0 1 0 116.363636zM500.363636 418.909091a58.181818 58.181818 0 1 1 0-116.363636 58.181818 58.181818 0 0 1 0 116.363636zM290.909091 256a58.181818 58.181818 0 1 1 0-116.363636 58.181818 58.181818 0 0 1 0 116.363636zM58.181818 418.909091a58.181818 58.181818 0 1 1 0-116.363636 58.181818 58.181818 0 0 1 0 116.363636z" fill="#4F8DFC" /></svg>