<?xml version="1.0" standalone="no"?><!DOCTYPE svg PUBLIC "-//W3C//DTD SVG 1.1//EN" "http://www.w3.org/Graphics/SVG/1.1/DTD/svg11.dtd"><svg class="icon" width="48px" height="48.00px" viewBox="0 0 1024 1024" version="1.1" xmlns="http://www.w3.org/2000/svg"><path d="M556.206186 339.134021h137.237113c108.206186 0 195.298969 87.092784 195.298969 195.298969v238.845361c0 108.206186-87.092784 195.298969-195.298969 195.298969H556.206186c-108.206186 0-195.298969-87.092784-195.29897-195.298969V534.43299c0-108.206186 87.092784-195.298969 195.29897-195.298969z" fill="#4F8DFC" /><path d="M162.969072 1005.525773c-15.835052-42.226804-25.072165-85.773196-25.072165-130.639175v-488.247423C139.216495 166.268041 297.56701 0 508.701031 0h39.587629c233.56701 0 372.123711 147.793814 372.123711 394.556701v480.329897c0 42.226804-7.917526 84.453608-22.43299 125.360825L849.154639 981.773196c13.195876-34.309278 19.793814-69.938144 18.474227-106.886598V394.556701C867.628866 176.824742 751.505155 52.783505 548.28866 52.783505h-39.587629c-180.783505 0-316.701031 143.835052-316.701031 333.85567v488.247423c0 38.268041 6.597938 75.216495 21.113402 110.845361L162.969072 1005.525773z" fill="#181818" /><path d="M660.453608 754.804124c-73.896907 0-134.597938-60.701031-134.597938-134.597938s60.701031-134.597938 134.597938-134.597939S793.731959 546.309278 793.731959 620.206186s-59.381443 134.597938-133.278351 134.597938z m0-216.412371c-44.865979 0-81.814433 36.948454-81.814433 81.814433s36.948454 81.814433 81.814433 81.814433 81.814433-36.948454 81.814433-81.814433-36.948454-81.814433-81.814433-81.814433zM57.402062 971.216495h909.195876v52.783505H57.402062z" fill="#181818" /></svg>