<?xml version="1.0" standalone="no"?><!DOCTYPE svg PUBLIC "-//W3C//DTD SVG 1.1//EN" "http://www.w3.org/Graphics/SVG/1.1/DTD/svg11.dtd"><svg class="icon" width="48px" height="48.00px" viewBox="0 0 1024 1024" version="1.1" xmlns="http://www.w3.org/2000/svg"><path d="M509.01 638.87c-4.1-41.2 7.15-85.4 36.34-112.85 54.21-50.98 129.99-49.48 179.64 0.17l2.66 2.66a6.005 6.005 0 0 0 8.5 0l3.14-3.14c45.12-45.11 115.56-48.63 165.34-11.52 15.08-33.07 24.31-64.92 27.36-95.49 7.75-77.68-15.16-159.53-68.7-213.07-93.42-93.42-244.73-93.56-337.97-0.32l-5.91 5.91c-4.42 4.42-11.58 4.42-15.99 0l-4.99-5c-93.42-93.42-235.97-96.24-337.97-0.32-54.91 51.63-76.07 134.8-68.36 212.3 12.74 128.02 129.73 277.13 350.97 447.3 40.68 31.29 97.34 31.27 138-0.07 17.94-13.82 34.93-27.46 51.5-40.99-76.88-69.07-118.12-130.94-123.56-185.57z" fill="#4B8AFF" /><path d="M576.38 557.76c44.06-41.44 105.65-40.22 146.01 0.14l2.16 2.16c1.91 1.91 5 1.91 6.91 0l2.55-2.55c40.28-40.28 105.65-40.22 146.01 0.14 23.13 23.13 33.03 58.49 29.68 92.05-5.49 55-56.03 119.33-151.61 193-17.56 13.54-42.04 13.55-59.62 0.03-95.58-73.52-146.12-137.93-151.63-193.24-3.32-33.49 5.82-69.42 29.54-91.73z" fill="#B7D0FF" /></svg>