<?xml version="1.0" standalone="no"?><!DOCTYPE svg PUBLIC "-//W3C//DTD SVG 1.1//EN" "http://www.w3.org/Graphics/SVG/1.1/DTD/svg11.dtd"><svg class="icon" width="48px" height="48.00px" viewBox="0 0 1024 1024" version="1.1" xmlns="http://www.w3.org/2000/svg"><path d="M888.62 383.85V184.43c-0.17-47.08-38.4-85.14-85.48-85.09H218.37c-47.08-0.05-85.32 38.01-85.48 85.09v70.95c-23.61 12.22-38.46 36.56-38.52 63.14v534.86c0.14 39.43 32.16 71.32 71.59 71.28h692.07c39.43 0.04 71.46-31.85 71.59-71.28v-405.2c-0.07-27.57-16.05-52.62-41-64.33z m-67.39-17.08c0 43.36-21.68 42.33-52.22 42.33-52.22 0-76.78 1.71-121.22 1.03-18.72-0.28-54.78-17.13-68.83-36.74-13.33-18.6-29.01-39.42-39.57-49.98-21.68-21.68-43.36-21.68-49.06-21.68H268.38c-29.93 0-54.2-24.27-54.2-54.2s24.27-54.2 54.2-54.2h498.64c9.01 1.1 23.66 4.37 35.06 15.69 14.61 14.51 15.95 34.38 16.65 44.78 3.55 52.36 2.5 90.62 2.5 112.97z" fill="#4B8AFF" /><path d="M641.13 697.09c-0.07 25.79-20.96 46.68-46.75 46.75h-66.02v66.06c-0.07 25.79-20.96 46.68-46.75 46.75h-66.6c-25.79-0.07-46.68-20.96-46.75-46.75v-66.06H302.2c-25.77-0.1-46.63-20.98-46.71-46.75v-66.61c0.07-25.79 20.96-46.68 46.75-46.75h66.06V517.7c0.07-25.79 20.96-46.68 46.75-46.75h66.57c25.78 0.08 46.67 20.97 46.74 46.75v66.07h66.06c25.76 0.09 46.62 20.95 46.72 46.71l-0.01 66.61z" fill="#B7D0FF" /></svg>