<?xml version="1.0" standalone="no"?><!DOCTYPE svg PUBLIC "-//W3C//DTD SVG 1.1//EN" "http://www.w3.org/Graphics/SVG/1.1/DTD/svg11.dtd"><svg class="icon" width="48px" height="48.00px" viewBox="0 0 1024 1024" version="1.1" xmlns="http://www.w3.org/2000/svg"><path d="M310.04 124.05c-63.59 36.18-123.27 92.31-160.39 156.56-40.47 70.4-59.03 154.88-54.83 235.45l238.43-15.67c-0.19-3.36-0.28-6.71-0.28-10.07 0-24.06 4.76-47.56 14.17-69.66 9.04-21.26 21.91-40.38 38.32-56.79 11.84-11.84 25.08-21.82 39.54-29.93L310.04 124.05zM929.76 498.15c0-73.11-18.28-152.65-55.48-217.17-41.12-70.4-105-128.49-176.8-165.05L592.11 330.4c17.06 8.58 32.64 19.86 46.25 33.48 16.41 16.41 29.37 35.53 38.42 56.79 9.51 22.1 14.27 45.5 14.27 69.66v2.7l238.71 5.12zM609.92 640.07a179.367 179.367 0 0 1-28.25 15.11c-22.1 9.42-45.6 14.17-69.66 14.17-24.06 0-47.56-4.76-69.66-14.17-7.93-3.36-15.57-7.27-22.85-11.75L295.49 847.36c63.31 37.21 141.55 60.7 215.87 60.7 81.13 0 163.74-26.11 231.16-70.12l-132.6-197.87z" fill="#4B8AFF" /><path d="M512.01 490.32m-119.36 0a119.36 119.36 0 1 0 238.72 0 119.36 119.36 0 1 0-238.72 0Z" fill="#B7D0FF" /></svg>