<?xml version="1.0" standalone="no"?><!DOCTYPE svg PUBLIC "-//W3C//DTD SVG 1.1//EN" "http://www.w3.org/Graphics/SVG/1.1/DTD/svg11.dtd"><svg class="icon" width="48px" height="48.00px" viewBox="0 0 1024 1024" version="1.1" xmlns="http://www.w3.org/2000/svg"><path d="M843.68 386.7a44.145 44.145 0 0 0 32.13 11.56 44.143 44.143 0 0 0 30.77-14.8c18.18-16.79 19.91-44.92 3.93-63.83L687.59 92.55a44.13 44.13 0 0 0-32.13-11.56 44.162 44.162 0 0 0-30.77 14.8c-18.11 17.01-19.54 45.3-3.23 64.06l6.71 6.71L144.38 650.1c-56.36 58.03-55.68 150.56 1.52 207.76 57.2 57.2 149.73 57.88 207.76 1.52l135.64-135.7c3.28-49.72 23.99-96.05 59.56-131.61 35.53-35.52 81.81-56.23 131.49-59.53L834.9 377.92l8.78 8.78z m-216.45 92.27H430.44l244.2-239.11 95.74 95.28-143.15 143.83z" fill="#4B8AFF" /><path d="M488.63 737.47c-0.01 54.93 21.36 106.56 60.2 145.41 38.82 38.8 90.45 60.19 145.36 60.19 54.94 0 106.59-21.4 145.44-60.23 80.15-80.15 80.16-210.59 0-290.77-38.84-38.82-90.46-60.2-145.4-60.2-4.66 0-9.26 0.37-13.88 0.68L489.3 723.68c-0.3 4.58-0.67 9.15-0.67 13.79z m189.11-102.8c0-9.46 7.68-17.14 17.13-17.14 9.46 0 17.14 7.67 17.14 17.14v112.09l71.07 41.1c8.21 4.73 12.61 15.2 7.88 23.39-4.73 8.19-13.61 11-21.79 6.27l-70.68-42.83c-2.38-1.37-6.29-3.31-7.71-5.45-5.14-2.95-13.04-8.28-13.04-14.63V634.67zM489.3 723.68l191.05-191.14c-49.68 3.3-95.97 24.01-131.49 59.53-35.57 35.56-56.28 81.89-59.56 131.61z" fill="#B7D0FF" /></svg>