<?xml version="1.0" standalone="no"?><!DOCTYPE svg PUBLIC "-//W3C//DTD SVG 1.1//EN" "http://www.w3.org/Graphics/SVG/1.1/DTD/svg11.dtd"><svg class="icon" width="48px" height="48.00px" viewBox="0 0 1024 1024" version="1.1" xmlns="http://www.w3.org/2000/svg"><path d="M745.01 629.2c-86.11 0-155.92 69.81-155.92 155.92s69.81 155.92 155.92 155.92 155.92-69.81 155.92-155.92-69.8-155.92-155.92-155.92z m49.84 193.3h-36.48v41.43c0 7.39-5.99 13.35-13.35 13.35-7.39 0-13.35-5.99-13.35-13.35V822.5h-36.48c-7.39 0-13.35-5.99-13.35-13.35 0-7.39 5.99-13.35 13.35-13.35h36.48v-18.66h-36.48c-7.39 0-13.35-5.99-13.35-13.35 0-7.39 5.99-13.35 13.35-13.35h30.84l-34.65-34.65c-5.21-5.21-5.21-13.65 0-18.86 5.21-5.21 13.65-5.21 18.86 0l34.52 34.49 34.49-34.52c5.21-5.21 13.65-5.21 18.86 0 5.21 5.21 5.21 13.65 0 18.86l-34.65 34.65h31.33c7.39 0 13.35 5.99 13.35 13.35 0 7.39-5.99 13.35-13.35 13.35h-36.41v18.69h36.48c7.39 0 13.35 5.99 13.35 13.35-0.01 7.38-6 13.35-13.36 13.35z" fill="#B8D1FF" /><path d="M794.85 795.79h-36.48V777.1h36.41c7.36 0 13.35-5.96 13.35-13.35 0-7.36-5.96-13.35-13.35-13.35h-31.33l34.65-34.65c5.21-5.21 5.21-13.65 0-18.86-5.21-5.21-13.65-5.21-18.86 0l-34.49 34.52-34.52-34.49c-5.21-5.21-13.65-5.21-18.86 0-5.21 5.21-5.21 13.65 0 18.86l34.65 34.65h-30.84c-7.36 0-13.35 5.96-13.35 13.35 0 7.36 5.96 13.35 13.35 13.35h36.48v18.66h-36.48c-7.36 0-13.35 5.96-13.35 13.35 0 7.36 5.96 13.35 13.35 13.35h36.48v41.43c0 7.36 5.96 13.35 13.35 13.35 7.36 0 13.35-5.96 13.35-13.35V822.5h36.48c7.36 0 13.35-5.96 13.35-13.35 0.01-7.37-5.95-13.36-13.34-13.36z" fill="#4B8AFF" /><path d="M795.28 102.95H188c-31.31 0-56.93 26.31-56.93 58.47v701.66c0 32.16 25.62 58.47 56.93 58.47h433.84c-43.6-33.66-71.93-87.06-71.93-147.39 0-101.88 80.42-184.47 179.62-184.47 47.5 0 90.57 19.07 122.69 49.99V161.43c-0.01-32.16-25.63-58.48-56.94-58.48z m-547.27 214.4H481.9c16.15 0 29.24 13.09 29.24 29.24s-13.09 29.24-29.24 29.24H248.01c-16.15 0-29.24-13.09-29.24-29.24s13.09-29.24 29.24-29.24z m0 155.92H481.9c16.15 0 29.24 13.09 29.24 29.24s-13.09 29.24-29.24 29.24H248.01c-16.15 0-29.24-13.09-29.24-29.24s13.09-29.24 29.24-29.24z m253.37 214.4H248.01c-16.15 0-29.24-13.09-29.24-29.24s13.09-29.24 29.24-29.24h253.38c16.15 0 29.24 13.09 29.24 29.24-0.01 16.15-13.1 29.24-29.25 29.24z" fill="#4B8AFF" /></svg>