<?xml version="1.0" standalone="no"?><!DOCTYPE svg PUBLIC "-//W3C//DTD SVG 1.1//EN" "http://www.w3.org/Graphics/SVG/1.1/DTD/svg11.dtd"><svg class="icon" width="48px" height="48.00px" viewBox="0 0 1024 1024" version="1.1" xmlns="http://www.w3.org/2000/svg"><path d="M745.09 211.06H701.2V145.6c0-26.67-28.7-48.5-63.79-48.5H335.1c-35.09 0-63.79 21.83-63.79 48.5v65.46h-43.89c-63.36 0-115.2 51.84-115.2 115.2v430.77c0 63.37 51.84 115.21 115.2 115.21H745.1c63.36 0 115.21-51.84 115.21-115.21V326.25c-0.01-63.35-51.85-115.19-115.22-115.19zM644.66 582.13c-0.06 21.18-17.22 38.34-38.4 38.4h-54.23v54.26c-0.06 21.18-17.22 38.34-38.4 38.4h-54.71c-21.18-0.06-38.34-17.22-38.4-38.4v-54.26h-54.26c-21.17-0.08-38.3-17.23-38.36-38.4v-54.72c0.06-21.18 17.22-38.34 38.4-38.4h54.26v-54.23c0.06-21.18 17.22-38.34 38.4-38.4h54.68c21.18 0.07 38.33 17.22 38.39 38.4v54.27h54.26c21.16 0.08 38.29 17.21 38.37 38.36v54.72z m0.76-371.07H327.13v-38.22c0-17.74 19.14-32.33 42.53-32.33h233.2c23.39 0 42.53 14.55 42.53 32.33l0.03 38.22z" fill="#4B8AFF" /><path d="M911.78 795.83c-0.06 21.18-17.22 38.34-38.4 38.4h-54.23v54.26c-0.06 21.18-17.22 38.34-38.4 38.4h-54.71c-21.18-0.06-38.34-17.22-38.4-38.4v-54.26h-54.26c-21.17-0.08-38.3-17.23-38.36-38.4v-54.72c0.06-21.18 17.22-38.34 38.4-38.4h54.26v-54.23c0.06-21.18 17.22-38.34 38.4-38.4h54.68c21.18 0.07 38.33 17.22 38.39 38.4v54.27h54.26c21.16 0.08 38.29 17.21 38.37 38.36v54.72z" fill="#B7D0FF" /></svg>