<?xml version="1.0" standalone="no"?><!DOCTYPE svg PUBLIC "-//W3C//DTD SVG 1.1//EN" "http://www.w3.org/Graphics/SVG/1.1/DTD/svg11.dtd"><svg class="icon" width="48px" height="48.00px" viewBox="0 0 1024 1024" version="1.1" xmlns="http://www.w3.org/2000/svg"><path d="M724.49 596.43a30.244 30.244 0 0 0-21.51-8.99c-8.08 0-15.83 3.24-21.51 8.99L490.09 787.8a30.47 30.47 0 0 0-8.93 21.52v78.13c0 16.81 13.63 30.44 30.44 30.44h78.13c8.07 0 15.81-3.22 21.52-8.93l191.38-191.38c11.87-11.88 11.87-31.14 0-43.02l-78.14-78.13z m0 0M805.05 635.3l-41.07-41.07c-18.14-18.14-18.14-47.56 0-65.71 18.14-18.14 47.56-18.14 65.71 0l41.07 41.07c18.14 18.14 18.14 47.56 0 65.71-18.15 18.15-47.57 18.15-65.71 0z" fill="#B7D0FF" /><path d="M730.38 106.11H202.72c-44.83 0-81.18 36.35-81.18 81.18v649.43c0 21.53 8.56 42.18 23.78 57.4a81.145 81.145 0 0 0 57.4 23.78h217.36v-94.37a43.452 43.452 0 0 1 12.78-30.85L707.04 518.3a95.231 95.231 0 0 1 50.74-28.82c8.5-1.74 17.27-1.74 25.77 0 16.62-5.42 27.91-20.88 28.01-38.36V187.28c0-44.83-36.35-81.17-81.18-81.17zM237.54 290.29h201.61c13.92 0 25.2 11.28 25.2 25.2s-11.28 25.2-25.2 25.2H237.54c-13.92 0-25.2-11.28-25.2-25.2s11.29-25.2 25.2-25.2z m0 134.41h201.61c13.92 0 25.2 11.28 25.2 25.2s-11.28 25.2-25.2 25.2H237.54c-13.92 0-25.2-11.28-25.2-25.2s11.29-25.2 25.2-25.2z m218.41 184.8H237.54c-13.92 0-25.2-11.28-25.2-25.2s11.28-25.2 25.2-25.2h218.41c13.92 0 25.2 11.28 25.2 25.2s-11.28 25.2-25.2 25.2z" fill="#4B8AFF" /></svg>