<?xml version="1.0" standalone="no"?><!DOCTYPE svg PUBLIC "-//W3C//DTD SVG 1.1//EN" "http://www.w3.org/Graphics/SVG/1.1/DTD/svg11.dtd"><svg class="icon" width="48px" height="48.00px" viewBox="0 0 1024 1024" version="1.1" xmlns="http://www.w3.org/2000/svg"><path d="M660.59 436.89c-67.24 0-121.76-53.84-121.76-120.23 0-64.65 93.8-173.77 121.76-214.59 27.97 40.83 121.76 149.95 121.76 214.59 0 66.4-54.51 120.23-121.76 120.23z" fill="#B7D0FF" /><path d="M454.73 343.59c-48.5 69.89-213.07 258.92-213.07 370.71 0 114.68 95.4 207.63 213.07 207.63 117.68 0 213.07-92.96 213.07-207.63-0.01-111.79-164.57-300.82-213.07-370.71z m0 537.9c-47.05 0-89.71-18.64-120.65-48.78-31.11-30.33-50.35-72.18-50.35-118.41 0-12.63 10.22-22.83 22.83-22.83 12.61 0 22.83 10.2 22.83 22.83 0 33.52 13.92 63.85 36.43 85.76 22.68 22.1 54.1 35.76 88.9 35.76 12.61 0 22.83 10.24 22.83 22.83 0 12.64-10.22 22.84-22.82 22.84zM362.01 333.34c42.25 0 76.5-34.24 76.5-76.52 0-41.13-58.79-110.38-76.5-136.56-17.71 26.18-76.5 95.43-76.5 136.56 0.01 42.28 34.26 76.52 76.5 76.52z" fill="#4B8AFF" /></svg>