<?xml version="1.0" standalone="no"?><!DOCTYPE svg PUBLIC "-//W3C//DTD SVG 1.1//EN" "http://www.w3.org/Graphics/SVG/1.1/DTD/svg11.dtd"><svg class="icon" width="48px" height="48.00px" viewBox="0 0 1024 1024" version="1.1" xmlns="http://www.w3.org/2000/svg"><path d="M734.99 258.81h-23.53v-12.44c23.44-2.44 41.28-22.14 41.39-45.7v-59.41c-0.14-25.49-20.87-46.05-46.36-45.97H315.45c-25.48-0.08-46.22 20.49-46.35 45.97v59.43c0.14 24.77 19.82 45.01 44.57 45.87v12.23h-24.66c-34.71-0.1-62.95 27.91-63.13 62.62v513.97c0.28 53.14 43.53 96.03 96.68 95.87h378.87c53.15 0.16 96.39-42.72 96.68-95.87V321.41c-0.17-34.7-28.42-62.71-63.12-62.6z m-353.88 17.86a27.956 27.956 0 0 1-8.27-19.75c0.03-7.42 3-14.53 8.27-19.75a27.992 27.992 0 0 1 19.82-8.11H624.2c15.39 0 27.86 12.47 27.86 27.86 0 15.39-12.47 27.87-27.86 27.87H400.93c-7.42 0.03-14.55-2.89-19.82-8.12z m389.98 520.8a29.344 29.344 0 0 1-26.33 14.34H528.41a62.877 62.877 0 0 1-63.13-62.6V429.22c0.15-34.72 28.41-62.74 63.13-62.6h199.74a29.357 29.357 0 0 1 26.32 14.35 29.345 29.345 0 0 1 0 29.98 29.368 29.368 0 0 1-26.32 14.35H556.74c-13.46 0.48-32.31 13.75-32.31 36.12v237.37c0 31.93 11.36 54.35 50.53 54.35h169.81a29.384 29.384 0 0 1 26.33 14.35 29.368 29.368 0 0 1-0.01 29.98z" fill="#4B8AFF" /><path d="M700.26 712.49H581.55c-15.21 0-27.54-12.33-27.54-27.54V484.82c0-15.21 12.33-27.54 27.54-27.54h118.71c15.21 0 27.54 12.33 27.54 27.54v200.14c0 15.2-12.33 27.53-27.54 27.53z" fill="#B8D1FF" /></svg>