<?xml version="1.0" standalone="no"?><!DOCTYPE svg PUBLIC "-//W3C//DTD SVG 1.1//EN" "http://www.w3.org/Graphics/SVG/1.1/DTD/svg11.dtd"><svg class="icon" width="48px" height="48.00px" viewBox="0 0 1024 1024" version="1.1" xmlns="http://www.w3.org/2000/svg"><path d="M74.806758 234.442752L482.707153 7.998047a61.075086 61.075086 0 0 1 59.185548 0l407.900395 226.444705c19.395264 10.797363 31.392334 31.192383 31.392334 53.286987v448.890386c0 22.19458-11.99707 42.5896-31.392334 53.286988l-407.900395 226.444705a61.075086 61.075086 0 0 1-59.185548 0l-407.900395-226.444705c-19.395264-10.797363-31.392334-31.192383-31.392334-53.286988v-448.890386c0-22.094605 11.99707-42.489624 31.392334-53.286987z m758.514779 117.271363c-15.696167-25.59375-50.28772-34.191651-77.281129-19.295288L517.398682 465.086431 268.159543 328.219852c-27.093384-14.796387-61.484986-6.098511-77.081177 19.595215-15.596192 25.693726-6.398438 58.485718 20.594971 73.282106l240.441286 135.566896V812.801522c0 9.697632 2.299439 19.295288 6.898316 27.893189 10.997315 20.494995 31.692261 35.091431 55.986329 35.091431s44.989014-14.596436 56.986084-34.89148c5.298706-9.097778 7.998047-19.495239 7.998047-29.992676V559.263434l233.043094-134.067262c26.993408-14.996338 36.091187-47.888306 20.295044-73.482057z" fill="#ffffff" /></svg>