<?xml version="1.0" standalone="no"?><!DOCTYPE svg PUBLIC "-//W3C//DTD SVG 1.1//EN" "http://www.w3.org/Graphics/SVG/1.1/DTD/svg11.dtd"><svg class="icon" width="48px" height="48.00px" viewBox="0 0 1024 1024" version="1.1" xmlns="http://www.w3.org/2000/svg"><path d="M536.35074 1024h-48.6c-56.3 0-102.9-42.3-109.6-96.9-21.6-6.6-42.1-14.5-62.1-24.2-40.4 34.4-105.7 33.7-146.1-3.2l-36.3-33.4c-22-19.3-34.7-46.7-35.7-76.8-0.8-27 8-53 24.8-73.7-10.9-21.3-20-43-27.1-65-25.8-3.7-47.7-15-64.5-32.5-20.9-21.8-32-49.7-31.1-78.6v-47.2c0.9-30.5 13-57.9 33.9-78 17.2-16.5 39.1-26.9 62.7-30 7.7-23.1 17.2-45.1 28.8-66.6-17.1-19.2-26.7-43.1-27.8-68.7-1.2-29.6 9.1-57.9 29-79.5l33.4-36.2c19.3-21.9 46.7-34.7 76.8-35.6 29-0.9 57.4 9.5 79 29.3l6.8 6.5c16.5-7.6 33.6-14.1 51.8-19.7v-3.5C374.45074 49.5 423.95074 0 484.85074 0h47.9c60.9 0 110.5 49.5 110.5 110.4v9.2c15.9 5.8 31.3 12.5 46.6 20.2l16.9-15.6c44.8-41.2 114.8-38.4 155.9 6.3l33.4 36.2c19.8 20.6 30.3 48.8 29.4 79.1-1.9 30.4-14.5 57.5-35.7 76.9l-8.6 8c8.1 15.9 15.1 32.4 21.1 49.4l8.6-0.3c30 0 57.7 11 78.6 31.1 20.9 20 33 47.5 33.9 77.3l0.7 48.7c0.8 29.2-10 57.1-30.4 78.5s-47.7 33.4-76.8 33.8l-9.4 0.3c-5 15.9-11.2 31.9-18.6 48l9.3 10.1c19.8 20.6 30.3 48.8 29.4 79.1-1.8 30.4-14.5 57.5-35.7 76.9l-36.2 33.3c-20.6 19.7-48.8 29.7-79 29.3-28.5-1.7-54-12.9-73.1-31.7-17.8 9.5-36.6 17.8-56.8 25.1-3.2 58-51.5 104.4-110.4 104.4zM306.05074 853.9l15.6 6c25.8 13.6 52.4 23.9 81.4 31.7l15.2 4.1v15.8c0 40.4 31.2 71.5 69.5 71.5h48.6c38.3 0 69.5-31.1 69.5-69.4v-23.5l14-4.7c28.5-9.5 53.9-20.8 77.4-34.5l14.3-8.3 18.4 20.2c12.1 13.2 29.3 21.2 48.5 22.3 18.5 0.5 36.3-5.9 49.2-18.3l36.6-33.6c13.3-12.2 21.3-29.4 22.4-48.5 0.5-18.6-5.9-36.2-18.3-49l-28.8-31 6.4-12.7c11.4-22.8 20.2-45.6 26.1-67.8l3.9-14.8 39.9-1.2c18.4-0.3 35.4-7.8 48.1-21.2 12.8-13.4 19.6-30.8 19-49l-0.7-48.9c-0.6-18.6-8.1-36-21.2-48.5-13.5-12.9-30.6-19.7-49.7-19.7l-38.9 1.2-4.6-15c-7.6-24.7-17.7-48.4-30.2-70.6l-8-14.1 32.2-29.9c13.4-12.2 21.3-29.5 22.5-48.5 0.5-18.5-5.9-36.2-18.3-49.1l-33.6-36.5c-25.8-28-69.8-29.8-98.1-3.9L696.05074 189.8l-12.9-7c-22-12-43.8-21.5-66.8-29l-14.2-4.6v-38.8c0-38.2-31.2-69.4-69.5-69.4h-47.9c-38.3 0-69.5 31.1-69.5 69.4v34.4l-15 4.2c-26.2 7.3-49.9 16.3-72.5 27.6l-12.9 6.4-27.1-25.9c-13.1-12-30.9-19.6-49.8-18.2-18.7 0.6-35.6 8.4-47.6 22l-33.7 36.6c-12.5 13.6-18.9 31.3-18.2 50 0.8 18.5 8.6 35.5 22 47.9l17 14.2-8.9 15c-16.1 27.3-28.3 55.2-37.1 85.3l-4.3 14.7h-15.3c-19.1 0-36.2 6.8-49.7 19.7-13 12.5-20.5 29.8-21.1 48.7v47.2c-0.5 18.4 6.4 35.8 19.7 49.6 12.6 13.1 30 20.7 49 21.2l14.9 0.5 6.3 14.4c8 28 19.6 55.8 34.5 82.7l7 12.6-14.6 16.7c-12.7 13.8-19.4 32-18.9 50.4 0.6 18.6 8.4 35.5 22 47.5l36.6 33.7c27.8 25.5 74.3 22.8 97.8-3.6l10.7-12z" fill="#181818" /><path d="M511.65074 438.1c-42.1 0-76.9 34.1-76.9 76.8 0 42 34.1 76.8 76.9 76.8 42.8 0 76.9-34.8 76.9-76.8s-34.1-76.8-76.9-76.8z" fill="#181818" /><path d="M936.75074 490.2c0-6.5-2.9-13.1-7.3-17.4-5.1-4.4-10.9-6.5-17.4-6.5l-49.3 0.7c-16 0-29-10.1-32.6-25.4-8.7-37-23.9-72.5-44.2-104.4-8.7-13-6.5-30.4 5.1-41.3l39.9-37c5.1-4.3 8-10.1 8-16.7s-2.2-12.3-6.5-17.4L799.05074 188.6c-8.7-10.1-23.9-10.9-34.1-1.5l-45.7 42c-10.9 10.1-27.6 11.6-39.9 3.6-30.5-19.6-63.1-33.3-97.9-42-14.5-3.6-24.7-16.7-24.7-31.9v-48.6c0-13.8-10.9-24.6-24.7-24.6h-48.6c-13.8 0-24.7 10.9-24.7 24.6v44.9c0 15.2-10.9 29-26.1 31.9-36.3 7.2-71.1 20.3-103.7 39.1-12.3 7.2-27.6 5.1-38.4-4.3l-34.1-31.2c-4.4-4.4-10.9-6.5-17.4-6.5-6.5 0.7-12.3 2.9-16.7 8l-33.4 36.2c-8.7 9.4-8.7 24.6 1.5 34.1l24.7 22.5c12.3 10.9 14.5 29.7 5.1 42.8-24.7 35.5-42.1 74.7-51.5 116.7-3.6 15.2-17.4 25.4-32.6 25.4l-25.4-0.7c-7.3 0-13.1 2.2-18.1 7.2-4.4 4.4-6.5 10.1-6.5 16.7l-0.7 48.6c0 13 10.2 24.6 23.9 24.6l27.6 0.7c15.2 0 28.3 10.9 31.2 25.4 8.7 39.9 24.7 77.6 47.2 112.4 8 12.3 6.5 29-3.6 39.9l-21.8 23.9c-4.4 4.3-6.5 10.9-6.5 17.4 0.7 6.5 2.9 12.3 8 16.7l36.3 33.3c9.4 8.7 24.7 8.7 34.1-1.5l18.9-20.3c10.9-11.6 28.3-13.8 41.3-5.8 35.5 21.7 73.3 36.2 113.9 44.2 16 2.9 26.8 15.9 26.8 31.9v28.3c0 13.8 10.9 24.6 24.7 24.6H536.05074c13.8 0 24.7-10.9 24.7-24.6v-33.3c0-15.2 10.2-28.3 24.7-31.9 39.2-9.4 75.4-26.1 108.8-49.3 13.8-9.4 31.9-8 42.8 4.4l26.1 28.3c4.4 5.1 10.2 8 16.7 8s12.3-2.2 17.4-6.5l36.3-33.3c5.1-4.4 8-10.2 8-16.7s-2.2-12.3-6.5-17.4l-34.8-37.7c-10.2-10.1-11.6-26.1-4.4-38.4 18.1-30.4 31.2-64.5 38.4-99.3 2.9-15.2 16-26.1 31.2-26.1l49.3-0.7c5.8 0 12.3-2.2 16.7-6.5 5.1-4.4 7.3-10.9 6.5-17.4l-1.2-48.7zM511.65074 657c-78.3 0-142.2-63.8-142.2-142.1s63.8-142.1 142.2-142.1c78.3 0 142.2 63.8 142.2 142.1S590.05074 657 511.65074 657z" fill="#181818" /></svg>