<?xml version="1.0" standalone="no"?><!DOCTYPE svg PUBLIC "-//W3C//DTD SVG 1.1//EN" "http://www.w3.org/Graphics/SVG/1.1/DTD/svg11.dtd"><svg class="icon" width="48px" height="48.00px" viewBox="0 0 1024 1024" version="1.1" xmlns="http://www.w3.org/2000/svg"><path d="M454.522452 665.440062H559.781335c14.994143 0 27.089418-11.895353 27.089419-26.489652V418.436548H427.333073v220.613823c0 14.494338 12.195236 26.389692 27.189379 26.389691z" fill="#ffffff" /><path d="M663.140961 418.436548v220.613823C663.140961 694.5287 616.759078 739.71105 559.781335 739.71105H454.522452c-56.977743 0-103.359625-45.182351-103.359625-100.76064V418.436548H152.640375v446.125732c0 20.691917 17.293245 37.485357 38.385006 37.485358h648.946505c21.191722 0 38.484967-16.79344 38.484967-37.485358V418.436548H663.140961zM498.905115 97.062085H362.658337c-10.695822 0-20.591956 4.698165-27.18938 12.795002L211.717298 261.19797h215.415853l38.185084-139.045686c3.998438-14.794221 17.893011-25.090199 33.58688-25.090199zM664.640375 107.757907C658.042952 100.960562 648.846544 96.962124 639.150332 96.962124H517.597813c15.294026 0 28.588832 9.596251 33.187037 23.790707l45.18235 140.445139h215.415853L664.640375 107.757907z" fill="#ffffff" /><path d="M1023.300273 328.071847c1.399453-10.295978-1.899258-20.891839-9.396329-28.688794L763.101913 37.185474C740.810621 13.794611 709.122999 0.399844 676.335806 0.399844H311.078485C274.692698 0.399844 240.905896 16.293635 218.314721 43.982819L7.996876 301.382273c-6.197579 7.597032-8.796564 17.293245-7.597032 26.589613-0.199922 1.499414-0.299883 3.09879-0.299883 4.698165v575.275283c0 63.97501 53.379149 116.054666 119.053495 116.054666h785.393205c65.674346 0 119.053495-52.079656 119.053495-116.054666V332.670051c0.099961-1.599375-0.099961-3.09879-0.299883-4.598204zM279.190941 88.065599c8.796564-10.695822 21.891449-16.893401 35.985943-16.893401h365.357282c12.695041 0 24.990238 5.19797 33.686841 14.194456l193.824288 202.720812H115.754783L279.190941 88.065599z m652.844982 814.881687c0 24.590394-20.192112 44.582585-45.082389 44.582585H125.9508c-24.890277 0-45.08239-19.992191-45.082389-44.582585V372.654432h851.167512v530.292854z" fill="#ffffff" /></svg>