<?xml version="1.0" standalone="no"?><!DOCTYPE svg PUBLIC "-//W3C//DTD SVG 1.1//EN" "http://www.w3.org/Graphics/SVG/1.1/DTD/svg11.dtd"><svg class="icon" width="48px" height="48.00px" viewBox="0 0 1024 1024" version="1.1" xmlns="http://www.w3.org/2000/svg"><path d="M395.200985 459.815385h542.64123a19.692308 19.692308 0 0 1 19.696247 19.692307v315.076923a19.692308 19.692308 0 0 1-19.692308 19.692308H395.200985a19.692308 19.692308 0 0 1-19.692308-19.692308v-315.076923a19.692308 19.692308 0 0 1 19.692308-19.692307z" fill="#4F8DFC" /><path d="M925.538462 196.923077c21.752123 0 39.384615 17.632492 39.384615 39.384615v551.384616c0 21.752123-17.632492 39.384615-39.384615 39.384615H98.461538c-21.752123 0-39.384615-17.632492-39.384615-39.384615V236.307692c0-21.752123 17.632492-39.384615 39.384615-39.384615h827.076924z m-47.261539 47.139446H145.723077c-21.752123 0-39.384615 17.632492-39.384615 39.384615V740.548923c0 21.752123 17.632492 39.384615 39.384615 39.384615h732.553846c21.752123 0 39.384615-17.632492 39.384615-39.384615V283.451077c0-21.752123-17.632492-39.384615-39.384615-39.384615z" fill="#000000" /><path d="M94.523077 370.215385h842.830769v47.261538H94.523077zM149.661538 689.230769h370.215385v47.261539H149.661538zM567.138462 689.230769h93.168246v47.261539H567.138462z" fill="#000000" /></svg>