<?xml version="1.0" standalone="no"?><!DOCTYPE svg PUBLIC "-//W3C//DTD SVG 1.1//EN" "http://www.w3.org/Graphics/SVG/1.1/DTD/svg11.dtd"><svg class="icon" width="48px" height="48.00px" viewBox="0 0 1024 1024" version="1.1" xmlns="http://www.w3.org/2000/svg"><path d="M83.022769 590.769231h725.700923a118.153846 118.153846 0 0 1 116.381539 97.673846l24.379077 138.633846h-866.461539v-236.307692z" fill="#4F8DFC" /><path d="M887.689846 118.153846a118.153846 118.153846 0 0 1 109.410462 162.737231L919.04 472.615385a118.153846 118.153846 0 0 0 0.472615 90.269538l75.145847 179.081846A118.153846 118.153846 0 0 1 885.681231 905.846154H157.538462a118.153846 118.153846 0 0 1-118.153847-118.153846V236.307692a118.153846 118.153846 0 0 1 118.153847-118.153846h730.151384z m0 78.769231H157.538462a39.384615 39.384615 0 0 0-39.108924 34.776615L118.153846 236.307692v551.384616a39.384615 39.384615 0 0 0 34.776616 39.108923L157.538462 827.076923h728.142769a39.384615 39.384615 0 0 0 37.848615-50.294154l-1.536-4.332307-75.145846-179.121231a196.923077 196.923077 0 0 1-4.450462-140.721231l3.66277-9.728 78.099692-191.724308a39.384615 39.384615 0 0 0-31.901538-53.956923L887.729231 196.923077z" fill="#181818" /><path d="M264.310154 637.794462a116.224 116.224 0 0 0 66.835692-17.329231c15.596308-11.027692 24.615385-29.026462 24.142769-48.049231a53.563077 53.563077 0 0 0-29.656615-48.443077 354.461538 354.461538 0 0 0-59.352615-22.055385 356.903385 356.903385 0 0 1-39.542154-13.784615 25.6 25.6 0 0 1-15.793231-23.236923 24.024615 24.024615 0 0 1 13.824-23.236923c10.200615-4.489846 21.307077-6.498462 32.413538-5.907692 13.863385-1.496615 27.766154 1.693538 39.581539 9.058461 9.137231 7.640615 15.281231 18.235077 17.368615 29.932308H350.523077a70.419692 70.419692 0 0 0-27.687385-54.350769 103.936 103.936 0 0 0-62.464-16.541539 101.927385 101.927385 0 0 0-60.100923 16.541539c-16.305231 9.924923-25.993846 27.844923-25.324307 46.867692a49.624615 49.624615 0 0 0 26.112 44.898461c16.659692 7.876923 33.988923 14.178462 51.790769 18.904616 19.771077 5.907692 33.201231 10.633846 39.542154 12.996923l3.938461 1.969231a31.901538 31.901538 0 0 1 21.385846 28.356923 24.812308 24.812308 0 0 1-14.651077 22.055384c-12.209231 6.104615-25.875692 8.979692-39.542153 8.27077a70.222769 70.222769 0 0 1-39.542154-9.846154 52.696615 52.696615 0 0 1-18.589539-36.233846h-37.572923c0.039385 24.576 11.579077 47.734154 31.232 62.621538 19.574154 11.972923 42.338462 17.723077 65.260308 16.541539z m147.534769-4.726154v-78.769231l27.254154-26.781539 89.403077 105.55077h49.821538l-113.900307-128.393846 99.24923-96.492308h-47.064615l-104.763077 106.338461v-106.338461h-37.179077v224.886154h37.179077z m270.887385 4.726154a98.737231 98.737231 0 0 0 68.01723-22.843077c17.526154-17.723077 26.584615-42.141538 24.891077-66.953847v-139.815384h-37.139692v140.209231c1.299692 15.202462-3.072 30.326154-12.288 42.535384a60.652308 60.652308 0 0 1-43.480615 13.784616 59.864615 59.864615 0 0 1-43.52-13.784616 60.100923 60.100923 0 0 1-13.430154-43.323077v-139.421538h-37.179077v139.815384a87.236923 87.236923 0 0 0 25.324308 67.347693 98.343385 98.343385 0 0 0 68.804923 22.449231z" fill="#181818" /><path d="M682.732308 647.640615a106.653538 106.653538 0 0 1-75.539693-25.206153 96.256 96.256 0 0 1-28.475077-74.436924v-140.603076l-100.824615 97.673846 122.564923 137.846154h-76.327384l-85.425231-99.643077-16.974769 16.541538v83.101539H364.780308v-70.498462a65.693538 65.693538 0 0 1-27.687385 57.895385c-21.661538 13.784615-47.104 20.519385-72.782769 19.298461a122.958769 122.958769 0 0 1-70.774154-19.298461 86.528 86.528 0 0 1-35.997538-70.892308v-10.24h55.768615v8.270769c0.590769 11.539692 5.907692 22.331077 14.611692 29.932308 10.712615 6.025846 22.961231 8.743385 35.209846 7.876923 11.697231 0.512 23.394462-1.772308 34.028308-6.695385 8.664615-5.12 9.846154-10.24 9.846154-13.784615 0-3.544615 0-11.815385-15.793231-19.692308h-3.544615c-6.340923-2.363077-20.558769-7.089231-39.542154-12.603077a348.396308 348.396308 0 0 1-51.042462-21.267692 59.076923 59.076923 0 0 1-32.019692-53.956923c-0.708923-22.331077 10.633846-43.323077 29.656615-55.138462a113.033846 113.033846 0 0 1 65.654154-18.116923 113.821538 113.821538 0 0 1 68.411077 18.51077c18.865231 14.454154 30.168615 36.588308 30.838154 60.258461v10.633846H305.467077l-1.969231-7.483077a39.345231 39.345231 0 0 0-13.469538-24.418461 54.350769 54.350769 0 0 0-31.625846-7.089231 61.124923 61.124923 0 0 0-27.687385 4.726154 14.178462 14.178462 0 0 0-8.704 14.572308c0 3.938462 0 9.452308 10.24 14.572307 12.130462 5.159385 24.536615 9.531077 37.218461 12.996923a375.059692 375.059692 0 0 1 60.888616 22.843077c21.346462 11.106462 34.619077 33.161846 34.422154 57.107693v-172.898462h56.950154v92.16l91.766153-92.16h122.95877v150.055385c-1.181538 12.996923 2.599385 25.954462 10.67323 36.233846 10.161231 8.388923 23.236923 12.366769 36.391385 11.027692 13.115077 1.181538 26.151385-2.756923 36.391385-11.027692 7.995077-10.318769 11.815385-23.236923 10.633846-36.233846v-150.055385h56.989538v149.661538c1.654154 27.569231-8.585846 54.468923-28.081231 74.043077-21.267692 18.116923-48.797538 27.332923-76.72123 25.6z m-84.243693-229.612307v129.96923c-1.575385 22.291692 6.498462 44.228923 22.134154 60.258462 17.408 14.257231 39.620923 21.267692 62.109539 19.692308a90.820923 90.820923 0 0 0 62.464-20.086154c15.36-16.029538 23.276308-37.769846 21.740307-59.864616v-129.96923h-16.187077v130.363077c1.181538 18.116923-4.608 35.997538-16.226461 50.018461-13.902769 12.209231-32.137846 18.313846-50.609231 16.935385-18.904615 1.851077-37.691077-4.332308-51.830154-16.935385a69.907692 69.907692 0 0 1-16.187077-50.018461v-130.363077h-17.408z m-419.603692 150.843077c1.811692 17.801846 11.145846 33.988923 25.718154 44.504615 17.998769 10.633846 38.793846 15.753846 59.707077 14.572308a105.944615 105.944615 0 0 0 61.321846-15.753846c12.642462-9.058462 19.928615-23.867077 19.377231-39.384616a44.504615 44.504615 0 0 0-24.536616-39.384615 341.385846 341.385846 0 0 0-56.950153-21.267693 337.801846 337.801846 0 0 1-39.542154-14.572307 35.052308 35.052308 0 0 1-20.952616-31.901539 33.476923 33.476923 0 0 1 18.589539-32.295384c11.421538-5.513846 24.064-8.073846 36.785231-7.483077 15.320615-1.142154 30.562462 2.756923 43.480615 11.027692 9.058462 7.168 15.675077 16.935385 18.983385 27.963077H338.707692a59.470769 59.470769 0 0 0-22.921846-36.627692 92.829538 92.829538 0 0 0-55.374769-14.572308 92.829538 92.829538 0 0 0-54.587077 14.572308 43.677538 43.677538 0 0 0-20.952615 39.384615 39.384615 39.384615 0 0 0 21.346461 37.021539 345.796923 345.796923 0 0 0 49.427692 17.723076c19.377231 5.907692 33.634462 10.633846 39.542154 13.39077l4.332308 1.96923a39.384615 39.384615 0 0 1 27.332923 37.415385 35.84 35.84 0 0 1-19.377231 30.72 92.081231 92.081231 0 0 1-44.307692 9.452308 82.116923 82.116923 0 0 1-47.064615-11.421539 57.028923 57.028923 0 0 1-18.983385-35.052307h-18.195692z m355.918769 54.350769h23.355077l-105.984-118.153846 87.000616-87.04h-18.195693l-118.626461 120.516923v-120.516923h-17.801846v205.193846h17.408v-71.68l39.542153-37.021539 93.341539 108.701539z" fill="#181818" /></svg>