<?xml version="1.0" standalone="no"?><!DOCTYPE svg PUBLIC "-//W3C//DTD SVG 1.1//EN" "http://www.w3.org/Graphics/SVG/1.1/DTD/svg11.dtd"><svg class="icon" width="48px" height="48.00px" viewBox="0 0 1024 1024" version="1.1" xmlns="http://www.w3.org/2000/svg"><path d="M312.904011 353.441774 512.434393 544.549324 709.355345 353.441774Z" fill="#4169E1" /><path d="M524.062222 572.043514c-2.716878 2.663666-6.195096 3.967358-9.67229 3.967358l0 0c-0.977257 0.10847-1.630127 1.086751-2.608407 1.086751-3.477194 0-6.955412-1.303692-9.617032-3.9121L290.734082 370.721323l0 284.623409c0 8.368598 6.845918 15.214517 15.214517 15.214517l412.209226 0c8.367575 0 15.159258-6.845918 15.159258-15.214517L733.317083 368.873232 524.062222 572.043514z" fill="#4169E1" /><path d="M511.999488 66.861804c-245.826801 0-445.138196 199.203948-445.138196 445.138196 0 245.826801 199.311395 445.138196 445.138196 445.138196 245.880013 0 445.138196-199.311395 445.138196-445.138196C957.137685 266.065751 757.879502 66.861804 511.999488 66.861804zM761.139755 655.343709c0 23.691585-19.290345 43.036165-42.980907 43.036165L305.948599 698.379874c-23.691585 0-43.036165-19.343557-43.036165-43.036165L262.912433 368.547821c0-23.690562 19.343557-42.926672 43.036165-42.926672l412.209226 0c23.690562 0 42.980907 19.23611 42.980907 42.926672L761.138732 655.343709z" fill="#4169E1" /></svg>