<?xml version="1.0" standalone="no"?><!DOCTYPE svg PUBLIC "-//W3C//DTD SVG 1.1//EN" "http://www.w3.org/Graphics/SVG/1.1/DTD/svg11.dtd"><svg class="icon" width="48px" height="48.00px" viewBox="0 0 1024 1024" version="1.1" xmlns="http://www.w3.org/2000/svg"><path d="M512 0C229.376 0 0 229.376 0 512s229.376 512 512 512 512-229.376 512-512S794.624 0 512 0z m129.024 653.312L508.928 521.216c-4.096-4.096-10.24-4.096-14.336 0s-4.096 10.24 0 14.336l132.096 132.096-50.176 50.176L450.56 592.896c-4.096-4.096-10.24-4.096-14.336 0s-4.096 10.24 0 14.336l124.928 124.928-27.648 27.648c-12.288 12.288-31.744 12.288-43.008 0L332.8 603.136 217.088 486.4c-16.384-16.384-16.384-41.984 0-58.368L337.92 307.2c16.384-16.384 41.984-16.384 58.368 0L512 423.936l179.2 179.2-50.176 50.176z m165.888-166.912l-101.376 101.376L526.336 409.6l101.376-101.376c16.384-16.384 41.984-16.384 58.368 0l120.832 120.832c16.384 16.384 16.384 41.984 0 57.344z" fill="#4169E1" /></svg>