<?xml version="1.0" standalone="no"?><!DOCTYPE svg PUBLIC "-//W3C//DTD SVG 1.1//EN" "http://www.w3.org/Graphics/SVG/1.1/DTD/svg11.dtd"><svg class="icon" width="48px" height="48.00px" viewBox="0 0 1024 1024" version="1.1" xmlns="http://www.w3.org/2000/svg"><path d="M936 320c13.2 0 24-10.8 24-24v-80c0-13.2-10.8-24-24-24h-40V96c0-53-43-96-96-96H160C107 0 64 43 64 96v832c0 53 43 96 96 96h640c53 0 96-43 96-96v-96h40c13.2 0 24-10.8 24-24v-80c0-13.2-10.8-24-24-24h-40v-128h40c13.2 0 24-10.8 24-24v-80c0-13.2-10.8-24-24-24h-40v-128h40z m-456-64c70.6 0 128 57.4 128 128s-57.4 128-128 128-128-57.4-128-128 57.4-128 128-128z m224 473.6c0 21.2-20 38.4-44.8 38.4H300.8C276 768 256 750.8 256 729.6v-38.4c0-63.6 60.2-115.2 134.4-115.2h10c24.6 10.2 51.4 16 79.6 16s55.2-5.8 79.6-16h10c74.2 0 134.4 51.6 134.4 115.2v38.4z" fill="#ffffff" /></svg>