<?xml version="1.0" standalone="no"?><!DOCTYPE svg PUBLIC "-//W3C//DTD SVG 1.1//EN" "http://www.w3.org/Graphics/SVG/1.1/DTD/svg11.dtd"><svg class="icon" width="48px" height="42.67px" viewBox="0 0 1152 1024" version="1.1" xmlns="http://www.w3.org/2000/svg"><path d="M1120 896h-32V192H64v704H32.04c-17.68 0-32 14.32-32 32v64c0 17.68 14.32 32 32 32H352c17.68 0 32-14.32 32-32V640c0-106.04 85.96-192 192-192s192 85.96 192 192l0.04 320v32c0 17.68 14.32 32 32 32H1120c17.68 0 32-14.32 32-32v-64c0-17.68-14.32-32-32-32z m0-896H32C14.32 0 0 14.32 0 32v64c0 17.68 14.32 32 32 32h1088c17.68 0 32-14.32 32-32V32c0-17.68-14.32-32-32-32z" fill="#ffffff" /></svg>