<?xml version="1.0" standalone="no"?><!DOCTYPE svg PUBLIC "-//W3C//DTD SVG 1.1//EN" "http://www.w3.org/Graphics/SVG/1.1/DTD/svg11.dtd"><svg class="icon" width="48px" height="48.00px" viewBox="0 0 1024 1024" version="1.1" xmlns="http://www.w3.org/2000/svg"><path d="M611.776761 346.642269l379.432754 0 0 62.770357-379.432754 0 0 173.321134 307.293687 0 0 277.313815q2.810613 132.098811-144.278134 129.288198l-483.425435 0 0-406.602013 228.596523 0 0-366.31656 91.813358 0 0 130.225069zM382.243367 640.819762l0 284.808783 371.937786 0q80.570906 5.621226 76.823422-71.202196l0-213.606587-448.761208 0zM615.524245 93.6871l398.170174 0 0 66.517841-817.888381 0 0 297.924977q0 232.344007-39.348582 347.57914-32.790485 111.487649-146.151876 218.290942l0-79.634035q27.169259-47.780421 45.906679-93.6871t28.10613-90.876487q7.494968-44.032937 12.179323-113.829826t4.684355-164.42086l0-387.864593 410.349497 0 0-93.6871 103.992681 0 0 93.6871z" fill="#d4237a" /></svg>