<?xml version="1.0" standalone="no"?><!DOCTYPE svg PUBLIC "-//W3C//DTD SVG 1.1//EN" "http://www.w3.org/Graphics/SVG/1.1/DTD/svg11.dtd"><svg class="icon" width="48px" height="14.40px" viewBox="0 0 3413 1024" version="1.1" xmlns="http://www.w3.org/2000/svg"><path d="M283.306667 273.066667c-131.413333 0-238.933333 105.813333-238.933334 238.933333 0 131.413333 105.813333 238.933333 238.933334 238.933333 131.413333 0 238.933333-105.813333 238.933333-238.933333 0-131.413333-107.52-238.933333-238.933333-238.933333z m0-17.066667c141.653333 0 256 114.346667 256 256s-114.346667 256-256 256-256-114.346667-256-256 114.346667-256 256-256z"  /><path d="M283.306667 286.72C158.72 286.72 58.026667 387.413333 58.026667 512c0 20.48 1.706667 39.253333 6.826666 58.026667 35.84-30.72 75.093333-61.44 133.12-90.453334-66.56 39.253333-95.573333 78.506667-124.586666 116.053334l10.24 20.48c32.426667-44.373333 54.613333-92.16 138.24-138.24-73.386667 47.786667-78.506667 95.573333-88.746667 143.36-3.413333 15.36-6.826667 30.72-11.946667 46.08 8.533333 8.533333 17.066667 17.066667 25.6 23.893333 5.12-23.893333 8.533333-46.08 11.946667-69.973333 5.12-47.786667 6.826667-95.573333 83.626667-143.36-64.853333 47.786667-51.2 97.28-30.72 143.36 17.066667 39.253333 35.84 76.8 54.613333 114.346666h15.36c6.826667 0 13.653333 0 20.48-1.706666-20.48-37.546667-42.666667-75.093333-63.146667-114.346667-25.6-47.786667-44.373333-95.573333 25.6-143.36-56.32 47.786667-20.48 97.28 29.013334 143.36 32.426667 29.013333 66.56 56.32 102.4 85.333333 6.826667-3.413333 11.946667-6.826667 18.773333-11.946666-32.426667-23.893333-63.146667-47.786667-93.866667-73.386667-54.613333-46.08-93.866667-95.573333-34.133333-143.36-47.786667 47.786667 8.533333 98.986667 87.04 143.36 23.893333 13.653333 49.493333 27.306667 75.093333 40.96 35.84-39.253333 58.026667-93.866667 58.026667-151.893333 1.706667-121.173333-98.986667-221.866667-223.573333-221.866667z m42.666666 278.186667c11.946667-6.826667 22.186667-13.653333 34.133334-20.48 39.253333-25.6 64.853333-54.613333 22.186666-83.626667 51.2 29.013333 37.546667 58.026667 11.946667 85.333333-11.946667 13.653333-25.6 25.6-39.253333 39.253334-10.24-8.533333-20.48-13.653333-29.013334-20.48z m44.373334 29.013333c10.24-6.826667 20.48-13.653333 30.72-22.186667 35.84-27.306667 58.026667-59.733333 15.36-87.04 51.2 27.306667 39.253333 58.026667 18.773333 87.04-10.24 13.653333-22.186667 25.6-32.426667 39.253334-8.533333-3.413333-15.36-8.533333-23.893333-11.946667-3.413333-3.413333-5.12-5.12-8.533333-5.12z m46.08 22.186667c10.24-6.826667 20.48-15.36 30.72-23.893334 34.133333-27.306667 51.2-59.733333 5.12-87.04 54.613333 27.306667 46.08 58.026667 27.306666 87.04-8.533333 13.653333-18.773333 27.306667-29.013333 40.96-11.946667-5.12-23.893333-10.24-34.133333-17.066666zM139.946667 418.133333l-6.826667 11.946667 3.413333 10.24-13.653333-3.413333-6.826667 6.826666-1.706666-13.653333-10.24-6.826667 11.946666-5.12 3.413334-10.24 8.533333 10.24h11.946667z m264.533333-66.56l-8.533333 10.24 3.413333 11.946667-11.946667-5.12-10.24 6.826667v-13.653334l-8.533333-6.826666 11.946667-3.413334 3.413333-10.24 8.533333 10.24h11.946667z m5.12 61.44l-6.826667 11.946667 3.413334 10.24-13.653334-3.413333-8.533333 6.826666-1.706667-13.653333-6.826666-5.12 11.946666-5.12 3.413334-11.946667 8.533333 10.24h10.24z m-76.8 27.306667l-6.826667 11.946667 3.413334 10.24-13.653334-3.413334-8.533333 6.826667v-11.946667l-10.24-6.826666 11.946667-5.12 3.413333-11.946667 8.533333 10.24h11.946667z m-27.306667-44.373333l-6.826666 11.946666 3.413333 10.24-11.946667-3.413333-8.533333 6.826667v-13.653334l-10.24-6.826666 11.946667-5.12 3.413333-10.24 8.533333 10.24h10.24z m-59.733333-5.12l-8.533333 10.24 1.706666 11.946666-11.946666-5.12-10.24 5.12v-13.653333l-6.826667-6.826667 13.653333-3.413333 5.12-10.24 6.826667 11.946667h10.24z m-44.373333-5.12l-8.533334 10.24 3.413334 11.946666-11.946667-5.12-11.946667 6.826667v-13.653333l-8.533333-6.826667 13.653333-3.413333 5.12-10.24 6.826667 10.24h11.946667z"  /><path d="M257.706667 308.906667H307.2V358.4h-49.493333z"  /><path d="M634.88 401.066667h17.066667l-8.533334-34.133334h54.613334l8.533333 34.133334h10.24V358.4h58.026667v42.666667h10.24l8.533333-34.133334h54.613333l-8.533333 34.133334h17.066667v39.253333h-81.92v66.56H716.8v-66.56h-81.92v-39.253333z m0 105.813333l13.653333-56.32h49.493334l-13.653334 56.32h-49.493333z m0 121.173333l35.84-5.12-10.24-5.12c-3.413333-1.706667-6.826667-1.706667-11.946667-3.413333v-46.08h-13.653333V529.066667h13.653333v-13.653334h51.2v13.653334h90.453334v-13.653334h51.2v13.653334h13.653333v39.253333h-13.653333V614.4c-3.413333 1.706667-8.533333 3.413333-11.946667 5.12l-10.24 5.12c13.653333 1.706667 25.6 3.413333 35.84 5.12V665.6c-22.186667-1.706667-40.96-3.413333-58.026667-6.826667-17.066667-1.706667-34.133333-6.826667-52.906666-10.24-18.773333 5.12-35.84 8.533333-52.906667 10.24-17.066667 1.706667-35.84 5.12-58.026667 6.826667v-37.546667z m66.56-35.84c6.826667 3.413333 15.36 5.12 22.186667 8.533334 6.826667 1.706667 15.36 5.12 22.186666 6.826666 6.826667-1.706667 15.36-5.12 22.186667-6.826666 6.826667-1.706667 15.36-5.12 22.186667-8.533334v-23.893333H699.733333v23.893333z m92.16-141.653333h49.493333l13.653334 56.32h-49.493334l-13.653333-56.32z m215.04-13.653333c0 27.306667-3.413333 51.2-10.24 71.68-6.826667 20.48-17.066667 40.96-29.013333 58.026666 5.12 5.12 11.946667 11.946667 18.773333 17.066667 6.826667 5.12 13.653333 11.946667 20.48 17.066667v63.146666c-13.653333-8.533333-25.6-18.773333-37.546667-27.306666-11.946667-10.24-23.893333-20.48-34.133333-30.72-10.24 10.24-22.186667 20.48-34.133333 30.72s-25.6 18.773333-37.546667 27.306666v-63.146666c6.826667-5.12 13.653333-11.946667 20.48-17.066667 6.826667-5.12 11.946667-11.946667 18.773333-17.066667-10.24-15.36-18.773333-32.426667-25.6-51.2-6.826667-18.773333-10.24-39.253333-11.946666-63.146666h47.786666c1.706667 17.066667 3.413333 30.72 8.533334 42.666666 3.413333 11.946667 10.24 23.893333 15.36 34.133334 8.533333-11.946667 13.653333-25.6 18.773333-39.253334 5.12-15.36 6.826667-32.426667 6.826667-51.2h-97.28l25.6-76.8h59.733333l-11.946667 35.84h69.973334v39.253334zM1353.386667 382.293333c6.826667 0 11.946667 1.706667 18.773333 3.413334 5.12 1.706667 10.24 5.12 15.36 10.24 3.413333 3.413333 6.826667 8.533333 10.24 15.36s3.413333 11.946667 3.413333 18.773333V460.8h-58.026666v-22.186667c0-3.413333-1.706667-6.826667-3.413334-8.533333-1.706667-1.706667-5.12-3.413333-10.24-3.413333H1083.733333v34.133333H1024v-78.506667h157.013333l-10.24-23.893333h64.853334l10.24 23.893333h107.52z m-131.413334 155.306667l34.133334-44.373333h-157.013334v-42.666667h230.4v29.013333l-40.96 58.026667h95.573334V580.266667h-122.88v39.253333c0 6.826667-1.706667 11.946667-3.413334 18.773333-1.706667 5.12-5.12 10.24-10.24 15.36-3.413333 3.413333-8.533333 6.826667-15.36 10.24-5.12 1.706667-11.946667 3.413333-18.773333 3.413334h-102.4l17.066667-37.546667h59.733333c3.413333 0 6.826667-1.706667 8.533333-3.413333 1.706667-1.706667 3.413333-5.12 3.413334-8.533334V580.266667h-165.546667v-42.666667h187.733333zM1450.666667 477.866667h-34.133334l52.906667-117.76h63.146667l-35.84 78.506666h11.946666V665.6H1450.666667V477.866667z m203.093333-119.466667v102.4l117.76-37.546667v47.786667l-117.76 37.546667v107.52c0 1.706667 1.706667 5.12 3.413333 6.826666 1.706667 1.706667 3.413333 3.413333 6.826667 3.413334h124.586667l-15.36 39.253333h-136.533334c-11.946667 0-20.48-3.413333-29.013333-11.946667-8.533333-8.533333-11.946667-17.066667-11.946667-29.013333v-97.28l-68.266666 20.48v-47.786667l68.266666-20.48v-119.466666h58.026667zM1998.506667 426.666667c5.12 0 8.533333 1.706667 13.653333 5.12 5.12 3.413333 6.826667 11.946667 6.826667 23.893333v172.373333c0 5.12-1.706667 10.24-3.413334 13.653334 0 1.706667-1.706667 5.12-3.413333 6.826666l-5.12 5.12c-3.413333 3.413333-8.533333 6.826667-11.946667 8.533334-5.12 1.706667-8.533333 1.706667-13.653333 1.706666h-34.133333l8.533333-27.306666h1.706667c1.706667 0 3.413333 0 5.12-1.706667 1.706667 0 1.706667-1.706667 1.706666-5.12v-34.133333h-20.48V665.6h-47.786666v-69.973333H1877.333333V665.6h-54.613333V426.666667h105.813333l6.826667-20.48h-105.813333l23.893333-47.786667h61.44l-8.533333 17.066667h102.4l-20.48 49.493333h10.24z m-100.693334 29.013333H1877.333333V494.933333h20.48v-39.253333z m0 68.266667H1877.333333v40.96h20.48v-40.96z m66.56-59.733334c0-5.12-3.413333-8.533333-8.533333-8.533333h-10.24V494.933333h20.48v-30.72z m0 59.733334h-20.48v40.96h20.48v-40.96z m232.106667 105.813333h-49.493333V665.6h-58.026667v-35.84h-61.44v-34.133333h61.44v-42.666667h-63.146667l13.653334-51.2h47.786666l-5.12 17.066667h6.826667V494.933333h58.026667v23.893334h49.493333v34.133333h-49.493333v42.666667h49.493333v34.133333z m-170.666667-261.12h170.666667v78.506667c0 3.413333-1.706667 6.826667-3.413333 8.533333l-10.24 15.36-15.36 10.24c-5.12 1.706667-11.946667 3.413333-17.066667 3.413333h-30.72l10.24-29.013333h1.706667c3.413333 0 6.826667-1.706667 10.24-3.413333 1.706667-1.706667 3.413333-5.12 3.413333-10.24v-37.546667h-32.426667l-27.306666 80.213333H2030.933333l27.306667-80.213333h-32.426667v-35.84zM2288.64 663.893333h-58.026667l29.013334-155.306666h58.026666l-29.013333 155.306666zM2261.333333 477.866667l-27.306666-107.52h58.026666l27.306667 107.52h-58.026667z m51.2 187.733333l69.973334-109.226667H2321.066667v-42.666666h81.92v-83.626667h-69.973334v-42.666667h69.973334V358.4h49.493333v29.013333h75.093333c6.826667 0 11.946667 1.706667 17.066667 3.413334 5.12 1.706667 10.24 5.12 15.36 10.24 3.413333 3.413333 6.826667 8.533333 10.24 15.36 1.706667 5.12 3.413333 11.946667 3.413333 18.773333v80.213333h27.306667v42.666667h-71.68l71.68 109.226667H2542.933333l-71.68-109.226667H2440.533333l-71.68 109.226667h-56.32z m141.653334-151.893333h61.44v-71.68c0-3.413333-1.706667-6.826667-3.413334-8.533334-1.706667-1.706667-5.12-3.413333-8.533333-3.413333h-49.493333v83.626667zM2747.733333 438.613333l-8.533333 29.013334h240.64v157.013333c0 5.12-1.706667 10.24-3.413333 15.36-1.706667 5.12-5.12 8.533333-8.533334 11.946667-3.413333 3.413333-8.533333 6.826667-11.946666 8.533333-5.12 1.706667-10.24 3.413333-15.36 3.413333H2833.066667l13.653333-39.253333h63.146667c3.413333 0 6.826667-1.706667 10.24-3.413333 1.706667-3.413333 3.413333-5.12 3.413333-10.24V512h-197.973333l-46.08 151.893333h-58.026667l68.266667-225.28h-68.266667v-44.373333h158.72l-20.48-35.84h63.146667l20.48 35.84h148.48v44.373333H2747.733333zM3063.466667 428.373333h-54.613334v-54.613333h153.6l-5.12-15.36h64.853334l6.826666 15.36h116.053334c13.653333 0 23.893333 3.413333 30.72 8.533333 6.826667 5.12 11.946667 15.36 11.946666 27.306667v18.773333h-54.613333v-8.533333c0-3.413333-1.706667-6.826667-3.413333-10.24-1.706667-1.706667-5.12-3.413333-8.533334-3.413333h-254.293333v22.186666z m257.706666 47.786667c-10.24 13.653333-23.893333 25.6-40.96 35.84 15.36 0 30.72 1.706667 47.786667 1.706667h49.493333v35.84c-37.546667 0-71.68 0-102.4-1.706667-30.72-1.706667-58.026667-3.413333-81.92-6.826667-23.893333 3.413333-49.493333 6.826667-78.506666 6.826667-29.013333 1.706667-61.44 1.706667-97.28 1.706667V512h47.786666c15.36 0 30.72 0 46.08-1.706667l-20.48-15.36c-6.826667-5.12-11.946667-11.946667-17.066666-18.773333h-66.56V443.733333h47.786666c-1.706667-1.706667-1.706667-3.413333-1.706666-5.12 0-1.706667-1.706667-3.413333-1.706667-5.12h56.32c0 1.706667 1.706667 3.413333 1.706667 5.12 0 1.706667 1.706667 3.413333 1.706666 5.12h170.666667l5.12-10.24h56.32c-1.706667 3.413333-3.413333 6.826667-3.413333 10.24h42.666666v32.426667h-61.44z m-151.893333 124.586667h-158.72v-34.133334h158.72v-6.826666h59.733333v6.826666h155.306667v34.133334h-155.306667V665.6h-59.733333v-64.853333z m-155.306667 64.853333l23.893334-54.613333h68.266666l-23.893333 54.613333h-68.266667z m128-189.44c6.826667 5.12 15.36 10.24 25.6 13.653333 10.24 3.413333 18.773333 6.826667 30.72 10.24 10.24-3.413333 22.186667-6.826667 30.72-10.24 10.24-3.413333 18.773333-8.533333 25.6-13.653333h-112.64zM3384.32 665.6h-68.266667l-23.893333-54.613333h68.266667l23.893333 54.613333z"  /></svg>