<?xml version="1.0" standalone="no"?><!DOCTYPE svg PUBLIC "-//W3C//DTD SVG 1.1//EN" "http://www.w3.org/Graphics/SVG/1.1/DTD/svg11.dtd"><svg class="icon" width="48px" height="48.00px" viewBox="0 0 1024 1024" version="1.1" xmlns="http://www.w3.org/2000/svg"><path d="M697.184 689.792a67.648 67.648 0 0 0 61.088-69.664c-1.248-36.032-31.776-64.864-68.416-64.864h-2.464a67.68 67.68 0 0 0-65.952 69.664c1.216 18.016 8.544 33.632 19.52 44.448-41.504 80.48-105.056 139.328-200.32 188.576-64.768 33.6-131.936 45.632-199.136 37.216-54.976-7.2-97.728-31.232-124.608-70.848-39.104-58.88-42.752-122.528-9.76-186.176 23.2-45.632 59.84-79.264 83.072-96.096a639.04 639.04 0 0 1-15.904-61.248C-2.816 606.912 15.488 777.472 69.248 857.952c40.32 60.064 122.176 97.28 212.576 97.28 24.416 0 48.864-2.4 73.28-8.416 156.384-30.016 274.88-121.28 342.08-257.024z m215.008-148.928c-92.832-106.88-229.664-165.76-386.048-165.76h-19.52a67.264 67.264 0 0 0-59.872-36.032h-2.464a67.68 67.68 0 0 0-65.952 69.664c1.216 36.032 31.744 64.864 68.416 64.864h2.432a68.8 68.8 0 0 0 59.84-40.832h22.016c92.832 0 180.8 26.432 260.224 78.08 61.056 39.616 105.056 91.264 129.472 153.728 20.8 50.432 19.52 99.68-2.432 141.728-34.24 63.68-91.616 98.496-167.36 98.496-48.864 0-95.296-14.4-119.744-25.248a720.64 720.64 0 0 1-54.976 43.264C628.8 946.816 682.56 960 733.824 960c117.28 0 204.032-63.68 236.992-127.328 35.424-69.632 32.992-189.76-58.624-291.84zM291.584 710.208c1.248 36.032 31.776 64.864 68.416 64.864h2.464a67.68 67.68 0 0 0 65.952-69.664c-1.216-36.032-31.776-64.864-68.416-64.864h-2.432c-2.432 0-6.112 0-8.544 1.216-50.112-81.696-70.88-170.56-63.52-266.656 4.864-72.064 29.312-134.528 72.064-186.176 35.424-44.416 103.84-66.048 150.272-67.232 129.472-2.4 184.448 156.128 188.128 219.776 15.872 3.616 42.752 12.032 61.088 18.016-14.688-194.56-136.832-295.456-254.112-295.456-109.952 0-211.36 78.08-251.68 193.376-56.192 153.728-19.52 301.44 48.864 417.984-6.08 8.384-9.76 21.6-8.544 34.816z" fill="#764ABC" /></svg>