<?xml version="1.0" standalone="no"?><!DOCTYPE svg PUBLIC "-//W3C//DTD SVG 1.1//EN" "http://www.w3.org/Graphics/SVG/1.1/DTD/svg11.dtd"><svg class="icon" width="48px" height="44.00px" viewBox="0 0 1117 1024" version="1.1" xmlns="http://www.w3.org/2000/svg"><path d="M634.59716 273.079946H340.602996c-33.960708 0-65.829994-13.444855-89.731959-37.844778-23.702782-24.200739-36.749271-56.3688-36.749271-90.528691V38.741101c0-21.412177 17.328924-38.741101 38.741101-38.741101h468.876872c21.412177 0 38.741101 17.328924 38.741101 38.741101V144.606886c0.199183 70.80957-56.3688 128.47306-125.88368 128.47306zM291.70356 77.581793v67.124684c0 27.985217 21.910134 50.791675 48.899436 50.791675h293.994164c26.690527 0 48.50107-22.806458 48.50107-50.791675V77.581793h-391.39467z" fill="#27282A" /><path d="M641.1702 889.352266l-107.060883 9.660377c-26.790119 2.290605-48.899436-20.217078-46.509239-46.509239l9.660377-107.060883c3.884069-44.218635 23.304415-85.349932 54.675744-116.721261l312.617779-312.617778c56.966349-56.667574 148.889321-56.667574 205.955261 0 56.667574 56.966349 56.667574 148.889321 0 205.556895L757.493095 834.676522c-30.972962 30.972962-72.502626 50.393309-116.322895 54.675744z" fill="#4169E1" /><path d="M292.101926 469.275238h273.478311v77.581794H292.101926zM292.101926 625.633923h117.119626v77.581794H292.101926z" fill="#27282A" /><path d="M733.889905 1016.13227H202.170784c-39.139467 0-75.789146-16.233418-103.077222-45.612916-26.491344-28.582766-41.131297-66.327952-41.131298-106.463334v-712.079362c0-40.035791 14.639953-77.880568 41.131298-106.463334C126.381638 16.233418 162.931725 0 202.170784 0h531.719121c79.573624 0 144.308111 68.220191 144.308111 152.07625v712.079362c0 83.856059-64.734487 151.976658-144.308111 151.976658zM202.170784 77.581793c-36.749271 0-66.726318 33.363159-66.726318 74.494457v712.079362c0 41.031706 29.877456 74.494456 66.726318 74.494456h531.719121c36.749271 0 66.726318-33.363159 66.726318-74.494456v-712.079362c0-41.031706-29.877456-74.494456-66.726318-74.494457H202.170784z" fill="#27282A" /></svg>