<?xml version="1.0" standalone="no"?><!DOCTYPE svg PUBLIC "-//W3C//DTD SVG 1.1//EN" "http://www.w3.org/Graphics/SVG/1.1/DTD/svg11.dtd"><svg class="icon" width="48px" height="48.00px" viewBox="0 0 1024 1024" version="1.1" xmlns="http://www.w3.org/2000/svg"><path d="M804.002255 234.296317c0-50.884909-41.385138-92.270047-92.270047-92.270047-28.687425 0-53.706623 13.167999-70.636906 33.390282-16.930284-20.222283-42.32571-33.390282-70.636907-33.390282-51.355194 0-92.740333 41.385138-92.740332 92.270047 0 28.21714 13.638284 52.766051 32.44971 71.107192 3.292 3.762285 129.8929 129.8929 129.8929 129.8929l130.833471-130.833472c19.469826-18.905484 33.108111-41.949481 33.108111-70.16662z" fill="#4169E1" /><path d="M762.240888 1024H306.816253c-52.671994 0-102.146046-20.504455-139.204556-57.657022-37.05851-37.152567-57.468908-86.532562-57.468907-139.016442V196.673464c0-52.671994 20.410398-102.146046 57.468907-139.204556s86.532562-57.468908 139.204556-57.468908h455.424635c52.671994 0 102.146046 20.410398 139.204556 57.468908s57.468908 86.532562 57.468908 139.204556v630.653072c0 52.577937-20.410398 101.957931-57.468908 139.016442-37.05851 37.246624-86.532562 57.657022-139.204556 57.657022zM306.816253 76.656563c-66.122164 0-120.016901 53.80068-120.016901 120.016901v630.653072c0 66.122164 53.80068 120.016901 120.016901 120.016901h455.424635c66.122164 0 120.016901-53.80068 120.016901-120.016901V196.673464c0-66.122164-53.80068-120.016901-120.016901-120.016901H306.816253z" fill="#27282A" /><path d="M251.980945 397.955727H44.584968c-21.162855 0-38.37531-17.118398-38.37531-38.37531s17.118398-38.37531 38.37531-38.37531h207.395977c21.162855 0 38.37531 17.118398 38.37531 38.37531s-17.212455 38.37531-38.37531 38.37531zM251.980945 702.794893H44.584968c-21.162855 0-38.37531-17.118398-38.37531-38.37531s17.118398-38.37531 38.37531-38.37531h207.395977c21.162855 0 38.37531 17.118398 38.37531 38.37531s-17.212455 38.37531-38.37531 38.37531zM743.429462 616.450445H325.533623c-21.162855 0-38.37531-17.118398-38.37531-38.37531s17.118398-38.37531 38.37531-38.37531h417.895839c21.162855 0 38.37531 17.118398 38.37531 38.37531s-17.212455 38.37531-38.37531 38.37531z" fill="#27282A" /><path d="M743.429462 821.96528H325.533623c-21.162855 0-38.37531-17.118398-38.37531-38.37531s17.118398-38.37531 38.37531-38.37531h417.895839c21.162855 0 38.37531 17.118398 38.37531 38.37531S764.592317 821.96528 743.429462 821.96528z" fill="#27282A" /></svg>