<?xml version="1.0" standalone="no"?><!DOCTYPE svg PUBLIC "-//W3C//DTD SVG 1.1//EN" "http://www.w3.org/Graphics/SVG/1.1/DTD/svg11.dtd"><svg class="icon" width="48px" height="48.00px" viewBox="0 0 1024 1024" version="1.1" xmlns="http://www.w3.org/2000/svg"><path d="M179.2 153.6a51.2 51.2 0 0 0-51.2 51.2v128a51.2 51.2 0 0 0 51.2 51.2h128a51.2 51.2 0 0 0 51.2-51.2V204.8a51.2 51.2 0 0 0-51.2-51.2H179.2z m0-102.4h128a153.6 153.6 0 0 1 153.6 153.6v128a153.6 153.6 0 0 1-153.6 153.6H179.2a153.6 153.6 0 0 1-153.6-153.6V204.8a153.6 153.6 0 0 1 153.6-153.6z m0 614.4a51.2 51.2 0 0 0-51.2 51.2v128a51.2 51.2 0 0 0 51.2 51.2h128a51.2 51.2 0 0 0 51.2-51.2V716.8a51.2 51.2 0 0 0-51.2-51.2H179.2z m0-102.4h128a153.6 153.6 0 0 1 153.6 153.6v128a153.6 153.6 0 0 1-153.6 153.6H179.2a153.6 153.6 0 0 1-153.6-153.6V716.8a153.6 153.6 0 0 1 153.6-153.6z m611.84-403.4048a51.2 51.2 0 0 0-72.3968 0L646.144 232.2432a51.2 51.2 0 0 0 0 72.3968l72.448 72.3968a51.2 51.2 0 0 0 72.3968 0l72.3968-72.3968a51.2 51.2 0 0 0 0-72.3968L791.04 159.744z m72.3968-72.3968l72.3968 72.3968a153.6 153.6 0 0 1 0 217.2416l-72.3968 72.3968a153.6 153.6 0 0 1-217.2416 0l-72.3968-72.3968a153.6 153.6 0 0 1 0-217.2416l72.3968-72.3968a153.6 153.6 0 0 1 217.2416 0zM699.7504 896a51.2 51.2 0 0 1 0 102.4A162.1504 162.1504 0 0 1 537.6 836.2496v-110.8992A162.1504 162.1504 0 0 1 699.7504 563.2h110.8992a162.1504 162.1504 0 0 1 162.1504 162.1504v8.448a51.2 51.2 0 0 1-102.4 0v-8.448c0-33.024-26.7264-59.7504-59.7504-59.7504h-110.8992c-33.024 0-59.7504 26.7264-59.7504 59.7504v110.8992c0 33.024 26.7264 59.7504 59.7504 59.7504z" fill="#2c2c2c" /><path d="M791.4496 160a51.2 51.2 0 0 0-72.3968 0l-72.448 72.3968a51.2 51.2 0 0 0 0 72.3968l72.448 72.3968a51.2 51.2 0 0 0 72.3968 0l72.3968-72.3968a51.2 51.2 0 0 0 0-72.3968l-72.3968-72.3968z" fill="#4169E1" /></svg>