<?xml version="1.0" standalone="no"?><!DOCTYPE svg PUBLIC "-//W3C//DTD SVG 1.1//EN" "http://www.w3.org/Graphics/SVG/1.1/DTD/svg11.dtd"><svg class="icon" width="48px" height="48.00px" viewBox="0 0 1024 1024" version="1.1" xmlns="http://www.w3.org/2000/svg"><path d="M685.175738 365.892318h116.148378c42.969915 0 77.465485 34.49557 77.465486 77.465486v464.593515c0 42.969915-34.49557 77.465485-77.465486 77.465486H685.175738c-42.969915 0-77.465485-34.49557-77.465486-77.465486v-464.593515c0.099698-43.069613 34.49557-77.465485 77.465486-77.465486z" fill="#4169E1" /><path d="M783.179048 1024H238.826989c-95.411158 0-173.076039-76.568202-173.07604-170.683283V188.130464c0-94.115081 77.664882-170.683283 173.07604-170.683283h303.481258c89.329569 0 163.804109 67.595366 171.779963 154.831273H783.179048c95.411158 0 173.076039 76.568202 173.076039 170.782981v510.255282c0 94.115081-77.664882 170.683283-173.076039 170.683283z m-544.352059-929.187031c-52.740337 0-95.610554 41.873235-95.610554 93.317495v665.086555c0 51.444261 42.870217 93.317496 95.610554 93.317496h544.352059c52.740337 0 95.610554-41.873235 95.610554-93.317496V342.961737c0-51.444261-42.870217-93.317496-95.610554-93.317496H296.153442v-77.465485h339.970791c-7.577062-44.166293-46.957842-77.465485-93.815986-77.465486H238.826989z" fill="#27282A" /><path d="M298.047707 694.89631h425.910622v77.465485H298.047707zM298.047707 423.916659h425.910622v77.465485H298.047707z" fill="#27282A" /></svg>