<?xml version="1.0" standalone="no"?><!DOCTYPE svg PUBLIC "-//W3C//DTD SVG 1.1//EN" "http://www.w3.org/Graphics/SVG/1.1/DTD/svg11.dtd"><svg class="icon" width="48px" height="48.00px" viewBox="0 0 1024 1024" version="1.1" xmlns="http://www.w3.org/2000/svg"><path d="M482.47077 585.129174c-111.20232 0-201.141147-89.938827-201.141147-201.141147s89.938827-201.141147 201.141147-201.141146 201.141147 89.938827 201.141147 201.141146-89.938827 201.141147-201.141147 201.141147z" fill="#4169E1" /><path d="M403.546815 585.129174H305.466561c-54.499673 0-106.700589-24.424282-147.120382-68.771116-38.504162-42.239641-63.790478-100.37901-71.261435-163.499018L62.947807 152.484146c-5.076419-42.910111 7.66252-86.203349 34.002432-115.895614 20.976148-23.562249 48.56122-36.588532 77.678795-36.588532h84.862407v73.177065h-84.862407c-10.152839 0-18.102703 6.513142-22.98756 11.972687-12.547376 14.07988-18.677392 36.588532-16.091292 58.618277l24.136938 200.374895v0.095781c5.651108 48.178094 24.328501 91.758676 52.679824 122.887663 26.339912 28.926013 59.480311 44.921523 93.099617 44.921523H403.451034c33.619306 0 66.759704-15.899729 93.099616-44.921523 28.351324-31.033205 47.028716-74.709569 52.679824-122.887663v-0.095781l24.136938-200.374895c2.5861-22.029745-3.543915-44.538397-16.091292-58.618277-4.884856-5.459545-12.834721-11.972687-22.98756-11.972687H449.426153v-73.177065h84.862407c29.117576 0 56.702647 13.026284 77.678796 36.588532 26.339912 29.692265 39.078851 72.985502 34.002432 115.895614L621.83285 352.85904c-7.470957 63.215789-32.757272 121.259377-71.261435 163.499018-40.324011 44.346834-92.524928 68.771116-147.0246 68.771116z" fill="#27282A" /><path d="M482.47077 1024c-90.705079 0-164.552614-75.954728-164.552615-169.341689V548.540642h73.177065v306.117669c0 53.06295 40.994481 96.164624 91.471331 96.164624 50.381068 0 91.471331-43.101674 91.471331-96.164624V695.182116c0-44.72996 17.049107-86.969601 47.89075-119.056403 31.224768-32.374146 72.698157-50.285287 116.661865-50.285286 90.705079 0 164.552614 75.954728 164.552614 169.341689v71.644561h-73.177065v-71.644561c0-53.06295-40.994481-96.164624-91.471331-96.164625-49.519035 0-91.471331 44.059489-91.471331 96.164625v159.476195c0 93.386961-73.751754 169.341689-164.552614 169.341689z" fill="#27282A" /><path d="M866.458797 950.822935c-60.533907 0-109.669816-49.23169-109.669816-109.669816s49.23169-109.669816 109.669816-109.669815S976.224394 780.619212 976.224394 841.153119s-49.23169 109.669816-109.765597 109.669816z m0-146.258348c-20.209896 0-36.588532 16.378636-36.588532 36.588532s16.378636 36.588532 36.588532 36.588533 36.588532-16.378636 36.588533-36.588533-16.378636-36.588532-36.588533-36.588532z" fill="#27282A" /></svg>