<?xml version="1.0" standalone="no"?><!DOCTYPE svg PUBLIC "-//W3C//DTD SVG 1.1//EN" "http://www.w3.org/Graphics/SVG/1.1/DTD/svg11.dtd"><svg class="icon" width="48px" height="41.41px" viewBox="0 0 1187 1024" version="1.1" xmlns="http://www.w3.org/2000/svg"><path d="M864.462723 897.365333l-0.677859-0.07692-0.610554 0.302873c-0.1923 0.100958-20.436732 9.465991-62.603418-28.455662-39.753315-35.748657-36.224601-164.455362-34.532357-226.304 0.259606-9.456376 0.485559-17.619531 0.485559-23.369314 0-14.35523-3.99985-25.196169-11.884169-32.215136-11.249577-9.994817-26.157671-8.369878-26.518235-8.316996H613.486573v2.322029l-12.662986 9.057352h-3.249878v4.639249l114.904338-0.014423c0.124995-0.014423 13.533146-1.427831 23.201052 7.18723 6.821859 6.095925 10.288075 15.744601 10.288075 28.715268l-0.009615 5.855549c-0.100958 50.925972-0.432676 205.886498 47.594366 244.336976 31.066141 24.883681 53.872977 28.984488 65.550422 28.984489 4.677709 0 7.567023-0.663437 8.480451-0.903812 14.619643-1.105728 17.25416-2.307606 17.307042-5.134423 0.033653-1.817239 0.081728-4.293108-20.427117-6.610329z"  /><path d="M1072.623174 718.583587l-0.509597-0.168263-0.528826 0.07692c-0.269221 0.048075-27.70569 3.860432-61.564995-0.009615-54.661408-6.244958-95.616601-85.16507-125.519324-142.797521-7.797784-15.028282-14.5283-28.008563-20.657878-38.070685-15.778254-25.931718-32.330516-34.090066-43.431061-36.359212-12.302423-2.519136-20.729991 1.326873-20.879024 1.408601L638.197183 559.978967l0.778817 2.192225-5.581521 13.013935-2.023963 0.711511 1.548019 4.365221 161.54201-57.396882c0.312488-0.13461 30.296939-13.432188 58.608375 33.070873 5.615174 9.244845 11.812056 20.994404 18.984864 34.604469 31.037296 58.911249 73.55493 139.586103 133.663249 140.586066 7.408376 0.11538 14.052357 0.177878 20.023286 0.177878 51.599023 0 52.329765-4.273878 52.762442-6.93724 0.533634-3.196995-3.456601-4.995005-5.879587-5.783436zM589.6317 672.78723l-115.620658-67.127286-16.696488 6.668018 124.452056 76.727888c17.023399 8.34584 10.134235 28.561427 9.759249 29.662347-13.739869 58.48338-61.483268 251.759775-98.727061 283.426855l-1.490329 1.264375 0.999963 1.682629c1.95185 3.288338 4.374836 3.98062 6.062272 3.98062 4.759437 0 13.220657-4.788282 31.657465-46.185765 28.816225-64.699493 65.771568-182.820056 78.415324-235.313277 0.158648-0.379793 15.797484-36.450554-18.811793-54.786404zM289.609315 612.049127H232.29416s-42.464751-4.259455-42.464752 42.445521c0 46.700169-29.239286 186.901634-92.741708 196.656075-59.127587 9.105427-72.771305 10.614986-72.771306 10.614986s-21.225164-3.03354 62.704376-17.287812c63.343775-10.735174 89.16492-159.200751 89.16492-205.905728 0-46.714592 42.459944-42.455136 42.459944-42.455136h57.315155M322.228282 395.610141c-0.221146-0.201915-5.533446-4.836357-14.283118-4.836357-11.331305 0-22.667418 7.456451-33.686234 22.157822l-3.918122 5.264225c-24.301972 32.801653-74.86738 101.053897-144.196508 101.053897-4.509446 0-9.08139-0.298066-13.590835-0.884582l-0.543249-0.076921-0.514404 0.182686c-8.004507 2.783549-10.812094 4.870009-10.350573 7.696826 0.187493 1.153803 0.687474 4.235418 12.643756 4.360413a109.034366 109.034366 0 0 0 18.782949 1.639362c71.160789 0 123.452094-69.72815 143.124432-95.98678 9.956357-13.278347 20.321352-20.297315 29.979643-20.297314 6.908394 0 11.172657 3.639286 11.461108 3.865239l47.748206 31.82092 2.850855-25.652882-45.507906-30.306554z"  /><path d="M265.167925 608.900207c34.864075 68.088789 236.438235 55.877709 420.152488-38.210104 183.733484-94.044545 280.018329-234.318122 245.139831-302.411718-34.85446-68.088789-212.04492-47.031887-395.773596 47.022272-183.714254 94.058967-304.382798 225.515568-269.518723 293.59955z"  /><path d="M450.689803 266.023662C404.792488 322.247512 361.366235 377.158911 334.689352 430.858817a18.556995 18.556995 0 0 0 29.537352 21.566498c45.320413-43.97431 133.379606-88.193803 202.276057-86.059268a18.6243 18.6243 0 0 0 15.350385-7.32184c0.615362-0.807662 63.122629-81.218103 179.873051-104.457615a18.681991 18.681991 0 0 0 5.038272-1.783587c43.18107-22.792413 61.55538-72.521315 64.353353-111.46216 2.701822-37.561089-7.480488-68.559925-27.229747-82.92477-70.016601-50.911549-208.655624 30.575775-353.198272 207.607587z" fill="#FFDBC2" /><path d="M754.284169 24.715418h-0.048075c-43.02723 0.004808-94.438761 22.177052-152.797146 65.901371-53.036469 39.738892-110.144901 96.33292-165.128413 163.676544-46.599211 57.074779-90.698516 112.894798-118.235943 168.315794a37.113991 37.113991 0 0 0 33.219906 53.603756c9.374648 0 18.701221-3.538329 25.845183-10.470761 21.393427-20.768451 52.637446-41.253258 85.703511-56.209427 35.190986-15.917671 70.295437-24.681765 98.832827-24.681765 1.394178 0 2.841239 0.024038 4.321953 0.062497 0.341333 0.009615 0.682667 0.014423 1.028807 0.014423 11.552451 0 22.590498-5.523831 29.628695-14.725409l-0.09615 0.134611c0.139418-0.1923 15.105202-19.422347 43.570479-41.01769a310.805634 310.805634 0 0 1 52.848976-32.340132 302.834779 302.834779 0 0 1 72.362667-24.196207 37.186103 37.186103 0 0 0 10.071737-3.576788c22.725108-11.994742 41.681127-31.64785 54.815249-56.829597 10.917859-20.898254 17.609915-44.99831 19.383887-69.704112 1.355718-18.907944-0.317296-37.267831-4.845972-53.098967-5.749784-20.114629-16.124394-36.070761-29.979643-46.156921l-0.014422-0.004807c-17.057052-12.40338-37.416864-18.696413-60.488113-18.696413z m-0.009615 37.099568h0.350948c13.792751 0.05769 25.984601 3.355643 36.282291 10.18231 0.687474 0.461521 1.379756 0.932657 2.048 1.423023 13.037972 9.475606 20.018479 31.421897 20.004057 56.603643-0.024038 39.282178-17.085897 86.429446-54.872939 106.375813-125.697202 25.018291-191.031286 111.433315-191.031287 111.433314-1.778779-0.048075-3.576789-0.07692-5.374798-0.07692-72.478047-0.004808-161.73431 44.156995-210.386328 91.357146 25.912488-52.151887 68.516657-105.967174 113.745727-161.359324 107.755568-131.96139 218.900432-215.934197 289.210291-215.943813l0.024038 0.004808z" fill="#8B5C29" /><path d="M977.266178 152.061596c-76.886535 9.134272-169.205183 39.753315-259.980619 86.222723h-0.009615l-9.965972 5.10077c-56.5123 28.897953-109.890103 56.190197-151.874103 90.001427a18.537765 18.537765 0 0 0-6.033428 20.100207 18.556995 18.556995 0 0 0 16.581108 12.864901c39.387944 2.302798 65.761953 19.840601 73.607813 35.166949 1.567249 3.05277 2.326836 6.913202 2.326835 11.485145 0 43.320488-68.997408 149.436695-181.887399 214.395794a18.537765 18.537765 0 0 0-8.36507 21.907831 18.56661 18.56661 0 0 0 19.78291 12.59568c82.482479-9.711174 271.201352-83.679549 388.990198-143.999399 144.826291-74.127023 254.745239-172.647362 280.032751-250.985765 8.254498-25.56154 7.432413-48.296263-2.442216-67.579192-20.648263-40.354254-77.742272-57.142085-160.763193-47.277071z" fill="#FFDBC2" /><path d="M1021.557784 130.725859h-0.048075c-41.584977 0.004808-91.804244 8.182385-145.210892 23.657765-54.776789 15.864789-111.116019 38.537014-167.469671 67.386892l-9.946742 5.091155c-57.396883 29.345052-111.611192 57.060357-155.085521 92.078273a37.099568 37.099568 0 0 0 21.100169 65.930216c14.999437 0.874967 29.484469 4.576751 40.796544 10.417878 11.672638 6.023812 15.917671 12.057239 17.167625 14.287924 0.514404 2.326836 0.499981 10.744789-5.153653 25.840376-6.288225 16.802254-17.35031 36.224601-31.984376 56.170967-15.941709 21.729953-35.902498 43.642592-57.694948 63.348582-24.080826 21.773221-50.075042 40.753277-77.237483 56.382498a37.104376 37.104376 0 1 0 22.83568 68.997408c84.443944-9.951549 276.100207-84.881427 395.288038-145.927211 92.659981-47.440526 173.344451-105.842178 227.150122-164.460169 27.82107-30.306554 47.454948-59.603531 58.372807-87.083267 17.042629-42.91185 9.465991-73.70877 0.105766-91.977315V190.858216c-14.061972-27.422047-48.541446-60.132357-132.98539-60.132357z m-0.009615 37.104376h0.197108c49.397183 0.033653 85.193915 12.744714 99.318385 39.089878l0.451906 0.865352c4.023887 7.845859 5.97093 16.53784 5.994967 25.907681 0.230761 71.982873-112.957296 184.478648-275.523305 267.687061-118.63016 60.752526-305.382761 132.990197-382.706779 142.086009 113.457277-65.271587 190.935136-174.868432 190.877446-231.28939-0.004808-7.345878-1.326873-13.792751-4.05754-19.124281-12.34569-24.119286-46.98862-42.767624-89.03031-45.224263 42.916657-34.570817 99.707793-62.848601 158.66231-93.039775 110.947756-56.786329 219.510986-86.96308 295.782159-86.967887a0.067305 0.067305 0 0 0 0.033653 0.009615z" fill="#8B5C29" /><path d="M260.826742 611.626066a99.294347 59.122779 0 1 0 198.588695 0 99.294347 59.122779 0 1 0-198.588695 0Z"  /><path d="M365.361079 556.711217a64.747568 88.107268 21.555 1 0 120.438936 47.575761 64.747568 88.107268 21.555 1 0-120.438936-47.575761Z"  /><path d="M363.894986 571.882366c-17.874329 45.262723-5.408451 92.607099 27.849915 105.731606 33.253559 13.13893 74.708732-12.903362 92.573446-58.151662 17.883944-45.272338 5.413258-92.607099-27.845108-105.726798-33.253559-13.148545-74.703925 12.888939-92.578253 58.146854zM230.861521 502.524394c-17.879136 45.253108-5.408451 92.597484 27.849916 105.717183 33.253559 13.143737 34.652545-29.83061 52.522065-75.069295 17.879136-45.272338 45.469446-75.670235 12.215888-88.804357-33.263174-13.13893-74.71354 12.898554-92.587869 58.156469z" fill="#94193D" /><path d="M386.734723 564.310415a50.026967 64.723531 16.199 1 0 96.081648 27.912481 50.026967 64.723531 16.199 1 0-96.081648-27.912481Z" fill="#FFFFFF" /><path d="M256.904674 486.035782a23.321239 54.579681 32.355 1 0 39.401165 24.961352 23.321239 54.579681 32.355 1 0-39.401165-24.961352Z" fill="#FFFFFF" /><path d="M410.069739 553.658729a30.619042 39.613897 16.199 1 0 58.806844 17.083855 30.619042 39.613897 16.199 1 0-58.806844-17.083855Z" fill="#FFFFFF" /><path d="M356.33277 670.748845s-27.436469 16.432075-33.354516 34.883305c-3.523906 10.994779 17.470498-45.296376-12.124545-45.488676"  /><path d="M330.5597 658.619493s-31.494009-5.028657-33.354517 34.878498c-0.533634 11.518798-3.028732-30.340207-12.124545-45.493484"  /><path d="M594.237296 360.443192c-77.463437 33.580469-147.258892 68.122441-201.742423 98.938592 31.364207-33.042028 112.462122-81.761352 212.525672-125.144338 112.69769-48.863549 213.910235-75.550047 251.625164-68.449352-66.46385 17.105127-160.508394 50.474066-262.408413 94.655098z" fill="#FFFFFF" /><path d="M339.655512 454.71369s15.922479 4.543099 2.273953 43.205108c-13.638911 38.652394-47.757822 81.871925-50.036582 102.332695 0 0 15.922479-63.665878 29.561389-95.510836 13.653333-31.84015 20.48-31.835343 18.20124-50.026967z"  /><path d="M1050.696113 274.302197s-27.287437 75.050066-245.601352 188.757334c0-0.004808 266.071737-252.432826 245.601352-188.757334z" fill="#FFFFFF" /><path d="M733.073427 81.756545s-134.172845 38.662009-284.253746 241.053446c-0.004808 0 368.399624-263.792977 284.253746-241.053446z" fill="#FFFFFF" /><path d="M758.231136 132.245033s-149.3117 19.446385-356.645258 238.577577c0.004808 0 449.896563-248.913728 356.645258-238.577577z" fill="#FFFFFF" /><path d="M954.243005 362.861371s-50.09908 112.769803-450.848451 283.633577c0 0 488.419155-379.317484 450.848451-283.633577z" fill="#FFFFFF" /><path d="M1062.820657 193.194667s-133.413258-12.129352-495.745803 154.633615c0 0 316.853484-197.088751 495.745803-154.633615z" fill="#FFFFFF" /><path d="M1056.042066 195.386892L560.334723 350.164732s391.09108-172.945427 495.707343-154.77784z" fill="#FFFFFF" /><path d="M965.776225 237.116094s-31.042103 119.423399-398.595605 353.31846c0.004808 0 420.065953-453.838723 398.595605-353.31846z" fill="#FFFFFF" /><path d="M356.020282 605.515718c-0.052883-24.335624 6.615136-46.440563 17.48492-62.73322-18.047399 8.355455-30.258479 24.604845-30.224826 43.248375 0.033653 11.874554 5.02385 22.739531 13.316807 31.200751a133.783437 133.783437 0 0 1-0.576901-11.715906z" fill="#FFFFFF" /><path d="M264.413146 489.044131c-8.21123 12.537991-11.937052 29.359474-8.312188 37.58032 3.620056 8.23046 8.783324-2.533559 16.994554-15.066742 8.21123-12.537991 16.374385-22.100131 12.754328-30.325784-3.639286-8.216038-13.225465-4.720977-21.436694 7.812206z" fill="#FFFFFF" /><path d="M395.791622 621.682044a12.711061 16.446498 16.199 1 0 24.412827 7.09212 12.711061 16.446498 16.199 1 0-24.412827-7.09212Z" fill="#FFFFFF" /><path d="M256.282419 548.906521a12.711061 16.446498 16.199 1 0 24.412827 7.09212 12.711061 16.446498 16.199 1 0-24.412827-7.09212Z" fill="#FFFFFF" /><path d="M550.938181 355.761264a18.196432 65.949446 64.435 1 0-118.985503 56.918959 18.196432 65.949446 64.435 1 0 118.985503-56.918959Z" fill="#FFFFFF" /><path d="M405.570616 546.980022a27.287437 113.70246 55.137 1 0 186.590553-129.988319 27.287437 113.70246 55.137 1 0-186.590553 129.988319Z" fill="#FFFFFF" /></svg>