<?xml version="1.0" standalone="no"?><!DOCTYPE svg PUBLIC "-//W3C//DTD SVG 1.1//EN" "http://www.w3.org/Graphics/SVG/1.1/DTD/svg11.dtd"><svg class="icon" width="48px" height="47.08px" viewBox="0 0 1044 1024" version="1.1" xmlns="http://www.w3.org/2000/svg"><path d="M973.852787 955.112353l-911.906956 0.703229v-76.869911l911.906956-0.711454v76.878136z" fill="#D6D6D6" /><path d="M973.852787 955.112353l-911.906956 0.703229v-76.869911l911.906956-0.711454v76.878136z" fill="#FFFFFF" fill-opacity=".14" /><path d="M888.790876 683.760578H167.524755L61.880032 878.871647H973.786988l-84.996112-195.111069z" fill="#F2F2F2" /><path d="M888.790876 683.760578H167.524755L61.880032 878.871647H973.786988l-84.996112-195.111069z" fill="#FFFFFF" fill-opacity=".46" /><path d="M891.550329 32.899598H170.284209l-105.648836 191.356402h911.911069L891.550329 32.899598z" fill="#F7F7F7" /><path d="M111.019695 344.763116h824.361124v514.722442H111.019695z" fill="#DBDBDB" /><path d="M111.019695 344.763116h824.361124v514.722442H111.019695z" fill="#FFFFFF" fill-opacity=".14" /><path d="M191.899245 933.291695h660.944707v56.328225H191.899245z" fill="#D6D6D6" /><path d="M191.899245 933.291695l12.411373-25.032482h628.361768l20.171566 25.032482H191.899245z" fill="#F2F2F2" /><path d="M191.899245 933.291695l12.411373-25.032482h628.361768l20.171566 25.032482H191.899245z" fill="#FFFFFF" fill-opacity=".46" /><path d="M1008.273992 506.053398H32.903711l31.731662-281.797398h911.911069l31.72755 281.797398z" fill="#FFFFFF" /><path d="M1008.273992 506.053398H32.903711l31.731662-281.797398h911.911069l31.72755 281.797398z" fill="#FFFFFF" fill-opacity=".14" /><path d="M473.268948 601.544482h352.181976v188.564048h-352.181976z" fill="#405C75" /><path d="M473.268948 601.832353h352.181976v15.20784h-352.181976z" fill="#405C75" fill-opacity=".17" /><path d="M99.940755 803.675502h843.882924v55.805944H99.940755z" fill="#31C2B1" /><path d="M943.465896 803.675502H99.936643l8.438747-13.571084h826.655871l8.434635 13.571084z" fill="#66D9CB" /><path d="M184.95743 790.104418l-11.913767 13.571084v55.810056h11.913767v-69.38114zM368.849735 790.104418l11.284562 13.571084v55.810056h-11.284562v-69.38114z" fill="#2BAB9C" /><path d="M183.970442 602.227149h183.822393v258.582618H183.970442z" fill="#EBEBEB" /><path d="M185.911518 603.843341h181.881317v-1.616192H183.970442v258.582618h1.941076v-256.966426z" fill="#FFFFFF" /><path d="M212.753478 626.206843v94.096964h126.260434v-94.096964H212.753478z m0 206.22702h126.260434V736.45751H212.753478v95.976353z" fill="#3A4C5C" /><path d="M212.753478 626.206843v94.096964h2.006875v-92.410859h124.253559v-1.686105H212.753478z m0 206.22702h2.006875v-94.319036h124.253559v-1.661429H212.753478v95.980465z"  /><path d="M212.753478 832.433863h125.923213v1.673768h-125.923213z" fill="#FFFFFF" /><path d="M126.227534 506.053398H32.903711l31.731662-281.797398h89.35531l-27.763149 281.797398zM303.428884 506.053398H209.311357l20.628049-281.797398h89.359421l-15.869943 281.797398zM480.634345 506.053398H385.723116l9.520322-281.797398h89.355309l-3.964402 281.797398zM654.660884 506.053398h-95.696707l-1.591518-281.797398h89.363534l7.924691 281.797398zM831.475663 506.053398H734.977028l-12.69102-281.797398h89.347084l19.842571 281.797398zM1008.273992 506.053398h-97.28l-23.811084-281.797398h89.363534l31.72755 281.797398z" fill="#66D9CB" /><path d="M32.903711 506.053398h975.473092v30.983196H32.903711zM65.161767 161.027084h911.384675v63.228916H65.161767z" fill="#56B8AB" /><path d="M126.227534 537.435502h82.738378v-31.382104H126.227534v31.382104z m177.312386 0.349558h82.800064v-32.562377H303.53992v32.562377z m177.094425-0.744353h78.757526v-30.983197h-78.757526v30.983197z m174.581719 0.744353h79.760964v-31.731662h-79.760964v31.731662z m176.259599-31.731662v30.983196h79.793863v-30.983196h-79.793863zM153.990683 224.256h77.240032V161.027084H153.990683v63.228916z m165.826313 0h78.00906V161.027084H319.816996v63.228916z m237.880546-63.228916h-72.51894v63.228916h72.51894V161.027084z m164.592578 0l-74.961734-0.291984V223.964016l74.961734 0.287872V161.027084z m164.740627 0h-75.364755v63.228916h75.364755V161.027084z" fill="#E8E8E8" /><path d="M474.325847 602.218924h351.470522v14.545735h-351.470522z" fill-opacity=".26" /><path d="M111.019695 537.435502h824.361124v39.668691H111.019695z" fill-opacity=".13" /></svg>