<?xml version="1.0" standalone="no"?><!DOCTYPE svg PUBLIC "-//W3C//DTD SVG 1.1//EN" "http://www.w3.org/Graphics/SVG/1.1/DTD/svg11.dtd"><svg class="icon" width="48px" height="48.00px" viewBox="0 0 1024 1024" version="1.1" xmlns="http://www.w3.org/2000/svg"><path d="M478.12168 52.573227h48.57397V987.468327h-48.57397z" fill="#6E6E96" /><path d="M630.239162 993.183864l-127.830497-127.830497-127.826449 127.830497-34.349893-34.345844 162.176342-162.176342 162.176341 162.176342zM504.319241 252.908469L342.142899 90.732128l34.349893-34.349893 127.826449 127.830497 127.830497-127.830497 34.337749 34.349893z" fill="#6E6E96" /><path d="M895.538041 775.588671L85.943544 308.157312l24.286985-42.065058 809.590449 467.435407z" fill="#6E6E96" /><path d="M801.830758 880.698694l-59.361439-221.537781 221.533733-59.357391 12.57661 46.922455-174.619373 46.784828 46.792924 174.615326zM50.982429 444.990185l-12.572562-46.914359 174.623421-46.792925-46.792924-174.611277 46.918407-12.572563 59.365486 221.529685z" fill="#6E6E96" /><path d="M111.210104 775.596766l-24.286985-42.06101L896.521664 266.104398l24.286985 42.056962z" fill="#6E6E96" /><path d="M964.962388 441.877403L743.412464 382.520012l59.365486-221.545876 46.926503 12.57661-46.788876 174.619374 174.615325 46.788876zM212.203483 874.278834l-46.91436-12.572563 46.784829-174.619373-174.615326-46.784829 12.572563-46.922454 221.529685 59.357391z" fill="#6E6E96" /></svg>