<?xml version="1.0" standalone="no"?><!DOCTYPE svg PUBLIC "-//W3C//DTD SVG 1.1//EN" "http://www.w3.org/Graphics/SVG/1.1/DTD/svg11.dtd"><svg class="icon" width="48px" height="42.34px" viewBox="0 0 1161 1024" version="1.1" xmlns="http://www.w3.org/2000/svg"><path d="M121.178309 88.358058S4.683876 171.388894 1.37178 400.837243L0.001257 753.861059a143.676467 143.676467 0 0 0 10.16471 53.678808l97.535535 194.157388-9.022608-683.091376s81.203472-168.688507 22.499415-230.247821z" fill="#ED9500" /><path d="M1126.11411 756.487894v-448.846197a49.453029 49.453029 0 0 0-53.450387-50.366711l-930.013891 94.9087a50.02408 50.02408 0 0 0-43.970938 50.36671v571.051143a49.338819 49.338819 0 0 0 55.391961 50.02408l848.467787-120.263371A146.531723 146.531723 0 0 0 1126.11411 756.487894z" fill="#FFD671" /><path d="M664.704787 207.593537c-21.699943 10.278921-35.862012 27.753086-35.862012 47.511455 0 31.750444 36.775694 57.105114 82.117154 57.105114a108.157086 108.157086 0 0 0 47.511455-10.621551c-96.964484-15.989432-102.560785-61.673523-93.766597-93.995018z" fill="#FFD773" /><path d="M793.077083 255.104992c0-31.750444-36.775694-57.105114-82.117154-57.105115a105.987092 105.987092 0 0 0-45.684091 10.0505c-8.794188 31.750444-3.197886 78.234006 93.766597 94.451859 20.329421-10.964182 34.034648-28.324137 34.034648-47.397244z" fill="#EAA700" /><path d="M1148.042473 458.056568l-19.529949-40.202001-768.292207 103.588677a26.496773 26.496773 0 0 0-21.014682 27.867296l3.426307 221.910474 15.532591 15.07575z" fill="#FFCC5A" /><path d="M396.53917 788.124128L342.631942 776.703105v39.174108c0 9.022608 7.994716 17.017324 19.87258 19.98679l40.544631 9.93629z" fill="#824D3B" /><path d="M369.471346 796.118844v22.842045a24.555199 24.555199 0 0 0 26.268352 26.268353l730.945463-94.9087a25.354671 25.354671 0 0 0 20.900471-25.354671v-27.867295a24.669409 24.669409 0 0 0-26.382562-26.839404l-731.059673 99.705529a25.354671 25.354671 0 0 0-20.672051 26.154143z" fill="#9C6C42" /><path d="M378.950795 550.566853L1142.103541 450.975533a17.931006 17.931006 0 0 1 19.301529 19.187319l-5.25367 198.954218a18.045216 18.045216 0 0 1-15.189961 18.045216l-758.241707 96.165012a17.931006 17.931006 0 0 1-19.187318-18.730477V569.18312a18.273637 18.273637 0 0 1 15.418381-18.616267z" fill="#FFE8A9" /><path d="M1103.272064 236.602935L355.195067 8.867739a202.837366 202.837366 0 0 0-182.736365 33.006756C87.600502 106.860115-7.765039 225.067701 87.600502 393.527788a31.293603 31.293603 0 0 0 30.722552 16.103643l979.466919-108.728138a33.120966 33.120966 0 0 0 5.482091-64.300358z" fill="#FFC82C" /><path d="M41.8022 404.49197c-8.794188 44.541989 15.646801 88.741348 54.59249 98.906058a63.386677 63.386677 0 0 0 33.349386 0 369.127458 369.127458 0 0 1-41.458313-158.523797 79.94716 79.94716 0 0 0-46.483563 59.617739z" fill="#F9C153" /><path d="M182.737622 441.039243c8.794188-44.541989-15.646801-88.741348-54.478279-98.906057a63.500887 63.500887 0 0 0-39.97358 2.741045A369.127458 369.127458 0 0 0 129.744076 502.598557 78.348217 78.348217 0 0 0 182.737622 441.039243z" fill="#EAA813" /><path d="M330.068817 80.934393c-32.207284 15.418381-53.336177 41.344103-53.336177 70.810342 0 47.397245 54.706699 85.771882 122.204945 85.771881a159.89432 159.89432 0 0 0 70.810342-15.875221C325.500408 197.543036 317.048851 128.217428 330.068817 80.934393z" fill="#FFD773" /><path d="M521.25674 151.744735c0-47.397245-54.706699-85.771882-122.319155-85.771882a160.693791 160.693791 0 0 0-68.526137 14.96154c-13.019966 47.283035-4.568409 116.608643 139.679109 140.707002 30.722551-15.989432 51.166182-41.001472 51.166183-69.89666z" fill="#EAA700" /><path d="M699.538906 188.748849c-23.755728 2.055784-42.828836 13.362597-49.338818 31.978864C639.578536 250.650793 665.846889 287.883327 708.104673 303.872759a107.471825 107.471825 0 0 0 48.196717 6.852614c-85.429251-49.567239-75.378751-95.251331-56.762484-121.976524z" fill="#FFD773" /><path d="M804.612316 278.860719c10.393131-29.92308-15.646801-67.155614-58.247216-83.259256a106.329723 106.329723 0 0 0-46.826194-6.852614c-18.616267 26.725193-28.666767 72.409285 57.105114 121.976524 23.070466-2.284205 41.572523-13.705227 47.968296-31.864654z" fill="#EAA700" /></svg>