<?xml version="1.0" standalone="no"?><!DOCTYPE svg PUBLIC "-//W3C//DTD SVG 1.1//EN" "http://www.w3.org/Graphics/SVG/1.1/DTD/svg11.dtd"><svg class="icon" width="48px" height="48.00px" viewBox="0 0 1024 1024" version="1.1" xmlns="http://www.w3.org/2000/svg"><path d="M251.037538 267.602708m-68.292923 0a68.292923 68.292923 0 1 0 136.585847 0 68.292923 68.292923 0 1 0-136.585847 0Z" fill="#ffffff" /><path d="M413.463631 283.986708c27.1872 0 49.230769-22.039631 49.230769-49.23077V81.183508c0-27.191138-22.043569-49.230769-49.230769-49.23077H88.615385c-27.191138 0-49.230769 22.039631-49.23077 49.23077V941.292308c0 27.1872 22.039631 49.230769 49.23077 49.230769h324.848246c27.1872 0 49.230769-22.043569 49.230769-49.230769V371.341785c0-27.191138-22.043569-49.230769-49.230769-49.23077-27.191138 0-49.230769 22.039631-49.230769 49.23077V892.061538H137.846154V130.414277h226.386708v104.341661c0 27.191138 22.039631 49.230769 49.230769 49.23077z" fill="#ffffff" /><path d="M201.806769 494.383262v279.307815c0 27.1872 22.043569 49.230769 49.230769 49.230769s49.230769-22.043569 49.23077-49.230769v-279.307815c0-27.191138-22.043569-49.230769-49.23077-49.23077s-49.230769 22.039631-49.230769 49.23077z" fill="#ffffff" /><path d="M744.408615 267.602708m-68.292923 0a68.292923 68.292923 0 1 0 136.585846 0 68.292923 68.292923 0 1 0-136.585846 0Z" fill="#ffffff" /><path d="M906.830769 683.267938c27.1872 0 49.230769-22.043569 49.230769-49.230769V81.183508c0-27.191138-22.043569-49.230769-49.230769-49.23077h-324.844307c-27.1872 0-49.230769 22.039631-49.23077 49.23077V941.292308c0 27.1872 22.043569 49.230769 49.23077 49.230769h324.844307c27.1872 0 49.230769-22.043569 49.230769-49.230769v-167.601231c0-27.1872-22.043569-49.230769-49.230769-49.230769s-49.230769 22.043569-49.230769 49.230769V892.061538h-226.382769V130.414277h226.382769v503.626831c0 27.1872 22.043569 49.226831 49.230769 49.22683z" fill="#ffffff" /><path d="M695.177846 494.383262v279.307815c0 27.1872 22.043569 49.230769 49.230769 49.230769s49.230769-22.043569 49.23077-49.230769v-279.307815c0-27.191138-22.043569-49.230769-49.23077-49.23077s-49.230769 22.039631-49.230769 49.23077z" fill="#ffffff" /></svg>