<?xml version="1.0" standalone="no"?><!DOCTYPE svg PUBLIC "-//W3C//DTD SVG 1.1//EN" "http://www.w3.org/Graphics/SVG/1.1/DTD/svg11.dtd"><svg class="icon" width="48px" height="48.00px" viewBox="0 0 1024 1024" version="1.1" xmlns="http://www.w3.org/2000/svg"><path d="M884.858092 460.047754H94.893292a49.234708 49.234708 0 0 1-30.987815-87.488985l391.546092-317.156431a49.230769 49.230769 0 0 1 61.648739-0.259938l398.418707 317.156431a49.234708 49.234708 0 0 1-30.660923 87.748923z m-650.972554-98.461539h510.078031l-257.256369-204.788184-252.821662 204.788184zM110.225723 515.509169h98.461539v318.271016h-98.461539z" fill="#ffffff" /><path d="M278.279877 515.509169h98.461538v318.271016h-98.461538z" fill="#ffffff" /><path d="M446.341908 515.509169h98.461538v318.271016h-98.461538z" fill="#ffffff" /><path d="M614.4 515.509169h98.461538v318.271016h-98.461538z" fill="#ffffff" /><path d="M782.454154 515.509169h98.461538v318.271016h-98.461538zM71.68 881.116554h846.765292v98.461538H71.68z" fill="#ffffff" /></svg>