<?xml version="1.0" standalone="no"?><!DOCTYPE svg PUBLIC "-//W3C//DTD SVG 1.1//EN" "http://www.w3.org/Graphics/SVG/1.1/DTD/svg11.dtd"><svg class="icon" width="48px" height="48.00px" viewBox="0 0 1024 1024" version="1.1" xmlns="http://www.w3.org/2000/svg"><path d="M782.493538 705.146092h-138.968615c-27.1872 0-49.230769-22.043569-49.230769-49.230769s22.043569-49.230769 49.230769-49.230769h138.968615c27.1872 0 49.230769 22.043569 49.23077 49.230769s-22.043569 49.230769-49.23077 49.230769zM782.493538 833.634462h-138.968615c-27.1872 0-49.230769-22.043569-49.230769-49.23077s22.043569-49.230769 49.230769-49.230769h138.968615c27.1872 0 49.230769 22.043569 49.23077 49.230769s-22.043569 49.230769-49.23077 49.23077z" fill="#ffffff" /><path d="M223.708554 362.054892h34.595446v34.599385c0 27.1872 22.043569 49.230769 49.230769 49.230769s49.230769-22.043569 49.230769-49.230769v-34.599385h34.603324c27.1872 0 49.230769-22.043569 49.230769-49.230769s-22.043569-49.230769-49.230769-49.230769h-34.603324v-34.599385c0-27.191138-22.043569-49.230769-49.230769-49.230769s-49.230769 22.039631-49.230769 49.230769v34.599385h-34.595446c-27.1872 0-49.230769 22.043569-49.230769 49.230769s22.039631 49.230769 49.230769 49.230769zM647.400369 316.065477l-28.8768 28.8768c-19.227569 19.223631-19.227569 50.396554 0 69.620185a49.073231 49.073231 0 0 0 34.812062 14.422646c12.5952 0 25.198277-4.808862 34.812061-14.418708l28.8768-28.8768 28.880739 28.8768c9.613785 9.613785 22.212923 14.418708 34.812061 14.418708s25.198277-4.808862 34.812062-14.422646c19.227569-19.223631 19.227569-50.396554 0-69.620185l-28.8768-28.8768 28.8768-28.8768c19.227569-19.223631 19.227569-50.396554 0-69.620185-19.219692-19.227569-50.396554-19.223631-69.624123 0l-28.880739 28.8768-28.8768-28.8768c-19.231508-19.227569-50.400492-19.223631-69.624123 0-19.227569 19.223631-19.227569 50.396554 0 69.620185l28.8768 28.8768zM380.636554 663.335385H235.094646c-27.191138 0-49.230769 22.043569-49.230769 49.230769s22.039631 49.230769 49.230769 49.230769h145.541908c27.191138 0 49.230769-22.043569 49.230769-49.230769s-22.039631-49.230769-49.230769-49.230769z" fill="#ffffff" /><path d="M805.415385 51.2h-590.769231C122.348308 51.2 47.261538 126.286769 47.261538 218.584615v590.769231c0 92.297846 75.086769 167.384615 167.384616 167.384616h590.769231c92.297846 0 167.384615-75.086769 167.384615-167.384616v-590.769231c0-92.297846-75.086769-167.384615-167.384615-167.384615zM874.338462 218.584615V464.738462h-315.076924V149.661538h246.153847c38.002215 0 68.923077 30.920862 68.923077 68.923077zM214.646154 149.661538H460.8v315.076924H145.723077V218.584615C145.723077 180.5824 176.643938 149.661538 214.646154 149.661538zM145.723077 809.353846V563.2h315.076923v315.076923H214.646154c-38.002215 0-68.923077-30.920862-68.923077-68.923077zM805.415385 878.276923H559.261538v-315.076923h315.076924v246.153846c0 38.002215-30.920862 68.923077-68.923077 68.923077z" fill="#ffffff" /></svg>