<?xml version="1.0" standalone="no"?><!DOCTYPE svg PUBLIC "-//W3C//DTD SVG 1.1//EN" "http://www.w3.org/Graphics/SVG/1.1/DTD/svg11.dtd"><svg class="icon" width="48px" height="45.26px" viewBox="0 0 1086 1024" version="1.1" xmlns="http://www.w3.org/2000/svg"><path d="M807.33341 194.812086c-130.184231-151.580432-341.186916-151.580432-471.397336 0C270.883242 270.576113 238.317542 369.844535 238.317542 469.112958s32.565699 198.549939 97.644721 274.353249l205.3852 246.802695 265.985947-246.802695c65.092116-75.750933 97.670909-175.03245 97.670909-274.300872s-32.578794-198.589222-97.670909-274.353249z" fill="#FC00FC" /><path d="M822.549069 198.413037c-25.101908-27.026781-47.820641-49.103889-77.47939-66.375363 52.770313 70.041788 73.970099 155.430177 73.970098 240.831661 0 97.998268-34.778648 196.009631-104.270472 270.791581l-242.50774 260.996992 60.600746 75.947348 289.686758-240.609057c69.491824-74.78195 104.283566-172.84569 104.283566-270.791581s-34.791742-195.996537-104.283566-270.791581z" fill="#8304AD" /><path d="M541.347463 1024L241.394719 723.942501a421.337558 421.337558 0 0 1-124.317953-299.978933 30.313468 30.313468 0 0 1 60.613841 0 361.234398 361.234398 0 0 0 106.548892 257.09487l257.107964 257.238907 257.09487-257.199624a363.434252 363.434252 0 0 0 0-514.202833c-121.620513-121.659796-313.845871-141.340635-457.124473-46.720714a30.300373 30.300373 0 0 1-33.416833-50.557364c167.175828-110.385543 391.508582-87.509678 533.412274 54.485675a424.061187 424.061187 0 0 1 0 599.905488zM142.79411 312.085267a30.706299 30.706299 0 0 1-9.820778-1.636796 30.313468 30.313468 0 0 1-18.842799-38.497449 449.883286 449.883286 0 0 1 72.228547-132.645973 30.317396 30.317396 0 0 1 47.624226 37.528466 388.352839 388.352839 0 0 0-62.525619 114.772157 30.313468 30.313468 0 0 1-28.663577 20.479595z" fill="#27233A" /><path d="M86.776393 664.336927H15.163281a15.150187 15.150187 0 1 1 0-30.300373h71.613112a15.150187 15.150187 0 0 1 0 30.300373z" fill="#50FBFF" /><path d="M50.96329 700.15003a15.137092 15.137092 0 0 1-15.150187-15.150187v-71.613112a15.150187 15.150187 0 1 1 30.300373 0v71.613112a15.137092 15.137092 0 0 1-15.150186 15.150187z" fill="#50FBFF" /><path d="M990.798634 774.81413m-26.987497 0a26.987497 26.987497 0 1 0 53.974995 0 26.987497 26.987497 0 1 0-53.974995 0Z" fill="#FE7E00" /><path d="M919.250994 876.662144m-16.040603 0a16.040604 16.040604 0 1 0 32.081207 0 16.040604 16.040604 0 1 0-32.081207 0Z" fill="#FE7E00" /><path d="M1027.855703 597.123523m-58.96395 0a58.96395 58.96395 0 1 0 117.9279 0 58.96395 58.96395 0 1 0-117.9279 0Z" fill="#FEDF1D" /><path d="M541.347463 579.524689c-103.105073 0-186.974516-83.803971-186.974516-186.974515s83.869443-186.948327 186.974516-186.948327 186.974516 83.869443 186.974516 186.935232-83.869443 186.98761-186.974516 186.98761z m0-313.309001a126.34758 126.34758 0 1 0 126.360675 126.321391 126.491619 126.491619 0 0 0-126.360675-126.321391z" fill="#27233A" /></svg>