<?xml version="1.0" standalone="no"?><!DOCTYPE svg PUBLIC "-//W3C//DTD SVG 1.1//EN" "http://www.w3.org/Graphics/SVG/1.1/DTD/svg11.dtd"><svg class="icon" width="48px" height="48.00px" viewBox="0 0 1024 1024" version="1.1" xmlns="http://www.w3.org/2000/svg"><path d="M238.592 530.944h653.824v422.4H238.592zM308.224 302.592h637.44v159.232H308.224z" fill="#FF448A" /><path d="M892.416 973.824H131.584c-11.264 0-20.48-9.216-20.48-20.48v-491.52c0-11.264 9.216-20.48 20.48-20.48h760.832c11.264 0 20.48 9.216 20.48 20.48v491.52c0 11.264-9.216 20.48-20.48 20.48z m-740.352-40.96h719.872v-450.56H152.064v450.56z"  /><path d="M945.664 481.792H78.336c-11.264 0-20.48-9.216-20.48-20.48V244.736c0-11.264 9.216-20.48 20.48-20.48h867.84c11.264 0 20.48 9.216 20.48 20.48v216.576c-0.512 11.264-9.728 20.48-20.992 20.48z m-846.848-40.96h826.88V265.216H98.816v175.616z"  /><path d="M404.48 254.976c-70.656 0-128-46.08-128-102.4s57.344-102.4 128-102.4c70.144 0 122.88 88.064 125.44 92.16 3.584 6.656 3.584 14.336 0 20.992-2.56 3.584-55.296 91.648-125.44 91.648z m0-163.84c-47.104 0-87.04 28.16-87.04 61.44s39.936 61.44 87.04 61.44c33.28 0 66.56-37.888 82.944-61.44-16.384-23.04-49.664-61.44-82.944-61.44z"  /><path d="M619.52 254.976c-70.144 0-122.88-88.064-125.44-92.16-3.584-6.656-3.584-14.336 0-20.992 2.048-3.584 54.784-92.16 125.44-92.16s128 46.08 128 102.4-57.344 102.912-128 102.912z m-82.944-102.4c16.384 23.552 49.664 61.44 82.944 61.44 47.104 0 87.04-28.16 87.04-61.44s-39.936-61.44-87.04-61.44c-33.28 0-66.56 38.4-82.944 61.44z m-24.576 0z"  /></svg>