<?xml version="1.0" standalone="no"?><!DOCTYPE svg PUBLIC "-//W3C//DTD SVG 1.1//EN" "http://www.w3.org/Graphics/SVG/1.1/DTD/svg11.dtd"><svg class="icon" width="48px" height="33.35px" viewBox="0 0 1474 1024" version="1.1" xmlns="http://www.w3.org/2000/svg"><path d="M0 849.92a737.28 174.08 0 1 0 1474.56 0 737.28 174.08 0 1 0-1474.56 0Z" fill="#F0EBEB" /><path d="M525.1072 729.9072c121.07776-20.1728 213.8112-118.784 285.0816-142.5408 71.2704-23.7568 181.43232-12.6976 213.8112-118.784 32.37888-106.0864 120.66816-282.09152 47.5136-356.352-15.19616-15.42144-37.92896-28.89728-64.4096-39.28064-61.3376-24.04352-142.7456-31.49824-196.9152-8.23296-34.93888 15.01184-41.73824 120.40192-71.2704 142.5408-95.0272 71.2704-332.5952 118.784-427.6224 213.8112-95.0272 95.0272-71.2704 356.352 213.8112 308.8384z" fill="#FBE45C" /><path d="M357.41696 671.47776C484.02432 695.64416 583.33184 683.4176 655.36 634.88c108.032-72.82688 105.472-111.2064 195.9936-106.88512 90.5216 4.34176 118.3744 1.78176 131.6864-15.99488 13.312-17.77664-78.76608 83.7632-158.8224 95.70304-80.03584 11.93984 14.2336 13.1072-195.50208 87.08096-139.81696 49.31584-230.25664 41.53344-271.29856-23.30624z" fill="#FBCD44" /><path d="M794.0096 27.07456c-29.75744 12.8-40.79616 32.74752-57.87648 85.54496l-8.704 27.42272c-7.39328 22.69184-12.288 33.85344-13.08672 34.44736-22.15936 16.60928-55.25504 33.1776-107.25376 54.49728l-25.96864 10.4448c-23.83872 9.35936-68.11648 26.56256-70.98368 27.68896l-20.1728 8.00768c-104.7552 42.02496-164.31104 73.66656-207.62624 116.98176-60.53888 60.53888-79.83104 167.7312-44.48256 252.57984 41.86112 100.47488 146.90304 150.1184 293.9904 125.62432 57.28256-9.54368 107.64288-32.41984 170.8032-72.192l17.3056-11.14112c15.52384-10.15808 46.30528-30.4128 55.74656-36.29056 20.29568-12.63616 35.26656-20.39808 47.43168-24.4736l5.4272-1.69984c8.31488-2.47808 17.79712-4.64896 32.41984-7.53664l37.41696-7.29088c86.67136-17.92 138.19904-49.39776 162.83648-123.0848l4.79232-15.13472c2.53952-7.86432 5.50912-16.5888 9.1136-26.8288l19.80416-55.07072c8.6016-24.08448 15.09376-43.06944 20.8896-61.6448l4.56704-15.19616c30.67904-104.89856 30.45376-178.33984-19.70176-229.25312-19.31264-19.59936-46.53056-36.06528-78.6432-48.66048-74.8544-29.34784-165.80608-34.46784-228.0448-7.74144z m198.144 84.00896c22.20032 8.704 39.81312 19.37408 50.176 29.9008 22.7328 23.06048 21.97504 73.78944-2.37568 154.91072l-2.3552 7.70048a1249.64864 1249.64864 0 0 1-13.96736 41.94304L1000.2432 410.8288l-6.71744 19.18976c-3.3792 9.8304-6.18496 18.45248-8.68352 26.624-12.61568 41.32864-38.42048 58.69568-96.8704 71.53664l-18.24768 3.72736-25.6 4.9152c-20.66432 4.096-33.21856 7.168-46.85824 11.71456-17.77664 5.91872-35.92192 15.03232-58.08128 28.4672l-6.7584 4.17792c-12.9024 8.02816-58.7776 38.2976-64.9216 42.25024-58.92096 37.84704-102.52288 58.32704-149.0944 66.08896-111.49312 18.57536-178.5856-13.12768-204.92288-76.30848-22.79424-54.70208-9.87136-126.50496 26.78784-163.16416 34.11968-34.11968 89.64096-62.93504 190.2592-102.87104l91.62752-35.88096 17.01888-6.88128c57.63072-23.6544 95.3344-42.61888 124.33408-64.36864 20.43904-15.31904 28.672-33.01376 43.08992-78.47936l7.94624-25.088c4.13696-12.73856 7.04512-20.48 10.24-27.2384l1.16736-2.37568c0.75776-1.49504 1.47456-2.7648 2.12992-3.85024l1.16736-1.80224-2.8672 1.16736c40.16128-17.26464 109.42464-13.37344 165.7856 8.72448z" fill="#6D3C38" /><path d="M450.56 573.44m-61.44 0a61.44 61.44 0 1 0 122.88 0 61.44 61.44 0 1 0-122.88 0Z" fill="#FBCD44" /><path d="M552.96 327.68a61.44 51.2 90 1 0 102.4 0 61.44 51.2 90 1 0-102.4 0Z" fill="#FBCD44" /><path d="M983.04 368.64m-61.44 0a61.44 61.44 0 1 0 122.88 0 61.44 61.44 0 1 0-122.88 0Z" fill="#FBCD44" /><path d="M794.0096 27.07456c-29.75744 12.8-40.79616 32.74752-57.87648 85.54496l-8.704 27.42272c-7.39328 22.69184-12.288 33.85344-13.08672 34.44736-22.15936 16.60928-55.25504 33.1776-107.25376 54.49728l-25.96864 10.4448c-23.83872 9.35936-68.11648 26.56256-70.98368 27.68896l-20.1728 8.00768c-104.7552 42.02496-164.31104 73.66656-207.62624 116.98176-60.53888 60.53888-79.83104 167.7312-44.48256 252.57984 41.86112 100.47488 146.90304 150.1184 293.9904 125.62432 57.28256-9.54368 107.64288-32.41984 170.8032-72.192l17.3056-11.14112c15.52384-10.15808 46.30528-30.4128 55.74656-36.29056 20.29568-12.63616 35.26656-20.39808 47.43168-24.4736l5.4272-1.69984c8.31488-2.47808 17.79712-4.64896 32.41984-7.53664l37.41696-7.29088c86.67136-17.92 138.19904-49.39776 162.83648-123.0848l4.79232-15.13472c2.53952-7.86432 5.50912-16.5888 9.1136-26.8288l19.80416-55.07072c8.6016-24.08448 15.09376-43.06944 20.8896-61.6448l4.56704-15.19616c30.67904-104.89856 30.45376-178.33984-19.70176-229.25312-19.31264-19.59936-46.53056-36.06528-78.6432-48.66048-74.8544-29.34784-165.80608-34.46784-228.0448-7.74144z m198.144 84.00896c22.20032 8.704 39.81312 19.37408 50.176 29.9008 22.7328 23.06048 21.97504 73.78944-2.37568 154.91072l-2.3552 7.70048a1249.64864 1249.64864 0 0 1-13.96736 41.94304L1000.2432 410.8288l-6.71744 19.18976c-3.3792 9.8304-6.18496 18.45248-8.68352 26.624-12.61568 41.32864-38.42048 58.69568-96.8704 71.53664l-18.24768 3.72736-25.6 4.9152c-20.66432 4.096-33.21856 7.168-46.85824 11.71456-17.77664 5.91872-35.92192 15.03232-58.08128 28.4672l-6.7584 4.17792c-12.9024 8.02816-58.7776 38.2976-64.9216 42.25024-58.92096 37.84704-102.52288 58.32704-149.0944 66.08896-111.49312 18.57536-178.5856-13.12768-204.92288-76.30848-22.79424-54.70208-9.87136-126.50496 26.78784-163.16416 34.11968-34.11968 89.64096-62.93504 190.2592-102.87104l91.62752-35.88096 17.01888-6.88128c57.63072-23.6544 95.3344-42.61888 124.33408-64.36864 20.43904-15.31904 28.672-33.01376 43.08992-78.47936l7.94624-25.088c4.13696-12.73856 7.04512-20.48 10.24-27.2384l1.16736-2.37568c0.75776-1.49504 1.47456-2.7648 2.12992-3.85024l1.16736-1.80224-2.8672 1.16736c40.16128-17.26464 109.42464-13.37344 165.7856 8.72448z" fill="#6D3C38" /><path d="M817.58528 74.477966a142.5408 71.2704 15 1 0 275.36768 73.784548 142.5408 71.2704 15 1 0-275.36768-73.784548Z" fill="#FBCD44" /><path d="M979.02592 22.7328c-85.56544-22.91712-167.1168-6.22592-181.22752 46.44864-14.11072 52.67456 48.16896 107.88864 133.7344 130.80576 85.56544 22.9376 167.09632 6.2464 181.20704-46.42816 14.11072-52.67456-48.14848-107.88864-133.7344-130.82624z m-10.60864 39.56736c66.51904 17.8176 111.0016 57.28256 104.7552 80.65024-6.26688 23.36768-64.512 35.30752-131.05152 17.46944-66.51904-17.8176-111.0016-57.28256-104.7552-80.65024 6.26688-23.3472 64.53248-35.28704 131.05152-17.46944z" fill="#6D3C38" /><path d="M647.9872 852.7872c121.07776-20.1728 213.8112-118.784 285.0816-142.5408 71.2704-23.7568 181.43232-12.6976 213.8112-118.784 32.37888-106.0864 120.66816-282.09152 47.5136-356.352-15.19616-15.42144-37.92896-28.89728-64.4096-39.28064-61.3376-24.04352-142.7456-31.49824-196.9152-8.23296-34.93888 15.01184-41.73824 120.40192-71.2704 142.5408-95.0272 71.2704-332.5952 118.784-427.6224 213.8112-95.0272 95.0272-71.2704 356.352 213.8112 308.8384z" fill="#FBE45C" /><path d="M480.29696 794.35776C606.90432 818.52416 706.21184 806.2976 778.24 757.76c108.032-72.82688 105.472-111.2064 195.9936-106.88512 90.5216 4.34176 118.3744 1.78176 131.6864-15.99488 13.312-17.77664-78.76608 83.7632-158.8224 95.70304-80.03584 11.93984 14.2336 13.1072-195.50208 87.08096-139.81696 49.31584-230.25664 41.53344-271.29856-23.30624z" fill="#FBCD44" /><path d="M916.8896 149.95456c-29.75744 12.8-40.79616 32.74752-57.87648 85.54496l-8.704 27.42272c-7.39328 22.69184-12.288 33.85344-13.08672 34.44736-22.15936 16.60928-55.25504 33.1776-107.25376 54.49728l-25.96864 10.4448c-23.83872 9.35936-68.11648 26.56256-70.98368 27.68896l-20.1728 8.00768c-104.7552 42.02496-164.31104 73.66656-207.62624 116.98176-60.53888 60.53888-79.83104 167.7312-44.48256 252.57984 41.86112 100.47488 146.90304 150.1184 293.9904 125.62432 57.28256-9.54368 107.64288-32.41984 170.8032-72.192l17.3056-11.14112c15.52384-10.15808 46.30528-30.4128 55.74656-36.29056 20.29568-12.63616 35.26656-20.39808 47.43168-24.4736l5.4272-1.69984c8.31488-2.47808 17.79712-4.64896 32.41984-7.53664l37.41696-7.29088c86.67136-17.92 138.19904-49.39776 162.83648-123.0848l4.79232-15.13472c2.53952-7.86432 5.50912-16.5888 9.1136-26.8288l19.80416-55.07072c8.6016-24.08448 15.09376-43.06944 20.8896-61.6448l4.56704-15.19616c30.67904-104.89856 30.45376-178.33984-19.70176-229.25312-19.31264-19.59936-46.53056-36.06528-78.6432-48.66048-74.8544-29.34784-165.80608-34.46784-228.0448-7.74144z m198.144 84.00896c22.20032 8.704 39.81312 19.37408 50.176 29.9008 22.7328 23.06048 21.97504 73.78944-2.37568 154.91072l-2.3552 7.70048a1249.64864 1249.64864 0 0 1-13.96736 41.94304L1123.1232 533.7088l-6.71744 19.18976c-3.3792 9.8304-6.18496 18.45248-8.68352 26.624-12.61568 41.32864-38.42048 58.69568-96.8704 71.53664l-18.24768 3.72736-25.6 4.9152c-20.66432 4.096-33.21856 7.168-46.85824 11.71456-17.77664 5.91872-35.92192 15.03232-58.08128 28.4672l-6.7584 4.17792c-12.9024 8.02816-58.7776 38.2976-64.9216 42.25024-58.92096 37.84704-102.52288 58.32704-149.0944 66.08896-111.49312 18.57536-178.5856-13.12768-204.92288-76.30848-22.79424-54.70208-9.87136-126.50496 26.78784-163.16416 34.11968-34.11968 89.64096-62.93504 190.2592-102.87104l91.62752-35.88096 17.01888-6.88128c57.63072-23.6544 95.3344-42.61888 124.33408-64.36864 20.43904-15.31904 28.672-33.01376 43.08992-78.47936l7.94624-25.088c4.13696-12.73856 7.04512-20.48 10.24-27.2384l1.16736-2.37568c0.75776-1.49504 1.47456-2.7648 2.12992-3.85024l1.16736-1.80224-2.8672 1.16736c40.16128-17.26464 109.42464-13.37344 165.7856 8.72448z" fill="#6D3C38" /><path d="M573.44 696.32m-61.44 0a61.44 61.44 0 1 0 122.88 0 61.44 61.44 0 1 0-122.88 0Z" fill="#FBCD44" /><path d="M675.84 450.56a61.44 51.2 90 1 0 102.4 0 61.44 51.2 90 1 0-102.4 0Z" fill="#FBCD44" /><path d="M1105.92 491.52m-61.44 0a61.44 61.44 0 1 0 122.88 0 61.44 61.44 0 1 0-122.88 0Z" fill="#FBCD44" /><path d="M916.8896 149.95456c-29.75744 12.8-40.79616 32.74752-57.87648 85.54496l-8.704 27.42272c-7.39328 22.69184-12.288 33.85344-13.08672 34.44736-22.15936 16.60928-55.25504 33.1776-107.25376 54.49728l-25.96864 10.4448c-23.83872 9.35936-68.11648 26.56256-70.98368 27.68896l-20.1728 8.00768c-104.7552 42.02496-164.31104 73.66656-207.62624 116.98176-60.53888 60.53888-79.83104 167.7312-44.48256 252.57984 41.86112 100.47488 146.90304 150.1184 293.9904 125.62432 57.28256-9.54368 107.64288-32.41984 170.8032-72.192l17.3056-11.14112c15.52384-10.15808 46.30528-30.4128 55.74656-36.29056 20.29568-12.63616 35.26656-20.39808 47.43168-24.4736l5.4272-1.69984c8.31488-2.47808 17.79712-4.64896 32.41984-7.53664l37.41696-7.29088c86.67136-17.92 138.19904-49.39776 162.83648-123.0848l4.79232-15.13472c2.53952-7.86432 5.50912-16.5888 9.1136-26.8288l19.80416-55.07072c8.6016-24.08448 15.09376-43.06944 20.8896-61.6448l4.56704-15.19616c30.67904-104.89856 30.45376-178.33984-19.70176-229.25312-19.31264-19.59936-46.53056-36.06528-78.6432-48.66048-74.8544-29.34784-165.80608-34.46784-228.0448-7.74144z m198.144 84.00896c22.20032 8.704 39.81312 19.37408 50.176 29.9008 22.7328 23.06048 21.97504 73.78944-2.37568 154.91072l-2.3552 7.70048a1249.64864 1249.64864 0 0 1-13.96736 41.94304L1123.1232 533.7088l-6.71744 19.18976c-3.3792 9.8304-6.18496 18.45248-8.68352 26.624-12.61568 41.32864-38.42048 58.69568-96.8704 71.53664l-18.24768 3.72736-25.6 4.9152c-20.66432 4.096-33.21856 7.168-46.85824 11.71456-17.77664 5.91872-35.92192 15.03232-58.08128 28.4672l-6.7584 4.17792c-12.9024 8.02816-58.7776 38.2976-64.9216 42.25024-58.92096 37.84704-102.52288 58.32704-149.0944 66.08896-111.49312 18.57536-178.5856-13.12768-204.92288-76.30848-22.79424-54.70208-9.87136-126.50496 26.78784-163.16416 34.11968-34.11968 89.64096-62.93504 190.2592-102.87104l91.62752-35.88096 17.01888-6.88128c57.63072-23.6544 95.3344-42.61888 124.33408-64.36864 20.43904-15.31904 28.672-33.01376 43.08992-78.47936l7.94624-25.088c4.13696-12.73856 7.04512-20.48 10.24-27.2384l1.16736-2.37568c0.75776-1.49504 1.47456-2.7648 2.12992-3.85024l1.16736-1.80224-2.8672 1.16736c40.16128-17.26464 109.42464-13.37344 165.7856 8.72448z" fill="#6D3C38" /><path d="M940.46528 197.357966a142.5408 71.2704 15 1 0 275.36768 73.784548 142.5408 71.2704 15 1 0-275.36768-73.784548Z" fill="#FBCD44" /><path d="M1101.90592 145.6128c-85.56544-22.91712-167.1168-6.22592-181.22752 46.44864-14.11072 52.67456 48.16896 107.88864 133.7344 130.80576 85.56544 22.9376 167.09632 6.2464 181.20704-46.42816 14.11072-52.67456-48.14848-107.88864-133.7344-130.82624z m-10.60864 39.56736c66.51904 17.8176 111.0016 57.28256 104.7552 80.65024-6.26688 23.36768-64.512 35.30752-131.05152 17.46944-66.51904-17.8176-111.0016-57.28256-104.7552-80.65024 6.26688-23.3472 64.53248-35.28704 131.05152-17.46944z" fill="#6D3C38" /><path d="M1044.48 368.64m-20.48 0a20.48 20.48 0 1 0 40.96 0 20.48 20.48 0 1 0-40.96 0Z" fill="#FFFFFF" fill-opacity=".8" /></svg>