<?xml version="1.0" standalone="no"?><!DOCTYPE svg PUBLIC "-//W3C//DTD SVG 1.1//EN" "http://www.w3.org/Graphics/SVG/1.1/DTD/svg11.dtd"><svg class="icon" width="48px" height="48.00px" viewBox="0 0 1024 1024" version="1.1" xmlns="http://www.w3.org/2000/svg"><path d="M347.648 157.696c8.0384 332.6976 192.1536 499.0976 552.448 499.0976 1.1264 0.6144 1.1264-115.0976 0-347.136L512 70.0416 347.648 157.696z" fill="#4169E1" /><path d="M808.448 769.9968a51.2 51.2 0 0 1 51.2 88.6784l-216.4224 124.928a256 256 0 0 1-256 0l-216.4224-124.928a256 256 0 0 1-128-221.696V387.0208a256 256 0 0 1 128-221.696L387.2256 40.448a256 256 0 0 1 256 0l216.4224 124.928a256 256 0 0 1 128 221.696v249.9584a51.2 51.2 0 1 1-102.4 0V387.0208a153.6 153.6 0 0 0-76.8-133.0176l-216.4224-124.928a153.6 153.6 0 0 0-153.6 0L222.0032 253.952a153.6 153.6 0 0 0-76.8 133.0176v249.9584a153.6 153.6 0 0 0 76.8 133.0176l216.4224 124.928a153.6 153.6 0 0 0 153.6 0l216.4224-124.928zM331.6224 495.616a51.2 51.2 0 1 1-48.8448-90.0608L578.56 245.2992a51.2 51.2 0 0 1 48.7936 90.0096L331.6224 495.6672z m50.8928 153.7024a51.2 51.2 0 1 1-48.2304-90.2656l231.3216-123.6992a51.2 51.2 0 1 1 48.2816 90.3168L382.464 649.3696z m52.0192 153.1904a51.2 51.2 0 1 1-49.8688-89.4464l325.0176-181.1456a51.2 51.2 0 1 1 49.8688 89.4464l-325.0176 181.1456z" fill="#2c2c2c" /></svg>