<?xml version="1.0" standalone="no"?><!DOCTYPE svg PUBLIC "-//W3C//DTD SVG 1.1//EN" "http://www.w3.org/Graphics/SVG/1.1/DTD/svg11.dtd"><svg class="icon" width="48px" height="48.00px" viewBox="0 0 1024 1024" version="1.1" xmlns="http://www.w3.org/2000/svg"><path d="M858.922 617c7.566 39.052-9.982 87.626-48.44 123.552-52.062 48.634-122.676 55.652-157.718 15.676-30.232-34.488-24.088-92.672 11.588-139.228h-75.266c-7.554 15.938-13.092 32.55-16.33 49.41-9.708 50.548 2.162 99.438 32.572 134.126 30.41 34.69 76.35 51.754 126.042 46.814 43.386-4.31 86.724-24.85 122.032-57.834 35.308-32.984 59.422-75.456 67.9-119.59 3.466-18.046 4.166-35.876 2.27-52.926h-64.65z" fill="#FFD551" /><path d="M908.73 575.8c-30.41-34.69-76.35-51.754-126.04-46.816-43.386 4.314-86.726 24.854-122.034 57.836-35.308 32.984-59.422 75.454-67.898 119.59-9.708 50.548 2.162 99.438 32.572 134.126 30.41 34.69 76.35 51.754 126.042 46.814 43.386-4.31 86.724-24.85 122.032-57.834 35.308-32.984 59.422-75.456 67.9-119.59 9.71-50.55-2.164-99.436-32.574-134.126z m-78.248 204.752c-52.062 48.634-122.676 55.652-157.718 15.676-35.044-39.976-21.246-111.81 30.814-160.444 52.062-48.634 122.676-55.652 157.72-15.676s21.248 111.81-30.816 160.444z" fill="#FFF4C1" /><path d="M783.462 811.544c-41.876 17.878-85.49 13.442-110.698-15.316-35.044-39.976-21.246-111.81 30.814-160.444 52.062-48.634 122.676-55.654 157.72-15.676 5.144 5.868 9.206 12.436 12.278 19.502 6.924-26.946 11.38-55.046 13.126-83.974-28.63-20.932-65.176-30.512-104.012-26.652-43.386 4.312-86.726 24.854-122.034 57.836-35.308 32.984-59.422 75.456-67.898 119.59-9.708 50.548 2.162 99.438 32.572 134.126 18.98 21.652 44.01 36.436 72.226 43.29 31.814-19.296 60.74-43.732 85.906-72.282z" fill="#FCE575" /><path d="M519.446 958.714h-156.456c-38.66 0-70-31.34-70-70V829.24h296.456v59.474c0 38.66-31.34 70-70 70z" fill="#FFDF74" /><path d="M777.556 473.264H109.384c-16.568 0-30 13.432-30 30v24.882c0 223.612 163.008 404.884 364.086 404.884s364.084-181.274 364.084-404.884v-24.882c0.002-16.568-13.43-30-29.998-30z" fill="#FFF4C1" /><path d="M489.27 398.566C726.886 377.142 707.096 194.478 694.946 137.4c-2.052-9.638-14.538-13.644-27.534-8.852-78.524 28.948-322.424 132.376-202.488 262.492 5.246 5.688 14.184 8.442 24.346 7.526z" fill="#CCC033" /><path d="M697.76 152.65a290.52 290.52 0 0 0-2.814-15.25c-2.052-9.638-14.538-13.644-27.534-8.852-35.672 13.15-105.47 41.672-159.786 81.082-0.984 0.712-1.962 1.432-2.936 2.152l-0.394 0.292a361.8 361.8 0 0 0-2.528 1.896l-0.542 0.412c-0.784 0.594-1.562 1.192-2.338 1.792l-0.65 0.504c-0.742 0.576-1.478 1.154-2.212 1.734l-0.672 0.534a321.15 321.15 0 0 0-5.028 4.084l-0.568 0.47c-0.77 0.642-1.534 1.288-2.292 1.934l-0.436 0.37c-0.876 0.748-1.744 1.5-2.604 2.254l-0.06 0.052a260.312 260.312 0 0 0-7.908 7.226l-0.31 0.3c-0.722 0.692-1.44 1.386-2.15 2.082l-0.546 0.54c-0.628 0.622-1.254 1.246-1.872 1.87l-0.642 0.656c-0.576 0.588-1.15 1.178-1.716 1.77l-0.692 0.728c-0.546 0.576-1.086 1.152-1.622 1.73l-0.702 0.76c-0.528 0.576-1.052 1.154-1.57 1.734l-0.672 0.75c-0.526 0.592-1.044 1.188-1.558 1.784l-0.622 0.722c-0.536 0.626-1.062 1.254-1.586 1.884-0.174 0.208-0.352 0.418-0.524 0.628-0.6 0.728-1.19 1.46-1.774 2.194l-0.26 0.324a159.076 159.076 0 0 0-5.802 7.8l-0.416 0.61c-0.454 0.658-0.902 1.318-1.342 1.98-0.176 0.264-0.346 0.53-0.52 0.796-0.396 0.604-0.786 1.21-1.17 1.818-0.186 0.294-0.368 0.59-0.552 0.886a123.274 123.274 0 0 0-2.608 4.4l-0.544 0.97a130.098 130.098 0 0 0-1.442 2.682 112.12 112.12 0 0 0-0.894 1.762c-0.154 0.31-0.312 0.62-0.462 0.93-0.3 0.616-0.59 1.234-0.876 1.854-0.132 0.286-0.268 0.57-0.398 0.856-0.314 0.692-0.614 1.386-0.912 2.08l-0.276 0.636a99.808 99.808 0 0 0-2.138 5.546c-0.062 0.176-0.118 0.352-0.178 0.53-0.256 0.742-0.506 1.486-0.742 2.232-0.092 0.292-0.176 0.584-0.266 0.876-0.194 0.634-0.386 1.268-0.564 1.906-0.094 0.336-0.182 0.674-0.274 1.012-0.16 0.592-0.318 1.186-0.464 1.782-0.09 0.364-0.174 0.73-0.26 1.094-0.134 0.572-0.264 1.146-0.386 1.72-0.08 0.376-0.156 0.754-0.232 1.132a82.384 82.384 0 0 0-1.13 7.46c-0.04 0.376-0.082 0.75-0.116 1.126a78.72 78.72 0 0 0-0.14 1.83c-0.024 0.35-0.052 0.7-0.072 1.05-0.038 0.678-0.06 1.358-0.08 2.038-0.008 0.284-0.024 0.568-0.03 0.852a80.52 80.52 0 0 0 0.102 5.848c0.014 0.272 0.04 0.546 0.058 0.82 0.046 0.702 0.094 1.406 0.158 2.11 0.032 0.362 0.076 0.724 0.114 1.084 0.066 0.62 0.132 1.242 0.21 1.864 0.05 0.396 0.11 0.792 0.168 1.188 0.084 0.59 0.172 1.182 0.27 1.774 0.068 0.414 0.144 0.828 0.22 1.244a88.544 88.544 0 0 0 0.602 3.008 93.406 93.406 0 0 0 0.716 3.01c0.15 0.58 0.308 1.162 0.472 1.744a78.276 78.276 0 0 0 0.914 3.048c0.134 0.418 0.264 0.836 0.404 1.256 0.206 0.614 0.426 1.23 0.646 1.844 0.142 0.396 0.278 0.792 0.426 1.188 0.256 0.684 0.528 1.368 0.802 2.054 0.132 0.33 0.256 0.66 0.392 0.99a104.66 104.66 0 0 0 1.318 3.058c0.462 1.022 0.948 2.046 1.452 3.072 0.162 0.33 0.338 0.66 0.504 0.99 0.352 0.696 0.704 1.394 1.074 2.092 0.212 0.4 0.438 0.802 0.658 1.204 0.346 0.632 0.692 1.264 1.054 1.896 0.246 0.428 0.502 0.86 0.754 1.29 0.356 0.604 0.714 1.21 1.086 1.816 0.274 0.448 0.556 0.896 0.838 1.344a139.77 139.77 0 0 0 2.044 3.148 148.802 148.802 0 0 0 2.174 3.148c0.428 0.6 0.866 1.202 1.308 1.804 0.332 0.45 0.662 0.9 1.002 1.352 0.46 0.612 0.936 1.224 1.412 1.838 0.344 0.444 0.686 0.886 1.038 1.33 0.508 0.638 1.032 1.278 1.556 1.916 0.342 0.418 0.678 0.834 1.028 1.252 0.594 0.708 1.208 1.42 1.822 2.13 0.302 0.35 0.596 0.7 0.904 1.05 0.934 1.062 1.888 2.126 2.87 3.192 0.464 0.504 0.97 0.974 1.494 1.428 0.236 0.206 0.486 0.398 0.732 0.594 0.274 0.214 0.552 0.424 0.838 0.626 0.34 0.242 0.684 0.482 1.042 0.708 0.158 0.098 0.324 0.188 0.484 0.284 1.106 0.66 2.266 1.266 3.512 1.772a533.4 533.4 0 0 0 16.51 1.414c2.518 0.176 4.948 0.12 7.306-0.072 0.768-0.082 1.558-0.152 2.322-0.238 7.988-1.076 14.764-4.256 19.182-9.25 50.32-56.896 44.454-108.504 11.964-152.774 54.304-39.386 124.054-67.896 159.712-81.042a32.696 32.696 0 0 1 7.738-1.834z" fill="#99AF17" /><path d="M447.044 405.616C166.758 358.642 206.812 143.476 226.414 76.784c3.31-11.262 18.502-14.888 33.506-8.02C350.564 110.26 630.882 255.2 476.642 398.88c-6.744 6.284-17.61 8.744-29.598 6.736z" fill="#EACF32" /><path d="M278.12 77.316a1031.71 1031.71 0 0 0-18.202-8.552c-15.002-6.868-30.196-3.242-33.506 8.02-19.602 66.692-59.656 281.858 220.632 328.83 11.986 2.008 22.852-0.452 29.598-6.736 6.44-5.998 12.104-11.998 17.074-17.994C251.846 335.16 260 159.618 278.12 77.316z" fill="#CCC033" /><path d="M543.47 913.032c-201.078 0-364.086-181.274-364.086-404.884v-24.882c0-3.512 0.634-6.868 1.744-10H109.384c-16.568 0-30 13.43-30 30v24.882c0 223.612 163.008 404.884 364.086 404.884 39.882 0 78.258-7.156 114.17-20.334-4.702 0.2-9.422 0.334-14.17 0.334z" fill="#FCE575" /><path d="M443.47 883.032c-173.188 0-314.086-159.202-314.086-354.886a4.88 4.88 0 0 1 4.88-4.88h618.41a4.88 4.88 0 0 1 4.88 4.88c0 195.684-140.896 354.886-314.084 354.886z" fill="#CCC033" /><path d="M129.384 528.144c0 178.134 116.762 326.012 268.346 351.112-124.604-60.602-212.8-196.51-218.068-355.992H134.264a4.88 4.88 0 0 0-4.88 4.88z" fill="#99AF17" /><path d="M574.004 818.336a12.002 12.002 0 0 1-4.62-23.08c104.166-43.402 119.88-192.586 120.026-194.088a11.99 11.99 0 0 1 13.11-10.778 12 12 0 0 1 10.778 13.11c-0.164 1.674-4.212 41.54-22.46 87.742-24.558 62.184-63.366 105.812-112.222 126.168a11.988 11.988 0 0 1-4.612 0.926z" fill="#EACF32" /><path d="M478.004 368.334a11.966 11.966 0 0 1-8.99-4.046l-80.27-90.666a12 12 0 0 1 17.968-15.908l80.27 90.666a11.998 11.998 0 0 1-8.978 19.954z" fill="#FCDA4F" /><path d="M318.512 744.902m-30 0a30 30 0 1 0 60 0 30 30 0 1 0-60 0Z" fill="#99AF17" /><path d="M397.73 806.516m-30 0a30 30 0 1 0 60 0 30 30 0 1 0-60 0Z" fill="#99AF17" /></svg>