<?xml version="1.0" standalone="no"?><!DOCTYPE svg PUBLIC "-//W3C//DTD SVG 1.1//EN" "http://www.w3.org/Graphics/SVG/1.1/DTD/svg11.dtd"><svg class="icon" width="48px" height="40.32px" viewBox="0 0 1219 1024" version="1.1" xmlns="http://www.w3.org/2000/svg"><path d="M0.305672 813.545075a609.356418 209.690746 0 1 0 1218.712835 0 609.356418 209.690746 0 1 0-1218.712835 0Z" fill="#51150B" /><path d="M505.580896 466.454925m-465.385075 0a465.385075 465.385075 0 1 0 930.770149 0 465.385075 465.385075 0 1 0-930.770149 0Z" fill="#D64747" /><path d="M948.957612 367.264478c-0.305672-4.73791-0.764179-9.475821-1.222687-14.366568-1.986866-19.868657-5.196418-39.278806-9.475821-58.230447C863.675224 106.373731 671.10209-17.881791 459.424478 3.209552c-255.235821 25.370746-443.682388 256.917015-416.783284 512 7.030448 66.330746 27.663284 127.923582 58.841791 182.333135 0.305672 0.305672 0.458507 0.611343 0.764179 0.917014 48.907463 60.828657 119.517612 100.56597 196.852537 111.57015 43.252537 6.113433 87.574925 7.183284 132.355821 2.751045 243.008955-23.995224 437.721791-203.730149 517.50209-445.516418z" fill="#E04F4F" /><path d="M445.05791 742.170746C674.00597 697.389851 847.780299 546.846567 928.630448 380.255522c12.838209-26.440597 16.353433-56.396418 9.934328-84.976716l-0.152836-0.458507C863.980896 106.985075 672.17194-17.117612 461.105672 3.209552 205.258507 27.816119 18.340299 253.707463 42.182687 509.707463c0.458507 4.585075 0.917015 9.170149 1.528358 13.755224 13.143881 106.679403 99.954627 188.446567 203.271642 217.791044 57.77194 16.353433 148.556418 10.545672 198.075223 0.917015z" fill="#E55C5C" /><path d="M455.756418 548.680597C440.167164 743.546269 582.915821 918.390448 768.764179 938.717612c193.490149 21.091343 373.683582-138.927761 389.272836-333.640597 15.589254-194.712836-128.993433-365.124776-322.94209-380.71403-193.948657-15.589254-363.749254 129.604776-379.338507 324.317612z" fill="#662424" /><path d="M290.999403 120.587463c-48.907463 29.344478-86.65791 95.980896-100.260299 82.98985-4.890746-3.209552-2.751045-21.397015 45.545075-67.706268 24.14806-22.619701 55.93791-41.265672 80.697314-49.36597 25.065075-8.711642 42.946866-6.57194 45.239403-1.681194 4.279403 10.392836-22.31403 7.030448-71.221493 35.763582z" fill="#F9F7F7" /><path d="M798.35374 911.349769a352.300322 353.675845 4.753 1 0 58.611435-704.919225 352.300322 353.675845 4.753 1 0-58.611435 704.919225Z" fill="#E04F4F" /><path d="M810.318222 879.835586a342.977337 337.475248 4.753 1 0 55.92666-672.629452 342.977337 337.475248 4.753 1 0-55.92666 672.629452Z" fill="#E55555" /><path d="M1000.616119 361.915224c-1.375522-3.515224-2.903881-6.724776-4.585074-9.934328-4.585075-9.170149-10.24-16.964776-16.506269-23.383881-20.021493-20.632836-46.767761-29.497313-73.208358-25.829254-6.113433 1.528358-12.07403 3.820896-17.881791 6.877612l-0.917015 0.458508c-0.152836 0.152836-0.458507 0.152836-0.611343 0.305671-0.764179 0.458507-1.681194 0.917015-2.445373 1.222687-56.854925 29.955821-95.063881 74.583881-67.859105 144.429851 10.545672 27.05194 26.287761 43.711045 43.711045 54.256716-2.751045-0.917015-5.50209-1.681194-8.253135-2.445373-1.83403-0.458507-3.515224-1.069851-5.196417-1.528358-2.598209-0.764179-5.043582-1.375522-7.488956-2.139702-1.681194-0.458507-3.209552-0.917015-4.73791-1.375522-14.060896-3.973731-24.912239-7.641791-29.497314-14.519403-0.152836-0.305672-0.458507-0.458507-0.764179-0.458508h-0.611343c-0.152836 0-0.458507 0-0.611343 0.152836-16.659104 14.672239-27.510448 32.859701-38.05612 54.256717v0.152835c-19.562985 39.278806-28.88597 85.435224-18.493134 125.172538 4.585075 17.576119 13.296716 31.331343 23.842388 42.182686 22.619701 23.536716 55.020896 30.72 85.58806 20.021493 0.458507-0.152836 1.069851-0.305672 1.528358-0.611344 0.152836 0 0.152836 0 0.305672-0.152835 0.917015-0.305672 1.681194-0.611343 2.598209-0.917015l8.253134-3.209552c3.820896-1.528358 7.641791-3.209552 11.309851-5.043583 1.528358-0.764179 2.903881-1.375522 4.432239-2.139701l7.794626-4.126567 3.209553-1.83403c3.515224-2.139701 7.030448-4.432239 10.392835-6.724776 4.73791-3.362388 9.322985-7.030448 13.449553-11.004179 0.764179-0.611343 1.375522-1.375522 2.139701-1.986866 10.545672-10.392836 18.493134-22.619701 23.078209-36.833433 0.458507-1.681194 1.069851-3.362388 1.375523-5.043582 1.681194-6.877612 2.751045-14.060896 2.751044-21.855522 0-2.903881 0-5.807761-0.152836-8.864478-0.152836-1.986866-0.305672-4.126567-0.611343-6.113433l-0.917015-6.419104c-0.764179-4.279403-1.681194-8.711642-2.90388-13.296717-2.292537-9.017313-5.349254-17.117612-8.864478-24.300895-0.611343-1.222687-1.222687-2.445373-1.83403-3.515224-1.222687-2.292537-2.445373-4.585075-3.820895-6.57194-0.611343-1.069851-1.375522-2.139701-1.986866-3.056717-5.50209-8.100299-11.768358-14.825075-18.493134-20.632836l-5.043582-4.126567c-4.126567-3.056716-8.558806-5.807761-12.838209-8.253134 33.318209 9.322985 65.719403 6.57194 75.653731 18.340298 0.458507 0.458507 1.069851 0.458507 2.139701 0.152836 14.97791-16.81194 23.689552-36.374925 31.789851-58.994627 12.532537-39.890149 13.755224-85.129552-0.152836-120.740298z" fill="#F2A83D" /><path d="M625.124272 653.495495a309.03403 287.331343 62.87 1 0 511.434942-262.052483 309.03403 287.331343 62.87 1 0-511.434942 262.052483Z" fill="#FFECCD" /><path d="M1017.733731 469.053134c-7.794627 21.855522-16.200597 40.501493-30.567164 56.854926-0.917015 0.458507-1.528358 0.458507-1.986866-0.152836-17.881791-21.091343-109.888955 6.113433-144.42985-82.225672-26.134925-67.247761 10.545672-110.194627 65.413731-139.080597 0.764179-0.458507 1.528358-0.764179 2.445373-1.222686 5.807761-2.903881 11.615522-5.196418 17.57612-6.724776 25.98209-3.66806 52.269851 5.043582 71.985671 25.370746 7.947463 8.253134 14.97791 18.340299 19.868657 30.872836 13.296716 34.38806 12.07403 77.793433-0.305672 116.308059z" fill="#F7E6C9" /><path d="M1016.816716 464.620896c-7.641791 21.244179-15.894925 39.584478-29.95582 55.479403-0.917015 0.458507-1.528358 0.458507-1.986866-0.152836-17.576119-20.632836-107.443582 5.960597-141.220299-80.391642-25.523582-65.719403 10.392836-107.596418 63.885373-135.871045 0.764179-0.458507 1.528358-0.764179 2.292538-1.222686 5.654925-2.903881 11.462687-5.043582 17.270448-6.571941 25.370746-3.66806 51.2 4.890746 70.457313 24.759403 7.794627 8.100299 14.519403 18.034627 19.410149 30.261493 13.143881 33.471045 11.921194 76.112239-0.152836 113.709851z" fill="#FFF5E1" /><path d="M943.455522 412.809552c-12.07403-31.789851-38.056119-68.470448-38.056119-68.470448s7.336119 44.016716 19.410149 75.806568c12.07403 31.789851 39.12597 65.260896 39.12597 65.260895s-8.253134-40.807164-20.48-72.597015z" fill="#F2A83D" /><path d="M829.745672 474.555224c15.283582 23.383881 109.430448 8.711642 133.425671 101.330149 18.187463 70.457313-23.078209 108.207761-80.544477 129.604776-1.375522 0.458507-2.903881 1.069851-4.279403 1.528358-29.344478 10.392836-60.522985 3.362388-82.378508-19.257313-10.087164-10.392836-18.493134-23.689552-22.925373-40.654328-15.130746-58.383284 13.449552-130.980299 54.562388-173.01015 1.069851-0.152836 1.681194 0 2.139702 0.458508z" fill="#F7E6C9" /><path d="M790.925373 526.672239c10.24-20.632836 20.632836-38.208955 36.833433-52.422687 0.917015-0.305672 1.681194-0.152836 1.986866 0.305672 15.283582 23.383881 109.430448 8.711642 133.425671 101.330149 18.187463 70.457313-23.078209 108.207761-80.544477 129.604776-0.764179 0.305672-1.681194 0.611343-2.445373 0.917015-6.113433 2.139701-12.07403 3.66806-18.187463 4.432239-26.134925 0.152836-51.2-12.07403-68.317612-34.999403-7.030448-9.322985-12.685373-20.327164-16.047761-33.471045-9.475821-35.916418-3.362388-79.168955 13.296716-115.696716z" fill="#FFF5E1" /><path d="M860.771343 591.474627c9.934328 32.706866 29.955821 73.208358 29.955821 73.208358s-6.724776-43.099701-16.506268-75.653731c-9.934328-32.706866-30.567164-70.457313-30.567165-70.457314s7.336119 40.348657 17.117612 72.902687z" fill="#F2A83D" /><path d="M784.964776 287.637015c4.432239 4.585075-14.97791 16.200597-34.235224 39.12597-18.951642 22.466866-35.152239 42.488358-39.431642 38.056119-4.279403-4.432239-1.222687-15.283582 17.423284-37.597611 18.951642-22.619701 51.811343-44.169552 56.243582-39.584478z" fill="#FFFFFF" /></svg>