<?xml version="1.0" standalone="no"?><!DOCTYPE svg PUBLIC "-//W3C//DTD SVG 1.1//EN" "http://www.w3.org/Graphics/SVG/1.1/DTD/svg11.dtd"><svg class="icon" width="48px" height="48.00px" viewBox="0 0 1024 1024" version="1.1" xmlns="http://www.w3.org/2000/svg"><path d="M687.3 499.7c0 156.2-75.8 282.8-169.2 282.8S348.8 655.9 348.8 499.7 453.4 217.8 518 216.9c74.6-1.2 169.3 126.6 169.3 282.8z" fill="#85C628" /><path d="M518 794.5c-49.6 0-95.8-31.5-130-88.7-33.1-55.3-51.3-128.5-51.3-206.2 0-73 22.2-146.3 62.4-206.3 36.2-54 81.7-88 118.6-88.5 28-0.4 57.8 14.1 86.1 42 27.2 26.7 50.4 63.3 67.3 105.8 18.3 46 28 96.9 28 147.1 0 77.7-18.2 150.9-51.3 206.2-34 57.2-80.2 88.6-129.8 88.6z m1-565.6h-0.8c-28.3 0.4-68.1 31.7-99.1 77.9-21.8 32.5-58.4 100.8-58.4 193 0 73.4 17 142.3 47.9 193.8 29.7 49.7 68.6 77 109.4 77s79.7-27.3 109.4-77c30.9-51.6 47.9-120.4 47.9-193.8 0-47.2-9.1-95-26.3-138.2-15.4-38.8-37.4-73.5-61.9-97.5-23-22.8-47.2-35.2-68.1-35.2z" fill="#26110E" /><path d="M457.1 441.7h-28c-7.7 0-14-6.3-14-14v-0.1c0-7.7 6.3-14 14-14h28c7.7 0 14 6.3 14 14v0.1c0.1 7.6-6.2 14-14 14zM606.9 441.7h-28c-7.7 0-14-6.3-14-14v-0.1c0-7.7 6.3-14 14-14h28c7.7 0 14 6.3 14 14v0.1c0 7.6-6.3 14-14 14z" fill="#E83D3D" /><path d="M499.6 385.4c-6.6 0-12-5.4-12-12 0-5.4-4.4-9.8-9.8-9.8s-9.8 4.4-9.8 9.8c0 6.6-5.4 12-12 12s-12-5.4-12-12c0-18.6 15.2-33.8 33.8-33.8s33.8 15.2 33.8 33.8c0 6.6-5.4 12-12 12zM580 386.6c-6.6 0-12-5.4-12-12 0-5.4-4.4-9.8-9.8-9.8s-9.8 4.4-9.8 9.8c0 6.6-5.4 12-12 12s-12-5.4-12-12c0-18.6 15.2-33.8 33.8-33.8S592 356 592 374.6c0 6.6-5.3 12-12 12z" fill="#26110E" /><path d="M498.1 495.5h-0.3c-8.5-0.1-16.5-3.5-22.5-9.5-6-6.1-9.2-14.1-9.1-22.6 0.1-6.6 5.4-11.9 12-11.9h0.1c6.6 0.1 12 5.5 11.9 12.1 0 2.1 0.8 4.1 2.3 5.6 1.5 1.5 3.4 2.3 5.5 2.4 2.1 0 4.1-0.8 5.6-2.3 1.5-1.5 2.3-3.4 2.4-5.5 0.1-6.6 5.5-12 12.1-11.9 6.6 0.1 12 5.5 11.9 12.1-0.1 8.5-3.5 16.5-9.5 22.5-6.1 5.7-14 9-22.4 9z" fill="#26110E" /><path d="M538 495.8h-0.3c-17.6-0.1-31.8-14.6-31.6-32.1 0.1-6.6 5.5-12 12.1-11.9 6.6 0.1 12 5.5 11.9 12.1 0 4.3 3.5 7.9 7.8 7.9h0.1c4.3 0 7.8-3.5 7.9-7.8 0.1-6.6 5.4-11.9 12-11.9h0.1c6.6 0.1 12 5.5 11.9 12.1-0.2 17.5-14.4 31.6-31.9 31.6z" fill="#26110E" /><path d="M392.9 212c-14.4 3.2-14.2 33.9-26.4 42.7-65.8 47.6-94.2 144.2-87.2 278.9 10.7 208.3 103.1 252 192.6 244.8 9-0.7 18.9 4.1 28.4 2.3h0.1L392.9 212l107.5 568.6" fill="#FFE3A4" /><path d="M495.6 793.1c-4.8 0-9.3-0.8-13.4-1.6-3.6-0.7-6.9-1.3-9.4-1.1-51.3 4.1-94.1-8.4-127.1-37.4-46.7-40.9-73.1-114.5-78.4-218.8-3.6-69.1 2.1-128.4 16.8-176.3 15.4-50 40.7-88 75.3-113 2.5-1.8 5.3-9.8 7.1-15.1 4.1-11.7 9.2-26.3 23.6-29.6h0.2c1.4-0.3 2.8-0.3 4.2-0.1 1.6 0.2 3.1 0.8 4.5 1.6 1.6 1 3 2.4 4 4.2 0.6 1.1 1.1 2.3 1.3 3.5 0 0.1 0 0.2 0.1 0.3l107.5 568.6c0.6 3.2-0.2 6.4-1.9 8.9-0.5 0.7-1.1 1.4-1.7 2-1.4 1.3-3.2 2.3-5.3 2.8-0.2 0.1-0.5 0.1-0.7 0.2-2.1 0.7-4.4 0.9-6.7 0.9z m-21.8-26.8c4.2 0 8.2 0.7 11.9 1.4l-98.9-523.2c-2.9 7.6-6.7 15.1-13.3 19.8-30.3 21.9-52.7 55.7-66.5 100.6-13.9 45.2-19.2 101.7-15.8 168 5 97.6 28.7 165.5 70.3 202 27.9 24.5 64.7 35.1 109.4 31.5 1 0 2-0.1 2.9-0.1z" fill="#26110E" /><path d="M640.7 212.4c14.9 3.4 14.6 34.1 27.2 43 67.8 48.3 103.7 146 90 280.2-21.1 207.1-105.8 251.2-197.9 243-9.3-0.8-19.5 3.9-29.2 1.9h-0.1l110-568.1-110 568.2" fill="#FFE3A4" /><path d="M535.9 793.1c-2.4 0-4.9-0.2-7.5-0.7-0.2 0-0.4-0.1-0.6-0.1-2.1-0.5-3.9-1.5-5.3-2.9-0.6-0.5-1.1-1.1-1.5-1.8-1.8-2.5-2.6-5.8-2-9l110-568.4v-0.1c0.3-1.5 0.9-2.9 1.6-4.1 0.9-1.3 2-2.5 3.3-3.4 1.5-1.1 3.3-1.8 5.2-2 1.3-0.2 2.7-0.1 4.1 0.2h0.2c14.5 3.3 19.7 17.9 24 29.7 2 5.6 4.8 13.4 7.4 15.3 36.6 26.1 63.5 64.4 79.9 113.9 16.8 50.4 21.8 110.1 15 177.3-5.2 50.7-14.4 94.2-27.6 129.5-12.4 33.2-28.6 60.1-48.2 80-18.1 18.4-39.6 31.4-63.9 38.5-21.4 6.3-44.7 8.2-71.2 5.8-2.6-0.2-6.1 0.4-9.8 1-4 0.5-8.4 1.3-13.1 1.3z m111-549.1L545.4 767.9c4.8-0.8 10.1-1.7 15.7-1.2 49.1 4.4 87-7.8 116-37.3 36.3-36.9 59.5-102.5 69-195 6.5-63.8 1.8-120.1-13.9-167.3-14.8-44.6-38.8-78.9-71.1-101.9-7.3-5.1-11.2-13.2-14.2-21.2z" fill="#26110E" /><path d="M383.4 708.8c-1.8 0-3.7-0.4-5.4-1.3-25.4-12.9-43.6-37.9-52.6-72.2-6.5-25-5.9-46.3-5.9-47.2 0.2-6.6 5.8-11.8 12.4-11.6 6.6 0.2 11.8 5.8 11.6 12.4 0 1.1-1.5 73.4 45.3 97.2 5.9 3 8.3 10.2 5.3 16.1-2.1 4.2-6.3 6.6-10.7 6.6z" fill="#F9C675" /><path d="M760.8 473.9c-1 0-2-0.1-3-0.4-6.4-1.7-10.3-8.2-8.6-14.6 0.2-0.8 5-19.1 17.8-37.4 17.6-25.3 41.9-38.7 70.1-38.7 6.6 0 12 5.4 12 12s-5.4 12-12 12c-49.1 0-64.5 57.5-64.6 58.1-1.5 5.4-6.4 9-11.7 9zM278.6 473.9c-5.3 0-10.2-3.6-11.6-9-0.1-0.3-4.2-15.5-14.6-30.3-13.1-18.5-29.9-27.9-50-27.9-6.6 0-12-5.4-12-12s5.4-12 12-12c28.2 0 52.4 13.4 70.1 38.7 12.8 18.3 17.6 36.6 17.8 37.4 1.7 6.4-2.2 13-8.6 14.6-1.1 0.4-2.1 0.5-3.1 0.5zM387.4 855.5c-6.2 0-13.3-2.3-21.7-7-7.6-4.2-13.9-9.1-14.1-9.3-5.2-4.1-6.1-11.6-2-16.8 4.1-5.2 11.6-6.1 16.8-2 5.5 4.3 12.6 8.4 17.2 10.2-0.3-13.4 2-33.6 5.8-52 5.1-24.8 11.9-41.6 20-50 5.8-6 11.7-7.3 15.7-7.3 12.4 0 23.2 8.7 32.2 25.7 5.6 10.6 8.7 21.1 8.8 21.6 1.8 6.4-1.8 13-8.2 14.9-6.4 1.8-13-1.8-14.9-8.2 0-0.1-2.6-8.9-7.1-17.4-4.3-8.1-7.8-11.2-9.7-12.2-2.5 3-7.8 12.6-12.7 34.9-3.9 17.8-6.3 38.7-5.9 50.8 0.5 14.1-6.5 19.8-10.8 22-2.8 1.3-5.9 2.1-9.4 2.1zM554.8 857.8c-6.2 0-13.3-2.3-21.7-7-7.6-4.2-13.9-9.1-14.1-9.3-5.2-4.1-6.1-11.6-2-16.8 4.1-5.2 11.6-6.1 16.8-2 5.5 4.3 12.6 8.4 17.2 10.2-0.3-13.4 2-33.6 5.8-52 5.1-24.8 11.9-41.6 20-50 5.8-6 11.7-7.3 15.7-7.3 12.4 0 23.2 8.7 32.2 25.7 5.6 10.6 8.7 21.1 8.8 21.6 1.8 6.4-1.8 13-8.2 14.9-6.4 1.8-13-1.8-14.9-8.2 0-0.1-2.6-8.9-7.1-17.4-4.3-8.1-7.8-11.2-9.7-12.2-2.5 3-7.8 12.6-12.7 34.9-3.9 17.8-6.3 38.7-5.9 50.8 0.5 14.1-6.5 19.8-10.8 22-2.8 1.4-5.9 2.1-9.4 2.1z m-3.9-21z" fill="#26110E" /></svg>