<?xml version="1.0" standalone="no"?><!DOCTYPE svg PUBLIC "-//W3C//DTD SVG 1.1//EN" "http://www.w3.org/Graphics/SVG/1.1/DTD/svg11.dtd"><svg class="icon" width="48px" height="48.00px" viewBox="0 0 1024 1024" version="1.1" xmlns="http://www.w3.org/2000/svg"><path d="M294.058667 236.117333L243.157333 0.042667h249.173334l-48.981334 236.074666H294.058667z m212.053333 242.090667c-70.954667 56.32-116.309333 142.293333-116.309333 238.592 0 83.370667 33.962667 158.976 89.130666 214.314667L377.344 1024l-249.173333-210.218667L292.949333 280.362667h153.344l59.733334 197.845333z" fill="#6E9FF4" /><path d="M681.301333 691.2h-134.4v51.2h134.4v131.498667h45.397334V742.4h134.4v-51.2h-134.4v-131.498667h-45.397334V691.2z m22.698667 281.6c-144.597333 0-261.802667-114.602667-261.802667-256s117.205333-256 261.802667-256c144.597333 0 261.802667 114.602667 261.802667 256s-117.205333 256-261.802667 256z" fill="#6E9FF4" /></svg>