<?xml version="1.0" standalone="no"?><!DOCTYPE svg PUBLIC "-//W3C//DTD SVG 1.1//EN" "http://www.w3.org/Graphics/SVG/1.1/DTD/svg11.dtd"><svg class="icon" width="48px" height="48.00px" viewBox="0 0 1024 1024" version="1.1" xmlns="http://www.w3.org/2000/svg"><path d="M832.3 512a106.5 106.5 0 0 1 68.58-99.39 398.82 398.82 0 0 0-43.58-105.29A106.36 106.36 0 0 1 716.77 166.7a400.66 400.66 0 0 0-105.38-43.58c-15.45 40-54 68.58-99.39 68.58a106.48 106.48 0 0 1-99.39-68.58 398.82 398.82 0 0 0-105.29 43.58 106.36 106.36 0 0 1-140.54 140.62 396.35 396.35 0 0 0-43.66 105.29c40 15.45 68.58 54 68.58 99.39a106.48 106.48 0 0 1-68.58 99.39 398.82 398.82 0 0 0 43.58 105.29A106.36 106.36 0 0 1 307.23 857.3a400.66 400.66 0 0 0 105.38 43.58c15.45-40 54-68.58 99.39-68.58a106.5 106.5 0 0 1 99.39 68.58 398.82 398.82 0 0 0 105.29-43.58 106.36 106.36 0 0 1 140.53-140.62 396 396 0 0 0 43.67-105.29A106.48 106.48 0 0 1 832.3 512zM512 676.65c-90.89 0-164.65-73.76-164.65-164.65S421.11 347.35 512 347.35 676.65 421.11 676.65 512 602.89 676.65 512 676.65z" fill="#4169E1" /><path d="M512 512m-90.84 0a90.84 90.84 0 1 0 181.68 0 90.84 90.84 0 1 0-181.68 0Z" fill="#2F3240" /></svg>