<?xml version="1.0" standalone="no"?><!DOCTYPE svg PUBLIC "-//W3C//DTD SVG 1.1//EN" "http://www.w3.org/Graphics/SVG/1.1/DTD/svg11.dtd"><svg class="icon" width="48px" height="48.00px" viewBox="0 0 1024 1024" version="1.1" xmlns="http://www.w3.org/2000/svg"><path d="M761.43 900H262.57a31.09 31.09 0 0 1-31.09-31.1V155.12A31.09 31.09 0 0 1 262.57 124h498.86a31.09 31.09 0 0 1 31.09 31.1v713.78A31.09 31.09 0 0 1 761.43 900z m-467.77-62.21h436.68V186.21H293.66z" fill="#2F3240" /><path d="M588.37 256.52a22.92 22.92 0 0 1-22.92 22.92h-106.9a22.92 22.92 0 0 1-22.92-22.92 22.93 22.93 0 0 0-22.93-22.92h-64.56A21.18 21.18 0 0 0 327 254.79v514.42a21.19 21.19 0 0 0 21.19 21.19h327.67a21.19 21.19 0 0 0 21.19-21.19V254.79a21.18 21.18 0 0 0-21.19-21.19H611.3a22.93 22.93 0 0 0-22.93 22.92z" fill="#4169E1" /></svg>