<?xml version="1.0" standalone="no"?><!DOCTYPE svg PUBLIC "-//W3C//DTD SVG 1.1//EN" "http://www.w3.org/Graphics/SVG/1.1/DTD/svg11.dtd"><svg class="icon" width="48px" height="48.00px" viewBox="0 0 1024 1024" version="1.1" xmlns="http://www.w3.org/2000/svg"><path d="M871.7824 603.136c-0.5632 0-1.1776 0-1.7408-0.0512a25.61536 25.61536 0 0 1-23.808-27.2896c0.512-7.5776 0.768-15.3088 0.768-22.9376 0-14.1312 11.4688-25.6 25.6-25.6s25.6 11.4688 25.6 25.6c0 8.7552-0.3072 17.664-0.8704 26.368a25.6256 25.6256 0 0 1-25.5488 23.9104z" fill="#44454A" /><path d="M828.3648 379.648c50.3808-22.016 85.6064-72.2944 85.6064-130.816 0-78.7968-63.8976-142.6944-142.6944-142.6944-66.4064 0-122.2144 45.3632-138.1376 106.752 83.6608 29.9008 153.0368 89.8048 195.2256 166.7584zM386.7136 214.016C371.2 152.064 315.136 106.1376 248.32 106.1376c-78.7968 0-142.6944 63.8976-142.6944 142.6944 0 59.5968 36.5568 110.6432 88.4224 131.9936 41.5744-76.544 110.0288-136.3456 192.6656-166.8096z" fill="#4169E1" /><path d="M511.5392 577.8432H362.4448c-14.1312 0-25.6-11.4688-25.6-25.6s11.4688-25.6 25.6-25.6h123.4944V346.0608c0-14.1312 11.4688-25.6 25.6-25.6s25.6 11.4688 25.6 25.6v206.1312c0 14.1824-11.4688 25.6512-25.6 25.6512z" fill="#44454A" /><path d="M939.776 905.4208l-120.7808-117.6576a387.2 387.2 0 0 0 60.9792-117.248c4.3008-13.4656-3.1232-27.8528-16.5888-32.1536-13.4656-4.3008-27.8528 3.1232-32.1536 16.5888-44.544 139.5712-173.0048 233.3696-319.6416 233.3696-184.9856 0-335.4624-150.4768-335.4624-335.4624s150.4768-335.4624 335.4624-335.4624c39.3216 0 77.3632 6.8608 112.7936 19.456 0.0512 0 0.1024 0.0512 0.1536 0.0512a335.7184 335.7184 0 0 1 181.4016 154.9312c0.256 0.4608 0.5632 0.8192 0.8192 1.2288 12.9024 23.8592 23.04 49.6128 30.0032 76.8512 3.4816 13.7216 17.4592 21.9648 31.1296 18.5344 13.7216-3.4816 22.016-17.408 18.5344-31.1296a382.90944 382.90944 0 0 0-23.9104-67.1744c47.5648-30.6688 77.1584-83.6608 77.1584-141.4144 0-92.8256-75.52-168.2944-168.2944-168.2944-67.5328 0-127.5392 40.192-154.0608 100.4032a386.76992 386.76992 0 0 0-105.6768-14.6944c-37.7856 0-74.24 5.5296-108.7488 15.6672a168.01792 168.01792 0 0 0-154.4704-101.376c-92.8256 0-168.2944 75.52-168.2944 168.2944 0 59.2896 30.72 112.9984 80.0256 143.2576-22.528 48.9984-35.1744 103.424-35.1744 160.768 0 86.1696 28.3648 165.888 76.2368 230.2464l-125.5424 122.2656a25.5744 25.5744 0 0 0-0.4608 36.1984 25.42592 25.42592 0 0 0 18.3296 7.7312c6.4512 0 12.9024-2.4064 17.8688-7.2704l123.136-119.9616c70.2976 72.3456 168.4992 117.4016 277.0944 117.4016 105.5744 0 203.008-42.1888 273.7664-113.1008L904.0384 942.08c4.9664 4.864 11.4176 7.2704 17.8688 7.2704 6.656 0 13.312-2.56 18.3296-7.7312a25.5744 25.5744 0 0 0-0.4608-36.1984zM771.2768 131.7376c64.5632 0 117.0944 52.5312 117.0944 117.0944 0 38.912-19.3024 74.752-50.5344 96.3584a386.05312 386.05312 0 0 0-172.1856-146.9952 117.06368 117.06368 0 0 1 105.6256-66.4576zM131.2256 248.832c0-64.5632 52.5312-117.0944 117.0944-117.0944 46.336 0 87.3472 26.9824 106.24 67.7376a386.82624 386.82624 0 0 0-170.2912 147.456c-32.8192-21.3504-53.0432-57.9072-53.0432-98.0992z" fill="#44454A" /></svg>