<?xml version="1.0" standalone="no"?><!DOCTYPE svg PUBLIC "-//W3C//DTD SVG 1.1//EN" "http://www.w3.org/Graphics/SVG/1.1/DTD/svg11.dtd"><svg class="icon" width="48px" height="48.00px" viewBox="0 0 1024 1024" version="1.1" xmlns="http://www.w3.org/2000/svg"><path d="M479.5904 935.6288h-12.3392c-14.1312 0-25.6-11.4688-25.6-25.6s11.4688-25.6 25.6-25.6h12.3392c14.1312 0 25.6 11.4688 25.6 25.6s-11.4688 25.6-25.6 25.6z" fill="#44454A" /><path d="M766.1056 641.9968h163.584V388.7104h-163.584c-69.9392 0-126.6688 56.6784-126.6688 126.6688 0 69.9392 56.7296 126.6176 126.6688 126.6176z" fill="#4169E1" /><path d="M726.4256 100.7616H303.7184c-127.0272 0-230.4 103.3728-230.4 230.4v374.0672c0 127.0272 103.3728 230.4 230.4 230.4h89.344c14.1312 0 25.6-11.4688 25.6-25.6s-11.4688-25.6-25.6-25.6H303.7184c-98.816 0-179.2-80.384-179.2-179.2V331.1616c0-98.816 80.384-179.2 179.2-179.2h422.656c98.816 0 179.2 80.384 179.2 179.2v31.9488h-139.52c-83.968 0-152.2688 68.3008-152.2688 152.2688s68.3008 152.2688 152.2688 152.2688h139.52v37.5808c0 98.816-80.384 179.2-179.2 179.2h-174.2336c-14.1312 0-25.6 11.4688-25.6 25.6s11.4688 25.6 25.6 25.6h174.2336c127.0272 0 230.4-103.3728 230.4-230.4V331.1616c0.0512-127.0272-103.3216-230.4-230.3488-230.4z m177.664 515.6352h-137.984c-55.7056 0-101.0688-45.312-101.0688-101.0688 0-55.7056 45.312-101.0688 101.0688-101.0688h137.984v202.1376z" fill="#44454A" /><path d="M442.6752 343.9104H282.112c-14.1312 0-25.6-11.4688-25.6-25.6s11.4688-25.6 25.6-25.6h160.5632c14.1312 0 25.6 11.4688 25.6 25.6s-11.4176 25.6-25.6 25.6z" fill="#44454A" /><path d="M773.632 510.8224m-35.4304 0a35.4304 35.4304 0 1 0 70.8608 0 35.4304 35.4304 0 1 0-70.8608 0Z" fill="#44454A" /></svg>