<?xml version="1.0" standalone="no"?><!DOCTYPE svg PUBLIC "-//W3C//DTD SVG 1.1//EN" "http://www.w3.org/Graphics/SVG/1.1/DTD/svg11.dtd"><svg class="icon" width="48px" height="48.00px" viewBox="0 0 1024 1024" version="1.1" xmlns="http://www.w3.org/2000/svg"><path d="M677.675 237.551L569.63 345.597 442.393 218.361l108.046-108.046zM133.18 782l200.45-200.41L206.4 454.35C80.58 580.17 133.18 782 133.18 782z" fill="#4169E1" /><path d="M492.52 617.566l113.088-113.088 295.203 295.203a3.14 3.14 0 0 1 0 4.44L792.164 912.77a3.14 3.14 0 0 1-4.44 0L492.52 617.566z" fill="#2F3240" /><path d="M123.03 708.75l168.88-168.88M527.91 303.87l108.04-108.04M152.016 399.967l235.99-235.99 235.99 235.99-235.99 235.99z" fill="#4169E1" /></svg>