<?xml version="1.0" standalone="no"?><!DOCTYPE svg PUBLIC "-//W3C//DTD SVG 1.1//EN" "http://www.w3.org/Graphics/SVG/1.1/DTD/svg11.dtd"><svg class="icon" width="48px" height="48.00px" viewBox="0 0 1024 1024" version="1.1" xmlns="http://www.w3.org/2000/svg"><path d="M112 908a420 116 0 1 0 840 0 420 116 0 1 0-840 0Z" fill="#E8DAC4" /><path d="M501.6 352s-3.48 40.256-8.712 78.76-10.456 62.968 8.712 148.72 36.536 134.72 113.192 244.984 158.872 164.736 200.36 148.8c59.2-22.752 43.552-80.504 17.424-183.768a731.448 731.448 0 0 0-121.944-253.768 482.248 482.248 0 0 0-139.384-122.512A356.4 356.4 0 0 1 501.6 352z" fill="#FFD1AD" /><path d="M815.2 973.264c-28.064 10.784-74.784-10.76-125.8-59.896 17.952 7.024 33.656 8.56 45.792 3.896 59.2-22.752 43.56-80.504 17.424-183.768a731.416 731.416 0 0 0-121.984-253.768A437.36 437.36 0 0 0 560 405.792c3.712 2.632 7.456 5.152 11.2 7.416a482.248 482.248 0 0 1 139.432 122.52 731.448 731.448 0 0 1 121.96 253.776c26.128 103.296 41.808 161.008-17.392 183.76zM500.6 362.968c0.656-6.84 1-10.968 1-10.968a420 420 0 0 0 37.6 37.336 554.048 554.048 0 0 0-38.6-26.368z" fill="#F39B66" /><path d="M555.576 488.072c-23.384 0.368-5.448 59.136 5.416 96.32a238.128 238.128 0 0 0 39.136 71.696s-5.16-39.688-8.688-85.024 0.8-49.256-7.072-66.248c-5.792-12.488-5.416-17.112-28.792-16.744z" fill="#FFFFFF" /><path d="M724.28 543.632c-1.88-2.592-3.768-5.392-5.648-7.912a482.248 482.248 0 0 0-139.384-122.504A356.4 356.4 0 0 1 509.6 352s-3.48 40.256-8.712 78.76-10.456 62.968 8.712 148.72c16.592 74.24 31.912 120.968 85.44 203.696A308.416 308.416 0 0 1 560 832c-45.336 45.336-232 128-232 128a154.448 154.448 0 0 1-136-40c-61.336-58.664-72-88-88-192s-18.664-328 104-504S429.336 26.664 496 24s80-16 96 0 24 56 24 56 96 58.664 120 160 0 280 0 280-4.368 8.912-11.72 23.632z" fill="#F2B28F" /><path d="M721.056 531.128c-0.8-1.096-1.6-2.32-2.4-3.4a429.392 429.392 0 0 0-55.2-60.512A422.536 422.536 0 0 0 672 424a677.672 677.672 0 0 0-32-312 241.792 241.792 0 0 1 104 152c21.336 104-8 224-8 224s-5.296 16.68-14.944 43.128z m-171.272 164.72a725.056 725.056 0 0 0 49.8 86.264C570.608 824.976 538.336 861.08 504 880c-130.664 72-210.664 90.664-280 56s-88-88-88-88l-8-24s152 72 264 16c50.744-25.376 108-78.168 157.784-144.152z" fill="#DE714A" /><path d="M128 808s58.664 21.336 72-24 29.336-157.336 112-208 176-96 176-96a254.448 254.448 0 0 1 0-96c10.664-45.336 16-48 16-48s42.664 34.664 48 0-29.336-96-24-128 32-112 32-112-109.336 5.336-200 72-208 256-240 432 8 208 8 208z" fill="#FDD2B0" /><path d="M877.464 947.496c-19.264 30.616-91.52 59.616-168.584 8.056-40-26.744-83.384-75.24-121.76-130.512a311.768 311.768 0 0 1-122.08 110.792C375.656 980.8 362.888 984 305.432 984c-79.808 0-146.84-59.408-167.592-88.312s-16-33.72-23.944-56.2a17.488 17.488 0 0 1-0.936-4c-12.24-19.568-33.384-65.664-38.968-156.592-8-130.064 8-253.704 63.84-377.344S286.272 60.72 393.216 28.6 583.144-3.512 600.704 4.52a13.016 13.016 0 0 1 3.296 2.168 24.624 24.624 0 0 1 12.688 13.88 188.384 188.384 0 0 1 8 48.168s118.112 67.44 143.648 200.712c19.536 101.968-4.8 202.928-17.352 244.8a826.296 826.296 0 0 1 110.424 215.752c27.296 82.168 35.32 186.888 16.056 217.496zM152 839.576a240.936 240.936 0 0 0 65.68 72.168c39.904 27.296 86.192 28.904 143.648 16.056s132.472-56.2 167.592-96.344c27.248-31.152 31.416-42.92 31.92-46.656a772.216 772.216 0 0 1-60.64-119.248 485.704 485.704 0 0 1-34.4-149.992 448.424 448.424 0 0 0-104.488 58.984C294.256 624.32 248 675.704 241.6 711.032s4.8 75.472-23.944 104.368c-17.784 17.888-47.16 19.776-66.984 18.624 0.456 1.976 0.928 4 1.328 5.552z m-12.24-50.648c16.368 3.8 39.064 5.168 45.96-13.664 11.2-30.512-12.8-59.408 55.864-152.544S399.6 497.472 433.112 478.2A136 136 0 0 1 465.6 464c0.592-11.696 1.512-22.4 2.448-32 4.8-49.944 11.2-112.8 24.08-120.8 8.624-5.408 23.056 3.736 39.376 17.6 1.312-14.712 1.808-33.416-2.624-43.2-8-17.664-22.344-24.088-16-112.4a261.384 261.384 0 0 1 10.56-56.4c-18.4 2.616-49.816 11.856-98.304 40.24-87.784 51.4-151.632 123.656-223.456 272.992-59.104 122.896-64.16 293.536-64.08 350.136 0.712 2.936 1.472 5.968 2.16 8.76z m341.24-736.24c-78.208 17.664-180.36 61.016-223.456 128.456S174.552 298.4 145.816 413.976c-9 36.224-16.592 72.608-22.184 107.72a1153.904 1153.904 0 0 1 38.144-107.72C236.8 230.92 348.52 150.64 425.136 108.888 478.344 79.896 519.2 75.688 539.2 75.824a262.048 262.048 0 0 1 19.392-33.6 409.904 409.904 0 0 0-77.592 10.464z m239.408 208.744C683.704 137.792 616 112 616 112s-21.256-17.36-24-32a192.872 192.872 0 0 0-31.2 61c-26.288 87.848 13.976 152.6 16 176.6a225.872 225.872 0 0 1-4.488 45.848c32.328 21.464 89.824 48.928 143.256 107.288a330.128 330.128 0 0 0 4.84-209.304z m98.4 503.856A668.504 668.504 0 0 0 707.712 533.6 439.552 439.552 0 0 0 580.8 421.696a324.896 324.896 0 0 1-63.432-55.896s-3.2 36.76-7.936 71.912-9.52 57.496 7.936 135.8 33.28 123.016 103.104 223.696 144.696 150.4 182.488 135.872c53.92-20.776 39.64-73.512 15.832-167.8z" fill="#6E1C27" /></svg>