<?xml version="1.0" standalone="no"?><!DOCTYPE svg PUBLIC "-//W3C//DTD SVG 1.1//EN" "http://www.w3.org/Graphics/SVG/1.1/DTD/svg11.dtd"><svg class="icon" width="48px" height="48.00px" viewBox="0 0 1024 1024" version="1.1" xmlns="http://www.w3.org/2000/svg"><path d="M192 192c-69.12 69.12-103.253333 146.986667-76.373333 173.866667l542.293333 542.293333c26.88 26.88 104.746667-7.253333 174.08-76.16s103.253333-146.986667 76.373333-173.866667L366.08 115.84C339.2 88.96 261.333333 123.093333 192 192z" fill="#FF8A65" /><path d="M270.634667 520.832l250.261333-250.261333L780.8 530.474667 530.56 780.736z" fill="#FF7043" /><path d="M192 832c69.12 69.12 146.986667 103.253333 173.866667 76.373333l542.293333-542.293333C935.04 339.2 900.906667 261.333333 832 192s-147.2-103.04-174.08-76.16L115.84 657.92C88.96 684.8 123.093333 762.666667 192 832z" fill="#E7BDB9" /><path d="M832 192c-69.12-69.12-146.986667-103.253333-173.866667-76.373333L115.84 657.92C88.96 684.8 123.093333 762.666667 192 832s146.986667 103.253333 173.866667 76.373333l542.293333-542.293333C935.04 339.2 900.906667 261.333333 832 192z" fill="#FFAB91" /><path d="M511.088655 341.856909m15.990041 15.990041l139.08319 139.08319q15.990041 15.990041 0 31.980083l-137.272996 137.272996q-15.990041 15.990041-31.980083 0l-139.08319-139.083189q-15.990041-15.990041 0-31.980083l137.272997-137.272997q15.990041-15.990041 31.980082 0Z" fill="#FFCCBC" /><path d="M746.666667 277.333333m-21.333334 0a21.333333 21.333333 0 1 0 42.666667 0 21.333333 21.333333 0 1 0-42.666667 0Z" fill="#FF8A65" /><path d="M746.666667 384m-21.333334 0a21.333333 21.333333 0 1 0 42.666667 0 21.333333 21.333333 0 1 0-42.666667 0Z" fill="#FF8A65" /><path d="M640 277.333333m-21.333333 0a21.333333 21.333333 0 1 0 42.666666 0 21.333333 21.333333 0 1 0-42.666666 0Z" fill="#FF8A65" /><path d="M277.333333 746.666667m-21.333333 0a21.333333 21.333333 0 1 0 42.666667 0 21.333333 21.333333 0 1 0-42.666667 0Z" fill="#FF8A65" /><path d="M277.333333 640m-21.333333 0a21.333333 21.333333 0 1 0 42.666667 0 21.333333 21.333333 0 1 0-42.666667 0Z" fill="#FF8A65" /><path d="M384 746.666667m-21.333333 0a21.333333 21.333333 0 1 0 42.666666 0 21.333333 21.333333 0 1 0-42.666666 0Z" fill="#FF8A65" /><path d="M768 768m-21.333333 0a21.333333 21.333333 0 1 0 42.666666 0 21.333333 21.333333 0 1 0-42.666666 0Z" fill="#FF7043" /><path d="M661.333333 768m-21.333333 0a21.333333 21.333333 0 1 0 42.666667 0 21.333333 21.333333 0 1 0-42.666667 0Z" fill="#FF7043" /><path d="M768 661.333333m-21.333333 0a21.333333 21.333333 0 1 0 42.666666 0 21.333333 21.333333 0 1 0-42.666666 0Z" fill="#FF7043" /><path d="M256 256m-21.333333 0a21.333333 21.333333 0 1 0 42.666666 0 21.333333 21.333333 0 1 0-42.666666 0Z" fill="#FF7043" /><path d="M362.666667 256m-21.333334 0a21.333333 21.333333 0 1 0 42.666667 0 21.333333 21.333333 0 1 0-42.666667 0Z" fill="#FF7043" /><path d="M256 362.666667m-21.333333 0a21.333333 21.333333 0 1 0 42.666666 0 21.333333 21.333333 0 1 0-42.666666 0Z" fill="#FF7043" /></svg>