<?xml version="1.0" standalone="no"?><!DOCTYPE svg PUBLIC "-//W3C//DTD SVG 1.1//EN" "http://www.w3.org/Graphics/SVG/1.1/DTD/svg11.dtd"><svg class="icon" width="48px" height="48.00px" viewBox="0 0 1024 1024" version="1.1" xmlns="http://www.w3.org/2000/svg"><path d="M409.274902 460.44299s13.442471-15.401602 17.702991-33.977941" fill="#EFD3EF" /><path d="M413.05154 463.735746l-7.553276-6.585513c0.11802-0.153426 12.675341-14.728888 16.522792-31.806373l9.783853 2.230577c-4.425748 19.59131-18.163269 35.500398-18.753369 36.161309z" fill="#C683C6" /><path d="M621.451148 460.44299s-13.442471-15.401602-17.70299-33.977941" fill="#EFD3EF" /><path d="M617.662708 463.735746c-0.578298-0.660912-14.315819-16.522791-18.776972-36.161309l9.783853-2.230577c3.882856 17.077485 16.428375 31.652948 16.522792 31.806373z" fill="#C683C6" /><path d="M145.700973 734.060416a367.51409 284.038587 0 1 0 735.028179 0 367.51409 284.038587 0 1 0-735.028179 0Z" fill="#BDDE5A" /><path d="M513.20326 1024c-99.467205 0-193.033412-29.988866-263.479513-84.431464-70.894577-54.784856-109.935573-127.768386-109.935573-205.50812s39.040996-150.723264 109.935573-205.50812c70.446102-54.442598 164.047715-84.419662 263.479513-84.419662s193.045214 29.977064 263.491316 84.419662c70.894577 54.784856 109.994583 127.768386 109.994583 205.50812s-39.100006 150.723264-109.994583 205.50812c-70.446102 54.442598-164.024111 84.431464-263.491316 84.431464z m0-568.065372c-199.394687 0-361.613093 124.758877-361.613092 278.125788s162.218406 278.13759 361.613092 278.13759 361.683905-124.770679 361.683905-278.13759-162.277416-278.125788-361.683905-278.125788z" fill="#8BAA1D" /><path d="M400.246377 701.085645c3.457984 23.603988 7.28183 53.404022-6.502899 67.058929-15.531424 15.342592-49.202513 10.763418-78.436051 9.748447-33.848118-1.180199-84.974356-22.766046-84.974356-65.194214s38.037826-88.43234 84.974356-88.43234 78.790111 34.851288 84.93895 76.819178z" fill="#003908" /><path d="M341.779299 687.867412m-24.843197 0a24.843197 24.843197 0 1 0 49.686394 0 24.843197 24.843197 0 1 0-49.686394 0Z" fill="#FFFFFF" /><path d="M621.274119 701.085645c-3.457984 23.603988-7.270028 53.404022 6.502898 67.058929 15.531424 15.342592 49.202513 10.763418 78.436052 9.748447 33.85992-1.180199 84.974356-22.766046 84.974356-65.194214s-38.026024-88.43234-84.974356-88.43234-78.790111 34.851288-84.93895 76.819178z" fill="#003908" /><path d="M679.752998 687.867412m-24.843197 0a24.843197 24.843197 0 1 0 49.686394 0 24.843197 24.843197 0 1 0-49.686394 0Z" fill="#FFFFFF" /><path d="M662.604701 372.836789H358.762368s97.295638 79.297597 38.53351 141.682937h226.775313c-58.762128-62.38534 38.53351-141.682937 38.53351-141.682937z" fill="#EFD3EF" /><path d="M650.259816 433.45183c-0.165228-0.436674-16.015306-44.292883-51.928774-98.652867-20.228618-30.685184-38.76955-54.088538-56.64957-76.712961-15.165562-19.190042-29.504985-37.306103-43.879814-58.490681-19.744736-29.068311-31.086452-57.499314-33.706494-84.502277-2.360399-24.784187 2.761667-48.163937 14.953126-67.542811 21.243589-33.718297 62.161102-52.377249 101.910217-46.40544a93.601614 93.601614 0 0 1 48.789443 22.801453c14.846908 13.324451 25.350683 31.086452 31.216274 52.80212 12.48651 46.252014-8.768881 79.580845-35.405982 92.055553-30.07148 14.162393-64.309065 3.776638-85.198594-25.763753l28.903083-20.441053c13.147421 18.576338 30.42554 19.23725 41.224365 14.162392 12.262272-5.771175 23.887236-22.541808 16.251346-50.819385-10.326745-38.226658-36.432755-47.621045-51.07903-49.816217-26.058803-3.90646-52.849329 8.261396-66.693067 30.236709-18.257685 29.032905-11.801994 69.265902 18.068852 113.299141 13.678511 20.134202 27.616666 37.76638 42.38096 56.448937 18.387506 23.26173 37.400519 47.302392 58.455276 79.203181 38.439094 58.207434 55.032698 104.35323 55.717213 106.288757l-33.364236 11.801994 16.688019-5.900997zM499.099878 345.656797a11.801994 11.801994 0 0 1-11.530548-9.335377 399.568305 399.568305 0 0 0-18.670755-59.552861c-15.000334-36.716003-32.538097-59.163395-49.379542-63.21148a11.805534 11.805534 0 0 1 5.523333-22.954878c25.185455 6.066225 47.325996 32.148631 65.831522 77.5391a419.773319 419.773319 0 0 1 19.803746 63.235083 11.801994 11.801994 0 0 1-11.554152 14.280413z" fill="#F9E073" /><path d="M596.360109 334.043635a11.979024 11.979024 0 0 1-2.49022-0.259644 11.801994 11.801994 0 0 1-9.063932-14.008967 418.191852 418.191852 0 0 1 19.815548-63.246885c18.505526-45.390469 40.646067-71.472875 65.831522-77.5391a11.805534 11.805534 0 0 1 5.523333 22.954878c-16.841445 4.048084-34.379208 26.495476-49.379542 63.199678a400.713099 400.713099 0 0 0-18.694359 59.564663 11.801994 11.801994 0 0 1-11.54235 9.335377z" fill="#F9E073" /><path d="M363.400552 329.889333c2.206973-18.977606-8.131574-36.999251-24.784187-43.384129-22.140541-8.473832-59.009969-13.631303-115.60053 2.773468-70.009428 20.264024-96.30427 139.180914-106.135331 218.962393-3.953668 32.184037 26.920348 56.083075 53.793488 41.696444l160.141255-85.706079c11.270904-6.042621 19.00121-17.797407 20.582677-31.31069z" fill="#EF3184" /><path d="M153.997774 560.099026a41.129949 41.129949 0 0 1-23.32074-7.364444c-14.339423-9.831061-21.869095-27.144586-19.650319-45.213439 6.491097-52.731309 16.876851-97.567084 30.862214-133.256313 19.850954-50.630554 46.594272-81.138708 79.474627-90.662917 59.411237-17.195505 97.649697-10.928646 119.365366-2.60824 19.331666 7.411652 31.062848 27.793696 28.525419 49.568374l-11.990826 103.043209c-1.793903 15.460612-10.621795 28.855875-23.662998 35.830853L173.459262 555.130387a41.035533 41.035533 0 0 1-19.461488 4.968639z m136.997545-275.623765c-17.880021 0-39.808125 2.785271-66.339007 10.468368-68.191921 19.732934-93.117732 142.568086-101.910217 214.017358-1.687685 13.666709 3.918262 26.707912 14.610868 34.03695a28.619835 28.619835 0 0 0 30.590768 1.734893l160.094047-85.70608c9.606823-5.145669 16.145128-15.15376 17.502357-26.790526l11.990826-103.031406c1.876517-16.15693-6.963176-31.794572-21.031153-37.188083-10.550983-4.000876-25.480505-7.541474-45.508489-7.541474z" fill="#AF0054" /><path d="M660.917016 327.894796c-2.265983-19.47329 8.261396-38.085034 25.421495-44.493517 22.211353-8.261396 58.856544-13.171025 114.868806 3.044915 69.360318 20.06339 95.820388 136.962139 105.852084 216.767222 4.166104 33.104593-27.475042 57.82977-55.150718 43.018267l-158.052302-84.58489c-11.565954-6.196047-19.496894-18.257685-21.113767-32.125027z" fill="#EF3184" /><path d="M868.986168 556.51122a42.156722 42.156722 0 0 1-19.898161-5.074857L691.07111 466.851472c-13.300847-7.081196-22.341174-20.818717-24.182285-36.586181l-11.801994-101.638771c-2.572835-22.069729 9.713041-43.395932 29.209935-50.748574 21.597649-8.084366 59.694485-14.162393 118.574633 2.903291 70.505112 20.417449 98.770887 131.828272 110.065395 221.712257 2.360399 18.552734-5.358105 36.361943-20.06339 46.476252a41.956088 41.956088 0 0 1-23.887236 7.541474z m-135.722929-274.868438c-19.662122 0-34.367406 3.37537-44.847577 7.28183-14.481047 5.417115-23.603988 21.515035-21.621253 38.285669l11.801994 101.638771c1.392635 11.979024 8.131574 22.293966 18.033447 27.593062l158.052302 84.58489a29.504985 29.504985 0 0 0 31.464115-1.793903c11.058468-7.600484 16.829643-21.125569 15.047543-35.287962-8.886901-70.693943-33.907128-192.230877-101.638772-211.833988-26.530882-7.63589-48.482591-10.468369-66.291799-10.468369z" fill="#AF0054" /><path d="M361.996115 336.923322c3.13933-27.014764 19.213646-50.241088 42.310148-61.063517 26.047001-12.203262 66.846493-24.205889 126.599988-24.205889 41.306979 0 71.095211 10.621795 91.146799 22.128738 20.405647 11.648568 34.143168 33.505861 37.022855 58.290048l9.276367 79.250389c2.938696 25.279871-5.900997 50.500732-23.49777 67.365781l-88.278914 84.407861c-27.144586 25.964387-68.003089 25.704743-94.876229-0.625506l-85.540852-83.794157c-17.266317-16.900455-25.799159-41.814464-22.919472-66.740275z" fill="#EF3184" /><path d="M509.41482 588.352999a73.86868 73.86868 0 0 1-51.928773-21.66846l-85.552653-83.794157c-18.493724-18.127863-27.687478-44.906587-24.571752-71.626301l8.721674-75.001671c3.363568-28.914885 20.865925-54.088538 45.661914-65.713502 35.063724-16.440177 78.495061-24.784187 129.113813-24.784187 35.830853 0 67.483801 7.706702 94.073694 22.895868 21.904501 12.521916 36.845825 35.972477 39.961551 62.739399l9.229159 79.250389c3.151132 27.144586-6.302265 54.15935-25.279871 72.310817l-88.278914 84.419662a73.880482 73.880482 0 0 1-51.149842 20.972143z m21.491431-330.798086c-60.874684 0-101.084078 12.864173-124.097965 23.603987-21.137371 9.901873-36.055091 31.511324-38.94658 56.401729l-8.721674 75.037077c-2.690855 23.131908 5.204679 46.252014 21.113767 61.842448l85.540852 83.794157c24.571751 24.076068 61.830646 24.323909 86.662041 0.578298l88.290716-84.419663c16.322158-15.602236 24.441929-38.94658 21.703867-62.408943l-9.217357-79.250389c-2.690855-23.061096-15.425206-43.195298-34.09596-53.852498-24.795989-14.138789-54.478004-21.326203-88.231707-21.326203z" fill="#AF0054" /><path d="M598.024191 175.047173c-21.751075 0-42.982862-11.282706-57.640939-32.018809a17.702991 17.702991 0 1 1 28.903083-20.441053c13.147421 18.576338 30.42554 19.23725 41.224365 14.162392 12.262272-5.771175 23.887236-22.541808 16.251346-50.819385-7.010384-25.964387-23.214522-43.289714-45.626509-48.754037-23.238126-5.653155-48.848453 2.230577-65.22962 20.063389-17.832813 19.47329-21.774679 47.573837-11.082072 79.132369a17.724234 17.724234 0 1 1-33.564871 11.400727c-14.7997-43.667377-8.04896-85.399228 18.517329-114.396727 25.008425-27.262606 64.096629-39.229828 99.73865-30.590768 35.016516 8.532842 61.051714 35.476794 71.425667 73.915887 12.48651 46.252014-8.768881 79.580845-35.405982 92.055553a64.568709 64.568709 0 0 1-27.510447 6.290462z" fill="#FC6551" /><path d="M351.622162 852.941901s6.019017 27.793696 14.363027 27.144585 24.937613-27.675676 24.937613-27.675675l-21.491431-10.149715-18.080655 9.134743" fill="#FFFFFF" /><path d="M365.690139 883.001579c-9.807457 0-15.437008-22.423788-16.947663-29.434173a2.702657 2.702657 0 0 1 0-0.920555 2.950498 2.950498 0 0 1 1.321823-3.930064l19.367072-9.783853 25.775555 12.167855-1.723092 2.808875c-4.08349 6.620919-18.092457 28.324785-27.203595 29.068311z m-11.034864-30.01247c2.820677 12.592727 8.060762 24.111474 10.987656 24.111473h0.094416c3.918262-0.318654 13.477877-11.95542 20.913133-23.485968l-17.171901-8.10797z" fill="#8BAA1D" /><path d="M343.042113 841.81262s4.413946-18.812378-1.841111-20.216815-26.719714 11.872806-26.719715 11.872806l12.321282 11.152884 15.944494-1.734893" fill="#FFFFFF" /><path d="M325.811201 847.690013l-16.156929-14.599066 3.221944-2.088953c5.039451-3.280954 22.057927-13.843739 28.973895-12.285876a6.196047 6.196047 0 0 1 3.918262 2.867885c3.540598 5.582343 0.731724 18.399308 0.141624 20.901331a2.808875 2.808875 0 0 1-0.224238 0.64911 2.938696 2.938696 0 0 1-2.620042 2.679052z m-6.467492-13.796531l8.450227 7.647692 12.592728-1.369031c1.664081-7.742108 1.522457-14.988532 0.188832-15.696652-2.679053-0.64911-12.498312 4.071688-21.231787 9.417991z" fill="#8BAA1D" /><path d="M505.036281 890.755489c-66.575048 0-114.986826-29.268945-128.712546-38.616124a10.373953 10.373953 0 0 0-7.447058-1.463447l-26.330248 4.579173a21.562243 21.562243 0 0 1-19.024814-5.759373l-17.809209-18.328496c-2.360399-2.360399-6.656325-3.210142-10.244131-1.911923l-23.73381 8.532841a5.900997 5.900997 0 1 1-3.989073-11.105676l23.722007-8.532841c8.001752-2.879687 17.124693-0.955962 22.707036 4.791609l17.821011 18.316695a9.783853 9.783853 0 0 0 8.544644 2.360398l26.318446-4.579173a22.069729 22.069729 0 0 1 16.121524 3.339964c13.631303 9.264565 63.388509 39.312442 131.34439 36.373745a5.906898 5.906898 0 0 1 0.519288 11.801994c-3.31636 0.141624-6.585513 0.200634-9.807457 0.200634z" fill="#8BAA1D" /><path d="M674.784359 852.941901s-6.007215 27.793696-14.351225 27.144585-24.937613-27.675676-24.937613-27.675675l21.491431-10.149715 18.080655 9.134743" fill="#FFFFFF" /><path d="M660.728184 883.001579h-0.542892c-9.122941-0.76713-23.131908-22.423788-27.203596-29.068311l-1.723091-2.808875 25.775555-12.167855 19.367072 9.783853a2.950498 2.950498 0 0 1 1.321823 3.930064 2.702657 2.702657 0 0 1 0 0.920555c-1.557863 6.963176-7.187414 29.410569-16.994871 29.410569z m-20.960341-29.398767c7.435256 11.530548 16.994871 23.167314 20.913133 23.485968h0.094416c2.926894 0 8.16698-11.518746 10.987656-24.111473l-14.823304-7.494267z" fill="#8BAA1D" /><path d="M683.37621 841.81262s-4.413946-18.812378 1.841111-20.216815 26.719714 11.872806 26.719715 11.872806l-12.321282 11.152884-15.92089-1.734893" fill="#FFFFFF" /><path d="M700.607121 847.690013l-17.254515-1.876517a2.938696 2.938696 0 0 1-2.620042-2.679052 2.808875 2.808875 0 0 1-0.224238-0.64911c-0.5901-2.502023-3.351766-15.342592 0.141624-20.901331a6.196047 6.196047 0 0 1 3.918262-2.867885c6.904166-1.546061 23.922642 9.004921 28.973895 12.285876l3.221944 2.088953z m-14.551858-7.51787l12.557322 1.357229 8.462029-7.647692c-8.745277-5.322699-18.552734-10.008091-21.243589-9.441595-1.333625 0.743526-1.463447 7.98995 0.224238 15.732058z" fill="#8BAA1D" /><path d="M521.37024 890.755489c-3.221944 0-6.479295-0.05901-9.783853-0.200634a5.906898 5.906898 0 1 1 0.507486-11.801994c67.944079 2.926894 117.724889-27.144586 131.356192-36.373745a22.057927 22.057927 0 0 1 16.121524-3.339964l26.318446 4.579173a9.783853 9.783853 0 0 0 8.544644-2.360398l17.809208-18.316695c5.582343-5.735769 14.705284-7.671296 22.695235-4.791609l23.733809 8.532841a5.900997 5.900997 0 0 1-3.989073 11.105676l-23.781018-8.532841c-3.540598-1.298219-7.907336-0.483882-10.244131 1.911923l-17.809209 18.328496a21.597649 21.597649 0 0 1-19.024814 5.759373l-26.330248-4.579173a10.373953 10.373953 0 0 0-7.447058 1.463447c-13.690313 9.347179-62.102092 38.616124-128.67714 38.616124z" fill="#8BAA1D" /></svg>