<?xml version="1.0" standalone="no"?><!DOCTYPE svg PUBLIC "-//W3C//DTD SVG 1.1//EN" "http://www.w3.org/Graphics/SVG/1.1/DTD/svg11.dtd"><svg class="icon" width="48px" height="48.00px" viewBox="0 0 1024 1024" version="1.1" xmlns="http://www.w3.org/2000/svg"><path d="M480.54625 437.511684l44.454975 31.121042L136.269726 1023.769663l-44.429382-31.121041z" fill="#7AEDE5" /><path d="M96.370298 986.352753l75.499238-13.30834 44.019894-62.958687-75.499237 13.308341-44.019895 62.958686zM174.172902 875.279298l75.499238-13.30834 44.019895-62.702757-75.499238 13.30834L174.172902 875.279298zM251.975507 764.205843l75.499237-13.30834 44.019895-62.702757-75.499238 13.308341-44.019894 62.702756zM329.778111 653.132389l75.499238-13.308341 43.763965-62.702756-75.499238 13.30834-43.763965 62.702757zM407.324786 542.058934l75.499237-13.30834 42.228388-60.143461-2.559297-1.791507-71.148434 12.540551-44.019894 62.702757z" fill="#44DCDF" /><path d="M864.159156 209.606358a184.013396 184.013396 0 0 0-179.150733-17.147284 185.293044 185.293044 0 0 0-76.778886-162.259379 151.254405 151.254405 0 0 0-217.028317 39.413161c-37.365724 54.768939-55.536727 131.547824-27.896329 230.336658a695.616705 695.616705 0 0 0 104.931144 204.743695 688.194746 688.194746 0 0 0 227.265502 28.920047 266.166804 266.166804 0 0 0 206.279273-104.675214 150.998475 150.998475 0 0 0-37.621654-219.331684z" fill="#F0A0F2" /><path d="M925.326335 378.263977a147.67139 147.67139 0 0 0-61.167179-168.657619 184.013396 184.013396 0 0 0-179.150733-17.147284 185.293044 185.293044 0 0 0-76.778886-162.259379 151.254405 151.254405 0 0 0-217.028317 39.413161c-37.365724 54.768939-55.536727 131.547824-27.896329 230.336658a440.198945 440.198945 0 0 0 14.843918 43.763965l7.677889 5.886381c186.316763 129.756317 412.046687 137.946065 539.499637 28.664117z" fill="#F5AEF4" /><path d="M479.710939 66.563528m-10.422459 14.884814a18.171003 18.171003 0 1 0 20.844918-29.769628 18.171003 18.171003 0 1 0-20.844918 29.769628Z" fill="#FFFFFF" /><path d="M423.448352 97.253255c15.611707-15.611707 30.711554-10.493114 31.735273 0s-17.403214 15.867636-36.342006 60.399391a764.717703 764.717703 0 0 0-23.033666 81.129689c-5.374522 6.65417-10.493114-41.716528-1.535578-81.897478a131.547824 131.547824 0 0 1 29.175977-59.631602z" fill="#FFFFFF" /><path d="M428.566944 597.083802a321.703532 321.703532 0 0 1 98.021044 0c27.12854 6.65417 41.204669 24.057384 36.342006 47.09105s-29.687836 29.687836-41.972457 48.882557c-18.426933 28.408188-13.30834 37.621654-27.12854 55.536728a34.038639 34.038639 0 0 1-54.768939-2.303367 463.232611 463.232611 0 0 1-57.072305-102.371848zM392.992727 572.258629A320.935743 320.935743 0 0 0 358.442228 480.379896c-15.867636-23.289595-36.853865-30.711554-57.072305-18.171003s-17.659144 38.133513-31.223413 56.304516c-20.47437 25.592962-30.967484 25.592962-43.252106 44.531754a34.294569 34.294569 0 0 0 20.986229 51.185923 465.791907 465.791907 0 0 0 116.192047 18.426933z" fill="#F0A0F2" /><path d="M388.130064 568.931544c10.237185-7.166029 35.830147 7.933818 41.204669 20.474369s-10.237185 25.592962-16.123566 36.597936-7.166029 22.521807-19.194722 27.896328a41.460598 41.460598 0 0 1-43.763964-22.777736c-4.862663-11.516833 11.004974-25.592962 22.009947-38.901302 5.886381-6.9101 6.65417-16.891355 15.867636-23.289595z" fill="#F6DAF7" /></svg>