<?xml version="1.0" standalone="no"?><!DOCTYPE svg PUBLIC "-//W3C//DTD SVG 1.1//EN" "http://www.w3.org/Graphics/SVG/1.1/DTD/svg11.dtd"><svg class="icon" width="48px" height="48.00px" viewBox="0 0 1024 1024" version="1.1" xmlns="http://www.w3.org/2000/svg"><path d="M796.16 808.7552h-10.2912c-36.7616-56.7296-44.6976-103.9872-44.3392-160.256h67.8912c15.4624-0.0512 28.0064-12.4928 28.3136-27.9552 0-0.9728 1.536-110.2336 1.536-238.7968 0-157.3376-83.6096-232.2432-153.7024-267.3664-47.0016-23.04-98.4064-35.84-150.7328-37.5808-3.8912 0-7.7312 0.8192-11.264 2.3552l-140.8 61.3376-10.8544 7.8336c-0.9728 1.0752-1.792 2.2528-2.56 3.4816L163.072 482.4576a28.34432 28.34432 0 0 0 3.9424 35.1232l82.5344 82.688a28.37504 28.37504 0 0 0 35.7376 3.5328l116.8896-78.08 3.6352-0.1536c-1.6896 28.672-8.448 51.8656-32.4608 75.9296-89.9072 90.112-95.232 178.176-92.3648 216.064a69.5808 69.5808 0 0 0-35.584 60.416v5.12c0 38.1952 30.9248 69.1712 69.12 69.2224h481.6384c38.1952-0.0512 69.12-31.0272 69.12-69.2224v-5.12c0-38.1952-30.9248-69.12-69.12-69.2224zM540.2624 133.7344c42.0864 2.56 83.3024 13.4656 121.1904 32 80.384 40.8064 121.1392 113.4592 121.1392 215.9616 0 88.7296-0.7168 167.424-1.1776 210.0736h-37.5296c0.512-8.192 1.0752-16.5888 1.6384-25.344l0.0512-0.8704c2.9184-42.9056 6.2464-91.5456 6.2464-150.7328 0-86.8864-27.5968-155.3408-82.0736-203.4688-38.8096-34.304-89.7024-57.1392-151.6032-67.9936l22.1184-9.6256z m-126.8736 507.8528c43.2128-43.3152 48.7424-87.9616 49.4592-126.8736 22.5792-8.0896 42.3936-22.3232 57.1904-41.1648 46.1312-59.1872 25.4976-144.64 24.576-148.2752a28.288 28.288 0 0 0-34.304-20.5824 28.28288 28.28288 0 0 0-20.6336 34.304c0.1536 0.6144 14.5408 62.6688-14.2848 99.6864-15.7696 20.224-43.3664 30.464-82.0224 30.464-5.5808 0-11.0592 1.6384-15.7184 4.7616l-104.448 69.7856-50.176-50.2784 5.5808-8.9088a28.27776 28.27776 0 0 0 28.0576-28.5696 28.5184 28.5184 0 0 0-2.7648-11.9808l155.9552-250.0608c24.7296-1.4848 81.0496-2.3552 137.0624 14.5408 30.208 9.0624 60.3648 23.3472 85.3504 45.4144 41.728 36.864 62.8736 91.0848 62.8736 160.9728 0 45.0048-1.9968 84.0704-4.2496 119.1936-0.5632 9.5744-1.1776 18.7904-1.792 27.8016-6.2976 92.7744-10.9056 160.8192 26.624 238.0288H431.872c0.5632-33.7408 12.3392-94.1056 76.3904-158.2592a28.43136 28.43136 0 0 0 0-40.1408 28.54912 28.54912 0 0 0-20.0192-8.2944c-7.5264 0-14.7456 2.9696-20.0192 8.3456-78.1824 78.2848-92.16 155.5456-92.8256 198.3488h-38.3488c0.6656-33.8432 12.4928-94.3104 76.3392-158.2592z m395.264 241.5104c0 6.912-5.5808 12.4928-12.4928 12.4928H314.5216c-6.912 0-12.4928-5.5808-12.4928-12.4928v-5.12c0-6.8608 5.5808-12.4928 12.4928-12.4928h481.6384c6.912 0.0512 12.4416 5.632 12.4928 12.4928v5.12z" fill="#3D3D3D" /><path d="M404.224 309.5552a28.32896 28.32896 0 0 0-39.7312 4.864l-9.5232 12.2368c-9.6256 12.3392-7.424 30.1568 4.864 39.8336a28.32896 28.32896 0 0 0 39.7312-4.8128l0.0512-0.0512 9.5232-12.2368a28.45696 28.45696 0 0 0-4.9152-39.8336z" fill="#337DFF" /></svg>