<?xml version="1.0" standalone="no"?><!DOCTYPE svg PUBLIC "-//W3C//DTD SVG 1.1//EN" "http://www.w3.org/Graphics/SVG/1.1/DTD/svg11.dtd"><svg class="icon" width="48px" height="48.00px" viewBox="0 0 1024 1024" version="1.1" xmlns="http://www.w3.org/2000/svg"><path d="M595.1 968.1l2.3-74-85.4 48.6-360.4-205.2 113.7-64.7L512 813.3l65.3-37.2c2-35 12.8-69.2 31.3-99.2l-96.7 55-360.3-205.1L298.8 443 512 561.9 725.2 443l147.2 83.7-88.3 50.3c24.6-0.5 49.2 3.4 72.8 11.5 9.7 3.4 19.2 7.5 28.3 12.2l130.1-74-217.9-124 218.4-121.9L512 0 8.2 280.9l218.3 121.9-217.7 124 185.1 105.3L8.8 737.5 512 1024" fill="#ffffff" /><path d="M759.9 604.1C739 607.3 719 614 700.3 624c-37.5 20.1-67.2 52.6-83.6 91.6-3.6 8.4 0.4 18.1 8.8 21.7 8.4 3.6 18.1-0.4 21.7-8.8 28.1-66.8 100.1-104.8 171.2-90.4 54.5 11.1 98.1 50.5 115 102.5l-29.3 1 49.9 80 44.3-83.2-30.8 1.1c-8.4-31-24.6-59.2-47.2-82.2-26-26.3-59-44.2-95.4-51.6-21.5-4.3-43.4-4.9-65-1.6zM577.6 837.5l30.8-1c8.4 31 24.6 59.2 47.2 82.2 26 26.3 59 44.2 95.4 51.6 14.2 2.9 28.5 4.1 42.8 3.7 7.4-0.2 14.9-0.9 22.3-2 20.9-3.2 40.9-9.9 59.5-19.8 37.5-20 67.2-52.6 83.7-91.5 3.6-8.4-0.4-18.1-8.8-21.7-8.4-3.6-18.1 0.4-21.7 8.8-28.1 66.6-100.1 104.5-171.2 90.2-54.5-11.1-98.1-50.5-115-102.5l29.3-1-49.9-80-44.4 83z" fill="#ffffff" /></svg>