<?xml version="1.0" standalone="no"?><!DOCTYPE svg PUBLIC "-//W3C//DTD SVG 1.1//EN" "http://www.w3.org/Graphics/SVG/1.1/DTD/svg11.dtd"><svg class="icon" width="48px" height="48.00px" viewBox="0 0 1024 1024" version="1.1" xmlns="http://www.w3.org/2000/svg"><path d="M913.6 337.3H750.3v101.4h163.3V337.3z m0 129H750.3v101.4h163.3V466.3z m0-258H750.3v101.4h163.3V208.3z m0 511.4H750.3v101.4h163.3V719.7z m75.1-612.8H595.9c-4.7 0-9.2 1-13.3 2.7V0L0 116.1v791.8L582.6 1024V919.9c4.2 1.8 8.7 2.7 13.3 2.7h392.8c19.5 0 35.3-16.6 35.3-36.9v-742c0-20.3-15.8-36.8-35.3-36.8z m-595.9 576l-70.6-4.6-52.9-133.7-57.4 124.5-66.3-4.6 83.9-152.1-75-165.9 66.2-4.6 44.1 124.4h8.8l48.6-133.7 70.6-4.6-88.2 175.1 88.2 179.8z m587.1 193.6H582.6v-55.3H715V719.8H582.6v-23H715V595.4H582.6v-27.6H715V466.3H582.6v-27.7H715V337.3H582.6v-27.6H715V208.2H582.6v-55.3h397.3v723.6z m-66.3-281.1H750.3v101.4h163.3V595.4z" fill="#ffffff" /></svg>