<?xml version="1.0" standalone="no"?><!DOCTYPE svg PUBLIC "-//W3C//DTD SVG 1.1//EN" "http://www.w3.org/Graphics/SVG/1.1/DTD/svg11.dtd"><svg class="icon" width="32px" height="32.00px" viewBox="0 0 1024 1024" version="1.1" xmlns="http://www.w3.org/2000/svg"><path d="M595.426 150.376a56.889 56.889 0 0 1 5.22 23.807v784.72c0 31.42-25.47 56.89-56.888 56.89H216.42c-31.419 0-56.889-25.47-56.889-56.89V325.006a56.889 56.889 0 0 1 33.083-51.668L519.95 122.514c28.536-13.148 62.327-0.674 75.475 27.862zM515.3 218.567L244.85 343.211v587.207H515.3v-711.85z" fill="#333333" /><path d="M518.055 231.967v726.937c0 31.419 25.47 56.889 56.889 56.889h219.015c31.42 0 56.89-25.47 56.89-56.89V434.919a56.889 56.889 0 0 0-31.26-50.789L518.055 231.967z m85.351 138.607l162.133 81.806v478.038H603.406V370.574z" fill="#333333" /><path d="M943.925 929.125c23.564 0 42.667 19.102 42.667 42.666 0 21.6-16.051 39.452-36.877 42.277l-5.79 0.39H66.455c-23.564 0-42.667-19.103-42.667-42.667 0-21.6 16.052-39.452 36.877-42.277l5.79-0.39h877.47z" fill="#333333" /><path d="M431.67 414.036c21.601 0 39.453 16.052 42.278 36.877l0.39 5.79v197.513c0 23.564-19.103 42.667-42.667 42.667-21.6 0-39.452-16.051-42.278-36.877l-0.39-5.79V456.703c0-23.564 19.103-42.667 42.668-42.667z" fill="#EF502F" /></svg>