<?xml version="1.0" standalone="no"?><!DOCTYPE svg PUBLIC "-//W3C//DTD SVG 1.1//EN" "http://www.w3.org/Graphics/SVG/1.1/DTD/svg11.dtd"><svg class="icon" width="48px" height="48.00px" viewBox="0 0 1024 1024" version="1.1" xmlns="http://www.w3.org/2000/svg"><path d="M310.231116 0m133.42599 0l82.501738 0q133.42599 0 133.42599 133.42599l0 22.57123q0 133.42599-133.42599 133.425991l-82.501738 0q-133.42599 0-133.42599-133.425991l0-22.57123q0-133.42599 133.42599-133.42599Z" fill="#4169E1" /><path d="M310.231116 734.576789m133.42599 0l82.501738 0q133.42599 0 133.42599 133.425991l0 22.57123q0 133.42599-133.42599 133.42599l-82.501738 0q-133.42599 0-133.42599-133.42599l0-22.57123q0-133.42599 133.42599-133.425991Z" fill="#4169E1" /><path d="M569.477815 292.069493a133.42599 133.42599 0 0 1 133.42599 133.42599v173.009034a133.42599 133.42599 0 0 1-133.42599 133.42599H400.315897a133.42599 133.42599 0 0 1-133.42599-133.42599v-173.009034a133.42599 133.42599 0 0 1 133.42599-133.42599h169.161918m0-88.95066H400.315897a222.621265 222.621265 0 0 0-222.37665 222.37665v173.009034a222.621265 222.621265 0 0 0 222.37665 222.37665h169.161918a222.621265 222.621265 0 0 0 222.376651-222.37665v-173.009034a222.621265 222.621265 0 0 0-222.376651-222.37665z" fill="#0D0A16" /><path d="M482.750921 545.890202a22.237665 22.237665 0 0 1-22.237665-22.237666v-140.097289a22.237665 22.237665 0 1 1 44.475331 0v140.097289a22.237665 22.237665 0 0 1-22.237666 22.237666z" fill="#0D0A16" /><path d="M582.820414 545.890202h-100.069493a22.237665 22.237665 0 0 1 0-44.475331h100.069493a22.237665 22.237665 0 0 1 0 44.475331z" fill="#0D0A16" /></svg>