<?xml version="1.0" standalone="no"?><!DOCTYPE svg PUBLIC "-//W3C//DTD SVG 1.1//EN" "http://www.w3.org/Graphics/SVG/1.1/DTD/svg11.dtd"><svg class="icon" width="48px" height="48.00px" viewBox="0 0 1024 1024" version="1.1" xmlns="http://www.w3.org/2000/svg"><path d="M853.57 160.44c-21.27-25.61-52.78-40.43-86.02-40.44H256.47c-33.25-0.01-64.78 14.81-86.07 40.44L64 288.5h896L853.57 160.44z" fill="#2c2c2c" /><path d="M245.69 532.31l95.2-95.12c13.43-13.41 35.21-13.4 48.63 0.02 13.43 13.41 13.42 35.15-0.01 48.57l-38.74 38.67h294.96c75.96 0 137.52 61.49 137.52 137.36 0 75.86-61.56 137.36-137.52 137.36H542.6c-18.99 0-34.38-15.37-34.38-34.35 0-18.96 15.38-34.33 34.38-34.33h103.24c37.98-0.02 68.73-30.79 68.71-68.73-0.03-37.93-30.84-68.65-68.82-68.63H351.14l38.37 38.32c13.43 13.41 13.44 35.16 0.01 48.58-13.42 13.41-35.2 13.42-48.63 0.01l-93.65-93.54a33.949 33.949 0 0 1-6.31-5.96c-12.02-14.64-9.89-36.23 4.76-48.23zM64 792.13c0 61.78 50.15 111.86 112 111.86h672c61.86 0 112-50.08 112-111.86V344.66H64v447.47z" fill="#4169E1" /></svg>