<?xml version="1.0" standalone="no"?><!DOCTYPE svg PUBLIC "-//W3C//DTD SVG 1.1//EN" "http://www.w3.org/Graphics/SVG/1.1/DTD/svg11.dtd"><svg class="icon" width="32px" height="32.00px" viewBox="0 0 1024 1024" version="1.1" xmlns="http://www.w3.org/2000/svg"><path d="M817.539 384c31.419 0 56.889 25.47 56.889 56.889v440.889c0 31.419-25.47 56.889-56.89 56.889H589.984c-31.419 0-56.889-25.47-56.889-56.89V440.89c0-31.419 25.47-56.889 56.89-56.889h227.555z m-28.49 85.333H618.382v384H789.05v-384zM433.778 85.333c31.419 0 56.889 25.47 56.889 56.89V583.11c0 31.419-25.47 56.889-56.89 56.889H206.223c-31.419 0-56.889-25.47-56.889-56.889V142.222c0-31.419 25.47-56.889 56.89-56.889h227.555z m-28.445 85.334H234.667v384h170.666v-384zM817.539 85.333c31.419 0 56.889 25.47 56.889 56.89v142.221c0 31.42-25.47 56.89-56.89 56.89H589.984c-31.419 0-56.889-25.47-56.889-56.89V142.222c0-31.419 25.47-56.889 56.89-56.889h227.555z m-28.49 85.334H618.382V256H789.05v-85.333z" fill="#333333" /><path d="M433.778 682.667c31.419 0 56.889 25.47 56.889 56.889v142.222c0 31.419-25.47 56.889-56.89 56.889H206.223c-31.419 0-56.889-25.47-56.889-56.89V739.557c0-31.42 25.47-56.89 56.89-56.89h227.555zM405.333 768H234.667v85.333h170.666V768z" fill="#EF502F" /></svg>