<?xml version="1.0" standalone="no"?><!DOCTYPE svg PUBLIC "-//W3C//DTD SVG 1.1//EN" "http://www.w3.org/Graphics/SVG/1.1/DTD/svg11.dtd"><svg class="icon" width="32px" height="32.00px" viewBox="0 0 1024 1024" version="1.1" xmlns="http://www.w3.org/2000/svg"><path d="M881.778 61.551c31.419 0 56.889 25.47 56.889 56.89V905.56c0 31.419-25.47 56.889-56.89 56.889h-705.22c-31.418 0-56.888-25.47-56.888-56.89V118.44c0-31.419 25.47-56.889 56.889-56.889h705.22z m-28.445 85.28H204.971v730.282h648.362V146.83z" fill="#333333" /><path d="M411.814 104.927V920.9h-85.333V104.927z" fill="#333333" /><path d="M742.521 230.829c29.175 0 53.22 21.961 56.506 50.254l0.383 6.635v207.27c0 31.419-25.47 56.889-56.889 56.889-29.175 0-53.22-21.962-56.506-50.255l-0.383-6.634v-207.27c0-31.42 25.47-56.89 56.889-56.89z" fill="#EF502F" /><path d="M242.23 223.634c23.563 0 42.666 19.103 42.666 42.667 0 21.6-16.052 39.452-36.877 42.277l-5.79 0.39H73.891c-23.564 0-42.666-19.103-42.666-42.667 0-21.6 16.051-39.452 36.877-42.278l5.79-0.389h168.337zM242.23 469.333c23.563 0 42.666 19.103 42.666 42.667 0 21.6-16.052 39.452-36.877 42.277l-5.79 0.39H73.891c-23.564 0-42.666-19.103-42.666-42.667 0-21.6 16.051-39.452 36.877-42.277l5.79-0.39h168.337zM242.23 715.033c23.563 0 42.666 19.102 42.666 42.666 0 21.6-16.052 39.452-36.877 42.278l-5.79 0.389H73.891c-23.564 0-42.666-19.103-42.666-42.667 0-21.6 16.051-39.452 36.877-42.277l5.79-0.39h168.337z" fill="#333333" /></svg>