<?xml version="1.0" standalone="no"?><!DOCTYPE svg PUBLIC "-//W3C//DTD SVG 1.1//EN" "http://www.w3.org/Graphics/SVG/1.1/DTD/svg11.dtd"><svg class="icon" width="48px" height="48.00px" viewBox="0 0 1024 1024" version="1.1" xmlns="http://www.w3.org/2000/svg"><path d="M506.4704 280.32m-205.7216 0a205.7216 205.7216 0 1 0 411.4432 0 205.7216 205.7216 0 1 0-411.4432 0Z" fill="#4169E1" /><path d="M506.4704 511.6416c-127.5392 0-231.3216-103.7824-231.3216-231.3216S378.9312 48.9472 506.4704 48.9472s231.3216 103.7824 231.3216 231.3216-103.7312 231.3728-231.3216 231.3728z m0-411.4944c-99.328 0-180.1216 80.7936-180.1216 180.1216s80.7936 180.1216 180.1216 180.1216 180.1216-80.7936 180.1216-180.1216-80.7936-180.1216-180.1216-180.1216zM750.2336 961.9456h-474.624c-119.04 0-215.9104-96.8704-215.9104-215.9104s96.8704-215.9104 215.9104-215.9104h474.624c39.936 0 78.9504 11.008 112.7936 31.7952a25.66144 25.66144 0 0 1 8.448 35.2256c-7.424 12.032-23.1936 15.8208-35.2256 8.448a164.49536 164.49536 0 0 0-86.016-24.2176h-474.624c-90.8288 0-164.7104 73.8816-164.7104 164.7104s73.8816 164.7104 164.7104 164.7104h474.624c90.8288 0 164.7104-73.8816 164.7104-164.7104 0-14.1312 11.4688-25.6 25.6-25.6s25.6 11.4688 25.6 25.6c0 118.9888-96.8192 215.8592-215.9104 215.8592z" fill="#44454A" /><path d="M915.6096 677.2736c-8.9088 0-17.5104-4.608-22.2208-12.9024-1.8432-3.1744-3.7376-6.3488-5.7344-9.3184-7.8336-11.776-4.608-27.648 7.168-35.4816 11.776-7.8336 27.648-4.608 35.4816 7.168 2.6112 3.9424 5.1712 8.0384 7.5264 12.2368 7.0144 12.288 2.7648 27.904-9.5232 34.9184-4.0448 2.304-8.3968 3.3792-12.6976 3.3792z" fill="#44454A" /></svg>