<?xml version="1.0" standalone="no"?><!DOCTYPE svg PUBLIC "-//W3C//DTD SVG 1.1//EN" "http://www.w3.org/Graphics/SVG/1.1/DTD/svg11.dtd"><svg class="icon" width="48px" height="48.00px" viewBox="0 0 1024 1024" version="1.1" xmlns="http://www.w3.org/2000/svg"><path d="M704.2048 957.5424H330.1376c-127.0272 0-230.4-103.3728-230.4-230.4V304.4864c0-127.0272 103.3728-230.4 230.4-230.4h374.016c127.0272 0 230.4 103.3728 230.4 230.4 0 14.1312-11.4688 25.6-25.6 25.6s-25.6-11.4688-25.6-25.6c0-98.816-80.384-179.2-179.2-179.2H330.1376c-98.816 0-179.2 80.384-179.2 179.2v422.656c0 98.816 80.384 179.2 179.2 179.2h374.016c98.816 0 179.2-80.384 179.2-179.2V466.7904c0-14.1312 11.4688-25.6 25.6-25.6s25.6 11.4688 25.6 25.6v260.352c0.0512 127.0272-103.3216 230.4-230.3488 230.4z" fill="#44454A" /><path d="M909.0048 418.4576c-14.1312 0-25.6-11.4688-25.6-25.6V378.368c0-14.1312 11.4688-25.6 25.6-25.6s25.6 11.4688 25.6 25.6v14.4896c0 14.1312-11.4688 25.6-25.6 25.6z" fill="#44454A" /><path d="M330.1376 99.6864c-23.808 0-46.6432 4.096-67.8912 11.5712v272.4352c0 26.0608 25.6 40.8576 43.4176 25.1392l68.4032-60.4672c9.7792-8.6528 23.296-8.5504 32.9728 0.256l64.8704 58.88c17.7664 16.128 43.6736 1.3824 43.6736-24.8832V99.6864H330.1376z" fill="#4169E1" /><path d="M289.3312 440.832c-6.8096 0-13.7216-1.4336-20.2752-4.4032-19.712-8.8576-32.4096-29.5936-32.4096-52.7872v-272.384c0-10.8544 6.8608-20.5312 17.1008-24.1664 24.576-8.6528 50.2784-13.0048 76.3904-13.0048h185.3952c14.1312 0 25.6 11.4688 25.6 25.6v282.9312c0 23.3472-12.8512 44.1344-32.7168 52.9408-18.1248 8.0384-38.7072 4.5568-53.76-9.0624L390.4 368.128 322.56 427.9808c-9.5744 8.4992-21.3504 12.8512-33.2288 12.8512z m-1.4848-310.528v253.3376c0 2.7648 0.8192 4.4544 1.4848 5.376l67.7888-59.8528c19.5584-17.2544 47.7696-17.0496 67.1232 0.4608l64.2048 58.368c0.6656-0.8704 1.4848-2.56 1.4848-5.376V125.2864H330.1376c-14.336 0-28.4672 1.6896-42.2912 5.0176zM737.7408 810.4448h-160.5632c-14.1312 0-25.6-11.4688-25.6-25.6s11.4688-25.6 25.6-25.6h160.5632c14.1312 0 25.6 11.4688 25.6 25.6s-11.4688 25.6-25.6 25.6z" fill="#44454A" /></svg>