<?xml version="1.0" standalone="no"?><!DOCTYPE svg PUBLIC "-//W3C//DTD SVG 1.1//EN" "http://www.w3.org/Graphics/SVG/1.1/DTD/svg11.dtd"><svg class="icon" width="32px" height="32.00px" viewBox="0 0 1024 1024" version="1.1" xmlns="http://www.w3.org/2000/svg"><path d="M405.333 359.034c-82.3 0-149.016 66.717-149.016 149.016 0 82.3 66.717 149.017 149.016 149.017 82.3 0 149.017-66.717 149.017-149.017s-66.717-149.016-149.017-149.016z m0 85.333c35.172 0 63.684 28.512 63.684 63.683s-28.512 63.683-63.684 63.683c-35.17 0-63.683-28.512-63.683-63.683s28.512-63.683 63.683-63.683z" fill="#EF502F" /><path d="M450.387 704H360.28c-54.983 0-99.556 44.573-99.556 99.556v120.888c0 54.983 44.573 99.556 99.556 99.556h90.107c54.983 0 99.555-44.573 99.555-99.556V803.556c0-54.983-44.572-99.556-99.555-99.556z m-90.107 85.333h90.107c7.854 0 14.222 6.368 14.222 14.223v120.888c0 7.855-6.368 14.223-14.222 14.223H360.28c-7.855 0-14.222-6.368-14.222-14.223V803.556c0-7.855 6.367-14.223 14.222-14.223zM881.778 469.333h-99.556c-54.983 0-99.555 44.573-99.555 99.556V1024h199.11c54.984 0 99.556-44.573 99.556-99.556V568.89c0-54.983-44.572-99.556-99.555-99.556z m-99.556 85.334h99.556c7.854 0 14.222 6.367 14.222 14.222v355.555l-0.376 3.261c-1.474 6.283-7.114 10.962-13.846 10.962H768V568.889c0-7.855 6.368-14.222 14.222-14.222z" fill="#333333" /><path d="M350.133 70.868L87 246.277a99.556 99.556 0 0 0-44.334 82.837v595.33c0 54.983 44.572 99.556 99.555 99.556h526.222c54.983 0 99.556-44.573 99.556-99.556V329.111a99.556 99.556 0 0 0-44.33-82.833L460.58 70.872c-33.44-22.295-77.006-22.296-110.447-0.004z m63.11 71.004l263.09 175.406a14.222 14.222 0 0 1 6.334 11.833v595.333c0 7.855-6.368 14.223-14.223 14.223H142.222c-7.854 0-14.222-6.368-14.222-14.223v-595.33c0-4.756 2.377-9.196 6.334-11.834l263.131-175.409a14.222 14.222 0 0 1 15.778 0z" fill="#333333" /></svg>