<?xml version="1.0" standalone="no"?><!DOCTYPE svg PUBLIC "-//W3C//DTD SVG 1.1//EN" "http://www.w3.org/Graphics/SVG/1.1/DTD/svg11.dtd"><svg class="icon" width="32px" height="32.00px" viewBox="0 0 1024 1024" version="1.1" xmlns="http://www.w3.org/2000/svg"><path d="M903.111 44.91C934.53 44.91 960 70.38 960 101.8V244.02c0 31.42-25.47 56.89-56.889 56.89H120.89C89.47 300.91 64 275.44 64 244.02V101.8C64 70.38 89.47 44.91 120.889 44.91H903.11z m-28.444 85.309H149.333v85.333h725.334v-85.333z" fill="#333333" /><path d="M867.751 214.719v563.398a56.889 56.889 0 0 1-31.122 50.719l-302.677 153.77a56.889 56.889 0 0 1-51.158 0.188L173.915 828.735a56.889 56.889 0 0 1-31.497-50.908V214.719h725.333z m-85.358 85.313H227.726v460.174L508.075 900.04l274.318-139.378V300.032z" fill="#333333" /><path d="M505.817 634.648l-91.138 43.048 26.771-95.469-85.699-77.759H463.28l42.538-102.654L548.9 504.468h105.518l-87.333 77.76 34.112 95.468z" fill="#E85336" /></svg>