<?xml version="1.0" standalone="no"?><!DOCTYPE svg PUBLIC "-//W3C//DTD SVG 1.1//EN" "http://www.w3.org/Graphics/SVG/1.1/DTD/svg11.dtd"><svg class="icon" width="48px" height="48.00px" viewBox="0 0 1024 1024" version="1.1" xmlns="http://www.w3.org/2000/svg"><path d="M544.420645 746.324475L444.235185 833.108291c-25.005506 21.573378-71.012369 21.573378-95.936159 0L248.031849 746.324475c-41.267257-35.710478-63.821243-80.736733-63.821243-127.152182l4.004149-67.907111h424.113l-4.00415 67.907111c0 46.41545-22.635703 91.441705-63.90296 127.152182z" fill="#4169E1" /><path d="M396.267106 882.383848c-26.803288 0-51.563642-8.580321-69.623175-24.27005L226.376754 771.329982c-48.458383-42.002713-75.261671-95.936158-75.261671-151.994255l-5.393345-488.179395h490.304046l5.393345 487.934243c0 56.139813-26.721571 110.154976-75.343389 152.239407L465.89028 858.113798c-18.14125 15.608012-42.819887 24.27005-69.623174 24.27005zM212.64824 197.347379l4.657889 421.579762v0.163434c0 36.609369 18.631554 72.891868 52.380815 102.146677l100.267178 86.783816c12.502753 10.868406 40.123214 10.868406 52.707685 0l100.18546-86.702099c33.749262-29.254808 52.380816-65.45559 52.462533-101.983242l-4.657889-421.988348H212.64824z" fill="#27282A" /><path d="M371.751903 274.7337h242.537068v66.191047H371.751903zM368.238058 541.213949h242.537068v66.191047H368.238058zM367.666036 408.014684h242.537068v66.191046H367.666036zM361.128649 846.428218h66.191046v177.571782h-66.191046z" fill="#27282A" /><path d="M812.616958 690.511531h-66.191046V66.109329H334.897382V0h477.719576z" fill="#27282A" /></svg>