<?xml version="1.0" standalone="no"?><!DOCTYPE svg PUBLIC "-//W3C//DTD SVG 1.1//EN" "http://www.w3.org/Graphics/SVG/1.1/DTD/svg11.dtd"><svg class="icon" width="32px" height="32.00px" viewBox="0 0 1024 1024" version="1.1" xmlns="http://www.w3.org/2000/svg"><path d="M866.295 80.499c21.6 0 39.452 16.051 42.278 36.877l0.389 5.79V461.44h-85.333l-0.049-295.609H213.902l0.045 298.668h-85.333V123.165c0-21.6 16.051-39.452 36.877-42.277l5.79-0.39h695.014z" fill="#333333" /><path d="M977.032 449.683a56.889 56.889 0 0 1 4.301 21.7v444.934c0 31.42-25.47 56.89-56.889 56.89H99.556c-31.42 0-56.89-25.47-56.89-56.89v-444.63c0-31.42 25.47-56.89 56.89-56.89a56.889 56.889 0 0 1 21.873 4.373l344.85 143.634a113.778 113.778 0 0 0 87.148 0.143l349.317-144.15c29.043-11.986 62.303 1.842 74.288 30.886zM896 513.877l-310.022 127.95a199.113 199.113 0 0 1-140.193 4.409l-12.317-4.659L128 514.332v373.533h768V513.877z" fill="#333333" /><path d="M639.703 298.768c23.564 0 42.667 19.102 42.667 42.666 0 21.6-16.052 39.452-36.877 42.277l-5.79 0.39h-241.83c-23.564 0-42.667-19.103-42.667-42.667 0-21.6 16.052-39.452 36.877-42.277l5.79-0.39h241.83z" fill="#EF502F" /></svg>