<?xml version="1.0" standalone="no"?><!DOCTYPE svg PUBLIC "-//W3C//DTD SVG 1.1//EN" "http://www.w3.org/Graphics/SVG/1.1/DTD/svg11.dtd"><svg class="icon" width="48px" height="48.00px" viewBox="0 0 1024 1024" version="1.1" xmlns="http://www.w3.org/2000/svg"><path d="M234.968839 234.968839m-232.067989 0a232.067989 232.067989 0 1 0 464.135977 0 232.067989 232.067989 0 1 0-464.135977 0Z" fill="#4169E1" /><path d="M512 0C229.167139 0 0 229.167139 0 512S229.167139 1024 512 1024c116.033994 0 228.877054-39.451558 319.383569-111.972805l91.666856 91.666856c22.626629 22.626629 59.467422 22.626629 82.094051 0s22.626629-59.467422 0-82.094051L913.187535 829.643059c175.501416-221.624929 138.080453-543.619263-83.544476-719.120679C739.426629 38.871388 627.453824 0 512 0z m0 907.966006C293.275921 907.966006 116.033994 730.724079 116.033994 512 115.743909 293.566006 292.985836 116.033994 511.709915 116.033994S907.675921 293.275921 907.966006 512c0 105.010765-41.772238 205.670255-116.033995 279.932011-73.971671 74.551841-174.921246 116.324079-279.932011 116.033995z" fill="#0D0A16" /></svg>