<?xml version="1.0" standalone="no"?><!DOCTYPE svg PUBLIC "-//W3C//DTD SVG 1.1//EN" "http://www.w3.org/Graphics/SVG/1.1/DTD/svg11.dtd"><svg class="icon" width="48px" height="48.00px" viewBox="0 0 1024 1024" version="1.1" xmlns="http://www.w3.org/2000/svg"><path d="M780.305178 676.217396m-201.277641 0a201.277641 201.277641 0 1 0 402.555282 0 201.277641 201.277641 0 1 0-402.555282 0Z" fill="#4169E1" /><path d="M728.451026 425.903489V852.914005a70.447174 70.447174 0 0 1-70.447175 70.447174H213.457021a70.447174 70.447174 0 0 1-70.447175-70.447174V425.903489h585.44118m100.63882-100.638821H42.371026V852.914005a171.262113 171.262113 0 0 0 171.085995 171.085995h444.54683a171.262113 171.262113 0 0 0 171.085995-171.085995V325.264668z" fill="#0D0A16" /><path d="M201.204244 264.000786a50.31941 50.31941 0 0 1-50.31941-50.31941c0-60.534251 29.537494-92.487076 51.099361-115.734644C220.099183 78.246683 226.363949 70.447174 226.363949 50.31941a50.31941 50.31941 0 0 1 100.638821 0c0 60.534251-29.537494 92.487076-51.099361 115.734644-18.114988 19.59941-24.379754 27.398919-24.379754 47.526683a50.31941 50.31941 0 0 1-50.319411 50.420049z" fill="#0D0A16" /><path d="M415.489453 264.000786a50.31941 50.31941 0 0 1-50.31941-50.31941c0-60.534251 29.537494-92.487076 51.099361-115.734644C434.384392 78.246683 440.649158 70.447174 440.649158 50.31941a50.31941 50.31941 0 0 1 100.638821 0c0 60.534251-29.537494 92.487076-51.099361 115.734644-18.114988 19.59941-24.379754 27.398919-24.379755 47.526683a50.31941 50.31941 0 0 1-50.31941 50.420049z" fill="#0D0A16" /><path d="M629.774662 264.000786a50.31941 50.31941 0 0 1-50.31941-50.31941c0-60.534251 29.537494-92.487076 51.099361-115.734644C648.71992 78.246683 654.934367 70.447174 654.934367 50.31941a50.31941 50.31941 0 1 1 100.638821 0c0 60.534251-29.537494 92.487076-51.099361 115.734644-18.114988 19.59941-24.379754 27.398919-24.379755 47.526683a50.31941 50.31941 0 0 1-50.31941 50.420049z" fill="#0D0A16" /></svg>