<?xml version="1.0" standalone="no"?><!DOCTYPE svg PUBLIC "-//W3C//DTD SVG 1.1//EN" "http://www.w3.org/Graphics/SVG/1.1/DTD/svg11.dtd"><svg class="icon" width="48px" height="48.00px" viewBox="0 0 1024 1024" version="1.1" xmlns="http://www.w3.org/2000/svg"><path d="M544.236155 912.868217c80.570543-46.992868 150.774078-92.032992 203.799814-144.209364 53.033674-52.168434 74.807566-103.868527 74.807566-170.428527V440.923287c0-31.958326-10.065364-50.882481-48.580465-65.543938C676.911628 340.75386 609.176806 303.26276 544.228217 254.015504c-59.598388 49.247256-132.691349 86.738357-230.018977 121.355907-38.523039 14.669395-48.588403 33.577674-48.588403 65.543938v157.322915c0 66.552062 21.765953 118.252155 74.807566 170.428527C393.462078 820.827287 465.165891 865.851535 544.228217 912.868217z" fill="#FFCB01" /><path d="M503.744496 940.159008a31.751938 31.751938 0 0 0 32.228217 0.134945C636.086574 881.910078 723.150388 825.709147 789.043597 760.863752c71.203721-70.060651 100.066233-139.645023 100.066232-229.010853V341.333333c0-26.846264-5.286698-47.92955-17.590573-65.647131-11.811721-17.019039-30.664434-31.593178-61.694016-43.412838l-0.658852-0.238139c-114.243473-40.634543-193.790016-84.539535-270.026419-142.351876a31.751938 31.751938 0 0 0-39.412093 0.82555c-69.639938 57.558326-155.211411 101.066419-268.962729 141.518388l-0.66679 0.246077c-31.029581 11.827597-49.874357 26.393798-61.67814 43.4049C156.100465 293.411721 150.821705 314.502946 150.821705 341.333333v190.511628c0 89.381705 28.854574 158.95814 100.074171 229.018791 65.837643 64.781891 154.687504 120.935194 252.840682 179.295256z m16.360186-64.178605C433.136124 823.938977 354.415132 773.635969 295.427969 715.609302 238.195101 659.29724 214.325581 603.683721 214.325581 531.844961V341.333333c0-11.883163 0.809674-21.58338 6.255132-29.434046 5.889984-8.477767 16.288744-14.201054 31.656682-20.083101C363.797829 252.094512 449.702698 209.197643 520.652403 154.997085c75.133023 54.319628 155.465426 97.08155 266.922667 136.747659 15.431442 5.897922 25.877829 11.637085 31.791628 20.146605 5.453395 7.858605 6.255132 17.550884 6.255131 29.434046v190.511628c0 71.822884-23.869519 127.452279-81.102387 183.764341-58.979225 58.010791-136.11262 108.353488-224.398884 160.371101z"  /></svg>