<?xml version="1.0" standalone="no"?><!DOCTYPE svg PUBLIC "-//W3C//DTD SVG 1.1//EN" "http://www.w3.org/Graphics/SVG/1.1/DTD/svg11.dtd"><svg class="icon" width="48px" height="48.00px" viewBox="0 0 1024 1024" version="1.1" xmlns="http://www.w3.org/2000/svg"><path d="M822.134589 479.237139c-26.724216 0.256964-49.337014 19.529235-53.962359 45.739523-25.439398 141.329987-160.602258 235.635634-301.932246 210.196236-107.153827-19.272271-190.923965-103.042409-210.196236-210.196236-4.625345-26.210289-27.238143-45.739523-53.962359-45.739523C171.759683 479.237139 147.34814 503.648683 147.34814 533.970389c0 3.083563 0.256964 6.42409 0.77089 9.507654C175.614137 698.684065 298.699708 819.456964 454.676621 844.382434v123.599498c0 29.807779 23.126725 54.990213 52.677541 56.018068h2.055709c30.321706 0 54.73325-24.411543 54.73325-54.73325v-124.113425c158.032622-22.869762 283.944793-144.413551 311.953827-301.675282 5.139272-29.807779-14.646926-58.073777-44.454706-63.470013-3.340527-0.513927-6.42409-0.770891-9.507653-0.770891z" fill="#0D0A16" /><path d="M507.868089 0c103.299373 0 187.069511 83.770138 187.069511 187.069511v283.944793c0 103.299373-83.770138 187.069511-187.069511 187.06951-103.299373 0-187.069511-83.770138-187.06951-187.06951V187.069511C320.798579 83.770138 404.568717 0 507.868089 0z" fill="#4169E1" /></svg>