<?xml version="1.0" standalone="no"?><!DOCTYPE svg PUBLIC "-//W3C//DTD SVG 1.1//EN" "http://www.w3.org/Graphics/SVG/1.1/DTD/svg11.dtd"><svg class="icon" width="48px" height="48.00px" viewBox="0 0 1024 1024" version="1.1" xmlns="http://www.w3.org/2000/svg"><path d="M377.244775 301.968868l-154.997085 200.672248 321.837643 352.136931 321.77414-352.470326-154.997085-200.672248-333.617613 0.333395z" fill="#FFCB01" /><path d="M703.337178 396.48645a30.275473 30.275473 0 0 0-42.626976 2.492527l-7.112435 7.969736c-19.702078 21.726264-101.383938 111.830326-141.883534 156.338605-47.30245-52.057302-94.596961-104.193984-141.851783-156.330667l-7.144186-7.977674a30.140527 30.140527 0 1 0-45.13538 39.97569l3.11169 3.476837-0.03969 0.03969 4.484961 4.945364c27.751194 31.053395 122.856186 137.327132 155.560682 171.87324a42.492031 42.492031 0 0 0 30.767628 13.232621h0.468341a42.460279 42.460279 0 0 0 30.767628-13.232621c32.704496-34.561984 127.809488-140.819845 155.560682-171.87324l4.492899-4.945364-0.039689-0.03969 3.111689-3.476837a30.005581 30.005581 0 0 0-2.492527-42.468217z" fill="#333333" /><path d="M735.914667 135.787163l-446.908527 0.436589-219.008993 282.774822 442.542636 482.788217 442.383876-483.216869-219.008992-282.782759z m-415.712248 63.900775l384.595348-0.365147 167.173954 215.833798-359.431938 392.612713-359.511318-392.215814 167.173954-215.857612z"  /></svg>