<?xml version="1.0" standalone="no"?><!DOCTYPE svg PUBLIC "-//W3C//DTD SVG 1.1//EN" "http://www.w3.org/Graphics/SVG/1.1/DTD/svg11.dtd"><svg class="icon" width="48px" height="48.00px" viewBox="0 0 1024 1024" version="1.1" xmlns="http://www.w3.org/2000/svg"><path d="M864.3072 250.6752H234.5984c-45.6704 0-82.688 37.0176-82.688 82.688v26.7776c0 45.6704 37.0176 82.688 82.688 82.688H864.256c45.6704 0 82.688-37.0176 82.688-82.688V333.312c0-45.6192-37.0176-82.6368-82.6368-82.6368z" fill="#4169E1" /><path d="M872.6528 680.4992c-14.1312 0-25.6-11.4688-25.6-25.6v-19.0976c0-14.1312 11.4688-25.6 25.6-25.6s25.6 11.4688 25.6 25.6v19.0976c0 14.1824-11.4688 25.6-25.6 25.6z" fill="#44454A" /><path d="M841.728 197.6832h-274.5856l98.7136-99.1744a25.56928 25.56928 0 0 0-0.1024-36.1984 25.56928 25.56928 0 0 0-36.1984 0.1024L509.9008 182.5792 389.6832 62.3616c-9.984-9.984-26.2144-9.984-36.1984 0s-9.984 26.2144 0 36.1984l99.072 99.1232H182.272c-72.1408 0-130.816 58.6752-130.816 130.816v9.0624c0 52.4288 31.0272 97.7408 75.6736 118.5792v300.5952c0 111.6672 90.8288 202.496 202.496 202.496h366.08c111.6672 0 202.496-90.8288 202.496-202.496 0-14.1312-11.4688-25.6-25.6-25.6s-25.6 11.4688-25.6 25.6c0 83.456-67.8912 151.296-151.296 151.296h-159.232V468.3776h305.2032c1.792 0 3.5328-0.0512 5.3248-0.1536v74.0864c0 14.1312 11.4688 25.6 25.6 25.6s25.6-11.4688 25.6-25.6V455.5264c43.9296-21.1456 74.2912-66.048 74.2912-117.9648v-9.0624c0.0512-72.1408-58.624-130.816-130.7648-130.816zM102.656 337.5616v-9.0624c0-43.9296 35.7376-79.616 79.616-79.616h303.0016v168.2944H182.272c-43.8784 0-79.616-35.7376-79.616-79.616z m382.6688 570.4704h-155.648c-83.456 0-151.296-67.8912-151.296-151.296V468.2752c1.3312 0.0512 2.6112 0.1024 3.9424 0.1024h303.0016v439.6544z m436.0192-570.4704c0 43.9296-35.7376 79.616-79.616 79.616h-305.2032V248.8832h305.2032c43.9296 0 79.616 35.7376 79.616 79.616v9.0624z" fill="#44454A" /></svg>