<?xml version="1.0" standalone="no"?><!DOCTYPE svg PUBLIC "-//W3C//DTD SVG 1.1//EN" "http://www.w3.org/Graphics/SVG/1.1/DTD/svg11.dtd"><svg class="icon" width="48px" height="48.00px" viewBox="0 0 1024 1024" version="1.1" xmlns="http://www.w3.org/2000/svg"><path d="M381.015318 453.497054l-79.379845-28.79107 262.429767-95.200248 262.429768 95.200248-66.52031 27.72738v246.07752l-117.005892 63.503876-127.007752 23.813953-134.945736-39.689922V453.497054z" fill="#FFCB01" /><path d="M515.262512 542.823194c-13.732713 0-27.902016-2.579845-40.785365-7.302946L101.820527 399.423504a24.171163 24.171163 0 0 1-15.875969-22.750264c0-10.303504 6.429767-19.321054 15.875969-22.758201L474.056434 217.826233a122.189395 122.189395 0 0 1 81.99938 0l372.227969 136.088806c9.446202 3.437147 15.875969 12.454698 15.875969 22.758201a24.179101 24.179101 0 0 1-15.875969 22.750264L556.047876 535.520248c-12.883349 4.723101-27.044713 7.302946-40.785364 7.302946z m-24.472807-53.240062a72.386481 72.386481 0 0 0 48.516962 0l309.978294-113.338543-309.978294-113.34648a75.140961 75.140961 0 0 0-48.516962 0.436589L181.248 376.67324l309.541705 112.909892z" fill="#2F2F2F" /><path d="M515.262512 811.579535c-74.696434 0-142.105798-24.901457-176.024807-39.928062-41.642667-18.455814-91.445581-46.794419-91.445581-76.847628v-251.157829a24.464868 24.464868 0 0 1 24.472806-24.472807 24.45693 24.45693 0 0 1 24.472806 24.472807v246.434728c16.749147 18.035101 115.918388 72.981829 218.532714 72.98183 102.606388 0 202.204279-54.946729 218.516837-72.98183V443.653953a24.464868 24.464868 0 0 1 24.472806-24.472806 24.194977 24.194977 0 0 1 24.472806 24.472806v251.15783c0 30.053209-49.802915 58.391814-91.445581 76.83969-33.919008 15.034543-101.320434 39.928062-176.024806 39.928062z m-352.049613-158.418357a16.30462 16.30462 0 0 1-16.312558-16.320496V396.851597a16.30462 16.30462 0 1 1 32.625116 0v239.989085c0 9.01755-7.295008 16.320496-16.312558 16.320496z" fill="#2F2F2F" /><path d="M122.864124 643.714977a40.356713 40.356713 0 1 0 80.713426 0 40.356713 40.356713 0 0 0-80.713426 0z" fill="#2F2F2F" /><path d="M526.804341 200.362667a31.712248 31.712248 0 0 0-21.646884 0l-404.837209 146.852713a31.767814 31.767814 0 0 0 0 59.709519l404.837209 146.852713c6.977488 2.540155 14.669395 2.540155 21.646884 0l404.837209-146.852713A31.728124 31.728124 0 0 0 952.55814 377.07014a31.728124 31.728124 0 0 0-20.91659-29.846822l-404.837209-146.852713zM515.968992 263.99355l311.684961 113.07659-311.684961 113.076589-311.724651-113.076589 311.724651-113.07659z"  /><path d="M238.107783 434.620527v258.071814c0 7.422016 2.595721 14.605891 7.350574 20.32124 0 0 84.75386 104.582946 269.550139 104.582946 184.875659 0 269.415194-104.622636 269.415194-104.622636 4.762791-5.691535 7.302946-12.875411 7.302946-20.28155v-258.063876a31.751938 31.751938 0 0 0-31.751938-31.759876c-17.463566 0-31.751938 14.224868-31.751938 31.751938v245.204341c-21.432558 20.114853-90.731163 74.275721-213.214264 74.275721-122.403721 0-191.861085-54.160868-213.396837-74.299535V434.620527c0-17.52707-14.232806-31.751938-31.751938-31.751938-17.52707 0-31.751938 14.224868-31.751938 31.751938zM147.281364 396.867473v246.077519a15.875969 15.875969 0 0 0 31.751938 0v-246.077519a15.875969 15.875969 0 0 0-31.751938 0z"  /><path d="MNaN NaNmNaN NaNaNaN NaN NaN 1 0 NaN NaN NaN NaN NaN 1 0 NaN NaNZ"  /></svg>