<?xml version="1.0" standalone="no"?><!DOCTYPE svg PUBLIC "-//W3C//DTD SVG 1.1//EN" "http://www.w3.org/Graphics/SVG/1.1/DTD/svg11.dtd"><svg class="icon" width="48px" height="48.00px" viewBox="0 0 1024 1024" version="1.1" xmlns="http://www.w3.org/2000/svg"><path d="M302.380226 622.531686h430.817776v401.468314h-430.817776z" fill="#4169E1" /><path d="M709.503024 0c-29.618722 0-53.852222 24.2335-53.852222 53.852222v54.121483H367.002892V53.852222c0-29.618722-24.2335-53.852222-53.852221-53.852222s-53.852222 24.2335-53.852222 53.852222v54.121483H0v916.026295h1024V107.973705h-260.644754V53.852222c0-29.618722-23.964239-53.852222-53.852222-53.852222z m0 296.187221c29.618722 0 53.852222-24.2335 53.852222-53.852222v-26.65685h152.94031v123.86011H107.704444v-123.86011h151.594005V242.334999c0 29.618722 24.2335 53.852222 53.852222 53.852222s53.852222-24.2335 53.852221-53.852222v-26.65685h288.64791V242.334999c0 29.618722 24.2335 53.852222 53.852222 53.852222zM107.704444 916.295556V447.242703h808.591112v469.052853H107.704444z" fill="#0D0A16" /></svg>