<?xml version="1.0" standalone="no"?><!DOCTYPE svg PUBLIC "-//W3C//DTD SVG 1.1//EN" "http://www.w3.org/Graphics/SVG/1.1/DTD/svg11.dtd"><svg class="icon" width="48px" height="48.00px" viewBox="0 0 1024 1024" version="1.1" xmlns="http://www.w3.org/2000/svg"><path d="M189.3376 411.904h653.6704c-10.3424-101.5296-96.1536-180.7872-200.3968-180.7872H389.7344c-104.2944 0-190.0544 79.2576-200.3968 180.7872z" fill="#4169E1" /><path d="M873.5232 556.7488c-14.1312 0-25.6-11.4688-25.6-25.6v-5.4272c0-14.1312 11.4688-25.6 25.6-25.6s25.6 11.4688 25.6 25.6v5.4272c0 14.1312-11.4688 25.6-25.6 25.6z" fill="#2c2c2c" /><path d="M873.5232 477.5424c14.1312 0 25.6-11.4688 25.6-25.6V373.8112c0-119.7568-93.2352-218.112-210.944-226.4064v-30.1056c0-14.1312-11.4688-25.6-25.6-25.6s-25.6 11.4688-25.6 25.6v29.44h-270.848v-29.44c0-14.1312-11.4688-25.6-25.6-25.6s-25.6 11.4688-25.6 25.6v30.0544C197.12 155.5456 103.7312 253.952 103.7312 373.8112v338.8416c0 125.184 101.8368 227.072 227.072 227.072h341.2992c125.184 0 227.072-101.8368 227.072-227.072v-105.7792c0-14.1312-11.4688-25.6-25.6-25.6s-25.6 11.4688-25.6 25.6v105.7792c0 96.9728-78.8992 175.872-175.872 175.872H330.8032c-96.9728 0-175.872-78.8992-175.872-175.872V439.9616h692.992v11.9808c0 14.1312 11.4688 25.6 25.6 25.6zM154.9312 388.7616v-14.8992c0-91.648 70.4512-167.0656 160.0512-175.104v42.24c0 14.1312 11.4688 25.6 25.6 25.6s25.6-11.4688 25.6-25.6v-43.008h270.848v43.008c0 14.1312 11.4688 25.6 25.6 25.6s25.6-11.4688 25.6-25.6v-42.24c89.4464 8.192 159.744 83.5584 159.744 175.104v14.8992H154.9312z" fill="#2c2c2c" /><path d="M325.4784 570.0096m-33.536 0a33.536 33.536 0 1 0 67.072 0 33.536 33.536 0 1 0-67.072 0Z" fill="#2c2c2c" /><path d="M503.7568 570.0096m-33.536 0a33.536 33.536 0 1 0 67.072 0 33.536 33.536 0 1 0-67.072 0Z" fill="#2c2c2c" /><path d="M679.424 570.0096m-33.536 0a33.536 33.536 0 1 0 67.072 0 33.536 33.536 0 1 0-67.072 0Z" fill="#2c2c2c" /><path d="M325.4784 728.7296m-33.536 0a33.536 33.536 0 1 0 67.072 0 33.536 33.536 0 1 0-67.072 0Z" fill="#2c2c2c" /><path d="M503.7568 728.7296m-33.536 0a33.536 33.536 0 1 0 67.072 0 33.536 33.536 0 1 0-67.072 0Z" fill="#2c2c2c" /><path d="M679.424 728.7296m-33.536 0a33.536 33.536 0 1 0 67.072 0 33.536 33.536 0 1 0-67.072 0Z" fill="#2c2c2c" /></svg>