<?xml version="1.0" standalone="no"?><!DOCTYPE svg PUBLIC "-//W3C//DTD SVG 1.1//EN" "http://www.w3.org/Graphics/SVG/1.1/DTD/svg11.dtd"><svg class="icon" width="48px" height="48.00px" viewBox="0 0 1024 1024" version="1.1" xmlns="http://www.w3.org/2000/svg"><path d="M796.444444 773.688889h-25.031111l-1.706666-1.706667c-48.355556-34.133333-87.608889-73.955556-116.622223-117.76h23.893334c12.515556 0 22.755556-10.24 22.755555-22.755555s-10.24-22.755556-22.755555-22.755556h-49.493334c0-0.568889-0.568889-1.137778-1.137777-1.706667-7.964444-16.497778-14.791111-35.271111-21.048889-55.182222h31.288889c12.515556 0 22.755556-10.24 22.755555-22.755555s-10.24-22.755556-22.755555-22.755556h-43.235556c-10.24-46.648889-16.497778-100.693333-19.342222-161.564444 6.826667-10.808889 11.377778-23.324444 11.377778-37.546667v-40.96c0-13.653333-9.102222-25.031111-22.186667-27.875556l-28.444444-6.257777V227.555556c0-12.515556-10.24-22.755556-22.755556-22.755556s-22.755556 10.24-22.755556 22.755556v4.551111l-29.013333 6.257777c-13.084444 2.844444-22.186667 14.222222-22.186667 27.875556V307.2c0 13.653333 3.982222 26.737778 11.377778 37.546667-2.844444 60.871111-9.102222 114.915556-19.342222 161.564444H386.844444c-12.515556 0-22.755556 10.24-22.755555 22.755556s10.24 22.755556 22.755555 22.755555h31.288889c-6.257778 19.911111-13.084444 38.684444-21.048889 55.182222 0 0.568889-0.568889 1.137778-1.137777 1.706667H347.022222c-12.515556 0-22.755556 10.24-22.755555 22.755556s10.24 22.755556 22.755555 22.755555h23.893334c-29.013333 44.373333-68.266667 83.626667-116.622223 117.76l-1.706666 1.706667H227.555556c-12.515556 0-22.755556 10.24-22.755556 22.755555s10.24 22.755556 22.755556 22.755556h568.888888c12.515556 0 22.755556-10.24 22.755556-22.755556s-10.24-22.755556-22.755556-22.755555zM483.555556 279.893333l28.444444-6.257777 28.444444 6.257777V307.2c0 12.515556-10.24 22.755556-22.755555 22.755556h-11.377778c-12.515556 0-22.755556-10.24-22.755555-22.755556v-27.306667z m9.671111 94.435556c3.982222 0.568889 8.533333 1.137778 13.084444 1.137778h11.377778c4.551111 0 9.102222-0.568889 13.084444-1.137778 2.844444 48.355556 8.533333 92.16 16.497778 131.982222H476.728889c7.964444-39.822222 13.653333-83.626667 16.497778-131.982222zM465.351111 551.822222h92.728889c5.688889 20.48 11.946667 39.253333 19.342222 56.888889H446.008889c7.395556-17.635556 13.653333-36.408889 19.342222-56.888889z m-40.96 102.4h175.786667c24.462222 43.804444 57.457778 83.626667 98.417778 119.466667h-46.08c-45.511111-52.906667-92.728889-79.644444-140.515556-79.644445s-95.004444 26.737778-140.515556 79.644445h-46.08c40.96-35.84 73.955556-75.662222 98.986667-119.466667z m164.408889 119.466667h-153.6c26.168889-22.755556 51.768889-34.133333 76.8-34.133333s50.631111 11.377778 76.8 34.133333z" fill="#4169E1" /></svg>