<?xml version="1.0" standalone="no"?><!DOCTYPE svg PUBLIC "-//W3C//DTD SVG 1.1//EN" "http://www.w3.org/Graphics/SVG/1.1/DTD/svg11.dtd"><svg class="icon" width="48px" height="48.00px" viewBox="0 0 1024 1024" version="1.1" xmlns="http://www.w3.org/2000/svg"><path d="M796.444444 773.688889h-144.497777c31.857778-57.457778 48.924444-121.742222 48.924444-188.302222 0-80.213333-23.893333-157.013333-65.991111-221.297778h14.222222c12.515556 0 22.755556-10.24 22.755556-22.755556s-10.24-22.755556-22.755556-22.755555h-48.924444c-38.684444-43.804444-86.471111-78.506667-141.084445-100.693334-10.24-3.982222-31.288889-9.671111-98.986666-13.084444-6.257778-0.568889-12.515556 1.706667-17.066667 6.257778-4.551111 4.551111-7.395556 10.24-7.395556 16.497778v91.022222h-28.444444c-12.515556 0-22.755556 10.24-22.755556 22.755555s10.24 22.755556 22.755556 22.755556h28.444444v409.6H227.555556c-12.515556 0-22.755556 10.24-22.755556 22.755555s10.24 22.755556 22.755556 22.755556h568.888888c12.515556 0 22.755556-10.24 22.755556-22.755556s-10.24-22.755556-22.755556-22.755555z m-324.266666 0v-79.644445h164.977778c-9.102222 27.875556-22.186667 54.613333-38.684445 79.644445H472.177778z m0-170.666667h182.613333c-0.568889 15.36-2.275556 30.72-5.12 45.511111H472.177778v-45.511111z m0-45.511111v-45.511111h175.217778c3.413333 14.791111 5.12 30.151111 6.826666 45.511111H472.177778z m162.702222-91.022222H472.177778V364.088889h106.382222c23.893333 30.72 43.235556 65.422222 56.32 102.4zM472.177778 318.577778v-43.804445c22.755556 11.946667 43.804444 27.306667 63.146666 43.804445H472.177778zM381.155556 251.448889c22.186667 1.706667 36.408889 3.413333 45.511111 4.551111v62.577778h-45.511111V251.448889zM426.666667 364.088889v409.6h-45.511111V364.088889h45.511111z" fill="#4169E1" /></svg>