<?xml version="1.0" standalone="no"?><!DOCTYPE svg PUBLIC "-//W3C//DTD SVG 1.1//EN" "http://www.w3.org/Graphics/SVG/1.1/DTD/svg11.dtd"><svg class="icon" width="48px" height="48.00px" viewBox="0 0 1024 1024" version="1.1" xmlns="http://www.w3.org/2000/svg"><path d="M762.311111 625.777778h-17.066667V563.2c0-15.928889-12.515556-28.444444-28.444444-28.444444h-17.066667V472.177778c0-15.928889-12.515556-28.444444-28.444444-28.444445h-23.893333c-22.186667-26.168889-39.822222-54.044444-52.337778-83.057777-13.084444-30.72-19.342222-59.733333-18.773334-87.04 0-6.257778-2.275556-11.946667-6.257777-16.497778-4.551111-4.551111-10.24-6.826667-16.497778-6.826667H534.755556v-22.755555c0-12.515556-10.24-22.755556-22.755556-22.755556s-22.755556 10.24-22.755556 22.755556v22.755555h-18.773333c-12.515556 0-22.755556 9.671111-22.755555 22.186667-0.568889 30.72-6.826667 60.302222-18.773334 88.177778-11.377778 26.168889-29.013333 54.044444-52.337778 83.057777H352.711111c-15.928889 0-28.444444 12.515556-28.444444 28.444445v62.577778h-17.066667c-15.928889 0-28.444444 12.515556-28.444444 28.444444v62.577778h-17.066667c-15.928889 0-28.444444 12.515556-28.444445 28.444444v142.222222c0 12.515556 10.24 22.755556 22.755556 22.755556s22.755556-10.24 22.755556-22.755556v-125.155555h159.288888v125.155555c0 12.515556 10.24 22.755556 22.755556 22.755556s22.755556-10.24 22.755556-22.755556v-216.177777h56.888888v216.177777c0 12.515556 10.24 22.755556 22.755556 22.755556s22.755556-10.24 22.755556-22.755556v-125.155555h159.288888v125.155555c0 12.515556 10.24 22.755556 22.755556 22.755556s22.755556-10.24 22.755556-22.755556v-142.222222c0-15.928889-12.515556-28.444444-28.444445-28.444444zM531.911111 295.822222c1.706667 16.497778 5.12 33.564444 10.24 51.2H481.848889c5.12-16.497778 7.964444-33.564444 9.671111-51.2h40.391111z m-68.266667 96.711111h96.142223c8.533333 17.635556 18.773333 34.702222 30.151111 51.2H432.924444c12.515556-17.635556 22.755556-34.702222 30.72-51.2zM438.044444 625.777778H324.266667v-45.511111h113.777777v45.511111z m22.755556-91.022222H369.777778v-45.511112h284.444444v45.511112H460.8z m125.155556 45.511111h113.777777v45.511111h-113.777777v-45.511111z" fill="#4169E1" /></svg>