<?xml version="1.0" standalone="no"?><!DOCTYPE svg PUBLIC "-//W3C//DTD SVG 1.1//EN" "http://www.w3.org/Graphics/SVG/1.1/DTD/svg11.dtd"><svg class="icon" width="48px" height="48.00px" viewBox="0 0 1024 1024" version="1.1" xmlns="http://www.w3.org/2000/svg"><path d="M806.115556 775.964444c-34.702222-16.497778-69.973333-25.031111-104.675556-25.031111-29.013333 0-44.373333 7.395556-57.457778 13.653334-10.808889 5.12-18.773333 9.102222-37.546666 9.102222s-26.737778-3.982222-37.546667-9.102222c-12.515556-6.257778-28.444444-13.653333-57.457778-13.653334s-44.373333 7.395556-57.457778 13.653334c-10.808889 5.12-18.773333 9.102222-37.546666 9.102222s-26.737778-3.982222-37.546667-9.102222c-12.515556-6.257778-28.444444-13.653333-57.457778-13.653334-34.702222 0-69.973333 8.533333-104.675555 25.031111-11.377778 5.688889-15.928889 18.773333-10.808889 30.151112 5.688889 11.377778 18.773333 15.928889 30.151111 10.808888 28.444444-13.653333 56.888889-20.48 84.764444-20.48 18.773333 0 26.737778 3.982222 37.546667 9.102223 12.515556 6.257778 28.444444 13.653333 57.457778 13.653333s44.373333-7.395556 57.457778-13.653333c10.808889-5.12 18.773333-9.102222 37.546666-9.102223s26.737778 3.982222 37.546667 9.102223c12.515556 6.257778 28.444444 13.653333 57.457778 13.653333s44.373333-7.395556 57.457777-13.653333c10.808889-5.12 18.773333-9.102222 37.546667-9.102223 27.875556 0 56.888889 6.826667 84.764445 20.48 3.413333 1.706667 6.257778 2.275556 9.671111 2.275556 8.533333 0 16.497778-4.551111 20.48-13.084444 6.826667-11.377778 1.706667-25.031111-9.671111-30.151112zM796.444444 568.888889h-34.133333V273.635556c0-9.102222-5.688889-17.635556-14.222222-21.048889l-42.666667-17.635556V227.555556c0-12.515556-10.24-22.755556-22.755555-22.755556s-22.755556 10.24-22.755556 22.755556v7.395555l-42.666667 17.635556c-8.533333 3.413333-14.222222 11.946667-14.222222 21.048889V318.577778H420.977778v-44.942222c0-9.102222-5.688889-17.635556-14.222222-21.048889L364.088889 234.951111V227.555556c0-12.515556-10.24-22.755556-22.755556-22.755556s-22.755556 10.24-22.755555 22.755556v7.395555l-42.666667 17.635556c-8.533333 3.982222-14.222222 11.946667-14.222222 21.048889V568.888889h-34.133333c-12.515556 0-22.755556 10.24-22.755556 22.755555v113.777778c0 12.515556 10.24 22.755556 22.755556 22.755556s22.755556-10.24 22.755555-22.755556v-91.022222h125.155556v91.022222c0 12.515556 10.24 22.755556 22.755555 22.755556s22.755556-10.24 22.755556-22.755556v-111.502222l62.008889-33.564444c10.808889-5.688889 15.36-19.911111 9.102222-30.72-5.688889-10.808889-19.911111-15.36-30.72-9.102223L420.977778 542.151111V364.088889h182.044444v178.062222l-40.391111-21.617778c-10.808889-5.688889-25.031111-1.706667-30.72 9.102223-5.688889 10.808889-1.706667 25.031111 9.102222 30.72l62.008889 33.564444V705.422222c0 12.515556 10.24 22.755556 22.755556 22.755556s22.755556-10.24 22.755555-22.755556v-91.022222h125.155556v91.022222c0 12.515556 10.24 22.755556 22.755555 22.755556s22.755556-10.24 22.755556-22.755556v-113.777778c0-12.515556-10.24-22.755556-22.755556-22.755555zM341.333333 274.773333l34.133334 14.222223V364.088889H307.2V288.995556l34.133333-14.222223zM307.2 568.888889V409.6h68.266667v159.288889H307.2z m375.466667-294.115556l34.133333 14.222223V364.088889h-68.266667V288.995556l34.133334-14.222223z m-34.133334 294.115556V409.6h68.266667v159.288889h-68.266667z" fill="#4169E1" /></svg>