<?xml version="1.0" standalone="no"?><!DOCTYPE svg PUBLIC "-//W3C//DTD SVG 1.1//EN" "http://www.w3.org/Graphics/SVG/1.1/DTD/svg11.dtd"><svg class="icon" width="48px" height="48.00px" viewBox="0 0 1024 1024" version="1.1" xmlns="http://www.w3.org/2000/svg"><path d="M806.115556 775.964444c-34.702222-16.497778-69.973333-25.031111-104.675556-25.031111-29.013333 0-44.373333 7.395556-57.457778 13.653334-10.808889 5.12-18.773333 9.102222-37.546666 9.102222s-26.737778-3.982222-37.546667-9.102222c-12.515556-6.257778-28.444444-13.653333-57.457778-13.653334s-44.373333 7.395556-57.457778 13.653334c-10.808889 5.12-18.773333 9.102222-37.546666 9.102222s-26.737778-3.982222-37.546667-9.102222c-12.515556-6.257778-28.444444-13.653333-57.457778-13.653334-34.702222 0-69.973333 8.533333-104.675555 25.031111-11.377778 5.688889-15.928889 18.773333-10.808889 30.151112 5.688889 11.377778 18.773333 15.928889 30.151111 10.808888 28.444444-13.653333 56.888889-20.48 84.764444-20.48 18.773333 0 26.737778 3.982222 37.546667 9.102223 12.515556 6.257778 28.444444 13.653333 57.457778 13.653333s44.373333-7.395556 57.457778-13.653333c10.808889-5.12 18.773333-9.102222 37.546666-9.102223s26.737778 3.982222 37.546667 9.102223c12.515556 6.257778 28.444444 13.653333 57.457778 13.653333s44.373333-7.395556 57.457777-13.653333c10.808889-5.12 18.773333-9.102222 37.546667-9.102223 27.875556 0 56.888889 6.826667 84.764445 20.48 3.413333 1.706667 6.257778 2.275556 9.671111 2.275556 8.533333 0 16.497778-4.551111 20.48-13.084444 6.826667-11.377778 1.706667-25.031111-9.671111-30.151112zM238.933333 449.422222v227.555556h-11.377777c-12.515556 0-22.755556 10.24-22.755556 22.755555s10.24 22.755556 22.755556 22.755556h568.888888c12.515556 0 22.755556-10.24 22.755556-22.755556s-10.24-22.755556-22.755556-22.755555h-11.377777V521.102222c0-2.844444-0.568889-6.257778-1.706667-8.533333l18.204444-5.12c5.688889-1.706667 10.808889-5.12 13.653334-10.808889s3.982222-11.377778 2.275555-17.066667c-13.653333-51.768889-60.302222-86.471111-110.933333-88.177777-0.568889-14.222222-2.844444-28.444444-6.257778-42.666667-13.084444-50.062222-45.511111-91.591111-89.884444-117.191111-44.942222-25.6-96.711111-32.426667-146.773334-19.342222-11.946667 3.413333-19.342222 15.928889-15.928888 27.875555l1.137777 3.982222c-43.804444-11.946667-91.591111-3.982222-130.275555 24.462223-5.12 3.413333-7.964444 9.102222-9.102222 14.791111s0.568889 11.946667 3.982222 17.066666l3.413333 5.12C273.066667 313.457778 233.244444 340.195556 210.488889 380.017778c-2.844444 5.12-3.982222 11.377778-2.275556 17.066666s5.688889 10.808889 10.808889 13.653334c11.946667 6.826667 22.755556 13.084444 33.564445 18.773333-8.533333 3.413333-13.653333 10.808889-13.653334 19.911111z m45.511111 227.555556V472.177778h220.16l96.711112 67.697778c3.982222 2.844444 8.533333 3.982222 13.084444 3.982222h125.155556V676.977778H284.444444z m479.573334-206.506667L659.911111 498.346667h-30.72c4.551111-27.875556 25.6-51.768889 54.044445-59.164445 31.288889-8.533333 63.715556 5.12 80.782222 31.288889z m-176.924445-199.68c34.133333 19.911111 58.595556 51.768889 68.835556 89.884445 3.413333 12.515556 5.12 25.031111 5.12 38.115555-35.271111 13.084444-62.008889 41.528889-72.817778 76.231111l-38.115555-26.737778-52.906667-196.266666c31.288889-3.982222 62.008889 2.844444 89.884444 18.773333z m-124.586666 27.875556l34.133333 128H460.8L364.088889 292.977778c31.857778-13.653333 68.266667-11.946667 98.417778 5.688889z m-114.915556 48.924444L405.048889 426.666667H339.057778c-18.773333-10.808889-43.804444-25.031111-76.231111-43.804445 21.617778-23.324444 52.906667-36.408889 84.764444-35.271111z" fill="#4169E1" /></svg>