<?xml version="1.0" standalone="no"?><!DOCTYPE svg PUBLIC "-//W3C//DTD SVG 1.1//EN" "http://www.w3.org/Graphics/SVG/1.1/DTD/svg11.dtd"><svg class="icon" width="48px" height="48.00px" viewBox="0 0 1024 1024" version="1.1" xmlns="http://www.w3.org/2000/svg"><path d="M945.27 93.556c19.64 19.76 19.64 51.65 0 71.41l-619.42 598.16c-20.14 19.44-52.22 18.87-71.67-1.26-19.44-20.14-18.88-52.23 1.26-71.67l619.42-598.16c20.05-18.56 51.19-17.88 70.41 1.52z" fill="#4E1387" /><path d="M107.05 310.326l592.58 592.07c9.79 9.98 9.64 26.02-0.34 35.81a25.323 25.323 0 0 1-17.38 7.25H89.32c-13.99 0-25.32-11.34-25.32-25.32v-592.07c0.19-13.99 11.69-25.16 25.67-24.97 6.51 0.08 12.73 2.68 17.38 7.23z" fill="#8C33E2" /></svg>