<?xml version="1.0" standalone="no"?><!DOCTYPE svg PUBLIC "-//W3C//DTD SVG 1.1//EN" "http://www.w3.org/Graphics/SVG/1.1/DTD/svg11.dtd"><svg class="icon" width="48px" height="48.00px" viewBox="0 0 1024 1024" version="1.1" xmlns="http://www.w3.org/2000/svg"><path d="M685.45 693.61H335.82c-45.87 0-83.4-37.53-83.4-83.4V274.69c0-45.87 37.53-83.4 83.4-83.4h349.63c45.87 0 83.4 37.53 83.4 83.4v335.52c0 45.87-37.53 83.4-83.4 83.4z" fill="#F4AF40" /><path d="M646.88 693.61H335.82c-45.87 0-83.4-37.53-83.4-83.4V274.69c0-45.87 37.53-83.4 83.4-83.4h311.06c45.87 0 83.4 37.53 83.4 83.4v335.52c0 45.87-37.53 83.4-83.4 83.4z" fill="#FCBB38" /><path d="M561.69 693.27H335.82c-45.87 0-83.4-37.53-83.4-83.4V274.35c0-45.87 37.53-83.4 83.4-83.4h225.87c45.87 0 83.4 37.53 83.4 83.4v335.52c0 45.87-37.53 83.4-83.4 83.4z" fill="#FCD272" /><path d="M882.31 921.3H161.1c-45.87 0-83.4-37.53-83.4-83.4V381.72c0-45.87 37.53-83.4 83.4-83.4h721.21c45.87 0 83.4 37.53 83.4 83.4V837.9c0 45.87-37.53 83.4-83.4 83.4z" fill="#FFAF2E" /><path d="M860.76 921.3H161.1c-45.87 0-83.4-37.53-83.4-83.4V381.85c0-45.87 37.53-83.4 83.4-83.4h699.67c45.87 0 83.4 37.53 83.4 83.4V837.9c0 45.87-37.53 83.4-83.41 83.4z" fill="#F2AD3D" /><path d="M838.19 912.71H160.15c-45.87 0-83.4-37.53-83.4-83.4V380.92c0-45.87 37.53-83.4 83.4-83.4h678.04c45.87 0 83.4 37.53 83.4 83.4v448.39c0 45.87-37.53 83.4-83.4 83.4z" fill="#F4BA51" /><path d="M795.94 898.8H160.15c-45.87 0-83.4-37.53-83.4-83.4V380.92c0-45.87 37.53-83.4 83.4-83.4h635.79c45.87 0 83.4 37.53 83.4 83.4V815.4c0 45.87-37.53 83.4-83.4 83.4z" fill="#F7C98B" /><path d="M756.25 885.61h-590.7c-45.87 0-83.4-37.53-83.4-83.4V385.27c0-45.87 37.53-83.4 83.4-83.4h590.7c45.87 0 83.4 37.53 83.4 83.4v416.94c0 45.87-37.53 83.4-83.4 83.4z" fill="#FCD272" /><path d="M483.03 846.62c-63.42 0-123.04-24.7-167.88-69.54-44.84-44.84-69.54-104.47-69.54-167.88s24.7-123.04 69.54-167.88c44.84-44.84 104.46-69.54 167.88-69.54s123.04 24.7 167.88 69.54c44.84 44.84 69.54 104.47 69.54 167.88s-24.7 123.04-69.54 167.88c-44.84 44.84-104.46 69.54-167.88 69.54z m0-405.94c-92.92 0-168.51 75.6-168.51 168.51s75.6 168.51 168.51 168.51c92.92 0 168.51-75.59 168.51-168.51s-75.59-168.51-168.51-168.51z" fill="#F4BA51" /><path d="M482.03 824.55c-57.79 0-112.12-22.5-152.98-63.37s-63.37-95.19-63.37-152.98c0-57.79 22.5-112.12 63.37-152.98 40.86-40.86 95.19-63.37 152.98-63.37s112.12 22.5 152.98 63.37c40.86 40.86 63.37 95.19 63.37 152.98 0 57.79-22.5 112.12-63.37 152.98s-95.19 63.37-152.98 63.37z m0-392.7c-97.24 0-176.35 79.11-176.35 176.35s79.11 176.35 176.35 176.35 176.35-79.11 176.35-176.35-79.11-176.35-176.35-176.35z" fill="#FFF3E9" /><path d="M483.03 785.55c-47.1 0-91.39-18.34-124.7-51.65s-51.65-77.59-51.65-124.7c0-47.1 18.34-91.39 51.65-124.7s77.59-51.65 124.7-51.65 91.39 18.34 124.7 51.65 51.65 77.59 51.65 124.7c0 47.1-18.34 91.39-51.65 124.7-33.31 33.3-77.6 51.65-124.7 51.65z m0-320.09c-79.26 0-143.74 64.48-143.74 143.74s64.48 143.74 143.74 143.74 143.74-64.48 143.74-143.74-64.48-143.74-143.74-143.74z" fill="#F7B96F" /><path d="M473.33 629.57m-138.29 0a138.29 138.29 0 1 0 276.58 0 138.29 138.29 0 1 0-276.58 0Z" fill="#EF9B3F" /><path d="M814.53 410.44h-68.96c-13.82 0-25.12-11.3-25.12-25.12v-11.47c0-13.82 11.3-25.12 25.12-25.12h68.96c13.82 0 25.12 11.3 25.12 25.12v11.47c0 13.82-11.3 25.12-25.12 25.12z" fill="#F9A24B" /><path d="M805.79 392.46h-63.48c-12.03 0-21.86-9.84-21.86-21.86 0-12.03 9.84-21.86 21.86-21.86h63.48c12.03 0 21.86 9.84 21.86 21.86s-9.84 21.86-21.86 21.86z" fill="#F9AF6B" /></svg>