<?xml version="1.0" standalone="no"?><!DOCTYPE svg PUBLIC "-//W3C//DTD SVG 1.1//EN" "http://www.w3.org/Graphics/SVG/1.1/DTD/svg11.dtd"><svg class="icon" width="48px" height="48.00px" viewBox="0 0 1024 1024" version="1.1" xmlns="http://www.w3.org/2000/svg"><path d="M257.23 681.61S194.74 395 363.37 303l114.69-54L579 259l63.68 52L670 395l-23 17.78L524 355l-137 20-41 80-13 97 44 96 40 62-33 69z" fill="#2C2C4E" /><path d="M883.92 641.26L690.86 832.52l-209-199.2C444 583.4 439 553.59 439 508.91c0-77.27 48.1-143.42 116.32-170.82a183.91 183.91 0 0 1 54 33.74C636.33 411 719 355.56 765 355.67c103 0 172 57.85 172 159.65 0-0.01-0.17 68.2-53.08 125.94z" fill="#FF675F" /><path d="M726.54 363.32c6.57-2 13-3.82 19-5.16a69.68 69.68 0 0 1 51.48-0.54q8.24 1.05 16.1 2.67a74.91 74.91 0 0 0-86.61 3zM707.1 385.15a75.73 75.73 0 0 1 19.44-21.83c-8.66 2.68-17.62 5.77-26.61 8.79a88.19 88.19 0 0 0-6.77 11.12 92.54 92.54 0 0 1 13.94 1.92zM666.38 385.49a92.57 92.57 0 0 1 13.79-2.16c-0.72-1.42-1.5-2.82-2.29-4.19-4.5 1.31-8.93 2.5-13.26 3.5 0.6 0.94 1.19 1.88 1.76 2.85zM687.47 383h0.21a93.19 93.19 0 0 1 4.57-8.39c-3.17 1-6.33 2.05-9.47 3q1.49 2.64 2.81 5.4c0.63 0.05 1.26-0.01 1.88-0.01z" fill="#FF5041" /><path d="M745.57 358.16a70.76 70.76 0 0 0-33.4 28.25 93.59 93.59 0 0 1 12.69 4.52 57.09 57.09 0 0 1 94.55 0.45 93.68 93.68 0 0 1 12.59-4.66 70.74 70.74 0 0 0-35-29.1 250.55 250.55 0 0 0-31.7-2 92.81 92.81 0 0 0-19.73 2.54zM517 383.07a93.24 93.24 0 0 1 12.46-19.41 16.09 16.09 0 0 0-7.93-7.55 186.83 186.83 0 0 0-36.53 32 92.62 92.62 0 0 1 30.11-5.11c0.62 0 1.24 0.06 1.89 0.07zM532.93 359.69a94.16 94.16 0 0 1 9.7-9 34.56 34.56 0 0 0-4.11-4.67q-6.26 3.28-12.23 7a21.09 21.09 0 0 1 6.64 6.67zM515.11 401.15a75.53 75.53 0 0 1 64.75 36.95 92.57 92.57 0 0 1 13.8-2.2 88.87 88.87 0 0 0-78.55-47.9 87.91 87.91 0 0 0-36.84 8.13 184.12 184.12 0 0 0-19.17 30.06 75.42 75.42 0 0 1 56.01-25.04zM541.22 386.8a93.68 93.68 0 0 1 12.57 4.69 57 57 0 0 1 47.5-25.42c0.58 0 1.15 0 1.73 0.05a183.86 183.86 0 0 0-16-11.68 70.68 70.68 0 0 0-45.8 32.36z" fill="#FF5041" /><path d="M522.4 383.33a92.54 92.54 0 0 1 13.79 2.15 75.73 75.73 0 0 1 44.9-34.74q-7.53-4.5-15.53-8.3a89 89 0 0 0-43.16 40.89zM609.67 371.83l-0.07-0.07a51.85 51.85 0 0 0-51.27 22 94.37 94.37 0 0 1 11.15 6.87 39 39 0 0 1 63.62 0 94.39 94.39 0 0 1 11.15-6.87 53.12 53.12 0 0 0-6.79-8c-11.62-0.59-21.31-4.54-27.79-13.93zM495.7 491.83a92.52 92.52 0 0 1 13.86-1.89 89 89 0 0 0-58-46.74q-2.36 6.12-4.29 12.45a75.71 75.71 0 0 1 48.43 36.18zM648.79 391.5a93.69 93.69 0 0 1 12.57-4.69c-0.63-1-1.3-2-2-3a107.45 107.45 0 0 1-15 2 58.39 58.39 0 0 1 4.43 5.69zM557.73 340.72q-0.93-1.31-1.93-2.56l-0.17-0.07q-6.34 2.55-12.43 5.53a39.61 39.61 0 0 1 3.4 4 94.39 94.39 0 0 1 11.13-6.9zM772 671.14a70.52 70.52 0 0 0-59.69 33.24 93.61 93.61 0 0 1 12.63 4.62 57.06 57.06 0 0 1 92.78-1.82l9.39-9.3A70.45 70.45 0 0 0 772 671.14zM843.75 681.4l6.7-6.64a16.09 16.09 0 0 0-6.7 6.64z" fill="#FF5041" /><path d="M772 653a88.87 88.87 0 0 0-78.61 48 92.53 92.53 0 0 1 13.87 2.08 75.17 75.17 0 0 1 123.42-8.72l9.37-9.28A88.78 88.78 0 0 0 772 653zM830.43 668.67a94.19 94.19 0 0 1 9.72 9 21 21 0 0 1 17.16-9.67l11.43-11.32a34 34 0 0 0-38.31 12zM798.17 651.81a93.68 93.68 0 0 1 12.58 4.71 57 57 0 0 1 75.35-17.29q4.5-5 8.48-10.17a70.07 70.07 0 0 0-96.41 22.75z" fill="#FF5041" /><path d="M815.3 658.77a94.37 94.37 0 0 1 11.15 6.89 39 39 0 0 1 46.21-12.89l9.89-9.8a52 52 0 0 0-67.24 15.8zM693.38 806.47a92.52 92.52 0 0 1 13.87 2.08A75.75 75.75 0 0 1 749 775.24l16.67-16.52a89 89 0 0 0-72.29 47.75z" fill="#FF5041" /><path d="M712.3 809.85l1.36 0.42 25.92-25.68a70.77 70.77 0 0 0-27.28 25.26zM691.21 832.52l2.81-2.78q-3-0.32-6.12-0.37zM772 725.48a16 16 0 0 0-14 8.37 93.25 93.25 0 0 1 12.86 19.67h0.14l5.9-5.84a93.28 93.28 0 0 1 9.39-13.41 16 16 0 0 0-14.29-8.79zM779.29 648.32a92.57 92.57 0 0 1 13.83 2.16 75.09 75.09 0 0 1 104.5-25.43q4-5.38 7.44-10.78a88.2 88.2 0 0 0-125.76 34zM837 385.42a92.54 92.54 0 0 1 13.82-2.11 88.27 88.27 0 0 0-9.73-15.07 189.3 189.3 0 0 0-28-7.95A75.74 75.74 0 0 1 837 385.42zM772 689.25a52 52 0 0 0-42.49 22 94.39 94.39 0 0 1 11.19 6.82 39 39 0 0 1 62.77 0.27 94.39 94.39 0 0 1 8.45-5.39l2.19-2.17A52 52 0 0 0 772 689.25zM863 489.93a92.51 92.51 0 0 1 13.89 1.84 75.69 75.69 0 0 1 50.92-36.66q-2.21-6.37-4.91-12.35a89 89 0 0 0-59.9 47.17z" fill="#FF5041" /><path d="M882 493a93.55 93.55 0 0 1 12.7 4.44 57.08 57.08 0 0 1 38.11-24.82q-1.47-6.52-3.39-12.71A70.67 70.67 0 0 0 882 493zM779.29 435.87a92.57 92.57 0 0 1 13.83 2.13 75.16 75.16 0 0 1 121.7-10.69 134.89 134.89 0 0 0-31.2-35.41 87.59 87.59 0 0 0-25.79-3.9 88.87 88.87 0 0 0-78.54 47.87z" fill="#FF5041" /><path d="M899.32 499.57a94.38 94.38 0 0 1 11.3 6.65 39.07 39.07 0 0 1 25.25-15.75q-0.8-6.62-2-12.95a52.09 52.09 0 0 0-34.55 22.05zM873.14 384.34q-3.74-2.46-7.66-4.73c-0.68 1.19-1.34 2.39-2 3.62a93.07 93.07 0 0 1 9.66 1.11zM857.83 383h0.17q1.44-3 3.07-5.85-5.46-2.91-11.25-5.43a93.15 93.15 0 0 1 6.44 11.31zM928.12 521.74a93 93 0 0 1 7.72 10.12 131.31 131.31 0 0 0 1.5-16.55v-1.46a16.07 16.07 0 0 0-9.22 7.89zM882.53 598.87a93.57 93.57 0 0 1 12.69 4.52 57.26 57.26 0 0 1 26.57-21c2.2-5.27 4.1-10.4 5.72-15.33a70.69 70.69 0 0 0-44.98 31.81z" fill="#FF5041" /><path d="M863.52 595.68a92.52 92.52 0 0 1 13.94 1.92 75.67 75.67 0 0 1 51.77-36c1.46-4.86 2.66-9.47 3.64-13.77a89 89 0 0 0-69.35 47.85zM899.83 605.55a93.84 93.84 0 0 1 7.87 4.48 205.34 205.34 0 0 0 11.1-20.87 52.43 52.43 0 0 0-18.97 16.39zM914.66 509.16a94.22 94.22 0 0 1 9.89 8.75 21.06 21.06 0 0 1 12.68-9.24q-0.2-6.75-0.82-13.23a34.09 34.09 0 0 0-21.75 13.72zM857.83 494.76a88.87 88.87 0 0 0-78.54 47.83 92.57 92.57 0 0 1 13.83 2.16 75.22 75.22 0 0 1 129.26-0.28A92.21 92.21 0 0 1 934 542.7q0.34-1.7 0.64-3.32a88.86 88.86 0 0 0-76.81-44.62zM687.47 631.72a57 57 0 0 1 46.77 24.36 93.58 93.58 0 0 1 12.7-4.58 70.2 70.2 0 0 0-119.18 0.4 93.7 93.7 0 0 1 12.55 4.75 57 57 0 0 1 47.16-24.93zM772 513a16 16 0 0 0-14.22 8.72 93.3 93.3 0 0 1 13.69 20.56h2.37a93.26 93.26 0 0 1 13-19.78l-0.21 0.09A16 16 0 0 0 772 513z" fill="#FF5041" /><path d="M772 494.91a34 34 0 0 0-27.68 14.25 94.21 94.21 0 0 1 9.89 8.75 21 21 0 0 1 36.09 0.85 94.2 94.2 0 0 1 9.86-8.94A34.05 34.05 0 0 0 772 494.91zM687.47 595.49h0.21a93.26 93.26 0 0 1 13.45-20.56 16 16 0 0 0-28 1.2 93.24 93.24 0 0 1 12.45 19.39c0.64-0.01 1.27-0.03 1.89-0.03z" fill="#FF5041" /><path d="M669.65 572.16a21 21 0 0 1 35-1 94.2 94.2 0 0 1 9.76-8.82 34 34 0 0 0-54.43 0.83 94.16 94.16 0 0 1 9.67 8.99zM772 476.8a52 52 0 0 0-43 22.77 94.37 94.37 0 0 1 11.3 6.65 39 39 0 0 1 63.89 0.62 94.36 94.36 0 0 1 11.21-6.77A52 52 0 0 0 772 476.8zM857.83 460.49a16 16 0 0 0-14.19 8.65 93.23 93.23 0 0 1 13.14 20.61h-0.07 0.9a93.24 93.24 0 0 1 13.93-21.54 16 16 0 0 0-13.71-7.72z" fill="#FF5041" /><path d="M857.83 442.38a34 34 0 0 0-27.4 13.84 94.19 94.19 0 0 1 9.72 9 20.95 20.95 0 0 1 34.85-0.82 94.19 94.19 0 0 1 9.76-8.82 34 34 0 0 0-26.93-13.2zM772 458.69A70.53 70.53 0 0 0 711.65 493a93.55 93.55 0 0 1 12.7 4.44 57.09 57.09 0 0 1 95.58 0.45 93.62 93.62 0 0 1 12.59-4.57A70.53 70.53 0 0 0 772 458.69z" fill="#FF5041" /><path d="M857.83 424.27a52 52 0 0 0-42.53 22.05 94.38 94.38 0 0 1 11.15 6.89 39 39 0 0 1 62.3-0.61 94.36 94.36 0 0 1 11.25-6.79 52 52 0 0 0-42.17-21.54zM687.47 544.11a39 39 0 0 1 30.91 15.22 94.38 94.38 0 0 1 11.27-6.79 52.06 52.06 0 0 0-84.81 0.64A94.38 94.38 0 0 1 656 560.1a39 39 0 0 1 31.47-15.99zM734.24 443.62a93.58 93.58 0 0 1 12.7-4.58 70.2 70.2 0 0 0-119.18 0.4 93.69 93.69 0 0 1 12.55 4.75 57.09 57.09 0 0 1 93.94-0.57zM857.83 526a57 57 0 0 1 46.77 24.36 93.6 93.6 0 0 1 12.7-4.58 70.2 70.2 0 0 0-119.13 0.31 93.69 93.69 0 0 1 12.58 4.71 57 57 0 0 1 47.08-24.8z" fill="#FF5041" /><path d="M693.16 595.68a92.55 92.55 0 0 1 13.94 1.92 75.21 75.21 0 0 1 129.94 0.27 92.54 92.54 0 0 1 13.82-2.11 88.41 88.41 0 0 0-157.7-0.08zM687.24 489.77a93.24 93.24 0 0 1 13.93-21.54 16 16 0 0 0-28 1.2 93.23 93.23 0 0 1 12.91 20.34h-0.09zM857.83 531a52 52 0 0 0-42.53 22 94.38 94.38 0 0 1 11.15 6.89 39 39 0 0 1 62.3-0.61 94.36 94.36 0 0 1 11.25-6.75A52 52 0 0 0 857.83 531zM687.47 437.38a39 39 0 0 1 30.91 15.22 94.37 94.37 0 0 1 11.27-6.79 52.06 52.06 0 0 0-84.81 0.64 94.38 94.38 0 0 1 11.16 6.92 39 39 0 0 1 31.47-15.99z" fill="#FF5041" /><path d="M608.92 542.63a92.55 92.55 0 0 1 13.8 2.21 75.21 75.21 0 0 1 129.3-0.35 92.55 92.55 0 0 1 13.94-2 88.39 88.39 0 0 0-157 0.12zM669.65 465.43a21 21 0 0 1 35-1 94.22 94.22 0 0 1 9.76-8.82 34 34 0 0 0-54.43 0.83 94.16 94.16 0 0 1 9.67 8.99z" fill="#FF5041" /><path d="M687.47 526a57 57 0 0 1 46.77 24.36 93.58 93.58 0 0 1 12.7-4.58 70.2 70.2 0 0 0-119.18 0.4 93.69 93.69 0 0 1 12.55 4.75A57 57 0 0 1 687.47 526zM857.83 419.27a57 57 0 0 1 46.77 24.36 93.6 93.6 0 0 1 12.7-4.58 70.2 70.2 0 0 0-119.13 0.31 93.69 93.69 0 0 1 12.58 4.71 57 57 0 0 1 47.08-24.8zM546.61 560.09a94.38 94.38 0 0 1 11.12-6.92 52.05 52.05 0 0 0-84.9-0.5 94.37 94.37 0 0 1 11.24 6.81 39 39 0 0 1 62.54 0.61zM601.28 489.91A39 39 0 0 1 633.56 507a94.41 94.41 0 0 1 11.18-6.8 52.06 52.06 0 0 0-86.92 0A94.37 94.37 0 0 1 569 507a39 39 0 0 1 32.28-17.09zM601.28 542.3h2.19a93.26 93.26 0 0 1 13.23-20l-0.77 0.34a16 16 0 0 0-29.31 0l-0.74-0.32a93.27 93.27 0 0 1 13.22 20c0.73 0 1.46-0.02 2.18-0.02z" fill="#FF5041" /><path d="M601.28 508a21 21 0 0 1 18.42 11 94.19 94.19 0 0 1 9.85-9 34 34 0 0 0-56.55 0 94.2 94.2 0 0 1 9.85 9 21 21 0 0 1 18.43-11z" fill="#FF5041" /><path d="M601.28 453.69a75.55 75.55 0 0 1 65.61 38.41 92.57 92.57 0 0 1 13.74-2.1 88.39 88.39 0 0 0-158.7 0 92.55 92.55 0 0 1 13.74 2.07 75.55 75.55 0 0 1 65.61-38.38z" fill="#FF5041" /><path d="M601.28 471.8a57 57 0 0 1 48 26.2 93.63 93.63 0 0 1 12.56-4.61 70.21 70.21 0 0 0-121.15 0 93.64 93.64 0 0 1 12.58 4.61 57 57 0 0 1 48.01-26.2zM857.83 549.11a34 34 0 0 0-27.4 13.84 94.19 94.19 0 0 1 9.72 9 20.95 20.95 0 0 1 34.82-0.81 94.19 94.19 0 0 1 9.76-8.82 34 34 0 0 0-26.9-13.21zM532.93 572.14a94.17 94.17 0 0 1 9.7-9 34 34 0 0 0-54.55-0.65 94.2 94.2 0 0 1 9.75 8.86 20.95 20.95 0 0 1 35.1 0.81z" fill="#FF5041" /><path d="M515.11 567.22a16 16 0 0 0-13.8 8 93.25 93.25 0 0 1 13.25 20.32h2.41a93.24 93.24 0 0 1 12.46-19.41 16 16 0 0 0-14.32-8.91zM515.11 526a57 57 0 0 1 47.17 24.92 93.71 93.71 0 0 1 12.55-4.75 70.2 70.2 0 0 0-119.23-0.31 93.63 93.63 0 0 1 12.67 4.61A57 57 0 0 1 515.11 526zM529.42 469.39a16 16 0 0 0-28.12-0.94 93.24 93.24 0 0 1 13.7 21.3h1.55-0.09a93.23 93.23 0 0 1 12.96-20.36zM772 407.3a16 16 0 0 0-13.89 8.11 93.28 93.28 0 0 1 13.36 20.17h2.37a93.25 93.25 0 0 1 12.55-19.23A16 16 0 0 0 772 407.3z" fill="#FF5041" /><path d="M772 389.19a34 34 0 0 0-27.22 13.6 94.24 94.24 0 0 1 9.83 8.8 20.94 20.94 0 0 1 35.32 0.81 94.2 94.2 0 0 1 9.77-9 34 34 0 0 0-27.7-14.21z" fill="#FF5041" /><path d="M772 384.19a39 39 0 0 1 31.7 16.26 94.37 94.37 0 0 1 11.17-6.84 52 52 0 0 0-85.38-0.51 94.38 94.38 0 0 1 11.27 6.72A39 39 0 0 1 772 384.19zM692.68 489.93a92.49 92.49 0 0 1 13.89 1.84 75.23 75.23 0 0 1 131 0.25 92.55 92.55 0 0 1 13.78-2 88.39 88.39 0 0 0-158.65-0.07zM532.93 465.41a94.16 94.16 0 0 1 9.7-9 34 34 0 0 0-54.55-0.65 94.21 94.21 0 0 1 9.75 8.86 20.95 20.95 0 0 1 35.1 0.81z" fill="#FF5041" /><path d="M608.92 435.9a92.56 92.56 0 0 1 13.8 2.21 75.21 75.21 0 0 1 129.3-0.35 92.55 92.55 0 0 1 13.94-2 88.39 88.39 0 0 0-157 0.12zM515.11 419.27a57 57 0 0 1 47.17 24.92 93.71 93.71 0 0 1 12.55-4.75 70.2 70.2 0 0 0-119.23-0.31 93.63 93.63 0 0 1 12.67 4.61 57 57 0 0 1 46.84-24.47zM619.34 412.64a94.18 94.18 0 0 1 9.76-9 34 34 0 0 0-55.63 0 94.19 94.19 0 0 1 9.76 9 20.95 20.95 0 0 1 36.12 0z" fill="#FF5041" /><path d="M546.61 453.36a94.39 94.39 0 0 1 11.12-6.92 52.05 52.05 0 0 0-84.9-0.5 94.4 94.4 0 0 1 11.24 6.81 39 39 0 0 1 62.54 0.61zM601.28 435.57h2.19a93.24 93.24 0 0 1 12.33-19 16 16 0 0 0-29 0 93.25 93.25 0 0 1 12.34 19c0.69 0.02 1.42 0 2.14 0zM532.93 677.87a94.17 94.17 0 0 1 9.7-9 33.95 33.95 0 0 0-36.56-12.78l12.83 12.23a21.05 21.05 0 0 1 14.03 9.55zM601.28 702.37a39 39 0 0 1 31.35 15.77 94.36 94.36 0 0 1 11.18-6.84 52 52 0 0 0-82.81-2.9l9.5 9.05a39 39 0 0 1 30.78-15.08z" fill="#FF5041" /><path d="M601.28 666.14a75.54 75.54 0 0 1 64.76 37A92.54 92.54 0 0 1 679.9 701a88.33 88.33 0 0 0-145.2-17.66l9.51 9.07a75.43 75.43 0 0 1 57.07-26.27z" fill="#FF5041" /><path d="M601.28 684.25a57 57 0 0 1 47.1 24.82 93.66 93.66 0 0 1 12.62-4.65 70.16 70.16 0 0 0-113.15-8.55l9.51 9.06a56.92 56.92 0 0 1 43.92-20.68zM515.11 649.83a39 39 0 0 1 31.5 16 94.38 94.38 0 0 1 11.12-6.92 52 52 0 0 0-66.08-16.57l10.29 9.81a38.91 38.91 0 0 1 13.17-2.32zM478 497.55a93.58 93.58 0 0 1 12.67-4.47 70.7 70.7 0 0 0-44.8-32.62q-1.73 6.29-3 12.76A57.12 57.12 0 0 1 478 497.55zM857.83 567.22a16 16 0 0 0-14.19 8.65 93.24 93.24 0 0 1 12.67 19.65H858a93.26 93.26 0 0 1 13.45-20.56 16 16 0 0 0-13.62-7.74z" fill="#FF5041" /><path d="M515.11 613.61a75.53 75.53 0 0 1 64.75 36.95 92.57 92.57 0 0 1 13.8-2.2 88.2 88.2 0 0 0-125.23-34.42c2.29 3.51 4.74 7.11 7.39 10.82a75.07 75.07 0 0 1 39.29-11.15zM601.28 720.48a21 21 0 0 1 17.59 9.58 94.22 94.22 0 0 1 9.75-8.93 34 34 0 0 0-54.51-0.21l9.58 9.13a21 21 0 0 1 17.59-9.57zM686.72 737a57 57 0 0 1 47.06 24.76 93.64 93.64 0 0 1 12.63-4.63 70.2 70.2 0 0 0-119.4 0 93.66 93.66 0 0 1 12.62 4.65A57 57 0 0 1 686.72 737z" fill="#FF5041" /><path d="M615.39 734a16 16 0 0 0-28-0.38l17.11 16.31A93.28 93.28 0 0 1 615.39 734zM622 755.85a75.21 75.21 0 0 1 129.51 0 92.55 92.55 0 0 1 13.87-2.08 88.39 88.39 0 0 0-157.08-0.28l0.36 0.34a92.67 92.67 0 0 1 13.34 2.02zM439.32 510.1a21.1 21.1 0 0 1 8.85 8 94.23 94.23 0 0 1 9.88-8.8 34.16 34.16 0 0 0-18.3-13.06q-0.43 6.26-0.44 12.63c0.01 0.44 0.01 0.83 0.01 1.23zM444.6 522a16.11 16.11 0 0 0-5.23-6.09c0.06 4.16 0.18 8.21 0.38 12.16 1.54-2.07 3.15-4.12 4.85-6.07z" fill="#FF5041" /><path d="M450.52 544.55a75.21 75.21 0 0 1 129.34 0.27 92.57 92.57 0 0 1 13.8-2.2 88.36 88.36 0 0 0-153.36-6.49q0.3 3.44 0.72 6.81a92.59 92.59 0 0 1 9.5 1.61z" fill="#FF5041" /><path d="M462.09 506.38a94.37 94.37 0 0 1 11.28-6.68 52.15 52.15 0 0 0-31.45-21.56q-1.1 6.46-1.74 13.07a39.13 39.13 0 0 1 21.91 15.17zM686.72 778.22a16 16 0 0 0-14.11 8.48 93.26 93.26 0 0 1 12.76 19.56H687.9a93.25 93.25 0 0 1 12.86-19.67 16 16 0 0 0-14.04-8.37zM477.45 603.5a93.6 93.6 0 0 1 12.67-4.56A70.7 70.7 0 0 0 446 567.21a145.81 145.81 0 0 0 5.51 15.42 57.27 57.27 0 0 1 25.94 20.87z" fill="#FF5041" /><path d="M495.18 597.67a92.56 92.56 0 0 1 13.91-2 89 89 0 0 0-67.36-47.63c0.71 4.61 1.61 9.17 2.76 13.73a75.69 75.69 0 0 1 50.69 35.9zM454.62 589.6a203.66 203.66 0 0 0 11.13 20.12c2.31-1.44 4.68-2.8 7.11-4a52.48 52.48 0 0 0-18.24-16.12zM704.24 782.69a94.2 94.2 0 0 1 9.76-8.91 34 34 0 0 0-54.63 0.08 94.22 94.22 0 0 1 9.75 8.93 20.94 20.94 0 0 1 35.12-0.1z" fill="#FF5041" /><path d="M718 770.79a94.37 94.37 0 0 1 11.21-6.79 52 52 0 0 0-85 0.06 94.38 94.38 0 0 1 11.18 6.84 39 39 0 0 1 62.64-0.08zM670.48 812.76l12.28 11.7c1.32-0.07 2.64-0.12 4-0.12a74.66 74.66 0 0 1 11.78 0.94l11.1-11a87.09 87.09 0 0 0-39.13-1.53zM666 808.47l0.11 0.1a92.51 92.51 0 0 1 13.82-2.09 89 89 0 0 0-65.27-47l22 20.95A75.76 75.76 0 0 1 666 808.47zM601.28 596.64a39 39 0 0 1 31.81 16.43 94.39 94.39 0 0 1 11.15-6.87 52 52 0 0 0-85.91 0 94.38 94.38 0 0 1 11.15 6.87 39 39 0 0 1 31.8-16.43zM772 619.75a16 16 0 0 0-13.89 8.11A93.28 93.28 0 0 1 771.46 648h2.38a93.25 93.25 0 0 1 12.55-19.23 16 16 0 0 0-14.39-9.02z" fill="#FF5041" /><path d="M601.28 578.53A57 57 0 0 1 648.79 604a93.67 93.67 0 0 1 12.57-4.69 70.23 70.23 0 0 0-120.14 0 93.68 93.68 0 0 1 12.57 4.69 57 57 0 0 1 47.49-25.47zM772 565.41a70.52 70.52 0 0 0-59.82 33.45 93.58 93.58 0 0 1 12.69 4.52 57.09 57.09 0 0 1 94.55 0.45 93.66 93.66 0 0 1 12.58-4.65 70.53 70.53 0 0 0-60-33.77z" fill="#FF5041" /><path d="M772 583.53a52 52 0 0 0-42.52 22 94.36 94.36 0 0 1 11.27 6.72 39 39 0 0 1 62.94 0.63 94.36 94.36 0 0 1 11.17-6.84A52 52 0 0 0 772 583.53z" fill="#FF5041" /><path d="M772 601.64a34 34 0 0 0-27.22 13.61 94.23 94.23 0 0 1 9.83 8.8 20.94 20.94 0 0 1 35.32 0.81 94.2 94.2 0 0 1 9.77-9 34 34 0 0 0-27.7-14.22zM482.21 633.32l5.61 5.35a57.09 57.09 0 0 1 74.46 18 93.71 93.71 0 0 1 12.55-4.75 70.1 70.1 0 0 0-96.07-23.08q1.66 2.25 3.4 4.56zM687.47 672.95a16 16 0 0 0-14.32 8.91 93.25 93.25 0 0 1 12.22 18.92H687.9a93.27 93.27 0 0 1 13.24-20.12 16 16 0 0 0-13.67-7.71z" fill="#FF5041" /><path d="M687.47 613.61a75.53 75.53 0 0 1 64.53 36.6 92.55 92.55 0 0 1 13.94-2 88.39 88.39 0 0 0-157 0.12 92.55 92.55 0 0 1 13.8 2.21 75.53 75.53 0 0 1 64.73-36.93z" fill="#FF5041" /><path d="M601.28 560.41a75.54 75.54 0 0 1 65.09 37.53 92.57 92.57 0 0 1 13.79-2.16 88.41 88.41 0 0 0-157.77 0 92.55 92.55 0 0 1 13.79 2.15 75.54 75.54 0 0 1 65.1-37.52zM687.47 649.83A39 39 0 0 1 718.39 665a94.38 94.38 0 0 1 11.27-6.79 52.06 52.06 0 0 0-84.81 0.64 94.37 94.37 0 0 1 11.15 6.98 39 39 0 0 1 31.47-16z" fill="#FF5041" /><path d="M619.34 625.09a94.18 94.18 0 0 1 9.76-9 34 34 0 0 0-55.63 0 94.17 94.17 0 0 1 9.76 9 20.95 20.95 0 0 1 36.12 0z" fill="#FF5041" /><path d="M601.28 619.75a16 16 0 0 0-14.52 9.32 93.25 93.25 0 0 1 12.34 19H603.46a93.24 93.24 0 0 1 12.33-19 16 16 0 0 0-14.51-9.32zM789.75 730.31a94.19 94.19 0 0 1 9.73-9 34 34 0 0 0-54.77-0.29 94.22 94.22 0 0 1 9.76 8.91 21 21 0 0 1 35.28 0.35zM704.61 676.85a94.2 94.2 0 0 1 9.76-8.82 34 34 0 0 0-54.43 0.83 94.16 94.16 0 0 1 9.7 9 21 21 0 0 1 35-1z" fill="#FF5041" /><path d="M546.16 605.44l-55.54-55.54-46.01 46.01-21.22-21.21 67.23-67.23 55.54 55.54 49.99-49.98 48.8 48.8 56.94-56.95 68.34 68.34-21.22 21.21-47.12-47.12-56.94 56.94-48.8-48.79-49.99 49.98zM546.16 711.17l-55.54-55.55-46.01 46.02-21.22-21.22 67.23-67.22 55.54 55.54 49.99-49.99 48.8 48.8 56.94-56.94 68.34 68.33-21.22 21.21-47.12-47.12-56.94 56.95-48.8-48.8-49.99 49.99z" fill="#FFFFFF" /><path d="M975.48 527.08c0-109-89.4-197.37-199.68-197.37h-0.47a200.23 200.23 0 0 0-84.48 18.7c-26.8-77.76-101.32-133.7-189.06-133.7h-0.46a200.26 200.26 0 0 0-133 50.59 197.58 197.58 0 0 0-132.73-50.59c-110.28 0-199.68 88.37-199.68 197.38 0 47.85 5.38 79.77 45.88 133.27l0.05-0.05L344.49 808.4a25.6 25.6 0 0 0 36.14 0.1l61.9-61.33 176 176.23a25.6 25.6 0 0 0 36.15 0.1l264-261.55c35.24-35.54 56.8-81.03 56.8-134.87z m-612.77 228.8L119.33 512.13c-14.45-19.5-23.33-35.56-27.95-50.35s-5.5-30-5.5-49.7a145.3 145.3 0 0 1 43.63-104 149.85 149.85 0 0 1 106-43.37 148.16 148.16 0 0 1 99.31 37.77l33.24 29.88 33.41-29.7a150.11 150.11 0 0 1 99.83-38h0.46a149.85 149.85 0 0 1 106 43.37A145.93 145.93 0 0 1 647 376.22c-1.6 1.33-3.19 2.69-4.75 4.07a197.57 197.57 0 0 0-132.73-50.59c-110.28 0-199.68 88.37-199.68 197.38 0 47.85 5.38 79.77 45.88 133.27l0.05-0.05 51.4 51.49z m517.3-126l-243.3 241L478.06 712l-35.33-35.4-49.4-49.48c-14.45-19.49-23.36-35.56-27.95-50.34s-5.5-30-5.5-49.7a145.3 145.3 0 0 1 43.63-104 149.85 149.85 0 0 1 106-43.37 148.16 148.16 0 0 1 99.31 37.77l33.24 29.88 6.25-5.56 27.16-24.14a150.24 150.24 0 0 1 99.82-38h0.46a149.85 149.85 0 0 1 106 43.37 145.3 145.3 0 0 1 43.63 104c0 37.83-14.24 71.34-42.32 99.58z" fill="#2C2C4E" /></svg>