<?xml version="1.0" standalone="no"?><!DOCTYPE svg PUBLIC "-//W3C//DTD SVG 1.1//EN" "http://www.w3.org/Graphics/SVG/1.1/DTD/svg11.dtd"><svg class="icon" width="48px" height="43.73px" viewBox="0 0 1124 1024" version="1.1" xmlns="http://www.w3.org/2000/svg"><path d="M923.607843 341.333333V200.784314H40.156863v542.117647a40.156863 40.156863 0 0 0 40.156862 40.156863h642.509804V421.647059a80.313725 80.313725 0 0 1 80.313726-80.313726z m0-261.019608a40.156863 40.156863 0 0 0-40.156863-40.156862H80.313725a40.156863 40.156863 0 0 0-40.156862 40.156862v80.313726h883.45098zM762.980392 943.686275a40.156863 40.156863 0 0 0 40.156863 40.156862h240.941176a40.156863 40.156863 0 0 0 40.156863-40.156862v-60.235295H762.980392z m281.098039-562.196079H803.137255a40.156863 40.156863 0 0 0-40.156863 40.156863v60.235294h321.254902v-60.235294a40.156863 40.156863 0 0 0-40.156863-40.156863zM762.980392 843.294118h321.254902V522.039216H762.980392z" fill="#FFFFFF" /><path d="M923.607843 933.647059m-30.117647 0a30.117647 30.117647 0 1 0 60.235294 0 30.117647 30.117647 0 1 0-60.235294 0Z" fill="#EE6A56" /><path d="M80.313725 522.039216h381.490197V240.941176H80.313725z m722.82353 40.156862v100.392157h240.941176V562.196078z" fill="#85AB70" /><path d="M883.45098 341.333333V240.941176H501.960784v281.09804h220.862745V421.647059a80.313725 80.313725 0 0 1 80.313726-80.313726z m-80.313725 361.411765v100.392157h240.941176V702.745098z" fill="#F7D54A" /><path d="M80.313725 562.196078h642.509804v180.705883H80.313725z" fill="#86AEDD" /><path d="M883.45098 421.647059a10.039216 10.039216 0 1 0 10.039216 10.039216 10.039216 10.039216 0 0 0-10.039216-10.039216z m80.313726 0h-50.196079a10.039216 10.039216 0 0 0 0 20.078431h50.196079a10.039216 10.039216 0 0 0 0-20.078431zM100.392157 80.313725a20.078431 20.078431 0 1 0 20.078431 20.078432 20.078431 20.078431 0 0 0-20.078431-20.078432z m60.235294 0a20.078431 20.078431 0 1 0 20.078431 20.078432 20.078431 20.078431 0 0 0-20.078431-20.078432z m60.235294 0a20.078431 20.078431 0 1 0 20.078431 20.078432 20.078431 20.078431 0 0 0-20.078431-20.078432z"  /><path d="M80.313725 421.647059v20.078431h20.078432v-20.078431z m20.078432 0h20.078431v-20.078432h-20.078431z m20.078431-20.078432h20.078432v-20.078431h-20.078432z m-40.156863-20.078431v20.078431h20.078432v-20.078431z m60.235295 100.392157v-20.078431h-20.078432v20.078431z m0 40.156863v-20.078432h-20.078432v20.078432z m0-80.313726v-20.078431h-20.078432v20.078431z m-40.156863 60.235294h20.078431v-20.078431h-20.078431z m-20.078432-40.156862v20.078431h20.078432v-20.078431z m20.078432 0h20.078431v-20.078432h-20.078431z m-20.078432 60.235294h20.078432v-20.078432H80.313725z m40.156863-240.941177h20.078432v-20.078431h-20.078432z m-20.078431-40.156863v20.078432h20.078431v-20.078432z m0 60.235295H80.313725v20.078431h20.078432z m0 40.156862H80.313725v20.078432h20.078432z m40.156863 20.078432v-20.078432h-20.078432v20.078432z m0-40.156863v-20.078431h-20.078432v20.078431z m-40.156863 20.078431h20.078431v-20.078431h-20.078431z m0-80.313725H80.313725v20.078431h20.078432z m0 120.470588h20.078431v-20.078431h-20.078431z m0-80.313725h20.078431v-20.078432h-20.078431z m401.568627 220.862745h20.078432v-20.078432h-20.078432z m60.235294-80.313726v-20.078431h-20.078431v20.078431z m0 80.313726v-20.078432h-20.078431v20.078432z m0-40.156863v-20.078431h-20.078431v20.078431z m-40.156862 20.078431h20.078431v-20.078431h-20.078431z m-20.078432-40.156862v20.078431h20.078432v-20.078431z m0-80.313726v20.078431h20.078432v-20.078431z m40.156863 20.078431h20.078431v-20.078431h-20.078431z m-20.078431 20.078432h20.078431v-20.078432h-20.078431z m-20.078432 0v20.078431h20.078432v-20.078431z m20.078432 40.156863h20.078431v-20.078432h-20.078431z m0-200.784314h-20.078432v20.078431h20.078432z m0 40.156863h-20.078432v20.078431h20.078432z m0 40.156862h-20.078432v20.078432h20.078432z m40.156862 20.078432v-20.078432h-20.078431v20.078432z m0-40.156863v-20.078431h-20.078431v20.078431z m-20.078431-40.156863h20.078431v-20.078431h-20.078431z m-20.078431 60.235294h20.078431v-20.078431h-20.078431z m0-40.156862h20.078431v-20.078432h-20.078431z m0-60.235295v20.078432h20.078431v-20.078432z m0 140.54902h20.078431v-20.078431h-20.078431zM80.313725 702.745098v20.078431h20.078432v-20.078431z m20.078432 40.156863h20.078431v-20.078432h-20.078431z m20.078431-20.078432h20.078432v-20.078431h-20.078432z m20.078432-40.156862v-20.078432h-20.078432v20.078432z m-40.156863-20.078432h20.078431v-20.078431h-20.078431z m40.156863-20.078431v-20.078431h-20.078432v20.078431z m-40.156863-20.078431H80.313725v20.078431h20.078432z m0 40.156862H80.313725v20.078432h20.078432z m0-40.156862h20.078431v-20.078432h-20.078431z m0-40.156863H80.313725v20.078431h20.078432z m0 120.470588h20.078431v-20.078431h-20.078431z m0-140.54902v20.078432h20.078431v-20.078432z m20.078431 40.156863h20.078432v-20.078431h-20.078432z m702.745098 60.235294h20.078432v-20.078431h-20.078432z m-20.078431-40.156862v20.078431h20.078431v-20.078431z m0-40.156863v20.078431h20.078431v-20.078431z m60.235294 60.235294v-20.078431h-20.078431v20.078431z m-20.078431-80.313726h-20.078432v20.078432h20.078432z m-20.078432 40.156863v20.078432h20.078432v-20.078432z m40.156863 0v-20.078431h-20.078431v20.078431z m0 180.705883v-20.078432h-20.078431v20.078432z m-40.156863-20.078432h20.078432v-20.078431h-20.078432z m0 40.156863h20.078432v-20.078431h-20.078432z m-20.078431-40.156863v20.078432h20.078431v-20.078432z m40.156863-20.078431h20.078431v-20.078432h-20.078431z m0-40.156863h-20.078432v20.078431h20.078432z m-40.156863 20.078431v20.078432h20.078431v-20.078432z"  /><path d="M1044.078431 341.333333h-80.313725V80.313725a80.313725 80.313725 0 0 0-80.313726-80.313725H80.313725a80.313725 80.313725 0 0 0-80.313725 80.313725v662.588236a80.313725 80.313725 0 0 0 80.313725 80.313725h642.509804v120.470589a80.313725 80.313725 0 0 0 80.313726 80.313725h240.941176a80.313725 80.313725 0 0 0 80.313726-80.313725V421.647059a80.313725 80.313725 0 0 0-80.313726-80.313726zM40.156863 80.313725a40.156863 40.156863 0 0 1 40.156862-40.156862h803.137255a40.156863 40.156863 0 0 1 40.156863 40.156862v80.313726H40.156863z m682.666666 341.333334v361.411765H80.313725a40.156863 40.156863 0 0 1-40.156862-40.156863V200.784314h883.45098v140.549019H803.137255a80.313725 80.313725 0 0 0-80.313726 80.313726z m361.411765 522.039216a40.156863 40.156863 0 0 1-40.156863 40.156862H803.137255a40.156863 40.156863 0 0 1-40.156863-40.156862v-60.235295h321.254902z m0-100.392157H762.980392V522.039216h321.254902z m0-361.411765H762.980392v-60.235294a40.156863 40.156863 0 0 1 40.156863-40.156863h240.941176a40.156863 40.156863 0 0 1 40.156863 40.156863z"  /></svg>