<?xml version="1.0" standalone="no"?><!DOCTYPE svg PUBLIC "-//W3C//DTD SVG 1.1//EN" "http://www.w3.org/Graphics/SVG/1.1/DTD/svg11.dtd"><svg class="icon" width="48px" height="48.00px" viewBox="0 0 1024 1024" version="1.1" xmlns="http://www.w3.org/2000/svg"><path d="M173.239979 545.450667L495.117312 904.533333l450.56-466.602666L853.517312 307.2H341.517312l-168.277333 238.250667z" fill="#4F8DFC" /><path d="M1014.967979 379.904l-204.8-290.133333A51.2 51.2 0 0 0 768.183979 68.266667h-512a51.2 51.2 0 0 0-41.984 21.504l-204.8 290.133333A51.2 51.2 0 0 0 13.154645 443.733333l443.733334 494.933334a51.2 51.2 0 0 0 37.205333 17.066666 51.2 51.2 0 0 0 36.864-15.701333l477.866667-494.933333a51.2 51.2 0 0 0 6.144-65.194667zM496.482645 829.44L116.578645 405.845333 282.807979 170.666667h458.752l165.205333 233.813333z" fill="#181818" /><path d="M662.711979 391.850667l-155.989334 164.181333-144.042666-162.816a51.2 51.2 0 1 0-76.8 68.266667l180.906666 204.8a51.2 51.2 0 0 0 37.546667 17.408 51.2 51.2 0 0 0 37.205333-16.042667l194.56-204.8a51.2 51.2 0 1 0-74.069333-70.656z" fill="#181818" /></svg>