<?xml version="1.0" standalone="no"?><!DOCTYPE svg PUBLIC "-//W3C//DTD SVG 1.1//EN" "http://www.w3.org/Graphics/SVG/1.1/DTD/svg11.dtd"><svg class="icon" width="48px" height="48.00px" viewBox="0 0 1024 1024" version="1.1" xmlns="http://www.w3.org/2000/svg"><path d="M187.733333 580.266667h648.533334v375.466666h-648.533334z" fill="#4F8DFC" /><path d="M870.4 0h-716.8A51.2 51.2 0 0 0 102.4 51.2v921.6A51.2 51.2 0 0 0 153.6 1024h716.8a51.2 51.2 0 0 0 51.2-51.2v-921.6A51.2 51.2 0 0 0 870.4 0zM819.2 102.4v147.114667A375.466667 375.466667 0 0 1 512 409.6a375.466667 375.466667 0 0 1-307.2-160.426667V102.4zM204.8 921.6V399.36a477.866667 477.866667 0 0 0 307.2 112.64 477.866667 477.866667 0 0 0 307.2-112.64V921.6z" fill="#181818" /></svg>