<?xml version="1.0" standalone="no"?><!DOCTYPE svg PUBLIC "-//W3C//DTD SVG 1.1//EN" "http://www.w3.org/Graphics/SVG/1.1/DTD/svg11.dtd"><svg class="icon" width="48px" height="48.00px" viewBox="0 0 1024 1024" version="1.1" xmlns="http://www.w3.org/2000/svg"><path d="M187.733333 512a351.914667 351.914667 0 0 0 38.570667 161.109333 263.168 263.168 0 0 0 115.029333 26.624c160.085333 0 290.133333-145.066667 290.133334-324.266666a351.914667 351.914667 0 0 0-38.570667-161.109334A263.168 263.168 0 0 0 477.866667 187.733333c-160.085333 0-290.133333 145.066667-290.133334 324.266667z" fill="#4F8DFC" /><path d="M529.066667 546.133333a351.914667 351.914667 0 0 0 38.570666 161.109334 263.168 263.168 0 0 0 115.029334 26.624c160.085333 0 290.133333-145.066667 290.133333-324.266667a351.914667 351.914667 0 0 0-38.570667-161.109333A263.168 263.168 0 0 0 819.2 221.866667c-160.085333 0-290.133333 145.066667-290.133333 324.266666z" fill="#4F8DFC" /><path d="M1024 409.6c0-207.189333-153.258667-375.466667-341.333333-375.466667a313.344 313.344 0 0 0-141.653334 34.133334h-2.389333A318.805333 318.805333 0 0 0 341.333333 0C153.258667 0 0 168.277333 0 375.466667c0 181.248 117.418667 333.141333 273.066667 367.957333v229.376a51.2 51.2 0 0 0 102.4 0v-223.914667a314.709333 314.709333 0 0 0 109.568-34.133333 319.488 319.488 0 0 0 163.498666 68.266667v189.781333a51.2 51.2 0 0 0 102.4 0v-195.242667c155.648-34.816 273.066667-186.709333 273.066667-367.957333zM102.4 375.466667c0-150.528 107.178667-273.066667 238.933333-273.066667s238.933333 122.538667 238.933334 273.066667-107.178667 273.066667-238.933334 273.066666-238.933333-122.538667-238.933333-273.066666z m580.266667 307.2a213.333333 213.333333 0 0 1-110.592-31.402667A391.850667 391.850667 0 0 0 682.666667 375.466667a397.653333 397.653333 0 0 0-69.973334-226.986667A210.261333 210.261333 0 0 1 682.666667 136.533333c131.754667 0 238.933333 122.538667 238.933333 273.066667s-107.178667 273.066667-238.933333 273.066667z" fill="#181818" /></svg>