<?xml version="1.0" standalone="no"?><!DOCTYPE svg PUBLIC "-//W3C//DTD SVG 1.1//EN" "http://www.w3.org/Graphics/SVG/1.1/DTD/svg11.dtd"><svg class="icon" width="48px" height="48.00px" viewBox="0 0 1024 1024" version="1.1" xmlns="http://www.w3.org/2000/svg"><path d="M512 512m-273.066667 0a273.066667 273.066667 0 1 0 546.133334 0 273.066667 273.066667 0 1 0-546.133334 0Z" fill="#4F8DFC" /><path d="M512 0a512 512 0 1 0 512 512A512 512 0 0 0 512 0z m0 921.6a409.6 409.6 0 1 1 409.6-409.6 409.6 409.6 0 0 1-409.6 409.6z" fill="#181818" /><path d="M631.466667 512a51.2 51.2 0 0 0 0-102.4h-36.181334l75.093334-88.064a51.2 51.2 0 1 0-77.824-65.536L512 350.549333 431.445333 256a51.2 51.2 0 1 0-77.824 66.218667l75.093334 87.381333H392.533333a51.2 51.2 0 0 0 0 102.4h68.266667v34.133333h-68.266667a51.2 51.2 0 0 0 0 102.4h68.266667v85.333334a51.2 51.2 0 0 0 102.4 0V648.533333h68.266667a51.2 51.2 0 0 0 0-102.4h-68.266667v-34.133333z" fill="#181818" /></svg>