<?xml version="1.0" standalone="no"?><!DOCTYPE svg PUBLIC "-//W3C//DTD SVG 1.1//EN" "http://www.w3.org/Graphics/SVG/1.1/DTD/svg11.dtd"><svg class="icon" width="48px" height="37.66px" viewBox="0 0 1305 1024" version="1.1" xmlns="http://www.w3.org/2000/svg"><path d="M0 373.458824l650.541176 379.482352V1024L0 644.035765V373.458824z" fill="#B8D9F6" /><path d="M650.541176 752.459294V1024l650.541177-379.482353 3.493647-271.058823z" fill="#99C9F2" /><path d="M1304.576 373.458824L650.541176 0 4.939294 373.458824 650.541176 751.375059z" fill="#E0EFFB" /><path d="M1019.904 472.726588l-162.394353-12.047059 38.912-22.64847L847.510588 409.6l-168.658823 98.304-71.318589 41.441882 39.152942 22.648471-162.635294 12.047059 20.961882-94.208 39.152941 22.64847 48.188235-28.190117L398.998588 373.458824l-48.790588-28.672-38.912 22.64847L289.129412 272.986353l162.394353 12.047059-38.309647 22.768941 49.27247 28.431059 168.658824-98.304 22.768941-13.251765 48.911059-28.431059-39.152941-22.64847 162.273882-12.047059-20.48 93.967059-39.152941-22.648471-48.911059 28.431059 192.752941 111.555765 48.188235 28.431058 38.912-22.64847z m-464.293647-42.164706c55.416471 32.045176 144.564706 31.804235 199.137882 0s54.814118-83.365647-0.602353-115.410823-144.564706-31.563294-198.656 0-54.814118 83.365647 0 115.049412" fill="#5CA8EA" /></svg>