<?xml version="1.0" standalone="no"?><!DOCTYPE svg PUBLIC "-//W3C//DTD SVG 1.1//EN" "http://www.w3.org/Graphics/SVG/1.1/DTD/svg11.dtd"><svg class="icon" width="48px" height="48.00px" viewBox="0 0 1024 1024" version="1.1" xmlns="http://www.w3.org/2000/svg"><path d="M400.063988 609.797753l-1.072558-391.483527 175.704437-101.697962 1.072558 391.386021-175.704437 101.795468z" fill="#99C9F2" /><path d="M400.063988 609.797753L199.495715 493.181489l-1.072558-391.483527 200.568273 116.616264 1.072558 391.483527z" fill="#B8D9F6" /><path d="M290.370596 223.579509l-59.185679-34.321844-0.292516-30.811655 59.185679 34.419349 0.292516 30.71415zM367.692249 266.384308l-59.185679-34.419349-0.292516-30.811655 59.088174 34.419349 0.390021 30.811655zM290.370596 271.45458l-59.185679-34.419349-0.292516-30.811655 59.185679 34.419349 0.292516 30.811655zM367.692249 314.161874l-59.185679-34.419349-0.292516-30.811655 59.088174 34.419349 0.390021 30.811655zM290.370596 319.232146l-59.185679-34.419348-0.292516-30.811655 59.185679 34.419348 0.292516 30.811655zM367.692249 361.93944l-59.185679-34.419349-0.292516-30.811655 59.088174 34.419349 0.390021 30.811655zM290.370596 367.009712l-59.185679-34.419348-0.292516-30.811655 59.185679 34.419349 0.292516 30.811654zM367.692249 409.717006l-59.185679-34.419348-0.292516-30.811655 59.088174 34.419348 0.390021 30.811655zM290.370596 414.787279l-59.185679-34.419349-0.292516-30.811655 59.185679 34.419349 0.292516 30.811655zM367.692249 457.494572l-59.185679-34.419348-0.292516-30.811655 59.088174 34.419349 0.390021 30.811654zM290.370596 462.564845l-59.185679-34.419349-0.292516-30.71415 59.185679 34.321844 0.292516 30.811655zM367.692249 505.272139l-59.185679-34.419349-0.292516-30.71415 59.088174 34.321844 0.390021 30.811655zM290.370596 510.342411l-59.185679-34.419349-0.292516-30.714149 59.185679 34.321843 0.292516 30.811655zM367.692249 553.049705l-59.185679-34.321844-0.292516-30.811655 59.088174 34.321844 0.390021 30.811655z" fill="#5CA8EA" /><path d="M398.99143 218.314226L198.423157 101.697962 374.03009 0l200.665777 116.616264-175.704437 101.697962z" fill="#E0EFFB" /><path d="M624.423538 750.49781l-1.072557-391.483527 175.606932-101.697962 1.072557 391.483527-175.606932 101.697962z" fill="#99C9F2" /><path d="M624.423538 750.49781L423.855266 633.881546l-1.170063-391.483527 200.665778 116.616264 1.072557 391.483527z" fill="#B8D9F6" /><path d="M514.632641 364.377071l-59.088173-34.419349-0.390021-30.811655 59.185679 34.419349 0.292515 30.811655zM591.954294 407.084365l-59.088173-34.419349-0.390021-30.811655 59.185679 34.419349 0.292515 30.811655zM514.632641 412.154637l-59.088173-34.419348-0.390021-30.811655 59.185679 34.419348 0.292515 30.811655zM591.954294 454.861931l-59.088173-34.419349-0.390021-30.811655 59.185679 34.419349 0.292515 30.811655zM514.632641 459.932203l-59.088173-34.419348-0.390021-30.811655 59.185679 34.419348 0.292515 30.811655zM591.954294 502.639497l-59.088173-34.419348-0.390021-30.71415 59.185679 34.321843 0.292515 30.811655zM514.632641 507.70977l-59.088173-34.419349-0.390021-30.811655 59.185679 34.419349 0.292515 30.811655zM591.954294 550.417063l-59.088173-34.419348-0.390021-30.71415 59.185679 34.321843 0.292515 30.811655zM514.632641 555.487336l-59.088173-34.419349-0.390021-30.71415 59.185679 34.321844 0.292515 30.811655zM591.954294 598.19463l-59.088173-34.321844-0.390021-30.811655 59.185679 34.321844 0.292515 30.811655zM514.632641 603.264902l-59.088173-34.419349-0.390021-30.714149 59.185679 34.321843 0.292515 30.811655zM591.954294 645.972196l-59.088173-34.321844-0.390021-30.811655 59.185679 34.321844 0.292515 30.811655zM514.632641 651.042468l-59.088173-34.419349-0.390021-30.714149 59.185679 34.321843 0.292515 30.811655zM591.954294 693.749762l-59.088173-34.321844-0.390021-30.811654L591.661779 663.035612l0.292515 30.71415z" fill="#5CA8EA" /><path d="M623.350981 359.014283L422.685203 242.398019l175.704437-101.697962 200.568273 116.616264-175.606932 101.697962z" fill="#E0EFFB" /><path d="M848.783089 891.197867l-1.170063-391.483527 175.606932-101.697962 1.170063 391.483527L848.783089 891.197867z" fill="#99C9F2" /><path d="M848.783089 891.197867L648.117311 774.679109l-1.072558-391.483527 200.568273 116.518758 1.170063 391.483527z" fill="#B8D9F6" /><path d="M738.992192 505.077128l-59.185679-34.419349-0.292516-30.811654 59.088174 34.419348 0.390021 30.811655zM816.313845 547.784422l-59.185679-34.419349-0.292516-30.811655 59.088174 34.419349 0.390021 30.811655zM738.992192 552.854694l-59.185679-34.419348-0.292516-30.71415 59.088174 34.321843 0.390021 30.811655zM816.313845 595.561988l-59.185679-34.419349-0.292516-30.714149 59.088174 34.321843 0.390021 30.811655zM738.992192 600.632261l-59.185679-34.419349-0.292516-30.71415 59.088174 34.321844 0.390021 30.811655zM816.313845 643.339554l-59.185679-34.419348-0.292516-30.71415 59.088174 34.321843 0.390021 30.811655zM738.992192 648.409827l-59.185679-34.419349-0.292516-30.71415 59.088174 34.321844 0.390021 30.811655zM816.313845 691.117121l-59.185679-34.321844-0.292516-30.811655 59.088174 34.321844 0.390021 30.811655zM738.992192 696.187393l-59.185679-34.321844-0.292516-30.811655 59.088174 34.321844 0.390021 30.811655zM816.313845 738.894687l-59.185679-34.321844-0.292516-30.811655 59.088174 34.419349 0.390021 30.71415zM738.992192 743.964959l-59.185679-34.321843-0.292516-30.811655 59.088174 34.321843 0.390021 30.811655zM816.313845 786.672253l-59.185679-34.321844-0.292516-30.811654 59.088174 34.419348 0.390021 30.71415zM738.992192 791.742525l-59.185679-34.321843-0.292516-30.811655 59.088174 34.419349 0.390021 30.714149zM816.313845 834.449819l-59.185679-34.321843-0.292516-30.811655 59.088174 34.419348 0.390021 30.71415z" fill="#5CA8EA" /><path d="M847.613026 499.71434L647.044753 383.195582l175.606932-101.795468 200.568273 116.616264-175.606932 101.697962z" fill="#E0EFFB" /><path d="M201.738336 742.599886l-1.170063-391.483527 175.704437-101.697963 1.072558 391.483527-175.606932 101.697963z" fill="#99C9F2" /><path d="M201.738336 742.599886L1.072558 625.983622 0 234.500095l200.568273 116.616264 1.170063 391.483527z" fill="#B8D9F6" /><path d="M91.947439 356.479147l-59.185679-34.419349-0.292516-30.811655 59.088174 34.419349 0.390021 30.811655zM169.269092 399.186441l-59.185679-34.419349-0.292516-30.811655 59.088174 34.419349 0.390021 30.811655zM91.947439 404.256713l-59.185679-34.419349-0.292516-30.811655 59.088174 34.419349 0.390021 30.811655zM169.269092 446.964007l-59.185679-34.419349-0.292516-30.811655 59.088174 34.419349 0.390021 30.811655zM91.947439 452.034279l-59.185679-34.419349-0.292516-30.811654 59.088174 34.419348 0.390021 30.811655zM169.269092 494.741573l-59.185679-34.419349-0.292516-30.811655 59.088174 34.419349 0.390021 30.811655zM91.947439 499.811845l-59.185679-34.419348-0.292516-30.71415 59.088174 34.321843 0.390021 30.811655zM169.269092 542.519139l-59.185679-34.419348-0.292516-30.71415 59.088174 34.321843 0.390021 30.811655zM91.947439 547.589412l-59.185679-34.419349-0.292516-30.71415L91.557418 516.777757l0.390021 30.811655zM169.269092 590.296705l-59.185679-34.321843-0.292516-30.811655 59.088174 34.321843 0.390021 30.811655zM91.947439 595.366978l-59.185679-34.419349-0.292516-30.71415 59.088174 34.321844 0.390021 30.811655zM169.269092 638.074272l-59.185679-34.321844-0.292516-30.811655 59.088174 34.321844 0.390021 30.811655zM91.947439 643.144544l-59.185679-34.321844-0.292516-30.811654 59.088174 34.321843 0.390021 30.811655zM169.269092 685.851838l-59.185679-34.321844-0.292516-30.811655 59.088174 34.419349 0.390021 30.71415z" fill="#5CA8EA" /><path d="M200.568273 351.116359L0 234.500095l175.606932-101.697962 200.665778 116.616263-175.704437 101.697963z" fill="#E0EFFB" /><path d="M426.000381 883.299943l-1.072558-391.483527 175.606932-101.697962 1.072558 391.483527-175.606932 101.697962z" fill="#99C9F2" /><path d="M426.000381 883.299943L225.432108 766.781185 224.262045 375.297658l200.665778 116.518758 1.072558 391.483527z" fill="#B8D9F6" /><path d="M316.209484 497.179204l-59.088174-34.419349-0.390021-30.811655 59.185679 34.419349 0.292516 30.811655zM393.531137 539.886498l-59.088174-34.419349-0.390021-30.71415 59.185679 34.321844 0.292516 30.811655zM316.209484 544.95677l-59.088174-34.419349-0.390021-30.811654 59.185679 34.419348 0.292516 30.811655zM393.531137 587.664064l-59.088174-34.419349-0.390021-30.714149 59.185679 34.321843 0.292516 30.811655zM316.209484 592.734336l-59.088174-34.419348-0.390021-30.71415 59.185679 34.321843 0.292516 30.811655zM393.531137 635.44163l-59.088174-34.321843-0.390021-30.811655 59.185679 34.321843 0.292516 30.811655zM316.209484 640.511902l-59.088174-34.419348-0.390021-30.71415 59.185679 34.321844 0.292516 30.811654zM393.531137 683.219196l-59.088174-34.321843-0.390021-30.811655 59.185679 34.321843 0.292516 30.811655zM316.209484 688.289469l-59.088174-34.419349-0.390021-30.71415 59.185679 34.321844 0.292516 30.811655zM393.531137 730.996763l-59.088174-34.321844-0.390021-30.811655 59.185679 34.321844 0.292516 30.811655zM316.209484 736.067035l-59.088174-34.321844-0.390021-30.811655 59.185679 34.321844 0.292516 30.811655zM393.531137 778.774329l-59.088174-34.321844-0.390021-30.811655 59.185679 34.419349 0.292516 30.71415zM316.209484 783.844601l-59.088174-34.321843-0.390021-30.811655 59.185679 34.419348 0.292516 30.71415zM393.531137 826.6494l-59.088174-34.419349-0.390021-30.811655 59.185679 34.419349 0.292516 30.811655z" fill="#5CA8EA" /><path d="M424.927823 491.816416L224.262045 375.297658l175.704438-101.795468 200.568272 116.616264-175.606932 101.697962z" fill="#E0EFFB" /><path d="M650.359931 1024l-1.170062-391.483527 175.606932-101.697962 1.170062 391.483527-175.606932 101.697962z" fill="#99C9F2" /><path d="M650.359931 1024L449.694153 907.481242l-1.072557-391.483527 200.568273 116.518758 1.170062 391.483527z" fill="#B8D9F6" /><path d="M540.569034 637.879261l-59.185678-34.419349-0.292516-30.714149 59.185679 34.321843 0.292515 30.811655zM617.890687 680.586555l-59.185678-34.321844-0.292516-30.811654 59.185679 34.321843 0.292515 30.811655zM540.569034 685.656827l-59.185678-34.419348-0.292516-30.71415 59.185679 34.321843 0.292515 30.811655zM617.890687 728.364121l-59.185678-34.321843-0.292516-30.811655 59.185679 34.321843 0.292515 30.811655zM540.569034 733.434393l-59.185678-34.419348-0.292516-30.71415 59.185679 34.321844 0.292515 30.811654zM617.890687 776.141687l-59.185678-34.321843-0.292516-30.811655 59.185679 34.321843 0.292515 30.811655zM540.569034 781.21196l-59.185678-34.321844-0.292516-30.811655 59.185679 34.419349 0.292515 30.71415zM617.890687 823.919253l-59.185678-34.321843-0.292516-30.811655 59.185679 34.419349 0.292515 30.714149zM540.569034 828.989526l-59.185678-34.321844-0.292516-30.811655 59.185679 34.419349 0.292515 30.71415zM617.890687 871.794325l-59.185678-34.419349-0.292516-30.811655 59.185679 34.419349 0.292515 30.811655zM540.569034 876.767092l-59.185678-34.321843-0.292516-30.811655 59.185679 34.419348 0.292515 30.71415zM617.890687 919.571891l-59.185678-34.419349-0.292516-30.811655 59.185679 34.419349 0.292515 30.811655zM540.569034 924.642163l-59.185678-34.419348-0.292516-30.811655 59.185679 34.419348 0.292515 30.811655zM617.890687 967.349457l-59.185678-34.419348-0.292516-30.811655 59.185679 34.419348 0.292515 30.811655z" fill="#5CA8EA" /><path d="M649.189869 632.516473L448.621596 515.997715l175.606932-101.697963 200.568273 116.518759-175.606932 101.697962z" fill="#E0EFFB" /></svg>