<?xml version="1.0" standalone="no"?><!DOCTYPE svg PUBLIC "-//W3C//DTD SVG 1.1//EN" "http://www.w3.org/Graphics/SVG/1.1/DTD/svg11.dtd"><svg class="icon" width="48px" height="41.27px" viewBox="0 0 1191 1024" version="1.1" xmlns="http://www.w3.org/2000/svg"><path d="M216.54254 221.340567l192.299877-111.743526-1.136375-0.757584-8.080888-5.681874-2.651541-2.146486-2.399014-1.515166-3.156597-1.64143-7.702096-4.798028-1.767694-1.01011L376.266338 88.38471l-2.27275-1.136375-3.156597-1.64143-2.399013-1.262639-3.787916-1.767694-2.777806-1.262639h-1.136374L353.538841 77.778545l-7.575832-2.904069h-1.010111l-2.777806-0.883847-3.91418-1.262639h-1.893958l-3.409124-0.883847-2.525278-0.757583h-2.651541l-3.409124-0.757583h-4.924291l-3.787917-2.904069H285.482614c-3.030333 0-6.060666 0.757583-8.964735 1.262638H273.866338l-5.303083 1.262639-2.525277 0.757583-3.409125 1.010111h-0.883847l-5.050555 2.020222-2.146486 2.020222c-2.399014 1.136375-4.798027 2.399014-7.070776 3.661652L55.051048 190.658446c2.27275-1.388903 4.671763-2.525277 7.070777-3.661652l2.399013-1.010111 5.050555-2.020222 4.166708-1.388902 2.525278-0.757584 5.303082-1.262638H84.218002c2.904069 0 5.934402-1.010111 8.964735-1.262639h29.67201l3.787916 0.631319 4.924291 0.883847 3.409125 0.757584 5.303083 1.262638 3.409124 0.883847 5.808138 1.767695 2.777805 0.883847 8.585944 3.156597 8.712207 3.787916 2.777805 1.262638 6.18693 3.030333 3.156596 1.641431 8.333416 4.545499c4.166708 2.399014 8.207152 4.924291 12.626387 7.575832l2.399014 1.515167c3.535388 2.777805 7.449568 5.55561 11.490012 8.459679z" fill="#B8D9F6" /><path d="M397.099877 152.147965l1.262638 1.010111q6.313194 5.176819 12.626388 10.73243l1.388902 1.262638q6.060666 5.55561 11.868804 11.616276l1.388903 1.388903q5.808138 6.060666 11.237484 12.626387l1.388903 1.515167q5.429346 6.313194 10.479901 12.626387l1.767694 2.27275q4.671763 6.18693 9.090999 12.626387l1.641431 2.272749q5.303083 7.82836 10.227373 15.909248L663.64291 126.263872q-4.798027-7.82836-9.974846-15.404193l-1.64143-2.272749c-2.27275-3.156597-4.419236-6.439457-6.818249-9.596055l-2.27275-3.030332-1.767694-2.27275-2.27275-3.030333-5.808138-7.197041-2.27275-2.651541-1.388902-1.515167-2.146486-2.399013-5.934402-6.565721-3.282861-3.409125-1.388902-1.388903-1.641431-2.399013-6.439457-6.313194-3.91418-3.661652-1.388903-1.262639-1.388902-1.388902-6.818249-5.934402-4.419236-3.661653-1.262639-1.010111-1.136374-0.883847-6.691986-5.050554-5.808138-4.166708L568.187423 25.252774l-6.439458-3.91418-1.515166-0.883847-4.671763-2.399013-1.767694-0.883847-2.525278-1.262639-1.893958-1.010111-3.030333-1.388903-1.64143-0.883847h-0.883847l-5.808138-3.156597-6.439458-2.399013-1.262639-0.252528-1.64143-0.631319-3.156597-1.136375h-1.388902L521.46979 3.91418h-2.146485L517.681874 2.904069H483.96942l-7.19704 1.010111a75.758323 75.758323 0 0 0-9.596054 0.378792H465.661159l-4.040444 1.64143-1.893958 0.883847-5.681874 2.904069-192.931196 112.248582 5.681874-2.904069 1.893958-0.883847 4.040444-1.64143h1.515166a75.758323 75.758323 0 0 1 9.469791-2.904069l7.197041-1.010111h26.76794l3.91418 0.757583h2.651542l4.166707 1.010111 2.651542 0.757583 4.671763 1.388903 2.146486 0.757583 6.818249 2.525277 6.565721 2.904069 2.27275 1.010111 4.924291 2.399014 2.525277 1.262639 6.565722 3.661652q7.449568 4.292972 14.646609 9.217263 8.207152 6.565721 14.899137 11.868803zM1191.552158 768.946979v-9.217263-4.671763-4.545499c0-1.515166-0.631319-6.18693-1.010111-9.343527s0-4.040444-0.883847-5.934402v-3.535388q-0.757583-4.798027-1.641431-9.596054t-2.020222-9.848582l-2.272749-9.848582q-1.136375-4.924291-2.651542-10.10111v-3.282861l-4.671763-7.19704q-1.515166-5.050555-3.156597-9.974846l-1.262638-3.535389-0.757584-2.020222-1.388902-4.040444-3.535389-9.46979-2.777805-6.818249v-2.27275l-3.91418-9.090999-4.292971-9.343526-0.63132-1.388903-0.757583-1.515166-3.409124-7.070777-5.681875-10.984957-0.757583-1.388902-2.525277-4.671764c-1.893958-3.535388-3.91418-7.070777-5.934402-10.606165l-1.767695-2.904069c-3.282861-5.55561-6.691985-10.984957-10.227373-16.288039l-3.156597-5.050555-1.010111-1.388903-3.91418-5.55561c-2.27275-3.282861-4.419236-6.439457-6.818249-9.596054l-2.904069-3.787917-2.525278-3.28286-3.156596-4.040444-7.323305-9.090999-2.27275-2.777805-1.767694-2.020222-3.28286-3.91418-7.449569-8.333416-3.030333-3.156596-2.904069-1.388903-2.904069-3.030333-8.585943-8.207152-3.282861-3.030332-2.146486-2.020222-3.030333-2.777806-8.585943-7.449568-3.409124-2.777805-2.146486-1.767694-3.156597-2.525278-8.459679-6.439457-5.176819-3.661653-191.668558 111.743527c5.681874 3.91418 11.111221 8.207152 16.666832 12.626387l2.146485 1.767694q7.575832 6.18693 15.025401 12.626387l2.146486 2.020222q7.323305 6.818249 14.394081 14.267818l1.893958 2.020222q7.070777 7.449568 13.762762 15.277928l1.767695 2.020222q6.565721 7.702096 12.626387 15.909248l2.525277 3.282861c3.282861 4.419236 6.439457 8.838471 9.596054 13.38397l3.914181 5.555611 4.166707 6.565721c3.535388 5.429346 6.944513 10.858693 10.227374 16.288039s5.176819 8.964735 7.702096 13.510235l2.651541 4.671763q5.176819 9.596054 9.848582 19.444636l0.757584 1.515167q4.924291 10.353637 9.217262 20.833538v1.136375q4.166708 10.10111 7.702096 20.328484l0.757584 2.020222q3.535388 10.10111 6.439457 20.202219v1.64143c2.020222 7.197041 3.91418 14.394081 5.429347 21.591123q2.399014 10.732429 3.91418 21.338594v1.64143q1.515166 9.974846 2.272749 19.823428v1.893958c0 6.944513 0.757583 13.762762 0.757584 20.581011V913.014057c0 1.262639 0 3.787916-0.63132 5.681874v4.166708q0 2.651541-0.883847 5.176818l-0.883847 4.5455-1.010111 4.545499-1.388903 5.176819-1.136374 3.91418c0 2.020222-1.262639 4.040444-2.020222 6.060666l-1.136375 3.156597c-1.262639 3.282861-2.651541 6.565721-4.040444 9.596054v1.010111a119.571887 119.571887 0 0 1-6.439458 11.74254v0.883847c-1.893958 3.030333-4.040444 5.808138-6.186929 8.585943l-1.641431 1.893958c-2.146486 2.525277-4.292972 4.924291-6.565721 7.197041a93.309001 93.309001 0 0 1-7.575832 6.565721l-1.893958 1.515167a90.65746 90.65746 0 0 1-8.333416 5.55561L1136.374846 899.251295a90.65746 90.65746 0 0 0 8.333415-5.555611l1.893958-1.515166a93.435265 93.435265 0 0 0 7.575833-6.565721c2.27275-2.27275 4.419236-4.671763 6.565721-7.197041l1.64143-1.893958c2.146486-2.777805 4.166708-5.55561 6.18693-8.585943v-0.63132a119.319359 119.319359 0 0 0 6.439458-11.74254v-0.631319c1.515166-3.030333 2.777805-6.313194 4.040444-9.596055v-0.883847l0.757583-2.399013c0.757583-2.020222 1.388903-3.91418 2.020222-6.060666v-4.040444l1.388902-5.176819v-2.146486L1186.880395 820.715166l0.883847-4.545499v-2.27275V804.805919v-3.661653-5.429346-5.303083V786.750185v-9.217263q3.91418-4.166708 3.787916-8.585943z" fill="#99C9F2" /><path d="M768.063132 377.528977l1.64143 2.651541q4.419236 7.449568 8.45968 15.151664l2.904069 5.555611 3.030333 5.934402 4.040444 8.333415 1.262638 2.777806q2.525277 5.429346 4.924291 10.984956l1.262639 2.904069 3.409125 8.207152 1.515166 3.787916 3.030333 7.82836 1.262639 3.409125q1.893958 5.176819 3.661652 10.353637v0.883847q1.893958 5.681874 3.661652 11.363749l1.136375 3.661652 2.27275 7.82836 1.136375 4.292972 1.767694 7.323304 1.010111 4.292972c0 2.525277 1.136375 5.050555 1.64143 7.575832l0.757583 3.91418 1.767695 9.848582v1.388903c0 3.787916 1.136375 7.449568 1.515166 11.111221v3.030333q0 4.040444 0.757583 7.954624v25.379038l194.572627-111.869791V454.549938v-1.64143-3.661652-4.166708-7.070777-2.525277V425.888039q0-4.924291-1.388903-9.848582v-1.515166c0-2.777805-0.883847-5.55561-1.388903-8.207152v-1.515166l-0.757583-3.91418-1.010111-4.798027v-2.651542l-1.010111-4.292971-4.798027-3.661653-1.010111-3.91418-1.136375-4.292971v-2.146486l-1.64143-5.681874-1.388903-3.282861v-1.010111q-1.515166-5.050555-3.28286-10.10111v-1.010111l-3.030333-8.838471v-1.388902l-1.262639-3.409125-1.767694-4.798027-1.262639-3.030333-1.515166-3.787916-1.136375-2.777805-2.27275-5.429347-1.262639-2.904069v-1.010111l-4.292971-9.46979-3.282861-4.166708-3.409124-7.19704v-1.136375l-3.030333-5.934402-2.399014-4.798027v-0.883848q-4.040444-7.575832-8.459679-15.151664l-0.757584-1.262639-2.020221-1.515166q-6.18693-10.479901-12.626388-20.707275l-0.883847-0.63132-1.262638-1.893958c-6.18693-9.217263-12.626387-18.181998-19.570901-26.894204l-6.313193-7.82836-1.136375-1.388903-7.575832-8.838471-2.399014-2.651541-4.798027-5.429347-0.883847-1.010111-3.409125-3.535388-3.661652-3.91418-1.388903-1.388903-3.661652-3.661652-3.156597-3.156597-1.893958-1.767694-4.040444-3.787916-2.777805-2.525278-2.272749-1.893958-5.555611-4.419235-2.399013-2.146486-2.651542-2.146486-4.040444-3.282861-2.020222-1.64143-3.409124-2.651541-3.787916-2.904069-1.515167-1.136375-4.292971-3.030333-3.156597-2.27275h-0.757583l-8.333416-5.55561h-0.631319l-7.575833-4.671763-1.893958-1.136375-6.313193-3.535389-2.399014-1.262638-3.156597-1.641431-2.525277-1.262638-3.91418-1.893958-3.030333-2.020222h-1.136375l-7.82836-3.282861-7.82836-2.904069h-1.010111L782.836005 105.177805l-3.91418-1.262639h-2.020222l-3.409125-0.883847L770.209618 101.011097h-2.777805l-3.535389-0.757583H724.123305l-8.585944 1.262639h-3.91418L707.077682 101.011097l-2.777805 0.883848-3.156597 1.01011h-1.010111l-5.681874 2.525278-2.525278 1.010111c-2.525277 1.136375-5.050555 2.525277-7.449568 3.91418 0 0-187.50185 109.091985-184.976572 107.95561l2.525277-1.010111 5.303083-2.146486 4.166708-1.388902 2.777805-0.883847 5.050555-1.262639h3.91418l8.585943-1.262639h34.596301l5.050555 1.010111 3.535388 0.757584 5.808138 2.525277 3.409125 0.883847 5.934402 1.893958 2.904069 1.010111q8.838471 3.030333 17.929469 7.197041l2.777806 1.262639 6.439457 3.156596 3.156597 1.641431 8.585943 4.671763 9.596054 5.808138h0.63132l9.217262 6.18693 3.156597 2.272749 6.060666 4.419236 3.787916 2.904069 5.429347 4.292972 4.040444 3.28286 5.176818 4.292972 4.040444 3.535388 5.050555 4.5455 4.040444 3.787916 5.050555 4.798027 3.661652 3.661652 5.050555 5.303083 3.409125 3.535388 5.808138 6.313194 2.399013 2.651541 8.080888 9.343527 1.136375 1.388902 6.691985 8.333416 8.333416 10.984957c3.787916 5.176819 7.575832 10.479901 11.11122 15.909248l2.020222 2.904069q6.818249 10.10111 13.131443 20.707275z" fill="#B8D9F6" /><path d="M829.806165 573.237978c95.581751 67.424908 170.077435 203.411097 169.698644 315.659679-0.252528 121.213317-85.480641 169.446116-190.153391 108.58693L189.395808 639.779038C84.344266 579.298644 0 432.832552 0 312.503083s85.480641-168.814797 190.279655-108.460666a276.012824 276.012824 0 0 1 26.515413 17.550678c0-98.359556 68.308755-137.122565 151.516646-88.38471a305.179778 305.179778 0 0 1 102.905055 105.809124c35.606412-38.763009 95.076695-43.308508 162.37534-4.545499C742.431566 296.720099 830.184957 448.489273 829.806165 573.237978z" fill="#E0EFFB" /></svg>