<?xml version="1.0" standalone="no"?><!DOCTYPE svg PUBLIC "-//W3C//DTD SVG 1.1//EN" "http://www.w3.org/Graphics/SVG/1.1/DTD/svg11.dtd"><svg class="icon" width="48px" height="48.00px" viewBox="0 0 1024 1024" version="1.1" xmlns="http://www.w3.org/2000/svg"><path d="M366.725908 376.123077c8.010831 0.066954 68.734031 1.654154 115.192123 35.146831 24.694154 17.801846 45.331692 44.670031 51.751384 85.188923 0.157538 3.182277 3.619446 68.344123 25.379447 116.444554 10.862277 24.008862 26.289231 43.669662 47.840492 49.880615-10.712615 12.051692-62.263138 65.669908-126.763323 60.553846-36.340185-2.886892-76.681846-24.536615-116.160985-82.479261-1.988923-0.827077-38.675692 6.002215-75.094646-4.474093-18.057846-5.198769-36.068431-14.662892-49.411938-31.4368-20.153108-25.336123-29.538462-67.205908-13.115077-135.534277 3.761231-6.344862 55.713477-91.521969 139.957169-93.290338z" fill="#4F8DFC" /><path d="M512 106.338462c224.039385 0 405.661538 181.622154 405.661538 405.661538s-181.622154 405.661538-405.661538 405.661538S106.338462 736.039385 106.338462 512 287.960615 106.338462 512 106.338462z m0 47.139446c-198.006154 0-358.522092 160.515938-358.522092 358.522092 0 198.006154 160.515938 358.522092 358.522092 358.522092 198.006154 0 358.522092-160.515938 358.522092-358.522092 0-198.006154-160.515938-358.522092-358.522092-358.522092z" fill="#000000" /><path d="M775.876923 322.953846c17.553723 2.433969 21.492185 11.618462 11.815385 27.569231 0 0-116.637538 183.118769-287.507693 7.876923 0 0-14.430523-23.461415 3.938462-31.507692h0.110277L775.876923 322.953846z m-61.928369 30.983877l-145.904246 2.032246-0.216616 0.003939c-21.795446 2.666338-2.363077 24.134892-2.363077 24.134892 106.866215 61.361231 155.521969-4.064492 155.52197-4.064492 12.288-12.260431 9.944615-19.629292-7.038031-22.106585zM602.584615 464.738462c151.465354-29.247015 204.8 102.4 204.8 102.4-149.314954 59.435323-224.492308-35.446154-224.492307-35.446154-34.300062-55.492923 19.692308-66.953846 19.692307-66.953846z m28.305723 23.103015h-0.267815c-4.218092 0.0512-56.095508 1.543877-13.008738 45.142646 0 0 72.668554 51.452062 151.359015 19.960123l-0.039385-0.082708c-1.417846-2.705723-37.895877-70.333046-138.043077-65.020061zM476.553846 382.030769s77.914585 59.5968 78.769231 149.661539c0 0 6.864738 94.341908 82.707692 118.153846 0 0 8.747323 17.809723 0 23.630769 0 0-196.395323 178.845538-287.507692-11.815385l-0.114215 0.031508-0.575016 0.149662-0.649846 0.157538C337.549785 664.812308 253.038277 682.243938 212.676923 606.523077c0 0-43.835077-88.355446 7.876923-165.415385 0 0 97.992862-150.858831 256-59.076923z m-24.004923 36.371693c-116.168862-73.653169-199.085292 42.614154-199.085292 42.614153-40.8064 65.744738-6.734769 133.490215-6.734769 133.490216 47.387569 59.510154 119.622892 26.411323 125.321846 23.670154l0.271754-0.133908 0.090584-0.043323c62.613662 165.348431 202.381785 53.417354 202.381785 53.417354 21.9648-9.184492-3.938462-24.134892-3.938462-24.134893-46.150892-25.789046-54.925785-112.789662-54.925784-112.789661-0.070892-72.487385-63.381662-116.090092-63.381662-116.090092z" fill="#000000" /></svg>