<?xml version="1.0" standalone="no"?><!DOCTYPE svg PUBLIC "-//W3C//DTD SVG 1.1//EN" "http://www.w3.org/Graphics/SVG/1.1/DTD/svg11.dtd"><svg class="icon" width="48px" height="48.00px" viewBox="0 0 1024 1024" version="1.1" xmlns="http://www.w3.org/2000/svg"><path d="M847.112533 85.333333c50.487467 0 91.413333 40.925867 91.413334 91.413334v426.5984c0 50.4832-40.925867 91.413333-91.413334 91.413333h-280.277333l123.2896 197.1456a30.472533 30.472533 0 0 1-48.384 36.689067l-3.293867-4.386134-126.5152-202.513066-126.519466 202.513066a30.472533 30.472533 0 0 1-54.178134-27.426133l2.500267-4.8768 123.2256-197.1456H176.746667c-47.086933 0-86.468267-35.771733-90.986667-82.641067l-0.426667-8.772266V176.746667C85.333333 126.2592 126.2592 85.333333 176.746667 85.333333h670.365866z m0 60.9408H176.746667a30.472533 30.472533 0 0 0-30.472534 30.472534v426.5984a30.472533 30.472533 0 0 0 30.472534 30.468266h670.365866a30.472533 30.472533 0 0 0 30.472534-30.468266V176.746667a30.472533 30.472533 0 0 0-30.472534-30.472534zM329.1008 237.687467c84.164267 0.017067 152.375467 68.258133 152.3584 152.418133-0.017067 84.16-68.258133 152.375467-152.418133 152.3584-84.16-0.017067-152.3712-68.258133-152.354134-152.418133 0.017067-84.16 68.253867-152.375467 152.413867-152.3584z m0 60.945066a91.4432 91.4432 0 0 0 0.064 182.8864c50.500267-0.017067 91.4304-40.968533 91.413333-91.477333-0.017067-50.500267-40.9728-91.426133-91.477333-91.409067z m396.125867 121.885867a30.472533 30.472533 0 0 1 5.486933 60.4544l-5.486933 0.4864h-182.826667a30.472533 30.472533 0 0 1-5.482667-60.458667l5.482667-0.482133h182.826667zM816.64 298.632533a30.472533 30.472533 0 0 1 5.486933 60.4544l-5.486933 0.4864h-274.24a30.472533 30.472533 0 0 1-5.482667-60.4544l5.482667-0.4864H816.64z" fill="#000000" /><path d="M329.1008 237.687467c84.164267 0.017067 152.375467 68.258133 152.3584 152.418133-0.017067 84.16-68.258133 152.375467-152.418133 152.3584-84.16-0.017067-152.3712-68.258133-152.354134-152.418133 0.017067-84.16 68.253867-152.375467 152.413867-152.3584z m0 60.945066a91.4432 91.4432 0 0 0 0.064 182.8864c50.500267-0.017067 91.4304-40.968533 91.413333-91.477333-0.017067-50.500267-40.9728-91.426133-91.477333-91.409067z" fill="#4F8DFC" /></svg>