<?xml version="1.0" standalone="no"?><!DOCTYPE svg PUBLIC "-//W3C//DTD SVG 1.1//EN" "http://www.w3.org/Graphics/SVG/1.1/DTD/svg11.dtd"><svg class="icon" width="48px" height="48.00px" viewBox="0 0 1024 1024" version="1.1" xmlns="http://www.w3.org/2000/svg"><path d="M512.004267 871.338667a188.667733 188.667733 0 0 1-133.802667-55.330134l-238.020267-238.016a230.9504 230.9504 0 0 1 0-326.621866l30.135467-30.135467c90.197333-90.180267 236.424533-90.180267 326.621867 0l15.0656 15.069867 15.069866-15.069867c90.197333-90.180267 236.424533-90.180267 326.621867 0l30.135467 30.135467c90.180267 90.197333 90.180267 236.424533 0 326.621866l-238.016 238.016A188.667733 188.667733 0 0 1 512 871.338667zM333.653333 216.733867a167.3728 167.3728 0 0 0-118.754133 49.1008l-30.122667 30.122666c-65.4592 65.472-65.4592 171.989333 0 237.482667L422.818133 771.413333c49.1904 49.194667 129.245867 49.2032 178.436267 0l237.9776-238.0032c65.4592-65.463467 65.4592-171.976533 0-237.482666l-30.135467-30.088534c-65.472-65.4592-171.985067-65.4592-237.482666 0l-99.665067 99.712-0.149333 0.149334-18.325334 18.3296a31.530667 31.530667 0 1 1-44.599466-44.586667l58.530133-58.538667-15.0272-15.061333a167.3728 167.3728 0 0 0-118.749867-49.109333h0.021334z" fill="#181818" /><path d="M511.3856 638.890667a195.421867 195.421867 0 0 1-139.093333-57.604267 29.563733 29.563733 0 0 1 41.8048-41.813333c53.6448 53.6448 140.910933 53.6448 194.568533 0a29.563733 29.563733 0 1 1 41.7792 41.813333 195.438933 195.438933 0 0 1-139.0592 57.604267z" fill="#4F8DFC" /></svg>