<?xml version="1.0" standalone="no"?><!DOCTYPE svg PUBLIC "-//W3C//DTD SVG 1.1//EN" "http://www.w3.org/Graphics/SVG/1.1/DTD/svg11.dtd"><svg class="icon" width="48px" height="48.00px" viewBox="0 0 1024 1024" version="1.1" xmlns="http://www.w3.org/2000/svg"><path d="M188.305723 544.862523H823.138462v327.384615H188.305723z" fill="#4F8DFC" /><path d="M728.615385 126.030769a19.692308 19.692308 0 0 1 19.692307 19.692308v94.523077a19.692308 19.692308 0 0 1-18.837661 19.672615L728.615385 259.938462H295.384615a19.692308 19.692308 0 0 1-19.692307-19.692308V145.723077a19.692308 19.692308 0 0 1 19.692307-19.692308h433.23077z m-43.567262 47.261539H342.646154a19.692308 19.692308 0 1 0 0 39.384615h342.401969a19.692308 19.692308 0 1 0 0-39.384615zM846.769231 362.338462v535.630769H177.230769V362.338462h47.2576L224.492308 850.337477h574.767261V362.338462H846.769231z" fill="#000000" /><path d="M216.615385 425.353846h602.584615v47.261539H216.615385zM212.676923 756.184615h598.646154v47.261539H212.676923zM425.353846 594.707692h173.292308a19.692308 19.692308 0 0 1 19.692308 19.692308v7.876923a19.692308 19.692308 0 0 1-19.692308 19.692308h-173.292308a19.692308 19.692308 0 0 1-19.692308-19.692308v-7.876923a19.692308 19.692308 0 0 1 19.692308-19.692308z" fill="#000000" /><path d="M508.061538 512h7.876924a19.692308 19.692308 0 0 1 19.692307 19.692308v173.292307a19.692308 19.692308 0 0 1-19.692307 19.692308h-7.876924a19.692308 19.692308 0 0 1-19.692307-19.692308v-173.292307a19.692308 19.692308 0 0 1 19.692307-19.692308zM177.230769 362.338462l161.476923-63.015385 47.261539 31.507692-165.415385 63.015385z" fill="#000000" /><path d="M338.707692 212.676923h47.261539v118.153846H338.707692z" fill="#000000" /><path d="M846.769231 362.338462l-161.476923-63.015385-47.261539 31.507692 165.415385 63.015385z" fill="#000000" /><path d="M638.030769 212.676923h47.261539v118.153846h-47.261539z" fill="#000000" /></svg>