<?xml version="1.0" standalone="no"?><!DOCTYPE svg PUBLIC "-//W3C//DTD SVG 1.1//EN" "http://www.w3.org/Graphics/SVG/1.1/DTD/svg11.dtd"><svg class="icon" width="48px" height="48.00px" viewBox="0 0 1024 1024" version="1.1" xmlns="http://www.w3.org/2000/svg"><path d="M681.501867 934.596267h-61.226667c-33.9968 0-64.081067-18.218667-79.965867-46.498134-12.928 0.4224-26.056533 0.4224-39.082666 0-15.893333 28.279467-45.973333 46.498133-79.9744 46.498134H360.029867c-50.628267 0-91.831467-41.2032-91.831467-91.835734v-25.314133c-56.456533-39.611733-94.801067-93.422933-112.068267-157.397333-40.989867-9.322667-71.598933-46.08-71.598933-89.821867 0-45.44 33.045333-83.255467 76.2624-90.773333 46.1824-149.137067 193.834667-255.163733 359.918933-255.163734 40.145067 0 79.441067 5.930667 117.149867 17.6896l29.3376-26.9056c15.04-13.768533 34.423467-20.970667 55.082667-20.0192a75.733333 75.733333 0 0 1 53.064533 24.6784c15.991467 17.480533 22.984533 40.887467 19.170133 64.187734l-7.517866 45.3376a353.2288 353.2288 0 0 1 56.874666 69.589333h21.290667c50.632533 0 91.835733 41.2032 91.835733 91.831467v153.058133c0 50.628267-41.2032 91.831467-91.831466 91.831467h-12.923734c-20.0192 31.671467-46.498133 59.106133-78.912 81.877333v25.314133c0 50.632533-41.096533 91.835733-91.831466 91.835734z m-96.311467-108.219734l5.879467 25.984c3.101867 13.9008 15.829333 24.055467 30.152533 24.055467h61.806933c17.002667 0 30.903467-13.9008 30.903467-30.8992v-59.2384l14.5408-9.088c36.036267-22.5664 63.624533-51.328 82.120533-85.44l8.768-16.145067h49.083734c16.9984 0 30.8992-13.9008 30.8992-30.903466V489.975467c0-17.002667-13.9008-30.903467-30.8992-30.903467h-57.4208l-8.768-15.931733c-16.896-30.472533-39.138133-57.847467-66.1888-81.373867l-13.047467-11.332267 13.154133-79.342933a15.488 15.488 0 0 0-3.8528-12.936533 15.1552 15.1552 0 0 0-10.692266-5.026134 15.368533 15.368533 0 0 0-11.118934 4.061867l-56.887466 52.181333-17.642667-6.417066c-36.676267-13.3632-75.383467-20.206933-115.054933-20.206934-147.562667 0-277.589333 97.732267-309.346134 232.3584l-5.559466 23.842134h-32.401067c-17.216 0-31.223467 14.007467-31.223467 31.223466s14.007467 31.223467 31.223467 31.223467h30.152533l4.706134 25.237333c11.656533 62.762667 47.901867 114.730667 104.896 150.340267l14.545066 9.088v59.349333c0 16.9984 13.9008 30.8992 30.8992 30.8992h61.806934c14.327467 0 26.948267-10.048 30.152533-24.055466l5.883733-25.984 26.517334 1.92c24.704 1.821867 51.003733 1.821867 75.707733 0l26.304-1.813334z" fill="#000000" /><path d="M494.933333 273.066667m-166.4 0a166.4 166.4 0 1 0 332.8 0 166.4 166.4 0 1 0-332.8 0Z" fill="#FFFFFF" /><path d="M494.933333 106.666667c91.904 0 166.4 74.496 166.4 166.4s-74.496 166.4-166.4 166.4-166.4-74.496-166.4-166.4 74.496-166.4 166.4-166.4z m0 59.733333c-58.909867 0-106.666667 47.7568-106.666666 106.666667s47.7568 106.666667 106.666666 106.666666 106.666667-47.7568 106.666667-106.666666-47.7568-106.666667-106.666667-106.666667z" fill="#4F8DFC" /><path d="M650.9952 521.2928c0 25.3312 20.535467 45.866667 45.866667 45.866667 25.326933 0 45.8624-20.535467 45.8624-45.866667s-20.535467-45.866667-45.866667-45.866667c-25.326933 0-45.8624 20.535467-45.8624 45.866667z" fill="#000000" /></svg>