<?xml version="1.0" standalone="no"?><!DOCTYPE svg PUBLIC "-//W3C//DTD SVG 1.1//EN" "http://www.w3.org/Graphics/SVG/1.1/DTD/svg11.dtd"><svg class="icon" width="48px" height="48.00px" viewBox="0 0 1024 1024" version="1.1" xmlns="http://www.w3.org/2000/svg"><path d="M640.12 595.82m-287.37 0a287.37 287.37 0 1 0 574.74 0 287.37 287.37 0 1 0-574.74 0Z" fill="#4F8DFC" /><path d="M870.57 867.08a94.08 94.08 0 0 1-24.3 59.92l-140.59-0.27-95.33-0.19-141.41-0.27-94.53-0.18-142.22-0.28-104.19-0.17a30 30 0 0 1-29.95-30L98.69 128a30 30 0 0 1 30-30 30 30 0 0 1 30 30l-0.64 737.68 50.87 0.1 60 0.11 68.92 0.14 60.05 0.11 47.33 0.1 60.07 0.11 68.86 0.14 60.06 0.11 47.36 0.09 60.09 0.12 68.78 0.13z" fill="#182038" /><path d="M927.13 897.18a30 30 0 0 1-30 30h-0.06l-50.8-0.1a94.08 94.08 0 0 0 24.3-59.95h26.61a30 30 0 0 1 29.95 30.05z" fill="#182038" /><path d="M303.43 480.79a94.64 94.64 0 0 0-94.54 94.53v290.44l60 0.11c0-0.71-0.07-1.43-0.07-2.15v-288.4a34.54 34.54 0 0 1 69.07 0v288.44c0 0.77 0 1.54-0.08 2.29l60.05 0.11V575.32a94.64 94.64 0 0 0-94.43-94.53z" fill="#181818" /><path d="M539.76 125.25a94.64 94.64 0 0 0-94.53 94.53v646.5l60.07 0.11c-0.07-0.86-0.1-1.73-0.1-2.61v-644a34.54 34.54 0 0 1 69.07 0v644c0 0.93 0 1.84-0.11 2.75l60.06 0.11V219.78a94.64 94.64 0 0 0-94.46-94.53zM870.63 320.49v41.05a30 30 0 1 1-60 0v-41.05a34.54 34.54 0 1 0-69.07 0v543.27c0 1 0.05 2.06 0.14 3.07l-60.09-0.12c0-1-0.05-2-0.05-3V320.49a94.54 94.54 0 1 1 189.07 0z" fill="#182038" /><path d="M870.63 588.06v275.7c0 1.11 0 2.22-0.06 3.32l-60.09-0.08c0.1-1.05 0.15-2.12 0.15-3.2V588.06a30 30 0 0 1 60 0zM840.63 521a30 30 0 0 1-30-30v-47.45a30 30 0 0 1 60 0V491a30 30 0 0 1-30 30z" fill="#181818" /></svg>