<?xml version="1.0" standalone="no"?><!DOCTYPE svg PUBLIC "-//W3C//DTD SVG 1.1//EN" "http://www.w3.org/Graphics/SVG/1.1/DTD/svg11.dtd"><svg class="icon" width="48px" height="48.00px" viewBox="0 0 1024 1024" version="1.1" xmlns="http://www.w3.org/2000/svg"><path d="M513.757867 124.023467a125.687467 125.687467 0 0 1 87.031466 27.2384c20.369067-9.216 52.16-19.170133 82.914134-10.786134a85.653333 85.653333 0 0 1 54.485333 46.592c28.3648 56.887467-0.3072 113.245867-32.725333 158.122667 52.420267 33.365333 194.884267 142.698667 190.434133 342.519467-4.7232 211.498667-170.487467 212.590933-172.0832 212.663466H320.9728c-113.3312 0-177.984-67.229867-192.1536-199.816533l-0.106667-1.271467c-12.117333-185.792 133.674667-306.474667 196.2496-349.333333-33.237333-40.558933-63.658667-87.005867-51.140266-136.2176a87.389867 87.389867 0 0 1 42.696533-57.088c33.544533-18.325333 76.151467-13.4528 110.293333-4.040533 19.255467-13.504 40.162133-24.610133 86.946134-28.5824z m58.897066 84.258133c-0.046933-0.042667-22.562133-25.6-53.666133-22.9504-37.256533 3.178667-46.613333 10.013867-65.2544 23.697067l-15.978667 11.652266-14.971733-5.009066c-33.408-11.170133-62.144-13.038933-76.842667-4.992-4.3008 2.350933-9.621333 6.557867-12.6208 18.304-5.7984 22.818133 16.426667 54.7072 42.862934 86.4768l2.6112 3.127466 2.632533 3.118934a48.221867 48.221867 0 0 1-10.8544 71.7824c-45.047467 28.765867-191.069867 135.432533-180.650667 301.154133 7.714133 71.4112 29.4528 144.187733 131.050667 144.187733h403.0592c10.922667-0.119467 107.217067-5.44 110.523733-152.4992 4.1472-185.245867-142.882133-278.660267-172.394666-295.5008a48.213333 48.213333 0 0 1-14.267734-71.1552c37.265067-48.7168 47.8592-80.1408 35.421867-105.088-5.3504-10.717867-11.195733-13.495467-15.684267-14.72-17.1776-4.676267-44.770133 7.970133-54.728533 14.455467l-22.788267 14.852267z" fill="#000000" /><path d="M512.324267 424.900267c-20.693333 0.405333-39.893333 8.106667-53.5296 23.496533l-0.989867 1.147733-84.407467 84.411734c-14.4384 14.4384-23.688533 34.7904-23.688533 55.2704l0.017067 1.728c0.405333 20.693333 8.098133 39.893333 23.496533 53.5296l1.143467 0.9856 84.411733 84.411733c28.544 28.539733 78.5152 28.539733 109.269333 1.2032l0.6528-0.584533 86.0032-85.998934c14.4384-14.4384 23.688533-34.794667 23.688534-55.274666l-0.017067-1.728c-0.401067-20.693333-8.098133-39.893333-23.496533-53.525334l-1.173334-1.015466-84.381866-84.381867c-14.4384-14.4384-34.7904-23.6928-55.2704-23.6928l-1.728 0.017067z m1.728 59.716266c3.8528 0 9.326933 2.491733 13.0304 6.1952l86.5536 86.5536 1.2928 1.032534c2.295467 1.834667 3.729067 5.346133 3.729066 10.8288l-0.029866 0.7936c-0.3072 3.784533-2.705067 8.785067-6.161067 12.245333l-84.5696 84.561067 0.465067-0.384c-7.671467 6.813867-21.7344 6.813867-27.349334 1.198933L414.464 601.092267l-1.288533-1.032534c-2.299733-1.834667-3.733333-5.3504-3.733334-10.833066 0-3.8528 2.487467-9.326933 6.190934-13.0304L502.186667 489.642667l1.032533-1.2928c1.834667-2.295467 5.346133-3.733333 10.833067-3.733334z" fill="#4F8DFC" /></svg>