<?xml version="1.0" standalone="no"?><!DOCTYPE svg PUBLIC "-//W3C//DTD SVG 1.1//EN" "http://www.w3.org/Graphics/SVG/1.1/DTD/svg11.dtd"><svg class="icon" width="48px" height="48.00px" viewBox="0 0 1024 1024" version="1.1" xmlns="http://www.w3.org/2000/svg"><path d="M108.477746 38.024728h469.395085v534.562186H43.296531V103.191829a65.181215 65.181215 0 0 1 65.181215-65.167101z" fill="#4169E1" /><path d="M577.858716 1023.971771h-450.255689A102.316724 102.316724 0 0 1 25.39922 921.767964V102.203807A102.316724 102.316724 0 0 1 127.603027 0h726.337234a102.316724 102.316724 0 0 1 102.203807 102.203807v428.265145a24.700547 24.700547 0 1 1-49.401094 0V102.203807A52.859171 52.859171 0 0 0 853.940261 49.401094H127.603027a52.859171 52.859171 0 0 0-52.802713 52.802713v819.592386a52.859171 52.859171 0 0 0 52.873286 52.774483h450.255689a24.700547 24.700547 0 0 1 24.601745 24.728777 24.700547 24.700547 0 0 1-24.672318 24.672318z"  /><path d="M187.618299 220.470027h607.732264v49.401095H187.618299zM187.618299 411.948669h452.739859v49.401095H187.618299zM187.618299 619.757902H538.394299v49.401094H187.618299zM796.959627 849.035438a160.737047 160.737047 0 0 1-160.553557-160.553557v-77.432687a24.700547 24.700547 0 0 1 24.700548-24.700547h57.742822a24.700547 24.700547 0 1 1 0 49.401095h-33.042275v52.732139a111.152462 111.152462 0 0 0 222.304925 0v-52.732139h-30.346387a24.700547 24.700547 0 0 1 0-49.401095h55.046934a24.700547 24.700547 0 0 1 24.700547 24.700547v77.432687a160.737047 160.737047 0 0 1-160.553557 160.553557z"  /><path d="M887.335401 994.980386a111.364181 111.364181 0 0 1-111.194806-111.23715v-49.316407a24.700547 24.700547 0 1 1 49.401094 0v49.316407a61.836056 61.836056 0 0 0 123.657997 0v-28.949042a24.700547 24.700547 0 0 1 49.401094 0v28.949042a111.364181 111.364181 0 0 1-111.265379 111.23715z"  /></svg>