<?xml version="1.0" standalone="no"?><!DOCTYPE svg PUBLIC "-//W3C//DTD SVG 1.1//EN" "http://www.w3.org/Graphics/SVG/1.1/DTD/svg11.dtd"><svg class="icon" width="48px" height="41.37px" viewBox="0 0 1188 1024" version="1.1" xmlns="http://www.w3.org/2000/svg"><path d="M372.690819 512.031321c-13.982113 0.176302-136.973172-0.501783-203.425503-105.84907a228.202729 228.202729 0 0 1-9.072778-227.185602c54.843516-104.425091 167.120831-119.49214 176.790324-120.617761-10.415386 55.521601-15.63664 130.287254 4.06851 213.081433 9.086339 38.094816 20.776525 84.86912 57.732158 133.352198a301.530842 301.530842 0 0 0 87.242417 76.921964c-21.115567 11.500322-61.149706 29.632315-113.335128 30.296838z" fill="#4169E1" /><path d="M524.97515 1023.999064a521.691483 521.691483 0 0 1-204.347698-41.268253 523.196831 523.196831 0 0 1-166.808913-112.562112 523.210393 523.210393 0 0 1-112.562111-166.808912A521.718606 521.718606 0 0 1 0.001736 499.02565a520.999836 520.999836 0 0 1 100.926173-309.532245 527.007669 527.007669 0 0 1 113.213073-113.565677A522.884912 522.884912 0 0 1 357.772948 1.243445a23.732975 23.732975 0 0 1 30.052728 14.91787 23.732975 23.732975 0 0 1-14.91787 30.052728 475.446085 475.446085 0 0 0-130.626296 67.916994 479.623089 479.623089 0 0 0-103.068922 103.340156A473.832243 473.832243 0 0 0 47.467687 499.02565a474.374711 474.374711 0 0 0 139.861814 337.686335 474.374711 474.374711 0 0 0 337.686334 139.861814 476.20554 476.20554 0 0 0 161.235053-27.896418 475.622387 475.622387 0 0 0 137.719066-77.301691 479.514595 479.514595 0 0 0 166.07658-263.639451 23.719414 23.719414 0 0 1 28.479571-17.738704 23.732975 23.732975 0 0 1 17.738703 28.47957 527.197533 527.197533 0 0 1-182.594731 289.908465 523.020529 523.020529 0 0 1-151.429944 84.923367 523.549435 523.549435 0 0 1-177.264983 30.690127z"  /><path d="M823.739405 680.196403a507.804302 507.804302 0 0 1-62.980536-3.919331 506.027719 506.027719 0 0 1-240.516752-96.884786 23.732975 23.732975 0 0 1-4.746596-33.226166 23.732975 23.732975 0 0 1 33.226166-4.746595c128.619165 96.450812 300.947689 118.258026 449.746663 56.959141a23.732975 23.732975 0 0 1 30.988485 12.897177 23.732975 23.732975 0 0 1-12.897177 30.947799 506.380323 506.380323 0 0 1-192.820253 37.972761zM366.954219 353.806965a23.746537 23.746537 0 0 1-22.458175-16.070615 504.99703 504.99703 0 0 1-27.04203-158.766824 507.682246 507.682246 0 0 1 23.732975-158.33285 23.732975 23.732975 0 0 1 29.83574-15.446776 23.732975 23.732975 0 0 1 15.446777 29.83574 462.887951 462.887951 0 0 0 2.983574 287.426674 23.732975 23.732975 0 0 1-14.795815 30.120536 23.705852 23.705852 0 0 1-7.703046 1.234115zM882.719239 526.596587a74.372364 74.372364 0 0 1-29.008477-5.709476c-16.097738-6.78085-24.587362-16.613083-37.416731-31.517391-2.87508-3.336178-6.129888-7.119893-9.859356-11.32402a315.784189 315.784189 0 0 0-25.346817-25.346818c-25.238324-22.715848-40.468113-36.426727-59.996962-40.251126-9.303326-1.83083-37.593033-7.377565-89.927634 35.029872-4.190565 3.403987-7.58099 6.441808-11.161279 9.669492a198.339865 198.339865 0 0 1-28.47957 22.159818c-15.934998 10.225522-40.034139 25.68586-70.358101 28.140528-33.90425 2.71234-67.998365-11.663062-98.579998-41.647981l-1.437541-1.35617-1.179868-1.640966a134.993164 134.993164 0 0 0-30.676565-28.845736c-0.284796-0.189864-29.83574-18.98638-63.129715-7.675922-42.841411 14.538143-54.816392 67.64576-54.924885 68.12042a23.77366 23.77366 0 0 1-28.167652 18.226925 23.69229 23.69229 0 0 1-18.26761-28.07272c0.691647-3.254808 17.63021-80.014031 86.103235-103.326593 44.5095-15.148419 86.794881 1.125621 104.777695 13.127725a182.784595 182.784595 0 0 1 41.417432 38.677969c14.307594 13.697317 36.019876 28.981353 60.281758 27.028469 18.498159-1.491787 35.857135-12.639505 48.537325-20.776525a152.053782 152.053782 0 0 0 22.322558-17.481032c3.688782-3.322617 7.879348-7.092769 13.046356-11.269772 17.209798-13.941428 69.571522-56.375988 128.944645-44.753611 32.398902 6.360437 54.55872 26.296137 82.604316 51.534461a362.626301 362.626301 0 0 1 29.089847 29.239025c3.946455 4.461799 7.323318 8.381131 10.306892 11.839365 11.554569 13.412521 14.538143 16.504589 19.854329 18.742269 7.065646 2.970012 13.873619 1.966447 18.850763 1.234115 20.952827-3.078506 40.061262-23.231192 60.295319-44.577309 20.437482-21.563103 41.553049-43.844977 69.164671-52.741452 45.445257-14.633074 98.240956 9.086339 161.384232 72.555096a23.732975 23.732975 0 0 1-0.08137 33.565208 23.732975 23.732975 0 0 1-33.565208-0.08137c-47.954172-48.211844-87.093239-69.246041-113.172388-60.851349-16.057053 5.180569-32.181915 22.200503-49.283218 40.210441-23.732975 25.034899-50.625827 53.419537-87.839132 58.884903a99.800552 99.800552 0 0 1-15.121296 1.261238z"  /></svg>