<?xml version="1.0" standalone="no"?><!DOCTYPE svg PUBLIC "-//W3C//DTD SVG 1.1//EN" "http://www.w3.org/Graphics/SVG/1.1/DTD/svg11.dtd"><svg class="icon" width="48px" height="48.00px" viewBox="0 0 1024 1024" version="1.1" xmlns="http://www.w3.org/2000/svg"><path d="M920.07424 860.8256L823.5008 259.77344c-5.64224-29.57312-30.4128-50.85696-59.1872-50.85696h-7.65952l96.1792 588.64128c7.59808 39.15264-21.4528 75.67872-60.19072 75.67872H102.92736c-0.05632 34.10944 26.16832 63.26784 60.1856 63.26784h697.7792c56.05376 0 73.22112-24.60672 59.18208-75.67872z" fill="#4169E1" /><path d="M760.32 193.82784h-496.64a5.12 5.12 0 0 1-5.12-5.12v-117.76a5.12 5.12 0 0 1 5.12-5.12h496.64a5.12 5.12 0 0 1 5.12 5.12v117.76a5.12 5.12 0 0 1-5.12 5.12z" fill="#4169E1" /><path d="M876.45184 973.35808H147.55328c-24.84736 0-48.34816-11.19232-64.47616-30.69952-16.90112-20.43904-23.74144-47.26272-18.79552-73.64608L165.22752 242.70336c7.8336-40.9344 42.8288-70.64576 83.21024-70.64576h527.1296c40.38656 0 75.38176 29.71136 83.21024 70.65088l0.10752 0.62464 100.83328 625.68448c4.95104 26.37824-1.8944 53.20704-18.80064 73.6512-16.128 19.50208-39.62368 30.68928-64.46592 30.68928zM208.04608 250.60352L107.10528 876.86656c-2.62144 13.696 0.85504 27.56096 9.5232 38.05696 7.94624 9.61024 18.92352 14.8992 30.91968 14.8992h728.89856c11.99104 0 22.96832-5.28896 30.91456-14.8992 8.67328-10.49088 12.14464-24.36096 9.52832-38.05696l-0.11264-0.62464-100.82304-625.63328c-4.01408-20.3008-20.95616-35.01056-40.39168-35.01056H248.43264c-19.42528 0-36.37248 14.70464-40.38656 35.00544z"  /><path d="M512 689.3824c-102.56896 0-211.57376-74.14784-211.57376-211.57376h43.54048c0 109.14304 86.57408 168.03328 168.03328 168.03328s168.03328-58.89024 168.03328-168.03328h43.54048c0 137.4208-109.00992 211.57376-211.57376 211.57376z"  /></svg>