<?xml version="1.0" standalone="no"?><!DOCTYPE svg PUBLIC "-//W3C//DTD SVG 1.1//EN" "http://www.w3.org/Graphics/SVG/1.1/DTD/svg11.dtd"><svg class="icon" width="48px" height="44.40px" viewBox="0 0 1107 1024" version="1.1" xmlns="http://www.w3.org/2000/svg"><path d="M251.376965 60.115171c43.942438 108.406474 13.941577 242.64142-72.002067 322.04286-6.605232 6.101015-13.865944 12.113793-22.752754 13.865944-16.172733 3.163956-31.21098-8.823783-42.316341-20.975392a254.036705 254.036705 0 0 1-34.967391-48.946784c-5.193426-9.479264-9.882637-19.639219-10.361642-30.44205-0.781535-17.483695 9.35321-33.353899 19.097187-47.900535l99.683534-148.743766c14.458398-21.567846 32.77405-45.379454 58.678156-46.564362M720.90305 146.752112l-26.962959 10.44988-110.47376 51.682156-121.806018-4.827869 28.929402 83.422563c17.647565 39.32886 37.891844 79.817418 61.224447 121.011877q7.563242 13.24828 15.126485 26.05537a644.829437 644.829437 0 0 1 57.984858 123.532959 642.8756 642.8756 0 0 1 22.437619 82.275471 89.863925 89.863925 0 0 1 17.899673 45.455087 90.758908 90.758908 0 0 1-13.449966 56.232707 116.486538 116.486538 0 0 1-48.203064 2.420237 116.461327 116.461327 0 0 1-44.232363-16.853425l-265.835363-188.828951s152.525387 178.000909 168.130878 182.778357c77.107256 23.219154 77.624077 93.065697 129.608763 140.487227 58.804209 53.635994 100.578518 90.998411 165.773667 111.041003 64.388403 19.853511 122.095942 13.865944 156.861646 7.134659a194.009772 194.009772 0 0 0 58.564707-14.773534 195.52242 195.52242 0 0 0 67.728835-48.37954 261.637764 261.637764 0 0 0 15.391198-27.542808 267.121114 267.121114 0 0 0 24.454484-84.11586A388.485943 388.485943 0 0 0 919.891956 625.228034l-68.913743-42.858373-65.5481-107.738387-38.711196-112.994841-24.580537-173.866336z" fill="#4169E1" /><path d="M455.584508 205.745403a1181.83225 1181.83225 0 0 0 50.535065 135.092114q12.038161 26.925143 25.525943 53.169593 6.126226 11.899501 12.605404 23.635133c2.949665 5.395113 5.609405 11.672604 9.479263 16.462657 0.882378 1.084065 1.941232 2.067286 2.848822 3.138746 0.4664 0.554638 0.920194 1.109276 1.373989 1.663913l0.781535 0.983222c0.176476 0.214292-0.642876-0.869773 0.289924 0.390767q2.079892 2.785794 4.046335 5.634616c9.81961 14.269317 17.899674 29.736148 25.299045 45.379454 13.664258 28.87898 24.744408 58.942869 34.652256 89.284076 7.033815 21.542635 13.424755 43.299562 19.349295 65.169938q5.168216 19.097187 9.882636 38.307822c2.735373 11.269231 5.899329 24.290613 0.60506 35.295131-8.622096 17.861857-33.40432 21.756927-50.812383 18.466917a112.80576 112.80576 0 0 1-49.009811-22.298959c-17.420668-13.941577-34.362331-28.286526-52.299821-41.597833-65.409441-48.556016-133.390384-93.670757-201.245273-138.747681q-16.853425-11.206204-33.744667-22.361987c-6.781707-4.487524-13.10962 6.428756-6.302702 10.878464 74.460121 49.261919 149.109323 98.561653 221.350893 151.138793 19.8283 14.433187 39.681812 28.992429 58.186545 45.177767 25.664602 22.387197 64.690933 40.173422 98.649891 27.2907 19.903933-7.563242 32.030331-24.303219 30.391629-45.984514-0.958011-12.605404-4.727026-25.109965-7.865772-37.362417q-4.840475-18.908106-10.084323-37.690157c-10.840647-38.106136-23.055284-75.922348-38.181769-112.541047-12.504561-30.252969-26.471348-61.426133-47.610611-86.750389-2.65974-3.176562-3.718594-5.811091-5.962356-9.857426q-13.286096-23.950267-25.311651-48.467778a1108.922594 1108.922594 0 0 1-52.703193-127.554083q-6.605232-19.248452-12.605404-38.69859c-2.369816-7.727113-14.546636-4.437102-12.15161 3.353038z" fill="#FFAA71" /><path d="M870.302297 1023.999987c-80.384661 0-146.588242-33.467347-181.719502-55.715885a22.009035 22.009035 0 0 1-3.781622-3.037902L47.661032 328.055637a22.059457 22.059457 0 0 1-4.953924-23.609922c3.239589-8.306961 33.101791-83.195666 84.456207-156.584327 29.761359-42.467606 61.16142-76.363537 93.279989-100.729783 41.257487-31.261402 84.065439-47.119 127.314579-47.119h0.76893a185.702811 185.702811 0 0 1 59.547928 10.323826 22.059457 22.059457 0 0 1 14.849166 22.311565c-2.521081 38.37085 6.819524 76.13664 26.320083 106.339188 18.529944 28.702505 44.824816 48.669465 74.031538 56.220101 50.295562 13.008777 95.33467-14.105447 110.662841-24.933489 31.51351-35.761531 72.342413-50.799778 104.624852-38.333033a66.985116 66.985116 0 0 1 25.639392 17.9627 22.059457 22.059457 0 0 1 5.495956 17.723198c-9.088496 67.489333-10.14735 170.778012 36.353985 279.550043a513.783658 513.783658 0 0 0 75.594607 124.125412c12.517166 6.781707 24.908278 14.130658 36.908623 21.882982 31.853856 20.584625 79.993893 51.682156 119.121067 90.83454 49.161075 49.161075 72.657548 99.872615 69.846543 150.684999-1.941232 35.219499-16.160128 69.392749-42.228103 101.58695a254.225786 254.225786 0 0 1-45.379454 43.52646c-42.707108 31.248796-86.044487 37.816212-106.88122 40.967562a284.617415 284.617415 0 0 1-42.73232 3.214378z m-156.017084-91.716919c36.631304 22.828386 108.545133 57.556274 192.131567 44.887844 18.693814-2.836216 53.472123-8.105275 87.443687-32.963131 11.042334-8.080064 66.279214-51.430048 69.619645-111.948593 4.953924-89.700054-108.116549-162.773581-168.912412-202.026808a513.992908 513.992908 0 0 0-37.551498-22.072063 22.059457 22.059457 0 0 1-6.580021-5.344691 558.242918 558.242918 0 0 1-84.947817-138.306492c-47.711454-111.620852-49.274524-217.695326-40.992774-290.604982a18.769446 18.769446 0 0 0-1.789967-0.79414c-16.387025-6.302702-41.081011 9.227156-56.976426 27.883153a22.072062 22.072062 0 0 1-3.781621 3.479092c-13.865944 10.210377-57.228534 38.295217-111.456981 38.295217a152.374123 152.374123 0 0 1-38.181769-4.85308c-39.95913-10.336431-75.493764-36.97165-100.049091-75.002154-21.517424-33.328688-33.265661-73.691191-33.757272-115.251208A137.071162 137.071162 0 0 0 348.42597 44.118914c-33.479953-0.176476-67.57757 12.693642-101.183578 38.156557-28.500818 21.593057-56.724318 52.173767-83.825936 90.884963-37.576709 53.623388-63.392576 109.301457-74.069353 134.108892z"  /><path d="M770.190179 1023.331901c-79.741785 0-139.226686-9.756583-180.799308-29.521856-6.504388-3.088324-71.094478-34.299304-73.842456-35.635477a22.046851 22.046851 0 0 1-6.000172-4.260626L6.453967 450.819666a22.059457 22.059457 0 0 1-6.302702-17.912279 321.084849 321.084849 0 0 1 14.697901-67.791862 321.122665 321.122665 0 0 1 29.547067-64.048058 22.059457 22.059457 0 0 1 30.252969-7.563242 22.059457 22.059457 0 0 1 7.563242 30.252969A276.928119 276.928119 0 0 0 56.724318 378.994074a276.965935 276.965935 0 0 0-11.344864 48.165249l492.871293 492.871293c13.689469 6.617837 64.690933 31.248796 70.237311 33.895931 44.610524 21.214895 119.85218 29.105878 223.670287 23.458657a22.059457 22.059457 0 1 1 2.395027 44.055886q-34.223672 1.890811-64.363193 1.890811zM733.142897 394.032321h-106.465241a22.059457 22.059457 0 0 1-22.059457-22.097273 22.059457 22.059457 0 0 1 22.059457-22.059457h106.477847a22.059457 22.059457 0 0 1 22.059457 22.059457 22.059457 22.059457 0 0 1-22.072063 22.097273zM757.483932 483.896246h-106.515663a22.059457 22.059457 0 0 1-22.059457-22.059457 22.059457 22.059457 0 0 1 22.059457-22.059457h106.515663a22.059457 22.059457 0 0 1 22.059457 22.059457 22.059457 22.059457 0 0 1-22.059457 22.059457zM846.65456 584.285682H679.960698a22.059457 22.059457 0 0 1-22.109878-22.009035 22.059457 22.059457 0 0 1 22.109878-22.109878h166.693862a22.059457 22.059457 0 0 1 22.059457 22.059457 22.059457 22.059457 0 0 1-22.059457 22.059456z"  /></svg>