<?xml version="1.0" standalone="no"?><!DOCTYPE svg PUBLIC "-//W3C//DTD SVG 1.1//EN" "http://www.w3.org/Graphics/SVG/1.1/DTD/svg11.dtd"><svg class="icon" width="48px" height="47.95px" viewBox="0 0 1025 1024" version="1.1" xmlns="http://www.w3.org/2000/svg"><path d="M704.522001 204.757442L31.426464 353.285054s56.269728 240.984986 269.711673 255.614317c0 0 179.541794 41.5739 317.177204-103.562366 0 0.013299 124.548808-79.024988 86.20666-300.579563z" fill="#4169E1" /><path d="M371.505221 649.981194c-98.854382 0-192.043223-38.754429-262.397008-109.055016s-109.055016-163.582524-109.055015-262.397008V79.916048a23.273936 23.273936 0 0 1 23.273936-23.273937h147.942438a23.273936 23.273936 0 0 1 23.260637 23.273937 23.273936 23.273936 0 0 1-23.273936 23.273936H46.547873v175.219492c0 86.446049 33.91345 167.918126 95.476336 229.481012s143.061562 95.542833 229.481012 95.542833 167.918126-33.91345 229.481012-95.476336 95.476336-143.061562 95.476336-229.481012V103.189984h-117.859213a23.273936 23.273936 0 0 1-23.273936-23.273936 23.273936 23.273936 0 0 1 23.273936-23.273937h141.13315a23.273936 23.273936 0 0 1 23.273936 23.273937v198.493428c0 98.854382-38.754429 192.029924-109.055016 262.397007s-163.609123 109.17471-262.450205 109.174711z"  /><path d="M571.262092 1024h-0.199491a245.732869 245.732869 0 0 1-245.081199-245.014702v-126.490519a23.273936 23.273936 0 0 1 46.547872 0v126.490519a199.184997 199.184997 0 0 0 198.373734 198.466829c25.268845-0.465479 89.105928-7.128474 140.388384-58.344433 33.660762-33.647462 47.69162-72.162502 53.530053-98.841083a652.188893 652.188893 0 0 1 135.746896-317.057509 23.273936 23.273936 0 0 1 32.703206-3.710531 23.273936 23.273936 0 0 1 3.71053 32.703206 605.680918 605.680918 0 0 0-126.211232 295.246506l-0.119694 0.87776-0.186192 0.86446c-7.035378 32.836199-24.258091 80.793807-66.310769 122.833187-63.358304 63.345005-141.877916 71.431035-172.705907 71.963011z"  /><path d="M946.371448 457.565588m-55.697855 0a55.697854 55.697854 0 1 0 111.395709 0 55.697854 55.697854 0 1 0-111.395709 0Z" fill="#4169E1" /><path d="M946.358148 536.550678a79.064886 79.064886 0 0 1-78.97179-78.971791 79.064886 79.064886 0 0 1 78.97179-78.971791 79.064886 79.064886 0 0 1 78.971791 78.971791 79.064886 79.064886 0 0 1-78.971791 78.971791z m0-111.395709a32.463816 32.463816 0 0 0-32.423918 32.423918 32.463816 32.463816 0 0 0 32.423918 32.423918 32.463816 32.463816 0 0 0 32.423919-32.423918 32.463816 32.463816 0 0 0-32.423919-32.423918zM520.365318 157.903683a79.064886 79.064886 0 0 1-78.971791-78.97179A79.064886 79.064886 0 0 1 520.365318 0a79.064886 79.064886 0 0 1 78.97179 78.971791 79.064886 79.064886 0 0 1-78.97179 78.931892z m0-111.395709a32.463816 32.463816 0 0 0-32.423918 32.423919 32.463816 32.463816 0 0 0 32.423918 32.423918 32.463816 32.463816 0 0 0 32.423918-32.423918A32.463816 32.463816 0 0 0 520.365318 46.547873zM228.084576 158.887838a79.064886 79.064886 0 0 1-78.971791-78.97179A79.064886 79.064886 0 0 1 228.084576 0.970856a79.064886 79.064886 0 0 1 78.971791 78.97179 79.064886 79.064886 0 0 1-78.971791 78.945192z m0-111.395709a32.463816 32.463816 0 0 0-32.423918 32.423919 32.463816 32.463816 0 0 0 32.423918 32.423918 32.463816 32.463816 0 0 0 32.410619-32.423918 32.463816 32.463816 0 0 0-32.410619-32.39732z"  /></svg>