<?xml version="1.0" standalone="no"?><!DOCTYPE svg PUBLIC "-//W3C//DTD SVG 1.1//EN" "http://www.w3.org/Graphics/SVG/1.1/DTD/svg11.dtd"><svg class="icon" width="48px" height="48.00px" viewBox="0 0 1024 1024" version="1.1" xmlns="http://www.w3.org/2000/svg"><path d="M636.373333 663.68m-202.666666 0a202.666667 202.666667 0 1 0 405.333333 0 202.666667 202.666667 0 1 0-405.333333 0Z" fill="#4169E1" /><path d="M232.533333 222.506667m-47.786666 0a47.786667 47.786667 0 1 0 95.573333 0 47.786667 47.786667 0 1 0-95.573333 0Z" fill="#4169E1" /><path d="M789.333333 740.053333H215.466667a46.933333 46.933333 0 0 1-37.333334-75.946666 181.333333 181.333333 0 0 0 38.186667-111.36V411.733333a289.066667 289.066667 0 0 1 11.093333-78.933333l61.44 17.706667a226.986667 226.986667 0 0 0-8.533333 61.226666v141.013334a245.12 245.12 0 0 1-33.28 123.306666h510.72A247.466667 247.466667 0 0 1 725.333333 552.746667V411.733333a222.08 222.08 0 0 0-370.133333-165.546666l-42.666667-47.573334A286.08 286.08 0 0 1 789.333333 411.733333v141.013334a182.826667 182.826667 0 0 0 38.186667 111.36A46.933333 46.933333 0 0 1 789.333333 740.053333zM502.4 881.28a102.613333 102.613333 0 0 1-102.4-102.613333h64a38.613333 38.613333 0 1 0 77.013333 0h64a102.613333 102.613333 0 0 1-102.613333 102.613333z" fill="#2c2c2c" /></svg>