<?xml version="1.0" standalone="no"?><!DOCTYPE svg PUBLIC "-//W3C//DTD SVG 1.1//EN" "http://www.w3.org/Graphics/SVG/1.1/DTD/svg11.dtd"><svg class="icon" width="32px" height="25.11px" viewBox="0 0 1305 1024" version="1.1" xmlns="http://www.w3.org/2000/svg"><path d="M0 373.14949l650.250205 379.752843v271.097667L0 644.367218V373.269551z" fill="#B8D9F6" /><path d="M1300.620471 373.14949L650.250205 752.902333v271.097667l650.250205-379.632782V373.14949z" fill="#99C9F2" /><path d="M1305.302849 373.269551L651.330754 0 4.9225 373.14949l645.327705 378.672294z" fill="#E0EFFB" /><path d="M919.186775 511.459726l-27.614023-59.069997a9.364756 9.364756 0 0 0-3.962012-4.082073 24.012194 24.012194 0 0 0-21.851096 0 24.012194 24.012194 0 0 1-21.851097 0l-81.641458-47.18396c-4.442256-2.52128-5.642866-6.363231-3.481768-9.724939a42.021339 42.021339 0 0 0 0-49.465119c-2.281158-3.241646-0.840427-7.083597 3.361707-9.484816l80.440849-46.823778a24.012194 24.012194 0 0 1 21.851096 0c8.404268 4.9225 22.811584 2.641341 25.813108-4.082073l26.893657-58.949935c1.560793-3.361707 0-6.483292-4.082073-8.64439a24.012194 24.012194 0 0 0-14.88756-2.281159L796.844648 228.11584c-12.006097 1.800915-15.247743 10.085121-6.843476 15.007621a6.723414 6.723414 0 0 1 0 12.726463l-79.960605 46.463595a24.012194 24.012194 0 0 1-16.568413 1.920975 197.500293 197.500293 0 0 0-86.924141 0 24.012194 24.012194 0 0 1-16.688475-1.920975l-80.56091-46.463595a6.723414 6.723414 0 0 1 0-12.726463c6.363231-3.72189 5.642866-9.364756 0-12.726463a20.050182 20.050182 0 0 0-6.963536-2.281158l-101.931762-15.848048c-12.006097-1.800915-21.971157 4.322195-18.849572 10.925548l27.614023 59.069997a9.484817 9.484817 0 0 0 3.962011 3.962012 24.012194 24.012194 0 0 0 21.971158 0 24.012194 24.012194 0 0 1 21.851096 0l81.041154 46.823778c4.322195 2.52128 5.642866 6.24317 3.481768 9.484816a41.901278 41.901278 0 0 0 0.840427 49.58518c2.281158 3.361707 0.960488 7.083597-3.361708 9.604877l-81.161214 47.183961a24.012194 24.012194 0 0 1-21.851097 0c-8.404268-4.9225-22.811584-2.641341-25.813108 4.082073l-27.133779 58.589753c-1.560793 3.361707 0 6.483292 4.082073 8.644389a24.012194 24.012194 0 0 0 14.88756 2.281159L504.256068 506.657287c12.006097-1.800915 15.247743-10.085121 6.843475-15.007621a6.723414 6.723414 0 0 1 0-12.726463l81.641458-48.024387a24.012194 24.012194 0 0 1 16.448353-2.041037 197.260171 197.260171 0 0 0 84.042678 0 24.012194 24.012194 0 0 1 16.568414 2.041037l82.121702 48.024387a6.723414 6.723414 0 0 1 0 12.606402c-6.363231 3.72189-5.642866 9.364756 0 12.726463a20.050182 20.050182 0 0 0 6.963536 2.281158L900.457263 522.505335c11.405792 1.800915 21.851096-4.322195 18.729512-11.045609z m-268.93657-116.339079c-24.012194 0-44.422558-12.006097-44.422558-27.974205s19.930121-27.974206 44.422558-27.974206 44.422558 12.006097 44.422559 27.974206-19.81006 27.974206-44.422559 27.974205z" fill="#5CA8EA" /></svg>