<?xml version="1.0" standalone="no"?><!DOCTYPE svg PUBLIC "-//W3C//DTD SVG 1.1//EN" "http://www.w3.org/Graphics/SVG/1.1/DTD/svg11.dtd"><svg class="icon" width="48px" height="48.00px" viewBox="0 0 1024 1024" version="1.1" xmlns="http://www.w3.org/2000/svg"><path d="M672 128A32 32 0 0 1 704 160l-0.042667 64H800A32 32 0 0 1 832 256v96h32A32 32 0 0 1 896 384v288a32 32 0 0 1-32 32H832l1.493333 96.213333a32 32 0 0 1-31.509333 32.490667h-0.832L768 832.341333a31.68 31.68 0 0 0-32 31.317334v0.341333A32 32 0 0 1 704 896h-64a32 32 0 0 1-32-32c0-17.557333-14.250667-31.808-31.808-31.808H576l-128.554667 0.704a31.658667 31.658667 0 0 0-31.445333 31.637333c0 17.386667-14.08 31.466667-31.445333 31.466667H320a32 32 0 0 1-32-32A32 32 0 0 0 256 832h-32A32 32 0 0 1 192 800V704H160A32 32 0 0 1 128 672V384a32 32 0 0 1 32-32H192V256a32 32 0 0 1 32-32H320v-64a32 32 0 0 1 64 0v64h96v-64a32 32 0 0 1 64 0v64h95.957333l0.042667-64A32 32 0 0 1 672 128zM512 362.666667a149.333333 149.333333 0 1 0 0 298.666666 149.333333 149.333333 0 0 0 0-298.666666z m66.368 49.770666l-47.36 90.709334 44.394667 11.84-129.770667 96.576 47.381333-90.709334-44.416-11.84 129.770667-96.576z" fill="#000000" /></svg>