<?xml version="1.0" standalone="no"?><!DOCTYPE svg PUBLIC "-//W3C//DTD SVG 1.1//EN" "http://www.w3.org/Graphics/SVG/1.1/DTD/svg11.dtd"><svg class="icon" width="48px" height="48.00px" viewBox="0 0 1024 1024" version="1.1" xmlns="http://www.w3.org/2000/svg"><path d="M833.984 213.333333v204.8c0 113.770667 56.234667 273.066667 168.682667 477.866667h21.333333v42.666667H0v-42.666667h21.333333c72.746667-160 109.141333-284.437333 109.141334-373.333333V362.666667h251.050666v160c0 23.402667 3.136 53.888 9.408 91.456L256 896h21.333333c112.448-204.8 168.682667-364.096 168.682667-477.866667V213.333333h387.968zM640 384c-95.36 0-172.693333 76.416-172.693333 170.666667s77.312 170.666667 172.693333 170.666666c95.36 0 172.693333-76.416 172.693333-170.666666S735.381333 384 640 384z m-120.661333 182.976l68.053333 2.944 22.357333 38.72-27.349333 52.437333-4.906667-2.090666a101.738667 101.738667 0 0 1-44.202666-37.76 88.277333 88.277333 0 0 1-13.952-54.250667z m241.322666 0a88.256 88.256 0 0 1-13.952 54.229333 101.738667 101.738667 0 0 1-44.16 37.76l-4.949333 2.112-27.328-52.48 22.357333-38.698666 68.032-2.922667zM640 520.533333a34.346667 34.346667 0 0 1 34.538667 34.133334c0 18.858667-15.466667 34.133333-34.538667 34.133333a34.346667 34.346667 0 0 1-34.538667-34.133333c0-18.858667 15.466667-34.133333 34.538667-34.133334z m0-85.333333c16.853333 0 32.725333 4.202667 46.677333 11.626667l5.141334 2.944L661.333333 503.445333h-42.602666l-30.506667-53.696 5.12-2.922666A99.029333 99.029333 0 0 1 640 435.2z m-286.122667-189.632c0 41.216-63.210667 72.128-109.482666 59.626667-33.28-9.002667-67.072 11.328-82.176 20.992l-4.906667 3.136c-2.581333 1.621333-3.712 2.133333-3.072 0.874666 38.890667-75.52 90.154667-60.309333 90.154667-60.309333 69.354667 24.32 109.482667-24.32 109.482666-24.32z m64-85.333333c0 51.541333-79.018667 90.154667-136.853333 74.517333-57.856-15.616-117.013333 39.68-112.682667 31.274667 48.597333-94.4 112.682667-75.392 112.682667-75.392 86.698667 30.4 136.853333-30.4 136.853333-30.4z" fill="#000000" /></svg>