<?xml version="1.0" standalone="no"?><!DOCTYPE svg PUBLIC "-//W3C//DTD SVG 1.1//EN" "http://www.w3.org/Graphics/SVG/1.1/DTD/svg11.dtd"><svg class="icon" width="48px" height="48.00px" viewBox="0 0 1024 1024" version="1.1" xmlns="http://www.w3.org/2000/svg"><path d="M483.562667 648.917333v93.141334h42.645333l-0.021333-93.141334h253.034666l31.189334 93.12H555.306667v111.552h173.248V917.333333H295.445333v-63.744h173.226667v-111.530666H226.901333l31.189334-93.141334h225.493333z m-268.992 0l-31.189334 93.12H106.069333a42.666667 42.666667 0 0 1-39.594666-58.517333l13.845333-34.602667h134.250667z m729.088 0l13.866666 34.602667a42.666667 42.666667 0 0 1-39.616 58.538667h-64l-31.189333-93.141334h120.938667z m-697.877334-93.12l-20.8 62.08H92.757333l24.874667-62.08h128.149333z m237.781334 0v62.08H268.48l20.8-62.08h194.282667z m264.448 0l20.8 62.08H526.186667v-62.08h221.824z m158.336 0l24.874666 62.08h-118.912l-20.8-62.08h114.837334z m-629.376-93.12l-20.8 62.08H130.069333l24.874667-62.08h122.026667z m206.592 0v62.08h-183.872l20.8-62.08h163.072z m233.237333 0l20.8 62.08h-211.413333v-62.08H716.8z m152.234667 0l24.874666 62.08h-112.789333l-20.8-62.08h108.714667z m-560.853334-93.098666l-20.8 62.08H167.381333l14.122667-35.264a42.666667 42.666667 0 0 1 39.616-26.816h87.061333z m175.381334 0v62.08H330.88l20.8-62.08h131.882667z m202.048 0l20.8 62.08h-180.224v-62.08h159.424z m117.269333 0a42.666667 42.666667 0 0 1 39.594667 26.816l14.122666 35.242666h-106.688l-20.8-62.058666h73.770667zM512 216.789333c70.165333 0 127.36 56.277333 129.856 126.634667l0.085333 4.821333H382.058667l0.085333-4.821333c2.517333-70.357333 59.690667-126.634667 129.856-126.634667z m-151.594667 87.637334v43.818666h-86.613333V304.426667h86.613333z m389.802667 0v43.818666h-86.613333V304.426667h86.613333zM411.648 106.666667l43.306667 75.904-37.504 21.909333-43.306667-75.904L411.648 106.666667z m200.704 0l37.504 21.909333-43.306667 75.904-37.504-21.909333L612.352 106.666667z" fill="#000000" /></svg>