<?xml version="1.0" standalone="no"?><!DOCTYPE svg PUBLIC "-//W3C//DTD SVG 1.1//EN" "http://www.w3.org/Graphics/SVG/1.1/DTD/svg11.dtd"><svg class="icon" width="48px" height="48.00px" viewBox="0 0 1024 1024" version="1.1" xmlns="http://www.w3.org/2000/svg"><path d="M981.333333 937.664V981.333333H42.666667v-43.669333h938.666666zM238.784 304.64l12.522667 347.370667 220.778666-114.56-0.298666 117.888 222.933333-117.866667-2.432 114.56L917.333333 537.429333V915.84H106.666667l22.016-611.2h110.101333zM405.333333 719.381333h-85.333333v87.317334h85.333333v-87.317334z m213.333334 0h-85.333334v87.317334h85.333334v-87.317334z m213.333333 0h-85.333333v87.317334h85.333333v-87.317334zM544 42.666667C632.362667 42.666667 704 91.52 704 151.808c0 60.288-71.637333 109.162667-160 109.162667a225.706667 225.706667 0 0 1-60.842667-8.170667c-21.482667 18.368-53.162667 29.994667-88.490666 29.994667-27.178667 0-52.202667-6.869333-72.085334-18.410667-13.653333 11.285333-33.642667 18.410667-55.914666 18.410667-41.237333 0-74.666667-24.448-74.666667-54.570667 0-30.144 33.429333-54.570667 74.666667-54.570667 4.821333 0 9.514667 0.32 14.08 0.96 12.522667-38.144 58.773333-66.453333 113.92-66.453333h2.645333C421.973333 69.632 478.378667 42.666667 544 42.666667z" fill="#000000" /></svg>