<?xml version="1.0" standalone="no"?><!DOCTYPE svg PUBLIC "-//W3C//DTD SVG 1.1//EN" "http://www.w3.org/Graphics/SVG/1.1/DTD/svg11.dtd"><svg class="icon" width="48px" height="48.00px" viewBox="0 0 1024 1024" version="1.1" xmlns="http://www.w3.org/2000/svg"><path d="M699.093333 874.666667a42.666667 42.666667 0 1 1 0 85.333333H128a42.666667 42.666667 0 1 1 0-85.333333z m-22.997333-42.666667H150.976V64h525.12v665.514667h95.936V149.333333H853.333333a42.666667 42.666667 0 0 1 39.466667-42.56L896 106.666667v21.333333h32a10.666667 10.666667 0 1 1 0 21.333333H896v21.333334h32a10.666667 10.666667 0 1 1 0 21.333333H896v21.333333l-3.2-0.106666a42.666667 42.666667 0 0 1-39.338667-39.210667L853.333333 170.666667v-4.181334h-63.061333V746.666667h-114.176v85.333333z m-175.04-384l-171.136 144.832 58.581333 17.792-62.485333 136.021333 171.136-144.853333-58.56-17.770667L501.056 448zM588.586667 149.333333H238.506667v213.333334h155.008c4.202667-11.52 14.976-20.053333 27.946666-21.205334l2.624-0.106666 106.026667-123.157334 16.746667 13.717334-100.885334 117.248c4.266667 3.584 7.552 8.234667 9.450667 13.504h133.162667V149.333333z" fill="#000000" /></svg>