<?xml version="1.0" standalone="no"?><!DOCTYPE svg PUBLIC "-//W3C//DTD SVG 1.1//EN" "http://www.w3.org/Graphics/SVG/1.1/DTD/svg11.dtd"><svg class="icon" width="48px" height="48.00px" viewBox="0 0 1024 1024" version="1.1" xmlns="http://www.w3.org/2000/svg"><path d="M848 851.605333c37.333333 0 74.666667 21.909333 112 65.728H64c37.333333-43.818667 74.666667-65.728 112-65.728 56 0 56 43.818667 112 43.818667s56-43.818667 112-43.818667 56 43.818667 112 43.818667 56-43.818667 112-43.818667 56 43.818667 112 43.818667 56-43.818667 112-43.818667z m0-109.546666c37.333333 0 74.666667 21.909333 112 65.706666H64c37.333333-43.797333 74.666667-65.706667 112-65.706666 56 0 56 43.818667 112 43.818666s56-43.818667 112-43.818666 56 43.818667 112 43.818666 56-43.818667 112-43.818666 56 43.818667 112 43.818666 56-43.818667 112-43.818666zM234.666667 391.466667V698.24H149.333333V391.466667h85.333334z m128 0V698.24h-85.333334V391.466667h85.333334z m128 0V698.24h-85.333334V391.466667h85.333334z m128 0V698.24h-85.333334V391.466667h85.333334z m128 0V698.24h-85.333334V391.466667h85.333334z m128 0V698.24h-85.333334V391.466667h85.333334z m-640-87.637334v43.818667H149.333333v-43.818667h85.333334z m128 0v43.818667h-85.333334v-43.818667h85.333334z m128 0v43.818667h-85.333334v-43.818667h85.333334z m128 0v43.818667h-85.333334v-43.818667h85.333334z m128 0v43.818667h-85.333334v-43.818667h85.333334z m128 0v43.818667h-85.333334v-43.818667h85.333334zM320 106.666667v87.637333h384V106.666667h213.333333v87.637333h42.666667v87.637333H64V194.304h42.666667V106.666667h213.333333z m-42.666667 43.818666H149.333333v43.818667h128V150.485333z m597.333334 0h-128v43.818667h128V150.485333z" fill="#000000" /></svg>