<?xml version="1.0" standalone="no"?><!DOCTYPE svg PUBLIC "-//W3C//DTD SVG 1.1//EN" "http://www.w3.org/Graphics/SVG/1.1/DTD/svg11.dtd"><svg class="icon" width="48px" height="48.00px" viewBox="0 0 1024 1024" version="1.1" xmlns="http://www.w3.org/2000/svg"><path d="M381.525333 351.765333v160c0 23.402667 3.136 53.888 9.408 91.456L426.666667 731.690667V652.8l76.181333-0.021333V601.6h50.794667v-0.021333l-25.386667 0.021333v-51.2l25.386667-0.021333V499.2h25.386666v51.178667h25.408V448h25.386667v102.378667l25.408 0.021333v51.2l-76.202667-0.021333v0.021333h253.994667l-0.021333 51.178667L960 652.8v232.277333h64v42.666667H0v-42.666667h21.333333c72.746667-160 109.141333-284.437333 109.141334-373.333333v-160h251.050666zM921.898667 789.333333H515.562667v25.6h406.336V789.333333z m0-51.2H515.562667v25.6h406.336v-25.6zM353.877333 234.666667c0 41.216-63.210667 72.106667-109.482666 59.626666-34.709333-9.386667-70.016 13.162667-84.053334 22.186667l-3.029333 1.92c-2.581333 1.621333-3.712 2.154667-3.072 0.896 38.890667-75.52 90.154667-60.309333 90.154667-60.309333 69.354667 24.32 109.482667-24.32 109.482666-24.32z m64-85.333334c0 51.52-79.018667 90.154667-136.853333 74.517334-57.856-15.637333-117.013333 39.68-112.682667 31.274666 48.597333-94.4 112.682667-75.392 112.682667-75.392C367.722667 210.133333 417.877333 149.333333 417.877333 149.333333z" fill="#000000" /></svg>