<?xml version="1.0" standalone="no"?><!DOCTYPE svg PUBLIC "-//W3C//DTD SVG 1.1//EN" "http://www.w3.org/Graphics/SVG/1.1/DTD/svg11.dtd"><svg class="icon" width="48px" height="48.00px" viewBox="0 0 1024 1024" version="1.1" xmlns="http://www.w3.org/2000/svg"><path d="M630.997333 916.074667l57.728 0.021333h36.48l6.698667 0.021333h18.794667l5.802666 0.021334h15.893334l4.757333 0.021333h12.586667l3.562666 0.021333h6.250667l2.624 0.021334h4.245333l1.578667 0.021333 2.090667 0.021333c0.874667 0 0.768 0.021333-0.448 0.042667A65.066667 65.066667 0 0 1 744.576 981.333333H279.424a65.066667 65.066667 0 0 1-64.96-61.226666l-0.106667-3.84c-1.216 0-1.344 0-0.426666-0.021334h2.069333l1.578667-0.021333h4.245333l2.624-0.021333h6.229333l3.605334-0.021334h12.565333l4.757333-0.021333 15.893334-0.021333h24.597333l6.698667-0.021334h28.8l7.68-0.021333h57.728l8.746666-0.021333h229.248z m-100.245333-698.773334l37.269333 0.042667c133.12 0.149333 250.816 0.853333 242.197334 2.133333l-0.576 0.064v672.917334c12.992 1.28-99.050667 2.005333-229.418667 2.197333l-14.293333 0.021333h-7.168l-18.645334 0.021334H465.237333l-7.189333-0.021334h-14.293333c-128-0.213333-238.314667-0.917333-229.973334-2.133333l0.576-0.085333V219.541333c-13.397333-1.322667 106.133333-2.048 241.621334-2.197333l37.248-0.042667h37.546666zM640 348.288l-250.282667 190.570667 85.674667 23.402666L384 741.248l250.282667-190.570667-85.653334-23.402666L640 348.288z m104.576-218.304a65.066667 65.066667 0 0 1 65.066667 65.066667c1.216 0 1.322667 0 0.426666 0.021333h-2.069333l-1.578667 0.021333h-4.245333l-2.624 0.021334h-6.250667l-3.584 0.021333-12.586666 0.021333h-4.736l-15.893334 0.021334h-24.597333l-6.72 0.021333h-28.8l-7.658667 0.021333-57.728 0.021334H392.981333l-57.728-0.021334H298.816l-6.72-0.021333h-18.794667l-5.802666-0.021333h-15.893334l-4.757333-0.021334h-12.586667l-3.584-0.021333h-6.229333l-2.624-0.021333h-4.245333l-1.578667-0.021334-2.090667-0.021333c-0.896 0-0.768-0.021333 0.448-0.042667l0.106667-3.818666a65.066667 65.066667 0 0 1 64.96-61.226667zM554.453333 42.666667a21.333333 21.333333 0 0 1 21.333334 21.333333v43.946667c1.92 0.085333-9.130667 0.128-25.472 0.170666h-9.386667l-4.992 0.021334h-62.250667a843.136 843.136 0 0 1-25.472-0.213334V64a21.333333 21.333333 0 0 1 21.333334-21.333333z" fill="#000000" /></svg>