<?xml version="1.0" standalone="no"?><!DOCTYPE svg PUBLIC "-//W3C//DTD SVG 1.1//EN" "http://www.w3.org/Graphics/SVG/1.1/DTD/svg11.dtd"><svg class="icon" width="48px" height="48.00px" viewBox="0 0 1024 1024" version="1.1" xmlns="http://www.w3.org/2000/svg"><path d="M546.986667 654.634667v153.6h168V896H294.997333v-87.765333h167.978667v-153.6h84.010667z m-327.808-142.656L190.165333 640H106.645333a42.666667 42.666667 0 0 1-41.024-54.442667L86.741333 512h132.437334z m264.810666 0V640H233.301333l28.992-128.021333h221.696z m290.837334 0L803.818667 640H525.994667v-128.021333H774.826667z m162.410666 0l21.12 73.6A42.666667 42.666667 0 0 1 917.354667 640H846.933333l-29.013333-128.021333h119.317333z m-689.066666-128l-19.328 85.333333H98.986667l24.512-85.333333h124.672z m235.818666 0v85.333333h-212.053333l19.349333-85.333333h192.704z m261.845334 0l19.328 85.333333H525.994667v-85.333333H745.813333z m154.645333 0l24.490667 85.333333h-116.714667l-19.328-85.333333h111.552z m-623.317333-128l-19.328 85.333333H135.744l24.490667-85.333333h116.906666z m206.826666 0v85.333333h-183.04l19.328-85.333333h163.712z m232.853334 0l19.328 85.333333h-210.176v-85.333333h190.848z m146.88 0l24.490666 85.333333h-108.949333l-19.328-85.333333h103.786667zM306.154667 128l-19.328 85.312H172.501333l15.637334-54.4A42.666667 42.666667 0 0 1 229.12 128h77.013333z m177.834666 0v85.312h-154.048L349.269333 128h134.72z m203.861334 0l19.328 85.312h-181.184V128h161.856z m107.008 0a42.666667 42.666667 0 0 1 41.002666 30.890667L851.477333 213.333333h-101.205333L730.944 128h63.914667z" fill="#000000" /></svg>