<?xml version="1.0" standalone="no"?><!DOCTYPE svg PUBLIC "-//W3C//DTD SVG 1.1//EN" "http://www.w3.org/Graphics/SVG/1.1/DTD/svg11.dtd"><svg class="icon" width="48px" height="48.00px" viewBox="0 0 1024 1024" version="1.1" xmlns="http://www.w3.org/2000/svg"><path d="M512 85.333333c247.424 0 448 200.576 448 448s-200.576 448-448 448S64 780.757333 64 533.333333 264.576 85.333333 512 85.333333z m0 47.146667C290.624 132.48 111.146667 311.978667 111.146667 533.333333c0 221.376 179.477333 400.853333 400.853333 400.853334 221.376 0 400.853333-179.477333 400.853333-400.853334 0-221.376-179.477333-400.853333-400.853333-400.853333z m0 47.168c195.328 0 353.685333 158.357333 353.685333 353.685333S707.328 887.018667 512 887.018667 158.314667 728.661333 158.314667 533.333333 316.672 179.648 512 179.648zM661.333333 298.666667L369.322667 526.293333l99.968 27.946667L362.666667 768l292.010666-227.626667-99.946666-27.946666L661.333333 298.666667z" fill="#000000" /></svg>