<?xml version="1.0" standalone="no"?><!DOCTYPE svg PUBLIC "-//W3C//DTD SVG 1.1//EN" "http://www.w3.org/Graphics/SVG/1.1/DTD/svg11.dtd"><svg class="icon" width="48px" height="48.00px" viewBox="0 0 1024 1024" version="1.1" xmlns="http://www.w3.org/2000/svg"><path d="M369.642667 42.666667c26.453333 0 50.432 18.432 52.373333 45.866666l0.128 3.626667v23.936l138.261333 113.408v88.213333h-32.021333v-55.850666h-106.24v67.285333l138.261333 113.365333v56.917334h-32.021333v-24.448H425.6l4.181333 24.448h-85.546666l24.042666-24.448H248.96l59.690667 60.522666 18.474666-18.709333-9.109333 56.896-9.386667-9.514667-83.285333 84.288 83.306667 100.224L334.933333 717.013333h6.997334v23.082667l-20.245334 24.362667 20.245334 24.362666v31.509334l-33.322667-40.106667-128.042667 158.506667H362.666667V718.506667h561.130666v215.765333H981.333333V981.333333H42.666667v-42.602666h70.272l78.677333-463.744H88.853333v55.850666H56.810667v-88.533333l138.261333-113.365333v-67.072H88.853333v55.850666H56.810667v-88.448l138.261333-113.365333V92.16c0-29.376 24.512-49.173333 51.904-49.386667 40.896 0 81.792-0.106667 122.666667-0.106666zM576 768h-106.666667v170.666667h106.666667v-170.666667z m-360.192-99.477333l-41.386667 241.685333 121.109334-145.749333-79.722667-95.936zM789.333333 768h-106.666666v106.666667h106.666666v-106.666667z m43.413334-321.493333v25.28h-5.12v48.512h111.317333l23.146667 144.618666v31.210667H324.16v-31.210667l23.125333-144.64h411.946667v-48.490666h-4.949333v-25.301334h78.464z m-588.010667 53.034666l-20.842667 121.706667 70.549334-71.402667-49.706667-50.304z m64.32-131.776l-51.669333 74.56h103.317333l-51.648-74.56z m-113.984 0.384l-90.453333 74.176h90.453333v-74.176z m227.072 0.192v73.984h90.24l-90.24-73.984z m-170.56-83.541333v130.56l45.226667-65.28-45.226667-65.28z m114.069333 1.28l-44.373333 64 44.373333 64.042667v-128.064z m-7.722666-24.213333h-97.770667l48.896 70.570666 48.874667-70.570666zM195.072 155.114667l-90.368 74.090666h90.368V155.114667z m227.072 0.192v73.898666h90.176L422.144 155.306667z m-113.088 21.461333l-51.456 52.437333h102.912l-51.456-52.437333zM251.584 118.186667v88.298666l43.306667-44.16-43.306667-44.16z m114.069333 0.874666L323.2 162.346667l42.453333 43.242666V119.061333z m-103.445333-18.901333l46.848 47.744 46.72-47.637333c-31.274667 0-62.293333-0.106667-93.568-0.106667z" fill="#000000" /></svg>