<?xml version="1.0" standalone="no"?><!DOCTYPE svg PUBLIC "-//W3C//DTD SVG 1.1//EN" "http://www.w3.org/Graphics/SVG/1.1/DTD/svg11.dtd"><svg class="icon" width="48px" height="48.00px" viewBox="0 0 1024 1024" version="1.1" xmlns="http://www.w3.org/2000/svg"><path d="M896.1024 563.4048a25.6 25.6 0 0 1 25.1904 20.992l0.4096 4.608v332.1344c0 39.5776-28.8256 72.704-66.4576 76.4416l-7.168 0.3584H176.128c-38.6048 0-69.7344-30.7712-73.216-69.4784l-0.3584-7.3216v-332.1344a25.6 25.6 0 0 1 50.7904-4.608l0.4096 4.608v332.1344c0 12.8512 8.192 23.04 18.432 25.1904l3.9424 0.4096h672c10.7008 0 20.0704-8.8064 22.016-20.9408l0.4096-4.6592v-332.1344a25.6 25.6 0 0 1 25.6-25.6z" fill="#ffffff" /><path d="M793.6 819.2a25.6 25.6 0 0 1 4.608 50.7904L793.6 870.4h-204.8a25.6 25.6 0 0 1-4.608-50.7904L588.8 819.2h204.8z" fill="#ffffff" /><path d="M878.2336 179.8656a51.2 51.2 0 0 1 50.4832 42.8032l34.1504 204.8a51.2 51.2 0 0 1-50.4832 59.5968h-46.336a76.8 76.8 0 0 0-144.896 0h-135.7824a76.8 76.8 0 0 0-144.896 0H302.848a76.8 76.8 0 0 0-144.896 0H111.616a51.2 51.2 0 0 1-50.4832-59.5968l34.1504-204.8a51.2 51.2 0 0 1 50.4832-42.8032h732.4672z" fill="#ffffff" fill-opacity=".5" /><path d="M878.2336 154.2656H145.7664a76.8 76.8 0 0 0-75.776 64.1536l-34.0992 204.8a76.8 76.8 0 0 0 75.776 89.4464h64.4096l6.0416-17.0496a51.2 51.2 0 0 1 96.5632 0l6.0416 17.0496h173.8752l6.0416-17.0496a51.2 51.2 0 0 1 96.5632 0l6.0416 17.0496h172.032l6.0416-17.0496a51.2 51.2 0 0 1 96.5632 0l6.0416 17.0496h64.4608a76.8 76.8 0 0 0 75.776-89.4464l-34.2016-204.8a76.8 76.8 0 0 0-75.776-64.1536z m-732.4672 51.2h732.4672a25.6 25.6 0 0 1 25.2416 21.4016l34.1504 204.8a25.6 25.6 0 0 1-21.0432 29.44l-4.1984 0.3584h-30.208l-2.5088-4.3008a102.4 102.4 0 0 0-86.0672-46.8992l-8.1408 0.3072a102.4 102.4 0 0 0-77.9264 46.592l-2.56 4.3008h-103.424l-2.56-4.3008a102.4 102.4 0 0 0-86.0672-46.8992l-8.1408 0.3072a102.4 102.4 0 0 0-77.9264 46.592l-2.56 4.3008H318.976l-2.5088-4.3008A102.4 102.4 0 0 0 230.4 410.2656l-8.1408 0.3072a102.4 102.4 0 0 0-77.9264 46.592l-2.56 4.3008H111.616a25.6 25.6 0 0 1-25.2928-29.7984l34.1504-204.8a25.6 25.6 0 0 1 25.2416-21.4016z" fill="#ffffff" /><path d="M844.8 51.2a25.6 25.6 0 0 1 4.608 50.7904L844.8 102.4h-665.6a25.6 25.6 0 0 1-4.608-50.7904L179.2 51.2h665.6z" fill="#ffffff" /></svg>