<?xml version="1.0" standalone="no"?><!DOCTYPE svg PUBLIC "-//W3C//DTD SVG 1.1//EN" "http://www.w3.org/Graphics/SVG/1.1/DTD/svg11.dtd"><svg class="icon" width="48px" height="48.00px" viewBox="0 0 1024 1024" version="1.1" xmlns="http://www.w3.org/2000/svg"><path d="M870.4 25.6c40.7552 0 73.0112 33.792 76.4928 75.7248l0.3072 7.4752v99.0208a25.6 25.6 0 0 1-50.7904 4.608l-0.4096-4.608V108.8c0-16.4864-9.8816-29.184-21.6064-31.5904L870.4 76.8H153.6c-12.0832 0-23.1424 11.1104-25.2416 26.624l-0.3584 5.376v806.4c0 16.4864 9.8816 29.184 21.6064 31.5904L153.6 947.2h716.8c12.0832 0 23.1424-11.1104 25.2416-26.624l0.3584-5.376V385.3312a25.6 25.6 0 0 1 50.7904-4.608l0.4096 4.608v529.8688c0 42.8032-30.0544 78.9504-69.6832 82.8416L870.4 998.4H153.6c-40.7552 0-73.0112-33.792-76.4928-75.7248l-0.3072-7.4752V108.8c0-42.8032 30.0544-78.9504 69.6832-82.8416L153.6 25.6h716.8z" fill="#ffffff" /><path d="M307.2 667.904c11.4176 0 20.9408 8.2432 22.8864 19.0976l0.4096 4.1984v153.6a23.296 23.296 0 0 1-46.1824 4.1984l-0.4096-4.1984v-153.6c0-12.8512 10.4448-23.296 23.296-23.296zM716.8 667.904c11.4176 0 20.9408 8.2432 22.8864 19.0976l0.4096 4.1984v153.6a23.296 23.296 0 0 1-46.1824 4.1984l-0.4096-4.1984v-153.6c0-12.8512 10.4448-23.296 23.296-23.296zM512 770.304c11.4176 0 20.9408 8.2432 22.8864 19.0976l0.4096 4.1984v51.2a23.296 23.296 0 0 1-46.1824 4.1984l-0.4096-4.1984v-51.2c0-12.8512 10.4448-23.296 23.296-23.296z" fill="#ffffff" /><path d="M410.9824 219.2896h202.8544c14.08 0 27.392 6.7584 35.8912 18.176l109.568 146.944a46.3872 46.3872 0 0 1-3.5328 59.4944l-210.7392 222.208a44.6464 44.6464 0 0 1-64.7168 0.1024L269.1072 444.416a46.3872 46.3872 0 0 1-3.584-59.4944l109.568-147.456a44.7488 44.7488 0 0 1 35.8912-18.2272z" fill="#ffffff" fill-opacity=".5" /><path d="M613.888 196.0448H410.9312c-21.504 0-41.728 10.24-54.5792 27.5456l-109.568 147.456a69.632 69.632 0 0 0 5.4272 89.4464l211.2 221.7472a67.9424 67.9424 0 0 0 98.4576-0.1024l210.7392-222.208a69.632 69.632 0 0 0 5.2736-89.3952l-109.568-146.944a68.0448 68.0448 0 0 0-54.528-27.5456z m-202.9056 46.5408h202.8544a21.504 21.504 0 0 1 17.2032 8.7552l109.568 146.944c6.656 8.96 5.888 21.5552-1.6896 29.5936l-210.7392 222.208a21.4016 21.4016 0 0 1-31.0272 0.0512l-211.2-221.696a23.1424 23.1424 0 0 1-1.7408-29.5936l109.568-147.456a21.504 21.504 0 0 1 17.2032-8.8064z" fill="#ffffff" /></svg>