<?xml version="1.0" standalone="no"?><!DOCTYPE svg PUBLIC "-//W3C//DTD SVG 1.1//EN" "http://www.w3.org/Graphics/SVG/1.1/DTD/svg11.dtd"><svg class="icon" width="48px" height="48.00px" viewBox="0 0 1024 1024" version="1.1" xmlns="http://www.w3.org/2000/svg"><path d="M102.4 102.4m51.2 0l102.4 0q51.2 0 51.2 51.2l0 102.4q0 51.2-51.2 51.2l-102.4 0q-51.2 0-51.2-51.2l0-102.4q0-51.2 51.2-51.2Z" fill="#ffffff" fill-opacity=".5" /><path d="M870.4 76.8A76.8 76.8 0 0 1 947.2 153.6a25.6 25.6 0 0 1-50.7904 4.608L896 153.6a25.6 25.6 0 0 0-20.992-25.1904L870.4 128H460.8a25.6 25.6 0 0 0-25.1904 20.992L435.2 153.6v102.4a25.6 25.6 0 0 0 20.992 25.1904L460.8 281.6h409.6a25.6 25.6 0 0 0 25.1904-20.992L896 256a25.6 25.6 0 1 1 51.2 0 76.8 76.8 0 0 1-69.4272 76.4416L870.4 332.8H460.8a76.8 76.8 0 0 1-76.4416-69.4272L384 256V153.6a76.8 76.8 0 0 1 69.4272-76.4416L460.8 76.8h409.6z" fill="#ffffff" /><path d="M102.4 409.6m51.2 0l102.4 0q51.2 0 51.2 51.2l0 102.4q0 51.2-51.2 51.2l-102.4 0q-51.2 0-51.2-51.2l0-102.4q0-51.2 51.2-51.2Z" fill="#ffffff" fill-opacity=".5" /><path d="M870.4 384A76.8 76.8 0 0 1 947.2 460.8a25.6 25.6 0 0 1-50.7904 4.608L896 460.8a25.6 25.6 0 0 0-20.992-25.1904L870.4 435.2H460.8a25.6 25.6 0 0 0-25.1904 20.992L435.2 460.8v102.4a25.6 25.6 0 0 0 20.992 25.1904L460.8 588.8h409.6a25.6 25.6 0 0 0 25.1904-20.992L896 563.2a25.6 25.6 0 1 1 51.2 0 76.8 76.8 0 0 1-69.4272 76.4416L870.4 640H460.8a76.8 76.8 0 0 1-76.4416-69.4272L384 563.2V460.8a76.8 76.8 0 0 1 69.4272-76.4416L460.8 384h409.6z" fill="#ffffff" /><path d="M102.4 716.8m51.2 0l102.4 0q51.2 0 51.2 51.2l0 102.4q0 51.2-51.2 51.2l-102.4 0q-51.2 0-51.2-51.2l0-102.4q0-51.2 51.2-51.2Z" fill="#ffffff" fill-opacity=".5" /><path d="M256 76.8H153.6A76.8 76.8 0 0 0 76.8 153.6v102.4A76.8 76.8 0 0 0 153.6 332.8h102.4A76.8 76.8 0 0 0 332.8 256V153.6A76.8 76.8 0 0 0 256 76.8z m-102.4 51.2h102.4a25.6 25.6 0 0 1 25.6 25.6v102.4a25.6 25.6 0 0 1-25.6 25.6H153.6a25.6 25.6 0 0 1-25.6-25.6V153.6a25.6 25.6 0 0 1 25.6-25.6zM256 384H153.6A76.8 76.8 0 0 0 76.8 460.8v102.4A76.8 76.8 0 0 0 153.6 640h102.4A76.8 76.8 0 0 0 332.8 563.2V460.8A76.8 76.8 0 0 0 256 384z m-102.4 51.2h102.4a25.6 25.6 0 0 1 25.6 25.6v102.4a25.6 25.6 0 0 1-25.6 25.6H153.6a25.6 25.6 0 0 1-25.6-25.6V460.8a25.6 25.6 0 0 1 25.6-25.6zM256 691.2H153.6A76.8 76.8 0 0 0 76.8 768v102.4A76.8 76.8 0 0 0 153.6 947.2h102.4A76.8 76.8 0 0 0 332.8 870.4v-102.4A76.8 76.8 0 0 0 256 691.2z m-102.4 51.2h102.4a25.6 25.6 0 0 1 25.6 25.6v102.4a25.6 25.6 0 0 1-25.6 25.6H153.6a25.6 25.6 0 0 1-25.6-25.6v-102.4a25.6 25.6 0 0 1 25.6-25.6z" fill="#ffffff" /><path d="M870.4 691.2a76.8 76.8 0 0 1 76.8 76.8 25.6 25.6 0 0 1-50.7904 4.608L896 768a25.6 25.6 0 0 0-20.992-25.1904L870.4 742.4H460.8a25.6 25.6 0 0 0-25.1904 20.992L435.2 768v102.4a25.6 25.6 0 0 0 20.992 25.1904L460.8 896h409.6a25.6 25.6 0 0 0 25.1904-20.992L896 870.4a25.6 25.6 0 1 1 51.2 0 76.8 76.8 0 0 1-69.4272 76.4416L870.4 947.2H460.8a76.8 76.8 0 0 1-76.4416-69.4272L384 870.4v-102.4a76.8 76.8 0 0 1 69.4272-76.4416L460.8 691.2h409.6z" fill="#ffffff" /></svg>