<?xml version="1.0" standalone="no"?><!DOCTYPE svg PUBLIC "-//W3C//DTD SVG 1.1//EN" "http://www.w3.org/Graphics/SVG/1.1/DTD/svg11.dtd"><svg class="icon" width="48px" height="48.00px" viewBox="0 0 1024 1024" version="1.1" xmlns="http://www.w3.org/2000/svg"><path d="M555.6224 319.1808c18.432 31.232 40.1408 59.3408 65.024 84.224 24.9344 24.9856 53.1968 46.7456 84.6336 65.2288a51.2 51.2 0 0 1-0.3072 88.4224 407.1936 407.1936 0 0 0-84.3776 63.5392 407.1936 407.1936 0 0 0-63.488 84.3776 51.2 51.2 0 0 1-88.4736 0.3072A421.5808 421.5808 0 0 0 403.456 620.544a421.4784 421.4784 0 0 0-84.224-65.024 51.2 51.2 0 0 1 0.2048-88.2688 411.3408 411.3408 0 0 0 83.968-63.8976 411.3408 411.3408 0 0 0 63.9488-84.0192 51.2 51.2 0 0 1 88.32-0.2048z" fill="#ffffff" fill-opacity=".5" /><path d="M718.336 446.4128l-15.0016-9.2672a391.424 391.424 0 0 1-125.5936-131.1744 76.8 76.8 0 0 0-132.4544 0.3072l-9.3696 15.36c-15.1552 23.7056-32.1024 45.0048-50.5344 63.488a385.8944 385.8944 0 0 1-78.848 59.904 76.8 76.8 0 0 0-0.3072 132.4544l14.8992 9.216a391.3728 391.3728 0 0 1 125.5424 131.3792 76.8 76.8 0 0 0 132.608-0.4608l9.5232-15.6672c15.2576-24.2176 32-45.4656 49.9712-63.4368 21.6064-21.6064 47.9744-41.472 79.104-59.4944a76.8 76.8 0 0 0 0.4608-132.608z m-16.896 79.1552a25.6 25.6 0 0 1-9.216 9.1648 432.64 432.64 0 0 0-89.6 67.584 417.3824 417.3824 0 0 0-57.344 72.704l-10.0352 16.4864a25.7024 25.7024 0 0 1-44.4416 0.5632 447.1808 447.1808 0 0 0-69.2224-89.7536 443.4432 443.4432 0 0 0-73.0624-58.88l-15.872-9.7792a25.7024 25.7024 0 0 1-0.3072-44.4416 436.8384 436.8384 0 0 0 89.2416-67.9424 425.984 425.984 0 0 0 57.7536-72.5504l9.8816-16.2304a25.7024 25.7024 0 0 1 44.3904-0.512c19.5584 33.1264 42.5472 62.9248 68.9664 89.2928 22.1184 22.1184 46.592 41.8304 73.4208 59.1872l15.9232 9.7792a25.7024 25.7024 0 0 1 9.5232 35.328z" fill="#ffffff" /><path d="M125.184 260.1984a25.6 25.6 0 0 1 9.4208 34.9184A435.2 435.2 0 0 0 512 947.2a433.0496 433.0496 0 0 0 256.2048-83.3536 25.6 25.6 0 1 1 30.208 41.3696A484.2496 484.2496 0 0 1 512 998.4 486.4 486.4 0 0 1 90.2144 269.568a25.6 25.6 0 0 1 34.9696-9.3696zM512 25.6a486.4 486.4 0 0 1 436.6848 700.928 25.6 25.6 0 0 1-45.9264-22.6304A435.2 435.2 0 0 0 301.6704 130.9184a25.6 25.6 0 0 1-24.7808-44.8512A484.3008 484.3008 0 0 1 512 25.6z" fill="#ffffff" /><path d="M705.6384 670.8736a25.6 25.6 0 0 1 32.4608-4.7104l3.7376 2.7648 143.3088 129.024a25.6 25.6 0 0 1-30.5664 40.8576l-3.6864-2.7648-143.36-129.024a25.6 25.6 0 0 1-1.8944-36.1472zM165.8368 174.336a25.6 25.6 0 0 1 32.4608-4.6592l3.6864 2.7648 143.36 129.024a25.6 25.6 0 0 1-30.6176 40.8064l-3.6864-2.7648-143.36-129.024a25.6 25.6 0 0 1-1.8432-36.1472z" fill="#ffffff" /></svg>