<?xml version="1.0" standalone="no"?><!DOCTYPE svg PUBLIC "-//W3C//DTD SVG 1.1//EN" "http://www.w3.org/Graphics/SVG/1.1/DTD/svg11.dtd"><svg class="icon" width="48px" height="38.40px" viewBox="0 0 1280 1024" version="1.1" xmlns="http://www.w3.org/2000/svg"><path d="M0 320v384c0 70.6 57.4 128 128 128h192V192H128c-70.6 0-128 57.4-128 128z m1152-128h-192v640h192c70.6 0 128-57.4 128-128V320c0-70.6-57.4-128-128-128zM384 832h512V192H384v640z m352-464c26.6 0 48 21.4 48 48s-21.4 48-48 48-48-21.4-48-48 21.4-48 48-48z m0 192c26.6 0 48 21.4 48 48s-21.4 48-48 48-48-21.4-48-48 21.4-48 48-48z m-192-192c26.6 0 48 21.4 48 48s-21.4 48-48 48-48-21.4-48-48 21.4-48 48-48z m0 192c26.6 0 48 21.4 48 48s-21.4 48-48 48-48-21.4-48-48 21.4-48 48-48z" fill="#ffffff" /></svg>