<?xml version="1.0" standalone="no"?><!DOCTYPE svg PUBLIC "-//W3C//DTD SVG 1.1//EN" "http://www.w3.org/Graphics/SVG/1.1/DTD/svg11.dtd"><svg class="icon" width="48px" height="48.00px" viewBox="0 0 1024 1024" version="1.1" xmlns="http://www.w3.org/2000/svg"><path d="M753 727.8l57.6-27.8c22.2 45.8 52 86.4 88.2 121.8 68-85 109-192.6 109-309.8 0-117-40.8-224.4-108.4-309.2-35.6 34.6-65.2 74.2-87.2 119l-57.4-28.2c25.6-52 60-98 101.6-138C767.2 69.4 646 16 512 16 378.2 16 257 69.2 167.8 155.4c41.4 39.8 75.8 85.8 101.4 137.6l-57.4 28.2c-22-44.6-51.4-84.2-87-118.8C56.8 287.4 16 394.8 16 512c0 117.2 40.8 224.6 108.8 309.4 36.4-35.4 66.4-76 88.6-122l57.6 27.8c-25.8 53.4-60.6 100.6-103 141.4 89 86.2 210.2 139.4 344 139.4 133.6 0 254.6-53 343.8-139-42.2-40.8-77-87.8-102.8-141.2z m-456.6-64l-61-19.6c29.8-92.8 25.4-187.6-1.2-268l60.8-20c30 91.2 36 199.8 1.4 307.6z m432.6-306.8l60.8 20c-26.4 80.2-31 175-1.2 268l-61 19.6c-34.6-108-28.6-216.6 1.4-307.6z" fill="#ffffff" /></svg>