<?xml version="1.0" standalone="no"?><!DOCTYPE svg PUBLIC "-//W3C//DTD SVG 1.1//EN" "http://www.w3.org/Graphics/SVG/1.1/DTD/svg11.dtd"><svg t="1647676521037" class="icon" viewBox="0 0 1097 1024" version="1.1" xmlns="http://www.w3.org/2000/svg" p-id="12522" xmlns:xlink="http://www.w3.org/1999/xlink" width="214.2578125" height="200"><defs><style type="text/css">@font-face { font-family: feedback-iconfont; src: url("//at.alicdn.com/t/font_1031158_u69w8yhxdu.woff2?t=1630033759944") format("woff2"), url("//at.alicdn.com/t/font_1031158_u69w8yhxdu.woff?t=1630033759944") format("woff"), url("//at.alicdn.com/t/font_1031158_u69w8yhxdu.ttf?t=1630033759944") format("truetype"); }
</style></defs><path d="M802.435474 401.206857c60.342857 0 109.421714 49.097143 109.421715 109.44 0 60.324571-49.097143 109.421714-109.421715 109.421714H583.592046v151.826286a127.286857 127.286857 0 0 1 89.325714 103.497143h173.696a91.117714 91.117714 0 0 1 174.665143 36.461714 91.117714 91.117714 0 0 1-174.665143 36.48H661.946331c-20.571429 42.971429-64.109714 72.96-114.834285 72.96-50.742857 0-94.299429-29.988571-114.870857-72.96H247.628617a91.190857 91.190857 0 0 1-174.683428-36.48 91.117714 91.117714 0 0 1 174.683428-36.48h173.696a127.213714 127.213714 0 0 1 89.325714-103.478857V620.068571H291.788617a109.549714 109.549714 0 0 1-109.421714-109.421714c0-60.342857 49.097143-109.44 109.421714-109.44zM547.112046 838.912a54.784 54.784 0 0 0-54.710857 54.710857 54.784 54.784 0 0 0 54.710857 54.710857 54.784 54.784 0 0 0 54.710857-54.710857 54.784 54.784 0 0 0-54.710857-54.710857zM547.130331 0c148.022857 0 281.380571 89.417143 337.590858 226.340571a271.963429 271.963429 0 0 1 209.517714 266.057143c0 150.857143-122.697143 273.554286-273.554286 273.554286h-110.902857a36.48 36.48 0 1 1 0-72.96h110.884571c110.592 0 200.612571-90.020571 200.612572-200.594286a199.497143 199.497143 0 0 0-169.234286-198.217143l-21.705143-3.382857-7.149714-20.790857A291.785143 291.785143 0 0 0 547.112046 72.941714c-124.708571 0-235.648 79.177143-276.114286 197.083429l-7.094857 20.790857-21.705143 3.382857a199.497143 199.497143 0 0 0-169.252571 198.217143c0.128 110.72 89.874286 200.466286 200.612571 200.594286h104.283429a36.48 36.48 0 1 1 0 72.96H273.55776C122.700617 765.952 0.003474 643.254857 0.003474 492.397714a271.963429 271.963429 0 0 1 209.554286-266.057143A364.928 364.928 0 0 1 547.112046 0.018286z m255.305143 474.148571H291.788617a36.516571 36.516571 0 0 0 0 72.96h510.646857a36.516571 36.516571 0 0 0 0-72.96z" fill="#4169E1" p-id="12523"></path></svg>