<?xml version="1.0" standalone="no"?><!DOCTYPE svg PUBLIC "-//W3C//DTD SVG 1.1//EN" "http://www.w3.org/Graphics/SVG/1.1/DTD/svg11.dtd"><svg t="1647676637768" class="icon" viewBox="0 0 1024 1024" version="1.1" xmlns="http://www.w3.org/2000/svg" p-id="17491" xmlns:xlink="http://www.w3.org/1999/xlink" width="200" height="200"><defs><style type="text/css">@font-face { font-family: feedback-iconfont; src: url("//at.alicdn.com/t/font_1031158_u69w8yhxdu.woff2?t=1630033759944") format("woff2"), url("//at.alicdn.com/t/font_1031158_u69w8yhxdu.woff?t=1630033759944") format("woff"), url("//at.alicdn.com/t/font_1031158_u69w8yhxdu.ttf?t=1630033759944") format("truetype"); }
</style></defs><path d="M246.576687 560.687117l-1.570552-10.993865h-86.380368l3.141104 15.705521c23.558282 146.06135 142.920245 265.423313 288.981595 288.981595l15.705522 3.141104v-81.668711l-10.993865-1.570552c-109.93865-21.98773-191.607362-105.226994-208.883436-213.595092zM248.147239 463.312883C268.564417 356.515337 350.233129 273.276074 455.460123 251.288344l10.993865-1.570553v-81.668711l-15.705522 3.141104c-146.06135 23.558282-265.423313 142.920245-288.981595 288.981595l-3.141104 15.705522h86.380368l3.141104-12.564418zM772.711656 461.742331l1.570553 10.993865h86.380368l-3.141105-15.705521c-23.558282-146.06135-142.920245-265.423313-288.981595-288.981595l-15.705521-3.141105V251.288344l10.993865 1.570552c108.368098 23.558282 190.03681 105.226994 208.883435 208.883435zM695.754601 518.282209v-12.564418c-6.282209-97.374233-83.239264-172.760736-180.613497-172.760736-50.257669 0-95.803681 18.846626-131.92638 54.969325-34.552147 34.552147-54.969325 83.239264-54.969325 131.926381 0 100.515337 83.239264 182.184049 186.895705 182.184049 98.944785-3.141104 180.613497-83.239264 180.613497-183.754601z m-183.754601 97.374233c-56.539877 0-100.515337-43.97546-100.515337-100.515338 0-56.539877 43.97546-100.515337 100.515337-100.515337 56.539877 0 100.515337 43.97546 100.515337 100.515337 0 56.539877-43.97546 100.515337-100.515337 100.515338zM777.423313 560.687117c-21.98773 103.656442-103.656442 186.895706-208.883436 213.595092l-9.423313 3.141104v80.098159l15.705522-3.141104C720.883436 830.822086 840.245399 711.460123 863.803681 565.398773l3.141104-15.705521h-86.380368l-3.141104 10.993865z" fill="#4169E1" p-id="17492"></path><path d="M512 0C229.300613 0 0 229.300613 0 512s229.300613 512 512 512 512-229.300613 512-512S794.699387 0 512 0zM78.527607 512v-3.141104V512z m469.595092 431.90184v-40.834355c0-18.846626-15.705521-34.552147-34.552147-34.552148-18.846626 0-34.552147 15.705521-34.552147 34.552148v40.834355C266.993865 926.625767 97.374233 758.576687 80.09816 546.552147h42.404907c18.846626 0 34.552147-15.705521 34.552148-34.552147 0-18.846626-15.705521-34.552147-34.552148-34.552147H80.09816C97.374233 265.423313 265.423313 95.803681 477.447853 80.09816v40.834355c0 18.846626 15.705521 34.552147 34.552147 34.552148s34.552147-15.705521 34.552147-34.552148V80.09816C758.576687 97.374233 926.625767 266.993865 943.90184 477.447853h-39.263803c-18.846626 0-34.552147 15.705521-34.552147 34.552147 0 18.846626 15.705521 34.552147 34.552147 34.552147h39.263803C926.625767 757.006135 758.576687 926.625767 548.122699 943.90184z" fill="#4169E1" p-id="17493"></path></svg>