<?xml version="1.0" standalone="no"?><!DOCTYPE svg PUBLIC "-//W3C//DTD SVG 1.1//EN" "http://www.w3.org/Graphics/SVG/1.1/DTD/svg11.dtd"><svg t="1647676378631" class="icon" viewBox="0 0 1024 1024" version="1.1" xmlns="http://www.w3.org/2000/svg" p-id="6006" xmlns:xlink="http://www.w3.org/1999/xlink" width="200" height="200"><defs><style type="text/css">@font-face { font-family: feedback-iconfont; src: url("//at.alicdn.com/t/font_1031158_u69w8yhxdu.woff2?t=1630033759944") format("woff2"), url("//at.alicdn.com/t/font_1031158_u69w8yhxdu.woff?t=1630033759944") format("woff"), url("//at.alicdn.com/t/font_1031158_u69w8yhxdu.ttf?t=1630033759944") format("truetype"); }
</style></defs><path d="M957.588963 785.014001 806.667671 785.014001l-27.623128-95.338369-543.67542 0.5137-28.616758 94.824669L63.514057 785.014001 63.514057 609.206926l894.074905 0L957.588963 785.014001zM807.437198 783.990694l149.128459 0L956.565656 610.230232 64.537364 610.230232l0 173.760462 141.453662 0 28.616758-94.824669 0.379647 0 544.825616-0.5137L807.437198 783.990694z" p-id="6007" fill="#4169E1"></path><path d="M958.70539 609.718579 62.385351 609.718579l164.129104-190.5785 570.536184 0 0.157589 0.170892L958.70539 609.718579zM64.625368 608.690156l891.851261 0L796.584012 420.168502l-569.592696 0L64.625368 608.690156z" p-id="6008" fill="#4169E1"></path><path d="M797.441543 408.046417 226.098993 408.046417l0.170892-0.636496 51.245128-194.619536L755.797074 212.790384l0.085958 0.416486L797.441543 408.046417zM227.421104 407.017994l568.759725 0-41.204447-193.198164-476.66626 0L227.421104 407.017994z" p-id="6009" fill="#4169E1"></path><path d="M242.163877 450.487018 784.645099 450.487018 894.529765 586.600045 127.821689 586.600045Z" p-id="6010" fill="#4169E1"></path><path d="M895.59605 587.114768 126.719588 587.114768l115.198695-137.142473 542.972409 0 0.158612 0.195451L895.59605 587.114768zM128.922766 586.087369l764.54276 0L784.400528 451.001741l-542.004361 0L128.922766 586.087369z" p-id="6011" fill="#4169E1"></path><path d="M830.625316 865.757976 180.645778 865.757976 234.988454 689.677679 779.050684 689.677679Z" p-id="6012" fill="#4169E1"></path><path d="M831.298652 866.272699 179.947883 866.272699l0.207731-0.661056 54.465472-176.447664 544.80822 0 0.110517 0.367367L831.298652 866.272699zM181.331393 865.243253l648.609331 0L778.658757 690.192402 235.38038 690.192402 181.331393 865.243253z" p-id="6013" fill="#4169E1"></path><path d="M217.183949 689.163979l587.604932 0 0 1.028423-587.604932 0 0-1.028423Z" p-id="6014" fill="#4169E1"></path></svg>