<?xml version="1.0" standalone="no"?><!DOCTYPE svg PUBLIC "-//W3C//DTD SVG 1.1//EN" "http://www.w3.org/Graphics/SVG/1.1/DTD/svg11.dtd"><svg t="1647676294010" class="icon" viewBox="0 0 1024 1024" version="1.1" xmlns="http://www.w3.org/2000/svg" p-id="4767" xmlns:xlink="http://www.w3.org/1999/xlink" width="200" height="200"><defs><style type="text/css">@font-face { font-family: feedback-iconfont; src: url("//at.alicdn.com/t/font_1031158_u69w8yhxdu.woff2?t=1630033759944") format("woff2"), url("//at.alicdn.com/t/font_1031158_u69w8yhxdu.woff?t=1630033759944") format("woff"), url("//at.alicdn.com/t/font_1031158_u69w8yhxdu.ttf?t=1630033759944") format("truetype"); }
</style></defs><path d="M512.504581 961.306122C265.908663 961.306122 63.198459 760.685714 63.198459 512c0-12.538776 8.359184-20.897959 20.897959-20.897959s20.897959 8.359184 20.897959 20.897959C104.994377 737.697959 288.896418 919.510204 512.504581 919.510204c167.183673 0 315.559184-100.310204 378.253061-254.955102 4.179592-10.44898 16.718367-16.718367 27.167347-12.538775 10.44898 4.179592 16.718367 16.718367 12.538776 27.167346C861.5005 850.546939 698.496418 961.306122 512.504581 961.306122zM940.912744 532.897959c-12.538776 0-20.897959-8.359184-20.897959-20.897959C920.014785 286.302041 738.20254 104.489796 512.504581 104.489796 336.961724 104.489796 180.22703 217.338776 125.892336 384.522449c-4.179592 10.44898-14.628571 16.718367-27.167347 12.538775-10.44898-4.179592-16.718367-14.628571-12.538775-27.167346C146.790296 185.991837 318.153561 62.693878 512.504581 62.693878c248.685714 0 449.306122 200.620408 449.306123 449.306122 0 12.538776-8.359184 20.897959-20.89796 20.897959z" p-id="4768" fill="#4169E1"></path><path d="M140.520908 532.897959H25.582132c-14.628571 0-20.897959-16.718367-10.448979-27.167347l52.244898-52.244898c8.359184-8.359184 20.897959-8.359184 29.257142 0l52.244898 52.244898c12.538776 10.44898 4.179592 27.167347-8.359183 27.167347" p-id="4769" fill="#4169E1"></path><path d="M882.398459 512h112.848979c14.628571 0 20.897959 16.718367 10.44898 27.167347L955.541316 591.412245c-8.359184 8.359184-20.897959 8.359184-29.257143 0L871.949479 539.167347C863.590296 528.718367 869.859683 512 882.398459 512" p-id="4770" fill="#4169E1"></path><path d="M721.484173 409.6H301.435193c-22.987755 0-39.706122-18.808163-39.706122-39.706122v-87.771429c0-22.987755 18.808163-39.706122 39.706122-39.706122H721.484173c22.987755 0 39.706122 18.808163 39.706123 39.706122v85.681633c0 22.987755-16.718367 41.795918-39.706123 41.795918z m-2.089796-127.477551l-417.959184 2.089796 2.089796 85.681633 417.959184-2.089796v-85.681633z" p-id="4771" fill="#4169E1"></path><path d="M441.45152 346.906122H345.320908c-12.538776 0-20.897959-8.359184-20.897959-20.897959s8.359184-20.897959 20.897959-20.897959h94.040816c12.538776 0 20.897959 8.359184 20.897959 20.897959s-8.359184 20.897959-18.808163 20.897959zM721.484173 597.681633H301.435193c-22.987755 0-39.706122-18.808163-39.706122-39.706123v-85.681632c0-22.987755 18.808163-39.706122 39.706122-39.706123H721.484173c22.987755 0 39.706122 18.808163 39.706123 39.706123v85.681632c0 20.897959-16.718367 39.706122-39.706123 39.706123z m-2.089796-127.477551l-420.048979 2.089796 2.089795 85.681632 417.959184-2.089796v-85.681632z" p-id="4772" fill="#4169E1"></path><path d="M441.45152 534.987755H345.320908c-12.538776 0-20.897959-8.359184-20.897959-20.897959s8.359184-20.897959 20.897959-20.897959h94.040816c12.538776 0 20.897959 8.359184 20.897959 20.897959s-8.359184 20.897959-18.808163 20.897959zM721.484173 785.763265H301.435193c-22.987755 0-39.706122-18.808163-39.706122-39.706122v-85.681633c0-22.987755 18.808163-39.706122 39.706122-39.706122H721.484173c22.987755 0 39.706122 18.808163 39.706123 39.706122v85.681633c0 20.897959-16.718367 39.706122-39.706123 39.706122z m-2.089796-127.477551l-420.048979 2.089796 2.089795 85.681633 417.959184-2.089796v-85.681633z" p-id="4773" fill="#4169E1"></path><path d="M441.45152 723.069388H345.320908c-12.538776 0-20.897959-8.359184-20.897959-20.897959s8.359184-20.897959 20.897959-20.89796h94.040816c12.538776 0 20.897959 8.359184 20.897959 20.89796s-8.359184 20.897959-18.808163 20.897959z" p-id="4774" fill="#4169E1"></path></svg>