<?xml version="1.0" standalone="no"?><!DOCTYPE svg PUBLIC "-//W3C//DTD SVG 1.1//EN" "http://www.w3.org/Graphics/SVG/1.1/DTD/svg11.dtd"><svg t="1647676252649" class="icon" viewBox="0 0 1024 1024" version="1.1" xmlns="http://www.w3.org/2000/svg" p-id="4491" xmlns:xlink="http://www.w3.org/1999/xlink" width="200" height="200"><defs><style type="text/css">@font-face { font-family: feedback-iconfont; src: url("//at.alicdn.com/t/font_1031158_u69w8yhxdu.woff2?t=1630033759944") format("woff2"), url("//at.alicdn.com/t/font_1031158_u69w8yhxdu.woff?t=1630033759944") format("woff"), url("//at.alicdn.com/t/font_1031158_u69w8yhxdu.ttf?t=1630033759944") format("truetype"); }
</style></defs><path d="M708.5 444.5c11.4-6.4 18.5-18.4 18.5-31.4V206.5c0-13-7-25-18.3-31.4l-179-101c-11-6.2-24.4-6.2-35.3 0l-179.8 101c-11.4 6.4-18.4 18.5-18.4 31.6l1.4 206.6c0.1 12.9 7.1 24.8 18.3 31.1l177.9 100.2c5.5 3.1 11.6 4.6 17.7 4.6 6 0 12.1-1.5 17.5-4.6l179.5-100.1z m-339.1-52.6l-1.1-164.5 143.6-80.7 142.8 80.6-143.1 82.3-0.1 162.4-142.1-80.1zM476.8 578.8l-179-101c-11-6.2-24.4-6.2-35.3 0l-179.8 101c-11.4 6.4-18.4 18.4-18.4 31.4l0.4 206.6c0 13 7 24.9 18.3 31.3l177.9 100.2c5.5 3.1 11.6 4.6 17.7 4.6 6 0 12-1.5 17.5-4.5l180.6-100.2c11.4-6.3 18.5-18.4 18.5-31.5V610.2c-0.1-13-7.1-25-18.4-31.4zM136.7 795.7l-0.3-164.5 143.7-80.8 142.3 80.3-143.5 82.6-0.2 162.3-142-79.9zM941.3 578.8l-179-101c-11-6.2-24.4-6.2-35.3 0l-179.8 101c-11.4 6.4-18.4 18.5-18.4 31.6l1.4 206.6c0.1 12.9 7.1 24.8 18.3 31.1l177.9 100.2c5.5 3.1 11.6 4.6 17.7 4.6 6 0 12.1-1.5 17.5-4.6l179.6-100.2c11.4-6.4 18.5-18.4 18.5-31.4V610.2c-0.1-13-7.1-25-18.4-31.4zM602 795.6l-1-164.4 143.6-80.7L887.3 631l-143.1 82.3-0.2 162.3-142-80z" p-id="4492" fill="#4169E1"></path></svg>