<?xml version="1.0" standalone="no"?><!DOCTYPE svg PUBLIC "-//W3C//DTD SVG 1.1//EN" "http://www.w3.org/Graphics/SVG/1.1/DTD/svg11.dtd"><svg t="1647676495943" class="icon" viewBox="0 0 1024 1024" version="1.1" xmlns="http://www.w3.org/2000/svg" p-id="11603" xmlns:xlink="http://www.w3.org/1999/xlink" width="200" height="200"><defs><style type="text/css">@font-face { font-family: feedback-iconfont; src: url("//at.alicdn.com/t/font_1031158_u69w8yhxdu.woff2?t=1630033759944") format("woff2"), url("//at.alicdn.com/t/font_1031158_u69w8yhxdu.woff?t=1630033759944") format("woff"), url("//at.alicdn.com/t/font_1031158_u69w8yhxdu.ttf?t=1630033759944") format("truetype"); }
</style></defs><path d="M156.8 237.2c-25.5 33-46.5 69.7-62.1 109 21-15.5 46.1-32.2 75.1-48.5-4.5-24.4-9.1-44.9-13-60.5zM154.9 781.5c6.2-22.9 11.3-45.6 15.7-68-31.4-17.3-58.4-35.1-80.7-51.4 15.6 43.3 37.6 83.5 65 119.4zM477.3 208.1V63.9c-113 8.6-214.5 59.3-288.6 136.4 4.2 14.4 11.5 41.2 18.7 77.7 71.9-35.2 162.8-64.6 269.9-69.9zM176.7 340c-46.2 27.3-80.9 55-102.9 74.7-4.3 19.4-7.3 39.4-8.9 59.6h123.8c-1.6-50.1-6.3-95.5-12-134.3zM834.3 200.4C754.1 116.8 641.8 64.3 517.4 62.6v144.7c119.5 1 220 32.5 298.2 70.7 7.3-36.4 14.5-63.2 18.7-77.6zM866.2 237.3c-3.9 15.7-8.5 36.1-12.9 60.5 28.9 16.3 53.9 32.9 74.9 48.4-15.6-39.3-36.6-75.9-62-108.9zM957.9 474.3c-1.6-20.3-4.6-40.2-8.9-59.6-22.1-19.7-56.7-47.3-102.8-74.6-5.7 38.8-10.3 84.2-12 134.2h123.7zM186.2 818.3c77 81.3 184.1 133.9 303.3 139.7l1.6-155.4c-112.2-3.4-207.8-33.6-283.3-69.9-5.8 28.1-12.9 56.8-21.6 85.6zM868 781.3c27.2-35.8 49.2-75.7 64.8-118.7a747.06 747.06 0 0 1-80.2 51.5c4.2 22.2 9.4 44.6 15.4 67.2zM63.5 514.5c0.2 28 3.1 55.4 8.3 82 22.8 19.7 58.6 47.6 106 74.9 8.2-54.9 11.5-107.7 11.6-156.9H63.5zM833.7 514.5c0.1 49.4 3.4 102.4 11.7 157.5 45-26.2 80.5-53.5 105.7-75.5 5.2-26.6 8-54 8.3-82H833.7zM550.7 801.8c-6.5 0.4-13 0.6-19.4 0.8l-1.6 155.5c120.7-4.9 229.3-57.7 307.1-140-8.6-28.6-15.7-56.9-21.4-84.8-71.7 34.5-160.5 62.7-264.7 68.5zM766.5 506.5S653.2 359.9 513.4 359.9 260.3 506.5 260.3 506.5s113.3 146.6 253.1 146.6 253.1-146.6 253.1-146.6z m-253.1 66.3c-35.5 0-64.3-28.8-64.3-64.3s28.8-64.3 64.3-64.3 64.3 28.8 64.3 64.3-28.8 64.3-64.3 64.3z" p-id="11604" fill="#4169E1"></path></svg>