<?xml version="1.0" standalone="no"?><!DOCTYPE svg PUBLIC "-//W3C//DTD SVG 1.1//EN" "http://www.w3.org/Graphics/SVG/1.1/DTD/svg11.dtd"><svg t="1647676475511" class="icon" viewBox="0 0 1024 1024" version="1.1" xmlns="http://www.w3.org/2000/svg" p-id="11365" xmlns:xlink="http://www.w3.org/1999/xlink" width="200" height="200"><defs><style type="text/css">@font-face { font-family: feedback-iconfont; src: url("//at.alicdn.com/t/font_1031158_u69w8yhxdu.woff2?t=1630033759944") format("woff2"), url("//at.alicdn.com/t/font_1031158_u69w8yhxdu.woff?t=1630033759944") format("woff"), url("//at.alicdn.com/t/font_1031158_u69w8yhxdu.ttf?t=1630033759944") format("truetype"); }
</style></defs><path d="M798.549333 910.336H377.514667l-154.794667-154.794667A124.416 124.416 0 0 1 340.138667 546.133333V363.008a121.514667 121.514667 0 0 1 242.858666 0v104.789333h215.552z m-385.536-85.333333h300.202667V553.130667H497.834667V363.008a36.181333 36.181333 0 0 0-72.192 0v357.034667l-88.405334-81.237334a39.082667 39.082667 0 0 0-53.930666 56.32z" fill="#4169E1" p-id="11366"></path><path d="M457.216 72.021333a211.968 211.968 0 0 0-126.634667 382.293334v-70.826667A160.938667 160.938667 0 1 1 590.165333 375.466667v74.581333a212.138667 212.138667 0 0 0-132.949333-378.026667z" fill="#4169E1" p-id="11367"></path></svg>