<?xml version="1.0" standalone="no"?><!DOCTYPE svg PUBLIC "-//W3C//DTD SVG 1.1//EN" "http://www.w3.org/Graphics/SVG/1.1/DTD/svg11.dtd"><svg t="1647676052258" class="icon" viewBox="0 0 1024 1024" version="1.1" xmlns="http://www.w3.org/2000/svg" p-id="1277" xmlns:xlink="http://www.w3.org/1999/xlink" width="200" height="200"><defs><style type="text/css">@font-face { font-family: feedback-iconfont; src: url("//at.alicdn.com/t/font_1031158_u69w8yhxdu.woff2?t=1630033759944") format("woff2"), url("//at.alicdn.com/t/font_1031158_u69w8yhxdu.woff?t=1630033759944") format("woff"), url("//at.alicdn.com/t/font_1031158_u69w8yhxdu.ttf?t=1630033759944") format("truetype"); }
</style></defs><path d="M255.488 413.696c17.92 0 32.256-14.336 32.256-32.256s-14.336-32.256-32.256-32.256c-51.712 0-93.696-41.984-93.696-93.696s41.984-93.696 93.696-93.696 93.696 41.984 93.696 93.696c0 17.92 14.336 32.256 32.256 32.256s32.256-14.336 32.256-32.256C413.696 168.448 343.04 97.28 255.488 97.28S97.28 168.448 97.28 255.488s71.168 158.208 158.208 158.208zM642.56 287.744c17.92 0 32.256-14.336 32.256-32.256 0-51.712 41.984-93.696 93.696-93.696s93.696 41.984 93.696 93.696-41.984 93.696-93.696 93.696c-17.92 0-32.256 14.336-32.256 32.256s14.336 32.256 32.256 32.256c87.04 0 158.208-70.656 158.208-158.208S855.552 97.28 768.512 97.28s-158.208 70.656-158.208 158.208c0 17.92 14.336 32.256 32.256 32.256zM381.44 736.256c-17.92 0-32.256 14.336-32.256 32.256 0 51.712-41.984 93.696-93.696 93.696s-93.696-41.984-93.696-93.696 41.984-93.696 93.696-93.696c17.92 0 32.256-14.336 32.256-32.256s-14.336-32.256-32.256-32.256c-87.04 0-158.208 70.656-158.208 158.208 0 87.04 70.656 158.208 158.208 158.208s158.208-70.656 158.208-158.208c0-17.92-14.336-32.256-32.256-32.256zM768.512 610.304c-17.92 0-32.256 14.336-32.256 32.256s14.336 32.256 32.256 32.256c51.712 0 93.696 41.984 93.696 93.696s-41.984 93.696-93.696 93.696-93.696-41.984-93.696-93.696c0-17.92-14.336-32.256-32.256-32.256s-32.256 14.336-32.256 32.256c0 87.04 70.656 158.208 158.208 158.208 87.04 0 158.208-70.656 158.208-158.208 0-87.04-71.168-158.208-158.208-158.208z" fill="#4169E1" p-id="1278"></path><path d="M745.984 791.04c6.144 6.144 14.336 9.216 22.528 9.216s16.384-3.072 22.528-9.216c12.288-12.288 12.288-32.768 0-45.056l-96.256-96.256c-36.864-36.864-56.832-85.504-56.832-137.728s20.48-100.864 56.832-137.728l96.256-96.256c12.288-12.288 12.288-32.768 0-45.056-12.288-12.288-32.768-12.288-45.056 0l-96.256 96.256c-36.864 36.864-85.504 56.832-137.728 56.832h-0.512c-52.224 0-100.864-20.48-137.728-57.344L278.016 232.96c-12.288-12.288-32.768-12.288-45.056 0-12.288 12.288-12.288 32.768 0 45.056l96.256 96.256c36.864 36.864 56.832 85.504 56.832 137.728 0 49.664-18.432 96.256-52.224 132.608-2.048 1.536-3.584 3.584-5.632 5.12-1.024 1.024-2.048 2.048-3.072 3.584l-92.672 92.672c-12.288 12.288-12.288 32.768 0 45.056 6.144 6.144 14.336 9.216 22.528 9.216s16.384-3.072 22.528-9.216L373.76 694.784c1.536-1.536 3.072-3.584 4.608-5.12 76.288-70.656 196.096-69.12 270.336 5.12l97.28 96.256z m-234.496-217.088c-24.576 0-48.64 3.584-71.68 10.24 13.312-47.104 13.312-97.28 0-143.872 23.04 6.656 47.104 10.24 71.68 10.24h0.512c24.576 0 49.152-3.584 72.192-10.24-13.824 47.104-13.824 97.28 0 144.384-23.04-7.168-47.616-10.752-72.704-10.752z" fill="#4169E1" p-id="1279"></path></svg>