<?xml version="1.0" standalone="no"?><!DOCTYPE svg PUBLIC "-//W3C//DTD SVG 1.1//EN" "http://www.w3.org/Graphics/SVG/1.1/DTD/svg11.dtd"><svg t="1647676136733" class="icon" viewBox="0 0 1024 1024" version="1.1" xmlns="http://www.w3.org/2000/svg" p-id="2627" xmlns:xlink="http://www.w3.org/1999/xlink" width="200" height="200"><defs><style type="text/css">@font-face { font-family: feedback-iconfont; src: url("//at.alicdn.com/t/font_1031158_u69w8yhxdu.woff2?t=1630033759944") format("woff2"), url("//at.alicdn.com/t/font_1031158_u69w8yhxdu.woff?t=1630033759944") format("woff"), url("//at.alicdn.com/t/font_1031158_u69w8yhxdu.ttf?t=1630033759944") format("truetype"); }
</style></defs><path d="M480.711111 284.444444h56.888889v455.111112h-56.888889zM366.933333 341.333333h56.888889v341.333334h-56.888889zM594.488889 341.333333h56.888889v341.333334h-56.888889zM253.155556 398.222222h56.888888v227.555556h-56.888888zM708.266667 398.222222h56.888889v227.555556h-56.888889z" p-id="2628" fill="#4169E1"></path><path d="M1006.933333 512c0-267.377778-216.177778-483.555556-483.555555-483.555556v56.888889c236.088889 0 426.666667 190.577778 426.666666 426.666667 0 193.422222-125.155556 358.4-310.044444 409.6l-5.688889-39.822222-110.933333 85.333333 130.844444 54.044445-5.688889-42.666667c210.488889-56.888889 358.4-244.622222 358.4-466.488889zM68.266667 512c0-193.422222 125.155556-358.4 310.044444-409.6l2.844445 39.822222 110.933333-85.333333L361.244444 2.844444l8.533334 42.666667C156.444444 102.4 11.377778 290.133333 11.377778 512c0 267.377778 216.177778 483.555556 483.555555 483.555556v-56.888889c-236.088889 0-426.666667-190.577778-426.666666-426.666667z" p-id="2629" fill="#4169E1"></path></svg>