<?xml version="1.0" standalone="no"?><!DOCTYPE svg PUBLIC "-//W3C//DTD SVG 1.1//EN" "http://www.w3.org/Graphics/SVG/1.1/DTD/svg11.dtd"><svg class="icon" width="48px" height="41.94px" viewBox="0 0 1172 1024" version="1.1" xmlns="http://www.w3.org/2000/svg"><path d="M918.6 982.5c-140.3 0-254.1-113.8-254.1-254.1s113.8-254.1 254.1-254.1 254.1 113.8 254.1 254.1-113.8 254.1-254.1 254.1z" fill="#4169E1" /><path d="M684.1 513.4c-11.3 0-22-4.9-29.4-13.3L517.8 343.7l58.8-51.5L684.1 415l107.4-122.7 58.8 51.5-136.8 156.3c-7.5 8.5-18.2 13.3-29.4 13.3z" fill="#27282A" /><path d="M1004.6 943.4H412.4c-21.6 0-39.1-17.5-39.1-39.1 0-18.9-10.6-35.6-27.8-43.5-25.2-11.7-55.4-1.4-67.2 23.1-2.8 5.8-4.3 12.7-4.3 20.4 0 21.6-17.5 39.1-39.1 39.1H129c-71.1 0-129-57.2-129-127.4V210.9c0-70.3 57.9-127.4 129-127.4h105.9c21.6 0 39.1 17.5 39.1 39.1 0 18.9 10.6 35.6 27.8 43.5 25.2 11.7 55.4 1.4 67.2-23.1 2.8-5.8 4.3-12.7 4.3-20.4 0-21.6 17.5-39.1 39.1-39.1h592.2c71.1 0 129 57.2 129 127.4V816c0 70.3-57.9 127.4-129 127.4z m-559.3-78.2h559.3c28 0 50.8-22.1 50.8-49.3v-605c0-27.2-22.8-49.3-50.8-49.3H445.5c-1.7 5.3-3.8 10.5-6.2 15.5-14.8 30.4-40.7 53.4-72.9 64.6-32.1 11.2-66.8 9.6-97.6-4.8-22.3-10.3-41-26.8-53.9-47.5-5.5-8.8-9.8-18.1-13-27.8h-73c-28 0-50.8 22.1-50.8 49.3V816c0 27.2 22.8 49.3 50.8 49.3h72.8c1.7-5.3 3.8-10.5 6.2-15.5 14.8-30.4 40.7-53.4 72.9-64.6 32.1-11.2 66.8-9.6 97.6 4.8 22.3 10.3 41 26.8 53.9 47.5 5.5 8.7 9.9 18 13 27.7z" fill="#27282A" /><path d="M273.6 318h78.2v390.9h-78.2zM645 474.4h78.2V748h-78.2z" fill="#27282A" /><path d="M508.1 572.1h351.8v78.2H508.1zM508.1 415.7h351.8v78.2H508.1z" fill="#27282A" /></svg>