<?xml version="1.0" standalone="no"?><!DOCTYPE svg PUBLIC "-//W3C//DTD SVG 1.1//EN" "http://www.w3.org/Graphics/SVG/1.1/DTD/svg11.dtd"><svg class="icon" width="48px" height="48.00px" viewBox="0 0 1024 1024" version="1.1" xmlns="http://www.w3.org/2000/svg"><path d="M781.36 313.29h-51.49c-11.73-0.01-21.23-9.53-21.22-21.26v-46.36c-0.01-11.73 9.49-21.25 21.22-21.26h51.49c11.73 0.01 21.22 9.53 21.21 21.26v46.36c0.02 11.73-9.48 21.25-21.21 21.26zM294.14 799.61h-51.5c-11.73-0.01-21.22-9.53-21.21-21.26v-46.36c-0.01-11.73 9.48-21.24 21.21-21.26h51.49c11.73 0.01 21.23 9.53 21.21 21.26v46.36c0.02 11.73-9.48 21.25-21.2 21.26zM143.85 625.32a5.03 5.03 0 0 0-5.01 5.03v249.63c0 2.77 2.24 5.01 5.01 5.02h249.08c2.77 0 5.01-2.25 5.01-5.02V630.35a5.03 5.03 0 0 0-5.01-5.03H143.85zM392.94 960H143.85C99.73 959.9 64 924.11 64 879.98V630.35c0-44.13 35.72-79.93 79.85-80.03h249.09c44.13 0.1 79.84 35.9 79.84 80.03v249.63c0 44.12-35.72 79.92-79.84 80.02z m-98.8-646.71h-51.49c-11.73-0.01-21.22-9.53-21.21-21.26v-46.36c-0.01-11.73 9.48-21.24 21.21-21.26h51.49c11.73 0.01 21.22 9.53 21.21 21.26v46.36c0.01 11.73-9.49 21.25-21.21 21.26z m336.92-174.28a5.021 5.021 0 0 0-5.01 5.02v249.62c0 2.77 2.24 5.01 5.01 5.02h249.09a5.021 5.021 0 0 0 5.01-5.02V144.02c0-2.77-2.24-5.01-5.01-5.02H631.06v0.01z m249.09 334.66H631.06c-44.12-0.1-79.84-35.89-79.84-80.02V144.03c0-44.13 35.72-79.93 79.84-80.03h249.09c44.13 0.1 79.85 35.9 79.85 80.02v249.64c0 44.11-35.71 79.91-79.84 80.01h-0.01z m-736.3-334.66a5.021 5.021 0 0 0-5.01 5.02v249.62c0 2.77 2.24 5.01 5.01 5.02h249.08a5.021 5.021 0 0 0 5.01-5.02V144.02c0-2.77-2.24-5.01-5.01-5.02H143.85v0.01z m249.09 334.66H143.85C99.72 473.58 64 437.78 64 393.66V144.02C64 99.89 99.72 64.09 143.85 64h249.08c44.13 0.1 79.84 35.9 79.84 80.03v249.63c0.01 44.12-35.71 79.91-79.83 80.01z" fill="#2c2c2c" /><path d="M754.47 958.69c-20.69-0.02-37.44-16.82-37.41-37.51V815.3c0-20.67 16.75-37.42 37.42-37.42s37.42 16.75 37.42 37.42v105.88c0.01 20.69-16.74 37.49-37.43 37.51z m0.49-211.78c-20.69-0.02-37.45-16.82-37.42-37.51V587.33c0-20.67 16.75-37.42 37.42-37.42s37.42 16.75 37.42 37.42v122.1c0.01 20.68-16.74 37.46-37.42 37.48z m163.89 211.78c-20.69-0.02-37.45-16.82-37.42-37.51V744.71c0-20.67 16.75-37.42 37.42-37.42s37.42 16.75 37.42 37.42v176.48c0.02 20.68-16.73 37.48-37.42 37.5z m0.47-282.38c-20.69-0.02-37.45-16.81-37.42-37.51v-51.48c0-20.67 16.75-37.42 37.42-37.42s37.42 16.75 37.42 37.42v51.48c0.02 20.69-16.73 37.49-37.42 37.51zM589.13 958.69c-20.69-0.02-37.45-16.82-37.42-37.51V744.71c0-20.67 16.75-37.42 37.42-37.42s37.42 16.75 37.42 37.42v176.48c0.02 20.68-16.73 37.48-37.42 37.5z m0.49-282.38c-20.69-0.02-37.45-16.81-37.42-37.51v-51.48s16.75-37.42 37.42-37.42 37.42 16.75 37.42 37.42v51.48c0.03 20.69-16.73 37.49-37.42 37.51z" fill="#4169E1" /></svg>