<?xml version="1.0" standalone="no"?><!DOCTYPE svg PUBLIC "-//W3C//DTD SVG 1.1//EN" "http://www.w3.org/Graphics/SVG/1.1/DTD/svg11.dtd"><svg class="icon" width="48px" height="48.00px" viewBox="0 0 1024 1024" version="1.1" xmlns="http://www.w3.org/2000/svg"><path d="M550.3 552.2m-327.7 0a327.7 327.7 0 1 0 655.4 0 327.7 327.7 0 1 0-655.4 0Z" fill="#4169E1" /><path d="M507.1 904.9c-53.4 0-105.3-10.5-154.1-31.1-47.2-19.9-89.5-48.5-125.8-84.8-36.4-36.4-64.9-78.7-84.8-125.8-20.7-48.8-31.1-100.7-31.1-154.1s10.5-105.3 31.1-154.1c19.9-47.2 48.5-89.5 84.8-125.8 36.4-36.4 78.7-64.9 125.8-84.8 48.8-20.7 100.7-31.1 154.1-31.1s105.3 10.5 154.1 31.1c47.2 19.9 89.5 48.5 125.8 84.8 36.4 36.4 64.9 78.7 84.8 125.8 20.7 48.8 31.1 100.7 31.1 154.1s-10.5 105.3-31.1 154.1c-19.9 47.2-48.5 89.5-84.8 125.8-36.4 36.4-78.7 64.9-125.8 84.8-48.9 20.6-100.7 31.1-154.1 31.1z m0-741.9c-190.8 0-345.9 155.2-345.9 345.9s155.2 345.9 345.9 345.9S853 699.7 853 508.9 697.8 163 507.1 163z" fill="#2c2c2c" /><path d="M482.2 658.5l-104.1-71.3" fill="#2c2c2c" /><path d="M364.035 607.865l28.25-41.255 104.128 71.303-28.25 41.255z" fill="#2c2c2c" /><path d="M403.1 615h-75.7c-32.7 0-59.4-26.6-59.4-59.4V451.4c0-32.7 26.6-59.4 59.4-59.4h75.7v223z m-75.7-172.9c-5.1 0-9.4 4.3-9.4 9.4v104.3c0 5.1 4.3 9.4 9.4 9.4h25.7v-123h-25.7zM502.9 691.3c-13.1 0-25.8-4.6-35.9-12.9l-19.7-13.5 28.3-41.2 21.9 15 1.1 1c0.9 0.7 2.3 1.6 4.3 1.6 3.6 0 6.6-3 6.6-6.6V369.6c0-3.5-2.9-6.5-6.4-6.6-0.7 0.1-3.1 1-6.7 3.5l-29.1-40.7c11.9-8.5 23.9-12.9 35.7-12.9 31.2 0 56.6 25.4 56.6 56.6v265.2c-0.1 31.2-25.5 56.6-56.7 56.6z" fill="#2c2c2c" /><path d="M378.1 417.1l104.1-71.3" fill="#2c2c2c" /><path d="M364.007 396.384l104.128-71.303 28.25 41.255-104.128 71.303zM616.4 438.3c-9.8 0-19.1-5.8-23.1-15.4-5.3-12.7 0.7-27.4 13.5-32.7l76.3-31.8c12.7-5.3 27.4 0.7 32.7 13.5 5.3 12.7-0.7 27.4-13.5 32.7L626 436.3c-3.1 1.3-6.4 2-9.6 2z" fill="#2c2c2c" /><path d="M692.7 525.6h-76.3c-13.8 0-25-11.2-25-25s11.2-25 25-25h76.3c13.8 0 25 11.2 25 25s-11.2 25-25 25z" fill="#2c2c2c" /><path d="M692.7 645.7c-3.2 0-6.5-0.6-9.6-1.9L606.8 612c-12.7-5.3-18.8-20-13.5-32.7 5.3-12.7 20-18.8 32.7-13.5l76.3 31.8c12.7 5.3 18.8 20 13.5 32.7-4 9.6-13.3 15.4-23.1 15.4z" fill="#2c2c2c" /></svg>