<?xml version="1.0" standalone="no"?><!DOCTYPE svg PUBLIC "-//W3C//DTD SVG 1.1//EN" "http://www.w3.org/Graphics/SVG/1.1/DTD/svg11.dtd"><svg class="icon" width="48px" height="48.00px" viewBox="0 0 1024 1024" version="1.1" xmlns="http://www.w3.org/2000/svg"><path d="M661.1 818H449.9c-61.3 0-111.5-50.2-111.5-111.5v-244c0-61.3 50.2-111.5 111.5-111.5h211.2c61.3 0 111.5 50.2 111.5 111.5v244c0 61.3-50.2 111.5-111.5 111.5z" fill="#4169E1" /><path d="M516.1 536.9l-221.8-96.5c-20.5-11.2-29.5-24.9-29.5-39.2 0-12.9 9.6-29.5 29.5-37.1l221.8-96.5c13.4-5.7 40.5-13 76.3 0L802.2 364s37.3 12.4 37.3 38.3c0 21.6-37.3 35.9-37.3 35.9l-209.8 98.7c-28.4 12.4-49.6 11.6-76.3 0z" fill="#4169E1" /><path d="M515.3 568.6c-18.7 0-37.4-4.5-58-13.5L176.8 433l-1-0.5c-41.5-22.7-50.2-51.3-50.2-71.3 0-24.7 16.3-55.8 52.8-69.9l279.1-121.5c19.9-8.5 61.3-19.8 114.4-0.5l1 0.4L837.1 291c4.3 1.5 16.1 6.2 28.2 14.4 28.5 19.3 34.5 41.7 34.5 57 0 13.8-6 34.4-34.5 53.6-12.1 8.2-23.9 13.2-27.5 14.6l-264 124.2-0.3 0.1c-20.8 9.2-39.5 13.7-58.2 13.7zM198.9 388.1l278.4 121.2c28.3 12.4 47.5 12.4 75.8 0.1L818 384.8l0.9-0.3c15.2-5.9 29.9-17.2 31-22.1-0.1-10.4-21.1-21.5-29.9-24.4l-1.3-0.4-264.8-121.7c-36.5-13-63.7-5.7-76.8-0.2L197.2 337.5l-0.6 0.2c-15.4 5.8-21.1 17.4-21.1 23.4 0.1 11.4 12.5 20.9 23.4 27z m650.8-25.8z" fill="#2c2c2c" /><path d="M597.5 862.7H428.6c-49.5 0-92.7-13.1-124.9-38-36.2-27.9-55.3-68.2-55.3-116.5V545.1c0-13.8 11.2-25 25-25s25 11.2 25 25v163.1c0 77.1 67.2 104.5 130.2 104.5h168.8c62.9 0 130.2-27.5 130.2-104.5V545.1c0-13.8 11.2-25 25-25s25 11.2 25 25v163.1c0 48.3-19.1 88.6-55.3 116.5-32.2 24.9-75.3 38-124.8 38zM875.2 556.4c-13.8 0-25-11.2-25-25v-156c0-13.8 11.2-25 25-25s25 11.2 25 25v156c0 13.8-11.2 25-25 25z" fill="#2c2c2c" /></svg>