<?xml version="1.0" standalone="no"?><!DOCTYPE svg PUBLIC "-//W3C//DTD SVG 1.1//EN" "http://www.w3.org/Graphics/SVG/1.1/DTD/svg11.dtd"><svg class="icon" width="48px" height="48.00px" viewBox="0 0 1024 1024" version="1.1" xmlns="http://www.w3.org/2000/svg"><path d="M213.438022 489.08507c0-67.393111-0.159021-134.818027 0.063609-202.211138 0.095413-28.051309 4.897848-55.371122 15.933906-81.291549 8.428114-19.782216 21.785881-21.817685 33.585241-3.911917 10.654409 16.188341 22.040314 24.043979 41.854335 16.697208 7.760226-2.862378 17.110662-1.844644 25.729602-1.844644 121.205827-0.095413 242.443457-0.063608 363.649284-0.063608 4.325372 0 8.873373-0.826909 12.944311 0.222629 24.552847 6.20182 45.416405 6.488058 59.314843-21.117992 5.82017-11.576731 20.259279-6.933317 26.906358 7.060533 11.862969 24.966301 17.237879 51.777246 17.365096 79.001646 0.667888 139.779483 1.081343 279.527161 0.349847 419.306644-0.286238 57.661024-44.939342 103.363667-104.349598 104.095164-129.85657 1.59021-259.744945 1.685623-389.601516-0.095413-62.145417-0.858714-103.840731-47.706308-104.413206-111.728173-0.60428-68.029195-0.127217-136.058391-0.127217-204.087586 0.286238-0.031804 0.540671-0.031804 0.795105-0.031804z" fill="#123450" /><path d="M236.050812 709.806255c28.178526-4.579806 42.172376-17.492313 48.02435-43.603565 3.116812-13.930242 2.385315-25.697798-13.039724-32.122248-9.064199-3.7847-11.831164-11.703948-12.435444-20.990775-3.180421-48.851259-2.258099-97.511694 7.346771-145.695065 7.442184-37.43355 43.126502-59.283039 79.86036-47.388266 46.783986 15.170606 93.027301 32.058639 139.366028 48.62863 6.233624 2.226294 11.862969 6.488058 17.428704 10.304563 5.59754 3.816505 11.067863 5.59754 17.047054 1.335776 27.669659-19.686803 61.159487-25.252539 91.850545-37.528962 21.658664-8.650744 43.953412-15.902103 66.279964-22.740007 37.21092-11.385906 72.481784 8.777961 80.432836 46.561357 10.113737 48.056154 10.718017 96.812001 7.601205 145.631456-0.477063 7.314967-1.20856 14.947977-8.714352 19.336957-11.41771 6.742492-22.072119 13.071528-17.587726 30.118582 5.056869 19.177936 11.290493 35.906948 31.772401 44.335063 7.092338 2.925987 16.124732-0.667888 21.372426 6.965121-18.923502 39.532627-51.172966 60.300773-94.108643 60.682423-124.195422 1.081343-248.390844 0.636084-372.554462 0.22263-32.980961-0.127217-59.028605-16.251949-80.878094-39.532627-6.042799-6.424449-12.40364-14.025655-9.064199-24.521043z" fill="#FBDBCB" /><path d="M247.722956 207.776874c39.659844 52.41333 84.24934 96.621176 136.28102 133.132403 23.853154 16.729012 49.23291 30.659254 74.898903 44.366867 37.401746 20.004845 73.022456 17.365096 110.328789-1.81284 78.938038-40.550362 145.186197-95.762462 199.50778-165.604497 2.258099-2.894183 4.707022-5.629344 8.205485-9.795696 15.297823 26.651924 17.969376 55.180296 18.160201 83.136193 0.954126 129.220486 0.38165 258.472777 0.763301 387.725068 0.063608 15.552256-6.965121 16.347362-18.541852 12.085598-21.340622-7.855639-25.888623-33.044569-8.459918-47.801721 6.965121-5.883778 11.41771-13.198745 12.340031-22.072118 5.565736-54.4488 3.911917-108.770382-8.364506-162.137839-9.795695-42.681244-54.003541-68.728888-96.303134-55.339318-53.367457 16.919837-107.116564 33.235395-157.812467 57.565612-5.184085 2.480728-8.300898 2.162686-13.325962-0.222629-51.363792-24.457434-105.685374-41.122838-159.720719-58.010871-41.727117-13.039724-85.744138 15.456844-94.681119 58.138088-11.099668 52.922198-14.439109 106.353263-7.601205 160.229586 1.431189 11.354101 7.155946 19.909433 16.888033 25.125322 16.729012 8.968786 6.233624 19.941237 2.289902 29.800541-4.929652 12.276423-15.393235 17.61953-28.273938 16.379166-6.551666-0.636084-5.470323-7.18775-5.470323-12.02199 0.127217-132.941578-0.190825-265.914961 0.826909-398.85654 0.190825-24.330217 3.880113-49.105693 18.064789-74.008385z" fill="#49B570" /><path d="M511.793273 233.124825c62.431655 0 124.895114-0.031804 187.326769 0.031804 6.170016 0 12.371836 0.286238 18.510048 0.954127 3.975526 0.445259 9.922912-1.20856 10.749821 4.325372 0.413455 2.639749-3.212225 6.265428-5.629344 8.905177-36.60664 39.818865-77.793086 74.231015-124.513464 101.550828-80.210206 46.879399-94.553903 46.720378-174.509675-1.303973-43.667174-26.238469-82.881759-58.201696-117.643756-95.476224-3.975526-4.261764-12.02199-8.046464-9.541261-14.375501 2.480728-6.360841 10.972451-3.244029 16.824424-4.134547 4.834239-0.731497 9.859304-0.445259 14.788956-0.445259 61.223095-0.031804 122.414386-0.031804 183.637482-0.031804z" fill="#99D0AF" /><path d="M236.050812 709.806255c18.160201 37.179116 48.978476 57.85185 89.2426 58.328913 121.68289 1.431189 243.429388 0 365.144082 0.826909 40.772991 0.286238 70.764357-17.078858 94.649315-48.278784 2.162686-2.830574 5.056869-5.120477 7.601205-7.664813-3.7847 36.702053-34.539367 68.633475-71.62307 74.199211-5.470323 0.826909-11.067863 1.367581-16.601795 1.367581-129.538528-0.063608-259.077057 0.095413-388.615586-0.540672-38.514893-0.190825-72.290959-26.524707-82.372891-62.717893-1.176756-4.166351-10.336367-12.62627 2.57614-15.520452z" fill="#EFC0AC" /><path d="M402.927478 525.119235c0.095413 17.778551-14.59813 32.503898-32.726528 32.790135-18.955306 0.286238-34.380346-14.884368-33.935087-33.394415 0.445259-17.746747 15.584061-32.154052 33.617045-32.026835 18.00118 0.159021 32.949157 14.884368 33.04457 32.631115z" fill="#163651" /><path d="M684.935367 524.355934c0.508867 17.937572-13.739417 32.980961-31.83601 33.553436-18.987111 0.60428-34.825605-14.248284-34.825605-32.631114 0-17.587726 15.043389-32.535702 33.012765-32.790136 18.160201-0.254434 33.139982 13.962046 33.64885 31.867814z" fill="#173652" /><path d="M513.542504 686.716402c10.368171-1.844644 19.273348 5.59754 29.705128 6.488058 7.219555 0.60428 5.82017 7.378576 6.074603 11.513122 0.477063 7.18775-6.456254 5.152281-9.350436 4.261764-17.905768-5.629344-35.461689-7.028729-53.399261 0.031804-3.085008 1.20856-9.064199 2.099078-9.414045-4.897848-0.222629-4.61161 0.667888-9.477653 5.470323-10.431779 10.240954-2.003665 19.527782-7.887443 30.913688-6.965121z" fill="#1C3853" /><path d="M368.038264 508.676461c12.562661 0.38165 18.160201 6.8061 18.22381 16.251948 0.095413 10.399975-6.074603 17.269684-17.237879 17.078859-10.240954-0.190825-16.061124-6.837904-16.188341-16.315558-0.095413-10.495388 6.010995-16.888033 15.20241-17.015249z" fill="#F7F8F9" /><path d="M668.874243 525.69171c-2.067273 10.5908-7.664813 17.142467-18.700873 16.220145-10.081933-0.858714-15.456844-7.696618-14.947976-17.333292 0.540671-10.686213 7.060534-16.474578 18.255614-15.679473 10.463584 0.763301 14.184676 7.823835 15.393235 16.79262z" fill="#FBFBFC" /></svg>