<?xml version="1.0" standalone="no"?><!DOCTYPE svg PUBLIC "-//W3C//DTD SVG 1.1//EN" "http://www.w3.org/Graphics/SVG/1.1/DTD/svg11.dtd"><svg class="icon" width="48px" height="38.25px" viewBox="0 0 1285 1024" version="1.1" xmlns="http://www.w3.org/2000/svg"><path d="M1.121753 802.053208a641.322066 220.825039 0 1 0 1282.644131 0 641.322066 220.825039 0 1 0-1282.644131 0Z" fill="#51150B" /><path d="M752.696088 818.078247c-208.96651-103.842254-271.464163-266.816901-211.530517-396.299217 58.491393-126.277308 205.280751-157.846635 393.25446-29.806573 251.112363 171.147418 344.05759 398.222222 323.866041 451.585602-20.3518 54.164632-253.355869 99.835994-505.589984-25.479812z" fill="#F4973B" /><path d="M796.123944 782.50266c193.422222 99.835994 374.665415 98.073239 458.155868 68.747418 1.762754-2.403756 3.205008-4.967762 4.16651-7.371518 20.191549-53.36338-72.593427-280.438185-323.86604-451.585602-144.866354-98.874491-266.33615-102.56025-341.653834-39.261346-3.685759 6.249765-7.051017 12.820031-10.256025 19.710798-61.055399 132.046322 2.083255 300.629734 213.453521 409.76025z" fill="#FFB761" /><path d="M1258.286072 843.71831c20.191549-53.36338-72.593427-280.438185-323.866041-451.585603-115.861033-79.003443-217.13928-97.271987-291.976213-68.426917-58.651643 142.783099 9.454773 326.910798 225.1518 449.021597 102.880751 58.331142 201.434742 86.374961 283.002191 95.829734 41.985603-1.602504 77.400939-8.01252 103.682003-17.307043 1.762754-2.564006 3.044757-4.967762 4.00626-7.531768z" fill="#FFCB6E" /><path d="M1121.432238 603.022222c-3.205008 9.935524-65.38216-31.088576-159.128639-73.074178-97.912989-43.908607-189.095462-83.810955-184.928951-94.22723 4.16651-10.416275 42.306103-2.083255 141.821596 43.267605 95.188732 43.427856 205.441002 114.098279 202.235994 124.033803z" fill="#FFFFFF" /><path d="M745.004069 314.892019s187.973709 53.683881 197.107981 86.695461c9.134272 33.011581-143.904851 434.11831-261.528638 374.665415-100.957746-50.959624 64.420657-461.360876 64.420657-461.360876z" fill="#C4712D" /><path d="M76.599687 548.056338c211.690767 154.801878 563.440376 61.3759 694.044444-27.402817 39.581847-26.922066 89.099218-70.029421 135.09108-117.463537C969.034116 227.876056 967.111111 68.747418 927.849765 29.646322c-67.625665-67.305164-436.201565-33.492332-741.799061 270.983412C113.777778 372.58216 69.869171 445.175587 49.677621 514.564006c5.608764 13.140532 14.422535 24.358059 26.922066 33.492332z" fill="#FFCB6E" /><path d="M797.405947 494.372457c-0.320501 0.320501-0.801252 0.480751-1.121753 0.801252-208.646009 136.052582-653.821596 123.0723-699.172457-5.448513-22.595305-64.260407 55.927387-151.276369 118.264789-217.459781-38.940845 13.461033-97.752739 80.926448-121.149296 108.008763C-32.530829 540.84507 3.205008 695.005947 126.91831 814.071987c147.43036 141.821596 374.505164 153.359624 596.131455-59.613145" fill="#824F11" /><path d="M723.049765 754.298592c112.816275-121.630047 168.262911-284.123944 187.653208-365.531143C967.912363 221.946792 965.989358 72.272926 929.452269 31.569327c-14.903286 135.09108-118.58529 672.090141-815.994992 768.881377 4.326761 4.647261 8.813772 9.134272 13.461033 13.461033 147.43036 141.821596 387.004695 165.698905 596.131455-59.613145z" fill="#FFB761" /><path d="M723.049765 754.298592c112.816275-121.630047 168.262911-284.123944 187.653208-365.531143 53.683881-156.564632 55.286385-297.745227 25.159312-348.38435 8.653521 148.872613-15.704538 671.76964-759.907355 813.911737 148.231612 103.682003 359.762128 101.758998 547.094835-99.996244z" fill="#F4973B" /><path d="M685.070423 52.882629c9.615023 11.217527-84.932707 55.446635-203.838498 136.853834-124.033803 85.092958-238.452582 165.057903-247.907355 152.237872-9.454773-12.659781 28.364319-52.081377 155.60313-137.975587C510.397496 121.950548 675.455399 41.665102 685.070423 52.882629z" fill="#FFFFFF" /><path d="M796.123944 489.244444c-208.646009 136.052582-664.077621 149.193114-709.268232 20.832551-22.595305-64.260407 13.140532-157.686385 128.520814-237.971831-38.940845 13.461033-84.612207 43.748357-127.07856 96.310485-125.476056 154.801878-85.253208 326.430047 38.460093 445.335838 147.43036 141.821596 387.004695 165.698905 596.131456-59.613146 114.098279-122.91205 169.705164-287.969953 188.45446-368.255399-12.820031 27.883568-77.400939 78.843192-115.220031 103.361502z" fill="#DA924A" /><path d="M777.534898 634.7518C608.630986 820.001252 323.54554 865.993114 124.674804 811.828482l2.083255 2.083255c147.43036 141.821596 387.004695 165.698905 596.131456-59.613145C798.046948 673.532394 847.72457 574.657903 878.172144 493.571205c-27.402817 48.716119-60.574648 97.432238-100.637246 141.180595z" fill="#C4712D" /><path d="M322.263537 756.221596c-50.959624 8.493271-140.860094 56.408138-55.446636 37.819093 85.413459-18.428795 171.94867-57.36964 55.446636-37.819093z m280.117684-66.984663c-32.530829 21.954304-189.576213 97.271987-72.112676 54.164632 117.303286-43.107355 282.361189-196.306729 72.112676-54.164632z m-422.420032 61.215649c-16.18529 6.890767-95.989984 27.723318-35.575586 17.307042s140.058842-61.696401 35.575586-17.307042z" fill="#C4712D" /><path d="M475.14241 862.948357c-18.268545 4.647261-124.835055 22.915806-56.728638 20.351799 68.266667-2.403756 174.512676-50.478873 56.728638-20.351799zM636.194053 799.168701c-11.538028 7.852269-80.605947 47.434116-34.293584 28.845071 46.312363-18.749296 108.489515-79.804695 34.293584-28.845071z" fill="#824F11" /></svg>