<?xml version="1.0" standalone="no"?><!DOCTYPE svg PUBLIC "-//W3C//DTD SVG 1.1//EN" "http://www.w3.org/Graphics/SVG/1.1/DTD/svg11.dtd"><svg class="icon" width="48px" height="48.00px" viewBox="0 0 1024 1024" version="1.1" xmlns="http://www.w3.org/2000/svg"><path d="M314.704611 875.979529s187.395621 150.19649 541.187353 147.996542c238.79442 0-280.29345-230.094623-280.29345-230.094623L314.704611 875.979529z" fill="#EEEEEE" /><path d="M259.005912 445.389592c9.999766-5.699867 20.09953-10.099764 30.099297-14.199669 9.999766-3.999907 20.09953-7.599822 30.099296-10.799747 9.999766-3.199925 20.09953-5.99986 30.099297-8.499802s20.09953-4.69989 30.099297-6.599845c40.199061-7.69982 80.398121-10.899745 120.597181-10.999743 40.199061 0 80.398121 3.199925 120.597182 10.899745 4.999883 0.899979 9.999766 1.999953 15.099647 3.099928 4.999883 1.099974 9.999766 2.299946 15.099647 3.499918 9.999766 2.499942 20.09953 5.299876 30.099297 8.499801s20.09953 6.799841 30.099297 10.899745c9.999766 4.099904 20.09953 8.599799 30.099296 14.299666-9.999766 5.699867-20.09953 10.199762-30.099296 14.299666-9.999766 4.099904-20.09953 7.69982-30.099297 10.899745s-20.09953 5.99986-30.099297 8.499802c-4.999883 1.29997-9.999766 2.399944-15.099647 3.499918-4.999883 0.999977-9.999766 2.099951-15.099647 3.099928-40.199061 7.69982-80.398121 10.899745-120.597182 10.899745-40.199061-0.099998-80.398121-3.399921-120.597181-10.999743-9.999766-1.899956-20.09953-4.099904-30.099297-6.599846s-20.09953-5.299876-30.099297-8.499801-20.09953-6.799841-30.099296-10.799748c-9.999766-4.2999-19.999533-8.699797-30.099297-14.399663z" fill="#62B93E" /><path d="M751.594401 242.294338L719.995139 623.48543l-4.899885 59.098619-9.899769 119.097216-4.299899 52.298778c-0.799981 9.599776-6.699843 17.999579-15.39964 22.099484-49.698839 23.599449-112.597369 37.899114-181.195766 38.4991h-8.399804c-68.598397-0.599986-131.496927-14.899652-181.195765-38.4991-8.699797-4.099904-14.599659-12.499708-15.39964-22.099484l-4.2999-52.298778-9.899769-119.097216-4.899885-59.098619-31.599262-381.191092h502.988246z" fill="#BA7916" /><path d="M556.398962 242.294338c0.499988 15.999626 0.799981 32.299245 1.099975 48.498866-18.499568 0.899979-37.699119 1.29997-57.298661 1.29997-105.69753 0-198.295366-13.399687-250.094156-33.499217l3.999907 48.498867c52.498773 19.299549 142.996658 31.999252 246.094249 31.999252 19.899535 0 39.299082-0.499988 57.998644-1.399968 0.799981 66.998434 0.499988 135.396836-1.099974 205.195205-2.99993 128.496997-9.899769 252.594097-20.299526 370.091351 55.898694-4.099904 107.097497-17.199598 148.796523-37.099133 8.699797-4.099904 14.599659-12.499708 15.39964-22.099483l4.2999-52.298778 9.899769-119.097217 4.899885-59.098619 31.599262-381.191092H556.398962z" fill="#A36412" /><path d="M294.005094 287.593279l-43.098992-20.299525 29.49931 356.091678 4.899886 59.098619 9.899768 119.097217 4.2999 52.298778c0.799981 9.599776 6.699843 17.999579 15.39964 22.099483 9.299783 4.399897 19.099554 8.299806 29.199318 12.099717L294.005094 287.593279z" fill="#CD8601" /><path d="M500.200276 488.68858c-98.297703 0-185.595663-16.999603-241.194364-43.298988l7.499825 93.297819 11.799724 146.196584c1.899956 0.699984 3.799911 1.499965 5.799865 2.199948 55.098712 20.299526 131.596925 32.899231 216.09495 32.899232s161.096235-12.599706 216.09495-32.899232c1.899956-0.699984 3.899909-1.399967 5.699867-2.199948l11.799724-146.196584 7.499825-93.297819c-55.498703 26.299385-142.896661 43.298988-241.094366 43.298988z" fill="#84D664" /><path d="M557.098946 542.887313c-1.399967 59.49861-3.699914 117.897245-6.699843 175.395901 64.398495-3.899909 121.997149-14.999649 165.99612-31.199271 1.899956-0.699984 3.899909-1.399967 5.699867-2.199948l11.799725-146.196584 7.499824-93.297819c-44.398962 20.999509-108.997453 35.999159-183.295716 41.299035-0.299993 18.599565-0.499988 37.299128-0.999977 56.198686z" fill="#75CF52" /><path d="M794.093408 195.295436c0 38.999089-131.596925 70.498353-293.893132 70.498353s-293.893132-31.599262-293.893132-70.498353v46.998902c0 38.999089 131.596925 70.498353 293.893132 70.498352s293.893132-31.599262 293.893132-70.498352v-46.998902z" fill="#FCCA3C" /><path d="M206.307144 195.295436a293.893132 70.498353 0 1 0 587.786264 0 293.893132 70.498353 0 1 0-587.786264 0Z" fill="#FCE160" /><path d="M212.007011 195.895422c0-38.599098 130.296955-69.798369 290.993199-69.798369 160.296254 0 290.193218 31.099273 290.9932 69.498376v-0.299993c0-38.999089-131.596925-70.498353-293.893132-70.498352s-293.893132 31.599262-293.893132 70.498352 131.596925 70.498353 293.893132 70.498353h1.399967c-159.996261-0.199995-289.493235-31.399266-289.493234-69.898367z" fill="#FFFFFF" /><path d="M738.894698 121.497161c0 31.599262-106.897502 57.298661-238.694422 57.298661s-238.694422-25.599402-238.694422-57.298661l-24.899418 58.798626c0 34.899184 117.997243 63.298521 263.59384 63.29852s263.59384-28.299339 263.59384-63.29852l-24.899418-58.798626z" fill="#FBAF27" /><path d="M261.505854 121.497161a238.694422 57.298661 0 1 0 477.388844 0 238.694422 57.298661 0 1 0-477.388844 0Z" fill="#FFC146" /><path d="M267.505714 121.497161c0-31.499264 104.697553-57.098666 234.194527-57.298661h-1.499965c-131.79692 0-238.694422 25.699399-238.694422 57.298661s106.897502 57.298661 238.694422 57.298661h1.499965c-129.496974-0.199995-234.194527-25.799397-234.194527-57.298661z" fill="#FFFFFF" /><path d="M326.30434 121.497161a173.895936 41.699026 0 1 0 347.791872 0 173.895936 41.699026 0 1 0-347.791872 0Z" fill="#FCE673" /><path d="M486.900587 97.397724c-49.698839 1.599963-88.097941 11.699727-88.097942 24.099437 0 13.399687 45.398939 24.299432 101.297633 24.299432 1.69996 0 3.399921 0 4.999883-0.099998l-18.199574-48.298871z" fill="#FCD14E" /><path d="M398.802645 121.497161c0-9.199785 21.499498-17.299596 53.198757-21.3995-32.499241 4.099904-54.498726 12.099717-54.498726 21.3995 0 9.199785 22.099484 17.299596 54.498726 21.3995-31.699259-4.099904-53.198757-12.199715-53.198757-21.3995z" fill="#FFFFFF" /><path d="M487.000584 145.596598c4.2999 0.099998 8.699797 0.199995 13.199692 0.199995 1.69996 0 3.399921 0 4.999883-0.099998L487.000584 97.597719v47.998879z" fill="#F2BE27" /><path d="M737.594728 127.497021c-6.799841 22.299479-49.798836 100.99764-318.992545 112.997359 25.699399 1.999953 53.098759 3.099928 81.598093 3.099927 145.596598 0 263.59384-28.299339 263.59384-63.29852l-24.899418-58.798626s-0.099998 2.099951-1.199972 5.599869c0 0.099998-0.099998 0.199995-0.099998 0.399991z" fill="#F8A012" /><path d="M699.195625 736.582787c-22.799467 14.099671-43.498983 47.198897-53.698745 66.598443-29.09932-20.599519-100.197658-36.599145-109.197448-38.4991 0 0.599986-0.099998 1.099974-0.099998 1.69996 4.199902 9.199785 22.69947 49.798836 26.399384 55.398706 4.199902 6.39985 54.498726 55.598701 56.998668 57.298661 2.199949 1.499965 38.999089-27.899348 39.299081-53.598748l31.899255-14.299666s0.899979-1.099974 2.399944-2.899932l0.599986-6.699843 5.399873-64.998481z" fill="#935903" /><path d="M651.196747 911.678695s-14.899652-180.795775-189.895562-184.295693c0 0-48.298871 177.99584 189.895562 184.295693z" fill="#79D054" /><path d="M475.000865 728.082985c-4.499895-0.299993-8.99979-0.599986-13.69968-0.699983 0 0-48.298871 177.99584 189.895562 184.295693 0 0 0-0.299993-0.099998-0.699984-213.994999-12.39971-178.995817-171.295997-176.095884-182.895726z" fill="#8EE366" /><path d="M471.100956 742.282653s114.897315 64.998481 157.696315 165.596131c0.099998 0.099998-101.39763-133.09689-157.696315-165.596131z" fill="#62B93E" /><path d="M617.69753 906.778809s180.99577-13.899675 178.695824-130.596948c-0.099998 0-139.996728-64.898483-178.695824 130.596948z" fill="#60C72B" /><path d="M631.197214 893.879111c-2.99993-0.499988 86.497979-106.597509 149.396509-110.197425-0.099998 0-63.498516 24.39943-149.396509 110.197425z" fill="#61AF3E" /><path d="M607.597766 883.879344c-15.199645-2.399944-87.397958-6.099857-109.497441 46.298919 0 0 75.398238 45.298941 130.196957 3.299922 17.499591-13.099694 23.599449-32.999229 23.599449-32.999228-5.599869-8.399804-28.999322-14.199668-44.298965-16.599613z" fill="#80DB5C" /><path d="M642.196957 903.178893s-49.798836 17.199598-134.196864 23.899442c0 0 83.698044 3.999907 134.196864-23.899442z" fill="#74CA4E" /><path d="M731.294875 880.379426c7.899815 6.699843 22.799467 19.099554 26.399383 40.299059 1.099974 6.699843 3.899909 22.899465-5.299876 32.899231-14.699656 16.099624-51.79879 7.099834-72.198313-10.69975-9.199785-7.999813-13.899675-16.799607-16.699609-22.299479-4.399897-8.599799-17.0996-33.199224-6.199855-48.098876 7.899815-10.799748 24.099437-10.799748 30.599284-10.799748 20.899512-0.199995 35.699166 12.199715 43.398986 18.699563z" fill="#DE6529" /><path d="M670.696291 878.379473c1.799958 0.799981 3.499918 1.69996 5.199879 2.699937 1.69996 0.999977 3.399921 1.999953 4.999883 3.099927s3.199925 2.199949 4.799888 3.399921c1.599963 1.199972 3.099928 2.399944 4.599892 3.699914 2.899932 2.599939 5.599869 5.499871 8.299806 8.199808l4.099905 4.199902 3.999906 4.199902c1.29997 1.399967 2.599939 2.699937 3.799911 3.999906 1.29997 1.29997 2.499942 2.599939 3.799912 3.799911 2.599939 2.399944 5.299876 4.599893 7.999813 6.799841l4.099904 3.399921c1.399967 1.099974 2.799935 2.199949 4.299899 3.299923l4.399897 3.299923c1.499965 1.099974 2.99993 2.199949 4.499895 3.39992 1.29997 0.999977 1.499965 2.799935 0.499989 4.099905-0.699984 0.799981-1.69996 1.199972-2.699937 1.099974-1.999953-0.199995-3.999907-0.599986-5.899862-1.099974-1.999953-0.499988-3.899909-1.099974-5.799865-1.799958-3.799911-1.399967-7.499825-3.199925-10.899745-5.399874-1.69996-1.099974-3.399921-2.299946-4.999883-3.599916-1.599963-1.29997-3.099928-2.699937-4.599893-4.099904-1.499965-1.399967-2.899932-2.799935-4.299899-4.2999s-2.599939-2.99993-3.899909-4.399897c-1.199972-1.499965-2.399944-2.899932-3.699914-4.299899-1.199972-1.399967-2.499942-2.799935-3.699913-4.099905-2.599939-2.699937-5.299876-5.099881-7.999813-7.69982l-3.899909-3.899909c-1.29997-1.29997-2.599939-2.699937-3.899909-3.999906-1.29997-1.399967-2.599939-2.699937-3.799911-4.099904-1.29997-1.399967-2.499942-2.799935-3.799911-4.2999-1.199972-1.499965-0.999977-3.799911 0.499988-4.999883 1.29997-0.999977 2.799935-1.099974 3.999906-0.599986z" fill="#DE6529" /><path d="M659.832147 886.271656a3.999907 4.69989 8.783 1 0 1.435277-9.289556 3.999907 4.69989 8.783 1 0-1.435277 9.289556Z" fill="#FFFFFF" /><path d="M659.996541 968.37737c-9.39978 4.2999-26.999369 12.499708-47.698885 6.699843-6.499848-1.799958-22.399477-6.199855-27.499357-18.79956-8.299806-20.199528 15.699633-49.898834 40.499053-60.79858 11.199738-4.899885 21.099507-5.399874 27.299362-5.599869 9.599776-0.299993 37.299128-1.29997 46.098923 14.899652 6.39985 11.699727-0.499988 26.399383-3.199925 32.299245-8.899792 19.099554-26.399383 27.099367-35.499171 31.299269z" fill="#E87C31" /><path d="M597.316726 931.565546a3.999907 7.899815 52.476 1 0 12.53066-9.623455 3.999907 7.899815 52.476 1 0-12.53066 9.623455Z" fill="#FFFFFF" /><path d="M698.695637 904.878854c-2.799935-5.199878-7.799818-8.599799-13.299689-10.799748 6.39985 11.699727-0.499988 26.399383-3.199925 32.199248-8.899792 18.999556-26.399383 27.099367-35.499171 31.299268-9.39978 4.2999-26.999369 12.499708-47.698885 6.699844-2.799935-0.799981-7.499825-2.099951-12.199715-4.399898 6.39985 9.799771 19.69954 13.599682 25.499404 15.199645 20.599519 5.799864 38.299105-2.399944 47.698885-6.699843 9.099787-4.199902 26.599378-12.299713 35.499171-31.299269 2.699937-5.799864 9.599776-20.499521 3.199925-32.199247z" fill="#D9702C" /><path d="M687.595896 914.378632c-1.499965 1.29997-3.099928 2.399944-4.69989 3.599916-1.599963 1.099974-3.299923 2.199949-4.899885 3.199925-1.69996 0.999977-3.399921 1.999953-5.099881 2.899932-1.69996 0.899979-3.499918 1.799958-5.299876 2.499942-3.599916 1.599963-7.299829 2.699937-10.999743 3.999906l-5.499872 1.899956-5.499871 1.799958c-1.799958 0.599986-3.499918 1.199972-5.299876 1.799958-1.69996 0.599986-3.399921 1.199972-4.999883 1.799958-3.299923 1.29997-6.39985 2.799935-9.599776 4.399897l-4.799888 2.299946-4.799888 2.399944-4.899885 2.599939c-1.599963 0.899979-3.299923 1.799958-4.999883 2.699937-1.399967 0.699984-3.199925 0.199995-3.999907-1.29997-0.499988-0.899979-0.399991-1.999953 0.099998-2.899932 1.099974-1.69996 2.299946-3.299923 3.599916-4.899885 1.29997-1.599963 2.699937-2.99993 4.099904-4.399897 2.899932-2.799935 6.099857-5.399874 9.499778-7.599823 1.69996-1.099974 3.499918-2.099951 5.399874-2.899932 1.799958-0.899979 3.699914-1.69996 5.599869-2.399944 1.899956-0.699984 3.799911-1.399967 5.699867-1.999953 1.899956-0.599986 3.799911-1.099974 5.599869-1.599963 1.899956-0.499988 3.699914-0.999977 5.399874-1.499965 1.799958-0.499988 3.499918-0.999977 5.299876-1.599962 3.499918-1.199972 6.899839-2.699937 10.399757-3.999907 1.69996-0.699984 3.499918-1.29997 5.199878-1.899956 1.799958-0.599986 3.499918-1.199972 5.299876-1.799957 1.799958-0.599986 3.599916-1.199972 5.399874-1.699961 1.799958-0.599986 3.599916-1.099974 5.499872-1.599962s3.799911 0.699984 4.299899 2.599939c0.499988 1.399967 0 2.799935-0.999977 3.599916z" fill="#CD682E" /><path d="M308.604753 463.989157c-18.39957-5.499871-35.09918-11.699727-49.598841-18.599565l7.499825 93.297819 11.799724 146.196584c1.899956 0.699984 3.799911 1.499965 5.799865 2.199948 13.499685 4.999883 28.399336 9.499778 44.298964 13.499685L308.604753 463.989157z" fill="#A8EA8F" /><path d="M313.604636 509.188101c-7.499825 0.599986-14.199668-4.999883-14.799654-12.599706l-9.39978-116.39728c-0.599986-7.499825 4.999883-14.199668 12.599705-14.799654 7.499825-0.599986 14.199668 4.999883 14.799655 12.599706l9.39978 116.39728c0.599986 7.499825-4.999883 14.099671-12.599706 14.799654zM300.60494 338.89208c-7.499825 0.599986-14.199668-4.999883-14.799654-12.599705-0.599986-7.499825 4.999883-14.199668 12.599706-14.799654 7.499825-0.599986 14.199668 4.999883 14.799654 12.599705 0.599986 7.599822-4.999883 14.199668-12.599706 14.799654z" fill="#FFFFFF" /><path d="M741.294642 445.389592s-33.299222 210.995069-190.995537 272.893622c64.398495-3.899909 121.997149-14.999649 165.996121-31.199271 1.899956-0.699984 3.899909-1.399967 5.699867-2.199948l11.799724-146.196584 7.499825-93.297819z" fill="#62B93E" /></svg>