<?xml version="1.0" standalone="no"?><!DOCTYPE svg PUBLIC "-//W3C//DTD SVG 1.1//EN" "http://www.w3.org/Graphics/SVG/1.1/DTD/svg11.dtd"><svg class="icon" width="48px" height="48.00px" viewBox="0 0 1024 1024" version="1.1" xmlns="http://www.w3.org/2000/svg"><path d="M426.40625 122.9375H188.75C152.46875 122.9375 122.9375 152.46875 122.9375 188.75v237.65625c0 36.28125 29.53125 65.8125 65.8125 65.8125h237.65625c36.28125 0 65.8125-29.53125 65.8125-65.8125V188.75c0-36.28125-29.53125-65.8125-65.8125-65.8125zM439.8125 426.40625c0 7.40625-6 13.40625-13.40625 13.40625H188.75c-7.40625 0-13.40625-6-13.40625-13.40625V188.75c0-7.40625 6-13.40625 13.40625-13.40625h237.65625c7.40625 0 13.40625 6 13.40625 13.40625v237.65625zM426.40625 531.78125H188.75c-36.28125 0-65.8125 29.53125-65.8125 65.8125v237.65625c0 36.28125 29.53125 65.8125 65.8125 65.8125h237.65625c36.28125 0 65.8125-29.53125 65.8125-65.8125V597.59375c0-36.28125-29.53125-65.8125-65.8125-65.8125zM439.8125 835.25c0 7.40625-6 13.40625-13.40625 13.40625H188.75c-7.40625 0-13.40625-6-13.40625-13.40625V597.59375c0-7.40625 6-13.40625 13.40625-13.40625h237.65625c7.40625 0 13.40625 6 13.40625 13.40625v237.65625zM835.25 531.78125H597.59375c-36.28125 0-65.8125 29.53125-65.8125 65.8125v237.65625c0 36.28125 29.53125 65.8125 65.8125 65.8125h237.65625c36.28125 0 65.8125-29.53125 65.8125-65.8125V597.59375c0-36.28125-29.53125-65.8125-65.8125-65.8125zM848.5625 835.25c0 7.40625-6 13.40625-13.40625 13.40625H597.59375c-7.40625 0-13.40625-6-13.40625-13.40625V597.59375c0-7.40625 6-13.40625 13.40625-13.40625h237.65625c7.40625 0 13.40625 6 13.40625 13.40625v237.65625z" fill="#ACBEC9" /><path d="M716.375 489.03125c100.03125 0 181.5-81.375 181.5-181.5 0-100.03125-81.375-181.5-181.5-181.5-100.03125 0-181.5 81.375-181.5 181.5 0.09375 100.125 81.46875 181.5 181.5 181.5z m0-310.40625c71.15625 0 129 57.84375 129 129 0 71.15625-57.84375 129-129 129-71.15625 0-129-57.84375-129-129 0-71.15625 57.9375-129 129-129z" fill="#EB5F9D" /><path d="M716.375 396.40625c48.9375 0 88.78125-39.84375 88.78125-88.78125s-39.84375-88.78125-88.78125-88.78125-88.78125 39.84375-88.78125 88.78125 39.84375 88.78125 88.78125 88.78125z m0-125.15625c20.0625 0 36.375 16.3125 36.375 36.375s-16.3125 36.375-36.375 36.375-36.375-16.3125-36.375-36.375 16.40625-36.375 36.375-36.375z" fill="#EB5F9D" /></svg>