<?xml version="1.0" standalone="no"?><!DOCTYPE svg PUBLIC "-//W3C//DTD SVG 1.1//EN" "http://www.w3.org/Graphics/SVG/1.1/DTD/svg11.dtd"><svg class="icon" width="48px" height="48.00px" viewBox="0 0 1024 1024" version="1.1" xmlns="http://www.w3.org/2000/svg"><path d="M639.36 669.44m-181.333333 0a181.333333 181.333333 0 1 0 362.666666 0 181.333333 181.333333 0 1 0-362.666666 0Z" fill="#4169E1" /><path d="M682.026667 130.56m-42.666667 0a42.666667 42.666667 0 1 0 85.333333 0 42.666667 42.666667 0 1 0-85.333333 0Z" fill="#2c2c2c" /><path d="M320 753.493333a35.2 35.2 0 0 1-25.386667-10.666666 35.626667 35.626667 0 0 1-9.6-33.066667L320 545.92a123.946667 123.946667 0 0 1 33.28-61.653333L618.666667 220.586667l45.226666 45.226666-264.746666 263.68a61.653333 61.653333 0 0 0-15.146667 30.293334l-27.946667 120.746666 120.746667-26.88a61.653333 61.653333 0 0 0 30.293333-16.213333l314.453334-314.453333a7.68 7.68 0 0 0 0-4.693334 24.96 24.96 0 0 0-8.106667-15.146666l-80.426667-80.426667 45.653334-45.226667 80.426666 80.426667a91.093333 91.093333 0 0 1 26.453334 52.906667 68.266667 68.266667 0 0 1-18.773334 57.386666L552.32 682.666667A125.013333 125.013333 0 0 1 490.666667 716.16l-164.053334 36.48a31.36 31.36 0 0 1-6.613333 0.853333z m27.52-30.08zM169.813333 776.533333h382.08v64H169.813333z" fill="#2c2c2c" /></svg>