<?xml version="1.0" standalone="no"?><!DOCTYPE svg PUBLIC "-//W3C//DTD SVG 1.1//EN" "http://www.w3.org/Graphics/SVG/1.1/DTD/svg11.dtd"><svg class="icon" width="48px" height="48.00px" viewBox="0 0 1024 1024" version="1.1" xmlns="http://www.w3.org/2000/svg"><path d="M661.9 127.3c-146.2 0-265.1 51.5-265.1 114.9l-0.3 97.5-5.6-0.6c-9.6-1.1-19.4-1.6-29.2-1.6C215.8 337.4 97 456.2 97 602.2S215.8 867 361.8 867c30 0 59.5-5 87.6-14.9l2.1-0.7 2 1.1c50.9 28.2 126.8 44.3 208.4 44.3 139.6 0 258.4-49.2 264.8-109.7l0.3-2.7V242.1c0-63.3-118.9-114.8-265.1-114.8z m0 49.5c101.9 0 207.3 24.4 207.3 65.3s-105.4 65.3-207.3 65.3-207.3-24.4-207.3-65.3 105.4-65.3 207.3-65.3zM361.8 817C243.3 817 147 720.6 147 602.2c0-118.5 96.4-214.8 214.8-214.8 118.5 0 214.8 96.4 214.8 214.8S480.2 817 361.8 817z m515.1-29.7l-1.1 1.4c-24 29.1-105.1 58.6-213.8 58.6-56.1 0-108.5-6.7-147.5-18.8l-9.8-3 8.4-5.9c37.3-26 67.4-61.3 87.2-102l1.5-3.2 3.5 0.3c18.5 1.8 37.6 2.7 56.7 2.7 81 0 156.7-16 207.5-43.8l7.5-4.1v117.8z m0-179.5l-1.1 1.4c-24 29.1-105.1 58.6-213.8 58.6-12.4 0-24.9-0.3-37.2-1l-5.9-0.3 1.3-5.8c4.3-19.1 6.5-38.8 6.5-58.5 0-20.2-2.3-40.4-6.8-60l-1.5-6.6 6.7 0.4c12.3 0.8 24.7 1.1 37 1.1 81 0 156.6-16 207.5-43.8l7.5-4.1v118.6z m0-180.2l-1.1 1.4c-24 29.1-105.1 58.6-213.8 58.6-20.4 0-40.6-0.9-60-2.7l-2.8-0.3-1.3-2.5c-31-60.9-83.6-107-147.9-129.7l-3.4-1.2v-42.4l7.5 4.1c50.9 28 126.6 44 207.8 44 81 0 156.7-16 207.5-43.8l7.5-4.1v118.6z" fill="#ACBEC9" /><path d="M452.5 633.7h-65.7V595h65.7c13.8 0 25-11.2 25-25s-11.2-25-25-25h-28.4l23.6-23.6c9.7-9.7 9.7-25.6 0-35.3-9.4-9.4-25.9-9.4-35.3 0L362.5 536l-49.9-49.9c-9.4-9.4-25.9-9.4-35.3 0-9.7 9.7-9.7 25.6 0 35.3l23.6 23.6h-28.2c-13.8 0-25 11.2-25 25s11.2 25 25 25h64.2v38.7h-64.2c-13.8 0-25 11.2-25 25s11.2 25 25 25h64.2v35.7c0 13.8 11.2 25 25 25s25-11.2 25-25v-35.7h65.7c13.8 0 25-11.2 25-25-0.1-13.8-11.3-25-25.1-25z" fill="#EB5F9D" /></svg>