<?xml version="1.0" standalone="no"?><!DOCTYPE svg PUBLIC "-//W3C//DTD SVG 1.1//EN" "http://www.w3.org/Graphics/SVG/1.1/DTD/svg11.dtd"><svg class="icon" width="48px" height="48.00px" viewBox="0 0 1024 1024" version="1.1" xmlns="http://www.w3.org/2000/svg"><path d="M465.62 841.89h-64.2a158.64 158.64 0 0 1-150.26-107.65l-37.28-109.72 33.21-11.28L284.36 723a123.6 123.6 0 0 0 117.06 83.85h64.2z" fill="#4169E1" /><path d="M790.84 657.24a38.35 38.35 0 0 1-38.35-38.36V459.37c0-132.6-107.88-240.48-240.49-240.48S271.51 326.77 271.51 459.37v159.51a38.35 38.35 0 1 1-76.7 0V459.37c0-174.9 142.29-317.19 317.19-317.19s317.19 142.29 317.19 317.19v159.51a38.35 38.35 0 0 1-38.35 38.36zM117 657.24a38.35 38.35 0 0 1-38.35-38.36v-179.1a38.36 38.36 0 1 1 76.71 0v179.1A38.35 38.35 0 0 1 117 657.24zM907 657.24a38.35 38.35 0 0 1-38.36-38.36v-179.1a38.36 38.36 0 1 1 76.71 0v179.1A38.35 38.35 0 0 1 907 657.24z" fill="#2F3240" /><path d="M407.79 766.89m57.46 0l93.49 0q57.46 0 57.46 57.46l0 0.01q0 57.46-57.46 57.46l-93.49 0q-57.46 0-57.46-57.46l0-0.01q0-57.46 57.46-57.46Z" fill="#4169E1" /></svg>