<?xml version="1.0" standalone="no"?><!DOCTYPE svg PUBLIC "-//W3C//DTD SVG 1.1//EN" "http://www.w3.org/Graphics/SVG/1.1/DTD/svg11.dtd"><svg class="icon" width="48px" height="48.00px" viewBox="0 0 1024 1024" version="1.1" xmlns="http://www.w3.org/2000/svg"><path d="M384 522.24v344.576h60.416v-344.064h135.168v344.064H640V522.24z" fill="#EB5F9D" /><path d="M914.432 282.624h-160.768l15.36-15.36c38.912-38.912 38.912-101.888 0-140.8-18.944-18.944-44.032-29.184-70.656-29.184-26.624 0-51.712 10.24-70.656 29.184l-113.664 113.664-112.128-114.176c-18.944-18.944-44.032-29.184-70.656-29.184-26.624 0-51.712 10.24-70.656 29.184-38.912 38.912-38.912 101.888 0 140.8l15.36 15.36H109.568c-29.696 0-54.272 24.576-54.272 54.272v130.56c0 29.696 24.576 54.272 54.272 54.272h16.896v350.72c0 30.208 24.576 54.272 54.272 54.272H844.288c29.696 0 54.272-24.576 54.272-54.272V522.24h16.896c29.696 0 54.272-24.576 54.272-54.272V336.896c-0.512-29.696-25.088-54.272-55.296-54.272zM671.232 168.96c14.848-14.848 40.448-14.848 55.296 0 15.36 15.36 15.36 39.936 0 55.296l-58.368 58.368h-110.592L671.232 168.96zM303.616 224.256c-15.36-15.36-15.36-39.936 0-55.296 14.848-14.848 40.448-14.848 55.296 0l113.664 113.664H361.984L303.616 224.256z m534.016 642.56H186.88V522.24h650.752v344.576z m70.656-405.504H115.2V343.04h793.088v118.272z" fill="#ACBEC9" /></svg>