<?xml version="1.0" standalone="no"?><!DOCTYPE svg PUBLIC "-//W3C//DTD SVG 1.1//EN" "http://www.w3.org/Graphics/SVG/1.1/DTD/svg11.dtd"><svg class="icon" width="48px" height="48.00px" viewBox="0 0 1024 1024" version="1.1" xmlns="http://www.w3.org/2000/svg"><path d="M104.4 122.7v619.15h815.2V122.7z m749.71 543.94H169.89V197.9h684.22zM331.24 850.8h361.53v50.5H331.24zM462.59 757.98h98.82v74.43h-98.82z" fill="#2F3240" /><path d="M302.36 563.09a31.88 31.88 0 0 1-19.89-56.81L435 384.75a31.81 31.81 0 0 1 35-3.16l99.92 53.72 129.62-124.93a31.88 31.88 0 1 1 44.25 45.91L597.33 497.35a31.88 31.88 0 0 1-37.22 5.13l-101.87-54.75-136 108.41a31.6 31.6 0 0 1-19.88 6.95z" fill="#4169E1" /></svg>