<?xml version="1.0" standalone="no"?><!DOCTYPE svg PUBLIC "-//W3C//DTD SVG 1.1//EN" "http://www.w3.org/Graphics/SVG/1.1/DTD/svg11.dtd"><svg class="icon" width="48px" height="48.00px" viewBox="0 0 1024 1024" version="1.1" xmlns="http://www.w3.org/2000/svg"><path d="M549.376 133.632l52.736 66.56L302.08 347.136h150.528l261.632-127.488 61.952 127.488H849.92l-77.824-159.232c-15.36-31.232-52.736-44.032-83.968-28.672l-25.088 12.288L599.04 90.112c-21.504-27.136-60.928-31.744-88.064-10.24L174.592 347.136h105.984l268.8-213.504z" fill="#EB5F9D" /><path d="M855.552 347.136H168.448c-54.272 0-98.816 44.032-98.816 98.816v412.672c0 54.272 44.032 98.816 98.816 98.816h687.616c54.272 0 98.816-44.032 98.816-98.816V445.952c-0.512-54.272-44.544-98.816-99.328-98.816z m0 544.256H168.448c-17.92 0-32.768-14.848-32.768-32.768V445.952c0-17.92 14.848-32.768 32.768-32.768h687.616c17.92 0 32.768 14.848 32.768 32.768v49.152h-268.288c-18.432 0-32.768 14.848-32.768 32.768v248.832c0 18.432 14.848 32.768 32.768 32.768h268.288v49.152c-0.512 17.92-15.36 32.768-33.28 32.768z m32.768-147.968h-235.52v-182.784h235.52v182.784z" fill="#ACBEC9" /><path d="M770.56 695.808c15.36 0 29.696-8.192 37.888-22.016 7.68-13.312 7.68-30.208 0-43.52-7.68-13.312-22.016-22.016-37.888-22.016-24.064 0-43.52 19.456-43.52 43.52 0 24.576 19.456 44.032 43.52 44.032z" fill="#EB5F9D" /></svg>