<?xml version="1.0" standalone="no"?><!DOCTYPE svg PUBLIC "-//W3C//DTD SVG 1.1//EN" "http://www.w3.org/Graphics/SVG/1.1/DTD/svg11.dtd"><svg class="icon" width="48px" height="48.00px" viewBox="0 0 1024 1024" version="1.1" xmlns="http://www.w3.org/2000/svg"><path d="M140.8 64m128 0l422.4 0q128 0 128 128l0 550.4q0 128-128 128l-422.4 0q-128 0-128-128l0-550.4q0-128 128-128Z" fill="#4F8DFC" /><path d="M102.4 230.4C102.4 117.2864 194.0864 25.6 307.2 25.6h409.6c113.1136 0 204.8 91.6864 204.8 204.8v563.2c0 113.1136-91.6864 204.8-204.8 204.8H307.2c-113.1136 0-204.8-91.6864-204.8-204.8V230.4zM307.2 76.8c-84.8256 0-153.6 68.7744-153.6 153.6v563.2c0 84.8256 68.7744 153.6 153.6 153.6h409.6c84.8256 0 153.6-68.7744 153.6-153.6V230.4c0-84.8256-68.7744-153.6-153.6-153.6H307.2z" fill="#181818" /><path d="M268.8 320a51.2 51.2 0 0 1 51.2-51.2h384a51.2 51.2 0 0 1 0 102.4H320a51.2 51.2 0 0 1-51.2-51.2zM268.8 576a51.2 51.2 0 0 1 51.2-51.2h256a51.2 51.2 0 0 1 0 102.4H320a51.2 51.2 0 0 1-51.2-51.2z" fill="#181818" /></svg>