<?xml version="1.0" standalone="no"?><!DOCTYPE svg PUBLIC "-//W3C//DTD SVG 1.1//EN" "http://www.w3.org/Graphics/SVG/1.1/DTD/svg11.dtd"><svg class="icon" width="48px" height="48.00px" viewBox="0 0 1024 1024" version="1.1" xmlns="http://www.w3.org/2000/svg"><path d="M573.538462 230.648123c102.573292 0 185.722092 85.023508 185.722092 189.904739 0 104.881231-83.1488 189.908677-185.722092 189.908676s-185.722092-85.023508-185.722093-189.908676c0-104.881231 83.1488-189.904738 185.722093-189.904739z" fill="#4F8DFC" /><path d="M500.184615 165.415385c187.061169 0 338.707692 151.646523 338.707693 338.707692s-151.646523 338.707692-338.707693 338.707692-338.707692-151.646523-338.707692-338.707692 151.646523-338.707692 338.707692-338.707692z m0 47.013415c-161.094892 0-291.694277 130.599385-291.694277 291.694277 0 161.098831 130.599385 291.694277 291.694277 291.694277 161.098831 0 291.694277-130.599385 291.694277-291.694277 0-161.098831-130.599385-291.694277-291.694277-291.694277z" fill="#000000" /><path d="M711.258585 707.446154a23.630769 23.630769 0 0 1 33.421784 0l111.572677 111.572677a23.630769 23.630769 0 1 1-33.421784 33.417846l-111.572677-111.572677a23.630769 23.630769 0 0 1 0-33.417846zM571.076923 303.261538s68.726154 16.395815 110.276923 86.646154c0 0 8.314092 26.222277-15.753846 23.63077 0 0-42.625969-55.382646-98.461538-78.769231 0 0-19.5584-23.473231 3.938461-31.507693z" fill="#000000" /></svg>