<?xml version="1.0" standalone="no"?><!DOCTYPE svg PUBLIC "-//W3C//DTD SVG 1.1//EN" "http://www.w3.org/Graphics/SVG/1.1/DTD/svg11.dtd"><svg class="icon" width="48px" height="48.00px" viewBox="0 0 1024 1024" version="1.1" xmlns="http://www.w3.org/2000/svg"><path d="M936.448 469.504c-4.096-4.096-9.216-6.656-14.848-6.656H122.88c-11.264 0-20.48 9.216-20.48 20.48 0 189.44 71.68 267.776 98.304 290.816v146.944c0 11.264 9.216 20.48 20.48 20.48h450.56c11.264 0 20.48-9.216 20.48-20.48v-139.264c135.168-23.04 241.152-147.456 249.856-297.472 0.512-5.632-1.536-10.752-5.632-14.848z m-266.752 273.92c-10.24 1.024-18.432 9.728-18.432 20.48v136.704h-409.6v-136.704c0-7.168-3.584-13.312-9.216-17.408-1.024-0.512-82.944-56.32-88.576-242.688h755.2c-16.896 124.928-113.664 228.352-229.376 239.616z" fill="#181818" /><path d="M154.112 503.808c-39.936 0-72.192-32.256-72.192-72.192V154.624c0-39.936 32.256-72.192 72.192-72.192s72.192 32.256 72.192 72.192v276.992c0 39.936-32.256 72.192-72.192 72.192z m0-380.416c-17.408 0-31.232 13.824-31.232 31.232v276.992c0 17.408 13.824 31.232 31.232 31.232s31.232-13.824 31.232-31.232V154.624c0-16.896-13.824-31.232-31.232-31.232z" fill="#181818" /><path d="M869.888 503.808H257.536c-39.936 0-72.192-32.256-72.192-72.192s32.256-72.192 72.192-72.192h612.352c39.936 0 72.192 32.256 72.192 72.192s-32.256 72.192-72.192 72.192zM257.536 400.384c-17.408 0-31.232 13.824-31.232 31.232s13.824 31.232 31.232 31.232h612.352c17.408 0 31.232-13.824 31.232-31.232s-13.824-31.232-31.232-31.232H257.536z" fill="#181818" /><path d="M899.072 503.808c-16.896 124.928-114.176 228.352-229.376 239.616-10.24 1.024-18.432 9.728-18.432 20.48v136.704h-409.6v-136.704c0-7.168-3.584-13.312-9.216-17.408-1.024-0.512-82.944-56.32-88.576-242.688h755.2z" fill="#4F8DFC" /><path d="M847.872 544.768c-28.672 84.992-100.864 150.016-181.76 158.208-31.744 3.072-55.296 29.184-55.296 60.928v95.744h-327.68v-95.744c0-20.48-10.24-39.424-27.136-50.688-2.56-2.048-54.784-44.032-68.096-168.448h659.968m51.2-40.96H143.872c5.632 186.368 87.552 242.176 88.576 242.688 5.632 3.584 9.216 10.24 9.216 17.408v136.704h409.6v-136.704c0-10.752 8.192-19.456 18.432-20.48 115.712-11.264 212.48-114.688 229.376-239.616z" fill="#181818" /></svg>