<?xml version="1.0" standalone="no"?><!DOCTYPE svg PUBLIC "-//W3C//DTD SVG 1.1//EN" "http://www.w3.org/Graphics/SVG/1.1/DTD/svg11.dtd"><svg class="icon" width="48px" height="48.00px" viewBox="0 0 1024 1024" version="1.1" xmlns="http://www.w3.org/2000/svg"><path d="M505.344 934.912c-237.056 0-430.08-193.024-430.08-430.08s193.024-430.08 430.08-430.08 430.08 193.024 430.08 430.08-192.512 430.08-430.08 430.08z m0-819.2c-214.528 0-389.12 174.592-389.12 389.12s174.592 389.12 389.12 389.12 389.12-174.592 389.12-389.12-174.08-389.12-389.12-389.12z" fill="#181818" /><path d="M505.344 248.832c141.312 0 256 114.688 256 256s-114.688 256-256 256-256-114.688-256-256 114.688-256 256-256m0-40.96c-163.84 0-296.96 133.12-296.96 296.96s133.12 296.96 296.96 296.96 296.96-133.12 296.96-296.96-133.12-296.96-296.96-296.96z" fill="#181818" /><path d="M505.344 504.832m-256 0a256 256 0 1 0 512 0 256 256 0 1 0-512 0Z" fill="#4F8DFC" /><path d="M505.344 289.792c118.784 0 215.04 96.256 215.04 215.04s-96.256 215.04-215.04 215.04-215.04-96.256-215.04-215.04 96.768-215.04 215.04-215.04m0-40.96c-141.312 0-256 114.688-256 256s114.688 256 256 256 256-114.688 256-256-114.176-256-256-256z" fill="#181818" /><path d="M556.544 450.048h-102.4c-11.264 0-20.48-9.216-20.48-20.48s9.216-20.48 20.48-20.48h102.4c11.264 0 20.48 9.216 20.48 20.48s-8.704 20.48-20.48 20.48zM556.544 600.576h-102.4c-11.264 0-20.48-9.216-20.48-20.48s9.216-20.48 20.48-20.48h102.4c11.264 0 20.48 9.216 20.48 20.48s-8.704 20.48-20.48 20.48zM556.544 525.312h-102.4c-11.264 0-20.48-9.216-20.48-20.48s9.216-20.48 20.48-20.48h102.4c11.264 0 20.48 9.216 20.48 20.48s-8.704 20.48-20.48 20.48z" fill="#181818" /></svg>