<?xml version="1.0" standalone="no"?><!DOCTYPE svg PUBLIC "-//W3C//DTD SVG 1.1//EN" "http://www.w3.org/Graphics/SVG/1.1/DTD/svg11.dtd"><svg class="icon" width="48px" height="48.00px" viewBox="0 0 1024 1024" version="1.1" xmlns="http://www.w3.org/2000/svg"><path d="M613.91 624.82m-309.62 0a309.62 309.62 0 1 0 619.24 0 309.62 309.62 0 1 0-619.24 0Z" fill="#4F8DFC" /><path d="M959.21 374.45c0.09-2.13 0.09-4.29 0-6.45a89.69 89.69 0 0 0-47.69-77L554.11 100.62a90.48 90.48 0 0 0-85.43-0.17L112.79 290.37a90.61 90.61 0 0 0-4.87 157.23l355.7 220.54a90.14 90.14 0 0 0 95.16-0.2l335.86-206.7v212.9c0 17.53 14.47 31.74 32.33 31.74s32.32-14.21 32.32-31.74V376.56c0-0.71-0.02-1.41-0.08-2.11z m-78.6 15.61L523 610.18a22.59 22.59 0 0 1-23.79 0.05L143.48 389.69a22.66 22.66 0 0 1 1.22-39.32l355.9-189.92a22.68 22.68 0 0 1 21.35 0l357.43 190.41a22.65 22.65 0 0 1 1.23 39.2z" fill="#181818" /><path d="M200.65 616.84l278.28 168.39a56.64 56.64 0 0 0 58.24-0.05l284.54-171.93A22.65 22.65 0 0 1 856 632.67v6.93c0 17-14 20-26.84 30.7-3.08 2.55-286.42 166.76-286.42 166.76a56.68 56.68 0 0 1-58.3 0.27L213 685.19c-17.19-10.21-46.65-23.52-46.65-43.51v-5.39a22.66 22.66 0 0 1 34.3-19.45z" fill="#181818" /></svg>