<?xml version="1.0" standalone="no"?><!DOCTYPE svg PUBLIC "-//W3C//DTD SVG 1.1//EN" "http://www.w3.org/Graphics/SVG/1.1/DTD/svg11.dtd"><svg class="icon" width="32px" height="32.00px" viewBox="0 0 1024 1024" version="1.1" xmlns="http://www.w3.org/2000/svg"><path d="M173.07 487.75c0 64.27 41.55 178.69 98.81 272 42.4 69.25 129.51 185.19 236.54 185.19S704.75 829.09 748.4 760c59.41-94 102.53-208.5 102.53-272.28 0-64.9-27.38-121.1-79.17-162.54a267.42 267.42 0 0 0-57.38-34.82l70.73-159.15-169.88 80.5-99.65-138L415.75 212l-176.22-79.32 70.09 157.71a267.42 267.42 0 0 0-57.38 34.82c-51.79 41.44-79.17 97.64-79.17 162.54z m256-225.91l86.5-119.78 86.7 120 102.47-48.53-30.14 67.88H349.41l-30.8-69.28zM276.2 357.27a225.12 225.12 0 0 1 63.45-35.86h344.7a225.12 225.12 0 0 1 63.45 35.86c41.89 34 63.13 77.86 63.13 130.48 0 47.74-33.76 151.9-96.35 250.91-31.16 49.31-65.44 90.39-99.12 118.81-37.34 31.5-73.35 47.47-107 47.47S439.22 889 402.63 857.58c-33-28.33-66.42-69.38-96.65-118.69-60.35-98.41-92.91-202.84-92.91-251.14 0-52.62 21.24-96.52 63.13-130.48z" fill="#4169E1" /><path d="M654.45 451.92h40v64.5h-40zM492 505.67h40v64.5h-40zM331.94 451.92h40v64.5h-40zM389.27 656.18h40v64.5h-40zM597.12 656.18h40v64.5h-40z" fill="#4169E1" /></svg>