<?xml version="1.0" standalone="no"?><!DOCTYPE svg PUBLIC "-//W3C//DTD SVG 1.1//EN" "http://www.w3.org/Graphics/SVG/1.1/DTD/svg11.dtd"><svg class="icon" width="32px" height="32.00px" viewBox="0 0 1024 1024" version="1.1" xmlns="http://www.w3.org/2000/svg"><path d="M515.11 507.12c-83.82 0-152 68.2-152 152s68.2 152 152 152 152-68.19 152-152-68.18-152-152-152z m0 264a112 112 0 1 1 112-112 112.14 112.14 0 0 1-112 112.04z" fill="#4169E1" /><path d="M716.24 364.38c-20.18-67.28-20.57-115.12-20.57-115.57v-3.56c0-99.57-81-180.57-180.56-180.57s-180.56 81-180.56 180.57v3.53c0 0.48-0.38 48.32-20.57 115.6-7.25 24.19-23.16 57-40 91.75-31.82 65.66-67.88 140.08-67.88 199.44v3.57a309 309 0 1 0 618 0v-3.57c0-59.36-36.06-133.78-67.88-199.44-16.82-34.75-32.73-67.56-39.98-91.75z m67.88 294.76a269 269 0 1 1-538 0v-3.57c0-50.18 33.94-120.21 63.88-182 17.56-36.22 34.14-70.44 42.31-97.69 22-73.33 22.26-124.91 22.26-127.07v-3.56c0-77.51 63.05-140.57 140.56-140.57s140.56 63.06 140.56 140.57v3.56c0 2.16 0.26 53.74 22.26 127.07 8.17 27.25 24.75 61.47 42.31 97.69 29.94 61.79 63.88 131.82 63.88 182z" fill="#4169E1" /></svg>