<?xml version="1.0" standalone="no"?><!DOCTYPE svg PUBLIC "-//W3C//DTD SVG 1.1//EN" "http://www.w3.org/Graphics/SVG/1.1/DTD/svg11.dtd"><svg class="icon" width="32px" height="32.00px" viewBox="0 0 1024 1024" version="1.1" xmlns="http://www.w3.org/2000/svg"><path d="M866.76 290.65A432.94 432.94 0 0 0 771 146.49c-7.32-7.32-15-14.45-22.74-21.2L734.2 113 122.56 727.46l12.31 14c6.36 7.26 13 14.41 19.9 21.25a435.88 435.88 0 0 0 712-472.11z m-185.07-54.82a309.42 309.42 0 0 1-437.58 437.59q-2.82-2.83-5.59-5.75l436.4-438.39c2.29 2.16 4.56 4.34 6.77 6.55z m148 367.73a395.65 395.65 0 0 1-646.64 130.92c-1.84-1.84-3.67-3.71-5.48-5.59L210.29 696c1.83 1.91 3.67 3.8 5.54 5.67A349.42 349.42 0 1 0 710 207.55c-2.24-2.24-4.52-4.44-6.83-6.63l32.73-32.87q3.48 3.33 6.87 6.72a396.27 396.27 0 0 1 87 428.79z" fill="#4169E1" /><path d="M539.911 566.312l28.285-28.284 38.381 38.381-28.284 28.285zM591.086 422.885l38.382-38.382 28.284 28.284-38.382 38.382zM392.796 621.179l38.382-38.382 28.284 28.285-38.382 38.381z" fill="#4169E1" /></svg>