<?xml version="1.0" standalone="no"?><!DOCTYPE svg PUBLIC "-//W3C//DTD SVG 1.1//EN" "http://www.w3.org/Graphics/SVG/1.1/DTD/svg11.dtd"><svg class="icon" width="48px" height="33.01px" viewBox="0 0 1489 1024" version="1.1" xmlns="http://www.w3.org/2000/svg"><path d="M0 326.328269l905.404732 527.430137V1024L0 496.569863V326.328269z" fill="#B8D9F6" /><path d="M29.8401 479.609465l5.483437 3.060523v3.060523l5.866002 3.315566v3.315567l7.906351 4.335741v-3.315567l5.993525 3.315567v-3.060523l5.483437 3.060523v-30.987796l-30.732752-17.08792v30.987796zM73.96264 474.381071v31.115318l5.483437 2.933001v3.060523l5.866003 3.315566v3.315567l7.906351 4.335741v-3.315567l5.993524 3.315567v-3.060523l5.355915 3.060523v-30.987796L73.96264 474.381071z" fill="#5CA8EA" /><path d="M1489.454545 519.778829L905.404732 853.758406V1024l584.049813-337.422665z" fill="#99C9F2" /><path d="M1489.454545 519.778829L580.351681 0 0 326.328269l905.404732 526.154919z" fill="#E0EFFB" /><path d="M161.952677 565.686675l34.048319 19.000747v-34.558406l-34.048319-19.000747z m19.383313-15.175093l2.933001 1.657783V548.343711l5.100872 2.80548v4.080697l2.677958 1.530261v20.275966l-10.711831-5.866003z m-15.302615-7.651308l2.933001 1.657783v-4.080697l5.100872 2.805479v4.080698l2.677957 1.530261v20.275965l-10.966874-5.993524z" fill="#5CA8EA" /><path d="M169.22142 560.713325l4.335741 2.422914v-4.335741l-4.335741-2.422914v4.335741zM184.524035 567.47198l4.335741 2.422914v-4.335741l-4.335741-2.422914v4.335741zM220.485181 599.352428L255.043587 618.353176v-34.558406l-34.558406-18.873226z m19.383312-15.175093l2.933001 1.657783v-4.080697l5.100872 2.805479v4.080698l2.677958 1.530261v20.275965l-10.711831-5.866002z m-15.302615-7.651308l2.933001 1.657784V573.84807l5.100872 2.805479v4.080698l2.677958 1.530261v20.275965l-10.711831-5.866002z" fill="#5CA8EA" /><path d="M227.626401 594.379078l4.335741 2.422915v-4.335741l-4.335741-2.422915v4.335741zM243.056538 601.137733l4.208219 2.422915v-4.335741l-4.208219-2.422914v4.33574zM278.890162 633.145704l34.048319 19.000747v-34.685928l-34.048319-19.000747z m19.383312-15.175094l2.933002 1.657784v-4.080698l5.100871 2.80548v4.080697l2.677958 1.530261v20.020922l-10.711831-6.37609z m-15.302615-7.651307l2.933002 1.657783v-4.080697l5.100871 2.805479v4.080697l2.677958 1.530262v20.275965l-10.711831-5.866002z" fill="#5CA8EA" /><path d="M286.158904 628.172354l4.208219 2.295392v-4.335741l-4.208219-2.422914v4.463263zM301.461519 634.803487l4.335741 2.422914v-4.335741l-4.335741-2.422914v4.335741zM337.295143 666.811457l34.048319 19.000747v-34.685928l-34.048319-19.000747z m19.765878-15.302615l2.933001 1.657783v-4.080697l5.100872 2.805479v4.080698l2.677958 1.530261v20.275965l-10.711831-5.993524z m-15.302615-7.651308l2.933001 1.657784v-4.080698l5.100872 2.80548v4.080697l2.677958 1.530262v20.275965l-10.711831-5.866003z" fill="#5CA8EA" /><path d="M344.563885 661.838107l4.335741 2.295392v-4.335741l-4.335741-2.422914v4.463263zM359.994022 668.46924l4.20822 2.422914v-4.335741l-4.20822-2.422914v4.335741zM395.317559 665.918804v34.558406l34.048319 19.000748v-34.558406z m14.792528 38.256538l-10.71183-5.866002v-20.658531l2.933001 1.657784v-4.080698l5.100872 2.80548v4.080697l2.677957 1.530262z m15.302615 7.651308l-10.71183-5.866002v-20.786053l2.933001 1.657784v-4.080698l5.100872 2.80548v4.080697l2.677957 1.530262z" fill="#5CA8EA" /><path d="M402.968867 695.503861l4.335741 2.422914v-4.463263l-4.335741-2.295392v4.335741zM418.399004 702.262516l4.335741 2.295392v-4.335741l-4.335741-2.295392v4.335741zM161.952677 511.872478l34.048319 19.000747v-34.558406l-34.048319-19.000747z m19.383313-15.175093l2.933001 1.657783v-4.080697l5.100872 2.805479v4.080698l2.677958 1.530261V522.839352l-10.711831-5.866002z m-15.302615-7.651308l2.933001 1.657784v-4.080698l5.100872 2.80548v4.080697l2.677957 1.530261v20.148444l-10.966874-5.866003z" fill="#5CA8EA" /><path d="M169.22142 506.899128l4.335741 2.422914v-4.335741l-4.335741-2.422914v4.335741zM184.524035 513.657783l4.335741 2.422914v-4.335741l-4.335741-2.422914v4.335741zM220.485181 545.665753L255.043587 564.538979v-34.558406l-34.048319-19.000747z m19.383312-15.175093l2.933001 1.657783v-4.080697l5.100872 2.805479v4.080698l2.677958 1.530261v20.275965l-10.711831-5.866002z m-15.302615-7.651308l2.933001 1.657784v-4.208219l5.100872 2.805479v4.080697l2.677958 1.530262V548.343711l-10.711831-5.866002z" fill="#5CA8EA" /><path d="M227.626401 540.564882l4.335741 2.422914v-4.335741l-4.335741-2.422914v4.335741zM243.056538 547.323537l4.208219 2.422914v-4.335741l-4.208219-2.422914v4.335741zM278.890162 579.331507l34.048319 19.000747V563.646326l-34.048319-19.000747z m19.383312-15.175094l2.933002 1.657784V561.09589l5.100871 2.80548v4.080697l2.677958 1.530262v20.275965l-10.711831-5.866003z m-15.302615-7.651307l2.933002 1.657783v-4.080697l5.100871 2.805479V561.09589l2.677958 1.530262v20.275965l-10.711831-5.866002z" fill="#5CA8EA" /><path d="M286.158904 574.230635l4.208219 2.422914v-4.335741l-4.208219-2.422914v4.335741zM301.461519 580.98929l4.335741 2.422914v-4.335741l-4.335741-2.422914v4.335741zM337.295143 612.99726l34.048319 19.000747v-34.685927l-34.048319-19.000747z m19.765878-15.302615l2.933001 1.657783v-4.080697l5.100872 2.805479v4.080698l2.677958 1.530261v20.275965l-10.711831-5.993524z m-15.302615-7.651308l2.933001 1.657784v-4.080698l5.100872 2.80548v4.080697l2.677958 1.530262v20.275965l-10.711831-5.866003z" fill="#5CA8EA" /><path d="M344.563885 608.02391l4.335741 2.295393v-4.335741l-4.335741-2.422914v4.463262zM359.994022 614.655044l4.20822 2.422914v-4.335741l-4.20822-2.422914v4.335741zM395.317559 612.104608v34.558406l34.048319 19.000747v-34.685928z m14.792528 38.256538l-10.71183-5.866003v-20.65853l2.933001 1.657783v-4.080697l5.100872 2.805479v4.080697l2.677957 1.530262z m15.302615 7.651307l-10.71183-5.866002v-20.786052l2.933001 1.657783v-4.080698l5.100872 2.80548v4.080697l2.677957 1.530262z" fill="#5CA8EA" /><path d="M402.968867 641.689664l4.335741 2.295392v-4.335741l-4.335741-2.295392v4.335741zM418.399004 648.448319l4.335741 2.295392v-4.335741l-4.335741-2.422914v4.463263zM524.497136 775.332503l34.048319 19.000747v-34.685927l-34.048319-19.000748z m19.383312-15.175093l2.933002 1.657783v-4.335741l5.100871 2.80548v4.080697l2.677958 1.530261v20.275966l-10.711831-5.866003z m-15.302615-7.651308l2.933001 1.657783v-4.080697l5.100872 2.805479v4.080698l2.677958 1.530261v20.275966l-10.711831-5.866003z" fill="#5CA8EA" /><path d="M531.765878 770.231631l4.335741 2.422914v-4.335741l-4.335741-2.422914v4.335741zM547.068493 776.990286l4.335741 2.422914v-4.33574l-4.335741-2.422915v4.335741zM583.029639 808.998257l34.048319 19.000747v-34.685928l-34.048319-19.000747z m19.383312-15.175094l2.933002 1.657783V790.635118l5.100871 2.80548v4.080697l2.677958 1.530262v20.275965l-10.711831-5.866003z m-15.302615-7.651307l2.933001 1.657783v-4.080698l5.100872 2.80548V790.635118l2.677958 1.530262v20.148443l-11.221918-5.993524z" fill="#5CA8EA" /><path d="M590.170859 804.024907l4.335741 2.295392v-4.335741l-4.335741-2.422914v4.463263zM605.600996 810.65604l4.208219 2.422914v-4.335741l-4.208219-2.422914v4.335741zM641.43462 842.66401l34.430884 18.873225v-34.558406l-34.430884-18.873225z m19.383313-15.175093L663.113325 828.891656v-4.080697l5.100872 2.805479v4.080698l2.677957 1.530261v20.275965l-10.71183-5.866002z m-15.302615-7.651308l2.933001 1.657783v-4.080697l5.100872 2.805479v4.080698l2.677957 1.530261v20.275965l-10.71183-5.866002z" fill="#5CA8EA" /><path d="M648.703362 837.69066l4.20822 2.295392v-4.335741l-4.20822-2.422914v4.463263zM664.005978 844.449315l4.335741 2.295392v-4.335741l-4.335741-2.422914v4.463263zM699.839601 876.329763l34.048319 19.000748V860.772105L699.839601 841.643836z m19.383313-15.175093l2.933001 1.657783v-4.080697l5.100872 2.805479v4.080698l2.677958 1.530261v20.275965l-10.711831-5.866002z m-15.302615-7.651308l2.933001 1.657784v-4.080698l5.100872 2.80548v4.080697l2.677958 1.530262V879.900374l-10.711831-5.866003z" fill="#5CA8EA" /><path d="M707.108344 871.356413l4.335741 2.422915v-4.463263l-4.335741-2.295393v4.335741zM722.410959 878.115068l4.335741 2.295393v-4.335741l-4.335741-2.295392v4.33574zM758.372105 875.437111v34.558406l34.048318 19.000747v-34.558406z m14.792528 38.256538l-10.711831-5.866003v-20.65853l2.933001 1.657783v-4.080697l5.100872 2.805479v4.080698l2.677958 1.530261z m15.302615 7.651307l-10.584309-6.376089v-20.148444l2.933001 1.657784V892.652553l5.100872 2.805479v4.080698l2.677958 1.530261z" fill="#5CA8EA" /><path d="M765.513325 905.022167l4.335741 2.422914v-4.463263l-4.335741-2.295392v4.335741zM780.943462 911.780822l4.208219 2.422914v-4.463263l-4.208219-2.295392v4.335741zM524.497136 721.518306l34.048319 19.000748v-34.685928l-34.048319-19.000747z m19.383312-15.175093l2.933002 1.657783v-4.080697l5.100871 2.805479v4.080698l2.677958 1.530261v20.275965l-10.711831-5.73848z m-15.302615-7.651308l2.933001 1.657784v-4.080698l5.100872 2.80548v4.080697l2.677958 1.530262v20.275965l-10.711831-5.866003z" fill="#5CA8EA" /><path d="M531.765878 716.417435l4.335741 2.422914v-4.335741l-4.335741-2.422914v4.335741zM547.068493 723.17609l4.335741 2.422914v-4.335741l-4.335741-2.422914v4.335741zM583.029639 755.18406l34.048319 19.000747V739.626401l-34.048319-19.000747zM602.28543 739.626401l2.933001 1.657783v-4.080697l5.100872 2.805479v4.080698l2.677957 1.530261v20.275965l-10.71183-5.866002z m-15.302616-7.651308l2.933002 1.657784v-4.080698l5.100871 2.80548v4.080697l2.677958 1.530262v20.275965L586.600249 752.37858z" fill="#5CA8EA" /><path d="M590.170859 750.083188l4.335741 2.422914v-4.335741l-4.335741-2.422914v4.335741zM605.600996 756.841843l4.208219 2.422914v-4.335741l-4.208219-2.422914v4.335741zM641.43462 788.849813l34.430884 18.873226v-34.558406l-34.430884-18.873226z m19.383313-15.175093l2.933001 1.657783v-4.080697l5.100872 2.805479v3.825654l2.677957 1.530261v20.275966l-10.71183-5.866003z m-15.302615-7.651308l2.933001 1.657784v-4.080698l5.100872 2.80548v4.080697l2.677957 1.530261v20.275966l-10.71183-5.866003z" fill="#5CA8EA" /><path d="M648.703362 783.876463l4.20822 2.295393v-4.335741l-4.20822-2.422915v4.463263zM664.005978 790.507597l4.335741 2.422914v-4.335741l-4.335741-2.422914v4.335741zM699.839601 822.515567l34.175841 19.128269v-34.81345l-34.048319-19.000747z m19.383313-15.302616l2.933001 1.657784v-4.080698l5.100872 2.80548v4.080697l2.677958 1.530262v20.275965l-10.711831-5.866003z m-15.302615-7.651307l2.933001 1.657783v-4.080697l5.100872 2.805479v4.080698l2.677958 1.530261v20.275965l-10.711831-5.866002z" fill="#5CA8EA" /><path d="M707.108344 817.542217l4.335741 2.295392v-4.335741l-4.335741-2.295392v4.335741zM722.410959 824.300872l4.335741 2.295392v-4.335741l-4.335741-2.422914v4.463263zM758.372105 821.622914v34.558406l34.048318 19.000747v-34.558406z m14.792528 38.256538l-10.711831-5.866002v-20.658531l2.933001 1.657783v-4.080697l5.100872 2.805479v4.080698l2.677958 1.530261z m15.302615 7.651308l-10.584309-6.37609v-20.148443l2.933001 1.657783v-4.080697l5.100872 2.805479v4.080697l2.677958 1.530262z" fill="#5CA8EA" /><path d="M765.513325 851.20797l4.335741 2.422914v-4.463263l-4.335741-2.295392v4.335741zM780.943462 857.966625l4.208219 2.295392v-4.335741l-4.208219-2.295392v4.335741z" fill="#5CA8EA" /></svg>