<?xml version="1.0" standalone="no"?><!DOCTYPE svg PUBLIC "-//W3C//DTD SVG 1.1//EN" "http://www.w3.org/Graphics/SVG/1.1/DTD/svg11.dtd"><svg class="icon" width="48px" height="37.18px" viewBox="0 0 1322 1024" version="1.1" xmlns="http://www.w3.org/2000/svg"><path d="M1322.108202 376.516579L707.350785 737.172775v218.582897l614.310646-363.113438z" fill="#99C9F2" /><path d="M1322.108202 376.516579L663.56719 0 51.937173 355.071553l655.413612 381.095986z" fill="#E0EFFB" /><path d="M0 322.680628l741.752182 432.474695v268.844677L0 591.972077V322.792321z" fill="#B8D9F6" /><path d="M772.244328 738.624782l-30.492146 16.530541v268.844677l30.492146-19.322862z" fill="#99C9F2" /><path d="M772.244328 738.624782L28.705061 307.937173 0 322.792321l741.752182 431.246073z" fill="#EBF5FC" /><path d="M122.080279 462.743455l0.111693 152.460733 9.382199 5.361257-0.111693-152.460733-9.382199-5.361257zM178.596859 495.692845L178.708551 648.041885l9.382199 5.472949-0.111692-152.460733-9.382199-5.361256zM244.495637 534.00349l-9.382199-5.472949 0.223386 152.460733 9.270506 5.472949-0.111693-152.460733zM291.74171 561.47993l0.111693 152.460733 9.382199 5.361257-0.223386-152.460733-9.270506-5.361257zM348.25829 594.429319l0.111693 152.460733 9.382199 5.361257-0.111693-152.460733-9.382199-5.361257zM414.157068 632.739965l-9.382199-5.361256 0.223386 152.460733 9.270506 5.361256-0.111693-152.460733zM461.403141 660.328098l0.111693 152.460733 9.382199 5.361256-0.223386-152.460733-9.270506-5.361256zM517.919721 693.165794l0.111693 152.460733 9.382199 5.472949-0.111693-152.460733-9.382199-5.472949zM583.818499 731.47644l-9.382199-5.361257 0.223386 152.460733 9.270506 5.361257-0.111693-152.460733z" fill="#5CA8EA" /><path d="M25.242583 419.071553l15.972077 11.727749v142.743455l-15.972077-11.169284V419.071553z" fill="#E0EFFB" /><path d="M82.876091 413.263525l-40.097731 20.104712v140.17452l40.097731-21.556719z" fill="#99C9F2" /><path d="M81.200698 410.69459l-16.865619-11.169285-39.092496 19.546248 15.972077 11.169285z" fill="#FFFFFF" /><path d="M629.38918 779.951134l15.972077 11.727749v142.743456l-15.972077-11.169285V779.951134z" fill="#E0EFFB" /><path d="M687.022688 773.696335l-40.097732 20.104712v140.621292l40.097732-21.556719z" fill="#99C9F2" /><path d="M685.347295 771.462478l-16.86562-11.169284-39.204188 19.322862 15.972077 11.169284z" fill="#FFFFFF" /></svg>