<?xml version="1.0" standalone="no"?><!DOCTYPE svg PUBLIC "-//W3C//DTD SVG 1.1//EN" "http://www.w3.org/Graphics/SVG/1.1/DTD/svg11.dtd"><svg class="icon" width="48px" height="48.00px" viewBox="0 0 1024 1024" version="1.1" xmlns="http://www.w3.org/2000/svg"><path d="M274.645148 717.838196l-1.27126-460.831782 206.791641-119.816263 1.27126 460.93772-206.791641 119.710325z" fill="#99C9F2" /><path d="M274.645148 717.838196L38.508587 580.648045 37.237327 119.710325l236.136561 137.296089 1.27126 460.831782z" fill="#B8D9F6" /><path d="M145.506311 263.256776l-69.707428-40.468446-0.317815-36.230912 69.601489 40.468446 0.423754 36.230912zM236.507345 313.577488l-69.707428-40.468446-0.317815-36.230912 69.60149 40.468446 0.423753 36.230912zM145.506311 319.510035l-69.707428-40.468446-0.317815-36.230912 69.601489 40.468446 0.423754 36.230912zM236.507345 369.830747l-69.707428-40.468446-0.317815-36.230913 69.60149 40.468446 0.423753 36.230913zM145.506311 375.763294l-69.707428-40.468446-0.317815-36.230913 69.601489 40.468447 0.423754 36.230912zM236.507345 426.084006l-69.707428-40.468446-0.317815-36.230913 69.60149 40.468446 0.423753 36.230913zM145.506311 432.016553l-69.707428-40.468446-0.317815-36.230913 69.601489 40.468446 0.423754 36.230913zM236.507345 482.337265l-69.707428-40.468446-0.317815-36.230913 69.60149 40.468446 0.423753 36.230913zM145.506311 488.269812l-69.707428-40.468446-0.317815-36.230913 69.601489 40.468446 0.423754 36.230913zM236.507345 538.590523l-69.707428-40.468446-0.317815-36.230912 69.60149 40.468446 0.423753 36.230912zM145.506311 544.523071l-69.707428-40.468447-0.317815-36.230912 69.601489 40.468446 0.423754 36.230913zM236.507345 594.843782l-69.707428-40.468446-0.317815-36.230912 69.60149 40.468446 0.423753 36.230912zM145.506311 600.776329l-69.707428-40.468446-0.317815-36.230912 69.601489 40.468446 0.423754 36.230912zM236.507345 651.097041l-69.707428-40.468446-0.317815-36.230912 69.60149 40.468446 0.423753 36.230912z" fill="#5CA8EA" /><path d="M273.373888 257.006414L37.237327 119.710325 244.028968 0l236.136561 137.190151-206.791641 119.816263z" fill="#E0EFFB" /><path d="M527.30809 870.919098l-1.27126-460.93772 206.791641-119.710325 1.27126 460.831782-206.791641 119.816263z" fill="#99C9F2" /><path d="M527.30809 870.919098L291.171529 733.623008l-1.27126-460.831781L526.03683 409.981378l1.27126 460.93772z" fill="#B8D9F6" /><path d="M398.063315 416.337678l-69.60149-40.468446-0.423753-36.33685 69.707428 40.574384 0.317815 36.230912zM489.170288 466.552452l-69.707428-40.468446-0.317816-36.230913 69.60149 40.468446 0.423754 36.230913zM398.063315 472.590937l-69.60149-40.468446-0.423753-36.336851 69.707428 40.574385 0.317815 36.230912zM489.170288 522.805711l-69.707428-40.468446-0.317816-36.230913 69.60149 40.468446 0.423754 36.230913zM398.063315 528.844196l-69.60149-40.468446-0.423753-36.336851 69.707428 40.574385 0.317815 36.230912zM489.170288 579.05897l-69.707428-40.468447-0.317816-36.230912 69.60149 40.468446 0.423754 36.230913zM398.063315 585.097455l-69.60149-40.468446-0.423753-36.336851 69.707428 40.574385 0.317815 36.230912zM489.170288 635.418167l-69.707428-40.574385-0.317816-36.230912 69.60149 40.468446 0.423754 36.336851zM398.063315 641.350714l-69.60149-40.468446-0.423753-36.230913 69.707428 40.468446 0.317815 36.230913zM489.170288 691.671426l-69.707428-40.468446-0.317816-36.336851 69.60149 40.468446 0.423754 36.336851zM398.063315 697.603973l-69.60149-40.468446-0.423753-36.230913 69.707428 40.468446 0.317815 36.230913zM489.170288 747.924684l-69.707428-40.468446-0.317816-36.33685 69.60149 40.468446 0.423754 36.33685zM398.063315 753.857232l-69.60149-40.468447-0.423753-36.230912 69.707428 40.468446 0.317815 36.230913zM489.170288 804.177943l-69.707428-40.468446-0.317816-36.336851 69.60149 40.468446 0.423754 36.336851z" fill="#5CA8EA" /><path d="M526.03683 409.981378L289.900269 272.791227l206.791641-119.710325L732.828471 290.271053 526.03683 409.981378z" fill="#E0EFFB" /><path d="M779.971032 1024l-1.27126-460.93772 206.791641-119.710325 1.27126 460.831782-206.791641 119.816263z" fill="#99C9F2" /><path d="M779.971032 1024L543.834471 886.703911l-1.27126-460.831782 236.136561 137.190151 1.27126 460.93772z" fill="#B8D9F6" /><path d="M650.726257 569.312642l-69.60149-40.468446-0.423753-36.230912 69.707428 40.468446 0.317815 36.230912zM741.83323 619.633354l-69.707428-40.468446-0.317815-36.230913 69.60149 40.468447 0.423753 36.230912zM650.726257 625.565901l-69.60149-40.468446-0.423753-36.230912 69.707428 40.468446 0.317815 36.230912zM741.83323 675.886613l-69.707428-40.468446-0.317815-36.230913 69.60149 40.468446 0.423753 36.230913zM650.726257 681.81916l-69.60149-40.468446-0.423753-36.230913 69.707428 40.468446 0.317815 36.230913zM741.83323 732.139872l-69.707428-40.468446-0.317815-36.230913 69.60149 40.468446 0.423753 36.230913zM650.726257 738.072419l-69.60149-40.468446-0.423753-36.230913 69.707428 40.468446 0.317815 36.230913zM741.83323 788.393131l-69.707428-40.468447-0.317815-36.230912L741.409477 752.162218l0.423753 36.230913zM650.726257 794.325678l-69.60149-40.468446-0.423753-36.230913 69.707428 40.468446 0.317815 36.230913zM741.83323 844.646389l-69.707428-40.468446-0.317815-36.230912 69.60149 40.468446 0.423753 36.230912zM650.726257 850.684875l-69.60149-40.574385-0.423753-36.230912 69.707428 40.468446 0.317815 36.336851zM741.83323 900.899648l-69.707428-40.468446-0.317815-36.230912 69.60149 40.468446 0.423753 36.230912zM650.726257 906.938134l-69.60149-40.574385-0.423753-36.230912 69.707428 40.468446 0.317815 36.336851zM741.83323 957.152907l-69.707428-40.468446-0.317815-36.230912 69.60149 40.468446 0.423753 36.230912z" fill="#5CA8EA" /><path d="M778.699772 563.06228L542.563211 425.872129l206.791641-119.816263 236.136561 137.296089-206.791641 119.710325z" fill="#E0EFFB" /></svg>