<?xml version="1.0" standalone="no"?><!DOCTYPE svg PUBLIC "-//W3C//DTD SVG 1.1//EN" "http://www.w3.org/Graphics/SVG/1.1/DTD/svg11.dtd"><svg class="icon" width="48px" height="44.32px" viewBox="0 0 1109 1024" version="1.1" xmlns="http://www.w3.org/2000/svg"><path d="M660.330123 0l13.247214 406.89254-29.878753-15.084419L660.330123 0zM941.325779 148.620208l13.247214 406.795845-29.878753-14.987724 16.631539-391.808121z" fill="#E0EFFB" /><path d="M0 563.151653l592.740321 320.543909v140.304438L0 703.456091v-140.207744z" fill="#B8D9F6" /><path d="M50.861568 637.316714l380.108026 206.54051v15.374504L50.861568 652.594523v-15.277809zM50.861568 681.506327l380.108026 206.54051v15.374504L50.861568 696.880831v-15.374504zM468.874032 863.002833l56.953352 31.715958v59.274032l-56.953352-31.619263v-59.370727z" fill="#5CA8EA" /><path d="M1105.610576 605.987535l-512.483475 277.708027v140.304438l512.483475-277.708026V605.987535z" fill="#99C9F2" /><path d="M1109.284986 606.08423L513.643815 290.084986 0 563.248347l592.740321 319.673655z" fill="#E0EFFB" /><path d="M558.026818 689.822096l-162.254202-87.799055 1.35373-175.114637 162.254202 87.799056-1.35373 175.114636z" fill="#B8D9F6" /><path d="M397.126346 426.908404l152.681397-79.870066 162.254202 87.895751-152.681397 79.773371-162.254202-87.799056z" fill="#EBF5FC" /><path d="M559.380548 514.70746l152.681397-79.773371-1.35373 175.017941-152.681397 79.870066 1.35373-175.114636z" fill="#99C9F2" /></svg>