<?xml version="1.0" standalone="no"?><!DOCTYPE svg PUBLIC "-//W3C//DTD SVG 1.1//EN" "http://www.w3.org/Graphics/SVG/1.1/DTD/svg11.dtd"><svg class="icon" width="48px" height="47.67px" viewBox="0 0 1031 1024" version="1.1" xmlns="http://www.w3.org/2000/svg"><path d="M0 538.168889l513.517037 299.804444V1024L0 723.911111V538.168889z" fill="#B8D9F6" /><path d="M1027.128889 538.168889L513.517037 837.973333V1024l516.551111-303.407407 0.758519-182.708149z" fill="#99C9F2" /><path d="M1030.826667 538.263704l-516.456297-294.874074L3.887407 538.168889l509.62963 298.951111z" fill="#E0EFFB" /><path d="M0 294.684444l513.517037 299.89926v185.647407L0 480.426667V294.779259z" fill="#B8D9F6" /><path d="M1027.128889 294.684444L513.517037 594.583704v185.647407l516.456296-302.743704 0.758519-182.708148z" fill="#99C9F2" /><path d="M907.093333 417.28l-1.896296-0.094815-267.946667 156.539259v26.453334l269.463704-158.056297 0.379259-24.841481zM637.25037 636.871111v26.453333L906.714074 505.362963l0.379259-24.841482-1.896296-0.094814-267.946667 156.444444zM907.093333 673.564444l-1.896296-0.094814-267.946667 156.539259v26.453333l269.463704-158.056296 0.379259-24.841482zM637.25037 893.155556v26.453333l269.463704-157.961482 0.379259-24.841481-1.896296-0.094815-267.946667 156.444445z" fill="#5CA8EA" /><path d="M1030.826667 294.779259L514.37037 0 3.887407 294.684444l509.62963 299.045926z" fill="#E0EFFB" /><path d="M868.788148 295.442963L515.318519 93.677037 165.925926 295.442963l348.823704 204.61037z" fill="#FFFFFF" /><path d="M708.645926 296.106667L516.266667 186.216296 326.068148 296.106667 515.982222 407.703704z" fill="#E0EFFB" /><path d="M154.168889 717.463704c-11.472593-5.973333-20.859259-1.232593-20.859259 10.619259a40.485926 40.485926 0 0 0 20.859259 32.142222c11.472593 5.973333 20.859259 1.232593 20.859259-10.619259a40.485926 40.485926 0 0 0-20.859259-32.142222zM224.616296 758.518519c-11.472593-5.973333-20.859259-1.232593-20.859259 10.619259a40.485926 40.485926 0 0 0 20.859259 32.142222c11.472593 5.973333 20.859259 1.232593 20.85926-10.619259a40.485926 40.485926 0 0 0-20.85926-32.142222zM295.158519 799.099259c-11.472593-5.973333-20.859259-1.232593-20.85926 10.61926a40.485926 40.485926 0 0 0 20.85926 32.142222c11.472593 5.973333 20.859259 1.232593 20.859259-10.61926a40.485926 40.485926 0 0 0-20.859259-32.142222zM154.168889 467.437037c-11.472593-5.973333-20.859259-1.232593-20.859259 10.619259a40.485926 40.485926 0 0 0 20.859259 32.142223c11.472593 5.973333 20.859259 1.232593 20.859259-10.61926a40.485926 40.485926 0 0 0-20.859259-32.142222zM224.616296 508.207407c-11.472593-5.973333-20.859259-1.232593-20.859259 10.61926a40.485926 40.485926 0 0 0 20.859259 32.142222c11.472593 5.973333 20.859259 1.232593 20.85926-10.619259a40.485926 40.485926 0 0 0-20.85926-32.142223zM295.158519 549.072593c-11.472593-5.973333-20.859259-1.232593-20.85926 10.619259a40.485926 40.485926 0 0 0 20.85926 32.142222c11.472593 5.973333 20.859259 1.232593 20.859259-10.619259a40.485926 40.485926 0 0 0-20.859259-32.142222z" fill="#5CA8EA" /></svg>