<?xml version="1.0" standalone="no"?><!DOCTYPE svg PUBLIC "-//W3C//DTD SVG 1.1//EN" "http://www.w3.org/Graphics/SVG/1.1/DTD/svg11.dtd"><svg class="icon" width="48px" height="48.00px" viewBox="0 0 1024 1024" version="1.1" xmlns="http://www.w3.org/2000/svg"><path d="M769.6896 50.0736a76.8 76.8 0 0 1 76.4416 69.4272l0.3584 7.3728v441.9584h114.3808a30.72 30.72 0 0 1 30.3104 25.7536l0.4096 4.9664a30.72 30.72 0 0 1-6.8608 19.3536l-3.6352 3.7888-184.576 161.3312a25.6 25.6 0 0 1-36.864-35.1744l3.1744-3.3792 143.4624-125.44h-80.2816a30.72 30.72 0 0 1-30.3104-25.7024l-0.4096-5.0176V126.8736a25.6 25.6 0 0 0-20.992-25.1392l-4.608-0.4608h-512a25.6 25.6 0 0 0-25.1904 20.992l-0.4096 4.608v462.4384a30.72 30.72 0 0 1-25.7024 30.3104l-5.0176 0.4096H121.0368l392.6528 343.2448 137.8816-120.5248a25.6 25.6 0 0 1 32.768-0.768l3.3792 3.1744a25.6 25.6 0 0 1 0.768 32.768l-3.2256 3.3792-151.3472 132.3008a30.72 30.72 0 0 1-36.352 3.0208l-4.096-3.0208-447.1296-390.912a30.72 30.72 0 0 1 14.9504-53.4016l5.2224-0.4608h114.3808V126.8736A76.8 76.8 0 0 1 250.368 50.432l7.3728-0.3584h512z" fill="#ffffff" /><path d="M718.4896 461.0048a25.6 25.6 0 0 1 25.1904 20.992l0.4096 4.608v49.8688a76.8 76.8 0 0 1-69.376 76.4928l-7.424 0.3072h-48.7936a25.6 25.6 0 0 1-4.608-50.7392l4.608-0.4608h48.7936a25.6 25.6 0 0 0 25.1904-20.992l0.4096-4.608v-49.8688a25.6 25.6 0 0 1 25.6-25.6z m-409.6 49.8688a25.6 25.6 0 0 1 25.1904 20.992l0.8192 9.216a25.6 25.6 0 0 0 20.5824 20.5824l4.608 0.4096h51.9168a25.6 25.6 0 0 1 4.608 50.7904l-4.608 0.4096H360.0896a76.8 76.8 0 0 1-76.8-76.8 25.6 25.6 0 0 1 25.6-25.6z m358.4-358.4a76.8 76.8 0 0 1 76.4416 69.4272l0.3584 7.3728v54.272a25.6 25.6 0 0 1-50.7904 4.608l-0.4096-4.608v-54.272a25.6 25.6 0 0 0-20.992-25.1392l-4.608-0.4608h-48.9472a25.6 25.6 0 0 1-4.608-50.7392l4.608-0.4608h48.9472z m-254.208 0a25.6 25.6 0 0 1 4.608 50.7904l-4.608 0.4096H360.0896a25.6 25.6 0 0 0-25.1904 20.992l-0.4096 4.608v53.1968a25.6 25.6 0 0 1-50.7904 4.608l-0.4096-4.608V229.2736A76.8 76.8 0 0 1 352.768 152.832l7.3728-0.3584h52.992z" fill="#ffffff" /><path d="M360.0896 229.2736m51.2 0l204.8 0q51.2 0 51.2 51.2l0 204.8q0 51.2-51.2 51.2l-204.8 0q-51.2 0-51.2-51.2l0-204.8q0-51.2 51.2-51.2Z" fill="#ffffff" fill-opacity=".5" /><path d="M616.0896 229.2736a51.2 51.2 0 0 1 51.2 51.2v204.8a51.2 51.2 0 0 1-51.2 51.2h-204.8a51.2 51.2 0 0 1-51.2-51.2v-204.8a51.2 51.2 0 0 1 51.2-51.2h204.8z m0 51.2h-204.8v204.8h204.8v-204.8z" fill="#ffffff" /></svg>