<?xml version="1.0" standalone="no"?><!DOCTYPE svg PUBLIC "-//W3C//DTD SVG 1.1//EN" "http://www.w3.org/Graphics/SVG/1.1/DTD/svg11.dtd"><svg class="icon" width="48px" height="48.00px" viewBox="0 0 1024 1024" version="1.1" xmlns="http://www.w3.org/2000/svg"><path d="M921.6 76.8H102.4A76.8 76.8 0 0 0 25.6 153.6v614.4A76.8 76.8 0 0 0 102.4 844.8h819.2a76.8 76.8 0 0 0 76.8-76.8V153.6A76.8 76.8 0 0 0 921.6 76.8z m-819.2 51.2h819.2a25.6 25.6 0 0 1 25.6 25.6v614.4a25.6 25.6 0 0 1-25.6 25.6H102.4a25.6 25.6 0 0 1-25.6-25.6V153.6a25.6 25.6 0 0 1 25.6-25.6z" fill="#ffffff" /><path d="M512 460.8m-204.8 0a204.8 204.8 0 1 0 409.6 0 204.8 204.8 0 1 0-409.6 0Z" fill="#ffffff" fill-opacity=".5" /><path d="M512 230.4a230.4 230.4 0 1 0 0 460.8 230.4 230.4 0 0 0 0-460.8z m0 51.2a179.2 179.2 0 1 1 0 358.4 179.2 179.2 0 0 1 0-358.4z" fill="#ffffff" /><path d="M870.4 896a25.6 25.6 0 0 1 4.608 50.7904L870.4 947.2H153.6a25.6 25.6 0 0 1-4.608-50.7904L153.6 896h716.8z" fill="#ffffff" /><path d="M645.0176 587.264a25.6 25.6 0 0 1 32.5632-3.9424l3.584 2.816 89.8048 84.6848a25.6 25.6 0 0 1-31.5392 40.1408l-3.584-2.8672-89.8048-84.6848a25.6 25.6 0 0 1-1.024-36.1984z" fill="#ffffff" /></svg>