<?xml version="1.0" standalone="no"?><!DOCTYPE svg PUBLIC "-//W3C//DTD SVG 1.1//EN" "http://www.w3.org/Graphics/SVG/1.1/DTD/svg11.dtd"><svg class="icon" width="48px" height="48.00px" viewBox="0 0 1024 1024" version="1.1" xmlns="http://www.w3.org/2000/svg"><path d="M870.4 742.4h-716.8a76.8 76.8 0 0 0-76.8 76.8v51.2a76.8 76.8 0 0 0 76.8 76.8h716.8a76.8 76.8 0 0 0 76.8-76.8v-51.2a76.8 76.8 0 0 0-76.8-76.8z m-716.8 51.2h716.8a25.6 25.6 0 0 1 25.6 25.6v51.2a25.6 25.6 0 0 1-25.6 25.6h-716.8a25.6 25.6 0 0 1-25.6-25.6v-51.2a25.6 25.6 0 0 1 25.6-25.6zM512.768 371.5584a25.6 25.6 0 0 1 25.1904 20.992l0.4096 4.608v269.6192a25.6 25.6 0 0 1-50.7904 4.608l-0.4096-4.608V397.1584a25.6 25.6 0 0 1 25.6-25.6zM726.8352 501.2992a25.6 25.6 0 1 1 19.6096 47.3088c-34.6112 14.336-61.1328 30.976-79.616 49.5616-16.2304 16.384-25.0368 39.1168-26.112 69.5296a25.6 25.6 0 0 1-51.2-1.792c1.536-42.7008 15.104-77.7216 40.96-103.7824 23.7056-23.8592 55.8592-44.032 96.3584-60.8256zM298.1888 501.2992a25.6 25.6 0 1 0-19.6096 47.3088c34.6624 14.336 61.1328 30.976 79.616 49.5616 16.2304 16.384 25.088 39.1168 26.112 69.5296a25.6 25.6 0 0 0 51.2-1.792c-1.536-42.7008-15.104-77.7216-40.96-103.7824-23.7056-23.8592-55.8592-44.032-96.3584-60.8256z" fill="#ffffff" /><path d="M511.488 243.5584m-153.6 0a153.6 153.6 0 1 0 307.2 0 153.6 153.6 0 1 0-307.2 0Z" fill="#ffffff" fill-opacity=".5" /><path d="M819.2 460.8m-102.4 0a102.4 102.4 0 1 0 204.8 0 102.4 102.4 0 1 0-204.8 0Z" fill="#ffffff" fill-opacity=".5" /><path d="M204.8 460.8m-102.4 0a102.4 102.4 0 1 0 204.8 0 102.4 102.4 0 1 0-204.8 0Z" fill="#ffffff" fill-opacity=".5" /><path d="M511.488 64.3584a179.2 179.2 0 1 0 0 358.4 179.2 179.2 0 0 0 0-358.4z m0 51.2a128 128 0 1 1 0 256 128 128 0 0 1 0-256zM819.2 332.8a128 128 0 1 0 0 256 128 128 0 0 0 0-256z m0 51.2a76.8 76.8 0 1 1 0 153.6 76.8 76.8 0 0 1 0-153.6zM204.8 332.8a128 128 0 1 0 0 256 128 128 0 0 0 0-256z m0 51.2a76.8 76.8 0 1 1 0 153.6 76.8 76.8 0 0 1 0-153.6z" fill="#ffffff" /></svg>