<?xml version="1.0" standalone="no"?><!DOCTYPE svg PUBLIC "-//W3C//DTD SVG 1.1//EN" "http://www.w3.org/Graphics/SVG/1.1/DTD/svg11.dtd"><svg class="icon" width="48px" height="48.00px" viewBox="0 0 1024 1024" version="1.1" xmlns="http://www.w3.org/2000/svg"><path d="M308.3776 281.6a25.6 25.6 0 0 1 4.608 50.7904l-4.608 0.4096H102.4c-12.9536 0-23.0912 8.0384-25.1904 17.92l-0.4096 3.7376v519.8848c0 10.24 8.704 19.4048 20.8896 21.2992L102.4 896h563.2c12.9536 0 23.0912-8.0384 25.1904-17.92l0.4096-3.7376v-151.7568a25.6 25.6 0 0 1 50.7904-4.608l0.4096 4.608v151.7568c0 38.2976-30.8224 69.0688-69.4784 72.5504L665.6 947.2H102.4c-39.5264 0-72.704-28.4672-76.4416-65.792L25.6 874.3424V354.4576c0-38.2976 30.8224-69.0688 69.4784-72.5504L102.4 281.6h205.9776z" fill="#ffffff" /><path d="M203.6224 536.2176a25.6 25.6 0 0 1 25.1904 20.992l0.4096 4.608-0.0512 179.2h136.448a25.6 25.6 0 0 1 25.1904 20.992l0.4096 4.608a25.6 25.6 0 0 1-20.992 25.1904l-4.608 0.4096H208.7424a30.72 30.72 0 0 1-30.3104-25.7024l-0.4096-5.0176v-199.68a25.6 25.6 0 0 1 25.6-25.6z" fill="#ffffff" /><path d="M615.68 614.4H460.8c-28.2624 0-51.2-20.8384-51.2-46.592V148.992C409.6 123.1872 432.5376 102.4 460.8 102.4h460.8c28.2624 0 51.2 20.8384 51.2 46.592v418.816c0 25.7536-22.9376 46.592-51.2 46.592h-305.92z" fill="#ffffff" fill-opacity=".5" /><path d="M921.6 102.4c28.2624 0 51.2 20.8384 51.2 46.592v418.816c0 25.7536-22.9376 46.592-51.2 46.592H460.8c-28.2624 0-51.2-20.8384-51.2-46.592V148.992C409.6 123.1872 432.5376 102.4 460.8 102.4h460.8z m0 460.8V153.6H460.8v409.6h460.8z" fill="#ffffff" /></svg>