<?xml version="1.0" standalone="no"?><!DOCTYPE svg PUBLIC "-//W3C//DTD SVG 1.1//EN" "http://www.w3.org/Graphics/SVG/1.1/DTD/svg11.dtd"><svg class="icon" width="48px" height="48.00px" viewBox="0 0 1024 1024" version="1.1" xmlns="http://www.w3.org/2000/svg"><path d="M438.857143 0m109.714286 0l365.714285 0q109.714286 0 109.714286 109.714286l0 365.714285q0 109.714286-109.714286 109.714286l-365.714285 0q-109.714286 0-109.714286-109.714286l0-365.714285q0-109.714286 109.714286-109.714286Z" fill="#4F8DFC" /><path d="M55.844571 752.201143A464.566857 464.566857 0 0 1 9.142857 548.571429C9.142857 291.053714 217.910857 82.285714 475.428571 82.285714S941.714286 291.053714 941.714286 548.571429 732.946286 1014.857143 475.428571 1014.857143a464.402286 464.402286 0 0 1-217.417142-53.686857 45.714286 45.714286 0 0 1 42.697142-80.859429A372.992 372.992 0 0 0 475.428571 923.428571c207.030857 0 374.857143-167.826286 374.857143-374.857142S682.459429 173.714286 475.428571 173.714286 100.571429 341.540571 100.571429 548.571429c0 57.526857 12.928 113.115429 37.504 163.657142a45.714286 45.714286 0 1 1-82.230858 39.972572z" fill="#181818" /><path d="M327.113143 710.418286c-12.013714 4.022857-18.450286-2.651429-14.500572-14.482286l59.812572-179.456c8.064-24.192 34.230857-50.340571 58.404571-58.404571l179.437715-59.794286c12.013714-4.022857 18.450286 2.651429 14.500571 14.482286l-59.812571 179.437714c-8.064 24.192-34.230857 50.358857-58.404572 58.404571l-179.437714 59.812572z" fill="#181818" /></svg>