<?xml version="1.0" standalone="no"?><!DOCTYPE svg PUBLIC "-//W3C//DTD SVG 1.1//EN" "http://www.w3.org/Graphics/SVG/1.1/DTD/svg11.dtd"><svg class="icon" width="48px" height="48.00px" viewBox="0 0 1024 1024" version="1.1" xmlns="http://www.w3.org/2000/svg"><path d="M590.464998 396.280017c-18.556972 89.528563-99.336687 156.929996-196.162495 156.929996s-177.605523-67.401433-196.162494-156.929996z" fill="#4F8DFC" /><path d="M394.302503 3.955028a353.09249 353.09249 0 0 1 197.888725 645.57077l64.027438 246.929348A39.232499 39.232499 0 0 1 618.241607 945.535002H170.363399a39.232499 39.232499 0 0 1-37.977058-49.079856l64.027438-246.929348A353.09249 353.09249 0 0 1 394.302503 3.955028z m0 78.464998a274.627492 274.627492 0 0 0-153.86986 502.175986 78.464998 78.464998 0 0 1 33.347624 78.151138l-1.41237 6.473362L221.051788 867.070004h346.462198l-51.276876-197.849492a78.464998 78.464998 0 0 1 26.638867-80.740482l5.296387-3.92325A274.627492 274.627492 0 0 0 394.302503 82.420026z" fill="#181818" /><path d="M736.252964 0.031778c18.439274-0.47079 40.880264 4.315575 68.853035 13.96677C910.602189 50.210144 982.789987 163.709764 982.789987 291.333083c0 77.444953-40.017149 152.025933-101.141382 211.698564l-6.002573 5.688712 74.149423 228.529306a39.232499 39.232499 0 0 1-32.719904 51.080714l-4.590202 0.274628H629.697497a39.232499 39.232499 0 0 1-4.590203-78.190371L629.697497 710.140009l228.764701-0.039233-65.361343-201.576579a39.232499 39.232499 0 0 1 8.395754-38.604779l3.844785-3.687855C864.700165 416.837847 904.324989 352.221921 904.324989 291.333083c0-95.648832-52.650014-178.390173-124.680881-203.14588-17.41923-5.96334-30.522884-9.023475-38.330152-9.611962l-3.020902-0.078465a39.232499 39.232499 0 0 1-2.04009-78.464998z" fill="#181818" /></svg>