<?xml version="1.0" standalone="no"?><!DOCTYPE svg PUBLIC "-//W3C//DTD SVG 1.1//EN" "http://www.w3.org/Graphics/SVG/1.1/DTD/svg11.dtd"><svg class="icon" width="48px" height="48.00px" viewBox="0 0 1024 1024" version="1.1" xmlns="http://www.w3.org/2000/svg"><path d="M833.417846 196.923077a118.153846 118.153846 0 0 1 117.996308 111.616l26.269538 472.615385a118.153846 118.153846 0 0 1-111.458461 124.494769l-6.537846 0.196923H164.273231a118.153846 118.153846 0 0 1-118.153846-118.153846l0.196923-6.537846 26.230154-472.615385A118.153846 118.153846 0 0 1 190.542769 196.923077H833.417846z m0 78.769231H190.582154a39.384615 39.384615 0 0 0-38.833231 32.807384l-0.512 4.411077L124.888615 786.589538V787.692308a39.384615 39.384615 0 0 0 34.776616 39.108923L164.273231 827.076923h695.414154l2.205538-0.078769a39.384615 39.384615 0 0 0 37.139692-36.903385v-4.568615l-26.269538-472.615385a39.384615 39.384615 0 0 0-34.894769-36.982154L833.417846 275.692308z" fill="#181818" /><path d="M236.307692 472.615385h551.384616v354.461538h-551.384616z" fill="#4F8DFC" /><path d="M727.394462 46.710154a39.384615 39.384615 0 0 1 49.58523 61.046154l-3.859692 3.072-238.276923 169.865846a39.384615 39.384615 0 0 1-41.550769 2.599384l-4.214154-2.638769L251.785846 110.788923A39.384615 39.384615 0 0 1 293.415385 44.110769l4.214153 2.638769 214.409847 153.481847 215.355077-153.521231z" fill="#181818" /><path d="M472.615385 236.307692m39.384615 0l0 0q39.384615 0 39.384615 39.384616l0 315.076923q0 39.384615-39.384615 39.384615l0 0q-39.384615 0-39.384615-39.384615l0-315.076923q0-39.384615 39.384615-39.384616Z" fill="#181818" /></svg>