<?xml version="1.0" standalone="no"?><!DOCTYPE svg PUBLIC "-//W3C//DTD SVG 1.1//EN" "http://www.w3.org/Graphics/SVG/1.1/DTD/svg11.dtd"><svg class="icon" width="48px" height="48.00px" viewBox="0 0 1024 1024" version="1.1" xmlns="http://www.w3.org/2000/svg"><path d="M512 0c282.781538 0 512 229.218462 512 512s-229.218462 512-512 512S0 794.781538 0 512 229.218462 0 512 0z m0 78.769231C272.738462 78.769231 78.769231 272.738462 78.769231 512s193.969231 433.230769 433.230769 433.230769 433.230769-193.969231 433.230769-433.230769S751.261538 78.769231 512 78.769231z" fill="#181818" /><path d="M830.424615 544.019692a320.039385 320.039385 0 0 1-636.84923 0z" fill="#4F8DFC" /><path d="M433.230769 236.307692m39.384616 0l0 0q39.384615 0 39.384615 39.384616l0 275.692307q0 39.384615-39.384615 39.384616l0 0q-39.384615 0-39.384616-39.384616l0-275.692307q0-39.384615 39.384616-39.384616Z" fill="#181818" /><path d="M433.230769 512m39.384616 0l275.692307 0q39.384615 0 39.384616 39.384615l0 0q0 39.384615-39.384616 39.384616l-275.692307 0q-39.384615 0-39.384616-39.384616l0 0q0-39.384615 39.384616-39.384615Z" fill="#181818" /></svg>