<?xml version="1.0" standalone="no"?><!DOCTYPE svg PUBLIC "-//W3C//DTD SVG 1.1//EN" "http://www.w3.org/Graphics/SVG/1.1/DTD/svg11.dtd"><svg class="icon" width="48px" height="48.00px" viewBox="0 0 1024 1024" version="1.1" xmlns="http://www.w3.org/2000/svg"><path d="M538.49 1016.64c-15.19 0-27.5-12.31-27.5-27.5V251.97c0-15.19 12.31-27.5 27.5-27.5s27.5 12.31 27.5 27.5v737.17c0 15.19-12.31 27.5-27.5 27.5z" fill="#4169E1" /><path d="M190.99 602.4c-7.04 0-14.08-2.68-19.45-8.05-10.74-10.74-10.74-28.15 0-38.89l347.51-347.51c10.74-10.74 28.15-10.74 38.89 0 10.74 10.74 10.74 28.15 0 38.89L210.43 594.35c-5.37 5.37-12.41 8.05-19.44 8.05z" fill="#4169E1" /><path d="M886 602.4c-7.04 0-14.08-2.68-19.45-8.05l-347.5-347.51c-10.74-10.74-10.74-28.15 0-38.89 10.74-10.74 28.15-10.74 38.89 0l347.5 347.51c10.74 10.74 10.74 28.15 0 38.89-5.37 5.37-12.41 8.05-19.44 8.05z" fill="#4169E1" /><path d="M931.65 76.83H145.33c-15.19 0-27.5-12.31-27.5-27.5s12.31-27.5 27.5-27.5h786.31c15.19 0 27.5 12.31 27.5 27.5s-12.3 27.5-27.49 27.5z" fill="#4169E1" /></svg>