<?xml version="1.0" standalone="no"?><!DOCTYPE svg PUBLIC "-//W3C//DTD SVG 1.1//EN" "http://www.w3.org/Graphics/SVG/1.1/DTD/svg11.dtd"><svg class="icon" width="48px" height="48.00px" viewBox="0 0 1024 1024" version="1.1" xmlns="http://www.w3.org/2000/svg"><path d="M512 85.333333C323.733333 85.333333 170.666667 238.4 170.666667 426.666667c0 123.306667 64.853333 234.773333 170.666666 295.573333V778.666667c0 17.706667 14.293333 32 32 32h277.333334c17.706667 0 32-14.293333 32-32v-56.426667c105.813333-60.8 170.666667-172.266667 170.666666-295.573333 0-188.266667-153.173333-341.333333-341.333333-341.333334z m124.373333 589.226667c-8.533333 4.266667-14.293333 11.733333-16.426666 20.266667-0.213333 0.853333-0.426667 1.706667-0.64 2.666666-0.213333 1.066667-0.32 2.133333-0.426667 3.2S618.666667 702.933333 618.666667 704v42.666667H405.333333v-42.666667c0-1.066667-0.106667-2.24-0.213333-3.306667s-0.213333-2.133333-0.426667-3.2c-1.6-9.6-7.68-18.24-17.066666-22.933333C293.333333 627.306667 234.666667 532.373333 234.666667 426.666667c0-152.96 124.373333-277.333333 277.333333-277.333334s277.333333 124.373333 277.333333 277.333334c0 105.706667-58.666667 200.64-152.96 247.893333z" fill="#ffffff" /><path d="M597.365333 618.677333a32 32 0 0 1-15.093333-60.245333A149.098667 149.098667 0 0 0 661.333333 426.666667a32 32 0 1 1 64 0c0 78.933333-43.274667 151.061333-112.938666 188.224a31.712 31.712 0 0 1-15.029334 3.786666zM650.666667 938.666667H373.333333a32 32 0 1 1 0-64h277.333334a32 32 0 1 1 0 64z" fill="#ffffff" /></svg>