<?xml version="1.0" standalone="no"?><!DOCTYPE svg PUBLIC "-//W3C//DTD SVG 1.1//EN" "http://www.w3.org/Graphics/SVG/1.1/DTD/svg11.dtd"><svg class="icon" width="48px" height="48.00px" viewBox="0 0 1024 1024" version="1.1" xmlns="http://www.w3.org/2000/svg"><path d="M506.0096 16.49664C228.71552 16.49664 3.92704 241.27488 3.92704 518.57408c0 277.2736 224.78848 502.07232 502.07232 502.07232s502.07232-224.79872 502.07232-502.07232c0-277.2992-224.78848-502.07744-502.0672-502.07744z m269.12256 369.54112l-312.40704 312.40192a33.4592 33.4592 0 0 1-47.32928 0l-156.20096-156.20096a33.46432 33.46432 0 0 1 0-47.32928 33.46944 33.46944 0 0 1 47.3344 0l132.53632 132.5312 288.73216-288.73728a33.46944 33.46944 0 1 1 47.3344 47.3344z m0 0" fill="#4F8DFC" /></svg>