<?xml version="1.0" standalone="no"?><!DOCTYPE svg PUBLIC "-//W3C//DTD SVG 1.1//EN" "http://www.w3.org/Graphics/SVG/1.1/DTD/svg11.dtd"><svg class="icon" width="48px" height="48.00px" viewBox="0 0 1024 1024" version="1.1" xmlns="http://www.w3.org/2000/svg"><path d="M684.691107 434.776198 513.02433 604.484368 341.355505 434.776198c-11.850909-11.713786-31.06553-11.713786-42.916439 0-11.850909 11.716856-11.850909 30.711466 0 42.427298l193.126532 190.918237c11.850909 11.713786 31.06246 11.713786 42.916439 0l193.124486-190.918237c11.850909-11.716856 11.850909-30.711466 0-42.427298C715.756637 423.062412 696.540993 423.062412 684.691107 434.776198zM513.49812 63.075571c-246.687402 0-446.664969 199.980637-446.664969 446.664969S266.810718 956.405509 513.49812 956.405509c246.684332 0 446.664969-199.980637 446.664969-446.664969S760.182452 63.075571 513.49812 63.075571zM513.49812 900.5729c-215.851093 0-390.83236-174.981267-390.83236-390.83236S297.647027 118.90818 513.49812 118.90818s390.83236 174.981267 390.83236 390.83236S729.349213 900.5729 513.49812 900.5729z" fill="#4169E1" /></svg>