<?xml version="1.0" standalone="no"?><!DOCTYPE svg PUBLIC "-//W3C//DTD SVG 1.1//EN" "http://www.w3.org/Graphics/SVG/1.1/DTD/svg11.dtd"><svg class="icon" width="32px" height="32.00px" viewBox="0 0 1024 1024" version="1.1" xmlns="http://www.w3.org/2000/svg"><path d="M160 896c-9.6 0-16-3.2-22.4-9.6-12.8-12.8-12.8-32 0-44.8L467.2 512 137.6 182.4c-12.8-12.8-12.8-32 0-44.8s32-12.8 44.8 0l352 352c12.8 12.8 12.8 32 0 44.8l-352 352c-6.4 6.4-12.8 9.6-22.4 9.6z" fill="#ffffff" /><path d="M512 896c-9.6 0-16-3.2-22.4-9.6-12.8-12.8-12.8-32 0-44.8L819.2 512 489.6 182.4c-12.8-12.8-12.8-32 0-44.8s32-12.8 44.8 0l352 352c12.8 12.8 12.8 32 0 44.8l-352 352c-6.4 6.4-12.8 9.6-22.4 9.6z" fill="#ffffff" /></svg>