<?xml version="1.0" standalone="no"?><!DOCTYPE svg PUBLIC "-//W3C//DTD SVG 1.1//EN" "http://www.w3.org/Graphics/SVG/1.1/DTD/svg11.dtd"><svg class="icon" width="48px" height="48.00px" viewBox="0 0 1024 1024" version="1.1" xmlns="http://www.w3.org/2000/svg"><path d="M830.27 296.27L539.68 128.54a55.36 55.36 0 0 0-55.36 0L193.73 296.27a55.35 55.35 0 0 0-27.68 48v335.51a55.35 55.35 0 0 0 27.68 48l290.59 167.68a55.36 55.36 0 0 0 55.36 0l290.59-167.73a55.35 55.35 0 0 0 27.68-48V344.22a55.35 55.35 0 0 0-27.68-47.95zM512 685c-95.4 0-173-77.62-173-173s77.6-173 173-173 173 77.62 173 173-77.59 173-173 173z" fill="#4169E1" /><path d="M512 512m-118.92 0a118.92 118.92 0 1 0 237.84 0 118.92 118.92 0 1 0-237.84 0Z" fill="#FF9600" /></svg>