<?xml version="1.0" standalone="no"?><!DOCTYPE svg PUBLIC "-//W3C//DTD SVG 1.1//EN" "http://www.w3.org/Graphics/SVG/1.1/DTD/svg11.dtd"><svg class="icon" width="48px" height="48.00px" viewBox="0 0 1024 1024" version="1.1" xmlns="http://www.w3.org/2000/svg"><path d="M849.84 903.89H179.57a37.84 37.84 0 1 1 0-75.67h670.27a37.84 37.84 0 0 1 0 75.67z" fill="#181818" /><path d="M147.14 157.95m27.03 0l145.94 0q27.03 0 27.03 27.03l0 578.37q0 27.03-27.03 27.03l-145.94 0q-27.03 0-27.03-27.03l0-578.37q0-27.03 27.03-27.03Z" fill="#4F8DFC" /><path d="M412 260.65m27.03 0l145.94 0q27.03 0 27.03 27.03l0 475.67q0 27.03-27.03 27.03l-145.94 0q-27.03 0-27.03-27.03l0-475.67q0-27.03 27.03-27.03Z" fill="#4F8DFC" /><path d="M676.86 352.54m27.03 0l145.94 0q27.03 0 27.03 27.03l0 383.78q0 27.03-27.03 27.03l-145.94 0q-27.03 0-27.03-27.03l0-383.78q0-27.03 27.03-27.03Z" fill="#4F8DFC" /></svg>