<?xml version="1.0" standalone="no"?><!DOCTYPE svg PUBLIC "-//W3C//DTD SVG 1.1//EN" "http://www.w3.org/Graphics/SVG/1.1/DTD/svg11.dtd"><svg class="icon" width="48px" height="48.00px" viewBox="0 0 1024 1024" version="1.1" xmlns="http://www.w3.org/2000/svg"><path d="M512 97.38c-195.84 0-355.19 159.3-355.19 355.13A354.49 354.49 0 0 0 330.92 758v76.7a27 27 0 0 0 27 27h308.1a27 27 0 0 0 27-27V758a354.49 354.49 0 0 0 174.17-305.49c0-195.83-159.35-355.13-355.19-355.13z m-85.68 194.86c-4.64 1.36-106.48 32.54-92.21 156a27 27 0 0 1-23.73 29.95 20.72 20.72 0 0 1-3.14 0.22 27 27 0 0 1-26.81-24c-15.73-136.27 79-199.73 131.3-214.27a27 27 0 0 1 14.59 52.05z" fill="#4F8DFC" /><path d="M663.35 953.65h-302.7a27 27 0 0 1 0-54.06h302.7a27 27 0 0 1 0 54.06z" fill="#181818" /></svg>