<?xml version="1.0" standalone="no"?><!DOCTYPE svg PUBLIC "-//W3C//DTD SVG 1.1//EN" "http://www.w3.org/Graphics/SVG/1.1/DTD/svg11.dtd"><svg class="icon" width="48px" height="48.00px" viewBox="0 0 1024 1024" version="1.1" xmlns="http://www.w3.org/2000/svg"><path d="M806.5 173.1H570.1v47.3h-268v-47.3h-31.5c-34.8 0-63.1 28.2-63.1 63.1V851c0 34.8 28.2 63.1 63.1 63.1h536c34.8 0 63.1-28.2 63.1-63.1V236.1c-0.1-34.8-28.3-63-63.2-63z" fill="#5E9EFC" /><path d="M570.1 141.6c0-17.4-14.1-31.5-31.5-31.5h-205c-17.4 0-31.5 14.1-31.5 31.5v31.5h268v-31.5z" fill="#4169E1" /><path d="M302.1 173.1h268v47.3h-268z" fill="#0797FC" /><path d="M507 220.4v162.2L478.2 361l-42.1-31.5-42.1 31.6-28.8 21.6V220.4H507m63.1 0h-268v197c0 21.7 20.7 39.4 46.2 39.4h12.1l75.8-56.6 75.8 56.6h12.1c25.5 0 46.2-17.7 46.2-39.4v-197h-0.2z" fill="#BFD8FE" /></svg>