<?xml version="1.0" standalone="no"?><!DOCTYPE svg PUBLIC "-//W3C//DTD SVG 1.1//EN" "http://www.w3.org/Graphics/SVG/1.1/DTD/svg11.dtd"><svg class="icon" width="48px" height="48.00px" viewBox="0 0 1024 1024" version="1.1" xmlns="http://www.w3.org/2000/svg"><path d="M517.312 72c-247.424 0-448 200.64-448 448 0 247.424 200.576 448 448 448 247.488 0 448-200.576 448-448C965.376 272.64 764.8 72 517.312 72zM320.192 407.232c0 0-14.656-200 196.224-200 210.88 0 198.08 198.08 198.08 198.08s1.728 62.4-69.696 117.376c-71.488 55.04-86.208 51.264-86.208 133.888L461.376 656.576c0 0-30.08-120.704 109.952-190.656C600.768 451.2 611.84 434.688 611.84 379.712S576.896 291.584 525.568 291.584c-51.328 0-104.512 9.216-104.512 113.728L320.192 407.232zM459.584 733.632l99.008 0 0 99.072-99.008 0 0-99.072Z" fill="#4169E1" /></svg>