<?xml version="1.0" standalone="no"?><!DOCTYPE svg PUBLIC "-//W3C//DTD SVG 1.1//EN" "http://www.w3.org/Graphics/SVG/1.1/DTD/svg11.dtd"><svg class="icon" width="48px" height="48.00px" viewBox="0 0 1024 1024" version="1.1" xmlns="http://www.w3.org/2000/svg"><path d="M512 64c-247.039484 0-448 200.960516-448 448S264.960516 960 512 960 960 759.039484 960 512 759.039484 64 512 64zM661.760516 535.967531l-160.25545 158.495686c-6.239161 6.14455-14.368821 9.247789-22.496761 9.247789-8.255235 0-16.512189-3.168606-22.751351-9.504099-12.416396-12.576374-12.320065-32.800753 0.25631-45.248112l137.407768-135.904314-136.287918-136.671523c-12.480043-12.512727-12.447359-32.768069 0.063647-45.248112 12.512727-12.512727 32.768069-12.447359 45.248112 0.063647l158.911974 159.359226c0.032684 0.032684 0.032684 0.063647 0.063647 0.096331s0.063647 0.032684 0.096331 0.063647c2.94326 2.975944 5.055665 6.431824 6.591802 10.047682 0.063647 0.127295 0.223626 0.25631 0.25631 0.383604C673.600645 512.767209 671.231931 526.592447 661.760516 535.967531z" fill="#4169E1" /></svg>