<?xml version="1.0" standalone="no"?><!DOCTYPE svg PUBLIC "-//W3C//DTD SVG 1.1//EN" "http://www.w3.org/Graphics/SVG/1.1/DTD/svg11.dtd"><svg class="icon" width="48px" height="48.00px" viewBox="0 0 1024 1024" version="1.1" xmlns="http://www.w3.org/2000/svg"><path d="M660.8 992h-544c-48 0-84.8-38.4-84.8-84.8V403.2C32 356.8 68.8 320 116.8 320h544c46.4 0 84.8 38.4 84.8 84.8v504c-3.2 44.8-40 83.2-84.8 83.2z" fill="#E1E1DF" /><path d="M992 249.6v652.8c0 49.6-40 88-89.6 88H281.6c-49.6 0-89.6-40-89.6-88V120C192 70.4 232 32 281.6 32h489.6" fill="#4E8DF6" /><path d="M844.8 254.4c-40 0-73.6-33.6-73.6-73.6V32L992 254.4h-147.2z" fill="#A7C7F8" /><path d="M596.8 830.4H377.6c-24 0-43.2-19.2-43.2-43.2 0-24 19.2-43.2 43.2-43.2h219.2c24 0 43.2 19.2 43.2 43.2 0 24-19.2 43.2-43.2 43.2zM771.2 832h-44.8c-24 0-44.8-19.2-44.8-44.8 0-24 19.2-44.8 44.8-44.8h44.8c24 0 44.8 19.2 44.8 44.8 0 24-20.8 44.8-44.8 44.8zM507.2 283.2h-131.2c-24 0-43.2-19.2-43.2-43.2 0-24 19.2-43.2 43.2-43.2h131.2c24 0 43.2 19.2 43.2 43.2 0 24-19.2 43.2-43.2 43.2zM758.4 633.6H379.2c-24 0-44.8-20.8-44.8-44.8V425.6c0-25.6 20.8-44.8 44.8-44.8h379.2c25.6 0 44.8 19.2 44.8 44.8v163.2c0 24-20.8 44.8-44.8 44.8z" fill="#FFFFFF" /></svg>