<?xml version="1.0" standalone="no"?><!DOCTYPE svg PUBLIC "-//W3C//DTD SVG 1.1//EN" "http://www.w3.org/Graphics/SVG/1.1/DTD/svg11.dtd"><svg class="icon" width="48px" height="48.00px" viewBox="0 0 1024 1024" version="1.1" xmlns="http://www.w3.org/2000/svg"><path d="M493.504 558.144a31.904 31.904 0 0 0 45.28 0l308.352-308.352a31.968 31.968 0 1 0-45.248-45.248l-285.728 285.728-294.176-294.144a31.968 31.968 0 1 0-45.248 45.248l316.768 316.768z" fill="#4169E1" /><path d="M801.888 460.576l-285.728 285.728-294.144-294.144a31.968 31.968 0 1 0-45.248 45.248l316.768 316.768a31.904 31.904 0 0 0 45.28 0l308.352-308.352a32 32 0 1 0-45.28-45.248z" fill="#4169E1" /></svg>