<?xml version="1.0" standalone="no"?><!DOCTYPE svg PUBLIC "-//W3C//DTD SVG 1.1//EN" "http://www.w3.org/Graphics/SVG/1.1/DTD/svg11.dtd"><svg class="icon" width="48px" height="48.00px" viewBox="0 0 1024 1024" version="1.1" xmlns="http://www.w3.org/2000/svg"><path d="M709.608 878.704l1.232-527.64a309.12 309.12 0 0 0-0.56-16.56 222.12 222.12 0 0 0-1.328-13.184c-0.632-4.88-1.76-11.36-2.72-16.192-0.752-3.832-2.096-8.872-3-12.672-1.136-4.8-3.256-11.048-4.84-15.72-1.24-3.648-3.2-8.384-4.584-11.976a163.16 163.16 0 0 0-7-15.16c-1.744-3.36-4.096-7.816-6.04-11.064a449.944 449.944 0 0 0-9.288-14.56 147.28 147.28 0 0 0-11.184-14.68c-4.816-5.48-11.168-12.88-16.576-17.784-2.656-2.416-6.08-5.768-8.88-8.024-5.464-4.416-12.776-10.296-18.624-14.176a195.84 195.84 0 0 0-18.328-11.008 31.512 31.512 0 0 0 3.248-13.616l0.264-93.432-0.016 0.32c0.184-12.952-8.088-25.952-24.896-36C542.584-4.688 486.832-5.248 451.952 14.32c-18.136 10.176-27.032 23.8-26.64 37.376-0.016-0.312-0.04-0.616-0.04-0.928l-0.264 93.44a31.536 31.536 0 0 0 3.224 13.744c-1.68 0.896-3.36 1.816-4.808 2.576-4.92 2.88-11.352 6.944-16.128 10.064-2.088 1.36-4.76 3.352-6.752 4.856a201.36 201.36 0 0 0-9.2 7.328c-4.048 3.52-9.384 8.32-13.176 12.12a215.776 215.776 0 0 0-40.936 57.224 273.52 273.52 0 0 0-6.64 14.816 221.952 221.952 0 0 0-11.992 40.296 302.72 302.72 0 0 0-2.56 16.128c-1.016 7.92-1.392 18.6-1.648 26.584l-1.224 527.64v0c0 1.104 0.032 2.208 0.08 3.32 0.04 0.696 0.072 1.4 0.128 2.096a67.16 67.16 0 0 1-0.128-2.096c0.112 3.128 0.32 6.56 0.568 9.32 0.256 2.752 0.92 6.384 1.336 9.12 0.656 4.28 2.24 9.856 3.512 13.984 1.368 4.48 3.632 10.336 5.664 14.56 2.488 5.168 6.32 11.816 9.36 16.688 3.072 4.92 8.016 10.936 11.816 15.32 3.184 3.68 7.856 8.208 11.424 11.52 2.44 2.256 5.8 5.184 8.48 7.152 5.536 4.08 13.04 9.368 18.888 12.96a205.84 205.84 0 0 0 23.928 12.216c10.112 4.408 19.16 7.248 24.568 8.944 1.808 0.56 11.496 3.52 25.056 6.184 13.6 2.672 25.32 3.712 25.44 3.72 3.824 0.336 8.928 0.856 12.768 0.984s8.968 0.376 12.816 0.416c3.856 0.04 8.992-0.104 12.84-0.16 7.592-0.088 15.576-0.944 25.68-2.032 0.112-0.008 12.16-1.408 25.552-4.44 7.72-1.76 16.856-4.16 25.328-7.112a304.048 304.048 0 0 0 13.832-5.2c3.408-1.392 7.856-3.504 11.216-5.032a134.44 134.44 0 0 0 14.416-7.704c5.88-3.696 13.752-8.624 19.16-12.984a266.24 266.24 0 0 0 12.704-11.016 97.6 97.6 0 0 0 7.304-7.584 275.744 275.744 0 0 0 11.304-14.416c1.736-2.384 3.68-5.808 5.216-8.32 1.656-2.68 3.504-6.456 4.856-9.304 1.2-2.552 2.616-6.04 3.664-8.664 1.04-2.608 2.24-6.176 2.976-8.896 1.12-4.16 2.384-9.76 3.168-13.984 0.696-3.752 1.04-8.424 1.264-12.792-0.04 0.472-0.112 0.936-0.16 1.4 0.048-0.464 0.12-0.928 0.16-1.392a64.96 64.96 0 0 0 0.256-5.656z" fill="#97C7EF" /><path d="M710.84 351.064l0 0c-0.024-4.968-0.248-11.6-0.56-16.56a222.12 222.12 0 0 0-1.32-13.184c-0.64-4.88-1.76-11.36-2.72-16.192-0.76-3.832-2.104-8.872-3-12.672-1.136-4.8-3.256-11.048-4.848-15.72-1.24-3.648-3.2-8.384-4.576-11.976a163.16 163.16 0 0 0-7.008-15.16c-1.744-3.36-4.096-7.816-6.04-11.064a449.944 449.944 0 0 0-9.288-14.56 147.28 147.28 0 0 0-11.184-14.68c-4.816-5.48-11.168-12.88-16.568-17.784-2.664-2.416-6.088-5.768-8.88-8.024-5.472-4.416-12.784-10.296-18.64-14.176a200.8 200.8 0 0 0-23.312-13.6 190.504 190.504 0 0 0-20.536-8.744c-2.896-1.008-6.76-2.368-9.712-3.184a284.48 284.48 0 0 0-16.792-4.12 119.568 119.568 0 0 0-8.24-1.4c-10.136-1.264-10.744-1.344-15.536-1.56a235.864 235.864 0 0 0-7.624-0.24c-2.28-0.024-5.336 0.056-7.624 0.088-2.352 0.032-5.496 0.248-7.84 0.448-4.744 0.4-11.04 1.272-15.736 1.992-2.704 0.416-6.28 1.144-8.936 1.784-3.056 0.736-7.152 1.672-10.152 2.608-5.44 1.704-12.64 4.136-17.952 6.192-4.04 1.568-9.272 4.016-13.176 5.888-2.936 1.408-6.736 3.544-9.624 5.064-4.92 2.88-11.344 6.944-16.12 10.056-2.096 1.36-4.768 3.36-6.752 4.864a201.36 201.36 0 0 0-9.2 7.328c-4.056 3.52-9.392 8.32-13.184 12.12a215.776 215.776 0 0 0-40.936 57.216 273.52 273.52 0 0 0-6.64 14.824 221.952 221.952 0 0 0-11.984 40.296 302.72 302.72 0 0 0-2.56 16.128c-1.024 7.92-1.392 18.6-1.648 26.584a67.152 67.152 0 0 0 1.928 16.224 68.616 68.616 0 0 1-1.928-16.224l-1.224 527.64v0c-0.008 1.104 0.032 2.208 0.08 3.32l0 0c0.104 3.128 0.32 6.56 0.56 9.32 0.256 2.752 0.92 6.384 1.344 9.12 0.648 4.272 2.24 9.848 3.504 13.984 1.376 4.48 3.64 10.336 5.672 14.56 2.48 5.168 6.32 11.816 9.36 16.688 3.072 4.92 8.008 10.928 11.808 15.32 3.184 3.68 7.856 8.2 11.424 11.512 2.44 2.264 5.8 5.184 8.48 7.16 5.544 4.072 13.04 9.36 18.896 12.96a205.84 205.84 0 0 0 23.928 12.208c10.112 4.416 19.16 7.256 24.56 8.944 1.808 0.568 11.496 3.528 25.056 6.192 13.6 2.664 25.32 3.712 25.44 3.72 3.824 0.336 8.928 0.856 12.768 0.984 3.848 0.12 8.976 0.368 12.824 0.416 3.848 0.04 8.984-0.112 12.84-0.16 7.584-0.088 15.568-0.944 25.68-2.032 0.112-0.016 12.16-1.408 25.552-4.44 7.72-1.76 16.856-4.168 25.328-7.112a304.048 304.048 0 0 0 13.824-5.2c3.416-1.4 7.864-3.504 11.216-5.032a134.104 134.104 0 0 0 14.424-7.704c5.872-3.704 13.744-8.624 19.152-12.984a266.24 266.24 0 0 0 12.704-11.016 97.6 97.6 0 0 0 7.312-7.584 275.744 275.744 0 0 0 11.304-14.416c1.728-2.384 3.672-5.816 5.216-8.32 1.648-2.688 3.504-6.464 4.848-9.312 1.208-2.552 2.624-6.04 3.672-8.656 1.04-2.616 2.24-6.184 2.968-8.904 1.12-4.152 2.384-9.752 3.168-13.984 0.696-3.744 1.04-8.416 1.264-12.784 0.168-1.888 0.256-3.776 0.256-5.664l1.24-527.624zM571.704 151.792c31.464 18.808 30.728 48.784-1.648 66.952-32.368 18.16-84.12 17.64-115.584-1.168-31.472-18.808-30.736-48.784 1.64-66.952 32.368-18.16 84.12-17.64 115.584 1.168z m-126.128 0.424z m-10.664 3.048z" fill="#E0E0E2" /><path d="M594.824 184.912c0.04-11.92-7.648-23.872-23.12-33.12-31.472-18.808-83.216-19.328-115.6-1.168l0.248-86.72c32.376-18.168 84.128-17.648 115.6 1.16 15.472 9.256 23.152 21.2 23.12 33.12l-0.24 86.72z" fill="#E0E0E2" /><path d="M431.584 97.728c0.04-12.32 8.32-24.592 24.768-33.824l-0.24 86.72c-16.456 9.232-24.736 21.52-24.768 33.832l0.24-86.72z" fill="#E0E0E2" /><path d="M431.344 184.456l0.24-86.72c-0.032 11.92 7.656 23.864 23.136 33.12 31.464 18.8 83.208 19.328 115.584 1.16 16.456-9.232 24.736-21.512 24.768-33.832l-0.24 86.72c-0.04 12.32-8.32 24.608-24.768 33.84-32.376 18.16-84.128 17.64-115.6-1.168-15.472-9.248-23.152-21.2-23.12-33.12z" fill="#D8D8DA" /><path d="M456.352 63.896c32.376-18.16 84.128-17.64 115.6 1.168 31.456 18.816 30.72 48.792-1.648 66.96-32.368 18.16-84.12 17.632-115.584-1.176-31.472-18.808-30.736-48.784 1.632-66.952z" fill="#E0E0E2" /><path d="M601.392 51.576c0.176-12.944-8.096-25.944-24.904-36C542.584-4.672 486.832-5.24 451.96 14.32c-18.144 10.184-27.04 23.8-26.648 37.384-0.008-0.312-0.04-0.624-0.04-0.936l-0.264 93.44c-0.04 12.84 8.24 25.712 24.92 35.68 33.896 20.256 89.648 20.824 124.528 1.256 17.72-9.952 26.64-23.184 26.68-36.448l0.264-93.432-0.008 0.32z" fill="#3D99E2" /><path d="M425.008 144.2l0.272-93.432c-0.04 12.84 8.24 25.712 24.912 35.68 33.904 20.264 89.656 20.832 124.528 1.264 17.728-9.952 26.648-23.184 26.688-36.456l-0.272 93.44c-0.032 13.264-8.96 26.496-26.68 36.44-34.88 19.576-90.632 19.008-124.528-1.256-16.672-9.968-24.952-22.84-24.92-35.68z" fill="#1D81CD" /><path d="M391.24 337.808c68.904-38.664 179.064-37.552 246.04 2.48 66.976 40.048 65.408 103.84-3.496 142.512-68.904 38.664-179.064 37.552-246.04-2.48-66.976-40.04-65.416-103.84 3.496-142.512z" fill="#B3D8F5" /><path d="M399.904 947.064a270.392 270.392 0 0 1-16.576-11.376 94.96 94.96 0 0 1-7.456-6.288c-3.12-2.904-7.224-6.88-10.024-10.104-3.336-3.856-7.672-9.12-10.368-13.44a169.552 169.552 0 0 1-8.216-14.656 101.6 101.6 0 0 1-4.976-12.776c-1.112-3.632-2.504-8.52-3.08-12.272-0.368-2.4-0.944-5.592-1.168-8.008-0.304-3.32-0.536-7.76-0.568-11.096-0.08 25.368 16.288 50.8 49.224 70.496 66.976 40.04 177.136 41.152 246.04 2.48 35.016-19.648 52.64-45.792 52.72-72-0.208 4.864-0.448 11.4-1.336 16.192a176.664 176.664 0 0 1-2.784 12.272c-0.64 2.392-1.696 5.52-2.608 7.816-0.92 2.304-2.16 5.36-3.216 7.6-1.184 2.496-2.808 5.816-4.256 8.16-1.36 2.208-3.064 5.216-4.584 7.312-2.832 3.896-6.8 8.968-9.92 12.648a85.76 85.76 0 0 1-6.416 6.656c-3.248 3.016-7.704 6.896-11.152 9.68-4.744 3.816-11.664 8.144-16.816 11.392-3.64 2.296-8.736 4.984-12.656 6.76-2.944 1.344-6.848 3.2-9.848 4.416-3.6 1.472-8.464 3.296-12.136 4.568-7.44 2.576-15.456 4.696-22.24 6.24-11.744 2.664-22.32 3.888-22.424 3.896-8.872 0.96-15.88 1.712-22.536 1.792-3.384 0.04-7.888 0.16-11.28 0.136-3.368-0.04-7.872-0.256-11.248-0.368-3.376-0.112-7.856-0.568-11.216-0.864a239.128 239.128 0 0 1-22.32-3.264 218.24 218.24 0 0 1-22-5.432c-4.744-1.488-12.688-3.976-21.56-7.848-2.944-1.28-6.84-3.064-9.704-4.52-3.44-1.76-8-4.176-11.296-6.2z" fill="#E0E0E2" /><path d="M686.288 405.688c2.344 27.904-15.208 56.192-52.504 77.12-68.904 38.656-179.064 37.552-246.04-2.496-35.144-21-51.4-48.552-48.976-75.576a59.736 59.736 0 0 1-0.224-5.184l-1.08 474.736c-0.064 25.368 16.296 50.8 49.232 70.496 66.976 40.04 177.136 41.152 246.04 2.48 35.016-19.648 52.64-45.792 52.72-72l1.072-474.736c0 1.72-0.08 3.44-0.24 5.16zM709.352 884.368z" fill="#97C7EF" /></svg>