<?xml version="1.0" standalone="no"?><!DOCTYPE svg PUBLIC "-//W3C//DTD SVG 1.1//EN" "http://www.w3.org/Graphics/SVG/1.1/DTD/svg11.dtd"><svg class="icon" width="48px" height="48.00px" viewBox="0 0 1024 1024" version="1.1" xmlns="http://www.w3.org/2000/svg"><path d="M239.616 360.8064S317.44 89.1904 552.6016 89.1904s302.3872 231.7824 315.0848 283.2384 19.968 133.9904-63.5904 177.5616c-80.4864 41.9328-174.3872 50.3296-242.8416 50.3296-116.8896 0-184.6272-17.152-246.1184-50.3296S212.9408 467.0464 239.616 360.8064z" fill="#FF576F" /><path d="M786.944 228.864c-38.0416-54.6816-75.2128-90.368-108.8512-113.4592-35.328-16.2304-76.8-26.1632-125.4912-26.1632-0.8704 0-1.6896 0.0512-2.5088 0.0512 176.5376 43.0592 232.1408 213.4528 249.1904 293.12 17.664 82.3808-29.3888 138.24-79.3088 180.4288 43.264-14.6944 71.7824-22.5792 110.2848-76.4416 38.5536-53.9648-12.3392-193.6896-43.3152-257.536z" fill="#F93A48" /><path d="M520.96 602.624c-114.3808 0-189.696-15.4112-260.0448-53.248-55.552-29.9008-115.2512-80.4352-83.3536-206.9504 0.6656-2.2528 14.1312-48.5888 46.6432-104.0896 2.8672-4.864 9.1136-6.5536 14.0288-3.6864 4.864 2.8672 6.5024 9.1136 3.6864 14.0288-31.1296 53.1456-44.3904 98.6112-44.544 99.072-28.2112 111.8208 21.1968 155.5968 73.2672 183.6032 67.072 36.0448 139.6224 50.7904 250.3168 50.7904 98.9696 0 182.0672-17.1008 247.04-50.8416 60.7744-31.5392 81.152-89.3952 60.7232-171.8784-16.5888-66.816-88.4224-284.8256-316.7232-284.8256-64.1024 0-122.4704 20.224-173.4656 60.16-4.4544 3.4816-10.9056 2.7136-14.3872-1.7408s-2.7136-10.9056 1.7408-14.3872C380.5696 75.776 443.1872 54.0672 512 54.0672c243.2 0 319.1296 229.888 336.64 300.3904 22.7328 91.5968-1.8944 159.0272-71.168 194.9696-67.9424 35.2768-154.2144 53.1968-256.512 53.1968z" fill="#010101" /><path d="M251.9552 223.9488c-1.9968 0-3.9936-0.5632-5.7856-1.792a10.27072 10.27072 0 0 1-2.6624-14.2336c10.3936-15.1552 21.504-29.44 32.9728-42.496 3.7376-4.2496 10.1888-4.6592 14.4384-0.9216 4.2496 3.7376 4.6592 10.1888 0.9216 14.4384a431.56992 431.56992 0 0 0-31.488 40.4992c-1.9456 2.9184-5.1712 4.5056-8.3968 4.5056zM512.768 462.592c-95.744 0-187.5456-50.0224-191.3856-52.1216a10.26048 10.26048 0 0 1 9.8816-17.9712c0.9216 0.512 91.136 49.6128 181.504 49.6128 90.624 0 184.5248-49.152 185.4976-49.664 5.0176-2.6624 11.2128-0.7168 13.824 4.2496 2.6624 5.0176 0.7168 11.2128-4.2496 13.824-4.0448 2.1504-99.4304 52.0704-195.072 52.0704z" fill="#010101" /><path d="M719.9744 562.7904c-69.5296 24.0128-142.6432 29.5424-199.0144 29.5424-83.2 0-142.336-8.3456-191.8976-24.6784 49.3568 21.504 142.1312 75.0592 142.1312 174.1312h91.3408c-0.0512 0-10.752-107.7248 157.44-178.9952z" fill="#EA3D56" /><path d="M589.824 592.384s-52.1728 37.376-65.28 153.7536h39.168s-5.5296-88.5248 72.1408-134.8096c53.248-33.9456 67.2256-40.8576 67.2256-40.8576l-113.2544 21.9136z" fill="#D3263F" /><path d="M562.4832 752.0256H471.1424c-5.632 0-10.24-4.608-10.24-10.24 0-91.8016-85.1968-142.592-135.936-164.7104a10.26048 10.26048 0 1 1 7.3216-19.1488c50.0224 16.4864 110.0288 24.1664 188.7232 24.1664 74.1376 0 139.9808-9.7792 195.6864-29.0304 5.2224-1.792 10.9056 0.8704 12.9024 5.9904 1.9968 5.1712-0.4608 10.9568-5.5808 13.1072-159.4368 67.5328-151.3984 167.5264-151.296 168.5504 0.3072 2.8672-0.6656 5.7344-2.6112 7.8848-1.9456 2.2016-4.7104 3.4304-7.6288 3.4304z m-81.408-20.48h71.2192c1.4848-24.576 13.6192-84.6848 91.1872-138.8544-37.888 6.5536-78.848 9.8816-122.4704 9.8816-47.104 0-87.808-2.7136-123.8528-8.3456 41.3184 29.7984 80.128 74.2912 83.9168 137.3184z" fill="#010101" /><path d="M499.3024 741.7856v127.0272c0 21.8112 11.264 34.4064 25.1904 34.4064h2.304c13.9264 0 25.1904-17.7152 25.1904-39.5264v-121.9072H499.3024z" fill="#485A8C" /><path d="M528.0256 747.4176v125.4912s-4.5568 18.2784-28.7744 17.9712c0.256 7.8336 26.1632 10.8032 35.2768 2.6112s14.0288-17.9712 13.7216-42.8032c-0.3072-24.832 0-106.5472 0-106.5472l-20.224 3.2768z" fill="#3D4A77" /><path d="M518.2976 913.4592h-3.1232c-24.2176 0-43.9296-22.3232-43.9296-49.7664v-121.9072c0-5.632 4.608-10.24 10.24-10.24h70.5024c5.632 0 10.24 4.608 10.24 10.24v121.9072c0.0512 27.4432-19.6608 49.7664-43.9296 49.7664z m-26.5728-161.4336v111.6672c0 16.128 10.5472 29.2864 23.4496 29.2864h3.1232c12.9536 0 23.4496-13.1584 23.4496-29.2864v-111.6672h-50.0224z" fill="#010101" /><path d="M576.0512 867.0208c-1.9968 29.3376-31.488 43.1616-45.7216 44.544l-3.2768-1.3824c-17.0496 0-40.0896-12.2368-41.1648-36.608-107.8784 3.9936-161.9456 18.3808-161.9456 44.4416 0 28.8768 101.4784 52.3264 226.6112 52.3264 125.1328 0 226.6112-23.3984 226.6112-52.3264 0-26.5216-90.5728-47.5136-201.1136-50.9952z" fill="#5E75AA" /><path d="M632.6272 877.0048s33.024 8.0384 51.5072 19.2c8.5504 5.1712 6.9632 18.0736-2.56 21.0944-32.256 10.24-111.36 25.6512-176.896 28.8256 60.8256 7.2704 214.7328 3.9424 244.1216-30.4128 7.8848-5.7344-1.1776-19.1488-10.4448-22.784-9.3184-3.6864-105.728-15.9232-105.728-15.9232z" fill="#485A8C" /><path d="M519.5776 964.4544c-10.0864 0-247.296-0.6144-247.296-54.4768 0-44.1856 160-52.4288 209.0496-53.9136 5.4272-0.3072 10.24 4.096 10.5472 9.6768 0.8704 15.2576 11.1104 27.2384 23.3472 27.2384h3.1232c12.288 0 22.5792-12.032 23.3984-27.3408 0.3072-5.5296 4.9664-9.9328 10.496-9.6768 35.84 0.9216 214.7328 7.7824 214.7328 54.0672-0.0512 53.8112-237.2608 54.4256-247.3984 54.4256z m-226.6624-54.4768c6.656 12.4416 86.4256 33.9968 226.7136 33.9968 140.2368 0 220.0064-21.5552 226.7136-33.9968-5.4784-9.8304-65.6384-29.3888-185.5488-33.3312-5.0688 21.2992-22.2208 36.8128-42.3936 36.8128h-3.1232c-20.0704 0-37.2224-15.4624-42.3424-36.608-117.76 4.4032-174.6432 23.296-180.0192 33.1264zM748.9024 561.8176c-4.096 0-7.936-2.4576-9.5232-6.5024-1.9968-5.1712 0.4096-10.9568 5.5296-13.1584l1.28-0.5632c4.1472-1.7408 8.96-0.5632 11.8272 2.8672l0.2048 0.2048c2.048 2.56 2.7648 5.9904 1.8432 9.216s-3.2768 5.7344-6.4 6.8608l-1.28 0.4608c-1.1776 0.4096-2.304 0.6144-3.4816 0.6144z" fill="#010101" /><path d="M344.3712 243.1488a10.24 10.24 0 0 1-8.5504-15.872c7.1168-10.752 15.3088-21.0944 24.3712-30.72 3.8912-4.096 10.3936-4.3008 14.4896-0.4096 4.096 3.8912 4.3008 10.3424 0.4096 14.4896a204.3392 204.3392 0 0 0-22.1696 27.9552c-1.9456 2.9184-5.2224 4.5568-8.5504 4.5568zM397.3632 187.2384a10.21952 10.21952 0 0 1-6.1952-18.3808c61.7984-46.7968 131.1744-57.4464 134.0928-57.856 5.5808-0.8704 10.8032 3.0208 11.6224 8.6528 0.8192 5.5808-3.0208 10.8032-8.6528 11.6224-0.6656 0.1024-67.2256 10.3936-124.672 53.9136-1.8432 1.3824-4.0448 2.048-6.1952 2.048zM470.2208 541.2864h-0.1024c-55.4496-0.4608-102.144-10.24-138.8544-29.0816-5.0176-2.56-7.0144-8.7552-4.4544-13.7728 2.56-5.0176 8.7552-7.0144 13.7728-4.4544 33.792 17.3568 77.4656 26.368 129.6384 26.7776a10.24 10.24 0 0 1 10.1376 10.3424c0.0512 5.6832-4.5568 10.1888-10.1376 10.1888zM308.1728 495.4112c-2.304 0-4.5568-0.768-6.4512-2.304-13.7216-11.2128-19.3536-20.1216-19.968-21.0944-2.9696-4.8128-1.4336-11.1104 3.4304-14.08 4.8128-2.9696 11.0592-1.4336 14.0288 3.328 0.1536 0.256 4.608 7.1168 15.4624 15.9744 4.4032 3.584 5.0176 10.0352 1.4336 14.3872-2.048 2.5088-4.9664 3.7888-7.936 3.7888zM351.9488 919.0912c-1.6896 0-3.4304-0.4096-5.0176-1.3312-4.9152-2.7648-6.656-9.0112-3.8912-13.9264 2.56-4.5568 12.8512-15.2064 52.6848-15.7184h0.1536c5.5808 0 10.1376 4.5056 10.24 10.0864 0.0512 5.632-4.4544 10.2912-10.0864 10.3936-26.88 0.3584-34.7648 5.5808-35.84 6.4512-2.048 2.6112-5.0688 4.0448-8.2432 4.0448z m8.96-5.1712c-0.0512 0 0 0 0 0z m0-0.0512s0 0.0512 0 0c0 0.0512 0 0 0 0z" fill="#FFFFFF" /></svg>