<?xml version="1.0" standalone="no"?><!DOCTYPE svg PUBLIC "-//W3C//DTD SVG 1.1//EN" "http://www.w3.org/Graphics/SVG/1.1/DTD/svg11.dtd"><svg class="icon" width="48px" height="48.00px" viewBox="0 0 1024 1024" version="1.1" xmlns="http://www.w3.org/2000/svg"><path d="M409.55904 509.0304c41.997653-64.580267 51.643733-139.516587 28.93824-224.795307L437.316267 279.893333h170.120533c-24.20736 87.08096-14.957227 163.457707 27.7504 229.137067C699.255467 607.5392 895.488 942.08 522.1376 942.08S345.4976 607.5392 409.565867 509.0304z" fill="#86C3FE" /><path d="M526.882133 942.08c-128.38912 0-189.99296-38.925653-212.855466-94.160213 23.668053 2.914987 49.759573 4.450987 78.45888 4.450986 291.601067 0 314.2656-158.993067 268.301653-313.064106l6.929067 11.5712C743.806293 679.85408 860.112213 942.08 526.882133 942.08z" fill="#71B7FA" /><path d="M607.66208 252.586667H437.090987c-17.6128 0-30.405973 16.882347-25.736534 33.9968l1.181014 4.348586c20.821333 78.103893 12.171947 145.230507-25.593174 203.229867-59.733333 91.716267-103.09632 182.306133-112.2304 265.577813C260.36224 890.456747 339.7632 969.386667 522.1376 969.386667c182.347093 0 261.850453-78.916267 247.671467-209.6128-9.038507-83.31264-52.435627-174.148267-111.998294-265.618774-38.413653-58.9824-46.71488-127.440213-24.446293-207.435093 4.77184-17.134933-8.02816-34.133333-25.7024-34.133333z m-33.6896 53.76l-1.037653 5.707093c-13.571413 78.445227-0.259413 149.408427 40.229546 211.57888 55.186773 84.753067 95.709867 169.588053 103.56736 241.978027 10.554027 97.25952-42.5984 150.016-194.594133 150.016-151.988907 0-205.038933-52.729173-194.362027-149.981867 7.939413-72.362667 48.448853-156.992853 103.81312-242.005333l3.8912-6.144c38.065493-61.713067 49.861973-131.8912 35.648854-209.3056l-0.354987-1.8432h103.19872z" fill="#7B7BA3" /><path d="M587.38688 657.087147c10.171733-10.704213 27.4432-11.4688 38.591147-1.693014 10.4448 9.15456 11.789653 24.316587 3.54304 35.00032l-1.774934 2.06848-40.946346 43.08992c-10.171733 10.704213-27.4432 11.4688-38.591147 1.693014-10.4448-9.15456-11.789653-24.316587-3.54304-35.00032l1.774933-2.06848 40.946347-43.08992zM622.639787 746.769067c9.570987-11.48928 26.25536-12.71808 37.2736-2.730667 10.328747 9.352533 12.014933 25.245013 4.3008 36.666027l-1.672534 2.225493-56.388266 67.734187c-9.557333 11.496107-26.248533 12.724907-37.2736 2.74432-10.32192-9.35936-12.00128-25.25184-4.287147-36.672854l1.665707-2.225493 56.388266-67.734187zM681.14432 56.29952c13.714773-5.188267 28.945067 1.979733 34.003627 16.008533 5.072213 14.0288-1.938773 29.600427-15.64672 34.781867-115.391147 43.6224-167.7312 121.767253-161.355094 239.807147 0.805547 14.92992-10.376533 27.702613-24.971946 28.52864-14.595413 0.8192-27.081387-10.60864-27.886934-25.53856-7.68-142.219947 59.057493-241.8688 195.857067-293.587627z" fill="#7B7BA3" /></svg>