<?xml version="1.0" standalone="no"?><!DOCTYPE svg PUBLIC "-//W3C//DTD SVG 1.1//EN" "http://www.w3.org/Graphics/SVG/1.1/DTD/svg11.dtd"><svg class="icon" width="48px" height="48.00px" viewBox="0 0 1024 1024" version="1.1" xmlns="http://www.w3.org/2000/svg"><path d="M486.73 913.01L140.83 712l-1.13-400.02 345.89 201.01z" fill="#DCAB78" /><path d="M485.59 512.99L139.7 311.98l348.12-200.99L833.71 312z" fill="#F1C18F" /><path d="M630.13 429.53l45.79-26.43-345.89-201.02-45.79 26.44z" fill="#FFFFFF" /><path d="M833.71 312l1.14 400.02-348.12 200.99-1.14-400.02z" fill="#D8A066" /><path d="M676.21 498.6l-0.27-95.5-45.82 26.45v95.66zM676.21 804.49l-0.27-95.5-45.82 26.45v95.66z" fill="#FFFFFF" /><path d="M265.53 752.02L163.97 693l-0.34-117.45 101.56 59.02z" fill="#FFFFFF" /><path d="M247.49 650.48l-0.03-9.05-65.79-38.24 0.03 9.06zM247.49 671.36l-0.03-9.05-65.79-38.23 0.03 9.05zM247.49 692.25l-0.03-9.06-65.79-38.23 0.03 9.05z" fill="#DCAB78" /></svg>