<?xml version="1.0" standalone="no"?><!DOCTYPE svg PUBLIC "-//W3C//DTD SVG 1.1//EN" "http://www.w3.org/Graphics/SVG/1.1/DTD/svg11.dtd"><svg class="icon" width="48px" height="48.00px" viewBox="0 0 1024 1024" version="1.1" xmlns="http://www.w3.org/2000/svg"><path d="M0 682.688l204.8 102.4v204.8L0 887.488v-204.8z m477.888 0v204.8l-204.8 102.4v-204.8l204.8-102.4z m-238.976-204.8L477.888 597.12 238.528 716.8 0 597.12l238.912-119.232z m307.2 204.8l204.8 102.4v204.8l-204.8-102.4v-204.8z m477.888 0v204.8l-204.8 102.4v-204.8l204.8-102.4z m-238.912-204.8L1024 597.12 784.704 716.8 546.112 597.12l238.976-119.232z m-512-273.088l204.8 102.4V512l-204.8-102.4V204.8z m477.824 0v204.8L546.112 512V307.2l204.8-102.4zM512 0l238.912 119.232-239.232 119.68-238.592-119.68L512 0z" fill="#7065EC" /></svg>