<?xml version="1.0" standalone="no"?><!DOCTYPE svg PUBLIC "-//W3C//DTD SVG 1.1//EN" "http://www.w3.org/Graphics/SVG/1.1/DTD/svg11.dtd"><svg class="icon" width="48px" height="48.00px" viewBox="0 0 1024 1024" version="1.1" xmlns="http://www.w3.org/2000/svg"><path d="M713.5 842.5H406.4c-34.4 0-62.5-28.1-62.5-62.5V495.8c0-34.4 28.1-62.5 62.5-62.5h307.1c34.4 0 62.5 28.1 62.5 62.5V780c0 34.4-28.2 62.5-62.5 62.5z" fill="#4169E1" /><path d="M647.1 866.5H374.9c-91.5 0-165.9-74.4-165.9-165.9v-243c0-91.5 74.4-165.9 165.9-165.9h272.3c91.5 0 165.9 74.4 165.9 165.9v243c0 91.4-74.5 165.9-166 165.9zM374.9 341.6c-63.9 0-115.9 52-115.9 115.9v243c0 63.9 52 115.9 115.9 115.9h272.3c63.9 0 115.9-52 115.9-115.9v-243c0-63.9-52-115.9-115.9-115.9H374.9zM815.1 193.6H206.7c-13.8 0-25-11.2-25-25s11.2-25 25-25h608.4c13.8 0 25 11.2 25 25s-11.2 25-25 25z" fill="#2c2c2c" /><path d="M370.9 335c-13.8 0-25-11.2-25-25V168.1c0-13.8 11.2-25 25-25s25 11.2 25 25V310c0 13.8-11.2 25-25 25zM512.1 696.1c-13.8 0-25-11.2-25-25V481c0-13.8 11.2-25 25-25s25 11.2 25 25v190.1c0 13.8-11.2 25-25 25zM654 335c-13.8 0-25-11.2-25-25V168.1c0-13.8 11.2-25 25-25s25 11.2 25 25V310c0 13.8-11.2 25-25 25z" fill="#2c2c2c" /><path d="M607.2 601.1H417c-13.8 0-25-11.2-25-25s11.2-25 25-25h190.1c13.8 0 25 11.2 25 25s-11.1 25-24.9 25z" fill="#2c2c2c" /></svg>