<?xml version="1.0" standalone="no"?><!DOCTYPE svg PUBLIC "-//W3C//DTD SVG 1.1//EN" "http://www.w3.org/Graphics/SVG/1.1/DTD/svg11.dtd"><svg class="icon" width="48px" height="48.00px" viewBox="0 0 1024 1024" version="1.1" xmlns="http://www.w3.org/2000/svg"><path d="M812.9 411.2L539.7 684.5c-16.8 16.8-44.2 16.8-60.9 0L352.9 558.7c-16.8-16.8-16.8-44.2 0-60.9l273.2-273.2c16.8-16.8 44.2-16.8 60.9 0l125.8 125.8c16.9 16.6 16.9 44.1 0.1 60.8z" fill="#4169E1" /><path d="M418.7 663.6c-17.4 0-34.9-6.6-48.1-19.9L244.7 517.9c-26.5-26.5-26.5-69.7 0-96.3L518 148.4c26.5-26.5 69.7-26.5 96.3 0L740 274.2c26.5 26.5 26.5 69.7 0 96.3l-74.8 74.8-35.4-35.4 74.8-74.8c7-7 7-18.5 0-25.6L578.9 183.8c-7-7-18.5-7-25.6 0L280.1 457c-7 7-7 18.5 0 25.6l125.8 125.8c7 7 18.5 7 25.6 0l93.5-93.5 35.4 35.4-93.5 93.5c-13.4 13.2-30.8 19.8-48.2 19.8zM313 744.7c-6.5 0-13.1-2.5-18-7.6L155.1 592.7c-9.6-9.9-9.4-25.7 0.6-35.4 9.9-9.6 25.7-9.4 35.4 0.6L331 702.3c9.6 9.9 9.4 25.7-0.6 35.4-4.9 4.7-11.1 7-17.4 7z" fill="#2c2c2c" /><path d="M582.9 581.3c-57.2 0-103.7-46.5-103.7-103.7s46.5-103.7 103.7-103.7 103.7 46.5 103.7 103.7c0 30.3-13.2 59-36.3 78.8-18.7 16.1-42.7 24.9-67.4 24.9z m0-157.3c-29.6 0-53.7 24.1-53.7 53.7s24.1 53.7 53.7 53.7c12.8 0 25.2-4.6 34.9-12.9 11.9-10.2 18.8-25.1 18.8-40.8 0-29.6-24.1-53.7-53.7-53.7z" fill="#2c2c2c" /><path d="M577.3 891.1l-26.7-42.3c70-44 108.5-93.8 114.4-147.7 8.9-80.1-56.9-146.6-57.6-147.3l35.1-35.6c3.4 3.4 83.5 83.5 72.2 187.9-7.5 70-53.7 132.3-137.4 185z" fill="#2c2c2c" /><path d="M869 892H212c-13.8 0-25-11.2-25-25s11.2-25 25-25h657c13.8 0 25 11.2 25 25s-11.2 25-25 25z" fill="#2c2c2c" /></svg>