<?xml version="1.0" standalone="no"?><!DOCTYPE svg PUBLIC "-//W3C//DTD SVG 1.1//EN" "http://www.w3.org/Graphics/SVG/1.1/DTD/svg11.dtd"><svg class="icon" width="48px" height="48.00px" viewBox="0 0 1024 1024" version="1.1" xmlns="http://www.w3.org/2000/svg"><path d="M604.7 363.6m-180.7 0a180.7 180.7 0 1 0 361.4 0 180.7 180.7 0 1 0-361.4 0Z" fill="#4169E1" /><path d="M896.2 817.2c0 85.5-137.9 66-308 66s-308 18.2-308-66c0-9.7 0.5-19.3 1.5-28.8 1.2-12 3.2-23.8 5.9-35.4 30.8-131 153.7-228.9 300.6-228.9 159.5 0 290.6 115.3 306.4 263.1 1 9.9 1.6 19.9 1.6 30z" fill="#4169E1" /><path d="M583.1 886.1c-19.9 0-41.2-0.4-63.8-0.9-24.3-0.5-49.4-1-75.4-1-25.1 0-49.3 0.4-72.7 0.8-106 1.8-182.6 3.2-220.4-33.9-14.3-14-21.5-32.2-21.5-54 0-9.9 0.5-19.9 1.5-29.7 1.3-12.2 3.3-24.5 6.1-36.5 15.4-65.7 54.3-125.3 109.4-167.9 27.4-21.1 58-37.6 91.1-49 34.1-11.7 69.9-17.7 106.5-17.7 78.2 0 153.2 27.6 211.1 77.7 57.8 50 94 118.2 101.9 192.1 1.1 10.2 1.6 20.6 1.6 30.8 0 22.1-7.3 40.5-21.7 54.7-29.5 29.1-82.1 34.5-153.7 34.5z m-139.2-51.8c26.5 0 51.8 0.5 76.4 1 47.3 0.9 88.1 1.7 121.1-1.3 30.9-2.8 51.2-8.8 60.5-17.8 3.1-3.1 6.7-8 6.7-19 0-8.5-0.5-17.1-1.4-25.5-13.7-128.3-126.9-225.1-263.3-225.1-123 0-231.6 82.4-258.3 195.9-2.3 9.9-4 20-5.1 30.1-0.8 8.1-1.3 16.4-1.3 24.6 0 10.6 3.5 15.4 6.6 18.4 9.3 9.1 30 15.2 61.4 18.1 33.5 3.1 75 2.3 123 1.5 23.7-0.5 48.2-0.9 73.7-0.9z" fill="#2c2c2c" /><path d="M439.2 545c-113.4 0-205.7-92.3-205.7-205.7s92.3-205.7 205.7-205.7c113.4 0 205.7 92.3 205.7 205.7S552.6 545 439.2 545z m0-361.4c-85.9 0-155.7 69.9-155.7 155.7 0 85.9 69.9 155.7 155.7 155.7s155.7-69.9 155.7-155.7c0-85.9-69.8-155.7-155.7-155.7z" fill="#2c2c2c" /><path d="M319.2 350.6c-19.6 0-40.8-2.5-63.6-8.1l11.9-48.6c70.3 17.2 129.4 0.5 175.7-49.6 35.7-38.7 50.2-82.6 50.3-83l47.6 15.4c-0.7 2.2-18 54.9-61.2 101.6-32.5 35.2-84.8 72.3-160.7 72.3z" fill="#2c2c2c" /><path d="M353.2 442.7c-23.1 0-48-2.9-74.8-9.5l11.9-48.6c86.1 21.1 158.5 0.6 215.2-60.8 43.5-47.1 61.1-100.7 61.3-101.2l47.6 15.4c-0.8 2.6-21.2 64.7-72.2 119.8-38.3 41.4-99.7 84.9-189 84.9z" fill="#2c2c2c" /></svg>