<?xml version="1.0" standalone="no"?><!DOCTYPE svg PUBLIC "-//W3C//DTD SVG 1.1//EN" "http://www.w3.org/Graphics/SVG/1.1/DTD/svg11.dtd"><svg class="icon" width="48px" height="48.00px" viewBox="0 0 1024 1024" version="1.1" xmlns="http://www.w3.org/2000/svg"><path d="M512 670.904949m-194.811063 0a194.811063 194.811063 0 1 0 389.622126 0 194.811063 194.811063 0 1 0-389.622126 0Z" fill="#4169E1" /><path d="M511.001593 804.837554a48.702766 48.702766 0 0 1-48.702765-48.702765v-170.45968a48.702766 48.702766 0 0 1 97.405531 0v170.45968a48.702766 48.702766 0 0 1-48.702766 48.702765z" fill="#0D0A16" /><path d="M840.743668 415.215429a68.183872 68.183872 0 0 1 68.183872 68.183872v375.011296a68.183872 68.183872 0 0 1-68.183872 68.183872H183.256332a68.183872 68.183872 0 0 1-68.183872-68.183872v-375.011296a68.183872 68.183872 0 0 1 68.183872-68.183872h657.487336m0-97.405531H183.256332a165.784214 165.784214 0 0 0-165.589404 165.589403v375.011296a165.759863 165.759863 0 0 0 165.589404 165.589403h657.487336a165.759863 165.759863 0 0 0 165.589404-165.589403v-375.011296a165.784214 165.784214 0 0 0-165.589404-165.589403z" fill="#0D0A16" /><path d="M772.194526 364.150579h-97.405532v-103.956053a162.788994 162.788994 0 0 0-325.577988 0v73.833392h-97.405532v-73.833392a260.194526 260.194526 0 0 1 520.389052 0z" fill="#0D0A16" /></svg>