<?xml version="1.0" standalone="no"?><!DOCTYPE svg PUBLIC "-//W3C//DTD SVG 1.1//EN" "http://www.w3.org/Graphics/SVG/1.1/DTD/svg11.dtd"><svg class="icon" width="48px" height="48.00px" viewBox="0 0 1024 1024" version="1.1" xmlns="http://www.w3.org/2000/svg"><path d="M550.6 353m-70.5 0a70.5 70.5 0 1 0 141 0 70.5 70.5 0 1 0-141 0Z" fill="#2c2c2c" /><path d="M662.2 352.1h80.2c29.8 0 54.3 24.4 54.3 54.3v406c0 29.8-24.4 54.3-54.3 54.3H367.9c-29.8 0-54.3-24.4-54.3-54.3v-406c0-29.8 24.4-54.3 54.3-54.3h294.3z" fill="#4169E1" /><path d="M732.6 891.6H290.1c-49.1 0-89.1-40-89.1-89.1V322.8c0-49.1 40-89.1 89.1-89.1h111c13.8 0 25 11.2 25 25s-11.2 25-25 25h-111c-21.6 0-39.1 17.5-39.1 39.1v479.7c0 21.6 17.5 39.1 39.1 39.1h442.5c21.6 0 39.1-17.5 39.1-39.1V322.8c0-21.6-17.5-39.1-39.1-39.1H620.1c-13.8 0-25-11.2-25-25s11.2-25 25-25h112.5c49.1 0 89.1 40 89.1 89.1v479.7c0 49.1-40 89.1-89.1 89.1z" fill="#2c2c2c" /><path d="M619 283.2c-13.8 0-25-11.2-25-25 0-18.3-8.7-37.2-23.8-51.7-16.1-15.4-37-23.9-58.8-23.9s-42.7 8.5-58.8 23.9c-15.1 14.5-23.8 33.4-23.8 51.7 0 13.8-11.2 25-25 25s-25-11.2-25-25c0-31.9 14.3-63.9 39.2-87.8 25.5-24.4 58.6-37.9 93.4-37.9s68 13.4 93.4 37.9c24.9 23.9 39.2 55.9 39.2 87.8 0 13.8-11.2 25-25 25z" fill="#2c2c2c" /><path d="M653.4 400.5H365.7c-32.7 0-59.4-26.6-59.4-59.4v-56.9c0-13.8 11.2-25 25-25s25 11.2 25 25v56.9c0 5.1 4.3 9.4 9.4 9.4h287.6c5.1 0 9.4-4.3 9.4-9.4v-56.9c0-13.8 11.2-25 25-25s25 11.2 25 25v56.9c0 32.8-26.6 59.4-59.3 59.4zM511.3 625.2c-52.6 0-95.5-42.8-95.5-95.5 0-52.6 42.8-95.5 95.5-95.5s95.5 42.8 95.5 95.5c0 52.6-42.8 95.5-95.5 95.5z m0-141c-25.1 0-45.5 20.4-45.5 45.5s20.4 45.5 45.5 45.5 45.5-20.4 45.5-45.5-20.4-45.5-45.5-45.5z" fill="#2c2c2c" /><path d="M638.7 759.3c-13.8 0-25-11.2-25-25 0-58.2-44.8-105.5-99.8-105.5s-99.8 47.3-99.8 105.5c0 13.8-11.2 25-25 25s-25-11.2-25-25c0-85.7 67.2-155.5 149.8-155.5s149.8 69.7 149.8 155.5c0 13.8-11.1 25-25 25z" fill="#2c2c2c" /></svg>