<?xml version="1.0" standalone="no"?><!DOCTYPE svg PUBLIC "-//W3C//DTD SVG 1.1//EN" "http://www.w3.org/Graphics/SVG/1.1/DTD/svg11.dtd"><svg class="icon" width="48px" height="48.00px" viewBox="0 0 1024 1024" version="1.1" xmlns="http://www.w3.org/2000/svg"><path d="M596.5 248.1h-97.8V459L293.5 847.5h469.3l45.7-16.1-10.6-65.6-89.1-186.3-112.3-201.3z" fill="#4169E1" /><path d="M653.1 198.1H365.3c-13.8 0-25-11.2-25-25s11.2-25 25-25h287.8c13.8 0 25 11.2 25 25s-11.2 25-25 25z" fill="#2c2c2c" /><path d="M214.6 790.8c-4 0-8-1-11.8-3-12.2-6.5-16.8-21.7-10.2-33.8l209-390.5V173.1c0-13.8 11.2-25 25-25s25 11.2 25 25V376L236.7 777.6c-4.5 8.4-13.2 13.2-22.1 13.2z" fill="#2c2c2c" /><path d="M214.6 790.8c-4 0-8-1-11.8-3-12.2-6.5-16.8-21.7-10.2-33.8l211.9-396c6.5-12.2 21.7-16.8 33.8-10.2 12.2 6.5 16.8 21.7 10.2 33.8l-211.8 396c-4.5 8.4-13.2 13.2-22.1 13.2zM808.5 790.8c-8.9 0-17.6-4.8-22.1-13.2L571.5 376V173.1c0-13.8 11.2-25 25-25s25 11.2 25 25v190.4l209 390.5c6.5 12.2 1.9 27.3-10.2 33.8-3.8 2.1-7.8 3-11.8 3z" fill="#2c2c2c" /><path d="M755.4 882.6H267.7c-47.3 0-85.7-38.5-85.7-85.7 0-15.2 4.1-30.2 11.8-43.4 7-11.9 22.3-15.8 34.2-8.8 11.9 7 15.9 22.3 8.8 34.2-3.2 5.4-4.9 11.7-4.9 18 0 19.7 16 35.7 35.7 35.7h487.7c19.7 0 35.7-16 35.7-35.7 0-5-1-9.9-3.1-14.4-5.7-12.6 0-27.4 12.6-33 12.6-5.7 27.4 0 33 12.6 5 11 7.5 22.8 7.5 34.9 0.1 47.2-38.3 85.6-85.6 85.6zM396.7 737.2c-79.3 0-139.6-56.3-142.2-58.8-10-9.5-10.4-25.3-0.9-35.3 9.5-10 25.3-10.4 35.3-1 0.5 0.5 29 26.8 69 39 50.2 15.3 96.1 1.3 136.3-41.5 40.3-43 84.7-65.9 132-68.3 42.3-2.1 84.9 12.3 126.7 42.9 11.1 8.1 13.6 23.8 5.4 34.9-8.1 11.2-23.8 13.6-34.9 5.4-68.8-50.3-133.6-43.8-192.7 19.2-38.1 40.6-81.5 61.9-129 63.3-1.7 0.1-3.4 0.2-5 0.2z" fill="#2c2c2c" /><path d="M543.3 513.1m-34.2 0a34.2 34.2 0 1 0 68.4 0 34.2 34.2 0 1 0-68.4 0Z" fill="#2c2c2c" /></svg>