<?xml version="1.0" standalone="no"?><!DOCTYPE svg PUBLIC "-//W3C//DTD SVG 1.1//EN" "http://www.w3.org/Graphics/SVG/1.1/DTD/svg11.dtd"><svg class="icon" width="48px" height="48.00px" viewBox="0 0 1024 1024" version="1.1" xmlns="http://www.w3.org/2000/svg"><path d="M394.496258 423.128199m114.451771 0l286.129429 0q114.451772 0 114.451771 114.451772l0 286.129429q0 114.451772-114.451771 114.451771l-286.129429 0q-114.451772 0-114.451771-114.451771l0-286.129429q0-114.451772 114.451771-114.451772Z" fill="#E3F5E5" /><path d="M429.747403 498.637756h-110.503185a57.225886 57.225886 0 0 1-57.225886-56.68224v-110.503186a57.225886 57.225886 0 0 1 57.225886-57.225885h110.503185a57.225886 57.225886 0 0 1 56.68224 57.225885v110.503186a56.68224 56.68224 0 0 1-56.68224 56.68224z m-106.411534-61.174472h101.919302v-101.919303h-101.919302z" fill="#47BC52" /><path d="M716.792446 498.637756h-110.903766a56.68224 56.68224 0 0 1-56.68224-56.68224v-110.503186a57.225886 57.225886 0 0 1 56.68224-57.225885h110.903766a57.225886 57.225886 0 0 1 56.68224 57.225885v110.503186a56.68224 56.68224 0 0 1-56.68224 56.68224z m-106.411534-61.174472h101.919302v-101.919303h-101.919302z" fill="#47BC52" /><path d="M429.747403 790.575612h-110.503185a57.225886 57.225886 0 0 1-57.225886-57.225886v-110.360121a57.225886 57.225886 0 0 1 57.225886-56.682239h110.503185a56.68224 56.68224 0 0 1 56.68224 56.682239v110.503186a57.225886 57.225886 0 0 1-56.68224 57.225886z m-106.411534-61.174472h101.919302v-101.919303h-101.919302z" fill="#47BC52" /><path d="M716.792446 795.067844h-110.903766a56.68224 56.68224 0 0 1-56.68224-56.596401v-110.989606a56.68224 56.68224 0 0 1 56.68224-56.682239h110.903766a57.225886 57.225886 0 0 1 56.68224 56.682239v110.989606a56.68224 56.68224 0 0 1-56.68224 56.68224z m-106.411534-61.174472h101.919302v-101.919302h-101.919302z" fill="#47BC52" /><path d="M150.857049 379.5793a30.987817 30.987817 0 0 1-30.587236-30.587236V165.525875A30.987817 30.987817 0 0 1 150.857049 134.938639h183.46619a30.587236 30.587236 0 0 1 0 61.174472H181.444285v152.878953a30.987817 30.987817 0 0 1-30.587236 30.587236z" fill="#47BC52" /><path d="M884.779034 379.5793a30.987817 30.987817 0 0 1-30.587236-30.587236V196.113111h-152.878954a30.587236 30.587236 0 0 1 0-61.174472h183.494803a30.987817 30.987817 0 0 1 30.558623 30.587236v183.466189a30.987817 30.987817 0 0 1-30.587236 30.587236z" fill="#47BC52" /><path d="M884.779034 930.006483h-183.46619a30.587236 30.587236 0 1 1 0-61.174472h152.907567v-152.878954a30.587236 30.587236 0 1 1 61.174472 0v183.494803a30.987817 30.987817 0 0 1-30.615849 30.558623z" fill="#47BC52" /><path d="M334.323239 930.006483H150.857049a30.987817 30.987817 0 0 1-30.587236-30.587236v-183.46619a30.587236 30.587236 0 0 1 61.174472 0v152.907567h152.878954a30.587236 30.587236 0 1 1 0 61.174472z" fill="#47BC52" /></svg>