<?xml version="1.0" standalone="no"?><!DOCTYPE svg PUBLIC "-//W3C//DTD SVG 1.1//EN" "http://www.w3.org/Graphics/SVG/1.1/DTD/svg11.dtd"><svg class="icon" width="48px" height="48.00px" viewBox="0 0 1024 1024" version="1.1" xmlns="http://www.w3.org/2000/svg"><path d="M731.428571 0c161.590857 0 292.571429 130.980571 292.571429 292.571429s-130.980571 292.571429-292.571429 292.571428-292.571429-130.980571-292.571428-292.571428S569.837714 0 731.428571 0z" fill="#4169E1" /><path d="M521.142857 228.571429m-82.285714 0a82.285714 82.285714 0 1 0 164.571428 0 82.285714 82.285714 0 1 0-164.571428 0Z" fill="#2c2c2c" /><path d="M521.142857 356.571429a128 128 0 1 0 0-256 128 128 0 0 0 0 256z m0-91.428572a36.571429 36.571429 0 1 1 0-73.142857 36.571429 36.571429 0 0 1 0 73.142857z" fill="#2c2c2c" /><path d="M73.142857 728.374857C73.142857 487.698286 206.08 237.714286 512 237.714286s438.857143 249.965714 438.857143 490.660571c0 13.348571-0.603429 26.569143-1.792 39.625143H74.934857A438.308571 438.308571 0 0 1 73.142857 728.374857z" fill="#2c2c2c" /><path d="M73.142857 728.374857C73.142857 487.698286 206.08 237.714286 512 237.714286s438.857143 249.965714 438.857143 490.660571c0 13.348571-0.603429 26.569143-1.792 39.625143H74.934857A438.308571 438.308571 0 0 1 73.142857 728.374857zM857.234286 676.571429C839.552 470.747429 714.88 329.142857 512 329.142857S184.466286 470.747429 166.765714 676.571429h690.468572z" fill="#2c2c2c" /><path d="M73.142857 841.142857m54.857143 0l768 0q54.857143 0 54.857143 54.857143l0 0q0 54.857143-54.857143 54.857143l-768 0q-54.857143 0-54.857143-54.857143l0 0q0-54.857143 54.857143-54.857143Z" fill="#2c2c2c" /></svg>