<?xml version="1.0" standalone="no"?><!DOCTYPE svg PUBLIC "-//W3C//DTD SVG 1.1//EN" "http://www.w3.org/Graphics/SVG/1.1/DTD/svg11.dtd"><svg class="icon" width="48px" height="47.95px" viewBox="0 0 1025 1024" version="1.1" xmlns="http://www.w3.org/2000/svg"><path d="M668.407311 668.407311m-252.509429 0a252.509428 252.509428 0 1 0 505.018857 0 252.509428 252.509428 0 1 0-505.018857 0Z" fill="#E3F5E5" /><path d="M926.293705 333.817464a454.814041 454.814041 0 1 0-99.845199 492.720163 454.516971 454.516971 0 0 0 99.845199-492.720163zM219.920859 220.00998a404.015086 404.015086 0 0 1 424.928807-92.745228l-253.935364 256.222802a19.279838 19.279838 0 0 0-4.188686 6.357297 164.665854 164.665854 0 0 0-46.224078 128.601566l-195.798782-194.13519A401.489991 401.489991 0 0 1 219.920859 220.00998z m370.416478 192.263649a19.339252 19.339252 0 0 0 3.148941 4.129272l9.625065 9.535944a126.106179 126.106179 0 0 1-187.391703 168.141573q-2.138903-2.138903-4.188686-4.396635a18.804526 18.804526 0 0 0-2.970699-3.891616l-2.020075-2.020075a126.076472 126.076472 0 0 1 183.915985-171.498463zM127.948013 362.514418l249.538729 247.280998q5.020482 5.941398 10.724224 11.882797a164.517319 164.517319 0 0 0 116.689063 48.244154q7.426748 0 14.853496-0.653554l-194.640209 196.363215a402.915927 402.915927 0 0 1-197.165303-503.11761z m661.782651 427.216246a403.450653 403.450653 0 0 1-426.265622 92.418451l254.380969-256.727821a17.616246 17.616246 0 0 0 1.396229-1.574471l2.346852-2.287438a163.952887 163.952887 0 0 0 48.303568-116.689063q0-6.743487-0.534726-13.42756l195.739368 194.075776a401.222628 401.222628 0 0 1-75.366638 104.212126z m92.091674-142.593559l-249.835799-247.548361q-4.931361-5.941398-10.456861-11.496606a163.952887 163.952887 0 0 0-116.689063-48.333275 166.775051 166.775051 0 0 0-16.932985 0.861503l195.382883-197.076183a403.005048 403.005048 0 0 1 198.502118 503.563215z" fill="#47BC52" /><path d="M908.083319 339.966812a432.979402 432.979402 0 1 0-95.062373 469.073397 432.80116 432.80116 0 0 0 95.062373-469.073397zM235.60615 231.625413a384.527299 384.527299 0 0 1 404.549812-88.3783l-241.725791 243.924108a18.358921 18.358921 0 0 0-4.010444 5.941399 156.763795 156.763795 0 0 0-43.996054 122.452219l-186.411372-184.65866a382.210154 382.210154 0 0 1 71.593849-99.280766z m352.651697 183.024776a18.418335 18.418335 0 0 0 2.9707 3.921322l9.149753 9.060633a120.045953 120.045953 0 0 1-178.420191 160.061271q-2.049782-2.049782-3.980737-4.188686a17.824195 17.824195 0 0 0-2.9707-3.713374l-1.930954-1.901248a120.016246 120.016246 0 0 1 175.063301-163.388453zM148.059646 367.297244l237.655933 235.398201q4.782826 5.792863 10.219205 11.25895a156.61526 156.61526 0 0 0 111.104148 45.927009q7.070264 0 14.110821-0.623847l-185.282506 186.946098a383.576675 383.576675 0 0 1-187.659066-478.876704z m630.025878 406.807543a384.081694 384.081694 0 0 1-405.916333 87.873281l242.171395-244.39942a16.78445 16.78445 0 0 0 1.336815-1.485349l2.257731-2.198318a156.080534 156.080534 0 0 0 45.986423-111.104148q0-6.41671-0.505019-12.774007l186.351958 184.747781a381.942791 381.942791 0 0 1-71.68297 99.310473z m87.516797-135.701538l-237.655933-235.665564q-4.693705-5.674035-9.951842-10.932173a156.080534 156.080534 0 0 0-111.104149-46.01613 158.754163 158.754163 0 0 0-16.130896 0.831796l185.93606-187.688773a383.665796 383.665796 0 0 1 188.90676 479.470844z" fill="#47BC52" /></svg>