<?xml version="1.0" standalone="no"?><!DOCTYPE svg PUBLIC "-//W3C//DTD SVG 1.1//EN" "http://www.w3.org/Graphics/SVG/1.1/DTD/svg11.dtd"><svg class="icon" width="48px" height="48.00px" viewBox="0 0 1024 1024" version="1.1" xmlns="http://www.w3.org/2000/svg"><path d="M619.946667 623.36m-194.56 0a194.56 194.56 0 1 0 389.12 0 194.56 194.56 0 1 0-389.12 0Z" fill="#4169E1" /><path d="M448.213333 131.2m-45.866666 0a45.866667 45.866667 0 1 0 91.733333 0 45.866667 45.866667 0 1 0-91.733333 0Z" fill="#4169E1" /><path d="M512 936.32a31.786667 31.786667 0 0 1-24.32-11.306667L117.333333 493.653333a32 32 0 0 1-1.493333-39.68l192-263.68a32.213333 32.213333 0 0 1 25.813333-13.013333h47.146667v64h-30.08L182.4 471.253333 512 855.04l329.6-384-168.32-229.76h-143.573333v-64h159.786666a32.213333 32.213333 0 0 1 25.813334 13.013333l192 263.68a32 32 0 0 1-1.493334 39.68L536.32 925.013333a31.786667 31.786667 0 0 1-24.32 11.306667z" fill="#2c2c2c" /><path d="M512 664.746667a32.213333 32.213333 0 0 1-24.32-11.093334l-106.666667-124.373333 48.64-42.666667L512 583.68l82.56-96.213333 48.64 42.666666-106.666667 124.373334a32.213333 32.213333 0 0 1-24.533333 10.24z" fill="#2c2c2c" /></svg>