<?xml version="1.0" standalone="no"?><!DOCTYPE svg PUBLIC "-//W3C//DTD SVG 1.1//EN" "http://www.w3.org/Graphics/SVG/1.1/DTD/svg11.dtd"><svg class="icon" width="48px" height="48.00px" viewBox="0 0 1024 1024" version="1.1" xmlns="http://www.w3.org/2000/svg"><path d="M588.980706 534.317176a15.811765 15.811765 0 0 1-7.920941-2.138352l-103.002353-59.482353a15.962353 15.962353 0 0 1-7.920941-13.70353v-118.844235a15.841882 15.841882 0 0 1 7.920941-13.70353l103.002353-59.422117a15.781647 15.781647 0 0 1 15.841882 0l103.002353 59.482353a15.962353 15.962353 0 0 1 7.920941 13.703529v118.934588a15.841882 15.841882 0 0 1-7.920941 13.70353l-103.002353 59.482353a16.896 16.896 0 0 1-7.920941 1.987764z" fill="#E3F5E5" /><path d="M826.608941 902.866824a15.811765 15.811765 0 0 1-7.920941-2.138353l-103.002353-59.482353a15.962353 15.962353 0 0 1-7.920941-13.70353v-118.844235a15.841882 15.841882 0 0 1 7.920941-13.703529l103.002353-59.422118a15.781647 15.781647 0 0 1 15.841882 0l103.002353 59.482353a15.962353 15.962353 0 0 1 7.920941 13.703529v118.934588a15.841882 15.841882 0 0 1-7.920941 13.70353l-103.002353 59.482353a16.896 16.896 0 0 1-7.920941 1.987765z" fill="#E3F5E5" /><path d="M372.404706 902.866824a15.811765 15.811765 0 0 1-7.920941-2.138353l-103.002353-59.482353a15.962353 15.962353 0 0 1-7.920941-13.70353v-118.844235a15.841882 15.841882 0 0 1 7.920941-13.703529l103.002353-59.422118a15.781647 15.781647 0 0 1 15.841882 0l103.002353 59.482353a15.962353 15.962353 0 0 1 7.920941 13.703529v118.934588a15.841882 15.841882 0 0 1-7.920941 13.70353l-103.002353 59.482353a16.896 16.896 0 0 1-7.920941 1.987765z" fill="#E3F5E5" /><path d="M497.694118 600.033882l-214.317177-123.783529a33.129412 33.129412 0 0 1-16.444235-28.521412V200.192a33.129412 33.129412 0 0 1 16.444235-28.521412l214.317177-123.693176a33.129412 33.129412 0 0 1 32.948706 0l214.347294 123.813647a33.129412 33.129412 0 0 1 16.474353 28.521412v247.506823a32.948706 32.948706 0 0 1-16.474353 28.521412l-214.317177 123.783529a33.822118 33.822118 0 0 1-16.474353 4.336941 32.858353 32.858353 0 0 1-16.50447-4.427294zM333.191529 219.587765v209.076706l181.007059 104.538353 181.097412-104.538353V219.587765l-181.097412-104.628706z" fill="#47BC52" /><path d="M268.318118 960.451765l-214.317177-123.78353a33.129412 33.129412 0 0 1-16.444235-28.521411v-247.536942a33.129412 33.129412 0 0 1 16.444235-28.521411l214.317177-123.693177a33.129412 33.129412 0 0 1 32.948706 0l214.347294 123.813647a33.129412 33.129412 0 0 1 16.474353 28.521412v247.506823a32.948706 32.948706 0 0 1-16.474353 28.521412l-214.317177 123.78353a33.822118 33.822118 0 0 1-16.474353 4.336941 32.858353 32.858353 0 0 1-16.50447-4.427294zM103.815529 580.005647V789.082353l181.007059 104.538353L465.92 789.082353v-209.076706l-181.097412-104.628706z" fill="#47BC52" /><path d="M722.010353 960.451765l-214.317177-123.78353a33.129412 33.129412 0 0 1-16.444235-28.521411v-247.536942a33.129412 33.129412 0 0 1 16.444235-28.521411l214.317177-123.693177a33.129412 33.129412 0 0 1 32.948706 0l214.347294 123.813647a33.129412 33.129412 0 0 1 16.474353 28.521412v247.506823a32.948706 32.948706 0 0 1-16.474353 28.521412l-214.317177 123.78353a33.822118 33.822118 0 0 1-16.474352 4.336941 32.858353 32.858353 0 0 1-16.504471-4.427294z m-164.502588-380.446118V789.082353l181.007059 104.538353 181.097411-104.538353v-209.076706l-181.097411-104.628706z" fill="#47BC52" /></svg>