<?xml version="1.0" standalone="no"?><!DOCTYPE svg PUBLIC "-//W3C//DTD SVG 1.1//EN" "http://www.w3.org/Graphics/SVG/1.1/DTD/svg11.dtd"><svg class="icon" width="48px" height="48.00px" viewBox="0 0 1024 1024" version="1.1" xmlns="http://www.w3.org/2000/svg"><path d="M760.96 555.093333m-173.226667 0a173.226667 173.226667 0 1 0 346.453334 0 173.226667 173.226667 0 1 0-346.453334 0Z" fill="#4169E1" /><path d="M305.92 238.08m-40.746667 0a40.746667 40.746667 0 1 0 81.493334 0 40.746667 40.746667 0 1 0-81.493334 0Z" fill="#4169E1" /><path d="M754.133333 698.88H353.706667a42.666667 42.666667 0 0 1-40.106667-27.946667L165.546667 267.306667H106.666667v-64h103.68l158.08 431.573333h370.773333l104.746667-287.573333H346.026667v-64H874.666667A42.666667 42.666667 0 0 1 914.346667 341.333333l-120.106667 329.6a42.666667 42.666667 0 0 1-40.106667 27.946667z m-380.586666-50.133333z" fill="#2c2c2c" /><path d="M415.36 786.773333m-39.893333 0a39.893333 39.893333 0 1 0 79.786666 0 39.893333 39.893333 0 1 0-79.786666 0Z" fill="#2c2c2c" /><path d="M692.48 786.773333m-39.893333 0a39.893333 39.893333 0 1 0 79.786666 0 39.893333 39.893333 0 1 0-79.786666 0Z" fill="#2c2c2c" /></svg>