<?xml version="1.0" standalone="no"?><!DOCTYPE svg PUBLIC "-//W3C//DTD SVG 1.1//EN" "http://www.w3.org/Graphics/SVG/1.1/DTD/svg11.dtd"><svg class="icon" width="48px" height="48.00px" viewBox="0 0 1024 1024" version="1.1" xmlns="http://www.w3.org/2000/svg"><path d="M562.326588 978.853647H194.529882a91.105882 91.105882 0 0 1-91.015529-91.015529v-626.447059a117.790118 117.790118 0 0 1 50.567529-96.707765l157.153883-109.146353a118.272 118.272 0 0 1 134.354823 0l157.153883 109.146353a117.820235 117.820235 0 0 1 50.597647 96.737882v626.447059a91.105882 91.105882 0 0 1-91.01553 90.985412z m-183.898353-873.411765a46.772706 46.772706 0 0 0-26.714353 8.312471L194.56 223.111529a46.832941 46.832941 0 0 0-20.118588 38.460236v626.447059a20.088471 20.088471 0 0 0 20.058353 20.058352h367.826823a20.088471 20.088471 0 0 0 20.058353-20.058352v-626.447059a46.832941 46.832941 0 0 0-20.118588-38.460236l-157.153882-109.146353a46.802824 46.802824 0 0 0-26.714353-8.31247z" fill="#47BC52" /><path d="M922.383059 967.348706a35.478588 35.478588 0 0 1-35.478588-35.478588V462.848a53.037176 53.037176 0 0 0-24.094118-44.574118L544.376471 210.612706a35.478588 35.478588 0 1 1 38.791529-59.422118l318.253176 207.811765a123.783529 123.783529 0 0 1 56.289883 103.996235V931.84a35.478588 35.478588 0 0 1-35.328 35.508706zM468.028235 457.667765H278.678588a35.478588 35.478588 0 0 1 0-70.957177h189.349647a35.478588 35.478588 0 0 1 0 70.957177z m0 213.323294H278.678588a35.478588 35.478588 0 0 1 0-70.957177h189.349647a35.478588 35.478588 0 0 1 0 70.957177z" fill="#47BC52" /><path d="M770.078118 796.491294a35.478588 35.478588 0 0 1-35.478589-35.478588v-215.070118a35.478588 35.478588 0 1 1 70.957177 0v215.130353a35.478588 35.478588 0 0 1-35.478588 35.418353z" fill="#47BC52" /><path d="M512.632471 945.392941V491.399529a81.136941 81.136941 0 0 1 39.996235-69.933176l108.423529-63.728941a81.106824 81.106824 0 0 1 82.221177 0l108.423529 63.728941a81.136941 81.136941 0 0 1 39.996235 69.933176V945.392941z" fill="#47BC52" /></svg>