<?xml version="1.0" standalone="no"?><!DOCTYPE svg PUBLIC "-//W3C//DTD SVG 1.1//EN" "http://www.w3.org/Graphics/SVG/1.1/DTD/svg11.dtd"><svg class="icon" width="48px" height="48.00px" viewBox="0 0 1024 1024" version="1.1" xmlns="http://www.w3.org/2000/svg"><path d="M388.187319 310.348985m118.941836 0l267.619131 0q118.941836 0 118.941836 118.941836l0 327.090048q0 118.941836-118.941836 118.941836l-267.619131 0q-118.941836 0-118.941836-118.941836l0-327.090048q0-118.941836 118.941836-118.941836Z" fill="#E3F5E5" /><path d="M832.464812 697.77228H181.793499a32.709005 32.709005 0 0 1-24.442548-10.169527 37.139588 37.139588 0 0 1-10.199262-25.780643V203.658158a87.124895 87.124895 0 0 1 23.788367-59.679066 76.717484 76.717484 0 0 1 56.497372-24.204663h279.899875a34.909429 34.909429 0 0 1 33.749746 35.95017 34.909429 34.909429 0 0 1-33.749746 35.950169H227.259015a12.072596 12.072596 0 0 0-11.686035 11.894184v422.243517h584.955949v-217.06885a33.809217 33.809217 0 1 1 67.499491 0v253.048755a37.109853 37.109853 0 0 1-10.526352 26.107733 32.709005 32.709005 0 0 1-25.037256 9.872173z" fill="#47BC52" /><path d="M900.856367 857.749049H113.401943a33.72001 33.72001 0 0 1-33.749746-32.709005v-160.125446a33.72001 33.72001 0 0 1 33.749746-32.709005h787.454424a33.72001 33.72001 0 0 1 33.749746 32.709005v159.976769a33.72001 33.72001 0 0 1-33.749746 32.857682zM147.151689 792.182362h719.954932v-94.410082H147.151689z" fill="#47BC52" /><path d="M479.385972 544.902285a34.612074 34.612074 0 0 1-13.053867-2.61672 32.352179 32.352179 0 0 1-20.814821-30.151755v-166.518571a33.749746 33.749746 0 0 1 67.499492 0v87.42225l179.988733-174.844499a34.403926 34.403926 0 0 1 33.036095-9.42614 33.273979 33.273979 0 0 1 24.353341 23.788367 32.173767 32.173767 0 0 1-9.69376 32.08456l-237.140285 230.360601a34.225513 34.225513 0 0 1-24.29387 10.050585z" fill="#47BC52" /><path d="M650.840628 544.902285h-171.454656a32.798211 32.798211 0 1 1 0-65.566687h171.454656a32.798211 32.798211 0 1 1 0 65.566687z" fill="#47BC52" /><path d="M730.145097 488.761739a252.751401 252.751401 0 1 1-252.751401 252.751401 252.751401 252.751401 0 0 1 252.751401-252.751401z" fill="#FFFFFF" /><path d="M730.174833 994.294277a252.751401 252.751401 0 1 1 252.751401-252.751402 253.01902 253.01902 0 0 1-252.751401 252.751402z m5.590266-446.031885a198.900485 198.900485 0 1 0 198.900485 198.900485 199.227575 199.227575 0 0 0-198.900485-198.900485z" fill="#47BC52" /><path d="M680.576087 832.830734l-60.24404-60.6306c-13.172808-13.143073-15.967941-31.668264-6.303917-41.332288s28.189215-6.839156 41.332288 6.303917l50.461074 50.461074c31.727735 31.727735-12.072596 58.34097-25.245405 45.197897z" fill="#47BC52" /><path d="M687.593656 794.561199l121.736969-102.171037a27.56477 27.56477 0 0 1 38.596625-0.237884 27.56477 27.56477 0 0 1-6.958097 37.942446l-121.736969 102.171037a27.56477 27.56477 0 0 1-38.56689 0.297354 27.56477 27.56477 0 0 1 6.928362-38.001916z" fill="#47BC52" /></svg>