<?xml version="1.0" standalone="no"?><!DOCTYPE svg PUBLIC "-//W3C//DTD SVG 1.1//EN" "http://www.w3.org/Graphics/SVG/1.1/DTD/svg11.dtd"><svg class="icon" width="48px" height="48.00px" viewBox="0 0 1024 1024" version="1.1" xmlns="http://www.w3.org/2000/svg"><path d="M526.968471 943.375059V489.381647a81.136941 81.136941 0 0 1 39.996235-69.933176l108.423529-63.728942a81.106824 81.106824 0 0 1 82.221177 0l108.423529 63.728942a81.136941 81.136941 0 0 1 39.996235 69.933176v453.993412z" fill="#47BC52" /><path d="M181.368471 978.823529A91.256471 91.256471 0 0 1 90.352941 887.838118V125.650824a91.256471 91.256471 0 0 1 91.01553-90.985412h367.887058a91.226353 91.226353 0 0 1 90.985412 90.985412v762.187294a91.226353 91.226353 0 0 1-90.985412 90.985411z m-20.058353-537.630117v446.58447a20.088471 20.088471 0 0 0 20.058353 20.058353h367.887058a20.118588 20.118588 0 0 0 20.058353-20.058353V125.590588a20.118588 20.118588 0 0 0-20.058353-20.058353H181.368471a20.088471 20.088471 0 0 0-20.058353 20.058353z" fill="#47BC52" /><path d="M922.383059 967.348706a35.478588 35.478588 0 0 1-35.478588-35.478588V462.848a53.037176 53.037176 0 0 0-24.094118-44.574118l-277.082353-179.2a35.478588 35.478588 0 1 1 38.791529-59.422117l277.082353 179.2a123.783529 123.783529 0 0 1 56.289883 103.996235V931.84a35.478588 35.478588 0 0 1-35.508706 35.508706zM468.028235 457.667765H278.678588a35.478588 35.478588 0 0 1 0-70.957177h189.349647a35.478588 35.478588 0 0 1 0 70.957177z m0 213.323294H278.678588a35.478588 35.478588 0 0 1 0-70.957177h189.349647a35.478588 35.478588 0 0 1 0 70.957177z" fill="#47BC52" /><path d="M770.078118 796.491294a35.478588 35.478588 0 0 1-35.478589-35.478588v-215.070118a35.478588 35.478588 0 1 1 70.957177 0v215.130353a35.478588 35.478588 0 0 1-35.478588 35.418353z" fill="#47BC52" /></svg>