<?xml version="1.0" standalone="no"?><!DOCTYPE svg PUBLIC "-//W3C//DTD SVG 1.1//EN" "http://www.w3.org/Graphics/SVG/1.1/DTD/svg11.dtd"><svg class="icon" width="48px" height="47.63px" viewBox="0 0 1032 1024" version="1.1" xmlns="http://www.w3.org/2000/svg"><path d="M798.845039 721.981894a50.500477 50.500477 0 0 1 0-101.000955 132.917257 132.917257 0 1 0-20.831447-264.193248 50.500477 50.500477 0 0 1-58.353302-50.500477v-1.818017a203.441174 203.441174 0 0 0-406.857097 0v1.691766a50.500477 50.500477 0 0 1-58.075549 50.298475 132.917257 132.917257 0 1 0-19.998189 264.3195 50.500477 50.500477 0 1 1 0 101.000954 233.918212 233.918212 0 0 1-18.962929-467.129416 304.467379 304.467379 0 0 1 600.728429 0 233.918212 233.918212 0 0 1-17.675167 467.129416z" fill="#0D0A16" /><path d="M672.215091 638.706607l-136.351289-136.351289a27.775263 27.775263 0 0 0-39.213621 0l-136.351289 136.351289a27.775263 27.775263 0 0 0 19.619436 47.344198 27.775263 27.775263 0 0 1 27.775262 27.775262v282.39867a27.775263 27.775263 0 0 0 27.775263 27.775263h161.87928a27.775263 27.775263 0 0 0 27.775263-27.775263V713.775567a27.775263 27.775263 0 0 1 27.775263-27.775263 27.775263 27.775263 0 0 0 19.316432-47.293697z" fill="#4169E1" /></svg>