<?xml version="1.0" standalone="no"?><!DOCTYPE svg PUBLIC "-//W3C//DTD SVG 1.1//EN" "http://www.w3.org/Graphics/SVG/1.1/DTD/svg11.dtd"><svg class="icon" width="48px" height="48.00px" viewBox="0 0 1024 1024" version="1.1" xmlns="http://www.w3.org/2000/svg"><path d="M512 1024C229.232 1024 0 794.768 0 512 0 229.232 229.232 0 512 0c282.768 0 512 229.232 512 512 0 282.768-229.232 512-512 512z m0-40c260.68 0 472-211.32 472-472S772.68 40 512 40 40 251.32 40 512s211.32 472 472 472z" fill="#2c2c2c" /><path d="M512 744C229.232 744 0 640.132 0 512s229.232-232 512-232c282.768 0 512 103.868 512 232s-229.232 232-512 232z m0-40c260.68 0 472-85.96 472-192s-211.32-192-472-192-472 85.96-472 192 211.32 192 472 192z" fill="#2c2c2c" /><path d="M80 512a432 152 0 1 0 864 0 432 152 0 1 0-864 0Z" fill="#4169E1" /><path d="M280 512C280 229.232 383.868 0 512 0s232 229.232 232 512c0 282.768-103.868 512-232 512s-232-229.232-232-512z m40 0c0 260.68 85.96 472 192 472s192-211.32 192-472-85.96-472-192-472-192 211.32-192 472z" fill="#2c2c2c" /></svg>