<?xml version="1.0" standalone="no"?><!DOCTYPE svg PUBLIC "-//W3C//DTD SVG 1.1//EN" "http://www.w3.org/Graphics/SVG/1.1/DTD/svg11.dtd"><svg class="icon" width="48px" height="48.00px" viewBox="0 0 1024 1024" version="1.1" xmlns="http://www.w3.org/2000/svg"><path d="M512.89272 374.818618m-198.382331 0a198.382332 198.382332 0 1 0 396.764663 0 198.382332 198.382332 0 1 0-396.764663 0Z" fill="#4169E1" /><path d="M512.89272 0A374.843416 374.843416 0 0 0 226.751005 616.944253L74.418172 813.367559a130.58517 130.58517 0 0 0 103.18361 210.632441h668.796436a130.609968 130.609968 0 0 0 103.357194-210.434058l-151.266527-195.902553A374.818618 374.818618 0 0 0 512.89272 0z m0 650.44607a273.494842 273.494842 0 0 1-151.489707-45.379959 279.272727 279.272727 0 0 1-71.913596-68.962658 275.949823 275.949823 0 1 1 418.388338 33.501817 277.388095 277.388095 0 0 1-44.040878 35.882404 273.445246 273.445246 0 0 1-150.844965 44.859204zM177.601782 924.808834a31.394004 31.394004 0 0 1-24.797791-50.63709l147.720444-190.471836a375.041798 375.041798 0 0 0 424.042233 0.545551l146.75333 189.975881a31.394004 31.394004 0 0 1-24.797791 50.587494z" fill="#0D0A16" /><path d="M557.70233 783.83339h-92.942123a49.595583 49.595583 0 0 0 0 99.191166H557.70233a49.595583 49.595583 0 1 0 0-99.191166z" fill="#0D0A16" /></svg>