<?xml version="1.0" standalone="no"?><!DOCTYPE svg PUBLIC "-//W3C//DTD SVG 1.1//EN" "http://www.w3.org/Graphics/SVG/1.1/DTD/svg11.dtd"><svg class="icon" width="48px" height="48.00px" viewBox="0 0 1024 1024" version="1.1" xmlns="http://www.w3.org/2000/svg"><path d="M512 101.789264c19.33996 0 30.282306 2.290258 34.099404 4.580517 4.580517 2.544732 13.487078 12.214712 22.648111 22.393638 22.902584 25.192843 54.202783 59.54672 110.950298 92.373758 55.220676 31.809145 100.771372 43.514911 133.852883 52.166998 15.777336 4.071571 29.518887 7.634195 35.626242 11.196819s12.978131 13.996024 17.558648 22.139165c12.214712 21.121272 13.232604 30.027833 13.232605 32.318091 0 5.343936-3.817097 17.813121-7.888668 30.791253-10.4334 32.318091-24.429423 76.596421-24.429424 142.250497s14.250497 109.932406 24.429424 142.250497c4.071571 12.978131 8.143141 25.447316 8.143141 30.791253 0 4.580517-3.562624 15.26839-13.232604 31.809145s-17.049702 25.192843-20.8668 27.483101c-4.580517 2.799205-17.304175 5.59841-30.791252 8.397614-33.081511 7.125249-78.632207 17.049702-135.379722 49.87674s-88.047714 67.435388-110.950298 92.373757c-9.161034 10.178926-18.067594 19.848907-22.648111 22.393639-4.071571 2.290258-15.013917 4.580517-34.099404 4.580516s-30.282306-2.290258-34.353877-4.580516c-4.580517-2.544732-13.487078-12.214712-22.648111-22.393639-22.902584-25.192843-54.202783-59.54672-110.950298-92.373757s-102.298211-42.751491-135.634195-49.87674c-13.487078-2.799205-26.210736-5.59841-30.791252-8.397614-3.817097-2.290258-11.451292-10.687873-20.8668-27.483101S143.522863 689.622266 143.522863 685.296223c0-5.343936 3.817097-17.813121 8.143141-30.791253 10.4334-32.318091 24.429423-76.850895 24.429423-142.250497s-14.250497-109.932406-24.429423-142.250497c-4.326044-12.978131-8.143141-25.447316-8.143141-30.791252 0-4.580517 3.562624-15.26839 13.232604-31.809145s17.049702-24.93837 20.866799-27.483102c4.580517-2.799205 17.304175-5.59841 30.791253-8.397614 33.081511-7.125249 78.632207-17.049702 135.634195-49.87674s88.047714-67.180915 110.950298-92.373757c9.161034-10.178926 18.067594-19.848907 22.648111-22.393638 4.071571-2.799205 15.013917-5.089463 34.353877-5.089464m0-101.789264c-127.236581 0-108.66004 69.2167-218.846918 132.83499s-160.827038 12.723658-224.445329 122.910537 5.59841 128.763419 5.59841 256-69.2167 145.813121-5.59841 256 114.258449 59.54672 224.445329 123.16501 91.610338 132.83499 218.846918 132.83499 108.66004-69.2167 218.846918-132.83499 160.827038-12.723658 224.445329-123.16501-5.59841-128.763419-5.59841-256 68.962227-145.304175 5.852883-255.745527c-57.001988-99.753479-114.512922-59.801193-224.699802-123.419483S639.236581 0 512 0z" fill="#0D0A16" /><path d="M510.727634 513.017893m-203.578529 0a203.578529 203.578529 0 1 0 407.157058 0 203.578529 203.578529 0 1 0-407.157058 0Z" fill="#4169E1" /></svg>