<?xml version="1.0" standalone="no"?><!DOCTYPE svg PUBLIC "-//W3C//DTD SVG 1.1//EN" "http://www.w3.org/Graphics/SVG/1.1/DTD/svg11.dtd"><svg class="icon" width="48px" height="48.00px" viewBox="0 0 1024 1024" version="1.1" xmlns="http://www.w3.org/2000/svg"><path d="M715.948471 822.534527c11.988605 25.92792 7.29698 57.671603-14.081486 79.05007-25.792362 25.792362-66.681241 27.296724-94.229243 4.509778C408.384221 1038.051685 197.274346 1064.72352 88.794996 956.24417c-136.949807-136.949807-58.494869-437.448517 175.23333-671.176716C497.756525 51.339255 798.255235-27.115682 935.205042 109.834124s58.494869 437.448517-175.23333 671.176717c-14.438565 14.438565-29.131715 28.285304-44.023241 41.523686z m-28.00427-30.95348c14.365827-12.772195 28.55642-26.142829 42.505655-40.092063 215.47087-215.47087 292.342095-487.942166 171.692294-608.591967C781.495655 22.250522 509.021052 99.118441 293.550183 314.589311S1.208088 802.531477 121.857889 923.181278c94.559872 94.559872 282.396777 67.785542 462.953232-51.968254-6.721686-23.669725-0.767059-50.182858 17.870493-68.820411 23.117574-23.117574 58.362618-26.72143 85.262587-10.811566z m-65.428158 90.165814a42.082192 42.082192 0 1 0 59.513207-59.513206 42.082192 42.082192 0 0 0-59.513207 59.513206z" fill="#2c2c2c" /><path d="M343.733041 364.772169a237.965443 481.607306 45 1 0 336.533956 336.533957 237.965443 481.607306 45 1 0-336.533956-336.533957Z" fill="#4169E1" /><path d="M935.206575 956.247671c-136.954155 136.949479-437.449059 58.494247-671.178228-175.234922C30.299178 547.28358-48.156055 246.788676 88.793425 109.834521c136.954155-136.949479 437.449059-58.494247 671.178228 175.234922 233.729169 233.729169 312.184402 534.224073 175.234922 671.178228z m-33.062575-33.062575c120.644968-120.649644 43.774831-393.12716-171.695342-608.597333C514.987836 99.126941 242.51032 22.256804 121.860676 142.897096 1.215708 263.54674 78.085845 536.024256 293.551342 751.494429c215.465498 215.465498 487.943014 292.335635 608.592658 171.690667z" fill="#2c2c2c" /><path d="M679.416986 700.458082c188.079342-188.079342 265.211324-415.879598 172.284493-508.811105-92.931507-92.931507-320.736438-15.799525-508.81578 172.279818l336.531287 336.531287z" fill="#4169E1" /><path d="M310.940639 70.136986m-70.136986 0a70.136986 70.136986 0 1 0 140.273973 0 70.136986 70.136986 0 1 0-140.273973 0Z" fill="#2c2c2c" /><path d="M310.940639 70.136986m-42.082192 0a42.082192 42.082192 0 1 0 84.164384 0 42.082192 42.082192 0 1 0-84.164384 0Z" fill="#4169E1" /></svg>