<?xml version="1.0" standalone="no"?><!DOCTYPE svg PUBLIC "-//W3C//DTD SVG 1.1//EN" "http://www.w3.org/Graphics/SVG/1.1/DTD/svg11.dtd"><svg class="icon" width="48px" height="48.00px" viewBox="0 0 1024 1024" version="1.1" xmlns="http://www.w3.org/2000/svg"><path d="M862.9 480.7c50.7 32.2 58 76.1 58 108.1s-28.8 76.7-92.7 124.6C764.3 761.3 703 735.5 703 735.5s75.8-144.7 104.6-194.8 55.3-60 55.3-60" fill="#ED9A4F" /><path d="M620.5 534.4s94.6-16 82.5-172.6c-12.2-156.6-98.5-201.3-149.6-207.7-51.1-6.4-41.5 0-51.1 22.4-9.6 22.4-54.3 159.8-147 207.7-92.7 47.9-194.9 51.1-223.7 60.7-6.4 2.1-11.9 13.1-14.1 29.1-7.7 55.5 23.8 171.5 189.9 191.4 214 25.6 313.1-131 313.1-131z" fill="#F4C27A" /><path d="M501.6 211.8c1.6-1.8 3.2-3.6 5-5.2 2-1.8 4.3-2.1-0.6 0.3 0.8-0.4 1.6-1.1 2.4-1.6 2.2-1.4 4.6-2.6 7-3.8 2.6-1.3-6.1 2.1-1.3 0.6 1.2-0.4 2.3-0.8 3.5-1.1 2.3-0.7 4.7-1.3 7.1-1.7 4.1-0.8 0.3 0.2-1.6 0.1 1.2 0 2.5-0.2 3.7-0.3 2.7-0.2 5.4-0.2 8.1-0.1 1 0 2 0.1 2.9 0.2 0.7 0.1 1.5 0.1 2.2 0.2 2 0.2 1 0.1-3-0.4 2.2 1 5.4 1 7.8 1.7 2.7 0.7 5.3 1.5 7.9 2.5l3.9 1.5c2.9 1.1-4.8-2.2-0.6-0.2 2.5 1.2 5 2.4 7.4 3.8 5.2 2.8 10.1 6 14.9 9.4 1.1 0.8 2.3 1.6 3.4 2.5 0.7 0.5 4.6 3.5 1.5 1.1-3.1-2.4 0.8 0.6 1.4 1.2 1.3 1.1 2.6 2.1 3.9 3.2 5.2 4.3 10.6 7.3 17.7 7.3 6.1 0 13.5-2.7 17.7-7.3 8.5-9.2 10.7-26.4 0-35.4-24-20-50.1-36.5-81.7-40.4-27.1-3.4-57.8 5.5-76 26.7-8.5 9.9-10.5 25.7 0 35.4 9.4 8.3 26.4 10.4 35.4-0.2z" fill="#FFFFFF" /><path d="M466.8 179c-0.1 4.1-0.4 8.2-0.7 12.2-0.4 4.9 0.8-4.7 0 0.1-0.4 2.2-0.7 4.4-1.2 6.6-1.6 7.6-3.8 15-6.5 22.3l-2.1 5.4c-1.2 3.2 2-4.4 0.6-1.3-0.4 0.8-0.7 1.5-1 2.3-1.8 3.9-3.6 7.7-5.6 11.5-3.6 7.1-7.5 14.1-11.6 21-4 6.8-8.3 13.5-12.9 20-1.1 1.6-2.3 3.2-3.5 4.8-0.4 0.5-2.2 2.9-0.1 0.2 2.2-2.9-0.1 0.1-0.7 0.8-2.5 3.1-5.1 6.1-7.7 9-5.6 6.1-11.7 11.7-18.1 17-3.7 3 3.4-2.4-0.5 0.3-1.6 1.2-3.3 2.4-4.9 3.5-3.6 2.5-7.2 4.9-10.9 7.2-15.8 9.9-32.4 18.5-48.3 28.2-11.2 6.8-16.4 22.7-9 34.2 7.2 11.2 22.3 16.3 34.2 9 30.8-18.8 63.9-34.2 89.4-60.4 25.5-26.2 44.8-59.5 58.6-93.2 7.9-19.3 12.2-39.9 12.5-60.7 0.2-13.1-11.7-25.6-25-25-13.7 0.7-24.7 11-25 25z" fill="#FFFFFF" /><path d="M579.1 581.4C459.6 519.2 312.4 503 258.5 480.7s-111.9-36.1-142.2-15.5c-0.9 0.6-1.1 1.4-1.2 1.6-21.2 30.5 29.8 115.4 77 152.4C320 719.6 583 595.7 580.6 582.6c-0.2-0.7-0.9-1-1.5-1.2z" fill="#ED9A4F" /><path d="M590.2 538.6c9.5-1.6 18.9-6.2 27.2-11 19.9-11.3 36.3-28.9 47.5-48.7 17.8-31.7 23.7-69 23.6-105-0.2-45.5-8.3-91.5-26.1-133.4C640.2 188.4 597 144 541 129.8c-14.5-3.7-29.9-5.4-44.7-5.9-16.4-0.6-33.7 4.1-41.5 20-2.8 5.6-4.3 11.6-6.4 17.4-0.4 1.2-1 2.5-1.4 3.7 4.2-11.4 0.3-0.7-0.8 2-0.6 1.4-1.1 2.8-1.6 4.1-3.4 8.8-6.8 17.6-10.4 26.3-0.6 1.3-1.1 2.7-1.7 4 3.6-8.8 1.2-2.9 0.4-0.9-1.4 3.3-2.8 6.5-4.3 9.8-3.1 6.8-6.2 13.5-9.6 20.2-7.4 14.9-15.6 29.5-24.6 43.5-4.8 7.4-9.9 14.6-15.2 21.7-2.9 3.9 3.8-4.9 0.8-1-0.5 0.7-1.1 1.3-1.6 2-1.3 1.7-2.7 3.3-4 4.9-3 3.6-6.1 7.1-9.3 10.5-6.1 6.5-12.4 12.7-19.2 18.5-1.6 1.4-3.2 2.7-4.9 4-1.4 1.1-5.3 3.5 1.1-0.8-0.7 0.5-1.3 1-2 1.5-3.7 2.7-7.5 5.3-11.5 7.8-9.3 5.8-19.1 10.5-29.1 15-1.7 0.7-3.3 1.5-5 2.2-4.1 1.8 0.4-0.1 1-0.4-2.7 1.3-5.5 2.3-8.3 3.4-6 2.4-12.1 4.6-18.2 6.7-21.7 7.4-44 13.2-66.4 17.9-18.5 3.9-37.2 6.9-55.9 9.9-11.9 1.9-24.3 3.2-35.9 6.8-24.8 7.8-31.6 34.9-33.5 58-0.8 9.1-0.4 18.4 0.8 27.4 3.4 26.6 11.6 52.1 25.8 74.9 17.1 27.4 41.2 50 69.2 66 37.4 21.4 79.9 31.1 122.5 35 74.5 6.7 150.8-9.5 214.5-49.2 35.5-22.2 67.4-50.8 91.9-84.8 1.1-1.6 2.3-3.2 3.3-4.8 7-11.1 2.7-28.1-9-34.2-12.3-6.5-26.7-2.8-34.2 9-1 1.6-2.2 3.2-3.3 4.8-0.6 0.8-1.2 1.7-1.8 2.5-0.4 0.5-0.7 0.9-1.1 1.4-2.6 3.4 4.5-5.8 2.4-3.1-2 2.5-3.9 4.9-5.9 7.3-12.2 14.5-25.9 27.7-40.5 39.7-2 1.6-10.5 7.9-2.2 1.8-2.7 2-5.3 4-8.1 6-5.2 3.7-10.5 7.3-16 10.7-12.2 7.7-24.9 14.5-38.1 20.4-1.7 0.8-3.4 1.5-5.1 2.3 8.2-3.7 1.6-0.7-0.3 0.1-3.6 1.4-7.2 2.8-10.9 4.1-8 2.9-16.1 5.4-24.2 7.6-8.2 2.2-16.5 4.1-24.9 5.6-4.4 0.8-8.7 1.4-13.1 2.1 8.7-1.5 0.6-0.1-1.4 0.1-2.5 0.3-5 0.5-7.5 0.8-19.9 1.8-39.9 1.8-59.7 0.3-5.3-0.4-10.6-0.9-15.9-1.6-0.6-0.1-6-0.9-1.5-0.2 4.4 0.7-0.9-0.1-1.5-0.2l-9.3-1.5c-9.7-1.7-19.3-3.9-28.8-6.6-8.9-2.5-17.4-5.7-26.1-9-3.1-1.2 6.2 2.7 1.9 0.8-0.8-0.3-1.5-0.7-2.3-1-1.9-0.8-3.8-1.7-5.6-2.6-4-1.9-7.9-3.9-11.7-6.1-6.6-3.7-12.9-7.8-19-12.3-0.5-0.4-2.4-1.4-2.6-2 0-0.1 5.4 4.2 2.5 1.9-1.4-1.1-2.7-2.2-4.1-3.4-2.9-2.4-5.7-5-8.4-7.6-4.7-4.6-9.2-9.4-13.3-14.5-0.5-0.6-1-1.2-1.5-1.9-1.9-2.3 4.2 5.7 1.9 2.4-0.9-1.3-1.9-2.5-2.8-3.8-1.8-2.5-3.5-5-5.1-7.6-3.3-5.2-6.2-10.7-8.9-16.3l-1.8-3.9c-2.2-4.8 2.4 6 0.7 1.7-1.1-2.7-2.1-5.4-3-8.1-1.7-5.1-3.2-10.3-4.4-15.6-0.5-2.3-1-4.7-1.4-7l-0.6-3.6c-0.1-0.7-0.2-1.5-0.3-2.2 0.1 0.4 1 8 0.5 3.8-1-8.9-1.3-17.7-0.6-26.6 0.1-1 0.2-1.9 0.3-2.9 0.4-4.4-1.5 9.5-0.2 1.7 0.5-2.8 1.1-5.5 1.8-8.2 0.3-1.2 0.8-2.4 1.1-3.6 1.4-4.7-2.7 4.9-0.4 1 0.5-0.8 1.1-1.7 1.5-2.6 1.1-2.7-4.5 4.9-1.7 2.1 2.9-2.8-5.1 3.3-2.6 1.9 2.4-1.4-6.6 2.2-3.6 1.5 2.1-0.5 4.2-1.2 6.4-1.7 12.7-2.9 25.8-4.6 38.7-6.7 41.3-6.6 82.5-15 121.9-29.3 22.4-8.1 45.3-17.3 65.4-30.3 15.6-10 30-22.2 42.8-35.7 24.4-25.8 44.1-56.1 60.3-87.5 12.1-23.4 22.2-47.7 31.7-72.3 1.2-3 2.3-6 3.5-8.9l0.3-0.6c0-0.1 0.1-0.2 0.1-0.3-3.1 7.4-3 7.2 0.2-0.6 0.5-1.3 1-2.5 1.5-3.8 0.8-2.2 1.5-4.3 2.2-6.5 0.3-0.9 0.6-1.8 0.9-2.8 1.1-3.2 2.4-2.7-1.4 3.1 0.4-0.6 0.8-1.4 1.1-2 1.6-3.4-5.4 5.7-2 2.7-0.6 0.5-6.7 4.6-3 2.5-1.7 1-7.3 2.3-3 1.4l1.5-0.3c2.3-0.8-4.6 0.6-4.6 0.6 1 0.5 3.7-0.2 4.9-0.2 9-0.1 18.1 1.2 27 2.3-9.6-1.1-3.9-0.6-0.5 0.1 2.3 0.4 4.5 0.9 6.8 1.4 4.4 1 8.7 2.3 13 3.8 2.3 0.8 4.5 1.7 6.7 2.6 2.8 1.1-7.4-3.2-1.9-0.8 1.4 0.6 2.8 1.3 4.1 1.9 4.8 2.3 9.4 4.9 13.9 7.7 2.4 1.5 4.7 3 7 4.7 1.2 0.8 2.3 1.7 3.5 2.5 1.5 1.1 3.4 2.9-3-2.3 0.7 0.6 1.4 1.1 2.1 1.6 5 4.1 9.7 8.4 14.2 13.1 2.1 2.2 4.2 4.5 6.2 6.8 1.1 1.3 2.2 2.5 3.2 3.8 4.2 5.2-3.4-4.5 0.2 0.2 9.3 12.4 16.7 26 23 40.1 1.6 3.6-1-2.4-1.1-2.5 0.4 1.2 1 2.3 1.4 3.5 0.8 2 1.6 4 2.3 6 1.5 4.2 2.9 8.4 4.2 12.7 3 9.7 5.4 19.5 7.4 29.4 1 4.8 1.8 9.7 2.6 14.6 0.2 1.3 0.4 2.7 0.6 4 0.7 4.5-0.4-1.4-0.2-1.8-0.8 2.4 0.9 7.3 1.2 10 1.2 11.2 1.9 22.5 2 33.9 0.1 9.8-0.3 19.6-1.4 29.3-0.2 2.2-1.6 10-0.1 1.1-0.4 2.1-0.6 4.1-1 6.2-0.7 3.9-1.5 7.8-2.4 11.6-1.7 7.3-3.9 14.4-6.6 21.4-0.2 0.6-0.5 1.2-0.7 1.8-1.4 3.8 2.5-5.6 1.2-2.8-0.7 1.4-1.3 2.9-2 4.3-1.4 2.8-2.8 5.6-4.4 8.3-1.4 2.4-2.9 4.8-4.4 7.1-0.7 1.1-1.5 2.2-2.3 3.3-0.3 0.4-0.6 0.8-0.9 1.3-2.8 3.9 3.3-4 1.8-2.3-3.2 3.7-6.3 7.4-9.9 10.8-1.5 1.4-3 2.8-4.6 4.1-0.8 0.7-1.6 1.3-2.4 1.9 1.9-1.5 5.6-4.2 2-1.6-3 2.1-6.1 4.1-9.3 5.9-2.7 1.5-5.4 2.7-8.1 4 10.5-4.8 2.4-1-0.6 0-1.8 0.6-3.7 1.2-5.6 1.5-12.9 2.2-21.3 18.8-17.5 30.8 4.3 14.3 16.7 20.1 30.5 17.8z" fill="#92646E" /><path d="M317.4 450.7c-2.5 0.4-5.2 1.2-7.7 1.2 6.5-0.2-0.8 0.1-2.6 0.3-5.2 0.5-10.4 0.9-15.7 1-8.7 0.2-17.4-0.1-26-1-0.9-0.1-1.8-0.3-2.8-0.3 7.1 0.5 4.4 0.6 2.6 0.3-1.7-0.3-3.4-0.5-5.1-0.9-3.6-0.7-7.1-1.4-10.6-2.3-7.1-1.8-14.1-4.1-21-6.8-1-0.4-2-0.9-3-1.2 0.5 0.2 5.5 2.4 1.6 0.6-1.9-0.9-3.8-1.7-5.8-2.6-4.2-2-8.4-4.1-12.5-6.3-7.3-3.9-14.5-8.1-21.7-12.3-12.9-7.6-25.7-15.4-39.8-20.8-19.3-7.4-42-2.6-52.6 16.6-6.3 11.5-3.2 27.8 9 34.2 11.7 6.2 27.5 3.3 34.2-9 0.3-0.5 0.9-1.3 1.1-1.9-0.9 2.6-3.3 3.7-5.3 5.3 0.3-0.3 0.7-0.5 1.1-0.7 2.7-1.5-4.9 2.1-4.2 1.8 2.6-1.1 4.9 0.6-3.5 0.2h3.1c4-0.2-7-1.5-2.9-0.4 1.1 0.3 2.1 0.5 3.2 0.8 1 0.3 2 0.7 3 1 5.3 1.9-5.9-2.7-0.6-0.3 12.4 5.7 23.8 13.3 35.6 20.1 15.9 9.3 32.3 17.6 49.5 24 14.8 5.5 30.1 8.5 45.8 10.4 22.3 2.7 44.7 0.7 66.8-3.2 12.9-2.2 21.3-18.8 17.5-30.8-4.5-13.5-16.9-19.4-30.7-17z" fill="#92646E" /><path d="M853.8 489.6c44.6-33.5-86.3 25.6-127.8 44.7-41.5 19.2-38.3 38.3-105.5 0s-63.9-47.9-150.2-57.5-95.9 6.4-121.4 16c-25.6 9.6-76.7 76.7-41.5 172.6S403.2 841.2 499 834.8c70.8-4.7 152.1-42.6 203.9-99.4 18.3-20.1 33-42.6 42.2-66.8 35.2-92.7 70.3-150.2 108.7-179z" fill="#F4C27A" /><path d="M544.6 495.6c-36-29.4-85.2-39.9-130.8-40.1-21.8-0.1-44.6 2.2-65.3 9.4-9.7 3.4-19.6 7.6-27.9 13.6-9.1 6.6-16.3 14-23.1 22.9-9 11.7-16 24.2-20.5 38.4-5.7 18-5.7 36.6-2.7 55.1 0.9 5.8 6.6 12.1 11.5 14.9 5.4 3.1 13.3 4.5 19.3 2.5 14-4.5 19.7-16.9 17.5-30.8-1-6.1 0.3 5.7 0-0.3-0.1-1.7-0.3-3.3-0.4-5-0.1-3.2-0.1-6.4 0.1-9.6 0.1-1.4 0.6-3.2 0.4-4.6 0 0.5-1.1 6.3-0.2 2.2 0.7-3.3 1.4-6.6 2.3-9.8 0.8-2.6 2-5.2 2.8-7.8-2.2 7.5-0.4 1 0.8-1.2 2.3-4.5 5-8.9 8-13 0.6-0.8 1.2-1.5 1.7-2.3-4.6 6.6-2.4 3.1-1.2 1.6 1.3-1.6 2.7-3.2 4.1-4.7 2.5-2.7 5.2-5 7.8-7.5-6.2 6.2-2.3 1.7 0.1 0.2 1.3-0.9 2.7-1.7 4.1-2.4 1.7-1 3.5-1.8 5.3-2.7 0.9-0.4 1.9-0.8 2.8-1.2-8.1 3.7-3.1 1.3-1.2 0.6 8.1-3 16.4-5 24.9-6.5 1.2-0.2 2.3-0.4 3.5-0.6 4.7-0.8-6.7 0.8-1.9 0.2 2-0.2 4-0.5 6.1-0.7 5.4-0.5 10.8-0.8 16.3-0.9 9.9-0.2 19.8 0.3 29.6 1.3 2.2 0.2 11.5 1.8 2.4 0.2 2.3 0.4 4.7 0.7 7 1.1 5.2 0.9 10.5 2 15.6 3.2 5.2 1.3 10.4 2.7 15.5 4.4 2.7 0.9 5.3 1.8 8 2.8 0.7 0.3 1.5 0.6 2.2 0.9 4 1.5-6.4-2.8-0.6-0.2 4.5 2 8.8 4.2 13 6.6 2.2 1.3 4.3 2.6 6.3 4 0.9 0.6 1.7 1.2 2.6 1.8 3.4 2.4-5.6-4.5-1-0.8 5.3 4.3 10.6 7.3 17.7 7.3 6.1 0 13.5-2.7 17.7-7.3 8.2-9 10.6-26.4-0.2-35.2z" fill="#FFFFFF" /><path d="M655.8 730.7c4.2 1.8 8.7 2.9 13.2 3.9 12.9 2.8 26.4 4.2 39.5 3.5 19.8-1 38.3-5.8 56.5-13.6 20.2-8.7 37.6-22.6 54.3-36.7 25-21 49.8-46.1 64.3-75.8 6.4-13.1 10.6-26.1 11.9-40.7 1.1-12.5-0.7-25.8-2.8-38.1-6.9-39-31.9-70.6-64.7-91.6-11-7.1-28.1-2.6-34.2 9-6.6 12.4-2.8 26.6 9 34.2 2 1.3 3.9 2.5 5.8 3.9 0.9 0.6 5.7 4.6 2.8 2-2.9-2.7 1.7 1.5 2.5 2.1 1.8 1.5 3.5 3.1 5.1 4.7 2.6 2.5 5.2 5.2 7.6 8 0.8 0.9 4.2 5.2 1.6 1.8-2.7-3.5 1.4 2.1 2 3 1.7 2.5 3.3 5.1 4.8 7.8 0.8 1.5 1.6 3 2.3 4.5 0.5 1.1 3.2 7 1.3 2.6-1.8-4.2 0.1 0.4 0.5 1.5 0.5 1.5 1.1 3 1.5 4.5 0.9 2.9 1.8 5.9 2.5 8.9 0.6 2.5 1.1 5.1 1.5 7.6 0.4 2.1 0.8 7.8-0.1-1.3 0.1 1.4 0.3 2.8 0.5 4.2 0.5 5.1 0.7 10.3 0.7 15.5 0 2.1-0.2 4.1-0.3 6.2-0.3 3.7 1.2-7.2 0.4-2.8-0.3 1.3-0.5 2.6-0.8 3.9-0.5 2.1-1.1 4.2-1.7 6.3-0.4 1.2-0.8 2.5-1.3 3.7-0.2 0.6-0.5 1.2-0.7 1.9-1.3 3.6 2.4-5.3 1.1-2.6-2.5 5.2-5 10.4-8.1 15.3-1.5 2.5-3.1 4.9-4.7 7.2l-3 4.2c-0.4 0.5-0.8 1.1-1.2 1.6-2.4 3.2 0-0.1 1-1.3-10.6 12.2-21.1 24-33.1 34.8-7.1 6.3-14.4 12.4-21.8 18.2-2.2 1.7 1-0.8 1.2-0.9-0.9 0.9-2.1 1.6-3.2 2.4-2.1 1.6-4.2 3.1-6.4 4.5-4.1 2.7-8.3 5.3-12.6 7.6-1.8 1-3.6 1.9-5.4 2.8-0.8 0.4-1.5 0.7-2.3 1.1-3.9 1.9 0.8-0.3 1.4-0.5-4.1 1.3-7.9 3.1-12 4.3-3.6 1.1-7.2 2-10.8 2.8-1.6 0.3-3.3 0.6-4.9 0.9-0.9 0.1-1.9 0.2-2.7 0.4 1.5-0.4 6.1-0.8 1.9-0.3-7.1 0.8-14.2 0.9-21.3 0.5-1.4-0.1-2.9-0.2-4.3-0.3-1.3-0.1-7-0.9-1.7-0.1 5.3 0.7 0 0-1.2-0.3l-3.3-0.6c-5-1-10-2.2-14.7-4.2-5.5-2.3-14.3-0.4-19.3 2.5-5.2 3-10.1 9-11.5 14.9-1.5 6.4-1.1 13.6 2.5 19.3 3.7 5.5 8.5 8.5 14.9 11.2z" fill="#92646E" /><path d="M819.2 493.3c9.4-7.1 19-14.1 20.7-26.7 1.7-12.8-6-24.9-18.6-28.4-5.9-1.7-11.1-1-17.1 0.1-15.5 3-30.7 10.2-45.2 16.2-21.9 9.1-43.6 18.6-65.2 28.4-7.9 3.6-15.8 7.1-23.6 10.8-8.8 4.2-16.9 9.4-25.4 14.2-1.6 0.9-3.2 1.7-4.8 2.5-3.9 1.9 2.2-1.2 3.2-1.3-0.9 0.1-1.9 0.7-2.8 1-1.6 0.5-3.2 0.8-4.9 1.1 9.6-2.3 3.4-0.4-0.1-0.6-0.9 0-1.8-0.2-2.7-0.2 8.7 0.3 5.1 0.7 2.5 0.2-2.5-0.5-5-1.2-7.5-2.1l-4.2-1.5c-0.6-0.2-1.1-0.5-1.7-0.7-2.8-1 5.3 2.4 2.5 1.1-3.7-1.7-7.4-3.4-11-5.2-24-12.1-46.1-27.5-69.4-40.6-19.4-10.9-40.2-17.6-62-21.4-32.6-5.6-66.9-10.3-100-8.1-20.3 1.4-38 6.1-56.3 14.8-2.7 1.3-5.4 2.6-8.1 3.8-3.8 1.7 2.2-1.2 3.3-1.3-0.7 0.1-1.6 0.6-2.2 0.9-3.2 1.3-6.5 2.5-9.5 4-8.1 4-15.4 10.4-21.6 17-43.6 47.1-48.2 118.3-26.7 176.5 21.5 58.2 53.2 116.5 106 151.8 25.3 17 55.3 26.2 85.6 27.2 16.4 0.6 33.1-1.7 49.2-4.6 15.8-2.9 31.3-7.2 46.3-12.6 67-24.1 131.9-68.9 166.4-132.7 9.8-18 16.1-37.8 24-56.7 0.3-0.8 0.8-1.7 1.1-2.5-1.4 5.1-1 2.4-0.4 1 0.9-2.2 1.9-4.3 2.8-6.5 1.8-4.2 3.7-8.4 5.6-12.5 3.5-7.6 7.1-15.2 10.9-22.6 6.8-13.4 14.2-26.6 22.5-39.3 3.7-5.7 7.5-11.2 11.6-16.6 0.4-0.5 0.7-1 1.1-1.4 1.8-2.4-3.6 4.5-1.7 2.2 0.9-1.1 1.7-2.1 2.6-3.2 2-2.5 4.1-4.9 6.3-7.4 3.6-4 7.3-7.8 11.2-11.5 1.8-1.7 3.7-3.4 5.6-5.1 1-0.9 2-1.7 3-2.5 4-3.4-4.3 3.3-1.3 1 5.4-4.1 9.6-8.1 11.5-14.9 1.6-6 0.9-14-2.5-19.3-6.6-10.3-23-17.4-34.2-9-45.2 34.1-73 85.9-95.3 136.9-4.3 9.7-8.4 19.5-12.3 29.4-1.7 4.1-3.3 8.3-4.9 12.4-0.9 2.4-1.9 4.9-2.8 7.3l-0.9 2.4c-1.5 3.8 0.3 1.5 0.2-0.5 0 1.6-1.8 3.9-2.5 5.4-0.9 1.8-1.7 3.6-2.7 5.3-2.1 4.1-4.3 8-6.7 11.9-2.3 3.7-4.6 7.3-7.1 10.8-1.2 1.7-2.4 3.3-3.6 4.9-1 1.5-2.8 2.4 0.7-0.9-0.8 0.7-1.5 1.9-2.2 2.7-10.3 12.7-22 24.4-34.5 34.9-1.4 1.2-2.8 2.4-4.3 3.5-0.9 0.7-5.5 4.3-2.4 2 3.2-2.5-1.7 1.3-2.5 1.9-1.9 1.4-3.8 2.8-5.8 4.2-6.5 4.6-13.2 8.9-20 13-6.8 4.1-13.8 7.9-20.9 11.4-3.5 1.8-7.1 3.5-10.7 5.1-1.7 0.8-3.4 1.5-5.1 2.2-0.9 0.4-4.2 1.8-0.6 0.3 3.9-1.7-0.9 0.4-1.4 0.5-14.3 5.8-29.1 10.5-44.1 14-7.3 1.7-14.6 3-21.9 4.2-4.4 0.7 5.7-0.7 0.1 0-1.7 0.2-3.4 0.4-5 0.5-3.8 0.4-7.6 0.7-11.3 0.8-6.8 0.3-13.6 0.1-20.3-0.6-2.2-0.2-7.9-1.7 0.1 0.1-1.5-0.3-3-0.5-4.5-0.7-3.4-0.6-6.7-1.4-10-2.2-2.9-0.7-5.7-1.6-8.5-2.5l-4.2-1.5c-1-0.4-7.3-2.9-2.8-1.1 4.2 1.8-0.5-0.3-1.6-0.8-1.3-0.6-2.6-1.3-3.9-1.9-3-1.5-5.9-3.1-8.8-4.8-2.7-1.6-5.4-3.3-8-5.1-1.2-0.8-2.4-1.7-3.6-2.5-1-0.7-5.6-4.2-2-1.5 3.7 2.8-0.6-0.6-1.5-1.2L380 747c-2.6-2.3-5.1-4.6-7.6-7-4.7-4.6-9.2-9.5-13.4-14.5-2-2.4-3.9-4.9-5.9-7.3 0.2 0.2 3.8 5 1.4 1.8-0.4-0.5-0.8-1.1-1.2-1.6-1.2-1.7-2.4-3.3-3.6-5-8.1-11.6-15.3-23.7-21.8-36.3-3.4-6.5-6.5-13.1-9.5-19.7L316 652c-0.3-0.7-0.6-1.4-0.9-2-1.3-3 2 4.9 0.8 1.9-1.4-3.5-2.8-6.9-4.2-10.4-3.2-8.2-6.1-16.4-8.4-24.8-1-3.9-2-7.8-2.8-11.7-0.4-1.9-0.7-3.8-1.1-5.7-0.2-1.1-0.3-2.1-0.5-3.2-0.8-4.6 0.5 4.3 0.2 1.1-0.7-7.6-1.2-15.1-1-22.7 0.1-3.6 0.3-7.1 0.7-10.6 0.1-1.1 0.8-6.9 0.2-2.1-0.6 4.6 0.3-1.4 0.5-2.7 1.2-6.5 2.8-12.9 4.8-19.2 0.9-2.7 1.9-5.3 2.8-7.9 1.5-3.9-2.6 5.7-0.5 1.2 0.7-1.5 1.4-3.1 2.1-4.6 2.3-4.7 4.9-9.3 7.9-13.7 1.2-1.9 2.7-3.7 3.9-5.6-5 7.8-0.6 0.9 1.3-1.3 2.7-3 5.6-5.7 8.6-8.4 3.5-3.1-4.5 3.1-2.3 1.7 0.6-0.4 1.3-0.9 1.9-1.3 1.3-0.8 2.6-1.6 3.9-2.3 4.7-2.6-7.2 2.9-1.6 0.7 3.2-1.3 6.4-2.6 9.6-4 2.7-1.2 5.4-2.5 8.1-3.8 1.2-0.6 2.4-1.2 3.7-1.7 1.4-0.7 6.9-3 1.7-0.8-5.4 2.3 0.3-0.1 1.7-0.6 1.6-0.6 3.2-1.1 4.8-1.6 3.7-1.1 7.4-2 11.2-2.7 1-0.2 2-0.3 3-0.5 5.3-0.9-5.4 0.6-2.1 0.3 2.7-0.3 5.4-0.6 8.1-0.8 13.8-0.9 27.7-0.3 41.5 0.8 9 0.7 18 1.7 27 2.8 1.9 0.2 3.8 0.5 5.6 0.7 3.4 0.4-5.3-0.7-2-0.3 0.7 0.1 1.5 0.2 2.2 0.3 3.7 0.5 7.4 1.1 11 1.7 10.7 1.8 21.4 4 31.7 7.5 2.1 0.7 4.2 1.5 6.3 2.3 0.5 0.2 1.1 0.4 1.6 0.6 2.2 0.8-4.6-2.1-4-1.7 1 0.6 2.4 1 3.5 1.6 3.9 1.8 7.7 3.8 11.5 5.9 8.8 4.9 17.4 10.4 26 15.7 13.1 8 26.3 16 39.9 23.1 12.2 6.4 25.3 13.2 38.9 15.8 11 2.1 22.5 2.5 33.1-1.5 9.3-3.5 17.4-8.5 25.9-13.4 15.9-9.2 33.1-16.2 49.9-23.7 9.8-4.4 19.6-8.7 29.5-12.9l6.9-3c5.3-2.3-4.1 1.7-1.1 0.5 1.3-0.5 2.6-1.1 3.9-1.6 4.6-1.9 9.3-3.8 13.9-5.7 7.7-3.1 15.5-6.1 23.4-8.6 2.6-0.8 5.2-1.7 7.9-2.2 0.5-0.1 0.9-0.2 1.4-0.3 3.3-0.8-6.4 0.8-5.1 0.7 4.5-0.3-5.2-1-4.5-0.8-14.2-4-22-22.5-14.5-35-1.6 2.7 5.5-5.9 2.5-3.2-0.8 0.7-1.6 1.5-2.4 2.2l-1.8 1.5c-3.4 2.9 5.2-3.9 2.2-1.7-5.4 4.1-9.6 8.1-11.5 14.9-1.6 6-0.9 14 2.5 19.3 6.7 10.1 23.1 17.2 34.3 8.8z" fill="#92646E" /></svg>