<?xml version="1.0" standalone="no"?><!DOCTYPE svg PUBLIC "-//W3C//DTD SVG 1.1//EN" "http://www.w3.org/Graphics/SVG/1.1/DTD/svg11.dtd"><svg class="icon" width="48px" height="48.00px" viewBox="0 0 1024 1024" version="1.1" xmlns="http://www.w3.org/2000/svg"><path d="M523.554 188.383c42.5-47.802 105.09-38.403 207.753 0-70.26 59.563-104.663 152.447-103.208 278.652 2.182 189.307-216.09 239.162-201.88 54.291 14.21-184.871 47.334-276.705 97.335-332.943z" fill="#7ED321" /><path d="M394.062 221.313c82.921 62.294 122.565 120.334 183.965 295.215 21.664 61.704 38.367 130.636 50.11 206.797 9.177 59.525-237.426 71.088-236.07 16.651 2.013-80.743-5.668-155.225-23.041-223.448-46.711-183.424-180.7-269.54-183.965-295.215-3.266-25.675 126.08-62.294 209.001 0z" fill="#7ED321" /><path d="M627 165.26c88.244-66.294 206.646-13.811 211.545 2.057 4.898 15.867-137.255 111.79-183.965 295.215-29.26 114.899-31.027 247.554-5.3 397.965 2.328 13.61-6.818 26.529-20.427 28.857a25 25 0 0 1-4.215 0.358H401.893c-13.807 0-25-11.193-25-25a25 25 0 0 1 0.025-1.11c6.975-156.875 29.862-290.565 68.66-401.07 61.4-174.881 93.178-230.98 181.422-297.273z" fill="#F5FFEA" /><path d="M422.5 583.03c10.278-50.008 7.984-77.508 23.078-120.498 61.4-174.881 93.178-230.98 181.422-297.273 88.244-66.293 206.646-13.81 211.545 2.058 4.898 15.867-137.255 111.79-183.965 295.215-9.729 38.203-16.418 78.37-20.068 120.498H422.5z" fill="#4FA300" /><path d="M392.112 692.275c-1.493-62.589-9.188-121.171-23.086-175.747-46.711-183.424-180.7-269.54-183.965-295.215-1.982-15.58 44.864-35.188 100.537-34.283 36.077 0.587 75.86 9.788 108.464 34.283 28.625 21.504 52.093 42.502 73.08 67.975 15.362-43.99 34.225-75.951 56.412-100.905 27.215-30.61 62.67-37.765 111.608-28.868 87.206-57.378 198.634-7.582 203.383 7.802 4.898 15.867-137.255 111.79-183.965 295.215-25.921 101.787-30.266 217.51-13.033 347.167C753.737 821.899 832 849.457 832 881.5c0 43.354-143.269 78.5-320 78.5s-320-35.146-320-78.5c0-31.808 77.116-59.197 187.986-71.53 2.88-40.923 13.618-55.107 12.126-117.695z m243.05-532.76L627 165.26a160.096 160.096 0 0 1 8.162-5.744z m-17.131 12.6c-38.659-4.542-63.616 4.132-83.267 26.234-23.17 26.061-41.858 59.903-56.591 105.056 6.297 8.497 12.4 17.515 18.389 27.208 33.676-74.672 66.054-115.351 121.469-158.497z m-128.824 175.29c-28.477-48.437-59.755-80.744-104.154-114.1-33.78-25.376-79.86-34.994-125.78-30.112-1.726 2.408-2.506 4.808-2.212 7.12 3.168 24.908 129.372 106.704 179.554 279.049a938.027 938.027 0 0 1 8.963-26.83c16.055-45.729 30.085-83.336 43.629-115.127zM467.41 739.668c13.123 18.723 62.809 26.28 112.943 23.963-33.442 9.732-78.628 13.414-116.352 10.358-2.61 29.11-4.602 59.12-5.976 90.03a24.925 24.925 0 0 0 1.878 10.693h164.735a10 10 0 0 0 1.686-0.143c5.443-0.932 9.102-6.1 8.17-11.543-26.061-152.367-24.266-287.114 5.55-404.196 16.956-66.584 46.88-126.233 87.135-181.5 21.629-29.692 41.608-52.598 71.16-83.636 16.818-17.664 17.803-18.712 21.69-23.305l0.11-0.13c-2.867-1.808-6.474-3.75-10.624-5.676-13.317-6.186-30.173-11.37-47.934-14.306a204.403 204.403 0 0 0-23.149-2.508 158.309 158.309 0 0 0-30.325 17.907C619.863 231.97 588.085 288.068 526.685 462.95c-28.112 80.068-47.87 172.308-59.275 276.719z" fill="#162B3F" /></svg>