<?xml version="1.0" standalone="no"?><!DOCTYPE svg PUBLIC "-//W3C//DTD SVG 1.1//EN" "http://www.w3.org/Graphics/SVG/1.1/DTD/svg11.dtd"><svg class="icon" width="48px" height="48.00px" viewBox="0 0 1024 1024" version="1.1" xmlns="http://www.w3.org/2000/svg"><path d="M511.46 9c-20.1 0-38.85 9.69-55.73 28.79-8.14 9.22-15.28 19.85-21.79 30.51a197.84 197.84 0 0 0-66.85-36.82 41.63 41.63 0 0 0-12.57-2c-14.69 0-27.94 7.47-36.37 20.49-11 17-12.6 43.36-12.57 57.55 0 17.53 2.46 43.71 13.8 68.91 3.58 8 9 17.18 15.21 26.71C284.73 220 239.73 243 204.36 270.06c-27.29 20.87-48.79 44-63.9 68.66-17.28 28.24-26 58.14-26 88.89 0 63 13.95 131.15 41.46 202.67C180 693 214.24 756.68 254.93 814.5 294 870 337 917.53 379.48 952.08c48.45 39.43 92.77 59.42 131.74 59.42 36.42 0 79.77-16.1 125.37-46.55 44.82-29.94 88.9-71.84 127.48-121.19a691.7 691.7 0 0 0 146-425.49c0-30.75-9.43-60.61-28-88.75-16-24.26-38.7-46.87-67.4-67.2-37.32-26.44-84.11-48.45-135.45-64a208.62 208.62 0 0 0 11.59-25.18 249.42 249.42 0 0 0 12.72-46.3c3.45-19.68 7.51-56.14-4-79.16-7.87-15.8-22.53-25.21-39.2-25.21a42.71 42.71 0 0 0-17.14 3.59 168.4 168.4 0 0 0-51.37 35c-9-13.12-19-24-29.56-32.45C546.17 15.8 528.61 9 511.46 9z" fill="#4A4A4A" /><path d="M466.25 306.82S372.88 199.7 355.19 160.39s-9.23-94.33 0-91.4c61.92 19.66 88.45 70.76 93.37 72.73 2.34 0.94 0.85-22.18 13.76-44.23 14.16-24.18 30.47-49.14 49.14-49.14 16.71 0 36.13 15.63 52.09 41.28 16.57 26.64 18.67 61.92 18.67 61.92s15.72-62.9 76.66-89.44c14.56-6.34 14.46 81.62-24.57 133.66-47.17 62.9-105.16 111.06-105.16 111.06z" fill="#39B54A" /><path d="M476.08 177.09C422 165.27 375.4 139.9 345.43 120.39c1.15 13.34 4.12 27.47 9.76 40 11.77 26.15 57 82.28 86 117h120.32c20.72-20 48.22-48.8 72.8-81.57 0.39-0.52 0.77-1.06 1.16-1.59-45.09-1.52-107.2-5.72-159.39-17.14z" fill="#009245" /><path d="M153.72 427.62c0-124.71 192.78-213.74 356.46-215.12 163.94-1.4 360.62 86.15 360.62 205.76 0 331.52-247.34 553.92-359.58 553.92-121.05 0-357.5-299.3-357.5-544.56z" fill="#F93890" /><path d="M354.21 699.95C239.83 534 235.43 376.21 245.31 289.13c-54.92 36.5-91.59 84.1-91.59 138.49 0 245.26 236.45 544.57 357.5 544.57 39.83 0 96.66-28 153.42-79-80.57-10.95-212.72-51.47-310.43-193.24z" fill="#FF74A4" /><path d="M307.81 820s5.14 6.62 7.73 9.87c67.67 85 142.72 142.28 195.68 142.28 39.83 0 96.66-28 153.42-79-69.07-9.42-176-40.54-266.71-138.52-3.09-3.34-9.22-10.26-9.22-10.26s-12 17.52-36 38.75C327 805.86 307.81 820 307.81 820z" fill="#FFD180" /><path d="M264.86 513.09s-2.23-7.92-3.27-11.85c-22.94-86.49-22-161.32-16.28-212.11-54.92 36.5-91.59 84.1-91.59 138.49 0 49.27 9.54 100.73 25.78 151.5 1.41 4.41 4.38 13.22 4.38 13.22z" fill="#FF40BA" /><path d="M795.81 521.77c-17.83-6.59-24.44 7.18-28.4 23.95-3.88 16.4 5.94 37.72 24.44 31.13 23.65-8.42 21.79-48.49 3.96-55.08zM725.86 339.26c26.54-11.79 63.88-3.93 84.52 50.12 9.44 24.72 6 103.45-20.64 101.23-23.59-2 2.21-41.6-22.6-85.5-12.78-22.61-67.82-54.11-41.28-65.85z" fill="#FFFFFF" /><path d="M366.99 465.92a12.66 28.49 0 1 0 25.32 0 12.66 28.49 0 1 0-25.32 0Z" fill="#662D91" /><path d="M432.68 625.62a12.66 28.49 0 1 0 25.32 0 12.66 28.49 0 1 0-25.32 0Z" fill="#662D91" /><path d="M499.27 418.74a12.66 28.49 0 1 0 25.32 0 12.66 28.49 0 1 0-25.32 0Z" fill="#662D91" /><path d="M646.29 455.69a12.66 28.49 0 1 0 25.32 0 12.66 28.49 0 1 0-25.32 0Z" fill="#662D91" /><path d="M506.28 754.71a12.66 28.49 0 1 0 25.32 0 12.66 28.49 0 1 0-25.32 0Z" fill="#662D91" /><path d="M576.77 621.31a12.66 28.49 0 1 0 25.32 0 12.66 28.49 0 1 0-25.32 0Z" fill="#662D91" /></svg>