<?xml version="1.0" standalone="no"?><!DOCTYPE svg PUBLIC "-//W3C//DTD SVG 1.1//EN" "http://www.w3.org/Graphics/SVG/1.1/DTD/svg11.dtd"><svg class="icon" width="48px" height="48.00px" viewBox="0 0 1024 1024" version="1.1" xmlns="http://www.w3.org/2000/svg"><path d="M630.4 449.6H400c-14.4 0-24-11.2-24-24v-22.4c0-110.4 89.6-200 200-200 40 0 72 32 72 72V432c0 9.6-8 17.6-17.6 17.6z" fill="#FF7FB7" /><path d="M576 32c22.4 0 40 17.6 40 40v368h-208v-240C408 107.2 483.2 32 576 32m0-32c-110.4 0-200 89.6-200 200V448c0 14.4 11.2 24 24 24h228.8c9.6 0 17.6-8 17.6-17.6V73.6C648 33.6 616 0 576 0z" fill="#ED2476" /><path d="M576 32c22.4 0 40 17.6 40 40v368h-208v-240C408 107.2 483.2 32 576 32m0-32c-110.4 0-200 89.6-200 200V448c0 14.4 11.2 24 24 24h228.8c9.6 0 17.6-8 17.6-17.6V73.6C648 33.6 616 0 576 0z" fill="#ED2476" /><path d="M694.4 486.4V992H329.6V486.4h364.8m0-32H329.6c-17.6 0-32 14.4-32 32V992c0 17.6 14.4 32 32 32h363.2c17.6 0 32-14.4 32-32V486.4c1.6-17.6-12.8-32-30.4-32z" fill="#ED2476" /><path d="M329.6 819.2s8-33.6 44.8-44.8 112 35.2 188.8-51.2c24-25.6 129.6-81.6 131.2-41.6 3.2 89.6 3.2 185.6 3.2 185.6v126.4l-368-1.6V819.2z" fill="#FF7FB7" /></svg>