<?xml version="1.0" standalone="no"?><!DOCTYPE svg PUBLIC "-//W3C//DTD SVG 1.1//EN" "http://www.w3.org/Graphics/SVG/1.1/DTD/svg11.dtd"><svg class="icon" width="48px" height="48.00px" viewBox="0 0 1024 1024" version="1.1" xmlns="http://www.w3.org/2000/svg"><path d="M733.952 554.666667H640a42.666667 42.666667 0 0 0 0 85.333333h70.058667l-27.306667 97.536a42.666667 42.666667 0 0 1-41.130667 31.146667h-301.653333c-27.52 0-55.978667-61.312-85.333333-184.021334C205.781333 552.448 128 465.536 128 363.349333c0-129.578667 56.405333-234.666667 125.994667-234.666666 1.024 0 2.048 0 3.072 0.085333 3.242667-0.981333 183.296-1.024 540.16-0.128a42.666667 42.666667 0 0 1 40.96 54.186667l-8.533334 30.506666H640a42.666667 42.666667 0 0 0 0 85.333334h165.717333l-23.893333 85.333333H640a42.666667 42.666667 0 0 0 0 85.333333h117.888l-23.893333 85.333334zM274.986667 470.016v-256c-41.984 21.333333-62.976 48.341333-62.976 128 0 88.746667 53.504 128 62.976 128z" fill="#000000" /><path d="M256 810.666667h426.666667a85.333333 85.333333 0 0 1 85.333333 85.333333v64a21.333333 21.333333 0 0 1-21.333333 21.333333h-554.666667a21.333333 21.333333 0 0 1-21.333333-21.333333V896a85.333333 85.333333 0 0 1 85.333333-85.333333z m213.333333 128a42.666667 42.666667 0 1 0 0-85.333334 42.666667 42.666667 0 0 0 0 85.333334z" fill="#000000" /></svg>