<?xml version="1.0" standalone="no"?><!DOCTYPE svg PUBLIC "-//W3C//DTD SVG 1.1//EN" "http://www.w3.org/Graphics/SVG/1.1/DTD/svg11.dtd"><svg class="icon" width="48px" height="48.00px" viewBox="0 0 1024 1024" version="1.1" xmlns="http://www.w3.org/2000/svg"><path d="M455.1 161.3C248.7 161.3 81.4 328.6 81.4 535s167.3 373.8 373.8 373.8S828.9 741.5 828.9 535c0-206.4-167.3-373.7-373.8-373.7z m0 650.1c-152.6 0-276.3-123.7-276.3-276.3s123.7-276.3 276.3-276.3 276.3 123.7 276.3 276.3c0 152.5-123.7 276.2-276.3 276.3z" fill="#E9EAEB" /><path d="M113.9 536.4H81.4c0-66.3 17.6-131.4 51-188.6l28 16.4c-30.5 52.3-46.6 111.7-46.5 172.2z m341.2 373.8v-32.5c146.7 0.1 277-93.6 323.5-232.7l30.8 10.4c-50.9 152.3-193.6 254.9-354.3 254.8z" fill="#BCC0C4" /><path d="M710.8 484.5c-6.3-32.8-18.7-64.2-36.8-92.4l27.4-17.5c20.3 31.6 34.3 66.9 41.3 103.8l-31.9 6.1zM450.7 832.1c-164.2 0-297.4-133.1-297.4-297.3 0-164.2 133.1-297.4 297.3-297.4 63 0 124.4 20 175.3 57.1l-19.2 26.3c-118.2-86.1-283.8-60-369.8 58.2s-60 283.8 58.2 369.8 283.8 60 369.8-58.2c22.8-31.3 38.4-67.1 45.8-105.1l31.9 6.2C715.3 731.3 593 832 450.7 832.1z" fill="#2A5082" /><path d="M659.1 172.5c-125.5-72.1-279.3-74.3-406.7-5.8L237 138.1c137.4-73.9 303.2-71.5 438.4 6.3l-16.3 28.1zM252.9 939.7C29.3 830.4-63.4 560.4 45.9 336.8c3.2-6.6 6.6-13.1 10.1-19.5L84.5 333C-26.9 535.4 46.8 789.7 249.2 901.1c5.9 3.3 11.9 6.4 18 9.4l-14.3 29.2z m404.8-4.9L642.9 906c98.1-51.3 172-139.1 205.9-244.5l31 9.9C843.3 785 763.4 879.6 657.7 934.8z m196.7-507.9c-7.1-27-17-53.2-29.4-78.2l29.4-14.7c13.5 27 24.1 55.3 31.9 84.4l-31.9 8.5z" fill="#BCC0C4" /><path d="M616.3 502.5c-3.3-17-9.3-33.5-17.6-48.7l28.5-15.7c10 18.2 17.1 37.8 21 58.2l-31.9 6.2zM450.7 735.9c-111.1 0.1-201.2-89.9-201.2-201s89.9-201.2 201-201.2c36.2 0 71.8 9.7 102.9 28.2l-16.5 27.7c-80.1-47.5-183.5-21-231 59.1s-21 183.5 59.1 231 183.5 21 231-59.1c6.9-11.6 12.3-24 16.3-36.9l31.1 9.4c-25.5 85.1-103.9 143.2-192.7 142.8z" fill="#2A5082" /><path d="M450.7 643.7c-60.2 0-108.9-48.8-108.9-108.9s48.8-108.9 108.9-108.9c16.6 0 33 3.8 47.9 11.1l-14.3 29.4c-10.5-5.1-22-7.8-33.6-7.7-42.2 0-76.4 34.2-76.4 76.4s34.2 76.4 76.4 76.4c30.7 0 58.5-18.4 70.4-46.8l30.4 12.4c-17 40.5-56.8 66.8-100.8 66.6z" fill="#2A5082" /><path d="M455.1 518.8H1024v32.5H455.1v-32.5z" fill="#2A5082" /><path d="M975.2 470h-96.8l-49.6 48.5V551l49.6 49h96.8v-16.5l-32.6-48.8 32.6-48.8V470z" fill="#A3D4FF" /><path d="M991.5 616.3H871.8L813 557.5v-45.7l58.8-57.9h119.6V491L962 535.1l29.4 44.1 0.1 37.1z m-106.3-32.5H956l-32.6-49 32.4-48.5h-70.4l-39.9 39.1v18.9l39.7 39.5z m-443-56.4L838 136.6l22.8 23.1L465 550.5l-22.8-23.1z" fill="#2A5082" /><path d="M768.3 136.6l-69.4 68.9v69l12 8.4 11.9 8.4h69l69-65.8-11.5-9.9-57.4-10.7-11.7-57.1-11.9-11.2z" fill="#A3D4FF" /><path d="M798.3 307.5h-80.9l-35-24.5v-84.2l85.4-84.9 26.9 25.4 10.5 51.5 51.3 9.3 28.4 24.5-86.6 82.9zM728 275h57.3l48.1-46-55.3-10.3-11.8-57.2-51.5 50.8v54L728 275z" fill="#2A5082" /></svg>