<?xml version="1.0" standalone="no"?><!DOCTYPE svg PUBLIC "-//W3C//DTD SVG 1.1//EN" "http://www.w3.org/Graphics/SVG/1.1/DTD/svg11.dtd"><svg class="icon" width="48px" height="48.00px" viewBox="0 0 1024 1024" version="1.1" xmlns="http://www.w3.org/2000/svg"><path d="M0 0m85.333333 0l853.333334 0q85.333333 0 85.333333 85.333333l0 853.333334q0 85.333333-85.333333 85.333333l-853.333334 0q-85.333333 0-85.333333-85.333333l0-853.333334q0-85.333333 85.333333-85.333333Z" fill="#4070FF" /><path d="M512 277.333333c129.6 0 234.666667 105.066667 234.666667 234.666667s-105.066667 234.666667-234.666667 234.666667S277.333333 641.6 277.333333 512 382.4 277.333333 512 277.333333z m0 42.666667c-106.037333 0-192 85.962667-192 192s85.962667 192 192 192 192-85.962667 192-192-85.962667-192-192-192z" fill="#9FB7FF" /><path d="M522.666667 661.333333a10.666667 10.666667 0 0 1 10.666666 10.666667v128a10.666667 10.666667 0 0 1-10.666666 10.666667h-21.333334a10.666667 10.666667 0 0 1-10.666666-10.666667V672a10.666667 10.666667 0 0 1 10.666666-10.666667h21.333334z m277.333333-170.666666a10.666667 10.666667 0 0 1 10.666667 10.666666v21.333334a10.666667 10.666667 0 0 1-10.666667 10.666666H672a10.666667 10.666667 0 0 1-10.666667-10.666666v-21.333334a10.666667 10.666667 0 0 1 10.666667-10.666666h128z m-448 0a10.666667 10.666667 0 0 1 10.666667 10.666666v21.333334a10.666667 10.666667 0 0 1-10.666667 10.666666H224a10.666667 10.666667 0 0 1-10.666667-10.666666v-21.333334a10.666667 10.666667 0 0 1 10.666667-10.666666h128zM522.666667 213.333333a10.666667 10.666667 0 0 1 10.666666 10.666667v128a10.666667 10.666667 0 0 1-10.666666 10.666667h-21.333334a10.666667 10.666667 0 0 1-10.666666-10.666667V224a10.666667 10.666667 0 0 1 10.666666-10.666667h21.333334z" fill="#FFFFFF" /><path d="M512 512m-96 0a96 96 0 1 0 192 0 96 96 0 1 0-192 0Z" fill="#FFFFFF" /></svg>