<?xml version="1.0" standalone="no"?><!DOCTYPE svg PUBLIC "-//W3C//DTD SVG 1.1//EN" "http://www.w3.org/Graphics/SVG/1.1/DTD/svg11.dtd"><svg class="icon" width="48px" height="48.00px" viewBox="0 0 1024 1024" version="1.1" xmlns="http://www.w3.org/2000/svg"><path d="M225 159c53.572 0 97 43.428 97 97 0 16.587-4.163 32.202-11.502 45.856l95.456 113.76C431.003 401.227 460.04 393 491 393c30.23 0 58.628 7.844 83.27 21.609L737.932 219.56l49.027 41.138-163.622 195C647.501 485.188 662 522.9 662 564c0 36.887-11.68 71.046-31.543 98.981L740.4 776.831C753.26 770.535 767.717 767 783 767c53.572 0 97 43.428 97 97s-43.428 97-97 97-97-43.428-97-97c0-14.912 3.365-29.038 9.377-41.66l-111.07-115.016C557.474 724.827 525.425 735 491 735c-42.208 0-80.844-15.292-110.67-40.638l-95.42 74.55c3.3 9.759 5.09 20.214 5.09 31.088 0 53.572-43.428 97-97 97s-97-43.428-97-97 43.428-97 97-97c19.364 0 37.402 5.674 52.544 15.45l94.58-73.895C327.283 620.552 320 593.126 320 564c0-40.364 13.985-77.462 37.375-106.712l-94.093-112.135C251.537 350.203 238.595 353 225 353c-53.572 0-97-43.428-97-97s43.428-97 97-97z m558 673c-17.673 0-32 14.327-32 32 0 17.673 14.327 32 32 32 17.673 0 32-14.327 32-32 0-17.673-14.327-32-32-32z m-590-64c-17.673 0-32 14.327-32 32 0 17.673 14.327 32 32 32 17.673 0 32-14.327 32-32 0-17.673-14.327-32-32-32z m298-303c-54.676 0-99 44.324-99 99s44.324 99 99 99 99-44.324 99-99-44.324-99-99-99zM225 224c-17.673 0-32 14.327-32 32 0 17.673 14.327 32 32 32 17.673 0 32-14.327 32-32 0-17.673-14.327-32-32-32z" fill="#1C6EFF" /><path d="M800 63c-70.692 0-128 57.308-128 128 0 70.692 57.308 128 128 128 70.692 0 128-57.308 128-128 0-70.692-57.308-128-128-128z m0 72c30.928 0 56 25.072 56 56s-25.072 56-56 56-56-25.072-56-56 25.072-56 56-56z" fill="#44D7B6" /></svg>