<?xml version="1.0" standalone="no"?><!DOCTYPE svg PUBLIC "-//W3C//DTD SVG 1.1//EN" "http://www.w3.org/Graphics/SVG/1.1/DTD/svg11.dtd"><svg class="icon" width="48px" height="47.63px" viewBox="0 0 1032 1024" version="1.1" xmlns="http://www.w3.org/2000/svg"><path d="M723.154051 266.571235l0.008079 371.92811c0 43.282682 35.405759 78.684402 78.680363 78.684403h11.803266c43.278643 0 78.680363-35.409799 78.680363-78.684403V266.571235" fill="#F0F0FF" /><path d="M702.956813 266.571235l0.008079 371.92811c0 54.516387 44.349097 98.881641 98.877601 98.881641h11.803266c54.520426 0 98.877602-44.353136 98.877602-98.881641V266.571235h-40.394477v371.92811c0 32.242872-26.228134 58.487164-58.483125 58.487164h-11.803266c-32.246911 0-58.483124-26.236213-58.483124-58.487164l-0.008079-371.92811h-40.394477z" fill="#6E6E96" /><path d="M129.573365 62.191337l0.004039 371.928111c0 43.278643 35.409799 78.684402 78.684403 78.684402h11.799227c43.274604 0 78.676323-35.409799 78.680362-78.684402V62.191337" fill="#F0F0FF" /><path d="M89.805002 82.388576h248.708797a20.197239 20.197239 0 0 0 0-40.394477h-248.708797a20.197239 20.197239 0 0 0 0 40.394477zM493.984063 0h40.394477v853.547424h-40.394477z" fill="#6E6E96" /><path d="M453.428008 586.729783h117.143984v266.817641h-117.143984z" fill="#FFE0A6" /><path d="M453.428008 606.927022h117.143984l-20.197239-20.197239v266.817641l20.197239-20.197239h-117.143984l20.197239 20.197239V586.729783l-20.197239 20.197239z m0 266.817641h137.341223V566.532544h-157.538462v307.212119h20.197239z" fill="#6E6E96" /><path d="M129.577404 215.524734v218.594714c0 43.274604 35.409799 78.684402 78.684403 78.684402h11.803266c43.274604 0 78.676323-35.409799 78.680363-78.684402V215.524734H129.577404z" fill="#E5C2FF" /><path d="M109.376126 62.191337l0.00404 371.928111c0 54.524465 44.357176 98.881641 98.881641 98.881641h11.799227c54.516387 0 98.873562-44.357176 98.877601-98.881641V62.187298h-40.394477v371.92811c-0.004039 32.246911-26.240252 58.487164-58.483124 58.487164h-11.799227c-32.250951 0-58.487164-26.236213-58.487164-58.487164l-0.004039-371.92811-40.394478 0.004039z" fill="#6E6E96" /><path d="M251.770698 59.497026v324.117207c0 42.099124-24.862801 76.543495-55.255605 76.543495h-8.288947c-30.388765 0-55.259645-34.444371-55.259645-76.543495V59.497026h-12.65559l0.00404 371.93215c0 43.274604 35.409799 78.684402 78.684402 78.684402h11.803266c43.274604 0 78.676323-35.409799 78.680363-78.684402V59.497026h-37.712284zM838.007669 260.952363v324.117207c0 42.099124-24.862801 76.543495-55.263685 76.543495h-8.284907c-30.388765 0-55.263684-34.444371-55.263684-76.543495l-0.00404-324.117207h-12.65559l0.00404 371.93215c0 43.274604 35.409799 78.684402 78.684402 78.684402h11.803266c43.274604 0 78.676323-35.413838 78.680363-78.684402V260.952363h-37.700165z" fill="#6E6E96" /><path d="M683.393767 286.768473h248.704758a20.197239 20.197239 0 1 0 0-40.394477H683.393767a20.197239 20.197239 0 1 0 0 40.394477z" fill="#6E6E96" /><path d="M170.666667 112.769262h26.930998v172.351117H170.666667z" fill="#FFFFFF" /><path d="M170.666667 312.047337h26.930998v45.779061H170.666667z" fill="#FFFFFF" /><path d="M768.504931 321.285554h26.926959v177.7357h-26.926959z" fill="#FFFFFF" /><path d="M768.504931 525.952252h26.926959v45.779062h-26.926959z" fill="#FFFFFF" /><path d="M743.35129 286.768473h94.656379v34.517081h-94.656379zM149.770604 82.388576h102.000094v30.380686H149.770604z" fill="#6E6E96" /><path d="M514.181302 403.423684h378.140781v40.394478H514.181302zM129.577404 195.327495h384.603898v40.394477H129.577404z" fill="#6E6E96" /><path d="M922.933018 853.547424H105.425546L40.394477 918.570414v65.035109h951.289941l0.323156-65.035109z" fill="#FFE0A6" /><path d="M922.933018 833.350185H105.425546a20.168963 20.168963 0 0 0-14.279447 5.917791L26.11503 904.286927A20.209357 20.209357 0 0 0 20.197239 918.570414v65.035109a20.197239 20.197239 0 0 0 20.197238 20.197238h951.289941a20.201278 20.201278 0 0 0 20.164923-21.348481l0.323156-65.035108a20.213396 20.213396 0 0 0-5.885475-13.132245l-69.074557-65.031069a20.197239 20.197239 0 0 0-14.279447-5.905673z m44.870185 86.375511l3.716292 65.039148a20.177041 20.177041 0 0 1 20.164923-21.348481H40.394477a20.197239 20.197239 0 0 1 20.197239 20.197239V918.570414a20.209357 20.209357 0 0 1-5.917791 14.287527l65.031069-65.031069a20.18916 20.18916 0 0 1-14.279448 5.913751H922.933018a20.156844 20.156844 0 0 1-14.279448-5.913751l65.035109 65.031069a20.217436 20.217436 0 0 1-5.885476-13.132245z" fill="#6E6E96" /><path d="M519.565886 606.927022h30.970445v226.423163h-30.970445z" fill="#6E6E96" /><path d="M41.404339 912.579913h939.846186V1003.802761H41.404339z" fill="#6E6E96" /></svg>