<?xml version="1.0" standalone="no"?><!DOCTYPE svg PUBLIC "-//W3C//DTD SVG 1.1//EN" "http://www.w3.org/Graphics/SVG/1.1/DTD/svg11.dtd"><svg class="icon" width="48px" height="48.00px" viewBox="0 0 1024 1024" version="1.1" xmlns="http://www.w3.org/2000/svg"><path d="M501.8 512m-436.9 0a436.9 436.9 0 1 0 873.8 0 436.9 436.9 0 1 0-873.8 0Z" fill="#FFFFFF" /><path d="M501.8 958.9c-60.3 0-118.8-11.8-173.9-35.1-53.2-22.5-101-54.7-142-95.8-41-41-73.3-88.8-95.8-142-23.3-55.2-35.2-113.7-35.2-174S66.7 393.2 90 338.1c22.5-53.2 54.7-101 95.8-142 41-41 88.8-73.3 142-95.8C383 77 441.5 65.1 501.8 65.1s118.8 11.8 173.9 35.1c53.2 22.5 101 54.7 142 95.8 41 41 73.3 88.8 95.8 142 23.3 55.1 35.1 113.6 35.1 173.9s-11.8 118.8-35.1 173.9c-22.5 53.2-54.7 101-95.8 142s-88.8 73.3-142 95.8c-55.1 23.4-113.6 35.3-173.9 35.3z m0-873.8C266.4 85.1 74.9 276.6 74.9 512s191.5 426.9 426.9 426.9S928.7 747.4 928.7 512 737.2 85.1 501.8 85.1z" fill="#983BFF" /><path d="M501.8 943.8c-58.3 0-114.8-11.4-168.1-33.9-51.4-21.8-97.6-52.9-137.3-92.5-39.7-39.7-70.8-85.8-92.5-137.3C81.4 626.8 70 570.3 70 512s11.4-114.8 33.9-168.1c21.8-51.4 52.9-97.6 92.5-137.3s85.8-70.8 137.3-92.5C387 91.6 443.5 80.2 501.8 80.2s114.8 11.4 168.1 33.9c51.4 21.8 97.6 52.9 137.3 92.5 39.7 39.7 70.8 85.8 92.5 137.3 22.5 53.2 33.9 109.8 33.9 168.1s-11.4 114.8-33.9 168.1c-21.8 51.4-52.9 97.6-92.5 137.3-39.7 39.7-85.8 70.8-137.3 92.5-53.3 22.5-109.8 33.9-168.1 33.9z m0-843.6C274.7 100.2 90 284.9 90 512s184.7 411.8 411.8 411.8S913.6 739.1 913.6 512 728.9 100.2 501.8 100.2z" fill="#6BAAFF" /><path d="M501.8 926.4c-55.9 0-110.2-11-161.3-32.6-49.4-20.8-93.7-50.7-131.7-88.8s-67.9-82.4-88.8-131.7C98.3 622.2 87.4 567.9 87.4 512s11-110.2 32.6-161.3c20.8-49.4 50.7-93.7 88.8-131.7s82.4-67.9 131.7-88.8c51.1-21.6 105.4-32.6 161.3-32.6s110.2 11 161.3 32.6c49.4 20.8 93.7 50.7 131.7 88.8s67.9 82.4 88.8 131.7c21.6 51.1 32.6 105.4 32.6 161.3s-11 110.2-32.6 161.3c-20.8 49.4-50.7 93.7-88.8 131.7s-82.4 67.9-131.7 88.8c-51.1 21.7-105.4 32.6-161.3 32.6z m0-808.8c-217.5 0-394.4 176.9-394.4 394.4s176.9 394.4 394.4 394.4S896.2 729.5 896.2 512 719.3 117.6 501.8 117.6z" fill="#5CFFF9" /><path d="M501.8 512m-399.2 0a399.2 399.2 0 1 0 798.4 0 399.2 399.2 0 1 0-798.4 0Z" fill="#5900A3" /><path d="M509.5 321.1h-14.1c-11.3 0-20.4 8.3-20.4 18.5v138.9h34.5c11.3 0 20.4-8.3 20.4-18.5V339.6c-0.1-10.2-9.3-18.5-20.4-18.5z" fill="#73AEFF" /><path d="M521.1 361.2H336.3c-4.9 0-8.9-9-8.9-20.1 0-11.1 3.9-20.1 8.9-20.1H521c4.9 0 8.9 9 8.9 20.1-0.1 11.1-4 20.1-8.8 20.1z" fill="#1B79FF" /><path d="M332.9 512H347c11.3 0 20.4-10 20.5-22.4l0.6-168.4-34.5-0.1c-11.3 0-20.4 10-20.5 22.4l-0.5 146c-0.1 12.3 9.1 22.4 20.3 22.5z" fill="#2E4AFF" /><path d="M521.3 500.5L390.6 656.8c-3.4 4.1-15.3-0.1-26.6-9.5-11.2-9.4-17.5-20.3-14-24.5l130.6-156.2c3.4-4.1 15.3 0.1 26.6 9.5 11.2 9.4 17.5 20.3 14.1 24.4z" fill="#1B79FF" /><path d="M667.4 658.3H496.7c-4.5 0-8.2-11.6-8.2-26s3.6-26 8.2-26h170.6c4.5 0 8.2 11.6 8.2 26s-3.7 26-8.1 26z" fill="#99DBFF" /><path d="M670.5 454.1h-14.1c-11.3 0-20.4 10.8-20.4 24v180.2h34.5c11.3 0 20.4-10.8 20.4-24V478.1c0-13.2-9.2-24-20.4-24z" fill="#73AEFF" /><path d="M682.1 506.1H497.4c-4.9 0-8.9-11.6-8.9-26s3.9-26 8.9-26H682c4.9 0 8.9 11.6 8.9 26s-3.9 26-8.8 26z" fill="#1B79FF" /><path d="M474 478.1v156.2c0 13.2 9.1 24 20.4 24h34.5V478.1c0-13.2-9.1-24-20.4-24h-14.1c-11.2 0-20.4 10.8-20.4 24z" fill="#2E4AFF" /></svg>