<?xml version="1.0" standalone="no"?><!DOCTYPE svg PUBLIC "-//W3C//DTD SVG 1.1//EN" "http://www.w3.org/Graphics/SVG/1.1/DTD/svg11.dtd"><svg class="icon" width="48px" height="48.00px" viewBox="0 0 1024 1024" version="1.1" xmlns="http://www.w3.org/2000/svg"><path d="M786.8416 908.0832c-125.952 46.3872-307.2 36.4544-460.8 21.6064a334.336 334.336 0 0 1-52.3264-16.0768c-81.92-32.9728-91.0336-48.0256-114.176-217.2928-2.56-21.1968-4.5056-42.7008-6.0416-64.4096-4.7104-65.024-6.2464-118.9888-10.8544-176.3328-3.7888-19.5584-6.4512-26.7264-11.776-46.2848 118.1696-21.2992 236.4416-10.24 359.7312-7.5776 19.6608 0.512 39.2192 0.8192 58.7776 1.1264q66.048 1.1264 132.608 4.1984l44.4416 2.1504c49.152 0 113.664 0 167.424-10.24-4.3008 53.248-12.0832 208.1792-10.24 141.0048 0-17.3056 0.7168 144.896-7.4752 197.8368-2.7648 17.6128-15.9744 101.1712-39.3216 138.752a108.9536 108.9536 0 0 1-49.9712 31.5392z" fill="#136CA8" /><path d="M449.1264 391.4752l24.8832-58.0608c0.8192-1.9456 6.0416-13.9264 15.36-31.4368 47.9232-129.1264 241.3568-278.528 359.5264-139.776a73.728 73.728 0 0 1 10.24 23.9616 81.92 81.92 0 0 1 2.048 23.4496 252.928 252.928 0 0 1-7.9872 43.4176c-47.7184 122.88-208.896 101.2736-307.2 128.4096-19.3536 2.4576-32.0512 3.6864-33.9968 3.8912z m275.456-211.7632c-58.368 25.1904-122.88 57.1392-144.384 121.2416 64.512-21.2992 150.4256 0 204.1856-64 10.24-10.24-10.24-32.0512-22.7328-44.9536a54.272 54.272 0 0 0-37.0688-12.288z" fill="#F15921" /><path d="M539.0336 374.8864a836.8128 836.8128 0 0 1-181.8624-19.2512c-12.4928-2.56-25.1904-5.2224-38.2976-8.192-57.2416-10.24-111.0016-43.9296-131.2768-95.9488a124.2112 124.2112 0 0 1-7.8848-33.28 125.8496 125.8496 0 0 1 163.84-130.6624C440.32 108.8512 472.7808 194.56 522.8544 259.4816a270.9504 270.9504 0 0 1 11.8784 28.8768A249.6512 249.6512 0 0 1 547.7376 348.16zM298.496 168.2432c-19.0464 4.7104-62.0544 15.36-29.7984 68.7104 32.256 64 128.9216 42.7008 193.4336 64C440.32 236.9536 386.8672 204.8 332.5952 171.9296a144.2816 144.2816 0 0 0-34.0992-3.6864zM574.2592 942.08v-32.768a1910.5792 1910.5792 0 0 1 2.56-258.4576 707.584 707.584 0 0 0-2.56-80.4864 440.32 440.32 0 0 0-15.36-86.4256c0-12.1856-75.264-12.1856-86.016 0-24.1664 64.1024-18.1248 122.88-15.0528 191.5904 1.024 22.7328 1.7408 45.2608 0.9216 67.1744 1.9456 64-16.0768 137.4208 3.4816 197.632 37.4784 1.7408 75.0592 1.7408 112.0256 1.7408z" fill="#F15921" /><path d="M879.3088 491.52c-77.7216 2.1504-137.8304 1.7408-212.2752 1.6384h-70.9632l-70.9632-0.6144-56.0128-1.024c-114.5856-8.9088-232.7552 44.4416-350.9248-8.9088-32.256-21.8112-43.008-74.9568-32.256-106.9056 10.24-97.792 193.4336-42.7008 290.5088-54.9888 23.04 1.4336 46.2848 2.6624 69.5296 3.1744s46.4896 0 69.8368-1.536h55.9104a527.6672 527.6672 0 0 0 58.88 1.6384c89.2928-1.7408 164.5568-23.04 250.4704-1.7408 64.512 21.2992 75.264 85.4016 44.2368 138.5472a54.3744 54.3744 0 0 1-45.9776 30.72z" fill="#FAB414" /></svg>