<?xml version="1.0" standalone="no"?><!DOCTYPE svg PUBLIC "-//W3C//DTD SVG 1.1//EN" "http://www.w3.org/Graphics/SVG/1.1/DTD/svg11.dtd"><svg class="icon" width="48px" height="46.77px" viewBox="0 0 1051 1024" version="1.1" xmlns="http://www.w3.org/2000/svg"><path d="M566.151404 540.485366m-318.291894 0a318.291894 318.291894 0 1 0 636.583788 0 318.291894 318.291894 0 1 0-636.583788 0Z" fill="#F5C752" /><path d="M566.151404 105.813672m-50.02401 0a50.02401 50.02401 0 1 0 100.04802 0 50.02401 50.02401 0 1 0-100.04802 0Z" fill="#F5C752" /><path d="M566.151404 973.97599m-50.02401 0a50.02401 50.02401 0 1 0 100.04802 0 50.02401 50.02401 0 1 0-100.04802 0Z" fill="#F5C752" /><path d="M131.301915 506.57724m-50.02401 0a50.02401 50.02401 0 1 0 100.04802 0 50.02401 50.02401 0 1 0-100.04802 0Z" fill="#F5C752" /><path d="M1001.686675 508.799683m-50.02401 0a50.02401 50.02401 0 1 0 100.048021 0 50.02401 50.02401 0 1 0-100.048021 0Z" fill="#F5C752" /><path d="M269.690247 239.655521m-50.02401 0a50.02401 50.02401 0 1 0 100.04802 0 50.02401 50.02401 0 1 0-100.04802 0Z" fill="#F5C752" /><path d="M885.15448 855.119754m-50.024011 0a50.02401 50.02401 0 1 0 100.048021 0 50.02401 50.02401 0 1 0-100.048021 0Z" fill="#F5C752" /><path d="M247.161028 829.885505m-50.02401 0a50.02401 50.02401 0 1 0 100.04802 0 50.02401 50.02401 0 1 0-100.04802 0Z" fill="#F5C752" /><path d="M862.612561 216.643715m-50.024011 0a50.02401 50.02401 0 1 0 100.048021 0 50.02401 50.02401 0 1 0-100.048021 0Z" fill="#F5C752" /><path d="M485.038595 811.978966a327.105467 327.105467 0 1 1 231.311837-95.80633 324.984621 324.984621 0 0 1-231.311837 95.80633z m0-603.437642c-152.396071 0-276.319476 123.961504-276.319476 276.319476S332.731422 761.180276 485.038595 761.180276s276.319476-123.961504 276.319476-276.319476-123.961504-276.319476-276.319476-276.319476z" fill="#333333" /><path d="M485.038595 145.639845a72.819923 72.819923 0 1 1 72.819923-72.819922 72.896121 72.896121 0 0 1-72.819923 72.819922z m0-94.841155a22.021232 22.021232 0 1 0 22.021232 22.021233A22.046632 22.046632 0 0 0 485.038595 50.79869zM485.038595 968.616728a72.819923 72.819923 0 1 1 72.819923-72.819923 72.896121 72.896121 0 0 1-72.819923 72.819923z m0-94.841155a22.021232 22.021232 0 1 0 22.021232 22.021232A22.046632 22.046632 0 0 0 485.038595 873.737474zM72.819923 525.537851a72.819923 72.819923 0 1 1 72.819922-72.819923 72.896121 72.896121 0 0 1-72.819922 72.819923z m0-94.841155a22.021232 22.021232 0 1 0 22.021232 22.021232 22.046632 22.046632 0 0 0-22.021232-22.021232zM897.866852 527.645997a72.819923 72.819923 0 1 1 72.819922-72.819923A72.896121 72.896121 0 0 1 897.866852 527.645997z m0-94.841155a22.021232 22.021232 0 1 0 22.021232 22.021232A22.046632 22.046632 0 0 0 897.866852 432.804842zM204.00754 272.522274A72.819923 72.819923 0 1 1 276.852862 199.702351a72.896121 72.896121 0 0 1-72.845322 72.819923z m0-94.841155A22.021232 22.021232 0 1 0 226.054172 199.702351a22.046632 22.046632 0 0 0-22.046632-22.021232zM787.3797 855.957932a72.819923 72.819923 0 1 1 72.819923-72.819922A72.896121 72.896121 0 0 1 787.3797 855.957932z m0-94.841155a22.021232 22.021232 0 1 0 22.021233 22.021233A22.046632 22.046632 0 0 0 787.3797 761.104078zM182.646691 832.01905a72.819923 72.819923 0 1 1 72.819923-72.819923 72.896121 72.896121 0 0 1-72.819923 72.819923z m0-94.841155a22.021232 22.021232 0 1 0 22.021232 22.021232 22.046632 22.046632 0 0 0-22.021232-22.021232zM766.06965 250.704237a72.819923 72.819923 0 1 1 72.819922-72.819923 72.896121 72.896121 0 0 1-72.819922 72.819923z m0-94.841155a22.021232 22.021232 0 1 0 22.021232 22.021232 22.046632 22.046632 0 0 0-22.021232-22.021232z" fill="#333333" /></svg>