<?xml version="1.0" standalone="no"?><!DOCTYPE svg PUBLIC "-//W3C//DTD SVG 1.1//EN" "http://www.w3.org/Graphics/SVG/1.1/DTD/svg11.dtd"><svg class="icon" width="48px" height="48.00px" viewBox="0 0 1024 1024" version="1.1" xmlns="http://www.w3.org/2000/svg"><path d="M757.76 675.2m-193.92 0a193.92 193.92 0 1 0 387.84 0 193.92 193.92 0 1 0-387.84 0Z" fill="#4169E1" /><path d="M244.48 207.573333m-45.653333 0a45.653333 45.653333 0 1 0 91.306666 0 45.653333 45.653333 0 1 0-91.306666 0Z" fill="#4169E1" /><path d="M248.106667 472.533333h522.453333v64H248.106667z" fill="#2c2c2c" /><path d="M708.693333 885.973333H309.973333a155.52 155.52 0 0 1-155.306666-155.306666v-170.666667a112.426667 112.426667 0 0 1 34.346666-205.866667 284.373333 284.373333 0 0 1 17.706667-28.373333L258.986667 362.666667a213.333333 213.333333 0 0 0-19.413334 33.706666l-8.106666 17.066667-20.266667 2.346667a48.213333 48.213333 0 0 0-46.293333 48.426666 48.213333 48.213333 0 0 0 31.573333 45.226667l21.333333 7.68 1.066667 24.106667v189.44a91.306667 91.306667 0 0 0 91.306667 91.306666h398.506666a91.306667 91.306667 0 0 0 91.306667-91.306666v-211.84l21.333333-9.386667a42.666667 42.666667 0 0 0 17.28-10.88 48.426667 48.426667 0 0 0-31.36-82.773333h-18.773333l-9.813333-17.706667a223.573333 223.573333 0 0 0-178.773334-128L576 266.24l-4.693333-26.24a62.933333 62.933333 0 0 0-61.44-53.12 62.293333 62.293333 0 0 0-61.866667 53.333333l-3.626667 24.533334-26.24 4.053333a221.013333 221.013333 0 0 0-57.6 14.08l-23.466666-59.52a289.92 289.92 0 0 1 53.12-15.146667 126.72 126.72 0 0 1 119.253333-85.333333 126.933333 126.933333 0 0 1 119.253333 85.333333 288.64 288.64 0 0 1 200.96 145.706667 112.64 112.64 0 0 1 55.04 189.653333 109.44 109.44 0 0 1-21.333333 16.426667v170.666667a155.306667 155.306667 0 0 1-154.666667 155.306666z" fill="#2c2c2c" /></svg>