<?xml version="1.0" standalone="no"?><!DOCTYPE svg PUBLIC "-//W3C//DTD SVG 1.1//EN" "http://www.w3.org/Graphics/SVG/1.1/DTD/svg11.dtd"><svg class="icon" width="48px" height="48.00px" viewBox="0 0 1024 1024" version="1.1" xmlns="http://www.w3.org/2000/svg"><path d="M749.013333 622.933333m-181.333333 0a181.333333 181.333333 0 1 0 362.666667 0 181.333333 181.333333 0 1 0-362.666667 0Z" fill="#4169E1" /><path d="M333.013333 164.266667m-42.666666 0a42.666667 42.666667 0 1 0 85.333333 0 42.666667 42.666667 0 1 0-85.333333 0Z" fill="#4169E1" /><path d="M720.853333 941.013333l-21.333333-14.08-162.346667-135.253333a19.84 19.84 0 0 0-13.226666-4.906667H205.866667a110.08 110.08 0 0 1-109.866667-110.08V298.666667a110.08 110.08 0 0 1 109.866667-110.293334h40.96v64H205.866667A45.866667 45.866667 0 0 0 160 298.666667v378.026666a46.08 46.08 0 0 0 45.866667 46.08h318.72a85.333333 85.333333 0 0 1 54.186666 19.626667l110.933334 92.373333v-75.093333a37.333333 37.333333 0 0 1 37.12-36.906667h65.493333a46.08 46.08 0 0 0 45.866667-46.08V298.666667a45.866667 45.866667 0 0 0-45.866667-45.866667H424.96v-64h367.36A110.08 110.08 0 0 1 902.186667 298.666667v378.026666a110.08 110.08 0 0 1-109.866667 110.08h-38.613333v111.786667l3.626666 17.92z" fill="#2c2c2c" /><path d="M306.133333 497.28m-32 0a32 32 0 1 0 64 0 32 32 0 1 0-64 0Z" fill="#2c2c2c" /><path d="M499.2 497.28m-32 0a32 32 0 1 0 64 0 32 32 0 1 0-64 0Z" fill="#2c2c2c" /><path d="M692.053333 497.28m-32 0a32 32 0 1 0 64 0 32 32 0 1 0-64 0Z" fill="#2c2c2c" /></svg>