<?xml version="1.0" standalone="no"?><!DOCTYPE svg PUBLIC "-//W3C//DTD SVG 1.1//EN" "http://www.w3.org/Graphics/SVG/1.1/DTD/svg11.dtd"><svg class="icon" width="48px" height="48.00px" viewBox="0 0 1024 1024" version="1.1" xmlns="http://www.w3.org/2000/svg"><path d="M276.48 705.706667m-174.08 0a174.08 174.08 0 1 0 348.16 0 174.08 174.08 0 1 0-348.16 0Z" fill="#4169E1" /><path d="M304.213333 144m-40.96 0a40.96 40.96 0 1 0 81.92 0 40.96 40.96 0 1 0-81.92 0Z" fill="#4169E1" /><path d="M901.546667 392.533333h-64v-128a17.493333 17.493333 0 0 0-17.493334-17.493333H394.88v-64h425.173333a81.706667 81.706667 0 0 1 81.493334 81.493333zM820.053333 839.68H177.493333a81.493333 81.493333 0 0 1-81.493333-81.28V264.106667a81.493333 81.493333 0 0 1 81.493333-81.493334h39.466667v64H177.493333a17.493333 17.493333 0 0 0-17.493333 17.493334v494.293333a17.493333 17.493333 0 0 0 17.493333 17.28h642.56a17.493333 17.493333 0 0 0 17.493334-17.28v-158.293333h64v158.293333a81.493333 81.493333 0 0 1-81.493334 81.28z" fill="#2c2c2c" /><path d="M879.786667 642.133333h-202.453334a70.186667 70.186667 0 0 1-70.186666-70.186666v-131.2a70.186667 70.186667 0 0 1 70.186666-70.186667h202.453334a70.186667 70.186667 0 0 1 70.186666 70.186667v131.2a70.186667 70.186667 0 0 1-70.186666 70.186666z m-202.453334-207.573333a6.186667 6.186667 0 0 0-6.186666 6.186667v131.2a6.186667 6.186667 0 0 0 6.186666 6.186666h202.453334a6.186667 6.186667 0 0 0 6.186666-6.186666v-131.2a6.186667 6.186667 0 0 0-6.186666-6.186667z" fill="#2c2c2c" /></svg>