<?xml version="1.0" standalone="no"?><!DOCTYPE svg PUBLIC "-//W3C//DTD SVG 1.1//EN" "http://www.w3.org/Graphics/SVG/1.1/DTD/svg11.dtd"><svg class="icon" width="48px" height="48.00px" viewBox="0 0 1024 1024" version="1.1" xmlns="http://www.w3.org/2000/svg"><path d="M747.52 689.92m-181.333333 0a181.333333 181.333333 0 1 0 362.666666 0 181.333333 181.333333 0 1 0-362.666666 0Z" fill="#4169E1" /><path d="M352.853333 124.586667m-42.666666 0a42.666667 42.666667 0 1 0 85.333333 0 42.666667 42.666667 0 1 0-85.333333 0Z" fill="#4169E1" /><path d="M731.093333 882.133333H285.653333a129.92 129.92 0 0 1-129.706666-129.92V306.773333a129.92 129.92 0 0 1 129.706666-129.92v64a65.92 65.92 0 0 0-65.706666 65.92v445.44a65.92 65.92 0 0 0 65.706666 65.92h445.44a66.133333 66.133333 0 0 0 65.92-65.92V306.773333a66.133333 66.133333 0 0 0-65.92-65.92H445.653333v-64h285.44a129.92 129.92 0 0 1 129.92 129.92v445.44a129.92 129.92 0 0 1-129.92 129.92z" fill="#2c2c2c" /><path d="M436.906667 682.666667l-49.92-40.106667 170.666666-213.333333h-163.413333v-64h225.706667a34.346667 34.346667 0 0 1 26.666666 56.32zM597.333333 381.226667z" fill="#2c2c2c" /></svg>