<?xml version="1.0" standalone="no"?><!DOCTYPE svg PUBLIC "-//W3C//DTD SVG 1.1//EN" "http://www.w3.org/Graphics/SVG/1.1/DTD/svg11.dtd"><svg class="icon" width="48px" height="48.00px" viewBox="0 0 1024 1024" version="1.1" xmlns="http://www.w3.org/2000/svg"><path d="M743.253333 717.013333m-184.746666 0a184.746667 184.746667 0 1 0 369.493333 0 184.746667 184.746667 0 1 0-369.493333 0Z" fill="#4169E1" /><path d="M514.986667 128.853333m-43.52 0a43.52 43.52 0 1 0 87.04 0 43.52 43.52 0 1 0-87.04 0Z" fill="#4169E1" /><path d="M427.733333 865.92H277.333333a116.48 116.48 0 0 1-116.266666-116.266667v-149.333333h64v149.333333A52.266667 52.266667 0 0 0 277.333333 801.92h149.333334zM749.866667 865.92h-149.333334v-64h149.333334a52.266667 52.266667 0 0 0 52.053333-52.266667v-149.333333h64v149.333333a116.266667 116.266667 0 0 1-116.053333 116.266667zM865.92 427.733333h-64V277.333333a52.266667 52.266667 0 0 0-52.053333-52.053333h-149.333334v-64h149.333334A116.266667 116.266667 0 0 1 865.92 277.333333zM225.92 427.733333h-64V277.333333A116.266667 116.266667 0 0 1 277.333333 161.92h149.333334v64h-149.333334A52.266667 52.266667 0 0 0 225.92 277.333333zM175.573333 491.093333h676.693334v64H175.573333z" fill="#2c2c2c" /></svg>