<?xml version="1.0" standalone="no"?><!DOCTYPE svg PUBLIC "-//W3C//DTD SVG 1.1//EN" "http://www.w3.org/Graphics/SVG/1.1/DTD/svg11.dtd"><svg class="icon" width="48px" height="48.00px" viewBox="0 0 1024 1024" version="1.1" xmlns="http://www.w3.org/2000/svg"><path d="M712.32 654.293333m-183.68 0a183.68 183.68 0 1 0 367.36 0 183.68 183.68 0 1 0-367.36 0Z" fill="#4169E1" /><path d="M366.72 146.346667m-43.306667 0a43.306667 43.306667 0 1 0 86.613334 0 43.306667 43.306667 0 1 0-86.613334 0Z" fill="#4169E1" /><path d="M590.933333 780.586667H330.88a190.08 190.08 0 0 1-189.866667-189.866667V341.333333A158.08 158.08 0 0 1 298.666667 184.106667v64A93.866667 93.866667 0 0 0 205.013333 341.333333v249.386667a125.866667 125.866667 0 0 0 125.866667 125.866667H590.933333a112.213333 112.213333 0 0 0 113.066667-112v-38.186667a42.666667 42.666667 0 0 1 42.666667-42.666667h53.12a21.333333 21.333333 0 0 0 21.333333-21.333333v-84.053333a21.333333 21.333333 0 0 0-21.333333-21.333334H746.666667a42.666667 42.666667 0 0 1-42.666667-42.666666V341.333333a93.866667 93.866667 0 0 0-93.653333-93.866666h-158.506667v-64h157.44a158.08 158.08 0 0 1 157.44 148.053333h32.426667a85.333333 85.333333 0 0 1 85.333333 85.333333v82.773334a85.333333 85.333333 0 0 1-85.333333 85.333333H768v17.28a176.213333 176.213333 0 0 1-177.066667 178.346667zM232.106667 805.333333h458.453333v64H232.106667z" fill="#2c2c2c" /></svg>