<?xml version="1.0" standalone="no"?><!DOCTYPE svg PUBLIC "-//W3C//DTD SVG 1.1//EN" "http://www.w3.org/Graphics/SVG/1.1/DTD/svg11.dtd"><svg class="icon" width="48px" height="48.00px" viewBox="0 0 1024 1024" version="1.1" xmlns="http://www.w3.org/2000/svg"><path d="M550.4 696.746667l71.253333-59.306667-71.253333-65.28v124.586667zM550.4 451.84l71.253333-65.28-71.253333-59.306667v124.586667z" fill="#ffffff" /><path d="M640 85.333333H384C256 85.333333 170.666667 170.666667 170.666667 298.666667v426.666666c0 128 85.333333 213.333333 213.333333 213.333334h256c128 0 213.333333-85.333333 213.333333-213.333334V298.666667c0-128-85.333333-213.333333-213.333333-213.333334z m30.72 509.866667c12.373333 11.52 19.2 27.306667 18.773333 43.52-0.426667 16.213333-8.106667 32-20.906666 42.666667L580.266667 755.2c-16.213333 13.653333-31.146667 17.493333-42.666667 17.493333-9.386667 0-16.64-2.56-20.906667-4.266666-9.386667-4.266667-30.72-18.346667-30.72-57.173334V597.333333l-98.133333 90.026667c-12.8 11.946667-33.28 11.093333-45.226667-2.133333A31.829333 31.829333 0 0 1 344.746667 640l139.946666-128-139.946666-128.426667A32.213333 32.213333 0 0 1 388.266667 336.213333L486.4 426.666667V312.746667c0-38.4 21.333333-52.48 30.72-57.173334 8.96-4.266667 33.706667-11.946667 63.573333 12.8l87.893334 73.386667c12.8 10.666667 20.48 26.453333 20.906666 42.666667 0.426667 16.213333-6.4 32.426667-18.773333 43.52L579.413333 512l91.306667 83.2z" fill="#ffffff" /></svg>