<?xml version="1.0" standalone="no"?><!DOCTYPE svg PUBLIC "-//W3C//DTD SVG 1.1//EN" "http://www.w3.org/Graphics/SVG/1.1/DTD/svg11.dtd"><svg class="icon" width="48px" height="48.00px" viewBox="0 0 1024 1024" version="1.1" xmlns="http://www.w3.org/2000/svg"><path d="M327.253333 85.333333H246.613333c-44.373333 0-84.48 17.92-113.92 47.36C103.253333 162.133333 85.333333 202.24 85.333333 246.613333c0 88.746667 72.533333 161.28 161.28 161.28h40.106667v322.133334c0 31.146667 17.92 58.026667 43.946667 71.253333a75.648 75.648 0 0 0 64 4.266667c31.146667-11.093333 53.333333-40.533333 53.333333-75.52V206.08C448 139.946667 393.386667 85.333333 327.253333 85.333333zM246.613333 254.72c17.493333 0 32 14.506667 32 32s-14.506667 32-32 32c-39.68 0-72.106667-32.426667-72.106666-72.533333s32.426667-72.106667 72.106666-72.106667c17.493333 0 32 14.506667 32 32s-14.506667 32-32 32a8.106667 8.106667 0 0 0-8.106666 8.106667c0 4.266667 3.413333 8.533333 8.106666 8.533333zM891.306667 132.693333A160.256 160.256 0 0 0 777.386667 85.333333h-80.64a121.173333 121.173333 0 0 0-120.746667 120.746667v523.946667c0 34.986667 22.186667 64.426667 53.333333 75.52a75.648 75.648 0 0 0 64-4.266667c26.026667-13.226667 43.946667-40.106667 43.946667-71.253333V407.893333h40.106667c88.746667 0 161.28-72.533333 161.28-161.28 0-44.373333-17.92-84.48-47.36-113.92z m-113.92 186.026667c-17.493333 0-32-14.506667-32-32s14.506667-32 32-32c4.693333 0 8.106667-3.84 8.106666-8.533333a8.106667 8.106667 0 0 0-8.106666-8.106667c-17.493333 0-32-14.506667-32-32s14.506667-32 32-32a72.277333 72.277333 0 0 1 0 144.64z" fill="#ffffff" /><path d="M394.666667 805.546667V938.666667c0 17.493333-14.506667 32-32 32s-32-14.506667-32-32v-137.386667a75.648 75.648 0 0 0 64 4.266667zM693.333333 801.28V938.666667c0 17.493333-14.506667 32-32 32s-32-14.506667-32-32v-133.12a75.648 75.648 0 0 0 64-4.266667z" fill="#ffffff" /></svg>