<?xml version="1.0" standalone="no"?><!DOCTYPE svg PUBLIC "-//W3C//DTD SVG 1.1//EN" "http://www.w3.org/Graphics/SVG/1.1/DTD/svg11.dtd"><svg class="icon" width="48px" height="48.00px" viewBox="0 0 1024 1024" version="1.1" xmlns="http://www.w3.org/2000/svg"><path d="M725.333333 85.333333H298.666667C204.8 85.333333 128 162.133333 128 256v512c0 93.866667 76.8 170.666667 170.666667 170.666667h426.666666c93.866667 0 170.666667-76.8 170.666667-170.666667V256c0-93.866667-76.8-170.666667-170.666667-170.666667z m-261.973333 688.64c-6.4 6.4-14.506667 9.386667-22.613333 9.386667s-16.213333-2.986667-22.613334-9.386667l-27.733333-27.733333-26.453333 26.453333c-6.4 6.4-14.506667 9.386667-22.613334 9.386667s-16.213333-2.986667-22.613333-9.386667a32.170667 32.170667 0 0 1 0-45.226666l26.453333-26.453334-25.173333-25.173333a32.170667 32.170667 0 0 1 0-45.226667c12.373333-12.373333 32.853333-12.373333 45.226667 0l25.173333 25.173334 26.453333-26.453334c12.373333-12.373333 32.853333-12.373333 45.226667 0 12.373333 12.373333 12.373333 32.853333 0 45.226667l-26.453333 26.453333 27.733333 27.733334c12.373333 12.373333 12.373333 32.853333 0 45.226666z m154.88 14.933334c-23.466667 0-42.666667-18.773333-42.666667-42.24v-0.853334c0-23.466667 19.2-42.666667 42.666667-42.666666s42.666667 19.2 42.666667 42.666666-19.2 43.093333-42.666667 43.093334z m86.186667-92.16c-23.466667 0-43.093333-19.2-43.093334-42.666667s18.773333-42.666667 42.24-42.666667h0.853334c23.466667 0 42.666667 19.2 42.666666 42.666667s-19.2 42.666667-42.666666 42.666667zM768 394.666667c0 40.96-33.706667 74.666667-74.666667 74.666666h-362.666666C289.706667 469.333333 256 435.626667 256 394.666667v-106.666667C256 247.04 289.706667 213.333333 330.666667 213.333333h362.666666c40.96 0 74.666667 33.706667 74.666667 74.666667v106.666667z" fill="#ffffff" /></svg>