<?xml version="1.0" standalone="no"?><!DOCTYPE svg PUBLIC "-//W3C//DTD SVG 1.1//EN" "http://www.w3.org/Graphics/SVG/1.1/DTD/svg11.dtd"><svg class="icon" width="48px" height="48.00px" viewBox="0 0 1024 1024" version="1.1" xmlns="http://www.w3.org/2000/svg"><path d="M483.371496 877.94665h57.288995v80.095836h-57.288995zM652.071752 0.922829a13.626528 13.626528 0 0 0-17.656909 7.644931l-18.488576 46.733233a82.718783 82.718783 0 0 0-4.190317 47.5649c13.082746-9.052365 23.414598-22.231073 29.492157-37.55292l18.488576-46.733234a13.626528 13.626528 0 0 0-7.644931-17.65691zM300.085097 890.837473a13.626528 13.626528 0 0 0 17.65691-7.64493l18.488575-46.733234c6.077559-15.321847 7.516981-32.019142 4.190318-47.564899a82.75077 82.75077 0 0 0-29.492157 37.55292l-18.488576 46.733233a13.626528 13.626528 0 0 0 7.64493 17.65691z" fill="#3E4347" /><path d="M646.154129 15.860831c-14.074348-5.565765-28.276645-10.363838-42.542917-14.426207a22.71088 22.71088 0 0 0-27.381004 13.402618 22.454983 22.454983 0 0 0 14.682104 29.90799 414.553531 414.553531 0 0 1 114.673951 52.714832c153.666293 101.271333 223.75015 294.537725 169.595897 470.435091-72.322958 234.913667-328.316161 354.705564-552.514131 266.037169a404.733474 404.733474 0 0 1-37.041126-16.793256 22.518957 22.518957 0 0 0-31.283438 11.707298 22.71088 22.71088 0 0 0 10.811659 28.500556c13.210695 6.781277 26.837223 13.018772 40.911571 18.584537 237.120781 93.786339 506.324679-22.838829 600.111018-259.95961 93.722365-237.120781-22.902803-506.324679-260.023584-600.111018z" fill="#5A5F63" /><path d="M332.452832 809.023267a390.49919 390.49919 0 1 0 287.251186-726.254244 390.49919 390.49919 0 1 0-287.251186 726.254244Z" fill="#6DAFDF" /><path d="M178.94974 680.649877c-0.127949 0.127949-0.255897 0.159936-0.383845 0.255897 0.479807 0.351859 0.927627 0.735705 1.439422 1.055576l-1.055577-1.311473zM358.845501 159.898991l-0.159936-1.759294c6.429418 1.503396 8.54057-2.622947 13.754477-2.335062 7.389033 0.44782 14.042361 8.956403 19.864023 8.604544-1.951216 1.599358-4.414227 2.239101-6.845251 2.910832-5.053971 1.247499-10.203902 2.526985-15.321847 1.727306-5.117945-0.799679-10.139928-4.126343-11.291466-9.148326z" fill="#DAE5EF" /><path d="M303.251825 512.269492c-1.343461 3.166728-4.350253 5.213906-7.069161 7.293071a94.937877 94.937877 0 0 0-28.436581 34.642089c-6.269482 12.986785-12.25108 29.748054-26.485364 31.699271-21.975176 2.878844-12.25108-16.153513-50.411757 34.482153a679.599098 679.599098 0 0 1-10.715697-5.565765c3.806471 3.102754 4.510189 10.23589 0.287885 13.210695-3.294677-3.870446-9.852044-3.422626-13.818451-0.127948-10.779671 9.212301-8.700506 38.576509 11.963196 53.06669-8.668519 7.453007-51.243423-48.492527-44.590095-123.534393 1.279486-14.522168 4.254292-29.268247 1.119551-43.438557-2.59096-11.963196-9.404224-22.614919-11.995183-34.578115-3.550574-16.985179 1.759294-35.217858-3.582562-51.659255-2.942818-9.340249-8.380635-21.559343-0.287884-27.093121 3.294677-2.303075 8.796468-3.550574 8.380634-7.516981-0.159936-1.311473-1.055576-2.399037-1.599357-3.678523-1.983204-5.053971 2.686921-9.948005 6.301469-14.042361 6.141534-7.165123 9.660121-16.025565 11.931209-25.397801a80.927503 80.927503 0 0 1-8.604545-35.889588c0.095961-7.580956-0.031987-17.113128-7.037174-19.991972l0.511795-17.464987c-1.343461 1.567371-3.614549 1.983204-5.693714 1.471409a388.228102 388.228102 0 0 1 177.240827-181.047298 31.731258 31.731258 0 0 0 4.15833-0.44782c15.257873-2.303075 29.396196-9.276275 44.52612-12.411016 3.102754-0.67173 6.52538-1.11955 9.436211 0.415833 2.846857 1.407435 4.446215 5.565765 2.271088 7.932814a6.9732 6.9732 0 0 1-3.4866 1.855255 272.018767 272.018767 0 0 1-57.992712 12.858836c-2.367049 0.191923-4.894035 0.511794-6.557367 2.14314-2.974805 2.718908-1.823268 7.996789 1.215512 10.651723 3.03878 2.622947 7.293071 3.454613 11.227491 4.062368a19.320242 19.320242 0 0 0-8.412622 14.330246c3.198716 1.631345 6.077559-2.526985 8.348648-5.341855 9.148326-11.099543 31.475361-8.252686 35.441768-22.167099 4.38224 5.053971 12.474991 0.863653 17.944794-3.070767 5.469804-3.998394 15.033963-6.30147 17.273064 0-0.799679 2.718908-1.503396 5.469804-2.303076 8.220699l23.95838 3.102754c-12.538965 3.006793-10.491787 22.103124 2.622946 22.231073-3.390638 8.060763-33.298629 11.995183-42.031122 11.387427l0.383846 5.277881c-0.287884-0.031987-0.543782-0.031987-0.799679-0.127949-6.141534-1.759294-10.68371-8.508583-17.337038-10.171915-4.062369-1.023589-8.828455-2.910831-12.602939 0.159936-0.511794 0.351859-4.638137 6.717303-3.422625 6.525379l12.602939-1.855255a17.592935 17.592935 0 0 1-2.81487 9.244288 21.59133 21.59133 0 0 1 11.163517 7.548969 26.229467 26.229467 0 0 1-29.204272 4.894035l3.198715-9.052365c-17.88082-8.796468-28.404594 16.089539-45.485735 19.640113-10.491787 2.367049-25.653698-2.974805-28.116709 9.596147-2.079165 10.331851 3.454613 7.804866-13.466592 13.37063-7.86884 2.59096-12.890824 11.067556-20.951587 12.890824-5.853649 1.375448-11.899222-1.11955-17.912807-1.567371-5.981598-0.479807-13.434605 2.750895-13.338643 8.764481-2.974805-0.095961-5.405829-3.358651-4.542176-6.237495a193.330366 193.330366 0 0 0-41.775225 52.267011c7.42102 11.259479 21.303445-22.870816 28.596517-11.291466l-12.82685 23.030752c-3.134741 5.341855-1.087563 5.565765 1.407435 10.139928 2.782882 5.277881-0.351859 11.451402-2.271088 17.049154a42.063109 42.063109 0 0 0-1.535383 21.431394c0.127949-1.279486 0.319872-2.526985 0.543781-3.774484a24.630109 24.630109 0 0 0 20.087934 1.56737c3.454613-1.279486 6.74929-3.390638 10.427812-3.294677 6.493392 0.127949 28.116709 16.153513 32.882796 30.195875 1.887242 5.597752 2.015191 11.707299 4.83006 16.825243 6.333457 11.80326 23.830431 14.650117 29.01235 27.061134 4.126343 9.979992-1.791281 21.14351-7.612943 30.323823-3.71051-4.510189-12.730888-0.479807-11.80326 5.309867 3.646536-1.791281 7.772879-3.582561 11.483389-2.111152 3.806471 1.407435 5.053971 7.900827 1.311473 9.148327 9.884031-5.789675 24.630109 4.030382 23.030752 15.481783 8.956403 4.286279 17.944794 8.636532 26.86921 12.986785-7.069161 12.826849 20.887612 24.822032 14.938001 38.160676zM397.805856 110.158964c-11.003581 0.89564-10.4598-16.729282 0.543782-15.06595 5.149932 0.799679 6.781277 2.622947 8.604544-2.335062 2.271088-6.077559 10.171915-9.724095 25.07793-0.159936a17.720884 17.720884 0 0 1-2.878844 11.035569l-9.244288-3.198716c-1.695319 5.149932-4.702112 11.259479-10.107941 11.259479-4.83006 0-9.052365-5.245893-13.658515-3.806472M464.722985 78.651616c9.820057-0.67173 19.256267-4.15833 29.044337-5.085957 16.857231-1.631345 33.426577 4.190317 49.35618 9.948005l108.692353 39.184265-30.291836 3.774484c-8.252686 1.023589-17.464987 1.823268-24.086328-3.230702a12.474991 12.474991 0 0 0 6.717303 15.929603c-18.296653 3.26269-35.025935-14.138323-53.578485-12.634926-7.772879 0.639743-15.417809 4.574163-22.998764 2.878844-4.414227-0.991602-8.252686-3.774484-12.698901-4.510189-7.484994-1.215512-14.39422 3.582561-21.399407 6.429418-8.09275 3.294677-18.200691 3.742497-24.822032-1.983204-6.589354-5.725701-6.077559-18.680499 2.175126-21.559342 4.062369-1.407435 8.54057-0.127949 12.82685-0.543782 4.286279-0.415833 9.052365-4.190317 7.548968-8.220699-0.67173-1.759294-2.367049-3.006793-2.878844-4.83006-0.575769-1.951216 0.383846-4.062369 0.095962-6.045572-1.11955-7.836853-14.61813-3.230703-20.47178-8.540571M561.452142 151.934189c5.277881 0.799679 10.619736-0.415833 15.96159-0.67173 5.341855-0.287884 11.227491 0.607756 14.778066 4.574163 0.031987 3.806471-4.958009 5.341855-8.796468 5.181919a43.758428 43.758428 0 0 1-20.759663-6.205508M839.772379 303.93715a12.02717 12.02717 0 0 1-3.998394-1.887242c-5.629739-3.742497-8.444609-10.363838-12.315055-15.897616a46.157465 46.157465 0 0 0-40.911572-19.096332 27.125108 27.125108 0 0 0 10.523774-13.882425l-2.143139-0.095961c-16.569346-20.983574-36.65728-43.950351-63.462516-44.877979-6.205508-0.159936-12.283068 0.831666-18.55255 0.543781-6.653328-0.255897-13.466592-2.015191-19.89601-0.351858-6.52538 1.599358-12.379029 8.508583-9.756083 14.586143 2.239101 5.149932 8.54057 6.52538 13.530567 9.052364 4.894035 2.494998 8.700506 9.916018 4.190317 13.146721-26.677287 1.599358-53.450536 3.26269-80.127823 4.958009 9.020378 7.453007 11.195504 21.911201 4.734099 31.699271-8.060763-1.663332-13.562554-9.148326-21.015561-12.666913-10.875633-4.958009-25.333827 0.639743-29.971965 11.611337-4.702112 10.971594 1.407435 25.269853 12.570952 29.492157 8.31666 3.198716 18.424601 1.407435 25.653699 6.717303 3.326664-7.42102 11.035569-11.771273 18.520562-15.097938 14.426207-6.269482 32.914783-9.788069 44.718043 0.767692 3.870446 3.422626 6.52538 7.996789 9.11634 12.538965 5.693714 9.852044 11.35544 19.800049 17.017166 29.716067 3.71051-1.663332 7.389033-3.326664 11.067556-4.926022l7.964801 19.768062c2.910831-0.639743 5.885637-1.183525 8.796468-1.823268-0.063974 4.926022 0.031987 9.788069-0.031987 14.714092 2.526985-4.414227 4.894035-8.796468 7.293071-13.178708 5.341855 2.303075 11.035569 4.734099 16.953193 4.222304 5.885637-0.44782 11.835247-4.926022 11.771273-10.811658 0-3.134741-1.695319-6.269482-1.055576-9.34025 1.215512-6.173521 10.971594-6.877238 15.28986-2.111152 4.254292 4.638137 4.510189 11.675312 4.542176 18.040756 3.454613-5.085958 6.781277-10.139928 10.203902-15.257873-0.159936 15.51377 2.239101 31.091515 7.037174 45.805606a96.185376 96.185376 0 0 0-52.362973-14.810053 28.468568 28.468568 0 0 0 17.944794 19.736075c3.902433 1.439422 8.508583 2.239101 10.491787 5.853649 1.471409 2.782882 0.831666 6.045572 0.159936 8.988391a2435.182122 2435.182122 0 0 1-5.437816 25.013955c-5.981598-10.811658-19.128319-15.06595-30.611708-19.896011-11.451402-4.894035-23.734469-13.466592-23.766456-25.909595a25.045942 25.045942 0 0 0-13.050759 17.369025c-10.843646-7.612943-22.838829-17.688897-21.623317-30.867605-10.715697-0.255897-20.023959-10.875633-18.77646-21.495368 0.415833-3.71051 1.791281-7.932814-0.44782-10.90762-1.375448-1.791281-3.742497-2.526985-5.981598-3.134741-18.648511-4.989996-37.169074-10.043967-55.721625-15.001976-10.139928-2.686921-20.631715-5.501791-31.059527-4.094356-10.395825 1.311473-20.855625 7.804866-23.702482 17.88082a118.704333 118.704333 0 0 0-55.497715 24.598122c-4.958009 3.93442-9.820057 8.764481-10.939607 14.938002-0.927627 4.766086 0.543782 9.724095-0.287884 14.426207-1.407435 8.09275-8.54057 13.626528-13.242682 20.311843-13.402618 19.00037-5.309868 45.101889 3.166728 66.885142 4.062369 10.171915 8.924416 21.399407 18.936396 25.813634 6.237495 2.750895 13.338644 2.335062 20.151908 2.367049a142.214892 142.214892 0 0 1 57.00111 12.187107c-5.373842 1.567371-3.870446 10.23589 0.799679 13.338643 4.670125 3.070767 10.811658 3.614549 15.06595 7.293072 9.660121 8.476596 1.567371 24.374212-7.772879 33.106705l8.380635 1.599358-8.444609 9.116339c14.650117 8.09275 12.474991 30.675682 2.846857 44.430159-9.532172 13.786464-24.086328 24.182289-30.515746 39.696059-3.454613 8.508583-4.126343 17.848833-4.702112 27.029146l-4.766086 69.731999c17.528961 9.500185 37.360997-9.724095 57.352969-10.267877 7.516981-0.255897 15.28986 2.143139 22.199086-0.639743 6.653328-2.686921 9.372236-14.074348 3.102754-16.537359a19.800049 19.800049 0 0 0 22.71088-10.875633c1.023589-2.335062 1.631345-4.862048 2.910831-7.101149 1.919229-3.134741 5.213906-5.245893 8.412622-7.325058 20.471779-13.562554 37.392984-31.667284 54.250215-49.484129l13.338644-14.298259 50.059898-53.354574 19.6721-20.9196c-7.484994 5.693714-18.904409 0.031987-23.446585-8.220699-4.60615-8.284673-4.798073-18.136717-7.357045-27.221069-2.143139-7.772879-6.109547-15.51377-5.341855-23.670495 0.415833-4.670125 2.463011-9.084352 3.422625-13.754476 2.079165-10.107941-1.023589-20.439792-1.919229-30.675682-0.89564-10.23589 1.279486-22.199086 10.23589-27.317031 5.341855 36.977151 8.732493 74.2102 10.363838 111.635172a21.495368 21.495368 0 0 1 14.362233-7.708905c4.094356-0.479807 8.156725 0.287884 12.283067 0.191923a29.172286 29.172286 0 0 0 25.429789-17.944794 29.172286 29.172286 0 0 0-6.461406-30.483759c-3.902433-3.838459-8.988391-6.589354-12.347042-11.067555-3.390638-4.38224-4.222304-11.643324 0.287885-14.906014 4.254292-3.070767 10.555761-0.479807 13.978387 3.550574 3.422626 4.094356 5.021983 9.404224 8.060763 13.722489 2.175127 3.134741 5.117945 5.821662 7.612943 8.892429 13.402618 16.793256 8.732493 41.071507 4.542176 62.215017-2.207114 11.387427-4.15833 22.774854-5.62974 34.162282 0.959615-2.175127 1.855255-4.478202 2.750896-6.685316a388.324064 388.324064 0 0 0 0.67173-285.581321z m-14.010374 132.490797c-2.335062-1.11955-3.902433-3.550574-5.213906-5.757688-2.143139-3.71051-4.126343-7.804866-3.518587-12.02717 0.735705-5.021983 5.053971-9.404224 4.190317-14.490182-0.351859-2.431024-1.919229-4.478202-3.102754-6.557366a27.764851 27.764851 0 0 1-3.358651-17.944795c0.89564-5.341855 5.053971-11.291466 10.363838-10.139928 2.526985 0.543782 4.638137 2.878844 4.83006 5.533778l-4.094356 0.479807c5.405829 2.910831 4.670125 12.474991-1.151537 14.458195-0.799679 0.351859-1.727306 0.543782-2.047178 1.375447-0.191923 0.479807-0.063974 1.11955 0.22391 1.599358 2.015191 5.245893 6.717303 8.732493 10.331851 13.018772 3.646536 4.190317 6.429418 10.427813 3.678523 15.225886l-4.989996-0.063974c-2.175127 0.959615-2.047178 4.222304-1.023589 6.429418s2.558972 4.60615 1.727306 6.941213c-0.959615 2.431024-4.446215 3.03878-6.845251 1.919229zM728.041246 689.990126l-7.580956 1.855255a17.273064 17.273064 0 0 1-16.473385 15.033963c-4.286279 0.031987-9.500185-1.279486-12.25108 2.047178-2.335062 2.81487-1.11955 7.069161-2.111152 10.587748-1.663332 5.821662-8.54057 7.900827-13.978387 10.587748-5.405829 2.654934-10.491787 9.692108-6.461406 14.17031 0.927627 1.055576 2.207114 1.695319 3.4866 2.335062 5.277881 2.654934 11.163517 5.181919 16.889218 3.774485 16.377423-4.062369 14.042361-33.586513 30.355811-37.936766 2.303075-0.607756 4.958009-0.67173 6.717302-2.303075 5.277881-4.766086-3.390638-14.938001 1.407435-20.151908z" fill="#DAE5EF" /><path d="M698.069282 1024H325.930718v-7.19711a72.930714 72.930714 0 0 1 72.898727-72.898727h226.309123a72.898727 72.898727 0 0 1 72.898726 72.898727v7.19711z" fill="#5A5F63" /></svg>