<?xml version="1.0" standalone="no"?><!DOCTYPE svg PUBLIC "-//W3C//DTD SVG 1.1//EN" "http://www.w3.org/Graphics/SVG/1.1/DTD/svg11.dtd"><svg class="icon" width="48px" height="48.00px" viewBox="0 0 1024 1024" version="1.1" xmlns="http://www.w3.org/2000/svg"><path d="M691.2 115.712H346.112C178.176 115.712 41.984 251.904 41.984 419.84v168.96c0 136.192 90.112 251.904 214.016 289.792L240.64 911.36c-14.336 31.744-1.024 69.632 30.72 83.968 31.744 14.336 69.632 1.024 83.968-30.72l33.792-72.704h291.84l33.792 72.704c14.336 31.744 52.224 45.056 83.968 30.72 31.744-14.336 45.056-52.224 30.72-83.968l-20.48-43.008c108.544-46.08 185.344-153.6 185.344-279.552V418.816c1.024-166.912-135.168-303.104-303.104-303.104z" fill="#84E76D" /><path d="M713.728 798.72H323.584c-105.472 0-191.488-86.016-191.488-191.488V401.408c0-105.472 86.016-191.488 191.488-191.488h391.168c105.472 0 191.488 86.016 191.488 191.488v205.824C905.216 712.704 820.224 798.72 713.728 798.72z" fill="#FFE422" /><path d="M398.336 23.552C384 8.192 360.448 7.168 345.088 21.504c-15.36 14.336-16.384 37.888-2.048 53.248l84.992 92.16c14.336 15.36 37.888 16.384 53.248 2.048 15.36-14.336 16.384-37.888 2.048-53.248l-84.992-92.16zM671.744 10.24c-20.48-4.096-39.936 8.192-45.056 28.672l-26.624 122.88c-4.096 20.48 8.192 39.936 28.672 45.056 20.48 4.096 39.936-8.192 45.056-28.672l26.624-122.88c5.12-21.504-8.192-40.96-28.672-45.056z" fill="#84E76D" /><path d="M622.592 466.944l-111.616-73.728c-31.744-20.48-72.704 2.048-72.704 38.912v147.456c0 37.888 41.984 59.392 72.704 38.912l111.616-73.728c27.648-17.408 27.648-59.392 0-77.824z" fill="#FF7EAE" /></svg>