<?xml version="1.0" standalone="no"?><!DOCTYPE svg PUBLIC "-//W3C//DTD SVG 1.1//EN" "http://www.w3.org/Graphics/SVG/1.1/DTD/svg11.dtd"><svg class="icon" width="48px" height="48.00px" viewBox="0 0 1024 1024" version="1.1" xmlns="http://www.w3.org/2000/svg"><path d="M346.666667 28.373333a16.853333 16.853333 0 0 0-24.106667 0 17.066667 17.066667 0 0 0-2.133333 21.333334c0 2.773333-2.133333 17.066667-32 46.933333-49.92 49.92-1.92 124.586667 34.133333 160.853333a17.706667 17.706667 0 0 0 12.16 4.906667 17.066667 17.066667 0 0 0 12.16-29.226667s-72.746667-73.813333-34.346667-112.426666c58.88-58.666667 40.96-85.546667 34.133334-92.373334zM728.32 247.253333C779.946667 195.626667 763.733333 170.666667 757.333333 164.906667a17.066667 17.066667 0 0 0-24.106666 0 17.493333 17.493333 0 0 0-2.773334 21.333333c0 2.986667-3.2 14.293333-26.24 37.546667-43.946667 43.946667-2.56 109.013333 29.013334 140.586666a17.706667 17.706667 0 0 0 12.16 4.906667 17.066667 17.066667 0 0 0 11.946666-4.906667 16.853333 16.853333 0 0 0 0-24.106666s-59.52-62.933333-29.013333-93.013334z" fill="#7A0F0F" /><path d="M112.64 211.2m34.133333 0l307.413334 0q34.133333 0 34.133333 34.133333l0 683.093334q0 34.133333-34.133333 34.133333l-307.413334 0q-34.133333 0-34.133333-34.133333l0-683.093334q0-34.133333 34.133333-34.133333Z" fill="#C70F0F" /><path d="M556.16 322.56m34.133333 0l251.733334 0q34.133333 0 34.133333 34.133333l0 571.946667q0 34.133333-34.133333 34.133333l-251.733334 0q-34.133333 0-34.133333-34.133333l0-571.946667q0-34.133333 34.133333-34.133333Z" fill="#C70F0F" /><path d="M129.706667 296.533333h341.546666v34.133334H129.706667zM129.706667 843.093333h341.546666v34.133334H129.706667z" fill="#FFAF37" /><path d="M454.186667 194.133333H146.773333a51.413333 51.413333 0 0 0-51.2 51.2v682.666667a51.2 51.2 0 0 0 51.2 51.2h307.413334a50.986667 50.986667 0 0 0 51.2-51.2v-682.666667a51.2 51.2 0 0 0-51.2-51.2z m17.066666 734.293334a17.066667 17.066667 0 0 1-17.066666 17.066666H146.773333a17.066667 17.066667 0 0 1-17.066666-17.066666v-682.666667a17.066667 17.066667 0 0 1 17.066666-17.066667h307.413334a17.066667 17.066667 0 0 1 17.066666 17.066667zM842.026667 305.493333h-251.733334a51.2 51.2 0 0 0-51.2 51.2v571.733334a51.2 51.2 0 0 0 51.2 51.2h251.733334a50.986667 50.986667 0 0 0 51.2-51.2v-571.733334a50.986667 50.986667 0 0 0-51.2-51.2z m17.066666 622.933334a17.066667 17.066667 0 0 1-17.066666 17.066666h-251.733334a17.066667 17.066667 0 0 1-17.066666-17.066666v-571.733334a17.066667 17.066667 0 0 1 17.066666-17.066666h251.733334a17.066667 17.066667 0 0 1 17.066666 17.066666z" fill="#7A0F0F" /><path d="M573.866667 392.533333h284.8V426.666667H573.866667zM573.226667 858.24h285.866666v34.133333h-285.866666z" fill="#FFAF37" /><path d="M135.257189 585.688994m26.398653-26.398654l112.382838-112.382837q26.398653-26.398653 52.797306 0l112.382838 112.382837q26.398653 26.398653 0 52.797307l-112.382838 112.382837q-26.398653 26.398653-52.797306 0l-112.382838-112.382837q-26.398653-26.398653 0-52.797307Z" fill="#FFAF37" /><path d="M584.93455 645.238091m26.398653-26.398653l78.592562-78.592561q26.398653-26.398653 52.797306 0l78.592562 78.592561q26.398653 26.398653 0 52.797307l-78.592562 78.592561q-26.398653 26.398653-52.797306 0l-78.592562-78.592561q-26.398653-26.398653 0-52.797307Z" fill="#FFAF37" /><path d="M362.666667 597.333333c-15.786667-27.093333-53.333333 10.88-72.533334 0-9.6-2.133333 0 28.16 0 36.693334 11.946667 15.573333 45.226667-9.6 53.76 7.466666 13.866667-2.986667 14.933333-30.506667 18.773334-44.16z m-45.226667 30.72c-14.293333 4.693333-19.2 6.613333-16.426667-10.24 4.266667 7.466667 20.053333-2.133333 15.573334 10.666667z m0-18.56a72.96 72.96 0 0 1-16.64 6.4c-9.173333-11.52 19.2-18.56 16.426667-5.973333z m27.093333-6.613333c2.133333 30.08-33.066667 26.453333-2.56 7.893333-29.866667-5.333333 5.12-23.04 2.346667-7.466666zM298.666667 546.133333c10.88 6.613333 26.666667-3.413333 38.826666-4.266666 27.093333-21.333333-51.2-5.333333-38.826666 4.266666zM294.613333 558.506667c7.68 4.693333 0 33.706667 12.16 25.813333 14.506667-4.266667 45.866667-2.773333 41.173334-23.68-10.24-17.066667-43.946667 1.92-53.333334-2.133333z m12.16 5.333333a50.56 50.56 0 0 0 21.333334-2.986667c16.426667 2.133333-29.44 29.226667-21.333334 2.986667zM279.466667 587.946667c-27.946667-10.24 6.186667-18.133333-1.92-33.28-3.626667-7.68-15.146667-1.066667-10.666667-6.613334 11.946667-17.28-32-28.8-11.946667-2.56 16.64 16-21.333333 17.066667-26.88 24.106667 6.613333 17.706667 19.84 2.773333 31.573334-1.706667a159.573333 159.573333 0 0 1-30.506667 36.693334c-21.333333 21.333333 15.36 0 21.333333-8.746667 5.333333 3.84-10.453333 62.72 10.026667 43.733333a121.386667 121.386667 0 0 0 0-54.613333c2.56 0.853333 25.813333 26.88 18.986667 2.986667zM699.52 647.04c-17.28-7.68-4.053333-11.52 0-23.466667-14.293333-9.6-1.706667-15.36-21.333333-23.04-11.946667 2.986667 17.28 24.533333-9.173334 27.093334-14.933333 0-11.946667 16 0 9.813333s11.946667-3.84 3.413334 7.466667c-1.706667 4.48-28.586667 23.893333-18.133334 22.826666 18.56-10.88 25.386667-21.333333 19.84 7.253334 5.973333 45.44 15.573333-21.333333 10.453334-31.146667 2.986667 9.386667 21.333333 17.493333 14.933333 3.2zM714.453333 613.76c8.533333 5.333333 21.333333-2.773333 30.933334-3.626667 22.613333-16.853333-41.386667-4.053333-30.933334 3.626667zM711.68 623.573333c0 27.733333 27.52 23.68 42.666667 7.68 4.906667-22.826667-37.76-4.906667-42.666667-7.68z m9.6 4.053334a44.8 44.8 0 0 0 21.333333-3.2c-1.066667 10.88-25.6 19.2-21.333333 3.2z"  /><path d="M765.013333 654.72c-10.88-19.413333-40.106667 4.053333-53.76 1.493333-13.866667-9.813333-3.626667 19.413333-4.48 27.093334 29.44 7.253333 58.24 10.88 58.24-28.586667z m-36.053333 24.533333c-11.52 3.413333-14.72 5.76-13.226667-8.106666 4.266667 4.906667 16.853333-1.706667 13.226667 8.106666z m0-14.72a68.48 68.48 0 0 1-13.226667 4.906667c-6.613333-9.386667 16-15.146667 13.866667-4.906667z m21.333333-5.333333c2.986667 23.253333-26.026667 19.626667-1.92 6.826667-24.32-7.68 5.973333-18.346667 2.56-6.826667z"  /><path d="M163.84 445.013333a8.533333 8.533333 0 0 1-8.533333-8.533333V364.8a8.533333 8.533333 0 1 1 17.066666 0v71.68a8.533333 8.533333 0 0 1-8.533333 8.533333zM163.84 530.773333a8.533333 8.533333 0 0 1-8.533333-8.533333v-43.733333a8.533333 8.533333 0 0 1 17.066666 0v43.733333a8.533333 8.533333 0 0 1-8.533333 8.533333z" fill="#FFFFFF" /></svg>