<?xml version="1.0" standalone="no"?><!DOCTYPE svg PUBLIC "-//W3C//DTD SVG 1.1//EN" "http://www.w3.org/Graphics/SVG/1.1/DTD/svg11.dtd"><svg class="icon" width="48px" height="48.00px" viewBox="0 0 1024 1024" version="1.1" xmlns="http://www.w3.org/2000/svg"><path d="M692.736 453.461333s-65.877333-61.44-45.568-110.762666a68.266667 68.266667 0 0 1 119.466667-9.898667c15.872 26.965333 0 99.84 0 99.84zM374.613333 385.877333a183.808 183.808 0 0 0 4.266667-76.117333c-7.338667-36.522667-51.2-90.453333-68.266667-83.626667s-48.981333 66.389333-34.133333 121.002667a593.408 593.408 0 0 0 51.2 119.466667l30.378667-30.208z" fill="#42B275" /><path d="M345.941333 694.101333s-49.322667-94.890667-88.064-119.466666-100.181333-47.957333-111.616-39.765334-14.848 75.434667 36.693334 119.466667 162.986667 39.765333 162.986666 39.765333z" fill="#258450" /><path d="M329.728 473.258667s10.581333-101.205333 52.906667-149.504 109.226667-63.317333 121.856-56.490667 15.530667 80.384-20.309334 134.656a435.882667 435.882667 0 0 1-89.6 94.549333z" fill="#329664" /><path d="M266.581333 465.408s-26.112-48.469333-46.421333-59.733333-81.578667-11.264-90.282667 2.218666 5.12 37.546667 51.2 70.997334 81.578667 26.965333 81.578667 26.965333z" fill="#32935C" /><path d="M777.216 417.28s3.754667-59.050667 38.4-81.237333C858.453333 308.565333 921.6 375.466667 889.173333 422.741333a108.714667 108.714667 0 0 1-79.018666 47.104z" fill="#329664" /><path d="M733.866667 514.901333s-57.685333-54.101333-34.133334-111.957333c14.165333-35.669333 104.277333-31.744 110.762667 19.797333s-31.744 92.16-31.744 92.16z" fill="#35A063" /><path d="M362.837333 510.464a206.677333 206.677333 0 0 1-26.965333-44.202667c-7.338667-19.626667-7.338667-50.346667-31.914667-96.938666s-72.362667-62.634667-85.333333-51.2-18.432 78.506667 17.066667 139.946666a215.893333 215.893333 0 0 0 87.210666 85.333334zM377.685333 538.282667a364.544 364.544 0 0 1 46.762667-110.250667c34.133333-49.834667 111.104-78.506667 121.685333-71.509333s20.138667 98.304-31.232 155.989333a173.909333 173.909333 0 0 1-109.226666 60.928z" fill="#258450" /><path d="M317.44 604.842667s-15.872-81.066667-3.754667-115.370667 51.2-71.168 65.024-68.266667 76.117333 66.218667 44.202667 130.048-73.557333 80.213333-73.557333 80.213334z" fill="#42B275" /><path d="M371.882667 673.450667s-15.189333-33.28-26.282667-51.2-11.776-63.317333-36.181333-97.109334c-27.648-38.4-94.208-59.733333-110.933334-47.957333-10.581333 7.509333-18.090667 58.026667 39.765334 136.533333s133.632 59.733333 133.632 59.733334z" fill="#35A063" /><path d="M320.170667 680.96a248.661333 248.661333 0 0 1 99.84-145.578667c81.749333-53.930667 161.962667-45.909333 168.618666-31.061333s-23.04 138.752-109.738666 170.666667a261.973333 261.973333 0 0 1-158.72 5.973333zM752.469333 563.2s-9.728-82.261333 15.018667-113.152c31.744-39.765333 102.4 0 102.4 37.205333 0 59.733333-68.266667 91.306667-68.266667 91.306667z" fill="#329664" /><path d="M834.389333 548.864A53.930667 53.930667 0 0 1 897.194667 614.4c-8.021333 32.085333-61.44 46.421333-73.557334 64.682667l-64.682666-7.338667a162.645333 162.645333 0 0 1 17.066666-72.704 92.842667 92.842667 0 0 1 58.368-50.176zM697.002667 581.802667s-72.362667-28.501333-71.338667-85.333334 53.930667-77.141333 87.722667-53.76c45.738667 31.402667 43.861333 94.378667 43.861333 94.378667z" fill="#258450" /><path d="M256 972.8h512v35.157333a16.042667 16.042667 0 0 1-16.042667 16.042667H272.042667a16.042667 16.042667 0 0 1-16.042667-16.042667V972.8z" fill="#513D33" /><path d="M665.6 676.181333s-51.2-13.312-63.658667-59.221333a56.32 56.32 0 0 1 73.898667-69.290667c48.298667 17.066667 44.885333 129.194667 44.885333 129.194667z" fill="#329664" /><path d="M720.213333 675.157333a121.344 121.344 0 0 1-29.184-96.426666c5.632-41.642667 84.138667-68.266667 109.738667-24.917334 31.061333 53.077333-22.357333 119.466667-22.357333 119.466667z" fill="#35A063" /><path d="M187.733333 665.6h648.533334a34.133333 34.133333 0 0 1 34.133333 34.133333v187.733334a102.4 102.4 0 0 1-102.4 102.4H256a102.4 102.4 0 0 1-102.4-102.4V699.733333a34.133333 34.133333 0 0 1 34.133333-34.133333z" fill="#7C6559" /></svg>