<?xml version="1.0" standalone="no"?><!DOCTYPE svg PUBLIC "-//W3C//DTD SVG 1.1//EN" "http://www.w3.org/Graphics/SVG/1.1/DTD/svg11.dtd"><svg class="icon" width="48px" height="48.00px" viewBox="0 0 1024 1024" version="1.1" xmlns="http://www.w3.org/2000/svg"><path d="M922.5216 617.1136l-79.9744-57.7536c2.3552-15.9744 3.5328-32.256 3.5328-48.5888 0-14.336-0.9216-28.672-2.7648-42.9056l81.7664-59.0848c12.7488-9.216 16.4864-26.624 8.6016-40.2432l-84.48-146.3296a30.7968 30.7968 0 0 0-39.168-12.6976l-90.112 40.3968c-24.064-19.1488-50.432-34.7136-78.7968-46.4896l-10.2912-100.2496a30.70976 30.70976 0 0 0-30.5664-27.5968h-168.96c-15.7696 0-28.9792 11.9296-30.5664 27.5968L390.7072 201.216a329.07776 329.07776 0 0 0-79.616 45.1072l-92.1088-41.2672a30.68928 30.68928 0 0 0-39.168 12.6976l-84.48 146.3296a30.69952 30.69952 0 0 0 8.6016 40.2432l79.9744 57.7536c-2.3552 15.9744-3.5328 32.256-3.5328 48.5888 0 14.336 0.9216 28.672 2.7648 42.9056L101.376 612.6592a30.70976 30.70976 0 0 0-8.6016 40.2432l84.48 146.3296a30.7968 30.7968 0 0 0 39.168 12.6976l90.112-40.3968c24.064 19.1488 50.432 34.7136 78.7968 46.4896l10.2912 100.2496a30.70976 30.70976 0 0 0 30.5664 27.5968h168.96c15.7696 0 28.9792-11.9296 30.5664-27.5968l10.0352-98.0992c28.5184-11.264 55.1936-26.368 79.616-45.1072l92.1088 41.2672c14.3872 6.4512 31.2832 0.9728 39.168-12.6976l84.48-146.3296c7.8848-13.568 4.1984-30.976-8.6016-40.192z" fill="#EB4446" /><path d="M513.28 510.72m-168.96 0a168.96 168.96 0 1 0 337.92 0 168.96 168.96 0 1 0-337.92 0Z" fill="#EB4446" /></svg>