<?xml version="1.0" standalone="no"?><!DOCTYPE svg PUBLIC "-//W3C//DTD SVG 1.1//EN" "http://www.w3.org/Graphics/SVG/1.1/DTD/svg11.dtd"><svg class="icon" width="48px" height="40.29px" viewBox="0 0 1220 1024" version="1.1" xmlns="http://www.w3.org/2000/svg"><path d="M877.2 431.8c0-92.9-67.7-168.2-151.1-168.2-46.6 0-88.1 24-115.8 60.8-27.7-36.8-68.8-60.8-115.8-60.8-83.4 0-151.1 75.4-151.1 168.2 0 51.7 22.2 95.4 52.8 129.3 5.8 6.6 213 236.3 213 236.3L823.3 559.7c32.1-34.6 53.9-76.1 53.9-127.9z" fill="#4169E1" /><path d="M608.5 986.4c-10 0-19.6-4.1-26.5-11.5-122.9-130.5-357.4-379.5-365.3-387.8l-0.5-0.5c-65.4-70.5-100-152.5-100-237.1 0-83.3 30.5-161.6 85.9-220.6 27.1-28.9 58.8-51.7 94.1-67.6 36.7-16.6 75.8-24.9 116.1-24.9 73.5 0 143.8 29.5 198.1 82.2 54.4-52.7 124.7-82.2 198.5-82.2 40.2 0 79.2 8.4 115.9 25 35.3 15.9 66.9 38.7 94 67.6 55.3 59 85.8 137.4 85.8 220.6 0 85.3-34.5 164.4-102.5 235.2L635 975c-6.9 7.3-16.5 11.4-26.5 11.4zM269.3 536.9c12.8 13.4 256.6 272.4 339.1 360l340.5-362.2 0.3-0.3c55.4-57.6 82.3-118.1 82.3-184.9 0-132.5-100-240.3-222.9-240.3-64.9 0-126.8 31.4-169.8 86.2-6.9 8.8-17.5 13.9-28.7 13.9s-21.7-5.1-28.7-13.9c-43-54.8-104.7-86.2-169.4-86.2-122.9 0-223 107.8-223 240.3 0 83.1 43.6 147.7 80.3 187.4z" fill="#27282A" /><path d="M620.1 681.3c-13.3 0-25.6-7.3-32-19L454.1 416l-59.4 109.4c-6.4 11.7-18.6 19-32 19H0v-72.8h341l81.1-149.2c6.4-11.7 18.6-19 32-19 13.3 0 25.6 7.3 32 19l134.1 246.4L719.3 386.5c6.3-11.6 18.4-18.9 31.6-19 13.2-0.1 25.4 6.9 32 18.3l65.6 114.6h372.2v72.8H827.3c-13.1 0-25.1-7-31.6-18.3l-43.7-76.3-99.9 183.7c-6.4 11.7-18.6 19-32 19z" fill="#27282A" /></svg>