<?xml version="1.0" standalone="no"?><!DOCTYPE svg PUBLIC "-//W3C//DTD SVG 1.1//EN" "http://www.w3.org/Graphics/SVG/1.1/DTD/svg11.dtd"><svg class="icon" width="48px" height="48.00px" viewBox="0 0 1024 1024" version="1.1" xmlns="http://www.w3.org/2000/svg"><path d="M534.45 651.4m-252.29 0a252.29 252.29 0 1 0 504.58 0 252.29 252.29 0 1 0-504.58 0Z" fill="#D2DAFF" /><path d="M616.26 798.69H397.54l-26-26v-53.1A132.38 132.38 0 0 0 336.48 630c-38.64-42-59.93-97.08-59.93-154.94A230.27 230.27 0 0 1 517.52 245c118.53 5 214.82 102 219.22 220.83v0.05C738.87 526.36 718 584.23 678 628.81c-23.06 25.57-35.73 57.8-35.73 90.78v53.1z m-192.72-52h166.72v-27.1c0-45.87 17.43-90.45 49.07-125.55 30.93-34.46 47.09-79.34 45.45-126.3-3.4-92-77.84-167-169.46-170.82h-0.11a178.31 178.31 0 0 0-140.42 297.91 184.31 184.31 0 0 1 48.75 124.76zM406.94 820.56h199.57v49.93H406.94zM416.16 886.89h181.12v49.93H416.16zM480.72 86.15h51.99v108.24h-51.99zM294.9 149.828l45.003-26.035 54.156 93.614-45.002 26.034zM161.848 296.362l25.877-45.092 94.105 54.004-25.877 45.092zM133.58 445.39h108.24v51.99H133.58zM161.935 640.43l94.106-54.004 25.877 45.093-94.106 54.003zM632.884 218.411l54.157-93.613 45.002 26.034-54.157 93.613zM727.087 305.177l94.105-54.004 25.877 45.093-94.105 54.003zM775.11 445.39h108.24v51.99H775.11zM735.074 631.627l25.877-45.092 94.105 54.004-25.877 45.092z" fill="#27187F" /></svg>