<?xml version="1.0" standalone="no"?><!DOCTYPE svg PUBLIC "-//W3C//DTD SVG 1.1//EN" "http://www.w3.org/Graphics/SVG/1.1/DTD/svg11.dtd"><svg class="icon" width="48px" height="35.36px" viewBox="0 0 1390 1024" version="1.1" xmlns="http://www.w3.org/2000/svg"><path d="M724.28731164 315.259871H1243.55440864v393.744516H724.28731164c-108.610065 0-196.872258-88.262194-196.872258-196.872258s88.262194-196.872258 196.872258-196.872258z" fill="#4169E1" /><path d="M1137.85118264 222.769548v75.313549c-118.916129 84.826839-146.663226 249.988129-61.836387 368.904258 16.912516 23.783226 37.788903 44.659613 61.836387 61.836387v72.670968H276.36989264v-72.670968c22.461935-16.119742 42.28129-35.410581 58.66529-57.608258 34.08929-45.452387 52.587355-100.946581 52.323097-157.762065 0.264258-56.815484-18.233806-112.309677-52.323097-158.026322-16.384-21.933419-36.203355-41.224258-58.66529-57.344V222.769548h861.48129m105.703226-105.703225H170.66666664v245.231483c66.064516 20.876387 110.988387 81.92 110.988387 151.155613s-44.923871 130.543484-110.988387 151.155613v242.588903h1072.887742v-242.588903c-83.505548-26.161548-130.014968-115.216516-103.853419-198.722064 15.591226-49.416258 54.437161-88.262194 103.853419-103.85342V117.066323z" fill="#0D0A16" /></svg>