<?xml version="1.0" standalone="no"?><!DOCTYPE svg PUBLIC "-//W3C//DTD SVG 1.1//EN" "http://www.w3.org/Graphics/SVG/1.1/DTD/svg11.dtd"><svg class="icon" width="48px" height="48.00px" viewBox="0 0 1024 1024" version="1.1" xmlns="http://www.w3.org/2000/svg"><path d="M617.83 589.96m-252.29 0a252.29 252.29 0 1 0 504.58 0 252.29 252.29 0 1 0-504.58 0Z" fill="#D2DAFF" /><path d="M902.12 145.94H121.88l-26 26V725l26 26h365.75v76.7h-200.9v48.73h450.54V827.7h-200.9V751h365.75l26-26V171.93zM876.13 699H147.87V197.93h728.26z" fill="#27187F" /><path d="M449.72 436.38H301L276.65 412V263.31L301 239h148.7l24.37 24.36V412z m-124.33-48.73h100v-100h-100zM449.72 674.71H301l-24.37-24.37v-148.7L301 477.27h148.7l24.37 24.37v148.7zM325.39 626h100V526h-100zM635.06 460H600.6L495.45 354.9v-34.47L600.6 215.29h34.46l105.15 105.14v34.47z m-87.92-122.33l70.69 70.68 70.69-70.68L617.83 267zM692.18 674.71h-148.7l-24.37-24.37v-148.7l24.37-24.37h148.7l24.37 24.37v148.7zM567.85 626h100V526h-100z" fill="#27187F" /></svg>