<?xml version="1.0" standalone="no"?><!DOCTYPE svg PUBLIC "-//W3C//DTD SVG 1.1//EN" "http://www.w3.org/Graphics/SVG/1.1/DTD/svg11.dtd"><svg class="icon" width="48px" height="48.00px" viewBox="0 0 1024 1024" version="1.1" xmlns="http://www.w3.org/2000/svg"><path d="M761.43 900H262.57a31.1 31.1 0 0 1-31.1-31.09v-713.8a31.1 31.1 0 0 1 31.1-31.11h498.86a31.1 31.1 0 0 1 31.1 31.09v713.8a31.1 31.1 0 0 1-31.1 31.11z m-467.77-62.21h436.68V186.21H293.66z" fill="#2F3240" /><path d="M447.6 287h-94.18a20.73 20.73 0 0 1 0-41.46h94.18a20.73 20.73 0 0 1 0 41.46zM670.58 287h-27.27a20.73 20.73 0 1 1 0-41.46h27.27a20.73 20.73 0 0 1 0 41.46z" fill="#2F3240" /><path d="M330.25 349.67h363.5v148.7h-363.5zM330.25 537.2h363.5v60.31h-363.5zM330.25 636.33h363.5v60.31h-363.5zM330.25 735.47h363.5v60.31h-363.5z" fill="#4169E1" /></svg>