<?xml version="1.0" standalone="no"?><!DOCTYPE svg PUBLIC "-//W3C//DTD SVG 1.1//EN" "http://www.w3.org/Graphics/SVG/1.1/DTD/svg11.dtd"><svg class="icon" width="48px" height="48.00px" viewBox="0 0 1024 1024" version="1.1" xmlns="http://www.w3.org/2000/svg"><path d="M557.65 577.67m-252.29 0a252.29 252.29 0 1 0 504.58 0 252.29 252.29 0 1 0-504.58 0Z" fill="#D2DAFF" /><path d="M633.31 903.64H153.87l-25.99-26V398.2l25.99-26h479.44l26 26v188.07h-51.99V424.2H179.87v427.45h427.45V733.3h51.99v144.34l-26 26z" fill="#27187F" /><path d="M872.52 665.47H393.08l-26-26V487.45h52v126.02h427.44V186.03H419.08v138h-52v-164l26-26h479.44l26 26v479.44l-26 26z" fill="#27187F" /></svg>