<?xml version="1.0" standalone="no"?><!DOCTYPE svg PUBLIC "-//W3C//DTD SVG 1.1//EN" "http://www.w3.org/Graphics/SVG/1.1/DTD/svg11.dtd"><svg class="icon" width="48px" height="48.00px" viewBox="0 0 1024 1024" version="1.1" xmlns="http://www.w3.org/2000/svg"><path d="M618.73 699.72a1.5 1.5 0 0 0 0-3 1.5 1.5 0 0 0 0 3z" fill="#27187F" /><path d="M512 512m-252.29 0a252.29 252.29 0 1 0 504.58 0 252.29 252.29 0 1 0-504.58 0Z" fill="#D2DAFF" /><path d="M808.33 563.73A729.92 729.92 0 0 0 752.5 512a729.92 729.92 0 0 0 55.83-51.73c27.7-28.73 47.57-55.34 59.06-79.11 14.53-30.07 15.83-55.83 3.85-76.57s-34.94-32.5-68.24-34.95c-26.33-1.94-59.32 2-98 11.59a733.66 733.66 0 0 0-72.71 22.48 733.17 733.17 0 0 0-16.88-74.21c-11-38.35-24.14-68.87-39-90.7C557.62 111.18 536 97.17 512 97.17s-45.62 14-64.39 41.63c-14.84 21.83-27.95 52.35-39 90.7a733.17 733.17 0 0 0-16.88 74.21A733.66 733.66 0 0 0 319 281.23c-38.73-9.63-71.71-13.53-98-11.59-16.65 1.22-30.72 4.78-42.12 10.61a62 62 0 0 0-26.12 24.34c-12 20.74-10.68 46.5 3.85 76.57 11.49 23.77 31.36 50.38 59.06 79.11A729.92 729.92 0 0 0 271.5 512a729.92 729.92 0 0 0-55.83 51.73c-27.7 28.73-47.57 55.34-59.06 79.11-14.53 30.07-15.83 55.83-3.85 76.57s34.94 32.5 68.24 35q6.57 0.48 13.67 0.48c23.77 0 52.08-4 84.37-12.07a733.66 733.66 0 0 0 72.71-22.48 733.17 733.17 0 0 0 16.88 74.21c11 38.35 24.14 68.87 39 90.7 18.77 27.62 40.44 41.63 64.39 41.63s45.62-14 64.39-41.63c14.84-21.83 28-52.35 39-90.7a733.17 733.17 0 0 0 16.88-74.21A733.66 733.66 0 0 0 705 742.77c32.3 8 60.6 12.07 84.37 12.07q7.11 0 13.67-0.48c33.3-2.45 56.26-14.2 68.24-35s10.68-46.5-3.85-76.57c-11.53-23.72-31.43-50.33-59.1-79.06zM306.92 694c-71.09 17.67-105.12 9.85-110.64 0.28s4.71-42.95 55.56-95.68a702.76 702.76 0 0 1 59.81-54.6c20.52 15.51 42.42 30.91 65.39 46 1.55 27.42 3.94 54.08 7.11 79.61A704.32 704.32 0 0 1 306.92 694z m68-166.16Q363.64 520 352.83 512q10.8-8 22.1-15.85-0.09 7.91-0.09 15.85t0.09 15.85z m2.08-93.77c-23 15.07-44.87 30.47-65.39 46a702.76 702.76 0 0 1-59.81-54.66c-50.85-52.73-61.09-86.11-55.56-95.68s39.55-17.39 110.64 0.28a704.32 704.32 0 0 1 77.23 24.47C381 380 378.59 406.65 377 434.07zM717.08 330c30.9-7.68 54.79-10.54 72.39-10.54 22.89 0 35.13 4.85 38.25 10.26 5.53 9.57-4.71 43-55.56 95.68a702.76 702.76 0 0 1-59.81 54.66c-20.52-15.51-42.42-30.91-65.39-46-1.55-27.42-3.94-54.08-7.11-79.61A704.32 704.32 0 0 1 717.08 330z m-68 166.16Q660.37 504 671.17 512q-10.8 7.95-22.1 15.85 0.09-7.9 0.09-15.85t-0.09-15.85z m-54.81-94.93q-6.79-4-13.68-8t-13.77-7.85q12.48-5.83 24.78-11.22 1.48 13.33 2.66 27.06zM456.92 243.38c20.24-70.4 44-96 55.08-96s34.84 25.56 55.08 96a701.61 701.61 0 0 1 17.43 79.13c-23.7 10-48 21.28-72.51 33.64-24.53-12.36-48.81-23.62-72.51-33.64a701.61 701.61 0 0 1 17.43-79.13z m-24.51 130.77q12.29 5.39 24.78 11.22-6.88 3.87-13.77 7.85t-13.68 8q1.18-13.72 2.67-27.07zM425.09 512q0-25.12 0.91-49.65 20.75-13 42.54-25.62t43.46-24q21.66 11.46 43.46 24T598 462.35q0.9 24.5 0.91 49.65t-0.91 49.65q-20.75 13-42.54 25.62t-43.46 24q-21.66-11.46-43.46-24T426 561.65q-0.9-24.49-0.91-49.65z m4.65 110.78q6.79 4 13.68 8t13.77 7.85q-12.48 5.83-24.78 11.22-1.48-13.33-2.67-27.07z m137.34 157.84c-20.24 70.4-44 96-55.08 96s-34.84-25.56-55.08-96a701.61 701.61 0 0 1-17.43-79.13c23.7-10 48-21.28 72.51-33.64 24.53 12.36 48.81 23.62 72.51 33.64a701.61 701.61 0 0 1-17.43 79.13z m-0.27-142q6.88-3.87 13.77-7.85t13.68-8q-1.18 13.72-2.67 27.07-12.29-5.38-24.78-11.21z m260.91 55.66c-5.52 9.57-39.55 17.39-110.64-0.28a704.32 704.32 0 0 1-77.23-24.47c3.15-25.53 5.56-52.18 7.15-79.6 23-15.07 44.87-30.47 65.39-46a702.76 702.76 0 0 1 59.81 54.66c50.8 52.75 61.05 86.13 55.52 95.7z" fill="#27187F" /><path d="M512 561.48A49.48 49.48 0 1 1 561.48 512 49.54 49.54 0 0 1 512 561.48z m0-50.25a0.77 0.77 0 1 0 0.77 0.77 0.78 0.78 0 0 0-0.77-0.77z" fill="#27187F" /></svg>