<?xml version="1.0" standalone="no"?><!DOCTYPE svg PUBLIC "-//W3C//DTD SVG 1.1//EN" "http://www.w3.org/Graphics/SVG/1.1/DTD/svg11.dtd"><svg class="icon" width="48px" height="48.00px" viewBox="0 0 1024 1024" version="1.1" xmlns="http://www.w3.org/2000/svg"><path d="M586.933596 100.8867a151.330049 151.330049 0 0 1 151.330049 151.330049v519.566502a151.330049 151.330049 0 0 1-151.330049 151.330049H308.889852a151.330049 151.330049 0 0 1-151.330049-151.330049V252.216749a151.330049 151.330049 0 0 1 151.330049-151.330049h278.043744m0-100.8867H308.889852A252.494187 252.494187 0 0 0 56.673103 252.216749v519.566502a252.494187 252.494187 0 0 0 252.216749 252.216749h278.043744a252.494187 252.494187 0 0 0 252.216749-252.216749V252.216749a252.494187 252.494187 0 0 0-252.216749-252.216749z" fill="#0D0A16" /><path d="M588.371232 347.85734h308.334975a70.62069 70.62069 0 0 1 70.62069 70.62069v187.018719a70.62069 70.62069 0 0 1-70.62069 70.620689H588.371232A164.14266 164.14266 0 0 1 424.228571 512a164.14266 164.14266 0 0 1 164.142661-164.14266z" fill="#4169E1" /><path d="M571.888561 440.663249m35.668835 35.668834l0 0q35.668835 35.668835 0 71.33767l0 0q-35.668835 35.668835-71.33767 0l0 0q-35.668835-35.668835 0-71.33767l0 0q35.668835-35.668835 71.33767 0Z" fill="#0D0A16" /></svg>