<?xml version="1.0" standalone="no"?><!DOCTYPE svg PUBLIC "-//W3C//DTD SVG 1.1//EN" "http://www.w3.org/Graphics/SVG/1.1/DTD/svg11.dtd"><svg class="icon" width="48px" height="48.00px" viewBox="0 0 1024 1024" version="1.1" xmlns="http://www.w3.org/2000/svg"><path d="M498.41 558.16m-252.29 0a252.29 252.29 0 1 0 504.58 0 252.29 252.29 0 1 0-504.58 0Z" fill="#D2DAFF" /><path d="M816.47 262.07c-77 0-139.61 62.63-139.61 139.61q0 6.7 0.62 13.25L631 429.7a178.13 178.13 0 0 0-250.32-65.83l-33.98-43.68a139.11 139.11 0 0 0 39-96.73c0-77-62.63-139.61-139.61-139.61S106.5 146.48 106.5 223.46s62.63 139.62 139.62 139.62a138.75 138.75 0 0 0 58.18-12.71l36.62 47.13a178 178 0 0 0 21.19 256l-18.71 41.25a139.2 139.2 0 0 0-37.47-5.11c-77 0-139.62 62.63-139.62 139.61s62.63 139.61 139.62 139.61 139.61-62.63 139.61-139.61A139.44 139.44 0 0 0 390 717.87l17.05-37.6a177.35 177.35 0 0 0 67.57 13.3c98.29 0 178.26-80 178.26-178.27a178.56 178.56 0 0 0-3.82-36.8L692 464.87a139.75 139.75 0 0 0 124.47 76.43c77 0 139.62-62.63 139.62-139.62s-62.63-139.61-139.62-139.61z m-502.19 16.39L267 217.62l-41 31.89 45 58a87.78 87.78 0 1 1 43.29-29z m79.27 550.79a87.58 87.58 0 1 1-72-86.23L310 768.36l47.36 21.47 10.29-22.7a87.37 87.37 0 0 1 25.9 62.12z m81.07-187.68A126.28 126.28 0 1 1 600.89 515.3a126.42 126.42 0 0 1-126.27 126.27zM816.47 489.3a87.61 87.61 0 0 1-73.84-40.5l79.56-25.25L806.46 374l-77.55 24.6a87.62 87.62 0 1 1 87.56 90.7z" fill="#27187F" /><path d="M625.31 794.27c-3 0-6-0.12-9.08-0.36a111.36 111.36 0 0 1-76.41-39L523 735.11l39.56-33.73 16.87 19.78a60.1 60.1 0 1 0 91.47-78L654 623.4l39.57-33.74 16.86 19.79a112.1 112.1 0 0 1-85.11 184.82zM648.47 347.88l-50.17-13.64 6.82-25.09a60.1 60.1 0 1 0-116-31.52l-6.82 25.08-50.17-13.64L439 264a112.09 112.09 0 1 1 216.34 58.8zM242.3 641.65A112.1 112.1 0 0 1 223.76 419l25.63-4.31L258 466l-25.63 4.32a60.1 60.1 0 1 0 19.94 118.53L278 584.5l8.63 51.27-25.63 4.31a111.82 111.82 0 0 1-18.7 1.57z" fill="#27187F" /></svg>