<?xml version="1.0" standalone="no"?><!DOCTYPE svg PUBLIC "-//W3C//DTD SVG 1.1//EN" "http://www.w3.org/Graphics/SVG/1.1/DTD/svg11.dtd"><svg class="icon" width="48px" height="48.00px" viewBox="0 0 1024 1024" version="1.1" xmlns="http://www.w3.org/2000/svg"><path d="M91 748.4h855V949H91V748.4z" fill="#4169E1" /><path d="M865.1 982.5H155c-62.8 0-113.8-51.1-113.8-113.8V324c0-62.8 51.1-113.8 113.8-113.8h710.1c62.8 0 113.8 51.1 113.8 113.8v544.7c0 62.7-51 113.8-113.8 113.8zM155 275.8c-26.6 0-48.2 21.6-48.2 48.2v544.7c0 26.6 21.6 48.2 48.2 48.2h710.1c26.6 0 48.2-21.6 48.2-48.2V324c0-26.6-21.6-48.2-48.2-48.2H155z" fill="#27282A" /><path d="M727.2 240.9l-29.8-127.7c-6.9-16.4-23.1-27.3-41-27.3H363.7c-17.9 0-34.1 10.9-41 27.3l-29.8 127.7L229 226l30.3-130c0.3-1.4 0.7-2.7 1.2-4 7.9-21.1 21.8-39.1 40.3-52 18.5-12.9 40.2-19.7 62.8-19.7h292.7c45.7 0 87.2 28.8 103.1 71.7 0.5 1.3 0.9 2.6 1.2 4L791 226l-63.8 14.9zM389.6 660.7h240.8v65.6H389.6zM74 410.7h872.1v65.6H74z" fill="#27282A" /><path d="M477.3 573.1h65.6v240.8h-65.6z" fill="#27282A" /></svg>