<?xml version="1.0" standalone="no"?><!DOCTYPE svg PUBLIC "-//W3C//DTD SVG 1.1//EN" "http://www.w3.org/Graphics/SVG/1.1/DTD/svg11.dtd"><svg class="icon" width="48px" height="48.00px" viewBox="0 0 1024 1024" version="1.1" xmlns="http://www.w3.org/2000/svg"><path d="M903.68 147.65056h-778.24v-71.68a20.48 20.48 0 0 1 20.48-20.48h737.28a20.48 20.48 0 0 1 20.48 20.48v71.68z" fill="#4169E1" /><path d="M864.70656 998.21056H164.41344c-34.59072 0-62.73024-28.13952-62.73024-62.73024V104.81664c0-34.59072 28.13952-62.73024 62.73024-62.73024h700.29312c34.59072 0 62.73024 28.13952 62.73024 62.73024v830.66368c0 34.59072-28.13952 62.73024-62.73024 62.73024zM164.41344 85.62688a19.21024 19.21024 0 0 0-19.18976 19.18976v830.66368a19.21024 19.21024 0 0 0 19.18976 19.18976h700.29312a19.21536 19.21536 0 0 0 19.18976-19.18976V104.81664a19.21024 19.21024 0 0 0-19.18976-19.18976H164.41344z"  /><path d="M514.56 313.77408c-200.15104 0-412.8768-53.3248-412.8768-152.1408h43.54048c0 45.34784 140.50816 108.60032 369.33632 108.60032s369.33632-63.25248 369.33632-108.60032h43.54048c0 98.816-212.72576 152.1408-412.8768 152.1408z"  /><path d="M547.56864 799.4368H468.8128a10.2656 10.2656 0 0 1-10.22976-10.30144v-42.1632a10.2656 10.2656 0 0 0-10.22976-10.30144H354.3296a10.2656 10.2656 0 0 1-10.22976-10.30144v-24.22784c0-5.68832 4.5824-10.30144 10.22976-10.30144h94.01856a10.2656 10.2656 0 0 0 10.22976-10.30144v-0.45056c0-2.32448-0.78336-4.5824-2.21696-6.40512l-7.42912-9.42592a10.19904 10.19904 0 0 0-8.0128-3.89632H356.3264a10.26048 10.26048 0 0 1-10.2144-9.73824l-1.41824-26.01984a10.27584 10.27584 0 0 1 10.2144-10.86976h52.25472c8.0128 0 12.91264-8.85248 8.704-15.7184L353.7408 497.7152c-4.20864-6.86592 0.6912-15.7184 8.704-15.7184h79.53408c3.92704 0 7.50592 2.26304 9.216 5.82656l54.31296 113.38752c3.69152 7.7056 14.55616 7.78752 18.36032 0.13824l56.53504-113.664a10.22464 10.22464 0 0 1 9.14944-5.68832h77.10208c8.0128 0 12.91264 8.85248 8.704 15.7184l-62.12608 101.27872c-4.20864 6.86592 0.6912 15.7184 8.704 15.7184h37.57056c5.65248 0 10.22976 4.61312 10.22976 10.30144v26.01984a10.2656 10.2656 0 0 1-10.22976 10.30144h-84.0448c-3.1232 0-6.07232 1.4336-8.0128 3.89632l-7.42912 9.42592c-1.4336 1.82272-2.21696 4.08064-2.21696 6.40512v0.45568c0 5.68832 4.5824 10.30144 10.22976 10.30144h91.47392c5.65248 0 10.22976 4.61312 10.22976 10.30144v24.22784a10.2656 10.2656 0 0 1-10.22976 10.30144h-91.47392a10.2656 10.2656 0 0 0-10.22976 10.30144v42.1632a10.28096 10.28096 0 0 1-10.23488 10.32192z" fill="#4169E1" /></svg>