<?xml version="1.0" standalone="no"?><!DOCTYPE svg PUBLIC "-//W3C//DTD SVG 1.1//EN" "http://www.w3.org/Graphics/SVG/1.1/DTD/svg11.dtd"><svg class="icon" width="48px" height="48.00px" viewBox="0 0 1024 1024" version="1.1" xmlns="http://www.w3.org/2000/svg"><path d="M870.4 25.6a76.8 76.8 0 0 1 76.4416 69.4272L947.2 102.4v106.752a25.6 25.6 0 0 1-50.7904 4.608l-0.4096-4.608V102.4a25.6 25.6 0 0 0-20.992-25.1904L870.4 76.8H153.6a25.6 25.6 0 0 0-25.1904 20.992L128 102.4v819.2a25.6 25.6 0 0 0 20.992 25.1904L153.6 947.2h716.8a25.6 25.6 0 0 0 25.1904-20.992L896 921.6V412.9792a25.6 25.6 0 0 1 50.7904-4.608l0.4096 4.608V921.6a76.8 76.8 0 0 1-69.4272 76.4416L870.4 998.4H153.6a76.8 76.8 0 0 1-76.4416-69.4272L76.8 921.6V102.4A76.8 76.8 0 0 1 146.2272 25.9584L153.6 25.6h716.8z" fill="#ffffff" /><path d="M793.6 179.712a25.6 25.6 0 0 1 4.608 50.7392l-4.608 0.4096h-563.2a25.6 25.6 0 0 1-4.608-50.7392l4.608-0.4608h563.2zM361.472 308.1216a25.6 25.6 0 0 1 4.608 50.7904l-4.608 0.4096H229.632a25.6 25.6 0 0 1-4.608-50.7904l4.608-0.4096h131.9424z" fill="#ffffff" /><path d="M512.3584 846.592c101.12 0 201.984-66.2016 302.5408-198.656v0.0512a10.24 10.24 0 0 0 0-12.3904c-100.9664-132.4032-201.7792-198.656-302.5408-198.656S310.4256 503.1936 208.896 635.5968a10.24 10.24 0 0 0 0 12.4416c101.2224 132.4032 202.3936 198.6048 303.5136 198.6048z" fill="#ffffff" fill-opacity=".5" /><path d="M512.3584 411.392c-106.0864 0-210.0224 65.4848-312.2176 193.7408l-11.4688 14.6432a35.9424 35.9424 0 0 0-0.1536 43.776c105.5744 138.0864 213.3504 208.64 323.84 208.64 110.4896 0 218.0096-70.5536 322.9184-208.7424a35.84 35.84 0 0 0 0-43.4176c-105.3184-138.1376-212.7872-208.64-322.9184-208.64z m10.5472 51.456c84.5824 4.4032 171.52 61.5936 260.5056 173.9264l3.84 4.9664 7.2704-9.216c-96.2048 126.6176-190.4128 188.416-282.112 188.416L501.76 820.736c-84.9408-4.4032-172.1856-61.5936-261.4272-173.9264l-3.8912-4.9664 3.8912-4.9152c93.2352-117.0432 184.064-174.2848 272.0256-174.2848l10.5472 0.256z" fill="#ffffff" /><path d="M513.1264 539.4944a102.4 102.4 0 1 0 0 204.8 102.4 102.4 0 0 0 0-204.8z m0 51.2a51.2 51.2 0 1 1 0 102.4 51.2 51.2 0 0 1 0-102.4z" fill="#ffffff" /></svg>