<?xml version="1.0" standalone="no"?><!DOCTYPE svg PUBLIC "-//W3C//DTD SVG 1.1//EN" "http://www.w3.org/Graphics/SVG/1.1/DTD/svg11.dtd"><svg class="icon" width="48px" height="48.00px" viewBox="0 0 1024 1024" version="1.1" xmlns="http://www.w3.org/2000/svg"><path d="M921.6 76.8H102.4A76.8 76.8 0 0 0 25.6 153.6v614.4A76.8 76.8 0 0 0 102.4 844.8h819.2a76.8 76.8 0 0 0 76.8-76.8V153.6A76.8 76.8 0 0 0 921.6 76.8z m-819.2 51.2h819.2a25.6 25.6 0 0 1 25.6 25.6v614.4a25.6 25.6 0 0 1-25.6 25.6H102.4a25.6 25.6 0 0 1-25.6-25.6V153.6a25.6 25.6 0 0 1 25.6-25.6z" fill="#ffffff" /><path d="M154.4704 234.5472m51.2 0l614.4 0q51.2 0 51.2 51.2l0 204.8q0 51.2-51.2 51.2l-614.4 0q-51.2 0-51.2-51.2l0-204.8q0-51.2 51.2-51.2Z" fill="#ffffff" fill-opacity=".5" /><path d="M820.0704 234.5472a51.2 51.2 0 0 1 51.2 51.2v204.8a51.2 51.2 0 0 1-51.2 51.2h-614.4a51.2 51.2 0 0 1-51.2-51.2v-204.8a51.2 51.2 0 0 1 51.2-51.2h614.4z m0 51.2h-614.4v204.8h614.4v-204.8z" fill="#ffffff" /><path d="M435.456 640a25.6 25.6 0 0 1 4.608 50.7904l-4.608 0.4096h-256a25.6 25.6 0 0 1-4.608-50.7904l4.608-0.4096h256zM845.056 640a25.6 25.6 0 0 1 4.608 50.7904l-4.608 0.4096h-256a25.6 25.6 0 0 1-4.608-50.7904l4.608-0.4096h256z" fill="#ffffff" /><path d="M743.2192 614.1952a25.6 25.6 0 0 1 25.1904 20.992l0.4096 4.608v51.2a25.6 25.6 0 0 1-50.7904 4.608l-0.4096-4.608v-51.2a25.6 25.6 0 0 1 25.6-25.6zM231.2192 614.1952a25.6 25.6 0 0 1 25.1904 20.992l0.4096 4.608v51.2a25.6 25.6 0 0 1-50.7904 4.608l-0.4096-4.608v-51.2a25.6 25.6 0 0 1 25.6-25.6z" fill="#ffffff" /><path d="M870.4 896a25.6 25.6 0 0 1 4.608 50.7904L870.4 947.2H153.6a25.6 25.6 0 0 1-4.608-50.7904L153.6 896h716.8z" fill="#ffffff" /></svg>