<?xml version="1.0" standalone="no"?><!DOCTYPE svg PUBLIC "-//W3C//DTD SVG 1.1//EN" "http://www.w3.org/Graphics/SVG/1.1/DTD/svg11.dtd"><svg class="icon" width="48px" height="48.00px" viewBox="0 0 1024 1024" version="1.1" xmlns="http://www.w3.org/2000/svg"><path d="M921.6 76.8a76.8 76.8 0 0 1 76.4416 69.4272L998.4 153.6v101.0176a25.6 25.6 0 0 1-50.7904 4.608L947.2 254.6176V153.6a25.6 25.6 0 0 0-20.992-25.1904L921.6 128h-819.2a25.6 25.6 0 0 0-25.1904 20.992L76.8 153.6v716.8a25.6 25.6 0 0 0 20.992 25.1904L102.4 896h819.2a25.6 25.6 0 0 0 25.1904-20.992L947.2 870.4V412.9792a25.6 25.6 0 0 1 50.7904-4.608l0.4096 4.608V870.4a76.8 76.8 0 0 1-69.4272 76.4416L921.6 947.2h-819.2a76.8 76.8 0 0 1-76.4416-69.4272L25.6 870.4v-716.8A76.8 76.8 0 0 1 95.0272 77.1584L102.4 76.8h819.2z" fill="#ffffff" /><path d="M153.6 256m51.2 0l51.2 0q51.2 0 51.2 51.2l0 409.6q0 51.2-51.2 51.2l-51.2 0q-51.2 0-51.2-51.2l0-409.6q0-51.2 51.2-51.2Z" fill="#ffffff" fill-opacity=".5" /><path d="M435.9168 460.6976m51.2 0l51.2 0q51.2 0 51.2 51.2l0 204.8q0 51.2-51.2 51.2l-51.2 0q-51.2 0-51.2-51.2l0-204.8q0-51.2 51.2-51.2Z" fill="#ffffff" fill-opacity=".5" /><path d="M716.8 358.4m51.2 0l51.2 0q51.2 0 51.2 51.2l0 307.2q0 51.2-51.2 51.2l-51.2 0q-51.2 0-51.2-51.2l0-307.2q0-51.2 51.2-51.2Z" fill="#ffffff" fill-opacity=".5" /><path d="M256 230.4h-51.2A76.8 76.8 0 0 0 128 307.2v409.6A76.8 76.8 0 0 0 204.8 793.6h51.2A76.8 76.8 0 0 0 332.8 716.8v-409.6A76.8 76.8 0 0 0 256 230.4z m-51.2 51.2h51.2a25.6 25.6 0 0 1 25.6 25.6v409.6a25.6 25.6 0 0 1-25.6 25.6h-51.2a25.6 25.6 0 0 1-25.6-25.6v-409.6a25.6 25.6 0 0 1 25.6-25.6zM538.3168 435.0976h-51.2a76.8 76.8 0 0 0-76.8 76.8v204.8a76.8 76.8 0 0 0 76.8 76.8h51.2a76.8 76.8 0 0 0 76.8-76.8v-204.8a76.8 76.8 0 0 0-76.8-76.8z m-51.2 51.2h51.2a25.6 25.6 0 0 1 25.6 25.6v204.8a25.6 25.6 0 0 1-25.6 25.6h-51.2a25.6 25.6 0 0 1-25.6-25.6v-204.8a25.6 25.6 0 0 1 25.6-25.6zM819.2 332.8h-51.2A76.8 76.8 0 0 0 691.2 409.6v307.2a76.8 76.8 0 0 0 76.8 76.8h51.2a76.8 76.8 0 0 0 76.8-76.8v-307.2A76.8 76.8 0 0 0 819.2 332.8z m-51.2 51.2h51.2a25.6 25.6 0 0 1 25.6 25.6v307.2a25.6 25.6 0 0 1-25.6 25.6h-51.2a25.6 25.6 0 0 1-25.6-25.6v-307.2a25.6 25.6 0 0 1 25.6-25.6z" fill="#ffffff" /></svg>