<?xml version="1.0" standalone="no"?><!DOCTYPE svg PUBLIC "-//W3C//DTD SVG 1.1//EN" "http://www.w3.org/Graphics/SVG/1.1/DTD/svg11.dtd"><svg class="icon" width="48px" height="48.00px" viewBox="0 0 1024 1024" version="1.1" xmlns="http://www.w3.org/2000/svg"><path d="M870.4 25.6a76.8 76.8 0 0 1 76.4416 69.4272L947.2 102.4v106.752a25.6 25.6 0 0 1-50.7904 4.608L896 209.152V102.4a25.6 25.6 0 0 0-20.992-25.1904L870.4 76.8h-716.8a25.6 25.6 0 0 0-25.1904 20.992L128 102.4v819.2a25.6 25.6 0 0 0 20.992 25.1904L153.6 947.2h716.8a25.6 25.6 0 0 0 25.1904-20.992L896 921.6V412.9792a25.6 25.6 0 0 1 50.7904-4.608l0.4096 4.608V921.6a76.8 76.8 0 0 1-69.4272 76.4416L870.4 998.4h-716.8a76.8 76.8 0 0 1-76.4416-69.4272L76.8 921.6v-819.2A76.8 76.8 0 0 1 146.2272 25.9584L153.6 25.6h716.8z" fill="#ffffff" /><path d="M769.7408 648.192a51.2 51.2 0 0 1 51.2 51.2v102.4a51.2 51.2 0 0 1-51.2 51.2h-512a51.2 51.2 0 0 1-51.2-51.2v-102.4a51.2 51.2 0 0 1 51.2-51.2h512z m0 51.2h-512v102.4h512v-102.4z" fill="#ffffff" /><path d="M515.1744 376.4736m-204.8 0a204.8 204.8 0 1 0 409.6 0 204.8 204.8 0 1 0-409.6 0Z" fill="#ffffff" fill-opacity=".5" /><path d="M515.1744 171.6736a204.8 204.8 0 1 1 0 409.6 204.8 204.8 0 0 1 0-409.6z m0 51.2a153.6 153.6 0 1 0 0 307.2 153.6 153.6 0 0 0 0-307.2z" fill="#ffffff" /></svg>