<?xml version="1.0" standalone="no"?><!DOCTYPE svg PUBLIC "-//W3C//DTD SVG 1.1//EN" "http://www.w3.org/Graphics/SVG/1.1/DTD/svg11.dtd"><svg class="icon" width="48px" height="48.00px" viewBox="0 0 1024 1024" version="1.1" xmlns="http://www.w3.org/2000/svg"><path d="M446.023 514.217c11.385 0 24.129 1.137 34.799 4.654 22.193 7.319 39.273 20.392 43.566 23.056-3.465 96.55-19.916 236.396-35.07 287.052-4.314 14.426-7.229 26.662-17.227 30.429-28.567 10.761-55.705 10.161-89.436 10.161-33.732 0-60.992 0.6-89.561-10.161-9.996-3.767-12.91-16.003-17.226-30.429-15.153-50.656-31.606-190.502-35.069-287.052 4.293-2.664 21.371-15.736 43.566-23.056 10.668-3.518 23.414-4.654 34.799-4.654h126.859zM382.527 137.543c21.797 0 60.764 2.165 64.227 8.659s18.787 110.838 22.947 355.749H295.353c4.158-244.911 19.483-349.255 22.945-355.749 3.466-6.494 42.432-8.659 64.229-8.659z" fill="#F87A7D" /><path d="M480.822 518.871c-8.064-2.658-17.311-3.954-26.264-4.43 2.969 125.253-19.102 267.185-37.422 354.786 19.119-0.726 36.75-2.963 54.955-9.82 9.998-3.767 12.912-16.003 17.227-30.429 15.154-50.656 31.605-190.502 35.07-287.052-4.292-2.663-21.372-15.736-43.566-23.055z" fill="#FF5F6D" /><path d="M680.975 869.574c-21.797 0-60.764-2.165-64.227-8.659-3.465-6.494-18.789-110.838-22.947-355.749h174.348c-4.158 244.911-19.482 349.255-22.947 355.749-3.464 6.494-42.431 8.659-64.227 8.659z" fill="#F87A7D" /><path d="M519.833 617.262H335.186v120.795h171.439c5.24-37.262 9.889-79.822 13.208-120.795z" fill="#FFC371" /><path d="M446.754 146.202c-2.777-5.208-28.383-7.631-49.66-8.387 13.364 145.934 17.037 260.486 18.037 364.136h54.57c-4.16-244.911-19.484-349.255-22.947-355.749zM694.369 869.342c21.498-0.708 48.004-3.123 50.832-8.427 3.465-6.494 18.789-110.838 22.947-355.749h-57.299c1.558 121.71-8.794 263.87-16.48 364.176z" fill="#FF5F6D" /><path d="M709.092 174.882c0.25-3.563-2.467-6.479-6.037-6.479h-44.067c-3.573 0-6.294 2.916-6.046 6.479l4.854 69.907v0.001l0.451 6.478h45.457l1.623-22.997 3.765-53.389z" fill="#F87A7D" /><path d="M392.611 880.574l-9.955-0.006-9.959 0.006c-31.977 0-56.683-0.779-83.479-10.873-14.389-5.422-18.753-20.196-22.972-34.485-0.301-1.015-0.604-2.044-0.916-3.085-16.342-54.63-32.232-198.063-35.523-289.81A11 11 0 0 1 235 532.58c0.464-0.288 1.448-0.959 2.49-1.669 6.942-4.732 23.202-15.815 43.431-22.486 10.48-3.456 23.348-5.208 38.244-5.208h126.857c14.895 0 27.762 1.752 38.243 5.207 20.229 6.672 36.489 17.755 43.433 22.487 1.041 0.71 2.025 1.381 2.489 1.669a10.997 10.997 0 0 1 5.193 9.741c-3.293 91.756-19.186 235.19-35.525 289.81-0.311 1.039-0.613 2.067-0.913 3.081-4.22 14.29-8.583 29.067-22.974 34.489-26.794 10.094-51.45 10.873-83.357 10.873z m-9.955-22.006l9.955 0.006c29.561 0 52.287-0.679 75.603-9.461 4.147-1.563 6.811-10.582 9.63-20.132 0.307-1.038 0.617-2.091 0.936-3.155 13.968-46.688 30.395-180.205 34.383-278.193-7.286-4.914-20.172-13.166-35.785-18.315-8.138-2.683-18.979-4.101-31.354-4.101H319.166c-12.375 0-23.218 1.418-31.354 4.102-15.613 5.148-28.499 13.4-35.784 18.314 3.986 97.979 20.412 231.496 34.381 278.193 0.319 1.065 0.631 2.119 0.938 3.159 2.819 9.548 5.483 18.566 9.629 20.128 23.315 8.782 46.092 9.461 75.723 9.461l9.957-0.006z" fill="#ED4264" /><path d="M469.722 512.951H295.354a11.001 11.001 0 0 1-10.998-11.186c2.23-131.373 7.632-218.255 11.77-268.006 1.142-13.721 7.106-82.675 12.467-92.731 3.75-7.027 12.594-10.306 33.8-12.53 11.666-1.224 26.67-1.954 40.136-1.954s28.47 0.73 40.136 1.954c21.206 2.225 30.051 5.503 33.797 12.529 5.361 10.055 11.327 79.011 12.468 92.732 4.132 49.665 9.521 136.335 11.761 267.334 0.021 0.283 0.033 0.569 0.033 0.858-0.002 6.075-4.928 11-11.002 11z m-163.171-22h151.952c-4.158-222.703-17.34-319.779-21.172-337.765-7.58-2.331-29.866-4.644-54.804-4.644-24.938 0-47.226 2.313-54.806 4.645-3.831 17.987-17.013 115.067-21.17 337.764z" fill="#ED4264" /><path d="M452.11 617.262c-2.679 41.278-7.128 82.314-12.409 120.795h66.924a1784.38 1784.38 0 0 0 3.808-28.829l0.001-0.005c0.609-4.911 1.206-9.878 1.79-14.886l0.014-0.118c0.578-4.965 1.144-9.972 1.694-15.006l0.029-0.269c0.547-5.009 1.08-10.046 1.598-15.098l0.031-0.307a2233.82 2233.82 0 0 0 1.494-15.134l0.037-0.381c0.479-5.028 0.939-10.059 1.383-15.078 0.014-0.148 0.026-0.298 0.039-0.446 0.441-4.995 0.862-9.979 1.266-14.941l0.023-0.298H452.11z" fill="#F3AA68" /><path d="M680.975 880.574c-13.466 0-28.47-0.73-40.136-1.954-21.206-2.225-30.051-5.503-33.797-12.529-5.363-10.051-11.328-79.011-12.47-92.732-4.139-49.748-9.539-136.628-11.77-268.006a10.996 10.996 0 0 1 10.998-11.186h174.348a11.001 11.001 0 0 1 10.998 11.186c-2.23 131.378-7.631 218.258-11.77 268.006-1.142 13.722-7.106 82.682-12.471 92.734-3.745 7.024-12.59 10.303-33.796 12.527-11.665 1.224-26.669 1.954-40.134 1.954zM626.17 853.93c7.58 2.332 29.867 4.645 54.805 4.645s47.225-2.313 54.805-4.645c3.832-17.982 17.015-115.055 21.172-337.764H604.998c4.157 222.709 17.34 319.781 21.172 337.764zM506.625 749.057H335.186c-6.075 0-11-4.925-11-11V617.262c0-6.075 4.925-11 11-11h184.647a11 11 0 0 1 10.964 11.889c-3.328 41.089-8.045 84.217-13.279 121.438a11 11 0 0 1-10.893 9.468z m-160.439-22h150.85c4.16-30.886 7.93-65.256 10.837-98.795H346.186v98.795z" fill="#ED4264" /><path d="M680.975 516.166c-6.075 0-11-4.925-11-11V251.268c0-6.075 4.925-11 11-11s11 4.925 11 11v253.898c0 6.075-4.925 11-11 11z" fill="#ED4264" /><path d="M703.703 262.268h-45.457a11.001 11.001 0 0 1-10.974-10.235l-5.305-76.389c-0.329-4.727 1.318-9.407 4.519-12.839 3.202-3.433 7.759-5.401 12.501-5.401h44.067c4.741 0 9.296 1.969 12.496 5.401 3.201 3.434 4.846 8.116 4.514 12.848l-5.389 76.39a10.998 10.998 0 0 1-10.972 10.225z m-35.195-22h24.944l4.293-60.864h-33.463l4.226 60.864z" fill="#ED4264" /><path d="M298.132 692.444c-5.831 0-10.693-4.581-10.979-10.468l-3.654-75.411c-0.294-6.067 4.387-11.226 10.455-11.52 6.053-0.3 11.227 4.388 11.52 10.455l3.654 75.411c0.294 6.067-4.387 11.226-10.455 11.52a10.88 10.88 0 0 1-0.541 0.013zM292.759 581.575c-5.831 0-10.693-4.582-10.979-10.469l-0.201-4.162c-0.293-6.068 4.389-11.226 10.456-11.519 6.07-0.289 11.225 4.389 11.519 10.456l0.201 4.162c0.293 6.068-4.389 11.226-10.456 11.519a10.87 10.87 0 0 1-0.54 0.013zM643.293 681.183c-5.862 0-10.732-4.624-10.982-10.536l-3.184-75.433c-0.256-6.069 4.457-11.198 10.526-11.454 6.107-0.24 11.197 4.457 11.454 10.526l3.184 75.433c0.256 6.069-4.457 11.198-10.526 11.454-0.159 0.007-0.316 0.01-0.472 0.01zM638.611 570.282c-5.863 0-10.734-4.626-10.982-10.538l-0.175-4.163c-0.255-6.07 4.459-11.197 10.528-11.452 6.087-0.288 11.197 4.459 11.452 10.528l0.175 4.163c0.255 6.07-4.459 11.197-10.528 11.452-0.157 0.007-0.314 0.01-0.47 0.01zM336.359 296.358c-0.214 0-0.43-0.006-0.646-0.019-6.064-0.352-10.696-5.553-10.345-11.618 0.768-13.246 1.974-28.793 3.31-42.654 0.582-6.047 5.941-10.47 12.004-9.895 6.048 0.583 10.478 5.957 9.895 12.004-1.31 13.597-2.493 28.838-3.245 41.818-0.34 5.849-5.188 10.364-10.973 10.364zM342.515 218.374c-0.265 0-0.529-0.009-0.797-0.028-6.06-0.434-10.62-5.697-10.187-11.757 0.029-0.408 0.044-0.765 0.061-1.116 0.101-2.19 0.247-4.221 1.111-8.688 1.153-5.965 6.924-9.866 12.89-8.71 5.965 1.154 9.864 6.926 8.71 12.89-0.63 3.253-0.674 4.204-0.734 5.521-0.024 0.528-0.05 1.063-0.094 1.675-0.414 5.79-5.243 10.213-10.96 10.213z" fill="#FFFFFF" /></svg>