<?xml version="1.0" standalone="no"?><!DOCTYPE svg PUBLIC "-//W3C//DTD SVG 1.1//EN" "http://www.w3.org/Graphics/SVG/1.1/DTD/svg11.dtd"><svg class="icon" width="48px" height="48.00px" viewBox="0 0 1024 1024" version="1.1" xmlns="http://www.w3.org/2000/svg"><path d="M324.9 506.2c51.3-53.4 81.4-150.8 163.3-201.5 85.8-53.2 211.8-91 350.4 9.8S924 591.6 882 649 683.4 867 317.9 844.9c0 0-179.6-18.5-200.1-172.1-18.4-138 109.2-126.7 127.4-131.6s74-29.1 79.7-35z" fill="#B9523F" /><path d="M306.2 431.7c51.3-53.4 81.4-150.8 163.3-201.5 85.8-53.2 211.8-91 350.4 9.8s85.4 277.1 43.4 334.5c-42 57.4-196.8 240.7-564 204.3 0 0-186.1-21-200.1-159.6s109.2-147.7 127.4-152.6 74-29 79.6-34.9z" fill="#F49042" /><path d="M338.4 467.4c45.8-43.5 64.6-132.1 132.9-180.9 77.2-55.1 200.9-103.5 319.5-14 104.1 78.6 78 227.8 32 280.2-39.5 45-178.2 195.7-504.7 181.3 0 0-159.6-19.9-177.3-106.4-21-102.9 97.1-119.9 113.3-123.9 16.3-3.9 79.3-31.5 84.3-36.3z" fill="#FFF6ED" /><path d="M357.9 506.9c38.5-37.6 62.3-135.3 122.4-175.3 67.9-45.2 190.3-89.5 283.9-25.2 85.5 58.8 57.2 194.7 15.2 232-38 33.7-163.4 158.5-439.6 151.5 0 0-141.1-12-155.9-83.1-9.6-45.8 76.9-59.2 100.1-64.2 14.4-3.1 58.3-20.4 73.9-35.7z" fill="#D65C45" /><path d="M589.8 443.9c17.7 21.5 11.2 56.2-14.5 77.5-25.7 21.3-60.9 21.2-78.6-0.2-17.7-21.5-11.2-56.2 14.5-77.5 25.7-21.3 60.9-21.2 78.6 0.2z" fill="#F2E4DD" /><path d="M614.7 644.7c-24.2-11.3-82.4-47.1-56.2-121l-16.3-1.8s-17 109.4-58.7 158.9c50.8-8.2 94.3-21.2 131.2-36.1z m-108-329c22.8 59.3 37.4 128.9 37.4 128.9l6.1-2.8c-22.6-67.3-14.8-116.2-5.3-144.2-13.5 5.5-26.3 11.6-38.2 18.1z m133.7 147l1.3 1.6c111.7-41 159.1-41.2 178-37.2 0.4-19.9-2.3-40.1-8.9-59-48.3 46.6-170.4 94.6-170.4 94.6z m-285.6 119s81-47.3 100.9-60.2c28-18.1 44.8-50.6 48-62.5l6.9 35.7 7 22.4s-39.7 8.1-56.4 14.8c-24.2 9.7-60.1 23.8-106.4 49.8z m-125 77.7c7.3-9.4 27.7-28.3 85-60.1v-1s-79.1 41.9-111.6 42c7.6 7.4 16.7 13.7 26.6 19.1z" fill="#F2E4DD" /><path d="M567.4 462.5c9.2 11.1 5.8 29.1-7.5 40.2-13.3 11.1-31.6 11-40.8-0.1s-5.8-29.1 7.5-40.2 31.6-11 40.8 0.1z" fill="#D65C45" /></svg>