<?xml version="1.0" standalone="no"?><!DOCTYPE svg PUBLIC "-//W3C//DTD SVG 1.1//EN" "http://www.w3.org/Graphics/SVG/1.1/DTD/svg11.dtd"><svg class="icon" width="48px" height="36.01px" viewBox="0 0 1365 1024" version="1.1" xmlns="http://www.w3.org/2000/svg"><path d="M255.488 392.704l346.567111 112.867556c40.106667 13.084444 83.057778 14.392889 123.676445 3.925333l13.482666-3.925333 168.504889-54.840889a290.019556 290.019556 0 0 0-81.749333 202.183111c0 89.998222 46.08 183.125333 136.817778 279.893333-92.330667 47.559111-197.518222 66.673778-292.181334 66.673778-140.572444 0-265.159111-37.376-415.118222-157.184V392.704z m861.525333 26.112a234.097778 234.097778 0 0 1 234.097778 234.097778c0 95.345778-67.015111 202.069333-203.889778 318.976a46.592 46.592 0 0 1-60.472889 0l-12.629333-10.922667c-128.341333-112.64-191.260444-215.665778-191.260444-308.053333a234.097778 234.097778 0 0 1 234.154666-234.097778zM1095.111111 551.822222a39.822222 39.822222 0 0 0-39.480889 34.417778l-0.341333 5.404444v113.777778l0.341333 5.404445a39.822222 39.822222 0 0 0 33.564445 33.962666l5.916444 0.455111h113.777778l5.404444-0.341333a39.822222 39.822222 0 0 0 33.962667-33.564444l0.455111-5.916445-0.341333-5.404444a39.822222 39.822222 0 0 0-33.564445-33.962667l-5.916444-0.455111h-73.955556v-73.955556l-0.341333-5.404444a39.822222 39.822222 0 0 0-39.480889-34.417778zM736.995556 32.938667l570.652444 179.313777a27.648 27.648 0 0 1 0.284444 52.736l-568.718222 185.230223a221.411556 221.411556 0 0 1-137.102222 0L161.336889 306.688v303.104a38.741333 38.741333 0 1 1-77.482667 0V281.429333l-50.631111-16.497777a27.648 27.648 0 0 1 0.341333-52.679112L604.16 32.938667a221.411556 221.411556 0 0 1 132.778667 0z" fill="#FF0000" /></svg>