<?xml version="1.0" standalone="no"?><!DOCTYPE svg PUBLIC "-//W3C//DTD SVG 1.1//EN" "http://www.w3.org/Graphics/SVG/1.1/DTD/svg11.dtd"><svg class="icon" width="48px" height="48.00px" viewBox="0 0 1024 1024" version="1.1" xmlns="http://www.w3.org/2000/svg"><path d="M469.333333 469.333333V160.298667a42.666667 42.666667 0 1 1 85.333334 0V469.333333h373.632a42.666667 42.666667 0 0 1 0 85.333334H554.666667v373.632a42.666667 42.666667 0 0 1-85.333334 0V554.666667H160.298667a42.666667 42.666667 0 1 1 0-85.333334H469.333333z" fill="#000000" /><path d="M149.973333 512l90.496 90.496c16.64 23.594667 16.64 43.690667 0 60.373333-16.64 16.64-36.778667 16.64-60.330666 0L29.269333 512l150.869334-150.869333c20.096-20.053333 40.234667-20.053333 60.330666 0 20.096 20.138667 20.096 40.234667 0 60.373333L149.973333 512zM512 874.026667l90.496-90.496c23.594667-16.64 43.690667-16.64 60.373333 0 16.64 16.64 16.64 36.778667 0 60.330666L512 994.730667l-150.869333-150.869334c-20.053333-20.096-20.053333-40.234667 0-60.330666 20.138667-20.096 40.234667-20.096 60.373333 0L512 874.026667zM874.026667 512l-90.496-90.496c-16.64-23.594667-16.64-43.690667 0-60.373333 16.64-16.64 36.778667-16.64 60.330666 0L994.730667 512l-150.869334 150.869333c-20.096 20.053333-40.234667 20.053333-60.330666 0-20.096-20.138667-20.096-40.234667 0-60.373333L874.026667 512zM512 149.973333L421.504 240.469333c-23.594667 16.64-43.690667 16.64-60.373333 0-16.64-16.64-16.64-36.778667 0-60.330666L512 29.269333l150.869333 150.869334c20.053333 20.096 20.053333 40.234667 0 60.330666-20.138667 20.096-40.234667 20.096-60.373333 0L512 149.973333z" fill="#000000" /></svg>