<?xml version="1.0" standalone="no"?><!DOCTYPE svg PUBLIC "-//W3C//DTD SVG 1.1//EN" "http://www.w3.org/Graphics/SVG/1.1/DTD/svg11.dtd"><svg class="icon" width="48px" height="48.00px" viewBox="0 0 1024 1024" version="1.1" xmlns="http://www.w3.org/2000/svg"><path d="M790.57 506.36v-18.88c0-0.32-0.09-0.63-0.11-0.95 0.2-98.69-25.31-174.45-75.83-225.18-47.05-47.23-114.46-71.18-200.34-71.18-230.51 0-271.91 202.17-279.27 273.61-8.56 10.2-18.12 25.97-23.82 48.98C116.39 542.28 64.21 584.41 64.21 632c0 103.17 230.59 158.84 447.56 158.84S959.33 735.17 959.33 632c0-51.65-59.87-96.01-168.76-125.64z" fill="#3C5857" /><path d="M773.23 519.67v48.76s-129.54 49.92-295.25 45.23c-7.08 20.81-22.37 20.71-34.74 22.26-8.96 1.12-28.37-15.22-43.2-28.59-15.37-2.1-30.9-4.76-46.54-8.02-4.06 0.43-8.07 0.41-11.59-0.36-4.35-0.94-8.23-2.82-11.65-4.94-7.6-1.88-15.21-3.92-22.84-6.11-11.45 6.38-30.81 16.6-45.18 21.26-21.67 7.01-27.41 3.18-36.97-22.94-2.85-23.56-2.17-43.34 0.74-59.86C137.47 552.25 81.56 589.96 81.56 632c0 78.15 192.62 141.49 430.22 141.49S941.99 710.15 941.99 632c0-45.78-66.19-86.47-168.76-112.33z" fill="#86CCC9" /><path d="M327.68 505.63c2.46 0.56 4.89 1.12 7.46 1.67 27.65-5.68 39.29 1.26 44.09 7.82 3.74 0.54 7.61 1.05 11.51 1.55 12.66-10.53 38.88-30 68.43-38.19 22.18-6.14 27.91 16.41 27.97 44.75 77.4 0.9 173.06-7.73 285.99-35.72 0.26-67.58-7.15-279.98-258.85-279.98-218.17 0-256.07 189.2-262.55 263.59 3.9-4.06 7.89-7.33 11.77-9.84 18.87-12.22 55.11 32.55 64.18 44.35z" fill="#86CCC9" /><path d="M317.04 582.37s-3.81 2.26-9.63 5.51c7.63 2.19 15.24 4.23 22.84 6.11-8.09-5.03-13.21-11.62-13.21-11.62zM487.14 523.22c0.04 24.59-4.18 53.53-5.66 71.89-0.61 7.55-1.83 13.62-3.5 18.54 165.72 4.7 295.25-45.23 295.25-45.23v-80.94c-0.03 0.01-0.06 0.01-0.1 0.02-112.93 27.99-208.58 36.63-285.99 35.72zM353.49 599.29c15.64 3.26 31.18 5.92 46.54 8.02-10.5-9.46-18.73-17.45-19.26-16.66-0.96 1.45-14.43 7.31-27.28 8.64zM329.79 508.43c1.9-0.47 3.59-0.78 5.36-1.14-2.57-0.55-5-1.11-7.46-1.67 1.34 1.77 2.1 2.81 2.1 2.81zM382.69 523.73s2.96-2.83 8.05-7.07c-3.9-0.5-7.77-1.01-11.51-1.55 3.23 4.42 3.46 8.62 3.46 8.62z" fill="#4A9A96" /><path d="M225.26 586.19c9.56 26.13 15.3 29.96 36.97 22.94 14.37-4.65 33.73-14.88 45.18-21.26 5.82-3.25 9.63-5.51 9.63-5.51s5.11 6.59 13.21 11.62c3.42 2.13 7.3 4 11.65 4.94 3.52 0.77 7.53 0.78 11.59 0.36 12.85-1.34 26.32-7.19 27.29-8.64 0.53-0.79 8.76 7.2 19.26 16.66 14.84 13.37 34.25 29.71 43.2 28.59 12.37-1.55 27.66-1.45 34.74-22.26 1.67-4.91 2.89-10.99 3.5-18.54 1.48-18.36 5.71-47.3 5.66-71.89-0.06-28.34-5.79-50.89-27.97-44.75-29.55 8.19-55.78 27.66-68.43 38.19-5.09 4.23-8.05 7.07-8.05 7.07s-0.23-4.2-3.45-8.61c-4.8-6.57-16.44-13.5-44.09-7.82-1.77 0.36-3.46 0.66-5.36 1.14 0 0-0.76-1.05-2.11-2.8-9.07-11.8-45.31-56.57-64.17-44.37-3.88 2.51-7.87 5.79-11.77 9.84-10.96 11.39-21.14 29.2-25.73 55.23-2.91 16.53-3.59 36.31-0.75 59.87z m157.49-55.93c3.91 1.91 15.65 15.3 15.65 15.3l31.78 12.91-36.19 4.3-17.12 23.9 2.45-12.91c2.45-12.91 3.43-43.5 3.43-43.5z m-67.98 32.51l6.36 17.69-17.6-27.25L260 535.52l43.03-1.91 18.09-12.43c0.01 0-12.71 23.9-6.35 41.59z" fill="#FEF69E" /><path d="M303.04 533.61L260 535.52l43.52 17.69 17.6 27.25-6.36-17.69c-6.36-17.69 6.36-41.59 6.36-41.59l-18.08 12.43zM393.99 562.77l36.19-4.3-31.78-12.91s-11.74-13.38-15.65-15.3c0 0-0.98 30.59-3.42 43.5s-2.45 12.91-2.45 12.91l17.11-23.9z" fill="#E3DB7C" /><path d="M585.71 731.91c-10.53 0-16.67-0.4-17.67-0.46l1.06-15.26c1.09 0.07 109.23 6.87 249.27-43.54 38.03-13.69 58.32-28.94 58.67-44.09 0.53-22.77-43.53-46.15-59-52.54l5.84-14.14c7.1 2.94 69.32 29.74 68.45 67.04-0.52 22.64-23.02 41.65-68.78 58.13-111.31 40.06-201.17 44.86-237.84 44.86zM326.44 421.16l-15.22-1.52c12.21-122.05 122.23-160.35 123.34-160.73l4.88 14.5c-4.15 1.4-101.8 35.72-113 147.75z" fill="#B3ECEB" /></svg>