<?xml version="1.0" standalone="no"?><!DOCTYPE svg PUBLIC "-//W3C//DTD SVG 1.1//EN" "http://www.w3.org/Graphics/SVG/1.1/DTD/svg11.dtd"><svg class="icon" width="48px" height="48.00px" viewBox="0 0 1024 1024" version="1.1" xmlns="http://www.w3.org/2000/svg"><path d="M351.278545 946.734545c51.060364 21.178182 123.810909-51.293091 182.504728-51.29309 58.786909 0 131.490909 72.424727 182.551272 51.29309 52.922182-21.969455 52.922182-125.44 92.858182-165.329454 39.889455-39.889455 143.36-39.842909 165.282909-92.811636 21.224727-51.060364-51.2-123.810909-51.2-182.551273s72.424727-131.490909 51.2-182.551273c-21.922909-52.922182-125.393455-52.922182-165.329454-92.811636-39.889455-39.889455-39.842909-143.36-92.765091-165.329455-51.060364-21.178182-123.810909 51.246545-182.597818 51.246546-58.693818 0-131.444364-72.378182-182.504728-51.2-52.922182 21.922909-52.922182 125.393455-92.811636 165.236363-39.936 39.936-143.36 39.936-165.329454 92.858182-21.224727 51.060364 51.293091 123.810909 51.29309 182.551273S71.959273 637.533091 93.090909 688.593455c21.969455 52.968727 125.393455 52.968727 165.329455 92.811636 39.936 39.936 39.889455 143.36 92.811636 165.329454z" fill="#00FFB0" /><path d="M963.630545 507.904c0-16.477091 12.148364-41.146182 23.924364-65.024 20.200727-41.006545 43.101091-87.505455 24.250182-132.980364-19.502545-47.010909-69.725091-63.906909-114.036364-78.754909-23.179636-7.773091-49.477818-16.616727-60.043636-27.182545-10.565818-10.519273-19.409455-36.817455-27.182546-59.997091-14.848-44.311273-31.650909-94.533818-78.708363-114.036364-45.474909-18.850909-91.973818 4.049455-132.980364 24.203637-23.877818 11.776-48.546909 23.924364-65.117091 23.924363-16.477091 0-41.146182-12.101818-65.024-23.877818C427.752727 33.978182 381.207273 11.077818 335.732364 29.928727c-47.010909 19.502545-63.860364 69.725091-78.754909 114.036364-7.773091 23.179636-16.570182 49.477818-27.136 60.043636-10.565818 10.565818-36.864 19.362909-60.043637 27.136-44.264727 14.894545-94.487273 31.744-114.036363 78.754909-18.804364 45.474909 4.096 91.973818 24.343272 133.026909 11.776 23.831273 23.924364 48.500364 23.924364 65.024s-12.148364 41.192727-23.924364 65.024c-20.200727 41.053091-43.101091 87.505455-24.250182 132.980364 19.502545 47.010909 69.678545 63.906909 114.036364 78.754909 23.179636 7.773091 49.431273 16.616727 59.997091 27.136 10.519273 10.565818 19.362909 36.864 27.182545 60.043637 14.848 44.357818 31.697455 94.580364 78.708364 114.036363 11.915636 4.933818 23.924364 7.028364 35.84 7.028364 33.605818 0 66.885818-16.384 97.140364-31.278546 23.877818-11.776 48.500364-23.924364 65.024-23.924363s41.239273 12.194909 65.070545 23.924363c41.053091 20.200727 87.552 43.101091 132.933818 24.250182 47.010909-19.456 63.906909-69.678545 78.754909-114.036363 7.819636-23.179636 16.663273-49.477818 27.229091-60.043637 10.519273-10.519273 36.817455-19.362909 60.043637-27.136 44.264727-14.894545 94.487273-31.744 114.036363-78.754909 18.804364-45.428364-4.096-91.927273-24.296727-132.980364-11.776-23.877818-23.924364-48.546909-23.924364-65.070545z m-48.64 100.770909c11.403636 23.086545 26.996364 54.690909 22.155637 66.327273-5.445818 13.032727-39.936 24.669091-65.117091 33.047273-33.140364 11.170909-67.490909 22.667636-91.415273 46.68509-24.017455 23.970909-35.514182 58.274909-46.638545 91.415273-8.471273 25.227636-20.061091 59.717818-33.140364 65.117091-11.729455 4.840727-43.240727-10.798545-66.280727-22.109091-32.116364-15.825455-65.396364-32.256-100.770909-32.256-35.328 0-68.608 16.430545-100.724364 32.209455-23.086545 11.403636-54.551273 26.996364-66.327273 22.155636-13.032727-5.399273-24.622545-39.889455-33.047272-65.070545-11.170909-33.186909-22.667636-67.490909-46.638546-91.508364-23.970909-23.924364-58.274909-35.467636-91.415273-46.592-25.181091-8.471273-59.717818-20.061091-65.163636-33.140364-4.794182-11.636364 10.798545-43.240727 22.155636-66.280727 15.825455-32.162909 32.256-65.442909 32.256-100.770909 0-35.374545-16.430545-68.608-32.256-100.770909-11.403636-23.04-26.996364-54.690909-22.202181-66.280727 5.445818-13.032727 39.936-24.669091 65.163636-33.047273 33.186909-11.170909 67.490909-22.714182 91.461818-46.685091 23.970909-23.970909 35.467636-58.274909 46.638546-91.461818 8.424727-25.181091 20.014545-59.717818 33.047272-65.117091a14.010182 14.010182 0 0 1 5.399273-0.930909c14.196364 0 40.820364 13.172364 60.974546 23.04 32.116364 15.825455 65.396364 32.209455 100.724363 32.209454 35.374545 0 68.608-16.384 100.770909-32.209454 23.086545-11.357091 54.597818-26.949818 66.280728-22.109091 13.032727 5.445818 24.669091 39.936 33.047272 65.163636 11.170909 33.140364 22.667636 67.444364 46.685091 91.415273 23.970909 24.017455 58.274909 35.514182 91.461818 46.638545 25.134545 8.471273 59.671273 20.014545 65.070546 33.093819 4.840727 11.636364-10.705455 43.287273-22.109091 66.327272-15.825455 32.116364-32.209455 65.442909-32.209455 100.724364 0 35.374545 16.337455 68.608 32.162909 100.770909z" fill="#000A64" /><path d="M720.151273 321.442909a40.401455 40.401455 0 0 0-57.157818 0l-315.578182 315.857455a40.401455 40.401455 0 0 0 57.204363 57.111272l315.578182-315.857454a40.401455 40.401455 0 0 0 0-57.111273zM500.875636 388.514909A108.916364 108.916364 0 0 0 392.145455 279.738182a108.916364 108.916364 0 0 0-108.776728 108.776727 108.916364 108.916364 0 0 0 108.776728 108.823273 108.916364 108.916364 0 0 0 108.730181-108.823273z m-136.704 0a27.927273 27.927273 0 1 1 55.947637 0.046546 27.927273 27.927273 0 0 1-55.947637 0zM675.467636 518.516364a108.916364 108.916364 0 0 0-108.730181 108.823272 108.869818 108.869818 0 0 0 108.730181 108.730182 108.916364 108.916364 0 0 0 108.776728-108.730182 108.916364 108.916364 0 0 0-108.776728-108.823272z m0 136.750545a27.927273 27.927273 0 1 1 0.093091-55.947636 27.927273 27.927273 0 0 1-0.093091 55.947636z" fill="#000A64" /></svg>