<?xml version="1.0" standalone="no"?><!DOCTYPE svg PUBLIC "-//W3C//DTD SVG 1.1//EN" "http://www.w3.org/Graphics/SVG/1.1/DTD/svg11.dtd"><svg class="icon" width="48px" height="36.38px" viewBox="0 0 1351 1024" version="1.1" xmlns="http://www.w3.org/2000/svg"><path d="M50.444553 911.390686h1109.692892c27.845903 0 50.443725 25.204599 50.443725 56.296025s-22.597822 56.313289-50.443725 56.313289H50.444553c-27.845903 0-50.426461-25.204599-50.426461-56.313289s22.580559-56.296026 50.426461-56.296025z" fill="#2166CC" /><path d="M1344.752501 331.011636c14.069691 22.78772 4.091431 54.172624-19.766621 62.027482l-1009.910301 333.443034c-41.000632 13.482734-85.540266 1.450128-115.941155-31.333115L8.200955 490.66378c-16.883629-18.092068-6.042198-49.822242 17.436058-50.944364l30.45268-1.484654a84.176455 84.176455 0 0 1 46.007025 11.221225l123.847803 70.935409a97.452028 97.452028 0 0 0 84.95331 6.30115l202.465436-80.11955-250.147013-358.440472c-17.902171-31.074163-4.781968-72.679015 26.896414-84.141928 16.762785-6.024935 37.617001-6.30115 62.424541 6.732735 61.699477 32.42071 315.540863 241.687935 391.568982 304.630379a80.67198 80.67198 0 0 0 48.786436 18.989767l3.763427 0.10358 278.976931-110.485913a176.846515 176.846515 0 0 1 94.534509-10.358055c51.358686 8.631712 124.193072 35.752551 174.60227 117.391283z" fill="#3ABCFB" /><path d="M1294.98205 967.703974m-56.296026 0a56.296026 56.296026 0 1 0 112.592051 0 56.296026 56.296026 0 1 0-112.592051 0Z" fill="#2166CC" /></svg>