<?xml version="1.0" standalone="no"?><!DOCTYPE svg PUBLIC "-//W3C//DTD SVG 1.1//EN" "http://www.w3.org/Graphics/SVG/1.1/DTD/svg11.dtd"><svg class="icon" width="48px" height="48.00px" viewBox="0 0 1024 1024" version="1.1" xmlns="http://www.w3.org/2000/svg"><path d="M512 102.4a410.0096 410.0096 0 0 1 409.6 409.6 409.6 409.6 0 1 1-409.6-409.6zM266.8544 266.8544A346.624 346.624 0 0 0 512 858.5728 347.0336 347.0336 0 0 0 858.5728 512 346.624 346.624 0 0 0 266.8544 266.8544z m290.816 260.7616l152.9344 2.56 38.2464 0.6656 19.0976 0.3584h9.6256a34.4576 34.4576 0 0 1 9.0112 0.9216c12.032 3.2768 19.456 15.3088 17.152 27.5456-2.048 12.7488-5.0176 25.2928-8.8064 37.632a291.328 291.328 0 0 1-40.2944 85.8112c-3.072 5.376-7.0656 10.24-11.776 14.336a24.8832 24.8832 0 0 1-17.7152 4.0448 28.3136 28.3136 0 0 1-12.6464-5.632l-3.4304-3.2256-56.832-51.2512-28.3136-25.6512-1.536-1.28-1.6384-1.024-0.512-0.3072h-3.328l-0.5632 0.1536-0.512 0.2048-0.4608 0.3072-0.7168 0.512-0.4096 0.3072-0.3584 0.512-0.6144 1.024-0.256 0.512v4.352l0.1024-0.1536c0.1536 0.7168 0.3072 0.8704 0.512 1.024l0.4096 0.5632v0.3072l3.2256 3.4816 4.1472 4.7104 4.352 4.7616 51.2512 56.9856 12.8 14.2336a38.2976 38.2976 0 0 1 10.5984 15.3088 24.6272 24.6272 0 0 1-6.912 25.4976 93.184 93.184 0 0 1-7.5264 5.888 293.3248 293.3248 0 0 1-122.368 49.7664 50.176 50.176 0 0 1-9.216 0.9216 23.552 23.552 0 0 1-22.3744-18.432l-0.5632-4.4544v-9.5232l-0.6656-38.2976-1.28-76.5952-1.3824-76.6464-0.3584-19.0976a54.0672 54.0672 0 0 1 0-8.9088 29.4912 29.4912 0 0 1 29.9008-24.7296z m-90.9824 0l4.4032 0.1536a29.4912 29.4912 0 0 1 24.7296 29.696l-2.5088 152.9856-0.6656 38.2464-0.3072 19.0976v9.5744a31.488 31.488 0 0 1-0.9728 8.96 23.552 23.552 0 0 1-27.648 17.408 276.992 276.992 0 0 1-37.1712-7.9872 290.3552 290.3552 0 0 1-69.8368-30.464 327.424 327.424 0 0 1-16.0768-10.24 55.808 55.808 0 0 1-14.2848-11.776 25.088 25.088 0 0 1-4.096-17.664 28.3648 28.3648 0 0 1 8.8576-16.1792l51.3024-57.088 25.6-28.416a15.36 15.36 0 0 0 2.304-3.1744v-2.6624a3.84 3.84 0 0 0 0-1.1776 6.144 6.144 0 0 0-0.256-1.1264l-0.3584-0.3584-0.256-0.4096-0.512-0.768-0.4608-0.3584-1.024-0.6144-0.512-0.256h-4.4544v0.1024c-0.6144 0.1536-0.8192 0.3072-1.024 0.512l-0.768 0.512-3.584 3.1744c-3.072 2.56-6.1952 5.632-9.4208 8.448l-56.832 51.2-14.1824 12.8a38.7072 38.7072 0 0 1-15.3088 10.5984 24.9856 24.9856 0 0 1-25.4976-6.912c-2.2528-2.2528-3.9424-5.0176-5.888-7.5264a290.1504 290.1504 0 0 1-49.664-122.4192 50.3808 50.3808 0 0 1-1.1264-9.1136 23.552 23.552 0 0 1 22.9376-22.9376h9.5744l38.2464-0.6656 76.5952-1.28 76.6464-1.3824 19.0464-0.3584c2.9696-0.2048 5.9392-0.2048 8.8576 0zM469.504 219.136a23.552 23.552 0 0 1 22.6304 19.968l0.3072 2.9696v9.5744l0.7168 38.2464 1.28 76.5952 1.3824 76.6464v19.0464c0.2048 2.9696 0.2048 5.9392 0 8.8576a29.4912 29.4912 0 0 1-24.832 24.4224l-4.9152 0.3584-153.1904-2.56-38.2464-0.6656-19.0976-0.3072h-9.5744a31.8976 31.8976 0 0 1-9.0112-0.9728 23.9104 23.9104 0 0 1-17.2032-27.5968 276.992 276.992 0 0 1 7.8336-37.2224 292.5568 292.5568 0 0 1 40.6016-85.9136c3.2256-5.4272 7.2704-10.24 12.0832-14.2848a25.088 25.088 0 0 1 30.3616 1.536l3.4304 3.2256 56.832 51.3024 28.3648 25.6 1.536 1.2288 1.6384 1.0752h2.6624l0.6144 0.0512h0.5632l1.024-0.3072 0.8192-0.3584 0.3072-0.256 0.6656-0.512L409.6 408.5248l0.3072-0.512 0.512-1.024v-2.2016l0.0512-0.7168v-1.536h0.4096v-0.4608l-0.512-0.5632-0.4608-0.512-0.0512-0.3584-3.1744-3.5328-4.096-4.6592-4.352-4.7616-51.2-56.832-12.8512-14.1824a39.936 39.936 0 0 1-10.5984-15.36 24.9856 24.9856 0 0 1 6.9632-25.4976c2.2016-2.2016 5.0176-3.9424 7.5264-5.888a290.9184 290.9184 0 0 1 122.368-49.664c3.0208-0.6144 6.0928-0.9216 9.216-1.024z m85.504 0.2048l4.608 0.4096c12.5952 1.7408 24.9856 4.352 37.2224 7.8336a292.9664 292.9664 0 0 1 86.2208 40.5504c5.376 3.1744 10.24 7.2704 14.336 12.0832a25.088 25.088 0 0 1-1.5872 30.3616l-3.2256 3.4304-51.2512 56.832-25.6512 28.3648a15.104 15.104 0 0 0-2.304 3.1744l-0.1536 0.256-0.1536 0.3072v3.2768l0.1536 0.512 0.2048 0.512a2.56 2.56 0 0 0 0.6656 1.0752l0.2048 0.4096 0.256 0.3584 0.512 0.4096 0.512 0.3072 1.024 0.512h2.1504l0.7168 0.0512H621.0048l-0.1536-0.1536h0.512l0.512-0.4608 0.512-0.256 0.3584-0.256 3.4816-3.1744 9.472-8.448 56.832-50.944 14.2336-12.8a39.5264 39.5264 0 0 1 15.36-10.6496 25.088 25.088 0 0 1 25.4976 6.9632c2.048 2.4064 4.096 4.9152 5.888 7.5264a290.2016 290.2016 0 0 1 49.8688 122.368c0.5632 3.072 0.9216 6.144 0.9216 9.216a23.552 23.552 0 0 1-19.968 22.6304l-2.9184 0.256h-9.5232l-38.2976 0.7168-76.5952 1.3312-76.6464 1.3312h-19.0976a54.4768 54.4768 0 0 1-8.9088 0 29.4912 29.4912 0 0 1-24.4224-24.576l-0.3072-4.9152 2.56-153.1904 0.6656-38.1952 0.3584-19.1488v-9.5744a34.2016 34.2016 0 0 1 0.9216-9.0112 24.0128 24.0128 0 0 1 18.5344-17.2032l4.4544-0.4096z" fill="#d4237a" /></svg>