<?xml version="1.0" standalone="no"?><!DOCTYPE svg PUBLIC "-//W3C//DTD SVG 1.1//EN" "http://www.w3.org/Graphics/SVG/1.1/DTD/svg11.dtd"><svg class="icon" width="48px" height="45.81px" viewBox="0 0 1073 1024" version="1.1" xmlns="http://www.w3.org/2000/svg"><path d="M118.839458 226.7853q-32.680851-119.829787-102.003868-226.7853l92.10058 0q68.332689 95.071567 102.003868 226.7853l-92.10058 0zM113.887814 277.29207q74.274662 105.965184 110.916828 227.775629l-92.10058 0q-40.603482-128.742747-106.955513-227.775629l88.139265 0zM725.911025 314.924565l346.615087 0 0 64.371373-346.615087 0 0 204.007737 268.37911 0 0 287.195358q3.961315 148.549323-153.500967 143.597679l-481.299807 0 0-430.793037 268.37911 0 0-204.007737-333.740812 0 0-64.371373 333.740812 0 0-200.046422-296.108317 0 0-59.419729 467.435203 0q110.916828 0 222.823985-32.680851l0 69.323017q-49.516441 11.883946-102.003868 17.330754t-110.916828 5.446809l-83.187621 0 0 200.046422zM451.589942 648.665377l0 301.059961 361.470019 0q88.139265 3.961315 88.139265-74.274662l0-226.7853-449.609284 0zM2.970986 1024q53.477756-109.926499 89.129594-224.804642t54.468085-238.669246l78.235977 0q-32.680851 260.45648-119.829787 463.473888l-102.003868 0z" fill="#f9b747" /></svg>