<?xml version="1.0" standalone="no"?><!DOCTYPE svg PUBLIC "-//W3C//DTD SVG 1.1//EN" "http://www.w3.org/Graphics/SVG/1.1/DTD/svg11.dtd"><svg class="icon" width="48px" height="48.00px" viewBox="0 0 1024 1024" version="1.1" xmlns="http://www.w3.org/2000/svg"><path d="M677 448a95.5 95.5 0 0 0 67.9-28l109.2-109.4a31.9 31.9 0 0 0 0-45.2L744.9 156.1a95.5 95.5 0 0 0-67.9-28.1H560v-16a48 48 0 1 0-96 0v16H288a96.2 96.2 0 0 0-96 96v128a96.2 96.2 0 0 0 96 96h176v64H347a95.5 95.5 0 0 0-67.9 28L170 649.4a31.9 31.9 0 0 0 0 45.2l109.1 109.3a95.5 95.5 0 0 0 67.9 28.1h117v80a48 48 0 1 0 96 0v-80h176a96.2 96.2 0 0 0 96-96V608a96.2 96.2 0 0 0-96-96H560v-64z" fill="#3F86FF" /><path d="M672 320h-320a32 32 0 0 1 0-64h320a32 32 0 1 1 0 64z" fill="#FFFFFF" /><path d="M672 704h-320a32 32 0 0 1 0-64h320a32 32 0 0 1 0 64z" fill="#FFFFFF" /></svg>