<?xml version="1.0" standalone="no"?><!DOCTYPE svg PUBLIC "-//W3C//DTD SVG 1.1//EN" "http://www.w3.org/Graphics/SVG/1.1/DTD/svg11.dtd"><svg class="icon" width="48px" height="48.00px" viewBox="0 0 1024 1024" version="1.1" xmlns="http://www.w3.org/2000/svg"><path d="M307.2 375.466667h546.133333v580.266666H307.2z" fill="#4F8DFC" /><path d="M802.133333 0h-580.266666A119.466667 119.466667 0 0 0 102.4 119.466667v785.066666A119.466667 119.466667 0 0 0 221.866667 1024h580.266666a119.466667 119.466667 0 0 0 119.466667-119.466667v-785.066666A119.466667 119.466667 0 0 0 802.133333 0z m17.066667 904.533333a17.066667 17.066667 0 0 1-17.066667 17.066667h-580.266666a17.066667 17.066667 0 0 1-17.066667-17.066667v-785.066666a17.066667 17.066667 0 0 1 17.066667-17.066667H409.6a68.266667 68.266667 0 0 0 68.266667 68.266667h68.266666a68.266667 68.266667 0 0 0 68.266667-68.266667h187.733333a17.066667 17.066667 0 0 1 17.066667 17.066667z" fill="#181818" /><path d="M614.4 819.2h-204.8a34.133333 34.133333 0 0 0 0 68.266667h204.8a34.133333 34.133333 0 0 0 0-68.266667z" fill="#181818" /></svg>