<?xml version="1.0" standalone="no"?><!DOCTYPE svg PUBLIC "-//W3C//DTD SVG 1.1//EN" "http://www.w3.org/Graphics/SVG/1.1/DTD/svg11.dtd"><svg class="icon" width="48px" height="48.00px" viewBox="0 0 1024 1024" version="1.1" xmlns="http://www.w3.org/2000/svg"><path d="M222.103048 580.397382a356.247026 356.247026 0 0 0 34.123278 152.872287 357.611957 357.611957 0 0 0 477.725897-477.725897A357.611957 357.611957 0 0 0 222.103048 580.397382z" fill="#4F8DFC" /><path d="M1008.985846 936.644407l-276.057321-276.057321a409.47934 409.47934 0 1 0-72.34135 72.34135l276.057321 276.057322a51.184918 51.184918 0 0 0 72.34135-72.341351zM409.781079 716.890495a307.109505 307.109505 0 1 1 307.109505-307.109505 307.109505 307.109505 0 0 1-307.109505 307.109505z" fill="#181818" /></svg>