<?xml version="1.0" standalone="no"?><!DOCTYPE svg PUBLIC "-//W3C//DTD SVG 1.1//EN" "http://www.w3.org/Graphics/SVG/1.1/DTD/svg11.dtd"><svg class="icon" width="48px" height="47.95px" viewBox="0 0 1025 1024" version="1.1" xmlns="http://www.w3.org/2000/svg"><path d="M517.139006 191.060092a16.192219 16.192219 0 0 1-16.19222-16.192219V106.872696a16.192219 16.192219 0 0 1 32.384439 0v67.995177a16.192219 16.192219 0 0 1-16.192219 16.192219z" fill="#6E6E96" /><path d="M514.815422 119.490483c-32.61113 0-59.138033-26.530951-59.138033-59.138033C455.677389 27.74132 482.20834 1.214416 514.815422 1.214416s59.138033 26.530951 59.138033 59.138034-26.526903 59.138033-59.138033 59.138033z m0-85.891628a26.781931 26.781931 0 0 0-26.753594 26.753595c0 14.751112 12.002483 26.753594 26.753594 26.753594s26.753594-12.002483 26.753595-26.753594a26.781931 26.781931 0 0 0-26.753595-26.753595z" fill="#6E6E96" /><path d="M279.501994 287.569768a16.151739 16.151739 0 0 1-11.451947-4.744321L219.975348 234.742652a16.192219 16.192219 0 0 1 22.899846-22.899846L290.953942 259.925601a16.192219 16.192219 0 0 1-11.451948 27.644167z" fill="#6E6E96" /><path d="M196.881195 251.181803c-32.61113 0-59.138033-26.530951-59.138033-59.138033s26.530951-59.138033 59.138033-59.138034 59.138033 26.530951 59.138033 59.138034S229.492325 251.181803 196.881195 251.181803z m0-85.891628c-14.75516 0-26.753594 12.002483-26.753594 26.753595s12.002483 26.753594 26.753594 26.753594 26.753594-12.002483 26.753595-26.753594-11.998435-26.753594-26.753595-26.753595z" fill="#6E6E96" /><path d="M179.709347 523.842584H111.714169a16.192219 16.192219 0 0 1 0-32.384438h67.995178a16.192219 16.192219 0 0 1 0 32.384438z" fill="#6E6E96" /><path d="M65.189875 569.107934c-32.607082 0-59.129937-26.526903-59.129937-59.133985s26.526903-59.133985 59.129937-59.133986c32.607082 0 59.133985 26.526903 59.133985 59.133986s-26.526903 59.133985-59.133985 59.133985z m0-85.883532a26.773835 26.773835 0 0 0-26.745498 26.749547 26.777883 26.777883 0 0 0 26.745498 26.749546 26.777883 26.777883 0 0 0 26.749546-26.749546 26.777883 26.777883 0 0 0-26.749546-26.749547z" fill="#6E6E96" /><path d="M228.136227 809.554295a16.192219 16.192219 0 0 1-11.451948-27.640119l48.078748-48.078747a16.192219 16.192219 0 0 1 22.899846 22.895798l-48.078747 48.078748a16.119354 16.119354 0 0 1-11.447899 4.74432z" fill="#6E6E96" /><path d="M196.881195 887.046209c-32.61113 0-59.138033-26.530951-59.138033-59.138033s26.530951-59.133985 59.138033-59.133986 59.138033 26.530951 59.138033 59.133986c0 32.607082-26.526903 59.138033-59.138033 59.138033z m0-85.891628a26.781931 26.781931 0 0 0-26.753594 26.749547c0 14.75516 12.002483 26.753594 26.753594 26.753594s26.753594-12.002483 26.753595-26.753594a26.781931 26.781931 0 0 0-26.753595-26.749547z" fill="#6E6E96" /><path d="M512.487791 929.275517a16.192219 16.192219 0 0 1-16.19222-16.19222l0.004048-67.995177a16.192219 16.192219 0 0 1 32.384439 0l-0.004048 67.995177a16.192219 16.192219 0 0 1-16.192219 16.19222z" fill="#6E6E96" /><path d="M514.815422 1018.737529c-32.61113 0-59.138033-26.530951-59.138033-59.138033s26.530951-59.133985 59.138033-59.133986 59.138033 26.530951 59.138033 59.133986c0 32.607082-26.526903 59.138033-59.138033 59.138033z m0-85.891628a26.781931 26.781931 0 0 0-26.753594 26.749547c0 14.75516 12.002483 26.753594 26.753594 26.753594s26.753594-12.002483 26.753595-26.753594a26.781931 26.781931 0 0 0-26.753595-26.749547z" fill="#6E6E96" /><path d="M798.207597 812.849412a16.139595 16.139595 0 0 1-11.447899-4.744321l-48.078747-48.082795a16.192219 16.192219 0 1 1 22.895798-22.895798l48.078747 48.082795a16.192219 16.192219 0 0 1-11.447899 27.640119z" fill="#6E6E96" /><path d="M832.749649 887.046209c-32.61113 0-59.138033-26.530951-59.138033-59.138033s26.530951-59.133985 59.138033-59.133986 59.138033 26.530951 59.138033 59.133986c0 32.607082-26.526903 59.138033-59.138033 59.138033z m0-85.891628a26.781931 26.781931 0 0 0-26.753594 26.749547c0 14.75516 12.002483 26.753594 26.753594 26.753594s26.753594-12.002483 26.753595-26.753594a26.781931 26.781931 0 0 0-26.753595-26.749547z" fill="#6E6E96" /><path d="M917.916675 528.497847l-67.995177-0.008096a16.192219 16.192219 0 0 1 0-32.384438l67.995177 0.004048a16.192219 16.192219 0 0 1 0 32.388486z" fill="#6E6E96" /><path d="M964.436921 569.111982c-32.61113 0-59.138033-26.530951-59.138033-59.138033s26.530951-59.138033 59.138033-59.138034 59.133985 26.530951 59.133985 59.138034-26.526903 59.138033-59.133985 59.138033z m0-85.891628c-14.75516 0-26.753594 12.002483-26.753594 26.753595s12.002483 26.753594 26.753594 26.753594 26.749546-12.002483 26.749546-26.753594-11.998435-26.753594-26.749546-26.753595z" fill="#6E6E96" /><path d="M753.411822 290.85274a16.192219 16.192219 0 0 1-11.447899-27.644166l48.082796-48.078748a16.192219 16.192219 0 1 1 22.895798 22.899847l-48.082796 48.078747a16.139595 16.139595 0 0 1-11.447899 4.74432z" fill="#6E6E96" /><path d="M832.745601 251.177755c-32.607082 0-59.133985-26.526903-59.133985-59.133985s26.530951-59.133985 59.133985-59.133985 59.133985 26.526903 59.133985 59.133985-26.526903 59.133985-59.133985 59.133985z m0-85.883532c-14.751112 0-26.749546 11.998435-26.749546 26.749547s12.002483 26.749546 26.749546 26.749546 26.749546-11.998435 26.749546-26.749546-11.998435-26.749546-26.749546-26.749547z" fill="#6E6E96" /><path d="M690.994865 412.290337c0.012144-0.833899 0.060721-1.659702 0.060721-2.501698 0-88.69693-71.909646-160.610624-160.606576-160.610623-76.362506 0-140.232716 53.308834-156.538281 124.724617a97.971023 97.971023 0 0 0-7.586054-0.33194c-52.754251 0-95.525998 42.767699-95.525999 95.52195 0 11.306217 1.975451 22.155004 5.582268 32.222516a127.793043 127.793043 0 0 0-23.543487 74.059164c0 69.930147 55.936022 126.768885 125.50994 128.286905v0.076913h246.765375c84.588154 0 153.158155-68.565953 153.158155-153.16625 0.004048-60.987994-35.663363-113.64914-87.276062-138.281554z" fill="#D9F8FF" /><path d="M698.815707 412.096031a153.218876 153.218876 0 0 1 0.910812 16.556544c0 0.801515-0.048577 1.582789-0.056673 2.380256 37.784544 18.066469 66.541925 52.029649 77.682173 93.246943-7.136721-48.544274-37.059942-89.652271-78.536312-112.183743z m-167.662336-166.767716c-76.358458 0-140.220572 53.308834-156.530184 124.724618a97.979119 97.979119 0 0 0-7.586055-0.327892c-52.758299 0-95.530046 42.767699-95.530046 95.525998 0 11.306217 1.979499 22.150956 5.590364 32.222516a127.712082 127.712082 0 0 0-23.547535 74.051067c0 62.16193 44.208807 113.9406 102.88941 125.756872-42.49648-19.005617-72.124193-61.692356-72.124193-111.341748a121.482126 121.482126 0 0 1 22.32907-70.347097 90.668332 90.668332 0 0 1-5.298904-30.611391c0-50.110871 40.549365-90.737149 90.550939-90.737149 2.432881 0 4.813137 0.129538 7.197441 0.3117 15.459521-67.833255 75.994133-118.470373 148.385499-118.470373 62.623408 0 116.393721 37.897889 139.767189 92.044671-16.997782-70.44425-80.414609-122.801792-156.092995-122.801792z" fill="#FFFFFF" /><path d="M625.112772 719.930361H378.347397a16.718466 16.718466 0 0 1-2.024027-0.12549c-77.176165-2.578611-139.678132-67.023644-139.678132-144.430548 0-27.300082 7.569863-53.604342 21.968793-76.581102a111.564391 111.564391 0 0 1-4.003526-29.700578c0-59.996221 47.548452-109.099126 106.941513-111.612968 22.689347-73.933674 90.36068-124.493879 168.90104-124.493879 95.007847 0 172.75074 75.326204 176.644969 169.394903 53.397891 29.635809 87.373216 86.717431 87.369168 148.191192-0.004048 93.384577-75.973893 169.35847-169.354423 169.35847z m-245.202825-32.384439h245.202825c75.520511 0 136.965935-61.445424 136.965936-136.974031 0.004048-52.495175-30.635679-101.035401-78.054594-123.668076a16.192219 16.192219 0 0 1-9.21742-14.844217l0.06072-2.270959c0-79.633335-64.78507-144.418404-144.414356-144.418404-67.796822 0-125.675911 46.111393-140.754915 112.139215a16.171979 16.171979 0 0 1-17.042311 12.536826 80.34984 80.34984 0 0 0-6.327109-0.283364c-43.743281 0-79.333779 35.58645-79.333779 79.329731 0 9.172892 1.558501 18.175766 4.635023 26.76169a16.196267 16.196267 0 0 1-2.024028 14.811833 111.451046 111.451046 0 0 0-20.572214 64.708157c0 60.490083 49.19601 110.779069 109.669901 112.098734 0.404805 0.008096 0.809611 0.032384 1.206321 0.072865z" fill="#6E6E96" /><path d="M693.91756 410.654923c0.016192-0.837947 0.060721-1.659702 0.060721-2.501698 0-73.318369-49.151482-135.120022-116.284423-154.364475 48.560466 25.644427 81.681651 76.617534 81.68165 135.35481 0 0.801515-0.044529 27.372947-0.06072 28.166365 49.163626 23.462526 83.13895 47.839912 83.13895 105.941643 0 80.576532-65.323461 145.904041-145.899993 145.904041H361.503441v-0.076913c-41.3104-0.898668-77.564779-22.276446-99.023517-54.393713 16.811572 49.936804 63.477548 86.126415 118.794217 87.340831v0.080961h246.753231c84.59625 0 153.170299-68.574049 153.170299-153.170299 0.004048-60.987994-35.671459-113.653188-87.280111-138.281553z" fill="#6E6E96" /></svg>