<?xml version="1.0" standalone="no"?><!DOCTYPE svg PUBLIC "-//W3C//DTD SVG 1.1//EN" "http://www.w3.org/Graphics/SVG/1.1/DTD/svg11.dtd"><svg class="icon" width="48px" height="48.00px" viewBox="0 0 1024 1024" version="1.1" xmlns="http://www.w3.org/2000/svg"><path d="M657.992 1014.82H567.8c1.884-13.228 6.112-26.232 19.648-30.56 17.748-5.672 30.328-17.728 42.348-30.248 14.408-15.008 16.592-38.604 7.268-54.304-13.404-22.58-31.996-32.188-55.012-27.528-7.016 1.412-13.308 1.672-17.772-4.232-11.412-15.108-21.364-8.748-29.56 2.524-15.308 21.076-34.52 32.096-61.112 27.56-1.136-0.196-2.468 0.72-3.704 1.112l-4.992 1.488c-21.044-6.34-42.732-2.936-64.116-4.104-9-0.488-10.684 5.032-8.576 13.048 2.868 10.916 0.536 21.784-0.292 32.852-1.676 22.416-9.6 43.14-14.316 64.7-34.868-0.232-69.732-0.464-104.6-0.684 0.788-10.676 5.64-17.284 16.212-21.616 13.692-5.592 26.828-12.784 37.068-24.324 27.828-31.348 16-69.576-24.848-78.304-16.416-3.504-33.18-5.392-49.784-8.008l-6.248-1.86-1.252-0.984-0.708 1.556c-31.684 8.796-62.78 6.68-93.352-5.06 11.596-20.264 10.784-42.584 9.304-64.52-1.128-16.76-4.9-33.36-7.792-49.976-1.308-7.516-7.508-16.812-0.664-22.036 8.632-6.588 14.512 5 21.644 8.34 12.964 6.06 25.156 13.86 38.312 19.4 6.612 2.784 14.516 8.56 22.016 2.052 8.28-7.18 1.04-13.696-1.54-20.768-8.168-22.356-1.564-31.284 22.492-31.384 20.244-0.08 40.54 0.96 60.712-0.236 28.624-1.7 56.988-6.98 82.208-21.008 19.688-10.936 36.66-26.652 55.2-39.248 41.424-28.152 69.084-66.752 92.46-109.188 16.828-30.544 14.896-35.512-12.168-58.308-1.94-1.64-4.216-3.68-4.844-5.944-5.604-20.428-21.972-17.604-36.508-16.108-51.396 5.276-102.696 5.508-153.984-0.72-61.052-7.416-118.992-22.7-165.284-66.748-3.632-6.732-5.356-14.64-12.028-19.5-6.144-15.32-3.364-31.2-2.988-46.932 1.784 0.628 4.9 0.916 5.164 1.932 7.792 30.216 31.588 44.644 57 56.604 43.128 20.292 89.18 25.668 136.324 24.044 2 8.22 7.74 10.12 15.6 11.584 48.8 9.072 94.236-5.5 139.796-19.068 7.584-2.26 13.632-7.548 14.248-16.628 34.196-8.068 67.516-18.836 99.196-34.056 11.844-5.684 15.928-4.82 19.356 9.404 8.976 37.3 18.912 73.372 51.644 100.292 64.396 52.96 161.804 42.872 213.116-24.148 6.36-8.312 8.5-21.056 20.948-24.32-1.584 13.04-3.152 26.08-4.728 39.116-1.148 2.788-2.288 5.58-3.436 8.36-12.732 16.2-21.068 36.276-37.388 49.072-38.48 30.172-80.032 51.612-132.736 32.872 4.772 39.676 16.752 75.932 17.16 113.828-40.12-0.12-51.964 5.988-58.1 31.796-2.68 11.268-3.88 23.012-4.536 34.608-2.66 47.572 1.644 94.036 23.668 137.396-9.196-0.628-14.488-8.172-21.604-12.42-17.52-10.476-35.476-19.436-56.5-18.948-4.752 0.104-11.512-2.42-13.792 3.868-1.76 4.86 4.116 7.468 6.568 11.092 34.028 50.432 43.632 103.324 16.612 160.16-1.86 3.932-1.544 8.888-2.236 13.368z" fill="#9B3737" /><path d="M497.216 11c25.676 7.664 51.32 15.488 77.072 22.868 6.308 1.808 12.788 2.668 17.052 8.38-4.252 5.772-10.728 3.128-16.196 4.376-46.516 10.58-48.396 12.364-46.404 53.252 2.004 41.04-9.384 78.208-32.116 111.952-5.96 8.848-11.988 19.12-25.364 18.496-2.544-46.496-2.548-45.872-43.9-46.272-13.904-0.136-19.028 4.112-17.076 17.608 0.556 3.832 0.084 7.816 0.084 11.728-0.06 43.364-0.06 43.364 42.26 45.332-2.728 8.284-6.948 15.088-15.188 19.376-30.42 15.812-62.504 25.912-96.844 26.772-40.892 1.032-77.868-12.868-112.664-33.024-7.18-4.16-13.596-8.416-21.496-3.54-22.34 13.792-34.508 36.64-49.788 56.704-0.38 15.736-3.16 31.616 2.988 46.932-19.528 24.272-24.12 23.94-42.78-4.132-3.176-4.776-7.024-7.44-12.252-8.768 3.524-28.376 21.444-48.228 41.212-66.104 11.056-10 19.072-19.972 21.56-35.168 9.84-60.068 35.552-112.832 78.22-156.176C286.604 59.932 336.216 32.4 393.532 19.228c8.588-1.976 18.164-1.484 25.26-8.228h78.424zM343.932 222.664c0-9.132 0.088-18.26-0.04-27.392-0.06-4.416 0.868-10.3-5.716-10.416-16.916-0.304-35.38-3.996-50.272 1.572-11.168 4.172-2.736 22.348-4.516 34.14-0.676 4.464 0.58 9.256-0.292 13.656-4.132 20.92 5.64 24.844 24.588 24.068 36.22-1.492 36.26-0.444 36.248-35.628z" fill="#FBDB9A" /><path d="M748.808 881.536c27.144 40.292 45.952 83.24 42.5 133.284h-133.316c0.692-4.48 0.376-9.436 2.24-13.364 27.02-56.836 17.416-109.728-16.612-160.16-2.448-3.624-8.328-6.236-6.568-11.092 2.28-6.288 9.044-3.76 13.792-3.868 21.024-0.488 38.98 8.472 56.5 18.948 7.116 4.248 12.412 11.792 21.604 12.42 1.152 1.392 2.288 2.788 3.44 4.188-0.16 3.288-0.412 6.624 4.156 7.168 4.084 4.164 8.176 8.32 12.264 12.476z" fill="#060606" /><path d="M473.692 1014.82l0.6-6.144c6.44-16.756 7.764-34.328 8.264-52.028 5.4-5.276 6.256-12.676 8.884-19.228 4.336-10.808 14.496-24.024 11.38-31.996-4.768-12.196-22.156-0.324-32.912-6.276 1.232-0.396 2.564-1.308 3.7-1.112 26.592 4.54 45.804-6.484 61.112-27.56 8.196-11.268 18.148-17.632 29.56-2.524 4.464 5.904 10.756 5.64 17.772 4.232 23.016-4.66 41.608 4.948 55.012 27.528 9.324 15.7 7.136 39.296-7.268 54.304-12.02 12.52-24.6 24.576-42.348 30.248-13.536 4.328-17.764 17.332-19.648 30.56l-94.108-0.004z" fill="#DAA556" /><path d="M150.1 867.844c-66.216-19.148-117.052-103.788-102.504-170.176 8.156-37.224 36.084-48.376 68.916-53.476 16.044 4.592 20.34-2.448 19.828-17.752-1.456-43.4 4.92-86.188 11.82-128.876-1.552-15.568 3.864-30.08 6.816-44.972 7.328-19.9 7.644-41.716 16.688-61.152 46.292 44.048 104.236 59.332 165.284 66.748 51.284 6.228 102.588 5.996 153.984 0.72 14.536-1.496 30.904-4.32 36.508 16.108 0.628 2.264 2.904 4.308 4.844 5.944 27.064 22.796 28.996 27.764 12.168 58.308-23.376 42.436-51.036 81.036-92.46 109.188-18.54 12.596-35.512 28.312-55.2 39.248-25.22 14.028-53.584 19.308-82.208 21.008-20.168 1.196-40.468 0.156-60.712 0.236-24.056 0.096-30.66 9.028-22.492 31.384 2.58 7.076 9.824 13.588 1.54 20.768-7.5 6.508-15.404 0.736-22.016-2.052-13.16-5.54-25.348-13.34-38.312-19.4-7.132-3.34-13.008-14.928-21.644-8.34-6.844 5.224-0.648 14.52 0.664 22.036 2.892 16.616 6.664 33.216 7.792 49.976 1.484 21.936 2.296 44.26-9.304 64.524z m-17.948-112.88c0.564-11.908-2.396-23.212-5.712-34.364-2.184-7.352-6.864-12.276-15.416-12.348-7.608-0.064-13.784 1.684-18.112 8.764-9.1 14.912-10.62 30.276-4.104 46.42 5.328 13.2 14.196 22.972 29.364 19.872 15.144-3.084 13.232-16.924 13.98-28.344z" fill="#E77070" /><path d="M471.264 230.328c13.376 0.624 19.404-9.648 25.364-18.496 22.732-33.744 34.12-70.912 32.116-111.952-1.992-40.892-0.112-42.672 46.404-53.252 5.468-1.248 11.94 1.396 16.196-4.376 5.104 0.604 10.204 1.216 15.316 1.816 1.652 2.744 2.676 7.016 5.048 7.992 22.156 9.124 36.98 28.056 56.08 41.192 33.868 35.032 59.116 75.176 72.584 122.32 1.456 11.46 5.98 22.548 4.168 34.408-50.468 30.792-63.116 74.18-52.684 121.064 10.024 45.02 54.3 75.696 101.784 75.06 44.864-0.604 83.372-33.484 96.1-77.852 6.316-22.036-2.412-42.612 0.08-63.808 20.236 18.448 32.148 41.668 38.98 67.812 0.084 12.796 0.16 25.604 0.248 38.408-12.448 3.264-14.588 16.008-20.948 24.32-51.312 67.016-148.724 77.108-213.116 24.148-32.736-26.92-42.668-62.992-51.644-100.292-3.424-14.224-7.512-15.088-19.356-9.404-31.68 15.216-65 25.988-99.196 34.056-56.32 9.684-111.936 24.244-169.644 24.112-47.144 1.624-93.196-3.752-136.324-24.044-25.416-11.96-49.212-26.388-57-56.604-0.264-1.02-3.38-1.304-5.164-1.932 15.28-20.068 27.448-42.916 49.788-56.708 7.9-4.876 14.316-0.62 21.496 3.54 34.792 20.156 71.772 34.052 112.664 33.028 34.34-0.864 66.424-10.96 96.844-26.772 8.244-4.284 12.46-11.092 15.188-19.376 24.068 2.236 14.856-17.348 18.628-28.408z m217.948-8.192c3.24-23.556-9.784-42.048-21.28-60.828-3.428-5.596-6.268-14.448-15.564-12.412-8.612 1.888-9.08 10-10.296 17.1-7.764 45.176-26.544 85.504-53.924 122.012-5.072 6.752-10.912 12.96-15.572 19.972-2.684 4.036-6.976 9.28-2.368 14.152 4.26 4.504 9.336 1.788 14.304-0.576 15.26-7.252 31.104-13.348 46.096-21.112 31.832-16.508 62.104-34.66 58.604-78.308z" fill="#DAA556" /><path d="M748.808 881.536c-4.088-4.156-8.18-8.312-12.26-12.472-0.196-3.076-0.684-5.988-4.156-7.168-1.152-1.4-2.288-2.796-3.44-4.188-22.024-43.36-26.328-89.824-23.668-137.396 0.656-11.596 1.856-23.34 4.536-34.608 6.136-25.808 17.98-31.916 58.1-31.788 11.06 0.26 22.164 0.048 33.184 0.904 21.22 1.644 42.396 6.908 63.584-0.128l48.744 4.932c4.456 29.084 6.948 58.716-2.372 86.792-23.272 70.148-70.068 114.108-145.528 123.228-7.56 0.916-12.42 3.328-13.132 11.372l-1.724 0.732-1.868-0.212z m78.216-140.996c0-2.596 0.3-5.24-0.048-7.78-2.416-17.664-18.144-31.228-36.056-32.48-19.92-1.396-23.384 13.54-26.94 27.148-3.744 14.332-5.928 29.156-7.7 43.904-1.212 10.144 2.116 19.876 11.144 25.46 9.88 6.104 20.428 3.712 29.304-2.608 18.304-13.052 29.788-30.396 30.296-53.644z" fill="#E77070" /><path d="M864.684 654.688c-21.188 7.036-42.364 1.772-63.584 0.128-11.02-0.856-22.124-0.64-33.184-0.904-0.412-37.904-12.388-74.16-17.16-113.836 52.704 18.74 94.252-2.7 132.736-32.872 16.32-12.796 24.656-32.872 37.388-49.072 6.176 5.732 3.308 11.72 0.584 17.78-10.376 23.02-22.744 44.708-40.516 63.036-10.876 11.216-17.092 24.68-15.12 40.62 3.104 25.132 1.016 50.108-1.144 75.12z" fill="#FBDB9A" /><path d="M273.016 1006.444c-17.236 4.428-34.636-0.096-51.964 0.88-10.12 0.564-8.944-7.76-8.416-14.024 3.636-42.748 13.348-83.572 39.016-119.12 16.612 2.628 33.376 4.516 49.792 8.02 40.848 8.732 52.676 46.956 24.848 78.304-10.24 11.54-23.376 18.732-37.068 24.324-10.568 4.332-15.42 10.94-16.208 21.616z" fill="#DAA556" /><path d="M482.56 956.648c-0.5 17.7-1.824 35.268-8.264 52.028-32.22-0.512-64.44-1.036-96.672-1.548 4.712-21.56 12.636-42.28 14.312-64.7 0.832-11.068 3.164-21.932 0.292-32.852-2.108-8.016-0.428-13.536 8.576-13.048 21.384 1.168 43.072-2.236 64.12 4.112 5.872 18.672 11.756 37.336 17.636 56.008z" fill="#060606" /><path d="M171.664 391.44c-9.044 19.436-9.36 41.252-16.676 61.132-17.856 0.34-31.984-12.652-49.404-13.872l-4.9-7.696c-6.764-21.224-5.244-42.34 0.768-63.404 3.244-1.812 3.86-4.556 2.796-7.896l0.356-0.656c5.228 1.32 9.072 3.984 12.248 8.76 18.66 28.072 23.252 28.404 42.78 4.132 6.672 4.864 8.396 12.772 12.032 19.5z" fill="#DAA556" /><path d="M355.14 407.592c57.708 0.132 113.324-14.428 169.644-24.112-0.612 9.08-6.66 14.368-14.248 16.628-45.56 13.572-90.996 28.14-139.796 19.068-7.86-1.464-13.604-3.364-15.6-11.584z" fill="#E77070" /><path d="M482.56 956.648l-17.64-56.004c1.66-0.508 3.324-1 4.988-1.496 10.756 5.952 28.144-5.916 32.916 6.276 3.116 7.972-7.04 21.188-11.38 31.996-2.628 6.552-3.488 13.952-8.884 19.228z" fill="#FDFDFD" /><path d="M929.044 410.656l-0.248-38.408c8.54 24.552 3.032 49.496 1.792 74.284-0.06 1.184-4.088 2.168-6.272 3.24 1.576-13.036 3.144-26.076 4.728-39.116z" fill="#FBDB9A" /><path d="M245.416 872.332l-0.812 0.94-1.168-0.368 0.724-1.556z" fill="#DAA556" /><path d="M100.684 431.004l4.896 7.692c7.772 24.26 18.252 46.568 42.58 58.868-6.9 42.688-13.276 85.48-11.82 128.876 0.516 15.3-3.784 22.344-19.828 17.752-3.14-32.828 6.048-64.612 8.4-96.984 1.784-24.636-6.512-45.064-17.224-66.384-7.424-14.772-23.44-30.752-7.004-49.82zM104.248 359.704c1.068 3.34 0.448 6.084-2.796 7.896-0.668-3.2-0.036-5.936 2.796-7.896zM889.816 304.436c-2.488 21.196 6.24 41.772-0.08 63.808-12.732 44.372-51.24 77.248-96.1 77.852-47.484 0.636-91.76-30.04-101.784-75.06-10.432-46.884 2.216-90.272 52.68-121.064l35.372 0.164 32.56 3.964c22.216 11.5 44.424 23.004 66.636 34.512l10.716 15.824z m-39.816 27.132c-0.38-29.972-37.512-56.168-70.556-50.428-14.772 2.564-27.32 8.66-29.456 23.992-1.928 13.88 9.208 22.128 20.444 28.088 13.784 7.312 27.504 15.116 42.06 20.5 23.996 8.872 37.78 0.064 37.508-22.152z" fill="#FBDB9A" /><path d="M879.096 288.616c-22.212-11.508-44.42-23.012-66.636-34.512-5.284-39.948-16.384-77.944-40.424-110.856-25.616-35.064-60.296-52.52-104.252-49.996-19.096-13.136-33.92-32.068-56.08-41.192-2.372-0.976-3.396-5.248-5.048-7.992 69.044-32.364 162.404-6.48 211.796 59.072 36.996 49.092 51.256 106.364 58.616 165.992 0.808 6.476 1.36 12.988 2.028 19.484zM752.396 881.012c0.712-8.044 5.576-10.456 13.132-11.372 75.46-9.116 122.252-53.08 145.528-123.228 9.32-28.08 6.828-57.708 2.372-86.792 12.692 3.376 25.96 5.396 37.96 10.448 17.696 7.464 26.512 23.172 28.88 41.46 8.256 63.7-13.264 116.644-64.316 154.572-48.916 36.348-103.06 45.548-159.86 16.184-1.148-0.596-2.464-0.856-3.696-1.272z" fill="#9B3737" /><path d="M343.94 222.664c0.004 35.184-0.036 34.136-36.252 35.628-18.948 0.776-28.72-3.148-24.588-24.068 0.868-4.4-0.388-9.192 0.292-13.656 1.78-11.788-6.656-29.964 4.516-34.14 14.896-5.564 33.356-1.872 50.272-1.572 6.584 0.116 5.656 6 5.716 10.416 0.128 9.132 0.036 18.26 0.044 27.392zM471.264 230.328c-3.772 11.064 5.44 30.644-18.632 28.4-42.324-1.972-42.324-1.972-42.26-45.332 0.004-3.916 0.476-7.896-0.084-11.728-1.956-13.496 3.172-17.744 17.076-17.608 41.352 0.392 41.356-0.228 43.9 46.268z" fill="#060606" /><path d="M732.392 861.896c3.472 1.18 3.96 4.092 4.156 7.168-4.568-0.544-4.316-3.88-4.156-7.168z" fill="#9B3737" /><path d="M132.152 754.964c-0.748 11.416 1.168 25.256-13.98 28.348-15.168 3.1-24.04-6.672-29.364-19.872-6.516-16.144-5-31.512 4.104-46.42 4.332-7.084 10.504-8.828 18.112-8.764 8.552 0.072 13.232 4.996 15.416 12.348 3.312 11.148 6.272 22.456 5.712 34.36z" fill="#FBDB9A" /><path d="M148.16 497.564c-24.328-12.3-34.808-34.604-42.58-58.868 17.424 1.224 31.552 14.216 49.408 13.876-2.968 14.912-8.38 29.424-6.828 44.992zM689.212 222.136c3.5 43.652-26.768 61.8-58.6 78.308-14.992 7.764-30.836 13.86-46.096 21.112-4.968 2.364-10.044 5.084-14.304 0.576-4.608-4.868-0.316-10.112 2.368-14.152 4.66-7.012 10.5-13.22 15.572-19.972 27.384-36.504 46.16-76.836 53.924-122.012 1.22-7.096 1.684-15.212 10.296-17.1 9.292-2.036 12.132 6.812 15.564 12.412 11.488 18.776 24.512 37.272 21.276 60.828zM740.368 215.568c14.96 9.484 30.312 18.516 39.536 34.572l-35.372-0.164c1.816-11.864-2.708-22.952-4.164-34.408z" fill="#9B3737" /><path d="M827.024 740.54c-0.508 23.248-11.992 40.592-30.292 53.64-8.876 6.32-19.424 8.716-29.304 2.608-9.028-5.584-12.356-15.316-11.144-25.46 1.768-14.748 3.956-29.572 7.7-43.904 3.56-13.608 7.02-28.544 26.94-27.148 17.912 1.252 33.64 14.816 36.056 32.48 0.344 2.544 0.044 5.184 0.044 7.784z" fill="#FBDB9A" /><path d="M850 331.568c0.272 22.216-13.512 31.024-37.508 22.156-14.556-5.384-28.272-13.188-42.06-20.5-11.24-5.964-22.376-14.212-20.444-28.088 2.136-15.332 14.684-21.428 29.456-23.992 33.044-5.744 70.176 20.452 70.556 50.424z" fill="#FDFDFD" /></svg>