<?xml version="1.0" standalone="no"?><!DOCTYPE svg PUBLIC "-//W3C//DTD SVG 1.1//EN" "http://www.w3.org/Graphics/SVG/1.1/DTD/svg11.dtd"><svg class="icon" width="48px" height="48.00px" viewBox="0 0 1024 1024" version="1.1" xmlns="http://www.w3.org/2000/svg"><path d="M896 384h64v64h-64zM832 448h64v64h-64z" fill="#333333" /><path d="M832 384h64v64h-64z" fill="#E52A1C" /><path d="M832 320h64v64h-64z" fill="#333333" /><path d="M768 448h64v64h-64z" fill="#E52A1C" /><path d="M768 384h64v64h-64z" fill="#333333" /><path d="M768 320h64v64h-64z" fill="#E52A1C" /><path d="M704 576h64v64h-64zM704 448h64v64h-64z" fill="#333333" /><path d="M704 384h64v64h-64z" fill="#E52A1C" /><path d="M704 320h64v64h-64zM704 192h64v64h-64zM640 512h64v64h-64z" fill="#333333" /><path d="M640 448h64v64h-64z" fill="#E52A1C" /><path d="M640 384h64v64h-64z" fill="#ED4832" /><path d="M640 320h64v64h-64z" fill="#E52A1C" /><path d="M640 256h64v64h-64zM576 704h64v64h-64zM576 576h64v64h-64z" fill="#333333" /><path d="M576 512h64v64h-64z" fill="#E52A1C" /><path d="M576 448h64v64h-64z" fill="#ED4832" /><path d="M576 384h64v64h-64z" fill="#C62B28" /><path d="M576 320h64v64h-64z" fill="#ED4832" /><path d="M576 256h64v64h-64z" fill="#E52A1C" /><path d="M576 192h64v64h-64zM576 64h64v64h-64z" fill="#333333" /><path d="M512 896h64v64h-64zM512 832h64v64h-64zM512 768h64v64h-64zM512 704h64v64h-64z" fill="#E5A423" /><path d="M512 640h64v64h-64z" fill="#333333" /><path d="M512 576h64v64h-64z" fill="#E52A1C" /><path d="M512 512h64v64h-64z" fill="#ED4832" /><path d="M512 448h64v64h-64z" fill="#C62B28" /><path d="M512 384h64v64h-64z" fill="#ED4832" /><path d="M512 320h64v64h-64z" fill="#C62B28" /><path d="M512 256h64v64h-64z" fill="#ED4832" /><path d="M512 192h64v64h-64z" fill="#E52A1C" /><path d="M512 128h64v64h-64z" fill="#333333" /><path d="M512 64h64v64h-64z" fill="#E5A423" /><path d="M448 896h64v64h-64zM448 832h64v64h-64zM448 768h64v64h-64zM448 704h64v64h-64z" fill="#F7C963" /><path d="M448 640h64v64h-64z" fill="#333333" /><path d="M448 576h64v64h-64z" fill="#E86258" /><path d="M448 512h64v64h-64z" fill="#C62B28" /><path d="M448 448h64v64h-64z" fill="#ED4832" /><path d="M448 384h64v64h-64z" fill="#C62B28" /><path d="M448 320h64v64h-64z" fill="#ED4832" /><path d="M448 256h64v64h-64z" fill="#C62B28" /><path d="M448 192h64v64h-64z" fill="#E86258" /><path d="M448 128h64v64h-64z" fill="#333333" /><path d="M448 64h64v64h-64z" fill="#F7C963" /><path d="M384 704h64v64h-64zM384 576h64v64h-64z" fill="#333333" /><path d="M384 512h64v64h-64z" fill="#E86258" /><path d="M384 448h64v64h-64z" fill="#C62B28" /><path d="M384 384h64v64h-64z" fill="#ED4832" /><path d="M384 320h64v64h-64z" fill="#C62B28" /><path d="M384 256h64v64h-64z" fill="#E86258" /><path d="M384 192h64v64h-64zM384 64h64v64h-64zM320 512h64v64h-64z" fill="#333333" /><path d="M320 448h64v64h-64z" fill="#E86258" /><path d="M320 384h64v64h-64z" fill="#ED4832" /><path d="M320 320h64v64h-64z" fill="#E86258" /><path d="M320 256h64v64h-64zM256 576h64v64h-64zM256 448h64v64h-64z" fill="#333333" /><path d="M256 384h64v64h-64z" fill="#E86258" /><path d="M256 320h64v64h-64zM256 192h64v64h-64z" fill="#333333" /><path d="M192 448h64v64h-64z" fill="#ED4832" /><path d="M192 384h64v64h-64z" fill="#333333" /><path d="M192 320h64v64h-64z" fill="#E86258" /><path d="M128 448h64v64h-64z" fill="#333333" /><path d="M128 384h64v64h-64z" fill="#ED4832" /><path d="M128 320h64v64h-64zM64 384h64v64H64z" fill="#333333" /></svg>