<?xml version="1.0" standalone="no"?><!DOCTYPE svg PUBLIC "-//W3C//DTD SVG 1.1//EN" "http://www.w3.org/Graphics/SVG/1.1/DTD/svg11.dtd"><svg class="icon" width="48px" height="48.00px" viewBox="0 0 1024 1024" version="1.1" xmlns="http://www.w3.org/2000/svg"><path d="M435.94752 768m20.48 0l102.4 0q20.48 0 20.48 20.48l0 81.92q0 20.48-20.48 20.48l-102.4 0q-20.48 0-20.48-20.48l0-81.92q0-20.48 20.48-20.48Z" fill="#914C12" /><path d="M527.36 208.60928a30.72 30.72 0 0 1 3.80928 3.81952l149.22752 178.10432a30.72 30.72 0 0 1-23.552 50.45248h-19.97824l104.97024 125.27616a30.72 30.72 0 0 1-23.552 50.45248H672.5632l110.2336 131.55328a30.72 30.72 0 0 1-23.552 50.45248H256a30.72 30.72 0 0 1-23.552-50.45248l110.2336-131.56352H296.96a30.72 30.72 0 0 1-23.552-50.44224l104.96-125.2864H358.4a30.72 30.72 0 0 1-23.552-50.44224l149.22752-178.10432a30.72 30.72 0 0 1 43.27424-3.81952z" fill="#0FBA68" /><path d="M553.70752 640m-25.6 0a25.6 25.6 0 1 0 51.2 0 25.6 25.6 0 1 0-51.2 0Z" fill="#ABE4FE" /><path d="M461.54752 506.88m-25.6 0a25.6 25.6 0 1 0 51.2 0 25.6 25.6 0 1 0-51.2 0Z" fill="#ABE4FE" /><path d="M435.2512 274.1248a20.48 20.48 0 0 1 27.136 10.11712c37.6832 82.41152 85.67808 120.99584 146.39104 119.36768l3.29728-0.14336 0.2048-0.03072a204.4928 204.4928 0 0 1 24.9856-3.67616l4.02432-0.33792c25.40544-1.98656 30.88384 34.94912 6.00064 40.41728-7.96672 1.75104-15.79008 3.03104-23.47008 3.82976l-5.98016 0.52224-0.512 0.13312a60.54912 60.54912 0 0 0-4.8128 1.4336l-1.34144 0.49152-0.02048 0.11264c-25.856 100.32128-89.43616 157.00992-187.56608 169.53344l-4.95616 0.57344 1.5872 1.57696c92.2624 90.7264 205.42464 133.8368 340.736 129.72032l6.4512-0.22528a20.48 20.48 0 0 1 1.6896 40.91904c-158.84288 6.5536-291.54304-47.2064-396.52352-160.73728l-3.01056-3.28704-0.4608-0.28672c-2.85696-1.64864-9.13408-3.8912-18.35008-6.0416l-2.36544-0.52224-1.66912-0.3584-1.15712-0.07168a549.84704 549.84704 0 0 1-51.32288-6.62528l-5.35552-0.96256c-25.57952-4.7104-20.48-42.752 5.43744-40.5504 20.5824 1.75104 38.0416 3.86048 52.61312 6.49216l6.48192 1.23904 1.47456 0.11264c117.248 7.94624 187.06432-36.39296 214.76352-133.9392l0.512-1.8432-3.15392-0.7168c-57.2928-13.568-104.31488-59.10528-139.86816-134.77888l-1.9968-4.31104a20.48 20.48 0 0 1 10.10688-27.136z" fill="#09A456" /><path d="M507.62752 194.56m-71.68 0a71.68 71.68 0 1 0 143.36 0 71.68 71.68 0 1 0-143.36 0Z" fill="#FC9A24" /></svg>