<?xml version="1.0" standalone="no"?><!DOCTYPE svg PUBLIC "-//W3C//DTD SVG 1.1//EN" "http://www.w3.org/Graphics/SVG/1.1/DTD/svg11.dtd"><svg class="icon" width="48px" height="48.00px" viewBox="0 0 1024 1024" version="1.1" xmlns="http://www.w3.org/2000/svg"><path d="M370.14016 73.54368a462.96576 462.96576 0 0 0-100.46976 46.42816c93.40928 72.192 205.40928 145.92 332.3648 205.97248 126.09024 57.8304 252.41088 95.62624 365.87008 120.32a463.17056 463.17056 0 0 0-29.27104-107.90912c-95.04768-24.86272-196.44416-58.71616-297.08288-104.86272-100.06528-47.34976-191.21664-103.18848-271.4112-159.9488zM677.66784 163.5584c70.04672 32.12288 140.13952 58.04032 208.08704 78.99136-44.57472-61.99808-105.16992-113.78688-179.31776-148.32128-73.71264-34.33984-151.86944-47.46752-227.59424-41.94304 61.1584 39.6032 127.63136 77.5936 198.82496 111.27296zM538.84416 443.73504l42.44992 48.09216 103.4496-46.99648c-39.43936-14.5664-79.18592-30.77632-118.81984-48.95232-139.69408-66.08896-262.05184-148.72576-361.3696-227.31264a456.9856 456.9856 0 0 0-67.11808 74.90048c83.21024 68.87424 184.69376 142.08512 301.0304 205.7472l100.3776-5.4784zM453.34016 545.87904c-139.2128-69.96992-260.00384-155.264-356.2752-234.2144-0.90112 1.8688-1.82272 3.72736-2.70336 5.61664a462.57152 462.57152 0 0 0-31.08864 89.77408C166.11328 492.02688 296.65792 583.48032 448.5888 655.36a1570.00704 1570.00704 0 0 0 42.5216 18.67264l-37.77024-128.1536zM538.74176 835.64544l-19.39968-65.82784a1678.32064 1678.32064 0 0 1-106.86976-44.52864c-139.5456-66.02752-261.8112-148.57216-361.07776-227.08736a460.42112 460.42112 0 0 0 11.94496 118.35392c89.59488 67.64032 195.21536 135.7568 313.93792 191.90272 52.08064 23.88992 104.20224 44.3392 155.43808 61.88544l6.02624-34.69824zM519.19872 948.08576c-58.63936-19.38944-118.4768-42.368-178.04288-69.68832-80.128-37.90848-154.53184-81.26464-222.1824-126.18752 45.65504 74.77248 113.08032 137.37984 198.44096 177.14176 64 29.80864 131.33824 43.64288 197.53984 43.15648l4.24448-24.4224z" fill="#FF9292" /><path d="M651.25888 913.55648m-54.6048 0a54.6048 54.6048 0 1 0 109.2096 0 54.6048 54.6048 0 1 0-109.2096 0Z" fill="#F5564D" /><path d="M966.23104 588.91776a19.9936 19.9936 0 0 0-17.12128-9.53856h-29.63456a17.18784 17.18784 0 0 0-4.07552-6.44608l-78.06976-78.08a17.26464 17.26464 0 0 0-24.40192 0l-22.28736 22.29248-45.28128-45.27616a17.23904 17.23904 0 0 0-24.38656 0l-107.52 107.50976h-6.72768a11.49952 11.49952 0 0 0-11.49952 11.4944c0 1.04448 0.1536 2.0736 0.4352 3.07712l53.61664 159.47776a20.0192 20.0192 0 0 0 19.328 14.73024c0.75264 0 1.51552-0.04608 2.26816-0.11776l180.9664-20.12672a45.78816 45.78816 0 0 0 36.0448-25.14432l79.22176-114.28864a19.97824 19.97824 0 0 0-0.87552-19.56352z" fill="#F5564D" /><path d="M639.39584 802.6624a23.0912 23.0912 0 0 1-22.13376-16.76288l-96.384-290.09408a11.48928 11.48928 0 0 0-11.0592-8.38656h-29.67552a11.4944 11.4944 0 0 0-11.4944 11.50464c0 6.3488 26.06592 17.88928 26.06592 17.88928l94.02368 281.70752c5.5808 19.82976 30.05952 37.13024 50.6624 37.13024h271.0272c6.35392 0 10.24512-8.26368 10.24512-15.25248 0-10.3424-3.8912-17.73568-10.24512-17.73568h-271.03232z" fill="#F5564D" /><path d="M864.18432 928.19456m-39.9616 0a39.9616 39.9616 0 1 0 79.9232 0 39.9616 39.9616 0 1 0-79.9232 0Z" fill="#F5564D" /></svg>