<?xml version="1.0" standalone="no"?><!DOCTYPE svg PUBLIC "-//W3C//DTD SVG 1.1//EN" "http://www.w3.org/Graphics/SVG/1.1/DTD/svg11.dtd"><svg class="icon" width="48px" height="48.00px" viewBox="0 0 1024 1024" version="1.1" xmlns="http://www.w3.org/2000/svg"><path d="M170.0352 920.6784c-38.5536 0-69.9392-31.3856-69.9392-69.9392s31.3856-69.9392 69.9392-69.9392 69.9392 31.3856 69.9392 69.9392-31.3856 69.9392-69.9392 69.9392z m0-104.0384c-18.7904 0-34.0992 15.3088-34.0992 34.0992s15.3088 34.0992 34.0992 34.0992 34.0992-15.3088 34.0992-34.0992-15.3088-34.0992-34.0992-34.0992z" fill="#E2E5F1" /><path d="M886.1696 195.072m-34.6624 0a34.6624 34.6624 0 1 0 69.3248 0 34.6624 34.6624 0 1 0-69.3248 0Z" fill="#FAC573" /><path d="M145.4592 181.3504m-34.6624 0a34.6624 34.6624 0 1 0 69.3248 0 34.6624 34.6624 0 1 0-69.3248 0Z" fill="#FFC5E7" /><path d="M770.4576 923.4944h-96.0512c-8.4992 0-15.36-6.8608-15.36-15.36s6.8608-15.36 15.36-15.36h96.0512c8.4992 0 15.36 6.8608 15.36 15.36s-6.912 15.36-15.36 15.36z" fill="#E2E5F1" /><path d="M128.1024 578.2016m-17.3568 0a17.3568 17.3568 0 1 0 34.7136 0 17.3568 17.3568 0 1 0-34.7136 0Z" fill="#C5DAFF" /><path d="M724.5312 523.3664l-196.2496 131.2256-196.1984-131.2256-141.9264 304.3328 133.632 17.8176 93.7984 87.5008 110.6944-228.608 110.7456 228.608 93.7984-87.5008 133.632-17.8176z" fill="#FF7B5C" /><path d="M743.8336 699.6992l38.144 78.9504c2.7648 5.7856-1.1264 12.4416-7.7312 13.2096l-48.9472 5.4784c-7.8336 0.8704-14.848 5.0688-19.0976 11.3664l-67.2768 99.4304 104.9088-59.392 117.1968-32.7168-84.8896-144.4864-32.3072 28.16zM433.5616 752.64l-34.816 77.1584c-2.56 5.6832-10.0864 7.424-15.0528 3.5328l-29.44-23.04a29.48096 29.48096 0 0 0-19.456-6.144l-116.736 5.7344 4.352 16.6912 101.4272 18.9952 91.648 76.9024 70.4-160.512L433.5616 752.64z" fill="#F45545" /><path d="M639.0272 953.4976a20.57216 20.57216 0 0 1-18.432-11.5712l-92.2624-190.5664-92.2624 190.5664a20.48 20.48 0 0 1-32.4096 6.0416l-89.0368-83.0976-127.1296-16.9472a20.57216 20.57216 0 0 1-15.2576-10.4448 20.61824 20.61824 0 0 1-0.6144-18.4832l141.9264-304.3328a20.2752 20.2752 0 0 1 13.056-11.0592c5.7344-1.5872 11.9296-0.6144 16.896 2.7136l184.832 123.5968 184.832-123.5968c4.9664-3.328 11.1616-4.3008 16.896-2.7136a20.2752 20.2752 0 0 1 13.056 11.0592l141.9264 304.3328c2.7648 5.888 2.56 12.8-0.6144 18.4832a20.31104 20.31104 0 0 1-15.2576 10.4448l-127.1296 16.9472-89.0368 83.0976a20.2752 20.2752 0 0 1-13.9776 5.5296z m-110.7456-269.568c7.8336 0 15.0016 4.5056 18.432 11.5712l98.6112 203.6224 73.5232-68.608c3.1232-2.9184 7.0656-4.7616 11.264-5.3248l105.984-14.1312-120.064-257.3824-176.384 117.9136c-6.912 4.608-15.872 4.608-22.784 0L340.48 553.6768l-120.064 257.3824 105.984 14.1312c4.1984 0.5632 8.1408 2.4064 11.264 5.3248l73.5232 68.608 98.6112-203.6224a20.6592 20.6592 0 0 1 18.4832-11.5712z" fill="#211D38" /><path d="M528.2816 428.5952m-331.6736 0a331.6736 331.6736 0 1 0 663.3472 0 331.6736 331.6736 0 1 0-663.3472 0Z" fill="#FAC573" /><path d="M605.6448 739.2256c144.896-28.2624 254.3104-155.8016 254.3104-308.992 0-160.4096-120.0128-292.7104-275.0976-312.2688 29.3376 12.5952 207.0528 97.8432 215.7568 318.6688 1.4848 74.5984-47.5136 227.7376-194.9696 302.592z" fill="#EF981A" /><path d="M528.2816 780.7488c-194.1504 0-352.1536-157.952-352.1536-352.1536s157.952-352.1536 352.1536-352.1536 352.1536 157.952 352.1536 352.1536-157.952 352.1536-352.1536 352.1536z m0-663.296c-171.5712 0-311.1936 139.5712-311.1936 311.1936s139.5712 311.1936 311.1936 311.1936 311.1936-139.5712 311.1936-311.1936-139.5712-311.1936-311.1936-311.1936z" fill="#211D38" /><path d="M528.2816 428.5952m-233.5744 0a233.5744 233.5744 0 1 0 467.1488 0 233.5744 233.5744 0 1 0-467.1488 0Z" fill="#FF7B5C" /><path d="M565.5552 647.7312c102.2464-19.9168 179.4048-109.9264 179.4048-217.9584 0-113.152-84.6336-206.4896-194.048-220.3136 20.6848 8.8576 146.0736 69.0176 152.2176 224.768 1.024 52.6336-33.5872 160.7168-137.5744 213.504z" fill="#F45545" /><path d="M528.2816 682.6496c-140.0832 0-254.0544-113.9712-254.0544-254.0544S388.1984 174.592 528.2816 174.592s254.0544 113.9712 254.0544 254.0544-113.9712 254.0032-254.0544 254.0032z m0-467.0976c-117.504 0-213.0944 95.5904-213.0944 213.0944s95.5904 213.0944 213.0944 213.0944 213.0944-95.5904 213.0944-213.0944-95.5904-213.0944-213.0944-213.0944z" fill="#211D38" /><path d="M544.8704 302.7968l25.7536 52.224c2.7136 5.4784 7.8848 9.216 13.9264 10.0864l57.6 8.3968c15.1552 2.2016 21.1968 20.8384 10.24 31.5392l-41.6768 40.6528c-4.352 4.2496-6.3488 10.3424-5.3248 16.3328l9.8304 57.3952c2.6112 15.104-13.2608 26.624-26.8288 19.5072l-51.5584-27.0848a18.57024 18.57024 0 0 0-17.2032 0l-51.5584 27.0848c-13.568 7.1168-29.3888-4.4032-26.8288-19.5072l9.8304-57.3952c1.024-5.9904-0.9728-12.1344-5.3248-16.3328l-41.6768-40.6528c-10.9568-10.7008-4.9152-29.3376 10.24-31.5392l57.6-8.3968c6.0416-0.8704 11.2128-4.6592 13.9264-10.0864l25.7536-52.224c6.912-13.7216 26.5216-13.7216 33.28 0z" fill="#FAC573" /><path d="M513.536 323.2256l37.3248 73.8304 50.944 6.5536-39.2192 39.2192 9.7792 45.7728h-44.0832l70.2464 47.6672 9.0112-4.5568L594.5856 445.44l59.4944-51.6608-69.2224-31.3344-62.8224-60.8256z" fill="#EF981A" /><path d="M459.52 561.5104c-8.0384 0-16.0256-2.5088-22.8352-7.4752a38.74816 38.74816 0 0 1-15.5136-38.0928l9.6768-56.3712-40.96-39.8848a38.7584 38.7584 0 0 1-9.8816-39.936c4.608-14.1824 16.64-24.3712 31.4368-26.5216l56.576-8.2432 25.2928-51.2512a38.68672 38.68672 0 0 1 34.9184-21.7088c14.9504 0 28.3136 8.3456 34.9184 21.7088l25.2928 51.2512L645.12 353.2288c14.7968 2.1504 26.8288 12.288 31.4368 26.5216 4.608 14.1824 0.8192 29.4912-9.8816 39.936l-40.96 39.8848 9.6768 56.3712a38.7072 38.7072 0 0 1-15.5136 38.0928c-12.0832 8.7552-27.8016 9.9328-41.0112 2.9696l-50.5856-26.624-50.5856 26.624c-5.7344 3.0208-11.9808 4.5056-18.176 4.5056z m68.7616-72.3456c6.2464 0 12.4416 1.4848 18.1248 4.4544l47.9744 25.1904-9.1648-53.4016c-2.1504-12.6464 1.9968-25.4976 11.2128-34.4576l38.8096-37.8368-53.6064-7.7824a38.89664 38.89664 0 0 1-29.3376-21.2992l-23.9616-48.5888-23.9616 48.5888a38.89664 38.89664 0 0 1-29.3376 21.2992L421.376 393.1648l38.8096 37.8368a39.10656 39.10656 0 0 1 11.2128 34.5088l-9.1648 53.4016 47.9744-25.1904c5.632-3.0208 11.8784-4.5568 18.0736-4.5568z m60.7232-143.2064z" fill="#211D38" /><path d="M331.7248 484.6592a12.8 12.8 0 0 1-12.544-10.2912c-2.7648-13.8752-4.1472-28.16-4.1472-42.4448 0-75.264 38.0928-144.1792 101.9392-184.2688 5.9904-3.7376 13.8752-1.9456 17.664 4.0448 3.7376 5.9904 1.9456 13.8752-4.0448 17.664-56.32 35.3792-89.9584 96.1536-89.9584 162.56 0 12.6464 1.2288 25.2416 3.6352 37.4784 1.3824 6.912-3.1232 13.6704-10.0864 15.0528-0.768 0.1536-1.6384 0.2048-2.4576 0.2048zM467.712 250.5216c-5.376 0-10.3424-3.3792-12.1344-8.7552-2.2528-6.7072 1.3824-13.9776 8.0896-16.1792 6.8608-2.304 13.9264-4.2496 20.992-5.8368 6.8608-1.536 13.7216 2.7648 15.3088 9.6768 1.536 6.912-2.7648 13.7216-9.6768 15.3088-6.2464 1.3824-12.4416 3.1232-18.5344 5.1712-1.3824 0.4096-2.7136 0.6144-4.0448 0.6144zM252.8256 790.9376c-1.792 0-3.6352-0.4096-5.376-1.1776a12.80512 12.80512 0 0 1-6.1952-16.9984l20.992-45.1072a12.80512 12.80512 0 0 1 16.9984-6.1952c6.4 2.9696 9.1648 10.5984 6.1952 16.9984l-20.992 45.1072c-2.1504 4.6592-6.8096 7.3728-11.6224 7.3728zM637.7984 858.112c-4.7616 0-9.3696-2.6624-11.5712-7.2704l-21.504-44.8512a12.7488 12.7488 0 0 1 5.9904-17.0496c6.3488-3.072 14.0288-0.3584 17.0496 5.9904l21.504 44.8512c3.072 6.4 0.3584 14.0288-5.9904 17.0496-1.7408 0.8704-3.6352 1.28-5.4784 1.28z" fill="#FFFFFF" /></svg>