<?xml version="1.0" standalone="no"?><!DOCTYPE svg PUBLIC "-//W3C//DTD SVG 1.1//EN" "http://www.w3.org/Graphics/SVG/1.1/DTD/svg11.dtd"><svg class="icon" width="48px" height="48.00px" viewBox="0 0 1024 1024" version="1.1" xmlns="http://www.w3.org/2000/svg"><path d="M662.278454 804.567126C602.318521 878.088605 511.01042 925.042017 408.739496 925.042017c-180.594017 0-326.991597-146.39758-326.991597-326.991597 0-173.365782 134.914151-315.219899 305.478992-326.294588V134.251563C359.742387 125.216269 339.89916 99.34521 339.89916 68.840336c0-38.021378 30.818958-68.840336 68.840336-68.840336s68.840336 30.818958 68.840336 68.840336c0 30.504874-19.843227 56.380235-47.327731 65.411227v137.504269c83.184941 5.403966 157.889613 41.910857 212.604773 98.011429l126.769479-126.773782A94.216605 94.216605 0 0 1 752.941176 189.310924c0-52.27563 42.379832-94.655462 94.655463-94.655462s94.655462 42.379832 94.655462 94.655462-42.379832 94.655462-94.655462 94.655463a94.22521 94.22521 0 0 1-46.123026-11.973916l-130.581512 130.581512C711.624067 457.099832 735.731092 524.761277 735.731092 598.05042c0 62.657613-17.623126 121.202017-48.183932 170.93916l99.323697 99.323697A81.433815 81.433815 0 0 1 821.781513 860.504202c45.146353 0 81.747899 36.601546 81.747899 81.747899s-36.601546 81.747899-81.747899 81.747899-81.747899-36.601546-81.7479-81.747899c0-16.994958 5.18884-32.78521 14.069244-45.864874L662.278454 804.571429zM408.739496 882.016807c156.826891 0 283.966387-127.139496 283.966386-283.966387s-127.139496-283.966387-283.966386-283.966386-283.966387 127.139496-283.966387 283.966386 127.139496 283.966387 283.966387 283.966387z m0-43.02521c-133.06837 0-240.941176-107.872807-240.941177-240.941177s107.872807-240.941176 240.941177-240.941176 240.941176 107.872807 240.941176 240.941176-107.872807 240.941176-240.941176 240.941177z m0-731.428572a38.722689 38.722689 0 1 0 0-77.445378 38.722689 38.722689 0 0 0 0 77.445378z m438.857143 141.983193c33.267092 0 60.235294-26.968202 60.235294-60.235294s-26.968202-60.235294-60.235294-60.235294-60.235294 26.968202-60.235294 60.235294 26.968202 60.235294 60.235294 60.235294z m-25.815126 744.336135c28.512807 0 51.630252-23.117445 51.630252-51.630252s-23.117445-51.630252-51.630252-51.630252-51.630252 23.117445-51.630252 51.630252 23.117445 51.630252 51.630252 51.630252z" fill="#2c2c2c" /><path d="M408.739496 598.05042m-197.915967 0a197.915966 197.915966 0 1 0 395.831933 0 197.915966 197.915966 0 1 0-395.831933 0Z" fill="#4169E1" /></svg>