<?xml version="1.0" standalone="no"?><!DOCTYPE svg PUBLIC "-//W3C//DTD SVG 1.1//EN" "http://www.w3.org/Graphics/SVG/1.1/DTD/svg11.dtd"><svg class="icon" width="48px" height="48.00px" viewBox="0 0 1024 1024" version="1.1" xmlns="http://www.w3.org/2000/svg"><path d="M925.82 214.216l1.572-1.6C988.18 296.808 1024 400.22 1024 512c0 282.768-229.232 512-512 512-102.26 0-197.52-29.98-277.468-81.632l36.128-24.652C341.276 959.816 423.816 984 512 984c260.68 0 472-211.32 472-472 0-72.128-16.18-140.476-45.104-201.616L846 315.96 919.92 204l5.9 10.216zM83.248 709.64l94.676-5.68-52.3 79.208 1.36 1.92-7.736 7.74L104 815.92l-2.872-4.976-2.8 2.8C36.492 729.136 0 624.832 0 512 0 229.232 229.232 0 512 0c100.84 0 194.868 29.152 274.12 79.488l-37.788 23.848C678.832 63.056 598.108 40 512 40 251.32 40 40 251.32 40 512c0 70.568 15.488 137.52 43.248 197.644z" fill="#2c2c2c" /><path d="M381.504 436c9.64-63.412 64.392-112 130.496-112 66.104 0 120.856 48.588 130.496 112H652c72.9 0 132 59.1 132 132s-59.1 132-132 132H372c-72.9 0-132-59.1-132-132s59.1-132 132-132h9.504z" fill="#4169E1" /></svg>