<?xml version="1.0" standalone="no"?><!DOCTYPE svg PUBLIC "-//W3C//DTD SVG 1.1//EN" "http://www.w3.org/Graphics/SVG/1.1/DTD/svg11.dtd"><svg class="icon" width="48px" height="45.64px" viewBox="0 0 1077 1024" version="1.1" xmlns="http://www.w3.org/2000/svg"><path d="M422.544297 953.667311c-111.535593 0-201.738178-90.202584-201.738177-201.738178s90.202584-201.738178 201.738177-201.738177 201.738178 90.202584 201.738178 201.738177-90.202584 201.738178-201.738178 201.738178z" fill="#4169E1" /><path d="M185.73816 937.399674c-25.32686 0-49.582198-10.033333-67.700644-28.054367-20.164077-20.164077-30.29482-48.023622-27.664723-76.370223l13.540129-147.577662c6.234304-69.064398 36.626535-134.037534 85.721678-183.132677L608.014838 77.163148c6.81877-7.013592 16.267637-10.910032 26.008736-10.910032h0.097411c9.7411 0 19.092556 3.89644 25.911326 10.71521L943.693138 360.629153c14.222006 14.222006 14.319417 37.308412 0.194822 51.72524L525.3129 837.45599l-0.097411 0.097411c-48.705499 49.095143-113.776046 79.584786-183.327498 85.916501l-147.480252 13.540128c-2.92233 0.292233-5.84466 0.389644-8.669579 0.389644z m448.675058-782.405138L241.749484 553.892574l-0.194822 0.194822c-36.918768 36.918768-59.907764 86.013912-64.583492 138.031385l-13.540128 147.577662c-0.779288 8.961812 3.701618 15.001294 6.526537 17.826213 2.824919 2.824919 8.76699 7.305825 17.826212 6.526537l147.382841-13.540129h0.097411c52.407117-4.773139 101.307438-27.664724 137.933973-64.486081l392.955967-399.190271-231.740765-231.838176z" fill="#27282A" /><path d="M534.104243 51.865512L585.970729 0l464.039695 464.039695-51.866486 51.865512zM783.566017 71.262964L835.432503 19.398426l195.134686 195.134686-51.865512 51.866486zM603.832984 390.843123l51.866486-51.866486 162.141581 162.14158-51.866486 51.866486zM354.366339 635.536628l51.866486-51.866486 162.140607 162.141581-51.865512 51.866486zM479.43232 509.706945l51.866486-51.866486 162.141581 162.140607-51.865512 51.86746z" fill="#27282A" /><path d="M765.986254 231.853762L867.995051 129.843016l51.866486 51.866486-102.010745 102.009772zM0.690383 972.133514L119.575636 853.248261l51.866486 51.866486-118.886227 118.885253z" fill="#27282A" /></svg>