<?xml version="1.0" standalone="no"?><!DOCTYPE svg PUBLIC "-//W3C//DTD SVG 1.1//EN" "http://www.w3.org/Graphics/SVG/1.1/DTD/svg11.dtd"><svg class="icon" width="48px" height="48.00px" viewBox="0 0 1024 1024" version="1.1" xmlns="http://www.w3.org/2000/svg"><path d="M512 0h392c66.276 0 120 53.724 120 120v784c0 66.276-53.724 120-120 120H120c-66.276 0-120-53.724-120-120v-392l40 31.688v329.688C40 934.472 89.528 984 150.624 984h722.752C934.472 984 984 934.472 984 873.376V150.624C984 89.528 934.472 40 873.376 40H552.4C543.348 28.544 529.88 15.208 512 0z" fill="#2c2c2c" /><path d="M307.28 456.72c72.652-19.568 129.872-76.788 149.44-149.44A212.272 212.272 0 0 1 512 300c117.084 0 212 94.916 212 212s-94.916 212-212 212-212-94.916-212-212c0-19.12 2.532-37.656 7.28-55.28z" fill="#4169E1" /><path d="M443.776 415.492l168.356 168.356a20 20 0 0 1-28.284 28.284l-168.36-168.36C371.48 481.336 314.392 504 252 504 112.824 504 0 391.176 0 252S112.824 0 252 0s252 112.824 252 252c0 62.388-22.672 119.48-60.224 163.492zM252 464c117.084 0 212-94.916 212-212S369.084 40 252 40 40 134.916 40 252s94.916 212 212 212z" fill="#2c2c2c" /><path d="M148 188h40a20 20 0 0 1 0 40H148a20 20 0 0 1 0-40z m0 84h120a20 20 0 0 1 0 40H148a20 20 0 0 1 0-40z" fill="#4169E1" /></svg>