<?xml version="1.0" standalone="no"?><!DOCTYPE svg PUBLIC "-//W3C//DTD SVG 1.1//EN" "http://www.w3.org/Graphics/SVG/1.1/DTD/svg11.dtd"><svg class="icon" width="48px" height="48.00px" viewBox="0 0 1024 1024" version="1.1" xmlns="http://www.w3.org/2000/svg"><path d="M238.933333 307.2h716.8v477.866667H238.933333z" fill="#4F8DFC" /><path d="M972.8 68.266667h-921.6A51.2 51.2 0 0 0 0 119.466667v682.666666A51.2 51.2 0 0 0 51.2 853.333333h921.6a51.2 51.2 0 0 0 51.2-51.2v-682.666666A51.2 51.2 0 0 0 972.8 68.266667zM921.6 170.666667v409.6H102.4V170.666667zM102.4 750.933333v-68.266666h819.2v68.266666zM665.6 887.466667h-307.2a51.2 51.2 0 0 0 0 102.4h307.2a51.2 51.2 0 0 0 0-102.4z" fill="#181818" /></svg>