<?xml version="1.0" standalone="no"?><!DOCTYPE svg PUBLIC "-//W3C//DTD SVG 1.1//EN" "http://www.w3.org/Graphics/SVG/1.1/DTD/svg11.dtd"><svg class="icon" width="48px" height="48.00px" viewBox="0 0 1024 1024" version="1.1" xmlns="http://www.w3.org/2000/svg"><path d="M307.2 307.2h682.666667v682.666667H307.2z" fill="#4F8DFC" /><path d="M938.666667 546.133333a51.2 51.2 0 0 0-51.2 51.2v341.333334a51.2 51.2 0 0 0 102.4 0v-341.333334a51.2 51.2 0 0 0-51.2-51.2zM768 546.133333a51.2 51.2 0 0 0-51.2 51.2v341.333334a51.2 51.2 0 0 0 102.4 0v-341.333334a51.2 51.2 0 0 0-51.2-51.2zM597.333333 546.133333a51.2 51.2 0 0 0-51.2 51.2v341.333334a51.2 51.2 0 0 0 102.4 0v-341.333334a51.2 51.2 0 0 0-51.2-51.2zM938.666667 34.133333h-341.333334A51.2 51.2 0 0 0 546.133333 85.333333v341.333334a51.2 51.2 0 0 0 51.2 51.2h341.333334a51.2 51.2 0 0 0 51.2-51.2v-341.333334A51.2 51.2 0 0 0 938.666667 34.133333zM887.466667 375.466667h-238.933334V136.533333h238.933334zM426.666667 34.133333h-341.333334A51.2 51.2 0 0 0 34.133333 85.333333v341.333334A51.2 51.2 0 0 0 85.333333 477.866667h341.333334a51.2 51.2 0 0 0 51.2-51.2v-341.333334A51.2 51.2 0 0 0 426.666667 34.133333zM375.466667 375.466667H136.533333V136.533333h238.933334zM426.666667 546.133333h-341.333334A51.2 51.2 0 0 0 34.133333 597.333333v341.333334A51.2 51.2 0 0 0 85.333333 989.866667h341.333334a51.2 51.2 0 0 0 51.2-51.2v-341.333334a51.2 51.2 0 0 0-51.2-51.2zM375.466667 887.466667H136.533333v-238.933334h238.933334z" fill="#181818" /></svg>