<?xml version="1.0" standalone="no"?><!DOCTYPE svg PUBLIC "-//W3C//DTD SVG 1.1//EN" "http://www.w3.org/Graphics/SVG/1.1/DTD/svg11.dtd"><svg class="icon" width="48px" height="48.00px" viewBox="0 0 1024 1024" version="1.1" xmlns="http://www.w3.org/2000/svg"><path d="M238.933333 238.933333h546.133334v546.133334H238.933333z" fill="#4F8DFC" /><path d="M785.066667 477.866667h-187.733334a51.2 51.2 0 0 1-51.2-51.2V238.933333a238.933333 238.933333 0 1 1 238.933334 238.933334z m-136.533334-102.4h136.533334a136.533333 136.533333 0 1 0-136.533334-136.533334zM785.066667 1024a238.933333 238.933333 0 0 1-238.933334-238.933333v-187.733334a51.2 51.2 0 0 1 51.2-51.2H785.066667a238.933333 238.933333 0 0 1 0 477.866667z m-136.533334-375.466667v136.533334a136.533333 136.533333 0 1 0 136.533334-136.533334zM426.666667 477.866667H238.933333a238.933333 238.933333 0 1 1 238.933334-238.933334v187.733334a51.2 51.2 0 0 1-51.2 51.2zM238.933333 102.4a136.533333 136.533333 0 0 0 0 273.066667h136.533334V238.933333a136.533333 136.533333 0 0 0-136.533334-136.533333zM238.933333 1024a238.933333 238.933333 0 0 1 0-477.866667h187.733334a51.2 51.2 0 0 1 51.2 51.2V785.066667a238.933333 238.933333 0 0 1-238.933334 238.933333z m0-375.466667a136.533333 136.533333 0 1 0 136.533334 136.533334v-136.533334z" fill="#181818" /></svg>