<?xml version="1.0" standalone="no"?><!DOCTYPE svg PUBLIC "-//W3C//DTD SVG 1.1//EN" "http://www.w3.org/Graphics/SVG/1.1/DTD/svg11.dtd"><svg class="icon" width="48px" height="48.00px" viewBox="0 0 1024 1024" version="1.1" xmlns="http://www.w3.org/2000/svg"><path d="M629.95 543.33m-287.37 0a287.37 287.37 0 1 0 574.74 0 287.37 287.37 0 1 0-574.74 0Z" fill="#4F8DFC" /><path d="M828.29 158.23a40 40 0 0 1 40 40v630.06a40 40 0 0 1-40 40H198.23a40 40 0 0 1-40-40V198.23a40 40 0 0 1 40-40h630.06m0-60H198.23a100 100 0 0 0-100 100v630.06a100 100 0 0 0 100 100h630.06a100 100 0 0 0 100-100V198.23a100 100 0 0 0-100-100z" fill="#181818" /><path d="M223.58 320.22m31.9 0l193.15 0q31.9 0 31.9 31.9l0-0.01q0 31.9-31.9 31.9l-193.15 0q-31.9 0-31.9-31.9l0 0.01q0-31.9 31.9-31.9Z" fill="#181818" /><path d="M383.95 223.65m0 31.9l0 193.15q0 31.9-31.9 31.9l0.01 0q-31.9 0-31.9-31.9l0-193.15q0-31.9 31.9-31.9l-0.01 0q31.9 0 31.9 31.9Z" fill="#181818" /><path d="M282.315309 554.77521m22.556707 22.556707l144.270996 144.270996q22.556706 22.556706 0 45.113413l0.007071-0.007071q-22.556706 22.556706-45.113412 0l-144.270997-144.270997q-22.556706-22.556706 0-45.113412l-0.007071 0.007071q22.556706-22.556706 45.113413 0Z" fill="#181818" /><path d="M470.881031 600.713553m-22.556706 22.556707l-142.63758 142.637579q-22.556706 22.556706-45.113413 0l0.007071 0.007071q-22.556706-22.556706 0-45.113412l142.63758-142.63758q22.556706-22.556706 45.113413 0l-0.007071-0.007071q22.556706 22.556706 0 45.113413Z" fill="#181818" /><path d="M576.11 320.22m31.9 0l161.12 0q31.9 0 31.9 31.9l0-0.01q0 31.9-31.9 31.9l-161.12 0q-31.9 0-31.9-31.9l0 0.01q0-31.9 31.9-31.9Z" fill="#181818" /><path d="M576.65 576.05m31.9 0l166.62 0q31.9 0 31.9 31.9l0-0.01q0 31.9-31.9 31.9l-166.62 0q-31.9 0-31.9-31.9l0 0.01q0-31.9 31.9-31.9Z" fill="#181818" /><path d="M576.65 704.22m31.9 0l166.62 0q31.9 0 31.9 31.9l0-0.01q0 31.9-31.9 31.9l-166.62 0q-31.9 0-31.9-31.9l0 0.01q0-31.9 31.9-31.9Z" fill="#181818" /></svg>