<?xml version="1.0" standalone="no"?><!DOCTYPE svg PUBLIC "-//W3C//DTD SVG 1.1//EN" "http://www.w3.org/Graphics/SVG/1.1/DTD/svg11.dtd"><svg class="icon" width="48px" height="48.00px" viewBox="0 0 1024 1024" version="1.1" xmlns="http://www.w3.org/2000/svg"><path d="M681.109662 536.737477c87.685908 0 158.767262 71.085292 158.767261 158.7712 0 87.685908-71.081354 158.767262-158.767261 158.767261s-158.7712-71.081354-158.7712-158.767261 71.085292-158.7712 158.7712-158.7712z" fill="#4F8DFC" /><path d="M295.384615 149.661538H252.061538c-58.7776 1.728985-85.031385 34.548185-78.76923 98.461539 0 0-3.544615 340.243692 185.107692 362.3424 0 0 62.436431 11.52 110.276923 0 0 0 150.075077-5.269662 173.292308-366.280862 0 0-0.448985-102.124308-94.523077-90.584615h-43.323077v43.323077h51.2c34.973538 8.282585 49.415877 29.2864 43.323077 63.015385 0 0-20.842338 255.921231-129.969231 299.323076 0 0-75.264 14.706215-114.215385 0 0 0-125.959877-29.755077-133.907692-299.323076 0 0-10.929231-51.278769 39.384616-59.076924h47.261538l-11.815385-51.2z" fill="#000000" /><path d="M315.076923 137.846154a31.507692 31.507692 0 1 1 0 63.015384 31.507692 31.507692 0 0 1 0-63.015384zM468.676923 586.830769c0 32.626215-26.450708 59.076923-59.076923 59.076923-32.626215 0-59.076923-26.450708-59.076923-59.076923a58.919385 58.919385 0 0 1 18.916431-43.323077h80.320984A58.919385 58.919385 0 0 1 468.676923 586.830769z" fill="#000000" /><path d="M433.218954 634.092308v118.0672c0 48.746338 29.983508 92.199385 66.965661 92.199384s66.965662-43.453046 66.965662-92.199384l-0.003939-27.482585H614.4v51.2c0 63.0784-51.136985 114.215385-114.215385 114.215385s-114.215385-51.136985-114.215384-114.215385v-141.784615h47.249723z" fill="#000000" /><path d="M681.353846 582.892308c63.0784 0 114.215385 51.136985 114.215385 114.215384v51.2h-47.253662v-27.482584c0-48.746338-29.979569-92.199385-66.961723-92.199385-36.982154 0-66.965662 43.453046-66.965661 92.199385v49.880615H567.138462V697.107692c0-63.0784 51.136985-114.215385 114.215384-114.215384z" fill="#000000" /><path d="M775.876923 724.676923c45.678277 0 82.707692 37.029415 82.707692 82.707692s-37.029415 82.707692-82.707692 82.707693-82.707692-37.029415-82.707692-82.707693 37.029415-82.707692 82.707692-82.707692z m0 46.399015a36.308677 36.308677 0 1 0 0 72.617354 36.308677 36.308677 0 0 0 0-72.617354zM492.307692 137.846154a31.507692 31.507692 0 1 1 0 63.015384 31.507692 31.507692 0 0 1 0-63.015384z" fill="#000000" /></svg>