<?xml version="1.0" standalone="no"?><!DOCTYPE svg PUBLIC "-//W3C//DTD SVG 1.1//EN" "http://www.w3.org/Graphics/SVG/1.1/DTD/svg11.dtd"><svg class="icon" width="48px" height="44.56px" viewBox="0 0 1103 1024" version="1.1" xmlns="http://www.w3.org/2000/svg"><path d="M972.113264 560.071535c65.621461 53.412817 90.038748 164.816692 57.991058 204.494784s-80.882265-21.365127-148.029806-74.777943-122.086438-93.090909-90.038748-132.769002 114.456036-50.360656 180.077496 3.052161z" fill="#4F8DFC" /><path d="M605.853949 514.289121l-53.412816-30.52161c28.995529-50.360656 79.356185-88.512668 135.821162-103.773472l15.260805 59.517138c-39.678092 9.156483-76.304024 38.152012-97.669151 74.777944zM679.105812 570.754098l-53.412816-30.521609c28.995529-50.360656 79.356185-88.512668 135.821162-103.773473l15.260805 59.517139c-41.204173 10.682563-76.304024 38.152012-97.669151 74.777943z" fill="#181818" /><path d="M1088.09538 1024H724.888227v-61.043219h303.690014V854.605067l-312.846497-1.52608-1.526081-15.260805L0 416.61997 224.33383 0 518.867362 140.399404l76.304024 260.959761 164.816691 115.982117 4.578242-1.526081c103.773472-47.308495 172.447094-18.312966 248.751118 42.730254l6.104322 4.578241c102.247392 79.356185 90.038748 198.390462 71.725782 280.798808l-1.52608 4.578241-1.526081 3.052161v112.929955h1.526081l-1.526081 59.517139zM756.935917 792.035768l282.324888 1.52608c13.734724-86.986587-4.578241-141.925484-56.464978-183.129657l-6.104322-4.578242c-73.251863-57.991058-117.508197-65.621461-186.181818-35.099851l-35.099851 18.312966-219.755589-155.660209 4.578242-7.630402-70.199702-241.120715-218.229508-103.773473L80.882265 393.728763l676.053652 398.307005z" fill="#181818" /></svg>