<?xml version="1.0" standalone="no"?><!DOCTYPE svg PUBLIC "-//W3C//DTD SVG 1.1//EN" "http://www.w3.org/Graphics/SVG/1.1/DTD/svg11.dtd"><svg class="icon" width="48px" height="48.00px" viewBox="0 0 1024 1024" version="1.1" xmlns="http://www.w3.org/2000/svg"><path d="M429.48 639.71m-287.37 0a287.37 287.37 0 1 0 574.74 0 287.37 287.37 0 1 0-574.74 0Z" fill="#4F8DFC" /><path d="M703.33 413.79a30 30 0 0 1-18.86-6.67L389 168.21 149.8 405.1a30 30 0 1 1-42.22-42.62l258.27-255.8a30 30 0 0 1 40-2l295.61 239L813.12 234.5a30 30 0 1 1 41.94 42.9L724.31 405.24a30 30 0 0 1-20.98 8.55z" fill="#181818" /><path d="M896.18 394H896a30 30 0 0 1-29.84-30.17l0.79-142H734.82a30 30 0 0 1 0-60h162.31a30 30 0 0 1 30 30.17l-1 172.18A30 30 0 0 1 896.18 394z" fill="#181818" /><path d="M130.31 925.64a30 30 0 0 1-30-30V513.22a30 30 0 0 1 60 0v382.42a30 30 0 0 1-30 30zM322 925.64a30 30 0 0 1-30-30V383.79a30 30 0 1 1 60 0v511.85a30 30 0 0 1-30 30zM513.72 925.64a30 30 0 0 1-30-30v-404.1a30 30 0 1 1 60 0v404.1a30 30 0 0 1-30 30zM705.42 925.64a30 30 0 0 1-30-30V612.73a30 30 0 0 1 60 0v282.91a30 30 0 0 1-30 30zM897.13 925.64a30 30 0 0 1-30-30V474.39a30 30 0 0 1 60 0v421.25a30 30 0 0 1-30 30z" fill="#181818" /></svg>