<?xml version="1.0" standalone="no"?><!DOCTYPE svg PUBLIC "-//W3C//DTD SVG 1.1//EN" "http://www.w3.org/Graphics/SVG/1.1/DTD/svg11.dtd"><svg class="icon" width="48px" height="48.00px" viewBox="0 0 1024 1024" version="1.1" xmlns="http://www.w3.org/2000/svg"><path d="M636.85 608.61m-287.37 0a287.37 287.37 0 1 0 574.74 0 287.37 287.37 0 1 0-574.74 0Z" fill="#4F8DFC" /><path d="M827.16 160.43h-50.68a10 10 0 0 0-10 10v40a10 10 0 0 0 10 10h49.85a40 40 0 0 1 40 40v536.44a40 40 0 0 1-40 40h-630a40 40 0 0 1-40-40V260.43a40 40 0 0 1 40-40h48.11a10 10 0 0 0 10-10v-40a10 10 0 0 0-10-10h-48.11a100 100 0 0 0-100 100v536.44a100 100 0 0 0 100 100h630a100 100 0 0 0 100-100V260.43c0-55.23-44.77-100-99.17-100z m-199.5 0H392.45a10 10 0 0 0-10 10v40a10 10 0 0 0 10 10h235.21a10 10 0 0 0 10-10v-40a10 10 0 0 0-10-10z" fill="#181818" /><path d="M286.39 126.32m10 0l44.01 0q10 0 10 10l0 108.21q0 10-10 10l-44.01 0q-10 0-10-10l0-108.21q0-10 10-10Z" fill="#182038" /><path d="M670.46 126.32m20 0l24.01 0q20 0 20 20l0 88.21q0 20-20 20l-24.01 0q-20 0-20-20l0-88.21q0-20 20-20Z" fill="#182038" /><path d="M439.94 672.87A89.59 89.59 0 0 1 377.58 648l-69.32-67.26a31.49 31.49 0 0 1 0-45.5 33.9 33.9 0 0 1 46.91 0l69.23 67.16a22.62 22.62 0 0 0 31.18-0.1l244.11-236.89a33.9 33.9 0 0 1 46.91 0 31.5 31.5 0 0 1 0 45.5L502.5 647.79a89.61 89.61 0 0 1-62.56 25.08z" fill="#181818" /></svg>