<?xml version="1.0" standalone="no"?><!DOCTYPE svg PUBLIC "-//W3C//DTD SVG 1.1//EN" "http://www.w3.org/Graphics/SVG/1.1/DTD/svg11.dtd"><svg class="icon" width="48px" height="48.00px" viewBox="0 0 1024 1024" version="1.1" xmlns="http://www.w3.org/2000/svg"><path d="M911.0016 474.9824l-90.6752-90.6752V256.1536c0-28.5696-23.1424-51.712-51.712-51.712h-128.2048l-90.6752-90.6752c-20.1728-20.1728-52.9408-20.1728-73.1136 0L386.048 204.4416H257.8432c-28.5696 0-51.712 23.1424-51.712 51.712v128.2048l-90.6752 90.624c-20.1728 20.1728-20.1728 52.9408 0 73.1136l90.6752 90.6752v128.2048c0 28.5696 23.1424 51.712 51.712 51.712H386.048l90.624 90.624c20.1728 20.1728 52.9408 20.1728 73.1136 0l90.6752-90.6752h128.2048c28.5696 0 51.712-23.1424 51.712-51.712v-128.2048l90.6752-90.6752c20.1728-20.1216 20.1728-52.8384-0.0512-73.0624z" fill="#FC6565" /><path d="M816.7936 429.6704l-76.8512-76.8a3.64544 3.64544 0 0 1-1.0752-2.56V238.0288c0-10.8544-3.7888-20.7872-10.0352-28.6208a3.56864 3.56864 0 0 0-2.8672-1.3312h-63.8976c-0.9728 0-1.8944-0.3584-2.56-1.0752l-13.824-13.824a3.64544 3.64544 0 0 0-2.56-1.0752l-30.5664-12.3392c-0.9728 0-22.6816-9.8816-23.3472-10.5472l-65.5872-61.7984c-4.0448-0.1024-28.928 6.6048-32.9728 6.5024l-0.0512 0.0512-93.0304 93.0304c-0.6656 0.6656-1.5872 1.0752-2.56 1.0752H267.0592c-31.6416 0-57.2928 25.6512-57.2928 57.2928v127.9488c0 0.9728-0.3584 1.8944-1.0752 2.56L115.6608 488.9088l-0.0512 0.0512c0.1024 4.0448 0.1536 6.5536 0.2048 10.5984l9.0112 66.9184c0.6656 0.6656 37.6832 24.6784 37.6832 25.6512l31.2832 49.3568c0 0.9728 0.3584 1.8944 1.0752 2.56l13.824 13.824c0.6656 0.6656 1.0752 1.5872 1.0752 2.56v63.8976c0 1.0752 0.4608 2.1504 1.3312 2.8672a45.45536 45.45536 0 0 0 28.6208 10.0352h112.2816c0.9728 0 1.8944 0.3584 2.56 1.0752l76.8512 76.8512c19.3536 19.3536 50.688 19.3536 69.9904 0l76.8512-76.8512c0.6656-0.6656 1.5872-1.0752 2.56-1.0752h108.6464c27.3408 0 49.5104-22.1696 49.5104-49.5104V579.072c0-0.9728 0.3584-1.8944 1.0752-2.56l76.8512-76.8512c19.2512-19.3024 19.2512-50.688-0.1024-69.9904z" fill="#FF9797" /><path d="M574.5152 134.912l-24.7296-21.1456c-20.1728-20.1728-52.9408-20.1728-73.1136 0L386.048 204.4416H257.8432c-28.5696 0-51.712 23.1424-51.712 51.712v128.2048l-90.6752 90.624c-20.1728 20.1728-20.1728 52.9408 0 73.1136l83.3024 83.3024 24.832-8.3968-26.8288-73.5232a33.7664 33.7664 0 0 1 9.1648-36.7104l62.1568-55.9104a33.97632 33.97632 0 0 0 11.2128-25.4464l-1.024-102.8608c-0.2048-19.3536 15.9232-34.9696 35.2768-34.0992l88.576 3.84c9.728 0.4096 19.1488-3.3792 25.856-10.3936l146.5344-152.9856z" fill="#FFB8B8" /><path d="M513.2288 950.0672c-20.6336 0-40.0384-8.0384-54.6816-22.6304L375.4496 844.288H257.8432c-42.6496 0-77.312-34.6624-77.312-77.312v-117.6064l-83.1488-83.1488c-30.1568-30.1568-30.1568-79.2064 0-109.312L180.5312 373.76V256.1536c0-42.6496 34.6624-77.312 77.312-77.312h117.6064l83.1488-83.1488c14.592-14.592 33.9968-22.6304 54.6816-22.6304s40.0384 8.0384 54.6816 22.6304l83.1488 83.1488h117.6064c42.6496 0 77.312 34.6624 77.312 77.312V373.76l83.1488 83.1488c14.592 14.592 22.6304 33.9968 22.6304 54.6816s-8.0384 40.0896-22.6304 54.6816l-83.1488 83.1488v117.6064c0 42.6496-34.6624 77.312-77.312 77.312h-117.6064l-83.1488 83.1488a77.1584 77.1584 0 0 1-54.7328 22.5792zM257.8432 230.0416c-14.3872 0-26.112 11.7248-26.112 26.112v128.2048c0 6.8096-2.7136 13.312-7.4752 18.1248l-90.6752 90.624a26.112 26.112 0 0 0 0 36.9152l90.6752 90.6752c4.8128 4.8128 7.4752 11.3152 7.4752 18.1248v128.2048c0 14.3872 11.7248 26.112 26.112 26.112H386.048c6.8096 0 13.312 2.7136 18.1248 7.4752l90.6752 90.6752a25.9072 25.9072 0 0 0 18.432 7.6288 26.112 26.112 0 0 0 18.4832-7.6288l90.624-90.6752c4.8128-4.8128 11.3152-7.4752 18.1248-7.4752h128.2048c14.3872 0 26.112-11.7248 26.112-26.112v-128.2048c0-6.8096 2.7136-13.312 7.4752-18.1248l90.6752-90.6752c4.9152-4.9152 7.6288-11.4688 7.6288-18.4832s-2.7136-13.5168-7.6288-18.4832l-90.7264-90.624a25.56928 25.56928 0 0 1-7.4752-18.1248V256.1536c0-14.3872-11.7248-26.112-26.112-26.112h-128.2048c-6.8096 0-13.312-2.7136-18.1248-7.4752l-90.6752-90.6752a25.93792 25.93792 0 0 0-18.4832-7.6288c-6.9632 0-13.5168 2.7136-18.432 7.6288l-90.624 90.624c-4.8128 4.8128-11.3152 7.4752-18.1248 7.4752H257.8432z" fill="#434A54" /><path d="M433.7664 373.1456m-61.7984 0a61.7984 61.7984 0 1 0 123.5968 0 61.7984 61.7984 0 1 0-123.5968 0Z" fill="#FFC50B" /><path d="M422.5536 355.4816m-18.8416 0a18.8416 18.8416 0 1 0 37.6832 0 18.8416 18.8416 0 1 0-37.6832 0Z" fill="#FFE8C0" /><path d="M577.9968 652.9536m-61.7984 0a61.7984 61.7984 0 1 0 123.5968 0 61.7984 61.7984 0 1 0-123.5968 0Z" fill="#FFC50B" /><path d="M566.8352 635.2896m-18.8416 0a18.8416 18.8416 0 1 0 37.6832 0 18.8416 18.8416 0 1 0-37.6832 0Z" fill="#FFE8C0" /><path d="M433.7664 460.544c-48.2304 0-87.3984-39.2192-87.3984-87.4496 0-48.2304 39.2192-87.3984 87.3984-87.3984s87.3984 39.2192 87.3984 87.3984c0 48.2304-39.2192 87.4496-87.3984 87.4496z m0-123.648c-19.968 0-36.1984 16.2304-36.1984 36.1984 0 19.968 16.2304 36.2496 36.1984 36.2496s36.1984-16.2304 36.1984-36.2496c0-19.9168-16.2304-36.1984-36.1984-36.1984zM578.6112 740.096c-48.2304 0-87.3984-39.2192-87.3984-87.3984 0-48.2304 39.2192-87.4496 87.3984-87.4496s87.3984 39.2192 87.3984 87.4496c0 48.1792-39.2192 87.3984-87.3984 87.3984z m0-123.648a36.22912 36.22912 0 0 0 0 72.448 36.22912 36.22912 0 0 0 0-72.448zM389.0176 651.7248c-6.6048 0-13.1584-2.5088-18.176-7.5776a25.56928 25.56928 0 0 1 0.1536-36.1984l231.9872-230.1952a25.56928 25.56928 0 0 1 36.1984 0.1536 25.56928 25.56928 0 0 1-0.1536 36.1984L407.04 644.3008c-4.9664 4.9664-11.4688 7.424-18.0224 7.424z" fill="#434A54" /></svg>