<?xml version="1.0" standalone="no"?><!DOCTYPE svg PUBLIC "-//W3C//DTD SVG 1.1//EN" "http://www.w3.org/Graphics/SVG/1.1/DTD/svg11.dtd"><svg class="icon" width="48px" height="48.00px" viewBox="0 0 1024 1024" version="1.1" xmlns="http://www.w3.org/2000/svg"><path d="M651.43 142.92c-0.24-24.96 15.23-44.46 34.54-44.65l-225.28 2.11h-1.62v0.04c-18.88 1.26-33.22 20.79-33 44.59 0.22 23.82 14.68 43.14 33.77 43.97l0.01 0.06 1.52-0.01 225.46-2.1c-19.3 0.18-35.17-19.05-35.4-44.01zM686.87 97.39l-0.91 0.01c0.31 0 0.61 0.01 0.91 0.02v-0.03zM687.72 187.79v-0.03c-0.3 0.01-0.6 0.04-0.91 0.04l0.91-0.01z" fill="#E12D38" /><path d="MNaN NaNaNaN NaN NaN 1 0 NaN NaN NaN NaN NaN 1 0 NaN NaNZ" fill="#E12D38" /><path d="M697 259.63c-0.24-24.96 15.23-44.46 34.54-44.65l-225.28 2.11h-1.62v0.04c-18.88 1.26-33.22 20.79-33 44.59 0.22 23.82 14.68 43.14 33.77 43.97l0.01 0.06 1.52-0.01 225.46-2.1c-19.3 0.18-35.17-19.04-35.4-44.01zM732.44 214.11l-0.91 0.01c0.31 0 0.61 0.01 0.91 0.02v-0.03zM733.29 304.5v-0.03c-0.3 0.01-0.6 0.04-0.91 0.04l0.91-0.01z" fill="#E12D38" /><path d="MNaN NaNaNaN NaN NaN 1 0 NaN NaN NaN NaN NaN 1 0 NaN NaNZ" fill="#E12D38" /><path d="M742.57 376.35c-0.24-24.96 15.23-44.46 34.54-44.65l-225.28 2.11h-1.62v0.04c-18.88 1.26-33.22 20.79-33 44.59 0.22 23.82 14.68 43.14 33.77 43.97l0.01 0.06 1.52-0.01 225.46-2.1c-19.3 0.18-35.16-19.05-35.4-44.01zM778.02 330.82l-0.91 0.01c0.31 0 0.61 0.01 0.91 0.02v-0.03zM778.87 421.22v-0.03c-0.3 0.01-0.6 0.04-0.91 0.04l0.91-0.01z" fill="#E12D38" /><path d="MNaN NaNaNaN NaN NaN 1 0 NaN NaN NaN NaN NaN 1 0 NaN NaNZ" fill="#E12D38" /><path d="M788.15 493.06c-0.24-24.96 15.23-44.46 34.54-44.65l-225.28 2.11h-1.62v0.04c-18.88 1.26-33.22 20.79-33 44.59 0.22 23.82 14.68 43.14 33.77 43.97l0.01 0.06 1.52-0.01 225.46-2.1c-19.3 0.18-35.17-19.05-35.4-44.01zM823.59 447.54l-0.91 0.01c0.31 0 0.61 0.01 0.91 0.02v-0.03zM824.44 537.93v-0.03c-0.3 0.01-0.6 0.04-0.91 0.04l0.91-0.01z" fill="#E12D38" /><path d="MNaN NaNaNaN NaN NaN 1 0 NaN NaN NaN NaN NaN 1 0 NaN NaNZ" fill="#E12D38" /><path d="M833.72 609.78c-0.24-24.96 15.23-44.46 34.54-44.65l-225.28 2.11h-1.62v0.04c-18.88 1.26-33.22 20.79-33 44.59 0.22 23.82 14.68 43.14 33.77 43.97l0.01 0.06 1.52-0.01 225.46-2.1c-19.3 0.18-35.17-19.05-35.4-44.01zM869.16 564.25l-0.91 0.01c0.31 0 0.61 0.01 0.91 0.02v-0.03zM870.01 654.64v-0.03c-0.3 0.01-0.6 0.04-0.91 0.04l0.91-0.01z" fill="#E12D38" /><path d="MNaN NaNaNaN NaN NaN 1 0 NaN NaN NaN NaN NaN 1 0 NaN NaNZ" fill="#E12D38" /><path d="M192.39 332.66c-16.66-18.65-41.27-22.75-55.7-9.97L305 173.55l0.22-0.21 0.98-0.88 0.03 0.04c14.84-11.7 38.63-6.82 54.53 10.96 15.9 17.79 18.22 41.78 4.64 55.16l0.03 0.04-1.13 1.01-168.46 149.27c14.42-12.77 13.21-37.63-3.45-56.28zM135.42 322.65l0.68-0.6c-0.23 0.2-0.44 0.42-0.66 0.62l-0.02-0.02zM195.76 390.18l-0.02-0.02c0.23-0.19 0.47-0.38 0.7-0.58l-0.68 0.6z" fill="#E12D38" /><path d="M148.151836 372.220486a33.72 24.36 47.962 1 0 36.184387-32.624049 33.72 24.36 47.962 1 0-36.184387 32.624049Z" fill="#E12D38" /><path d="M237.35 449.61c-16.66-18.65-41.27-22.75-55.7-9.97l168.3-149.14 0.22-0.21 0.98-0.88 0.03 0.04c14.84-11.7 38.63-6.82 54.53 10.96 15.9 17.79 18.22 41.78 4.64 55.16l0.03 0.04-1.13 1.01L240.8 505.89c14.43-12.77 13.21-37.63-3.45-56.28zM180.39 439.6l0.68-0.6c-0.23 0.2-0.44 0.42-0.66 0.62l-0.02-0.02zM240.72 507.13l-0.02-0.02c0.23-0.19 0.47-0.38 0.7-0.58l-0.68 0.6z" fill="#E12D38" /><path d="M193.112146 489.167293a33.72 24.36 47.962 1 0 36.184387-32.624049 33.72 24.36 47.962 1 0-36.184387 32.624049Z" fill="#E12D38" /><path d="M282.31 566.56c-16.66-18.65-41.27-22.75-55.7-9.97l168.31-149.14 0.22-0.21 0.98-0.88 0.03 0.04c14.84-11.7 38.63-6.82 54.53 10.96 15.9 17.79 18.22 41.78 4.64 55.16l0.03 0.04-1.13 1.01-168.46 149.27c14.43-12.77 13.22-37.63-3.45-56.28zM225.35 556.54l0.68-0.6c-0.23 0.2-0.44 0.42-0.66 0.62l-0.02-0.02zM285.69 624.08l-0.02-0.02c0.23-0.19 0.47-0.38 0.7-0.58l-0.68 0.6z" fill="#E12D38" /><path d="M238.072044 606.115026a33.72 24.36 47.962 1 0 36.184387-32.624048 33.72 24.36 47.962 1 0-36.184387 32.624048Z" fill="#E12D38" /><path d="M327.27 683.51c-16.66-18.65-41.27-22.75-55.7-9.97L439.88 524.4l0.22-0.21 0.98-0.88 0.03 0.04c14.84-11.7 38.63-6.82 54.53 10.96 15.9 17.79 18.22 41.78 4.64 55.16l0.03 0.04-1.13 1.01-168.45 149.27c14.42-12.77 13.21-37.63-3.46-56.28zM270.31 673.49l0.68-0.6c-0.23 0.2-0.44 0.42-0.66 0.62l-0.02-0.02zM330.65 741.03l-0.02-0.02c0.23-0.19 0.47-0.38 0.7-0.58l-0.68 0.6z" fill="#E12D38" /><path d="M283.032611 723.062503a33.72 24.36 47.962 1 0 36.184387-32.624049 33.72 24.36 47.962 1 0-36.184387 32.624049Z" fill="#E12D38" /><path d="M372.23 800.46c-16.66-18.65-41.27-22.75-55.7-9.97l168.31-149.14 0.22-0.21 0.98-0.88 0.03 0.04c14.84-11.7 38.63-6.82 54.53 10.96 15.9 17.79 18.22 41.78 4.64 55.16l0.03 0.04-1.13 1.01-168.45 149.27c14.42-12.78 13.21-37.63-3.46-56.28zM315.27 790.44l0.68-0.6c-0.23 0.2-0.44 0.42-0.66 0.62l-0.02-0.02zM375.61 857.98l-0.02-0.02c0.23-0.19 0.47-0.38 0.7-0.58l-0.68 0.6z" fill="#E12D38" /><path d="M327.993178 840.00998a33.72 24.36 47.962 1 0 36.184387-32.624049 33.72 24.36 47.962 1 0-36.184387 32.624049Z" fill="#E12D38" /><path d="M702.15 961.42c-3.78 0-7.36-2.27-8.83-6L344.08 74.5c-1.93-4.88 0.45-10.4 5.33-12.33 4.88-1.93 10.4 0.45 12.33 5.33l349.24 880.92c1.93 4.88-0.45 10.4-5.33 12.33-1.15 0.45-2.33 0.67-3.5 0.67z" fill="#E12D38" /><path d="M832.16 719.87l20.8-10.94-3.97 23.17 16.84 16.41-23.27 3.38-10.4 21.08-10.41-21.08-23.26-3.38 16.83-16.41-3.97-23.17z" fill="#FED338" /><path d="M711.01 693.58m-13.28 0a13.28 13.28 0 1 0 26.56 0 13.28 13.28 0 1 0-26.56 0Z" fill="#FED338" /><path d="M573.87 738.12m-7.22 0a7.22 7.22 0 1 0 14.44 0 7.22 7.22 0 1 0-14.44 0Z" fill="#FED338" /><path d="M562.27 869.4m-16.16 0a16.16 16.16 0 1 0 32.32 0 16.16 16.16 0 1 0-32.32 0Z" fill="#FED338" /><path d="M513.77 759.95l15.24 9.58-16.29 7.67c-3.5 1.65-6.45 4.26-8.5 7.53l-9.58 15.24-7.67-16.29c-1.65-3.5-4.26-6.45-7.53-8.5l-15.24-9.58 16.29-7.67c3.5-1.65 6.45-4.26 8.5-7.53l9.58-15.24 7.67 16.29a20.23 20.23 0 0 0 7.53 8.5zM732.14 820.24l6.97 4.38-7.45 3.5c-1.6 0.75-2.95 1.95-3.89 3.44l-4.38 6.97-3.5-7.45a9.251 9.251 0 0 0-3.44-3.89l-6.97-4.38 7.45-3.5c1.6-0.75 2.95-1.95 3.89-3.44l4.38-6.97 3.5 7.45c0.74 1.6 1.94 2.95 3.44 3.89z" fill="#FED338" /></svg>