<?xml version="1.0" standalone="no"?><!DOCTYPE svg PUBLIC "-//W3C//DTD SVG 1.1//EN" "http://www.w3.org/Graphics/SVG/1.1/DTD/svg11.dtd"><svg class="icon" width="48px" height="48.00px" viewBox="0 0 1024 1024" version="1.1" xmlns="http://www.w3.org/2000/svg"><path d="M524.804056 524.824533m-422.377509 0a422.377508 422.377508 0 1 0 844.755017 0 422.377508 422.377508 0 1 0-844.755017 0Z" fill="#FFFFFF" /><path d="M512.004737 1023.997952a511.972737 511.972737 0 1 1 362.041522-149.956815A508.619316 508.619316 0 0 1 512.004737 1023.997952z m-41.597784-512.971084c1.740707 20.760495 2.559864 51.376464 2.559863 91.003154v109.203785c0 41.341799-0.870354 73.698476-2.559863 96.199677h51.990831v-51.990831h189.788294v41.597785h51.990831c-1.740707-20.914086-2.559864-49.789349-2.559863-85.806631v-109.203785c0-39.575493 0.870354-70.191462 2.559863-91.003154z m-239.193663 228.800616a244.748567 244.748567 0 0 1 18.20063 57.212954c51.734845-3.455816 83.246767-10.034666 93.588617-19.506162a67.22202 67.22202 0 0 0 18.200631-45.488777v-181.98071c10.239455-5.119727 21.144474-9.906672 32.510268-14.309638s22.270814-8.26836 32.510269-11.672978a232.051643 232.051643 0 0 1 0-49.40537l-36.401261 15.58957a204.50751 204.50751 0 0 1-28.619276 10.393047v-101.396201c20.760495 0 44.362438 0.895952 70.191462 2.559864v-46.794308c-24.165113 1.715109-47.792655 2.559864-70.191462 2.559863v-77.999046c0-27.492936 0.870354-51.197274 2.559863-70.191462h-54.601892c1.740707 22.270814 2.559864 45.898356 2.559864 70.191462v77.999046h-18.200631c-24.241909 0-46.973499-0.870354-67.606-2.559863v46.794308c22.629195-1.740707 45.360785-2.559864 67.606-2.559864h18.200631v122.207893c-17.45827 5.119727-33.278228 10.495441-46.794309 15.58957a621.483706 621.483706 0 0 1-62.383878 18.20063 222.91293 222.91293 0 0 1 25.982617 54.601893c22.577998-13.90006 38.397955-23.038773 46.794308-27.313746a294.384324 294.384324 0 0 1 36.401262-14.309638v145.605047a26.980963 26.980963 0 0 1-10.393047 24.702684 61.436728 61.436728 0 0 1-26.750576 3.609408c-11.135407 0-25.752229-0.767959-43.517682-2.303877z m239.193663-519.959512c1.740707 17.304679 2.559864 48.791002 2.559863 93.588616v119.596832a55.037069 55.037069 0 0 0 11.698577 29.899208 48.842199 48.842199 0 0 0 42.903316 16.8951h200.18134a94.27978 94.27978 0 0 0 44.183247-11.698577 191.503402 191.503402 0 0 0 36.401262-68.885932 131.244211 131.244211 0 0 1-51.990832-31.204738 215.898903 215.898903 0 0 1-16.8951 53.296362c-6.066877 11.212203-22.245215 16.920699-48.099839 16.920699h-127.404415a50.198927 50.198927 0 0 1-37.041228-10.239455 19.582957 19.582957 0 0 1-4.530959-15.743162v-57.187354c22.73159-4.88934 48.63741-10.572237 76.795911-16.920699 26.033814-5.862088 50.096532-11.544985 71.496993-16.895101 20.478909-5.119727 38.397955-9.471496 53.32196-13.029706s26.468991-6.066877 35.095732-7.679591a135.493585 135.493585 0 0 1-36.401262-49.405369 535.651477 535.651477 0 0 1-74.108054 32.48467 885.328856 885.328856 0 0 1-126.098885 29.899208c0-37.962778 0.895952-69.449102 2.559864-93.588616z m241.804723 494.053692h-189.788293v-62.409477h189.788293v62.383878z m0-101.4218h-189.788293v-59.772817h189.788293v59.747219z" fill="#FF0000" /></svg>