<?xml version="1.0" standalone="no"?><!DOCTYPE svg PUBLIC "-//W3C//DTD SVG 1.1//EN" "http://www.w3.org/Graphics/SVG/1.1/DTD/svg11.dtd"><svg class="icon" width="48px" height="47.72px" viewBox="0 0 1030 1024" version="1.1" xmlns="http://www.w3.org/2000/svg"><path d="M796.409709 790.652531q71.964733 116.103102 233.165734 139.131817l0 57.571786q-251.3968-44.138369-331.997301-196.703603l98.831566 0zM10.554827 929.784348q165.99865-27.826363 237.963383-139.131817l98.831566 0q-80.600501 151.605704-336.794949 196.703603l0-57.571786zM580.515511 906.755633q4.797649 121.860281-129.536519 117.062632l-98.831566 0 0-63.328965 67.167084 0q67.167084 3.838119 67.167084-57.571786l0-166.95818-147.767585 0q-68.126614 2.878589-120.420986 3.838119t-90.675563 0.95953l0-67.167084q196.703603-67.167084 354.066485-143.929466-67.167084 4.797649-147.28782 7.196473t-175.114183 2.398824l0-68.126614q152.565234-57.571786 264.830217-152.565234l-306.089997 0 0 98.831566-89.236269 0 0-161.201001 444.262284 0 0-103.629215-412.597801 0 0-62.369435 412.597801 0 0-90.195798 94.033918 0 0 90.195798 417.39545 0 0 62.369435-417.39545 0 0 103.629215 449.059933 0 0 161.201001-94.033918 0 0-98.831566-368.459432 0q-128.576989 94.033918-255.234919 152.565234 83.47909 0 159.281942-0.95953t145.848525-2.878589q16.312006-13.433417 53.733667-31.664482 34.543072-22.069185 53.733667-31.664482l134.334168 0q-284.020812 181.351127-529.660433 269.627865 146.808055 0 269.627865-4.317884t224.529966-13.913182q-4.797649-4.797649-8.635768-18.231066-16.312006-26.866834-30.704953-48.936018t-27.826363-40.30025l80.600501 0q75.802852 93.074388 120.900751 219.732317l-89.236269 0-18.231066-53.733667q-51.814608 4.797649-115.623337 9.115533t-140.571111 9.115533l0 174.634418z" fill="#b8f1cc" /></svg>