<?xml version="1.0" standalone="no"?><!DOCTYPE svg PUBLIC "-//W3C//DTD SVG 1.1//EN" "http://www.w3.org/Graphics/SVG/1.1/DTD/svg11.dtd"><svg class="icon" width="48px" height="48.00px" viewBox="0 0 1024 1024" version="1.1" xmlns="http://www.w3.org/2000/svg"><path d="M928 448a32 32 0 0 0-32 32H830a318.4 318.4 0 0 0-70-170l46.5-46.5a32 32 0 0 0 45.2-45.3l-45.2-45.2a32 32 0 0 0-45.3 45.2l-46.5 46.6a317.8 317.8 0 0 0-170-70.8v-66a32 32 0 1 0 0-64H480a32 32 0 0 0 0 64v65.6a318.4 318.4 0 0 0-170 70.7l-46.5-46.5a32 32 0 0 0-45.3-45.2l-45.2 45.2a32 32 0 1 0 45.2 45.3L264.3 310a318.4 318.4 0 0 0-70.7 170H128a32 32 0 0 0-64 0v64a32 32 0 0 0 64 0h65.6a317.8 317.8 0 0 0 70.8 170l-46.6 46.5a32 32 0 0 0-45.2 45.3l45.2 45.2a31.9 31.9 0 0 0 22.7 9.4 31.6 31.6 0 0 0 22.6-9.4 31.9 31.9 0 0 0 0-45.2L310 760a318.4 318.4 0 0 0 170 70v66a32 32 0 0 0 0 64h64a32 32 0 0 0 0-64V830a317.8 317.8 0 0 0 170-70.8l46.5 46.6a32 32 0 1 0 45.3 45.2l45.2-45.2a32 32 0 0 0-45.2-45.3L760 714.4a317.8 317.8 0 0 0 70-170.4h66a32 32 0 0 0 64 0V480a32 32 0 0 0-32-32z" fill="#3F86FF" /><path d="M437 539a88 88 0 1 1 88-88 88.1 88.1 0 0 1-88 88z m0-128a40 40 0 1 0 40 40 40 40 0 0 0-40-40z" fill="#FFFFFF" /><path d="M565 640m-55 0a55 55 0 1 0 110 0 55 55 0 1 0-110 0Z" fill="#FFFFFF" /><path d="M686 486m-35 0a35 35 0 1 0 70 0 35 35 0 1 0-70 0Z" fill="#FFFFFF" /><path d="M605 303m-23 0a23 23 0 1 0 46 0 23 23 0 1 0-46 0Z" fill="#FFFFFF" /><path d="M368 649m-20 0a20 20 0 1 0 40 0 20 20 0 1 0-40 0Z" fill="#FFFFFF" /></svg>