<?xml version="1.0" standalone="no"?><!DOCTYPE svg PUBLIC "-//W3C//DTD SVG 1.1//EN" "http://www.w3.org/Graphics/SVG/1.1/DTD/svg11.dtd"><svg class="icon" width="48px" height="47.54px" viewBox="0 0 1034 1024" version="1.1" xmlns="http://www.w3.org/2000/svg"><path d="M759.556491 181.086316l-265.880702-71.141053c-138.689123-37.367018-281.689825 45.271579-318.338245 183.960702l-68.985263 258.694737C68.985263 690.571228 150.905263 833.57193 289.594386 870.220351l265.880702 71.141053c138.689123 37.367018 280.971228-45.271579 318.338245-183.960702l68.985263-258.694737c38.085614-137.970526-44.552982-280.971228-183.242105-317.619649z" fill="#FF918D" /><path d="M661.827368 153.779649h-258.694736c-135.09614 0-244.322807 109.226667-244.322807 244.322807v251.508772c0 135.09614 109.226667 244.322807 244.322807 244.322807h258.694736c135.09614 0 244.322807-109.226667 244.322807-244.322807v-251.508772c0-135.09614-109.226667-244.322807-244.322807-244.322807z" fill="#FF544E" /><path d="M594.279298 568.409825c121.442807-14.37193 163.121404-97.010526 139.40772-117.849825-9.341754-7.904561-22.995088-7.185965-30.89965 2.155789-99.166316 114.975439-382.293333 29.462456-306.122105-48.864561 77.608421-79.764211 248.634386-22.276491 211.267369 2.874386-26.58807 17.246316-80.482807 22.995088-113.538246 4.311579-30.181053-17.246316-57.487719 27.306667-25.869474 46.708772 80.482807 48.864561 211.985965 2.155789 208.392983-63.236491-7.904561-114.975439-331.272982-126.472982-353.549474 24.43228-7.185965 44.552982 19.402105 81.92 62.517895 107.789474-25.869474 43.115789 8.623158 91.980351 62.517895 121.442807-13.653333 56.769123 102.759298 125.754386 115.694035 82.638597 8.623158-28.74386-37.367018-17.964912-57.48772-60.362106 38.085614 9.341754 79.045614 8.623158 112.101053-7.904561 50.301754-25.869474 32.336842-56.050526 12.934737-51.738947-114.975439 23.713684-211.267368-40.96-188.990877-59.643509 45.990175 17.246316 102.040702 22.995088 151.623859 17.246316z" fill="#FFFFFF" /></svg>