<?xml version="1.0" standalone="no"?><!DOCTYPE svg PUBLIC "-//W3C//DTD SVG 1.1//EN" "http://www.w3.org/Graphics/SVG/1.1/DTD/svg11.dtd"><svg class="icon" width="48px" height="48.00px" viewBox="0 0 1024 1024" version="1.1" xmlns="http://www.w3.org/2000/svg"><path d="M513.9 1015.4c-12.1 0-23.9-3.4-34-10l-3.4-2.2-3.7 1.6c-8.1 3.6-16.7 5.4-25.5 5.4-3.2 0-6.4-0.2-9.6-0.7-12.5-1.9-24-7.5-33.3-16l-3.1-2.9-4.1 1.2c-5.7 1.7-11.7 2.6-17.7 2.6-6.5 0-13-1-19.2-3-12-3.8-22.5-11.1-30.2-21l-2.6-3.4-4.2 0.5c-2.6 0.3-5.3 0.5-8 0.5-9.9 0-19.4-2.3-28.3-6.8-4.3-2.2-8.4-4.8-12-7.9-6.1-5.1-11.1-11.2-14.9-18.2l-2.1-3.8-4.3-0.1c-1.1 0-2.3-0.1-3.4-0.2-11.6-0.9-22.7-5-32.1-11.8-10.2-7.4-17.8-17.5-22.1-29.3l-1.5-4-4.1-0.8c-12.3-2.4-23.5-8.4-32.4-17.3-8.6-8.6-14.4-19.3-17-31.1l-0.9-4-3.8-1.5c-11.1-4.3-20.8-11.6-27.9-21.1l-0.4-0.5v-0.1l-0.2-0.3c-7.3-10.1-11.4-22-11.8-34.4l-0.2-4.3-3.7-2c-11-6-19.9-15.1-25.7-26.4-5.8-11.2-8-23.7-6.5-36.2l0.5-4.2-3.4-2.6c-9.9-7.7-17.3-18.1-21.2-30.1-4-12.2-4.2-25.2-0.6-37.5l1.2-4.2-3-3.1c-8.9-9.3-14.6-20.9-16.6-33.6-2-12.4-0.2-25 5.1-36.4l1.8-3.8-2.4-3.5c-7-10.4-10.7-22.5-10.7-35.1 0-12.1 3.4-23.9 10-34l2.2-3.4-1.7-3.7c-4.9-11-6.5-23.2-4.7-35.1 1.9-12.5 7.5-24 16-33.3l2.9-3.1-1.2-4.1c-3.6-12-3.4-24.8 0.5-36.9 3.9-12 11.1-22.5 21-30.2l3.3-2.6-0.5-4.2c-1.6-12.5 0.6-25 6.3-36.2 5.8-11.5 14.8-20.8 26.1-26.9l3.8-2.1 0.1-4.4c0.3-12.8 4.4-25.1 12-35.5 7.4-10.2 17.5-17.8 29.3-22.1l4-1.5 0.8-4.2c2.4-12.3 8.4-23.5 17.3-32.4 8.6-8.6 19.3-14.5 31.1-17l4-0.9 1.5-3.8c4-10.5 10.8-19.7 19.6-26.7h0.3l1.5-1.3 0.2-0.1 0.4-0.4c9.9-7.2 21.6-11.2 33.8-11.8l4.9-0.2 2-3.7c4.1-7.6 9.7-14.1 16.5-19.5 3.1-2.4 6.4-4.5 9.9-6.3 9-4.6 18.7-7 28.7-7 2.5 0 5 0.2 7.5 0.4l4.2 0.5 2.6-3.4c7.7-9.9 18.1-17.3 30.1-21.2 6.4-2.1 13-3.2 19.6-3.2 6 0 12 0.9 17.8 2.6l4.2 1.2 3.1-3c9.3-8.9 20.9-14.6 33.6-16.6 3.3-0.5 6.7-0.8 10-0.8 9.2 0 18.1 2 26.4 5.8l3.8 1.8 3.5-2.4c10.4-7 22.6-10.7 35.1-10.7 12.1 0 23.9 3.5 34 10l3.4 2.2 3.7-1.7c8.1-3.6 16.7-5.4 25.5-5.4 3.2 0 6.4 0.2 9.6 0.7 12.5 1.9 24 7.5 33.2 16l3.1 2.9 4.1-1.2c5.7-1.7 11.7-2.6 17.7-2.6 6.5 0 13 1 19.2 3 12 3.8 22.5 11.1 30.2 21l2.6 3.3 4.2-0.5c2.6-0.3 5.3-0.5 8-0.5 9.9 0 19.4 2.3 28.3 6.8 4.4 2.2 8.4 4.9 12.1 8 6 5.1 11 11.2 14.8 18.1l2.1 3.8 4.3 0.1c1.1 0 2.3 0.1 3.4 0.2 11.6 0.9 22.7 5 32.1 11.8 10.2 7.4 17.8 17.5 22.1 29.3l1.5 4 4.2 0.8c12.3 2.4 23.5 8.4 32.4 17.3 8.6 8.6 14.4 19.3 17 31.1l0.9 4 3.8 1.4c10.5 4 19.7 10.8 26.7 19.7 0.5 0.6 1 1.2 1.4 1.8l0.4 0.5c7.3 10.1 11.3 22 11.8 34.3l0.2 4.3 3.8 2c11 6 19.9 15.1 25.8 26.4 5.8 11.2 8 23.7 6.5 36.2l-0.5 4.2 3.4 2.6c9.9 7.7 17.3 18.1 21.2 30.1 4 12.2 4.2 25.2 0.6 37.5l-1.2 4.2 3 3.1c8.9 9.3 14.6 20.9 16.6 33.6 2 12.5 0.2 25-5.1 36.4l-1.8 3.8 2.4 3.5c7 10.4 10.7 22.5 10.7 35.1 0 12.1-3.4 23.8-10 34l-2.2 3.4 1.6 3.7c4.9 11 6.5 23.1 4.7 35.2-1.9 12.5-7.5 24-16.1 33.3l-2.9 3.1 1.2 4.1c3.6 12 3.4 24.8-0.5 36.9-3.8 12-11.1 22.5-21 30.3L969 698l0.5 4.2c1.6 12.4-0.6 24.9-6.3 36.2-5.8 11.5-14.8 20.8-26.1 26.9l-3.8 2.1-0.1 4.3c-0.3 12.5-4.3 24.6-11.6 34.9l-0.2 0.3-0.4 0.5-0.2 0.3c-7.4 10-17.4 17.5-29 21.8l-4 1.5-0.8 4.1c-2.4 12.3-8.4 23.5-17.3 32.4-8.6 8.6-19.3 14.4-31.1 17l-4 0.9-1.5 3.8c-4 10.5-10.8 19.7-19.6 26.7h-0.3l-1.4 1.3-0.2 0.1-0.5 0.5c-9.9 7.1-21.6 11.2-33.8 11.8l-4.9 0.2-2 3.7c-0.3 0.6-0.6 1.1-0.9 1.7-4.1 6.9-9.3 12.9-15.7 17.9-3 2.3-6.3 4.4-9.8 6.2-9 4.6-18.7 7-28.7 7-2.5 0-5-0.2-7.5-0.4l-4.2-0.5-2.6 3.4c-7.7 9.9-18.1 17.3-30.1 21.2-6.4 2.1-13 3.2-19.6 3.2-6 0-12-0.9-17.8-2.6l-4.2-1.2-3.2 3c-9.3 8.9-20.9 14.6-33.6 16.6-3.3 0.5-6.6 0.8-10 0.8-9.2 0-18.1-2-26.4-5.8l-3.8-1.8-3.5 2.4c-10.1 7.1-22.3 10.8-34.9 10.8z" fill="#D3A579" /><path d="M513.9 16c10.7 0 21 3 30 8.8l6.8 4.4 7.4-3.3c7.1-3.2 14.7-4.8 22.4-4.8 2.8 0 5.7 0.2 8.5 0.7 11 1.7 21.2 6.6 29.3 14.1l6.3 5.8 8.2-2.4c5-1.5 10.3-2.3 15.5-2.3 5.7 0 11.4 0.9 16.9 2.7 10.6 3.4 19.8 9.8 26.6 18.5l5.3 6.7 8.4-1.1c2.3-0.3 4.7-0.4 7-0.5 8.7 0 17.1 2 24.9 6 3.8 1.9 7.4 4.3 10.7 7 5.3 4.5 9.7 9.8 13 16l4.1 7.6 8.7 0.2c1 0 2 0.1 3 0.1 10.2 0.8 19.9 4.4 28.3 10.4 9 6.5 15.7 15.4 19.5 25.8l2.9 7.9 8.3 1.6c10.8 2.1 20.7 7.4 28.5 15.2 7.5 7.5 12.7 17 15 27.4l1.7 7.9 7.6 2.9c9.2 3.5 17.4 9.5 23.5 17.3 0.4 0.5 0.8 1.1 1.1 1.5l0.7 0.9c6.2 8.8 9.7 19.1 10.1 29.8l0.3 8.5 7.5 4.1c9.7 5.3 17.6 13.3 22.7 23.3 5.1 9.9 7.1 20.9 5.8 31.9l-1 8.4 6.7 5.2c8.8 6.8 15.2 16 18.7 26.5 3.5 10.8 3.7 22.2 0.5 33l-2.5 8.3 6 6.3c7.8 8.2 12.9 18.4 14.7 29.6 1.7 11 0.2 22-4.5 32l-3.6 7.7 4.7 7c6.2 9.2 9.4 19.9 9.4 30.9 0 10.6-3 21-8.8 30l-4.4 6.8 3.3 7.4c4.3 9.7 5.7 20.4 4.1 31-1.7 11-6.6 21.2-14.1 29.3l-5.8 6.3 2.4 8.2c3.1 10.6 3 21.8-0.4 32.5-3.4 10.6-9.8 19.8-18.5 26.6l-6.7 5.3 1.1 8.4c1.4 10.9-0.5 22-5.5 31.9-5.1 10.1-13.1 18.3-23 23.7l-7.6 4.2-0.2 8.7c-0.2 11-3.8 21.7-10.2 30.7l-0.2 0.2c0 0.1-0.1 0.1-0.1 0.2l-0.1 0.1-0.1 0.1-0.1 0.2c-6.5 8.8-15.3 15.4-25.6 19.2l-7.9 2.9-1.6 8.3c-2.1 10.8-7.4 20.7-15.2 28.5-7.5 7.5-17 12.7-27.4 15l-7.9 1.7-2.9 7.6c-3.7 9.5-9.9 17.8-18 24.1l-1 0.5-0.9 0.9c-8.6 6.1-18.7 9.6-29.3 10h-0.6l-8.5 0.4-4 7.5c-0.2 0.4-0.5 0.8-0.8 1.4-3.5 6.1-8.2 11.3-13.8 15.7-2.7 2.1-5.6 3.9-8.6 5.5-7.9 4.1-16.4 6.2-25.3 6.2-2.2 0-4.4-0.1-6.6-0.4l-8.4-1-5.2 6.7c-6.8 8.7-16 15.2-26.5 18.7-5.6 1.9-11.5 2.8-17.3 2.8-5.3 0-10.6-0.8-15.7-2.3l-8.4-2.5-6.3 6c-8.2 7.8-18.4 12.9-29.6 14.6-2.9 0.5-5.9 0.7-8.8 0.7-8.1 0-15.9-1.7-23.2-5.1l-7.7-3.6-7 4.7c-9.2 6.2-19.9 9.4-30.9 9.4-10.7 0-21-3-30-8.8l-6.8-4.4-7.4 3.3c-7.1 3.2-14.7 4.8-22.5 4.8-2.8 0-5.7-0.2-8.5-0.7-11-1.7-21.2-6.6-29.3-14.1l-6.3-5.8-8.2 2.4c-5 1.5-10.3 2.3-15.5 2.3-5.7 0-11.4-0.9-16.9-2.7-10.6-3.4-19.8-9.8-26.6-18.5l-5.3-6.7-8.5 1.1c-2.3 0.3-4.7 0.5-7 0.5-8.7 0-17.1-2-24.9-6-3.8-1.9-7.4-4.3-10.6-7-5.4-4.5-9.8-9.9-13.1-16l-4.1-7.6-8.7-0.2c-1 0-2-0.1-3-0.1-10.2-0.8-20-4.4-28.3-10.4-9-6.5-15.7-15.4-19.5-25.8l-2.9-7.9-8.3-1.6c-10.9-2.1-20.7-7.4-28.6-15.2-7.6-7.5-12.7-17-15-27.4l-1.7-7.9-7.6-2.9c-9.8-3.7-18.3-10.2-24.5-18.6l-0.2-0.3-0.4-0.5c-6.4-8.9-10-19.4-10.4-30.3l-0.3-8.5-7.5-4.1c-9.7-5.3-17.5-13.3-22.7-23.2-5.1-9.9-7.1-20.9-5.8-31.9l1-8.4-6.7-5.2c-8.8-6.8-15.2-15.9-18.7-26.5-3.5-10.8-3.7-22.2-0.5-33l2.5-8.4-6-6.3c-7.8-8.2-12.9-18.4-14.6-29.6-1.7-10.9-0.2-22 4.5-32l3.6-7.7-4.7-7c-6.2-9.2-9.4-19.9-9.4-30.9 0-10.7 3-21 8.8-30l4.4-6.8-3.3-7.4c-4.3-9.7-5.8-20.4-4.1-30.9 1.7-11 6.6-21.2 14.1-29.3l5.8-6.3-2.4-8.2c-3.1-10.6-3-21.8 0.4-32.5 3.4-10.6 9.8-19.8 18.5-26.6l6.7-5.3-1.1-8.4c-1.4-11 0.5-22 5.5-31.9 5.1-10.1 13-18.3 23-23.7l7.7-4.2 0.2-8.7c0.2-11.3 3.9-22.1 10.6-31.3 6.5-9 15.4-15.7 25.8-19.5l8-2.9 1.6-8.3c2.1-10.8 7.4-20.7 15.2-28.5 7.6-7.6 17-12.7 27.4-15l7.9-1.7 2.9-7.6c3.6-9.5 9.8-17.8 18-24.1l1-0.5 0.9-0.9c8.6-6.1 18.7-9.5 29.2-10h0.7l8.5-0.4 4.1-7.5c3.6-6.7 8.5-12.4 14.5-17.1 2.7-2.1 5.7-4 8.7-5.6 8-4.1 16.5-6.2 25.3-6.2 2.2 0 4.4 0.1 6.6 0.4l8.4 1 5.2-6.7c6.8-8.7 16-15.2 26.5-18.7 5.6-1.9 11.4-2.8 17.3-2.8 5.3 0 10.6 0.8 15.7 2.3l8.4 2.5 6.3-6c8.2-7.8 18.4-12.9 29.6-14.6 2.9-0.5 5.9-0.7 8.8-0.7 8.1 0 15.9 1.7 23.2 5.1l7.7 3.6 7-4.7c9.2-5.8 19.9-9.1 30.9-9.1m0-15c-14.6 0-28.1 4.4-39.3 12-9.1-4.2-19.1-6.6-29.6-6.6-3.7 0-7.4 0.3-11.1 0.9-14.7 2.3-27.6 9.1-37.6 18.6a70.1 70.1 0 0 0-20-2.9c-7.3 0-14.7 1.1-22 3.5-13.9 4.6-25.4 13-33.7 23.7-2.8-0.3-5.6-0.5-8.4-0.5-10.8 0-21.8 2.5-32.2 7.8-4 2-7.7 4.4-11.1 7-7.8 6-14 13.5-18.5 21.8h-0.7c-13.4 0.6-26.7 5-38.3 13.5l-0.1 0.1h-0.1c-11.3 8.3-19.4 19.3-24 31.5-12.8 2.8-24.9 9.1-34.8 19-10.3 10.3-16.7 23-19.3 36.3-12.7 4.6-24.2 13-32.8 24.8-8.8 12-13.1 25.9-13.4 39.8-12.2 6.6-22.5 16.8-29.2 30.1-6.6 13-8.7 27.1-7 40.6-10.7 8.4-19 19.9-23.5 33.8-4.5 13.9-4.4 28.2-0.5 41.3-9.3 10-15.7 22.8-18 37.2-2.1 13.9 0 27.4 5.3 39.3-6.9 11.2-11 24.3-11 38.3 0 14.5 4.4 28.1 12 39.3-5.7 12.3-8 26.4-5.7 40.8 2.3 14.7 9 27.6 18.6 37.6-3.9 13.3-4 27.8 0.6 42 4.6 13.9 13 25.4 23.8 33.7-1.6 13.5 0.6 27.5 7.3 40.5s16.9 23.1 28.8 29.6c0.5 13.4 4.8 26.8 13.2 38.5 0.1 0.2 0.3 0.4 0.4 0.5 8.3 11.3 19.3 19.4 31.5 24 2.8 12.8 9.1 24.9 19 34.8 10.3 10.3 23 16.7 36.3 19.3 4.7 12.7 13 24.2 24.8 32.8 11 8 23.4 12.3 36 13.3 1.3 0.1 2.5 0.1 3.8 0.2 4.2 7.7 9.8 14.6 16.7 20.4 4 3.4 8.5 6.3 13.4 8.8 10.2 5.1 21 7.6 31.7 7.6 3 0 6-0.2 8.9-0.6 8.4 10.7 19.9 19 33.8 23.5 7.1 2.3 14.4 3.4 21.5 3.4 6.8 0 13.4-1 19.8-2.9 10 9.3 22.8 15.7 37.2 18 3.6 0.6 7.2 0.8 10.8 0.8 10.1 0 19.8-2.2 28.6-6.1 11 7 24 11.2 38.1 11.2 14.6 0 28.1-4.4 39.3-12 9.1 4.2 19.1 6.6 29.6 6.6 3.7 0 7.4-0.3 11.1-0.9 14.7-2.3 27.6-9 37.6-18.6a70.1 70.1 0 0 0 20 2.9c7.3 0 14.7-1.1 22-3.5 13.9-4.6 25.4-13 33.7-23.8 2.8 0.3 5.6 0.5 8.4 0.5 10.8 0 21.8-2.5 32.1-7.8 3.9-2 7.6-4.3 10.9-7 7.2-5.6 13.1-12.4 17.6-20 0.4-0.6 0.8-1.3 1.1-1.9h0.6c13.4-0.6 26.7-5 38.3-13.5 0 0 0.1 0 0.1-0.1 11.3-8.3 19.4-19.3 24-31.5 12.8-2.8 24.9-9.1 34.8-19 10.3-10.3 16.7-23 19.3-36.3 12.6-4.6 23.9-12.8 32.5-24.4 0.1-0.1 0.2-0.3 0.3-0.4 0.2-0.2 0.3-0.5 0.5-0.7 8.4-11.9 12.6-25.5 12.9-39.1 12.1-6.6 22.5-16.8 29.2-30.1 6.6-13 8.7-27.1 7-40.6 10.7-8.4 19.1-20 23.5-33.9 4.5-13.9 4.4-28.2 0.5-41.3 9.3-10 15.8-22.8 18-37.2 2.1-13.9 0.1-27.4-5.3-39.3 7-11 11.1-24 11.1-38.1 0-14.5-4.4-28.1-12-39.3 5.7-12.3 8-26.3 5.7-40.7-2.3-14.7-9.1-27.6-18.6-37.6 3.9-13.3 4-27.8-0.6-41.9-4.6-13.9-13-25.4-23.8-33.7 1.6-13.5-0.6-27.5-7.3-40.5s-16.9-23.1-28.8-29.6c-0.5-13.6-4.9-27.2-13.6-39l-0.1-0.1c-0.5-0.7-1-1.4-1.6-2.1-8.1-10.2-18.5-17.6-30-22-2.8-12.8-9.1-24.9-19-34.8-10.3-10.3-23-16.7-36.3-19.3-4.6-12.7-13-24.2-24.8-32.8-11-8-23.4-12.3-36-13.3-1.3-0.1-2.5-0.2-3.8-0.2-4.1-7.6-9.7-14.6-16.6-20.3-4.1-3.4-8.6-6.4-13.5-8.9-10.2-5.1-21-7.6-31.7-7.6-3 0-6 0.2-8.9 0.6-8.4-10.7-19.9-19.1-33.9-23.5-7.1-2.3-14.4-3.4-21.5-3.4-6.8 0-13.4 1-19.8 2.9-10-9.3-22.8-15.7-37.2-18-3.6-0.6-7.2-0.8-10.8-0.8-10.1 0-19.8 2.2-28.6 6.1C541.1 5.1 528 1 513.9 1z" fill="#603813" /><path d="M82.6 512m-18 0a18 18 0 1 0 36 0 18 18 0 1 0-36 0Z" fill="#603813" /><path d="M205.8 512m-18 0a18 18 0 1 0 36 0 18 18 0 1 0-36 0Z" fill="#603813" /><path d="M329.1 512m-18 0a18 18 0 1 0 36 0 18 18 0 1 0-36 0Z" fill="#603813" /><path d="M452.3 512m-18 0a18 18 0 1 0 36 0 18 18 0 1 0-36 0Z" fill="#603813" /><path d="M575.6 512m-18 0a18 18 0 1 0 36 0 18 18 0 1 0-36 0Z" fill="#603813" /><path d="M698.8 512m-18 0a18 18 0 1 0 36 0 18 18 0 1 0-36 0Z" fill="#603813" /><path d="M822 512m-18 0a18 18 0 1 0 36 0 18 18 0 1 0-36 0Z" fill="#603813" /><path d="M945.3 512m-18 0a18 18 0 1 0 36 0 18 18 0 1 0-36 0Z" fill="#603813" /><path d="M205.8 798.3m-18 0a18 18 0 1 0 36 0 18 18 0 1 0-36 0Z" fill="#603813" /><path d="M329.1 798.3m-18 0a18 18 0 1 0 36 0 18 18 0 1 0-36 0Z" fill="#603813" /><path d="M452.3 798.3m-18 0a18 18 0 1 0 36 0 18 18 0 1 0-36 0Z" fill="#603813" /><path d="M575.6 798.3m-18 0a18 18 0 1 0 36 0 18 18 0 1 0-36 0Z" fill="#603813" /><path d="M698.8 798.3m-18 0a18 18 0 1 0 36 0 18 18 0 1 0-36 0Z" fill="#603813" /><path d="M822 798.3m-18 0a18 18 0 1 0 36 0 18 18 0 1 0-36 0Z" fill="#603813" /><path d="M205.8 225.7m-18 0a18 18 0 1 0 36 0 18 18 0 1 0-36 0Z" fill="#603813" /><path d="M329.1 225.7m-18 0a18 18 0 1 0 36 0 18 18 0 1 0-36 0Z" fill="#603813" /><path d="M452.3 225.7m-18 0a18 18 0 1 0 36 0 18 18 0 1 0-36 0Z" fill="#603813" /><path d="M575.6 225.7m-18 0a18 18 0 1 0 36 0 18 18 0 1 0-36 0Z" fill="#603813" /><path d="M698.8 225.7m-18 0a18 18 0 1 0 36 0 18 18 0 1 0-36 0Z" fill="#603813" /><path d="M822 225.7m-18 0a18 18 0 1 0 36 0 18 18 0 1 0-36 0Z" fill="#603813" /><path d="M144.2 368.9m-18 0a18 18 0 1 0 36 0 18 18 0 1 0-36 0Z" fill="#603813" /><path d="M267.5 368.9m-18 0a18 18 0 1 0 36 0 18 18 0 1 0-36 0Z" fill="#603813" /><path d="M390.7 368.9m-18 0a18 18 0 1 0 36 0 18 18 0 1 0-36 0Z" fill="#603813" /><path d="M513.9 368.9m-18 0a18 18 0 1 0 36 0 18 18 0 1 0-36 0Z" fill="#603813" /><path d="M637.2 368.9m-18 0a18 18 0 1 0 36 0 18 18 0 1 0-36 0Z" fill="#603813" /><path d="M760.4 368.9m-18 0a18 18 0 1 0 36 0 18 18 0 1 0-36 0Z" fill="#603813" /><path d="M883.6 368.9m-18 0a18 18 0 1 0 36 0 18 18 0 1 0-36 0Z" fill="#603813" /><path d="M144.2 655.1m-18 0a18 18 0 1 0 36 0 18 18 0 1 0-36 0Z" fill="#603813" /><path d="M267.5 655.1m-18 0a18 18 0 1 0 36 0 18 18 0 1 0-36 0Z" fill="#603813" /><path d="M390.7 655.1m-18 0a18 18 0 1 0 36 0 18 18 0 1 0-36 0Z" fill="#603813" /><path d="M513.9 655.1m-18 0a18 18 0 1 0 36 0 18 18 0 1 0-36 0Z" fill="#603813" /><path d="M637.2 655.1m-18 0a18 18 0 1 0 36 0 18 18 0 1 0-36 0Z" fill="#603813" /><path d="M760.4 655.1m-18 0a18 18 0 1 0 36 0 18 18 0 1 0-36 0Z" fill="#603813" /><path d="M883.6 655.1m-18 0a18 18 0 1 0 36 0 18 18 0 1 0-36 0Z" fill="#603813" /><path d="M390.7 941.4m-18 0a18 18 0 1 0 36 0 18 18 0 1 0-36 0Z" fill="#603813" /><path d="M513.9 941.4m-18 0a18 18 0 1 0 36 0 18 18 0 1 0-36 0Z" fill="#603813" /><path d="M637.2 941.4m-18 0a18 18 0 1 0 36 0 18 18 0 1 0-36 0Z" fill="#603813" /><path d="M390.7 82.6m-18 0a18 18 0 1 0 36 0 18 18 0 1 0-36 0Z" fill="#603813" /><path d="M513.9 82.6m-18 0a18 18 0 1 0 36 0 18 18 0 1 0-36 0Z" fill="#603813" /><path d="M637.2 82.6m-18 0a18 18 0 1 0 36 0 18 18 0 1 0-36 0Z" fill="#603813" /></svg>