<?xml version="1.0" standalone="no"?><!DOCTYPE svg PUBLIC "-//W3C//DTD SVG 1.1//EN" "http://www.w3.org/Graphics/SVG/1.1/DTD/svg11.dtd"><svg class="icon" width="48px" height="48.00px" viewBox="0 0 1024 1024" version="1.1" xmlns="http://www.w3.org/2000/svg"><path d="M482.133333 657.066667h59.733334v259.259733c0 5.845333 3.3024 11.191467 8.533333 13.806933H473.6a15.4368 15.4368 0 0 0 8.533333-13.806933V657.066667z" fill="#D34D4E" /><path d="M162.133333 396.8a349.866667 332.8 0 1 0 699.733334 0 349.866667 332.8 0 1 0-699.733334 0Z" fill="#EC96A8" /><path d="M192 396.8a320 302.933333 0 1 0 640 0 320 302.933333 0 1 0-640 0Z" fill="#EC96A8" /><path d="M196.266667 396.8a315.733333 298.666667 0 1 0 631.466666 0 315.733333 298.666667 0 1 0-631.466666 0Z" fill="#F6C8DA" /><path d="M456.917333 690.939733l362.504534-362.504533A284.1088 284.1088 0 0 1 827.733333 396.8c0 27.502933-3.9296 54.135467-11.285333 79.428267l-203.720533 203.716266C581.0944 690.013867 547.221333 695.466667 512 695.466667c-18.786133 0-37.192533-1.553067-55.082667-4.526934z m-36.6592-8.277333c-104.0512-29.841067-185.3824-109.128533-213.422933-208.951467L576.226133 104.315733c107.6992 21.056 195.3408 93.994667 232.413867 189.9648L420.258133 682.666667zM199.453867 439.3856A285.218133 285.218133 0 0 1 196.266667 396.8c0-24.861867 3.2128-49.0112 9.258666-72.1024L418.901333 111.330133A332.356267 332.356267 0 0 1 512 98.133333c9.2928 0 18.491733 0.379733 27.584 1.122134L199.453867 439.3856z" fill="#FFFFFF" /><path d="M332.330667 930.133333h363.605333a12.714667 12.714667 0 0 1 10.926933 19.2 39.2192 39.2192 0 0 1-33.723733 19.2H355.127467a39.2192 39.2192 0 0 1-33.723734-19.2 12.714667 12.714667 0 0 1 10.9312-19.2z" fill="#D34D4E" /><path d="M332.330667 930.133333h363.605333a12.714667 12.714667 0 0 1 12.7104 12.8H319.616a12.706133 12.706133 0 0 1 12.714667-12.8z" fill="#EC96A8" /></svg>