<?xml version="1.0" standalone="no"?><!DOCTYPE svg PUBLIC "-//W3C//DTD SVG 1.1//EN" "http://www.w3.org/Graphics/SVG/1.1/DTD/svg11.dtd"><svg class="icon" width="48px" height="48.00px" viewBox="0 0 1024 1024" version="1.1" xmlns="http://www.w3.org/2000/svg"><path d="M709.4 391.5l108.9-108.9c23.2 23.2 60.9 23 83.8-0.6 21.7-22.3 22.1-58.3 0.9-81.1-9.6-10.3-22-16.4-34.8-18.2-8.7-1.2-15.4-8-16.6-16.6-1.7-12.2-7.3-23.9-16.6-33.3-23-23-60.2-23-83.2 0s-23 60.2 0 83.2l-0.1 0.1L640.8 327" fill="#F2BD70" /><path d="M475.5 336c-9.5 6.2-18.6 13.5-26.9 21.8l-1.6 1.6c-86.7-14.2-178.6 12.2-245.5 79-110.3 110.3-129.6 272.1 0 399.4 110.3 110.3 300.1 123.3 410.4 13 66.8-66.8 82.2-171.8 68-258.5l1.6-1.6c64.3-64.3 64.3-168.7 0-233-15.6-15.6-33.5-27.4-52.7-35.4 0 0-40.6-13.3-83.2-11.6-42.5 1.7-70.1 25.3-70.1 25.3z" fill="#843514" /><path d="M690.6 371.8l105.5-105.5c22.4 22.4 59 22.3 81.2-0.6 21-21.6 21.4-56.5 0.9-78.5-9.3-10-21.3-15.9-33.7-17.6-8.4-1.2-14.9-7.7-16.1-16.1-1.7-11.8-7-23.2-16.1-32.2C790 99 754 99 731.7 121.3c-22.3 22.3-22.2 58.3 0 80.6l-0.1 0.1-107.4 107.3" fill="#FCDBA4" /><path d="M464 318c-9.2 6-18 13-26.1 21.1-0.5 0.5-1 1.1-1.5 1.6-83.9-13.7-173 11.8-237.8 76.5-106.8 106.8-125.5 263.5 0 386.9C305.5 911 489.3 923.6 596.2 816.7c64.7-64.7 79.6-166.4 65.9-250.4 0.5-0.5 1.1-1 1.6-1.5 62.3-62.3 62.3-163.4 0-225.7-15.1-15.1-32.5-26.5-51-34.3 0 0-39.3-12.9-80.6-11.3S464 318 464 318z" fill="#9A451C" /><path d="M334.4 281.3a0.6 8 0 1 0 1.2 0 0.6 8 0 1 0-1.2 0Z" fill="#AEE249" /></svg>