<svg xml:space="preserve" style="enable-background:new 0 0 1024 1024;" viewBox="0 0 1024 1024" y="0px" x="0px" xmlns:xlink="http://www.w3.org/1999/xlink" xmlns="http://www.w3.org/2000/svg" id="图层_1" version="1.1">
<style type="text/css">
	.st0{fill:url(#椭圆形_1_);}
	.st1{opacity:0.9;}
	.st2{fill:url(#SVGID_1_);}
	.st3{fill:url(#SVGID_2_);}
	.st4{display:none;}
	.st5{display:inline;fill:none;stroke:url(#SVGID_3_);stroke-miterlimit:10;}
	.st6{display:inline;fill:none;stroke:url(#SVGID_4_);stroke-miterlimit:10;}
	.st7{fill:url(#SVGID_5_);}
	.st8{fill:url(#SVGID_6_);}
	.st9{fill:#63A6F9;}
	.st10{fill:url(#SVGID_7_);}
	.st11{fill:url(#SVGID_8_);}
	.st12{fill:url(#SVGID_9_);}
	.st13{fill:url(#SVGID_10_);}
	.st14{fill:url(#SVGID_11_);}
	.st15{fill:url(#SVGID_12_);}
	.st16{fill:url(#SVGID_13_);}
	.st17{fill:url(#SVGID_14_);}
	.st18{fill:url(#SVGID_15_);}
	.st19{fill:url(#SVGID_16_);}
	.st20{fill:url(#SVGID_17_);}
	.st21{fill:#5E95E5;}
</style>
<linearGradient gradientTransform="matrix(480 0 0 250 -161842 -83255)" y2="336.7625" x2="338.2462" y1="335.2688" x1="338.2462" gradientUnits="userSpaceOnUse" id="椭圆形_1_">
	<stop style="stop-color:#CFDFFA" offset="6.050502e-08"></stop>
	<stop style="stop-color:#D3E2FA;stop-opacity:0.6178" offset="0.3822"></stop>
	<stop style="stop-color:#E0E9FB;stop-opacity:0.2214" offset="0.7786"></stop>
	<stop style="stop-color:#EAF0FC;stop-opacity:0" offset="1"></stop>
</linearGradient>
<ellipse ry="219.7" rx="421.9" cy="913.3" cx="516.2" class="st0" id="椭圆形"></ellipse>
<g class="st1">
	
		<linearGradient gradientTransform="matrix(-1 0 0 1 1016.5887 2)" y2="311" x2="330.739" y1="197.4" x1="330.739" gradientUnits="userSpaceOnUse" id="SVGID_1_">
		<stop style="stop-color:#CFDFFA" offset="0"></stop>
		<stop style="stop-color:#EAF0FC;stop-opacity:0" offset="1"></stop>
	</linearGradient>
	<path d="M625,305L625,305L625,305c1.1,0.1,2.3,0.2,3.5,0.2s2.3-0.1,3.5-0.2h79.1c6.7,5,15.1,8,24.2,8
		c22.3,0,40.4-18.1,40.4-40.4s-18.1-40.4-40.4-40.4c-2,0-3.9,0.1-5.8,0.4c-4.3-10.9-14.9-18.7-27.3-18.7c-4.2,0-8.1,0.9-11.7,2.5
		c-5.8-10.2-16.8-17-29.4-17c-18.7,0-33.9,15.2-33.9,33.9c0,2.4,0.2,4.6,0.7,6.9c-17.7,0.3-31.9,14.8-31.9,32.5
		C595.9,289.4,608.6,303.3,625,305z" class="st2"></path>
	
		<linearGradient gradientTransform="matrix(-1 0 0 1 1016.5887 2)" y2="447.1" x2="641.6887" y1="299" x1="641.6887" gradientUnits="userSpaceOnUse" id="SVGID_2_">
		<stop style="stop-color:#CFDFFA" offset="1.210100e-07"></stop>
		<stop style="stop-color:#EAF0FC;stop-opacity:0" offset="1"></stop>
	</linearGradient>
	<path d="M279.6,440L279.6,440h0.2c1.8,0.2,3.6,0.3,5.4,0.3s3.7-0.1,5.5-0.3h143.9c7.7,5.7,17.3,9.1,27.6,9.1
		c25.7,0,46.6-20.9,46.6-46.6s-20.9-46.6-46.6-46.6c-1.5,0-3.1,0.1-4.6,0.2c-7.5-15.5-23.3-26.1-41.6-26.1c-2.2,0-4.4,0.2-6.5,0.5
		c-11.1-17.7-30.8-29.5-53.2-29.5c-31,0-56.7,22.4-61.8,51.9c-3-0.6-6-1-9.2-1c-24.4,0-44.3,19.8-44.3,44.3
		C241,418.6,257.8,437.2,279.6,440z" class="st3"></path>
</g>
<g class="st4">
	<linearGradient y2="723.8407" x2="668.2817" y1="723.8407" x1="287.8932" gradientUnits="userSpaceOnUse" id="SVGID_3_">
		<stop style="stop-color:#BFD4FA" offset="0"></stop>
		<stop style="stop-color:#87B6FA" offset="1"></stop>
	</linearGradient>
	<line y2="913.7" x2="667.9" y1="534" x1="288.2" class="st5"></line>
	
		<linearGradient gradientTransform="matrix(-1 0 0 1 956.1749 0)" y2="718.8407" x2="638.2817" y1="718.8407" x1="257.8932" gradientUnits="userSpaceOnUse" id="SVGID_4_">
		<stop style="stop-color:#BFD4FA" offset="0"></stop>
		<stop style="stop-color:#87B6FA" offset="1"></stop>
	</linearGradient>
	<line y2="908.7" x2="318.2" y1="529" x1="697.9" class="st6"></line>
</g>
<g>
	
		<linearGradient gradientTransform="matrix(1 0 0 -1 0 1024)" y2="135.9288" x2="208.3795" y1="135.9288" x1="148.2959" gradientUnits="userSpaceOnUse" id="SVGID_5_">
		<stop style="stop-color:#B5D1FC" offset="0"></stop>
		<stop style="stop-color:#CDE0FC" offset="1"></stop>
	</linearGradient>
	<path d="M153.2,914c14.2,14.9,49.1,6.9,53.8-6.7c3.2-9.5,0.5-22.8-6.7-31.4c-5.6-6.6-9.5-12.5-15.1-16.8
		c-4.5-3.4-6.8-5.1-8.4-5C165.8,854.6,136.7,896.7,153.2,914z" class="st7"></path>
	<g>
		
			<linearGradient gradientTransform="matrix(1 0 0 -1 0 1024)" y2="136.0904" x2="189.6034" y1="80.3773" x1="167.0938" gradientUnits="userSpaceOnUse" id="SVGID_6_">
			<stop style="stop-color:#B5D1FC" offset="0"></stop>
			<stop style="stop-color:#EBF0FC" offset="1"></stop>
		</linearGradient>
		<rect height="64.3" width="1.3" class="st8" y="883.6" x="177.7"></rect>
	</g>
</g>
<g>
	<g>
		<path d="M326.7,726.9v52.4h-46.9v-52.4H160.1v-41.2l100.4-163.8h66.2v162.6h39v42.3H326.7z M280.4,568.4l-73.2,116.2
			h73.2V568.4z" class="st9"></path>
		<path d="M827.7,726.9v52.4h-46.9v-52.4H661.1v-41.2l100.4-163.8h66.2v162.6h39v42.3H827.7z M781.4,568.4l-73.2,116.2
			h73.2V568.4z" class="st9"></path>
	</g>
	<g>
		<linearGradient y2="651.7166" x2="371.3975" y1="651.7166" x1="165.8381" gradientUnits="userSpaceOnUse" id="SVGID_7_">
			<stop style="stop-color:#BFD4FA" offset="0"></stop>
			<stop style="stop-color:#87B6FA" offset="1"></stop>
		</linearGradient>
		<path d="M332.4,728v52.4h-46.9V728H165.8v-41.2L266.3,523h66.2v162.6h39V728H332.4z M286.1,569.5l-73.2,116.2h73.2
			V569.5z" class="st10"></path>
		<linearGradient y2="651.7166" x2="872.4048" y1="651.7166" x1="666.846" gradientUnits="userSpaceOnUse" id="SVGID_8_">
			<stop style="stop-color:#BFD4FA" offset="0"></stop>
			<stop style="stop-color:#87B6FA" offset="1"></stop>
		</linearGradient>
		<path d="M833.4,728v52.4h-46.9V728H666.8v-41.2L767.3,523h66.2v162.6h39V728H833.4z M787.1,569.5l-73.2,116.2h73.2
			V569.5z" class="st11"></path>
	</g>
</g>
<linearGradient y2="644.8168" x2="569.7528" y1="637.4327" x1="579.5519" gradientUnits="userSpaceOnUse" id="SVGID_9_">
	<stop style="stop-color:#87B6FA" offset="0"></stop>
	<stop style="stop-color:#85B1F3" offset="1"></stop>
</linearGradient>
<circle r="6.1" cy="641.1" cx="574.7" class="st12"></circle>
<g>
	<linearGradient y2="654.5426" x2="633.315" y1="654.5426" x1="433.0298" gradientUnits="userSpaceOnUse" id="SVGID_10_">
		<stop style="stop-color:#BFD4FA" offset="0"></stop>
		<stop style="stop-color:#87B6FA" offset="1"></stop>
	</linearGradient>
	<circle r="100.1" cy="654.5" cx="533.2" class="st13"></circle>
	<linearGradient y2="595.454" x2="498.4603" y1="595.454" x1="458.8391" gradientUnits="userSpaceOnUse" id="SVGID_11_">
		<stop style="stop-color:#BFD4FA" offset="0"></stop>
		<stop style="stop-color:#87B6FA" offset="1"></stop>
	</linearGradient>
	<circle r="19.8" cy="595.5" cx="478.6" class="st14"></circle>
	<linearGradient y2="700.937" x2="536.8635" y1="700.937" x1="482.3795" gradientUnits="userSpaceOnUse" id="SVGID_12_">
		<stop style="stop-color:#BFD4FA" offset="0"></stop>
		<stop style="stop-color:#87B6FA" offset="1"></stop>
	</linearGradient>
	<circle r="27.2" cy="700.9" cx="509.6" class="st15"></circle>
	<linearGradient y2="622.8362" x2="590.1796" y1="594.8358" x1="574.0136" gradientUnits="userSpaceOnUse" id="SVGID_13_">
		<stop style="stop-color:#87B6FA" offset="0"></stop>
		<stop style="stop-color:#BFD4FA" offset="1"></stop>
	</linearGradient>
	<circle r="16.2" cy="608.8" cx="582.1" class="st16"></circle>
	<g>
		<path d="M409,744.5c-10.5,0-17.5-3.1-21.3-9.2c-7.9-12.9,2.8-32.4,32.7-59.8c3.3-3.1,8.5-2.8,11.6,0.5
			c3.1,3.3,2.8,8.5-0.5,11.6c-27.6,25.3-30.5,37.3-29.8,39.2c1.1,1.3,11.8,4.1,42.7-6.6c26.9-9.3,59.9-25.6,93.1-45.8
			c33.1-20.2,62.7-42.2,83.2-61.8c23.6-22.6,26-33.3,25.3-35c0,0-6.2-5.1-37,4.7c-4.3,1.4-8.9-1-10.3-5.3c-1.4-4.3,1-8.9,5.3-10.3
			c30.7-9.8,49-9,55.9,2.4c7.3,11.9-1.4,29.5-26.5,53.9C612.1,643.8,581,667,546,688.4c-35,21.4-69.9,38.4-98.2,47.9
			C431.8,741.7,418.9,744.5,409,744.5z" class="st9"></path>
	</g>
	<g>
		<linearGradient y2="654.5029" x2="664.8204" y1="654.5029" x1="387.6303" gradientUnits="userSpaceOnUse" id="SVGID_14_">
			<stop style="stop-color:#CFDFFA" offset="0"></stop>
			<stop style="stop-color:#EAF0FC;stop-opacity:0" offset="1"></stop>
		</linearGradient>
		<path d="M411.4,746.8c-10.5,0-17.5-3.1-21.3-9.2c-7.9-12.9,2.8-32.4,32.7-59.8c3.3-3.1,8.5-2.8,11.6,0.5
			c3.1,3.3,2.8,8.5-0.5,11.6c-27.6,25.3-30.5,37.3-29.8,39.2c1.1,1.3,11.8,4.1,42.7-6.6c26.9-9.3,59.9-25.6,93.1-45.8
			c33.1-20.2,62.7-42.2,83.2-61.8c23.6-22.6,26-33.3,25.3-35c0,0-6.2-5.1-37,4.7c-4.3,1.4-8.9-1-10.3-5.3c-1.4-4.3,1-8.9,5.3-10.3
			c30.7-9.8,49-9,55.9,2.4c7.3,11.9-1.4,29.5-26.5,53.9c-21.4,20.8-52.5,44.1-87.5,65.4c-35,21.4-69.9,38.4-98.2,47.9
			C434.1,744.1,421.2,746.8,411.4,746.8z" class="st17"></path>
	</g>
</g>
<g>
	<linearGradient y2="793.9158" x2="826.3739" y1="793.9158" x1="747.1639" gradientUnits="userSpaceOnUse" id="SVGID_15_">
		<stop style="stop-color:#B5D1FC" offset="0"></stop>
		<stop style="stop-color:#CDE0FC" offset="1"></stop>
	</linearGradient>
	<path d="M750.8,796.9c6-11,18.7-21.9,35.2-23.2c2.5-0.2,12-0.7,22.3,4.3c1.1,0.5,18.8,9.3,18,17.6
		c-1,10.9-31.3,15.1-43.4,16.8c-11.1,1.6-31.5,4.4-35.2-3.4C746.2,805.5,748.4,801.4,750.8,796.9z" class="st18"></path>
	<linearGradient y2="816.2462" x2="854.8462" y1="799.8123" x1="797.012" gradientUnits="userSpaceOnUse" id="SVGID_16_">
		<stop style="stop-color:#B5D1FC" offset="0"></stop>
		<stop style="stop-color:#B9D4FC" offset="0.1129"></stop>
		<stop style="stop-color:#C8DDFC" offset="0.5951"></stop>
		<stop style="stop-color:#CDE0FC" offset="1"></stop>
	</linearGradient>
	<path d="M789.6,805.8c4.6-8.4,14.2-16.7,26.8-17.7c3-0.2,9.9-0.7,17,3.3c7.8,4.4,15.5,14.1,13.1,20
		c-0.6,1.4-2.3,4.1-32.4,6.2c-20,1.4-25.3,0.6-26.8-2.6C786.1,812.3,787.8,809.2,789.6,805.8z" class="st19"></path>
</g>
<g>
	<g>
		<g>
			
				<linearGradient gradientTransform="matrix(-1 0 0 1 1120.8149 0)" y2="380.3545" x2="864.9243" y1="380.3545" x1="767.7345" gradientUnits="userSpaceOnUse" id="SVGID_17_">
				<stop style="stop-color:#B5D1FC" offset="0"></stop>
				<stop style="stop-color:#CDE0FC" offset="1"></stop>
			</linearGradient>
			<path d="M256.6,347.4l46.1,68.8c0.4,0.7,1.1,1,1.8,1.1c0.7,0.1,1.4-0.2,1.9-0.7l8.7-8.7l11.1,8.8
				c0.1,0,0.7,0.7,2.1,0.4c1.6-0.3,1.8-1.8,1.8-1.9l5-27.3l17.4-17.3c0.6-0.6,0.8-1.5,0.6-2.4c-0.3-0.8-0.9-1.5-1.8-1.7l-92.3-23
				c-0.1,0-1.6-0.6-2.6,1C255.5,345.9,256.3,347.1,256.6,347.4z M323.4,391.2c0,0-0.1-0.5-0.3-0.7c-0.2-0.2-0.6-0.6-0.6-0.6
				l-32.4-23.7l39.8,21.8l-2.9,15.9L323.4,391.2z M323.2,408.1l-6.1-4.8l3.5-4.3L323.2,408.1z" class="st20"></path>
			<path d="M323.4,391.2c0,0-0.1-0.5-0.3-0.7c-0.2-0.2-0.6-0.6-0.6-0.6l-32.4-23.7l39.8,21.8l-2.9,15.9L323.4,391.2z" class="st21"></path>
		</g>
		<polygon points="323.2,408.1 317.1,403.3 320.6,399" class="st21"></polygon>
	</g>
	<g>
		<path d="M664.4,605.8c2.3-3.3,4.5-6.6,6.5-10l1.7,1c-2.1,3.4-4.3,6.8-6.6,10.1L664.4,605.8z M676.5,585.3
			c1.8-3.6,3.4-7.3,4.8-10.9l1.9,0.7c-1.5,3.7-3.1,7.4-4.9,11.1L676.5,585.3z M685,563.1c1.1-3.9,2-7.8,2.6-11.6l2,0.3
			c-0.6,3.8-1.5,7.8-2.6,11.8L685,563.1z M628.7,551.9c1.8-1.9,3.8-5.4,5.8-10.1l1.8,0.8c-2,5-4.2,8.6-6.1,10.7L628.7,551.9z
			 M616.4,537l1.9-0.4c1,4.3,2.2,8.2,3.7,11.2l-1.8,0.9C618.7,545.5,617.4,541.5,616.4,537z M688.8,539.8c0-0.7,0-1.4,0-2.1
			c0-3.3-0.3-6.6-0.7-9.7l2-0.3c0.5,3.2,0.7,6.5,0.7,10c0,0.7,0,1.4,0,2.1H688.8z M638.4,530.7c1.1-3.8,2.1-7.7,2.9-11.6l2,0.4
			c-0.8,3.9-1.8,7.9-2.9,11.7L638.4,530.7z M614.4,520.5c0-2.7,0.2-5.2,0.5-7.6l2,0.3c-0.3,2.3-0.5,4.8-0.5,7.3c0,1.5,0.1,3,0.2,4.5
			l-2,0.1C614.5,523.5,614.4,521.9,614.4,520.5z M679.8,506.2l1.6-1.2c2.3,3.2,4.3,6.8,5.8,10.8l-1.9,0.7
			C683.9,512.7,682,509.2,679.8,506.2z M643.2,507.4c0.3-3.2,0.5-6.3,0.5-9.1c0-1-0.1-1.9-0.1-2.8l2-0.1c0.1,0.9,0.1,1.8,0.1,2.8
			c0,2.9-0.2,6-0.5,9.3L643.2,507.4z M522,504.1l0.1-2c4,0.1,8,0.1,11.9-0.1l0.1,2c-2.2,0.1-4.4,0.2-6.6,0.2
			C525.7,504.2,523.9,504.1,522,504.1z M498.1,501.5l0.3-2c4,0.7,7.9,1.3,11.8,1.7l-0.2,2C506.1,502.7,502.1,502.2,498.1,501.5z
			 M545.9,501c4-0.6,7.9-1.4,11.7-2.3l0.5,1.9c-3.9,1-7.9,1.7-11.9,2.3L545.9,501z M618.4,501.1c1.6-3.3,3.7-6.1,6.2-8.2
			c0.5-0.5,1.1-0.9,1.7-1.3l1.1,1.7c-0.6,0.4-1.1,0.8-1.6,1.2c-2.3,1.9-4.2,4.5-5.7,7.5L618.4,501.1z M474.6,496l0.6-1.9
			c3.9,1.1,7.8,2.1,11.6,3l-0.5,1.9C482.5,498.1,478.6,497.1,474.6,496z M661.2,492.6l0.7-1.9c3.9,1.6,7.5,3.5,10.7,5.8l-1.2,1.6
			C668.3,495.9,664.8,494.1,661.2,492.6z M568.9,495.1c1.5-0.6,3-1.2,4.5-1.8c2-0.8,4.1-1.8,6.5-2.9l0.9,1.8c-2.4,1.2-4.6,2.2-6.6,3
			c-1.5,0.6-3.1,1.2-4.6,1.8L568.9,495.1z M451.8,488.3l0.7-1.9c3.8,1.4,7.6,2.8,11.3,4l-0.6,1.9
			C459.4,491.1,455.6,489.7,451.8,488.3z M638,489.3l-0.3-2c3.8-0.5,8-0.5,12.3,0.2l-0.3,2C645.6,488.8,641.7,488.8,638,489.3z
			 M590.6,485.1l0.9-0.5c3.2-1.7,6.5-3.4,9.8-5l0.9,1.8c-3.2,1.6-6.6,3.3-9.8,5l-0.9,0.5L590.6,485.1z M636.6,475.9
			c-0.4-0.3-0.8-0.6-1.2-0.8l1-1.7c0.5,0.2,1,0.6,1.4,0.9c2.6,2,4.6,5.1,5.9,9.1l-1.9,0.6C640.6,480.3,638.8,477.6,636.6,475.9z
			 M429.7,479l0.8-1.8c3.7,1.7,7.4,3.3,11,4.8l-0.8,1.8C437,482.3,433.3,480.6,429.7,479z M612.4,474.7c4.5-1.7,8.3-2.8,11.7-3.3
			l0.3,2c-3.2,0.4-6.9,1.5-11.3,3.2L612.4,474.7z M408.1,468.4l0.9-1.8c3.6,1.9,7.2,3.7,10.7,5.4l-0.9,1.8
			C415.3,472,411.7,470.2,408.1,468.4z M387.1,456.6l1-1.7c3.5,2,7,4,10.4,5.9l-1,1.8C394.1,460.7,390.6,458.7,387.1,456.6z
			 M366.4,444.3l1.1-1.7c3.4,2.1,6.8,4.3,10.2,6.3l-1,1.7C373.3,448.5,369.9,446.4,366.4,444.3z M346.4,431.1l1.1-1.7
			c3.4,2.2,6.7,4.4,10,6.6l-1.1,1.7C353.1,435.6,349.7,433.3,346.4,431.1z M333.9,422.5l1.1-1.6c0.9,0.6,1.7,1.2,2.6,1.8l-1.1,1.6
			C335.6,423.7,334.8,423.1,333.9,422.5z" class="st9"></path>
	</g>
</g>
</svg>
