<svg xml:space="preserve" style="enable-background:new 0 0 1024 1024;" viewBox="0 0 1024 1024" y="0px" x="0px" xmlns:xlink="http://www.w3.org/1999/xlink" xmlns="http://www.w3.org/2000/svg" id="图层_1" version="1.1">
<style type="text/css">
	.st0{fill:url(#椭圆形_1_);}
	.st1{opacity:0.9;}
	.st2{fill:url(#SVGID_1_);}
	.st3{fill:url(#SVGID_2_);}
	.st4{opacity:0.32;fill:url(#路径_1_);enable-background:new    ;}
	.st5{fill:#63A6F9;}
	.st6{fill:url(#SVGID_3_);}
	.st7{fill:url(#SVGID_4_);}
	.st8{fill:url(#SVGID_5_);}
	.st9{fill:url(#SVGID_6_);}
	.st10{fill:#5EA1EA;}
	.st11{fill:url(#SVGID_7_);}
	.st12{fill:url(#SVGID_8_);}
	.st13{fill:#B3D7FF;}
	.st14{fill:url(#SVGID_9_);}
	.st15{fill:#5E95E5;}
	.st16{fill:url(#SVGID_10_);}
	.st17{fill:url(#SVGID_11_);}
	.st18{fill:url(#SVGID_12_);}
	.st19{fill:none;stroke:url(#SVGID_13_);stroke-width:1.2571;stroke-miterlimit:10;}
</style>
<linearGradient gradientTransform="matrix(480 0 0 -250 -161842 172745)" y2="687.2375" x2="338.2462" y1="688.7312" x1="338.2462" gradientUnits="userSpaceOnUse" id="椭圆形_1_">
	<stop style="stop-color:#CFDFFA" offset="6.050502e-08"></stop>
	<stop style="stop-color:#D3E2FA;stop-opacity:0.6178" offset="0.3822"></stop>
	<stop style="stop-color:#E0E9FB;stop-opacity:0.2214" offset="0.7786"></stop>
	<stop style="stop-color:#EAF0FC;stop-opacity:0" offset="1"></stop>
</linearGradient>
<ellipse ry="219.7" rx="421.9" cy="913.3" cx="516.2" class="st0" id="椭圆形"></ellipse>
<g class="st1">
	
		<linearGradient gradientTransform="matrix(-1 0 0 -1 1016.5887 1026)" y2="713" x2="330.739" y1="826.6" x1="330.739" gradientUnits="userSpaceOnUse" id="SVGID_1_">
		<stop style="stop-color:#CFDFFA" offset="0"></stop>
		<stop style="stop-color:#EAF0FC;stop-opacity:0" offset="1"></stop>
	</linearGradient>
	<path d="M625,305L625,305L625,305c1.1,0.1,2.3,0.2,3.5,0.2s2.3-0.1,3.5-0.2h79.1c6.7,5,15.1,8,24.2,8
		c22.3,0,40.4-18.1,40.4-40.4s-18.1-40.4-40.4-40.4c-2,0-3.9,0.1-5.8,0.4c-4.3-10.9-14.9-18.7-27.3-18.7c-4.2,0-8.1,0.9-11.7,2.5
		c-5.8-10.2-16.8-17-29.4-17c-18.7,0-33.9,15.2-33.9,33.9c0,2.4,0.2,4.6,0.7,6.9c-17.7,0.3-31.9,14.8-31.9,32.5
		C595.9,289.4,608.6,303.3,625,305z" class="st2"></path>
	
		<linearGradient gradientTransform="matrix(-1 0 0 -1 1016.5887 1026)" y2="576.9" x2="641.6887" y1="725" x1="641.6887" gradientUnits="userSpaceOnUse" id="SVGID_2_">
		<stop style="stop-color:#CFDFFA" offset="1.210100e-07"></stop>
		<stop style="stop-color:#EAF0FC;stop-opacity:0" offset="1"></stop>
	</linearGradient>
	<path d="M279.6,440L279.6,440h0.2c1.8,0.2,3.6,0.3,5.4,0.3s3.7-0.1,5.5-0.3h143.9c7.7,5.7,17.3,9.1,27.6,9.1
		c25.7,0,46.6-20.9,46.6-46.6s-20.9-46.6-46.6-46.6c-1.5,0-3.1,0.1-4.6,0.2c-7.5-15.5-23.3-26.1-41.6-26.1c-2.2,0-4.4,0.2-6.5,0.5
		c-11.1-17.7-30.8-29.5-53.2-29.5c-31,0-56.7,22.4-61.8,51.9c-3-0.6-6-1-9.2-1c-24.4,0-44.3,19.8-44.3,44.3
		C241,418.6,257.8,437.2,279.6,440z" class="st3"></path>
</g>
<linearGradient gradientTransform="matrix(78.2896 93.302 -155.5811 130.548 81101 -120430.3594)" y2="686.6482" x2="337.7035" y1="687.8531" x1="338.0577" gradientUnits="userSpaceOnUse" id="路径_1_">
	<stop style="stop-color:#BFD4FA;stop-opacity:0" offset="0"></stop>
	<stop style="stop-color:#5792F0" offset="0.6012"></stop>
	<stop style="stop-color:#5792F0;stop-opacity:0" offset="1"></stop>
</linearGradient>
<polygon points="679,705 797.4,749.5 726.7,781.1 547.3,777.8" class="st4" id="路径"></polygon>
<g>
	<polygon points="580.8,447.4 580.3,697.6 304.9,736.3 305.5,486.1" class="st5"></polygon>
	<linearGradient y2="731.3975" x2="492.9244" y1="456.3115" x1="392.8013" gradientUnits="userSpaceOnUse" id="SVGID_3_">
		<stop style="stop-color:#ABC2EE" offset="0"></stop>
		<stop style="stop-color:#94B1E7" offset="0.2693"></stop>
		<stop style="stop-color:#7197DC" offset="0.745"></stop>
		<stop style="stop-color:#638DD8" offset="1"></stop>
	</linearGradient>
	<polygon points="580.8,449.4 580.3,699.6 304.9,738.3 305.5,488.1" class="st6"></polygon>
	<linearGradient y2="559.891" x2="439.7722" y1="747.0772" x1="318.2121" gradientUnits="userSpaceOnUse" id="SVGID_4_">
		<stop style="stop-color:#ABC2EE" offset="0"></stop>
		<stop style="stop-color:#94B1E7" offset="0.2693"></stop>
		<stop style="stop-color:#7197DC" offset="0.745"></stop>
		<stop style="stop-color:#638DD8" offset="1"></stop>
	</linearGradient>
	<polygon points="452.5,818.7 304.9,738.4 305.5,488.2 453.1,568.5" class="st7"></polygon>
	<polygon points="727.8,777.9 580.2,697.6 580.8,447.4 728.4,527.7" class="st5"></polygon>
	<linearGradient y2="778.5459" x2="730.7187" y1="450.756" x1="577.8677" gradientUnits="userSpaceOnUse" id="SVGID_5_">
		<stop style="stop-color:#ABC2EE" offset="0"></stop>
		<stop style="stop-color:#94B1E7" offset="0.2693"></stop>
		<stop style="stop-color:#7197DC" offset="0.745"></stop>
		<stop style="stop-color:#638DD8" offset="1"></stop>
	</linearGradient>
	<polygon points="727.8,779.9 580.2,699.6 580.8,449.4 728.4,529.7" class="st8"></polygon>
	<linearGradient y2="545.1535" x2="563.0079" y1="803.4077" x1="617.9015" gradientUnits="userSpaceOnUse" id="SVGID_6_">
		<stop style="stop-color:#BFD4FA" offset="0"></stop>
		<stop style="stop-color:#87B6FA" offset="1"></stop>
	</linearGradient>
	<polygon points="728.4,529.8 727.8,780 452.5,818.7 453.1,568.5" class="st9"></polygon>
	<polygon points="306.1,491.8 274.5,585.7 427.6,668.4 453.7,572" class="st10"></polygon>
	<linearGradient y2="505.3573" x2="379.0881" y1="646.4662" x1="346.5105" gradientUnits="userSpaceOnUse" id="SVGID_7_">
		<stop style="stop-color:#BFD4FA" offset="0"></stop>
		<stop style="stop-color:#87B6FA" offset="1"></stop>
	</linearGradient>
	<polygon points="304.9,488.2 273.4,582.1 426.4,664.9 452.5,568.5" class="st11"></polygon>
	<polygon points="451.9,570.9 474.9,673.1 759.6,633.1 727.2,532.2" class="st10"></polygon>
	<linearGradient y2="540.8413" x2="595.4728" y1="658.4692" x1="618.3373" gradientUnits="userSpaceOnUse" id="SVGID_8_">
		<stop style="stop-color:#BFD4FA" offset="0"></stop>
		<stop style="stop-color:#87B6FA" offset="1"></stop>
	</linearGradient>
	<polygon points="453.1,568.5 476,670.7 760.7,630.8 728.4,529.8" class="st12"></polygon>
</g>
<g>
	<g>
		<polygon points="421.6,540.3 428,538.2 428,538.1" class="st13"></polygon>
		<polygon points="440.6,533.8 440.7,534 453.3,530 453.1,529.5" class="st13"></polygon>
		<polygon points="465.7,525.4 466,526.1 478.7,522.2 478.4,521.5" class="st13"></polygon>
		<polygon points="491.2,517.7 491.5,518.7 504.3,515.3 504,514.1" class="st13"></polygon>
		<polygon points="516.9,510.8 517.2,512.1 530.1,509.2 529.9,507.9" class="st13"></polygon>
		<polygon points="556.1,503.4 542.9,505.4 543.2,506.8 556.3,504.9" class="st13"></polygon>
		<path d="M545,490.2l-2-0.8c-1.4,4.2-2.6,8.5-3.5,13l2.2,0.5C542.4,498.6,543.7,494.4,545,490.2z" class="st13"></path>
		<path d="M538.2,515.7c0,4.5,0.6,9.1,2.5,13.4l2.1-0.9c-1.7-3.9-2.2-8.3-2.3-12.6L538.2,515.7z" class="st13"></path>
		<path d="M551.4,536.3l-0.6,2.1c2.3,0.8,4.5,1,6.8,1c2.3,0,4.6-0.1,6.7-0.4l-0.3-2.2
			C559.8,537.4,555.4,537.6,551.4,536.3z" class="st13"></path>
		<path d="M576.9,534l0.8,2c4.3-1.4,8.4-3,12.5-4.6l-0.8-1.9C585.2,531.1,581.1,532.8,576.9,534z" class="st13"></path>
		<polygon points="601.4,524.2 602.3,526 614.3,520.3 613.4,518.4" class="st13"></polygon>
		<polygon points="625.1,512.4 626.1,514.1 637.6,507.3 636.5,505.6" class="st13"></polygon>
		<polygon points="647.7,498.5 648.8,500 659.7,492.4 658.6,490.8" class="st13"></polygon>
		<polygon points="669,482.7 670.1,484.2 680.2,475.5 679.2,474.2" class="st5"></polygon>
		<polygon points="689,465.3 690,466.5 699.5,457.1 698.5,456.1" class="st5"></polygon>
		<polygon points="707.6,446.5 708.6,447.4 717.4,437.5 716.5,436.6" class="st5"></polygon>
		<polygon points="725.1,426.5 726,427.2 734,416.7 733.2,416" class="st5"></polygon>
		<polygon points="741.2,405.4 741.8,405.9 749.3,394.9 748.9,394.6" class="st5"></polygon>
		<polygon points="756.2,383.5 756.5,383.8 763.5,372.4 763.2,372.3" class="st5"></polygon>
		<polygon points="770,360.9 770.1,360.9 773.4,355" class="st5"></polygon>
	</g>
	<g>
		<linearGradient y2="334.386" x2="837.3622" y1="334.386" x1="740.2403" gradientUnits="userSpaceOnUse" id="SVGID_9_">
			<stop style="stop-color:#B5D1FC" offset="0"></stop>
			<stop style="stop-color:#CDE0FC" offset="1"></stop>
		</linearGradient>
		<path d="M836.9,298.6c-1-1.6-2.5-1-2.6-1l-92.3,23c-0.9,0.2-1.5,0.9-1.8,1.7c-0.2,0.9,0,1.8,0.6,2.4l17.4,17.3
			l5,27.3c0,0.1,0.2,1.6,1.8,1.9c1.4,0.3,2-0.4,2.1-0.4l11.1-8.8l8.7,8.7c0.5,0.5,1.2,0.8,1.9,0.7c0.7-0.1,1.4-0.4,1.8-1.1
			l46.1-68.8C837,301.2,837.8,300,836.9,298.6z M766.3,358l-2.9-15.9l39.8-21.8l-32.4,23.7c0,0-0.4,0.4-0.6,0.6
			c-0.2,0.2-0.3,0.7-0.3,0.7L766.3,358z M772.7,353.1l3.5,4.3l-6.1,4.8L772.7,353.1z" class="st14"></path>
		<path d="M766.3,358l-2.9-15.9l39.8-21.8l-32.4,23.7c0,0-0.4,0.4-0.6,0.6c-0.2,0.2-0.3,0.7-0.3,0.7L766.3,358z" class="st15"></path>
	</g>
</g>
<g>
	
		<linearGradient gradientTransform="matrix(1 0 0 -1 0 1024)" y2="268.5262" x2="333.0805" y1="268.5262" x1="253.8706" gradientUnits="userSpaceOnUse" id="SVGID_10_">
		<stop style="stop-color:#B5D1FC" offset="0"></stop>
		<stop style="stop-color:#CDE0FC" offset="1"></stop>
	</linearGradient>
	<path d="M257.5,758.5c6-11,18.7-21.9,35.2-23.2c2.5-0.2,12-0.7,22.3,4.3c1.1,0.5,18.8,9.3,18,17.6
		c-1,10.9-31.3,15.1-43.4,16.8c-11.1,1.6-31.5,4.4-35.2-3.4C252.9,767.1,255.1,763,257.5,758.5z" class="st16"></path>
	
		<linearGradient gradientTransform="matrix(1 0 0 -1 0 1024)" y2="246.1957" x2="361.5529" y1="262.6296" x1="303.7187" gradientUnits="userSpaceOnUse" id="SVGID_11_">
		<stop style="stop-color:#B5D1FC" offset="0"></stop>
		<stop style="stop-color:#B9D4FC" offset="0.1129"></stop>
		<stop style="stop-color:#C8DDFC" offset="0.5951"></stop>
		<stop style="stop-color:#CDE0FC" offset="1"></stop>
	</linearGradient>
	<path d="M296.3,767.4c4.6-8.4,14.2-16.7,26.8-17.7c3-0.2,9.9-0.7,17,3.3c7.8,4.4,15.5,14.1,13.1,20
		c-0.6,1.4-2.3,4.1-32.4,6.2c-20,1.4-25.3,0.6-26.8-2.6C292.8,773.9,294.5,770.8,296.3,767.4z" class="st17"></path>
</g>
<g>
	<linearGradient y2="772.866" x2="806.5408" y1="772.866" x1="746.4592" gradientUnits="userSpaceOnUse" id="SVGID_12_">
		<stop style="stop-color:#B5D1FC" offset="0"></stop>
		<stop style="stop-color:#CDE0FC" offset="1"></stop>
	</linearGradient>
	<path d="M751.4,798.8c14.2,14.9,49.1,6.9,53.8-6.7c3.2-9.5,0.5-22.8-6.7-31.4c-5.6-6.6-9.5-12.5-15.1-16.8
		c-4.5-3.4-6.8-5.1-8.4-5C764,739.4,734.9,781.5,751.4,798.8z" class="st18"></path>
	<linearGradient y2="772.6985" x2="787.7619" y1="828.4468" x1="765.2381" gradientUnits="userSpaceOnUse" id="SVGID_13_">
		<stop style="stop-color:#B5D1FC" offset="0"></stop>
		<stop style="stop-color:#DAE8FC" offset="1"></stop>
	</linearGradient>
	<line y2="832.7" x2="776.5" y1="768.4" x1="776.5" class="st19"></line>
</g>
</svg>
