<?xml version="1.0" standalone="no"?><!DOCTYPE svg PUBLIC "-//W3C//DTD SVG 1.1//EN" "http://www.w3.org/Graphics/SVG/1.1/DTD/svg11.dtd"><svg class="icon" width="48px" height="48.00px" viewBox="0 0 1024 1024" version="1.1" xmlns="http://www.w3.org/2000/svg"><path d="M512.12609 822.276287m-201.723713 0a201.723713 201.723713 0 1 0 403.447426 0 201.723713 201.723713 0 1 0-403.447426 0Z" fill="#4169E1" /><path d="M889.853743 731.248461h-48.413691V403.447427c0-162.135435-118.512682-300.064024-279.135188-324.27087V50.430928c0-27.737011-22.441763-50.430928-50.430929-50.430928h-2.017237C482.623997 1.008619 461.190852 24.206846 461.190852 51.691702v28.241319C302.837737 105.40064 185.837984 242.572765 185.837984 403.447427v327.801034H137.172138C109.687282 731.248461 86.489055 752.681606 85.480436 779.914307c-1.008619 27.737011 20.676681 51.187392 48.665846 52.196011h176.508249l448.078799 0.756464 128.094558-0.756464c27.484856 0 50.683083-21.18099 51.691701-48.665846 1.008619-27.737011-20.676681-51.187392-48.665846-52.196011z m-149.275548-327.801034v327.801034h-453.878355V406.473282c0-124.816548 99.601083-228.70426 224.669786-229.965033 125.573012-1.008619 228.199951 99.853238 229.208569 225.174095v1.765083z" fill="#0D0A16" /></svg>