<?xml version="1.0" standalone="no"?><!DOCTYPE svg PUBLIC "-//W3C//DTD SVG 1.1//EN" "http://www.w3.org/Graphics/SVG/1.1/DTD/svg11.dtd"><svg class="icon" width="48px" height="48.00px" viewBox="0 0 1024 1024" version="1.1" xmlns="http://www.w3.org/2000/svg"><path d="M312.77 635.24a38.36 38.36 0 0 1-27.12-65.48L454.46 401l-50.54-59.6a38.35 38.35 0 0 1 28.35-63.16L596 274.43a38.35 38.35 0 0 1 28 65.46l-90 90-0.55 0.55L339.89 624a38.23 38.23 0 0 1-27.12 11.24z" fill="#2F3240" /><path d="M427.11 749.58A38.35 38.35 0 0 1 400 684.11l84.71-84.72 0.33-0.32L684.11 400a38.35 38.35 0 0 1 54.24 54.24L565.86 626.72l52.47 54a38.35 38.35 0 0 1-26.6 65.08L428 749.57z" fill="#4169E1" /><path d="M512 933.89C279.37 933.89 90.11 744.63 90.11 512S279.37 90.11 512 90.11 933.89 279.37 933.89 512 744.63 933.89 512 933.89z m0-767.07c-190.34 0-345.18 154.84-345.18 345.18S321.66 857.18 512 857.18 857.18 702.34 857.18 512 702.34 166.82 512 166.82z" fill="#2F3240" /></svg>