<?xml version="1.0" standalone="no"?><!DOCTYPE svg PUBLIC "-//W3C//DTD SVG 1.1//EN" "http://www.w3.org/Graphics/SVG/1.1/DTD/svg11.dtd"><svg class="icon" width="48px" height="48.00px" viewBox="0 0 1024 1024" version="1.1" xmlns="http://www.w3.org/2000/svg"><path d="M899.22 745.71l-72.2-72.2a377.098 377.098 0 0 0 20.43-41.11c19.59-46.31 29.52-95.49 29.52-146.16s-9.93-99.85-29.52-146.16c-18.91-44.71-45.98-84.86-80.45-119.34-34.47-34.47-74.62-61.54-119.34-80.45-46.31-19.59-95.49-29.52-146.16-29.52s-99.85 9.93-146.16 29.52c-44.71 18.91-84.86 45.98-119.34 80.45-34.47 34.47-61.54 74.62-80.45 119.34-19.59 46.31-29.52 95.49-29.52 146.16s9.93 99.85 29.52 146.16c18.91 44.71 45.98 84.87 80.45 119.34 34.47 34.47 74.62 61.54 119.34 80.45 46.31 19.59 95.49 29.52 146.16 29.52s99.85-9.93 146.16-29.52a377.102 377.102 0 0 0 40.44-20.03l72.34 72.34c19.13 19.13 44.26 28.7 69.39 28.7 25.13 0 50.26-9.57 69.39-28.7 18.54-18.54 28.74-43.18 28.74-69.39 0-26.22-10.2-50.87-28.74-69.4zM501.5 793.43c-82.06 0-159.2-31.95-217.22-89.98S194.3 568.29 194.3 486.23s31.95-159.2 89.98-217.22 135.17-89.98 217.22-89.98c82.06 0 159.2 31.95 217.22 89.98s89.98 135.17 89.98 217.22c0 57.88-15.92 113.3-45.64 161.3-3.98 2.56-7.45 5.93-10.11 9.99-21.35 32.54-48.3 60.43-80.11 82.89a33.221 33.221 0 0 0-4.64 3.96c-49.23 31.93-106.64 49.06-166.7 49.06z m349.45 42.79c-11.64 11.65-30.59 11.64-42.24 0l-63.97-63.97c7.65-6.52 15.08-13.35 22.25-20.52a378.32 378.32 0 0 0 20.03-21.67l63.92 63.92c5.64 5.64 8.75 13.14 8.75 21.12s-3.1 15.48-8.74 21.12z" fill="#3F3F3F" /><path d="M544.24 233.79c1.86 45.48 39.32 81.78 85.26 81.78 17.92 0 34.56-5.53 48.29-14.97 49.1 46.64 79.71 112.56 79.71 185.63 0 141.38-114.62 256-256 256s-256-114.62-256-256 114.62-256 256-256c14.56 0 28.84 1.22 42.74 3.56z" fill="#4169E1" /></svg>