<?xml version="1.0" standalone="no"?><!DOCTYPE svg PUBLIC "-//W3C//DTD SVG 1.1//EN" "http://www.w3.org/Graphics/SVG/1.1/DTD/svg11.dtd"><svg class="icon" width="48px" height="48.00px" viewBox="0 0 1024 1024" version="1.1" xmlns="http://www.w3.org/2000/svg"><path d="M512 876.8c-8.74 0-17.47-3.33-24.14-10l-54-54H170.67c-42.35 0-76.8-34.45-76.8-76.8V224c0-42.35 34.45-76.8 76.8-76.8h682.67c42.35 0 76.8 34.45 76.8 76.8v512c0 42.35-34.45 76.8-76.8 76.8h-263.2l-54 54c-6.67 6.67-15.4 10-24.14 10zM170.67 215.47c-4.71 0-8.53 3.83-8.53 8.53v512c0 4.71 3.83 8.53 8.53 8.53H448c9.05 0 17.73 3.6 24.14 10L512 794.4l39.86-39.86c6.4-6.4 15.08-10 24.14-10h277.33c4.71 0 8.53-3.83 8.53-8.53V224c0-4.71-3.83-8.53-8.53-8.53H170.67z" fill="#3F3F3F" /><path d="M341.33 288h341.33c47.13 0 85.33 38.21 85.33 85.33v85.33c0 47.13-38.21 85.33-85.33 85.33H341.33c-47.13 0-85.33-38.21-85.33-85.33v-85.33c0-47.12 38.21-85.33 85.33-85.33z" fill="#4169E1" /><path d="M725.33 684.8H298.67c-18.85 0-34.13-15.28-34.13-34.13s15.28-34.13 34.13-34.13h426.67c18.85 0 34.13 15.28 34.13 34.13s-15.29 34.13-34.14 34.13z" fill="#3F3F3F" /></svg>