<?xml version="1.0" standalone="no"?><!DOCTYPE svg PUBLIC "-//W3C//DTD SVG 1.1//EN" "http://www.w3.org/Graphics/SVG/1.1/DTD/svg11.dtd"><svg class="icon" width="48px" height="48.00px" viewBox="0 0 1024 1024" version="1.1" xmlns="http://www.w3.org/2000/svg"><path d="M307.2 443.733333h546.133333v512H307.2z" fill="#4F8DFC" /><path d="M870.4 1024h-716.8A51.2 51.2 0 0 1 102.4 972.8v-921.6A51.2 51.2 0 0 1 153.6 0h716.8A51.2 51.2 0 0 1 921.6 51.2v921.6a51.2 51.2 0 0 1-51.2 51.2zM204.8 921.6h614.4V102.4H204.8z" fill="#181818" /><path d="M665.6 341.333333h-307.2a51.2 51.2 0 0 1 0-102.4h307.2a51.2 51.2 0 0 1 0 102.4zM665.6 546.133333h-307.2a51.2 51.2 0 0 1 0-102.4h307.2a51.2 51.2 0 0 1 0 102.4z" fill="#181818" /></svg>