<?xml version="1.0" standalone="no"?><!DOCTYPE svg PUBLIC "-//W3C//DTD SVG 1.1//EN" "http://www.w3.org/Graphics/SVG/1.1/DTD/svg11.dtd"><svg class="icon" width="48px" height="48.00px" viewBox="0 0 1024 1024" version="1.1" xmlns="http://www.w3.org/2000/svg"><path d="M426.666894 238.935086l-41.301223 290.132559 10.581305 382.974979L802.13256 460.801161h-197.972806L711.338135 238.935086H426.666894z" fill="#4F8DFC" /><path d="M341.333788 1023.999659a51.199863 51.199863 0 0 1-50.858531-58.026512L341.333788 580.267509H256.000683A51.199863 51.199863 0 0 1 204.800819 521.899664l68.266485-477.865392A51.199863 51.199863 0 0 1 324.267167 0.002389h477.865393a51.199863 51.199863 0 0 1 46.079877 73.386471L685.738203 409.601297h116.394357a51.199863 51.199863 0 0 1 37.887899 85.333106l-460.798772 511.998635A51.199863 51.199863 0 0 1 341.333788 1023.999659z m-26.282596-546.131877h84.650441a51.199863 51.199863 0 0 1 50.858531 58.026512l-36.863902 279.892587 273.065939-303.785857H604.159754a51.199863 51.199863 0 0 1-46.079877-73.386471L720.554111 102.402116H368.640382z" fill="#181818" /></svg>