<?xml version="1.0" standalone="no"?><!DOCTYPE svg PUBLIC "-//W3C//DTD SVG 1.1//EN" "http://www.w3.org/Graphics/SVG/1.1/DTD/svg11.dtd"><svg class="icon" width="48px" height="48.00px" viewBox="0 0 1024 1024" version="1.1" xmlns="http://www.w3.org/2000/svg"><path d="M273.364643 512.63852h647.724541v443.179949H273.364643z" fill="#4F8DFC" /><path d="M938.134567 205.821632h-302.725997l117.272233-117.272233A51.136148 51.136148 0 0 0 680.408381 16.276977L512 184.685358 343.591619 16.276977a51.136148 51.136148 0 1 0-72.272422 72.272422L388.59143 205.821632H85.865433A51.136148 51.136148 0 0 0 34.729285 256.95778v715.906072A51.136148 51.136148 0 0 0 85.865433 1024h852.269134a51.136148 51.136148 0 0 0 51.136148-51.136148v-715.906072A51.136148 51.136148 0 0 0 938.134567 205.821632zM137.001581 308.093928h749.996838v136.363061H137.001581z m749.996838 613.633776H137.001581V546.729285h749.996838z" fill="#181818" /></svg>