<?xml version="1.0" standalone="no"?><!DOCTYPE svg PUBLIC "-//W3C//DTD SVG 1.1//EN" "http://www.w3.org/Graphics/SVG/1.1/DTD/svg11.dtd"><svg class="icon" width="48px" height="48.00px" viewBox="0 0 1024 1024" version="1.1" xmlns="http://www.w3.org/2000/svg"><path d="M273.066667 546.133333h614.4v409.6H273.066667z" fill="#4F8DFC" /><path d="M904.533333 341.333333H785.066667V273.066667A273.066667 273.066667 0 0 0 238.933333 273.066667v68.266666H119.466667A51.2 51.2 0 0 0 68.266667 392.533333v580.266667A51.2 51.2 0 0 0 119.466667 1024h785.066666a51.2 51.2 0 0 0 51.2-51.2v-580.266667a51.2 51.2 0 0 0-51.2-51.2zM341.333333 273.066667a170.666667 170.666667 0 0 1 341.333334 0v68.266666H341.333333z m512 648.533333H170.666667V443.733333h682.666666z" fill="#181818" /><path d="M512 750.933333m-68.266667 0a68.266667 68.266667 0 1 0 136.533334 0 68.266667 68.266667 0 1 0-136.533334 0Z" fill="#181818" /></svg>