<?xml version="1.0" standalone="no"?><!DOCTYPE svg PUBLIC "-//W3C//DTD SVG 1.1//EN" "http://www.w3.org/Graphics/SVG/1.1/DTD/svg11.dtd"><svg class="icon" width="32px" height="32.00px" viewBox="0 0 1024 1024" version="1.1" xmlns="http://www.w3.org/2000/svg"><path d="M395.921317 1024l-1.43878-594.318747 496.276194-277.890005 1.43878 594.318748L395.921317 1024z" fill="#99C9F2" /><path d="M394.482537 1024L133.241269 872.208752 131.802489 277.890004l261.241269 151.791249 1.438779 594.318747z" fill="#B8D9F6" /><path d="M337.239663 530.087515L174.452027 435.230831l-0.41108-40.080289 162.787636 94.753914 0.41108 40.183059zM337.239663 618.983541L174.452027 524.229627l-0.41108-40.183059 162.787636 94.856684 0.41108 40.080289zM337.239663 908.075472L174.452027 813.321558l-0.41108-40.080289 162.787636 94.753914 0.41108 40.080289zM199.73344 630.802088l-25.281413-14.490567-0.41108-35.45564 25.281413 14.490566 0.41108 35.455641zM245.568848 658.03613l-25.281413-14.593336-0.41108-35.45564 25.281413 14.593336 0.41108 35.45564zM291.404255 684.036933l-25.281413-14.593336-0.41108-35.45564 25.281413 14.593336 0.41108 35.45564zM337.239663 710.859896l-25.281413-14.490566-0.41108-35.455641 25.281413 14.490566 0.41108 35.455641z" fill="#5CA8EA" /><path d="M394.482537 430.606182L131.802489 277.890004 627.975913 0 889.217182 151.791248 394.482537 430.606182z" fill="#E0EFFB" /></svg>