<?xml version="1.0" standalone="no"?><!DOCTYPE svg PUBLIC "-//W3C//DTD SVG 1.1//EN" "http://www.w3.org/Graphics/SVG/1.1/DTD/svg11.dtd"><svg class="icon" width="48px" height="48.00px" viewBox="0 0 1024 1024" version="1.1" xmlns="http://www.w3.org/2000/svg"><path d="M332.176696 431.638261h339.300174c24.665043 0 44.699826-20.74713 44.699826-46.347131L715.909565 255.109565c0-25.6-20.034783-46.34713-44.699826-46.34713H331.865043c-24.709565 0-44.699826 20.74713-44.699826 46.34713l0.356174 130.181565c0 25.6 20.034783 46.34713 44.655305 46.347131z" fill="#00FFB0" /><path d="M220.649739 35.216696c-57.121391 0-103.602087 47.638261-103.602087 106.139826v762.212174c0 58.501565 46.480696 106.139826 103.602087 106.139826h561.730783c57.121391 0 103.602087-47.638261 103.602087-106.139826V141.356522c0-58.501565-46.480696-106.139826-103.602087-106.139826H220.649739z m584.392348 106.139826v762.212174c0 13.757217-10.195478 24.932174-22.706087 24.932174H220.694261c-12.466087 0-22.661565-11.174957-22.661565-24.932174V141.356522c0-13.757217 10.195478-24.932174 22.706087-24.932174h561.68626c12.466087 0 22.661565 11.174957 22.661566 24.932174z" fill="#000A64" /><path d="M671.165217 170.073043H331.865043c-46.925913 0-85.170087 39.001043-85.170086 86.950957v0.089043l0.356173 130.048c0 47.949913 38.199652 86.995478 85.125566 86.995479h339.300174c46.970435 0 85.170087-39.045565 85.170087-87.084522l-0.311653-130.048c0-47.949913-38.244174-86.995478-85.170087-86.995478z m0.311653 222.875827h-339.255653c-2.003478 0-4.229565-2.404174-4.229565-5.87687L327.68 256.979478c0-3.383652 2.226087-5.743304 4.229565-5.743304h339.255652c2.048 0 4.274087 2.404174 4.274087 5.921391l0.311653 130.003478c0 3.383652-2.226087 5.787826-4.229566 5.787827zM287.165217 607.721739h257.024a40.514783 40.514783 0 0 0 40.470261-40.648348 40.514783 40.514783 0 0 0-40.470261-40.603826H287.165217a40.514783 40.514783 0 0 0-40.47026 40.603826 40.514783 40.514783 0 0 0 40.514782 40.603826zM715.197217 526.469565h-41.405217a40.514783 40.514783 0 0 0-40.425739 40.603826 40.514783 40.514783 0 0 0 40.470261 40.603826h41.405217a40.514783 40.514783 0 0 0 40.425739-40.603826 40.514783 40.514783 0 0 0-40.470261-40.603826zM307.066435 660.346435h-19.856696a40.514783 40.514783 0 0 0-40.514782 40.603826 40.514783 40.514783 0 0 0 40.514782 40.603826h19.856696a40.514783 40.514783 0 0 0 40.514782-40.603826 40.514783 40.514783 0 0 0-40.514782-40.603826zM436.090435 660.346435h-19.901218a40.514783 40.514783 0 0 0-40.47026 40.603826 40.514783 40.514783 0 0 0 40.514782 40.603826h19.856696a40.514783 40.514783 0 0 0 40.470261-40.603826 40.514783 40.514783 0 0 0-40.514783-40.603826zM715.197217 660.346435h-41.405217a40.514783 40.514783 0 0 0-40.425739 40.603826 40.514783 40.514783 0 0 0 40.470261 40.603826h41.405217a40.514783 40.514783 0 0 0 40.425739-40.603826 40.514783 40.514783 0 0 0-40.470261-40.603826zM564.090435 660.346435h-19.901218a40.514783 40.514783 0 0 0-40.47026 40.603826 40.514783 40.514783 0 0 0 40.514782 40.603826h19.856696a40.514783 40.514783 0 0 0 40.514782-40.603826 40.514783 40.514783 0 0 0-40.514782-40.603826zM307.066435 794.267826h-19.856696a40.514783 40.514783 0 0 0-40.514782 40.559304 40.514783 40.514783 0 0 0 40.514782 40.603827h19.856696a40.514783 40.514783 0 0 0 40.514782-40.603827 40.514783 40.514783 0 0 0-40.514782-40.603826zM436.090435 794.267826h-19.901218a40.514783 40.514783 0 0 0-40.47026 40.559304 40.514783 40.514783 0 0 0 40.514782 40.603827h19.856696a40.514783 40.514783 0 0 0 40.470261-40.603827 40.514783 40.514783 0 0 0-40.514783-40.603826zM715.197217 794.267826h-41.405217a40.514783 40.514783 0 0 0-40.425739 40.559304 40.514783 40.514783 0 0 0 40.470261 40.603827h41.405217a40.514783 40.514783 0 0 0 40.425739-40.603827 40.514783 40.514783 0 0 0-40.470261-40.603826zM564.090435 794.267826h-19.901218a40.514783 40.514783 0 0 0-40.47026 40.559304 40.514783 40.514783 0 0 0 40.514782 40.603827h19.856696a40.514783 40.514783 0 0 0 40.514782-40.603827 40.514783 40.514783 0 0 0-40.514782-40.603826z" fill="#000A64" /></svg>