<?xml version="1.0" standalone="no"?><!DOCTYPE svg PUBLIC "-//W3C//DTD SVG 1.1//EN" "http://www.w3.org/Graphics/SVG/1.1/DTD/svg11.dtd"><svg class="icon" width="48px" height="48.00px" viewBox="0 0 1024 1024" version="1.1" xmlns="http://www.w3.org/2000/svg"><path d="M512 512m-510.246575 0a510.246575 510.246575 0 1 0 1020.49315 0 510.246575 510.246575 0 1 0-1020.49315 0Z" fill="#FF002E" /><path d="M512 512m-490.958904 0a490.958904 490.958904 0 1 0 981.917808 0 490.958904 490.958904 0 1 0-981.917808 0Z" fill="#FF6D87" /><path d="M608.210411 152.940712c9.352767 2.507397 39.553753-79.868493 43.940822-96.234959 4.383562-16.369973-3.727781-16.429589-13.080548-18.936986-9.356274-2.50389-16.412055-6.508712-20.795617 9.857754-4.383562 16.369973-19.420932 102.806795-10.064657 105.310684zM774.848877 249.151123c6.848877 6.84537 74.187397-49.390466 86.170301-61.37337 11.982904-11.982904 4.990247-16.089425-1.85863-22.934794-6.848877-6.852384-10.955397-13.845041-22.934795-1.862137-11.986411 11.982904-68.222247 79.324932-61.376876 86.170301zM871.059288 415.789589c2.507397 9.356274 88.944219-5.681096 105.310685-10.064657 16.369973-4.383562 12.365151-11.439342 9.86126-20.795617-2.507397-9.352767-2.567014-17.46411-18.936986-13.080548-16.366466 4.387068-98.742356 34.588055-96.234959 43.940822zM871.059288 608.210411c-2.507397 9.352767 79.868493 39.553753 96.234959 43.940822 16.369973 4.383562 16.429589-3.727781 18.936986-13.080548 2.50389-9.356274 6.508712-16.412055-9.857754-20.795617-16.369973-4.383562-102.806795-19.420932-105.310684-10.064657zM774.848877 774.848877c-6.84537 6.848877 49.390466 74.187397 61.37337 86.170301 11.982904 11.982904 16.089425 4.990247 22.934794-1.85863 6.852384-6.848877 13.845041-10.955397 1.862137-22.934795-11.982904-11.986411-79.324932-68.222247-86.170301-61.376876zM608.210411 871.059288c-9.356274 2.507397 5.681096 88.944219 10.064657 105.310685 4.383562 16.369973 11.439342 12.365151 20.795617 9.86126 9.352767-2.507397 17.46411-2.567014 13.080548-18.936986-4.387068-16.366466-34.588055-98.742356-43.940822-96.234959zM415.789589 871.059288c-9.352767-2.507397-39.553753 79.868493-43.940822 96.234959-4.383562 16.369973 3.727781 16.429589 13.080548 18.936986 9.356274 2.50389 16.412055 6.508712 20.795617-9.857754 4.383562-16.369973 19.420932-102.806795 10.064657-105.310684zM249.151123 774.848877c-6.848877-6.84537-74.187397 49.390466-86.170301 61.37337-11.982904 11.982904-4.990247 16.089425 1.85863 22.934794 6.848877 6.852384 10.955397 13.845041 22.934795 1.862137 11.986411-11.982904 68.222247-79.324932 61.376876-86.170301zM152.940712 608.210411c-2.507397-9.356274-88.944219 5.681096-105.310685 10.064657-16.369973 4.383562-12.365151 11.439342-9.86126 20.795617 2.507397 9.352767 2.567014 17.46411 18.936986 13.080548 16.366466-4.387068 98.742356-34.588055 96.234959-43.940822zM152.940712 415.789589c2.507397-9.352767-79.868493-39.553753-96.234959-43.940822-16.369973-4.383562-16.429589 3.727781-18.936986 13.080548-2.50389 9.356274-6.508712 16.412055 9.857754 20.795617 16.369973 4.383562 102.806795 19.420932 105.310684 10.064657zM249.151123 249.151123c6.84537-6.848877-49.390466-74.187397-61.37337-86.170301-11.982904-11.982904-16.089425-4.990247-22.934794 1.85863-6.852384 6.848877-13.845041 10.955397-1.862137 22.934795C174.963726 199.764164 242.305753 256 249.151123 249.15463zM415.789589 152.940712c9.356274-2.507397-5.681096-88.944219-10.064657-105.310685-4.383562-16.369973-11.439342-12.365151-20.795617-9.86126-9.352767 2.507397-17.46411 2.567014-13.080548 18.936986 4.387068 16.366466 34.588055 98.742356 43.940822 96.234959z" fill="#FFD5DD" /><path d="M512 512m-140.273973 0a140.273973 140.273973 0 1 0 280.547946 0 140.273973 140.273973 0 1 0-280.547946 0Z" fill="#FFD5DD" /><path d="M512 512m-105.205479 0a105.205479 105.205479 0 1 0 210.410958 0 105.205479 105.205479 0 1 0-210.410958 0Z" fill="#FF6D87" /><path d="M512 512m-70.136986 0a70.136986 70.136986 0 1 0 140.273972 0 70.136986 70.136986 0 1 0-140.273972 0Z" fill="#FFD5DD" /><path d="M631.177547 26.580315a10.520548 8.767123 15 1 0 20.324138 5.445836 10.520548 8.767123 15 1 0-20.324138-5.445836Z" fill="#FFA46D" /><path d="M857.921507 151.200192a10.520548 8.767123 45 1 0 14.878301 14.878301 10.520548 8.767123 45 1 0-14.878301-14.878301Z" fill="#FFA46D" /><path d="M991.973849 372.498315a10.520548 8.767123 75 1 0 5.445836 20.324138 10.520548 8.767123 75 1 0-5.445836-20.324138Z" fill="#FFA46D" /><path d="M997.419685 631.177547a8.767123 10.520548 15 1 0-5.445836 20.324138 8.767123 10.520548 15 1 0 5.445836-20.324138Z" fill="#FFA46D" /><path d="M872.799808 857.921507a8.767123 10.520548 45 1 0-14.878301 14.878301 8.767123 10.520548 45 1 0 14.878301-14.878301Z" fill="#FFA46D" /><path d="M651.501685 991.973849a8.767123 10.520548 75 1 0-20.324138 5.445836 8.767123 10.520548 75 1 0 20.324138-5.445836Z" fill="#FFA46D" /><path d="M392.822453 997.419685a10.520548 8.767123 15 1 0-20.324138-5.445836 10.520548 8.767123 15 1 0 20.324138 5.445836Z" fill="#FFA46D" /><path d="M166.078493 872.799808a10.520548 8.767123 45 1 0-14.878301-14.878301 10.520548 8.767123 45 1 0 14.878301 14.878301Z" fill="#FFA46D" /><path d="M32.026151 651.501685a10.520548 8.767123 75 1 0-5.445836-20.324138 10.520548 8.767123 75 1 0 5.445836 20.324138Z" fill="#FFA46D" /><path d="M26.580315 392.822453a8.767123 10.520548 15 1 0 5.445836-20.324138 8.767123 10.520548 15 1 0-5.445836 20.324138Z" fill="#FFA46D" /><path d="M151.200192 166.078493a8.767123 10.520548 45 1 0 14.878301-14.878301 8.767123 10.520548 45 1 0-14.878301 14.878301Z" fill="#FFA46D" /><path d="M372.498315 32.026151a8.767123 10.520548 75 1 0 20.324138-5.445836 8.767123 10.520548 75 1 0-20.324138 5.445836Z" fill="#FFA46D" /></svg>