<?xml version="1.0" standalone="no"?><!DOCTYPE svg PUBLIC "-//W3C//DTD SVG 1.1//EN" "http://www.w3.org/Graphics/SVG/1.1/DTD/svg11.dtd"><svg class="icon" width="48px" height="48.00px" viewBox="0 0 1024 1024" version="1.1" xmlns="http://www.w3.org/2000/svg"><path d="M0 0m51.2 0l921.6 0q51.2 0 51.2 51.2l0 921.6q0 51.2-51.2 51.2l-921.6 0q-51.2 0-51.2-51.2l0-921.6q0-51.2 51.2-51.2Z" fill="#F6F7FF" /><path d="M680.5248 629.981867c-1.5872-59.758933-42.197333-105.1904-101.512533-109.329067-44.450133-3.106133-89.275733-0.836267-133.930667-0.725333a75.818667 75.818667 0 0 0-17.408 2.269866c-51.780267 12.501333-84.974933 53.7344-86.016 107.733334-0.622933 32.913067-0.170667 65.851733-0.085333 98.781866 0.059733 22.016 7.569067 29.380267 29.8496 29.405867 46.250667 0.0512 92.5184 0.017067 138.7776 0.0256 47.428267 0 94.865067 0.085333 142.301866-0.034133 18.670933-0.0512 27.9552-8.746667 28.125867-26.990934 0.3072-33.706667 0.785067-67.447467-0.1024-101.137066z m-62.097067 14.711466c-17.339733 19.114667-36.360533 36.701867-54.587733 55.0144-4.795733 4.804267-9.3696 4.881067-14.165333 0.085334-18.2784-18.2784-37.162667-35.968-54.690134-54.920534-15.232-16.469333-14.933333-39.4496-1.109333-55.739733 14.114133-16.64 36.974933-20.002133 56.2688-8.2432 1.979733 1.2032 3.84 2.628267 6.664533 4.5824 16.597333-12.868267 33.979733-15.914667 51.874134-5.512533 23.261867 13.533867 28.245333 44.3648 9.745066 64.733866zM462.225067 476.330667c35.848533 24.746667 84.48 18.474667 112.938666-13.892267 29.064533-33.0496 28.996267-81.518933-0.878933-114.670933-5.213867-5.7856-6.203733-10.052267-3.8912-17.3568 5.9392-18.816-1.757867-39.543467-18.082133-52.113067-21.742933-16.733867-54.1184-18.397867-77.397334-3.968-21.563733 13.371733-29.448533 34.730667-22.9376 59.758933 0.904533 3.4816-0.853333 9.028267-3.387733 11.793067-15.5392 16.9728-23.278933 36.8128-24.046933 60.296533 1.152 29.047467 13.1328 53.205333 37.6832 70.152534z" fill="#5172FA" /></svg>