<?xml version="1.0" standalone="no"?><!DOCTYPE svg PUBLIC "-//W3C//DTD SVG 1.1//EN" "http://www.w3.org/Graphics/SVG/1.1/DTD/svg11.dtd"><svg class="icon" width="48px" height="48.00px" viewBox="0 0 1024 1024" version="1.1" xmlns="http://www.w3.org/2000/svg"><path d="M206.448 88.16a127.952 127.952 0 0 0 120.96-18.416C358.16 45.872 397.408 32 440 32 541.552 32 624 110.864 624 208s-82.448 176-184 176c-80.08 0-148.272-49.04-173.536-117.392C243.504 298.784 204.368 320 160 320c-70.64 0-128-53.776-128-120C32 133.776 89.36 80 160 80c16.384 0 32.048 2.896 46.448 8.16z" fill="#CBE9EA" /><path d="M656 192H16v656h154.512l38.256-48h53.008l59.6 48H656V192z" fill="#F73B2F" /><path d="M288 512a48.432 48 90 1 0 96 0 48.432 48 90 1 0-96 0Z" fill="#F73B2F" /><path d="M1005.904 592c1.36 4.88 2.096 10.416 2.096 16v240H832.512l-0.768-0.352L1008 846.912C874.144 847.36 780.192 725.408 723.472 592h282.432zM656 592h4.944v178.24L656 768V592z m0-240h185.6c23.632 0 45.344 13.024 56.464 33.888l102.4 192 0.416 1.056L912 416H669.664l-8.72-48v48H656v-64z" fill="#5AB947" /><path d="M656 784H16v64h176.592L240 816l48 32h368v-64zM16 192h640v64H426.72c-5.632 0-10.848 2.976-13.744 7.808-17.296 23.776-83.84 33.584-115.584 17.792a15.424 15.424 0 0 0-19.792 3.232c-36.16 35.376-150.032 23.04-173.248-18.992a15.344 15.344 0 0 0-14.064-9.2C67.616 256 16 256 16 256v-64z" fill="#D23228" /><path d="M1008 592h-2.096l-5.024-13.056L1008 592zM656 416h4.944v176H656z" fill="#CBE9EA" /><path d="M1000.88 578.944l5.024 13.056H723.472a857.648 857.648 0 0 1-53.808-176H912l88.88 162.944z" fill="#CBE9EA" /><path d="M723.472 592S853.68 847.424 1008 846.912l-176.256 0.736-170.8-77.408V592h62.528z" fill="#4D9D3C" /><path d="M673.664 438.016l16.336 59.712 1.04 4.176 0.608 1.856 3.232 11.76 5.52 14.784 5.456 16.576L723.472 592h-62.528V416h8.72l4 22.016z" fill="#ADC6C7" /><path d="M240 752c61.808 0 112 50.192 112 112s-50.192 112-112 112-112-50.192-112-112 50.192-112 112-112z m0 80a32 32 0 1 1-0.016 64.016A32 32 0 0 1 240 832z" fill="#FFD140" /><path d="M1008 704h-88a40 40 0 1 0 0 80H1008" fill="#FFFFFF" /><path d="M704 752c61.808 0 112 50.192 112 112s-50.192 112-112 112-112-50.192-112-112 50.192-112 112-112z m0 80a32 32 0 1 1-0.016 64.016A32 32 0 0 1 704 832z" fill="#FFD140" /><path d="M416 168c0 39.744-35.84 72-80 72-20.768 0-39.696-7.136-53.92-18.832C270.144 241.6 241.44 254.848 208 256c-72.064 2.496-96-57.088-96-88" fill="#CBE9EA" /><path d="M416 168c0 39.744-35.84 72-80 72-20.768 0-39.696-7.136-53.92-18.832C270.144 241.6 241.44 254.848 208 256c-72.064 2.496-106.752-116.976-96-88 11.168 30.096 97.712 78.352 170.08 0 13.744-14.896 20.544 27.936 53.92 28.112 60.24 0.336 80-28.112 80-28.112" fill="#ADC6C7" /></svg>