<?xml version="1.0" standalone="no"?><!DOCTYPE svg PUBLIC "-//W3C//DTD SVG 1.1//EN" "http://www.w3.org/Graphics/SVG/1.1/DTD/svg11.dtd"><svg class="icon" width="48px" height="48.00px" viewBox="0 0 1024 1024" version="1.1" xmlns="http://www.w3.org/2000/svg"><path d="M516.6592 515.0208m-436.2752 0a436.2752 436.2752 0 1 0 872.5504 0 436.2752 436.2752 0 1 0-872.5504 0Z" fill="#D7D4FF" /><path d="M516.6592 515.0208m-323.2768 0a323.2768 323.2768 0 1 0 646.5536 0 323.2768 323.2768 0 1 0-646.5536 0Z" fill="#AD9DFF" /><path d="M195.84 554.4448a320.8192 283.904 0 1 0 641.6384 0 320.8192 283.904 0 1 0-641.6384 0Z" fill="#9F89FF" /><path d="M203.0592 593.8176a313.6 244.48 0 1 0 627.2 0 313.6 244.48 0 1 0-627.2 0Z" fill="#8C6CFA" /><path d="M215.7568 633.2416a300.9024 205.1072 0 1 0 601.8048 0 300.9024 205.1072 0 1 0-601.8048 0Z" fill="#805AF9" /><path d="M234.3936 672.6144a282.2656 165.6832 0 1 0 564.5312 0 282.2656 165.6832 0 1 0-564.5312 0Z" fill="#764BF6" /><path d="M390.0928 688.8448c-12.288 0-24.3712-4.8128-33.4336-13.8752a47.26272 47.26272 0 0 1-10.5472-50.5344l71.168-182.016a47.34976 47.34976 0 0 1 26.7776-26.7776l182.016-71.168a47.26272 47.26272 0 0 1 50.5344 10.5472 47.29856 47.29856 0 0 1 10.6496 50.5344l-70.9632 182.272a47.39584 47.39584 0 0 1-26.88 26.88l-182.272 70.9632c-5.5296 2.0992-11.3152 3.1744-17.0496 3.1744z m82.176-218.2656l-57.088 145.9712 146.176-56.8832 56.8832-146.176-145.9712 57.088z" fill="#FFFFFF" /></svg>