<?xml version="1.0" standalone="no"?><!DOCTYPE svg PUBLIC "-//W3C//DTD SVG 1.1//EN" "http://www.w3.org/Graphics/SVG/1.1/DTD/svg11.dtd"><svg class="icon" width="48px" height="48.00px" viewBox="0 0 1024 1024" version="1.1" xmlns="http://www.w3.org/2000/svg"><path d="M511.804 959.99c-21.51 0-38.96-17.44-38.96-38.96V141.91c0-21.51 17.44-38.96 38.96-38.96s38.96 17.44 38.96 38.96v779.12c0 21.52-17.44 38.96-38.96 38.96z" fill="#4E1387" /><path d="M472.844 356.17h77.91v77.91h-77.91v-77.91z m19.48-116.87a77.857 77.857 0 0 0 58.43-26.88v-70.51c0-21.51-17.44-38.96-38.96-38.96s-38.96 17.44-38.96 38.96v94.66a77.937 77.937 0 0 0 19.49 2.73z" fill="#320E5B" /><path d="M511.804 959.99c-182.25 0.83-340.41-125.53-379.82-303.47-4.29-19.19 6.41-38.58 24.93-45.19l108.3-38.96c19.75-8.53 42.68 0.56 51.21 20.31 8.53 19.75-0.56 42.68-20.31 51.22-1.56 0.68-3.17 1.25-4.8 1.71l-74.02 26.49c56.08 162.73 233.46 249.18 396.19 193.11 90.37-31.15 161.45-102.04 192.83-192.33l-74.02-26.49c-20.44-6.71-31.58-28.71-24.88-49.15 6.7-20.45 28.71-31.59 49.16-24.88 0.75 0.25 1.48 0.51 2.21 0.8l108.3 38.96c18.53 6.61 29.22 25.99 24.93 45.19-39.76 177.76-198.05 303.78-380.21 302.68z m194.78-584.34c0-21.51-17.44-38.96-38.96-38.96h-311.64c-21.51 0-38.96 17.44-38.96 38.96s17.44 38.96 38.96 38.96h311.65c21.51 0 38.95-17.45 38.95-38.96zM511.804 64c-43.03 0-77.91 34.89-77.91 77.91s34.88 77.91 77.91 77.91 77.91-34.89 77.91-77.91S554.834 64 511.804 64z" fill="#8C33E2" /></svg>