<?xml version="1.0" standalone="no"?><!DOCTYPE svg PUBLIC "-//W3C//DTD SVG 1.1//EN" "http://www.w3.org/Graphics/SVG/1.1/DTD/svg11.dtd"><svg class="icon" width="48px" height="48.00px" viewBox="0 0 1024 1024" version="1.1" xmlns="http://www.w3.org/2000/svg"><path d="M363.4 625.3c0 22.3-8.5 44.5-25.4 61.5l-0.1 0.1-61.6 61.6-61.6 61.5-63.1-63.1-60.1-60.1-1.5-1.5c-17-17-25.5-39.3-25.5-61.6S73 579.1 90 562.1c4.8-4.8 10-8.9 15.5-12.4 26-16.2 58.6-17.4 85.6-3.7 8 4 15.4 9.4 22.1 16l1.5 1.5c13.4-13.4 30.2-21.5 47.6-24.3 4.6-0.8 9.3-1.1 14-1.1 13.6 0 27.2 3.2 39.5 9.5 7.9 4.1 15.4 9.4 22 16 17.1 17.1 25.6 39.4 25.6 61.7zM959.7 623.7c0 22.3-8.5 44.6-25.5 61.6l-1.5 1.5-60.1 60.1-63.1 63.1-123.2-123.2c-17-17-25.4-39.3-25.4-61.5 0-22.3 8.5-44.6 25.5-61.6 6.6-6.6 14-11.9 21.9-16 12.4-6.4 26.1-9.6 39.7-9.6 4.6 0 9.2 0.4 13.8 1.1 17.5 2.8 34.3 10.9 47.8 24.3l1.5-1.5c6.6-6.6 14-11.9 21.9-16 26.9-13.8 59.6-12.6 85.5 3.5 5.6 3.5 10.9 7.6 15.7 12.5 17 17.1 25.5 39.4 25.5 61.7z" fill="#FF9D83" /><path d="M918.4 549.6c-26-16.1-58.6-17.3-85.5-3.5C796.6 402.8 666.7 296.7 512 296.7c-154.6 0-284.5 106-320.9 249.3-27-13.7-59.6-12.5-85.6 3.7C142 358.5 310.1 214 512 214c201.8 0 369.9 144.5 406.4 335.6z" fill="#FFE2DE" /><path d="M832.9 546.2c-7.9 4-15.3 9.4-21.9 16l-1.5 1.5c-13.5-13.4-30.3-21.6-47.8-24.3C725.3 436.6 627.3 362.9 512 362.9c-115.3 0-213.3 73.6-249.7 176.4-17.4 2.8-34.1 10.9-47.6 24.3l-1.5-1.5c-6.7-6.7-14.1-12-22.1-16C227.5 402.8 357.4 296.7 512 296.7c154.7 0 284.6 106.1 320.9 249.5z" fill="#FFFFFF" /><path d="M761.7 539.3c-4.6-0.7-9.2-1.1-13.8-1.1-13.6 0-27.3 3.2-39.7 9.6-31.5-77.4-107.5-131.9-196.2-131.9-88.7 0-164.6 54.5-196.2 131.8-12.4-6.3-26-9.5-39.5-9.5-4.7 0-9.3 0.4-14 1.1C298.7 436.6 396.8 362.9 512 362.9c115.3 0 213.3 73.7 249.7 176.4z" fill="#FFE2DE" /></svg>