<?xml version="1.0" standalone="no"?><!DOCTYPE svg PUBLIC "-//W3C//DTD SVG 1.1//EN" "http://www.w3.org/Graphics/SVG/1.1/DTD/svg11.dtd"><svg class="icon" width="48px" height="48.00px" viewBox="0 0 1024 1024" version="1.1" xmlns="http://www.w3.org/2000/svg"><path d="M286.237781 275.541333c3.925333-13.141333 20.736-31.658667 31.317334-39.850666l13.056-17.834667c1.28-3.413333 2.474667-6.912 3.925333-10.581333 3.498667-9.045333 1.194667-22.954667 1.194667-22.954667l50.432 18.517333s-10.922667 15.104-14.250667 30.464c-1.877333 8.789333-1.194667 4.437333-2.133333 8.96-0.426667 1.962667-1.962667 20.992 12.8 39.168 0.085333 0.170667 0.256 0.256 0.341333 0.426667a57.591467 57.591467 0 0 1 10.837333 50.517333l-1.962666 7.594667-13.226667 50.858667s-84.224 24.32-76.202667 11.178666c16.896-27.648-33.365333-69.12-16.128-126.464z" fill="#FFE9D7" /><path d="M334.536448 207.274667c-1.194667 3.072-2.218667 5.973333-3.242667 8.874666 10.922667 12.032 26.197333 16.64 42.154667 11.861334 4.266667-13.312 12.8-25.002667 12.8-25.002667l-50.432-18.517333c-0.085333-0.170667 2.218667 13.738667-1.28 22.784z" fill="#F4D7C1" /><path d="M441.459115 126.72c2.56-59.221333-85.845333-88.234667-114.773334-33.792-0.085333 0.085333-0.085333 0.170667-0.085333 0.170667l-0.341333 0.682666c-3.072 11.008-5.290667 18.346667-7.168 25.856-6.144 24.064-4.010667 47.616 5.546666 70.314667 11.690667 27.648 38.229333 37.546667 63.914667 22.186667 31.829333-19.2 51.285333-47.530667 52.906667-85.418667z" fill="#FFE9D7" /><path d="M330.099115 37.376c-15.189333 5.12-23.381333 21.76-18.176 37.205333 5.205333 15.445333 21.674667 23.808 36.949333 18.688 15.189333-5.12 23.381333-21.76 18.176-37.205333-5.205333-15.445333-21.674667-23.808-36.949333-18.688z" fill="#F78700" /><path d="M340.509781 67.925333c10.581333-5.802667 18.090667-13.994667 20.992-21.589333a29.124267 29.124267 0 0 0-31.402666-8.96c-15.104 5.034667-23.210667 21.418667-18.346667 36.778667 7.936 1.450667 18.602667-0.597333 28.757333-6.229334z" fill="#FFB814" /><path d="M309.277781 127.146667c3.157333-23.552 17.408-76.458667 87.210667-64.256 26.368 4.608 47.701333 31.573333 51.285333 57.344 2.133333 15.530667-5.973333 43.52-13.994666 42.666666l2.389333-22.016c-15.872 19.712-31.488 10.581333-41.472 12.544-2.730667 6.570667-10.752 21.76-13.653333 27.221334-3.925333 7.68-0.085333-24.405333 2.048-35.584-0.085333 0-0.170667 0-0.341334-0.085334-25.344-13.397333-27.136 10.837333-22.442666 27.648l1.792 4.949334c0.426667 0.853333 0.341333 1.194667 0 1.024 0 5.034667-9.557333 26.794667-25.002667 23.04-17.408-4.096-33.194667-34.730667-27.818667-74.496z" fill="#FFB814" /><path d="M362.269781 178.688c0.341333 0.170667 0.341333-0.170667 0-1.024l-1.792-4.949333c-2.645333-9.386667-3.242667-20.992 1.109334-27.221334-47.701333 2.389333-49.834667-30.72-49.834667-30.72-1.109333 4.608-1.877333 8.789333-2.389333 12.373334-5.376 39.765333 10.410667 70.4 27.904 74.666666 15.36 3.669333 25.002667-18.090667 25.002666-23.125333z" fill="#F78700" /><path d="M977.181781 804.864s22.784-10.325333 34.474667 0.597333 16.298667 22.869333 8.874667 40.618667c-7.424 17.749333-14.762667 29.525333-10.154667 39.082667s-26.709333 29.269333-54.016 25.258666c-27.306667-4.010667 12.544-38.912 12.544-38.912s7.509333-21.504 0.512-32.341333c-6.912-10.752 7.765333-34.304 7.765333-34.304z" fill="#FFB814" /><path d="M1011.656448 805.376c-2.304-2.133333-5.034667-3.413333-7.936-4.181333 10.581333 10.496 14.421333 22.186667 7.338667 39.168-7.424 17.749333-14.762667 29.525333-10.154667 39.082666s-26.453333 29.184-53.674667 25.344c0.938667 2.730667 3.669333 4.778667 9.130667 5.632 27.306667 4.010667 58.624-15.701333 54.016-25.258666-4.608-9.557333 2.730667-21.418667 10.154667-39.082667 7.424-17.749333 2.816-29.781333-8.874667-40.704z" fill="#F78700" /><path d="M602.483115 872.448c-18.090667 10.581333-34.389333 9.728-51.285334 22.101333-2.645333 1.877333-12.202667 6.058667-11.776 9.642667 1.365333 11.861333 22.101333 20.650667 30.890667 21.077333 15.104 0.682667 28.842667-2.645333 43.776-2.986666 11.861333-0.256 35.413333 3.242667 46.677333-0.341334 5.802667-1.792 7.594667-15.36 7.765334-23.381333 0.085333-2.816-5.376-10.837333-5.802667-12.288-9.216 1.792-14.336 6.485333-25.6 2.304-2.133333-2.048-4.864-2.986667-8.192-2.901333-9.642667-13.568-16.213333-19.456-19.797333-17.493334-2.304 1.194667-4.352 2.901333-6.656 4.266667z" fill="#FFB814" /><path d="M661.619115 912.896c-11.264 3.584-34.816 0-46.677334 0.341333-14.933333 0.341333-28.586667 3.669333-43.776 2.986667-7.509333-0.341333-23.637333-6.826667-29.098666-16.128-1.621333 1.28-2.816 2.645333-2.645334 3.925333 1.365333 11.861333 22.101333 20.650667 30.890667 21.077334 15.104 0.682667 28.842667-2.645333 43.776-2.986667 11.861333-0.256 35.413333 3.242667 46.677333-0.341333 5.632-1.792 7.509333-14.677333 7.765334-22.784-1.024 6.570667-3.157333 12.714667-6.912 13.909333z" fill="#F78700" /><path d="M780.488448 601.429333s-43.093333 203.434667-0.256 282.794667c9.301333 17.152 124.672-8.362667 170.069333-4.608 22.698667 1.877333 42.752-27.648 45.397334-50.261333 0.768-6.656 1.706667-14.933333 2.730666-22.186667 0.768-5.205333-3.754667-8.448-8.96-8.533333-36.778667-0.256-142.165333 29.013333-142.165333 13.141333 0-40.533333 32.597333-109.226667 27.136-178.005333-1.877333-23.637333-14.421333-25.941333-37.632-30.890667-12.714667-2.474667-46.08-3.925333-56.32-1.450667z" fill="#05A336" /><path d="M608.456448 650.837333c57.344-39.509333 257.109333-36.352 257.109333-36.352 4.266667 11.434667 8.362667 28.842667 6.656 44.8-2.474667 22.613333-15.872 40.533333-38.485333 43.093334-47.36 5.546667-139.008 1.109333-152.064 3.584-18.773333 3.584-5.717333 176.810667-5.717333 178.005333 0.085333 16.298667-67.925333 18.773333-69.290667 0.426667-0.085333 0.085333-18.944-219.306667 1.792-233.557334z" fill="#05A336" /><path d="M694.216448 508.757333c-2.389333-2.389333-11.178667-2.218667-11.178667-2.218666l-14.165333-11.861334s-13.226667-13.312-13.994667-13.653333c-1.109333-1.024-6.144-4.096-8.448-4.096-1.877333 0-2.304 2.218667-2.816 1.877333-0.938667-0.682667-1.28-0.853333-1.962666-0.853333-1.194667 0-2.645333 0.426667-3.242667 2.048-0.256 0.768-1.621333 0.597333-1.792 0.426667-3.498667-2.474667-4.608-2.133333-4.608-2.133334s-7.509333 4.352-12.288 5.546667c-4.778667 1.109333-9.813333 5.034667-9.813333 5.034667s-6.144 4.266667-7.509334 5.12c-1.450667 0.853333-3.242667 5.205333 1.536 7.68 4.522667 2.304 19.882667-4.010667 19.882667-4.010667l12.288 8.192 8.021333 8.874667c0.170667 1.024-0.597333 1.877333-1.621333 1.877333-2.645333-0.085333-7.253333-0.426667-8.192-1.450667-1.365333-1.450667-6.997333-7.168-10.922667-6.997333-3.84 0.170667-5.290667 4.778667-3.584 5.12 1.706667 0.341333 7.509333 10.24 8.277334 10.581333 0.768 0.341333 7.509333 1.450667 14.762666 5.034667 7.253333 3.584 9.898667 0.341333 16.042667 2.645333 6.058667 2.389333 16.213333-1.28 17.749333-1.536 1.450667-0.170667 5.461333 3.328 5.461334 3.328 15.189333-6.570667 14.506667-22.101333 12.117333-24.576z m-55.978667-27.050666z" fill="#F4D7C1" /><path d="M637.043115 494.848c-8.192-5.461333-9.386667-6.656-14.165334-3.413333s-17.493333 4.608-18.773333 6.570666c-0.853333 1.28 0.426667 3.072 1.365333 4.181334a4.096 4.096 0 0 1-1.450666-0.426667c-4.778667-2.474667-2.986667-6.741333-1.536-7.68 0.426667-0.256 1.365333-0.853333 2.304-1.536 6.144-1.365333 16.042667-3.498667 18.005333-4.522667 2.816-1.536 6.997333-1.621333 8.789333 0.682667 1.792 2.389333 16.981333 11.178667 16.981334 11.178667s-3.242667 0.341333-11.52-5.034667z" fill="#EAC0A9" /><path d="M694.472448 509.013333c0.085333 0.085333 0.085333 0.170667 0.170667 0.256 0.085333 0.085333 0.085333 0.170667 0.170666 0.256 0.085333 0.085333 0.085333 0.170667 0.170667 0.341334l0.256 0.768c0.085333 0.256 0.170667 0.597333 0.170667 0.938666-3.925333-1.536-11.093333-2.389333-12.544-2.304-1.792 0.170667-21.333333-18.517333-25.344-23.04-3.925333-4.522667-8.618667-7.850667-9.557334-6.741333-1.450667 1.706667 3.242667 4.778667 2.474667 5.461333-0.938667 0.853333-4.608-2.816-5.717333-3.669333-1.109333-0.853333-2.474667-1.365333-3.584-0.512s0.853333 4.437333 3.669333 6.485333c0.768 0.597333 11.52 6.229333 12.629333 6.826667 0.085333 0 0.170667 0.085333 0.170667 0.170667 0.170667 0.341333 0.426667 1.28-1.28 2.218666-2.133333 1.194667-12.8-4.266667-16.810667-8.192-4.010667-3.925333-7.594667-7.168-9.728-5.205333-2.133333 1.962667-11.349333 3.84-13.824 5.034667-1.962667 1.024-3.157333 3.584-3.498666 4.437333-0.085333 0.170667-0.256 0.256-0.426667 0.256l-5.632-0.597333c-0.256 0-0.426667-0.256-0.341333-0.426667 0-0.170667 0.085333-0.256 0.170666-0.341333 1.792-1.28 3.584-2.474667 3.754667-2.56 0.256-0.170667 5.12-4.010667 9.813333-5.034667 4.522667-1.024 11.434667-5.034667 12.202667-5.461333 0.085333 0 0.085333-0.085333 0.170667-0.085334 0.341333 0 1.792 0 4.522666 2.133334 0.170667 0.085333 1.450667 0.341333 1.792-0.426667 0.597333-1.536 2.048-2.048 3.242667-2.048 0.682667 0 1.024 0.170667 1.962667 0.853333 0.512 0.341333 1.024-1.962667 2.816-1.877333 2.048 0 5.461333 2.133333 5.802666 2.304 3.328 1.450667 12.458667 11.178667 15.957334 14.762667 1.536 1.536 13.397333 11.349333 14.677333 12.373333 0.085333 0.085333 0.170667 0.085333 0.256 0.085333 1.194667 0 8.874667 0 11.008 2.218667 0.085333 0.170667 0.170667 0.256 0.256 0.341333-0.085333 0-0.085333 0 0 0zM645.320448 518.656c-0.256 1.024-9.216 2.730667-12.885333-1.792-3.669333-4.522667-7.082667-5.205333-7.082667-5.205333-5.888-0.512-4.181333 2.645333-4.181333 2.645333-0.512-0.512-0.853333-0.853333-1.194667-0.938667-1.706667-0.341333-0.256-4.949333 3.584-5.12 3.84-0.170667 9.557333 5.632 10.922667 6.997334 0.938667 1.024 5.546667 1.28 8.192 1.450666 1.024 0 1.792-0.853333 1.621333-1.877333 2.389333 2.56 1.28 2.730667 1.024 3.84z" fill="#EAC0A9" /><path d="M797.896448 331.946667l6.826667 49.92 39.082666-26.88-3.584-30.378667z" fill="#F4D7C1" /><path d="M840.221781 324.608l-42.325333 7.338667 5.034667 36.608c7.594667-0.938667 15.36-3.84 22.954666-8.96 6.485333-4.352 12.032-9.216 16.725334-14.506667l-2.389334-20.48z" fill="#EAC0A9" /><path d="M772.125781 401.237333c5.888-24.746667 8.789333-25.856 16.981334-32.682666 3.84-3.157333 6.997333-5.205333 9.642666-6.570667-13.226667 19.456-20.48 56.832-22.613333 77.482667l-6.144 50.005333c-3.84 13.738667-5.973333 19.114667-6.144 20.053333L747.891115 640.853333c0.170667 7.68 2.389333 7.253333 5.973333 9.472-5.546667-0.085333-11.946667-0.768-17.152-1.450666-5.717333-0.768-9.642667-6.144-8.618667-11.776l28.16-155.392c0.085333 0.085333 9.216-52.053333 15.872-80.469334z" fill="#05A336" /><path d="M765.811115 478.72l-1.962667 30.890667-18.261333 126.890666c0.170667 7.68-0.597333 11.434667 3.072 13.653334-2.986667-0.085333-6.997333-0.512-6.485334-0.512-0.512 0-2.816-2.645333-3.072-3.328-0.768-2.048-0.682667-4.181333-0.768-6.314667-0.085333-1.962667 0.170667-3.754667 0.426667-5.632 0.170667-1.28 1.109333-7.509333 1.365333-9.216 0.341333-2.133333 23.296-136.106667 23.381334-136.533333 0.256 0 1.109333-4.096 2.304-9.898667z" fill="#008941" /><path d="M801.565781 358.741333s-25.770667 17.578667-28.928 40.874667c-3.157333 23.296-9.216 111.701333-9.216 111.701333l40.789334-143.445333-2.645334-9.130667z" fill="#05A336" /><path d="M772.125781 401.237333c-2.133333 8.96-4.437333 20.138667-6.656 31.402667-2.901333 34.133333-5.888 78.336-5.888 78.336l5.034667-15.701333c1.877333-26.624 5.802667-78.592 8.106667-95.658667 0.085333-0.597333 0.256-1.28 0.341333-1.877333-0.341333 1.109333-0.597333 2.304-0.938667 3.498666z" fill="#008941" /><path d="M804.211115 367.872l-5.546667-4.010667c-15.274667 17.834667-20.138667 53.504-22.528 75.690667L753.608448 618.325333l98.56 7.338667s63.232-222.293333 1.877333-255.232l-49.834666-2.56z" fill="#E4F4E8" /><path d="M794.739115 412.416c5.888-15.274667 4.522667-12.885333 9.813333-17.749333 12.885333-11.690667 21.504-25.856 42.24-30.293334 6.4 1.792 13.312 3.925333 17.322667 9.216 12.629333 17.066667 16.554667 27.989333 20.48 52.650667 5.973333 37.632 3.498667 56.064-8.192 121.002667-8.448 46.762667 7.936 63.829333 5.973333 92.245333-0.682667 9.472-4.437333 10.752-14.336 10.837333-26.709333 0.256-73.813333 8.96-98.304 3.157334-20.053333-4.693333-30.122667 1.194667-30.549333-16.810667l24.832-127.146667c0.426667-2.133333 15.274667-57.002667 30.72-97.109333z" fill="#05A336" /><path d="M876.403115 547.242667c3.242667-18.005333 8.704-56.490667 10.581333-68.864v-0.085334c-0.256 0.682667-24.064 77.738667-32.426667 94.634667-8.106667 16.469333 12.458667 30.72 6.144 77.653333 2.56-0.170667 4.949333-0.256 7.253334-0.256 8.448-0.085333 12.458667-1.024 13.824-7.168 0.256-1.109333 0.426667-2.304 0.512-3.669333 2.048-28.416-14.336-45.482667-5.888-92.245333zM862.237781 426.666667c-6.144-22.698667-25.6-20.565333-34.986666-6.826667-6.741333 9.898667-11.605333 27.733333-15.786667 39.338667C795.677781 503.466667 801.395115 545.194667 801.395115 545.194667s-24.832 2.218667-54.357334 10.837333l-2.133333 22.954667c24.490667 11.093333 44.458667 25.429333 51.626667 22.954666 24.32-8.277333 56.576-38.058667 65.365333-125.696 1.706667-17.664 2.901333-39.936 0.341333-49.578666z" fill="#008941" /><path d="M779.891115 439.978667a142.421333 142.421333 0 0 1 34.474666-60.330667l-10.154666-11.776c-21.674667 32.512-32.768 104.533333-32.768 104.618667 2.474667-10.24 5.376-21.589333 8.448-32.512z" fill="#CFE2D3" /><path d="M863.517781 269.909333c1.024 22.016-5.12 46.506667-24.661333 65.792-17.664 17.408-39.594667 18.688-58.624 3.328-24.234667-19.626667-35.669333-46.250667-33.792-77.226666 1.962667-31.146667 27.392-51.968 60.16-51.882667 31.402667 0.085333 53.248 21.504 56.917333 59.989333z" fill="#F4D7C1" /><path d="M746.952448 234.410667c1.194667-1.450667 11.690667-8.448 14.592-9.728a56.661333 56.661333 0 0 0 14.848-9.557334c12.885333-11.178667 50.261333-5.973333 50.261333-5.973333 50.944 18.773333 48.042667 79.189333 34.048 111.189333-5.717333 12.970667-14.506667 14.933333-20.309333 17.322667-19.968 8.192-25.344-30.634667-25.344-30.634667s25.002667-23.125333 7.082667-30.122666c-17.92-7.082667-9.813333 26.88-17.408 12.714666-0.938667-1.792-1.792-3.584-2.474667-5.461333-4.352-11.52-17.237333-17.152-28.501333-12.117333-13.653333 6.058667-28.330667 9.301333-31.232-2.730667 0-0.085333-5.888-21.845333 4.437333-34.901333z" fill="#9E6100" /><path d="M840.392448 337.664c5.717333-2.389333 14.592-4.352 20.309333-17.322667 8.362667-19.114667 12.714667-48.384 4.010667-72.874666 4.778667 22.528-17.408 35.242667-27.989333 28.928-10.666667-6.314667-22.016 0.085333-22.016 0.085333 1.792-0.938667 4.181333-1.024 7.509333 0.256 17.92 7.082667-7.082667 30.122667-7.082667 30.122667s5.290667 38.997333 25.258667 30.805333z" fill="#7F4B00" /><path d="M784.669781 256.256c-35.072 23.04-43.349333 5.12-43.52 4.778667 0.512 4.864 1.365333 8.192 1.365334 8.192 2.901333 12.117333 17.578667 8.789333 31.232 2.730666 11.264-5.034667 24.149333 0.682667 28.501333 12.117334 0.682667 1.877333 1.536 3.669333 2.474667 5.461333 2.133333 3.925333 3.072 4.181333 3.584 2.56-0.682667-37.290667-23.637333-35.84-23.637334-35.84z" fill="#7F4B00" /><path d="M854.301781 367.274667l-9.642666-5.034667-46.506667 42.922667c-12.544 19.456-40.106667 120.149333-40.106667 120.149333l57.088-95.317333-10.24-10.154667 16.298667 1.877333 33.109333-54.442666z" fill="#008941" /><path d="M851.144448 365.824l-4.096-18.176-23.893333 23.466667c-20.821333 18.261333-35.84 42.154667-43.264 68.778666-8.874667 31.744-16.554667 67.413333-16.554667 67.413334l46.506667-80.554667-7.594667-10.581333 13.994667 1.706666 34.901333-52.053333z" fill="#05A336" /><path d="M853.960448 425.642667c-3.328-23.04-23.381333-22.954667-33.194667-9.984-7.168 9.301333-17.493333 25.088-22.442666 36.352-13.226667 30.208-17.834667 59.477333-19.370667 74.069333-0.341333 3.584 1.365333 9.557333-6.570667 5.12-6.229333-3.498667-67.754667-22.442667-87.893333-31.573333a5.230933 5.230933 0 0 0-6.741333 2.218666c-4.608 8.277333-6.826667 29.781333-11.349334 38.229334a4.181333 4.181333 0 0 0 2.048 5.888c16.042667 7.082667 89.344 30.976 113.322667 43.008 2.986667 1.450667 6.229333 0.938667 9.386667 0.170666 10.154667-2.389333 53.333333-73.045333 60.501333-123.733333 2.56-17.664 3.669333-30.037333 2.304-39.765333z" fill="#05A336" /><path d="M815.816448 414.464c-17.152 22.528-27.050667 55.552-33.024 82.858667-0.426667 1.877333-3.242667 25.514667-4.608 34.304-0.170667 0.853333-1.024 1.28-1.792 0.938666-12.117333-5.205333-70.229333-23.808-92.416-33.450666-2.218667-0.938667-4.608 0.085333-5.888 2.133333-2.816 4.352-4.522667 10.837333-5.461333 16.64 0.341333 1.194667 4.010667-2.56 4.693333-3.84 2.730667-4.864 6.741333-6.997333 9.898667-6.826667 1.962667 0.085333 3.754667 0.853333 5.376 1.962667 8.448 5.888 67.157333 28.074667 74.410666 30.037333 7.850667 2.133333 3.669333 2.133333 11.776 9.984 0.512 0.512 1.536 0.938667 2.218667 1.024 6.656 0.853333 3.925333-4.778667 3.925333-4.778666s-1.365333-2.816 1.194667-4.522667c0.853333-0.597333 2.218667-0.597333 4.608 1.109333 6.656 4.693333 5.376-1.194667 5.376-1.194666-5.12-4.181333-2.901333-18.090667-2.901333-18.090667s14.677333-50.602667 24.149333-83.456c9.472-32.853333 29.781333-28.501333 29.781333-28.501333-7.509333-7.936-24.149333-5.632-31.317333 3.669333z" fill="#08C13D" /><path d="M789.533781 379.050667l14.762667-11.178667-2.645333-9.130667c-0.085333 0-9.130667 10.666667-12.117334 20.309334z" fill="#FFFFFF" /><path d="M847.048448 343.637333l-42.837333 24.234667 1.962666 21.077333 40.789334-26.88z" fill="#FFFFFF" /><path d="M846.621781 362.24l-40.448 26.709333-1.962666-21.077333-14.677334 11.178667-2.389333 5.888L799.603115 375.466667l1.877333 26.624 45.056-34.389334z" fill="#CFE2D3" /><path d="M441.459115 126.72c-21.162667 27.562667-43.52 15.701333-50.432 17.664-6.912 1.877333-9.984 36.352-9.984 36.352 2.816-5.461333 10.922667-20.650667 13.653333-27.221333 9.984-2.048 25.6 7.082667 41.472-12.544l-2.389333 22.016c6.314667-11.776 7.68-36.266667 7.68-36.266667z" fill="#F78700" /><path d="M867.955115 650.410667c-26.709333 0.256-73.813333 8.96-98.304 3.157333-20.053333-4.693333-30.122667 1.194667-30.549334-16.810667l3.754667-19.285333s-11.861333 35.242667-8.021333 41.130667c3.84 5.888 102.058667 8.533333 119.722666 4.608 17.664-3.925333 16.810667 1.877333 16.810667 1.877333l4.352-15.36c-2.048 0.512-4.608 0.597333-7.765333 0.682667z" fill="#008941" /><path d="M989.384448 798.72c-5.034667 0-11.349333 0.512-18.432 1.365333 20.650667 19.882667-0.938667 48.298667-4.522667 55.637334-4.181333 8.618667-129.706667 32.768-167.594666 15.616-37.888-17.152-12.970667-166.144-12.970667-166.144 2.304-13.226667 2.389333-27.392-6.485333-19.2l-1.536 1.109333c-16.469333 10.24-93.781333 6.997333-98.986667 7.68-5.376 0.597333-6.229333-8.021333-13.056-2.56-3.498667 2.816 4.266667 6.058667 0 11.093333-4.266667 5.034667-5.888-8.618667-15.189333-2.730666s16.810667 12.544 11.008 21.76c-5.888 9.216-8.362667 85.418667-4.181334 120.149333s-10.922667 33.109333-32.768 32.256c-9.813333-0.341333-15.957333-6.229333-19.882666-12.629333 1.024 13.909333 1.792 22.442667 1.792 22.442666 1.28 18.432 69.376 15.872 69.290666-0.426666 0-1.194667-13.056-174.421333 5.717334-178.005334 7.936-1.536 44.970667-0.512 83.370666-0.682666-6.144 62.378667-7.168 137.472 15.189334 178.858666 9.301333 17.152 124.672-8.362667 170.069333-4.608 22.698667 1.877333 42.752-27.648 45.397333-50.261333 0.768-6.656 1.706667-14.933333 2.730667-22.186667 0.853333-5.205333-3.669333-8.533333-8.96-8.533333z" fill="#008941" /><path d="M592.840448 449.450667c-1.621333-1.621333-6.229333-2.56-10.410667-3.242667-6.485333-1.194667-8.192-2.474667-14.421333-4.949333l-1.792-0.682667c-2.730667-0.341333-10.922667-3.584-13.738667-4.181333-5.12-1.194667-3.072-0.682667-8.192-1.706667-3.498667-0.682667-9.472 0.853333-16.554666-0.256-0.597333-0.085333-1.194667-0.170667-1.792-0.341333-7.424-1.28-14.592-3.925333-21.162667-7.765334-15.274667-8.874667-48.64-27.392-80.469333-38.4-3.584-16.384-13.397333-37.546667-18.005334-48.981333-5.802667-14.336-13.056-40.021333-22.784-54.016-5.461333-7.850667-12.714667-14.336-23.722666-9.813333-9.898667 4.096-12.885333 13.909333-11.093334 23.296 3.669333 19.370667 12.544 39.765333 18.688 54.869333 6.741333 16.469333 16.554667 33.706667 26.624 49.578667 1.962667 6.4 9.216 10.496 9.216 10.496s32.341333 23.210667 102.144 35.925333c2.901333 7.424 10.496 7.082667 10.496 7.082667s20.309333 0.853333 25.941334-1.706667c2.645333-1.194667 5.888-0.853333 8.704-0.682667 4.096 0.256 8.192 2.56 12.373333 2.986667 2.816 0.256 5.546667 0.256 8.362667-0.512 0.938667-0.256 2.304-0.682667 2.901333-1.792 0.085333-0.170667 0.170667-0.341333 0.170667-0.512 0 0 0.085333-1.877333 2.389333-1.28 4.096 1.109333 10.666667 1.28 10.752 1.28 1.109333-0.170667 1.877333-0.256 2.048-0.256 1.28 0.085333 5.632-2.133333 3.328-4.437333z" fill="#FFE9D7" /><path d="M578.589781 451.669333c-3.157333-1.109333-6.485333-1.450667-9.557333-2.816-3.413333-1.450667-6.826667-2.474667-10.325333-3.498666-1.621333-0.426667-3.328-0.938667-4.949334-1.365334-0.512-0.170667-5.290667-1.621333-5.12-0.170666 0.170667 0.938667 3.157333 1.450667 3.84 1.621333 1.365333 0.341333 2.730667 0.682667 4.010667 1.024 1.109333 0.341333 2.218667 0.682667 3.328 0.938667 1.194667 0.341333 2.304 0.682667 3.498667 1.109333 2.816 1.109333 5.802667 2.048 8.533333 3.584 0.512 0.341333 1.024 0.682667 1.365333 1.194667 0 0 0.341333 1.365333-5.376 1.28-4.437333 0-10.154667-2.048-10.154666-2.048s-8.874667-3.328-12.288-2.730667c-3.498667 0.597333-9.984 2.048-15.36 1.962667-5.376-0.085333-13.141333-0.682667-15.274667-1.706667-2.133333-1.024-4.864-2.730667-4.864-2.730667s-34.133333-11.946667-36.608-12.8c-9.472-3.157333-38.570667-14.250667-58.709333-24.405333a42.837333 42.837333 0 0 1-19.968-20.906667c-2.048-4.608-4.778667-10.24-8.277334-16.554666-7.509333-13.312-27.392-55.637333-33.450666-78.165334 0 0-3.242667 9.130667-0.853334 17.237334 4.352 15.018667 10.666667 29.781333 15.445334 41.386666 6.741333 16.469333 16.554667 33.706667 26.624 49.578667 1.962667 6.4 9.216 10.496 9.216 10.496s32.341333 23.210667 102.144 35.925333c2.901333 7.424 10.496 7.082667 10.496 7.082667s20.309333 0.853333 25.941333-1.706667c2.645333-1.194667 5.888-0.853333 8.704-0.682666 4.096 0.256 8.192 2.56 12.373333 2.986666 2.816 0.256 5.546667 0.256 8.362667-0.512 0.938667-0.256 2.304-0.682667 2.901333-1.792 0.085333-0.170667 0.170667-0.341333 0.170667-0.512 0 0 0.085333-1.877333 2.389333-1.28 2.474667 0.682667 5.973333 1.024 8.277334 1.194667-2.133333-0.426667-4.608-1.621333-6.485334-2.218667z" fill="#EAC0A9" /><path d="M400.840448 437.589333c-4.096-7.509333-7.509333-15.36-10.581333-23.296-2.986667-7.765333-6.741333-15.786667-8.192-23.978666-2.816-16.213333 1.792-33.194667 8.448-47.872 6.570667-14.592 11.605333-38.912 2.901333-49.92-2.474667-3.157333-5.461333-6.144-8.704-8.96-13.226667-2.218667-27.562667-0.512-36.693333 9.813333-11.861333 13.312-8.362667 33.792-30.378667 38.058667-10.069333 1.962667-25.002667 1.365333-32.682667-6.058667 2.730667 14.165333 13.312 33.28 17.578667 46.592 3.669333 11.178667 3.072 21.077333-0.170667 30.122667-14.592 18.517333-30.890667 35.498667-45.653333 53.930666-13.482667 16.810667-26.538667 33.877333-39.168 51.285334-13.653333 18.858667-26.965333 38.058667-38.997333 58.112C143.219115 624.64 45.853781 812.117333 0.115115 893.44c-0.853333 3.84 3.242667 8.362667 5.546666 11.178667 15.701333 19.626667 37.802667 23.808 59.050667 21.930666 2.56-0.256 5.461333-0.597333 7.168 1.792 1.109333 1.536 0.938667 3.584-0.426667 4.949334-1.194667 1.194667-2.389333 2.304-3.157333 3.072-7.594667 6.656 27.306667 25.258667 31.317333 27.050666 29.013333 12.885333 70.229333 28.16 102.570667 24.234667 30.293333-3.754667 65.877333-6.485333 93.269333-20.906667 6.485333-3.413333 49.408-19.456 49.408-19.456l-3.072 17.578667c67.669333 24.234667 131.754667-9.216 131.754667-9.216 1.706667-0.426667 2.304-4.949333 2.048-12.885333 3.754667-9.984 13.994667-22.442667 41.472-24.490667 0 0 5.12 2.218667 12.458667 2.304 26.368 0.085333 32.085333-18.261333 32.085333-18.261333l31.829333-12.714667c-19.626667-57.6-180.650667-430.165333-192.597333-452.010667z" fill="#FF9797" /><path d="M168.989781 986.026667c11.52 1.962667 22.869333 2.730667 33.28 1.450666 9.130667-1.109333 18.773333-2.133333 28.586667-3.498666 4.437333-2.389333 8.789333-5.461333 13.397333-9.472 28.330667-25.173333 54.357333-413.44 54.357334-413.44-60.586667 257.962667-89.770667 375.552-129.621334 424.96zM473.629781 955.477333s-3.413333-33.962667 43.52-37.376L377.971115 542.890667l95.658666 412.586666zM577.651115 894.634667L417.821781 497.92l136.874667 414.634667c4.949333-5.461333 7.082667-10.410667 7.082667-10.410667s4.949333-3.498667 15.530666-6.656l0.341334-0.853333z" fill="#FF7166" /><path d="M386.931115 973.312L332.061781 599.466667l12.970667 347.648-3.072 17.578666c15.36 5.546667 30.634667 8.021333 44.970667 8.618667z" fill="#FFBCC5" /><path d="M295.624448 966.570667c0.256-0.170667 0.597333-0.341333 1.024-0.512 0.256-0.085333 0.426667-0.256 0.768-0.341334 0.085333-0.085333 0.256-0.085333 0.426667-0.170666 1.28-0.597333 2.816-1.28 4.693333-2.048h0.085333s0.085333 0 0.085334-0.085334c1.194667-0.512 2.389333-1.024 3.754666-1.536 0.085333-0.085333 0.256-0.085333 0.341334-0.170666 0.341333-0.170667 0.768-0.341333 1.194666-0.512l1.28-0.512c0.170667-0.085333 0.426667-0.170667 0.597334-0.256 0.341333-0.085333 0.597333-0.256 0.938666-0.341334 0.170667-0.085333 0.256-0.085333 0.426667-0.170666 0.341333-0.170667 0.682667-0.256 1.024-0.426667 0.085333 0 0.170667-0.085333 0.256-0.085333 0.512-0.170667 1.024-0.426667 1.536-0.597334 0.170667-0.085333 0.341333-0.170667 0.597333-0.256 9.045333-3.584 19.114667-7.338667 25.088-9.642666 3.242667-1.194667 5.205333-1.962667 5.290667-1.962667 0.682667-9.898667 1.28-19.797333 1.962667-29.696 1.621333-25.514667-20.992-360.362667-18.773334-394.837333 1.621333-24.832-3.498667-49.237333-1.877333-74.069334 0.768-12.032 1.450667-27.989333 14.592-34.986666 15.189333-8.192 32.512 5.802667 42.154667 16.042666 14.250667 15.189333 25.429333 32.170667 35.754666 50.176-2.56-11.178667-30.378667-64.768-35.157333-82.688-0.682667-2.218667-1.28-4.522667-1.621333-6.741333-2.304-13.397333 0.426667-27.392 5.205333-40.106667 1.024-3.072 2.133333-6.058667 3.242667-9.045333 0.597333-1.450667 1.536-3.242667 2.474666-5.205333 0.853333-2.474667 1.706667-5.12 2.389334-7.765334-0.085333-0.512 0.085333-1.024 0.426666-1.536-3.413333 4.864-23.722667 31.061333-51.712 3.584 4.778667 4.693333 6.997333 60.245333-24.661333 65.28-0.768 0.085333-1.536 0.256-2.304 0.426667-8.106667 1.792-15.189333 6.656-20.48 13.141333-10.496 12.8-20.053333 24.32-28.501333 38.656-33.365333 57.258667-51.626667 117.930667-80.298667 177.664-25.344 52.650667-50.602667 105.301333-75.861333 158.037334-19.882667 41.472-39.765333 82.944-59.562667 124.416-0.512 1.109333-7.765333 18.432-8.789333 18.261333 3.413333 0.512 6.826667 0.768 10.325333 0.853333h5.973333c1.621333-0.085333 3.242667-0.170667 4.864-0.341333 2.56-0.256 5.461333-0.597333 7.168 1.792 0.170667 0.256 0.256 0.512 0.341334 0.768 0.256 0.512 0.341333 1.109333 0.341333 1.706667 16.384-36.778667 196.010667-467.541333 196.437333-468.309334 5.546667-10.922667 13.824-21.077333 23.893334-28.842666 9.813333-7.509333 25.941333-10.752 24.746666 1.621333 0.085333-0.085333-10.410667 525.226667-22.101333 531.370667z" fill="#FF7166" /><path d="M71.965781 928.256c0.256 0.341333 0.426667 0.768 0.597334 1.194667a3.157333 3.157333 0 0 0-0.597334-1.194667zM71.965781 928.256c-0.256-0.341333-0.426667-0.597333-0.682666-0.768 0.256 0.170667 0.512 0.426667 0.682666 0.768z" fill="#FFBCC5" /><path d="M72.648448 930.730667a4.096 4.096 0 0 1-1.109333 2.474666c-1.194667 1.194667-2.389333 2.304-3.157334 3.072-4.437333 3.925333 5.802667 12.032 15.872 18.346667 50.858667-61.696 128.853333-358.058667 128.853334-358.058667-59.050667 132.437333-130.389333 311.552-140.458667 334.165334z" fill="#FFBCC5" /><path d="M71.283115 927.402667a2.013867 2.013867 0 0 0-0.768-0.512c0.170667 0.085333 0.512 0.256 0.768 0.512z" fill="#FFBCC5" /><path d="M453.917781 556.714667c-0.597333-0.426667-1.194667-0.938667-1.877333-1.621334a479.018667 479.018667 0 0 0-70.656-110.933333c-3.072-3.669333-5.376-7.082667-7.168-10.581333-4.266667-8.277333-22.954667-51.029333-27.306667-64.170667-4.437333-13.397333-4.693333-36.522667-10.837333-52.565333-3.328 6.826667-8.021333 12.544-18.432 14.592-5.632 1.109333-12.8 1.365333-19.370667 0.170666 3.157333 18.176 8.106667 35.754667 12.032 47.445334 6.314667 18.602667 13.141333 35.669333 23.381334 53.930666 1.877333 3.413333 11.776 15.104 14.762666 17.578667 0.341333 4.778667 52.736 87.04 89.6 118.016 0.085333 0 0.085333-0.085333 0.170667-0.085333 3.925333 5.802667 14.421333 18.944 33.877333 30.464-6.229333-14.592-12.288-28.757333-18.176-42.24z" fill="#FFE9D7" /><path d="M480.456448 536.064c-2.986667-2.645333-8.533333-7.082667-11.861333-9.301333-3.072-2.133333-5.888-6.741333-9.472-8.106667-3.84-1.536-8.277333-2.56-12.288-3.498667-2.218667-0.512-3.925333-1.450667-5.461334-3.072-12.970667-13.653333-11.349333-11.52-20.394666-27.733333 0-0.085333-0.085333-0.085333-0.085334-0.170667-0.426667-0.768-9.216-15.872-9.984-17.066666 0 0-18.602667-30.122667-34.645333-48.981334-3.072-3.669333-5.376-7.082667-7.168-10.581333-4.266667-8.277333-22.954667-51.029333-27.306667-64.170667-5.12-15.445333-4.693333-43.690667-14.08-59.136-5.205333-8.618667-12.544-16.213333-24.746666-12.714666-10.922667 3.072-14.933333 12.970667-13.738667 22.784 2.901333 23.296 9.557333 45.994667 18.176 67.754666 7.765333 19.712 16.298667 40.618667 30.378667 56.661334 3.242667 3.669333 5.802667 7.850667 7.594666 12.373333 6.485333 16.298667 20.736 51.2 61.610667 82.005333 1.706667 1.621333 2.986667 3.584 3.925333 5.802667 2.048 4.949333 2.901333 12.544 4.864 17.664 3.925333 10.154667 30.037333 36.864 35.413334 46.250667 0.768 1.365333 2.133333 1.706667 3.328 0.938666 0.853333-0.512 1.194667-1.536 0.938666-2.645333-0.170667-0.768 1.365333 2.389333 3.242667 5.802667 0.682667 1.194667 1.706667 2.048 3.072 1.792 8.448-1.792-8.277333-22.784-6.997333-23.125334 0 0 4.522667 5.546667 5.802666 7.509334 3.413333 5.290667 5.376 9.472 9.728 13.824 1.792 1.792 3.072 1.024 3.925334 0.426666 2.901333-2.133333-1.28-9.642667-6.4-17.92-4.437333-7.253333-12.032-15.445333-12.202667-15.786666-0.170667-0.512-0.085333-1.28 0.597333-0.768 0.597333 0.426667 15.189333 12.970667 17.066667 15.701333 1.194667 1.706667 2.901333 3.242667 4.096 4.949333 1.024 1.536 1.450667 2.56 3.072 3.584 1.450667 0.853333 3.498667 1.28 4.778667 0.256 0.938667-0.768 1.621333-1.877333 1.194666-3.157333-5.12-14.592-24.32-26.538667-27.050666-39.594667-0.256-1.194667 0.512-2.133333 1.706666-2.048 0.938667 0.085333 1.962667 0.341333 2.816 0.682667 3.498667 1.450667 8.277333 9.130667 12.032 9.216 2.56 0 2.986667 0.256 4.693334-1.621333 1.28-1.365333 1.28-3.498667-0.170667-4.778667z" fill="#FFE9D7" /><path d="M455.197781 583.253333c-3.925333 0.853333-8.192-10.752-9.898666-13.141333-3.242667-4.522667-6.741333-8.789333-10.154667-13.226667-4.949333-6.4-9.984-12.885333-13.909333-20.053333-4.608-8.533333-3.925333-20.992-11.946667-27.392-15.872-12.629333-34.218667-35.242667-41.728-49.92-15.786667-30.890667-28.757333-50.090667-52.992-105.045333-13.312-30.293333-15.872-64.170667-19.029333-78.762667-5.12 4.608-6.997333 11.605333-6.144 18.688 2.901333 23.296 9.557333 45.994667 18.176 67.754667 7.765333 19.712 16.298667 40.618667 30.378666 56.661333 3.242667 3.669333 5.802667 7.850667 7.594667 12.373333 6.485333 16.298667 20.736 51.2 61.610667 82.005334 1.706667 1.621333 2.986667 3.584 3.925333 5.802666 2.048 4.949333 2.901333 12.544 4.864 17.664 3.925333 10.154667 30.037333 36.864 35.413333 46.250667 0.768 1.365333 2.133333 1.706667 3.328 0.938667 0.170667-0.170667 0.341333-0.426667 0.512-0.597334z" fill="#EAC0A9" /><path d="M463.219115 587.690667a2.56 2.56 0 0 0 0.341333-0.853334c-0.085333 0-0.170667 0.085333-0.170667 0.085334-1.450667 0.256-2.474667-0.597333-3.072-1.792-4.096-7.253333-11.264-17.066667-14.250666-24.832-1.28-3.413333-2.133333-3.669333-2.901334-4.266667-0.512-0.341333-1.621333 0-1.450666 0.768 0.085333 0.512 0.170667 0.512 0.426666 1.194667 1.194667 2.730667 12.714667 21.76 13.482667 23.210666 0.512 1.024 2.986667 5.717333 3.754667 6.485334 0.512 0.512 1.194667 0.938667 1.962666 1.024 0.768 0.170667 1.536-0.341333 1.877334-1.024zM481.139115 539.989333l-0.512 0.768c-1.706667 1.962667-2.218667 1.706667-4.693334 1.621334-3.754667-0.085333-8.618667-7.765333-12.032-9.216-0.853333-0.341333-1.877333-0.597333-2.816-0.682667-0.256 0-0.512 0-0.768 0.085333h-0.085333c-0.170667 0.085333-0.256 0.170667-0.341333 0.256-0.085333 0.085333-0.170667 0.085333-0.256 0.170667v0.085333c-0.256 0.341333-0.341333 0.853333-0.256 1.450667-1.792-2.816 1.962667-3.925333 3.242666-3.84 0.938667 0.085333 1.877333 0.341333 2.816 0.682667 3.498667 1.450667 8.192 8.618667 12.032 9.216 2.133333 0.341333 2.218667 0.512 3.84-0.853334 0 0.085333 0 0.085333-0.085333 0.170667 0 0.085333 0 0.085333-0.085333 0.085333z" fill="#EAC0A9" /><path d="M313.203115 374.528c-0.768-1.792-1.450667-3.669333-2.133334-5.461333 0.682667 1.792 1.365333 3.584 2.133334 5.461333zM310.728448 368.128c-0.768-1.962667-1.450667-3.925333-2.218667-5.973333 0.682667 1.962667 1.450667 3.925333 2.218667 5.973333zM308.339115 361.642667c-0.768-2.133333-1.536-4.266667-2.304-6.485334 0.768 2.218667 1.536 4.352 2.304 6.485334zM315.848448 380.928c-0.682667-1.621333-1.365333-3.328-2.048-4.949333 0.682667 1.621333 1.365333 3.242667 2.048 4.949333zM325.064448 400.298667c-0.512-0.938667-1.024-1.962667-1.450667-2.901334 0.512 1.024 0.938667 1.962667 1.450667 2.901334zM318.664448 387.328c-0.682667-1.450667-1.365333-2.986667-1.962667-4.437333 0.682667 1.450667 1.28 2.986667 1.962667 4.437333zM321.736448 393.813333l-1.792-3.84 1.792 3.84zM452.381781 583.936c0.682667 0.341333 1.450667 0.341333 2.218667-0.085333-0.512 0.341333-1.365333 0.256-2.218667 0.085333zM454.600448 583.850667c0.256-0.170667 0.426667-0.341333 0.597333-0.597334-0.170667 0.170667-0.341333 0.426667-0.597333 0.597334z" fill="#FFE9D7" /><path d="M485.832448 572.842667c0.170667 1.109333 0 2.389333-0.938667 3.157333-0.853333 0.768-2.218667 0.938667-3.242666 0.341333-0.938667-0.512-1.450667-1.621333-2.048-2.389333-0.597333-0.768-6.656-9.301333-8.362667-10.837333-3.498667-3.242667-12.8-12.117333-15.189333-11.690667-1.109333 0.170667-0.682667 1.536-0.512 1.877333-0.085333-0.426667 0.085333-0.853333 0.682666-0.426666 3.925333 2.816 7.509333 6.485333 11.093334 9.813333 1.877333 1.792 3.84 3.498667 5.546666 5.461333 1.792 2.048 7.594667 12.629333 11.52 9.728h0.085334s0.085333-0.085333 0.170666-0.085333a1.792 1.792 0 0 0 0.512-0.341333c0.938667-0.768 1.621333-1.877333 1.194667-3.157334-0.085333-0.512-0.341333-1.024-0.512-1.450666z" fill="#EAC0A9" /><path d="M463.389781 586.922667c-1.536 1.024-2.474667-0.597333-3.072-1.792-4.096-7.253333-9.130667-16.042667-13.312-23.210667-2.133333-3.669333-3.072-5.290667-3.925333-5.888-0.512-0.341333-1.621333 0-1.450667 0.768 0.085333 0.512 0.170667 0.512 0.426667 1.194667 1.194667 2.730667 12.714667 21.76 13.482667 23.210666v-0.085333c0.341333 0.768 1.365333 2.645333 1.792 3.413333 0.853333 1.621333 1.194667 2.901333 2.730666 3.925334 1.28 0.938667 4.352 0.341333 4.266667-2.816-0.085333 0.597333-0.938667 1.194667-0.938667 1.28z" fill="#EAC0A9" /><path d="M481.139115 539.989333l-0.512 0.768c-1.706667 1.962667-2.218667 1.706667-4.693334 1.621334-3.754667-0.085333-8.618667-7.765333-12.032-9.216-0.853333-0.341333-1.877333-0.597333-2.816-0.682667-0.256 0-0.512 0-0.768 0.085333h-0.085333c-0.170667 0.085333-0.256 0.170667-0.341333 0.256-0.085333 0.085333-0.170667 0.085333-0.256 0.170667v0.085333c-0.256 0.341333-0.341333 0.853333-0.256 1.450667-1.792-2.816 1.962667-3.925333 3.242666-3.84 0.938667 0.085333 1.877333 0.341333 2.816 0.682667 3.498667 1.450667 8.192 8.618667 12.032 9.216 2.133333 0.341333 2.218667 0.512 3.84-0.853334 0 0.085333 0 0.085333-0.085333 0.170667 0 0.085333 0 0.085333-0.085333 0.085333z" fill="#EAC0A9" /><path d="M474.227115 587.349333c0.597333-0.512 0.938667-1.28 0.938666-2.304 0-0.085333 0-0.085333-0.085333-0.170666 0 1.024-1.365333 1.450667-2.304 1.024a2.5088 2.5088 0 0 1-1.024-0.853334c-0.341333-0.426667-12.202667-17.408-17.322667-25.002666-0.853333-1.28-3.84-5.888-5.461333-6.058667-1.024-0.085333-0.682667 0.853333-0.170667 1.621333 0 0 2.901333 4.864 5.973334 10.069334 0 0 4.522667 5.546667 5.802666 7.509333 2.645333 4.096 4.949333 8.362667 8.106667 12.117333 1.28 1.450667 3.498667 3.754667 5.546667 2.048z" fill="#EAC0A9" /></svg>