<?xml version="1.0" standalone="no"?><!DOCTYPE svg PUBLIC "-//W3C//DTD SVG 1.1//EN" "http://www.w3.org/Graphics/SVG/1.1/DTD/svg11.dtd"><svg class="icon" width="48px" height="24.44px" viewBox="0 0 2011 1024" version="1.1" xmlns="http://www.w3.org/2000/svg"><path d="M1634.82895406 363.15409441H915.49558237c66.52371619-64.98043112 111.92879253-85.69294376 138.08341542-91.13505475h462.9855718a121.83830836 121.83830836 0 0 1 118.26438447 91.13505475zM843.04240143 272.01903967q-38.58213062 49.46635329-73.102985 91.13505474H384.44300865A121.83830836 121.83830836 0 0 1 502.1388149 272.01903967zM516.35328386 611.21689012c-62.94979229 42.23728038-106.16177951 49.87248121-135.72787527 41.26257353V393.53244527a121.10727841 121.10727841 0 0 1 3.81760006-30.37835086h72.12827889v248.06279571z" fill="#F3B0CD" /><path d="M769.5332885 363.15409441C661.42209675 492.54637772 579.05939999 569.06083489 516.35328386 611.21689012h-59.78199632V363.15409441z" fill="#F9D5E5" /><path d="M988.11121361 611.21689012l-81.22553891 356.90501742H502.1388149a121.83830836 121.83830836 0 0 1-121.83830835-121.83830836v-43.86179058a79.35735182 79.35735182 0 0 0 48.73532335 6.41681709C542.91403539 788.93836888 647.69498014 689.59953509 714.54359909 611.21689012zM1634.82895406 363.15409441h-79.68225313v248.06279571H988.11121361l88.61706286 356.90501742h440.48609719a121.83830836 121.83830836 0 0 0 121.83830835-121.83830837V393.53244527a121.10727841 121.10727841 0 0 0-4.22372795-30.37835086z m-79.68225313 416.44333757h-276.73541123V708.28140891h276.73541123z" fill="#F3B0CD" /><path d="M907.1293516 968.04068167l80.98186201-356.90501742 88.61706286 356.90501742H907.1293516z" fill="#D181AB" /><path d="M915.49558237 363.15409441A1222.11945783 1222.11945783 0 0 0 790.7331542 510.9033495 988.35235693 988.35235693 0 0 1 714.54359909 611.21689012h840.60310184V363.15409441zM825.09155758 549.0793522a30.5408026 30.5408026 0 1 1 30.54080261-30.5408026 30.45957672 30.45957672 0 0 1-30.54080261 30.5408026z m365.51492437 0a30.5408026 30.5408026 0 1 1 30.5408026-30.5408026 30.45957672 30.45957672 0 0 1-30.54080261 30.5408026z" fill="#F9D5E5" /><path d="M1278.4112897 708.28140891h276.73541123v71.31602307h-276.73541123z" fill="#594E9E" /><path d="M380.62540858 421.5552567v133.12865822H316.53845842V462.16802616a40.61276947 40.61276947 0 0 1 40.61276946-40.61276946zM1702.81473015 461.03086829v92.8407908h-64.16817531V420.58054986h23.63663171a40.61276947 40.61276947 0 0 1 40.5315436 40.45031843z" fill="#3E3A7D" /><path d="M1082.4952902 271.93781379a54.25866021 54.25866021 0 0 0-28.59138963 0c-26.47952565 5.44211097-71.88460201 25.74849571-138.08341616 91.13505474A1222.11945783 1222.11945783 0 0 0 790.7331542 510.9033495 988.35235693 988.35235693 0 0 1 714.54359909 611.21689012C647.69498014 689.59953509 542.91403539 788.93836888 429.11705504 809.16352774a79.35735182 79.35735182 0 0 1-48.73532335-6.41681709 93.49059489 93.49059489 0 0 1-48.73532334-61.16283108c-10.88422194-40.61276947-13.97079278-73.10298502-15.35162681-186.81873949 0 0 5.27965995 81.22553891 64.08695015 97.47064669 29.56609648 8.60990694 73.10298502 0.97470612 135.727876-41.26257355s145.31248907-118.4268355 253.42368081-247.81911881q34.84575644-41.74992732 73.10298502-91.13505475S907.1293516 169.75608607 1082.4952902 271.93781379zM1638.64655483 846.60850121V705.19483808a214.35419714 214.35419714 0 0 0 64.16817532-151.32317899V463.30518329c189.4991824 245.05745076-64.16817603 383.30331792-64.16817532 383.30331792zM1221.14728456 518.5385496a30.5408026 30.5408026 0 1 1-30.54080261-30.45957673 30.5408026 30.5408026 0 0 1 30.54080261 30.45957673z" fill="#594E9E" /><path d="M855.63236019 518.5385496a30.5408026 30.5408026 0 1 1-30.54080261-30.45957673 30.5408026 30.5408026 0 0 1 30.54080261 30.45957673z" fill="#594E9E" /></svg>