<?xml version="1.0" standalone="no"?><!DOCTYPE svg PUBLIC "-//W3C//DTD SVG 1.1//EN" "http://www.w3.org/Graphics/SVG/1.1/DTD/svg11.dtd"><svg class="icon" width="32px" height="32.00px" viewBox="0 0 1024 1024" version="1.1" xmlns="http://www.w3.org/2000/svg"><path d="M513.7 755.6c-6.4-2.1-13.2-3.4-20.1-3.4-33.3 0-60.6 26.9-60.6 60.2 0 33.3 27.3 60.2 60.6 60.2 32.9 0 60.2-26.9 60.2-60.2 0-24.7-15.8-47.4-38.8-56.3M512 0C229.1 0 0 229.1 0 512c0 282.5 229.1 512 512 512s512-229.5 512-512C1024 229.1 794.9 0 512 0z m160.9 484.7L584.1 698c34.1 27.7 55 69.5 55 114.3 0 80.2-65.3 145.5-145.5 145.5-80.6 0-145.9-65.3-145.9-145.5s65.3-145.4 146-145.4c3.4 0 7.3 0 10.7 0.4L594 451.8c9-21.8 34.1-32 55.9-23 21.7 9.4 31.9 34.1 23 55.9z m242.7 75.1c-23.5 0-42.7-19.2-42.7-42.7 0-199.3-162.1-361-361-361-199.3 0-361 161.7-361 361 0 23.5-19.2 42.7-42.7 42.7s-42.7-19.2-42.7-42.7C65.7 270.9 265.8 70.8 512 70.8s446.3 200.1 446.3 446.3c0 23.5-19.2 42.7-42.7 42.7zM513.7 755.6c-6.4-2.1-13.2-3.4-20.1-3.4-33.3 0-60.6 26.9-60.6 60.2 0 33.3 27.3 60.2 60.6 60.2 32.9 0 60.2-26.9 60.2-60.2 0-24.7-15.8-47.4-38.8-56.3" fill="#222222" /></svg>