<?xml version="1.0" standalone="no"?><!DOCTYPE svg PUBLIC "-//W3C//DTD SVG 1.1//EN" "http://www.w3.org/Graphics/SVG/1.1/DTD/svg11.dtd"><svg class="icon" width="48px" height="48.00px" viewBox="0 0 1024 1024" version="1.1" xmlns="http://www.w3.org/2000/svg"><path d="M248 416h423v425H237V427c0-6.075 4.925-11 11-11z" fill="#00DDB9" /><path d="M242 462.5a49.5 31.5 90 1 0 63 0 49.5 31.5 90 1 0-63 0Z" fill="#E0FFFA" /><path d="M329 462.5a49.5 31.5 90 1 0 63 0 49.5 31.5 90 1 0-63 0Z" fill="#E0FFFA" /><path d="M415 462.5a49.5 31.5 90 1 0 63 0 49.5 31.5 90 1 0-63 0Z" fill="#E0FFFA" /><path d="M499 462.5a49.5 31.5 90 1 0 63 0 49.5 31.5 90 1 0-63 0Z" fill="#E0FFFA" /><path d="M586 462.5a49.5 31.5 90 1 0 63 0 49.5 31.5 90 1 0-63 0Z" fill="#E0FFFA" /><path d="M704.764834 500.276909a53 35 78 1 0 68.470332-14.553818 53 35 78 1 0-68.470332 14.553818Z" fill="#E0FFFA" /><path d="M783.764834 804.276909a53 35 78 1 0 68.470332-14.553818 53 35 78 1 0-68.470332 14.553818Z" fill="#E0FFFA" /><path d="M242 779.5a49.5 31.5 90 1 0 63 0 49.5 31.5 90 1 0-63 0Z" fill="#E0FFFA" /><path d="M329 779.5a49.5 31.5 90 1 0 63 0 49.5 31.5 90 1 0-63 0Z" fill="#E0FFFA" /><path d="M415 779.5a49.5 31.5 90 1 0 63 0 49.5 31.5 90 1 0-63 0Z" fill="#E0FFFA" /><path d="M502 779.5a49.5 31.5 90 1 0 63 0 49.5 31.5 90 1 0-63 0Z" fill="#E0FFFA" /><path d="M588 779.5a49.5 31.5 90 1 0 63 0 49.5 31.5 90 1 0-63 0Z" fill="#E0FFFA" /><path d="M237 267m5 0l431 0q5 0 5 5l0 115q0 5-5 5l-431 0q-5 0-5-5l0-115q0-5 5-5Z" fill="#FFDA84" /><path d="M666 239c11.046 0 20 8.954 20 20v577c0 11.046-8.954 20-20 20H226c-11.046 0-20-8.954-20-20V259C206 247.954 214.954 239 226 239h440z m110.229 243.275c6.817 27.34-0.966 53.791-18.584 61.87l49.576 198.841c19.35-1.138 38.639 18.563 45.455 45.903 7.4 29.681-2.406 58.314-23.323 63.53-20.918 5.215-43.019-15.463-50.42-45.144-6.816-27.34 0.967-53.79 18.585-61.87l-49.576-198.84c-19.35 1.138-38.639-18.563-45.455-45.903-7.4-29.682 2.405-58.315 23.323-63.53 20.918-5.215 43.019 15.462 50.419 45.143z m28.448 271.173c-14.45 3.603-22.268 26.43-16.04 51.408 6.228 24.978 23.846 41.462 38.297 37.86 14.45-3.603 22.267-26.43 16.04-51.408-6.228-24.978-23.847-41.463-38.297-37.86zM661 399H231c-5.523 0-10 4.477-10 10v422c0 5.523 4.477 10 10 10h430c5.523 0 10-4.477 10-10V409c0-5.523-4.477-10-10-10z m-387 7c21.558 0 38 25.41 38 56 0 28.177-13.95 51.959-32.999 55.536v204.928C298.05 726.041 312 749.824 312 778c0 30.59-16.442 56-38 56s-38-25.41-38-56c0-28.177 13.95-51.96 33-55.536V517.536C249.95 513.959 236 490.177 236 462c0-30.59 16.442-56 38-56z m86 0c21.558 0 38 25.41 38 56 0 28.177-13.95 51.959-32.999 55.536v204.928C384.05 726.041 398 749.824 398 778c0 30.59-16.442 56-38 56s-38-25.41-38-56c0-28.177 13.95-51.96 33-55.536V517.536c-19.05-3.577-33-27.359-33-55.536 0-30.59 16.442-56 38-56z m86 0c21.558 0 38 25.41 38 56 0 28.177-13.95 51.959-32.999 55.536v204.928C470.05 726.041 484 749.824 484 778c0 30.59-16.442 56-38 56s-38-25.41-38-56c0-28.177 13.95-51.96 33-55.536V517.536c-19.05-3.577-33-27.359-33-55.536 0-30.59 16.442-56 38-56z m86 0c21.558 0 38 25.41 38 56 0 28.177-13.95 51.959-32.999 55.536v204.928C556.05 726.041 570 749.824 570 778c0 30.59-16.442 56-38 56s-38-25.41-38-56c0-28.177 13.95-51.96 33-55.536V517.536c-19.05-3.577-33-27.359-33-55.536 0-30.59 16.442-56 38-56z m86 0c21.558 0 38 25.41 38 56 0 28.177-13.95 51.959-32.999 55.536v204.928C642.05 726.041 656 749.824 656 778c0 30.59-16.442 56-38 56s-38-25.41-38-56c0-28.177 13.95-51.96 33-55.536V517.536c-19.05-3.577-33-27.359-33-55.536 0-30.59 16.442-56 38-56zM274 732c-14.893 0-28 20.257-28 46s13.107 46 28 46 28-20.257 28-46-13.107-46-28-46z m86 0c-14.893 0-28 20.257-28 46s13.107 46 28 46 28-20.257 28-46-13.107-46-28-46z m86 0c-14.893 0-28 20.257-28 46s13.107 46 28 46 28-20.257 28-46-13.107-46-28-46z m86 0c-14.893 0-28 20.257-28 46s13.107 46 28 46 28-20.257 28-46-13.107-46-28-46z m86 0c-14.893 0-28 20.257-28 46s13.107 46 28 46 28-20.257 28-46-13.107-46-28-46z m110.23-285.165c-14.45 3.603-22.268 26.429-16.04 51.407 6.227 24.979 23.846 41.463 38.296 37.86 14.45-3.603 22.268-26.429 16.04-51.407-6.228-24.979-23.846-41.463-38.297-37.86zM274 416c-14.893 0-28 20.257-28 46s13.107 46 28 46 28-20.257 28-46-13.107-46-28-46z m86 0c-14.893 0-28 20.257-28 46s13.107 46 28 46 28-20.257 28-46-13.107-46-28-46z m86 0c-14.893 0-28 20.257-28 46s13.107 46 28 46 28-20.257 28-46-13.107-46-28-46z m86 0c-14.893 0-28 20.257-28 46s13.107 46 28 46 28-20.257 28-46-13.107-46-28-46z m86 0c-14.893 0-28 20.257-28 46s13.107 46 28 46 28-20.257 28-46-13.107-46-28-46z m43-162H231c-5.523 0-10 4.477-10 10v110c0 5.523 4.477 10 10 10h430c5.523 0 10-4.477 10-10V264c0-5.523-4.477-10-10-10z" fill="#3D3D3D" /></svg>