<?xml version="1.0" standalone="no"?><!DOCTYPE svg PUBLIC "-//W3C//DTD SVG 1.1//EN" "http://www.w3.org/Graphics/SVG/1.1/DTD/svg11.dtd"><svg class="icon" width="48px" height="48.00px" viewBox="0 0 1024 1024" version="1.1" xmlns="http://www.w3.org/2000/svg"><path d="M826.15 344.23H679.77v-96.37H494.23c-27.5 0-50 22.5-50 50v146.37H297.85c-27.5 0-50 22.5-50 50v185.55h96.37v146.37c0 27.5 22.5 50 50 50h235.55c27.5 0 50-22.5 50-50V679.77h146.37c27.5 0 50-22.5 50-50V394.23c0.01-27.5-22.49-50-49.99-50z" fill="#E9F1FF" /><path d="M615.32 792.84m-32.64 0a32.64 32.64 0 1 0 65.28 0 32.64 32.64 0 1 0-65.28 0Z" fill="#2C5CCB" /><path d="M413.83 241.17m-32.64 0a32.64 32.64 0 1 0 65.28 0 32.64 32.64 0 1 0-65.28 0Z" fill="#2C5CCB" /><path d="M784.44 719.29h-286.5c-13.81 0-25-11.19-25-25s11.19-25 25-25h286.5c41.5 0 75.27-33.77 75.27-75.27V425.85c0-41.5-33.77-75.27-75.27-75.27h-79.79c-13.81 0-25-11.19-25-25s11.19-25 25-25h79.79c69.07 0 125.27 56.2 125.27 125.27v168.17c0 69.07-56.2 125.27-125.27 125.27zM315.22 719.29h-79.79c-69.07 0-125.27-56.2-125.27-125.27V425.85c0-69.07 56.2-125.27 125.27-125.27h286.5c13.81 0 25 11.19 25 25s-11.19 25-25 25h-286.5c-41.5 0-75.27 33.77-75.27 75.27v168.17c0 41.5 33.77 75.27 75.27 75.27h79.79c13.81 0 25 11.19 25 25s-11.2 25-25 25z" fill="#2C5CCB" /><path d="M593.36 909.71H426.5c-69.43 0-125.92-56.49-125.92-125.92V607.46c0-67.56 54.97-122.53 122.53-122.53h173.65c39.99 0 72.53-32.54 72.53-72.53V236.08c0-41.86-34.06-75.92-75.92-75.92H426.5c-41.86 0-75.92 34.06-75.92 75.92v79.14c0 13.81-11.19 25-25 25s-25-11.19-25-25v-79.14c0-69.43 56.49-125.92 125.92-125.92h166.86c69.43 0 125.92 56.49 125.92 125.92V412.4c0 67.56-54.97 122.53-122.53 122.53H423.11c-39.99 0-72.53 32.54-72.53 72.53v176.32c0 41.86 34.06 75.92 75.92 75.92h166.86c41.86 0 75.92-34.06 75.92-75.92v-79.14c0-13.81 11.19-25 25-25s25 11.19 25 25v79.14c0.01 69.44-56.48 125.93-125.92 125.93z" fill="#2C5CCB" /></svg>