<?xml version="1.0" standalone="no"?><!DOCTYPE svg PUBLIC "-//W3C//DTD SVG 1.1//EN" "http://www.w3.org/Graphics/SVG/1.1/DTD/svg11.dtd"><svg class="icon" width="48px" height="48.00px" viewBox="0 0 1024 1024" version="1.1" xmlns="http://www.w3.org/2000/svg"><path d="M922.9 811.4L212.6 101.1C171.8 60.3 102 89.2 102 146.9v710.3c0 35.8 29 64.8 64.8 64.8h710.3c57.7 0 86.6-69.8 45.8-110.6zM507 722H320.1c-10 0-18.1-8.1-18.1-18.1V517c0-16.1 19.5-24.2 30.9-12.8l186.9 186.9c11.4 11.4 3.3 30.9-12.8 30.9z" fill="#FDF17F" /><path d="M922.9 811.4L212.6 101.1c-25.3-25.3-61.8-23.8-85.8-5.2 2 1.6 4 3.3 5.8 5.2l710.3 710.3c40.8 40.8 11.9 110.6-45.8 110.6h80c57.7 0 86.6-69.8 45.8-110.6z" fill="#FAD672" /><path d="M198.3 284.1h-79.1c-8.3 0-15-6.7-15-15s6.7-15 15-15h79.1c8.3 0 15 6.7 15 15s-6.7 15-15 15zM168.3 338.8h-49.1c-8.3 0-15-6.7-15-15s6.7-15 15-15h49.1c8.3 0 15 6.7 15 15s-6.7 15-15 15zM168.3 393.5h-49.1c-8.3 0-15-6.7-15-15s6.7-15 15-15h49.1c8.3 0 15 6.7 15 15s-6.7 15-15 15zM168.3 502.9h-49.1c-8.3 0-15-6.7-15-15s6.7-15 15-15h49.1c8.3 0 15 6.7 15 15s-6.7 15-15 15zM198.3 612.2h-79.1c-8.3 0-15-6.7-15-15s6.7-15 15-15h79.1c8.3 0 15 6.7 15 15s-6.7 15-15 15zM168.3 666.9h-49.1c-8.3 0-15-6.7-15-15s6.7-15 15-15h49.1c8.3 0 15 6.7 15 15s-6.7 15-15 15zM168.3 721.6h-49.1c-8.3 0-15-6.7-15-15s6.7-15 15-15h49.1c8.3 0 15 6.7 15 15s-6.7 15-15 15zM198.3 776.3h-79.1c-8.3 0-15-6.7-15-15s6.7-15 15-15h79.1c8.3 0 15 6.7 15 15s-6.7 15-15 15zM168.3 557.6h-49.1c-8.3 0-15-6.7-15-15s6.7-15 15-15h49.1c8.3 0 15 6.7 15 15s-6.7 15-15 15zM198.3 448.2h-79.1c-8.3 0-15-6.7-15-15s6.7-15 15-15h79.1c8.3 0 15 6.7 15 15s-6.7 15-15 15z" fill="#50E6CC" /><path d="M768.1 920.3c-8.3 0-15-6.7-15-15v-79.1c0-8.3 6.7-15 15-15s15 6.7 15 15v79.1c0 8.3-6.7 15-15 15zM713.4 920.3c-8.3 0-15-6.7-15-15v-49.1c0-8.3 6.7-15 15-15s15 6.7 15 15v49.1c0 8.3-6.7 15-15 15zM658.7 920.3c-8.3 0-15-6.7-15-15v-49.1c0-8.3 6.7-15 15-15s15 6.7 15 15v49.1c0 8.3-6.7 15-15 15zM549.3 920.3c-8.3 0-15-6.7-15-15v-49.1c0-8.3 6.7-15 15-15s15 6.7 15 15v49.1c0 8.3-6.7 15-15 15zM440 920.3c-8.3 0-15-6.7-15-15v-79.1c0-8.3 6.7-15 15-15s15 6.7 15 15v79.1c0 8.3-6.7 15-15 15zM385.3 920.3c-8.3 0-15-6.7-15-15v-49.1c0-8.3 6.7-15 15-15s15 6.7 15 15v49.1c0 8.3-6.7 15-15 15zM330.6 920.3c-8.3 0-15-6.7-15-15v-49.1c0-8.3 6.7-15 15-15s15 6.7 15 15v49.1c0 8.3-6.7 15-15 15zM275.9 920.3c-8.3 0-15-6.7-15-15v-79.1c0-8.3 6.7-15 15-15s15 6.7 15 15v79.1c0 8.3-6.7 15-15 15zM494.6 920.3c-8.3 0-15-6.7-15-15v-49.1c0-8.3 6.7-15 15-15s15 6.7 15 15v49.1c0 8.3-6.7 15-15 15zM604 920.3c-8.3 0-15-6.7-15-15v-79.1c0-8.3 6.7-15 15-15s15 6.7 15 15v79.1c0 8.3-6.7 15-15 15z" fill="#8ADCFF" /><path d="M401.6 290.3c5.9 5.9 5.9 15.4 0 21.2l-55.9 55.9c-5.9 5.9-15.4 5.9-21.2 0-5.9-5.9-5.9-15.4 0-21.2l55.9-55.9c5.8-5.9 15.3-5.9 21.2 0zM440.2 328.9c5.9 5.9 5.9 15.4 0 21.2l-34.7 34.7c-5.9 5.9-15.4 5.9-21.2 0-5.9-5.9-5.9-15.4 0-21.2l34.7-34.7c5.9-5.8 15.4-5.8 21.2 0zM478.9 367.6c5.9 5.9 5.9 15.4 0 21.2l-34.7 34.7c-5.9 5.9-15.4 5.9-21.2 0-5.9-5.9-5.9-15.4 0-21.2l34.7-34.7c5.9-5.8 15.4-5.8 21.2 0zM556.3 445c5.9 5.9 5.9 15.4 0 21.2l-34.7 34.7c-5.9 5.9-15.4 5.9-21.2 0-5.9-5.9-5.9-15.4 0-21.2l34.7-34.7c5.8-5.9 15.3-5.9 21.2 0zM633.6 522.3c5.9 5.9 5.9 15.4 0 21.2l-55.9 55.9c-5.9 5.9-15.4 5.9-21.2 0-5.9-5.9-5.9-15.4 0-21.2l55.9-55.9c5.8-5.9 15.3-5.9 21.2 0zM672.3 560.9c5.9 5.9 5.9 15.4 0 21.2l-34.7 34.7c-5.9 5.9-15.4 5.9-21.2 0-5.9-5.9-5.9-15.4 0-21.2l34.7-34.7c5.8-5.8 15.3-5.8 21.2 0zM710.9 599.6c5.9 5.9 5.9 15.4 0 21.2l-34.7 34.7c-5.9 5.9-15.4 5.9-21.2 0-5.9-5.9-5.9-15.4 0-21.2l34.7-34.7c5.9-5.8 15.4-5.8 21.2 0zM749.6 638.3c5.9 5.9 5.9 15.4 0 21.2l-55.9 55.9c-5.9 5.9-15.4 5.9-21.2 0-5.9-5.9-5.9-15.4 0-21.2l55.9-55.9c5.9-5.9 15.4-5.9 21.2 0zM595 483.7c5.9 5.9 5.9 15.4 0 21.2l-34.7 34.7c-5.9 5.9-15.4 5.9-21.2 0-5.9-5.9-5.9-15.4 0-21.2l34.7-34.7c5.8-5.9 15.3-5.9 21.2 0zM517.6 406.3c5.9 5.9 5.9 15.4 0 21.2l-55.9 55.9c-5.9 5.9-15.4 5.9-21.2 0-5.9-5.9-5.9-15.4 0-21.2l55.9-55.9c5.9-5.9 15.3-5.9 21.2 0z" fill="#978CDB" /><path d="M930 804.3L219.7 94c-21.8-21.8-53-28-81.5-16.2S92 116.1 92 146.9v710.3c0 41.2 33.6 74.8 74.8 74.8h710.3c30.8 0 57.3-17.7 69.1-46.2 11.8-28.4 5.6-59.7-16.2-81.5z m-2.3 73.9c-6.8 16.3-23.6 33.8-50.6 33.8H166.8c-30.2 0-54.8-24.6-54.8-54.8V146.9c0-27 17.5-43.8 33.8-50.6 6.3-2.6 13.7-4.3 21.5-4.3 12.7 0 26.4 4.3 38.2 16.1l710.3 710.3c19.1 19.2 18.7 43.4 11.9 59.8z" fill="#00435B" /><path d="M340 497.1c-8.2-8.2-19.9-10.5-30.6-6.1-10.7 4.4-17.4 14.4-17.4 26v186.9c0 15.5 12.6 28.1 28.1 28.1H507c11.6 0 21.5-6.7 26-17.4 4.4-10.7 2.1-22.4-6.1-30.6L340 497.1zM514.5 707c-0.5 1.2-2.5 5-7.5 5H320.1c-4.5 0-8.1-3.6-8.1-8.1V517c0-5 3.8-7 5-7.5 0.6-0.2 1.8-0.6 3.2-0.6 1.7 0 3.7 0.5 5.6 2.4l186.9 186.9c3.6 3.5 2.3 7.6 1.8 8.8z" fill="#00435B" /></svg>