<?xml version="1.0" standalone="no"?><!DOCTYPE svg PUBLIC "-//W3C//DTD SVG 1.1//EN" "http://www.w3.org/Graphics/SVG/1.1/DTD/svg11.dtd"><svg class="icon" width="48px" height="48.00px" viewBox="0 0 1024 1024" version="1.1" xmlns="http://www.w3.org/2000/svg"><path d="M606.4 890.24a57.76 57.76 0 0 1-32-9.6L368 752a29.76 29.76 0 0 1-35.2-48 60.48 60.48 0 0 1 67.2-1.6l206.4 128 180.8-129.6V264.64L641.6 368a60.48 60.48 0 0 1-67.2 1.6l-206.4-128-180.8 129.6v436.8l51.2-36.8a29.76 29.76 0 1 1 35.2 48l-51.2 36.8a62.08 62.08 0 0 1-62.4 4.8 56.64 56.64 0 0 1-32-52.8V371.84a64 64 0 0 1 25.6-49.6L334.4 192a60.48 60.48 0 0 1 67.2-1.6l206.4 128 145.6-104a62.08 62.08 0 0 1 62.4-4.8 56.64 56.64 0 0 1 32 52.8v436.8a64 64 0 0 1-25.6 49.6l-180.8 129.6a54.56 54.56 0 0 1-35.2 11.2" fill="#3F4C92" /><path d="M419.2 680.64v-512l236.8 137.6 1.6 502.4z" fill="#485AB6" /><path d="M656 810.24v-510.4L841.6 176l25.6 41.6 1.6 443.2zM416 682.24L419.2 160l-214.4 150.4 3.2 468.8 40 6.4 140.8-102.4z" fill="#748AFF" /><path d="M656 277.44a30.4 30.4 0 0 0-30.4 30.4v326.4a29.44 29.44 0 0 0 30.4 30.4 30.4 30.4 0 0 0 30.4-30.4v-326.4a29.44 29.44 0 0 0-30.4-30.4zM416 327.04a30.4 30.4 0 0 0-30.4 30.4v310.4a30.4 30.4 0 0 0 60.8 0v-310.4a29.44 29.44 0 0 0-30.4-30.4z" fill="#FFFFFF" /><path d="M654.4 842.24a57.76 57.76 0 0 1-32-9.6L416 704a29.76 29.76 0 1 1-35.2-48 60.48 60.48 0 0 1 67.2-1.6l206.4 128 180.8-129.6V216.64L689.6 320a60.48 60.48 0 0 1-67.2 1.6l-206.4-128-180.8 129.6v436.8l51.2-36.8a29.76 29.76 0 1 1 35.2 48l-51.2 36.8a62.08 62.08 0 0 1-62.4 4.8 56.64 56.64 0 0 1-32-52.8V323.84a64 64 0 0 1 25.6-49.6L382.4 144a60.48 60.48 0 0 1 67.2-1.6l206.4 128 145.6-104a62.08 62.08 0 0 1 62.4-4.8 56.64 56.64 0 0 1 32 52.8v436.8a64 64 0 0 1-25.6 49.6l-180.8 129.6a54.56 54.56 0 0 1-35.2 11.2" fill="#464646" /></svg>