<?xml version="1.0" standalone="no"?><!DOCTYPE svg PUBLIC "-//W3C//DTD SVG 1.1//EN" "http://www.w3.org/Graphics/SVG/1.1/DTD/svg11.dtd"><svg class="icon" width="48px" height="48.00px" viewBox="0 0 1024 1024" version="1.1" xmlns="http://www.w3.org/2000/svg"><path d="M860.0064 88.1664H243.4048c-33.3824 0-60.4672 27.0848-60.4672 60.4672v733.952c0 33.3824 27.0848 60.4672 60.4672 60.4672h616.6528c33.3824 0 60.4672-27.0848 60.4672-60.4672V148.6336c-0.0512-33.3824-27.136-60.4672-60.5184-60.4672zM503.808 827.4944c-122.0608 0-220.9792-98.9696-220.9792-220.9792 0-122.0608 98.9696-220.9792 220.9792-220.9792 90.1632 0 167.68 54.0672 202.0352 131.4816h-79.9744c-27.5456-37.5296-71.936-61.9008-122.0608-61.9008-83.6096 0-151.3984 67.7888-151.3984 151.3984s67.7888 151.3984 151.3984 151.3984c47.872 0 90.5216-22.2208 118.2208-56.8832h81.5616c-35.4304 74.7008-111.5648 126.464-199.7824 126.464z m-29.9008-110.4384c-44.7488-12.6976-77.6704-56.32-77.6704-108.1344s32.9728-95.4368 77.6704-108.1344c-23.552 28.9792-37.8368 66.7648-37.8368 108.1344s14.2848 79.1552 37.8368 108.1344z m257.8432-49.2032H644.096s13.4144-61.3888 0-117.9136h87.6544s15.0016 72.192 0 117.9136z m-6.8608-449.8944c-27.5456 0-49.8688-22.3232-49.8688-49.8688s22.3232-49.8688 49.8688-49.8688 49.8688 22.3232 49.8688 49.8688-22.3232 49.8688-49.8688 49.8688z" fill="#F68F32" /><path d="M737.5872 170.7008m-42.24 0a42.24 42.24 0 1 0 84.48 0 42.24 42.24 0 1 0-84.48 0Z" fill="#F9E302" /><path d="M731.0848 128.4096s24.4224 16.128 24.4224 39.68-9.4208 34.9184-34.6112 41.4208c16.9472 6.7584 54.8352-11.1616 55.808-43.6224-2.5088-24.1152-26.3168-46.1824-45.6192-37.4784z" fill="#E0C503" /><path d="M724.8896 228.1984c-33.1264 0-60.1088-26.9824-60.1088-60.1088s26.9824-60.1088 60.1088-60.1088 60.1088 26.9824 60.1088 60.1088-26.9312 60.1088-60.1088 60.1088z m0-99.7376c-21.8624 0-39.6288 17.7664-39.6288 39.6288s17.7664 39.6288 39.6288 39.6288 39.6288-17.7664 39.6288-39.6288-17.7664-39.6288-39.6288-39.6288z" fill="#010101" /><path d="M621.4656 693.0944c-25.4464 31.7952-64.512 52.1728-108.3904 52.1728-76.6464 0-138.8032-62.1568-138.8032-138.8032 0-76.6464 62.1568-138.8032 138.8032-138.8032 45.9264 0 86.6304 22.3232 111.9232 56.7296h73.3184c-31.488-71.0144-102.5536-120.5248-185.2416-120.5248-111.872 0-202.5984 90.7264-202.5984 202.5984s90.7264 202.5984 202.5984 202.5984c80.896 0 150.6816-47.4112 183.1936-115.968h-74.8032z" fill="#FCB869" /><path d="M503.808 837.7344c-127.488 0-231.2192-103.7312-231.2192-231.2192S376.2688 375.2448 503.808 375.2448c91.3408 0 174.336 54.016 211.4048 137.5744a10.22464 10.22464 0 0 1-9.3696 14.3872h-79.9744c-3.2768 0-6.3488-1.536-8.2432-4.1984-26.5216-36.1472-69.0688-57.7024-113.8176-57.7024-77.824 0-141.1584 63.3344-141.1584 141.1584s63.3344 141.1584 141.1584 141.1584c43.1104 0 83.2512-19.3536 110.2336-53.0432 1.9456-2.4064 4.864-3.84 7.9872-3.84h81.5616c3.5328 0 6.7584 1.792 8.6528 4.7616 1.8944 2.9696 2.0992 6.7072 0.6144 9.8816-38.0928 80.384-120.1664 132.352-209.0496 132.352z m0-442.0096c-116.224 0-210.7392 94.5664-210.7392 210.7392s94.5664 210.7392 210.7392 210.7392c75.52 0 145.6128-41.1136 182.8864-106.0352h-59.8528c-30.8224 36.2496-75.4176 56.8832-123.0848 56.8832-89.1392 0-161.6384-72.4992-161.6384-161.6384S414.6688 444.8256 503.808 444.8256c49.4592 0 96.6144 23.04 127.1296 61.9008h58.4704c-36.5056-67.9424-107.7248-111.0016-185.6-111.0016z" fill="#010101" /><path d="M733.4912 667.8528c11.1104-45.7216 0-117.9136 0-117.9136h-65.0752c9.984 56.576 0 117.9136 0 117.9136h65.0752z" fill="#F7D53A" /><path d="M731.7504 678.0928H644.096c-3.1232 0-6.0416-1.3824-7.9872-3.84-1.9456-2.4064-2.7136-5.5808-2.048-8.6016 0.1536-0.6144 12.7488-59.8528 0.0512-113.408a10.25536 10.25536 0 0 1 9.984-12.5952h87.6544c4.864 0 9.0624 3.4304 10.0352 8.1408 0.6144 3.072 15.36 75.4176-0.3072 123.1872-1.3824 4.2496-5.2736 7.1168-9.728 7.1168z m-75.4176-20.48h67.6864c8.2432-33.5872 2.2016-79.104-0.8192-97.4336h-66.56c6.8096 39.2704 2.7136 78.1312-0.3072 97.4336z" fill="#010101" /><path d="M456.192 608.8704c0-41.4208 14.2848-79.2064 37.8368-108.1344-44.7488 12.6976-77.6704 56.32-77.6704 108.1344 0 51.8656 32.9728 95.4368 77.6704 108.1344-23.552-28.928-37.8368-66.7136-37.8368-108.1344z" fill="#FC9B4C" /><path d="M473.9072 727.296c-0.9216 0-1.8944-0.1024-2.816-0.4096-50.1248-14.2336-85.1456-62.7712-85.1456-118.016 0-55.2448 35.0208-103.7312 85.1456-118.016 4.3008-1.2288 8.9088 0.4608 11.3664 4.1984 2.4576 3.7376 2.2016 8.6016-0.6144 12.0832-22.9376 28.16-35.584 64.3072-35.584 101.6832 0 37.376 12.6464 73.5232 35.584 101.6832 2.816 3.4816 3.072 8.3456 0.6144 12.0832-1.9456 3.0208-5.1712 4.7104-8.5504 4.7104z m-28.9792-200.3456c-23.6544 18.7392-38.5024 48.896-38.5024 81.92 0 33.0752 14.848 63.1808 38.5024 81.9712-12.4928-25.088-19.1488-53.1968-19.1488-81.9712s6.7072-56.832 19.1488-81.92z" fill="#010101" /><path d="M724.8896 88.1664s103.3216 13.7216 103.3216 66.7648v725.8624s-4.1472 62.208-84.8896 62.208h77.6192s60.4672-7.1168 60.4672-69.5296v-721.92s-4.5056-66.048-81.2032-66.048-75.3152 2.6624-75.3152 2.6624z" fill="#FC7506" /><path d="M819.968 953.2416H189.4912c-39.5264 0-71.68-32.1536-71.68-71.68v-323.8912c0-5.632 4.608-10.24 10.24-10.24s10.24 4.608 10.24 10.24v323.8912c0 28.2112 22.9888 51.2 51.2 51.2h630.528c28.2112 0 51.2-22.9888 51.2-51.2V149.6064c0-28.2112-22.9888-51.2-51.2-51.2H189.4912c-28.2112 0-51.2 22.9888-51.2 51.2v235.8272c0 5.632-4.608 10.24-10.24 10.24s-10.24-4.608-10.24-10.24V149.6064c0-39.5264 32.1536-71.68 71.68-71.68h630.528c39.5264 0 71.68 32.1536 71.68 71.68v731.9552c-0.0512 39.5264-32.2048 71.68-71.7312 71.68z" fill="#010101" /><path d="M128.0512 496.8448c-5.632 0-10.24-4.608-10.24-10.24V424.96c0-5.632 4.608-10.24 10.24-10.24s10.24 4.608 10.24 10.24v61.6448c0 5.632-4.608 10.24-10.24 10.24z" fill="#010101" /><path d="M182.9376 247.552h698.4704v74.0864H182.9376z" fill="#F7D53A" /><path d="M826.5728 254.72h48.5376v66.8672h-48.5376z" fill="#E0C503" /><path d="M881.408 331.8272H128.0512c-5.632 0-10.24-4.608-10.24-10.24V247.552c0-5.632 4.608-10.24 10.24-10.24h753.408c5.632 0 10.24 4.608 10.24 10.24v74.0352c-0.0512 5.6832-4.608 10.24-10.2912 10.24z m-743.1168-20.48h732.928V257.792H138.2912v53.5552z" fill="#010101" /><path d="M223.4368 213.4016c-5.632 0-10.24-4.608-10.24-10.24V150.8352c0-18.0224 14.6432-32.6656 32.6656-32.6656h94.7712c5.632 0 10.24 4.608 10.24 10.24s-4.608 10.24-10.24 10.24H245.8624c-6.7072 0-12.1856 5.4784-12.1856 12.1856v52.3264c0 5.6832-4.5568 10.24-10.24 10.24zM430.0288 138.6496h-45.2096c-5.632 0-10.24-4.608-10.24-10.24s4.608-10.24 10.24-10.24h45.2096c5.632 0 10.24 4.608 10.24 10.24s-4.608 10.24-10.24 10.24zM710.5536 176.896c-0.3584 0-0.7168 0-1.0752-0.0512-5.632-0.5632-9.728-5.5808-9.1648-11.2128 1.9456-19.2512 19.9168-29.3888 20.6848-29.7984 4.9664-2.7136 11.1616-0.9216 13.9264 4.0448a10.24 10.24 0 0 1-3.9424 13.8752c-0.3072 0.2048-9.3696 5.5808-10.24 13.9776a10.2912 10.2912 0 0 1-10.1888 9.1648zM340.6336 288.2048H223.4368c-5.632 0-10.24-4.608-10.24-10.24s4.608-10.24 10.24-10.24h117.1968a10.24 10.24 0 1 1 0 20.48zM430.0288 288.2048h-43.8784c-5.632 0-10.24-4.608-10.24-10.24s4.608-10.24 10.24-10.24h43.8784c5.632 0 10.24 4.608 10.24 10.24s-4.608 10.24-10.24 10.24zM301.2608 910.1312h-49.5104c-21.248 0-38.5536-17.3056-38.5536-38.5536v-43.1616c0-5.632 4.608-10.24 10.24-10.24s10.24 4.608 10.24 10.24v43.1616c0 9.9328 8.0896 18.0736 18.0736 18.0736h49.5104c5.632 0 10.24 4.608 10.24 10.24s-4.608 10.24-10.24 10.24zM223.4368 798.8736c-5.632 0-10.24-4.608-10.24-10.24v-28.3648c0-5.632 4.608-10.24 10.24-10.24s10.24 4.608 10.24 10.24v28.3648c0 5.6832-4.5568 10.24-10.24 10.24z" fill="#FFFFFF" /></svg>