<?xml version="1.0" standalone="no"?><!DOCTYPE svg PUBLIC "-//W3C//DTD SVG 1.1//EN" "http://www.w3.org/Graphics/SVG/1.1/DTD/svg11.dtd"><svg class="icon" width="48px" height="48.00px" viewBox="0 0 1024 1024" version="1.1" xmlns="http://www.w3.org/2000/svg"><path d="M700.76 416h-78.18c-2.98 54.06-13.08 102.7-28.42 140.82 55.42-26.48 96.04-78.38 106.6-140.82z m0-64c-10.58-62.44-51.18-114.34-106.6-140.82 15.36 38.12 25.44 86.76 28.42 140.82h78.18zM512 194.62c-15.38 14.9-41.54 68.84-46.86 157.38h93.74c-5.34-88.52-31.5-142.48-46.88-157.38z m-82.16 16.56c-55.42 26.48-96.04 78.38-106.6 140.82h78.18c2.98-54.06 13.06-102.7 28.42-140.82z m0 345.64c-15.36-38.12-25.44-86.76-28.42-140.82h-78.18c10.56 62.44 51.18 114.34 106.6 140.82zM558.86 416h-93.74c5.32 88.52 31.48 142.48 46.86 157.38 15.4-14.9 41.56-68.86 46.88-157.38zM960 716.8V51.2c0-32-19.2-51.2-51.2-51.2H256C147.2 0 64 83.2 64 192v640c0 108.8 83.2 192 192 192h652.8c25.6 0 51.2-19.2 51.2-51.2v-32c0-12.8-6.4-25.6-19.2-38.4-6.4-32-6.4-121.6 0-147.2 12.8-6.4 19.2-19.2 19.2-38.4zM512 128c141.38 0 256 114.62 256 256s-114.62 256-256 256S256 525.38 256 384 370.62 128 512 128z m320 768H256c-38.4 0-64-25.6-64-64s32-64 64-64h576v128z" fill="#ffffff" /></svg>