<?xml version="1.0" standalone="no"?><!DOCTYPE svg PUBLIC "-//W3C//DTD SVG 1.1//EN" "http://www.w3.org/Graphics/SVG/1.1/DTD/svg11.dtd"><svg class="icon" width="48px" height="47.13px" viewBox="0 0 1043 1024" version="1.1" xmlns="http://www.w3.org/2000/svg"><path d="M857.190207 842.72693q3.856874 148.489642-148.489642 144.632768l-112.813559 0 0-67.495292 85.815443 0q90.636535 4.821092 85.815443-80.99435l0-351.939736-324.94162 0q-8.677966 387.615819-392.436911 537.06968l0-68.45951q293.122411-138.847458 297.943503-468.610169l-189.951036 0 0-67.495292 699.05838 0 0 423.291902zM433.898305 0q-72.316384 347.118644-429.077213 477.288136l0-62.6742q261.303202-121.491525 333.619586-414.613936l95.457627 0zM708.700565 0q72.316384 293.122411 333.619586 414.613936l0 62.6742q-356.760829-130.169492-432.934087-477.288136l99.314501 0z" fill="#d4237a" /></svg>