<?xml version="1.0" standalone="no"?><!DOCTYPE svg PUBLIC "-//W3C//DTD SVG 1.1//EN" "http://www.w3.org/Graphics/SVG/1.1/DTD/svg11.dtd"><svg class="icon" width="48px" height="48.00px" viewBox="0 0 1024 1024" version="1.1" xmlns="http://www.w3.org/2000/svg"><path d="M698.559301 470.987384m-41.012616 0a41.012616 41.012616 0 1 0 82.025231 0 41.012616 41.012616 0 1 0-82.025231 0Z" fill="#B30F14" /><path d="M512 959.948464A448.06626 448.06626 0 0 1 337.632578 99.243069a448.094728 448.094728 0 0 1 348.734844 825.553127 445.317689 445.317689 0 0 1-174.367422 35.152268z m0-876.27409c-236.180835 0-428.325626 192.144791-428.325626 428.31581s192.144791 428.325626 428.325626 428.325626 428.31581-192.144791 428.31581-428.325626S748.171019 83.674374 512 83.674374z" fill="#B30F14" /><path d="M512 910.179685a396.933011 396.933011 0 1 1 154.989992-31.294452 395.81395 395.81395 0 0 1-154.989992 31.294452z m0-786.552859c-214.152997 0-388.373174 174.220177-388.373174 388.363358s174.220177 388.373174 388.373174 388.373173 388.363357-174.220177 388.363357-388.373173-174.259442-388.363357-388.363357-388.363358z" fill="#B30F14" /><path d="M809.032248 361.20158c-93.657579-102.168335-246.605775-9.217531-285.3999 81.053414-46.215269 107.537866-9.119368 367.601825-9.119368 367.601826 51.761494-114.468193 164.10936-163.284789 230.752406-194.363281 57.553127-26.837839 173.621381-134.444419 63.766862-254.291959zM695.6733 565.940719a96.798804 96.798804 0 1 1 96.798804-96.798804 96.788987 96.788987 0 0 1-96.798804 96.798804z" fill="#B30F14" /><path d="M514.51298 809.85682s-41.964799-85.274435-123.401051-133.708195-199.487404-106.75256-217.922466-184.546953c-11.779593-49.562637-2.679857-162.744891 123.430499-187.963036 87.070823-17.463246 167.388013 51.123433 162.097013 131.313011-3.582959 54.294106-55.678209 55.953066-73.485026 53.724759-23.657349-2.944898-38.931554-16.334369-40.983166-43.19184-1.914184-25.110165 16.815369-27.348288 10.091184-41.945166-8.510756-18.474328-56.591127-19.014226-77.313394-1.590246-14.243491 11.985736-31.412247 56.728556-24.96292 82.201925 14.214042 56.080678 85.402048 84.194639 120.613213 109.088846 33.581656 23.755512 109.540396 72.21872 127.749684 103.709498s14.08643 112.907397 14.08643 112.907397z" fill="#B30F14" /></svg>