<?xml version="1.0" standalone="no"?><!DOCTYPE svg PUBLIC "-//W3C//DTD SVG 1.1//EN" "http://www.w3.org/Graphics/SVG/1.1/DTD/svg11.dtd"><svg class="icon" width="48px" height="48.00px" viewBox="0 0 1024 1024" version="1.1" xmlns="http://www.w3.org/2000/svg"><path d="M91.384 48.396c-3.168-22.78 8.336-26.264 28.704-26.212 262.216 0.672 524.444 0.636 786.668 0.036 17.3-0.04 26.248 3.388 24.328 21.908-0.356 6.936-1.048 13.88-1.048 20.812-0.008 293.956-0.18 587.916 0.572 881.864 0.056 20.98-4.876 27.436-26.476 27.376a148481.16 148481.16 0 0 0-789.696-0.032c-18.84 0.044-22.42-5.288-22.384-23.092 0.6-293.252 0.456-586.512 0.416-879.768-0.004-7.632-0.712-15.26-1.084-22.892zM330.92 915.52l1.932 0.72 1.924-0.732 17.12-0.036c103.228 1.992 206.456 1.992 309.68 0l38.08 0.116c10.072 3.072 13.916-0.988 13.604-11.108-0.66-21.304-0.908-42.616-1.312-63.928l0.084-29.568c2.056-22.228 2.044-44.46 0.18-66.7 0.472-62.076 0.276-124.18 1.848-186.228 0.44-17.368-5.5-20.436-21.272-20.36-122.796 0.6-245.592 0.308-368.388 0.404-6.184 0.008-12.364 1.052-18.552 1.616-4.372 2.82-3.24 7.332-3.224 11.32 0.244 64.156 0.568 128.304 0.872 192.452-0.436 53.652-0.704 107.3-1.42 160.944-0.168 12.6 6.06 13.976 15.948 11.168l12.896-0.08zM808.496 354.1c16.736-0.008 33.464-0.024 50.192-0.036 18 4.46 27.188 0.272 25.2-21.068-1.92-20.7-0.916-41.7-0.62-62.56 0.116-8.768-2.656-12.428-11.92-12.268-25.72 0.448-51.472 0.444-77.2-0.004-9.136-0.16-12.128 3.344-12.028 12.128 0.228 20.168-0.34 40.336-0.348 60.508-0.02 25.344 0.084 25.344 26.724 23.3zM154.98 544.532c23.596 1.988 47.192 1.98 70.792-0.008 9.972 3.584 14.136 0.056 13.952-10.48-0.42-24.276-0.684-48.568-0.392-72.84 0.112-9.852-3.484-13.468-13.4-13.26-24.272 0.496-48.568 0.512-72.84 0.008-10.42-0.216-15.048 2.796-14.788 14.052a1328.92 1328.92 0 0 1-0.292 70.756c-0.42 13.828 6.42 14.912 16.968 11.772z m58.4-190.42c9.484-1.944 25.728 10.964 26.084-11.124 0.404-24.296-0.416-48.62-0.148-72.924 0.1-9.068-3.36-12.044-12.248-11.896-25 0.424-50.028 0.68-75.008-0.084-11.64-0.356-14.004 4.704-13.772 14.828 0.424 18.048-0.176 36.112-0.164 54.176 0.02 29.276 0.088 29.276 29.248 27.016l46.008 0.008z m669.036 117.36c4.832-18.34-2.024-25.356-20.972-24.132-19.312 1.248-38.844 1.324-58.136-0.028-19.06-1.336-25.592 5.576-20.312 23.808-0.416 15.332-1.1 30.656-1.18 45.984-0.156 30.176-0.016 30.176 31.016 27.864l37.332 0.04c33.284 2.416 33.396 2.416 33.264-29.672-0.06-14.628-0.66-29.248-1.012-43.864z m-714.92 262.616h45.752c26.32 2.108 26.404 2.108 26.4-24-0.004-19.548-0.6-39.1-0.268-58.632 0.168-9.708-3.148-13.724-13.232-13.528-24.424 0.476-48.864 0.524-73.284-0.024-10.772-0.236-14.908 3.428-14.58 14.424 0.564 18.824-0.12 37.688-0.12 56.536 0 27.588 0.06 27.588 29.332 25.224zM213.268 164.584c26.292 2.064 26.38 2.064 26.372-23.972-0.008-19.52-0.608-39.056-0.28-58.572 0.16-9.616-2.948-13.772-13.12-13.568-24.396 0.5-48.82 0.5-73.216 0.004-10.604-0.22-15.02 3.296-14.74 14.356 0.516 20.208 1.256 40.556-0.528 60.632-1.912 21.416 7.548 25.54 25.54 20.992l49.972 0.128z m570.148 550.144c-1.3 10.072-6.936 23.008 12.712 19.2 23.588 1.704 47.176 1.708 70.76 0.004 11.028 3.204 17.096 0.82 16.692-12.424-0.684-22.192-1.172-44.46-0.084-66.62 0.732-14.624-5.58-17.672-18.344-17.036-15.232 0.764-30.532-0.108-45.8 0.076-40.98 0.472-40.98 0.552-35.948 43.308a100.996 100.996 0 0 0 0.012 33.492zM200.76 923.668c6.24 0.348 12.56 0.176 18.696 1.148 17.104 2.724 21.512-5.068 20.488-21.016-1.332-20.86-0.968-41.86-0.588-62.788 0.176-9.832-3.144-13.528-13.212-13.304a1537.84 1537.84 0 0 1-73.276-0.032c-10.7-0.26-15.072 2.924-14.544 14.128 0.688 14.608-0.144 29.296-0.168 43.952-0.056 41.432-0.024 41.432 41.832 37.912h20.772z m636.94 0.016c45.788 3.932 45.792 3.932 45.76-39.952-0.004-4.172-0.004-8.336-0.028-12.512-0.208-43.412-0.212-43.72-43.512-43.284-18.608 0.18-43.016-7.912-54.248 3.536-11.088 11.316-4 35.656-3.992 54.288 0.016 41.66 0.224 41.66 43.62 37.924h12.4zM304.412 195c-26.052 5.776-52.512 4.124-78.864 4.22-29.968 0.112-59.936 0.096-89.904-0.016-7.728-0.032-15.192 0.492-22.484 3.504-10.476 4.332-18.776 34.752-11.304 42.968 1.128 1.24 4.316 2.464 5.132 1.836 12.468-9.532 23.672 1.308 35.404 1.68 54.68 1.744 109.344 2.016 162.084-16.212 0.604 18.072 1.216 36.148 1.828 54.224-0.348 53.596-0.46 107.196-1.2 160.792-0.184 13.488 8.376 11.768 16.712 11.76 52.944-0.052 105.892-0.108 158.832-0.108 72.452 0.004 144.904 0.124 217.356-0.004 8.248-0.012 18.936 3.808 18.728-11.688-0.72-53.592-0.84-107.192-1.204-160.788 0.608-18.064 1.22-36.124 1.82-54.188 17.916 5.316 37.384 5.184 54.548 10.564 37.328 11.688 74.72 6.12 111.536 3.792 13.164-0.832 24.624-6.944 35.868 5.56 6.2-38.116 3.932-54.488-42.14-54.456-53.204 0.036-107.212 9-159.724-7.624l-0.968-106.808c9.908-4.664 19.34-0.604 28.384 2.432 15.88 5.332 26.112 0.092 29.636-15.596 2.18-9.692 8.032-9.848 15.3-9.832 27.916 0.048 55.836 0.376 83.736-0.14 13.316-0.24 20.94 5.068 18.372 18.36-3.544 18.4 8.472 18.324 20.036 18.4 16.236 0.104 8.116-12.824 9.464-20.136 1.244-6.748-0.584-14.032 0.436-20.86 3.008-20.28-5.224-25.524-25.28-25.468-250.536 0.664-501.064 0.428-751.596 0.428-48.676 0-47.884-0.04-45.096 49.408 0.928 16.528 12.844 15.088 21.568 16.396 11.148 1.668 8.44-9.132 7.984-15.092-1.296-16.772 6.092-22.156 22.184-21.54 24.392 0.936 48.864 0.896 73.256 0.012 15.836-0.572 23.2 4.296 22.38 21.32-1.044 21.584 0.136 43.26-0.356 64.884-0.244 10.704 3.832 13.932 14.492 15.14 16.736 1.892 29.324-6.516 42.972-12.948 0.02 15.28 0.044 30.552 0.072 45.824z m528.88-126.508h-8.36c-42.868 0.048-42.868 0.048-43.16 42.36-0.396 55.108-0.396 55.108 55.364 55.044 46.516-0.06 46.516-0.06 46.384-47.288-0.14-50.116-0.14-50.116-50.228-50.116z" fill="#262626" /><path d="M91.384 48.396c0.376 7.632 1.084 15.26 1.084 22.892 0.04 293.256 0.184 586.516-0.416 879.768-0.036 17.804 3.544 23.136 22.384 23.092 263.232-0.68 526.464-0.688 789.696 0.032 21.6 0.064 26.532-6.396 26.476-27.376-0.752-293.948-0.58-587.908-0.572-881.864 0-6.932 0.692-13.876 1.048-20.812 17.528 3.18 9.692 19.396 14.252 29.116 3.004 6.384 1.364 15.064 1.364 22.716 0.048 277.068-0.06 554.136 0.304 831.2 0.012 14.864-2.016 29.352-5.556 43.248-7.072 27.796-32.04 29.428-54.66 33.276-4.752 0.804-9.752 0.216-14.644 0.216-240.768 0.004-481.544-0.1-722.324 0.26-14.184 0.024-27.776-2.656-41.172-5.572-15.252-3.316-26.056-14.424-28.688-30.096-2.86-17.04-4.608-34.476-4.632-51.744a421971.2 421971.2 0 0 1-0.008-814.456c0.012-15.172 2.752-30.34 4.104-45.524 0.692-7.656 6.024-8.368 11.96-8.372z" fill="#E5E5E5" /><path d="M715.532 287.168c0.364 53.596 0.484 107.196 1.204 160.788 0.212 15.496-10.48 11.672-18.728 11.688-72.452 0.128-144.908 0.008-217.356 0.004-52.94 0-105.888 0.06-158.832 0.108-8.336 0.008-16.896 1.728-16.712-11.76 0.736-53.596 0.848-107.196 1.196-160.788 11.276-2.932 7.204-12.252 7.264-19.084 0.424-48.176 0.312-96.36 0.492-144.536 0.108-28.208 5.084-33.268 32.544-33.276 107.528-0.04 215.072 0.908 322.576-0.556 34.028-0.468 38.5 10.032 38.636 38.756 0.212 46.532 0.028 93.068 0.416 139.6 0.048 6.844-3.984 16.152 7.3 19.056z m-204.6 0.136c-57.252 0-114.508 0.2-171.752-0.152-13.16-0.084-22.124 2.568-20.976 18.248 2.816 38.384-4.32 76.424-4.092 114.728 0.164 27.66 2.744 30.524 29.62 30.54 111.008 0.072 222.016 0.064 333.032 0.008 26.916-0.008 29.868-4.124 31.208-31.972 1.828-37.732-4.8-75.064-4.036-112.636 0.3-14.708-4.608-19.208-19.16-19.044-57.948 0.684-115.896 0.284-173.844 0.28zM305.848 539.716c6.184-0.564 12.364-1.604 18.548-1.612 122.796-0.092 245.588 0.2 368.388-0.404 15.772-0.08 21.716 2.992 21.272 20.36-1.572 62.048-1.376 124.152-1.848 186.224-11.384 1.048-18.52-9.296-30.86-9.192-123.744 1.064-247.504 0.816-371.252 0.94 0.456-61.612-3.036-123.284 2.368-184.804 0.588-6.68-3.752-8.1-6.616-11.512z" fill="#A3D6E2" /><path d="M310.096 736.032c123.752-0.124 247.512 0.12 371.252-0.94 12.34-0.104 19.476 10.24 30.86 9.192 1.864 22.244 1.876 44.476-0.18 66.704-9.956-0.688-12.692 4.584-12.512 13.724 0.18 8.88 0.408 16.684 12.428 15.844 0.408 21.312 0.652 42.624 1.312 63.928 0.312 10.12-3.536 14.18-13.608 11.108-1.788-10.296-9.924-7.908-16.46-7.908-116.248-0.092-232.492-0.092-348.736-0.02-6.548 0.004-14.672-2.356-16.436 7.94-9.888 2.808-16.116 1.432-15.948-11.168 0.72-53.644 0.988-107.292 1.42-160.944 4.828-0.168 6.344-3.26 6.608-7.46z" fill="#7BB7C7" /><path d="M304.336 149.18c-13.648 6.428-26.236 14.84-42.972 12.948-10.66-1.208-14.736-4.436-14.492-15.14 0.492-21.624-0.688-43.304 0.356-64.884 0.82-17.024-6.544-21.892-22.38-21.32-24.392 0.884-48.864 0.924-73.256-0.012-16.092-0.616-23.484 4.768-22.184 21.54 0.456 5.964 3.164 16.764-7.984 15.092-8.72-1.308-20.636 0.132-21.568-16.396-2.784-49.452-3.576-49.412 45.1-49.412 250.532 0 501.06 0.232 751.596-0.436 20.06-0.056 28.288 5.188 25.28 25.468-1.02 6.832 0.804 14.112-0.436 20.86-1.348 7.312 6.768 20.24-9.464 20.136-11.564-0.076-23.58 0-20.036-18.4 2.572-13.292-5.056-18.6-18.372-18.36-27.9 0.512-55.82 0.184-83.736 0.14-7.268-0.012-13.12 0.14-15.3 9.832-3.524 15.688-13.756 20.928-29.636 15.596-9.044-3.036-18.476-7.096-28.384-2.432-133.076-0.468-266.148-0.868-399.228-1.528-9.38-0.044-11.876 3.904-11.848 12.492 0.044 18.072-0.656 36.144-1.056 54.216zM717.436 190.812c52.512 16.624 106.52 7.66 159.724 7.624 46.076-0.032 48.34 16.34 42.14 54.456-11.244-12.5-22.704-6.388-35.868-5.56-36.816 2.332-74.208 7.896-111.536-3.792-17.164-5.376-36.632-5.248-54.548-10.564a144.056 144.056 0 0 1 0.088-42.164zM304.476 232.984c-52.74 18.228-107.408 17.956-162.084 16.212-11.728-0.372-22.936-11.212-35.404-1.68-0.816 0.628-4.004-0.6-5.132-1.836-7.472-8.216 0.832-38.636 11.304-42.968 7.292-3.012 14.756-3.54 22.484-3.504 29.968 0.112 59.936 0.132 89.904 0.016 26.352-0.096 52.812 1.556 78.864-4.22 2.092 12.656 2.108 25.316 0.064 37.98z" fill="#3E3E3E" /><path d="M833.292 68.484c50.084 0.008 50.084 0.008 50.228 50.12 0.132 47.232 0.132 47.232-46.384 47.288-55.756 0.064-55.756 0.064-55.364-55.044 0.292-42.316 0.292-42.316 43.16-42.36 2.792-0.004 5.572 0.004 8.36-0.004z m-0.732 84.936c12.448-1.108 25.968-2.064 26.464-22.044 0.46-18.784-10.044-26.42-26.152-28.164-16.7-1.812-28.308 11.032-26.856 30.928 1 13.712 11.356 19.3 26.544 19.28zM825.3 923.684c-43.4 3.736-43.604 3.736-43.62-37.924-0.008-18.632-7.096-42.972 3.992-54.288 11.236-11.444 35.64-3.356 54.248-3.536 43.3-0.432 43.304-0.124 43.512 43.284 0.024 4.176 0.024 8.34 0.028 12.512 0.032 43.888 0.028 43.888-45.76 39.952 0.276-6.416 4.892-9.176 9.476-12.696 14.508-11.116 16.432-29.164 5.08-41.424-10.728-11.576-29.968-11.824-40.96-0.54-10.708 10.996-9.772 29.724 2.816 40.8 4.648 4.096 11.004 6.316 11.188 13.86zM179.988 923.668c-41.852 3.524-41.888 3.524-41.832-37.912 0.024-14.656 0.86-29.344 0.168-43.952-0.528-11.204 3.844-14.392 14.544-14.128a1537.84 1537.84 0 0 0 73.276 0.032c10.068-0.224 13.388 3.472 13.212 13.304-0.38 20.928-0.744 41.928 0.588 62.788 1.024 15.948-3.384 23.74-20.488 21.016-6.14-0.972-12.46-0.8-18.696-1.148-1.416-8.596 5.624-11.544 10.384-16.404 10.272-10.492 9.272-28.96-1.424-39.104-10.672-10.108-31.436-10.172-41.184 1.564-9.988 12.016-8.5 25.684 1.156 37.488 4.232 5.172 11.716 7.86 10.296 16.456zM304.476 232.984a116.944 116.944 0 0 0-0.068-37.984l-0.076-45.82c0.4-18.072 1.1-36.148 1.056-54.216-0.024-8.584 2.468-12.536 11.848-12.492 133.08 0.664 266.152 1.064 399.228 1.528l0.968 106.808a143.944 143.944 0 0 0-0.084 42.168c-0.6 18.064-1.212 36.124-1.82 54.188-11.28-2.904-7.248-12.212-7.304-19.06-0.388-46.532-0.204-93.068-0.416-139.6-0.136-28.724-4.608-39.224-38.636-38.756-107.504 1.464-215.048 0.516-322.576 0.556-27.46 0.008-32.436 5.068-32.544 33.276-0.18 48.176-0.068 96.36-0.492 144.536-0.06 6.832 4.012 16.152-7.264 19.084l-1.82-54.216z" fill="#E5E5E5" /><path d="M866.888 733.928c-23.584 1.704-47.172 1.7-70.76-0.004-0.796-8.676-1.484-17.424-12.712-19.2a101.128 101.128 0 0 1-0.016-33.496c17.088-14.12 32.216-31.048 58.784-25.404 16.98 3.608 28.44 13.416 29.044 30.88 0.54 15.952-0.248 31.724-4.34 47.224z" fill="#FDFDFD" /><path d="M163.292 164.464c-17.992 4.548-27.448 0.424-25.54-20.992 1.788-20.076 1.044-40.424 0.528-60.632-0.28-11.06 4.136-14.576 14.74-14.356 24.396 0.496 48.82 0.496 73.216-0.004 10.172-0.208 13.28 3.948 13.12 13.568-0.328 19.516 0.272 39.048 0.28 58.572 0.004 26.032-0.08 26.032-26.372 23.972-1.196-7.86 4.568-12.724 7.84-18.744 8.276-15.232 6.868-29.72-5.444-42.128-7.068-7.112-41.172-7.204-49.944-0.804-13.708 10-13.216 23.712-8.492 37.6 2.692 7.888 7.188 15.144 6.068 23.948zM167.496 734.088c-29.272 2.364-29.332 2.364-29.332-25.224 0-18.848 0.684-37.712 0.12-56.536-0.328-10.996 3.808-14.66 14.58-14.424 24.42 0.548 48.86 0.5 73.284 0.024 10.084-0.196 13.4 3.82 13.232 13.528-0.332 19.532 0.264 39.084 0.268 58.632 0 26.108-0.084 26.108-26.4 24-1.4-8.76 5.924-13.688 9.02-20.468 7.1-15.544 4.592-30.388-6.048-42.676-8.532-9.86-38.148-8.704-48.804-0.256-15.056 11.924-15.808 26.592-8.904 42.92 2.9 6.868 10.392 11.72 8.984 20.48zM812.828 544.964c-31.032 2.312-31.172 2.312-31.016-27.864 0.08-15.328 0.76-30.656 1.18-45.984 18.488-9.884 37.988-12.712 59.064-12.96 16.016-0.188 25.764 12.8 40.36 13.312 0.356 14.62 0.952 29.236 1.012 43.86 0.128 32.088 0.02 32.088-33.264 29.672-0.864-8.084 4.828-14.16 6.572-21.076 3.26-12.96 6.884-27.64-7.324-37.68-11.292-7.98-23.624-9.176-34.612-0.448-12.42 9.856-13.428 23.448-7.592 37.44 2.932 7.06 6.34 13.808 5.62 21.728zM167.372 354.104c-29.16 2.256-29.224 2.256-29.248-27.016-0.012-18.064 0.588-36.128 0.164-54.176-0.236-10.12 2.132-15.18 13.772-14.828 24.984 0.76 50.008 0.508 75.008 0.084 8.888-0.148 12.344 2.828 12.248 11.896-0.268 24.304 0.552 48.628 0.148 72.924-0.36 22.084-16.6 9.18-26.084 11.124-0.06-8.38 7.66-12.84 10.056-20.064 4.88-14.688 5.276-30.624-5.568-40.876-14.332-13.556-33.28-10.644-50.5-3.364-14.624 6.184-11.856 19.876-12.712 32.184-0.92 13.052 11.136 20.396 12.716 32.112z" fill="#E5E5E5" /><path d="M225.772 544.524c-23.6 1.988-47.196 1.996-70.792 0.008-0.512-5.5-0.312-11.192-1.648-16.484-9.392-37.216 1.664-62.58 54.248-52.428 13.684 2.64 18.648 10.04 18.38 23.04-0.312 15.28-0.144 30.58-0.188 45.864z" fill="#FDFDFD" /><path d="M808.496 354.1c-26.64 2.044-26.744 2.044-26.728-23.296 0.008-20.172 0.576-40.34 0.348-60.508-0.1-8.784 2.892-12.288 12.028-12.128 25.728 0.448 51.48 0.452 77.2 0.004 9.264-0.164 12.04 3.5 11.92 12.268-0.292 20.86-1.3 41.86 0.62 62.56 1.988 21.336-7.2 25.528-25.2 21.068 2.844-7.752 5.376-15.632 8.584-23.228 5.592-13.228 4.784-25.116-4.176-37-11.524-15.268-27.56-10.244-42.188-10.384-15.612-0.14-22.78 9.056-25.244 24.444-2.848 17.852 5.224 31.752 12.836 46.2zM225.772 544.524c0.044-15.284-0.128-30.584 0.188-45.868 0.268-13-4.696-20.4-18.38-23.04-52.584-10.148-63.64 15.216-54.248 52.428 1.336 5.292 1.136 10.984 1.648 16.484-10.548 3.14-17.388 2.06-16.972-11.768 0.704-23.572 0.844-47.184 0.292-70.756-0.26-11.256 4.368-14.268 14.788-14.052 24.272 0.504 48.568 0.484 72.84-0.008 9.916-0.204 13.512 3.412 13.4 13.26-0.292 24.272-0.028 48.564 0.392 72.84 0.192 10.536-3.976 14.064-13.948 10.48z" fill="#E5E5E5" /><path d="M808.496 354.1c-7.612-14.448-15.684-28.348-12.832-46.2 2.46-15.388 9.628-24.584 25.244-24.444 14.628 0.14 30.664-4.884 42.188 10.384 8.96 11.884 9.768 23.772 4.176 37-3.208 7.592-5.74 15.476-8.584 23.228l-50.192 0.032zM167.372 354.104c-1.58-11.716-13.636-19.06-12.72-32.112 0.856-12.312-1.912-26 12.712-32.184 17.224-7.28 36.172-10.192 50.5 3.364 10.844 10.252 10.448 26.188 5.568 40.876-2.396 7.22-10.116 11.68-10.056 20.064l-46.004-0.008zM167.496 734.088c1.412-8.76-6.084-13.612-8.988-20.48-6.904-16.328-6.152-30.996 8.904-42.92 10.656-8.444 40.272-9.6 48.804 0.256 10.64 12.288 13.148 27.132 6.048 42.676-3.096 6.78-10.42 11.708-9.02 20.468H167.496zM163.292 164.464c1.116-8.804-3.38-16.06-6.064-23.952-4.724-13.892-5.216-27.604 8.492-37.6 8.768-6.4 42.876-6.308 49.944 0.804 12.316 12.408 13.724 26.9 5.444 42.128-3.276 6.02-9.036 10.884-7.84 18.744-16.66-0.044-33.316-0.088-49.976-0.124z" fill="#FDFDFD" /><path d="M866.888 733.928c4.092-15.5 4.884-31.272 4.34-47.224-0.6-17.46-12.064-27.268-29.044-30.88-26.572-5.644-41.696 11.28-58.784 25.404-5.032-42.756-5.032-42.836 35.948-43.308 15.268-0.184 30.572 0.692 45.8-0.076 12.764-0.636 19.076 2.412 18.344 17.036-1.084 22.16-0.596 44.428 0.084 66.62 0.408 13.252-5.66 15.632-16.688 12.428z" fill="#E5E5E5" /><path d="M812.828 544.964c0.72-7.92-2.688-14.668-5.628-21.724-5.836-13.992-4.828-27.584 7.592-37.44 10.988-8.732 23.32-7.532 34.612 0.448 14.208 10.04 10.584 24.72 7.324 37.68-1.744 6.916-7.432 12.992-6.572 21.076l-37.328-0.04zM179.988 923.668c1.42-8.596-6.064-11.284-10.296-16.456-9.656-11.804-11.144-25.472-1.156-37.488 9.748-11.736 30.512-11.672 41.184-1.564 10.7 10.144 11.7 28.612 1.424 39.104-4.76 4.86-11.8 7.804-10.384 16.404h-20.772zM825.3 923.684c-0.184-7.544-6.54-9.76-11.192-13.86-12.588-11.08-13.524-29.804-2.816-40.8 10.992-11.284 30.236-11.036 40.96 0.54 11.356 12.26 9.428 30.308-5.08 41.424-4.584 3.52-9.2 6.276-9.476 12.696h-12.396z" fill="#FDFDFD" /><path d="M318.02 915.604c1.764-10.296 9.888-7.936 16.436-7.94 116.244-0.076 232.488-0.076 348.736 0.02 6.536 0 14.672-2.392 16.46 7.908-12.684-0.044-25.384-0.08-38.072-0.116-4.948-5.628-11.632-3.748-17.688-3.756-91.432-0.104-182.868-0.104-274.304 0-6.056 0.012-12.732-1.864-17.692 3.756-5.708 0.012-11.416 0.02-17.12 0.036-1.292-2.324-2.58-2.304-3.856 0.012l-12.9 0.08z" fill="#A3D6E2" /><path d="M310.096 736.032c-0.268 4.2-1.78 7.292-6.604 7.46-0.304-64.148-0.628-128.296-0.872-192.452-0.012-3.988-1.148-8.5 3.228-11.324 2.86 3.416 7.204 4.832 6.616 11.512-5.404 61.52-1.912 123.188-2.368 184.804z" fill="#E5E5E5" /><path d="M882.416 471.472c-14.592-0.512-24.344-13.5-40.36-13.312-21.076 0.248-40.576 3.076-59.064 12.96-5.28-18.232 1.252-25.144 20.312-23.808 19.292 1.348 38.824 1.276 58.136 0.028 18.952-1.224 25.808 5.788 20.976 24.132z" fill="#A3D6E2" /><path d="M351.9 915.472c4.96-5.62 11.636-3.748 17.692-3.756 91.436-0.104 182.868-0.104 274.304 0 6.056 0.012 12.74-1.872 17.688 3.756-103.228 1.992-206.456 1.992-309.684 0z" fill="#7BB7C7" /><path d="M711.948 840.552c-12.024 0.84-12.248-6.964-12.428-15.844-0.18-9.136 2.556-14.412 12.512-13.724l-0.084 29.568z" fill="#A3D6E2" /><path d="M783.416 714.728c11.228 1.772 11.916 10.524 12.712 19.2-19.652 3.808-14.016-9.132-12.712-19.2z" fill="#E5E5E5" /><path d="M330.92 915.52c1.276-2.316 2.564-2.336 3.856-0.012l-1.924 0.732-1.932-0.72zM510.932 287.304c57.948 0.004 115.896 0.404 173.84-0.28 14.552-0.168 19.46 4.332 19.16 19.044-0.764 37.576 5.864 74.904 4.036 112.636-1.34 27.848-4.292 31.964-31.208 31.972-111.016 0.056-222.024 0.064-333.032-0.008-26.876-0.012-29.456-2.88-29.62-30.54-0.228-38.304 6.908-76.344 4.092-114.728-1.148-15.676 7.816-18.328 20.976-18.248 57.248 0.352 114.504 0.152 171.756 0.152z" fill="#7BB7C7" /><path d="M832.56 153.42c-15.188 0.02-25.544-5.568-26.544-19.276-1.452-19.9 10.156-32.74 26.856-30.928 16.108 1.744 26.612 9.38 26.152 28.164-0.496 19.976-14.016 20.932-26.464 22.04z" fill="#FDFDFD" /></svg>