<?xml version="1.0" standalone="no"?><!DOCTYPE svg PUBLIC "-//W3C//DTD SVG 1.1//EN" "http://www.w3.org/Graphics/SVG/1.1/DTD/svg11.dtd"><svg class="icon" width="48px" height="48.00px" viewBox="0 0 1024 1024" version="1.1" xmlns="http://www.w3.org/2000/svg"><path d="M510.3 62.3c-248 0-449 201-449 449s201 449 449 449 449-201 449-449-201.1-449-449-449z m125.5 599.2H384.7c-13.7 0-24.7-11.1-24.7-24.7V385.7c0-13.7 11.1-24.7 24.7-24.7h251.1c13.7 0 24.7 11.1 24.7 24.7v251.1c0 13.6-11.1 24.7-24.7 24.7z" fill="#E12D38" /><path d="M871.2 485.5H736.9c-4.8 0-8.8-3.9-8.8-8.8 0-4.8 3.9-8.8 8.8-8.8h134.3c4.8 0 8.8 3.9 8.8 8.8s-3.9 8.8-8.8 8.8zM871.2 554.5H736.9c-4.8 0-8.8-3.9-8.8-8.8 0-4.8 3.9-8.8 8.8-8.8h134.3c4.8 0 8.8 3.9 8.8 8.8s-3.9 8.8-8.8 8.8zM152.8 538.5h134.3c4.8 0 8.8 3.9 8.8 8.8 0 4.8-3.9 8.8-8.8 8.8H152.8c-4.8 0-8.8-3.9-8.8-8.8s3.9-8.8 8.8-8.8zM152.8 469.5h134.3c4.8 0 8.8 3.9 8.8 8.8 0 4.8-3.9 8.8-8.8 8.8H152.8c-4.8 0-8.8-3.9-8.8-8.8s3.9-8.8 8.8-8.8z" fill="#FED338" /><path d="M485.5 152.8v134.3c0 4.8-3.9 8.8-8.8 8.8-4.8 0-8.8-3.9-8.8-8.8V152.8c0-4.8 3.9-8.8 8.8-8.8s8.8 3.9 8.8 8.8zM554.5 152.8v134.3c0 4.8-3.9 8.8-8.8 8.8-4.8 0-8.8-3.9-8.8-8.8V152.8c0-4.8 3.9-8.8 8.8-8.8s8.8 3.9 8.8 8.8z" fill="#FED338" /><path d="M538.5 871.2V736.9c0-4.8 3.9-8.8 8.8-8.8 4.8 0 8.8 3.9 8.8 8.8v134.3c0 4.8-3.9 8.8-8.8 8.8s-8.8-3.9-8.8-8.8zM469.5 871.2V736.9c0-4.8 3.9-8.8 8.8-8.8 4.8 0 8.8 3.9 8.8 8.8v134.3c0 4.8-3.9 8.8-8.8 8.8s-8.8-3.9-8.8-8.8z" fill="#FED338" /></svg>