<?xml version="1.0" standalone="no"?><!DOCTYPE svg PUBLIC "-//W3C//DTD SVG 1.1//EN" "http://www.w3.org/Graphics/SVG/1.1/DTD/svg11.dtd"><svg class="icon" width="48px" height="48.00px" viewBox="0 0 1024 1024" version="1.1" xmlns="http://www.w3.org/2000/svg"><path d="M454.366053 358.038266c46.866514 34.841252 50.490096 94.738944 56.0112 185.145592 3.086331 51.061639 6.515589 122.847421-35.60712 170.902745-7.658674 8.733175-23.924784 26.782498-50.867314 32.555081-5.029577 1.074501-37.436057 8.0016-59.131824-10.173463-17.146286-14.40288-11.430857-30.246048-27.719828-45.243333-13.362672-12.253879-33.572427-11.316549-51.644613-12.745405-55.359641-4.458034-107.027115-40.728144-130.014568-91.286825-14.117109-31.046208-17.729259-65.876029-17.443488-99.974276 0.125739-15.363072 1.06307-31.023346 6.618466-45.34621 11.979538-30.863314 38.14477-46.14637 69.48818-64.229986 28.840052-16.654759 60.080585-34.68122 106.009769-40.853883 30.188894-4.046523 89.583627-12.025262 134.30114 21.249963z" fill="#4169E1" /><path d="M453.52017 359.512847c27.434057 20.575543 39.676505 52.113277 45.723428 84.896975 3.783614 20.506958 5.555397 41.356841 7.041408 62.138139 1.508873 21.021346 2.960592 42.099847 3.692167 63.166917 1.428857 41.151086-0.880176 85.125593-21.490012 121.89866-16.974823 30.257479-45.551966 53.999369-81.239101 55.428226-22.118708 0.880176-44.580343-7.06427-53.393533-29.000085-3.554997-8.904638-6.13837-17.820706-12.733975-25.147885s-15.545966-11.430857-25.147886-13.316949c-10.059154-1.988969-20.358356-2.011831-30.54325-2.846283a148.886914 148.886914 0 0 1-31.629182-6.138371 160.031999 160.031999 0 0 1-56.262678-30.966191 154.762374 154.762374 0 0 1-38.864914-49.529904c-11.430857-23.376103-16.517588-49.404164-18.289372-75.21504-1.714629-25.330779-3.097762-54.079385 8.0016-77.592658 9.144686-19.432457 25.650843-33.092331 43.437257-44.40888 36.418711-23.193209 75.443657-45.049008 118.377956-52.82199 37.104562-6.709913 77.878429-9.499042 113.874199 3.635012a119.086669 119.086669 0 0 1 29.468749 15.808876c1.783214 1.303118 3.497842-1.668905 1.72606-2.960592-34.784098-25.422226-78.987222-27.994169-120.401218-23.341811-21.295687 2.389049-42.214155 6.172663-62.41248 13.556997s-39.219271 17.832137-57.908722 28.577143-38.041892 21.409995-53.027746 37.093131c-16.186094 16.871945-23.444688 38.110478-24.862114 61.189378-3.029177 49.278425 3.852199 102.95773 34.498327 143.24007 25.799444 33.903922 65.155885 57.34861 107.564365 62.698251 23.216071 2.926299 51.507442-0.93733 65.018715 22.861714 5.166747 9.144686 6.687051 19.763952 13.088331 28.257079s16.0032 14.334295 26.290972 17.260594c33.149486 9.46475 67.762121-4.903838 90.15517-29.548765 28.657159-31.617751 38.441972-73.431826 40.14517-115.063008 0.834453-20.40408-0.194325-40.796729-1.428857-61.155085-1.451719-24.0048-2.777698-48.0096-5.543966-71.934384-3.955077-34.189694-10.767867-70.585543-33.801045-97.528072a108.730313 108.730313 0 0 0-17.397764-16.151801c-1.760352-1.280256-3.474981 1.646043-1.726059 2.960592z" fill="#FFAA71" /><path d="M512.000434 1023.977138a508.810311 508.810311 0 0 1-199.296993-40.248048 510.26203 510.26203 0 0 1-162.741112-109.736228 510.26203 510.26203 0 0 1-109.736228-162.741112A508.810311 508.810311 0 0 1 0.000914 512.00048a508.810311 508.810311 0 0 1 40.248048-199.296993 510.26203 510.26203 0 0 1 109.736228-162.741113 510.26203 510.26203 0 0 1 162.741113-109.736228A508.810311 508.810311 0 0 1 512.000434 0.00096a508.810311 508.810311 0 0 1 199.296994 40.248048 510.26203 510.26203 0 0 1 162.741112 109.736228 510.26203 510.26203 0 0 1 109.736228 162.741112 508.810311 508.810311 0 0 1 40.236617 199.274132 508.810311 508.810311 0 0 1-40.248048 199.296993 510.26203 510.26203 0 0 1-109.736228 162.741113 510.26203 510.26203 0 0 1-162.741112 109.736228 508.810311 508.810311 0 0 1-199.285563 40.202324z m0-983.99104a469.030928 469.030928 0 0 0-183.716735 37.081701 470.448354 470.448354 0 0 0-150.029999 101.163085 470.448354 470.448354 0 0 0-101.105931 150.052861A469.019497 469.019497 0 0 0 40.008914 512.00048a469.019497 469.019497 0 0 0 37.138855 183.716735 470.448354 470.448354 0 0 0 101.163085 150.03 470.459785 470.459785 0 0 0 150.03 101.163085 469.030928 469.030928 0 0 0 183.65958 37.058838 469.030928 469.030928 0 0 0 183.716736-37.0817 470.448354 470.448354 0 0 0 150.029999-101.163085 470.448354 470.448354 0 0 0 101.163085-150.029999 469.019497 469.019497 0 0 0 37.093131-183.693874 469.019497 469.019497 0 0 0-37.0817-183.716735 470.448354 470.448354 0 0 0-101.163085-150.029999 470.448354 470.448354 0 0 0-150.03-101.163086A469.030928 469.030928 0 0 0 512.000434 40.00896z"  /><path d="M734.067695 619.702016c-30.291771 0-53.164916-4.743806-69.248132-14.277141-20.426942-12.105278-39.264994-27.251163-53.050608-42.488496-18.906638-20.964192-28.302802-41.848368-27.948446-62.069554 0.308633-17.569227 8.424542-42.717113 45.289056-62.778267a20.038292 20.038292 0 0 1 3.040608-1.348841c1.417426-0.491527 35.218471-11.853799 83.445257 0 27.548366 6.744206 54.54805 19.638212 80.233186 38.350526 31.331979 22.861714 60.81216 54.422311 87.62895 93.927352a20.004 20.004 0 0 1-11.430857 30.566112 725.973734 725.973734 0 0 1-79.547334 15.660274 434.532601 434.532601 0 0 1-58.41168 4.458035zM646.553053 474.152912c-14.860114 8.493127-22.564512 17.706398-22.735975 27.434057-0.342926 19.238132 24.873545 47.792413 61.452288 69.431026 9.476181 5.612551 35.298487 13.717029 101.848937 4.572343 17.06627-2.286171 33.149486-5.33821 45.906322-8.0016-89.697936-114.800098-174.857821-96.590742-186.471572-93.435826z"  /><path d="M450.845349 807.362396a174.697789 174.697789 0 0 1-117.143424-43.288655 20.129739 20.129739 0 0 1-1.954676-1.943246 48.0096 48.0096 0 0 1-6.389849-9.258994 19.935415 19.935415 0 0 1-1.474581-3.052039 43.551566 43.551566 0 0 1-3.040608-10.184894c-0.240048-1.428857-0.445803-3.097762-0.560112-4.572343a26.290971 26.290971 0 0 1 0-4.663789c-3.566427-15.797444-9.521904-21.787214-13.191209-24.0048-2.286171-1.371703-4.286571-1.840368-12.025261-3.234933-11.773783-2.103278-20.346926-0.582974-29.423027 1.028777-3.566427 0.628697-7.247163 1.291687-11.065069 1.691767-34.292571 3.680736-61.669474-13.717029-73.374672-21.158516-39.310718-24.976423-51.095931-66.298971-58.137339-90.921038-5.681136-20.095447-21.730059-90.55525 11.087931-158.511695 26.085216-54.022231 79.078669-97.0937 145.389072-118.1722 29.125824-9.258994 59.520473-13.591289 87.914721-12.573943 30.611835 1.143086 57.874429 8.241648 81.056208 21.067069 70.128308 38.864914 115.177316 140.690989 127.36261 218.912345 0.685851 4.40088 1.280256 8.847483 1.920384 13.556996 3.669305 27.296887 7.818706 58.228786 30.920468 84.771236 13.534135 15.545966 31.720628 27.502642 54.056523 35.549966a20.004 20.004 0 0 1 6.321264 33.938214 471.3171 471.3171 0 0 1-99.059807 64.572912c-30.771867 14.757237-60.732144 24.244848-89.046377 28.222786a216.603311 216.603311 0 0 1-30.14317 2.229017z m-89.069238-71.945814a137.558934 137.558934 0 0 0 35.058438 21.501442c43.437257 18.163632 95.859168 12.779698 155.916891-16.0032a430.703264 430.703264 0 0 0 65.293056-39.287856 156.957099 156.957099 0 0 1-39.516473-32.463634c-30.977623-35.572827-36.418711-76.129508-40.396649-105.689704-0.605835-4.492327-1.143086-8.744606-1.794645-12.733975-5.521104-35.435657-18.609435-74.803529-35.915753-108.113047-20.289771-39.024946-44.934699-67.362041-71.294256-81.959245-35.34421-19.535335-86.680189-21.570027-137.467487-5.395364-55.874029 17.763552-100.15717 53.267794-121.475718 97.436625-27.365472 56.628466-11.979538 118.217924-8.618866 130.037431 5.852599 20.518388 14.677221 51.438857 41.151085 68.207924 8.858914 5.623982 27.296887 17.34061 47.643812 15.157316 2.446203-0.26291 5.178178-0.743006 8.344526-1.314548 10.413511-1.851799 24.67922-4.378018 43.437257-1.005916 9.144686 1.634613 16.986254 3.052039 25.890891 8.504558 18.506558 11.282256 29.834537 32.520788 33.743891 63.121193zM674.52436 426.406222q-2.286171 0-4.572342-0.068585c-111.016484-3.246363-185.682843-123.510411-188.803467-128.631435a20.004 20.004 0 0 1-0.365787-20.209755 20.004 20.004 0 0 1 17.409195-10.242048h349.498456a20.004 20.004 0 0 1 17.717828 10.733575 20.004 20.004 0 0 1-1.291687 20.67842c-58.823191 84.794098-122.56165 127.739828-189.592196 127.739828zM537.925618 307.262399c26.771067 31.834937 75.100731 77.432626 133.306656 79.055807 46.043492 1.325979 91.766921-25.239332 136.347263-79.055807z"  /></svg>