<?xml version="1.0" standalone="no"?><!DOCTYPE svg PUBLIC "-//W3C//DTD SVG 1.1//EN" "http://www.w3.org/Graphics/SVG/1.1/DTD/svg11.dtd"><svg class="icon" width="48px" height="48.00px" viewBox="0 0 1024 1024" version="1.1" xmlns="http://www.w3.org/2000/svg"><path d="M228.8 584.6h522.8v70.5H228.8zM228.8 766.9h522.8v70.5H228.8z" fill="#27282A" /><path d="M787.4 1010.9H193.1c-79.9 0-145-65-145-145V174c0-79.9 65-145 145-145h594.3c79.9 0 145 65 145 145v691.9c0 79.9-65.1 145-145 145zM193.1 99.4c-41.1 0-74.5 33.4-74.5 74.5v691.9c0 41.1 33.4 74.5 74.5 74.5h594.3c41.1 0 74.5-33.4 74.5-74.5V174c0-41.1-33.4-74.5-74.5-74.5H193.1z" fill="#27282A" /><path d="M606.4 351.2c0 64.1-52 116.1-116.2 116.1-64.1 0-116.1-52-116.1-116.1s52-116.1 116.1-116.1c64.2 0 116.2 51.9 116.2 116.1" fill="#4169E1" /><path d="M490.2 379.9c-164.6 0-320.6-45.8-427.9-125.7l42.1-56.5c95.5 71.1 236.1 111.8 385.9 111.8 149.8 0 290.4-40.8 385.9-111.8l42.1 56.5C810.8 334 654.8 379.9 490.2 379.9z" fill="#27282A" /></svg>