<?xml version="1.0" standalone="no"?><!DOCTYPE svg PUBLIC "-//W3C//DTD SVG 1.1//EN" "http://www.w3.org/Graphics/SVG/1.1/DTD/svg11.dtd"><svg class="icon" width="48px" height="48.00px" viewBox="0 0 1024 1024" version="1.1" xmlns="http://www.w3.org/2000/svg"><path d="M512 929.41824c-114.03264 0-230.47168-45.17888-319.4624-123.9552-93.37856-82.6624-144.80384-190.04416-144.80384-302.35136h43.54048c0 200.32512 200.53504 382.76608 420.72576 382.76608s420.73088-182.44096 420.73088-382.76608h43.54048c0 112.3072-51.42528 219.68896-144.80384 302.35136-88.99072 78.77632-205.43488 123.9552-319.46752 123.9552z" fill="#FFE8E8" /><path d="M512 974.09024c-256.20992 0-464.65024-208.44032-464.65024-464.65024S255.79008 44.78976 512 44.78976s464.65024 208.44032 464.65024 464.65024-208.44032 464.65024-464.65024 464.65024z m0-885.76c-232.20224 0-421.10976 188.90752-421.10976 421.10976S279.79776 930.54976 512 930.54976s421.10976-188.90752 421.10976-421.10976S744.20224 88.33024 512 88.33024z"  /><path d="M423.74144 615.13216c-25.56928 0-56.67328-10.4192-89.9328-30.85824-44.84608-27.56096-93.4656-74.10176-82.88768-114.54464 17.37728-66.44224-31.60064-115.15904-67.36384-150.72768-25.18528-25.05216-46.93504-46.68928-35.72224-71.55712 96.29696-213.53472 392.50944-202.14784 405.0432-201.55392l3.15904 0.14848 2.99008 1.04448c16.08192 5.6064 37.02784 20.20352 45.52704 57.87648 16.86016 74.78272-24.72448 205.16864-58.42432 238.44352-7.0144 6.92736-18.30912 13.04064-33.9456 21.504-20.19328 10.9312-67.49184 36.52608-60.8256 51.0976 43.51488 95.08352 48.77824 155.3664 16.09216 184.28928-11.2384 9.9328-26.17344 14.83776-43.70944 14.83776zM189.45536 261.1712c4.02944 6.28736 15.86688 18.06336 24.8064 26.9568 38.33344 38.12864 102.49216 101.94432 78.78144 192.6144-2.00192 8.97536 23.1424 43.008 68.57728 69.43744 38.50752 22.38976 67.92192 25.71264 77.07648 17.41312 2.46784-2.24256 22.7072-25.02144-26.92608-133.47328-23.61344-51.60448 41.05728-86.6048 79.6928-107.51488 8.96-4.84864 21.22752-11.48928 24.09472-14.208 22.80448-22.51776 60.1856-137.28256 46.52544-197.86752-3.93216-17.43872-10.61888-23.10656-14.75584-25.24672-32.39424-0.5376-276.95616 1.1008-357.87264 171.88864z"  /><path d="M716.50816 429.60896c-68.34176-2.78016-50.65728 9.32864-136.26368 78.53056-73.3184 59.26912 28.72832 116.6592 47.75424 129.8944 24.40704 16.97792 7.42912 362.94656 147.51232 44.57472 13.4144-30.48448 66.78528-37.91872 67.92192-114.61632 1.05472-71.3472-27.62752-134.34368-126.9248-138.38336z" fill="#4169E1" /></svg>