<?xml version="1.0" standalone="no"?><!DOCTYPE svg PUBLIC "-//W3C//DTD SVG 1.1//EN" "http://www.w3.org/Graphics/SVG/1.1/DTD/svg11.dtd"><svg class="icon" width="48px" height="48.00px" viewBox="0 0 1024 1024" version="1.1" xmlns="http://www.w3.org/2000/svg"><path d="M792.567607 982.032787H125.901639c-46.356984 0-83.934426-37.577443-83.934426-83.934426V249.864393l41.967213 11.901902v601.860197C83.934426 905.845508 118.158689 940.065574 160.373508 940.065574h632.194099c8.641049-24.450098 31.958033-41.967213 59.366819-41.967213 34.765639 0 62.95082 28.18518 62.95082 62.950819 0 34.765639-28.18518 62.95082-62.95082 62.95082-27.408787 0-50.72577-17.517115-59.366819-41.967213zM231.432393 41.967213H898.098361c46.356984 0 83.934426 37.577443 83.934426 83.934426v643.642754l-41.967213-14.772459V160.373508C940.065574 118.154492 905.841311 83.934426 863.626492 83.934426H231.432393C222.791344 108.384525 199.474361 125.901639 172.065574 125.901639c-34.765639 0-62.95082-28.18518-62.95082-62.950819 0-34.765639 28.18518-62.95082 62.95082-62.95082 27.408787 0 50.72577 17.517115 59.366819 41.967213z" fill="#2c2c2c" /><path d="M449.04918 784.786885c-115.888262 0-209.836066-93.947803-209.836065-209.836065s93.947803-209.836066 209.836065-209.836066 209.836066 93.947803 209.836066 209.836066-93.947803 209.836066-209.836066 209.836065z m0-41.967213c92.70977 0 167.868852-75.159082 167.868853-167.868852s-75.159082-167.868852-167.868853-167.868853-167.868852 75.159082-167.868852 167.868853 75.159082 167.868852 167.868852 167.868852z" fill="#4169E1" /><path d="M616.918033 574.95082c-92.70977 0-167.868852-75.159082-167.868853-167.868853s75.159082-167.868852 167.868853-167.868852 167.868852 75.159082 167.868852 167.868852-75.159082 167.868852-167.868852 167.868853z m0-41.967213c69.535475 0 125.901639-56.366164 125.901639-125.90164 0-69.535475-56.366164-125.901639-125.901639-125.901639-69.535475 0-125.901639 56.366164-125.90164 125.901639 0 69.535475 56.366164 125.901639 125.90164 125.90164z" fill="#4169E1" /></svg>