<?xml version="1.0" standalone="no"?><!DOCTYPE svg PUBLIC "-//W3C//DTD SVG 1.1//EN" "http://www.w3.org/Graphics/SVG/1.1/DTD/svg11.dtd"><svg class="icon" width="48px" height="48.00px" viewBox="0 0 1024 1024" version="1.1" xmlns="http://www.w3.org/2000/svg"><path d="M960 243.2m0 128l0 460.8q0 128-128 128l-460.8 0q-128 0-128-128l0-460.8q0-128 128-128l460.8 0q128 0 128 128Z" fill="#4F8DFC" /><path d="M768 51.2c113.1136 0 204.8 91.6864 204.8 204.8v137.8688a25.6 25.6 0 1 1-51.2 0V256c0-84.8256-68.7744-153.6-153.6-153.6H256C171.1744 102.4 102.4 171.1744 102.4 256v137.8688a25.6 25.6 0 1 1-51.2 0V256c0-113.1136 91.6864-204.8 204.8-204.8h512z m153.6 716.8V630.1312a25.6 25.6 0 1 1 51.2 0V768c0 113.1136-91.6864 204.8-204.8 204.8H256c-113.1136 0-204.8-91.6864-204.8-204.8V630.1312a25.6 25.6 0 1 1 51.2 0V768c0 84.8256 68.7744 153.6 153.6 153.6h512c84.8256 0 153.6-68.7744 153.6-153.6z" fill="#181818" /><path d="M0 512a51.2 51.2 0 0 1 51.2-51.2h921.6a51.2 51.2 0 0 1 0 102.4H51.2a51.2 51.2 0 0 1-51.2-51.2z" fill="#181818" /></svg>