<?xml version="1.0" standalone="no"?><!DOCTYPE svg PUBLIC "-//W3C//DTD SVG 1.1//EN" "http://www.w3.org/Graphics/SVG/1.1/DTD/svg11.dtd"><svg class="icon" width="48px" height="48.00px" viewBox="0 0 1024 1024" version="1.1" xmlns="http://www.w3.org/2000/svg"><path d="M617.46 649.5m-310.22 0a310.22 310.22 0 1 0 620.44 0 310.22 310.22 0 1 0-620.44 0Z" fill="#4F8DFC" /><path d="M647.2 958.25a72.37 72.37 0 0 1-21.8-3.38l-0.89-0.28-0.86-0.34-167.3-64.34a11.93 11.93 0 0 0-2.37-0.37l-229.17 10H224a72.17 72.17 0 0 1-70.57-83.74l112.1-690.07a72.16 72.16 0 0 1 113.94-46.61l549.79 403.54a72.16 72.16 0 0 1 12 105.21l-0.62 0.72-0.67 0.68-193.81 198.6a12.53 12.53 0 0 0-1.83 3.37l-27.89 114.81-0.23 0.77a72.3 72.3 0 0 1-69 51.43z m-3.13-60.43a12.18 12.18 0 0 0 14.51-7.73l27.89-114.81 0.23-0.78a71.63 71.63 0 0 1 14.38-26.25l0.62-0.72 0.66-0.68 193.85-198.61a12.17 12.17 0 0 0-2.46-17.24L344 127.49a12.17 12.17 0 0 0-19.21 7.86L212.67 825.42a12.16 12.16 0 0 0 11.33 14.1l229.18-10h0.82a72.29 72.29 0 0 1 21 3.34l0.88 0.28z" fill="#181818" /><path d="M567.28 736.39a30 30 0 0 1-27.76-18.6L367.74 297.36a30 30 0 1 1 55.49-22.8L595 695a30 30 0 0 1-27.74 41.41z" fill="#181818" /></svg>