<?xml version="1.0" standalone="no"?><!DOCTYPE svg PUBLIC "-//W3C//DTD SVG 1.1//EN" "http://www.w3.org/Graphics/SVG/1.1/DTD/svg11.dtd"><svg class="icon" width="48px" height="48.00px" viewBox="0 0 1024 1024" version="1.1" xmlns="http://www.w3.org/2000/svg"><path d="M512 203.3536a128 128 0 0 1 128 0l226.7264 130.8928a128 128 0 0 1 64 110.848v261.7984a128 128 0 0 1-64 110.848L640 948.6592a128 128 0 0 1-128 0L285.2736 817.7536a128 128 0 0 1-64-110.848V445.0944a128 128 0 0 1 64-110.848L512 203.3408z" fill="#4F8DFC" /><path d="M409.6 55.168a204.8 204.8 0 0 1 204.8 0l242.0352 139.7248a204.8 204.8 0 0 1 102.4 177.3696v279.4752a204.8 204.8 0 0 1-102.4 177.3568L614.4 968.8448a204.8 204.8 0 0 1-204.8 0L167.5648 829.0944a204.8 204.8 0 0 1-102.4-177.3568V372.2624a204.8 204.8 0 0 1 102.4-177.3568L409.6 55.1552z m179.2 44.3392a153.6 153.6 0 0 0-153.6 0L193.1648 239.232a153.6 153.6 0 0 0-76.8 133.0176v279.4752a153.6 153.6 0 0 0 76.8 133.0176L435.2 924.5056a153.6 153.6 0 0 0 153.6 0l242.0352-139.7504a153.6 153.6 0 0 0 76.8-133.0176V372.2624a153.6 153.6 0 0 0-76.8-133.0176L588.8 99.5072z" fill="#181818" /><path d="M512 409.6a102.4 102.4 0 1 0 0 204.8 102.4 102.4 0 0 0 0-204.8z m-204.8 102.4c0-113.1136 91.6864-204.8 204.8-204.8s204.8 91.6864 204.8 204.8-91.6864 204.8-204.8 204.8-204.8-91.6864-204.8-204.8z" fill="#181818" /></svg>