<?xml version="1.0" standalone="no"?><!DOCTYPE svg PUBLIC "-//W3C//DTD SVG 1.1//EN" "http://www.w3.org/Graphics/SVG/1.1/DTD/svg11.dtd"><svg class="icon" width="48px" height="48.00px" viewBox="0 0 1024 1024" version="1.1" xmlns="http://www.w3.org/2000/svg"><path d="M921.6 141.312H102.4c-11.264 0-20.48-9.216-20.48-20.48s9.216-20.48 20.48-20.48h819.2c11.264 0 20.48 9.216 20.48 20.48s-9.216 20.48-20.48 20.48zM355.328 240.64v553.472c0 64.512-52.224 117.248-117.248 117.248s-117.248-52.224-117.248-117.248V240.64h234.496m0-40.96H120.832c-22.528 0-40.96 18.432-40.96 40.96v553.472c0 87.04 71.168 158.208 158.208 158.208s158.208-71.168 158.208-158.208V240.64c0-22.528-18.432-40.96-40.96-40.96z" fill="#181818" /><path d="M628.224 240.64v553.472c0 64.512-52.224 117.248-117.248 117.248-64.512 0-117.248-52.224-117.248-117.248V240.64h234.496m40.96-40.96H352.768v594.432c0 87.04 71.168 158.208 158.208 158.208s158.208-71.168 158.208-158.208V199.68z" fill="#181818" /><path d="M903.168 240.64v553.472c0 64.512-52.224 117.248-117.248 117.248s-117.248-52.224-117.248-117.248V240.64h234.496m0-40.96h-234.496c-22.528 0-40.96 18.432-40.96 40.96v553.472c0 87.04 71.168 158.208 158.208 158.208s158.208-71.168 158.208-158.208V240.64c0-22.528-18.432-40.96-40.96-40.96z" fill="#181818" /><path d="M237.056 911.36c-64.512 0-117.248-52.224-117.248-117.248V240.64h234.496v553.472c0 65.024-52.736 117.248-117.248 117.248z" fill="#4F8DFC" /><path d="M313.344 281.6v512.512c0 41.984-34.304 76.288-76.288 76.288s-76.288-34.304-76.288-76.288V281.6h152.576m40.96-40.96H119.808v553.472c0 64.512 52.224 117.248 117.248 117.248 64.512 0 117.248-52.224 117.248-117.248V240.64z" fill="#181818" /><path d="M510.464 911.36c-64.512 0-117.248-52.224-117.248-117.248V240.64h234.496v553.472c0 65.024-52.736 117.248-117.248 117.248z" fill="#4F8DFC" /><path d="M586.752 281.6v512.512c0 41.984-34.304 76.288-76.288 76.288s-76.288-34.304-76.288-76.288V281.6h152.576m40.96-40.96H393.216v553.472c0 64.512 52.224 117.248 117.248 117.248 64.512 0 117.248-52.224 117.248-117.248V240.64z" fill="#181818" /><path d="M785.408 911.36c-64.512 0-117.248-52.224-117.248-117.248V240.64h234.496v553.472c0 65.024-52.736 117.248-117.248 117.248z" fill="#4F8DFC" /><path d="M861.696 281.6v512.512c0 41.984-34.304 76.288-76.288 76.288s-76.288-34.304-76.288-76.288V281.6h152.576m40.96-40.96h-234.496v553.472c0 64.512 52.224 117.248 117.248 117.248 64.512 0 117.248-52.224 117.248-117.248V240.64z" fill="#181818" /></svg>