<?xml version="1.0" standalone="no"?><!DOCTYPE svg PUBLIC "-//W3C//DTD SVG 1.1//EN" "http://www.w3.org/Graphics/SVG/1.1/DTD/svg11.dtd"><svg class="icon" width="48px" height="48.00px" viewBox="0 0 1024 1024" version="1.1" xmlns="http://www.w3.org/2000/svg"><path d="M768 81.92H256c-67.584 0-122.88 55.296-122.88 122.88v737.28h757.76V204.8c0-67.584-55.296-122.88-122.88-122.88zM174.08 901.12V204.8c0-45.056 36.864-81.92 81.92-81.92h512c45.056 0 81.92 36.864 81.92 81.92v696.32H174.08z" fill="#181818" /><path d="M942.08 921.6c0 11.264-9.216 20.48-20.48 20.48H102.4c-11.264 0-20.48-9.216-20.48-20.48s9.216-20.48 20.48-20.48h819.2c11.264 0 20.48 9.216 20.48 20.48z" fill="#181818" /><path d="M529.92 122.88c0 1.024-0.512 2.048-0.512 3.072-1.024 3.584-7.68 26.624-19.968 60.416C471.552 289.792 378.88 493.056 225.28 527.36c55.808 58.88 165.376 196.096 172.544 373.76 0.512 6.144 0.512 12.288 0.512 18.944 0 11.264-9.216 20.48-20.48 20.48s-20.48-9.216-20.48-20.48c0-6.144 0-12.8-0.512-18.944-8.704-189.952-148.48-334.336-182.784-366.592-4.608-4.608-7.168-6.656-7.68-6.656-6.656-5.632-8.704-14.848-5.632-22.528 2.048-6.144 7.168-10.752 13.312-12.288 2.048-0.512 4.096-1.024 6.144-1.024 186.88 0 290.816-314.88 307.2-368.64 1.024-3.584 2.048-6.144 2.048-7.168v-0.512c0-0.512 0-0.512 0.512-1.024 0-0.512 0.512-1.024 0.512-1.536 0-0.512 0.512-1.024 0.512-1.536 0-0.512 0.512-1.024 1.024-1.536 0-0.512 0.512-1.024 1.024-1.536 1.024-1.536 2.56-3.072 4.096-4.096l1.024-1.024c0.512 0 0.512-0.512 1.024-0.512s0.512-0.512 1.024-0.512 0.512-0.512 1.024-0.512 1.024-0.512 1.536-0.512c0.512 0 1.024-0.512 1.536-0.512 1.024 0 2.048-0.512 2.56-0.512h5.12c1.024 0 2.048 0.512 2.56 0.512 1.024 0.512 2.56 1.024 3.584 1.536 0.512 0 1.024 0.512 1.536 0.512 0.512 0 1.024 0.512 1.536 1.024 0.512 0.512 1.024 0.512 1.536 1.024 1.024 0.512 1.536 1.536 2.56 2.56 0.512 0.512 0.512 1.024 1.024 1.536 0.512 0.512 0.512 1.024 1.024 1.536 0.512 0.512 0.512 1.024 1.024 1.536 0.512 0.512 0.512 1.024 0.512 1.536 0.512 1.024 0.512 2.048 1.024 3.072V122.88z" fill="#181818" /><path d="M852.48 527.36s-1.024 1.024-2.56 2.048c-20.992 19.456-178.688 170.496-187.904 371.712-0.512 6.144-0.512 12.288-0.512 18.944 0 11.264-9.216 20.48-20.48 20.48s-20.48-9.216-20.48-20.48c0-6.144 0-12.8 0.512-18.944 7.168-177.152 117.248-314.88 172.544-373.76-153.6-34.304-246.272-237.568-284.16-341.504-12.288-33.28-18.944-56.32-19.968-60.416-0.512-1.024-0.512-2.048-0.512-3.072 0-2.56 0-5.12 0.512-7.168 0-0.512 0-1.024 0.512-1.536 0-0.512 0.512-1.024 0.512-1.536 0-0.512 0.512-1.024 0.512-1.536 0-0.512 0.512-1.024 1.024-1.536 0-0.512 0.512-1.024 1.024-1.536 1.024-1.536 2.56-3.072 4.096-4.096l1.024-1.024c0.512 0 0.512-0.512 1.024-0.512s0.512-0.512 1.024-0.512 0.512-0.512 1.024-0.512 1.024-0.512 1.536-0.512c0.512 0 1.024-0.512 1.536-0.512 1.024 0 2.048-0.512 2.56-0.512h5.12c1.024 0 2.048 0.512 2.56 0.512 1.024 0.512 2.56 1.024 3.584 1.536 0.512 0 1.024 0.512 1.536 0.512 0.512 0 1.024 0.512 1.536 1.024 0.512 0.512 1.024 0.512 1.536 1.024 1.024 0.512 1.536 1.536 2.56 2.56 0.512 0.512 0.512 1.024 1.024 1.536 0.512 0.512 0.512 1.024 1.024 1.536 0.512 0.512 0.512 1.024 1.024 1.536 0.512 0.512 0.512 1.024 0.512 1.536 0.512 1.024 0.512 1.536 1.024 2.56v0.512c0.512 1.024 1.024 3.584 2.048 7.168 16.384 53.76 120.832 368.64 307.2 368.64 4.096 0 7.68 1.024 11.264 3.072 3.584 2.56 6.656 5.632 8.192 10.24 2.56 8.192 0 16.896-6.144 22.528z" fill="#181818" /><path d="M793.6 527.36c-55.808 58.88-165.376 196.096-172.544 373.76H397.824c-7.168-177.152-116.736-314.88-172.544-373.76 153.6-34.304 246.272-237.568 284.16-341.504 37.888 103.936 130.56 307.2 284.16 341.504z" fill="#4F8DFC" /><path d="M509.44 292.352c45.056 95.232 115.2 203.264 214.016 252.928-57.344 71.168-124.416 180.224-140.288 314.88H435.712c-15.872-134.656-82.944-243.712-140.288-314.88 98.816-49.664 168.96-157.696 214.016-252.928m0-105.984C471.552 289.792 378.88 493.056 225.28 527.36c55.808 58.88 165.376 196.096 172.544 373.76h222.72c7.168-177.152 117.248-314.88 172.544-373.76-153.088-34.304-245.76-237.568-283.648-340.992z" fill="#181818" /></svg>