<?xml version="1.0" standalone="no"?><!DOCTYPE svg PUBLIC "-//W3C//DTD SVG 1.1//EN" "http://www.w3.org/Graphics/SVG/1.1/DTD/svg11.dtd"><svg class="icon" width="48px" height="48.00px" viewBox="0 0 1024 1024" version="1.1" xmlns="http://www.w3.org/2000/svg"><path d="M581.2 69.1c-44.2 6.2-88.9 6.7-133.2 1.4l-5.6-0.7 41.5 225 78.4-7 18.9-218.7z" fill="#103142" /><path d="M661.6 441.9l13.2-255.4c45.2 105.8 135.4 321.7 141 357.7-18.3 10.7-65.3 33.6-80.4 40.9l-73.8-143.2z" fill="#FFC200" /><path d="M679 210.2c14.5 34.3 35.9 84.8 57 136.3 21.9 53.2 39.3 97 51.8 130.2 14.8 39.2 20.1 56.8 21.9 64.6-18 10.1-54.6 28.1-71.9 36.5l-70.6-137.1L679 210.2m-8.5-47.4L656 443l76.8 149.2s69.6-33.4 88.5-45.2c0.1-33.4-150.8-384.2-150.8-384.2z" fill="#FFFFFF" /><path d="M670.5 162.8S821.4 513.5 821.4 547c-18.9 11.8-88.5 45.2-88.5 45.2L656.1 443l14.4-280.2m0-10.8c-0.6 0-1.3 0.1-1.9 0.2-5 0.9-8.7 5.1-8.9 10.1l-14.5 280.2c-0.1 1.9 0.3 3.8 1.2 5.5l76.8 149.2c1.9 3.7 5.7 5.9 9.7 5.9 1.6 0 3.2-0.3 4.7-1.1 2.9-1.4 70.4-33.8 89.6-45.8 3.2-2 5.1-5.5 5.1-9.2 0-6.3 0-23-76.3-208.8-37.3-90.9-75.1-178.8-75.5-179.7-1.7-4-5.7-6.5-10-6.5z" fill="#103142" /><path d="M621.2 940.7c-52.3 0-96.1-2.9-130.2-8.7-2.3-48.8 19.7-529.8 28.9-721.5 10.5-5.5 46.3-25.3 64-48.5 15.2-20 16.6-34.5 17.6-45.1 0.1-1.5 0.3-3 0.5-4.4 20.7 9.2 46.7 25.5 63.9 53 4.1 8 14.3 70.9 37.3 399.8 11.8 170.6 22.1 339.8 24 371.7-14.5 1-57 3.7-106 3.7z" fill="#00A4FF" /><path d="M606.5 120.7c18.5 9.2 39.8 24.1 54.5 47.3 0.6 1.5 2.9 9.1 6.9 41.5 2.8 22.7 6 54 9.5 93.2 5.9 66.2 12.8 155.5 20.5 265.6 11.3 161.6 21 321.4 23.6 363.6-17.9 1.2-56.4 3.3-100.2 3.3-49.8 0-91.7-2.7-124.9-7.9-0.3-22.5 1.5-103.6 13-367 6.9-157.5 14.3-313.8 15.8-346.5 13.3-7.2 46-26.2 63-48.5 14.6-19.2 17.2-33.6 18.3-44.6m-8.6-15.8c-3.9 12.7 1.6 27.8-18.3 53.8-19.9 26.1-64.9 48.4-64.9 48.4s-34 706.5-28.7 729.5c40.9 7.4 90.9 9.5 135.2 9.5 61.3 0 111.7-4.1 111.7-4.1s-44.3-745.8-62.4-779.2c-19.6-31.4-50.1-48.8-72.6-57.9z" fill="#FFFFFF" /><path d="M597.9 104.9c22.6 9.1 53.1 26.4 72.7 57.9C688.7 196.2 733 942 733 942s-50.4 4.1-111.7 4.1c-44.3 0-94.3-2.1-135.2-9.5-5.3-23.1 28.6-729.5 28.6-729.5s45-22.3 64.9-48.4c19.8-26 14.4-41.1 18.3-53.8m0-10.8c-1.6 0-3.2 0.4-4.7 1.1-2.7 1.3-4.8 3.7-5.7 6.6-1.4 4.6-1.8 9.2-2.3 13.6-0.9 10.1-1.9 20.5-14.3 36.8-18.1 23.7-60.7 45-61.1 45.2-3.5 1.7-5.8 5.3-6 9.2-0.1 1.8-8.6 178.7-16.3 356.1-15.7 360.4-13.1 372-12.1 376.3 1 4.2 4.4 7.5 8.6 8.3 35.6 6.4 81.8 9.7 137.1 9.7 61.1 0 112.1-4.1 112.6-4.2 5.9-0.5 10.3-5.6 10-11.5-0.1-1.9-11.2-188.7-24.4-377.2-26.8-383.6-35.8-400.3-39.2-406.5l-0.3-0.6c-21.2-34.1-54-52.6-77.8-62.2-1.4-0.5-2.8-0.7-4.1-0.7z" fill="#103142" /><path d="M556.2 234.2c-11.8-1-31.2-20.6-35.6-27.9 8.2-16.5 47.7-96.8 59.1-119.9 10.1 8.6 23 20.7 26.1 26.6 1.4 6-3.1 32.7-13.6 62.4-11.4 32.4-24.8 54.2-36 58.8z" fill="#FFC200" /><path d="M581.5 95.2c8.7 7.7 16.6 15.6 19.1 19.6 0.5 6.4-3.5 30.8-14 60.2-12 33.4-23.8 49.3-31.1 53.5-3-0.8-8.7-3.5-16.4-10.2-5.3-4.6-9.6-9.4-12-12.5 9.6-19.7 40.9-83.3 54.4-110.6m-3.6-17.3s-58.3 118.4-63.3 128.4c2.3 7.4 27.1 33.4 42.5 33.4 30.7-10.4 58.5-113.2 53.8-128.6-5-10.4-33-33.2-33-33.2z" fill="#FFFFFF" /><path d="M577.9 77.9s28 22.8 33 33.2c4.7 15.4-23.1 118.2-53.8 128.6-15.4 0-40.2-26.1-42.5-33.4 5-10 63.3-128.4 63.3-128.4m0-10.9c-0.8 0-1.5 0.1-2.3 0.3-3.2 0.7-6 2.8-7.4 5.8-0.6 1.2-58.3 118.5-63.2 128.3-1.2 2.5-1.5 5.4-0.7 8 2.2 7.3 11.9 17.7 19.5 24.5 8.6 7.6 21.4 16.7 33.3 16.7 1.2 0 2.4-0.2 3.5-0.6 9.8-3.3 18.9-12.1 27.8-27 6.7-11.1 13.3-25.6 19.1-42.1 5-14.2 9.2-29.3 11.9-42.5 4.4-22 2.5-28.1 1.8-30.5-0.2-0.5-0.3-1-0.6-1.5-5.6-11.7-28.9-31.3-35.9-37-1.9-1.6-4.3-2.4-6.8-2.4z" fill="#103142" /><path d="M288.7 585c-15.1-7.3-62.2-30.3-80.4-40.9 5.6-35.9 95.8-251.9 141-357.7l13.2 255.4L288.7 585z" fill="#FFC200" /><path d="M345 210.2l11.9 230.5-70.6 137.1c-17.3-8.4-53.9-26.4-71.9-36.5 1.9-7.8 7.1-25.4 21.9-64.6 12.5-33.1 29.9-76.9 51.8-130.2 21.1-51.5 42.4-102 56.9-136.3m8.5-47.4S202.6 513.5 202.6 547c18.9 11.8 88.5 45.2 88.5 45.2L367.9 443l-14.4-280.2z" fill="#FFFFFF" /><path d="M353.5 162.8L368 443l-76.8 149.2s-69.6-33.4-88.5-45.2c-0.1-33.4 150.8-384.2 150.8-384.2m0-10.8c-4.3 0-8.2 2.5-10 6.6-0.4 0.9-38.2 88.8-75.5 179.7C191.7 524 191.7 540.7 191.7 547c0 3.8 1.9 7.2 5.1 9.2 19.2 11.9 86.7 44.4 89.6 45.8 1.5 0.7 3.1 1.1 4.7 1.1 3.9 0 7.7-2.2 9.7-5.9L377.6 448c0.9-1.7 1.3-3.6 1.2-5.5l-14.5-280.2c-0.3-5-4-9.2-8.9-10.1-0.7-0.2-1.3-0.2-1.9-0.2z" fill="#103142" /><path d="M402.8 940.7c-49.1 0-91.5-2.7-106-3.7 1.9-31.9 12.2-201.1 24.1-371.7 23-328.9 33.2-391.8 37.3-399.8 17.2-27.5 43.2-43.8 63.9-53 0.2 1.4 0.3 2.8 0.5 4.4 1 10.6 2.4 25.2 17.6 45.1 17.7 23.2 53.5 43 64 48.5 9.2 191.6 31.2 672.6 28.9 721.5-34.2 5.8-78 8.7-130.3 8.7z" fill="#00A4FF" /><path d="M417.5 120.7c1.1 10.9 3.7 25.4 18.4 44.6 17 22.3 49.8 41.4 63 48.5 1.6 32.7 9 189 15.8 346.5 11.5 263.4 13.4 344.4 13 367-33.2 5.3-75.1 7.9-124.9 7.9-43.8 0-82.4-2.1-100.2-3.3 2.5-42.1 12.3-201.9 23.6-363.6 7.7-110.1 14.6-199.4 20.5-265.6 3.5-39.2 6.7-70.6 9.5-93.2 4-32.5 6.3-40 6.9-41.5 14.5-23.2 35.8-38 54.4-47.3m8.6-15.8c-22.6 9.1-53.1 26.4-72.7 57.9-18 33.5-62.3 779.2-62.3 779.2s50.4 4.1 111.7 4.1c44.3 0 94.3-2.1 135.2-9.5 5.3-23.1-28.6-729.5-28.6-729.5s-45-22.3-64.9-48.4c-19.9-26-14.5-41.1-18.4-53.8z" fill="#FFFFFF" /><path d="M426.1 104.9c3.9 12.7-1.6 27.8 18.3 53.8 19.9 26.1 64.9 48.4 64.9 48.4s33.9 706.4 28.6 729.5c-40.9 7.4-90.9 9.5-135.2 9.5-61.3 0-111.7-4.1-111.7-4.1s44.3-745.8 62.4-779.2c19.7-31.4 50.2-48.8 72.7-57.9m0-10.8c-1.4 0-2.8 0.3-4.1 0.8-23.8 9.6-56.6 28.1-77.8 62.2l-0.3 0.6c-3.4 6.3-12.4 23-39.2 406.5-13.2 188.5-24.3 375.3-24.4 377.2-0.3 5.9 4.1 11 10 11.5 0.5 0 51.5 4.2 112.6 4.2 55.4 0 101.5-3.3 137.1-9.7 4.3-0.8 7.7-4 8.6-8.3 1-4.3 3.6-15.8-12.1-376.3-7.7-177.5-16.2-354.4-16.3-356.1-0.2-3.9-2.5-7.5-6-9.2-0.4-0.2-43-21.5-61.1-45.2-12.4-16.3-13.4-26.7-14.3-36.8-0.4-4.4-0.8-9-2.3-13.6-0.9-2.9-3-5.3-5.7-6.6-1.5-0.9-3.1-1.2-4.7-1.2z" fill="#103142" /><path d="M467.8 234.2c-11.2-4.6-24.6-26.4-36-58.8-10.5-29.8-15-56.4-13.6-62.4 3.1-5.9 16-17.9 26.1-26.6 11.3 23 50.9 103.3 59.1 119.9-4.4 7.3-23.8 26.9-35.6 27.9z" fill="#FFC200" /><path d="M442.5 95.2c13.5 27.3 44.8 90.9 54.5 110.6-2.4 3.2-6.7 7.9-12 12.5-7.8 6.7-13.4 9.4-16.4 10.2-7.3-4.2-19.2-20.1-31.1-53.5-10.5-29.4-14.5-53.9-14-60.2 2.5-4 10.4-11.9 19-19.6m3.6-17.3s-28 22.8-33 33.2c-4.7 15.4 23.1 118.2 53.8 128.6 15.4 0 40.2-26.1 42.5-33.4-5-10-63.3-128.4-63.3-128.4z" fill="#FFFFFF" /><path d="M446.1 77.9s58.3 118.4 63.3 128.4c-2.3 7.4-27.1 33.4-42.5 33.4-30.7-10.4-58.5-113.2-53.8-128.6 5-10.4 33-33.2 33-33.2m0-10.9c-2.5 0-4.9 0.8-6.8 2.4-7 5.7-30.4 25.3-35.9 37l-0.6 1.5c-0.7 2.3-2.6 8.5 1.8 30.5 2.7 13.2 6.9 28.3 11.9 42.5 5.8 16.5 12.4 31.1 19.1 42.1 9 14.9 18.1 23.7 27.8 27 1.1 0.4 2.3 0.6 3.5 0.6 12 0 24.7-9.1 33.3-16.7 7.6-6.7 17.3-17.2 19.5-24.5 0.8-2.7 0.6-5.5-0.7-8-4.9-9.8-62.7-127.1-63.2-128.3-1.5-3-4.2-5.1-7.4-5.8-0.7-0.2-1.5-0.3-2.3-0.3z" fill="#103142" /><path d="M471.2 310.2m-9.9 0a9.9 9.9 0 1 0 19.8 0 9.9 9.9 0 1 0-19.8 0Z" fill="#FFFFFF" /><path d="M475.5 462.9m-9.9 0a9.9 9.9 0 1 0 19.8 0 9.9 9.9 0 1 0-19.8 0Z" fill="#FFFFFF" /><path d="M479.8 615.6m-9.9 0a9.9 9.9 0 1 0 19.8 0 9.9 9.9 0 1 0-19.8 0Z" fill="#FFFFFF" /><path d="M484 768.3m-9.9 0a9.9 9.9 0 1 0 19.8 0 9.9 9.9 0 1 0-19.8 0Z" fill="#FFFFFF" /></svg>