<?xml version="1.0" standalone="no"?><!DOCTYPE svg PUBLIC "-//W3C//DTD SVG 1.1//EN" "http://www.w3.org/Graphics/SVG/1.1/DTD/svg11.dtd"><svg class="icon" width="48px" height="23.77px" viewBox="0 0 2068 1024" version="1.1" xmlns="http://www.w3.org/2000/svg"><path d="M209.216646 566.478869c109.092202-51.075879 255.493172-3.475394 344.074344 66.859959 28.599596 81.506263-22.22804 172.238869-74.05899 228.869172-109.154263 94.838949-256.062061 146.980202-396.412121 84.671354-32.199111-17.480404-69.890586-43.628606-72.724687-85.426425-3.351273-131.827071 67.987394-251.593697 199.111111-294.97406" fill="#231916" /><path d="M198.635313 783.628929A34.298828 34.298828 0 0 1 219.280808 739.762424l246.918465-89.522424c-60.550465-41.104808-144.259879-51.582707-215.288243-37.257051C137.216 646.257778 59.247192 751.181576 68.018424 866.407434c32.002586 27.079111 79.354828 42.232242 125.25899 45.831758 101.003636 3.475394 215.526141-39.460202 270.770424-131.444364 5.368242-19.828364 19.445657-43.380364 25.951677-66.487596l-247.487353 89.78101a34.071273 34.071273 0 0 1-43.876849-20.459313" fill="#15AB4A" /><path d="M1810.990545 609.021414c-117.046303-28.599596-251.273051 46.473051-324.370101 132.840727-12.194909 85.426424 55.358061 164.470949 117.294546 209.992404 125.631354 71.473131 279.800242 94.073535 405.441939 5.430303 28.030707-23.365818 59.847111-56.506182 54.478869-97.921292-22.538343-130.006626-115.846465-233.420283-252.845253-250.342142" fill="#231916" /><path d="M1863.700687 819.882667a34.381576 34.381576 0 0 0-28.661657-39.077495l-259.79604-39.460202c51.458586-51.903354 131.444364-78.672162 203.796687-78.548041 117.997899 10.24 215.029657 97.993697 228.920889 212.712728-25.951677 32.892121-69.507879 57.075071-113.767435 69.383757-98.490182 23.241697-219.198061 3.475394-291.229737-75.817374-9.216-18.514747-27.658343-38.839596-38.508606-60.053979l260.230465 39.460202a34.029899 34.029899 0 0 0 39.015434-28.599596" fill="#15AB4A" /><path d="M720.689131 74.45204C744.727273 36.957091 792.782869 4.75798 840.766061 10.053818c38.260364 7.074909 83.709414 21.979798 102.968888 58.33697 29.168485 48.117657 36.305455 106.951111 26.510223 159.868121 48.303838 62.629495 110.167919 111.688404 135.995474 194.580687 32.695596 108.471596 20.707556 233.554747-65.215353 314.543838-41.859879 39.594667-85.043717 63.777616-155.999677 95.718142-63.508687 28.609939-149.317818 50.320808-213.074747 38.58101-120.842343-21.969455-202.410667-88.198465-247.673536-196.918303-23.107232-75.579475-26.137859-150.590061-22.031515-226.283313-35.674505-43.690667-91.539394-82.519919-87.877818-148.635152-0.444768-65.587717 46.276525-120.325172 103.972202-143.75305 27.089455-8.274747 52.151596-5.554424 78.289455-5.171717 39.956687-46.855758 78.341172-80.502949 138.767515-75.838061 28.403071-4.664889 58.833455 25.258667 85.291959-0.620606" fill="#231916" /><path d="M676.233051 161.512727c22.476283 20.583434 30.244202 78.165333 71.338666 54.871919 16.797737-39.96703-9.340121-96.535273 41.042748-120.345858 22.341818-14.770424 49.369212-23.293414 73.603878-11.863919 29.292606 13.829172 44.828444 48.49002 47.610829 79.675474 3.413333 38.446545-27.782465 81.88897-0.258586 115.039677 70.831838 50.817293 136.243717 117.294545 145.459717 213.840162 20.521374 84.981657-37.629414 177.596768-102.462061 225.652363-100.507152 69.197576-233.213414 109.164606-347.673858 66.85996-71.969616-34.660848-115.660283-104.427313-133.657859-183.037414-19.569778-66.539313 19.135354-133.657859-8.52299-197.042424-39.201616-28.599596-92.046222-62.381253-83.326707-118.008243 11.739798-31.692283 30.999273-54.737455 66.032485-61.181414 25.186263-2.461737 56.568242 3.10303 72.031677 24.307071 13.963636 19.766303 24.307071 43.825131 51.965414 47.734949 56.247596-27.017051-23.045172-75.569131 4.861414-116.673939 20.51103-27.720404 71.907556-48.800323 101.955233-19.828364" fill="#9E9CCC" /><path d="M1581.118061 240.805495c42.552889-13.187879 100.000323-6.754263 133.213091 28.227232 24.617374 30.120081 49.751919 70.780121 41.094464 110.985051-8.833293 55.502869-41.29099 105.192727-82.892283 139.222626-3.599515 79.17899 11.936323 156.516848-21.783272 236.388849-44.942222 103.848081-134.847354 191.870707-252.845253 198.314666-57.385374 3.206465-105.999515-6.195717-180.751515-27.658343-66.984081-19.062949-146.587152-57.830141-187.816081-107.902707-78.092929-94.704485-97.600646-197.99402-62.060606-310.509899 31.133737-72.352323 77.265455-131.630545 129.230869-186.874829 0.889535-56.382061-16.725333-121.980121 28.723717-170.221899 41.994343-50.444929 113.012364-61.998545 172.166465-42.67701 26.013737 11.108848 43.30796 29.354667 63.198383 46.524768 60.736646-9.971071 111.874586-10.984727 154.799839 31.568162 24.813899 14.780768 28.723717 57.333657 65.722182 54.613333" fill="#231916" /><path d="M1490.799192 278.662465c3.982222 30.244202-27.203232 79.17899 19.197414 87.950222 38.694788-19.75596 55.233939-79.799596 108.895677-65.411879 26.830869 2.968566 52.906667 13.963636 63.953454 38.394828 13.580929 29.478788 3.030626 65.970424-14.956606 91.477334-22.16598 31.568162-74.05899 44.518141-74.503757 87.701979 21.410909 84.474828 28.475475 177.534707-26.696404 257.344647-39.27402 78.041212-143.318626 111.243636-223.997414 106.19604-121.338828-11.998384-248.490667-67.118545-308.720485-173.314585-32.581818-72.859152-20.966141-154.365414 16.032323-226.024728 27.906586-63.394909 100.889859-89.78101 120.583758-156.082424-11.553616-47.093657-30.047677-107.075232 12.443151-143.939232 29.478788-16.611556 59.02998-21.783273 89.894788-3.920162 20.831677 14.273939 41.29099 38.829253 39.398141 64.84299-2.01697 24.058828-9.722828 49.307152 8.895354 70.076768 60.488404 15.65996 31.195798-72.662626 78.982465-85.98497 33.647192-8.150626 86.429737 9.029818 90.598141 50.693172" fill="#E73535" /></svg>