<?xml version="1.0" standalone="no"?><!DOCTYPE svg PUBLIC "-//W3C//DTD SVG 1.1//EN" "http://www.w3.org/Graphics/SVG/1.1/DTD/svg11.dtd"><svg class="icon" width="48px" height="48.00px" viewBox="0 0 1024 1024" version="1.1" xmlns="http://www.w3.org/2000/svg"><path d="M733.013333 188.16c0-56.746667 46.08-102.826667 102.826667-102.826667S938.666667 131.413333 938.666667 188.16s-46.08 102.826667-102.826667 102.826667-102.826667-46.08-102.826667-102.826667z m-164.266666 441.6l123.306666-159.146667-1.706666 0.853334c6.826667-9.386667 8.106667-21.333333 3.413333-32a31.445333 31.445333 0 0 0-26.026667-18.773334 32.768 32.768 0 0 0-29.866666 13.226667l-103.253334 133.546667-118.186666-93.013334a33.706667 33.706667 0 0 0-24.32-6.826666 33.066667 33.066667 0 0 0-21.333334 12.8l-126.293333 164.266666-2.56 3.84a31.872 31.872 0 0 0 8.96 40.533334c5.973333 3.84 12.373333 6.4 19.626667 6.4 9.813333 0.426667 19.2-4.693333 25.173333-12.8l107.093333-137.813334 121.6 91.306667 3.84 2.56c13.653333 7.253333 30.72 3.84 40.533334-8.96z m90.453333-468.48c-1.706667 10.666667-2.56 21.333333-2.56 32 0 96 77.653333 173.653333 173.226667 173.653333 10.666667 0 20.906667-1.28 31.573333-2.986666v344.32c0 144.64-85.333333 230.4-230.4 230.4H315.733333C170.666667 938.666667 85.333333 852.906667 85.333333 708.266667V392.533333c0-145.066667 85.333333-231.253333 230.4-231.253333h343.466667z" fill="#200E32" /></svg>