<?xml version="1.0" standalone="no"?><!DOCTYPE svg PUBLIC "-//W3C//DTD SVG 1.1//EN" "http://www.w3.org/Graphics/SVG/1.1/DTD/svg11.dtd"><svg class="icon" width="48px" height="48.00px" viewBox="0 0 1024 1024" version="1.1" xmlns="http://www.w3.org/2000/svg"><path d="M853.32 648.88c-2.56-0.552-257.16-55.456-341.32-55.456s-338.76 54.904-341.32 55.456l-52.68 11.4L463.4 56.8a56 56 0 0 1 97.2 0l345.4 603.48z" fill="#EEBB4D" /><path d="M463.4 56.8L118 660.28l52.68-11.4c2.56-0.552 257.16-55.456 341.32-55.456V28.64a55.392 55.392 0 0 0-48.6 28.16z" fill="#E0AA3D" /><path d="M512 656.8a16.488 16.488 0 0 1-16-16.928V45.6a16 16 0 1 1 32 0v594.256a16.488 16.488 0 0 1-16 16.944z" fill="#184D47" /><path d="M744.24 995.36H279.76a168 168 0 0 1-158.752-113.032l-62.48-180.456A40 40 0 0 1 96.32 648.8h831.36a40 40 0 0 1 37.792 53.088l-62.48 180.456A168 168 0 0 1 744.24 995.36z" fill="#80BC50" /><path d="M496 45.6v594.256a16.488 16.488 0 0 0 16 16.944V28.64a16.488 16.488 0 0 0-16 16.96z" fill="#0E3D36" /><path d="M512 648.8H96.32a40 40 0 0 0-37.792 53.088l62.48 180.456A168 168 0 0 0 279.76 995.36H512z" fill="#75B23F" /><path d="M79.12 761.36l41.888 120.968 0.176 0.456h781.6l0.176-0.456 41.92-120.968z" fill="#184D47" /><path d="M512 882.784V761.36H79.12l41.888 120.968 0.176 0.456z" fill="#0E3D36" /></svg>