<?xml version="1.0" standalone="no"?><!DOCTYPE svg PUBLIC "-//W3C//DTD SVG 1.1//EN" "http://www.w3.org/Graphics/SVG/1.1/DTD/svg11.dtd"><svg class="icon" width="48px" height="48.00px" viewBox="0 0 1024 1024" version="1.1" xmlns="http://www.w3.org/2000/svg"><path d="M424.472381 262.339048A185.539048 185.539048 0 0 0 512 420.08381a186.270476 186.270476 0 0 0 73.142857-230.88762 78.750476 78.750476 0 0 0-146.285714 0 186.758095 186.758095 0 0 0-14.384762 73.142858z" fill="#D6F3FC" /><path d="M512 438.857143a19.504762 19.504762 0 0 1-9.752381-2.681905 205.04381 205.04381 0 0 1-79.725714-254.293333A97.52381 97.52381 0 0 1 512 121.904762a97.52381 97.52381 0 0 1 89.478095 59.245714 204.068571 204.068571 0 0 1-79.725714 254.537143 19.504762 19.504762 0 0 1-9.752381 3.169524z m0-279.649524a60.464762 60.464762 0 0 0-55.832381 37.059048A168.228571 168.228571 0 0 0 512 398.140952a167.253333 167.253333 0 0 0 55.832381-201.874285A60.464762 60.464762 0 0 0 512 159.207619z" fill="#54B6DD" /><path d="M273.554286 397.409524a186.026667 186.026667 0 0 0 173.592381 48.761905 186.026667 186.026667 0 0 0-48.761905-173.592381 181.881905 181.881905 0 0 0-62.415238-41.20381 78.750476 78.750476 0 0 0-102.64381 102.64381 181.881905 181.881905 0 0 0 40.228572 63.390476z" fill="#D6F3FC" /><path d="M404.48 470.064762a202.118095 202.118095 0 0 1-143.847619-59.733333A203.824762 203.824762 0 0 1 215.28381 341.333333 97.52381 97.52381 0 0 1 341.333333 215.28381a204.8 204.8 0 0 1 123.12381 235.763809 19.260952 19.260952 0 0 1-13.897143 13.897143 214.552381 214.552381 0 0 1-46.08 5.12z m-118.00381-85.577143a167.009524 167.009524 0 0 0 145.066667 47.055238 166.765714 166.765714 0 0 0-47.055238-145.066667 160.670476 160.670476 0 0 0-56.32-37.059047 60.464762 60.464762 0 0 0-78.750476 78.750476 160.670476 160.670476 0 0 0 37.059047 56.32z" fill="#54B6DD" /><path d="M262.339048 599.527619A185.539048 185.539048 0 0 0 420.08381 512a186.270476 186.270476 0 0 0-230.88762-73.142857 78.750476 78.750476 0 0 0 0 146.285714 186.758095 186.758095 0 0 0 73.142858 14.384762z" fill="#D6F3FC" /><path d="M262.339048 617.813333a202.118095 202.118095 0 0 1-80.457143-16.335238 97.52381 97.52381 0 0 1 0-178.95619 205.04381 205.04381 0 0 1 253.805714 79.725714 18.773333 18.773333 0 0 1 0 19.504762 203.337143 203.337143 0 0 1-173.348571 96.060952z m0-175.055238a165.790476 165.790476 0 0 0-66.072381 13.409524 60.708571 60.708571 0 0 0 0 111.664762A168.228571 168.228571 0 0 0 398.140952 512a166.765714 166.765714 0 0 0-135.801904-69.241905z" fill="#54B6DD" /><path d="M397.409524 750.445714a186.026667 186.026667 0 0 0 48.761905-173.592381 186.026667 186.026667 0 0 0-173.592381 48.761905 181.881905 181.881905 0 0 0-41.20381 62.415238 78.750476 78.750476 0 0 0 102.64381 102.64381 181.881905 181.881905 0 0 0 63.390476-40.228572z" fill="#D6F3FC" /><path d="M304.761905 815.786667a95.085714 95.085714 0 0 1-68.022857-28.525715A96.060952 96.060952 0 0 1 215.28381 682.666667a204.8 204.8 0 0 1 235.763809-123.12381 19.260952 19.260952 0 0 1 13.897143 13.897143 202.849524 202.849524 0 0 1-54.613333 190.415238A203.824762 203.824762 0 0 1 341.333333 808.71619a99.961905 99.961905 0 0 1-36.571428 7.070477z m99.718095-225.28a166.034286 166.034286 0 0 0-118.00381 48.761904 160.670476 160.670476 0 0 0-37.059047 56.32 60.464762 60.464762 0 0 0 78.750476 78.750477 160.670476 160.670476 0 0 0 56.32-37.059048 166.765714 166.765714 0 0 0 47.055238-144.822857 202.118095 202.118095 0 0 0-27.062857-1.950476z m-7.070476 159.939047z" fill="#54B6DD" /><path d="M599.527619 761.660952A185.539048 185.539048 0 0 0 512 603.91619a186.270476 186.270476 0 0 0-73.142857 230.88762 78.750476 78.750476 0 0 0 146.285714 0 186.758095 186.758095 0 0 0 14.384762-73.142858z" fill="#D6F3FC" /><path d="M512 902.095238a97.52381 97.52381 0 0 1-89.478095-59.245714 201.142857 201.142857 0 0 1-16.335238-80.457143 203.337143 203.337143 0 0 1 96.060952-173.348571 18.773333 18.773333 0 0 1 19.504762 0 204.068571 204.068571 0 0 1 79.725714 253.805714A97.52381 97.52381 0 0 1 512 902.095238z m0-275.504762a168.228571 168.228571 0 0 0-55.832381 202.361905 60.708571 60.708571 0 0 0 111.664762 0A167.253333 167.253333 0 0 0 512 625.859048z" fill="#54B6DD" /><path d="M750.445714 626.590476a186.026667 186.026667 0 0 0-173.592381-48.761905 186.026667 186.026667 0 0 0 48.761905 173.592381 181.881905 181.881905 0 0 0 62.415238 41.20381 78.750476 78.750476 0 0 0 102.64381-102.64381 181.881905 181.881905 0 0 0-40.228572-63.390476z" fill="#D6F3FC" /><path d="M719.238095 815.786667a99.961905 99.961905 0 0 1-36.571428-7.070477 204.8 204.8 0 0 1-123.12381-235.763809 19.260952 19.260952 0 0 1 13.897143-13.897143A204.8 204.8 0 0 1 808.71619 682.666667a96.060952 96.060952 0 0 1-21.455238 105.081904 95.085714 95.085714 0 0 1-68.022857 28.038096z m-126.780952-223.329524a166.765714 166.765714 0 0 0 47.055238 145.066667 160.670476 160.670476 0 0 0 56.32 37.059047 60.464762 60.464762 0 0 0 78.750476-78.750476 160.670476 160.670476 0 0 0-37.059047-56.32 166.521905 166.521905 0 0 0-145.066667-47.055238z" fill="#54B6DD" /><path d="M761.660952 424.472381A185.539048 185.539048 0 0 0 603.91619 512a186.270476 186.270476 0 0 0 230.88762 73.142857 78.750476 78.750476 0 0 0 0-146.285714 186.758095 186.758095 0 0 0-73.142858-14.384762z" fill="#D6F3FC" /><path d="M761.660952 617.813333a203.337143 203.337143 0 0 1-173.348571-96.060952 18.773333 18.773333 0 0 1 0-19.504762 205.04381 205.04381 0 0 1 253.805714-79.725714 97.52381 97.52381 0 0 1 0 178.95619 202.118095 202.118095 0 0 1-80.457143 16.335238zM625.859048 512A168.228571 168.228571 0 0 0 828.952381 567.832381a60.708571 60.708571 0 0 0 0-111.664762A168.228571 168.228571 0 0 0 625.859048 512z" fill="#54B6DD" /><path d="M626.590476 273.554286a186.026667 186.026667 0 0 0-48.761905 173.592381 186.026667 186.026667 0 0 0 173.592381-48.761905 181.881905 181.881905 0 0 0 41.20381-62.415238 78.750476 78.750476 0 0 0-102.64381-102.64381 181.881905 181.881905 0 0 0-63.390476 40.228572z" fill="#D6F3FC" /><path d="M619.52 470.308571a214.79619 214.79619 0 0 1-46.567619-5.363809 19.260952 19.260952 0 0 1-13.897143-13.897143A204.8 204.8 0 0 1 682.666667 215.28381 97.52381 97.52381 0 0 1 808.71619 341.333333a205.287619 205.287619 0 0 1-189.19619 128.487619zM592.457143 431.542857a166.765714 166.765714 0 0 0 145.066667-47.055238 160.670476 160.670476 0 0 0 37.059047-56.32 60.464762 60.464762 0 0 0-78.750476-78.750476 160.670476 160.670476 0 0 0-56.32 37.059047 166.765714 166.765714 0 0 0-47.055238 145.066667z" fill="#54B6DD" /><path d="M628.540952 438.857143a138.727619 138.727619 0 1 1-40.228571-40.96" fill="#F9E4E8" /><path d="M512 668.281905a156.281905 156.281905 0 1 1 86.552381-286.476191 18.285714 18.285714 0 0 1 4.87619 24.380953 18.041905 18.041905 0 0 1-24.380952 5.12 119.710476 119.710476 0 1 0 35.108571 35.84 18.285714 18.285714 0 1 1 30.72-19.748572A156.038095 156.038095 0 0 1 512 668.281905z" fill="#FF94AE" /></svg>