<?xml version="1.0" standalone="no"?><!DOCTYPE svg PUBLIC "-//W3C//DTD SVG 1.1//EN" "http://www.w3.org/Graphics/SVG/1.1/DTD/svg11.dtd"><svg class="icon" width="48px" height="48.00px" viewBox="0 0 1024 1024" version="1.1" xmlns="http://www.w3.org/2000/svg"><path d="M513 160c196.613 0 356 159.387 356 356S709.613 872 513 872 157 712.613 157 516s159.387-356 356-356z m4.81 134.703c-124.875 0-226.107 101.232-226.107 226.108S392.935 746.919 517.81 746.919 743.919 645.687 743.919 520.81 642.687 294.703 517.81 294.703z" fill="#E35E60" /><path d="M518 747c22.23 0 43.71-3.21 64.002-9.19l-0.001 127.508C559.678 869.702 536.607 872 513 872c-23.607 0-46.677-2.298-69-6.682l-0.002-130.712C467.184 742.637 492.082 747 518 747zM292 521c0 22.23 3.21 43.71 9.19 64.002l-137.508-0.001C159.298 562.678 157 539.607 157 516c0-22.904 2.163-45.303 6.296-67.003l140.415 0.002C296.116 471.614 292 495.826 292 521z m577-5c0 23.607-2.298 46.678-6.682 69l-127.508 0.002C740.79 564.71 744 543.23 744 521c0-25.174-4.116-49.386-11.711-72.001l130.415-0.002c4.133 21.7 6.296 44.1 6.296 67.003zM513 160c23.607 0 46.678 2.298 69 6.682l0.002 137.508C561.71 298.21 540.23 295 518 295c-25.918 0-50.816 4.363-74.002 12.394L444 166.682c22.323-4.384 45.393-6.682 69-6.682z" fill="#FFFFFF" /><path d="M513 140.8c207.217 0 375.2 167.983 375.2 375.2 0 207.217-167.983 375.2-375.2 375.2-207.217 0-375.2-167.983-375.2-375.2 0-207.217 167.983-375.2 375.2-375.2z m215.868 298.726l1.178 3.126c8.973 24.358 13.873 50.686 13.873 78.159 0 124.876-101.232 226.108-226.108 226.108-28.199 0-55.191-5.162-80.085-14.592l-1.184-0.453c2.465 0.953 4.95 1.864 7.456 2.732L444 865.318c22.323 4.384 45.393 6.682 69 6.682 22.973 0 45.437-2.176 67.199-6.333l1.802-0.35 0.001-127.507a224.262 224.262 0 0 0 19.201-6.618l0.006 129.795c125.739-32.053 224.725-131.04 256.778-256.778l-129.795-0.006a224.262 224.262 0 0 0 6.618-19.2L862.318 585l0.008-0.04C866.705 562.652 869 539.595 869 516c0-22.905-2.163-45.305-6.296-67.007l-130.415 0.006a224.3 224.3 0 0 0-3.42-9.473zM307.58 604.206H168.013c32.053 125.742 131.04 224.728 256.778 256.781l0.003-134.026c-53.278-24.077-95.556-68.202-117.215-122.754z m210.232-290.303c-114.272 0-206.908 92.636-206.908 206.908 0 114.272 92.636 206.908 206.908 206.908 114.272 0 206.908-92.636 206.908-206.908 0-114.272-92.636-206.908-206.908-206.908z m-354.515 135.09C159.163 470.695 157 493.095 157 516c0 22.973 2.176 45.437 6.333 67.199l0.35 1.802 137.262 0.003c-6.014-20.35-9.242-41.894-9.242-64.193 0-25.104 4.09-49.252 11.642-71.814l-140.049-0.004z m261.495-277.98c-126.406 32.223-225.775 132.093-257.283 258.785h143.259c22.467-51.036 63.251-92.19 114.027-115.137l-0.003-143.648z m176.416 0v139.566c55.235 21.93 99.779 64.998 123.648 119.22h133.637c-31.193-125.427-128.896-224.563-253.5-257.8l-3.785-0.986zM513 160c-23.607 0-46.677 2.298-69 6.682l-0.004 140.344c23.133-7.986 47.968-12.323 73.815-12.323 22.299 0 43.843 3.228 64.193 9.242L582 166.682l-0.04-0.008C559.652 162.295 536.595 160 513 160z" fill="#346B9B" /></svg>