<?xml version="1.0" standalone="no"?><!DOCTYPE svg PUBLIC "-//W3C//DTD SVG 1.1//EN" "http://www.w3.org/Graphics/SVG/1.1/DTD/svg11.dtd"><svg class="icon" width="48px" height="48.00px" viewBox="0 0 1024 1024" version="1.1" xmlns="http://www.w3.org/2000/svg"><path d="M512 1024C229.232 1024 0 794.768 0 512 0 229.232 229.232 0 512 0c282.768 0 512 229.232 512 512 0 282.768-229.232 512-512 512z m0-40c260.68 0 472-211.32 472-472S772.68 40 512 40 40 251.32 40 512s211.32 472 472 472z" fill="#334966" /><path d="M213.804 245.36l28.284-28.28 98.74 98.736-28.284 28.284L213.8 245.364z m4 535.256l98.74-98.74 28.28 28.288-98.736 98.736-28.28-28.284zM805.628 244.708L706.888 343.44l-28.28-28.28 98.736-98.74 28.28 28.28z m0 531.252l-28.284 28.284-98.74-98.736 28.284-28.284 98.74 98.736z" fill="#334966" /><path d="M164 249.188c-42.628 0-77.188-34.56-77.188-77.188S121.372 94.812 164 94.812 241.188 129.372 241.188 172 206.628 249.188 164 249.188z m4 684c-42.628 0-77.188-34.56-77.188-77.188s34.56-77.188 77.188-77.188 77.188 34.56 77.188 77.188-34.56 77.188-77.188 77.188z m688-684c-42.628 0-77.188-34.56-77.188-77.188s34.56-77.188 77.188-77.188 77.188 34.56 77.188 77.188-34.56 77.188-77.188 77.188z m0 684c-42.628 0-77.188-34.56-77.188-77.188s34.56-77.188 77.188-77.188 77.188 34.56 77.188 77.188-34.56 77.188-77.188 77.188z" fill="#FFFFFF" /><path d="M516.652 795.924C362.412 795.924 237.38 670.892 237.38 516.652S362.416 237.38 516.652 237.38c154.24 0 279.272 125.036 279.272 279.272 0 154.24-125.032 279.272-279.272 279.272zM517.38 757.38c132.548 0 240-107.452 240-240s-107.452-240-240-240-240 107.452-240 240 107.452 240 240 240z" fill="#334966" /><path d="M517.38 517.38m-220 0a220 220 0 1 0 440 0 220 220 0 1 0-440 0Z" fill="#00A4FF" /></svg>