<?xml version="1.0" standalone="no"?><!DOCTYPE svg PUBLIC "-//W3C//DTD SVG 1.1//EN" "http://www.w3.org/Graphics/SVG/1.1/DTD/svg11.dtd"><svg class="icon" width="48px" height="48.00px" viewBox="0 0 1024 1024" version="1.1" xmlns="http://www.w3.org/2000/svg"><path d="M828.5 335.5h-633a18 18 0 0 1-17.27-23.06l39.52-134.87a80.81 80.81 0 0 1 77.53-58.07h433.44a80.81 80.81 0 0 1 77.53 58.07l39.52 134.87a18 18 0 0 1-17.27 23.06z m-609-36h584.97L771.7 187.7a45 45 0 0 0-43-32.2H295.28a45 45 0 0 0-43 32.2z" fill="#26324E" /><path d="M740.5 335.5h-457a18 18 0 0 1-17.27-23.06L297.73 205A41.18 41.18 0 0 1 337 175.5h350a41.18 41.18 0 0 1 39.27 29.5l31.5 107.49a18 18 0 0 1-17.27 23.01z m-433-36h408.97l-24.74-84.43a5 5 0 0 0-4.73-3.57H337a5 5 0 0 0-4.77 3.57zM315 210zM856.5 800.5h-689a18 18 0 0 1-18-18V373.33a18 18 0 0 1 18-18h689a18 18 0 0 1 18 18V782.5a18 18 0 0 1-18 18z m-671-36h653V391.33h-653z" fill="#26324E" /><path d="M693.5 715.5h-363a18 18 0 0 1-18-18v-245a18 18 0 0 1 18-18h363a18 18 0 0 1 18 18v245a18 18 0 0 1-18 18z m-345-36h327v-209h-327z" fill="#E83378" /><path d="M607 563.5H417a12 12 0 0 1-12-12v-50a12 12 0 0 1 12-12h190a12 12 0 0 1 12 12v50a12 12 0 0 1-12 12z m-178-24h166v-26H429zM745.5 911h-467a18 18 0 0 1 0-36h467a18 18 0 0 1 0 36zM767.5 861.5h-511c-30.52 0-56.82-7.36-76.05-21.29-20-14.44-30.95-34.94-30.95-57.71a18 18 0 0 1 18-18h689a18 18 0 0 1 18 18c0 22.77-11 43.27-31 57.71-19.18 13.93-45.5 21.29-76 21.29z m-576.39-61c10.4 15.31 34.44 25 65.39 25h511c31 0 55-9.69 65.39-25z" fill="#26324E" /><path d="M409.5 612.5h-24a12 12 0 0 1 0-24h24a12 12 0 0 1 0 24zM485.83 612.5h-24a12 12 0 1 1 0-24h24a12 12 0 0 1 0 24zM562.17 612.5h-24a12 12 0 0 1 0-24h24a12 12 0 1 1 0 24zM638.5 612.5h-24a12 12 0 0 1 0-24h24a12 12 0 0 1 0 24zM409.5 657.5h-24a12 12 0 0 1 0-24h24a12 12 0 0 1 0 24zM485.83 657.5h-24a12 12 0 1 1 0-24h24a12 12 0 0 1 0 24zM562.17 657.5h-24a12 12 0 0 1 0-24h24a12 12 0 1 1 0 24zM638.5 657.5h-24a12 12 0 0 1 0-24h24a12 12 0 0 1 0 24z" fill="#E83378" /><path d="M558.5 289.5h-93a33.5 33.5 0 0 1 0-67h93a33.5 33.5 0 0 1 0 67z m-93-43a9.5 9.5 0 0 0 0 19h93a9.5 9.5 0 0 0 0-19zM911.5 435.5a18 18 0 0 1-18-18v-82h-763v82a18 18 0 0 1-36 0v-100a18 18 0 0 1 18-18h799a18 18 0 0 1 18 18v100a18 18 0 0 1-18 18z" fill="#26324E" /><path d="M704 329.5H320a12 12 0 0 1-12-12v-5.82c0-15.23 14.72-27.94 43.76-37.76 25.15-8.5 59.58-14.13 96.94-15.84a12 12 0 1 1 1.09 24c-33 1.51-63.7 6.25-86.4 13.33-11.45 3.57-19 7.15-23.9 10.12h345c-4.86-3-12.45-6.55-23.9-10.12-22.7-7.08-53.38-11.82-86.4-13.33a12 12 0 1 1 1.09-24c37.36 1.71 71.79 7.34 96.94 15.84 29 9.82 43.76 22.53 43.76 37.76v5.82a12 12 0 0 1-11.98 12z" fill="#26324E" /></svg>