<?xml version="1.0" standalone="no"?><!DOCTYPE svg PUBLIC "-//W3C//DTD SVG 1.1//EN" "http://www.w3.org/Graphics/SVG/1.1/DTD/svg11.dtd"><svg class="icon" width="48px" height="48.00px" viewBox="0 0 1024 1024" version="1.1" xmlns="http://www.w3.org/2000/svg"><path d="M992.32 475.616h-41.04l20.288-35.12a31.968 31.968 0 0 0-11.744-43.728 31.904 31.904 0 0 0-43.76 11.712l-38.736 67.136h-117.664l68.4-118.336c0.352-0.592 0.32-1.28 0.624-1.872 0.912-1.872 1.376-3.808 1.936-5.84 0.56-2.16 1.152-4.24 1.28-6.384 0.032-0.656 0.368-1.184 0.368-1.84 0-1.376-0.624-2.56-0.784-3.904a29.712 29.712 0 0 0-1.312-6.4 29.6 29.6 0 0 0-2.656-5.504 32.272 32.272 0 0 0-3.376-4.96 28.912 28.912 0 0 0-4.864-4.288c-1.088-0.848-1.808-2-3.04-2.688-0.592-0.336-1.248-0.32-1.872-0.624-1.84-0.928-3.808-1.408-5.84-1.968-2.192-0.592-4.288-1.184-6.496-1.312-0.592-0.032-1.12-0.352-1.744-0.352h-136.704l58.832-101.904 77.6 0.064a32.16 32.16 0 0 0 32.08-32.08 32.032 32.032 0 0 0-32.08-31.984l-40.608-0.032 20.544-35.568a32 32 0 1 0-55.44-32.016l-20.528 35.552-20.256-35.104a31.984 31.984 0 0 0-43.76-11.728 31.936 31.936 0 0 0-11.728 43.776l38.8 67.104-58.832 101.904-68.304-118.416c-0.336-0.592-0.944-0.944-1.312-1.504-1.168-1.68-2.608-3.056-4.08-4.56-1.6-1.6-3.12-3.12-4.96-4.336-0.528-0.336-0.816-0.912-1.376-1.216-1.184-0.688-2.496-0.752-3.744-1.28a32.064 32.064 0 0 0-6.192-2.096 30.32 30.32 0 0 0-6.256-0.4c-1.936 0-3.808 0.032-5.744 0.4-2.288 0.432-4.32 1.248-6.432 2.16-1.184 0.496-2.464 0.56-3.632 1.216-0.56 0.32-0.88 0.88-1.376 1.216-1.84 1.184-3.312 2.72-4.88 4.32-1.536 1.536-3.024 2.976-4.208 4.752-0.336 0.528-0.944 0.848-1.248 1.408l-68.336 118.368-58.832-101.872 38.832-67.168a32.08 32.08 0 0 0-11.728-43.776 32 32 0 0 0-43.728 11.76l-20.32 35.168-20.56-35.6a32.016 32.016 0 0 0-55.424 32.016l20.544 35.568h-40.544a31.968 31.968 0 0 0-32.048 32.016 32 32 0 0 0 32.048 32.048l77.536-0.032 58.832 101.904-136.704-0.064c-0.688 0-1.248 0.352-1.904 0.368-2.096 0.16-4.064 0.72-6.128 1.28-2.128 0.56-4.192 1.056-6.096 2.032-0.592 0.32-1.248 0.288-1.808 0.624-1.216 0.688-1.936 1.84-3.04 2.688-1.76 1.312-3.424 2.592-4.864 4.256-1.408 1.6-2.432 3.344-3.472 5.152-0.96 1.712-1.904 3.376-2.56 5.248a30.48 30.48 0 0 0-1.312 6.528c-0.16 1.312-0.784 2.464-0.784 3.84 0 0.656 0.352 1.216 0.368 1.904 0.128 2.064 0.688 4.048 1.248 6.112 0.56 2.192 1.12 4.304 2.128 6.288 0.288 0.56 0.256 1.152 0.56 1.696l68.304 118.336H147.008l-38.768-67.168a32 32 0 1 0-55.408 32.016L73.12 475.68H32.016A32 32 0 0 0 0 507.696a32 32 0 0 0 32.016 32.016H73.12l-20.288 35.136a31.952 31.952 0 0 0 11.68 43.744 31.952 31.952 0 0 0 43.76-11.744l38.768-67.136h117.648l-68.368 118.336c-0.336 0.592-0.304 1.248-0.624 1.84-0.944 1.872-1.408 3.872-1.968 5.936-0.56 2.128-1.152 4.176-1.28 6.336-0.032 0.656-0.368 1.184-0.368 1.84 0 1.376 0.624 2.528 0.784 3.872 0.272 2.224 0.56 4.384 1.312 6.496 0.688 1.968 1.664 3.696 2.688 5.44 0.992 1.744 1.968 3.408 3.312 4.944 1.472 1.712 3.184 3.056 5.04 4.432 1.024 0.784 1.712 1.872 2.88 2.528 0.56 0.304 1.184 0.304 1.776 0.592 1.904 0.976 3.968 1.504 6.064 2.064 2.16 0.56 4.192 1.12 6.336 1.248 0.624 0.064 1.152 0.368 1.808 0.368h136.64l-58.832 101.904-77.568-0.064a32.224 32.224 0 0 0-32.08 32.08 32.064 32.064 0 0 0 32.08 31.984l40.576 0.032-20.544 35.568a32.016 32.016 0 1 0 55.424 32.016l20.528-35.584 20.288 35.168a32 32 0 0 0 43.76 11.696 31.936 31.936 0 0 0 11.728-43.776l-38.8-67.136 58.832-101.872 68.336 118.416c0.336 0.592 0.944 0.912 1.312 1.472 1.136 1.712 2.608 3.088 4.08 4.592 1.6 1.6 3.088 3.12 4.944 4.336 0.528 0.352 0.816 0.912 1.376 1.216 1.184 0.688 2.496 0.752 3.712 1.248a32 32 0 0 0 6.288 2.128c2.064 0.368 4.032 0.4 6.096 0.4 2 0 3.904-0.032 5.904-0.4 2.192-0.432 4.192-1.216 6.256-2.096 1.248-0.528 2.592-0.592 3.776-1.28 0.592-0.336 0.912-0.912 1.44-1.28 1.744-1.152 3.152-2.624 4.656-4.128 1.6-1.568 3.152-3.056 4.352-4.912 0.352-0.528 0.912-0.816 1.216-1.376l68.304-118.384 58.864 101.936-38.832 67.136a32.16 32.16 0 0 0 11.728 43.808 32.048 32.048 0 0 0 43.728-11.792l20.304-35.136 20.528 35.584a32 32 0 1 0 55.44-32.016l-20.544-35.568 40.608 0.032A32 32 0 0 0 832 839.888a31.984 31.984 0 0 0-32.048-32.048l-77.568 0.032-58.8-101.904 136.704 0.064c0.688 0 1.28-0.336 1.936-0.4 2.096-0.128 4.032-0.72 6.096-1.248 2.096-0.56 4.16-1.056 6.064-2.032 0.592-0.304 1.248-0.288 1.84-0.624 1.216-0.72 1.968-1.872 3.056-2.72 1.728-1.312 3.392-2.592 4.8-4.224s2.432-3.344 3.472-5.152c0.992-1.728 1.936-3.408 2.592-5.28 0.72-2.128 1.04-4.224 1.312-6.432 0.16-1.344 0.784-2.528 0.784-3.936 0-0.688-0.336-1.248-0.368-1.904-0.128-2.064-0.72-4.016-1.248-6.048a29.664 29.664 0 0 0-2.128-6.32c-0.288-0.56-0.256-1.152-0.56-1.68l-68.336-118.336h117.696l38.736 67.2a32.16 32.16 0 0 0 43.792 11.712 32.048 32.048 0 0 0 11.664-43.744l-20.288-35.168h41.104a32 32 0 0 0 32.016-32.016 32 32 0 0 0-32-32.064z m-247.552-102.272l-59.04 102.272h-7.216l-55.472-96.064 3.6-6.224 118.128 0.016zM567.584 603.664h-110.848l-55.456-96.032 55.456-96.032h110.848l55.456 96.032-55.456 96.032zM512.16 239.04l59.04 102.304-3.6 6.24h-110.912l-3.6-6.272 59.072-102.272z m-232.608 134.304h118.144l3.6 6.256-55.472 96.032h-7.248l-59.024-102.288z m0 268.592l59.008-102.288h7.248l55.472 96.032-3.6 6.256h-118.128z m232.608 134.288l-59.04-102.32 3.6-6.24h110.912l3.6 6.24-59.072 102.32z m232.608-134.288h-118.144l-3.6-6.224 55.472-96.064h7.216l59.056 102.288z" fill="#469FCC" /></svg>