<?xml version="1.0" standalone="no"?><!DOCTYPE svg PUBLIC "-//W3C//DTD SVG 1.1//EN" "http://www.w3.org/Graphics/SVG/1.1/DTD/svg11.dtd"><svg class="icon" width="48px" height="48.00px" viewBox="0 0 1024 1024" version="1.1" xmlns="http://www.w3.org/2000/svg"><path d="M512 512L828.8 195.2l-197.333333 317.866667L512 512z" fill="#0097A7" /><path d="M828.8 195.2L512 512v-120.746667l316.8-196.053333z" fill="#80DEEA" /><path d="M512 512L195.2 828.8l317.866667-197.333333L512 512z" fill="#0097A7" /><path d="M195.2 828.8L512 512h-120.746667L195.2 828.8z" fill="#80DEEA" /><path d="M512 512l316.8 316.8-317.866667-197.333333L512 512z" fill="#0097A7" /><path d="M828.8 828.8L512 512h120.746667l196.053333 316.8z" fill="#80DEEA" /><path d="M512 512L195.2 195.2l197.333333 317.866667L512 512z" fill="#0097A7" /><path d="M195.2 195.2L512 512v-120.746667L195.2 195.2z" fill="#80DEEA" /><path d="M512 512V64l85.333333 364.373333L512 512z" fill="#03A9F4" /><path d="M512 64v448l-85.333333-85.333333 85.333333-362.666667z" fill="#B3E5FC" /><path d="M512 512v448l85.333333-364.373333L512 512z" fill="#03A9F4" /><path d="M512 960V512l-85.333333 85.333333 85.333333 362.666667z" fill="#B3E5FC" /><path d="M512 512h448l-364.373333 85.333333L512 512z" fill="#03A9F4" /><path d="M960 512H512l85.333333-85.333333 362.666667 85.333333z" fill="#B3E5FC" /><path d="M512 512H64l364.373333 85.333333L512 512z" fill="#03A9F4" /><path d="M64 512h448l-85.333333-85.333333-362.666667 85.333333z" fill="#B3E5FC" /></svg>