<?xml version="1.0" standalone="no"?><!DOCTYPE svg PUBLIC "-//W3C//DTD SVG 1.1//EN" "http://www.w3.org/Graphics/SVG/1.1/DTD/svg11.dtd"><svg class="icon" width="48px" height="48.00px" viewBox="0 0 1024 1024" version="1.1" xmlns="http://www.w3.org/2000/svg"><path d="M267.355 376h527.938c10.494 0 19 8.507 19 19v0.206l-5.09 470c-0.112 10.412-8.585 18.794-18.998 18.794h-467.8c-9.639 0-17.75-7.217-18.872-16.79l-55.049-470c-1.22-10.422 6.239-19.86 16.661-21.081a19 19 0 0 1 2.21-0.129z" fill="#00DDB9" /><path d="M349 153m7 0l329 0q7 0 7 7l0 137q0 7-7 7l-329 0q-7 0-7-7l0-137q0-7 7-7Z" fill="#FFB3B3" /><path d="M449 307h126v38h-126z" fill="#CAFFF6" /><path d="M449 307h35v38h-35z" fill="#F2FFFD" /><path d="M540 307h35v38h-35z" fill="#A6F3E6" /><path d="M498 182h56v112h-56z" fill="#FFA7A7" /><path d="M540.5 237.5m-13.5 0a13.5 13.5 0 1 0 27 0 13.5 13.5 0 1 0-27 0Z" fill="#F03737" /><path d="M364 531h314.384a5 5 0 0 1 4.999 5.114l-2.771 121a5 5 0 0 1-4.999 4.886H364a5 5 0 0 1-5-5v-121a5 5 0 0 1 5-5z" fill="#FFDA84" /><path d="M246 585L267.5 796.5h480l61.5-412.5-8 500h-555z" fill="#A2FFF0" /><path d="M683 127.5c12.302 0 22.298 9.873 22.497 22.128l0.003 0.372v135c0 12.302-9.873 22.298-22.128 22.497l-0.372 0.003H589.5v35h188.5c20.206 0 36.68 15.982 37.47 35.994l0.03 0.006-0.024 0.156 0.024 0.67V860c0 20.504-16.455 37.164-36.88 37.5H246C225.496 897.5 208.836 881.045 208.5 860.62V380c0-20.504 16.455-37.164 36.88-37.495l0.62-0.005H434.5v-35h-91.5c-12.302 0-22.298-9.873-22.497-22.128L320.5 285v-135C320.5 137.698 330.373 127.702 342.628 127.5H683zM800.5 472.345l-41.07 319.522A15 15 0 0 1 744.616 804.5H272.002a15 15 0 0 1-14.852-12.896L223.5 483.455V860c0 12.302 9.873 22.298 22.128 22.5H778c12.302 0 22.298-9.873 22.5-22.128V472.345zM778 357.5h-532c-11.575 0-21.11 8.741-22.36 19.983l47.774 407.719a5 5 0 0 0 4.95 4.298h463.961a5 5 0 0 0 4.937-4.21l55.142-407.38c-1.043-11.326-10.48-20.221-22.035-20.41h-0.369z m-105 145c12.302 0 22.298 9.873 22.5 22.128V645c0 12.302-9.873 22.298-22.128 22.497l-0.372 0.003h-320c-12.302 0-22.298-9.873-22.5-22.128V525c0-12.302 9.873-22.298 22.128-22.497l0.372-0.003h320z m0 15h-320a7.5 7.5 0 0 0-7.496 7.257l-0.004 0.243v120a7.5 7.5 0 0 0 7.257 7.496l0.243 0.004h320a7.5 7.5 0 0 0 7.496-7.257l0.004-0.243v-120a7.5 7.5 0 0 0-7.257-7.496L673 517.5z m0-15c12.302 0 22.298 9.873 22.5 22.128V645c0 12.302-9.873 22.298-22.128 22.497l-0.372 0.003h-320c-12.302 0-22.298-9.873-22.5-22.128V525c0-12.302 9.873-22.298 22.128-22.497l0.372-0.003h320z m0 15h-320a7.5 7.5 0 0 0-7.496 7.257l-0.004 0.243v120a7.5 7.5 0 0 0 7.257 7.496l0.243 0.004h320a7.5 7.5 0 0 0 7.496-7.257l0.004-0.243v-120a7.5 7.5 0 0 0-7.257-7.496L673 517.5zM569.5 307.5H454.5a5 5 0 0 0-4.995 4.783L449.5 312.5v25a5 5 0 0 0 4.783 4.995L454.5 342.5h115a5 5 0 0 0 4.995-4.783L574.5 337.5v-25a5 5 0 0 0-4.783-4.995L569.5 307.5zM683 142.5h-340a7.5 7.5 0 0 0-7.496 7.257L335.5 150v135a7.5 7.5 0 0 0 7.257 7.496l0.243 0.004h126.677a17.608 17.608 0 0 1-0.17-1.992L469.5 290v-105c0-9.555 7.658-17.322 17.171-17.497L487 167.5h50c9.555 0 17.322 7.658 17.497 17.171l0.003 0.329v105c0 0.849-0.06 1.684-0.177 2.5H683a7.5 7.5 0 0 0 7.496-7.257l0.004-0.243v-135a7.5 7.5 0 0 0-7.257-7.496L683 142.5z m-146 40h-50a2.5 2.5 0 0 0-2.495 2.336L484.5 185v105a2.5 2.5 0 0 0 2.336 2.495l0.164 0.005h50a2.5 2.5 0 0 0 2.495-2.336l0.005-0.164v-24.504c-14.957-0.267-27-12.475-27-27.496 0-15.02 12.043-27.229 27-27.496V185a2.5 2.5 0 0 0-2.336-2.495L537 182.5z m-9.5 55.5c0 6.736 5.328 12.228 12 12.49V225.51c-6.672 0.262-12 5.754-12 12.49z" fill="#3D3D3D" /></svg>