<?xml version="1.0" standalone="no"?><!DOCTYPE svg PUBLIC "-//W3C//DTD SVG 1.1//EN" "http://www.w3.org/Graphics/SVG/1.1/DTD/svg11.dtd"><svg class="icon" width="48px" height="48.00px" viewBox="0 0 1024 1024" version="1.1" xmlns="http://www.w3.org/2000/svg"><path d="M979.456 658.7392h-157.7472c-43.52 0-92.0576-2.048-142.6432-22.272-85.8624-35.1232-109.568-118.7328-115.2-177.2544H224.2048c-13.9264 0-37.1712-6.912-44.8512-18.3296L118.3232 342.8864c-4.7616-7.6288-16.8448-7.0656-19.9168 1.3312-0.768 2.048-0.9216 4.4032-0.256 6.8608l43.3152 180.8896a42.2656 42.2656 0 0 0 26.5728 28.928c41.8816 15.2064 90.9824 33.4848 111.9232 41.5232 27.3408 10.4448 33.8944 36.352 40.96 61.2352 63.744 141.3632 254.976 136.3456 254.976 136.3456h234.7008c53.6064 0 85.3504-11.264 113.3056-30.8736 45.4144-34.2016 58.3168-73.8816 55.552-110.3872z" fill="#FF927C" /><path d="M319.7952 142.2336a15.36 15.36 0 0 1-15.2576-13.7728 15.3088 15.3088 0 0 1 13.6704-16.8448c58.624-6.144 126.2592-9.3696 195.584-9.3696 59.5456 0 118.7328 2.4064 171.2128 7.0144 8.448 0.7168 14.6944 8.192 13.9776 16.64a15.34976 15.34976 0 0 1-16.64 13.9776c-51.5584-4.5056-109.824-6.912-168.4992-6.912-68.3008 0-134.8096 3.1744-192.4096 9.1648-0.5632 0.0512-1.1264 0.1024-1.6384 0.1024zM445.8496 254.208h-0.512c-83.6096-2.6112-160.1024-10.1376-215.3472-21.1456-67.6352-13.4656-97.8432-30.208-97.8432-54.3232 0-24.832 32.1536-41.9328 104.2432-55.552 8.3456-1.5872 16.384 3.8912 17.92 12.2368 1.5872 8.3456-3.8912 16.384-12.2368 17.92-56.8832 10.752-73.6256 21.6064-78.08 25.5488 15.104 15.5648 110.6432 39.2192 282.3168 44.5952 8.4992 0.256 15.1552 7.3728 14.848 15.8208a15.26784 15.26784 0 0 1-15.3088 14.8992zM578.8672 254.3104c-8.2944 0-15.104-6.5536-15.36-14.8992a15.34464 15.34464 0 0 1 14.8992-15.8208c173.4144-5.1712 269.9776-28.9792 285.184-44.6976-4.864-4.352-24.4736-16.896-95.1296-28.5696a15.36512 15.36512 0 0 1 5.0176-30.3104c108.0832 17.8176 121.9584 40.704 121.9584 58.6752 0 24.2176-30.464 41.0112-98.7648 54.528-55.8592 11.0592-133.0176 18.4832-217.344 21.0432-0.1536 0.0512-0.3072 0.0512-0.4608 0.0512z m286.1568-73.8304h0.0512-0.0512z" fill="#333333" /><path d="M629.3504 420.6592l-41.1648-38.912c-7.5776-7.168-18.944-11.3152-30.976-11.3152H487.4752c-12.4928 0-13.9776-0.6656-21.504 6.9632-10.0864 10.1888-24.9344 30.3104-37.888 43.264h201.2672z" fill="#FFA750" /><path d="M979.6608 658.7392c-1.4336-37.12-23.7568-70.912-41.5744-89.1904C820.224 450.56 671.8976 458.8032 671.8976 458.8032h-72.192c-0.8192 43.264 8.2432 144.2816 106.2912 181.248 46.08 16.9984 90.2656 18.688 129.8944 18.688h143.7696z" fill="#84DDFD" /><path d="M988.16 844.6976a15.36 15.36 0 0 0-21.248 4.5056c-39.68 61.184-88.8832 53.76-90.8288 53.4528-0.9216-0.1536-1.8432-0.256-2.816-0.256h-70.656v-89.7024h7.8848c51.9168 0 88.4736-10.24 122.2144-34.2016 0.1536-0.1024 0.3072-0.2048 0.4096-0.3072 37.0176-28.3648 57.6512-62.7712 61.3376-102.2976 0.5632-5.888 0.6656-11.776 0.4608-17.5616v-0.1536-0.2048c-0.1024-2.4064-0.256-4.8128-0.4608-7.2192l-0.1536-1.7408c-0.256-2.5088-0.5632-5.0176-0.9728-7.5264l-0.1536-0.9728c-5.2736-33.7408-21.4016-64.8192-39.0656-87.6544-0.4096-0.512-0.768-1.024-1.1776-1.4848-1.024-1.3312-2.048-2.6112-3.1232-3.8912-1.536-1.8432-3.072-3.6352-4.5568-5.3248a428.544 428.544 0 0 0-12.3392-12.9536 426.28608 426.28608 0 0 0-19.3536-18.2784c-1.8944-1.6896-3.7888-3.4816-5.7344-5.12-2.6624-2.304-5.3248-4.4544-7.9872-6.6048-1.5872-1.28-3.1232-2.6624-4.7104-3.8912-3.7376-2.9696-7.4752-5.8368-11.2128-8.6016-0.512-0.3584-1.024-0.768-1.4848-1.1776-114.6368-84.6336-231.1168-80.6912-241.3568-80.1792h-4.5056l-43.1104-53.3504c-11.7248-14.5408-29.184-22.8352-47.8208-22.8352h-16.5376V178.7392c0-8.4992-6.8608-15.36-15.36-15.36s-15.36 6.8608-15.36 15.36v150.3232h-21.6576c-19.1488 0-37.5296 9.1136-49.0496 24.4224-10.496 13.9264-25.4976 33.6896-39.2704 51.8144H227.8912c-8.8064 0-16.9472-4.4032-21.8112-11.7248L152.2176 311.7056a61.32224 61.32224 0 0 0-23.3984-20.8896l-64.1024-32.512a26.9824 26.9824 0 0 0-29.44 3.072 27.03872 27.03872 0 0 0-9.3184 28.1088l57.9072 223.9488c4.7616 18.432 18.2784 33.3824 36.1472 39.9872 30.6176 11.3152 132.2496 48.8448 154.3168 57.4464 18.0224 7.0144 23.7568 23.4496 31.0784 49.7152l0.6656 2.3552c0.2048 0.7168 0.4608 1.4336 0.768 2.0992 62.976 141.9776 237.6704 147.7632 265.472 147.7632 1.8432 0 3.0208 0 3.5328-0.0512h10.9568v89.7024H465.5616c-8.4992 0-15.36 6.8608-15.36 15.36s6.8608 15.36 15.36 15.36h406.5792c1.9968 0.256 5.5808 0.6144 10.4448 0.6144 22.3232 0 71.0656-7.68 110.08-67.84 4.6592-7.1168 2.6112-16.64-4.5056-21.248z m-346.5216-408.6784c0.3072 0 0.6144 0 0.9216-0.0512 0.1536 0 1.6384-0.1024 4.352-0.1024 7.2192-0.0512 22.9376 0.3072 44.2368 3.3792 56.0128 8.1408 150.7328 35.1744 231.4752 123.4944 1.792 1.9968 3.6352 4.2496 5.4784 6.5024 0.512 0.6144 1.024 1.2288 1.4848 1.8944 1.7408 2.2528 3.4816 4.608 5.2224 7.0656 0.4608 0.6144 0.8704 1.28 1.28 1.9456 1.28 1.8944 2.56 3.84 3.7888 5.8368 0.7168 1.1264 1.3824 2.2528 2.0992 3.3792a157.3888 157.3888 0 0 1 6.144 11.264c0.8704 1.7408 1.7408 3.4816 2.56 5.2736 0.6656 1.3824 1.28 2.7648 1.8944 4.1984 1.1776 2.7648 2.304 5.5808 3.3792 8.448l1.2288 3.5328c0.8192 2.3552 1.536 4.7616 2.2528 7.168 0.3072 1.024 0.6144 2.048 0.8704 3.072 0.8704 3.3792 1.6384 6.8096 2.2528 10.24 0.0512 0.256 0.1024 0.512 0.1536 0.8192h-140.9024c-40.6528 0-88.1664-1.6384-136.8576-21.0944-89.8048-36.7104-105.5232-133.376-107.1104-186.2656h63.7952z m-189.44-64a31.01696 31.01696 0 0 1 24.576-12.2368h68.9664c9.3696 0 18.0736 4.1472 23.9616 11.4688l27.5456 34.048H427.008c9.2672-12.2368 18.2272-24.0128 25.1904-33.28z m123.2384 410.0096c-1.8432 0.1536-180.736 3.2256-240.0768-128.4608l-0.3584-1.2288c-7.0656-25.3952-15.9232-56.9856-49.5616-70.0928-22.3232-8.6528-124.16-46.2848-154.8288-57.6a27.48928 27.48928 0 0 1-17.0496-18.8416l-55.9104-216.576 57.344 29.0304c4.7104 2.4064 8.704 5.9904 11.6224 10.3424l53.9136 81.8176c10.5472 16.0256 28.2624 25.5488 47.4624 25.5488h319.1296c1.6384 59.6992 19.6096 171.1104 126.3104 214.7328 53.8624 21.5552 104.8064 23.3472 148.3776 23.3472h142.1312c-3.1232 30.1568-19.6096 56.8832-49.1008 79.5136-28.416 20.1728-58.6752 28.3648-104.192 28.3648l-235.2128 0.1024z m42.0864 30.6688h154.4192v89.7024h-154.4192v-89.7024z" fill="#333333" /><path d="M227.3792 178.1248a294.3488 29.7472 0 1 0 588.6976 0 294.3488 29.7472 0 1 0-588.6976 0Z" fill="#FFA750" /></svg>