<?xml version="1.0" standalone="no"?><!DOCTYPE svg PUBLIC "-//W3C//DTD SVG 1.1//EN" "http://www.w3.org/Graphics/SVG/1.1/DTD/svg11.dtd"><svg class="icon" width="48px" height="48.00px" viewBox="0 0 1024 1024" version="1.1" xmlns="http://www.w3.org/2000/svg"><path d="M571 572.9m-307 0a307 307 0 1 0 614 0 307 307 0 1 0-614 0Z" fill="#4169E1" /><path d="M507.1 904.9c-53.4 0-105.3-10.5-154.1-31.1-47.2-19.9-89.5-48.5-125.8-84.8-36.4-36.4-64.9-78.7-84.8-125.8-20.7-48.8-31.1-100.7-31.1-154.1s10.5-105.3 31.1-154.1c19.9-47.2 48.5-89.5 84.8-125.8 36.4-36.4 78.7-64.9 125.8-84.8 48.8-20.7 100.7-31.1 154.1-31.1s105.3 10.5 154.1 31.1c47.2 19.9 89.5 48.5 125.8 84.8 36.4 36.4 64.9 78.7 84.8 125.8 20.7 48.8 31.1 100.7 31.1 154.1s-10.5 105.3-31.1 154.1c-19.9 47.2-48.5 89.5-84.8 125.8-36.4 36.4-78.7 64.9-125.8 84.8-48.9 20.6-100.7 31.1-154.1 31.1z m0-741.9c-190.8 0-345.9 155.2-345.9 345.9s155.2 345.9 345.9 345.9S853 699.7 853 508.9 697.8 163 507.1 163z" fill="#2c2c2c" /><path d="M652 537.6H371.1c-13.8 0-25-11.2-25-25s11.2-25 25-25H652c13.8 0 25 11.2 25 25s-11.2 25-25 25z" fill="#2c2c2c" /><path d="M511.5 678c-13.8 0-25-11.2-25-25V372.1c0-13.8 11.2-25 25-25s25 11.2 25 25V653c0 13.8-11.1 25-25 25z" fill="#2c2c2c" /></svg>