<?xml version="1.0" standalone="no"?><!DOCTYPE svg PUBLIC "-//W3C//DTD SVG 1.1//EN" "http://www.w3.org/Graphics/SVG/1.1/DTD/svg11.dtd"><svg class="icon" width="48px" height="48.00px" viewBox="0 0 1024 1024" version="1.1" xmlns="http://www.w3.org/2000/svg"><path d="M566.6 564.3m-272.4 0a272.4 272.4 0 1 0 544.8 0 272.4 272.4 0 1 0-544.8 0Z" fill="#4169E1" /><path d="M484.1 407.3h-255V291.4h255v115.9z m-240-15h225v-85.9h-225v85.9z" fill="#181818" /><path d="M391.3 298.9l-141-4.3s-22.9-89.5 0-99c35.5-14.8 215.1-13.3 222 0 11.1 21.3-85.6 51.1-85.6 51.1l4.6 52.2z" fill="#181818" /><path d="M399.5 306.6l-155.1-4.7-1.4-5.5c-0.2-0.9-5.9-23.1-8.7-46.9-4.4-36-0.2-55.4 13.1-60.9 19.7-8.2 75.2-11.1 120.7-11.1 26.7 0 51.8 1 70.8 2.7 32.9 3.1 37.7 7.3 40 11.8 2.2 4.2 2.3 8.8 0.4 13.4-2.8 6.7-11 17.4-50.1 33.6-13.9 5.8-27.2 10.4-34.6 12.8l4.9 54.8z m-143.3-19.3l126.8 3.8-4.4-49.8 5.8-1.8c0.2-0.1 21.8-6.7 42.9-15.8 31.5-13.5 37.1-21.6 38.1-23.9-8.1-3.2-41.3-7.3-97.4-7.3-54.4 0-100.6 4-114.9 10-3.4 1.4-8 12.5-4 45.2 2 16.1 5.3 31.6 7.1 39.6z" fill="#181818" /><path d="M534.2 846.4H177.5v-455h356.7v455z m-341.7-15h326.7v-425H192.5v425z" fill="#181818" /><path d="M185 729.4h123v15H185z" fill="#181818" /><path d="M293.8 481.9h15v255h-15z" fill="#181818" /><path d="M294.2 474.4h234v15h-234z" fill="#181818" /><path d="M480.7 777.9l-15-0.1c0.5-60.6 0.5-122.3 0-183.3l15-0.1c0.4 61.1 0.4 122.8 0 183.5zM480.7 564.5l-15-0.5c0.5-13.3 0.5-27.1 0-39.9l15-0.5c0.4 13.1 0.4 27.3 0 40.9zM507.8 286.6c-9.2 0-16.9-6.2-20.5-16.9-4.4-12.8-2.6-31.4 7.9-39.1l-0.5-4c9.4-1.1 17.9 3.2 24.1 12 8 11.4 10.2 27.7 5.1 38-3.1 6.2-8.5 9.8-15.3 10h-0.8z m-8.1-50l1.4 2c-5.9 4.2-8 17.5-4.5 27.9 1.6 4.8 5 10.4 11.5 10.1 3.1-0.1 5.2-1.5 6.7-4.5 3.4-6.9 1.5-19.7-4.3-27.8-2.2-3.2-5.7-6.8-10.8-7.7z" fill="#181818" /></svg>