<?xml version="1.0" standalone="no"?><!DOCTYPE svg PUBLIC "-//W3C//DTD SVG 1.1//EN" "http://www.w3.org/Graphics/SVG/1.1/DTD/svg11.dtd"><svg class="icon" width="48px" height="48.00px" viewBox="0 0 1024 1024" version="1.1" xmlns="http://www.w3.org/2000/svg"><path d="M627.2 690.56m-181.333333 0a181.333333 181.333333 0 1 0 362.666666 0 181.333333 181.333333 0 1 0-362.666666 0Z" fill="#4169E1" /><path d="M125.866667 274.56m-42.666667 0a42.666667 42.666667 0 1 0 85.333333 0 42.666667 42.666667 0 1 0-85.333333 0Z" fill="#4169E1" /><path d="M524.8 894.506667a34.56 34.56 0 0 1-21.333333-7.466667l-5.12-3.84c-113.28-89.386667-183.466667-144.853333-202.88-160.64-90.453333-73.173333-142.933333-144-165.12-222.72a292.266667 292.266667 0 0 1-8.746667-114.56l64 7.893333a229.973333 229.973333 0 0 0 6.4 89.386667c18.346667 65.28 64 125.866667 143.786667 190.293333 13.013333 10.666667 56.533333 45.226667 189.013333 149.333334 132.48-104.32 176-138.88 189.013333-149.333334 79.786667-64 125.44-125.013333 143.786667-190.293333s7.68-164.053333-62.506667-213.333333a132.906667 132.906667 0 0 0-94.933333-21.333334c-70.826667 9.386667-115.84 34.986667-145.92 82.986667a34.56 34.56 0 0 1-58.666667 0c-30.293333-48.213333-75.306667-73.813333-146.133333-83.2a132.906667 132.906667 0 0 0-94.933333 21.333333l-36.906667-52.48a196.48 196.48 0 0 1 140.373333-32.426666 261.973333 261.973333 0 0 1 166.826667 79.573333 261.973333 261.973333 0 0 1 166.826667-79.573333A196.48 196.48 0 0 1 832 216.533333c96.213333 68.053333 113.066667 192 87.253333 283.306667-21.333333 78.72-74.453333 149.333333-165.12 222.72-19.413333 15.786667-89.6 71.253333-202.88 160.64l-5.12 3.84a34.56 34.56 0 0 1-21.333333 7.466667z" fill="#2c2c2c" /></svg>