<?xml version="1.0" standalone="no"?><!DOCTYPE svg PUBLIC "-//W3C//DTD SVG 1.1//EN" "http://www.w3.org/Graphics/SVG/1.1/DTD/svg11.dtd"><svg class="icon" width="48px" height="48.00px" viewBox="0 0 1024 1024" version="1.1" xmlns="http://www.w3.org/2000/svg"><path d="M319.988185 664.859569S511.9488 811.303385 708.923077 657.723077c0 0 11.476677 132.359877-53.823015 201.145108 0 0-109.843692 118.441354-282.198647 0 0 0-63.5904-58.836677-52.91323-194.008616z" fill="#4F8DFC" /><path d="M515.938462 78.769231c108.756677 0 196.923077 88.1664 196.923076 196.923077s-88.1664 196.923077-196.923076 196.923077-196.923077-88.1664-196.923077-196.923077 88.1664-196.923077 196.923077-196.923077z m0 47.261538c-82.656492 0-149.661538 67.005046-149.661539 149.661539s67.005046 149.661538 149.661539 149.661538 149.661538-67.005046 149.661538-149.661538-67.005046-149.661538-149.661538-149.661539zM515.938462 484.430769c121.808738 0 220.553846 98.745108 220.553846 220.553846s-98.745108 220.553846-220.553846 220.553847-220.553846-98.745108-220.553847-220.553847 98.745108-220.553846 220.553847-220.553846z m0 47.139446c-95.775508 0-173.4144 77.638892-173.4144 173.4144 0 95.775508 77.638892 173.4144 173.4144 173.4144 95.775508 0 173.4144-77.638892 173.4144-173.4144 0-95.775508-77.638892-173.4144-173.4144-173.4144z" fill="#000000" /><path d="M515.938462 740.430769c-82.187815 0-157.459692-29.617231-215.717416-78.761354h60.061539c45.3632 27.640123 98.650585 43.559385 155.655877 43.559385s110.292677-15.919262 155.651938-43.559385h60.069415C673.398154 710.813538 598.126277 740.430769 515.938462 740.430769zM222.546708 460.803938A340.389415 340.389415 0 0 0 342.646154 582.526031v53.893907A387.603692 387.603692 0 0 1 169.0112 460.8zM693.169231 634.407385V580.135385a340.409108 340.409108 0 0 0 116.157046-119.331447h53.535508A387.623385 387.623385 0 0 1 693.169231 634.407385zM327.144369 404.180677c28.632615 45.981538 73.641354 80.703015 126.8736 96.011815L441.107692 500.184615l-0.003938 43.319139c-72.8064-21.055015-132.800985-72.310154-165.541416-139.319139zM594.707692 541.952V500.184615l-17.955446 0.007877c53.228308-15.3088 98.240985-50.030277 126.8736-96.011815l51.459939 0.003938c-31.964554 65.417846-89.899323 115.818338-160.374154 137.767385z" fill="#000000" /><path d="M250.092308 350.523077c39.278277 0 72.310154 26.742154 81.880615 63.015385H280.449969A37.293292 37.293292 0 1 0 224.492308 462.316308V515.938462c-34.2528-10.850462-59.076923-42.893785-59.076923-80.738462C165.415385 388.434708 203.327015 350.523077 250.092308 350.523077zM781.784615 350.523077c46.765292 0 84.676923 37.911631 84.676923 84.676923 0 37.840738-24.824123 69.888-59.076923 80.738462l0.003939-53.626093A37.293292 37.293292 0 1 0 751.426954 413.538462H699.904C709.474462 377.265231 742.506338 350.523077 781.784615 350.523077zM443.258092 866.4576l5.891939 23.563815-198.695385 49.64037-10.287261-41.180554 54.441353-14.584123 69.81317-17.439508h78.836184zM334.769231 723.743508v44.725169l-74.003693 18.491077 0.137847 0.559261-11.338831 3.036554-38.675692-9.279015-6.254277-25.028923L334.769231 723.743508z" fill="#000000" /><path d="M226.209477 948.736c-45.489231 4.119631-86.665846-39.951754-91.963077-98.441846-5.301169-58.494031 27.281723-109.248985 72.774892-113.368616 30.641231-2.776615 59.328985 16.317046 76.406154 46.9504H233.948554c-7.108923-5.600492-15.135508-8.467692-23.374769-7.723323-23.827692 2.158277-40.440123 33.760492-37.104247 70.585108 3.335877 36.824615 25.355815 64.933415 49.187447 62.775139 8.132923-0.736492 15.426954-4.907323 21.37403-11.539693l45.351385-0.007877c-12.477046 28.392369-35.422523 48.257969-63.172923 50.770708z m73.117538-93.152492v-15.576616c0.299323 5.277538 0.295385 10.476308 0 15.576616zM663.268431 866.4576l69.758031 17.427692 54.496492 14.595939-10.287262 41.180554-198.695384-49.64037L584.428308 866.461538h78.840123z m29.652677-142.714092l130.134646 32.504123-6.254277 25.028923-38.679631 9.282954-11.338831-3.040493 0.145723-0.559261-74.00763-18.491077v-44.725169z" fill="#000000" /><path d="M744.262892 783.875938c17.081108-30.633354 45.764923-49.727015 76.406154-46.946461 45.493169 4.115692 78.076062 54.870646 72.778831 113.364677-5.297231 58.486154-46.473846 102.561477-91.963077 98.441846-27.7504-2.512738-50.699815-22.378338-63.172923-50.766769h45.347446c5.947077 6.636308 13.241108 10.807138 21.377969 11.539692 23.827692 2.162215 45.851569-25.946585 49.187446-62.7712 3.335877-36.824615-13.276554-68.426831-37.108184-70.585108-8.239262-0.748308-16.261908 2.126769-23.370831 7.723323z m-15.89563 56.064v15.663262a135.876923 135.876923 0 0 1 0-15.663262z" fill="#000000" /><path d="M519.766646 764.738954c-18.707692-21.263754-56.548431-12.996923-56.816246 20.763569-0.145723 18.538338 19.259077 25.466092 32.177231 32.886154 12.524308 7.187692 21.440985 17.018092 22.839138 21.208615 1.197292-4.103877 11.126154-14.217846 22.724923-21.409477 12.677908-7.876923 32.319015-14.347815 32.173293-32.886153-0.267815-33.847138-36.489846-42.543262-53.098339-20.55877z" fill="#000000" /><path d="M565.921477 801.969231l-48.5376 52.393354-48.053169-52.393354h25.438523l22.618584 24.847754 22.614647-24.847754h25.919015z" fill="#000000" /></svg>