<?xml version="1.0" standalone="no"?><!DOCTYPE svg PUBLIC "-//W3C//DTD SVG 1.1//EN" "http://www.w3.org/Graphics/SVG/1.1/DTD/svg11.dtd"><svg class="icon" width="48px" height="48.00px" viewBox="0 0 1024 1024" version="1.1" xmlns="http://www.w3.org/2000/svg"><path d="M104.180185 608.838892l418.938092-311.390523 118.508308 153.607877-418.942031 311.3984z" fill="#4F8DFC" /><path d="M495.950769 267.433354l27.884308 38.147938a1078071.808 1078071.808 0 0 1-156.333292 114.286277l-11.638154 8.507077-188.140308 137.515323-0.661661 0.488369-1.315447 0.9728c-16.545477 12.284062-28.120615 24.103385-6.57723 53.574893l162.689969 222.578215c25.757538 35.233477 36.529231 22.634338 52.7872 10.236062l1.114584-0.84677a124.849231 124.849231 0 0 1 1.138216-0.838892l356.131446-260.316554c12.744862 17.478892 22.520123 30.849969 27.888246 38.1952C631.256615 724.676923 366.631385 918.102646 366.631385 918.102646c-17.5616 12.831508-42.200615 8.999385-55.036062-8.554338l-105.960369-144.962954-6.549662-8.963939-105.960369-144.959015c-12.835446-17.557662-9.003323-42.204554 8.558277-55.036062l225.146092-164.572553 13.9264-10.176985 152.615385-111.552985z" fill="#000000" /><path d="M495.954708 267.433354l316.888615 46.442338-51.940431 316.037908-43.787815-26.541292 38.498461-247.662277-247.670153-38.498462zM411.344738 485.387815l116.204308 158.979939-38.151877 27.888246-116.208246-158.976z" fill="#000000" /><path d="M515.914831 501.637908l27.892184 38.159754-158.983877 116.204307-27.884307-38.151877zM618.759877 402.077538s-5.297231-196.387446 168.991508-289.390276c0 0 52.980185-34.7648 116.432738 12.461292 0 0 67.7888 57.080123 20.322462 141.256861 0 0-26.872123 82.235077-175.978339 153.024985l31.665231-76.811815c54.949415-23.8592 90.659446-66.221292 107.126154-127.086277 0 0-5.7344-79.998031-82.077539-52.216123 0 0-147.593846 68.871877-125.940184 248.170338 0 0-33.240615 37.127877-60.542031-9.412923z" fill="#000000" /><path d="M677.832862 402.802215a35.446154 35.446154 0 1 1-57.2416 41.838277 35.446154 35.446154 0 0 1 57.2416-41.838277z" fill="#000000" /></svg>