<?xml version="1.0" standalone="no"?><!DOCTYPE svg PUBLIC "-//W3C//DTD SVG 1.1//EN" "http://www.w3.org/Graphics/SVG/1.1/DTD/svg11.dtd"><svg class="icon" width="48px" height="48.00px" viewBox="0 0 1024 1024" version="1.1" xmlns="http://www.w3.org/2000/svg"><path d="M394.476308 214.370462h317.475446l-160.791631 493.851569H241.565538z" fill="#4F8DFC" /><path d="M720.738462 870.4c0 21.752123-17.632492 39.384615-39.384616 39.384615H169.353846c-21.752123 0-39.384615-17.632492-39.384615-39.384615l43.319138-149.641846L224.413538 720.738462 192.984615 823.016369c0 3.072-0.244185 6.0416-0.567138 8.881231l-0.165415 1.409969-0.173293 1.386339c-2.020431 15.8208-4.643446 27.002092 24.536616 27.703138h417.476923c21.752123 0 39.384615-17.632492 39.384615-39.384615l164.927015-547.343754 54.492554 0.011815L720.738462 870.4z" fill="#000000" /><path d="M783.753846 118.153846c21.752123 0 39.384615 17.636431 39.384616 39.384616l-173.087508 597.93723-0.2048 0.708923c-3.875446 22.969108-16.659692 36.269292-39.384616 39.384616H200.861538c-21.752123 0-39.384615-17.636431-39.384615-39.384616l0.2048-0.708923L293.730462 299.311262h58.5728L224.492308 709.907692c0 21.748185 1.878646 39.384615 23.630769 39.384616h315.076923c21.752123 0 34.264615-10.054892 39.384615-39.384616l157.538462-506.092307c0-21.756062 9.940677-36.588308-23.630769-39.384616h-315.076923c-20.755692 0-37.765908 16.053169-39.274339 36.430769l-59.904-0.027569L334.769231 157.538462c0-21.748185 17.632492-39.384615 39.384615-39.384616h409.6z" fill="#000000" /><path d="M338.707692 224.492308a23.630769 23.630769 0 1 1 0 47.261538 23.630769 23.630769 0 0 1 0-47.261538zM378.092308 267.815385h315.076923l-15.753846 47.261538H362.338462zM346.584615 385.965292h189.046154l-15.753846 39.384616H330.830769z" fill="#000000" /></svg>