<?xml version="1.0" standalone="no"?><!DOCTYPE svg PUBLIC "-//W3C//DTD SVG 1.1//EN" "http://www.w3.org/Graphics/SVG/1.1/DTD/svg11.dtd"><svg class="icon" width="48px" height="48.00px" viewBox="0 0 1024 1024" version="1.1" xmlns="http://www.w3.org/2000/svg"><path d="M512 512m-512 0a512 512 0 1 0 1024 0 512 512 0 1 0-1024 0Z" fill="#3F4347" /><path d="M339.456 854.976l16-19.424h313.088l16 19.424z" fill="#BAC6D0" /><path d="M300.416 902.368l23.552-28.608h376.064l23.552 28.608zM238.528 977.504l38.112-46.272h470.688l38.144 46.272z" fill="#8F6D52" /><path d="M268.928 1024H131.52l201.984-200.928h64.48zM892.48 1024h-137.408l-129.056-200.928h64.48z" fill="#9A795F" /><path d="M723.008 854.656H300.992L191.36 777.408h641.312zM715.136 119.168A47.008 47.008 0 0 0 668.48 77.12h-312.96a47.04 47.04 0 0 0-46.656 42.048A155.104 155.104 0 0 0 191.36 269.536v507.84h641.312V269.536a155.136 155.136 0 0 0-117.536-150.368z" fill="#E24B4B" /><path d="M264.16 323.264v191.84c0 31.584 25.6 57.184 57.184 57.184h381.28c31.584 0 57.184-25.6 57.184-57.184v-191.84c0-31.584-25.6-57.184-57.184-57.184H321.376c-31.584 0-57.216 25.632-57.216 57.184z" fill="#65B1EF" /><path d="M460.896 266.08l-196.704 196.704v52.288c0 11.296 3.392 21.792 9.056 30.656l279.68-279.68h-92.032zM574.24 266.08l-291.2 291.2c6.144 5.6 13.536 9.76 21.696 12.256l303.456-303.456h-33.952z" fill="#59A5E0" /><path d="M702.624 587.104H321.376a72.064 72.064 0 0 1-71.968-71.968v-191.84a72.032 72.032 0 0 1 71.968-71.968h381.28a72.064 72.064 0 0 1 71.968 71.968v191.84a72.064 72.064 0 0 1-72 71.968zM321.376 280.896c-23.392 0-42.4 19.008-42.4 42.4v191.84c0 23.392 19.008 42.4 42.4 42.4h381.28c23.36 0 42.4-19.008 42.4-42.4v-191.84c0-23.392-19.008-42.4-42.4-42.4H321.376z" fill="#3E4347" /><path d="M333.088 148.48c0 24.16 20.608 43.744 46.048 43.744h265.728c25.44 0 46.048-19.584 46.048-43.744s-20.608-43.744-46.048-43.744h-265.728c-25.44 0-46.048 19.584-46.048 43.744z" fill="#FFD93B" /><path d="M662.08 679.904m-57.472 0a57.472 57.472 0 1 0 114.944 0 57.472 57.472 0 1 0-114.944 0Z" fill="#FFD93B" /><path d="M361.92 679.904m-57.472 0a57.472 57.472 0 1 0 114.944 0 57.472 57.472 0 1 0-114.944 0Z" fill="#FFD93B" /><path d="M842.944 754.912H181.056a30.592 30.592 0 0 0 0 61.12h661.888a30.56 30.56 0 1 0 0-61.12z" fill="#E9EFF4" /></svg>