<?xml version="1.0" standalone="no"?><!DOCTYPE svg PUBLIC "-//W3C//DTD SVG 1.1//EN" "http://www.w3.org/Graphics/SVG/1.1/DTD/svg11.dtd"><svg class="icon" width="48px" height="48.00px" viewBox="0 0 1024 1024" version="1.1" xmlns="http://www.w3.org/2000/svg"><path d="M0 0h1024v1024H0z" fill="#21303A" /><path d="M752.84 678.89c30.26-41.69 63.92-75.5 96.11-99.49a328.43 328.43 0 0 0 11.6-85.24c0-186.84-156.11-338.3-348.7-338.3S163.16 307.3 163.16 494.14a328 328 0 0 0 18.48 108c30 23 61.14 54.34 89.47 91.84a497.63 497.63 0 0 1 51.38 83.94 355.95 355.95 0 0 0 373.09 3.33c12.98-32.48 32.02-67.59 57.26-102.36z m-167.48-277c9.36-40.89 51.11-66.67 93.26-57.6s68.72 49.59 59.37 90.48-51.11 66.67-93.26 57.6-68.72-49.62-59.37-90.48z m-257.13 54.33c-21.58-36.27-8.77-82.66 28.61-103.6s85.2-8.51 106.79 27.76 8.77 82.66-28.62 103.6-85.19 8.51-106.78-27.76z m22.94 83.46c43.77 35.31 107.89 57.72 179.56 57.72s135.79-22.41 179.56-57.72c-9.62 102.59-86.33 182.51-179.56 182.51s-169.92-79.92-179.56-182.51zM262.08 717.02c52.3 63.6 43 83.27 18.74 102.06s-54.36 29.59-106.66-34-75.01-130.4-50.73-149.19 86.35 17.53 138.65 81.13zM852.49 772.83c-51.88 63.92-73.74 59.64-98.14 41s-42.1-44.59 9.78-108.51 113.71-100.63 138.12-82 2.12 85.57-49.76 149.51z" fill="#F9F9FA" /></svg>