<?xml version="1.0" standalone="no"?><!DOCTYPE svg PUBLIC "-//W3C//DTD SVG 1.1//EN" "http://www.w3.org/Graphics/SVG/1.1/DTD/svg11.dtd"><svg class="icon" width="48px" height="48.00px" viewBox="0 0 1024 1024" version="1.1" xmlns="http://www.w3.org/2000/svg"><path d="M512 816a24 24 0 0 1-24-24v-80a24 24 0 0 1 48 0v80A24 24 0 0 1 512 816z" fill="#E50001" /><path d="M823.52 493.76a24 24 0 0 0-19.52-5.44L760 496v-8a24 24 0 0 0-48 0v16l-52 8A24 24 0 0 0 640 536v37.12l-32 1.6V464a24 24 0 0 0-24-24h-48v-32a24 24 0 0 0-48 0v32h-48A24 24 0 0 0 416 464v110.72l-32-1.6V536a24 24 0 0 0-20-24l-52-8.64v-16a24 24 0 0 0-48 0V496l-44-7.36a24 24 0 0 0-19.52 5.44A23.52 23.52 0 0 0 192 512v144a24 24 0 0 0 20 23.68l144 24h4A24.16 24.16 0 0 0 384 680v-58.72l32 1.6v105.12a96 96 0 0 0 192 0v-105.12l32-1.6v58.72a24.16 24.16 0 0 0 24 24h4l144-24A24 24 0 0 0 832 656v-144a23.52 23.52 0 0 0-8.48-18.24zM336 651.68l-96-16v-96l24 4v24.32a24 24 0 0 0 48 0v-16l24 4z m224 76.32a48 48 0 0 1-96 0v-240h96z m224-92.32l-96 16v-96l24-4v16a24 24 0 0 0 48 0V544l24-4z" fill="#121244" /><path d="M512 424a96 96 0 1 1 96-96 96 96 0 0 1-96 96z m0-144a48 48 0 1 0 48 48 48 48 0 0 0-48-48z" fill="#E50001" /></svg>