<?xml version="1.0" standalone="no"?><!DOCTYPE svg PUBLIC "-//W3C//DTD SVG 1.1//EN" "http://www.w3.org/Graphics/SVG/1.1/DTD/svg11.dtd"><svg class="icon" width="48px" height="44.81px" viewBox="0 0 1097 1024" version="1.1" xmlns="http://www.w3.org/2000/svg"><path d="M948.904194 535.461876c0 177.532894-180.396088 288.900775-402.938993 288.900775S143.026208 712.99477 143.026208 535.461876c0-99.158508 56.284766-255.16552 144.776762-314.135458 69.918319-46.582543 159.938341-74.621079 258.132561-74.621079 103.3272 0 197.56042 31.020413 268.873248 82.023846 82.320551 58.851257 134.095415 211.639029 134.095415 306.732691z" fill="#F6EDDB" /><path d="M545.965201 830.489591c-111.768432 0-214.190685-28.038537-288.396378-78.952959-38.007794-26.08029-67.678204-57.367736-88.195292-92.972228a243.490214 243.490214 0 0 1-32.489098-123.132198c0-51.166621 14.835205-116.426686 39.713843-174.551018 28.097878-65.690286 66.372706-117.079435 107.807432-144.687751 73.211735-48.778153 166.154292-75.659544 261.559493-75.659543 100.701369 0 197.456574 29.522057 272.448533 83.166157 38.45285 27.504469 73.983166 78.092517 100.004115 142.417964 22.935226 56.700152 36.62812 119.9723 36.62812 169.25485a243.490214 243.490214 0 0 1-32.489098 123.132198c-20.517088 35.604491-50.187497 66.891938-88.195292 92.972228-74.205694 50.973763-176.627946 79.0123-288.396378 79.0123z m0-677.657313c-93.061239 0-183.541152 26.139631-254.764969 73.59745-83.71506 55.824875-142.06192 207.633524-142.06192 309.032148 0 82.9733 39.891865 154.182282 115.358551 205.971981 72.173271 49.519913 172.088374 76.787019 281.453503 76.787019s209.280232-27.267106 281.453502-76.787019c75.481521-51.789699 115.417892-122.998682 115.417892-205.971981 0-98.238725-54.000145-246.264397-131.499254-301.748062-72.974372-52.16058-167.192756-80.881536-265.357305-80.881536z" fill="#DDC69E" /><path d="M413.204955 518.979964c3.708801 29.670409 7.818153 74.042506-6.987382 91.236508-16.70444 19.389612-57.857298 14.538501-88.313973 10.191786-50.068816-7.150569-87.305179-31.391293-87.305179-59.785875 0-53.406737 40.885824-138.382789 91.310684-138.382789s84.709018 43.8677 91.29585 96.74037z" fill="#5E9ACF" /><path d="M350.377863 490.570547m-26.703368 0a26.703368 26.703368 0 1 0 53.406736 0 26.703368 26.703368 0 1 0-53.406736 0Z" fill="#FFFFFF" /><path d="M678.755118 518.965129c-3.708801 29.670409-7.818153 74.057342 6.987381 91.251343 16.70444 19.389612 57.857298 14.538501 88.313973 10.191786 50.068816-7.150569 87.305179-31.391293 87.30518-59.785875 0-53.406737-40.885824-138.382789-91.310685-138.382789s-84.738689 43.8677-91.295849 96.725535z" fill="#5E9ACF" /><path d="M791.176298 490.570547m-26.703368 0a26.703368 26.703368 0 1 0 53.406737 0 26.703368 26.703368 0 1 0-53.406737 0Z" fill="#FFFFFF" /><path d="M279.895806 230.331387S40.485273 293.321666 10.043434 720.798088s127.300891 0 127.300891 0l100.656863-375.938921" fill="#F6EDDB" /><path d="M29.744585 916.889823a17.802246 17.802246 0 0 1-3.768142-0.415386c-16.526418-3.560449-33.957783-29.077001-22.045114-196.180746 6.987381-98.134879 25.635234-185.232365 55.43916-258.829816 23.91435-59.08862 55.038609-109.706338 92.512336-150.414139 64.13259-69.725462 123.948135-86.044187 126.455284-86.696936l3.130229 11.868163c-0.593408 0.148352-59.4595 16.407736-121.203622 83.848577-57.115538 62.396871-128.547048 182.651039-144.109178 401.099428-4.554408 64.043578-5.10331 112.36184-1.602202 143.619616 3.901659 34.877566 11.704976 39.209446 14.004433 39.699007 3.070887 0.667584 20.531923-0.474727 62.115002-88.491995 21.659399-45.855618 39.357798-93.194756 40.811648-97.126085l100.597522-375.597711 11.868164 3.174734-100.745875 376.146613-0.103846 0.267034c-0.178022 0.489562-18.603347 50.246838-41.33088 98.372242-38.675378 81.92-59.444665 95.657399-72.024919 95.6574z" fill="#DDC69E" /><path d="M817.894502 230.331387s239.410532 62.990279 269.852372 490.466701-127.286056 0-127.286055 0l-100.716205-375.938921" fill="#F6EDDB" /><path d="M1068.045723 916.889823c-12.506078 0-33.305034-13.737399-72.010084-95.6574-22.727534-48.125404-41.152858-97.912351-41.33088-98.372242l-0.178022-0.534067-100.716205-375.87958 11.868164-3.174734 100.597523 375.597711c1.48352 3.931329 19.18192 51.329808 40.841318 97.185426 41.538573 87.957928 59.014444 89.100239 62.085332 88.432654 2.299457-0.489562 10.102774-4.821442 14.004433-39.699007 3.501108-31.257776 2.967041-79.576038-1.602202-143.619616-15.576965-219.056632-87.290344-339.414647-144.717422-401.826353-61.729286-67.084795-119.9723-83.00297-120.550872-83.151322l3.115392-11.868164c2.50715 0.652749 62.307859 17.001145 126.455285 86.696936 37.473727 40.707802 68.597986 91.32552 92.512336 150.41414 29.803926 73.59745 48.451778 160.694937 55.43916 258.829815 11.868164 167.103745-5.518696 192.620297-22.045114 196.180746a17.653894 17.653894 0 0 1-3.768142 0.445057zM518.149192 621.476393c37.607244 0 23.736327 0.593408 54.445201 0.593408 12.535748 0-9.746729 46.641883-27.014907 46.641883-19.270931 0-36.450098-47.235292-27.430294-47.235291zM551.276204 747.367939c-45.410561 0-92.957392-28.335241-95.063991-29.596233a6.132874 6.132874 0 0 1 6.334632-10.503325c0.504397 0.311539 51.285302 30.530851 94.737617 27.637986s70.941949-26.703368 71.208982-26.955567a6.12694 6.12694 0 0 1 8.100022 9.197827c-1.246157 1.097805-31.005578 26.85172-78.507903 29.996784q-3.382427 0.222528-6.809359 0.222528z" fill="#DDC69E" /><path d="M271.736443 624.57695a75.79306 75.79306 0 0 0-78.626584 47.769359c27.949526 35.426469 65.927649 66.254024 111.427222 91.384861a75.76339 75.76339 0 0 0-32.741297-139.15422zM818.695603 626.935748a75.79306 75.79306 0 0 1 78.626585 47.769359c-27.964361 35.426469-65.942485 66.254024-111.427222 91.38486a75.76339 75.76339 0 0 1 32.741296-139.154219z" fill="#DD97B1" /></svg>