<?xml version="1.0" standalone="no"?><!DOCTYPE svg PUBLIC "-//W3C//DTD SVG 1.1//EN" "http://www.w3.org/Graphics/SVG/1.1/DTD/svg11.dtd"><svg class="icon" width="48px" height="46.99px" viewBox="0 0 1046 1024" version="1.1" xmlns="http://www.w3.org/2000/svg"><path d="M1037.269372 139.13419l-1023.835726 0 0-63.330045 457.703506 0 0-75.804145 107.469167 0 0 75.804145 458.663052 0 0 63.330045zM588.201781 812.735576l0 80.601875q4.797731 135.296005-139.13419 130.498274l-125.700544 0 0-58.532314 85.399606 0q84.44006 4.797731 80.601875-71.96596l0-80.601875-489.368529 0 0-63.330045 489.368529 0 0-45.098668q78.682783-20.150469 144.411693-43.179576t120.42304-50.855945l-655.37001 0 0-62.370499 807.937845 0 0 62.370499q-68.127776 40.300938-146.810559 71.96596t-171.758758 53.734584l0 13.433646 457.703506 0 0 63.330045-457.703506 0zM897.175636 224.533796l0 102.671436q10.555007 143.93192-139.13419 135.296005l-605.473611 0 0-237.967441 744.607801 0zM740.769616 403.968923q71.006414 3.838185 67.168229-76.763691l0-44.139122-566.132219 0 0 120.902813 498.96399 0z" fill="#ef5464" /></svg>