<?xml version="1.0" standalone="no"?><!DOCTYPE svg PUBLIC "-//W3C//DTD SVG 1.1//EN" "http://www.w3.org/Graphics/SVG/1.1/DTD/svg11.dtd"><svg class="icon" width="48px" height="48.00px" viewBox="0 0 1024 1024" version="1.1" xmlns="http://www.w3.org/2000/svg"><path d="M512 1024C229.232 1024 0 794.768 0 512 0 229.232 229.232 0 512 0c282.768 0 512 229.232 512 512 0 282.768-229.232 512-512 512z m0-40c260.68 0 472-211.32 472-472S772.68 40 512 40 40 251.32 40 512s211.32 472 472 472z" fill="#2c2c2c" /><path d="M223.048 746.308C171.12 682.348 140 600.808 140 512c0-50.592 10.1-98.824 28.392-142.792l30.924 30.928C186.812 435.088 180 472.748 180 512c0 183.36 148.64 332 332 332 39.252 0 76.912-6.812 111.864-19.32l30.928 30.928C610.824 873.9 562.592 884 512 884c-90.02 0-172.572-31.976-236.92-85.188l46.908 98.148L124 698.968l99.048 47.34z m517.096-528.16L698.968 132l197.992 197.988-87.98-42.044C856.072 350.264 884 427.868 884 512c0 50.592-10.1 98.824-28.392 142.792l-30.924-30.928C837.188 588.912 844 551.252 844 512c0-183.36-148.64-332-332-332-39.252 0-76.912 6.812-111.864 19.32l-30.928-30.928C413.176 150.1 461.408 140 512 140c85.98 0 165.144 29.168 228.144 78.152z" fill="#2c2c2c" /><path d="M512 764c-139.176 0-252-112.824-252-252s112.824-252 252-252 252 112.824 252 252-112.824 252-252 252z m-69-381.04L344 640h41.76l24.12-66.24h110.52l24.12 66.24h42.12l-99-257.04h-44.64z m169.56 0V640h38.88V382.96h-38.88z m-190.8 158.4l42.84-116.28h1.44l42.48 116.28h-86.76z" fill="#4169E1" /></svg>