<?xml version="1.0" standalone="no"?><!DOCTYPE svg PUBLIC "-//W3C//DTD SVG 1.1//EN" "http://www.w3.org/Graphics/SVG/1.1/DTD/svg11.dtd"><svg class="icon" width="48px" height="48.00px" viewBox="0 0 1024 1024" version="1.1" xmlns="http://www.w3.org/2000/svg"><path d="M512 1024C229.232 1024 0 794.768 0 512 0 229.232 229.232 0 512 0c282.768 0 512 229.232 512 512 0 282.768-229.232 512-512 512z m2-40c259.572 0 470-210.428 470-470S773.572 44 514 44 44 254.428 44 514 254.428 984 514 984z" fill="#2c2c2c" /><path d="M512 240c-72.9 0-132 59.1-132 132v280c0 72.9 59.1 132 132 132s132-59.1 132-132V372c0-72.9-59.1-132-132-132z m0-40c94.992 0 172 77.008 172 172v280c0 94.992-77.008 172-172 172s-172-77.008-172-172V372c0-94.992 77.008-172 172-172z" fill="#2c2c2c" /><path d="M644 493.744V652c0 72.9-59.1 132-132 132s-132-59.1-132-132v-158.256c35.22-30.964 81.416-49.744 132-49.744s96.78 18.78 132 49.744z" fill="#4169E1" /><path d="M484 304m28 0l0 0q28 0 28 28l0 24q0 28-28 28l0 0q-28 0-28-28l0-24q0-28 28-28Z" fill="#2c2c2c" /></svg>