<?xml version="1.0" standalone="no"?><!DOCTYPE svg PUBLIC "-//W3C//DTD SVG 1.1//EN" "http://www.w3.org/Graphics/SVG/1.1/DTD/svg11.dtd"><svg class="icon" width="48px" height="46.99px" viewBox="0 0 1046 1024" version="1.1" xmlns="http://www.w3.org/2000/svg"><path d="M316.859395 616.014238h416.577676v407.725401h-416.577676z" fill="#4169E1" /><path d="M525.148233 0c-115.079583 0-208.288838 95.812865-208.288838 210.892449H0l42.699212 666.784642c5.207221 82.274091 73.421815 146.322909 155.956267 146.322909h649.340453c82.534452 0 150.749047-64.048818 155.956267-146.322909L1046.651411 210.892449H733.437071c0-115.079583-93.209255-210.892449-208.288838-210.892449z m-104.144419 210.892449c0-57.27943 46.604628-106.748029 104.144419-106.74803s104.144419 49.468599 104.144419 106.74803h-208.288838z m260.361047 196.312229c28.639715 0 52.07221-23.432494 52.07221-52.072209V315.036868h202.040173l-35.669464 555.870836c-1.822527 27.33791-24.473938 48.947877-52.072209 48.687516H198.655479c-27.598271 0-50.249682-21.349606-52.072209-48.687516L111.174167 315.036868h205.945589v40.095601c0 28.639715 23.432494 52.07221 52.072209 52.072209s52.07221-23.432494 52.07221-52.072209V315.036868h208.288838v40.095601c0 28.639715 23.172133 52.07221 51.811848 52.072209z" fill="#0D0A16" /></svg>