<?xml version="1.0" standalone="no"?><!DOCTYPE svg PUBLIC "-//W3C//DTD SVG 1.1//EN" "http://www.w3.org/Graphics/SVG/1.1/DTD/svg11.dtd"><svg class="icon" width="48px" height="48.00px" viewBox="0 0 1024 1024" version="1.1" xmlns="http://www.w3.org/2000/svg"><path d="M513.305019 823.141377m-200.858623 0a200.858623 200.858623 0 1 0 401.717246 0 200.858623 200.858623 0 1 0-401.717246 0Z" fill="#4169E1" /><path d="M513.305019 101.060943c55.836171 0 101.060943 45.224772 101.060942 101.060942s-45.224772 101.060943-101.060942 101.060943-101.060943-45.224772-101.060943-101.060943 45.224772-101.060943 101.060943-101.060942m0-101.060943c-111.672341 0-202.121885 90.449544-202.121885 202.121885s90.449544 202.121885 202.121885 202.121885 202.121885-90.449544 202.121885-202.121885-90.449544-202.121885-202.121885-202.121885z" fill="#0D0A16" /><path d="M196.731616 873.671848C168.939857 873.671848 146.453797 851.438441 146.201145 823.646681c-0.757957-97.776462 36.381939-189.74192 104.850728-259.473969s159.928942-108.387861 257.705403-109.398471h3.284481c200.100666 0 363.819393 161.95016 365.58796 362.303479v6.063657c0 27.791759-22.738712 50.530471-50.530472 50.530471s-50.530471-22.738712-50.530471-50.530471v-5.3057C775.05286 672.813225 656.558905 555.835184 511.789105 555.835184h-2.273872c-70.74266 0.505305-136.937577 28.802369-186.457438 79.080187s-76.301012 116.978041-75.795707 187.720701c0.252652 27.791759-22.233407 50.783124-50.025167 51.035776H196.731616z" fill="#0D0A16" /></svg>