<?xml version="1.0" standalone="no"?><!DOCTYPE svg PUBLIC "-//W3C//DTD SVG 1.1//EN" "http://www.w3.org/Graphics/SVG/1.1/DTD/svg11.dtd"><svg class="icon" width="48px" height="48.00px" viewBox="0 0 1024 1024" version="1.1" xmlns="http://www.w3.org/2000/svg"><path d="M512 1024c-69.1 0-136.2-13.5-199.3-40.2C251.7 958 197 921 150 874c-47-47-84-101.7-109.8-162.7C13.5 648.2 0 581.1 0 512s13.5-136.2 40.2-199.3C66 251.7 103 197 150 150c47-47 101.7-84 162.7-109.8C375.8 13.5 442.9 0 512 0c57.8 0 114.5 9.6 168.5 28.4 52.3 18.2 101 44.7 144.9 78.8 14.3 11.1 16.9 31.7 5.8 46-11.1 14.3-31.7 16.9-46 5.8C706.5 97.8 612 65.5 512 65.5 265.8 65.5 65.5 265.8 65.5 512S265.8 958.5 512 958.5 958.5 758.2 958.5 512c0-18.1 14.7-32.8 32.8-32.8 18.1 0 32.8 14.7 32.8 32.8 0 69.1-13.5 136.2-40.2 199.3C958 772.3 921 827 874 874c-47 47-101.8 83.9-162.7 109.7-63.1 26.8-130.2 40.3-199.3 40.3z" fill="#d81e06" /><path d="M670.5 716.5l-32.2-109.2c-17.1-56.9-43.5-82.5-84.5-91.6 81-14.1 122.3-66.1 122.3-123.1 0-80.8-65.5-128.1-176.8-128.1H297.8v29.1l67.8 7.8c1.3 62.8 1.3 126 1.3 188.6v36.4c0 63.7 0 126.8-1.3 188.6l-67.8 7.8v29.1H501.5V723l-67.8-7.8c-1.2-60.8-1.3-122.6-1.3-188.6h36.4c60.4 0 87.3 10.2 101.9 69.1l29.8 118.6c8.7 33.5 28.4 45.1 73.5 45.1 21.8 0 39.3-2.9 52.4-7.3V723l-55.9-6.5zM432.3 493.8c0-71.6 0-133.1 1.3-195.8h64.9c75.7 0 108.4 33.5 108.4 94.6 0 58.9-37.8 101.1-116.4 101.1h-58.2z" fill="#d81e06" /></svg>