<?xml version="1.0" standalone="no"?><!DOCTYPE svg PUBLIC "-//W3C//DTD SVG 1.1//EN" "http://www.w3.org/Graphics/SVG/1.1/DTD/svg11.dtd"><svg class="icon" width="48px" height="48.00px" viewBox="0 0 1024 1024" version="1.1" xmlns="http://www.w3.org/2000/svg"><path d="M268.72 640.49a317.46 310.77 0 1 0 634.92 0 317.46 310.77 0 1 0-634.92 0Z" fill="#4F8DFC" /><path d="M372.84 255.21h320.57a32 32 0 0 0 32-32.05 32 32 0 0 0-32-32H372.84a32 32 0 0 0-32 32 32 32 0 0 0 32 32.05zM372.84 415.68h320.57a32 32 0 0 0 32-32 32 32 0 0 0-32-32.05H372.84a32 32 0 0 0-32 32 32 32 0 0 0 32 32.05z" fill="#181818" /><path d="M262.49 959.56h270.45a30.08 30.08 0 0 0 0-60.16H262.49c-11 0-20-10-20-22.39V145.06c0-12.35 9-22.4 20-22.4H802c11 0 20 10.05 20 22.4l1.59 273.08a30 30 0 1 0 60.08 0l-1.59-273.08c0-45.52-35.93-82.55-80.1-82.55H262.49c-44.17 0-80.1 37-80.1 82.55V877c0 45.53 35.93 82.56 80.1 82.56z" fill="#181818" /><path d="M461.7 709.58l0.24 0.24 146.52 145.44a30.06 30.06 0 0 0 42.29-42.72L550.48 713a5.19 5.19 0 0 1 3.65-8.87h299c16.4 0 30.29-12.88 30.71-29.29a30.06 30.06 0 0 0-30-30.87H554.31a5.19 5.19 0 0 1-3.66-8.86L650.82 535a30.06 30.06 0 0 0-42.43-42.58L462.12 638.59a50.35 50.35 0 0 0-0.42 70.99z" fill="#181818" /></svg>