<?xml version="1.0" standalone="no"?><!DOCTYPE svg PUBLIC "-//W3C//DTD SVG 1.1//EN" "http://www.w3.org/Graphics/SVG/1.1/DTD/svg11.dtd"><svg class="icon" width="48px" height="48.00px" viewBox="0 0 1024 1024" version="1.1" xmlns="http://www.w3.org/2000/svg"><path d="M619.07 538.56m-310.22 0a310.22 310.22 0 1 0 620.44 0 310.22 310.22 0 1 0-620.44 0Z" fill="#4F8DFC" /><path d="M319.65 645.16h-0.88a32.39 32.39 0 0 1-31.51-33.24A247.89 247.89 0 0 1 307 521.3c12.49-29 30.73-54.54 52.75-74a32.38 32.38 0 1 1 42.84 48.57c-30.39 26.81-49.29 70.82-50.55 117.74a32.39 32.39 0 0 1-32.39 31.55z" fill="#181818" /><path d="M930.93 582.31a94.27 94.27 0 0 0-63.84-24.82h-0.43a9 9 0 0 1-8.9-7.8 343.75 343.75 0 0 0-31.1-103.88 347.34 347.34 0 0 0-67.44-94.73c-42.77-42.77-89.74-73-146.45-88.86-0.63-52.34-48.41-94.72-100.91-94.72-52.89 0-100.92 43-100.92 95.92v0.08c-55.5 16.33-101.61 46.42-143.14 88.14a344.42 344.42 0 0 0-98 198.07 9 9 0 0 1-8.88 7.79h-2c-51.13 0-93.51 40.89-93.89 92a92.73 92.73 0 0 0 92.71 93.5h710.51A92.65 92.65 0 0 0 961 649.52a91.81 91.81 0 0 0-30.07-67.21z m-62.68 95.87H158.32c-15.21 0-28.09-11.91-28.54-27.11a28 28 0 0 1 28-28.81h52.12a21.55 21.55 0 0 0 21.59-21.75v-4a283.81 283.81 0 0 1 2.68-39c15.55-112 92-203.16 198.82-233q6.38-1.78 12.87-3.26a27.37 27.37 0 0 0 21.32-27v-0.95c0-22.14 11.48-41.52 23-52.23l0.08-0.07a31 31 0 0 1 21.63-8.77h0.34c24.54 0 45 27.34 45 61.07v0.24a27.49 27.49 0 0 0 21.63 27q6.35 1.38 12.57 3C637.68 336 674.3 359.78 708 391.81a281.44 281.44 0 0 1 88.08 204.7v4a21.55 21.55 0 0 0 21.59 21.75h50c15.21 0 28.09 11.91 28.54 27.11a28 28 0 0 1-27.96 28.81z" fill="#182038" /><path d="M926.64 861.65H97.41a32.39 32.39 0 0 1 0-64.77h829.23a32.39 32.39 0 0 1 0 64.77z" fill="#181818" /></svg>