<?xml version="1.0" standalone="no"?><!DOCTYPE svg PUBLIC "-//W3C//DTD SVG 1.1//EN" "http://www.w3.org/Graphics/SVG/1.1/DTD/svg11.dtd"><svg class="icon" width="48px" height="42.56px" viewBox="0 0 1155 1024" version="1.1" xmlns="http://www.w3.org/2000/svg"><path d="M453.772549 459.126797v-108.423529c0-92.360784 74.959477-168.658824 168.658824-168.658824h338.656209c92.360784 0 168.658824 74.959477 168.658823 168.658824v108.423529c0 92.360784-74.959477 168.658824-168.658823 168.658824H622.431373c-93.699346 0-168.658824-76.298039-168.658824-168.658824z" fill="#4F8DFC" /><path d="M1096.282353 689.359477H58.896732c-32.12549 0-58.896732-26.771242-58.896732-58.896732V396.214379C0 250.311111 117.793464 132.517647 263.696732 132.517647h642.509804c137.871895 0 248.972549 112.439216 248.972549 248.972549v248.972549c0 32.12549-26.771242 58.896732-58.896732 58.896732zM53.542484 631.801307c0 2.677124 2.677124 4.015686 5.354248 4.015686H1097.620915c2.677124 0 5.354248-2.677124 5.354248-5.354248V381.490196c0-108.423529-88.345098-195.430065-195.430065-195.430065h-642.509804C147.24183 186.060131 53.542484 279.759477 53.542484 396.214379v235.586928zM706.760784 53.542484H453.772549c-14.724183 0-26.771242-12.047059-26.771242-26.771242s12.047059-26.771242 26.771242-26.771242h252.988235c14.724183 0 26.771242 12.047059 26.771242 26.771242s-12.047059 26.771242-26.771242 26.771242z" fill="#181818" /><path d="M389.521569 433.694118c-2.677124 0-5.354248 0-6.692811-1.338562-6.69281-1.338562-13.385621-6.69281-16.062745-13.385621-6.69281-13.385621-2.677124-29.448366 9.369935-36.141177l218.185621-125.824836c13.385621-6.69281 29.448366-2.677124 36.141176 9.369934 4.015686 6.69281 4.015686 13.385621 2.677124 20.078432s-6.69281 13.385621-12.047059 16.062745L402.90719 428.339869c-4.015686 4.015686-9.369935 5.354248-13.385621 5.354249zM443.064052 556.84183c-9.369935 0-18.739869-5.354248-22.755555-13.385621-4.015686-6.69281-5.354248-13.385621-2.677124-21.416993 1.338562-6.69281 6.69281-13.385621 12.047058-16.062745l313.22353-180.705883c13.385621-8.031373 29.448366-2.677124 36.141176 9.369935 4.015686 6.69281 5.354248 13.385621 2.677124 21.416993-1.338562 6.69281-6.69281 13.385621-12.047058 16.062745L456.449673 552.826144c-4.015686 2.677124-9.369935 4.015686-13.385621 4.015686zM1124.392157 862.033987H36.141176c-14.724183 0-26.771242-12.047059-26.771241-26.771242V639.83268c0-14.724183 12.047059-26.771242 26.771241-26.771242H1124.392157c14.724183 0 26.771242 12.047059 26.771242 26.771242v195.430065c0 14.724183-12.047059 26.771242-26.771242 26.771242z m-1061.479739-53.542484H1097.620915V666.603922H62.912418v141.887581z" fill="#181818" /><path d="M307.869281 1022.661438H161.966013c-14.724183 0-26.771242-12.047059-26.771242-26.771242V849.986928c0-14.724183 12.047059-26.771242 26.771242-26.771242H307.869281c14.724183 0 26.771242 12.047059 26.771242 26.771242v145.903268c0 14.724183-12.047059 26.771242-26.771242 26.771242z m-119.132026-53.542484H281.098039v-92.360784h-92.360784v92.360784zM983.843137 1024H837.939869c-14.724183 0-26.771242-12.047059-26.771242-26.771242V851.32549c0-14.724183 12.047059-26.771242 26.771242-26.771242h145.903268c14.724183 0 26.771242 12.047059 26.771242 26.771242v145.903268c0 14.724183-12.047059 26.771242-26.771242 26.771242z m-119.132026-53.542484h92.360784v-92.360784h-92.360784v92.360784z" fill="#181818" /></svg>