<?xml version="1.0" standalone="no"?><!DOCTYPE svg PUBLIC "-//W3C//DTD SVG 1.1//EN" "http://www.w3.org/Graphics/SVG/1.1/DTD/svg11.dtd"><svg class="icon" width="48px" height="48.00px" viewBox="0 0 1024 1024" version="1.1" xmlns="http://www.w3.org/2000/svg"><path d="M629.26 585.42m-310.22 0a310.22 310.22 0 1 0 620.44 0 310.22 310.22 0 1 0-620.44 0Z" fill="#4F8DFC" /><path d="M695.12 257.52v-84.69a18.68 18.68 0 0 0-18.68-18.64h-503.7a18.67 18.67 0 0 0-18.68 18.64v680.85a18.68 18.68 0 0 0 18.68 18.65h503.7a18.68 18.68 0 0 0 18.68-18.65v-40.44L727.23 869l0.16 0.26a51.82 51.82 0 0 0 16.25 17.06 74.85 74.85 0 0 1-67.2 42h-503.7A74.76 74.76 0 0 1 98 853.68V172.83a74.75 74.75 0 0 1 74.74-74.6h503.7a74.75 74.75 0 0 1 74.73 74.6v115.32z" fill="#181818" /><path d="M640.93 720.26a32.3 32.3 0 0 1-5 6.56 31.88 31.88 0 0 1-22.6 9.36H253.07a32 32 0 0 1 0-63.92h354.81l7 2.75zM378.53 542.07H253.07a32 32 0 0 1 0-63.92h125.22zM645.24 510.11a32 32 0 0 1-32 32H440.33l-1.81-0.71-0.24-63.21h175a32 32 0 0 1 31.96 31.92zM555.78 288l24.14 64H479.36l-17.92-18.84-3.11-2a52.52 52.52 0 0 0-75 20.81H253.07a32 32 0 0 1 0-63.92zM645.24 320a31.8 31.8 0 0 1-6.14 18.83l-18.89-50A32 32 0 0 1 645.24 320z" fill="#181818" /><path d="M890 776.18L776.78 579.3l40-213.37 0.12-0.71a52.16 52.16 0 0 0-27.64-54.94l-38.05-20.82-56-30.63-67-36.64-0.94-0.49a52.39 52.39 0 0 0-75.46 53.59l0.45 3.46 3.51 9.29L579.92 352l1.09 2.89-63.93 36.78L479.36 352l-17.92-18.84-3.11-2a52.52 52.52 0 0 0-75 20.81 52.56 52.56 0 0 0-5.35 20.27l-0.05 0.95 0.4 105 0.24 63.92v2.63a52.58 52.58 0 0 0 36.86 52l192.48 75.52 7 2.75 26 45.25 54.25 94.29 32.08 55.75 0.16 0.26a51.76 51.76 0 0 0 16.23 17.06 53.06 53.06 0 0 0 29.05 8.68 51.94 51.94 0 0 0 26-6.94l72.16-41.51A52.4 52.4 0 0 0 890 776.18z m-114.65 57.38l-110-191.18-0.18-0.3a52.13 52.13 0 0 0-29.65-23.42l-195.19-76.59-1.81-0.71-0.24-63.21-0.28-82.64 45.91 48.28 3.1 2a52.16 52.16 0 0 0 54.47 1.08l75.75-43.59 0.16-0.09a52.28 52.28 0 0 0 25.54-52l-0.45-3.46-3.35-8.87-18.89-50-1.24-3.34 137.68 75.33-39.46 210.7-0.13 0.73a52.49 52.49 0 0 0 6.38 34.72l110.84 192.64z" fill="#181818" /></svg>