<?xml version="1.0" standalone="no"?><!DOCTYPE svg PUBLIC "-//W3C//DTD SVG 1.1//EN" "http://www.w3.org/Graphics/SVG/1.1/DTD/svg11.dtd"><svg class="icon" width="48px" height="48.00px" viewBox="0 0 1024 1024" version="1.1" xmlns="http://www.w3.org/2000/svg"><path d="M680.884472 404.400346m-240.409036 0a240.409037 240.409037 0 1 0 480.818073 0 240.409037 240.409037 0 1 0-480.818073 0Z" fill="#4F8DFC" /><path d="M509.319842 1022.907232l-14.205989-13.113221C478.722328 995.588023 91.882332 649.180456 91.882332 424.070176 89.696795 312.607805 131.221993 207.702043 208.808545 126.837185 286.395098 47.065096 391.30086 2.261593 502.763231 0.076057 732.244585-4.295017 922.386278 180.382834 926.757351 410.956956v14.205989C926.757351 651.365993 541.010124 996.680791 523.52583 1011.979548l-14.205988 10.927684z m0-979.120441h-6.556611c-99.44192 2.185537-193.419998 42.617966-262.264403 113.647908C171.654422 229.55741 133.407529 323.535488 135.593066 424.070176 135.593066 607.655259 438.289899 899.424408 509.319842 964.990509c71.029943-65.566101 373.726775-357.33525 373.726775-540.920333v-12.020452C879.768312 207.702043 712.574755 43.786791 509.319842 43.786791z" fill="#181818" /><path d="M520.247525 568.315598c-111.462372 0-202.162145-90.699773-202.162145-202.162144S408.785153 163.991309 520.247525 163.991309s202.162145 90.699773 202.162145 202.162145-90.699773 202.162145-202.162145 202.162144z m0-360.613555c-87.421468 0-158.451411 71.029943-158.451411 158.451411s71.029943 158.451411 158.451411 158.45141 158.451411-71.029943 158.451411-158.45141-71.029943-158.451411-158.451411-158.451411z" fill="#181818" /></svg>