<?xml version="1.0" standalone="no"?><!DOCTYPE svg PUBLIC "-//W3C//DTD SVG 1.1//EN" "http://www.w3.org/Graphics/SVG/1.1/DTD/svg11.dtd"><svg class="icon" width="48px" height="48.00px" viewBox="0 0 1024 1024" version="1.1" xmlns="http://www.w3.org/2000/svg"><path d="M617.46 598.26m-310.22 0a310.22 310.22 0 1 0 620.44 0 310.22 310.22 0 1 0-620.44 0Z" fill="#4F8DFC" /><path d="M609.43 480.17V663h60V480.17z m0 0V663h60V480.17zM844.22 194H669.43v-16a80.09 80.09 0 0 0-80-80H178a80.09 80.09 0 0 0-80 80v571.61a80.09 80.09 0 0 0 80 80h174.81v16a80.09 80.09 0 0 0 80 80h411.41a80.09 80.09 0 0 0 80-80V274a80.09 80.09 0 0 0-80-80zM178 769.61a20 20 0 0 1-20-20V178a20 20 0 0 1 20-20h411.43a20 20 0 0 1 20 20v571.61a20 20 0 0 1-20 20z m686.2 76a20 20 0 0 1-20 20H432.81a20 20 0 0 1-20-20v-16h176.62a80.09 80.09 0 0 0 80-80V254h174.79a20 20 0 0 1 20 20zM609.43 480.17V663h60V480.17z m0 0V663h60V480.17z" fill="#181818" /><path d="M209.89 288.04m31.96 0l290.23 0q31.96 0 31.96 31.96l0 0q0 31.96-31.96 31.96l-290.23 0q-31.96 0-31.96-31.96l0 0q0-31.96 31.96-31.96Z" fill="#181818" /><path d="M209.89 416.25m31.96 0l290.23 0q31.96 0 31.96 31.96l0 0q0 31.96-31.96 31.96l-290.23 0q-31.96 0-31.96-31.96l0 0q0-31.96 31.96-31.96Z" fill="#181818" /><path d="M207.04 559.83m31.96 0l290.23 0q31.96 0 31.96 31.96l0 0q0 31.96-31.96 31.96l-290.23 0q-31.96 0-31.96-31.96l0 0q0-31.96 31.96-31.96Z" fill="#181818" /><path d="M810.21 448.21a32 32 0 0 1-32 32H669.43v-63.96h108.83a32 32 0 0 1 31.95 31.96zM810.21 576.05a32 32 0 0 1-32 32H669.43v-63.96h108.83a32 32 0 0 1 31.95 31.96zM810.21 695a32 32 0 0 1-32 32H669.43v-64h108.83a32 32 0 0 1 31.95 32z" fill="#181818" /></svg>