<svg xml:space="preserve" style="enable-background:new 0 0 1024 1024;" viewBox="0 0 1024 1024" y="0px" x="0px" xmlns:xlink="http://www.w3.org/1999/xlink" xmlns="http://www.w3.org/2000/svg" id="图层_1" version="1.1">
<style type="text/css">
	.st0{fill:url(#椭圆形_1_);}
	.st1{opacity:0.9;}
	.st2{fill:url(#SVGID_1_);}
	.st3{fill:url(#SVGID_2_);}
	.st4{opacity:0.32;fill:url(#路径_1_);enable-background:new    ;}
	.st5{fill:url(#SVGID_3_);}
	.st6{fill:url(#SVGID_4_);}
	.st7{fill:url(#SVGID_5_);}
	.st8{fill:#CDE0FC;}
	.st9{fill:url(#SVGID_6_);}
	.st10{fill:#FFFFFF;}
	.st11{fill:#63A6F9;}
	.st12{fill:url(#SVGID_7_);}
	.st13{fill:url(#SVGID_8_);}
	.st14{fill:url(#SVGID_9_);}
	.st15{fill:url(#SVGID_10_);}
	.st16{display:none;}
	.st17{display:inline;fill:none;stroke:url(#SVGID_11_);stroke-miterlimit:10;}
	.st18{display:inline;fill:none;stroke:url(#SVGID_12_);stroke-miterlimit:10;}
	.st19{fill:url(#SVGID_13_);}
	.st20{fill:url(#SVGID_14_);}
	.st21{fill:url(#SVGID_15_);}
	.st22{fill:url(#SVGID_16_);}
	.st23{fill:url(#SVGID_17_);}
</style>
<linearGradient gradientTransform="matrix(480 0 0 250 -161842 -83255)" y2="336.7625" x2="338.2462" y1="335.2688" x1="338.2462" gradientUnits="userSpaceOnUse" id="椭圆形_1_">
	<stop style="stop-color:#CFDFFA" offset="6.050502e-08"></stop>
	<stop style="stop-color:#D3E2FA;stop-opacity:0.6178" offset="0.3822"></stop>
	<stop style="stop-color:#E0E9FB;stop-opacity:0.2214" offset="0.7786"></stop>
	<stop style="stop-color:#EAF0FC;stop-opacity:0" offset="1"></stop>
</linearGradient>
<ellipse ry="219.7" rx="421.9" cy="913.3" cx="516.2" class="st0" id="椭圆形"></ellipse>
<g class="st1">
	
		<linearGradient gradientTransform="matrix(-1 0 0 1 1016.5887 2)" y2="311" x2="330.739" y1="197.4" x1="330.739" gradientUnits="userSpaceOnUse" id="SVGID_1_">
		<stop style="stop-color:#CFDFFA" offset="0"></stop>
		<stop style="stop-color:#EAF0FC;stop-opacity:0" offset="1"></stop>
	</linearGradient>
	<path d="M625,305L625,305L625,305c1.1,0.1,2.3,0.2,3.5,0.2s2.3-0.1,3.5-0.2h79.1c6.7,5,15.1,8,24.2,8
		c22.3,0,40.4-18.1,40.4-40.4s-18.1-40.4-40.4-40.4c-2,0-3.9,0.1-5.8,0.4c-4.3-10.9-14.9-18.7-27.3-18.7c-4.2,0-8.1,0.9-11.7,2.5
		c-5.8-10.2-16.8-17-29.4-17c-18.7,0-33.9,15.2-33.9,33.9c0,2.4,0.2,4.6,0.7,6.9c-17.7,0.3-31.9,14.8-31.9,32.5
		C595.9,289.4,608.6,303.3,625,305z" class="st2"></path>
	
		<linearGradient gradientTransform="matrix(-1 0 0 1 1016.5887 2)" y2="447.1" x2="641.6887" y1="299" x1="641.6887" gradientUnits="userSpaceOnUse" id="SVGID_2_">
		<stop style="stop-color:#CFDFFA" offset="1.210100e-07"></stop>
		<stop style="stop-color:#EAF0FC;stop-opacity:0" offset="1"></stop>
	</linearGradient>
	<path d="M279.6,440L279.6,440h0.2c1.8,0.2,3.6,0.3,5.4,0.3s3.7-0.1,5.5-0.3h143.9c7.7,5.7,17.3,9.1,27.6,9.1
		c25.7,0,46.6-20.9,46.6-46.6s-20.9-46.6-46.6-46.6c-1.5,0-3.1,0.1-4.6,0.2c-7.5-15.5-23.3-26.1-41.6-26.1c-2.2,0-4.4,0.2-6.5,0.5
		c-11.1-17.7-30.8-29.5-53.2-29.5c-31,0-56.7,22.4-61.8,51.9c-3-0.6-6-1-9.2-1c-24.4,0-44.3,19.8-44.3,44.3
		C241,418.6,257.8,437.2,279.6,440z" class="st3"></path>
</g>
<linearGradient gradientTransform="matrix(78.2896 93.302 155.5811 -130.548 -78214.0469 13250.7969)" y2="336.9407" x2="336.7924" y1="335.7394" x1="337.1456" gradientUnits="userSpaceOnUse" id="路径_1_">
	<stop style="stop-color:#BFD4FA;stop-opacity:0" offset="0"></stop>
	<stop style="stop-color:#5792F0" offset="0.6012"></stop>
	<stop style="stop-color:#5792F0;stop-opacity:0" offset="1"></stop>
</linearGradient>
<polygon points="502.1,694.1 628.5,703.3 512.5,776.1 469.5,771.5" class="st4" id="路径"></polygon>
<g>
	<linearGradient y2="841.1508" x2="780.4056" y1="841.1508" x1="701.1956" gradientUnits="userSpaceOnUse" id="SVGID_3_">
		<stop style="stop-color:#B5D1FC" offset="0"></stop>
		<stop style="stop-color:#CDE0FC" offset="1"></stop>
	</linearGradient>
	<path d="M704.8,844.1c6-11,18.7-21.9,35.2-23.2c2.5-0.2,12-0.7,22.3,4.3c1.1,0.5,18.8,9.3,18,17.6
		c-1,10.9-31.3,15.1-43.4,16.8c-11.1,1.6-31.5,4.4-35.2-3.4C700.2,852.7,702.4,848.6,704.8,844.1z" class="st5"></path>
	<linearGradient y2="863.4812" x2="808.8779" y1="847.0473" x1="751.0437" gradientUnits="userSpaceOnUse" id="SVGID_4_">
		<stop style="stop-color:#B5D1FC" offset="0"></stop>
		<stop style="stop-color:#B9D4FC" offset="0.1129"></stop>
		<stop style="stop-color:#C8DDFC" offset="0.5951"></stop>
		<stop style="stop-color:#CDE0FC" offset="1"></stop>
	</linearGradient>
	<path d="M743.6,853c4.6-8.4,14.2-16.7,26.8-17.7c3-0.2,9.9-0.7,17,3.3c7.8,4.4,15.5,14.1,13.1,20
		c-0.6,1.4-2.3,4.1-32.4,6.2c-20,1.4-25.3,0.6-26.8-2.6C740.1,859.5,741.8,856.4,743.6,853z" class="st6"></path>
</g>
<g>
	
		<linearGradient gradientTransform="matrix(1 0 0 -1 0 1024)" y2="274.9435" x2="361.1394" y1="274.9435" x1="291.3444" gradientUnits="userSpaceOnUse" id="SVGID_5_">
		<stop style="stop-color:#CFDFFA" offset="6.050502e-08"></stop>
		<stop style="stop-color:#D3E2FA;stop-opacity:0.6178" offset="0.3822"></stop>
		<stop style="stop-color:#E0E9FB;stop-opacity:0.2214" offset="0.7786"></stop>
		<stop style="stop-color:#EAF0FC;stop-opacity:0" offset="1"></stop>
	</linearGradient>
	<ellipse ry="12.3" rx="34.9" cy="749.1" cx="326.2" class="st7"></ellipse>
	<path d="M329,749.4c-27.5,4.6-95.4-183.5-67.1-201.3c12.2-7.7,40.9,17.8,51.8,29.3C370.8,638.2,348.7,746,329,749.4z" class="st8"></path>
	
		<linearGradient gradientTransform="matrix(1 0 0 -1 0 1024)" y2="321.0821" x2="332.6553" y1="321.0821" x1="237.3133" gradientUnits="userSpaceOnUse" id="SVGID_6_">
		<stop style="stop-color:#B5D1FC" offset="0"></stop>
		<stop style="stop-color:#94BAF6" offset="1"></stop>
	</linearGradient>
	<path d="M331.7,749.4c10.8-15-73.9-105.2-90.8-95.1c-8.4,5.1-0.8,35.1,11.1,54.5C275.5,746.5,325,758.7,331.7,749.4z" class="st9"></path>
	<path d="M272.3,567.5c9,13.5,17.2,27.5,24.7,42c7.4,14.5,14.2,29.2,19.8,44.5c2.8,7.6,5.4,15.4,7.7,23.2
		c2.2,7.8,4,15.8,5.6,23.8c1.3,8.1,2.3,16.1,2.6,24.3c0.3,8.2,0,16.2-1,24.3h-0.1c0.7-8.1,0.7-16.2,0.1-24.3
		c-0.6-8.1-1.6-16.1-3.1-24.1c-2.8-15.9-7.4-31.5-12.9-46.7c-5.6-15.3-12-30-19.4-44.5c-7.3-14.5-15.3-28.6-24.2-42.2L272.3,567.5z" class="st10"></path>
	<path d="M255.1,678.7c2.4,3.5,5,7.1,7.5,10.6s5.2,7,7.8,10.4c5.4,6.9,10.9,13.5,16.9,19.7c2.9,3.2,6,6.3,9.2,9.2
		s6.4,5.8,9.8,8.4c3.4,2.6,7,5.1,10.7,7.2c3.7,2.2,7.7,3.9,11.9,5.1c-8.5-1.9-16.2-6.4-23.3-11.4c-7-5.2-13.4-11.2-19.3-17.6
		c-5.9-6.4-11.4-13-16.7-20C264.5,693.3,259.6,686.1,255.1,678.7z" class="st10"></path>
</g>
<g>
	<g>
		<ellipse ry="47.2" rx="47.2" cy="728.9" cx="487.9" class="st11"></ellipse>
		<g>
			<path d="M574.8,674.1c-22.8-24.4-53.7-37.8-87-37.8c-33.3,0-64.2,13.4-86.9,37.7l-28.7-26.8
				c29.8-31.9,72-50.2,115.6-50.2c43.7,0,85.8,18.3,115.7,50.2L574.8,674.1z" class="st11"></path>
		</g>
		<g>
			<path d="M639.8,609c-39.8-42.5-93.7-66-151.9-66c-58.2,0-112.1,23.4-151.9,65.9l-28.7-26.8
				c22.9-24.5,50-43.7,80.5-57.2c31.6-14,65.3-21.1,100.1-21.1c34.8,0,68.5,7.1,100.1,21.1c30.5,13.5,57.6,32.8,80.5,57.3L639.8,609
				z" class="st11"></path>
		</g>
		<g>
			<path d="M704.3,547.7c-55.8-59.7-134.7-94-216.4-94c-82.9,0-159.7,33.3-216.3,93.9l-28.7-26.8
				c31.1-33.2,67.8-59.3,109.2-77.7c42.9-19,88.6-28.6,135.8-28.6c47.3,0,93,9.6,135.9,28.7c41.4,18.4,78.2,44.5,109.2,77.8
				L704.3,547.7z" class="st11"></path>
		</g>
	</g>
	<g>
		<linearGradient y2="733.4032" x2="539.575" y1="733.4032" x1="445.2386" gradientUnits="userSpaceOnUse" id="SVGID_7_">
			<stop style="stop-color:#BFD4FA" offset="0"></stop>
			<stop style="stop-color:#87B6FA" offset="1"></stop>
		</linearGradient>
		<circle r="47.2" cy="733.4" cx="492.4" class="st12"></circle>
		<g>
			<linearGradient y2="640.0095" x2="608.3269" y1="640.0095" x1="376.4918" gradientUnits="userSpaceOnUse" id="SVGID_8_">
				<stop style="stop-color:#BFD4FA" offset="0"></stop>
				<stop style="stop-color:#87B6FA" offset="1"></stop>
			</linearGradient>
			<path d="M579.1,678.8c-22.7-24.3-53.5-37.7-86.7-37.7c-33.2,0-64,13.4-86.7,37.6l-29.2-27.3
				c29.9-32,72.1-50.3,115.9-50.3c43.8,0,86,18.3,115.9,50.3L579.1,678.8z" class="st13"></path>
		</g>
		<g>
			<linearGradient y2="560.8047" x2="673.2984" y1="560.8047" x1="311.5212" gradientUnits="userSpaceOnUse" id="SVGID_9_">
				<stop style="stop-color:#BFD4FA" offset="0"></stop>
				<stop style="stop-color:#87B6FA" offset="1"></stop>
			</linearGradient>
			<path d="M644.1,613.7c-39.7-42.5-93.6-65.9-151.7-65.9c-58.1,0-111.9,23.4-151.7,65.8l-29.2-27.3
				c22.9-24.5,50-43.8,80.6-57.3c31.6-14,65.4-21.1,100.2-21.1c34.9,0,68.6,7.1,100.3,21.2c30.6,13.6,57.7,32.9,80.6,57.4
				L644.1,613.7z" class="st14"></path>
		</g>
		<g>
			<linearGradient y2="485.4907" x2="737.7731" y1="485.4907" x1="247.0465" gradientUnits="userSpaceOnUse" id="SVGID_10_">
				<stop style="stop-color:#BFD4FA" offset="0"></stop>
				<stop style="stop-color:#87B6FA" offset="1"></stop>
			</linearGradient>
			<path d="M708.6,552.4c-55.8-59.6-134.6-93.9-216.2-93.9c-82.8,0-159.5,33.3-216.1,93.8L247,525
				c31.1-33.2,67.9-59.4,109.3-77.8c42.9-19,88.7-28.7,136-28.7c47.3,0,93.1,9.7,136,28.7c41.5,18.4,78.3,44.6,109.4,77.8
				L708.6,552.4z" class="st15"></path>
		</g>
	</g>
</g>
<g class="st16">
	<linearGradient y2="723.8407" x2="668.2817" y1="723.8407" x1="287.8932" gradientUnits="userSpaceOnUse" id="SVGID_11_">
		<stop style="stop-color:#BFD4FA" offset="0"></stop>
		<stop style="stop-color:#87B6FA" offset="1"></stop>
	</linearGradient>
	<line y2="913.7" x2="667.9" y1="534" x1="288.2" class="st17"></line>
	
		<linearGradient gradientTransform="matrix(-1 0 0 1 956.1749 0)" y2="718.8407" x2="638.2817" y1="718.8407" x1="257.8932" gradientUnits="userSpaceOnUse" id="SVGID_12_">
		<stop style="stop-color:#BFD4FA" offset="0"></stop>
		<stop style="stop-color:#87B6FA" offset="1"></stop>
	</linearGradient>
	<line y2="908.7" x2="318.2" y1="529" x1="697.9" class="st18"></line>
</g>
<linearGradient gradientTransform="matrix(0.9054 0.4246 0.4246 -0.9054 -176.6555 544.9861)" y2="477.6833" x2="784.2259" y1="477.6833" x1="752.8904" gradientUnits="userSpaceOnUse" id="SVGID_13_">
	<stop style="stop-color:#B5D1FC" offset="0"></stop>
	<stop style="stop-color:#CDE0FC" offset="1"></stop>
</linearGradient>
<path d="M735.3,410.4c4.3,2,7.2,4.9,8.6,8.6c1.4,3.7,1.2,7.5-0.6,11.3s-3.6,6.5-5.5,7.9s-4.4,2.6-7.5,3.5
	s-5.1,1.7-6,2.5s-1.8,2.2-2.8,4.3c-1.6,3.5-4,4.5-7,3.1c-3.2-1.5-3.9-4.1-2.1-7.9c1.6-3.4,3-5.6,4.4-6.8c1.3-1.2,3.2-2,5.5-2.4
	c3.1-0.6,5.6-1.4,7.4-2.5c1.8-1.1,3.4-3.1,4.8-6.1c0.7-1.4,0.8-2.8,0.3-4.3c-0.4-1.4-1.3-2.5-2.5-3.1c-1.3-0.6-2.7-0.6-4.3,0.1
	c-1.6,0.6-3.1,1.8-4.5,3.6c-1.7,2.2-3.7,2.7-6,1.6c-1.6-0.8-2.6-1.8-2.8-3.1c-0.3-1.3,0-2.7,0.7-4.2s2.1-3.1,4.1-4.9
	c2-1.7,4.4-2.8,7.2-3.1C729.2,408.4,732.2,408.9,735.3,410.4z M712.8,455.8c1.5,0.7,2.5,1.8,3.1,3.4s0.5,3.1-0.2,4.6
	s-1.8,2.5-3.4,3.1c-1.6,0.6-3.1,0.5-4.6-0.2s-2.5-1.8-3-3.4c-0.6-1.6-0.5-3.1,0.2-4.6s1.8-2.5,3.4-3.1
	C709.8,455,711.3,455.1,712.8,455.8z" class="st19"></path>
<linearGradient gradientTransform="matrix(0.5182 0.8552 0.8552 -0.5182 -68.1052 32.6666)" y2="472.863" x2="810.2166" y1="472.863" x1="778.8811" gradientUnits="userSpaceOnUse" id="SVGID_14_">
	<stop style="stop-color:#B5D1FC" offset="0"></stop>
	<stop style="stop-color:#CDE0FC" offset="1"></stop>
</linearGradient>
<path d="M774.8,450.9c2.5,4.1,3.3,8.1,2.4,12c-0.9,3.9-3.2,6.9-6.8,9.1s-6.6,3.4-9,3.5c-2.4,0.2-5.1-0.3-8.2-1.2
	c-3.1-1-5.2-1.4-6.4-1.2c-1.2,0.2-2.8,0.8-4.7,2c-3.3,2-5.8,1.5-7.5-1.3c-1.8-3-1-5.6,2.6-7.7c3.2-1.9,5.6-3,7.4-3.3
	c1.8-0.3,3.8,0.1,5.9,1c2.9,1.3,5.4,1.9,7.5,2s4.5-0.7,7.3-2.4c1.3-0.8,2.2-1.9,2.6-3.4c0.4-1.4,0.3-2.8-0.4-4s-1.9-2-3.6-2.3
	c-1.7-0.4-3.6-0.2-5.7,0.5c-2.6,0.9-4.6,0.2-5.9-2c-0.9-1.5-1.1-2.9-0.6-4.2c0.5-1.2,1.5-2.3,2.9-3.2c1.4-0.9,3.5-1.5,6.1-1.8
	s5.2,0.1,7.7,1.4C770.9,445.8,773.1,447.9,774.8,450.9z M730.9,476.1c0.8,1.4,1.1,2.9,0.7,4.5c-0.4,1.6-1.3,2.9-2.7,3.7
	c-1.4,0.8-2.9,1.1-4.5,0.7s-2.9-1.3-3.7-2.7c-0.8-1.4-1.1-2.9-0.6-4.5c0.4-1.6,1.3-2.8,2.7-3.7c1.4-0.8,2.9-1.1,4.5-0.7
	C728.9,473.9,730.1,474.8,730.9,476.1z" class="st20"></path>
<g>
	<circle r="87" cy="700.5" cx="609.1" class="st11"></circle>
	<linearGradient y2="705.3033" x2="700.457" y1="705.3033" x1="527.0629" gradientUnits="userSpaceOnUse" id="SVGID_15_">
		<stop style="stop-color:#B5D1FC" offset="0"></stop>
		<stop style="stop-color:#CDE0FC" offset="1"></stop>
	</linearGradient>
	<circle r="87" cy="705.3" cx="613.9" class="st21"></circle>
</g>
<g>
	<g>
		<g>
			<path d="M642.1,743.5c-2,0-4.1-0.8-5.6-2.3l-62.9-62.9c-3.1-3.1-3.1-8.1,0-11.2c3.1-3.1,8.1-3.1,11.2,0l62.9,62.9
				c3.1,3.1,3.1,8.1,0,11.2C646.2,742.8,644.2,743.5,642.1,743.5z" class="st11"></path>
		</g>
		<g>
			<path d="M579.3,743.5c-2,0-4.1-0.8-5.6-2.3c-3.1-3.1-3.1-8.1,0-11.2l62.9-62.9c3.1-3.1,8.1-3.1,11.2,0
				c3.1,3.1,3.1,8.1,0,11.2l-62.9,62.9C583.3,742.8,581.3,743.5,579.3,743.5z" class="st11"></path>
		</g>
	</g>
	<g>
		<g>
			<linearGradient y2="698.0988" x2="620.1513" y1="710.2222" x1="607.5972" gradientUnits="userSpaceOnUse" id="SVGID_16_">
				<stop style="stop-color:#CFDFFA" offset="0"></stop>
				<stop style="stop-color:#EAF0FC;stop-opacity:0" offset="1"></stop>
			</linearGradient>
			<path d="M645.3,743.5c-2,0-4.1-0.8-5.6-2.3l-62.9-62.9c-3.1-3.1-3.1-8.1,0-11.2c3.1-3.1,8.1-3.1,11.2,0l62.9,62.9
				c3.1,3.1,3.1,8.1,0,11.2C649.4,742.8,647.3,743.5,645.3,743.5z" class="st22"></path>
		</g>
		<g>
			<linearGradient y2="711.1096" x2="620.3544" y1="697.2113" x1="607.3941" gradientUnits="userSpaceOnUse" id="SVGID_17_">
				<stop style="stop-color:#CFDFFA" offset="0"></stop>
				<stop style="stop-color:#EAF0FC;stop-opacity:0" offset="1"></stop>
			</linearGradient>
			<path d="M582.4,743.5c-2,0-4.1-0.8-5.6-2.3c-3.1-3.1-3.1-8.1,0-11.2l62.9-62.9c3.1-3.1,8.1-3.1,11.2,0
				c3.1,3.1,3.1,8.1,0,11.2l-62.9,62.9C586.5,742.8,584.5,743.5,582.4,743.5z" class="st23"></path>
		</g>
	</g>
</g>
</svg>
