<?xml version="1.0" standalone="no"?><!DOCTYPE svg PUBLIC "-//W3C//DTD SVG 1.1//EN" "http://www.w3.org/Graphics/SVG/1.1/DTD/svg11.dtd"><svg class="icon" width="32px" height="32.00px" viewBox="0 0 1024 1024" version="1.1" xmlns="http://www.w3.org/2000/svg"><path d="M937.6 303.8L823.7 182.2c-13.5-14.5-13.5-37.9 0-52.3l27.2-29.1c13.5-14.5 35.5-14.5 49 0l114 121.6c13.5 14.5 13.5 37.9 0 52.3l-27.2 29.1c-13.6 14.5-35.6 14.5-49.1 0zM865.6 428.9L799 500V289.5l17 18.1 51.3 55.1c16.6 17.8 15.9 47.3-1.7 66.2z" fill="#2C3167" /><path d="M702.4 242.1c17.6-19.3 45.6-20.4 61.9-1.9l34.6 38.2v-76.8c0-74.6-54.3-135.1-121.2-135.1H121.2C54.3 66.5 0 127 0 201.6v620.7c0 74.6 54.3 135.1 121.2 135.1h556.6c66.9 0 121.2-60.5 121.2-135.1v-324L572.6 750.7 409.5 568.8 548.3 414l154.1-171.9zM536.2 769.2c9 9.7 3.2 25.7-9.8 27.3l-128.9 15.7c-28.9 3.8-52-21.7-48.9-53.1L362.9 620.5c1.4-13.9 18.2-19.6 27.6-9.4l145.7 158.1z" fill="#222222" /></svg>