<?xml version="1.0" standalone="no"?><!DOCTYPE svg PUBLIC "-//W3C//DTD SVG 1.1//EN" "http://www.w3.org/Graphics/SVG/1.1/DTD/svg11.dtd"><svg class="icon" width="48px" height="41.76px" viewBox="0 0 1177 1024" version="1.1" xmlns="http://www.w3.org/2000/svg"><path d="M588.147309 564.418357m-232.067989 0a232.067989 232.067989 0 1 0 464.135977 0 232.067989 232.067989 0 1 0-464.135977 0Z" fill="#4169E1" /><path d="M816.009065 170.395921L824.943683 229.167139a46.906742 46.906742 0 0 0 46.413597 39.857677h143.534051A46.906742 46.906742 0 0 1 1061.711048 315.90255v545.185722A46.906742 46.906742 0 0 1 1014.833314 907.966006H162.911728A46.906742 46.906742 0 0 1 116.033994 861.088272V315.90255a46.906742 46.906742 0 0 1 46.877734-46.877734h142.141643a46.877734 46.877734 0 0 0 46.413598-39.857677l8.934617-58.771218 2.204646-14.50425A46.848725 46.848725 0 0 1 409.01983 116.033994h358.458017a46.906742 46.906742 0 0 1 46.413598 39.857677z m-553.308102-130.538244L251.5617 113.133144a46.906742 46.906742 0 0 1-46.413598 39.857678H46.877734A46.906742 46.906742 0 0 0 0 199.868555v777.253711A46.906742 46.906742 0 0 0 46.877734 1024h1083.989575A46.906742 46.906742 0 0 0 1177.745042 977.122266V199.868555a46.906742 46.906742 0 0 0-46.877733-46.877733h-159.807819a46.906742 46.906742 0 0 1-46.413598-39.857678l-11.110255-73.275467A46.906742 46.906742 0 0 0 867.354108 0H309.027535a46.848725 46.848725 0 0 0-46.326572 39.857677z" fill="#0D0A16" /></svg>