<?xml version="1.0" standalone="no"?><!DOCTYPE svg PUBLIC "-//W3C//DTD SVG 1.1//EN" "http://www.w3.org/Graphics/SVG/1.1/DTD/svg11.dtd"><svg class="icon" width="48px" height="48.00px" viewBox="0 0 1024 1024" version="1.1" xmlns="http://www.w3.org/2000/svg"><path d="M776.746667 654.933333m-152.32 0a152.32 152.32 0 1 0 304.64 0 152.32 152.32 0 1 0-304.64 0Z" fill="#4169E1" /><path d="M534.613333 251.733333m-35.84 0a35.84 35.84 0 1 0 71.68 0 35.84 35.84 0 1 0-71.68 0Z" fill="#4169E1" /><path d="M707.626667 840.106667a95.786667 95.786667 0 0 1-85.333334-51.413334H352a97.066667 97.066667 0 0 1-170.666667 0H152.106667a76.8 76.8 0 0 1-55.04-22.826666 79.36 79.36 0 0 1-23.04-56.32 177.066667 177.066667 0 0 1 150.613333-173.44l21.333333-93.44a125.226667 125.226667 0 0 1 119.893334-85.333334h34.133333v-21.333333a74.453333 74.453333 0 0 1 74.453333-74.453333H490.666667v64h-16.426667a10.453333 10.453333 0 0 0-10.453333 10.453333v50.56a34.346667 34.346667 0 0 1-34.346667 34.133333h-64a61.013333 61.013333 0 0 0-58.453333 39.253334L277.333333 597.333333h-27.733333a112.853333 112.853333 0 0 0-111.573333 111.786667 14.933333 14.933333 0 0 0 4.266666 10.666667 13.653333 13.653333 0 0 0 9.813334 4.053333h49.28A33.92 33.92 0 0 1 234.666667 751.146667a32.853333 32.853333 0 0 0 64 0A33.92 33.92 0 0 1 331.306667 725.333333h311.466666a33.92 33.92 0 0 1 33.066667 26.453334 32.64 32.64 0 0 0 64 0A34.346667 34.346667 0 0 1 772.693333 725.333333h55.466667a7.68 7.68 0 0 0 7.68-7.68v-10.24h64v10.24A71.893333 71.893333 0 0 1 828.16 789.333333h-34.773333a96.426667 96.426667 0 0 1-85.76 50.773334zM899.84 607.786667h-64V336.64a10.453333 10.453333 0 0 0-10.453333-10.453333h-200.96v-64h200.96a74.453333 74.453333 0 0 1 74.453333 74.453333z" fill="#2c2c2c" /></svg>