<?xml version="1.0" standalone="no"?><!DOCTYPE svg PUBLIC "-//W3C//DTD SVG 1.1//EN" "http://www.w3.org/Graphics/SVG/1.1/DTD/svg11.dtd"><svg class="icon" width="48px" height="48.00px" viewBox="0 0 1024 1024" version="1.1" xmlns="http://www.w3.org/2000/svg"><path d="M693 773.14a32.88 32.88 0 0 1 0-65.75c111.16 0 201.6-90.43 201.6-201.59S804.17 304.21 693 304.21c-0.78 0.05-3.57 0.22-4.34 0.22a32.88 32.88 0 0 1-30.54-20.71A164.12 164.12 0 0 0 505 179.67c-90.95 0-164.95 74-164.95 165a165.61 165.61 0 0 0 5.37 40.95 32.88 32.88 0 0 1-39.54 40.11 143.75 143.75 0 0 0-33.51-4.15c-78.81 0-142.93 64.12-142.93 142.94s64.12 142.92 142.93 142.92h188a32.88 32.88 0 0 1 0 65.75h-188c-115.06 0-208.67-93.61-208.67-208.67 0-115.81 94.1-209.94 210.9-208.67-0.2-3.74-0.29-7.47-0.29-11.18 0-127.21 103.49-230.7 230.69-230.7A229.34 229.34 0 0 1 710 239c139.56 8.77 250.4 125.09 250.4 266.81-0.05 147.4-119.97 267.33-267.4 267.33z" fill="#4169E1" /><path d="M577.47 910.08a38.35 38.35 0 0 1-38.35-38.36V446.6a38.35 38.35 0 1 1 76.7 0v425.12a38.35 38.35 0 0 1-38.35 38.36z" fill="#2F3240" /><path d="M736.65 644.13a38.21 38.21 0 0 1-27.12-11.24l-132.06-132-132 132.05a38.35 38.35 0 0 1-54.24-54.24l159.12-159.22a38.37 38.37 0 0 1 54.24 0l159.17 159.17a38.36 38.36 0 0 1-27.11 65.48z" fill="#2F3240" /></svg>