<?xml version="1.0" standalone="no"?><!DOCTYPE svg PUBLIC "-//W3C//DTD SVG 1.1//EN" "http://www.w3.org/Graphics/SVG/1.1/DTD/svg11.dtd"><svg class="icon" width="48px" height="48.00px" viewBox="0 0 1024 1024" version="1.1" xmlns="http://www.w3.org/2000/svg"><path d="M512 381.376946m-201.773399 0a201.773399 201.773399 0 1 0 403.546798 0 201.773399 201.773399 0 1 0-403.546798 0Z" fill="#4169E1" /><path d="M852.492611 0H171.507389A171.683941 171.683941 0 0 0 0 171.507389v680.985222a171.683941 171.683941 0 0 0 171.507389 171.507389h680.985222a171.683941 171.683941 0 0 0 171.507389-171.507389V171.507389a171.683941 171.683941 0 0 0-171.507389-171.507389zM270.14936 923.1133a258.698719 258.698719 0 0 1 483.70128 0zM923.1133 852.492611a70.62069 70.62069 0 0 1-63.533399 70.267586 359.61064 359.61064 0 0 0-695.159802 0A70.62069 70.62069 0 0 1 100.8867 852.492611V171.507389a70.62069 70.62069 0 0 1 70.620689-70.620689h680.985222a70.62069 70.62069 0 0 1 70.620689 70.620689z" fill="#0D0A16" /></svg>