<?xml version="1.0" standalone="no"?><!DOCTYPE svg PUBLIC "-//W3C//DTD SVG 1.1//EN" "http://www.w3.org/Graphics/SVG/1.1/DTD/svg11.dtd"><svg class="icon" width="48px" height="48.00px" viewBox="0 0 1024 1024" version="1.1" xmlns="http://www.w3.org/2000/svg"><path d="M505.298429 375.287958m-372.60733 0a372.60733 372.60733 0 1 0 745.21466 0 372.60733 372.60733 0 1 0-745.21466 0Z" fill="#4F8DFC" /><path d="M997.193717 1002.554974c-5.361257 0-10.722513-1.340314-16.083769-5.361257l-148.774869-107.225131c-12.062827-8.041885-14.743455-24.125654-6.701571-36.188481 4.020942-6.701571 10.722513-10.722513 17.424084-12.062828 6.701571-1.340314 14.743455 0 20.104712 4.020943l148.774869 107.225131c5.361257 4.020942 9.382199 10.722513 10.722513 17.424084 1.340314 6.701571-1.340314 14.743455-5.361257 20.104712-4.020942 8.041885-12.062827 12.062827-20.104712 12.062827z" fill="#181818" /><path d="M512 1024C229.193717 1024 0 793.465969 0 512S229.193717 0 512 0s512 229.193717 512 512-230.534031 512-512 512z m0-970.387435C258.680628 53.612565 53.612565 258.680628 53.612565 512 53.612565 763.979058 258.680628 970.387435 512 970.387435 763.979058 970.387435 970.387435 763.979058 970.387435 512 970.387435 258.680628 763.979058 53.612565 512 53.612565z" fill="#181818" /><path d="M798.827225 292.188482c-72.376963-72.376963-167.539267-120.628272-269.403141-134.031414l6.70157-53.612565c113.926702 14.743455 221.151832 67.015707 301.570681 148.774869l-38.86911 38.86911z" fill="#181818" /></svg>