<?xml version="1.0" standalone="no"?><!DOCTYPE svg PUBLIC "-//W3C//DTD SVG 1.1//EN" "http://www.w3.org/Graphics/SVG/1.1/DTD/svg11.dtd"><svg class="icon" width="48px" height="48.00px" viewBox="0 0 1024 1024" version="1.1" xmlns="http://www.w3.org/2000/svg"><path d="M285.83 560.37a317.04 309.96 0 1 0 634.08 0 317.04 309.96 0 1 0-634.08 0Z" fill="#4F8DFC" /><path d="M511.73 129a379.13 379.13 0 0 1 269.11 111.6A383.65 383.65 0 0 1 659.64 865a379.88 379.88 0 0 1-417-81.78 383.65 383.65 0 0 1 121.2-624.39A377.51 377.51 0 0 1 511.73 129m0-64.72C264.57 64.24 64.21 264.67 64.21 511.9s200.36 447.66 447.52 447.66S959.26 759.14 959.26 511.9 758.89 64.24 511.73 64.24z" fill="#182038" /><path d="M653.5 474.91H371.15c-18.28 0-33.1-14.48-33.1-32.35s14.82-32.36 33.1-32.36h228.69l-47-91.41a32 32 0 0 1 14.72-43.44c16.34-8 36.23-1.58 44.43 14.4l71 138.29a31.71 31.71 0 0 1-1.4 31.5 33.26 33.26 0 0 1-28.09 15.37zM441.62 750.9A33.21 33.21 0 0 1 412 733.05l-71-138.29a31.73 31.73 0 0 1 1.41-31.51 33.28 33.28 0 0 1 28.17-15.37h282.33c18.28 0 33.1 14.49 33.1 32.36s-14.82 32.36-33.1 32.36H424.22l46.95 91.4a32 32 0 0 1-14.73 43.44 33.54 33.54 0 0 1-14.82 3.46z" fill="#181818" /></svg>