<?xml version="1.0" standalone="no"?><!DOCTYPE svg PUBLIC "-//W3C//DTD SVG 1.1//EN" "http://www.w3.org/Graphics/SVG/1.1/DTD/svg11.dtd"><svg class="icon" width="48px" height="48.00px" viewBox="0 0 1024 1024" version="1.1" xmlns="http://www.w3.org/2000/svg"><path d="M840.648862 433.636431c23.473231-71.522462 55.571692-77.942154 96.303261-19.259077v308.1728L771.938462 925.538462h-192.984616l212.676923-259.938462 49.018093-231.963569z" fill="#4F8DFC" /><path d="M173.292308 417.476923l15.753846 165.415385c3.501292 45.784615 21.882092 81.230769 55.138461 106.338461l39.384616-31.507692c-28.234831-22.744615-42.673231-52.9408-43.323077-90.584615 0 0-9.956431-103.719385-15.753846-149.661539H173.292308zM452.923077 669.538462a23.630769 23.630769 0 0 1 23.630769 23.630769v212.676923a23.630769 23.630769 0 1 1-47.261538 0v-212.676923a23.630769 23.630769 0 0 1 23.630769-23.630769zM59.128123 693.515815a23.630769 23.630769 0 0 1 33.421785 0l150.382277 150.386216a23.630769 23.630769 0 0 1-33.417847 33.417846l-150.386215-150.382277a23.638646 23.638646 0 0 1 0-33.421785z" fill="#000000" /><path d="M141.784615 350.523077c41.078154 0 75.480615 28.585354 84.401231 66.953846H172.024123A39.305846 39.305846 0 0 0 141.784615 403.322092c-21.752123 0-39.384615 17.632492-39.384615 39.384616L102.396062 708.923077H55.138462v-271.753846c0-47.852308 38.793846-86.646154 86.646153-86.646154zM376.036431 576.354462l2.048 2.048 1.547815 1.543876 0.9216 0.925539 2.134646 2.134646 6.915939 6.912 6.998646 6.998646 22.142031 22.145969 10.318769 10.31877 2.682092 2.682092 8.247139 8.247138 5.643815 5.643816 5.738339 5.738338 2.902646 2.898708 8.782769 8.786708 11.52 11.516061-33.417846 33.421785-30.5152-30.519139-5.368123-5.368123-15.324554-15.320615-4.785231-4.789169-6.813538-6.813539-10.232123-10.232123-3.647016-3.647015-3.363446-3.363446-10.263631-10.259693-2.961723-2.961723-1.378461-1.378461c-15.379692-15.379692-40.314092-15.379692-55.697723 0-15.379692 15.379692-15.379692 40.318031 0 55.697723l1.378461 1.378461 1.283939 1.283939 0.787692 0.787692 2.942031 2.938092 8.211692 8.211693 3.363446 3.363446 3.647015 3.647015 10.232124 10.232123 6.813538 6.813539 4.785231 4.789169 4.958523 4.958523 16.675446 16.675446-32.551385 34.284308-5.884061-5.880123-8.2432-8.247139-7.928123-7.928123-9.960369-9.95643-17.258339-17.262277-6.998646-6.998647-6.915939-6.915938-2.134646-2.134646-0.9216-0.9216-1.543877-1.543877-2.048-2.048c-33.839262-33.839262-33.839262-88.694154 0-122.533415 33.835323-33.839262 88.694154-33.839262 122.533416 0z" fill="#000000" /><path d="M855.630769 417.476923l-15.753846 165.415385c-3.501292 45.784615-21.882092 81.230769-55.138461 106.338461l-39.384616-31.507692c28.234831-22.744615 42.673231-52.9408 43.323077-90.584615 0 0 9.956431-103.719385 15.753846-149.661539h51.2zM576 669.538462a23.630769 23.630769 0 0 1 23.630769 23.630769v212.676923a23.630769 23.630769 0 1 1-47.261538 0v-212.676923a23.630769 23.630769 0 0 1 23.630769-23.630769zM969.794954 693.515815a23.630769 23.630769 0 0 0-33.421785 0l-150.382277 150.386216a23.630769 23.630769 0 0 0 33.417846 33.417846l150.386216-150.382277a23.634708 23.634708 0 0 0 0-33.421785z" fill="#000000" /><path d="M887.138462 350.523077c47.852308 0 86.646154 38.793846 86.646153 86.646154l-0.003938 271.753846H926.523077v-266.216369c0-21.381908-17.041723-38.785969-38.281846-39.368862l-1.102769-0.015754a39.301908 39.301908 0 0 0-30.243447 14.154831h-54.153846c8.916677-38.368492 43.319138-66.953846 84.397293-66.953846zM652.886646 576.354462c33.835323-33.839262 88.694154-33.839262 122.537354 0 33.835323 33.835323 33.835323 88.694154 0 122.533415l-0.523815 0.523815-6.128247 6.124308-2.504861 2.504862-2.855385 2.859323-1.555692 1.551753-6.998646 6.998647-1.929846 1.929846-4.07237 4.076307-11.256123 11.256124-9.964307 9.95643-7.924185 7.928123-8.247138 8.247139-5.880123 5.880123-33.142154-33.693539 6.900184-6.904123 15.324554-15.320615 4.785231-4.789169 6.813538-6.813539 10.232123-10.232123 3.647016-3.647015 3.363446-3.363446 10.263631-10.259693 2.961723-2.961723 1.378461-1.378461c15.379692-15.379692 15.379692-40.318031 0-55.697723-15.383631-15.379692-40.318031-15.379692-55.697723 0l-1.378461 1.378461-2.961723 2.961723-10.263631 10.259693-3.363446 3.363446-20.692677 20.692677-4.785231 4.78523-51.207877 51.211816-33.417846-33.421785 11.516062-11.516061 8.786707-8.78277 2.902646-2.902646 5.738339-5.738338 5.643815-5.643816 8.247139-8.247138 35.142892-35.146831 6.998646-6.998646 6.915939-6.912 2.134646-2.134646 0.9216-0.925539 1.543877-1.543876 2.048-2.048z" fill="#000000" /><path d="M334.769231 275.692308h354.461538a23.630769 23.630769 0 1 1 0 47.261538H334.769231a23.630769 23.630769 0 1 1 0-47.261538z" fill="#000000" /><path d="M512 98.461538a23.630769 23.630769 0 0 1 23.630769 23.63077v354.461538a23.630769 23.630769 0 1 1-47.261538 0V122.092308a23.630769 23.630769 0 0 1 23.630769-23.63077z" fill="#000000" /></svg>