<?xml version="1.0" standalone="no"?><!DOCTYPE svg PUBLIC "-//W3C//DTD SVG 1.1//EN" "http://www.w3.org/Graphics/SVG/1.1/DTD/svg11.dtd"><svg class="icon" width="48px" height="39.10px" viewBox="0 0 1257 1024" version="1.1" xmlns="http://www.w3.org/2000/svg"><path d="M323.880677 739.330698m-271.177866 0a271.177866 271.177866 0 1 0 542.355731 0 271.177866 271.177866 0 1 0-542.355731 0Z" fill="#4F8DFC" /><path d="M649.024287 1024h-45.870883v-53.965744h18.88801v-418.23452l-171.341238 133.565218c-12.142292 9.444005-28.332016 6.745718-37.776021-4.047431-9.444005-12.142292-6.745718-28.332016 4.047431-37.776021l215.862977-171.341238c10.793149-8.094862 25.633729-8.094862 36.426878 1.349143l199.673254 196.974967-39.125165 40.474308-153.802371-152.453227v438.471673c0 14.84058-12.142292 26.982872-26.982872 26.982872z" fill="#181818" /><path d="M327.928108 1019.952569c-84.996047 0-164.59552-32.379447-226.656127-91.741765-63.40975-60.711462-99.836627-143.009223-101.185771-229.354414-4.047431-178.086957 134.914361-325.14361 310.303031-334.587615-2.698287-9.444005-4.047431-20.237154-4.047431-36.426878C307.690953 147.056653 454.747607 0 636.881994 0c87.694335 0 169.992095 33.72859 232.052701 95.789196S964.723891 240.147563 964.723891 327.841897c0 35.077734-5.396574 70.155468-17.538866 103.884058L897.266711 414.187088c9.444005-28.332016 13.491436-58.013175 13.491436-87.694334 0-72.853755-28.332016-141.660079-80.948617-194.27668C778.542073 82.29776 709.735749 53.965744 636.881994 53.965744c-151.104084 0-273.876153 122.772069-273.876153 275.225297 0 20.237154 1.349144 24.284585 6.745718 39.125165 1.349144 5.396574 4.047431 10.793149 6.745718 17.538866l13.491437 43.172596-56.664032-10.793149h-9.444005c-151.104084 2.698287-272.527009 128.168643-268.479579 279.272727 1.349144 74.202899 31.030303 141.660079 83.646904 192.927537 52.616601 51.267457 122.772069 78.250329 195.625824 75.552042h296.811594v53.965744H327.928108z" fill="#181818" /><path d="M929.646158 1019.952569H856.792403v-53.965744h72.853755c151.104084 0 273.876153-122.772069 273.876152-273.876153 0-148.405797-117.375494-260.384717-273.876152-260.384717v-53.965744C1113.129689 377.760211 1257.488055 515.372859 1257.488055 692.110672c0 180.785244-147.056653 327.841897-327.841897 327.841897z" fill="#181818" /></svg>