<?xml version="1.0" standalone="no"?><!DOCTYPE svg PUBLIC "-//W3C//DTD SVG 1.1//EN" "http://www.w3.org/Graphics/SVG/1.1/DTD/svg11.dtd"><svg class="icon" width="48px" height="48.00px" viewBox="0 0 1024 1024" version="1.1" xmlns="http://www.w3.org/2000/svg"><path d="M215.949973 698.204213v-101.109037c0-86.129921 69.902544-157.280725 157.280725-157.280725H689.040407c86.129921 0 157.280725 69.902544 157.280725 157.280725v101.109037c0 86.129921-69.902544 157.280725-157.280725 157.280725H371.982438c-86.129921 0-156.032465-69.902544-156.032465-157.280725z" fill="#4F8DFC" /><path d="M781.411626 1024H235.922129C107.351377 1024 2.497561 919.146184 2.497561 790.575432V517.206554c0-91.12296 53.675168-174.756361 136.060309-212.204153l21.220416 44.93735C94.86878 381.146244 52.42795 446.05575 52.42795 517.206554v272.120619C52.42795 891.68447 134.813091 974.069611 235.922129 974.069611h545.489497c49.930389 0 94.867739-18.723896 129.819011-53.675168 34.951272-34.951272 53.675168-81.136882 53.675168-129.819011V517.206554c0-61.164726-29.958233-118.584673-81.136882-153.535946l27.461714-41.192571c64.909505 43.68909 103.605557 116.088154 103.605557 194.728517v272.120619c0 62.412986-23.716935 121.081193-68.654285 164.770283S843.824612 1024 781.411626 1024z" fill="#181818" /><path d="M883.768923 364.918868c-29.958233-19.972156-66.157765-31.206493-102.357297-31.206493H235.922129c-26.213454 0-52.426908 6.241299-76.143843 17.475636l-21.220416-44.93735c29.958233-13.730857 63.661246-21.220415 97.364259-21.220415h545.489497c46.18561 0 91.12296 13.730857 129.819011 38.696051l-27.461714 41.192571zM778.915107 744.389823h-3.744779c-27.461714-1.24826-52.426908-12.482597-71.150804-32.454753S676.55781 665.74946 676.55781 638.287747c2.496519-56.171687 49.930389-99.860778 106.102076-97.364259h213.452412c13.730857 0 24.965194 11.234337 24.965194 24.965195v153.535945c0 13.730857-11.234337 24.965194-24.965194 24.965195H778.915107z m0-153.535946c-28.709974 0-51.178649 22.468675-52.426908 49.930389 0 13.730857 3.744779 27.461714 13.730856 37.447792 9.986078 9.986078 22.468675 16.227376 36.199532 16.227376H971.147104v-103.605557H781.411626h-2.496519z" fill="#181818" /><path d="M146.047429 341.201933c-11.234337 0-22.468675-8.737818-24.965195-19.972155L89.875741 170.190352c-2.496519-13.730857 6.241299-26.213454 18.723896-29.958234L778.915107 0.42703c13.730857-2.496519 26.213454 6.241299 29.958233 18.723895l57.419947 272.120619c1.24826 7.489558 0 14.979117-4.993039 21.220416s-11.234337 8.737818-18.723896 9.986077l-696.528923 18.723896z m-2.49652-156.032465l22.468675 106.102076 644.102016-17.475636-44.93735-218.445451-621.633341 129.819011z" fill="#181818" /></svg>