<?xml version="1.0" standalone="no"?><!DOCTYPE svg PUBLIC "-//W3C//DTD SVG 1.1//EN" "http://www.w3.org/Graphics/SVG/1.1/DTD/svg11.dtd"><svg class="icon" width="48px" height="48.00px" viewBox="0 0 1024 1024" version="1.1" xmlns="http://www.w3.org/2000/svg"><path d="M185.477908 191.877908H839.876923v321.476923H185.477908z" fill="#4F8DFC" /><path d="M862.523077 161.476923v701.046154H161.476923V161.476923h701.046154z m-47.139446 47.139446H208.620308V815.379692H815.379692V208.620308z" fill="#000000" /><path d="M370.215385 366.276923h283.56923v55.138462H370.215385zM248.123077 472.615385h527.753846a19.692308 19.692308 0 0 1 0 39.384615H248.123077a19.692308 19.692308 0 0 1 0-39.384615zM385.969231 563.2h252.061538a19.692308 19.692308 0 0 1 0 39.384615H385.969231a19.692308 19.692308 0 0 1 0-39.384615z" fill="#000000" /></svg>