<svg xml:space="preserve" style="enable-background:new 0 0 1024 1024;" viewBox="0 0 1024 1024" y="0px" x="0px" xmlns:xlink="http://www.w3.org/1999/xlink" xmlns="http://www.w3.org/2000/svg" id="图层_1" version="1.1">
<style type="text/css">
	.st0{fill:url(#椭圆形_1_);}
	.st1{opacity:0.9;}
	.st2{fill:url(#SVGID_1_);}
	.st3{fill:url(#SVGID_2_);}
	.st4{opacity:0.32;fill:url(#路径_2_);enable-background:new    ;}
	.st5{opacity:0.32;fill:url(#路径_3_);enable-background:new    ;}
	.st6{fill:url(#SVGID_3_);}
	.st7{fill:url(#SVGID_4_);}
	.st8{fill:#63A6F9;}
	.st9{fill:url(#SVGID_5_);}
	.st10{fill:none;stroke:url(#SVGID_6_);stroke-width:2.1154;stroke-miterlimit:10;}
	.st11{fill:none;stroke:url(#SVGID_7_);stroke-width:2.1154;stroke-miterlimit:10;stroke-dasharray:12.5836,12.5836;}
	.st12{fill:none;stroke:url(#SVGID_8_);stroke-width:2.1154;stroke-miterlimit:10;}
	.st13{fill:url(#SVGID_9_);}
	.st14{fill:url(#SVGID_10_);}
	.st15{fill:url(#SVGID_11_);}
	.st16{fill:url(#SVGID_12_);}
	.st17{fill:url(#SVGID_13_);}
</style>
<linearGradient gradientTransform="matrix(480 0 0 250 -161842 -83255)" y2="336.7625" x2="338.2462" y1="335.2688" x1="338.2462" gradientUnits="userSpaceOnUse" id="椭圆形_1_">
	<stop style="stop-color:#CFDFFA" offset="6.050502e-08"></stop>
	<stop style="stop-color:#D3E2FA;stop-opacity:0.6178" offset="0.3822"></stop>
	<stop style="stop-color:#E0E9FB;stop-opacity:0.2214" offset="0.7786"></stop>
	<stop style="stop-color:#EAF0FC;stop-opacity:0" offset="1"></stop>
</linearGradient>
<ellipse ry="219.7" rx="421.9" cy="913.3" cx="516.2" class="st0" id="椭圆形"></ellipse>
<g class="st1">
	
		<linearGradient gradientTransform="matrix(-1 0 0 1 1016.5887 2)" y2="311" x2="330.739" y1="197.4" x1="330.739" gradientUnits="userSpaceOnUse" id="SVGID_1_">
		<stop style="stop-color:#CFDFFA" offset="0"></stop>
		<stop style="stop-color:#EAF0FC;stop-opacity:0" offset="1"></stop>
	</linearGradient>
	<path d="M625,305L625,305L625,305c1.1,0.1,2.3,0.2,3.5,0.2s2.3-0.1,3.5-0.2h79.1c6.7,5,15.1,8,24.2,8
		c22.3,0,40.4-18.1,40.4-40.4s-18.1-40.4-40.4-40.4c-2,0-3.9,0.1-5.8,0.4c-4.3-10.9-14.9-18.7-27.3-18.7c-4.2,0-8.1,0.9-11.7,2.5
		c-5.8-10.2-16.8-17-29.4-17c-18.7,0-33.9,15.2-33.9,33.9c0,2.4,0.2,4.6,0.7,6.9c-17.7,0.3-31.9,14.8-31.9,32.5
		C595.9,289.4,608.6,303.3,625,305z" class="st2"></path>
	
		<linearGradient gradientTransform="matrix(-1 0 0 1 1016.5887 2)" y2="447.1" x2="641.6887" y1="299" x1="641.6887" gradientUnits="userSpaceOnUse" id="SVGID_2_">
		<stop style="stop-color:#CFDFFA" offset="1.210100e-07"></stop>
		<stop style="stop-color:#EAF0FC;stop-opacity:0" offset="1"></stop>
	</linearGradient>
	<path d="M279.6,440L279.6,440h0.2c1.8,0.2,3.6,0.3,5.4,0.3s3.7-0.1,5.5-0.3h143.9c7.7,5.7,17.3,9.1,27.6,9.1
		c25.7,0,46.6-20.9,46.6-46.6s-20.9-46.6-46.6-46.6c-1.5,0-3.1,0.1-4.6,0.2c-7.5-15.5-23.3-26.1-41.6-26.1c-2.2,0-4.4,0.2-6.5,0.5
		c-11.1-17.7-30.8-29.5-53.2-29.5c-31,0-56.7,22.4-61.8,51.9c-3-0.6-6-1-9.2-1c-24.4,0-44.3,19.8-44.3,44.3
		C241,418.6,257.8,437.2,279.6,440z" class="st3"></path>
</g>
<linearGradient gradientTransform="matrix(78.2896 93.302 155.5811 -130.548 -78214.0469 13250.7969)" y2="337.0926" x2="337.0727" y1="336.6501" x1="337.2028" gradientUnits="userSpaceOnUse" id="路径_2_">
	<stop style="stop-color:#BFD4FA;stop-opacity:0" offset="0"></stop>
	<stop style="stop-color:#5792F0" offset="0.6012"></stop>
	<stop style="stop-color:#5792F0;stop-opacity:0" offset="1"></stop>
</linearGradient>
<polygon points="560.6,672.2 679,716.7 582.7,724.2 573.6,721.1" class="st4" id="路径"></polygon>
<linearGradient gradientTransform="matrix(78.2896 93.302 155.5811 -130.548 -78214.0469 13250.7969)" y2="335.8584" x2="336.9665" y1="335.5646" x1="337.0529" gradientUnits="userSpaceOnUse" id="路径_3_">
	<stop style="stop-color:#BFD4FA;stop-opacity:0" offset="0"></stop>
	<stop style="stop-color:#5792F0" offset="0.6012"></stop>
	<stop style="stop-color:#5792F0;stop-opacity:0" offset="1"></stop>
</linearGradient>
<polygon points="380.4,830.6 459,860.1 395.1,865.1 389,863" class="st5" id="路径_1_"></polygon>
<g>
	<linearGradient y2="802.8834" x2="731.214" y1="802.8834" x1="652.004" gradientUnits="userSpaceOnUse" id="SVGID_3_">
		<stop style="stop-color:#B5D1FC" offset="0"></stop>
		<stop style="stop-color:#CDE0FC" offset="1"></stop>
	</linearGradient>
	<path d="M655.6,805.9c6-11,18.7-21.9,35.2-23.2c2.5-0.2,12-0.7,22.3,4.3c1.1,0.5,18.8,9.3,18,17.6
		c-1,10.9-31.3,15.1-43.4,16.8c-11.1,1.6-31.5,4.4-35.2-3.4C651,814.5,653.2,810.4,655.6,805.9z" class="st6"></path>
	<linearGradient y2="825.2138" x2="759.6863" y1="808.7799" x1="701.8521" gradientUnits="userSpaceOnUse" id="SVGID_4_">
		<stop style="stop-color:#B5D1FC" offset="0"></stop>
		<stop style="stop-color:#B9D4FC" offset="0.1129"></stop>
		<stop style="stop-color:#C8DDFC" offset="0.5951"></stop>
		<stop style="stop-color:#CDE0FC" offset="1"></stop>
	</linearGradient>
	<path d="M694.4,814.8c4.6-8.4,14.2-16.7,26.8-17.7c3-0.2,9.9-0.7,17,3.3c7.8,4.4,15.5,14.1,13.1,20
		c-0.6,1.4-2.3,4.1-32.4,6.2c-20,1.4-25.3,0.6-26.8-2.6C690.9,821.3,692.6,818.2,694.4,814.8z" class="st7"></path>
</g>
<g>
	<path d="M677.6,482.7c-9-17.6-22.3-32.6-38.4-43.3c-17.3-11.4-37.5-17.8-58.7-18.4c-2.4-0.1-5-0.1-7.4,0
		c-21.2,0.6-41.4,7-58.7,18.4c-16.2,10.7-29.5,25.7-38.4,43.3c-9,17.8-13.3,37.5-12.4,57.1c0.9,20.9,7.8,41.2,19.9,58.8l80.3,117.1
		c3,4.3,7.8,6.8,13,6.8c5.2,0,10.1-2.6,13-6.8l80.3-117.1c12.1-17.6,19-37.9,19.9-58.8C690.9,520.2,686.6,500.5,677.6,482.7z
		 M576.8,562.8c-22.6,0-40.9-18.3-40.9-40.9c0-22.6,18.3-40.9,40.9-40.9c22.6,0,40.9,18.3,40.9,40.9
		C617.7,544.4,599.3,562.8,576.8,562.8z" class="st8"></path>
	<linearGradient y2="574.1002" x2="696.9507" y1="574.1002" x1="470.2885" gradientUnits="userSpaceOnUse" id="SVGID_5_">
		<stop style="stop-color:#BFD4FA" offset="0"></stop>
		<stop style="stop-color:#87B6FA" offset="1"></stop>
	</linearGradient>
	<path d="M684.4,485c-9-17.6-22.3-32.6-38.4-43.3c-17.3-11.4-37.5-17.8-58.7-18.4c-2.4-0.1-5-0.1-7.4,0
		c-21.2,0.6-41.4,7-58.7,18.4c-16.2,10.7-29.5,25.7-38.4,43.3c-9,17.8-13.3,37.5-12.4,57.1c0.9,20.9,7.8,41.2,19.9,58.8l80.3,117.1
		c3,4.3,7.8,6.8,13,6.8c5.2,0,10.1-2.6,13-6.8l80.3-117.1c12.1-17.6,19-37.9,19.9-58.8C697.7,522.5,693.5,502.8,684.4,485z
		 M583.6,565c-22.6,0-40.9-18.3-40.9-40.9c0-22.6,18.3-40.9,40.9-40.9s40.9,18.3,40.9,40.9C624.5,546.7,606.2,565,583.6,565z" class="st9"></path>
	<g>
		<linearGradient y2="727.1048" x2="581.9077" y1="727.1048" x1="393.3921" gradientUnits="userSpaceOnUse" id="SVGID_6_">
			<stop style="stop-color:#BFD4FA" offset="0"></stop>
			<stop style="stop-color:#87B6FA" offset="1"></stop>
		</linearGradient>
		<path d="M581.7,726.4c-2.1,0.4-4.1,0.9-6.2,1.3" class="st10"></path>
		<linearGradient y2="797.1238" x2="581.9077" y1="797.1238" x1="393.3921" gradientUnits="userSpaceOnUse" id="SVGID_7_">
			<stop style="stop-color:#BFD4FA" offset="0"></stop>
			<stop style="stop-color:#87B6FA" offset="1"></stop>
		</linearGradient>
		<path d="M563.2,730.6c-40.2,9.9-77.9,24.4-79.9,45.5c-2.3,24.1,43.8,40.5,40.2,59.2c-2.4,12.4-26.4,25.1-117.5,28.2" class="st11"></path>
		<linearGradient y2="863.8524" x2="581.9077" y1="863.8524" x1="393.3921" gradientUnits="userSpaceOnUse" id="SVGID_8_">
			<stop style="stop-color:#BFD4FA" offset="0"></stop>
			<stop style="stop-color:#87B6FA" offset="1"></stop>
		</linearGradient>
		<path d="M399.8,863.8c-2.1,0.1-4.2,0.1-6.3,0.2" class="st12"></path>
	</g>
	<path d="M448.4,728.4c-5.1-9.9-12.6-18.4-21.7-24.4c-9.7-6.4-21.2-10-33.1-10.4c-1.4-0.1-2.8-0.1-4.2,0
		c-12,0.3-23.4,3.9-33.1,10.4c-9.1,6.1-16.6,14.5-21.7,24.4c-5.1,10-7.5,21.2-7,32.2c0.5,11.8,4.4,23.2,11.2,33.2l45.3,66.1
		c1.7,2.4,4.4,3.9,7.3,3.9c2.9,0,5.7-1.4,7.3-3.9l45.3-66.1c6.8-9.9,10.7-21.4,11.2-33.2C455.9,749.6,453.5,738.5,448.4,728.4z
		 M391.5,773.6c-12.7,0-23.1-10.3-23.1-23.1s10.3-23.1,23.1-23.1s23.1,10.3,23.1,23.1S404.2,773.6,391.5,773.6z" class="st8"></path>
	<linearGradient y2="780.0109" x2="459.3123" y1="780.0109" x1="331.3823" gradientUnits="userSpaceOnUse" id="SVGID_9_">
		<stop style="stop-color:#BFD4FA" offset="0"></stop>
		<stop style="stop-color:#87B6FA" offset="1"></stop>
	</linearGradient>
	<path d="M452.3,729.7c-5.1-9.9-12.6-18.4-21.7-24.4c-9.7-6.4-21.2-10-33.1-10.4c-1.4-0.1-2.8-0.1-4.2,0
		c-12,0.3-23.4,3.9-33.1,10.4c-9.1,6.1-16.6,14.5-21.7,24.4c-5.1,10-7.5,21.2-7,32.2c0.5,11.8,4.4,23.2,11.2,33.2l45.3,66.1
		c1.7,2.4,4.4,3.9,7.3,3.9c2.9,0,5.7-1.4,7.3-3.9l45.3-66.1c6.8-9.9,10.7-21.4,11.2-33.2C459.8,750.9,457.3,739.8,452.3,729.7z
		 M395.3,774.9c-12.7,0-23.1-10.3-23.1-23.1s10.3-23.1,23.1-23.1s23.1,10.3,23.1,23.1S408.1,774.9,395.3,774.9z" class="st13"></path>
</g>
<g>
	
		<linearGradient gradientTransform="matrix(1 0 0 -1 0 1024)" y2="332.0421" x2="340.1316" y1="332.0421" x1="280.0479" gradientUnits="userSpaceOnUse" id="SVGID_10_">
		<stop style="stop-color:#B5D1FC" offset="0"></stop>
		<stop style="stop-color:#CDE0FC" offset="1"></stop>
	</linearGradient>
	<path d="M285,717.9c14.2,14.9,49.1,6.9,53.8-6.7c3.2-9.5,0.5-22.8-6.7-31.4c-5.6-6.6-9.5-12.5-15.1-16.8
		c-4.5-3.4-6.8-5.1-8.4-5C297.6,658.5,268.5,700.6,285,717.9z" class="st14"></path>
	<g>
		
			<linearGradient gradientTransform="matrix(1 0 0 -1 0 1024)" y2="332.2037" x2="321.3554" y1="276.4906" x1="298.8458" gradientUnits="userSpaceOnUse" id="SVGID_11_">
			<stop style="stop-color:#B5D1FC" offset="0"></stop>
			<stop style="stop-color:#E4EDFC" offset="1"></stop>
		</linearGradient>
		<rect height="64.3" width="1.3" class="st15" y="687.5" x="309.5"></rect>
	</g>
</g>
<linearGradient gradientTransform="matrix(0.9054 0.4246 -0.4246 0.9054 258.1349 -382.1435)" y2="527.7311" x2="732.8397" y1="527.7311" x1="701.5042" gradientUnits="userSpaceOnUse" id="SVGID_12_">
	<stop style="stop-color:#B5D1FC" offset="0"></stop>
	<stop style="stop-color:#CDE0FC" offset="1"></stop>
</linearGradient>
<path d="M696.6,371.8c4.3,2,7.2,4.9,8.6,8.6c1.4,3.7,1.2,7.5-0.6,11.3c-1.8,3.8-3.6,6.5-5.5,7.9
	c-1.9,1.4-4.4,2.6-7.5,3.5c-3.1,0.9-5.1,1.7-6,2.5c-0.9,0.8-1.8,2.2-2.8,4.3c-1.6,3.5-4,4.5-7,3.1c-3.2-1.5-3.9-4.1-2.1-7.9
	c1.6-3.4,3-5.6,4.4-6.8c1.3-1.2,3.2-2,5.5-2.4c3.1-0.6,5.6-1.4,7.4-2.5c1.8-1.1,3.4-3.1,4.8-6.1c0.7-1.4,0.8-2.8,0.3-4.3
	c-0.4-1.4-1.3-2.5-2.5-3.1c-1.3-0.6-2.7-0.6-4.3,0.1c-1.6,0.6-3.1,1.8-4.5,3.6c-1.7,2.2-3.7,2.7-6,1.6c-1.6-0.8-2.6-1.8-2.8-3.1
	c-0.3-1.3,0-2.7,0.7-4.2c0.7-1.5,2.1-3.1,4.1-4.9c2-1.7,4.4-2.8,7.2-3.1C690.5,369.8,693.5,370.3,696.6,371.8z M674.1,417.2
	c1.5,0.7,2.5,1.8,3.1,3.4c0.6,1.6,0.5,3.1-0.2,4.6c-0.7,1.5-1.8,2.5-3.4,3.1c-1.6,0.6-3.1,0.5-4.6-0.2c-1.5-0.7-2.5-1.8-3-3.4
	c-0.6-1.6-0.5-3.1,0.2-4.6c0.7-1.5,1.8-2.5,3.4-3.1C671.1,416.4,672.6,416.5,674.1,417.2z" class="st16"></path>
<linearGradient gradientTransform="matrix(0.5182 0.8552 -0.8552 0.5182 807.6196 -497.9702)" y2="564.146" x2="757.166" y1="564.146" x1="725.8305" gradientUnits="userSpaceOnUse" id="SVGID_13_">
	<stop style="stop-color:#B5D1FC" offset="0"></stop>
	<stop style="stop-color:#CDE0FC" offset="1"></stop>
</linearGradient>
<path d="M736.1,412.3c2.5,4.1,3.3,8.1,2.4,12c-0.9,3.9-3.2,6.9-6.8,9.1c-3.6,2.2-6.6,3.4-9,3.5
	c-2.4,0.2-5.1-0.3-8.2-1.2c-3.1-1-5.2-1.4-6.4-1.2c-1.2,0.2-2.8,0.8-4.7,2c-3.3,2-5.8,1.5-7.5-1.3c-1.8-3-1-5.6,2.6-7.7
	c3.2-1.9,5.6-3,7.4-3.3c1.8-0.3,3.8,0.1,5.9,1c2.9,1.3,5.4,1.9,7.5,2c2.1,0.1,4.5-0.7,7.3-2.4c1.3-0.8,2.2-1.9,2.6-3.4
	c0.4-1.4,0.3-2.8-0.4-4c-0.7-1.2-1.9-2-3.6-2.3c-1.7-0.4-3.6-0.2-5.7,0.5c-2.6,0.9-4.6,0.2-5.9-2c-0.9-1.5-1.1-2.9-0.6-4.2
	c0.5-1.2,1.5-2.3,2.9-3.2c1.4-0.9,3.5-1.5,6.1-1.8c2.6-0.3,5.2,0.1,7.7,1.4C732.2,407.2,734.4,409.3,736.1,412.3z M692.2,437.5
	c0.8,1.4,1.1,2.9,0.7,4.5c-0.4,1.6-1.3,2.9-2.7,3.7c-1.4,0.8-2.9,1.1-4.5,0.7c-1.6-0.4-2.9-1.3-3.7-2.7c-0.8-1.4-1.1-2.9-0.6-4.5
	c0.4-1.6,1.3-2.8,2.7-3.7c1.4-0.8,2.9-1.1,4.5-0.7C690.2,435.3,691.4,436.2,692.2,437.5z" class="st17"></path>
</svg>
