<?xml version="1.0" standalone="no"?><!DOCTYPE svg PUBLIC "-//W3C//DTD SVG 1.1//EN" "http://www.w3.org/Graphics/SVG/1.1/DTD/svg11.dtd"><svg class="icon" width="48px" height="48.00px" viewBox="0 0 1024 1024" version="1.1" xmlns="http://www.w3.org/2000/svg"><path d="M564.8 546.1c-3.1 0-6.3-1.1-8.8-3.4-5.2-4.9-5.5-13-0.7-18.3 28.3-30.5 27.9-59 23.7-69.8-0.9-2.3-3.3-6-5.8-9.9-12.4-19.1-35.5-54.7-6.8-114.7 27.8-57.9-7.3-96-7.7-96.3-4.9-5.2-4.7-13.3 0.5-18.3 5.2-4.9 13.3-4.7 18.3 0.5 2 2.1 47.7 51.5 12.3 125.3-22.5 46.9-6.5 71.5 5.1 89.4 3.4 5.3 6.4 9.8 8.2 14.6 8.3 21.3 5.8 59.5-28.8 96.7-2.6 2.8-6.1 4.2-9.5 4.2zM456.1 546.1c-3.5 0-6.9-1.4-9.5-4.1-34.6-37.3-37.1-75.4-28.8-96.7 1.9-4.8 4.8-9.3 8.2-14.6 11.7-18 27.6-42.6 5.1-89.5-35.5-73.8 10.3-123.2 12.3-125.3 4.9-5.2 13.1-5.4 18.3-0.5 5.2 4.9 5.4 13 0.5 18.2-1.6 1.7-35.2 39.1-7.7 96.4 28.8 60 5.7 95.6-6.8 114.7-2.5 3.9-4.9 7.6-5.8 9.9-4.2 10.8-4.7 39.3 23.7 69.8 4.9 5.2 4.5 13.4-0.7 18.3-2.5 2.3-5.6 3.4-8.8 3.4zM511.3 960s-0.1 0 0 0c-78.1-0.3-123.5-29.4-129.4-33.4-139.7-80.7-92.1-220.4-66.5-295.5 31.3-91.8 35.2-227.2 35.2-228.6 0.2-7.1 6.2-13 13.2-12.6 7.1 0.2 12.8 6.1 12.6 13.2-0.1 5.7-4 140.8-36.6 236.3-33.6 98.7-57.1 200.4 55.4 265 0.4 0.2 0.7 0.4 1.1 0.7 0.4 0.3 41.8 28.7 115.1 29 7.1 0 12.9 5.8 12.9 13-0.1 7.1-5.9 12.9-13 12.9z" fill="#4169E1" /><path d="M512.7 960c-7.1 0-12.9-5.8-12.9-12.9 0-7.1 5.7-12.9 12.9-13 73.3-0.3 114.7-28.7 115.1-29 0.3-0.2 0.7-0.5 1-0.7 112.4-64.6 89-166.4 55.3-265-32.5-95.5-36.4-230.6-36.6-236.3-0.2-7.1 5.4-13.1 12.6-13.2 7.1-0.4 13.1 5.4 13.2 12.6 0 1.4 3.9 136.9 35.2 228.6 25.6 75.1 73.2 214.8-66.5 295.5-5.7 4-51.2 33.1-129.3 33.4z" fill="#4169E1" /><path d="M301.3 574.1c-21.9 0-40.3-10.1-49.9-18.7-37.4-35.8-21.7-79.9-8-98.8 22.3-35.8 10.7-47.5-2.8-61.1-3.6-3.6-7.2-7.3-10.1-11.5-17-25.8-21.9-50.2-14.9-72.9 11.9-38.5 54.2-56.1 56-56.8 19.7-7.7 18.5-16 17.1-25.6-0.3-2.3-0.6-4.4-0.6-6.1-2.4-29.1 4.1-51.4 19.4-66.3 20.2-19.7 48.5-18.4 54-18 42.9-0.1 53.4-15.9 60.4-26.4l1.8-2.6c32.3-45.2 82.7-45.4 89-45.3 6.2-0.2 55.3 0.2 87.5 45.2l1.9 2.8c7 10.5 17.5 26.3 60.4 26.4 5.5-0.5 33.7-1.7 54 18 15.3 14.9 21.8 37.1 19.4 66.2-0.1 1.7-0.3 3.8-0.6 6.1-1.4 9.6-2.6 17.9 16.9 25.5 2 0.8 44.3 18.5 56.2 56.9 7 22.7 2.1 47.1-14.7 72.5-3.1 4.5-6.8 8.2-10.4 11.8-13.4 13.6-25.1 25.3-2.7 61.1 13.7 18.8 29.4 62.9-7.7 98.5-16.5 14.8-57.8 33.6-98.9 0.7-5.6-4.5-6.5-12.6-2-18.2s12.6-6.5 18.2-2c33.4 26.7 62 3.2 65.2 0.4 30.1-28.8 5.2-63.1 4.2-64.5-0.2-0.3-0.4-0.6-0.6-0.8-33.5-53.4-8.8-78.4 6-93.4 2.9-3 5.7-5.8 7.4-8.2 12-18.3 15.9-35.3 11.4-50.2-8.2-26.8-40.8-40.6-41.2-40.7-38.4-15-34.4-42.7-32.9-53.2 0.2-1.2 0.4-2.2 0.4-3.1v-1.1c1.8-21.1-2.1-36.5-11.5-45.8-13.1-12.9-33.9-10.9-34.1-10.9-0.4 0-1 0.1-1.4 0.1-57.3 0-74.3-25.6-82.5-38l-1.5-2.2c-25.6-35.7-65.5-34.2-65.8-34.3h-1.2c-1.6 0-42-1.1-67.4 34.3l-1.4 2c-8.2 12.3-25.2 38-82.5 38-0.5 0.1-1 0-1.5-0.1-0.1 0-20.9-2-34 10.9-9.5 9.3-13.3 24.7-11.5 45.8v1.1c0 0.8 0.2 1.9 0.4 3.1 1.5 10.4 5.5 38.2-33.1 53.3-0.1 0.1-32.7 13.9-40.9 40.6-4.6 14.9-0.7 32 11.6 50.6 1.5 2 4.2 4.9 7.2 7.8 14.8 15 39.5 40 6 93.4-0.2 0.3-0.4 0.6-0.6 0.8-2.6 3.6-25.1 36.5 4.5 64.9 2.8 2.5 31.5 26 64.8-0.7 5.6-4.5 13.7-3.6 18.2 2s3.6 13.7-2 18.2c-16.6 13.7-33.5 18.5-48.6 18.5zM484 893.6c-3.6 0-7.2-1.5-9.8-4.4-69.4-80-29.9-265.9-28.2-273.8 1.5-7 8.4-11.4 15.4-9.9s11.4 8.4 9.9 15.4c-0.4 1.8-38.5 181.1 22.5 251.3 4.7 5.4 4.1 13.5-1.3 18.2-2.5 2.1-5.5 3.2-8.5 3.2zM535.6 893.6c-3 0-6-1-8.5-3.2-5.4-4.7-6-12.8-1.3-18.2 61-70.3 22.9-249.5 22.5-251.3-1.5-7 2.9-13.8 9.9-15.4 6.9-1.5 13.8 2.9 15.4 9.9 1.7 7.9 41.2 193.8-28.2 273.8-2.6 2.9-6.2 4.4-9.8 4.4z" fill="#4169E1" /></svg>