<?xml version="1.0" standalone="no"?><!DOCTYPE svg PUBLIC "-//W3C//DTD SVG 1.1//EN" "http://www.w3.org/Graphics/SVG/1.1/DTD/svg11.dtd"><svg class="icon" width="48px" height="48.00px" viewBox="0 0 1024 1024" version="1.1" xmlns="http://www.w3.org/2000/svg"><path d="M468.7 615.2c4.5 76.4 22.8 147.4-36.2 182.6-57.8 34.4-108-17-173.5-53-51.9 9.7-109.2-16.6-140.5-69.3-31.5-52.9-27-116.2 6.7-157.2-5.9-6-11.2-12.8-15.7-20.3-32.8-55-11.5-128.1 47.6-163.3 59.1-35.1 133.5-19 166.2 36.1 5 8.4 8.7 17.2 11.2 26.2 50.1-6.4 103.9 19.8 133.9 70.3 29.3 49.1 27.6 107.1 0.3 147.9z" fill="#6CB310" /><path d="M258.9 744.8c-51.9 9.7-109.2-16.6-140.5-69.3-31.5-52.9-27-116.2 6.7-157.2-5.9-6-11.2-12.8-15.7-20.3-32.7-55-11.4-128.1 47.7-163.3 1.8-1.1 3.7-2 5.5-2.9l269.2 466.3c-57.5 33.7-107.6-17.5-172.9-53.3z" fill="#78C613" /><path d="M916.7 496.8c-4.5 7.5-9.9 14.2-15.8 20.3 33.9 40.9 38.4 104 6.7 156.8-31.5 52.5-89.1 78.8-141.3 69.1-65.9 35.9-116.3 87.2-174.4 52.9-59.4-35.1-40.9-105.9-36.4-182.2-27.5-40.8-29.1-98.7 0.2-147.6 30.1-50.3 84.2-76.5 134.6-70.1 2.5-9 6.3-17.8 11.3-26.2 32.9-54.9 107.7-71 167.1-36 59.5 35.1 80.9 108.1 48 163z" fill="#73BE12" /><path d="M916.7 496.8c-4.5 7.5-9.9 14.2-15.8 20.3 33.9 40.9 38.4 104 6.7 156.8-31.5 52.5-89.1 78.8-141.3 69.1-65.6 35.8-115.9 86.8-173.8 53.2l270.6-465.3c1.8 1 3.7 1.9 5.5 2.9 59.6 35.1 81 108.1 48.1 163z" fill="#6CB310" /><path d="M789.4 460.8c-34.2-20.4-237.2 260.8-250.8 283.7-13.5 23 3.2 58.1 37.4 78.6 34.2 20.4 72.9 18.4 86.4-4.6 13.6-23 161.2-337.3 127-357.7z" fill="#DBF4B8" /><path d="M704.3 577.2c6.8 9.3 3.9 22.8-6.4 30.2-10.3 7.4-24.1 5.8-30.9-3.5-6.8-9.3-71.3-111.1-61-118.5 10.3-7.4 91.6 82.5 98.3 91.8z m31.2 18c-11.3-1.5-21.7 7.3-23.3 19.6-1.6 12.3 6.4 23.5 17.7 24.9 11.3 1.5 130.6 9.4 132.2-2.8 1.5-12.4-115.3-40.3-126.6-41.7z" fill="#E4F4CB" /><path d="M760.8 463.2c0.9 69.6-36.3 129.8-90.1 156.3-41.9 83.4-65.8 169.6-149.7 170.7-82.1 1.1-103.7-83.8-151-161.8-60.8-21.4-105.3-84.1-106.3-158.8-1-75 42.3-139.1 103-161.9-2.5-10-4.1-20.3-4.2-31-1-78.1 66.2-142.3 150.1-143.4 83.9-1.1 152.7 61.3 153.7 139.4 0.2 11.9-1.3 23.5-4.1 34.6 56.8 24 97.7 84.4 98.6 155.9z" fill="#78C613" /><path d="M320.7 578.6c-6.7 9.3-3.9 22.9 6.4 30.3 10.2 7.4 24 5.8 30.7-3.5 6.7-9.3 71-111.3 60.7-118.7-10.2-7.5-91.1 82.6-97.8 91.9z m-31 18c11.2-1.5 21.6 7.3 23.2 19.6 1.5 12.3-6.3 23.5-17.6 25-11.2 1.5-129.9 9.5-131.5-2.9-1.6-12.3 114.6-40.2 125.9-41.7z" fill="#E4F4CB" /><path d="M236.1 461.9c34-20.5 236 261.3 249.5 284.3 13.4 23-3.2 58.3-37.3 78.7-34 20.5-72.5 18.4-86-4.6-13.4-22.9-160.2-337.9-126.2-358.4z" fill="#DBF4B8" /><path d="M515 790c-77-3.3-98.8-85.5-144.9-161.4-60.8-21.4-105.3-84.1-106.3-158.8-1-75 42.3-139.1 103-161.9-2.5-10-4.1-20.3-4.2-31-1-78.1 66.2-142.3 150.1-143.4 0.8 0 1.5 0.1 2.3 0.1V790z" fill="#A6DB1E" /><path d="M507 388.4c45.2-0.8 84 392.3 84.2 422.7 0.2 30.4-36.4 55.6-81.6 56.5-45.2 0.8-82-23.1-82.2-53.5-0.2-30.4 34.4-424.9 79.6-425.7z" fill="#EFFBDD" /><path d="M524 551.7c-12 5.4-16.9 20.3-11 33.5 5.9 13.1 20.4 19.4 32.3 14.1 11.9-5.4 133.4-69.4 127.6-82.6-5.9-13.2-136.9 29.6-148.9 35z m-40.8 0.1c11.9 4.9 17.2 19.5 11.7 32.6-5.5 13-19.6 19.6-31.6 14.6-11.9-4.9-133.6-64.7-128.1-77.7 5.4-13.1 136 25.5 148 30.5z" fill="#E4F4CB" /></svg>