<?xml version="1.0" standalone="no"?><!DOCTYPE svg PUBLIC "-//W3C//DTD SVG 1.1//EN" "http://www.w3.org/Graphics/SVG/1.1/DTD/svg11.dtd"><svg class="icon" width="48px" height="48.00px" viewBox="0 0 1024 1024" version="1.1" xmlns="http://www.w3.org/2000/svg"><path d="M739.64595 356.151222c6.672143-3.944956 14.587638-6.667026 19.811762-12.019068 42.401879-43.435447 93.860271-51.473742 147.871883-31.759197 57.925868 21.147214 102.952601 59.655304 111.937481 124.580782 4.73804 34.235667-14.132254 63.963544-37.602438 88.917564-37.750822 40.130075-87.479778 55.710348-129.53884 65.72368 28.126358-27.783541 64.224494-58.86222 94.197971-95.016639 14.710438-17.744626 22.60035-44.315515 25.690821-67.923849 8.416929-64.306361-55.730815-110.909029-121.756378-90.253016-43.768031 13.69222-77.47668 42.995413-106.667306 76.524979-26.187138 30.075811-48.715855 63.344426-72.759107 95.282706-4.333823 5.756258-8.191795 11.875801-17.279009 15.263039 2.471354-6.395843 5.474841-12.638185 7.337311-19.202878 18.010693-63.487693 42.217679-126.044151 52.205426-190.790546 14.730905-95.543657-48.004637-192.090181-137.679468-228.244601-78.781432-31.764313-179.948314 9.568181-223.593544 90.959117-32.322031 60.274422-34.44545 124.181682-18.634927 188.303843 12.755869 51.729576 31.482896 101.985549 47.564603 152.896457 1.708969 5.403208 3.448638 10.796182 6.87681 21.510498-29.502743-40.227292-52.906411-77.712047-81.974237-110.110828-25.839205-28.801759-55.561965-55.628481-87.863529-76.775696-50.36854-32.976965-101.392015-26.432739-134.691331 10.622216-28.924559 32.188997-28.274741 92.279219 6.78471 134.46108 27.885874 33.550032 61.466607 62.362025 88.83058 89.598081-52.026343-2.61462-122.196412-45.937501-148.23005-95.083156C15.298856 464.911248 12.162334 435.301054 24.191635 405.128027c21.106281-52.937111 107.347824-124.811033 193.558667-95.456673 21.761215 7.408944 40.442193 23.664618 60.862839 35.289702 6.656793 3.791456 14.336921 5.786958 21.551432 8.606246-0.127917-7.040544 1.304752-14.546705-0.634468-21.049998-17.688343-59.348304-24.288852-118.103073 3.914256-176.561075 17.330175-35.924169 44.765782-61.666157 78.320931-81.580253 116.358287-69.059751 270.886963-25.481037 341.010983 66.368381 44.121081 57.792835 42.212562 119.474342 19.325678 183.893269-3.167221 8.918363-5.254824 18.220477-7.843861 27.343507C736.054045 353.367751 737.849998 354.759486 739.64595 356.151222z" fill="#4169E1" /><path d="M580.5839 743.422056c15.375606 54.134413 30.346994 109.15401 17.135742 167.028711-6.288393 27.548174-18.706561 51.320242-42.826563 66.711198-43.481497 27.747724-84.680957-0.127917-103.970819-43.36893-11.435767-25.634538-17.401809-55.833148-17.309709-83.949273 0.117684-35.294818 8.959296-70.558937 19.402428-105.398371 0 37.858272-3.765872 76.228212 1.243352 113.411083 3.719822 27.59934 15.130005 55.925249 29.743227 79.881517 21.541198 35.315285 50.404357 36.128836 71.336671 0.450267 15.73889-26.821606 22.283116-59.665537 29.472043-90.631649 3.944956-16.987358 1.396852-35.663219 0.567951-53.520412C584.60049 777.135822 582.24682 760.296847 580.5839 743.422056z" fill="#4169E1" /><path d="M385.096247 691.810163c1.376385 32.659731 3.566322 65.309229 3.924489 97.979194 0.409334 37.464288-3.556089 75.189527-0.3377 112.341698 2.10807 24.299086 13.60012 47.789737 20.835097 71.464588-18.09256-5.505541-31.068446-20.79928-40.508709-39.981692-19.990846-40.63151-14.823005-82.383571-7.470344-125.025933 6.574926-38.134573 9.327697-76.929196 13.809904-115.427052 0.0921-0.787968 0.670284-1.514536 1.023335-2.271803 0.639584 0.409334 1.279169 0.818668 1.923869 1.233118C380.567991 692.019947 382.834677 691.917614 385.096247 691.810163z" fill="#4169E1" /><path d="M656.853046 693.421916c2.578804 22.789667 5.976275 53.300395 9.496547 83.800889 4.359406 37.735472 12.720052 75.522111 12.141868 113.175716-0.573068 37.443822-18.619577 68.798801-61.717324 88.789647 35.023635-48.209304 36.609804-96.740958 31.467546-145.886614C641.441623 768.299325 643.764593 728.26135 656.853046 693.421916z" fill="#4169E1" /></svg>