<?xml version="1.0" standalone="no"?><!DOCTYPE svg PUBLIC "-//W3C//DTD SVG 1.1//EN" "http://www.w3.org/Graphics/SVG/1.1/DTD/svg11.dtd"><svg class="icon" width="48px" height="48.00px" viewBox="0 0 1024 1024" version="1.1" xmlns="http://www.w3.org/2000/svg"><path d="M501.188 613.04l367.547-264.287 23.995 33.37-367.548 264.286z" fill="#A5DC69" /><path d="M525.1 646.4l-13.6-19 371.8-258.2 9.4 13z" fill="#7FAA43" /><path d="M498.591 615.783l344.403-356.8 29.571 28.543-344.402 356.8z" fill="#46C373" /><path d="M528.1 644.3l-16.6-16.9L861.6 277l10.9 10.5z" fill="#37A057" /><path d="M549.4 634l-52.2-20 179.1-335.5 48.6 26.8z" fill="#A5DC69" /><path d="M278 809.3l231-214.2 40.3 38.9-206 238.4c-17.1 19.8-47.4 21.1-66.1 2.8-18.6-18.2-18.3-48.2 0.8-65.9z" fill="#D6EDE5" /><path d="M536 621l13.4 12.9-206 238.4c-17.1 19.8-47.4 21.1-66.1 2.8C347.5 812.2 536 621 536 621z" fill="#C1D3CD" /><path d="M282.6 898.2l-6.5 12.9" fill="#FFFFFF" /><path d="M276.1 921.1c-1.5 0-3-0.3-4.5-1.1-4.9-2.5-6.9-8.5-4.5-13.4l6.5-12.9c2.5-4.9 8.5-6.9 13.4-4.5 4.9 2.5 6.9 8.5 4.5 13.4l-6.5 12.9c-1.7 3.6-5.2 5.6-8.9 5.6z" fill="#848484" /><path d="M252.1 871.3l-10.7 6.2" fill="#FFFFFF" /><path d="M241.4 887.5c-3.4 0-6.8-1.8-8.6-4.9-2.8-4.8-1.2-10.9 3.6-13.7l10.6-6.3c4.8-2.8 10.9-1.2 13.7 3.6 2.8 4.8 1.2 10.9-3.6 13.7l-10.6 6.3c-1.6 0.9-3.3 1.3-5.1 1.3z" fill="#848484" /><path d="M264.7 888.4l-10.9 8.4" fill="#FFFFFF" /><path d="M253.9 906.8c-3 0-5.9-1.3-7.9-3.8-3.4-4.3-2.6-10.6 1.7-14l10.8-8.5c4.3-3.4 10.6-2.6 14 1.7 3.4 4.3 2.6 10.6-1.7 14l-10.8 8.5c-1.8 1.4-4 2.1-6.1 2.1z" fill="#848484" /><path d="M340.8 829.1c-2.5 0-5-0.9-6.9-2.8-4-3.8-4.1-10.1-0.3-14.1l53.2-55.6c3.8-4 10.1-4.1 14.1-0.3s4.1 10.1 0.3 14.1L348 826.1c-1.9 2-4.6 3-7.2 3zM308.2 863.2c-2.5 0-5-0.9-6.9-2.8-4-3.8-4.1-10.1-0.3-14.1l4.1-4.3c3.8-4 10.1-4.1 14.1-0.3s4.1 10.1 0.3 14.1l-4.1 4.3c-1.9 2.1-4.6 3.1-7.2 3.1z" fill="#FFFFFF" /><path d="M415.594 512.312l318.269-380.306 31.52 26.378-318.27 380.306z" fill="#46C373" /><path d="M447.1 538.7L429.3 523l324.5-374.4 11.6 9.8z" fill="#37A057" /><path d="M467.6 526.9l-53.5-16.3L569 163.3l50.4 23.3z" fill="#A5DC69" /><path d="M209.3 720.9l215.3-230 42.9 35.9-188.6 252.4c-15.7 21-45.8 24.4-65.8 7.5-19.8-16.8-21.6-46.8-3.8-65.8z" fill="#D6EDE5" /><path d="M453.3 514.9l14.3 11.9-188.7 252.4c-15.7 21-45.8 24.4-65.8 7.5 65.7-67.8 240.2-271.8 240.2-271.8z" fill="#C1D3CD" /><path d="M220.2 809.3l-5.6 13.3" fill="#FFFFFF" /><path d="M214.6 832.6c-1.3 0-2.6-0.2-3.8-0.8-5.1-2.1-7.5-8-5.4-13.1l5.5-13.4c2.1-5.1 8-7.5 13.1-5.4 5.1 2.1 7.5 8 5.4 13.1l-5.5 13.4c-1.6 3.9-5.3 6.2-9.3 6.2z" fill="#848484" /><path d="M187.8 784.6l-10.2 7" fill="#FFFFFF" /><path d="M177.6 801.6c-3.2 0-6.3-1.5-8.2-4.3-3.1-4.6-2-10.8 2.6-13.9l10.2-7c4.5-3.1 10.8-2 13.9 2.6 3.1 4.6 2 10.8-2.6 13.9l-10.2 7c-1.7 1.1-3.7 1.7-5.7 1.7z" fill="#848484" /><path d="M201.6 800.8l-10.2 9.2" fill="#FFFFFF" /><path d="M191.4 820c-2.7 0-5.4-1.1-7.4-3.3-3.7-4.1-3.4-10.4 0.7-14.1l10.2-9.2c4.1-3.7 10.4-3.4 14.1 0.7 3.7 4.1 3.4 10.4-0.7 14.1l-10.2 9.2c-1.9 1.7-4.3 2.6-6.7 2.6z" fill="#848484" /><path d="M272.6 736.3c-2.3 0-4.5-0.8-6.4-2.3-4.3-3.5-4.8-9.8-1.3-14.1l49.1-59.2c3.5-4.3 9.8-4.8 14.1-1.3 4.3 3.5 4.8 9.8 1.3 14.1l-49.1 59.2c-2 2.4-4.8 3.6-7.7 3.6zM242.5 772.6c-2.3 0-4.5-0.8-6.4-2.3-4.3-3.5-4.8-9.8-1.3-14.1l3.8-4.5c3.5-4.3 9.8-4.8 14.1-1.3s4.8 9.8 1.3 14.1l-3.8 4.5c-2 2.4-4.8 3.6-7.7 3.6z" fill="#FFFFFF" /></svg>