<?xml version="1.0" standalone="no"?><!DOCTYPE svg PUBLIC "-//W3C//DTD SVG 1.1//EN" "http://www.w3.org/Graphics/SVG/1.1/DTD/svg11.dtd"><svg class="icon" width="48px" height="48.00px" viewBox="0 0 1024 1024" version="1.1" xmlns="http://www.w3.org/2000/svg"><path d="M958.464 182.272c-0.512-14.336-13.824-20.48-25.088-17.408-15.872-31.744-59.904-92.16-97.792-66.048l-1.536 1.536-0.512-0.512c-27.648-24.576-73.216-47.104-110.08-51.2-6.656-1.024-12.8 4.096-16.384 9.216-1.536 2.56-3.072 5.632-4.608 8.192-1.536-1.024-3.072-1.536-4.608-2.048-27.648-7.68-55.296-15.872-82.944-23.552-9.216-2.56-19.968 3.072-23.04 12.288-52.224-10.752-123.392-23.04-128 47.104-8.192 122.368-24.064 243.712-29.696 366.592-3.584 11.264 2.048 25.088 16.896 23.552 80.384-7.168 159.744-25.6 239.104-38.912 76.288-12.288 152.064-17.408 228.864-18.432 0 1.024-0.512 2.048-0.512 3.072 0 23.04 6.656 60.416-1.024 81.92 7.168 18.944-0.512 26.624-22.528 22.528-15.36 2.56-31.232 5.12-47.104 7.68-56.832 8.192-114.688 2.56-171.52 11.264-28.672 4.608-55.808 13.824-84.992 16.384-16.896 1.536-33.28-2.048-49.152 4.096-40.448 15.36-74.752 65.024-105.984 93.696-41.472 37.888-83.968 74.752-127.488 110.08-26.112 21.504-57.344 55.296-94.72 54.784-52.224-0.512-76.8-49.664-48.64-90.624 28.672-41.984 85.504-74.752 123.904-109.056 43.008-38.4 84.48-77.824 125.44-118.272 17.408-16.896-9.216-43.52-26.624-26.624-55.808 55.296-113.152 109.056-173.056 159.744-37.888 32.256-105.472 71.168-103.936 129.024 0 6.656 1.536 13.824 3.072 19.968-33.28-2.56-66.56 9.728-89.6 35.328-15.872 17.92 10.24 44.544 26.624 26.624 16.896-18.944 39.424-27.136 63.488-24.064-4.608 4.608-11.264 9.728-14.336 12.288-8.192 7.68-15.36 15.872-20.48 25.6-11.264 21.504 20.992 40.448 32.256 18.944 6.144-11.264 17.408-19.968 27.136-29.184 1.024 16.384-0.512 32.768-4.096 49.152-5.632 23.552 30.72 33.28 36.352 9.728 3.072-13.824 5.12-27.136 5.632-40.96 9.216 17.92 15.872 36.352 14.336 57.344-1.536 24.064 35.84 24.064 37.376 0 1.536-24.576-5.632-47.104-15.872-68.608 32.256 0.512 59.904-15.872 88.064-37.376 65.536-49.664 127.488-104.96 187.392-161.28 33.792-31.744 55.808-58.368 103.936-63.488 42.496-4.608 82.944-17.408 125.44-19.456 37.376-2.048 74.24-1.024 112.128-5.632 29.696-3.584 76.8-3.584 103.424-17.408C972.8 548.864 955.904 473.088 956.416 435.2c0-1.024 0-2.048-0.512-3.072h16.384c11.776 0 21.504-12.288 17.92-23.552-8.704-29.696-15.36-59.392-19.456-90.112 13.312-4.096 24.576-10.24 28.672-21.504 16.896-37.888-39.936-79.36-40.96-114.688z m-111.104-40.448c11.264-10.24 4.608-9.728 17.92-3.584 13.824 6.656 24.576 22.528 32.256 37.376-20.48 5.12-40.96 10.752-59.392 18.944-22.016 9.728-41.472 23.552-61.952 36.864 15.36-22.528 31.744-44.032 49.664-65.024 6.656-7.68 13.824-17.408 21.504-24.576z m-134.656 18.944c4.096-13.824 10.24-58.368 22.016-66.56 11.264-7.168 64.512 25.6 72.192 32.768-13.824 16.384-26.112 34.304-37.888 49.152-22.528 28.672-42.496 59.392-58.88 92.16-10.752 6.144-20.992 12.8-30.208 19.968 8.192-43.52 19.968-85.504 32.768-127.488zM532.992 438.272c-2.048 1.536-3.584 3.584-4.608 5.12-18.432 3.072-36.864 5.632-55.296 7.68 4.096-75.264 10.752-148.992 20.992-223.744 5.12-35.84 4.608-71.68 8.192-107.52 1.536-19.456 0-29.184 17.408-37.376 15.872-7.68 52.224 4.096 72.192 9.216-1.536 113.152-39.936 218.624-40.96 332.8-5.632 4.096-11.776 8.704-17.92 13.824z m72.704-49.152c-5.632 3.072-10.752 6.144-15.872 9.216 6.144-107.008 40.448-206.336 40.448-314.368 19.456 5.632 38.912 11.264 58.368 16.384-9.728 29.184-15.872 61.44-23.04 87.04-13.312 46.592-23.552 93.696-27.648 142.336-11.776 15.36-22.016 32.768-30.72 53.248-1.024 2.56-1.536 4.096-1.536 6.144z m117.248 20.48c-37.376 5.632-74.752 12.8-112.64 19.456 90.112-54.784 197.632-79.36 300.032-100.352 6.656-1.536 15.36-2.048 24.576-3.072 3.072 23.552 7.68 47.104 13.312 70.144-75.264 0-150.016 2.56-225.28 13.824z m230.4-127.488c-9.216 11.264-69.632 13.824-84.992 16.896-30.72 6.656-60.928 13.824-91.136 22.528-40.96 12.288-80.384 25.088-117.248 40.96 33.792-49.152 84.992-64 136.704-97.792 44.032-29.184 83.456-44.544 132.096-57.856 13.824 26.624 38.4 58.368 24.576 75.264z" fill="#4169E1" /></svg>