<?xml version="1.0" standalone="no"?><!DOCTYPE svg PUBLIC "-//W3C//DTD SVG 1.1//EN" "http://www.w3.org/Graphics/SVG/1.1/DTD/svg11.dtd"><svg class="icon" width="48px" height="48.00px" viewBox="0 0 1024 1024" version="1.1" xmlns="http://www.w3.org/2000/svg"><path d="M875.264 274.7392c2.4064-16.7936-3.584-35.1744-15.6672-47.9744-4.8128-5.12-11.7248-10.5984-21.2992-14.4896 9.0624-10.9568 16.5376-24.4736 18.6368-38.656 2.0992-14.2848 0.2048-41.3184-36.5056-61.5936-22.9888-12.6976-44.1344-14.9504-62.8736-6.656-13.4656 5.9392-23.1936 16.5376-30.0032 27.136-13.824-15.2064-37.4272-27.904-75.008-26.3168-17.92 0.768-34.2528 8.0896-48.0256 21.2992-20.2752-21.1456-50.0736-22.016-73.3696-16.9472-1.2288-17.3568-6.1952-40.6528-22.4768-56.32-9.5232-9.1648-26.8288-19.2-55.5008-14.8992-24.576 3.6864-41.7792 14.2336-51.2 31.3856-7.8336 14.2336-8.448 30.0032-6.7072 43.1104-10.752-1.28-23.3472-0.8192-35.5328 4.1984-16.2816 6.7072-28.0576 19.8656-34.9696 39.1168-2.2528 6.2976-3.584 12.4928-4.096 18.5856-5.2736 3.0208-9.8304 6.8608-13.824 11.008-21.9648-19.8656-49.152-29.3888-76.8512-26.3168-24.1664 2.6624-44.4416 14.7968-52.8896 31.6416-13.2608 26.5216-9.6768 55.0912 8.3968 78.2336-14.2848 5.0688-30.208 13.7216-39.7312 28.3136-6.2976 9.6768-12.288 25.9584-4.8128 48.8448 8.0896 24.9344 23.2448 35.84 34.4576 40.6016 5.888 2.5088 11.8784 3.8912 17.7664 4.5056-1.2288 3.072-2.2016 6.2976-2.9184 9.728-3.5328 17.3056 1.3824 34.7136 14.592 51.8144 11.3664 14.7456 26.5216 23.8592 44.4416 27.136-13.7216 48.128-15.2064 103.9872-2.304 157.5936 16.128 66.9184 69.12 188.5184 243.2512 251.0848 0.2048 0.0512 0.3584 0.1536 0.5632 0.2048 35.9936 11.3664 53.76 18.2784 60.8256 32.4096 10.6496 21.248 30.9248 40.448 54.3232 51.3024 4.5568 2.1504 9.472 3.1744 14.3872 3.1744a33.87392 33.87392 0 0 0 33.8432-31.0784c2.048-24.9344 19.712-57.6 37.7856-69.8368 2.9696-1.9968 8.0896-4.9664 14.0288-8.3968 46.2848-26.5728 169.216-97.2288 165.5808-242.6368-0.9216-37.12-8.2432-74.2912-21.6576-110.4896-2.9696-7.936-11.8272-12.032-19.7632-9.0624-7.936 2.9696-12.032 11.776-9.0624 19.7632 12.2368 33.0752 18.8928 66.9184 19.7632 100.608 3.2256 127.0784-104.2432 188.8768-150.1696 215.2448-6.7584 3.8912-12.0832 6.9632-15.9744 9.5744-25.856 17.5616-48.3328 58.3168-51.2 92.7744-0.1024 1.0752-0.6144 1.8432-1.536 2.4064-0.6656 0.4096-1.792 0.768-3.1232 0.1024-25.6512-11.9296-36.9664-31.4368-39.7824-37.1712-13.6192-27.2384-43.776-36.864-78.7456-47.872-160.3072-57.7024-208.8448-168.3968-223.488-229.2736-13.2608-55.04-9.984-112.3328 7.0656-158.4128 0.3072-0.6656 0.512-1.3312 0.7168-2.048 8.2432-21.6064 19.5584-40.704 33.7408-55.808 83.4048-88.832 181.6064-97.7408 186.624-98.0992 3.5328-0.1024 7.0144-0.1536 10.496-0.1536 152.32 0 233.7792 85.5552 269.1584 137.4208 4.7616 7.0144 14.336 8.8064 21.3504 4.0448 7.0144-4.7616 8.8064-14.336 4.0448-21.3504a357.57056 357.57056 0 0 0-35.6864-44.3392c17.2544 5.7344 37.0176 7.168 52.2752-7.2704 10.8032-10.24 16.4352-22.9888 16.2816-36.864-0.1024-9.5744-2.8672-19.2512-8.2432-28.9792 6.7072-1.1264 12.6976-3.3792 18.0736-6.7584 12.2368-7.7824 20.0704-21.0432 22.528-38.2976zM295.8848 394.3936c-14.848 15.8208-26.9824 35.4304-36.3008 57.344-12.8-1.0752-22.8864-6.4-30.5152-16.3328-7.5264-9.7792-10.4448-18.5344-8.8064-26.7776 2.4576-12.4416 15.2576-22.272 19.8656-24.9344 7.2192-4.096 9.9328-13.1584 6.0416-20.5312a15.34464 15.34464 0 0 0-20.3264-6.656c-5.632 2.7648-24.7296 9.2672-38.5536 3.4304-7.8848-3.328-13.5168-10.496-17.2544-21.8112-3.9936-12.2368-1.1776-18.688 1.3312-22.4768 9.472-14.592 37.888-20.5824 47.0528-21.504 6.4512-0.6144 11.776-5.2224 13.3632-11.52s-0.9216-12.8512-6.2464-16.4864c-23.9104-16.2304-31.744-38.7584-21.0432-60.16 2.9696-5.9392 13.2608-13.1584 28.7744-14.848 10.8032-1.1776 38.5024-0.768 62.5664 28.8256 3.072 3.7376 7.7824 5.888 12.544 5.632 4.864-0.2048 9.3184-2.6624 12.032-6.656 2.56-3.7376 4.9664-6.8096 7.2704-9.3696 5.5808 10.1376 13.6192 18.0224 21.8624 24.0128-6.144 4.1984-12.032 9.6256-16.64 16.64-6.6048 10.0352-13.056 27.2896-5.9392 52.4288 4.4544 15.7184 14.6944 28.8768 30.5152 39.2704a358.47168 358.47168 0 0 0-61.5936 52.48z m207.36-107.776c-3.072 0.2048-53.8112 3.6864-115.3024 36.7104-17.5104-7.5264-28.1088-17.3568-31.4368-29.184-3.1744-11.3152-2.56-20.1728 1.9456-27.0336 7.4752-11.4176 24.9344-16.128 30.976-16.9472 7.2704-0.9216 12.9024-6.8608 13.3632-14.1824s-4.2496-13.9776-11.3152-15.872c-7.168-1.9456-29.44-10.9056-37.376-26.1632-3.9424-7.5776-4.096-16.2304-0.4608-26.3168 3.8912-10.8544 9.6768-17.7664 17.7152-21.0944 13.9776-5.888 32.9728 0.2048 39.0144 2.9696 5.7856 2.7648 12.6976 1.5872 17.3056-2.9184 4.608-4.5056 5.888-11.3664 3.2768-17.2032-3.0208-6.8096-9.8816-29.4912-2.048-43.8272 4.5568-8.2944 14.2336-13.6192 28.8256-15.7696 13.2608-1.9968 22.8864 0.2048 29.5936 6.6048 13.9776 13.3632 14.1312 43.264 13.0048 53.6064-0.6144 5.4784 1.7408 10.9056 6.2464 14.1312 4.4544 3.2768 10.3424 3.84 15.36 1.5872 0.4608-0.2048 48.128-21.2992 65.8944 10.496 17.8176 31.8976-6.7072 54.1184-9.472 56.4736-4.9664 4.096-6.8096 10.8544-4.7104 16.9472s7.8336 10.1888 14.2848 10.24c3.5328 0.0512 34.5088 1.28 34.5088 29.7472 0 9.5744-5.12 18.6368-15.2576 26.88-0.2048 0.1536-0.3072 0.3072-0.4608 0.4608-32.5632-7.7312-67.1744-11.264-103.4752-10.3424z m341.6064-16.2304c-0.8192 5.632-2.9696 13.1072-8.6016 16.6912-6.4512 4.096-17.664 3.7888-32.4096-0.768a15.4112 15.4112 0 0 0-17.92 7.0656c-3.584 6.2464-2.3552 14.1312 3.0208 18.9952 14.7968 13.4656 23.04 26.5216 23.1424 36.7616 0.0512 5.2736-2.1504 9.9328-6.7072 14.2336-6.912 6.5536-23.1424 2.2528-48.1792-12.8a15.39584 15.39584 0 0 0-16.7424 0.6144c-2.3552 1.6896-4.1472 3.9424-5.2736 6.5024-28.6208-22.016-60.5184-39.1168-95.232-51.0464 8.6528-11.2128 13.2096-23.7568 13.2096-37.0176 0-31.232-18.5856-47.4624-37.6832-54.9888 8.4992-15.4112 13.4656-36.2496 5.3248-59.5968 9.6256-11.6224 20.4288-17.5616 33.024-18.0736 52.1216-2.2528 59.0336 29.44 59.648 32.8704a15.4112 15.4112 0 0 0 14.4384 13.2096c7.3728 0.3584 13.9776-4.5568 15.7184-11.7248 1.9968-8.1408 10.6496-30.8736 26.4192-37.7856 9.472-4.1472 21.4528-2.304 35.5328 5.4784 22.2208 12.288 21.4528 24.2176 21.1968 28.1088-1.2288 18.7904-23.1936 37.9904-29.3888 40.6016a15.35488 15.35488 0 0 0-11.3664 17.152c1.1776 8.0384 8.5504 13.6704 16.4864 13.056 15.4112-1.28 27.392 2.1504 34.7648 9.984 6.912 7.2704 8.3968 16.6912 7.5776 22.4768z" fill="#4169E1" /><path d="M756.0704 682.496a15.40096 15.40096 0 0 0 18.8416-10.9056c20.7872-77.8752-14.4384-151.5008-47.616-199.5264a15.31392 15.31392 0 0 0-21.3504-3.8912 15.31392 15.31392 0 0 0-3.8912 21.3504c29.4912 42.752 60.928 107.6224 43.2128 174.1824-2.2528 8.192 2.6112 16.64 10.8032 18.7904zM692.48 428.9536a15.36 15.36 0 0 0-21.7088 0 15.36 15.36 0 0 0-0.0512 21.7088c0.1536 0.1536 2.048 2.048 5.12 5.5296 3.0208 3.3792 7.2192 5.12 11.4688 5.12 3.6352 0 7.3216-1.28 10.24-3.8912 6.2976-5.632 6.8608-15.36 1.1776-21.7088-3.8912-4.4032-6.2464-6.7584-6.2464-6.7584z" fill="#4169E1" /></svg>