<?xml version="1.0" standalone="no"?><!DOCTYPE svg PUBLIC "-//W3C//DTD SVG 1.1//EN" "http://www.w3.org/Graphics/SVG/1.1/DTD/svg11.dtd"><svg class="icon" width="48px" height="48.00px" viewBox="0 0 1024 1024" version="1.1" xmlns="http://www.w3.org/2000/svg"><path d="M813.1584 414.6688c0-8.4992-6.912-15.3088-15.36-15.3088h-0.0512c-8.4992 0-15.36 6.912-15.3088 15.4112 0.3584 144.6912-15.616 323.072-61.4912 390.656-5.12 5.4784-35.7888 19.1488-72.704 21.0944-25.1392 1.28-44.7488-3.6352-55.3472-13.9264-16.3328-15.872-28.6208-38.3488-36.6592-66.7648-0.512-1.792-1.3824-3.4304-2.4064-4.864 109.7728-172.4928 158.7712-416.4608 164.0448-443.9552 10.496-54.6816 5.4784-93.3888-15.8208-119.6032 45.0048 3.2768 71.1168 52.6336 77.568 147.1488 0.512 7.1168 0.9216 14.8992 1.28 23.2448 0.3584 8.2432 7.168 14.6432 15.36 14.6432h0.7168a15.33952 15.33952 0 0 0 14.6432-16.0256c-0.4096-8.6016-0.8192-16.64-1.3312-23.9616-7.8848-115.6096-45.312-174.848-111.1552-176.0768-1.1264 0-2.1504 0.0512-3.2768 0.0512 12.9536-22.9376 31.232-43.52 40.448-52.3776a15.35488 15.35488 0 0 0-7.936-26.1632l-36.3008-6.5536c-3.1744-0.5632-6.4512-0.1536-9.3696 1.28-33.9968 16.3328-58.112 46.0288-72.0896 67.4816-28.5696-2.816-69.888 5.2224-119.1424 49.7152C410.4192 253.0816 334.08 412.5184 305.0496 477.696c-18.8416 42.1888-36.096 85.4528-49.9712 125.1328a15.33952 15.33952 0 0 0 14.4896 20.4288c6.3488 0 12.288-3.9424 14.4896-10.2912 13.568-38.8608 30.5664-81.3056 49.0496-122.7264 58.8288-131.9936 125.7984-239.5136 179.0464-287.5904 33.9456-30.6688 61.952-40.6528 82.9952-42.0352-0.2048 2.816 0.256 5.6832 1.536 8.2432 1.536 2.9696 16.4864 29.4912 66.9696 36.9664a15.42656 15.42656 0 0 0 12.1856-3.4816c1.4336-1.1776 2.5088-2.6624 3.4304-4.2496 11.3152 14.7456 18.5856 40.7552 8.4992 93.2352-18.8416 98.304-74.24 301.056-162.4064 437.4016-11.8272 18.2784-24.0128 35.0208-36.3008 49.8176-90.9312 109.7728-125.8496 95.3344-156.6208 82.6368-5.7344-2.3552-11.6736-4.8128-17.8688-6.656-24.7296-7.3216-90.5216-26.8288-53.0944-168.8064 2.1504-8.192-2.7136-16.5888-10.9568-18.7904-8.192-2.2016-16.5888 2.7136-18.7904 10.9568-20.992 79.616-14.8992 137.472 17.92 172.9536-21.6576 4.4544-41.984 16.7936-50.2272 31.0784-4.864 8.3968-5.5808 17.408-2.0992 25.344 9.1648 20.6336 61.6448 42.5984 84.0704 39.5776 7.5776 3.4816 27.392 22.6304 43.8784 42.4448 3.0208 3.6352 7.3728 5.5296 11.8272 5.5296 2.8672 0 5.7856-0.8192 8.3968-2.5088 1.28-0.8704 31.7952-21.2992 20.1728-63.9488-2.816-10.24-4.7616-19.6096-5.9392-28.1088 2.56 0.256 5.1712 0.4096 7.8336 0.4096 35.6864 0 78.7456-22.4768 145.1008-102.5536 6.7072-8.0896 13.3632-16.7424 19.968-25.856 9.4208 25.344 22.3744 46.336 38.8096 62.3616 7.2704 7.1168 15.872 12.1344 25.0368 15.616-0.512 4.608-1.536 6.8608-2.048 7.7312-3.1744 5.4272-11.776 14.1824-19.3536 21.8624-18.7392 19.1488-33.5872 34.2528-27.8016 50.5856 2.0992 5.9904 7.68 13.5168 22.272 15.3088 3.5328 0.4096 6.912 0.6144 10.1888 0.6144 16.1792 0 29.7472-4.608 41.0112-8.448 8.2432-2.816 16.0768-5.4784 20.2752-4.352 3.1744 0.8192 6.912 2.048 10.9568 3.328 20.4288 6.5024 41.5744 13.2096 55.5008 3.0208 6.2464-4.5568 9.6768-11.7248 9.6768-20.1728 0-15.7696-8.2432-29.4912-14.8992-40.5504-2.5088-4.1984-6.3488-10.496-6.656-12.3904 0-3.1232 0.4096-9.984 0.8192-17.3568 21.4016-5.9392 40.6528-14.7456 48.7936-25.088 0.2048-0.256 0.4096-0.5632 0.6144-0.8192 63.1808-91.904 67.4816-336.128 67.328-408.832z m-184.4736-254.976c8.704-15.7184 30.3616-49.5104 63.1296-67.2256l3.8912 0.7168c-15.6672 18.944-36.096 48.3328-42.8544 78.7968-12.3904-3.584-19.9168-8.5504-24.1664-12.288zM336.0256 936.448c2.1504 7.8336 1.6896 13.9776 0.3072 18.6368-39.1168-43.3152-53.8624-40.2432-59.9552-38.5024-9.3184 0.9216-40.8064-12.3392-49.6128-20.48 3.8912-5.12 17.6128-14.2336 34.5088-16.0256a43.3664 43.3664 0 0 0 18.6368-6.4512c7.8848 4.096 16.4864 7.5264 25.856 10.2912 4.6592 1.3824 9.6256 3.4304 14.848 5.5808 2.4576 1.024 4.9152 1.9968 7.3728 2.9184v0.4096c0.9216 12.7488 3.6352 27.4432 8.0384 43.6224z m339.968-41.5232c3.7376 6.1952 7.8336 13.0048 9.6256 19.0976-7.168-1.0752-18.176-4.608-24.2688-6.5024-4.5568-1.4336-8.8576-2.816-12.4416-3.7376-13.1072-3.4304-25.7536 0.8192-37.9392 4.9664-8.704 2.9696-17.5616 5.9904-27.2384 6.656 4.2496-4.8128 9.5232-10.1888 13.4144-14.1312 9.6256-9.8304 18.7392-19.1488 23.8592-27.7504 2.7648-4.7104 4.5568-10.2912 5.5808-16.7424a166.36928 166.36928 0 0 0 25.9072 0.2048c4.1472-0.256 8.4992-0.7168 12.9024-1.28-0.256 4.5568-0.4096 8.3968-0.4096 10.9568-0.0512 9.9328 5.3248 18.8416 11.008 28.2624z" fill="#4169E1" /><path d="M482.4064 306.6368c-7.168-4.5056-16.64-2.304-21.1456 4.864-34.048 54.272-71.3728 140.2368-113.1008 238.7456-3.328 7.8336 0.3584 16.8448 8.1408 20.1216a15.3344 15.3344 0 0 0 20.1216-8.1408c41.216-97.28 78.0288-182.0672 110.848-234.3936 4.5056-7.2192 2.304-16.6912-4.864-21.1968zM493.6192 289.1264c2.6112 1.7408 5.5808 2.56 8.4992 2.56 4.9664 0 9.8304-2.4064 12.8-6.8608 6.0928-9.1648 9.6256-14.2336 9.6768-14.336 4.864-6.9632 3.1232-16.5376-3.84-21.3504a15.37024 15.37024 0 0 0-21.4016 3.84s-3.6864 5.2736-10.0352 14.848c-4.6592 7.0656-2.7648 16.64 4.3008 21.2992z" fill="#4169E1" /></svg>