<?xml version="1.0" standalone="no"?><!DOCTYPE svg PUBLIC "-//W3C//DTD SVG 1.1//EN" "http://www.w3.org/Graphics/SVG/1.1/DTD/svg11.dtd"><svg class="icon" width="48px" height="48.00px" viewBox="0 0 1024 1024" version="1.1" xmlns="http://www.w3.org/2000/svg"><path d="M737.7 312.61c-6.25-6.25-3.97-14.73 0-22.63 8.54-16.97 34.53-33.98 50.17-50.17 4.98-5.16 15.39-17.95 15.43-26.86 0.01-2.18-0.63-3.66-2.3-5.33-6.25-6.25-6.25-16.37 0-22.63s16.37-6.25 22.63 0c7.72 7.72 11.76 17.48 11.67 28.24-0.2 24.66-22.48 46.88-24.98 49.38-16.59 16.59-46.37 54.4-46.37 54.4-6.25 6.26-20 1.86-26.25-4.4z" fill="#5D985B" /><path d="M846.55 420.53c0.81-11.23 9.73-23.08 7.6-34.57-1.99-10.71-14.44-18.78-19.23-29.83-4.26-9.84-1.25-24.37-7.9-34.57-3.05-4.68-8.45-7.85-14.03-11.13-0.25-1.55-0.66-3.01-1.35-4.3-2.58-4.85-9.54-6.47-15.09-9.58-4.92-8.49-6.35-20.86-13.85-28.38 0 0 0-0.01-0.01-0.01-7.51-7.51-19.9-8.92-28.38-13.85-3.11-5.55-4.72-12.51-9.58-15.09-1.28-0.68-2.72-1.09-4.25-1.34-3.25-5.54-6.39-10.91-11.03-13.94-10.17-6.65-24.69-3.64-34.5-7.91-10.99-4.78-18.97-17.23-29.62-19.24-11.46-2.16-23.32 6.71-34.53 7.48-11.22 0.77-24.09-6.44-35.2-3.01-10.52 3.24-17.42 16.48-27.97 21.86-9.73 4.97-24.36 2.53-34.21 9.12-9.13 6.11-12.69 20.63-22 27.97-8.67 6.84-23.58 6.81-32.47 14.6-8.35 7.31-10.36 22.13-18.96 30.17-8.12 7.6-22.99 8.56-31.38 16.72-7.99 7.78-9.38 22.64-17.64 30.85-7.95 7.9-22.81 9.18-31.05 17.42-8.85 8.85-10.56 24.6-19.03 33.99-8.41 9.32-23.89 12.63-31.87 22.39-7.97 9.75-8.15 25.59-15.64 35.68-7.53 10.14-22.65 14.88-29.65 25.27-7.08 10.5-5.79 26.29-12.27 36.94-6.6 10.86-21.2 16.98-27.12 27.88-6.09 11.21-3.25 26.77-8.56 37.91-5.52 11.59-19.39 19.24-24 30.63-4.85 11.98-0.17 27.09-3.93 38.71-4.02 12.38-16.64 21.96-19.33 33.74-2.92 12.8 4.41 26.77 3.17 38.65-1.38 13.24-11.25 25.68-10.38 37.46 0.99 13.37 12.76 23.67 16.9 34.71 4.57 12.23 3.26 27.95 12.01 36.7 8.73 8.72 24.41 7.39 36.59 11.96 11.02 4.14 21.27 15.92 34.62 16.92 11.78 0.88 24.25-8.97 37.5-10.34 11.93-1.24 25.94 6.09 38.8 3.16 11.8-2.69 21.39-15.32 33.78-19.34 11.6-3.77 26.71 0.92 38.68-3.92 11.4-4.61 19.05-18.48 30.64-24.01 11.17-5.32 26.76-2.5 37.99-8.6 10.92-5.94 17.06-20.54 27.93-27.16 10.66-6.49 26.44-5.2 36.95-12.29 10.38-7 15.11-22.1 25.24-29.63 10.07-7.49 25.9-7.66 35.64-15.62 9.74-7.97 13.04-23.44 22.35-31.84 9.37-8.45 25.11-10.15 33.94-18.99 8.25-8.25 9.54-23.11 17.44-31.07 8.24-8.29 23.11-9.69 30.91-17.7 8.14-8.36 9.08-23.21 16.65-31.31 8.01-8.56 22.8-10.55 30.08-18.86 7.76-8.86 7.7-23.72 14.51-32.36 7.31-9.26 21.8-12.75 27.88-21.83 6.61-9.85 4.2-24.48 9.18-34.21 5.39-10.52 18.64-17.38 21.91-27.87 3.47-11.08-3.69-23.97-2.88-35.19z" fill="#95BD65" /><path d="M207.5 813.24c-1.24-8.15-8.8-14.23-7.05-24.87 1.54-9.37 11.9-21.32 15.55-32.29 3.27-9.85 0-19.75 4.81-30.67 4.43-10.05 16.47-20.21 22.08-30.99 5.26-10.12 4.36-21.45 10.57-32.07 5.9-10.09 18.58-18.92 25.25-29.35 6.42-10.03 7.1-22.08 14.16-32.32 6.87-9.96 19.85-17.69 27.27-27.74 7.28-9.86 9.25-22.38 16.98-32.24 7.65-9.74 20.78-16.46 28.81-26.1 7.99-9.59 11.16-22.45 19.47-31.86 8.32-9.42 21.48-15.05 30.06-24.2 8.64-9.21 13.03-22.29 21.88-31.14 8.24-8.24 20.51-12.12 28.45-20.02 8.26-8.23 12.22-20.52 20.16-28.33 8.34-8.21 20.56-11.82 28.58-19.52 8.49-8.15 12.95-20.52 21.1-28.03 8.69-8 20.74-10.82 29.06-18.01 8.94-7.72 14.59-20.15 23.14-26.83 9.23-7.22 20.6-8.03 29.42-13.91 9.56-6.37 17.67-18.39 26.8-23.03 9.64-4.89 18.68-1.52 27.91-4.28 9.21-2.76 20.5-12.21 29.36-12.64 8.23-0.41 12.32 8.15 20.3 9.92 7.13 1.58 19.45-3.62 26.41-0.18 0.16 0.08 0.3 0.19 0.46 0.28-1.04-1.51-2.24-2.78-3.78-3.6-7.54-4.01-20.25 0.8-27.86-1.26-8.52-2.3-13.3-11.56-21.96-11.58-9.32-0.03-20.71 9.32-30.28 11.72-9.58 2.41-19.3-1.65-29.21 2.98-9.38 4.39-17.27 16.63-27.01 22.82-8.99 5.72-20.93 5.95-30.28 13.06-8.65 6.58-13.93 19.38-22.94 27.04-8.39 7.13-20.95 9.44-29.67 17.4-8.18 7.47-12.21 20.28-20.71 28.41-8.04 7.68-20.73 10.82-29.08 19.02-7.96 7.81-11.45 20.56-19.71 28.78-7.94 7.91-20.67 11.32-28.91 19.56-8.85 8.85-12.76 22.4-21.37 31.64-8.55 9.18-22.13 14.4-30.38 23.88-8.25 9.47-10.88 22.86-18.78 32.54-7.94 9.73-21.43 16.1-28.96 25.96-7.62 9.97-9.01 23.07-16.14 33.07-7.27 10.19-20.54 17.64-27.24 27.77-6.89 10.41-6.94 23.08-13.17 33.31-6.47 10.63-19.36 19.25-25.03 29.57-5.97 10.86-4.39 22.87-9.39 33.25-5.33 11.07-17.47 21.12-21.59 31.48-4.47 11.25-0.47 21.88-3.38 32.09-3.24 11.38-13.51 23.42-14.62 33.22-1.26 11.12 7.05 17.96 8.8 26.62 1.94 9.59-1.63 23.06 4.37 29.07-5.4-5.41-1.34-18.38-2.71-27.4zM760.16 261.17c5.35 4.03 17.25 1.72 22.53 7-5.87-5.87-18.3-4.08-24.16-8.62-0.09-0.07-0.18-0.16-0.27-0.24 0.57 0.7 1.19 1.33 1.9 1.86z" fill="#5D985B" /><path d="M217.12 822.85c1.76-5.15-1.45-6.88 3.14-14.68 4.04-6.87 14.91-18.31 20.89-26.95 5.37-7.75 6.3-13.44 13.06-22.41 6.22-8.26 17.66-19.02 24.93-28.15 6.81-8.57 9.81-16 17.43-25.21 7.24-8.75 18.69-18.81 26.56-28.04 7.58-8.88 11.88-17.3 19.96-26.52 7.86-8.97 19.16-18.38 27.42-27.59 8.1-9.03 13.44-18.19 21.85-27.37 8.31-9.07 19.4-17.84 27.95-26.97 8.5-9.08 14.76-18.84 23.42-27.9 8.67-9.07 19.43-17.1 28.19-26.07 8.83-9.03 15.99-19.33 24.84-28.18 8.24-8.24 17.83-14.8 25.76-22.71 8.25-8.24 14.87-17.87 22.77-25.73 8.3-8.25 17.77-14.61 25.69-22.41 8.38-8.26 15.36-18.1 23.31-25.82 8.47-8.22 17.57-13.99 25.54-21.54 8.55-8.11 16.36-18.38 24.32-25.65 8.59-7.86 16.59-12.04 24.47-18.86 8.54-7.39 17.9-18.16 25.6-24.23 8.13-6.41 13.2-7 20.37-11.82 7.15-4.82 17.86-14.86 24.03-17.98 5.73-2.9 5.79 1.62 10.65 0.27 4.05-1.12 13.02-7.65 17.18-8.47-0.17-1.5-0.61-2.68-1.92-2.87-4.12-0.6-14.5 6.55-19.25 7.35-5.32 0.89-5.95-4.21-12.05-1.66-6.56 2.74-17.35 12.69-24.8 17.21-7.46 4.53-13.11 4.54-21.45 10.73-7.9 5.86-17.08 16.82-25.77 24.06-8.02 6.68-16.51 10.38-25.19 18.15-8.04 7.19-15.54 17.77-24.15 25.83-8.01 7.5-17.55 12.84-26.04 21.03-7.97 7.68-14.59 17.89-22.99 26.13-7.93 7.79-17.8 13.75-26.11 21.99-7.91 7.85-14.15 17.87-22.4 26.1-7.93 7.92-17.91 14.09-26.15 22.32-8.85 8.85-15.61 19.55-24.41 28.61-8.74 8.99-19.84 16.68-28.46 25.8-8.61 9.11-14.42 19.32-22.85 28.47-8.47 9.2-19.85 17.68-28.07 26.84-8.31 9.27-13.16 18.92-21.15 28.07-8.13 9.33-19.68 18.5-27.4 27.61-7.93 9.37-11.71 18.31-19.12 27.36-7.7 9.4-19.32 19.28-26.37 28.23-7.41 9.41-9.85 17.41-16.44 26.2-7.02 9.37-18.55 20.04-24.52 28.56-6.48 9.25-6.8 15.55-11.87 23.6-5.65 8.97-16.44 20.49-20.12 27.72-4.18 8.21-0.34 10.56-1.67 16.15-1.47 6.18-7.97 16.72-5.51 19.18-1.96-1.94 4.95-12.07 6.9-17.78zM769.58 270.6c2.35 1.04 11.2-4.34 13.11-2.43-2.28-2.28-10.81 2.07-14.02 1.22 0.15 0.56 0.43 1 0.91 1.21z" fill="#5D985B" /><path d="M791.56 292.6c-0.08-0.09-0.16-0.17-0.24-0.27-4.55-5.86-2.76-18.29-8.62-24.16 5.28 5.28 2.97 17.19 7 22.53 0.53 0.72 1.16 1.34 1.86 1.9zM824.48 355.95c-0.03-8.66-9.28-13.45-11.58-21.96-2.06-7.61 2.75-20.32-1.26-27.86-0.82-1.54-2.08-2.74-3.6-3.78 0.09 0.15 0.2 0.3 0.28 0.46 3.44 6.96-1.76 19.28-0.18 26.41 1.77 7.98 10.32 12.07 9.92 20.3-0.44 8.86-9.88 20.15-12.64 29.36-2.76 9.23 0.61 18.27-4.28 27.91-4.63 9.13-16.66 17.24-23.03 26.8-5.88 8.82-6.7 20.19-13.91 29.42-6.68 8.55-19.11 14.2-26.83 23.14-7.19 8.32-10.01 20.38-18.01 29.06-7.51 8.15-19.88 12.61-28.03 21.1-7.7 8.02-11.31 20.24-19.52 28.58-7.82 7.95-20.11 11.91-28.33 20.16-7.91 7.94-11.78 20.21-20.02 28.45-8.85 8.85-21.92 13.24-31.14 21.88-9.15 8.58-14.78 21.74-24.2 30.06-9.41 8.31-22.26 11.48-31.86 19.47-9.64 8.03-16.36 21.17-26.1 28.81-9.85 7.73-22.38 9.7-32.24 16.98-10.04 7.41-17.78 20.39-27.74 27.27-10.23 7.07-22.28 7.74-32.32 14.16-10.42 6.67-19.26 19.35-29.35 25.25-10.62 6.21-21.96 5.3-32.07 10.57-10.78 5.61-20.94 17.65-30.99 22.08-10.92 4.81-20.82 1.54-30.67 4.81-10.98 3.65-22.93 14-32.29 15.55-10.63 1.75-16.72-5.81-24.87-7.05-9.02-1.37-22 2.7-27.41-2.72 6.01 6.01 19.47 2.43 29.07 4.37 8.66 1.75 15.5 10.07 26.62 8.8 9.8-1.11 21.84-11.38 33.22-14.62 10.21-2.91 20.84 1.09 32.09-3.38 10.36-4.12 20.41-16.26 31.48-21.59 10.38-5 22.39-3.42 33.25-9.39 10.32-5.67 18.94-18.56 29.57-25.03 10.23-6.23 22.91-6.27 33.31-13.17 10.12-6.71 17.58-19.97 27.77-27.24 10-7.13 23.11-8.52 33.07-16.14 9.85-7.53 16.22-21.02 25.96-28.96 9.68-7.9 23.07-10.53 32.54-18.78 9.48-8.26 14.7-21.83 23.88-30.38 9.24-8.61 22.8-12.53 31.64-21.37 8.24-8.24 11.65-20.97 19.56-28.91 8.23-8.26 20.97-11.76 28.78-19.71 8.2-8.35 11.34-21.04 19.02-29.08 8.13-8.51 20.94-12.53 28.41-20.71 7.96-8.72 10.27-21.29 17.4-29.67 7.65-9 20.46-14.28 27.04-22.94 7.1-9.34 7.34-21.29 13.06-30.28 6.19-9.73 18.43-17.63 22.82-27.01 4.63-9.9 0.57-19.63 2.98-29.21 2.41-9.55 11.76-20.94 11.73-30.27z" fill="#5D985B" /><path d="M780.27 281.28c0.21 0.49 0.65 0.76 1.21 0.91-0.85-3.21 3.51-11.73 1.22-14.02 1.91 1.92-3.47 10.76-2.43 13.11zM784.51 305.61c0.8-4.75 7.94-15.12 7.35-19.25-0.19-1.31-1.37-1.74-2.87-1.92-0.81 4.17-7.35 13.14-8.47 17.18-1.34 4.87 3.18 4.92 0.27 10.65-3.13 6.17-13.16 16.87-17.98 24.03-4.83 7.16-5.41 12.24-11.82 20.37-6.07 7.69-16.85 17.06-24.23 25.6-6.82 7.88-11 15.88-18.86 24.47-7.28 7.96-17.55 15.77-25.65 24.32-7.55 7.96-13.32 17.07-21.54 25.54-7.71 7.94-17.56 14.93-25.82 23.31-7.8 7.92-14.16 17.39-22.41 25.69-7.86 7.91-17.49 14.52-25.73 22.77-7.92 7.93-14.47 17.52-22.71 25.76-8.85 8.85-19.15 16.01-28.18 24.84-8.97 8.76-17 19.52-26.07 28.19-9.06 8.66-18.82 14.92-27.9 23.42-9.13 8.55-17.9 19.63-26.97 27.95-9.18 8.41-18.33 13.75-27.37 21.85-9.21 8.25-18.62 19.56-27.59 27.42-9.22 8.08-17.64 12.38-26.52 19.96-9.23 7.87-19.29 19.32-28.04 26.56-9.21 7.62-16.64 10.62-25.21 17.43-9.13 7.26-19.89 18.7-28.15 24.93-8.97 6.76-14.66 7.69-22.41 13.06-8.64 5.99-20.08 16.85-26.95 20.89-7.8 4.59-9.53 1.38-14.68 3.14-5.7 1.95-15.84 8.86-17.79 6.9 2.46 2.46 13-4.04 19.18-5.51 5.59-1.33 7.94 2.51 16.15-1.67 7.23-3.68 18.74-14.47 27.72-20.12 8.05-5.07 14.35-5.39 23.6-11.87 8.51-5.96 19.19-17.49 28.56-24.52 8.79-6.59 16.78-9.03 26.2-16.44 8.95-7.05 18.83-18.67 28.23-26.37 9.05-7.41 17.99-11.19 27.36-19.12 9.11-7.72 18.28-19.26 27.61-27.4 9.15-7.98 18.8-12.83 28.07-21.15 9.17-8.22 17.64-19.6 26.84-28.07 9.15-8.43 19.36-14.24 28.47-22.85 9.12-8.62 16.81-19.73 25.8-28.46 9.06-8.8 19.76-15.56 28.61-24.41 8.24-8.24 14.41-18.22 22.32-26.15 8.24-8.25 18.25-14.48 26.1-22.4 8.24-8.31 14.21-18.17 21.99-26.11 8.24-8.4 18.45-15.02 26.13-22.99 8.19-8.5 13.53-18.03 21.03-26.04 8.05-8.6 18.63-16.11 25.83-24.15 7.77-8.68 11.47-17.17 18.15-25.19 7.24-8.69 18.2-17.87 24.06-25.77 6.19-8.34 6.21-13.99 10.73-21.45 4.52-7.45 14.47-18.24 17.21-24.8 2.56-6.1-2.54-6.74-1.65-12.05z" fill="#5D985B" /></svg>