<?xml version="1.0" standalone="no"?><!DOCTYPE svg PUBLIC "-//W3C//DTD SVG 1.1//EN" "http://www.w3.org/Graphics/SVG/1.1/DTD/svg11.dtd"><svg class="icon" width="48px" height="48.00px" viewBox="0 0 1024 1024" version="1.1" xmlns="http://www.w3.org/2000/svg"><path d="M877.9 115.7c-12.9 0.8-24.4 8.6-29.7 20.3-0.6 1.3-1.2 2.6-1.9 3.9-9.4 17.8-26.7 32.5-51.6 43.6-20.2-10.9-44.5-15.2-66.8-11-28 5.3-59.6 16.3-73.2 21.3-12.5 0.6-32.1 4.9-55.9 21.8-18.5 13.2-26 32.3-31.5 46.2-7.2 18.4-9.2 21.5-21.1 23.7-24.9 4.6-44.7 10.8-60.6 25.9-13.8 13.1-20.7 28.9-30.3 50.7-2.8 6.3-5.9 13.5-9.6 21.4-6 12.8-9.9 17-11.1 18-1.8 0.2-5.8 0.2-8.9 0.1-10.2-0.1-24.2-0.4-40.9 5.1-34 11.1-42.2 44.4-47.6 66.4-1.2 5-3.1 12.7-4.9 17.2-22.7-2.3-40.6 3.5-53.3 17.2-10.6 11.5-14.1 24.9-17.3 36.7-4.3 16.3-7.4 28.1-27.9 39-55.3 29.4-64.5 65.7-69.9 87.4-0.8 3.2-1.9 7.4-2.7 9.4-31.2 22.6-33 45.1-32.1 64.5 0.1 3.2 0.3 5.8 0 8.3-0.6 3-3.6 11.6-5.8 17.8-5.9 17-13.2 38-16 58.9-5.7 43.1 12 64.3 27.8 74.5 13.5 8.7 29 11.9 44.9 11.9 28.5 0 58.5-10.2 81.1-18 5.1-1.7 11.8-4 15.1-4.9 23.8 0 55.9-14 79-53.8 3.1-5.3 4.8-6.4 4.8-6.4 1.1-0.7 5.1-1.6 8.3-2.4 6.1-1.5 13.8-3.4 22.7-7.1 4.4-1.8 8.6-2.6 13.6-3.6 7.4-1.4 16.5-3.2 25.5-8.7 7.4-4.6 16.5-12.9 21.1-27.5 3.7-0.8 10.2-1.6 21.3-1.6 16.8 0 40.8-6.3 59.4-36.1 9.4-15 15.4-32.7 20.5-49.6 0.2-0.7 0.4-1.3 0.6-1.7 0.9-0.3 1.8-0.7 2.7-1 7.5-2.9 18.9-7.2 32.7-16.7 32.2-22.3 45.7-38.8 55.5-68 4.7-13.9 13.6-24.8 17.4-27.1 27.4-9.8 46.8-35.7 52.1-68.1 4.4-0.8 9.2-2.1 14.2-4.2 32.9-13.8 42.4-41.4 45.6-61.6 6.9-1.6 15.1-4.2 22.9-9.5 15.5-10.7 23-28.2 20.7-48.2-1.4-12.3 0-17.4 7.8-42.7 3.8-12.3 8.5-27.5 14.1-48.5 6.5-24.2 5.4-44 1-59.6 41.2-22.7 61.5-51.5 71.4-72.8 0.2-0.5 0.4-0.9 0.6-1.3 11.1-24.1-7.5-51.1-33.8-49.5z m-106.6 165c-5.3 19.8-9.8 34.3-13.4 46.1-6.7 21.7-11.3 36.6-11.4 55.3-5.1 1.3-10.7 3.1-16.4 6.1-14.7 8-23.8 22.1-24.9 38.7-0.8 12.5-2.3 16.2-2.8 17.1-0.2 0.1-0.7 0.4-1.6 0.8-0.5 0.2-3 0.1-4.8 0.1-7.5-0.2-23.2-0.7-36.4 11.8-12.7 12.1-14.4 28.3-14.6 39.5-0.3 13.6-5.9 19.1-7.2 19.7-30.5 10.7-51.4 44.8-60.1 70.7-3.8 11.3-5.5 16.5-28.9 32.7-6.8 4.7-11.9 6.7-17.9 8.9-17.6 6.7-35.6 15.9-45.2 47.8-2.6 8.7-5.8 18.7-9.6 26.6-2.6 5.5-4.6 8.2-5.7 9.5-18.5 0.2-32.7 2.1-44.5 6-22.9 7.7-33.5 21.8-38.3 33.7-6.4 1.3-14.4 3.2-23.5 7-3.9 1.6-7.8 2.6-12.4 3.7-15.2 3.7-38.3 9.4-57 41.7-7.8 13.5-15.9 18.1-18.6 18.8-10.6-0.4-20.8 3-37.5 8.7-12.6 4.3-28.3 9.6-42.6 12.4-10.3 2-16.4 2-19.8 1.6 0-3 0.4-8.1 2.2-16.1 2.6-11.8 7.1-24.7 11.1-36 4.6-13.1 8.2-23.5 9.2-32.7 0.9-8 0.6-14.6 0.4-19.5 0-0.7-0.1-1.4-0.1-2.1 0.9-0.7 2.1-1.7 3.9-3 20.4-14.5 25.3-34.3 29-48.7 4.1-16.2 7-27.8 34.9-42.7 47.4-25.2 56.9-61.3 62.7-82.8 0.2-0.6 0.3-1.2 0.5-1.8 24.4 1.7 45-7.8 58.3-26.9 9.6-13.8 13.5-29.7 17-43.8 1.3-5.5 3.2-13.2 5-17.4 4.4-0.9 8.8-0.8 14.5-0.7 11.6 0.2 27.6 0.4 44.3-9.1 15.9-9 28.6-24.8 40.2-49.6 4-8.6 7.3-16.1 10.2-22.7 6.1-13.8 10.9-24.7 14.5-28.1 2.8-2.6 11.2-5.3 25.2-7.9 50.8-9.4 65-45.4 73.4-66.8 2.1-5.3 5.2-13.2 7-14.8 9.2-6.5 15.1-8.3 17.4-8.8l6.9 1.5 9.8-3.8c0.4-0.1 37.8-14.7 67.4-20.3 7.8-1.5 20.3 1.4 27 8.6 5.9 6.7 7 17.1 3.2 31z" fill="#4169E1" /></svg>