<?xml version="1.0" standalone="no"?><!DOCTYPE svg PUBLIC "-//W3C//DTD SVG 1.1//EN" "http://www.w3.org/Graphics/SVG/1.1/DTD/svg11.dtd"><svg class="icon" width="48px" height="48.00px" viewBox="0 0 1024 1024" version="1.1" xmlns="http://www.w3.org/2000/svg"><path d="M380.928 944.128c-44.032 0-88.064-5.12-131.072-17.408-49.152-13.312-119.808-37.888-165.888-64.512-9.216-5.12-12.288-16.384-9.216-25.6 4.096-9.216 14.336-14.336 24.576-12.288 130.048 34.816 303.104-172.032 376.832-451.584v-1.024l1.024-2.048C493.568 307.2 533.504 256 588.8 223.232c55.296-32.768 120.832-40.96 182.272-24.576 62.464 16.384 114.688 56.32 146.432 111.616 31.744 55.296 40.96 118.784 24.576 180.224 0 2.048 0 3.072-1.024 5.12-40.96 151.552-136.192 280.576-268.288 362.496-90.112 56.32-190.464 86.016-291.84 86.016z m-199.68-81.92c27.648 10.24 56.32 19.456 78.848 25.6 269.312 70.656 563.2-112.64 642.048-399.36 0-2.048 0-3.072 1.024-4.096 14.336-51.2 7.168-105.472-20.48-151.552-26.624-46.08-70.656-78.848-121.856-93.184-51.2-14.336-105.472-7.168-151.552 20.48-46.08 26.624-78.848 70.656-93.184 121.856v1.024l-1.024 2.048c-66.56 250.88-201.728 437.248-333.824 477.184z m741.376-371.712z" fill="#4169E1" /><path d="M886.784 321.536c-3.072 0-6.144-1.024-9.216-2.048-10.24-5.12-13.312-17.408-8.192-27.648 7.168-13.312 11.264-27.648 11.264-41.984 0-44.032-35.84-79.872-79.872-79.872-30.72 0-57.344 16.384-70.656 43.008-5.12 10.24-17.408 14.336-27.648 9.216-10.24-5.12-14.336-17.408-9.216-27.648 20.48-40.96 61.44-65.536 107.52-65.536 66.56 0 120.832 54.272 120.832 120.832 0 20.48-5.12 40.96-15.36 60.416-5.12 7.168-12.288 11.264-19.456 11.264z" fill="#4169E1" /><path d="M845.824 174.08c-3.072 0-7.168-1.024-10.24-3.072-10.24-5.12-13.312-18.432-8.192-27.648l29.696-53.248c5.12-10.24 18.432-13.312 27.648-8.192 10.24 5.12 13.312 18.432 8.192 27.648L863.232 163.84c-3.072 6.144-10.24 10.24-17.408 10.24zM802.816 618.496c-2.048 0-4.096-1.024-6.144-2.048-5.12-3.072-6.144-9.216-3.072-14.336 7.168-10.24 13.312-22.528 21.504-38.912 2.048-5.12 9.216-7.168 13.312-4.096 5.12 2.048 7.168 8.192 4.096 13.312-6.144 11.264-13.312 26.624-23.552 40.96 0 3.072-3.072 5.12-6.144 5.12zM531.456 851.968c-4.096 0-8.192-2.048-9.216-6.144-2.048-5.12 0-11.264 5.12-13.312 95.232-41.984 172.032-101.376 232.448-181.248 3.072-4.096 10.24-5.12 14.336-2.048s5.12 10.24 2.048 14.336C712.704 746.496 634.88 807.936 535.552 850.944c-1.024 1.024-3.072 1.024-4.096 1.024z" fill="#4169E1" /></svg>