<?xml version="1.0" standalone="no"?><!DOCTYPE svg PUBLIC "-//W3C//DTD SVG 1.1//EN" "http://www.w3.org/Graphics/SVG/1.1/DTD/svg11.dtd"><svg class="icon" width="48px" height="48.00px" viewBox="0 0 1024 1024" version="1.1" xmlns="http://www.w3.org/2000/svg"><path d="M512 910.336c-143.36 0-242.688-132.096-242.688-320.512C269.312 399.36 368.64 186.368 512 186.368S754.688 399.36 754.688 589.824C754.688 778.24 655.36 910.336 512 910.336z m0-683.008c-103.424 0-201.728 176.128-201.728 362.496 0 164.864 82.944 279.552 201.728 279.552s201.728-114.688 201.728-279.552c0-186.368-98.304-362.496-201.728-362.496z" fill="#4169E1" /><path d="M740.352 889.856c-39.936 0-76.8-10.24-110.592-30.72l21.504-34.816c26.624 16.384 56.32 24.576 88.064 24.576 112.64 0 191.488-105.472 191.488-257.024 0-172.032-93.184-333.824-191.488-333.824-29.696 0-60.416 14.336-87.04 40.96L624.64 270.336c34.816-34.816 74.752-53.248 115.712-53.248 133.12 0 232.448 197.632 232.448 374.784 0 175.104-95.232 297.984-232.448 297.984zM282.624 888.832c-56.32 0-107.52-21.504-147.456-61.44C80.896 774.144 51.2 690.176 51.2 591.872c0-177.152 99.328-374.784 232.448-374.784 39.936 0 78.848 17.408 113.664 51.2L368.64 296.96c-26.624-25.6-55.296-38.912-84.992-38.912C185.344 258.048 92.16 419.84 92.16 591.872c0 87.04 25.6 160.768 71.68 206.848 32.768 32.768 73.728 49.152 118.784 49.152h2.048c32.768 0 62.464-8.192 89.088-24.576l21.504 34.816c-33.792 20.48-71.68 30.72-112.64 30.72zM563.2 238.592c-10.24 0-19.456-8.192-20.48-18.432-4.096-41.984-21.504-65.536-30.72-65.536-10.24 0-26.624 22.528-30.72 64.512-1.024 11.264-11.264 19.456-22.528 18.432-11.264-1.024-19.456-11.264-18.432-22.528 6.144-60.416 35.84-101.376 71.68-101.376 36.864 0 64.512 39.936 71.68 102.4 1.024 11.264-7.168 21.504-18.432 22.528H563.2z" fill="#4169E1" /><path d="M676.864 641.024c-6.144 0-10.24-4.096-10.24-10.24 0-83.968-5.12-149.504-28.672-216.064-2.048-5.12 1.024-11.264 6.144-13.312 5.12-2.048 11.264 1.024 13.312 6.144 25.6 69.632 30.72 136.192 30.72 222.208-1.024 7.168-5.12 11.264-11.264 11.264zM632.832 389.12c-4.096 0-8.192-3.072-9.216-7.168-1.024-4.096-3.072-7.168-5.12-11.264l-2.048-5.12c-2.048-5.12 0-11.264 4.096-13.312 5.12-2.048 11.264 0 13.312 4.096l2.048 4.096c2.048 4.096 5.12 9.216 6.144 14.336 2.048 5.12-1.024 11.264-6.144 13.312-1.024 1.024-2.048 1.024-3.072 1.024z" fill="#4169E1" /></svg>