<?xml version="1.0" standalone="no"?><!DOCTYPE svg PUBLIC "-//W3C//DTD SVG 1.1//EN" "http://www.w3.org/Graphics/SVG/1.1/DTD/svg11.dtd"><svg class="icon" width="48px" height="38.13px" viewBox="0 0 1289 1024" version="1.1" xmlns="http://www.w3.org/2000/svg"><path d="M929.185185 464.592593C929.185185 684.525037 815.407407 929.185185 644.740741 929.185185c-180.148148 0-284.444444-244.660148-284.444445-464.592592S474.074074 132.740741 644.740741 132.740741s284.444444 111.919407 284.444444 331.851852z" fill="#CE6F1B" /><path d="M644.551111 497.057185c0 222.511407 15.17037 470.053926-227.460741 470.053926C242.725926 967.111111 189.62963 719.568593 189.62963 497.057185 189.62963 274.526815 250.292148 151.703704 417.09037 151.703704S644.551111 274.526815 644.551111 497.057185zM1080.699259 497.057185C1080.699259 719.568593 1094.637037 967.111111 872.220444 967.111111 712.362667 967.111111 663.703704 719.568593 663.703704 497.057185 663.703704 274.526815 719.303111 151.703704 872.201481 151.703704c152.917333 0 208.516741 122.823111 208.516741 345.353481z" fill="#DE791F" /><path d="M275.171556 199.186963c3.072-0.056889 6.162963-0.075852 9.272888-0.075852 208.592593 0 284.444444 121.400889 284.444445 341.333333 0 51.541333 6.769778 103.917037 13.236148 153.903408 9.746963 75.434667 18.773333 145.445926 2.825482 198.921481C551.291259 939.045926 498.801778 967.111111 417.09037 967.111111 242.725926 967.111111 189.62963 719.568593 189.62963 497.057185c0-141.710222 24.594963-242.991407 85.541926-297.870222zM1080.794074 534.224593c-0.037926-12.439704-0.075852-24.841481-0.075852-37.167408 0-141.748148-22.565926-243.048296-78.468741-297.908148a601.827556 601.827556 0 0 0-6.693925-0.037926c-218.453333 0-218.263704 111.881481-217.884445 315.410963l0.037926 25.92237c0 47.862519-4.892444 96.900741-9.614222 144.346075-10.088296 101.224296-19.456 195.128889 20.935111 254.710518A135.395556 135.395556 0 0 0 872.201481 967.111111c210.090667 0 209.332148-220.86163 208.592593-432.886518z" fill="#CE6C15" /><path d="M720.592593 0h-75.851852c-28.444444 28.444444 18.962963 180.148148-94.814815 237.037037 41.092741 9.481481 225.659259 30.340741 256 0C730.074074 189.62963 730.074074 18.962963 720.592593 0z" fill="#6B7E5F" /><path d="M574.122667 221.790815A140.515556 140.515556 0 0 1 549.925926 237.037037c41.092741 9.481481 225.659259 30.340741 256 0-57.571556-35.991704-71.452444-142.980741-78.942815-200.760889C724.612741 17.938963 722.868148 4.570074 720.592593 0h-18.962963c2.351407 4.702815 3.546074 18.166519 5.157926 36.484741 4.873481 55.48563 13.653333 155.439407 70.693925 191.070815-52.280889-14.942815-133.973333-12.231111-203.358814-5.764741z" fill="#5D7251" /><path d="M568.888889 559.407407c0 219.932444 123.259259 455.111111-180.148148 455.111112C170.666667 1014.518519 0 779.339852 0 559.407407s75.851852-341.333333 284.444444-341.333333 284.444444 121.400889 284.444445 341.333333z" fill="#EB8225" /><path d="M595.342222 713.310815c-6.447407-49.98637-13.217185-102.362074-13.217185-153.903408 0-179.844741-50.725926-293.812148-183.296-329.386666-167.405037 17.559704-214.926222 128.341333-214.926222 329.386666 0 202.088296 108.392296 417.033481 283.818666 450.597926 162.740148-25.012148 146.507852-150.679704 127.620741-296.694518z" fill="#CB7120" /><path d="M758.727111 559.407407c0 219.932444-103.120593 464.592593 179.939556 464.592593C1142.120296 1024 1289.481481 779.339852 1289.481481 559.407407s-85.333333-341.333333-312.888888-341.333333-217.865481 121.400889-217.865482 341.333333z" fill="#EB8225" /><path d="M749.131852 703.753481c4.721778-47.42637 9.614222-96.464593 9.614222-144.346074l-0.037926-25.92237c-0.303407-169.073778-0.493037-274.887111 124.662519-305.872593 2.654815-0.037926 5.30963-0.056889 8.00237-0.056888C1128.296296 227.555556 1147.259259 348.956444 1147.259259 568.888889c0 207.834074-71.300741 428.259556-251.885037 452.93037-176.052148-18.981926-162.038519-159.55437-146.24237-318.065778z" fill="#CB7120" /><path d="M588.079407 559.407407c0 219.932444-46.26963 464.592593 236.809482 464.592593C1028.342519 1024 1118.814815 779.339852 1118.814815 559.407407S1090.37037 227.555556 853.447111 227.555556c-236.942222 0-265.367704 111.919407-265.367704 331.851851z" fill="#F58B2C" /><path d="M756.565333 1018.311111C931.043556 980.442074 967.111111 769.137778 967.111111 568.888889c0-190.027852-65.991111-308.906667-199.186963-335.132445-158.606222 26.225778-179.844741 135.623111-179.844741 325.650963 0 27.211852-0.720593 54.802963-1.422222 82.261334-4.475259 174.610963-8.817778 343.912296 169.908148 376.64237z" fill="#DA751B" /><path d="M739.346963 559.407407c0 219.932444 84.15763 455.111111-198.902519 455.111112-203.45363 0-331.851852-235.178667-331.851851-455.111112S265.481481 227.555556 473.960296 227.555556C682.477037 227.555556 739.365926 339.474963 739.365926 559.407407z" fill="#F58B2C" /><path d="M745.434074 685.814519c-2.996148-41.528889-6.106074-84.233481-6.106074-126.407112 0-188.055704-41.585778-297.14963-183.99763-324.816592C424.523852 262.276741 350.814815 371.351704 350.814815 559.407407c0 194.313481 20.119704 407.912296 197.025185 455.054223 221.165037-3.299556 210.128593-155.496296 197.594074-328.628149z" fill="#DA751B" /><path d="M948.148148 559.407407C948.148148 779.339852 881.777778 1024 663.703704 1024c-246.518519 0-284.444444-244.660148-284.444445-464.592593S493.037037 227.555556 663.703704 227.555556s284.444444 111.919407 284.444444 331.851851z" fill="#F79537" /><path d="M643.602963 1023.431111C847.511704 1010.403556 862.814815 773.233778 862.814815 559.407407c0-211.683556-57.988741-323.318519-218.074074-331.377777 6.257778-0.32237 12.553481-0.474074 18.962963-0.474074 170.666667 0 284.444444 111.919407 284.444444 331.851851C948.148148 779.339852 881.777778 1024 663.703704 1024c-6.84563 0-13.539556-0.18963-20.100741-0.568889z" fill="#EB8225" /></svg>