<?xml version="1.0" standalone="no"?><!DOCTYPE svg PUBLIC "-//W3C//DTD SVG 1.1//EN" "http://www.w3.org/Graphics/SVG/1.1/DTD/svg11.dtd"><svg class="icon" width="48px" height="48.00px" viewBox="0 0 1024 1024" version="1.1" xmlns="http://www.w3.org/2000/svg"><path d="M861 610c-21 0-45-4-70-12-61-20-127-63-184-120s-99-122-119-184c-21-65-14-118 18-151 33-33 87-39 152-18 61 19 127 62 184 119s99 122 119 184c21 65 14 119-18 151-20 20-49 31-82 31zM589 143h-13c-20 2-36 9-48 21a77 77 0 0 0-21 49c-2 21 1 45 10 72 18 57 58 118 111 172 54 54 115 94 172 112 27 8 52 12 73 10 20-2 37-9 48-21 12-12 19-28 21-49s-1-45-10-72c-18-57-58-118-111-172-54-54-115-94-172-112-22-7-42-10-60-10z" fill="#4169E1" /><path d="M421 893c-60 0-114-21-156-61-30-27-52-64-66-104-13-42-17-89-11-135 9-76 66-174 169-294 75-88 149-156 150-156l20 22c-3 2-288 265-310 432-5 42-1 84 11 121 12 36 32 68 57 92 37 35 84 53 136 53 14 0 29-2 45-5 84-16 191-75 309-170 90-72 155-140 156-141l21 21s-67 70-159 144c-53 43-105 79-154 108-61 35-118 58-168 68-17 3-34 5-50 5z" fill="#4169E1" /><path d="M625 334c-17 0-35-6-53-19a95 95 0 0 1-32-39c-7-17-6-33 3-45 17-23 56-22 89 2 15 11 27 25 33 39 7 17 5 34-3 45-8 12-22 17-37 17z m-45-90c-6 0-11 2-13 5s-2 9 1 16c4 9 12 19 22 26 21 16 42 16 47 9 3-3 2-9 0-16-4-9-12-19-23-27-12-9-25-13-34-13z m190 95c-15 0-33-6-49-18-30-22-43-53-29-73 14-19 48-17 78 5s43 54 29 73c-7 9-17 13-29 13z m-53-73c-1 3 3 17 22 31 18 13 33 13 35 11 1-3-3-17-22-30-18-14-33-14-35-12z m114 259c-24 0-52-10-78-29-21-16-38-36-47-56-11-24-10-46 2-62s32-23 57-20c23 2 47 12 69 28s39 36 48 56c10 24 9 45-3 61v1c-10 14-27 21-48 21z m-75-138c-11 0-20 3-24 9-5 7-5 19 1 32 7 15 21 32 38 44 36 27 74 29 84 14 5-7 5-18-1-32-7-15-20-31-38-44a116 116 0 0 0-60-23zM130 909c-20 0-43-2-67-6l-8-1-3-7c-3-6-5-16 0-27 8-17 27-28 59-34 19-4 28-14 39-24 20-19 41-40 104-30l-5 30c-48-8-61 5-77 21-13 12-27 26-55 32-19 4-29 9-34 13 144 18 196-50 196-50l24 18c-2 3-50 65-173 65z m-64-53l2 18 7 1-9-19z" fill="#4169E1" /></svg>