<?xml version="1.0" standalone="no"?><!DOCTYPE svg PUBLIC "-//W3C//DTD SVG 1.1//EN" "http://www.w3.org/Graphics/SVG/1.1/DTD/svg11.dtd"><svg class="icon" width="48px" height="48.00px" viewBox="0 0 1024 1024" version="1.1" xmlns="http://www.w3.org/2000/svg"><path d="M382.976 942.08C223.232 942.08 93.184 812.032 93.184 652.288c0-159.744 130.048-289.792 289.792-289.792 95.232 0 181.248-56.32 219.136-143.36l1.024-2.048s6.144-11.264 8.192-14.336l1.024-2.048c4.096-6.144 8.192-13.312 13.312-18.432 32.768-40.96 81.92-65.536 134.144-65.536 87.04 0 161.792 67.584 169.984 153.6v31.744C917.504 571.392 749.568 813.056 501.76 918.528l-2.048 1.024s-23.552 7.168-36.864 11.264c-28.672 8.192-55.296 11.264-79.872 11.264z m256-705.536c-44.032 101.376-144.384 166.912-256 166.912-137.216 0-248.832 111.616-248.832 248.832S245.76 901.12 382.976 901.12c21.504 0 44.032-3.072 68.608-9.216 11.264-3.072 30.72-9.216 34.816-10.24 233.472-100.352 391.168-327.68 401.408-579.584v-27.648c-6.144-64.512-63.488-115.712-129.024-115.712-39.936 0-76.8 18.432-101.376 49.152-3.072 4.096-7.168 9.216-10.24 15.36-3.072 3.072-7.168 10.24-8.192 13.312z" fill="#4169E1" /><path d="M900.096 361.472c-35.84 0-64.512-28.672-64.512-64.512h20.48c0 23.552 20.48 44.032 44.032 44.032v20.48zM630.784 264.192c-10.24 0-19.456-2.048-25.6-5.12l9.216-18.432c4.096 2.048 9.216 3.072 17.408 3.072 7.168 0 26.624-9.216 32.768-13.312 7.168-5.12 13.312-8.192 20.48-8.192 17.408 0 31.744 14.336 31.744 31.744h-20.48c0-6.144-5.12-11.264-11.264-11.264-1.024 0-3.072 0-8.192 4.096-6.144 3.072-30.72 17.408-46.08 17.408z" fill="#4169E1" /><path d="M759.808 318.464c-35.84 0-64.512-28.672-64.512-64.512h20.48c0 23.552 20.48 44.032 44.032 44.032 14.336 0 23.552-8.192 32.768-16.384 9.216-8.192 18.432-16.384 31.744-16.384 17.408 0 31.744 14.336 31.744 31.744h-20.48c0-6.144-5.12-11.264-11.264-11.264-5.12 0-10.24 4.096-18.432 11.264-10.24 9.216-24.576 21.504-46.08 21.504zM811.008 161.792c-2.048 0-4.096 0-7.168-1.024-10.24-4.096-16.384-15.36-12.288-25.6l13.312-37.888c4.096-10.24 15.36-16.384 25.6-12.288 10.24 4.096 16.384 15.36 12.288 25.6L829.44 148.48c-2.048 8.192-10.24 13.312-18.432 13.312zM491.52 812.032c-4.096 0-8.192-3.072-9.216-7.168-2.048-5.12 1.024-11.264 6.144-13.312 110.592-40.96 181.248-115.712 220.16-169.984 3.072-4.096 9.216-6.144 14.336-2.048s6.144 9.216 2.048 14.336c-40.96 57.344-114.688 135.168-230.4 178.176H491.52zM748.544 584.704c-2.048 0-3.072 0-5.12-1.024-5.12-3.072-7.168-9.216-4.096-14.336 9.216-18.432 16.384-34.816 20.48-49.152 2.048-5.12 7.168-8.192 12.288-7.168 5.12 2.048 8.192 7.168 7.168 12.288-4.096 15.36-12.288 33.792-22.528 53.248-1.024 4.096-4.096 6.144-8.192 6.144z" fill="#4169E1" /></svg>