<?xml version="1.0" standalone="no"?><!DOCTYPE svg PUBLIC "-//W3C//DTD SVG 1.1//EN" "http://www.w3.org/Graphics/SVG/1.1/DTD/svg11.dtd"><svg class="icon" width="48px" height="48.00px" viewBox="0 0 1024 1024" version="1.1" xmlns="http://www.w3.org/2000/svg"><path d="M962.56 393.216c1.024-24.576-16.384-42.496-37.888-51.2 14.336-26.112-3.072-65.536-30.208-80.384-23.552-12.288-55.296-8.704-80.896-8.192-7.68 0-14.848 0.512-22.016 1.536 2.048-2.048 3.584-4.608 5.632-6.656 33.792-32.256 60.928-71.168 35.328-118.272-13.824-25.088-49.664-31.232-73.216-17.408-7.168-23.552-25.088-44.032-49.664-51.712-17.92-5.632-35.84-1.024-48.64 9.728-11.264-20.48-37.376-32.768-60.928-34.816-22.528-2.048-37.376 13.824-44.544 33.792-18.432-17.92-46.592-26.624-70.144-12.8-34.816 20.48-29.696 71.68-19.968 103.936 4.608 15.36 28.672 8.704 24.064-6.656-5.632-18.944-10.24-44.032-1.536-62.976 12.8-27.648 51.2-14.848 59.904 9.728 0.512 1.536 1.536 3.072 2.56 4.096 0 1.536 0 3.584 0.512 5.12 2.048 15.872 26.112 9.216 24.064-6.656-2.56-18.944 7.168-44.544 29.696-41.984 16.896 2.048 41.984 14.336 37.376 34.816-0.512 2.56-0.512 5.12 0.512 7.168-0.512 13.824 20.48 18.944 24.064 4.096 5.12-22.016 26.624-31.232 45.568-18.432 17.408 11.776 26.624 26.624 26.624 47.616 0 2.56 1.024 4.608 2.048 6.656 3.584 9.216 19.456 10.752 23.552-1.024 6.656-19.968 39.424-12.8 47.616 0.512 5.632 8.704 8.192 24.064 6.656 34.304-2.56 19.456-19.456 36.352-33.792 50.176-1.024 0.512-2.048 1.024-2.56 2.048-0.512 0.512-1.024 1.536-1.536 2.048l-1.024 1.024c-0.512 0.512-0.512 1.024-1.024 1.536-55.808 66.56-121.856 129.024-164.352 205.312-13.312-9.728-38.4-4.096-40.96 17.408-20.992-33.792-47.616-64-88.576-72.704-55.808-11.776-88.576 8.192-126.976 45.568-12.8 5.632-27.136 5.632-38.4-5.12-9.216-9.216-15.872-43.52-0.512-51.2 2.048-1.024 3.584-2.56 4.608-4.096 7.68-4.608 8.704-19.456-3.072-23.04-24.576-7.68-35.84-25.6-34.304-51.2 0.512-8.704 1.536-23.04 9.216-28.672 2.56-2.048 33.792-6.144 36.864-2.56 9.216 12.8 30.72 0.512 21.504-12.8-3.584-4.608-8.192-7.68-13.312-9.728 12.288-34.304 55.808-47.616 90.112-38.912 36.352 9.728 54.272 30.72 75.264 61.44 30.208 44.544 61.952 97.792 59.904 153.088-0.512 15.872 24.576 15.872 25.088 0 1.536-46.592-17.92-87.04-39.936-126.976-19.456-34.816-44.032-80.384-80.384-99.84-61.952-33.28-137.216-23.552-154.624 47.616-5.12 0-9.728 0.512-13.824 0.512-17.92 1.536-30.208 14.336-35.84 30.72-6.144 17.92-8.704 46.08-0.512 63.488 5.632 11.776 16.896 21.504 29.184 28.672-14.848 19.968-11.264 56.32 1.536 74.24 18.944 26.624 55.808 27.648 81.408 11.264 3.072-2.048 4.608-4.608 5.12-7.168 31.744-28.16 66.56-44.544 110.592-26.624 37.376 15.36 57.344 52.224 75.264 86.528-14.336 87.552-55.808 166.4-97.792 244.736-0.512 0.512-0.512 1.024-1.024 1.536-4.608-60.416-25.088-126.976-93.184-136.192-3.072-0.512-5.632-0.512-8.192-0.512-88.576-118.784-299.52-86.528-309.76 72.704 0 1.536 0 2.56 0.512 3.584-0.512 1.536-0.512 3.072 0 4.608 3.584 18.944 10.752 38.912 23.552 53.248 12.288 14.336 28.672 16.384 45.056 13.312 3.584 16.384 11.776 33.792 27.648 35.328 9.728 1.024 19.456 2.56 29.184-2.048 3.072-1.536 6.144-3.584 8.704-6.144 12.8 18.944 28.672 33.792 54.272 28.672 25.088-5.12 30.72-26.112 35.328-48.64v-3.072c0-0.512 0.512-1.024 0.512-1.536 3.584-49.664 33.792-143.36 100.864-122.88 61.44 18.944 63.488 98.304 61.952 149.504v1.536c-44.544 73.216-98.816 137.216-177.664 177.152-28.672 14.336-3.584 57.344 25.088 43.008 101.376-50.688 167.936-140.288 220.16-238.592 48.128-89.6 93.184-179.712 104.96-280.576l1.536-1.536c18.432-29.696 70.656-25.088 100.352-21.504 31.744 4.096 58.88 17.92 84.48 37.376 12.288 10.752 25.088 12.8 41.472 13.312 19.456 0.512 30.72-4.608 45.056-16.384 12.8-10.24 20.48-17.92 18.432-35.328-0.512-5.632-2.048-10.752-4.096-15.36 29.184-4.096 54.784-20.48 56.32-55.296zM258.56 759.296c-2.048 10.752-3.072 25.088-13.824 28.672-17.92 6.144-29.184-13.824-36.864-27.136-1.536-9.216-16.384-14.848-23.552-4.608-5.632 8.192-11.264 14.848-22.016 11.264-9.216-3.072-11.264-18.432-11.776-27.136-0.512-11.264-12.8-14.336-19.968-9.728-6.144 2.048-12.8 4.096-19.456 2.56-7.168-1.536-11.776-8.192-15.36-14.336-6.144-10.752-10.24-23.04-12.288-35.328 0-0.512 0.512-1.024 0.512-1.536 8.192-130.56 179.2-155.648 256.512-68.608-53.76 17.92-78.336 93.696-81.92 145.92zM887.296 425.984l-0.512-0.512c-13.312-8.704-26.112 12.8-12.8 21.504 6.144 3.584 13.824 14.848 11.776 22.528-1.536 6.144-11.264 13.312-16.384 16.384-12.288 7.68-37.376 9.216-48.64-2.048-1.024-1.024-2.048-1.536-3.584-2.048-33.792-25.088-69.632-40.96-113.152-41.984-22.528-1.024-45.056-1.536-65.024 4.608 30.208-52.224 72.192-98.304 113.152-143.872 1.024-0.512 2.048-1.024 3.072-2.048 24.064-22.016 53.248-19.968 83.456-19.968 8.704 0 18.432-1.024 27.136 0 16.896 2.56 68.096 38.4 29.696 58.368-13.824 2.56-13.312 24.576 2.048 24.576 17.92-0.512 43.52 10.752 40.96 32.768-4.096 26.112-29.184 31.744-51.2 31.744z" fill="#73BA2D" /></svg>