<?xml version="1.0" standalone="no"?><!DOCTYPE svg PUBLIC "-//W3C//DTD SVG 1.1//EN" "http://www.w3.org/Graphics/SVG/1.1/DTD/svg11.dtd"><svg class="icon" width="48px" height="48.00px" viewBox="0 0 1024 1024" version="1.1" xmlns="http://www.w3.org/2000/svg"><path d="M898.6 422.1c-18.4-16.7-43.3-28.2-74.3-34-22.6-4.3-51.9 4.7-95 29.1-27.4 15.5-55.8 34.8-76.5 49.5l-20.9-37.9c27-6.6 59.6-19.4 87.6-44 60.2-53 82.1-111 75.6-200.3-3.2-44.2-19.5-75.4-48.4-92.9-36.5-22.1-87.5-18.3-156 11.5-36.8 16-64.8 45.7-82.3 86.4-13.1-21.1-29.2-42.3-48.9-61.4-37.9-37-79-58.4-125.5-65.6-42.9-6.6-90.4-1-145.3 17.3-41.8 13.9-70.9 49.6-81.9 100.4-8 36.9-6.4 80.8 4.5 123.7 11 43.2 29.7 78.7 52.7 100.1 32.4 30.1 101.7 90.6 157.9 139.4-10 1.4-19.6 3.7-29.2 7.6-26.2 10.7-47.4 31-70.6 67.9-25.2 39.9-32.3 77.1-21.1 110.6 7.4 22 22.6 41.7 45.3 58.7 18.6 13.9 42.4 26.2 72.8 37.7 31.3 11.8 65 15.4 100.1 10.6 18.6-2.5 37.4-7.3 55.9-14.4 6 40 21.4 86.5 59.5 113.3 13.1 9.2 31.8 17.5 56.5 17.5 18.7 0 41-4.7 67-17.4 31.1-15.1 54.4-35.5 55.4-36.3l12.3-10.8-3.5-146.2c28-5.2 64.5-21.9 102.9-66.5 18.5-21.4 34.5-36.8 48.6-50.4 32.9-31.6 58.8-56.5 60.7-111.7 1.5-47.3-18.7-75.9-35.9-91.5z m-34.2 89.1c-0.9 25.6-8.8 34.3-39.2 63.5-14 13.4-31.3 30.1-51 52.8-4.2-26.3-14.2-53.3-35.4-73l-27.2 29.3c19.7 18.2 25.1 50.2 25.2 77.8-16.5 10.5-28.9 12.4-34.9 12.5-13.8 0.3-26.6 6-36 16.1-9.3 9.9-14.3 22.9-14 36.5L655 856c-7.1 5-16.7 11.3-27.5 16.5-16.3 7.9-38.7 15.4-52.6 5.6-17.2-12.1-29-41.7-32.3-81.2-1.5-18.1-11.8-34.3-27.4-43.4-8.6-5-18.4-7.6-28.1-7.6-7.9 0-15.8 1.7-23.2 5.1-29.9 13.7-74.9 26.4-120.1 9.4-55.5-21-72.2-40.5-76.5-53.1-4.2-12.6 0.5-29.7 13.9-51 28.9-45.7 37.2-45.5 91.3-44.3 2.3 0 4.6 0.1 7 0.1 20.3 0.4 38.1-11.6 45.4-30.6 7.3-19 2-39.8-13.3-53.1-15.8-13.7-39.4-34.1-65.3-56.6 12.5-26.2 35.4-49.2 55.6-66 34.2-28.3 69.2-45.8 69.5-46l-8.9-17.9-8.9-17.9c-5 2.5-98.1 49.2-138.4 120.8-40.7-35.5-81.6-71.7-103.8-92.2-12.6-11.7-25.1-37-32.5-66-8.2-32.1-9.6-65.5-3.9-91.6 5.7-26.4 17.7-42.8 35.6-48.8 71.4-23.8 122.9-22.3 168.3 6.5C335 179.4 246.6 243 246.6 325.2h40c0-41.6 35.3-79.6 65-104.1 24-19.9 48.4-34.4 60.9-41.4 33.6 33.4 54.4 76.2 65.9 106.5 6.9 18.2 25.2 29.1 44.5 26.5 19.3-2.6 34-17.9 35.8-37.3 2.4-25 8.7-54.7 24.2-77.7 29.6 18.1 52.9 53.4 61.1 69.4l17.8-9.1 17.8-9.1c-1.4-2.8-25.7-49.8-66.5-79.2 1.8-0.9 3.6-1.9 5.5-2.7 61.9-26.9 84.9-20 91.9-15.8 10.4 6.3 13.8 24.2 14.8 38.1 5.6 76.5-14 109.2-52 142.7-27.8 24.4-64.7 31.2-84.2 33.1-15.2 1.5-28.5 10.4-35.6 23.9-7.1 13.5-7 29.5 0.4 42.8l41.3 74.9c1.3 2.3 2.7 4.5 4.2 6.6-44.1 32.9-95.9 84.9-95.9 147.8h40c0-41.6 35.3-79.6 65-104.1 8.8-7.3 17.7-13.9 26-19.6 0.8 0.2 1.5 0.4 2.3 0.6 17.7 4 36.3 0.2 51-10.4 18.2-13.1 45.4-31.9 71.7-47.1 36.4-21.1 50.3-23.3 52.9-23.6 47 9.4 52.8 31.6 52 54.3z" fill="#4169E1" /></svg>