<?xml version="1.0" standalone="no"?><!DOCTYPE svg PUBLIC "-//W3C//DTD SVG 1.1//EN" "http://www.w3.org/Graphics/SVG/1.1/DTD/svg11.dtd"><svg class="icon" width="48px" height="48.00px" viewBox="0 0 1024 1024" version="1.1" xmlns="http://www.w3.org/2000/svg"><path d="M685.5 896.8c-19.4 1.5-116.2 23.2-116.2 23.2s-20.9-102.2-30.2-116.2c-9.3-13.9-61.4 34.1-170 13.9-72-13.4-115-78.8-64.8-149.6s156.3 5.8 163.8-3.4c7.5-9.3-40.7-83.6-102.7-131s-123.9-74.5-157-182.9 45-170.4 164.2-147.1 153.7 192.1 166.5 195.9c12.8 3.9 25.7-107.7 65.5-151S725 171.9 756 274.2c31 102.2-157.6 215.3-158.8 224.2-1.1 8.9 23.7 52.3 36.5 81.6 32.9 16.3 31.7-135 139.3-121.5 86.7 10.8 69.6 126.7 29.4 168.8-40.2 42.1-118.9 93.7-120.8 102.2-1.9 8.6 15.5 109.2 3.9 167.3z" fill="#F5DC9B" /><path d="M324.9 198.8c15 0 30.9 1.6 47.7 4.9 119.2 23.2 153.7 192.1 166.5 195.9 0.2 0.1 0.4 0.1 0.7 0.1 12.6 0 25.7-108.5 64.8-151.1 20.4-22.3 51.6-41.9 81.3-41.9 28.2 0 55 17.6 70.1 67.4 31 102.2-157.6 215.3-158.8 224.2-1.1 8.9 23.7 52.3 36.5 81.6 1.7 0.8 3.3 1.2 4.8 1.2 26.9 0 32-123.5 121.3-123.6 4.2 0 8.6 0.3 13.2 0.8 86.7 10.8 69.6 126.7 29.4 168.8S683.5 721 681.6 729.5s15.5 109.2 3.9 167.3c-19.4 1.5-116.2 23.2-116.2 23.2s-20.9-102.2-30.2-116.2c-1.2-1.8-3.1-2.6-5.8-2.6-14.3 0-49.9 21.5-111.4 21.5-15.8 0-33.4-1.4-52.8-5-72-13.4-115-78.8-64.8-149.6 16.2-22.8 38.2-30.3 60.8-30.3 43.4 0 89.2 27.7 100.7 27.7 1.1 0 1.9-0.2 2.3-0.8 7.5-9.3-40.7-83.6-102.7-131-62-47.4-123.9-74.5-157-182.9-28.4-93.1 25.3-152 116.5-152m0-20c-53.5 0-96.6 18.5-121.5 52.2-12 16.2-19.3 35.3-21.7 56.6-2.4 21.3 0.2 44.6 7.6 69.1 13.3 43.5 32.5 78.9 58.6 108.1 23.3 26 49.7 44.8 75.3 62.9 9.9 7 20.1 14.3 30.1 21.9 23.3 17.8 47.1 41.7 67.2 67.5 4.1 5.3 7.7 10.2 10.9 14.7-19.2-7.1-42.6-14-66.2-14-15.1 0-28.9 2.8-41.1 8.4-14.2 6.5-26.3 16.7-36 30.4-25.7 36.3-32.2 75.3-18.3 109.7 14.7 36.2 50.4 62.8 95.7 71.2 19.1 3.6 38.1 5.4 56.4 5.4 44.7 0 77.3-10.8 96.8-17.2 2.2-0.7 4.6-1.5 6.9-2.2 2.6 8 6.8 22.9 13.1 50.1 6.1 26 11 50.3 11.1 50.5 1.1 5.3 4.2 9.9 8.7 12.8 3.3 2.1 7 3.2 10.9 3.2 1.5 0 2.9-0.2 4.4-0.5 36.9-8.3 100.3-21.8 113.4-22.8 8.9-0.7 16.3-7.3 18-16 8.9-44.5 2.3-108.5-1.6-146.7-0.6-6-1.3-12.6-1.7-17.2 6.3-5.5 19-15.2 29.6-23.4 27.7-21.2 62.1-47.7 85.6-72.3 15.2-15.9 27.5-40.1 33.8-66.4 6.8-28.3 6.2-56.3-1.9-78.9-11.6-32.4-37.6-52.7-73.4-57.2-5.3-0.7-10.6-1-15.7-1-31.3 0-57.9 12.6-79 37.4-16.7 19.7-27.2 43.5-35.5 62.6-1.4 3.1-3 6.8-4.6 10.3-1.9-3.9-3.9-7.9-5.9-11.8-4.8-9.6-11.4-22.8-15.1-31.4 3-2.3 6.5-5.1 9.9-7.6 24.9-19.1 66.5-51.1 99.6-89.6 43.2-50.3 58.7-97.1 46-139.1-8.2-27.1-20.3-47.8-36.1-61.6-14.9-13.1-33.3-20-53.2-20-17.1 0-35.7 5.2-53.7 15-15.4 8.4-30.1 20-42.3 33.3-26.2 28.6-41 79.1-51.7 116.3-10.5-24.9-25.3-57.2-46.8-87.2-32.1-44.6-70.7-71.6-114.8-80.2-18-3.5-35.4-5.3-51.8-5.3z" fill="#1A1A1A" /><path d="M539.1 399.6c-12.8-3.9-47.3-172.7-166.5-195.9 41.4 44.9 99.6 117.8 156.5 239.6 5.6-2 10-43.7 10-43.7zM773 458.5c86.7 10.8 69.6 126.7 29.4 168.8-40.2 42.1-118.9 93.7-120.8 102.2-1.9 8.5 15.5 109.2 3.9 167.3-7.4 0.6-26 4.1-46.3 8.2 12.2-46.2 5.6-116.2-12.9-194.3 0 0 111.1-58.2 142.4-107.5 31.3-49.3 26-109.3 15.3-124.7l-11-20zM602.9 602.6c-19.2-24.1-28-55.5-39.8-84.3 0 0-11-15.7-8.5-23 2.5-7.3 99.5-78 140.7-147.6S691.2 207 691.2 207c26.2 2.1 50.7 20.6 64.8 67.2 31 102.2-157.6 215.3-158.8 224.2-1.1 8.9 23.7 52.3 36.5 81.6 6.1 3.1 11.1 0.3 15.8-6.2 0-0.1-25.5 55.1-46.6 28.8z" fill="#E0B980" /><path d="M568.1 914.3c-4.6-20.9 34.1-39.1 65.7-40.2 31.6-1.1 54.2 3.4 54.6 19.3s-28 35.8-52.3 37.2c-24.2 1.3-63.3 4.6-68-16.3z" fill="#F5C86E" /><path d="M642.4 873.9c27.1 0 45.6 5 46 19.4 0.4 15.9-28 35.8-52.3 37.2-7.6 0.4-16.7 1.1-25.8 1.1-19.7 0-39.1-3-42.3-17.3-4.6-20.9 34.1-39.1 65.7-40.2 3.1-0.1 6-0.2 8.7-0.2m0-20v20-20c-3 0-6.1 0.1-9.3 0.2-13.8 0.5-28.8 3.6-42.2 8.9-10.6 4.2-25.2 11.7-34.4 23.6-7.5 9.7-10.3 21.1-7.9 32 1.7 7.8 7.7 21.9 28.2 28.7 8.9 2.9 19.6 4.3 33.6 4.3 8.5 0 16.7-0.5 23.9-0.9l3-0.2c15.3-0.9 32-7 45.8-16.8 16.7-11.8 25.7-26.3 25.3-40.9-0.2-7.1-3.1-24.7-25.9-33.3-9.9-3.8-23-5.6-40.1-5.6z" fill="#1A1A1A" /><path d="M440.3 240.1S252.1 264 221.4 386" fill="#F5DC9B" /><path d="M221.4 396c-0.8 0-1.6-0.1-2.4-0.3-5.4-1.3-8.6-6.8-7.3-12.1 7.5-29.8 24.4-56.5 50.2-79.3 20.3-17.9 46-33.4 76.6-46.2 51.5-21.5 98.6-27.6 100.5-27.9 5.5-0.7 10.5 3.2 11.2 8.7 0.7 5.5-3.2 10.5-8.7 11.2-0.5 0.1-46.7 6.1-95.8 26.7-64.2 26.9-102.8 64.5-114.7 111.8-1 4.4-5.1 7.4-9.6 7.4z" fill="#1A1A1A" /><path d="M599.7 254.6s101.8 0 150.5 100.9" fill="#F5DC9B" /><path d="M750.2 365.5c-3.7 0-7.3-2.1-9-5.6-19-39.3-48.4-67.2-87.5-83.1-29.5-12-53.8-12.2-54-12.2-5.5 0-10-4.5-10-10s4.5-10 10-10c1.1 0 27.7 0.2 60.7 13.3 30.4 12.2 72.3 38.2 98.9 93.2 2.4 5 0.3 11-4.6 13.4-1.5 0.7-3 1-4.5 1z" fill="#1A1A1A" /><path d="M651.6 367.3c14.9 12.5 29.9 29.5 39.6 51.5" fill="#F5DC9B" /><path d="M691.2 428.8c-3.8 0-7.5-2.2-9.2-6-7.8-17.8-20.3-33.9-36.9-47.9-4.2-3.6-4.8-9.9-1.2-14.1s9.9-4.8 14.1-1.2c19 16 33.2 34.5 42.3 55.1 2.2 5.1-0.1 11-5.1 13.2-1.3 0.6-2.7 0.9-4 0.9z" fill="#1A1A1A" /><path d="M602.9 337.9s2.1 0.8 5.8 2.4" fill="#F5DC9B" /><path d="M608.7 350.3c-1.4 0-2.7-0.3-4.1-0.9-3.2-1.4-5.1-2.1-5.1-2.1-5.2-1.9-7.9-7.6-6-12.8 1.9-5.2 7.6-7.9 12.8-6 0.3 0.1 2.6 0.9 6.4 2.7 5 2.2 7.3 8.2 5.1 13.2-1.7 3.7-5.3 5.9-9.1 5.9z" fill="#1A1A1A" /><path d="M691.2 482.5s111.3 23.3 133.2 109.2" fill="#F5DC9B" /><path d="M824.3 601.7c-4.5 0-8.5-3-9.7-7.5-8.3-32.7-31.7-59.7-69.4-80.3-29-15.8-55.8-21.6-56.1-21.6-5.4-1.1-8.9-6.4-7.7-11.8 1.1-5.4 6.4-8.9 11.8-7.7 1.2 0.3 29.6 6.3 61.1 23.4 42.5 23 70.1 55.2 79.7 93.2 1.4 5.4-1.9 10.8-7.2 12.2-0.8 0-1.7 0.1-2.5 0.1z" fill="#1A1A1A" /><path d="M717.7 580.1s42.1 32.2 48.2 88.1" fill="#F5DC9B" /><path d="M765.8 678.2c-5 0-9.4-3.8-9.9-8.9-5.5-51.1-43.9-81-44.3-81.3-4.4-3.4-5.2-9.6-1.9-14 3.4-4.4 9.6-5.2 14-1.9 1.9 1.4 45.6 35.5 52 95 0.6 5.5-3.4 10.4-8.9 11-0.2 0.1-0.6 0.1-1 0.1z" fill="#1A1A1A" /><path d="M354.8 399.9c-4.2 5.8-8.2 12.1-11.9 18.9" fill="#F5DC9B" /><path d="M342.8 428.8a10 10 0 0 1-4.9-1.3c-4.8-2.7-6.6-8.8-3.9-13.6 3.9-6.9 8.1-13.6 12.5-19.9 3.2-4.5 9.5-5.5 14-2.3s5.5 9.5 2.3 14c-4 5.6-7.9 11.7-11.3 18-1.8 3.2-5.2 5.1-8.7 5.1z" fill="#1A1A1A" /><path d="M503.4 326.1s-59.7 0.8-110.1 34.2" fill="#F5DC9B" /><path d="M393.3 370.3c-3.2 0-6.4-1.6-8.4-4.5-3-4.6-1.8-10.8 2.8-13.9 52.3-34.6 113-35.8 115.5-35.8 5.5-0.1 10.1 4.3 10.1 9.9 0.1 5.5-4.3 10.1-9.9 10.1-0.7 0-57.5 1.3-104.8 32.5-1.5 1.1-3.4 1.7-5.3 1.7z" fill="#1A1A1A" /><path d="M613 537.1s-62.6-14.3-116.8 43" fill="#F5DC9B" /><path d="M496.2 590.1c-2.5 0-4.9-0.9-6.9-2.7-4-3.8-4.2-10.1-0.4-14.1 57.5-60.8 123.5-46.5 126.3-45.8 5.4 1.2 8.7 6.6 7.5 12-1.2 5.4-6.6 8.7-11.9 7.5-0.3-0.1-14.8-3.1-35.2 0.3-27.2 4.5-51.5 18-72.2 39.8-1.9 1.9-4.6 3-7.2 3z" fill="#1A1A1A" /><path d="M356.1 637.9s-45.3 47.2-17.4 145.7" fill="#F5DC9B" /><path d="M338.6 793.6c-4.4 0-8.4-2.9-9.6-7.3-29-102.9 17.8-153.3 19.9-155.4 3.8-4 10.2-4.1 14.1-0.3 4 3.8 4.1 10.1 0.3 14.1-0.3 0.3-10.4 11.4-17.3 33.3-6.4 20.5-11.3 55 2.2 102.8 1.5 5.3-1.6 10.8-6.9 12.3-0.9 0.4-1.8 0.5-2.7 0.5z" fill="#1A1A1A" /><path d="M426.8 702.2s-15.1 57.8-1.6 128" fill="#F5DC9B" /><path d="M425.3 840.2c-4.7 0-8.9-3.3-9.8-8.1-13.8-71.7 1.1-130 1.7-132.5 1.4-5.3 6.9-8.5 12.2-7.1 5.3 1.4 8.5 6.9 7.1 12.2-0.2 0.8-14.3 56.7-1.4 123.6 1 5.4-2.5 10.7-7.9 11.7-0.7 0.2-1.3 0.2-1.9 0.2z" fill="#1A1A1A" /><path d="M613 794.6c35.4-13.9 83 0 83 0" fill="#F5DC9B" /><path d="M613 804.6c-4 0-7.8-2.4-9.3-6.3-2-5.1 0.5-10.9 5.6-13 38.1-15 87.4-0.9 89.5-0.3 5.3 1.6 8.3 7.1 6.8 12.4-1.6 5.3-7.1 8.3-12.4 6.8-0.4-0.1-44.8-12.8-76.5-0.3-1.2 0.5-2.5 0.7-3.7 0.7z" fill="#1A1A1A" /><path d="M529.1 381.8s-41.3 7.3-60.9 27.6" fill="#F5DC9B" /><path d="M468.2 419.5c-2.5 0-5-0.9-6.9-2.8-4-3.8-4.1-10.2-0.2-14.1 21.6-22.4 64.6-30.2 66.4-30.5 5.4-1 10.6 2.7 11.6 8.1 1 5.4-2.7 10.6-8.1 11.6-0.7 0.1-38.4 7.1-55.5 24.7-2.1 2-4.7 3-7.3 3z" fill="#1A1A1A" /></svg>