<?xml version="1.0" standalone="no"?><!DOCTYPE svg PUBLIC "-//W3C//DTD SVG 1.1//EN" "http://www.w3.org/Graphics/SVG/1.1/DTD/svg11.dtd"><svg class="icon" width="48px" height="48.00px" viewBox="0 0 1024 1024" version="1.1" xmlns="http://www.w3.org/2000/svg"><path d="M136 944c-23 0-37-4-45-12-5-5-11-16-3-33l18-24c15-18 36-43 48-79 14-44 36-110 69-186 43-97 91-179 141-243A822 822 0 0 1 819 84c38-9 71-13 89-10 4 1 13 3 17 15 6 14 4 41-5 80s-24 86-44 134a1295 1295 0 0 1-217 354 894 894 0 0 1-293 223c-98 46-182 64-228 64h-2z m-20-32c6 2 24 4 57-1a849 849 0 0 0 463-273 1264 1264 0 0 0 255-478c7-32 8-49 7-57a793 793 0 0 0-510 282c-49 62-95 142-137 237-33 75-55 140-69 183-13 42-37 70-53 89l-13 18z" fill="#4169E1" /><path d="M274 809a122 122 0 0 1 126-177l-4 29a91 91 0 0 0-93 44 91 91 0 0 0-3 90l-26 14z m147-221a132 132 0 0 1 171-177l-12 28a102 102 0 0 0-132 136l-27 13z m195-223a116 116 0 0 1 173-131l-15 25a86 86 0 0 0-97 4 86 86 0 0 0-32 94l-29 8z" fill="#4169E1" /></svg>