<?xml version="1.0" standalone="no"?><!DOCTYPE svg PUBLIC "-//W3C//DTD SVG 1.1//EN" "http://www.w3.org/Graphics/SVG/1.1/DTD/svg11.dtd"><svg class="icon" width="48px" height="48.00px" viewBox="0 0 1024 1024" version="1.1" xmlns="http://www.w3.org/2000/svg"><path d="M195 514.9s48.5 42.2 155 45.3c106.5 3.2 198.2-25.3 279.3-32.7 81.2-7.4 250.1 14.2 250.1 14.2s0.8-71.2-30.8-104.9-136-77-294.1-51.7c-158.1 25.3-272 93.4-323.1 116.3-29.8 9.8-36.4 13.5-36.4 13.5z" fill="#A5DC69" /><path d="M195 514.9s48.5 42.2 155 45.3c106.5 3.2 198.2-25.3 279.3-32.7 81.2-7.4 250.1 14.2 250.1 14.2s-11.3-13.5-38.2-28.6c-26.9-15-93.1-42-251.2-16.7-210.4 48.1-395 18.5-395 18.5z" fill="#6AAF4E" /><path d="M300.4 281.9s110.2-17.9 201.1 50.6 183.6 169 301.7 233c110.5 59.9 191.9 78 191.9 78s-102.3 148.6-280.4 40.1-239.3-160.3-313.1-236.2-101.2-165.5-101.2-165.5z" fill="#46C373" /><path d="M300.4 281.9s110.2-17.9 201.1 50.6 183.6 169 301.7 233c110.5 59.9 191.9 78 191.9 78S951 686 772.9 577.4 543 409.9 469.2 334.1c-47.3-48.7-168.8-52.2-168.8-52.2z" fill="#3D9950" /><path d="M510.2 418.2m-45.6 0a45.6 45.6 0 1 0 91.2 0 45.6 45.6 0 1 0-91.2 0Z" fill="#3D9950" /><path d="M495.7 388.3m-41.5 0a41.5 41.5 0 1 0 83 0 41.5 41.5 0 1 0-83 0Z" fill="#D7FA91" /><path d="M556.6 508.4a45.6 45.5 0 1 0 91.2 0 45.6 45.5 0 1 0-91.2 0Z" fill="#3D9950" /><path d="M711.3 585.8m-45.6 0a45.6 45.6 0 1 0 91.2 0 45.6 45.6 0 1 0-91.2 0Z" fill="#3D9950" /><path d="M827.9 652.8m-45.6 0a45.6 45.6 0 1 0 91.2 0 45.6 45.6 0 1 0-91.2 0Z" fill="#3D9950" /><path d="M590 478.6m-41.5 0a41.5 41.5 0 1 0 83 0 41.5 41.5 0 1 0-83 0Z" fill="#D7FA91" /><path d="M698.5 554.7m-41.5 0a41.5 41.5 0 1 0 83 0 41.5 41.5 0 1 0-83 0Z" fill="#D7FA91" /><path d="M810.4 627.3m-41.5 0a41.5 41.5 0 1 0 83 0 41.5 41.5 0 1 0-83 0Z" fill="#D7FA91" /><path d="M191.7 576.2l-12.8-12.6-0.2 0.2c0.1-0.1 10.5-12.7-1.6-44.4-13.3-34.7-37-48.5-37.2-48.6-4.3-2.4-5.8-7.9-3.4-12.2s7.9-5.9 12.2-3.5c1.2 0.7 29.4 16.7 45.2 57.9 16.3 42.7-0.3 61.2-2.2 63.2z" fill="#3D9950" /></svg>