<?xml version="1.0" standalone="no"?><!DOCTYPE svg PUBLIC "-//W3C//DTD SVG 1.1//EN" "http://www.w3.org/Graphics/SVG/1.1/DTD/svg11.dtd"><svg class="icon" width="48px" height="48.00px" viewBox="0 0 1024 1024" version="1.1" xmlns="http://www.w3.org/2000/svg"><path d="M616.9 484.7h105.9s0 121.1 20.7 175.1-18.4 115.3-78.3 115.3-87.5-76-64.5-120.2 16.2-170.2 16.2-170.2z" fill="#F9DCB2" /><path d="M703 650.7c-8.7-28.7-17.3-166-17.3-166h37.1s0 121.1 20.7 175.1-18.4 115.3-78.3 115.3c-31.8 0-54.5-21.5-65.4-48.2-9.6-23.6 65.6 28 87 9.3 21.6-18.8 24.9-56.8 16.2-85.5z" fill="#EAC1A4" /><path d="M643.4 503.1c240.3 0 305-16.1 305-101.3S827.7 215.1 670.9 213c-156.8-2-277.5 126.6-277.5 184.2s86.9 105.9 250 105.9z" fill="#C88C64" /><path d="M643.4 503.1c240.3 0 305-16.1 305-101.3S827.7 215.1 670.9 213c141.3 63 231 101.4 195.3 199.8-54 76.5-339.5 66-472.8-15.7 0 57.6 86.9 106 250 106z" fill="#AD734D" /><path d="M880.9 432.3c-4.5 0-8.3-3.3-8.9-7.8-4.7-36.4-26.6-69.6-65.2-98.9-4-3-4.7-8.7-1.7-12.6 3-4 8.6-4.7 12.6-1.7 41.9 31.8 66.9 70.2 72.1 110.9 0.6 4.9-2.8 9.4-7.8 10.1h-1.1z" fill="#FFFFFF" /><path d="M749.1 282.1s2.1 0.8 5.8 2.4" fill="#F9DCB2" /><path d="M754.9 293.5c-1.2 0-2.5-0.2-3.6-0.8-3.4-1.5-5.3-2.3-5.4-2.3-4.6-1.8-6.9-7-5.2-11.6 1.8-4.6 7-6.9 11.6-5.2 0.1 0 2.3 0.9 6.2 2.6 4.5 2 6.6 7.3 4.6 11.9-1.5 3.4-4.8 5.4-8.2 5.4z" fill="#FFFFFF" /><path d="M398.2 667.7l69.2-91.6s87.6 66.2 138 80.7 44.2 54.4 11.5 97.7-85 58.6-104.3 17.9c-19.5-40.8-114.4-104.7-114.4-104.7z" fill="#F9DCB2" /><path d="M467.3 576.1s87.6 66.2 138 80.7 44.2 54.4 11.5 97.7c-20.1 26.6-47.6 42.7-70.3 41.6 36.1-21.1 76.6-102 36.1-121-51.5-18.9-115.3-99-115.3-99z" fill="#EAC1A4" /><path d="M434.2 647.7C565.4 474 569.6 441.9 508 395.4s-167.2-34.2-254.3 78.1-56.2 227.8-14.6 259.3 105.9 32.9 195.1-85.1z" fill="#C88C64" /><path d="M392.8 424.7c33.8-9.5 67.8-7.7 104.8 13.4" fill="#F9DCB2" /><path d="M497.6 447.1c-1.5 0-3-0.4-4.5-1.2-32.1-18.3-63.3-22.3-97.9-12.6-4.8 1.3-9.8-1.4-11.1-6.2-1.3-4.8 1.4-9.8 6.2-11.1 39.1-11 75.6-6.4 111.7 14.3 4.3 2.5 5.8 8 3.4 12.3-1.6 2.9-4.7 4.5-7.8 4.5z" fill="#1A1A1A" /><path d="M332.1 450.5s1.7-1.1 4.9-2.8" fill="#F9DCB2" /><path d="M332.1 459.5c-3 0-6-1.5-7.7-4.3-2.6-4.2-1.3-9.8 2.9-12.4 0.1 0 2-1.2 5.3-3.1 4.3-2.4 9.8-0.9 12.2 3.5 2.4 4.3 0.8 9.8-3.5 12.2-2.9 1.6-4.5 2.6-4.5 2.6-1.5 1.1-3.1 1.5-4.7 1.5z" fill="#1A1A1A" /><path d="M434.2 647.7C565.4 474 569.6 441.9 508 395.4s-167.2-34.2-254.3 78.1-56.2 227.8-14.6 259.3 105.9 32.9 195.1-85.1z" fill="#C88C64" /><path d="M434.2 647.7C565.4 474 569.6 441.9 508 395.4c-12.4-9.4-26.6-16.4-42-20.6-22.2-6.1 13.3 16.5 7.3 95.1s-75 197.8-234.1 262.9c41.5 31.4 105.8 32.9 195-85.1z" fill="#AD734D" /><path d="M497.6 447.1c-1.5 0-3-0.4-4.5-1.2-32.1-18.3-63.3-22.3-97.9-12.6-4.8 1.3-9.8-1.4-11.1-6.2-1.3-4.8 1.4-9.8 6.2-11.1 39.1-11 75.6-6.4 111.7 14.3 4.3 2.5 5.8 8 3.4 12.3-1.6 2.9-4.7 4.5-7.8 4.5z" fill="#FFFFFF" /><path d="M332.1 450.5s1.7-1.1 4.9-2.8" fill="#F9DCB2" /><path d="M332.1 459.5c-3 0-6-1.5-7.7-4.3-2.6-4.2-1.3-9.8 2.9-12.4 0.1 0 2-1.2 5.3-3.1 4.3-2.4 9.8-0.9 12.2 3.5 2.4 4.3 0.8 9.8-3.5 12.2-2.9 1.6-4.5 2.6-4.5 2.6-1.5 1.1-3.1 1.5-4.7 1.5z" fill="#FFFFFF" /></svg>