<?xml version="1.0" standalone="no"?><!DOCTYPE svg PUBLIC "-//W3C//DTD SVG 1.1//EN" "http://www.w3.org/Graphics/SVG/1.1/DTD/svg11.dtd"><svg class="icon" width="48px" height="48.00px" viewBox="0 0 1024 1024" version="1.1" xmlns="http://www.w3.org/2000/svg"><path d="M871.6 125.8c-52.7-46.4-135-48.4-244.4-5.9-80.6 31.3-157.1 79.4-189.8 100-72.9 45.9-113.1 89.9-130.2 142.7-5.7 17.6-7.6 31.8-8.3 133.5-0.2 26.5-0.3 47.2-0.2 64.8-3.7 12.3-7.8 24.5-12.4 36.2-8.1 20.7-14.7 33.8-18.9 41.3-12 21.7-27.5 38.2-48.5 57.8-36.1 33.6-78.9 67.2-127.3 99.9L61 816.7 167 957l28.2-23.4c38.8-32.2 75.6-66 109.4-100.4 3.6-3.6 7.1-7.2 10.5-10.8 22.6-23.3 42.1-43.3 73.7-64.5 13.7-9.2 28.1-17.4 42.9-24.7 45.9 11.3 98.4 13.1 146.2 4.6 140.3-25 218.7-136.2 244.4-172.8 88.1-124.9 154.2-347.1 49.3-439.2z m-22.3 200.8c-12.7 66.4-44.9 142.3-84.2 198.1-21.7 30.7-87.5 124.2-199.2 144-41.5 7.4-89.1 5-127.3-6.4l-12.5-3.7-11.9 5.3c-22.3 10-43.9 22-64.2 35.6-37.8 25.3-61.8 50-85 73.9-3.4 3.5-6.8 7-10.3 10.5-23.9 24.4-49.5 48.4-76.2 71.8l-17.3-22.9c39.2-28.1 74.6-56.8 105.5-85.6 25.3-23.6 45.5-45.4 62-75 7.4-13.3 15.3-30.5 22.8-49.6 6-15.3 11.4-31.2 16-47.3l1.4-4.8v-5c-0.1-18.2 0-40.1 0.2-69 0.6-92.3 2.4-104.8 4.9-112.4 7.9-24.3 26.5-58.3 100.9-105.1 31-19.5 103.5-65.1 177.8-93.9 57.1-22.2 133.5-41.3 172.8-6.8 14.1 12.4 23.3 31.3 27.5 56.2 4.2 25.6 2.9 57.4-3.7 92.1z" fill="#4169E1" /><path d="M815.4 226.7c-6.4-15.2-25.5-20.2-38.5-10-16.8 13.2-44.7 36.9-92.8 80.2-2.3-10.5-0.6-22.3 2-31.8 3-11.3-2.2-23.2-12.6-28.6-14.2-7.4-31.6 0.2-35.7 15.7-5.8 22-9 53.2 7.2 80.2-19.7 18-41.9 38.4-67 61.7-19.9 18.4-39.6 36.7-58.4 54.3-0.3-0.7-0.7-1.4-1.1-2-3.8-6.1-7.9-13.8-11-22.4-8.3-22.7-7.5-43.5 2.6-63.1 5.4-10.5 2.4-23.4-6.7-30.8-12.3-10-30.6-6-37.8 8.1-16.4 31.9-18.2 67-5 103 4.5 12.4 10.2 23.1 15.6 31.8 2.2 3.6 5.2 6.4 8.5 8.3-33.7 31.6-62 58.4-79.3 74.8-10 9.5-10.4 25.4-0.9 35.4s25.3 10.4 35.3 0.9c3.6-3.5 7.8-7.4 12.4-11.7 14.1 5.6 43.7 16.3 78.7 23 20.3 3.9 39.5 5.8 57.4 5.8 7.5 0 14.8-0.3 21.8-1 19.4-1.9 36.9-6.5 52.4-13.6 14.7-6.8 19-25.7 8.9-38.3-7.2-9-19.6-11.7-30.1-7-30.2 13.8-69.8 10.8-100 5.2-18.2-3.4-35-8.2-48.3-12.5 33-31.1 74.2-69.7 116.2-108.7 6.5-6.1 12.9-11.9 19-17.6 4.6 3.2 10.7 7 18.4 11 16.1 8.4 47.1 21.4 84.2 21.4 19.8 0 41.3-3.7 63.2-13.8 14.1-6.5 18.8-24.3 9.9-37.1-6.9-9.8-19.7-13.3-30.7-8.5-40.3 17.5-82.8 2.3-105.6-9.1 80.6-73.5 121.7-108.1 140.9-123.5 8.7-7 11.7-18.9 7.4-29.2l-0.5-0.5z" fill="#4169E1" /></svg>