<?xml version="1.0" standalone="no"?><!DOCTYPE svg PUBLIC "-//W3C//DTD SVG 1.1//EN" "http://www.w3.org/Graphics/SVG/1.1/DTD/svg11.dtd"><svg class="icon" width="48px" height="48.00px" viewBox="0 0 1024 1024" version="1.1" xmlns="http://www.w3.org/2000/svg"><path d="M502.8 958.3c-46.3 0-90.8-19.3-122.2-52.9-28.7-30.8-42.9-70.3-40-111.1 0-0.3 0-0.5 0.1-0.8l26.1-252.6c0.5-97.8 53.7-161 136-161s135.5 63.1 136 161l26.1 252.6c4 39.8-9.2 78.7-37.2 109.6-31.2 34.6-77.9 55.2-124.9 55.2zM388.4 798.2c-1.8 27.2 7.9 53.7 27.3 74.6 22.3 23.9 54 37.6 87 37.6 33.6 0 67-14.7 89.3-39.3 18.7-20.7 27.6-46.5 25-72.5l-26.2-253.7c-0.1-0.8-0.1-1.6-0.1-2.5 0-33.9-8.1-63.5-22.8-83.4-15.1-20.5-37.1-30.9-65.2-30.9s-50.1 10.4-65.2 30.9c-14.7 19.9-22.8 49.5-22.8 83.4 0 0.8 0 1.6-0.1 2.5l-26.2 253.3z" fill="#4169E1" /><path d="M512.2 147.1h-1.8c-217.6 0.7-483.1 192.3-402.6 394.1 31.3 78.6 141.4 108.1 189 56.2 53.2-58 129.6-94.4 214.5-94.5 84.9 0.1 161.3 36.5 214.5 94.5 47.6 51.9 157.7 22.4 189-56.2 80.5-201.9-185-393.4-402.6-394.1z" fill="#4169E1" /><path d="M232.1 647.4c-8.8 0-18-0.8-27.3-2.5-25.2-4.6-49.4-15.3-70-31-22.4-17-39.4-39-49.3-63.8-15.4-38.6-20-78.4-13.7-118.4 5.8-36.6 20.5-72.8 44-107.4C154 267.7 215 216.4 287.7 179.6c71.5-36.1 150.3-56.2 222-56.6H513.1c71.6 0.4 150.4 20.4 222 56.6 72.7 36.7 133.7 88.1 171.9 144.5 23.4 34.7 38.2 70.8 44 107.4 6.3 40 1.7 79.8-13.7 118.4-9.9 24.8-26.9 46.9-49.3 63.8-20.6 15.6-44.9 26.4-70 31-44.1 8.1-84-3.3-109.7-31.2-24.8-27-54.2-48.3-87.5-63.3-34.4-15.5-71.2-23.4-109.3-23.4-38 0-74.8 7.9-109.2 23.4-33.3 15-62.7 36.3-87.5 63.3-20.5 22.1-49.6 33.9-82.7 33.9z m279.2-168.5c45 0.1 88.3 9.4 129 27.6 39.3 17.7 74 42.8 103.2 74.6 14.2 15.5 38.2 21.5 65.6 16.5 37.6-6.9 70.3-32.6 83.4-65.4 12.1-30.5 15.8-61.8 10.9-93.2-4.7-29.6-16.9-59.2-36.3-88-33.7-49.8-88.3-95.5-153.8-128.6-65.2-33-136.7-51.2-201.2-51.4h-1.6c-64.5 0.2-136 18.5-201.2 51.4-65.5 33.1-120.1 78.8-153.8 128.6-19.5 28.8-31.7 58.4-36.3 88-4.9 31.4-1.3 62.7 10.9 93.2 13.1 32.8 45.8 58.5 83.4 65.4 27.5 5 51.4-1 65.6-16.5 29.2-31.8 63.9-56.9 103.2-74.6 40.7-18.2 84.1-27.5 129-27.6z" fill="#4169E1" /><path d="M556.6 693.7s11.7 76 11.7 105.9" fill="#4169E1" /><path d="M568.3 823.6c-13.3 0-24-10.7-24-24 0-23-8.3-81.6-11.4-102.3-2-13.1 7-25.4 20.1-27.4 13.1-2 25.4 7 27.4 20.1 0.5 3.2 12 78.2 12 109.6-0.1 13.2-10.9 24-24.1 24z" fill="#4169E1" /><path d="M170.5 404.1s68.8-108 136.3-131" fill="#4169E1" /><path d="M170.4 428.1c-4.4 0-8.9-1.2-12.9-3.8-11.2-7.1-14.5-22-7.3-33.1 0.7-1.2 18.4-28.8 44.9-59.6 36.9-42.9 71.8-70.3 103.9-81.2 12.5-4.3 26.2 2.4 30.5 15 4.3 12.5-2.4 26.2-15 30.5-48.7 16.6-105.9 93.1-123.8 121.2-4.6 7.1-12.3 11-20.3 11z" fill="#4169E1" /><path d="M371.3 250.1m-24 0a24 24 0 1 0 48 0 24 24 0 1 0-48 0Z" fill="#4169E1" /></svg>