<?xml version="1.0" standalone="no"?><!DOCTYPE svg PUBLIC "-//W3C//DTD SVG 1.1//EN" "http://www.w3.org/Graphics/SVG/1.1/DTD/svg11.dtd"><svg class="icon" width="48px" height="48.00px" viewBox="0 0 1024 1024" version="1.1" xmlns="http://www.w3.org/2000/svg"><path d="M934.912 350.72h-215.552c-8.704 0-15.36 7.168-15.36 15.36 0 74.24-86.016 134.656-192 134.656S320 440.32 320 366.08c0-8.704-6.656-15.36-15.36-15.36H89.088c-8.192 0-14.336 6.144-15.36 14.336-0.512 6.656-0.512 13.824-0.512 20.48 0 197.632 196.608 357.888 438.784 357.888s438.784-160.256 438.784-357.888c0-7.168-0.512-13.824-0.512-20.48-1.024-8.192-7.68-14.336-15.36-14.336z" fill="#FFFC88" /><path d="M948.736 350.72h-32.768v1.536c0 197.632-177.152 352.768-403.456 352.768s-403.456-155.136-403.456-352.768c0-0.512-6.144-1.024-6.144-1.536h-27.136c-1.536 11.264-2.048 23.04-2.048 34.816 0 197.632 196.608 357.888 438.784 357.888s438.784-160.256 438.784-357.888c-0.512-11.776-1.536-23.552-2.56-34.816z" fill="#A4FF69" /><path d="M719.872 370.688l209.408 0.512s20.992 195.584-189.952 301.056c0 0 195.584-68.608 204.288-305.664h-223.744v4.096z" fill="#FFFFFF" /><path d="M89.088 366.592h9.728s-24.064 269.312 352.256 358.912c0 0-368.128-46.08-361.984-353.28" fill="#A1F460" /><path d="M933.888 366.592c0.512 6.144 0.512 12.8 0.512 18.944 0 188.416-189.44 342.016-422.4 342.016s-422.4-153.088-422.4-342.016c0-6.144 0-12.288 0.512-18.944h214.016c0 82.944 93.696 150.016 207.872 150.016 114.688 0 207.872-67.072 207.872-150.016h214.016m14.848-15.872h-229.376c-8.704 0-15.36 7.168-15.36 15.36 0 74.24-86.016 134.656-192 134.656S320 440.32 320 366.08c0-8.704-6.656-15.36-15.36-15.36H75.264c-1.536 11.264-2.048 23.04-2.048 34.816 0 197.632 196.608 357.888 438.784 357.888s438.784-160.256 438.784-357.888c0-11.776-1.024-23.552-2.048-34.816z" fill="#353942" /></svg>