<?xml version="1.0" standalone="no"?><!DOCTYPE svg PUBLIC "-//W3C//DTD SVG 1.1//EN" "http://www.w3.org/Graphics/SVG/1.1/DTD/svg11.dtd"><svg class="icon" width="48px" height="48.00px" viewBox="0 0 1024 1024" version="1.1" xmlns="http://www.w3.org/2000/svg"><path d="M511.98976 507.99616m-492.96384 0a492.96384 492.96384 0 1 0 985.92768 0 492.96384 492.96384 0 1 0-985.92768 0Z" fill="#CA0043" /><path d="M511.98976 507.99616m-462.41792 0a462.41792 462.41792 0 1 0 924.83584 0 462.41792 462.41792 0 1 0-924.83584 0Z" fill="#FF5D86" /><path d="M511.98976 507.99616m-433.66912 0a433.66912 433.66912 0 1 0 867.33824 0 433.66912 433.66912 0 1 0-867.33824 0Z" fill="#F1F7E5" /><path d="M511.98976 74.32704c-0.95744 0-1.88416 0.13824-2.8416 0.14336v867.05152c0.95744 0.00512 1.88416 0.14336 2.8416 0.14336 239.50848 0 433.66912-194.16064 433.66912-433.66912 0-239.50848-194.16064-433.66912-433.66912-433.66912z" fill="#FFFFFF" /><path d="M595.08224 833.55648c3.23072-1.29536 0-33.18272-9.48224-35.76832s-15.27296 4.61824-15.72864 8.61696c-1.0752 9.48224 19.6096 29.39392 25.21088 27.15136zM243.30752 661.09952c-2.78528-2.08896-28.33408 17.27488-25.60512 26.71616 2.72896 9.44128 11.89376 10.63936 15.54944 8.94464 8.6528-4.01408 14.88384-32.04096 10.05568-35.6608zM491.264 729.37984c-2.78528-2.08896-28.33408 17.27488-25.60512 26.71616 2.72896 9.44128 11.89376 10.63936 15.54944 8.94464 8.6528-4.0192 14.88896-32.04096 10.05568-35.6608zM473.29792 510.16704c-2.78528-2.08896-28.33408 17.27488-25.60512 26.71616 2.72896 9.44128 11.89376 10.63936 15.54944 8.94464 8.6528-4.01408 14.88896-32.04096 10.05568-35.6608zM417.64352 231.26016c3.23072-1.29536 0-33.18272-9.48224-35.76832-9.48224-2.5856-15.27296 4.61824-15.72864 8.61696-1.08032 9.48224 19.60448 29.39392 25.21088 27.15136zM579.3536 619.37152c3.23072-1.29536 0-33.18272-9.48224-35.76832-9.48224-2.5856-15.27296 4.61824-15.72864 8.61696-1.0752 9.48224 19.60448 29.3888 25.21088 27.15136zM245.86752 299.41248c0.22528-3.47136-29.952-14.27968-36.36736-6.8352-6.41536 7.44448-2.4064 15.77472 1.00864 17.90976 8.09984 5.05344 34.9696-5.04832 35.35872-11.07456zM161.8944 431.32416c-2.85696 1.98656 7.46496 32.3328 17.28512 32.72192 9.82016 0.38912 13.84448-7.936 13.3888-11.93472-1.08544-9.48224-25.71776-24.23296-30.67392-20.7872zM352.3328 343.60832c-2.85696 1.98656 7.46496 32.3328 17.28512 32.72192 9.82016 0.38912 13.84448-7.936 13.3888-11.93472-1.08544-9.48736-25.71776-24.23296-30.67392-20.7872zM311.81824 443.07456c-2.85696 1.98656 7.46496 32.3328 17.28512 32.72192 9.82016 0.38912 13.84448-7.936 13.3888-11.93472-1.08544-9.48736-25.71776-24.23296-30.67392-20.7872zM632.26368 540.30848c-3.23072-1.29536 0-33.18272 9.48224-35.76832s15.27296 4.61824 15.72864 8.61696c1.08032 9.48224-19.60448 29.39392-25.21088 27.15136zM650.79808 694.26688c2.78528-2.08896 28.33408 17.27488 25.60512 26.71616-2.72896 9.44128-11.89376 10.63936-15.54944 8.94464-8.6528-4.0192-14.88896-32.04096-10.05568-35.6608zM560.39424 443.28448c-3.23072-1.29536 0-33.18272 9.48224-35.76832s15.27296 4.61824 15.72864 8.61696c1.0752 9.48224-19.60448 29.3888-25.21088 27.15136zM752.16896 587.44832c-0.22528-3.47136 29.952-14.27968 36.36736-6.8352 6.41536 7.44448 2.4064 15.77472-1.00864 17.90976-8.09472 5.04832-34.9696-5.05344-35.35872-11.07456zM779.27936 764.60544c2.85696 1.98656-7.46496 32.3328-17.28512 32.72192-9.82016 0.38912-13.84448-7.936-13.3888-11.93472 1.08544-9.48736 25.71776-24.23296 30.67392-20.7872z" fill="#2E2A2A" /><path d="M278.78912 623.1296c-3.23072-1.29536 0-33.18272 9.48224-35.76832s15.27296 4.61824 15.72864 8.61696c1.08032 9.48224-19.60448 29.39392-25.21088 27.15136zM297.32352 777.088c2.78528-2.08896 28.33408 17.27488 25.60512 26.71616-2.72896 9.44128-11.89376 10.63936-15.54944 8.94464-8.6528-4.0192-14.88896-32.04096-10.05568-35.6608zM206.91968 526.10048c-3.23072-1.29536 0-33.18272 9.48224-35.76832 9.48224-2.5856 15.27296 4.61824 15.72864 8.61696 1.0752 9.48224-19.60448 29.39392-25.21088 27.15136zM398.6944 670.26432c-0.22528-3.47136 29.952-14.27968 36.36736-6.8352 6.41536 7.44448 2.4064 15.77472-1.00864 17.90976-8.09472 5.05344-34.9696-5.04832-35.35872-11.07456zM425.8048 847.42656c2.85696 1.98656-7.46496 32.3328-17.28512 32.72192-9.82016 0.38912-13.84448-7.936-13.3888-11.93472 1.08544-9.48736 25.71776-24.23296 30.67392-20.7872z" fill="#2E2A2A" /><path d="M778.80832 360.03328c3.4816 0.06144 11.79136 31.01696 3.85024 36.80256s-15.91808 1.11104-17.7664-2.46784c-4.3776-8.47872 7.87968-34.43712 13.91616-34.33472zM706.78016 222.70976c-1.86368 2.93888-32.61952-6.07744-33.42848-15.872s7.33696-14.17216 11.35616-13.88544c9.51296 0.68096 25.30304 24.65792 22.07232 29.75744zM880.47104 425.1904c3.4816 0.06144 11.79136 31.01696 3.85024 36.80256s-15.91808 1.11104-17.7664-2.46784c-4.3776-8.47872 7.87968-34.43712 13.91616-34.33472zM649.97888 358.58432c1.44384 3.16928-22.92224 23.99232-31.5648 19.31264-8.64256-4.67968-7.85408-13.89056-5.41696-17.09568 5.77024-7.6032 34.47808-7.71072 36.98176-2.21696zM561.68448 202.61888c-3.3792-0.83968-4.51072-32.87552 4.5312-36.72576 9.04192-3.85024 15.75936 2.49856 16.75776 6.4 2.3552 9.24672-15.42656 31.78496-21.28896 30.32576z" fill="#2E2A2A" /></svg>