<?xml version="1.0" standalone="no"?><!DOCTYPE svg PUBLIC "-//W3C//DTD SVG 1.1//EN" "http://www.w3.org/Graphics/SVG/1.1/DTD/svg11.dtd"><svg class="icon" width="48px" height="48.00px" viewBox="0 0 1024 1024" version="1.1" xmlns="http://www.w3.org/2000/svg"><path d="M454.81984 295.512747c199.236267 4.9664 357.618347 98.638507 352.65536 297.874773-4.9664 199.222613-169.601707 302.824107-368.831147 297.864533-199.232853-4.9664-357.618347-116.606293-352.651946-315.84256 4.959573-199.22944 169.59488-284.859733 368.827733-279.896746z" fill="#FF5E17" /><path d="M452.25984 911.899307c-4.693333 0-9.393493-0.06144-14.127787-0.177494-105.106773-2.62144-199.406933-34.522453-265.530026-89.83552-72.57088-60.70272-109.59872-146.111147-107.086507-246.9888 2.423467-97.39264 42.07616-176.51712 114.664107-228.82304 64.68608-46.609067 154.04032-71.246507 258.4064-71.246506 5.56032 0 11.12064 0.07168 16.738986 0.211626 108.219733 2.696533 199.80288 30.464 264.84736 80.30208 72.997547 55.93088 110.26432 138.420907 107.769174 238.557867-2.4576 98.522453-42.17856 180.69504-114.875734 237.62944-67.13344 52.578987-157.320533 80.370347-260.805973 80.370347z m-13.6704-596.11136c-203.90912 0-328.06912 97.245867-332.12416 260.12672-4.334933 173.974187 126.252373 289.713493 332.68736 294.8608 4.389547 0.109227 8.751787 0.16384 13.1072 0.16384 199.133867 0 330.530133-109.14816 334.742187-278.063787 4.18816-168.086187-120.183467-271.59552-332.690774-276.893013a638.917973 638.917973 0 0 0-15.721813-0.19456z" fill="#FF4317" /><path d="M300.018347 361.762133m-11.97056 0a11.97056 11.97056 0 1 0 23.94112 0 11.97056 11.97056 0 1 0-23.94112 0Z" fill="#FF4317" /><path d="M567.528107 611.34848m-11.973974 0a11.973973 11.973973 0 1 0 23.947947 0 11.973973 11.973973 0 1 0-23.947947 0Z" fill="#FF4317" /><path d="M448.662187 712.731307m-11.973974 0a11.973973 11.973973 0 1 0 23.947947 0 11.973973 11.973973 0 1 0-23.947947 0Z" fill="#FF4317" /><path d="M598.268587 338.397867m-11.973974 0a11.973973 11.973973 0 1 0 23.947947 0 11.973973 11.973973 0 1 0-23.947947 0Z" fill="#FF4317" /><path d="M660.964693 706.05824m-11.973973 0a11.973973 11.973973 0 1 0 23.947947 0 11.973973 11.973973 0 1 0-23.947947 0Z" fill="#FF4317" /><path d="M571.508053 726.04672m-11.97056 0a11.97056 11.97056 0 1 0 23.94112 0 11.97056 11.97056 0 1 0-23.94112 0Z" fill="#FF4317" /><path d="M559.889067 780.509867m-11.967147 0a11.967147 11.967147 0 1 0 23.934293 0 11.967147 11.967147 0 1 0-23.934293 0Z" fill="#FF4317" /><path d="M520.830293 837.690027m-11.973973 0a11.973973 11.973973 0 1 0 23.947947 0 11.973973 11.973973 0 1 0-23.947947 0Z" fill="#FF4317" /><path d="M249.490773 741.976747m-11.97056 0a11.97056 11.97056 0 1 0 23.94112 0 11.97056 11.97056 0 1 0-23.94112 0Z" fill="#FF4317" /><path d="M453.973333 774.447787m-11.973973 0a11.973973 11.973973 0 1 0 23.947947 0 11.973973 11.973973 0 1 0-23.947947 0Z" fill="#FF4317" /><path d="M648.874667 779.301547m-11.973974 0a11.973973 11.973973 0 1 0 23.947947 0 11.973973 11.973973 0 1 0-23.947947 0Z" fill="#FF4317" /><path d="M622.056107 669.98272m-11.967147 0a11.967147 11.967147 0 1 0 23.934293 0 11.967147 11.967147 0 1 0-23.934293 0Z" fill="#FF4317" /><path d="M744.229547 680.76544m-11.967147 0a11.967147 11.967147 0 1 0 23.934293 0 11.967147 11.967147 0 1 0-23.934293 0Z" fill="#FF4317" /><path d="M481.31072 796.514987m-11.973973 0a11.973973 11.973973 0 1 0 23.947946 0 11.973973 11.973973 0 1 0-23.947946 0Z" fill="#FF4317" /><path d="M358.22592 772.05504m-11.973973 0a11.973973 11.973973 0 1 0 23.947946 0 11.973973 11.973973 0 1 0-23.947946 0Z" fill="#FF4317" /><path d="M537.688747 709.833387m-11.97056 0a11.97056 11.97056 0 1 0 23.94112 0 11.97056 11.97056 0 1 0-23.94112 0Z" fill="#FF4317" /><path d="M664.3712 569.279147m-11.973973 0a11.973973 11.973973 0 1 0 23.947946 0 11.973973 11.973973 0 1 0-23.947946 0Z" fill="#FF4317" /><path d="M479.781547 287.546027m-11.973974 0a11.973973 11.973973 0 1 0 23.947947 0 11.973973 11.973973 0 1 0-23.947947 0Z" fill="#FF4317" /><path d="M669.508267 637.835947m-11.97056 0a11.97056 11.97056 0 1 0 23.94112 0 11.97056 11.97056 0 1 0-23.94112 0Z" fill="#FF4317" /><path d="M747.045547 478.969173m-11.973974 0a11.973973 11.973973 0 1 0 23.947947 0 11.973973 11.973973 0 1 0-23.947947 0Z" fill="#FF4317" /><path d="M248.832 69.891413C176.790187 62.327467 109.666987 93.65504 68.266667 146.91328c29.44 60.69248 88.59648 105.280853 160.628053 112.837973 72.0384 7.560533 139.1616-23.770453 180.57216-77.02528-29.453653-60.699307-88.610133-105.291093-160.63488-112.83456z" fill="#3CFF1A" /><path d="M250.210987 281.347413h-0.01024c-7.778987 0-15.6672-0.416427-23.442774-1.2288-76.950187-8.072533-143.086933-54.524587-176.91648-124.265813a20.483413 20.483413 0 0 1 2.256214-21.507413c42.513067-54.685013 106.448213-86.050133 175.418026-86.050134 7.7824 0 15.674027 0.416427 23.456427 1.232214 76.93312 8.055467 143.07328 54.50752 176.923307 124.258986a20.473173 20.473173 0 0 1-2.259627 21.51424c-42.52672 54.6816-106.468693 86.04672-175.424853 86.04672zM92.781227 149.48352c29.00992 50.490027 79.81056 83.766613 138.25024 89.89696 6.362453 0.669013 12.81024 1.006933 19.16928 1.006933 51.88608 0 100.304213-21.797547 134.751573-60.235093-29.026987-50.496853-79.827627-83.77344-138.253653-89.890133a184.490667 184.490667 0 0 0-19.186347-1.006934c-51.889493-0.003413-100.3008 21.79072-134.731093 60.228267z" fill="#00C11B" /><path d="M426.943147 341.428907a20.48 20.48 0 0 1-20.462934-19.981654l-4.993706-205.68064a20.48 20.48 0 1 1 40.94976-0.99328l4.993706 205.68064a20.48 20.48 0 0 1-19.97824 20.97152l-0.508586 0.003414z" fill="#00C11B" /><path d="M366.63296 307.544747c3.24608-24.098133 20.022613-47.557973 41.41056-49.59232l36.43392-1.815894c21.387947-2.034347 42.77248 15.69792 50.500267 44.89216 2.205013 26.043733 8.820053 45.01504-36.58752 49.506987l-36.43392 2.02752c-53.572267 4.6592-58.023253-20.906667-55.323307-45.018453z" fill="#00C11B" /><path d="M187.2896 713.536853a20.45952 20.45952 0 0 1-13.90592-5.43744c-1.01376-0.935253-2.863787-3.536213-5.19168-7.58784 0.273067 0.68608 0.58368 1.348267 0.935253 1.979734a20.155733 20.155733 0 0 1-1.256106-2.53952c-17.087147-30.170453-58.088107-135.447893 11.874986-238.49984a20.473173 20.473173 0 0 1 28.44672-5.440854 20.48 20.48 0 0 1 5.440854 28.44672c-61.68576 90.85952-16.418133 183.814827-9.85088 196.20864 0.2048 0.310613 0.39936 0.628053 0.587093 0.948907 7.509333 12.91264 0.84992 23.30624-4.273493 27.41248a20.41856 20.41856 0 0 1-12.806827 4.509013zM267.748693 414.67904c2.174293 12.509867-7.168 24.111787-20.8896 25.9072-13.718187 1.798827-26.606933-6.888107-28.788053-19.397973-2.174293-12.51328 7.174827-24.111787 20.893013-25.9072 13.7216-1.80224 26.610347 6.884693 28.78464 19.397973z" fill="#FFFFFF" /><path d="M955.354453 729.859413c3.925333-28.511573-23.330133-52.104533-52.107946-52.104533a51.9168 51.9168 0 0 0-17.875627 3.211947c-0.017067-0.354987-145.158827 53.67808-231.273813 53.67808-80.052907 0-153.09824-18.486613-217.197227-47.67744-9.567573-5.62176-18.551467-8.762027-29.556053-9.212587-28.750507-1.1776-55.599787 23.538347-52.104534 52.104533 1.645227 13.47584 9.434453 26.350933 14.404267 35.90144 1.768107 3.334827 100.706987 195.9936 283.25888 189.29664 130.566827-4.79232 225.191253-80.257707 285.320533-186.658133 7.697067-15.182507 15.332693-25.511253 17.13152-38.539947z" fill="#FF8C1A" /><path d="M643.628373 975.70816h-0.01024c-181.88288-0.003413-281.296213-179.780267-292.03456-200.280747-0.761173-1.460907-1.46432-2.771627-2.194773-4.13696-5.317973-9.925973-12.598613-23.524693-14.482773-38.946133-2.22208-18.16576 3.570347-36.099413 16.308906-50.49344 14.271147-16.124587 35.69664-25.3952 56.961707-24.55552 13.5168 0.55296 25.320107 4.092587 38.12352 11.451733 66.515627 30.139733 136.420693 45.421227 207.793493 45.421227 47.148373 0 127.515307-18.650453 220.511574-51.162453a179.268267 179.268267 0 0 1 3.97312-1.358507 72.3968 72.3968 0 0 1 24.66816-4.365653c21.623467 0 42.932907 9.63584 56.999253 25.777493 12.376747 14.196053 17.84832 31.812267 15.397547 49.599147-1.846613 13.376853-7.522987 23.6544-13.53728 34.532693-1.80224 3.263147-3.710293 6.710613-5.618347 10.47552l-0.436907 0.812373c-70.202027 124.224853-174.769493 192.3584-302.400853 197.04832-3.365547 0.119467-6.703787 0.180907-10.021547 0.180907zM405.367467 698.197333c-8.71424 0-17.48992 4.037973-23.476907 10.799787-2.812587 3.181227-7.376213 9.792853-6.324907 18.377387 0.955733 7.81312 5.932373 17.11104 9.9328 24.579413 0.80896 1.508693 1.5872 2.962773 2.307414 4.348587 3.877547 7.400107 95.307093 178.438827 255.812266 178.44224h0.01024c2.819413 0 5.655893-0.0512 8.51968-0.157014 142.09024-5.215573 224.1536-98.42688 268.018347-175.875413a377.617067 377.617067 0 0 1 6.085973-11.33568c4.645547-8.410453 8.00768-14.4896 8.809814-20.312747 1.037653-7.540053-2.522453-13.458773-5.69344-17.097386-6.311253-7.236267-16.319147-11.731627-26.125654-11.731627a31.542613 31.542613 0 0 0-10.84416 1.96608l-3.66592 1.252693-0.641706 0.22528c-57.101653 19.961173-163.4304 53.44256-233.997654 53.44256-77.595307 0-153.52832-16.66048-225.686186-49.517226l-1.890987-0.98304c-7.256747-4.266667-13.056-6.12352-20.015787-6.406827-0.375467-0.01024-0.75776-0.017067-1.133226-0.017067z" fill="#FF7900" /><path d="M455.92576 780.404053c5.123413-17.964373 12.557653-33.44384 20.486827-44.086613-11.625813 2.64192-23.773867 17.462613-29.487787 37.474987-5.126827 17.974613-3.638613 35.116373 2.84672 44.499626 0.27648-11.270827 2.28352-24.333653 6.15424-37.888zM498.82112 808.2432c1.877333-22.50752 6.478507-42.666667 12.407467-57.238187-10.990933 6.045013-20.350293 26.606933-22.449494 51.69152-1.877333 22.524587 2.618027 42.407253 10.67008 51.879254-1.723733-13.400747-2.044587-29.334187-0.628053-46.332587zM540.494507 828.112213c0.28672-26.893653 3.45088-51.244373 8.338773-69.0688-10.540373 8.147627-18.42176 33.39264-18.752853 63.36512-0.28672 26.91072 5.597867 50.131627 14.298453 60.665174-2.658987-15.75936-4.109653-34.65216-3.884373-54.961494zM580.908373 842.41408c-1.44384-28.613973 0.146773-54.69184 3.877547-73.94304-9.99424 9.311573-16.244053 36.635307-14.629547 68.519253 1.447253 28.634453 8.8064 52.954453 18.179414 63.614294-3.682987-16.59904-6.335147-36.584107-7.427414-58.190507zM619.967147 853.538133c-2.321067-30.119253-1.529173-57.644373 1.614506-78.025386-9.70752 10.042027-15.121067 39.000747-12.540586 72.58112 2.317653 30.13632 10.427733 55.599787 20.118186 66.614613-4.17792-17.404587-7.447893-38.413653-9.192106-61.170347zM860.951893 780.404053c-5.13024-17.964373-12.56448-33.44384-20.486826-44.086613 11.6224 2.64192 23.773867 17.462613 29.484373 37.474987 5.13024 17.974613 3.64544 35.116373-2.850133 44.499626-0.269653-11.270827-2.280107-24.333653-6.147414-37.888zM818.056533 811.83744c-1.87392-22.504107-6.475093-42.663253-12.407466-57.2416 10.994347 6.045013 20.350293 26.606933 22.449493 51.698347 1.880747 22.524587-2.62144 42.407253-10.676907 51.879253 1.73056-13.40416 2.051413-29.341013 0.63488-46.336zM776.38656 831.70304c-0.28672-26.893653-3.454293-51.24096-8.338773-69.065387 10.533547 8.15104 18.418347 33.39264 18.746026 63.368534 0.28672 26.91072-5.59104 50.131627-14.29504 60.665173 2.658987-15.7696 4.109653-34.6624 3.887787-54.96832zM735.96928 846.004907c1.44384-28.607147-0.14336-54.685013-3.874133-73.94304 9.987413 9.314987 16.244053 36.63872 14.629546 68.52608-1.447253 28.627627-8.8064 52.947627-18.182826 63.607466 3.679573-16.592213 6.33856-36.584107 7.427413-58.190506zM696.91392 857.12896c2.321067-30.11584 1.522347-57.64096-1.621333-78.025387 9.70752 10.04544 15.12448 39.000747 12.547413 72.577707-2.321067 30.139733-10.427733 55.606613-20.118187 66.614613 4.17792-17.39776 7.441067-38.413653 9.192107-61.166933zM663.135573 860.112213c-2.372267-30.887253-3.498667-58.8288-5.727573-79.977813-4.734293 14.411093-7.860907 39.94624-5.208747 74.366293 2.37568 30.900907 6.54336 52.783787 13.059414 68.33152 1.119573-17.339733-0.32768-39.389867-2.123094-62.72z" fill="#FFB133" /></svg>