<?xml version="1.0" standalone="no"?><!DOCTYPE svg PUBLIC "-//W3C//DTD SVG 1.1//EN" "http://www.w3.org/Graphics/SVG/1.1/DTD/svg11.dtd"><svg class="icon" width="48px" height="48.00px" viewBox="0 0 1024 1024" version="1.1" xmlns="http://www.w3.org/2000/svg"><path d="M512 427m-360 0a360 360 0 1 0 720 0 360 360 0 1 0-720 0Z" fill="#EAACBD" /><path d="M502 469m-348 0a348 348 0 1 0 696 0 348 348 0 1 0-696 0Z" fill="#FFFFFF" /><path d="M157 577h709.1c-9.6 168.2-164.6 302-354.5 302S166.6 745.2 157 577z" fill="#E3E3E3" /><path d="M375 831v-21c0-6.6 5.4-12 12-12s12 5.4 12 12v72c0-6.6-5.4-12-12-12s-12 5.4-12 12v39c0 7.7-6.3 14-14 14s-14-6.3-14-14v-90c0-7.7 6.3-14 14-14s14 6.3 14 14z" fill="#E3E3E3" /><path d="M412 773c7.7 0 14 6.3 14 14v98c0 7.7-6.3 14-14 14s-14-6.3-14-14v-98c0-7.7 6.3-14 14-14z" fill="#E3E3E3" /><path d="M414 925m-14 0a14 14 0 1 0 28 0 14 14 0 1 0-28 0Z" fill="#E3E3E3" /><path d="M235 635m-14 0a14 14 0 1 0 28 0 14 14 0 1 0-28 0Z" fill="#FFFFFF" /><path d="M191.6 578c-4.2-21.7-6.5-44.1-6.5-67.1C185.1 318.7 340.9 163 533 163s348 155.8 348 347.9c0 22.9-2.2 45.4-6.5 67.1H191.6z" fill="#DE436E" /><path d="M171.1 598h-26.9c0.7-1.8 1.3-3.5 1.8-5l-2.4-2.5c-1.4-1.4-2.7-3.4-3.4-4.7-7.4-10.1-18.2-27-18.2-48 0-20.9 10.8-37.2 18.2-48 1.4-1.4 2-3.4 3.4-4.7l-2-6.1c-4.1-12.2-10.1-30.4-4.1-50.7 6.1-20.9 20.9-33.1 31.1-41.2 1.4-1.4 3.4-2.7 4.7-4.1v-6c0-12.8-0.7-32.4 10.8-50s29.1-25.7 41.2-30.4c1.4-0.7 3.4-2 5.4-2.7 0-2 0.7-4.1 1.4-6.1 3.4-12.8 8.1-31.8 24.3-45.3 15.5-14.2 35.1-16.2 48-17.6 2 0 4.1-0.7 6.1-0.7 1.4-2 2.7-4.1 3.4-5.4 6.8-10.8 16.2-27.7 35.8-36.5 8.1-4.1 17.6-6.1 27.7-6.1 8.8 0 16.2 1.4 23 2.7 2 0 4.1 0.7 6.1 0.7l4.1-4.1c9.5-8.8 24.3-22.3 45.3-25 2.7-0.7 6.1-0.7 8.8-0.7 16.9 0 31.1 7.4 41.2 12.2 2 0.7 4.1 2 6.1 2.7 2-0.7 4.1-2 6.1-2.7 10.1-5.4 24.3-12.2 41.2-12.2 3.4 0 6.1 0 8.8 0.7l8.1 2c7.4 2.7 14.2 6.1 19.6 9.5 7.4 4.7 12.8 10.1 17.6 14.2 0.7 1.4 2.7 2.7 4.1 4.1 2 0 4.1-0.7 6.1-0.7 3.4 0 6.8-0.7 10.1-1.4 4.1 0 8.8-0.7 13.5-0.7 6.1 0 11.5 0.7 16.9 2 4.1 0.7 7.4 2 10.8 3.4 18.9 8.8 29.1 25.7 35.8 36.5 1.4 2 2 4.1 3.4 5.4 2 0 4.1 0.7 6.1 0.7 12.8 1.4 31.8 4.1 48 17.6 16.2 14.2 20.9 33.1 24.3 45.3 0 2 0.7 4.1 1.4 6.1 1.4 1.4 4.1 2 5.4 2.7 11.5 4.7 29.7 12.8 41.2 30.4 11.5 17.6 11.5 37.2 10.8 50v6.1c1.4 1.4 3.4 2.7 4.7 4.1 10.1 8.1 25 20.9 31.1 41.2s0 38.5-4.1 50.7l-2 6.1c1.4 1.4 2.7 3.4 3.4 4.7 7.4 10.1 18.2 27 18.2 48s-10.8 37.2-18.2 48c-1.4 1.4-2 3.4-3.4 4.7 0.7 2 1.4 4.7 1.4 5.4 0.2 0.5 0.3 0.9 0.5 1.4h-28.1c-0.7-3.7-1-7.3-0.6-10.8 2.8-16.2 23.3-31.7 24-48 0-4.9-2.1-10.6-4.9-15.5-0.7-2.1-2.1-4.2-3.5-6.3l-4.2-6.3c-1.4-2.1-3.5-4.9-4.9-7.8l-2.1-4.2c-1.4-2.8-2.1-6.3-2.8-9.2-0.7-4.2 0-9.2 0.7-13.4 0.7-2.1 1.4-4.9 2.1-7.1 0.7-1.4 0.7-2.1 1.4-3.5 0.7-2.1 1.4-4.9 2.1-7.1 1.4-4.2 2.1-9.2 2.8-13.4v-3.5c0-2.1 0-4.2-0.7-6.3-4.9-16.9-28.9-25.4-36-40.9-7.1-15.5 2.1-39.5-7.1-53.6-9.2-14.1-34.6-16.2-45.8-28.9-11.3-12.7-9.2-38.1-21.9-49.4-12.7-11.3-38.1-5.6-52.2-14.8-1.4-0.7-2.1-1.4-2.8-2.1-2.1-1.4-3.5-3.5-4.9-4.9-1.4-1.4-3.5-3.5-4.2-5.6-0.7-2.1-2.1-4.2-3.5-6.3-0.7-2.1-2.1-4.2-3.5-6.3-1.4-1.4-2.8-3.5-4.2-5.6-2.1-2.8-4.2-5.6-7.1-7.8-2.1-1.4-3.5-2.8-5.6-3.5-1.4-0.7-2.8-1.4-5.6-1.4-2.1-0.7-3.5-0.7-6.3-0.7-2.1 0-4.9 0-7.8 0.7-2.8 0.7-5.6 0.7-8.5 1.4-2.8 0.7-5.6 0.7-9.2 1.4-2.8 0.7-4.9 0.7-7.8 0.7h-4.9c-0.7 0-2.1 0-3.5-0.7-2.1-0.7-3.5-1.4-5.6-2.8-2.1-0.7-3.5-2.1-5.6-3.5-2.1-1.4-3.5-2.8-5.6-4.2-0.7-0.7-2.1-1.4-2.8-2.1-2.1-1.4-3.5-3.5-5.6-4.9-6.3-5.6-13.4-11.3-20.5-12h-2.8c-2.1 0-3.5 0-6.3 0.7-2.1 0-3.5 0.7-6.3 1.4-2.1 0.7-3.5 1.4-6.3 2.8-2.1 0.7-3.5 2.1-5.6 2.8-2.1 0.7-3.5 2.1-6.3 3.5-2.1 0.7-3.5 1.4-6.3 2.1-2.1 0.7-3.5 0.7-6.3 1.4-2.1 0.7-3.5 0.7-5.6 0.7-1.4 0-3.5 0-6.3-0.7-2.1 0-3.5-0.7-6.3-1.4-2.1-0.7-3.5-1.4-6.3-2.8-2.1-0.7-3.5-2.1-5.6-2.8s-3.5-2.1-6.3-3.5c-2.1-0.7-3.5-1.4-6.3-2.1-2.1-0.7-3.5-0.7-6.3-1.4-2.1-0.7-3.5-0.7-5.6-0.7H461c-3.5 0.7-6.3 2.1-9.2 3.5-2.1 0.7-3.5 1.4-5.6 3.5-2.1 2.1-3.5 3.5-5.6 4.9-2.1 1.4-3.5 3.5-5.6 4.9-2.1 2.1-3.5 3.5-5.6 4.9-2.1 1.4-3.5 2.8-5.6 4.2-2.8 2.1-5.6 3.5-8.5 4.2-0.7 0-2.1 0.7-3.5 0.7h-4.9c-2.1 0-4.9 0-8.5-0.7-2.8-0.7-5.6-0.7-8.5-1.4-2.8-0.7-5.6-0.7-8.5-1.4-2.8-0.7-4.9-0.7-8.5-0.7-2.1 0-4.2 0.7-6.3 0.7-1.4 0-3.5 0.7-4.9 1.4-2.8 1.4-5.6 3.5-7.8 5.6-1.4 1.4-2.8 2.8-4.2 4.9-0.7 0.7-1.4 2.1-2.1 2.8-0.7 2.1-2.1 4.2-3.5 6.3-0.7 0.7-1.4 2.1-2.1 2.8-0.7 2.1-2.1 4.2-3.5 6.3-0.7 0.7-1.4 2.1-2.1 2.8-1.4 1.4-2.8 3.5-4.2 4.9-1.4 1.4-2.8 2.8-4.9 4.2-14.1 9.2-39.5 3.5-52.2 14.8-12.7 10.6-10.6 36.7-21.9 49.4-10.6 12.7-36.7 14.8-45.8 28.9-9.2 14.1 0 38.1-7.1 53.6-2.8 6.3-7.8 10.6-13.4 15.5-2.8 2.1-5.6 4.9-8.5 7.1-2.1 1.4-4.2 3.5-5.6 4.9-4.2 4.2-7.8 8.5-9.2 13.4-0.7 2.1-0.7 4.2-0.7 6.3 0 2.1 0 4.2 0.7 6.3 0 2.8 0.7 4.9 1.4 7.1 1.4 3.5 2.1 7.1 3.5 10.6 2.1 7.1 4.2 14.1 4.2 20.5v3.5c-0.7 4.2-2.8 7.8-4.9 12-0.7 2.1-2.1 4.2-3.5 6.3-0.7 0.7-1.4 2.1-2.1 2.8-2.1 2.8-4.2 6.3-6.3 9.2-2.1 2.8-3.5 6.3-4.9 9.2-0.7 2.1-1.4 4.2-1.4 6.3v3.5c0 4.9 2.1 10.6 4.9 15.5 0.7 2.1 2.1 4.2 3.5 6.3l4.2 6.3c2.1 4.2 4.9 7.8 7.1 12 1.4 2.8 2.1 6.3 2.8 9.2v3.5c0 2.1 0 4.2-0.7 6.3-0.3 0.5-0.3 0.5-0.3 0.6z" fill="#333333" /><path d="M349.8 461.1c-2.9-4.8-1.3-11.1 3.5-14 17.8-10.7 13-18.5 10.8-22.3-11.7-19.5-35.1-29.4-48.2-33.6-2.4 13.5-4.7 38.8 7.1 58.3 2.9 4.8 1.3 11.1-3.5 14-4.8 2.9-11.1 1.3-14-3.5-21.5-35.8-7.5-82.4-6.9-84.4 1.5-5 6.6-8 11.7-7 2 0.4 49.8 9.9 71.3 45.7 11 18.2 4.3 37-17.7 50.3-5 2.9-11.2 1.3-14.1-3.5zM584 451.1c4.6-1.8 9.9 0.5 11.7 5.2 1.8 4.6-0.5 9.9-5.2 11.7-17.1 6.6-14.2 14.2-12.8 17.8 7.2 18.9 26.1 31.1 36.9 36.7 4.2-11.4 10-33.1 2.8-52-1.8-4.7 0.5-9.9 5.2-11.7 4.7-1.8 9.9 0.5 11.7 5.2 13.3 34.6-6.1 73.1-7 74.7-2.1 4.1-6.9 5.9-11.2 4.3-1.7-0.7-41.9-16.3-55.1-50.8-7-17.6 1.7-32.9 23-41.1M683.2 425.5c-3.9-3.7-4.1-9.8-0.5-13.7 3.7-3.9 9.8-4.1 13.7-0.5 14.5 13.5 20.4 7.1 23.3 4 14.8-15.9 17.8-39.9 18.2-53-13.1 1.3-36.8 5.9-51.6 21.8-3.7 3.9-9.8 4.1-13.7 0.5-3.9-3.7-4.1-9.8-0.5-13.7 27.2-29.2 73.6-28.6 75.6-28.5 4.9 0.1 9 3.9 9.5 8.8 0.2 2 4 48.2-23.2 77.4-13.8 14.7-32.8 13.6-50.8-3.1M492.1 407.3c-3.2-3.8-2.7-9.5 1.1-12.7 3.8-3.2 9.5-2.7 12.7 1.1 11.8 14.1 18 8.8 21 6.3 15.5-13 20.9-34.8 22.7-46.8-12.2-0.3-34.6 1.3-50 14.3-3.8 3.2-9.5 2.7-12.7-1.1-3.2-3.8-2.7-9.5 1.1-12.7 28.4-23.8 71.1-18 72.9-17.7 4.5 0.7 7.9 4.6 7.7 9.2-0.1 1.8-1.8 44.9-30.1 68.7-14.4 12.1-31.7 8.9-46.4-8.6M445.1 473.4c4.5 2.1 6.5 7.5 4.4 12-2.1 4.5-7.5 6.5-12 4.4-16.6-7.8-20.1-0.4-21.7 3.1-8.5 18.3-4.2 40.3-0.8 52 11.1-4.9 30.8-15.8 39.3-34.1 2.1-4.5 7.5-6.5 12-4.4 4.5 2.1 6.5 7.5 4.4 12-15.6 33.6-56.8 46.3-58.6 46.9-4.4 1.3-9.1-0.9-10.9-5.1-0.7-1.7-17.4-41.4-1.7-75 7.8-17 24.9-21.5 45.6-11.8M150 574h725c7.2 0 13 5.8 13 13s-5.8 13-13 13H150c-7.2 0-13-5.8-13-13s5.8-13 13-13zM247.7 471.2c4.8 1.1 7.9 5.9 6.7 10.8-1.1 4.8-5.9 7.9-10.8 6.7-17.8-4.1-19.6 3.8-20.5 7.6-4.5 19.6 4.2 40.2 10 50.9 9.9-7.1 26.8-21.8 31.3-41.4 1.1-4.8 5.9-7.9 10.8-6.7 4.8 1.1 7.9 5.9 6.7 10.8-8.3 36-45.8 57-47.4 57.8-4 2.2-9.1 1-11.7-2.7-1-1.5-25.5-36.8-17.2-72.8 4.2-18.3 19.9-26.2 42.1-21M744.1 478.9c-3.2 3.7-2.8 9.3 0.9 12.5 3.7 3.2 9.3 2.8 12.5-0.9 11.8-13.6 17.8-8.3 20.7-5.8 14.9 13 19.8 34.4 21.5 46.2-11.9 0-33.8-1.8-48.8-14.8-3.7-3.2-9.3-2.8-12.5 0.9-3.2 3.7-2.8 9.3 0.9 12.5 27.4 23.8 69.3 18.8 71.1 18.6 4.5-0.6 7.8-4.4 7.7-8.9 0-1.8-1-44-28.3-67.8-14-12.2-31.1-9.4-45.7 7.5" fill="#333333" /><path d="M634.96 266.033c-91.164 19.377-186.173-63.991-186.173-63.991s52.907-114.707 144.07-134.084c91.164-19.378 186.173 63.99 186.173 63.99s-52.907 114.707-144.07 134.085" fill="#FFFFFE" /><path d="M475.126 239.382s52.907-114.707 144.07-134.084c91.164-19.378 158.94 43.607 158.94 43.607 15.061 11.214 20.178 33.845 10.625 49.983 0 0-36.299 85.107-127.462 104.484-91.164 19.378-186.173-63.99-186.173-63.99z" fill="#9CCB3B" /><path d="M473.173 212.398c25 19.018 96.74 67.46 163.84 53.198 67.102-14.263 113.033-87.718 128.04-115.239-24.903-19.038-96.74-67.46-163.841-53.198-67.297 14.304-113.033 87.718-128.039 115.239z m170.14 82.836c-97.423 20.708-195.133-63.824-199.276-67.442-5.035-4.45-6.574-11.689-3.763-17.704 2.313-4.99 57.214-121.859 154.638-142.567 97.521-20.729 195.232 63.803 199.276 67.442a15.15 15.15 0 0 1 3.764 17.704c-2.236 4.872-57.117 121.838-154.638 142.567z" fill="#333333" /><path d="M722.037 149.993c0.908 3.794 0.35 7.9-1.863 11.437-4.426 7.075-13.775 9.266-20.85 4.84a219.3 219.3 0 0 0-27.675-14.768c-7.69-3.477-11.014-12.38-7.635-20.05 3.4-7.573 12.38-11.016 20.05-7.636a268.925 268.925 0 0 1 31.27 16.765c3.537 2.213 5.794 5.618 6.703 9.412" fill="#FFFFFF" /><path d="M453.2 167.1c1.2 0.7 2.6 1.2 4 1.6 8 1.9 16.1-3 18-11.1 6.5-27.2-10.7-73.4-12.7-78.6-2.9-7.7-11.6-11.5-19.3-8.6-7.7 3-11.6 11.6-8.6 19.3 6.2 16.2 14.8 47.1 11.5 60.9-1.6 6.6 1.5 13.2 7.1 16.5" fill="#333333" /><path d="M280.4 239.8c14.1-48 69-74 122.5-58.2 53.5 15.8 85.4 67.5 71.3 115.4-14.1 48-69 74-122.5 58.2-53.6-15.7-85.5-67.4-71.3-115.4" fill="#FFFFFE" /><path d="M295.4 206.8c14.1-48 69-74 122.5-58.2 53.5 15.8 85.4 67.5 71.3 115.4-14.1 48-69 74-122.5 58.2-53.6-15.7-85.5-67.4-71.3-115.4" fill="#9CCB3B" /><path d="M383.9 163c12 0 24.2 1.7 36.1 5.3 7.4 2.2 14.6 5 21.5 8.5 7.8 3.9 10.9 13.4 7 21.1-3.9 7.8-13.4 10.9-21.1 7-5.2-2.6-10.7-4.8-16.2-6.4-22.2-6.5-45.2-5-64.8 4.3-19 9.1-32.6 24.4-38.1 43.3-5.6 18.9-2.5 39.1 8.5 57.1 11.4 18.5 29.9 32.3 52.1 38.8 18.9 5.6 38.2 5.3 56-0.8 8.2-2.8 17.1 1.6 20 9.8 2.8 8.2-1.6 17.2-9.8 19.9-23.9 8.2-49.9 8.6-75.1 1.2-29.6-8.7-54.4-27.4-69.9-52.5-15.8-25.6-20.1-54.9-12-82.5 8.1-27.5 27.6-49.8 54.8-62.8 15.8-7.5 33.2-11.3 51-11.3" fill="#333333" /><path d="M780.344 684.775c-0.478-0.146-1.052-0.322-1.5-0.564-8.058-3.404-11.831-12.61-8.427-20.666 2.54-5.916 4.603-11.978 6.387-17.811 2.448-8.35 11.247-13.188 19.596-10.74 8.578 2.727 13.092 11.218 10.644 19.567-2.038 7.01-4.643 14.161-7.534 21.225-3.258 7.578-11.611 11.299-19.166 8.989M530.67 851.565c-5.834-1.783-10.328-6.922-11.06-13.42-0.912-8.644 5.345-16.456 13.99-17.369 81.99-8.918 156.487-46.687 204.314-103.59 5.59-6.657 15.47-7.505 22.222-1.886 6.657 5.59 7.476 15.566 1.885 22.223-53.05 63.044-135.07 104.892-225.042 114.612-2.272 0.246-4.397 0.015-6.31-0.57" fill="#FFFFFF" /><path d="M155.9 169.6c-4.2 1.4-8 3.7-11.2 6.4 4.2 1.3 7.8 4.6 9.3 9.1 2.4 7.3-1.6 15.4-8.9 17.8-3.8 1.3-7.7 0.8-11-0.9 0.1 2.6 0.7 5.4 1.5 8 5.4 16.7 23.5 25.9 40.3 20.4s25.9-23.6 20.4-40.4c-5.7-16.7-23.7-25.9-40.4-20.4z" fill="#DE436E" /><path d="M173.4 191.4c1.1 3.2 1.5 6.8 1 10.5-1.4 10.3-10 18.6-20.4 19.6-14.4 1.5-26.5-10.6-25-25 1-10.3 9.1-18.8 19.3-20.4 3.7-0.6 7.3-0.2 10.5 0.8 2.4 0.8 4.9 0.3 6.8-1.4l0.2-0.2c3.8-3.4 2.5-9.7-2.4-11.4-4.5-1.5-9.2-2.2-14.2-1.8-18.3 1.2-33 16-34.1 34.3-1.5 23.3 18.7 42.2 42.3 38.6 15.5-2.3 28-14.6 30.5-30 1-6.2 0.5-12.3-1.4-17.7-1.6-4.8-7.5-6.4-11.2-3-2 1.8-2.8 4.6-1.9 7.1z" fill="#DE436E" /><path d="M866 209.2c0 5.1 4.1 9.2 9.2 9.2s9.2-4.1 9.2-9.2-4.1-9.2-9.2-9.2-9.2 4.1-9.2 9.2z" fill="#4CC6F4" /><path d="M870.2 183c-14 0-25.2 11.2-25.2 25.2s11.2 25.2 25.2 25.2 25.2-11.2 25.2-25.2-11.2-25.2-25.2-25.2z m0 34.4c-5 0-9.2-4.1-9.2-9.2s4.1-9.2 9.2-9.2c5 0 9.2 4.1 9.2 9.2s-4.1 9.2-9.2 9.2z" fill="#5C3290" /><path d="M866 707.5c0 3 2.5 5.5 5.5 5.5s5.5-2.5 5.5-5.5-2.5-5.5-5.5-5.5-5.5 2.5-5.5 5.5zM907 704.5c0 3 2.5 5.5 5.5 5.5s5.5-2.5 5.5-5.5-2.5-5.5-5.5-5.5-5.5 2.5-5.5 5.5zM885 688.5c0 3 2.5 5.5 5.5 5.5s5.5-2.5 5.5-5.5-2.5-5.5-5.5-5.5-5.5 2.5-5.5 5.5zM886 726.5c0 3 2.5 5.5 5.5 5.5s5.5-2.5 5.5-5.5-2.5-5.5-5.5-5.5-5.5 2.5-5.5 5.5zM866.9 677.4l17 17c1.8 1.8 1.8 4.7 0 6.5s-4.7 1.8-6.5 0l-17-17c-1.8-1.8-1.8-4.7 0-6.5s4.8-1.8 6.5 0z m-6.4 54.4l17-17c1.8-1.8 4.7-1.8 6.5 0s1.8 4.7 0 6.5l-17 17c-1.8 1.8-4.7 1.8-6.5 0s-1.8-4.7 0-6.5z m56.3 5.5l-17-17c-1.8-1.8-1.8-4.7 0-6.5s4.7-1.8 6.5 0l17 17c1.8 1.8 1.8 4.7 0 6.5s-4.8 1.8-6.5 0z m4.6-55.3l-17 16.9c-1.8 1.8-4.7 1.8-6.5 0s-1.8-4.7 0-6.5l17-17c1.8-1.8 4.7-1.8 6.5 0 1.7 1.9 1.7 4.8 0 6.6z" fill="#FCDDCC" /><path d="M199.4 821.9l-8.1-8.1c-1.8-1.8-1.8-4.7 0-6.5 1.8-1.8 4.7-1.8 6.5 0l8.1 8.1c1.8 1.8 1.8 4.7 0 6.5-1.8 1.7-4.6 1.7-6.5 0z m-1.3 13.9h-11.5c-2.5 0-4.6-2.1-4.6-4.6 0-2.5 2.1-4.6 4.6-4.6h11.5c2.5 0 4.6 2.1 4.6 4.6-0.1 2.5-2.1 4.6-4.6 4.6z m8.8 10.7l-8.1 8.1c-1.8 1.8-4.7 1.8-6.5 0-1.8-1.8-1.8-4.7 0-6.5l8.1-8.1c1.8-1.8 4.7-1.8 6.5 0 1.7 2 1.7 4.8 0 6.5z m13.9 1.5v11.5c0 2.5-2.1 4.6-4.6 4.6-2.5 0-4.6-2.1-4.6-4.6V848c0-2.5 2.1-4.6 4.6-4.6 2.5 0 4.6 2.1 4.6 4.6z m10.7-8.8l8.1 8.1c1.8 1.8 1.8 4.7 0 6.5-1.8 1.8-4.7 1.8-6.5 0l-8.1-8.1c-1.8-1.8-1.8-4.7 0-6.5 1.8-1.8 4.8-1.8 6.5 0z m1.5-13.9h11.5c2.5 0 4.6 2.1 4.6 4.6 0 2.5-2.1 4.6-4.6 4.6H233c-2.5 0-4.6-2.1-4.6-4.6 0-2.5 2.1-4.6 4.6-4.6z m-8.8-10.9l8.1-8.1c1.8-1.8 4.7-1.8 6.5 0 1.8 1.8 1.8 4.7 0 6.5l-8.1 8.1c-1.8 1.8-4.7 1.8-6.5 0s-1.8-4.6 0-6.5z m-13.9-1.3v-11.5c0-2.5 2.1-4.6 4.6-4.6 2.5 0 4.6 2.1 4.6 4.6v11.5c0 2.5-2.1 4.6-4.6 4.6-2.6-0.1-4.6-2.1-4.6-4.6z" fill="#7BD721" /></svg>