<?xml version="1.0" standalone="no"?><!DOCTYPE svg PUBLIC "-//W3C//DTD SVG 1.1//EN" "http://www.w3.org/Graphics/SVG/1.1/DTD/svg11.dtd"><svg class="icon" width="48px" height="48.00px" viewBox="0 0 1024 1024" version="1.1" xmlns="http://www.w3.org/2000/svg"><path d="M942.17 457.97c0 142.46-80.05 266.29-197.68 329.03-52.28 28.1-112.4 44.11-175.79 44.11-206.17 0-373.14-167.29-373.14-373.14 0-206.17 166.96-373.46 373.14-373.46 132 0 248.32 68.61 314.65 172.52 37.25 58.15 58.82 127.1 58.82 200.94z" fill="#6C59C6" /><path d="M883.35 257.02c-20.13-31.54-45.32-59.3-73.7-83.4 35.05 56.95 55.59 123.6 55.59 195.05 0 142.46-80.05 266.29-197.68 329.03-52.28 28.1-112.4 44.11-175.79 44.11-91.47 0-175.13-33.04-240.01-87.66 65.79 106.03 182.91 176.96 316.93 176.96 63.39 0 123.51-16.01 175.79-44.11 117.63-62.74 197.68-186.57 197.68-329.03 0.01-73.84-21.56-142.79-58.81-200.95z" fill="#564AAF" /><path d="M396.05 612.24c-3.24 0-6.57-0.76-9.61-2.4-10.01-5.33-13.82-17.7-8.49-27.71 4.33-8.17 12.41-25.35 17.74-48.46 8.89-39.65 3.4-70.32-0.96-94.95-1.44-7.93-2.68-15.06-3.32-21.39-9.29-90.59 78.17-202.72 195.03-250.02 109.65-43.89 209.17-11.29 258.75 12.01 10.25 4.81 14.66 17.02 9.81 27.27-4.81 10.21-17.1 14.62-27.27 9.81-53.22-25.03-135.56-47.18-225.99-11.05-97.6 39.53-176.85 136.6-169.56 207.77 0.56 5.45 1.68 11.57 2.92 18.38 4.77 26.79 11.29 63.44 0.6 111.25-6.09 26.39-15.06 46.42-21.55 58.59a20.492 20.492 0 0 1-18.1 10.9z" fill="#564AAF" /><path d="M568.7 851.6c-217.06 0-393.63-176.57-393.63-393.63 0-217.26 176.57-393.99 393.63-393.99 135.08 0 259.19 68.04 331.96 181.98 40.53 63.4 61.99 136.72 61.99 212.01 0 145.49-79.9 278.53-208.53 347.13-56.63 30.4-120.74 46.5-185.42 46.5z m0-746.61c-194.43 0-352.62 158.35-352.62 352.98 0 194.43 158.19 352.62 352.62 352.62 57.91 0 115.34-14.42 166.08-41.65 115.26-61.47 186.86-180.66 186.86-310.97 0-67.44-19.22-133.12-55.55-189.91C800.9 165.95 689.73 104.99 568.7 104.99z" fill="#000000" /><path d="M140.45 756.96c60.95-3.91 102.97 10 128.26 21.77 13.15 6.12 30.13 15.55 111.46 82.11 29.3 23.98 53.34 44.24 70.05 58.45-32.23 11.14-94.07 26.85-165.17 8.52-27.01-6.97-65.71-16.94-98.44-51.82-42.5-45.28-45.82-101.48-46.16-119.03z" fill="#5DA500" /><path d="M351.8 956.73c-22.63 0-46.82-2.6-71.89-9.05-28.47-7.33-71.49-18.42-108.25-57.67-43.61-46.46-51.14-103.04-51.74-132.6l-0.4-19.62 19.58-1.28c51.1-3.28 97.56 4.69 138.25 23.63 15.94 7.41 34.56 18.38 115.78 84.86 29.44 24.07 53.58 44.41 70.36 58.67l27.35 23.27-33.96 11.73c-26.78 9.25-63.27 18.06-105.08 18.06zM162.54 776.79c3.32 24.55 12.98 57.39 39.01 85.18 28.67 30.52 63.32 39.45 88.63 45.97 43.53 11.21 84.26 8.81 117.1 1.92-11.81-9.89-25.27-21.03-40.09-33.16-77.29-63.24-94.79-73.65-107.13-79.41-28.92-13.45-61.64-20.34-97.52-20.5z" fill="#000000" /><path d="M80.08 803.11c-5.97 0-11.89-2.6-15.94-7.61-7.13-8.81-5.77-21.71 3.04-28.83L397.06 499.9c8.85-7.17 21.71-5.77 28.83 3.04 7.13 8.81 5.77 21.71-3.04 28.83L92.97 798.54c-3.8 3.08-8.37 4.57-12.89 4.57z" fill="#795548" /><path d="M286.92 469.99c-0.36 0-0.72 0-1.12-0.04-11.29-0.6-19.98-10.25-19.34-21.59 2.92-53.66 17.94-106.97 43.49-154.18 5.37-10.01 17.86-13.58 27.79-8.25 9.93 5.37 13.66 17.82 8.25 27.79-22.67 41.89-36 89.23-38.61 136.88-0.59 10.94-9.64 19.39-20.46 19.39z" fill="#FFFFFF" /></svg>