<?xml version="1.0" standalone="no"?><!DOCTYPE svg PUBLIC "-//W3C//DTD SVG 1.1//EN" "http://www.w3.org/Graphics/SVG/1.1/DTD/svg11.dtd"><svg class="icon" width="48px" height="48.00px" viewBox="0 0 1024 1024" version="1.1" xmlns="http://www.w3.org/2000/svg"><path d="M63.5 701.9C41 673.7 24.3 645.7 11.9 622c-5.9-11.3-4.1-24.8 4.5-34.3 8.9-9.8 22.3-13 34.6-8 59.8 24.2 144.2-36.5 237.3-170.6 34.7-49.8 74-90.9 117-121.8 37.7-27.2 78.2-46.8 120.3-58.1 66.7-18.1 138.7-14.9 192.5 8.5 84.5 36.7 124 123.6 126.2 129.1 30 66.1 33.1 133.3 8.8 199.6-18.4 50.3-52.7 100.1-101.9 148.4-63.9 62.4-144 106.4-231.6 127.4-135 32.2-252.7 17.5-350.1-43.9-44.4-28.2-79.1-62.4-106-96.4z m-22.8-92.6c25.5 48.5 71.3 115.3 145.5 162.1 90.1 56.6 199.7 70.1 326.3 39.7 82.1-19.6 157.2-60.8 217.1-119.3C834.5 589.3 863.7 484 816 379.4v-0.3c-0.5-1.1-36.2-80.9-109.9-112.9-74.4-32.3-252.1-40-391.8 160.6-58.1 83.5-113.1 140.1-163.5 168-40 22.5-77 27.4-110.1 14.5z" fill="#4169E1" /><path d="M772.9 293c-2.6-6.5-0.8-14.2 5.3-18.6l143.1-106.1c6.9-5.1 16.8-3.6 21.9 3.2 5.1 6.9 3.6 16.8-3.2 21.9L797 299.5c-6.9 5.1-16.8 3.6-21.9-3.2-0.9-0.8-1.5-2-2.2-3.3z" fill="#4169E1" /><path d="M937.4 368.5c-16.6 3-35 3.2-52.5-3.5-28.8-11-48.8-37.1-59.2-77.9l-2.9-11.2 9.8-6c1.8-1.2 46.3-28.1 95-14.2 31.1 8.9 56.2 32.2 74.3 69.1l6 12.4-11.5 7.7c-1.7 1-27.2 17.7-59 23.6z m-77.9-77.3c8.2 23.3 20.4 38.2 36.4 44.4 24.3 9.2 53.9-1.8 70.4-10-13-21-29-34.4-47.7-39.9-23.4-6.7-46.3 0.1-59.1 5.5zM695.6 597.1c-4.2 0-7.9 3-8.6 7.2-14 73.5-78.5 129.1-156.1 129.1-5.4 0-10.7-0.3-15.9-0.8-5.3-0.5-9.8 3.5-9.8 8.8 0 4.5 3.3 8.3 7.9 8.8 5.9 0.6 11.8 0.9 17.8 0.9 86.2 0 158.1-61.7 173.5-143.6 0.9-5.4-3.3-10.4-8.8-10.4z" fill="#4169E1" /></svg>