<?xml version="1.0" standalone="no"?><!DOCTYPE svg PUBLIC "-//W3C//DTD SVG 1.1//EN" "http://www.w3.org/Graphics/SVG/1.1/DTD/svg11.dtd"><svg class="icon" width="48px" height="48.00px" viewBox="0 0 1024 1024" version="1.1" xmlns="http://www.w3.org/2000/svg"><path d="M512.01715 1024C229.699981 1024 0 794.311453 0 511.994283S229.699981 0 512.01715 0s511.994283 229.677114 511.994284 511.994283-229.677114 512.005717-511.994284 512.005717z m0-949.075959c-241.042061 0-437.081676 196.108217-437.081676 437.070242s196.039615 437.047376 437.081676 437.047376S949.087393 753.002043 949.087393 511.994283 753.013477 74.924041 512.01715 74.924041z" fill="#77BD5B" /><path d="M512.005717 512.005717m-149.859515 0a149.859515 149.859515 0 1 0 299.71903 0 149.859515 149.859515 0 1 0-299.71903 0Z" fill="#EEE82C" /><path d="M512.01715 699.310101c-103.290673 0-187.304385-84.025145-187.304384-187.315818s84.025145-187.315818 187.315818-187.315818 187.315818 84.025145 187.315818 187.315818-84.036578 187.315818-187.327252 187.315818z m0-299.707595a112.391778 112.391778 0 1 0 112.391778 112.391777 112.517547 112.517547 0 0 0-112.391778-112.391777z" fill="#77BD5B" /><path d="M512.01715 360.62554a37.467737 37.467737 0 0 1-37.467737-37.467737v-106.755038a37.467737 37.467737 0 0 1 74.924041 0v106.766472a37.467737 37.467737 0 0 1-37.456304 37.456303zM378.450442 415.941046a37.341968 37.341968 0 0 1-26.491531-10.976206l-75.461418-75.461418a37.456304 37.456304 0 0 1 52.971629-52.971628l75.461417 75.461417a37.467737 37.467737 0 0 1-26.480097 63.947835zM323.18067 549.46202h-106.777905a37.467737 37.467737 0 0 1 0-74.92404h106.777905a37.467737 37.467737 0 0 1 0 74.92404zM302.989024 758.467279a37.467737 37.467737 0 0 1-26.491531-63.947834l75.461418-75.461418a37.456304 37.456304 0 0 1 52.971628 52.971629l-75.461417 75.461417a37.341968 37.341968 0 0 1-26.480098 10.976206zM512.01715 845.053539a37.467737 37.467737 0 0 1-37.467737-37.467737v-106.755039a37.467737 37.467737 0 1 1 74.924041 0v106.766472a37.467737 37.467737 0 0 1-37.456304 37.456304zM721.010976 758.467279a37.341968 37.341968 0 0 1-26.491531-10.976206l-75.461418-75.461417a37.456304 37.456304 0 0 1 52.971629-52.971629l75.461417 75.461418a37.467737 37.467737 0 0 1-26.491531 63.947834zM807.597235 549.46202h-106.720737a37.467737 37.467737 0 1 1 0-74.912607h106.777905a37.467737 37.467737 0 0 1 0 74.924041zM645.526691 415.941046a37.467737 37.467737 0 0 1-26.491531-63.947835l75.461418-75.461417a37.456304 37.456304 0 0 1 52.971628 52.971628l-75.461417 75.461418a37.341968 37.341968 0 0 1-26.480098 10.976206z" fill="#77BD5B" /><path d="M451.625149 400.048414a37.479171 37.479171 0 0 1-34.517881-22.867096l-19.517067-45.974297a37.467737 37.467737 0 1 1 68.898561-29.304184l19.517066 45.974297a37.490604 37.490604 0 0 1-34.380679 52.17128zM363.586829 486.554639a37.101864 37.101864 0 0 1-13.994663-2.744052l-46.317303-18.705284a37.456304 37.456304 0 1 1 28.03506-69.447372l46.317303 18.705285a37.467737 37.467737 0 0 1-14.040397 72.191423zM316.629247 629.451123a37.467737 37.467737 0 0 1-14.657809-71.962752l45.974297-19.517067a37.467737 37.467737 0 1 1 29.269883 68.978596l-45.98573 19.505633a37.376269 37.376269 0 0 1-14.600641 2.99559zM430.35875 744.186778a37.502038 37.502038 0 0 1-34.757986-51.508134l18.705284-46.30587a37.45859 37.45859 0 0 1 69.458805 28.06936l-18.705285 46.30587a37.467737 37.467737 0 0 1-34.700818 23.438774zM592.017686 744.872791a37.502038 37.502038 0 0 1-34.517881-22.867097l-19.539934-45.974296a37.470024 37.470024 0 0 1 68.978596-29.292751l19.539933 45.974297a37.490604 37.490604 0 0 1-34.460714 52.125546zM706.696174 631.097554a37.319101 37.319101 0 0 1-14.028964-2.744052L646.349907 609.636784a37.467737 37.467737 0 0 1 28.092227-69.458805l46.317304 18.716718a37.467737 37.467737 0 0 1-14.074698 72.202857zM661.453624 489.012852a37.467737 37.467737 0 0 1-14.657809-71.962752l45.974297-19.517067a37.481457 37.481457 0 0 1 29.269883 69.012897l-45.974297 19.437031a37.376269 37.376269 0 0 1-14.612074 3.029891zM574.890231 401.054566a37.502038 37.502038 0 0 1-34.712252-51.450966l18.705285-46.317304a37.456304 37.456304 0 1 1 69.458805 28.046494l-18.705285 46.317303a37.456304 37.456304 0 0 1-34.746553 23.404473z" fill="#77BD5B" /></svg>