<?xml version="1.0" standalone="no"?><!DOCTYPE svg PUBLIC "-//W3C//DTD SVG 1.1//EN" "http://www.w3.org/Graphics/SVG/1.1/DTD/svg11.dtd"><svg class="icon" width="48px" height="48.00px" viewBox="0 0 1024 1024" version="1.1" xmlns="http://www.w3.org/2000/svg"><path d="M323.5 130l-71.1 49.4C86.9 294.3 25.7 505.5 91.5 686.9l-16.2 11.3C25.1 733 12.5 802.5 47.4 852.7c34.8 50.2 104.4 62.7 154.5 27.9l16.2-11.3c147 125 366.2 141.4 531.8 26.5l93.3-64.8" fill="#FFB808" /><path d="M502.3 994.6c-8.8 0-17.6-0.3-26.4-0.8-49.3-2.8-97.5-13.4-143.3-31.6-41.8-16.5-80.6-38.9-115.5-66.6l-3.8 2.7c-22.7 15.8-48.8 23.4-74.5 23.4-41.5 0-82.4-19.6-107.8-56.2-19.9-28.6-27.4-63.4-21.2-98 6.2-34.5 25.4-64.5 54-84.4l3.8-2.7C53.9 638 46.5 593.9 45.6 549c-1-49.3 5.9-98.2 20.5-145.3C80.8 356 103 311.5 132 271.3c30-41.6 66.7-77.6 109-107l71.1-49.4c9.1-6.3 21.5-4.1 27.8 5 6.3 9.1 4.1 21.5-5 27.8l-71.1 49.4c-38.6 26.8-72.1 59.6-99.4 97.6-26.4 36.6-46.7 77.3-60.1 120.8-13.3 43-19.6 87.7-18.7 132.7 0.9 45.7 9.2 90.5 24.7 133.2l5.2 14.5L86.6 716c-41.2 28.6-51.5 85.5-22.8 126.7 28.6 41.2 85.5 51.5 126.7 22.8l28.9-20.1 11.7 10c34.6 29.4 73.7 52.9 116.2 69.7 41.9 16.6 85.9 26.2 130.9 28.8 45.4 2.6 90.6-2.2 134.1-14.1 45.1-12.4 87.5-32.3 126.1-59.1l93.3-64.8c9.1-6.3 21.5-4.1 27.8 5 6.3 9.1 4.1 21.5-5 27.8l-93.3 64.8c-42.3 29.4-88.9 51.2-138.4 64.8a452.96 452.96 0 0 1-120.5 16.3z" fill="#424649" /><path d="M293.115421 699.939163a438 377.3 52.914 1 0 601.968036-455.033673 438 377.3 52.914 1 0-601.968036 455.033673Z" fill="#FFFFFF" /><path d="M395.01679 621.396426a305.3 263 52.914 1 0 419.606662-317.184882 305.3 263 52.914 1 0-419.606662 317.184882Z" fill="#E4EADC" /><path d="M651.5 910.8c-28.9 0-58.2-3.2-87.7-9.5-54.3-11.7-106.5-33.6-155.1-65.1-50.2-32.5-94.5-73.8-131.6-122.9-37.1-49-64.8-102.9-82.3-160.1-17-55.4-23.8-111.6-20.3-167 3.6-55.7 17.4-107.8 41.2-154.9 24.7-49 59.1-90.4 102.2-123 43.1-32.6 92.3-54.4 146.2-64.8 51.8-10 105.7-9.1 160.3 2.6 54.3 11.7 106.5 33.6 155.1 65.1 50.2 32.5 94.5 73.8 131.6 122.9 37.1 49 64.8 102.9 82.3 160.1 17 55.4 23.8 111.6 20.3 167-3.6 55.7-17.4 107.8-41.2 154.9-24.7 49-59.1 90.4-102.2 123-43.1 32.6-92.3 54.4-146.2 64.8-23.8 4.6-48 6.9-72.6 6.9zM536.4 76.7c-71.7 0-138.8 21.7-194.3 63.6-75.7 57.2-121 145.5-127.6 248.6-3.2 50.6 3 101.9 18.6 152.7 16.2 52.7 41.7 102.4 76 147.7 34.2 45.3 75.1 83.5 121.4 113.4 44.6 28.8 92.3 48.9 141.8 59.5 101 21.8 198.2 2.3 273.9-55 75.7-57.2 121-145.5 127.6-248.6 3.2-50.6-3-101.9-18.6-152.7-16.2-52.7-41.7-102.4-76-147.7-34.2-45.2-75.1-83.4-121.4-113.3C713.3 116 665.6 96 616 85.3c-26.9-5.8-53.6-8.6-79.6-8.6z" fill="#424649" /><path d="M644.8 774.8c-20.6 0-41.4-2.3-62.4-6.8-79.1-17.1-151.3-64.4-203.4-133.3s-77.9-151.3-72.7-232c2.5-39.6 12.4-76.8 29.3-110.3 17.7-35 42.2-64.6 73-87.8 30.8-23.3 65.9-38.8 104.4-46.3 36.9-7.1 75.3-6.5 114.2 1.9 79.1 17.1 151.3 64.4 203.4 133.3 52.1 68.9 77.9 151.3 72.7 232-2.5 39.6-12.4 76.8-29.3 110.3-17.7 35-42.2 64.6-73 87.8-30.8 23.3-65.9 38.8-104.4 46.3-17 3.3-34.3 4.9-51.8 4.9z m-80.2-581.4c-48.6 0-94.2 14.7-131.8 43.1-106.9 80.8-116.7 248.6-21.8 374.1 46.3 61.2 110.2 103.2 179.9 118.3 68.6 14.8 134.7 1.6 186-37.2S859 593 863.4 522.9c4.6-71.2-18.4-144.1-64.7-205.3-46.3-61.2-110.2-103.2-179.9-118.3-18.3-4-36.5-5.9-54.2-5.9z" fill="#424649" /><path d="M788.9 727.7c-6.1 0-12-2.7-16-7.9L404.8 232.6c-6.7-8.8-4.9-21.4 3.9-28 8.8-6.7 21.4-4.9 28 3.9l368.2 487.1c6.7 8.8 4.9 21.4-3.9 28-3.6 2.7-7.9 4.1-12.1 4.1z" fill="#424649" /><path d="M338.9 495.3c-10.6 0-19.5-8.3-20-19.1-0.5-11 8-20.4 19-20.9l506.4-23.8c11-0.5 20.4 8 20.9 19s-8 20.4-19 20.9l-506.4 23.8c-0.2 0.1-0.5 0.1-0.9 0.1z" fill="#424649" /><path d="M525.5 733.4c-1.9 0-3.9-0.3-5.9-0.9-10.6-3.2-16.5-14.4-13.3-25L661 202.7c3.2-10.6 14.4-16.5 25-13.3 10.6 3.2 16.5 14.4 13.3 25L544.7 719.2c-2.7 8.6-10.6 14.2-19.2 14.2z" fill="#424649" /></svg>