<?xml version="1.0" standalone="no"?><!DOCTYPE svg PUBLIC "-//W3C//DTD SVG 1.1//EN" "http://www.w3.org/Graphics/SVG/1.1/DTD/svg11.dtd"><svg class="icon" width="48px" height="48.00px" viewBox="0 0 1024 1024" version="1.1" xmlns="http://www.w3.org/2000/svg"><path d="M507.36 960.66a448.77 448.77 0 0 1-174.65-862 445.89 445.89 0 0 1 174.65-35.32 453.56 453.56 0 0 1 69 5.27 445.81 445.81 0 0 1 119.84 36.28 32 32 0 1 1-27 58 381.8 381.8 0 0 0-102.64-31.07 389.26 389.26 0 0 0-59.19-4.52 384.63 384.63 0 1 0 358.72 523.85 32 32 0 1 1 59.66 23.16 448.81 448.81 0 0 1-418.39 286.35zM933.3 552.74a32 32 0 0 1-32-32 390.43 390.43 0 0 0-3-48.68 384.5 384.5 0 0 0-122.23-235.32 32 32 0 0 1 43.18-47.24 448.56 448.56 0 0 1 142.5 274.55 454.48 454.48 0 0 1 3.55 56.69 32 32 0 0 1-32 32z" fill="#255B03" /><path d="M512.04 511.46m-319.97 0a319.97 319.97 0 1 0 639.94 0 319.97 319.97 0 1 0-639.94 0Z" fill="#ADCE45" /><path d="M512 512.02m-288.7 0a288.7 288.7 0 1 0 577.4 0 288.7 288.7 0 1 0-577.4 0Z" fill="#FFFFA4" /><path d="M512 512m-64.64 0a64.64 64.64 0 1 0 129.28 0 64.64 64.64 0 1 0-129.28 0Z" fill="#E2582D" /></svg>