<?xml version="1.0" standalone="no"?><!DOCTYPE svg PUBLIC "-//W3C//DTD SVG 1.1//EN" "http://www.w3.org/Graphics/SVG/1.1/DTD/svg11.dtd"><svg class="icon" width="48px" height="48.00px" viewBox="0 0 1024 1024" version="1.1" xmlns="http://www.w3.org/2000/svg"><path d="M829.6 513.2c38.5-30.4 63-76.1 63-127.2 0-91.3-78.4-165.5-174.7-165.5-72.8 0-135.3 42.4-161.5 102.4-3.5-0.2-7.1-0.4-10.9-0.3 15.7-76.6 33-150.7 46.1-203.1 4.3-17.3-6.1-34.8-23.3-39.3-17.5-4.5-35.3 6.1-39.7 23.6-10.3 41.7-29 119.5-46.3 203.6-1.8 8.9-3.6 17.7-5.3 26.3-0.5 0.1-0.9 0.3-1.4 0.4-14.2 4.1-27.3 8.7-38 12.8-20.7-76.1-90.4-132.3-173-132.3-98.9 0-179.3 80.4-179.3 179.3s80.4 179.3 179.3 179.3 179.3-80.4 179.3-179.3c0-2.2-0.1-4.3-0.1-6.4 6.7-2.7 15.2-6 24.7-9.2-8.2 44-14.6 83.6-19.1 118.3-3 23.2-5.2 44.2-6.6 63-19.7-1.6-40.9 11.3-64.3 39.3-3.1 3.7-6 7.3-8.7 10.9-23.7-11.6-50.4-18.2-78.6-18.2-98.9 0-179.3 80.4-179.3 179.3s80.4 179.3 179.3 179.3S470.4 869.9 470.4 771c0-56.3-26.1-106.7-66.9-139.6 1.4-1.8 2.9-3.7 4.4-5.5 18.4-22.3 29.4-26.6 31.8-26.4h-0.1l1.4-5.5c-0.1 5.1-0.1 9.9 0 14.6 0.3 19.9 18.3 34.9 38 31.5 15.8-2.7 27.2-16.6 26.9-32.6-0.4-20.1 1.2-45 4.2-72.9 20 7 45.1 17.6 63.5 30.7-29.4 36-47.2 82.1-47.2 132.3 0 114.9 92.8 208.4 206.8 208.4S940 812.5 940 697.6c0.2-79.9-44.7-149.4-110.4-184.4z m-565.1-4.9c-63 0-114.3-51.3-114.3-114.3s51.3-114.3 114.3-114.3S378.8 331 378.8 394s-51.2 114.3-114.3 114.3z m26.6 377c-63 0-114.3-51.3-114.3-114.3s51.3-114.3 114.3-114.3S405.4 708 405.4 771s-51.3 114.3-114.3 114.3z m426.8-599.8c60.5 0 109.7 45.1 109.7 100.5s-49.2 100.5-109.7 100.5-109.7-45-109.7-100.5c0-55.4 49.2-100.5 109.7-100.5zM515.2 494.1c5.7-40.8 13.5-85.9 22.3-131.2 2.6-0.2 5-0.3 7.4-0.3-1.1 7.7-1.8 15.5-1.8 23.4 0 57 30.6 107.4 77 137.2-6.3 4.1-12.3 8.6-18.1 13.4-14.2-11-32.4-21.2-54.5-30.5-11.8-5-23.1-9-32.3-12z m218.1 346.8c-78.2 0-141.8-64.3-141.8-143.4s63.6-143.4 141.8-143.4c78.2 0 141.8 64.3 141.8 143.4s-63.6 143.4-141.8 143.4z" fill="#4169E1" /></svg>