<?xml version="1.0" standalone="no"?><!DOCTYPE svg PUBLIC "-//W3C//DTD SVG 1.1//EN" "http://www.w3.org/Graphics/SVG/1.1/DTD/svg11.dtd"><svg class="icon" width="48px" height="48.00px" viewBox="0 0 1024 1024" version="1.1" xmlns="http://www.w3.org/2000/svg"><path d="M519 947c-7.5-1.1-15.1-2.1-22.6-3.4-4.4-0.8-8.7-2.2-13.3-3.4 0.4-1.5 0.6-2.6 1.1-3.6 4.5-9 5.1-18.6 3.9-28.3-0.4-3.5 0.7-4.3 3.5-5 33.4-8.2 59.6-26.6 77.9-55.7 17.8-28.2 22.6-58.9 16.8-91.5-0.3-1.4-0.9-2.7-1.6-4.5-4.2 2-8.1 4-12 5.8-16 7.4-32.9 10.3-50.3 11.1-6.1 0.3-6.6-0.5-7-6.6-0.9-13.3-6.8-24.2-16.7-32.9-1.3-1.2-2.7-2.3-4.6-3.9 40.1-11.8 68.8-35.9 85-73.8 10.8-25.2 12.2-51.4 5.9-79-2.3 1.1-4 1.9-5.6 2.8-18.7 10.8-39.1 15.5-60.5 16.4-6.5 0.3-7-0.4-7.4-6.7-0.9-13.1-6.7-23.8-16.4-32.5-1.3-1.2-2.8-2.3-4-3.4 74.1-28.1 103.8-81 89.7-159.2 1.9-1.1 4.5-2.5 8.4-4.7-24.5-10.2-48.8-13.2-73.6-12.5 59.4-33.5 81.7-83.7 68.1-149.6 6.3-4.9 12.5-9.8 19-14.3 1-0.7 4 0.3 5.2 1.4 15 14.5 26 31.7 31.8 51.8 12.7 43.6 4.6 83.2-24.5 118.2-3.1 3.7-3 5.7 0 9.5 16 20 24.8 42.9 26.9 68.6 1.1 13.4-2 11 11.9 11.4 2.3 0.1 4.7 0 6.5 0-5.1 5.4-9.6 12.1-15.9 16.2-4.2 2.8-4.6 5.9-5.4 9.4-4.6 19.8-13.6 37.5-26.8 52.9-1.5 1.8-3 3.5-4.6 5.4 3.2 3.6 6.3 6.9 9.1 10.3 17.3 20.7 27.3 44.3 28.9 71.3 0.3 4.3 0.1 8.7 0.7 12.9 0.2 1.7 2 3.1 2.7 4.1-1.7 5.3-4.1 10.9-5.3 16.7-4.8 22.9-15.1 42.9-31 60-3.3 3.5-3.1 5.4 0.1 8.8 18.4 19.7 29.3 43.1 32.5 69.9 7.5 64.4-34.9 123-98.4 136.3-5 1-10.2 1.3-15.3 2.1-1.9 0.3-3.8 0.8-5.7 1.3-2.4-0.1-4.8-0.1-7.1-0.1zM838 388c-0.7 5.1-1.5 10.1-2.2 15.2-3.9 27.1-15.8 50.3-35 69.6-3.2 3.3-3.1 5 0 8.3 20.4 21.8 31.9 47.4 34.1 77.4 4.5 61.5-37.3 116.4-96.6 129.7-1.4 0.3-2.9 0.3-4.7 0.5 0.4-22.4-9.9-38-29.9-48.1 28.6-13.7 49.6-34.2 62.6-62.6s14.3-57.7 6.4-88c2.7-1.4 5.3-2.7 7.9-4.2 5.9-3.4 6-4.4 1.1-8.9-10.4-9.6-22.9-15.5-36.6-18.3-10.4-2.1-21-2.9-30.3-4.2 53.9-33.7 74.1-83 60.6-145.6 6.4-4.8 12.6-9.4 18.6-14.3 2.6-2.2 3.9-0.5 5.4 1 11 10.7 19.8 22.9 26.2 36.8 6.4 13.9 10.5 28.3 11.2 43.7 0.1 1.6 0.8 3.2 1.2 4.8v7.2zM450.8 391.3c-0.4 1.3-1.3 3.1-1.5 5-0.9 14.4-3.2 28.4-8.6 41.8-8 20.2-20.3 37.3-37.2 51.1-1 0.8-2.2 1.5-3.4 2.3-20.1-22.4-46.4-28.2-74.5-28.2 55-34.5 75.3-83.6 61.8-146.4 6.4-4.9 12.5-9.8 19-14.3 1-0.7 4 0.2 5.2 1.3 15 14.5 26 31.7 31.8 51.7 2.7 9.2 3.6 18.9 5.4 28.3 0.4 2.4 1.2 4.7 2 7.4zM392.4 509.1c6.5-5 12.7-9.4 18.5-14.3 2.9-2.4 4.2-0.4 5.8 1.2 14.9 14.6 25.7 31.8 31.8 51.8 2.2 7.3 3.6 14.8 4.5 22.6-0.9-1.2-1.7-2.4-2.6-3.6-5.3-7.2-12.5-7.5-16.9 0.3-3.8 6.9-6.7 14.5-8.7 22.1-4.4 16.9-3.6 34.3-3.2 51.6 0.1 4.6 1.9 7.9 6.7 9.1 1.4 0.4 2.6 1.3 4.4 2.2-1.4 3-2.7 5.8-4.3 9.1-1.3-1.7-2.2-2.9-3.1-4.2-0.4 0.3-0.9 0.6-0.9 0.6 2.7 6.5-1.7 10.2-5.6 14-4.3 4.1-8.8 8-13.5 12.3-20.4-22.8-46.8-28.7-74.9-28.7 55.2-34.3 75.5-83.4 62-146.1zM441.2 868.1C397 895.4 326.7 889.3 286 839.7c36.9 9.5 71.6 5.6 103.5-14.8 31.9-20.4 50.3-50 56.9-86.9 6.4 3.8 12.7 7.5 19.1 11.3-3.4 3.7-7.3 7.6-10.8 11.8-16.3 19.4-26.3 41.6-27.7 67-0.9 15 2.5 29.1 14.2 40z" fill="#8957A1" /><path d="M412 667.8c-2.1-2.4-4-4.4-6.6-7.3 4.5 1.1 7.8 2 11.9 3-2 1.6-3.3 2.7-5.3 4.3z"  /><path d="M794 764c-0.7 5.1-1.4 10.1-2.2 15.2-8.1 53.2-48 94.7-100.7 104.2-18.7 3.4-37.4 2.4-55.8-2.8-1.7-0.5-3.4-1.1-5.6-1.8 4.7-9.1 6.3-18.2 5.8-27.9-0.4-7.6-0.1-7.4 7.3-9.6 49-14.9 79.9-47.3 90.4-97.5 7.2-34.7-0.2-67-20.5-96.3-0.6-0.8-1-1.7-1-3.4 3.8 1.7 7.8 3.1 11.5 5 37.2 18.8 59.7 48.9 68.2 89.6 1.2 6 1.8 12.1 2.6 18.2v7.1z" fill="#8957A1" /><path d="M582.7 194c94.4 42.6 192.4 70.8 293.6 91.9-2 1.1-3.2 1.9-4.5 2.5-18.5 9-37.1 18-55.6 27.1-3 1.5-5.4 1.4-8.3 0-22-11.1-44-22-66.2-32.9-2.7-1.3-6-2.1-9-2.1-34.3 0.2-68.6 0.6-103 1.1-3.4 0-5.2-1.1-7.3-3.8-14.2-18.7-20.7-41.2-30.5-62.1-3.2-7-6.1-14.4-9.2-21.7zM470.5 186.1c-11.5 20.5-22.8 40.5-34 60.4-9.6 17.1-19.3 34.2-28.8 51.4-1.6 2.9-3.2 3.9-6.7 3.3-4.4-0.8-9-1.1-13.4-1-8.3 0.2-15.5-3-22.9-6.1-9.5-4-19.1-7.7-28.5-11.9-3.2-1.4-5.8-1.2-8.9 0.4-29.9 14.6-59.9 28.9-89.7 43.7-5.1 2.5-8.9 2.2-13.7-0.4-19.6-10.8-39.5-21.3-60.3-32.4 110.6-13.2 214.4-42.7 306.9-107.4z" fill="#009944" /><path d="M532 948h-20c-1.3-0.3-2.5-0.8-3.8-0.9-33.3-3.9-60.8-18.8-82.2-44.5-5.5-6.6-10-14-15.1-21.1-52.7 10.3-97.9-3.2-130.5-46.9-33.8-45.3-33-93.7-5.9-142.4-76-41.6-88-146.1-24-203.5-48.8-44.6-59.8-97.1-33.3-157.9-28.2-9.4-55.4-21.3-81-37 0.5-1.1 0.8-1.8 1.2-2.5 23.7-41.9 53.4-78.8 91.8-108.3 35-26.9 74.2-42.8 118.8-44 43.3-1.2 84.1 9.1 123.8 25.5 1.8 0.7 3.6 1.4 6.1 2.4-2.9-27.1-5.7-53.3-8.5-79.8 30.7-3.1 60.7-6.2 91.5-9.3-4.3 30.2-8.6 59.8-12.9 89.9 2.4-0.9 3.9-1.5 5.5-2.1 29.3-12.4 59.5-21.3 91.1-25 44-5.1 85.6 1.6 124.5 23.3 38.1 21.3 68.4 51.2 94 86.1 10.1 13.8 18.8 28.6 28.2 42.9v1c-13.1 6.8-26.1 13.9-39.4 20.3-8.9 4.3-18.3 7.8-27.3 11.7 25.9 56.2 17.7 106.7-24.6 151.7 29.9 30.7 43.3 67.2 36.5 109.8-6.8 42.8-31.1 73.3-69.2 93.5 1.5 2.1 2.8 3.8 4 5.5 21 29.7 28.8 62.6 21.3 98.1-15 71.5-83.5 113.9-154.4 96-3.7-0.9-5.2 0-6.9 3-16.1 28.5-39.7 48.1-70.9 58.1-9.3 3.1-19 4.4-28.4 6.4zM397.9 285.1c7.1-45.2 31.7-78.2 73.8-98.8-1.7-0.8-2.9-1.5-4.1-2-27.1-11.5-54.9-20-84.2-23.8-46.6-6-89.7 2.6-129.1 28.9-37.1 24.8-65.7 57.6-89.7 94.7-0.4 0.7-0.7 1.5-1.1 2.5 19.4 10.4 39.5 18.7 60.2 25.5 3.9 1.3 6.1 0.7 8.8-2.5 32.8-39.3 86.9-54.5 135.2-37.8 10.4 3.5 20.1 8.8 30.2 13.3z m209.2 183.3c-1.5-46.3-35.4-85-84.5-85.4-48.8-0.3-84.7 37.9-85.5 84.6-0.8 46.9 37.6 85.2 84.3 85.4 47.1 0.2 85.5-37.7 85.7-84.6z m256.5-181.3c-0.8-1.7-1.1-2.4-1.5-3.1-20.8-32.3-45.3-61.3-76-84.8-32.9-25.3-69.7-39.9-111.6-40.2-37.9-0.3-73.8 8.7-108.7 23-0.5 0.2-0.9 0.7-1.8 1.4 21.7 8.2 39.7 20.7 54.2 38.1 14.4 17.4 23.2 37.4 27.3 59.9 1.6-0.9 2.6-1.4 3.5-2 51.7-30.9 115.4-22 156.6 21.9 7.2 7.6 7.3 7.9 17.2 3.7 13.7-5.8 27.1-11.9 40.8-17.9zM627.9 568.9c-0.5 5.6 1.1 11.9 4.6 18.1 3.6 6.5 6.8 13.5 8.5 20.7 2.5 10.8 9 18.3 17.1 24.9 1.7 1.4 4.4 2.3 6.7 2.3 22.4-0.6 43.6 4.1 63.6 14.4 1.8 0.9 4.5 1.2 6.5 0.6 41.2-10.5 68-50.8 62.3-93.5-5.8-44.2-45-76.2-90-73.5-43.9 2.8-79.1 40.3-79.3 86z m-385-173.7c1 26.2 14.6 50.7 41.4 67.8 2.9 1.8 5.5 2.2 8.8 1 24.6-8.6 49.5-9.2 74.7-2.4 2.3 0.6 5.7 0.1 7.7-1.3 28-20.1 40.6-47.6 36.5-81.7-5.2-44.5-45.3-76.6-90.2-73.6-44 3.1-78.8 40.5-78.9 90.2z m556.4-11.6c-0.5-3.7-1-10-2.3-16.2-8.7-41.1-48.9-70.5-90.4-66.3-43.7 4.4-77 40.2-77.6 83-0.2 13.3 3.8 25.3 8.8 37.5 4.8 11.6 12.1 20.9 21.2 29.2 2.4 2.2 4.4 2.6 7.6 1.3 31.7-12.4 63.4-12.2 94.8 0.8 2.8 1.2 4.5 0.6 6.6-1.1 20.2-17.2 30.4-39.1 31.3-68.2zM397 635.8c0.2-0.8 0.5-1.4 0.6-2 1.9-20.6 8.5-39.6 19.6-57 1-1.5 1.2-3.8 1-5.6-5.1-46.1-48.9-79.8-95.3-73.4-37.5 5.1-67.8 34.5-72.9 70.7-5.5 38.9 13.9 75 48.7 91 3.3 1.5 5.6 1.3 8.5-0.8 17.9-13 37.9-20.9 59.9-22.7 9.9-0.8 19.9-0.2 29.9-0.2z m210.1 187.5c0-23.7-9.9-46.5-26.9-62.4-2.7-2.5-4.7-3-8.2-1.5-33.2 14.2-66.6 14.1-99.9 0-3.6-1.5-5.7-1-8.2 1.5-20.5 20.3-29.8 44.6-26 73.3 5.8 44.6 45.2 76.6 90.2 73.7 43.9-2.9 78.9-40.3 79-84.6z m0-183.1c-0.4-19.3-9.1-39.8-26.3-56.8-2.4-2.4-4.4-3-7.8-1.5-33.8 14.8-67.8 14.8-101.7 0.1-3.6-1.5-5.6-0.9-8.2 1.7-20 20.3-28.9 44.4-25.2 72.7 5.8 44.4 45.4 76.6 90.3 73.5 44.1-3 78.8-40.4 78.9-89.7z m-23.2-280.8c14.1-15.5 22.1-33.1 23-53.5 2.6-54.2-43-96.4-96.6-88.9-32.5 4.5-55.5 22.9-67.4 53.4-11.9 30.6-6.5 59.1 13.7 85 2.4 3.1 4.3 3.8 8.1 1.8 24.6-12.8 50.6-16.8 78-12.3 14.5 2.3 27.9 7.3 41.2 14.5z m26.3 374.3c0.2 0.6 0.2 1 0.4 1.2 0.6 0.8 1.3 1.5 2 2.2 14.4 15.2 24.4 32.8 29.9 53 4.2 15.3 5.7 30.8 3.5 46.5-0.6 4 0.6 5.9 4.6 6.3 5.3 0.6 10.5 1.9 15.8 2.1 54 1.6 94.5-43.4 87.7-97-6.4-50.5-59.5-84.6-108.2-69.6-2.9 0.9-4.2 2.4-5.1 5.3-5.3 16.5-13.8 31.3-25.4 44.3-1.8 1.9-3.6 3.8-5.2 5.7zM398.7 843c-3.2-20.3-1.6-39.7 4.6-58.7 6.2-19.2 16.7-35.7 30.8-50-0.4-0.7-0.6-1.2-1-1.5-14.6-14.9-24.8-32.4-31-52.3-0.4-1.4-2.6-3.3-4-3.4-9.7-0.7-19.7-2.2-29.2-1.1-36.7 4.4-66 32.6-72.6 69.1-6.6 36.2 11.4 72.9 44.2 90.1 18.1 9.6 37.3 12.1 58.2 7.8z m92.2-738.1c1.1 9.8 2 18.8 3 27.9 1.4 13.6 2.9 27.1 4.3 40.7 0.3 3.1 1.2 4.7 5 4.1 6.2-0.9 12.6-1.3 18.9-1.4 3.4-0.1 4.5-1 4.9-4.4 2.4-17.8 5.1-35.6 7.7-53.3 0.9-6 1.6-11.9 2.4-18.2-15.8 1.5-30.6 3-46.2 4.6z"  /></svg>