<?xml version="1.0" standalone="no"?><!DOCTYPE svg PUBLIC "-//W3C//DTD SVG 1.1//EN" "http://www.w3.org/Graphics/SVG/1.1/DTD/svg11.dtd"><svg class="icon" width="48px" height="48.00px" viewBox="0 0 1024 1024" version="1.1" xmlns="http://www.w3.org/2000/svg"><path d="M512 588.653227m-367.080107 0a367.080107 367.080107 0 1 0 734.160214 0 367.080107 367.080107 0 1 0-734.160214 0Z" fill="#A304A8" /><path d="M512 976.213333c-213.701973 0-387.560107-173.861547-387.560107-387.560106 0-213.701973 173.861547-387.560107 387.560107-387.560107s387.556693 173.858133 387.556693 387.560107C899.560107 802.351787 725.701973 976.213333 512 976.213333z m0-734.160213c-191.115947 0-346.600107 155.48416-346.600107 346.600107C165.399893 779.769173 320.884053 935.253333 512 935.253333c191.115947 0 346.596693-155.48416 346.596693-346.600106 0.003413-191.115947-155.480747-346.600107-346.596693-346.600107z" fill="#680077" /><path d="M400.134827 871.64928a20.39808 20.39808 0 0 1-8.751787-1.979733c-6.912-3.2768-169.386667-82.56512-179.920213-280.285867a20.48 20.48 0 0 1 19.360426-21.541547 20.425387 20.425387 0 0 1 21.541547 19.360427c3.846827 72.270507 31.126187 135.389867 81.07008 187.600213 37.809493 39.5264 75.168427 57.698987 75.54048 57.879894a20.50048 20.50048 0 0 1 9.64608 27.293013 20.473173 20.473173 0 0 1-18.486613 11.6736z" fill="#FFFFFF" /><path d="M233.280853 511.08864m-26.624 0a26.624 26.624 0 1 0 53.248 0 26.624 26.624 0 1 0-53.248 0Z" fill="#FFFFFF" /><path d="M522.472107 347.764053c66.955947 0 128.9728-10.6496 179.971413-28.747093C682.79296 232.925867 609.69984 168.96 522.472107 168.96c-87.22432 0-160.31744 63.965867-179.961174 150.05696 50.998613 18.097493 113.012053 28.747093 179.961174 28.747093z" fill="#90DD22" /><path d="M522.472107 368.244053c-67.044693 0-131.642027-10.349227-186.811734-29.928106a20.48 20.48 0 0 1-13.11744-23.855787c22.299307-97.727147 104.512853-165.98016 199.929174-165.98016 95.412907 0 177.629867 68.253013 199.936 165.98016a20.476587 20.476587 0 0 1-13.11744 23.855787c-55.166293 19.582293-119.76704 29.928107-186.81856 29.928106z m-154.968747-62.5664c46.680747 14.168747 99.822933 21.6064 154.968747 21.6064 55.15264 0 108.29824-7.437653 154.975573-21.6064-23.2448-69.287253-84.688213-116.237653-154.975573-116.237653s-131.72736 46.9504-154.968747 116.237653z" fill="#029905" /><path d="M352.50176 377.862827c49.916587 0 96.150187-7.94624 134.17472-21.43232-14.6432-64.191147-69.14048-111.872-134.17472-111.872-65.030827 0-119.524693 47.680853-134.16448 111.872 38.017707 13.492907 84.25472 21.43232 134.16448 21.43232z" fill="#90DD22" /><path d="M352.50176 398.342827c-50.571947 0-99.334827-7.819947-141.01504-22.613334a20.476587 20.476587 0 0 1-13.11744-23.852373c17.158827-75.246933 80.541013-127.798613 154.13248-127.798613 73.59488 0 136.98048 52.55168 154.14272 127.7952a20.48 20.48 0 0 1-13.120853 23.855786c-41.70752 14.7968-90.4704 22.613333-141.021867 22.613334z m-108.765867-55.296c33.024 9.407147 70.212267 14.336 108.765867 14.336 38.539947 0 75.731627-4.928853 108.772693-14.339414-17.841493-46.728533-60.37504-78.004907-108.772693-78.004906-48.39424 0-90.924373 31.279787-108.765867 78.00832z" fill="#029905" /><path d="M671.494827 377.862827c49.916587 0 96.150187-7.94624 134.17472-21.43232-14.6432-64.191147-69.137067-111.872-134.17472-111.872-65.03424 0-119.538347 47.680853-134.171307 111.872 38.02112 13.492907 84.258133 21.43232 134.171307 21.43232z" fill="#90DD22" /><path d="M671.494827 398.342827c-50.568533 0-99.334827-7.819947-141.018454-22.613334a20.48 20.48 0 0 1-13.11744-23.852373c17.152-75.246933 80.5376-127.798613 154.135894-127.798613 73.591467 0 136.977067 52.55168 154.139306 127.7952a20.48 20.48 0 0 1-13.120853 23.855786c-41.70752 14.7968-90.4704 22.613333-141.018453 22.613334z m-108.776107-55.299414c33.027413 9.41056 70.219093 14.339413 108.772693 14.339414 38.536533 0 75.731627-4.928853 108.772694-14.339414-17.844907-46.728533-60.378453-78.004907-108.772694-78.004906-48.401067 0-90.934613 31.276373-108.772693 78.004906z" fill="#029905" /><path d="M496.66048 118.35392s50.40128 94.99648 8.67328 166.659413" fill="#90DD22" /><path d="M505.31328 305.496747a20.48 20.48 0 0 1-17.677653-30.788267c35.584-61.115733-8.615253-145.906347-9.065814-146.756267a20.48 20.48 0 0 1 36.181334-19.196586c2.276693 4.29056 55.200427 105.980587 8.28416 186.56256a20.48 20.48 0 0 1-17.722027 10.17856z" fill="#029905" /><path d="M505.285973 335.025493c-8.523093 0-17.16224-2.225493-25.053866-6.89152-23.61344-13.984427-31.50848-44.622507-17.646934-68.430506 22.326613-38.345387 0.535893-98.146987-9.741653-117.951147-12.919467-24.347307-3.76832-54.545067 20.374187-67.577173 24.132267-13.03552 54.234453-3.75808 67.140266 20.59264 2.60096 4.891307 62.897493 120.814933 7.727787 215.57248a49.466027 49.466027 0 0 1-42.799787 24.685226z" fill="#90DD22" /><path d="M505.285973 355.505493c-12.434773 0-24.702293-3.36896-35.4816-9.745066-33.225387-19.677867-44.40064-62.90432-24.920746-96.361814 16.278187-27.958613 0.14336-78.24384-10.21952-98.21184-18.036053-33.989973-5.143893-76.6976 28.822186-95.030613a69.679787 69.679787 0 0 1 33.00352-8.36608c25.992533 0 49.732267 14.32576 61.958827 37.38624 2.798933 5.270187 68.235947 130.85696 7.328427 235.4688-12.516693 21.504-35.69664 34.860373-60.491094 34.860373zM496.493227 88.746667a28.177067 28.177067 0 0 0-13.540694 3.444053c-14.240427 7.686827-19.63008 25.61024-12.018346 39.959893 14.66368 28.255573 35.355307 93.180587 9.345706 137.854294-8.198827 14.086827-3.54304 32.259413 10.386774 40.506026a28.7744 28.7744 0 0 0 14.615893 4.03456c10.42432 0 19.807573-5.423787 25.101653-14.513493 49.565013-85.128533-5.7344-191.177387-8.113493-195.652267-5.113173-9.649493-14.984533-15.633067-25.777493-15.633066z" fill="#029905" /><path d="M514.379093 430.2336c49.913173 0 96.14336-7.942827 134.171307-21.435733-14.646613-64.187733-69.143893-111.872-134.171307-111.872-65.030827 0-119.528107 47.684267-134.17472 111.872 38.027947 13.492907 84.258133 21.435733 134.17472 21.435733z" fill="#90DD22" /><path d="M514.379093 450.7136c-50.561707 0-99.328-7.819947-141.021866-22.613333a20.476587 20.476587 0 0 1-13.11744-23.8592c17.169067-75.24352 80.554667-127.7952 154.14272-127.7952 73.58464 0 136.966827 52.55168 154.135893 127.7952a20.483413 20.483413 0 0 1-13.11744 23.8592c-41.69728 14.793387-90.46016 22.613333-141.021867 22.613333z m-108.772693-55.302827c33.03424 9.41056 70.229333 14.342827 108.772693 14.342827 38.54336 0 75.73504-4.928853 108.765867-14.342827-17.844907-46.728533-60.37504-78.00832-108.765867-78.00832-48.390827 0.003413-90.924373 31.279787-108.772693 78.00832z" fill="#029905" /></svg>