<?xml version="1.0" standalone="no"?><!DOCTYPE svg PUBLIC "-//W3C//DTD SVG 1.1//EN" "http://www.w3.org/Graphics/SVG/1.1/DTD/svg11.dtd"><svg class="icon" width="48px" height="48.00px" viewBox="0 0 1024 1024" version="1.1" xmlns="http://www.w3.org/2000/svg"><path d="M86.3 616.5a425.7 381.2 0 1 0 851.4 0 425.7 381.2 0 1 0-851.4 0Z" fill="#FFECB3" /><path d="M512 210.7c-248.8 0-451.1 182.4-451.1 406.7S263.2 1024 512 1024s451.1-182.4 451.1-406.7S760.8 210.7 512 210.7z m74.6 756.2c-11.4 1.9-23.3 0-33.2-6.1-0.1 0-0.1-0.1-0.2-0.1-21.7-13.4-33.8-26-40.8-35.6-0.2-0.2-0.3-0.5-0.5-0.7-0.2 0.2-0.3 0.4-0.5 0.6-7 9.6-19.1 22.2-40.8 35.6-0.1 0-0.2 0.1-0.2 0.1-9.9 6.1-21.8 8-33.2 6.1-185.1-31.2-325.6-176-325.6-349.5 0-169.4 134-311.5 312.7-347.1 11.5-2.3 23.3-0.5 33.7 5 4.3 2.3 8.5 4.7 12.7 7.2 21.7 13.4 33.8 26 40.8 35.6 0.2 0.2 0.3 0.5 0.5 0.7 0.2-0.2 0.3-0.4 0.5-0.6 7-9.6 19.1-22.2 40.8-35.6 4.2-2.6 8.5-5 12.7-7.3 10.3-5.5 22.2-7.3 33.7-5 178.7 35.6 312.6 177.7 312.6 347.1 0 173.6-140.5 318.4-325.7 349.6z" fill="#D50000" /><path d="M422.2 255.2h79c-8.7-28.6-22.3-62.8-44.3-99.9-25.5-43-54.9-77.6-80.9-103.9 0.1 0.6 0.2 1.3 0.3 1.9 14.5 30.2 28.9 67.7 37.6 111.1 6.8 34 8.7 64.5 8.3 90.8z" fill="#FF5252" /><path d="M413.9 164.5c-8.7-43.4-23.1-80.9-37.6-111.1 4.7 32.4 5.8 79.9-15 133.9-8.9 23.2-20.2 43.4-31.7 60.4-1.7 2.6-3.5 5.1-5.2 7.6H422.2c0.4-26.4-1.5-56.9-8.3-90.8z" fill="#D50000" /><path d="M601.8 255.2h-79c8.7-28.6 22.3-62.8 44.3-99.9 25.5-43 54.9-77.6 80.9-103.9-0.1 0.6-0.2 1.3-0.3 1.9-14.5 30.2-28.9 67.7-37.6 111.1-6.8 34-8.7 64.5-8.3 90.8z" fill="#FF5252" /><path d="M610.1 164.5c8.7-43.4 23.1-80.9 37.6-111.1-4.7 32.4-5.8 79.9 15 133.9 8.9 23.2 20.2 43.4 31.7 60.4 1.7 2.6 3.5 5.1 5.2 7.6H601.8c-0.4-26.4 1.5-56.9 8.3-90.8z" fill="#D50000" /><path d="M512 0l-88.4 255.2h176.8z" fill="#FF5252" /><path d="M452.2 230.9m-24.3 0a24.3 24.3 0 1 0 48.6 0 24.3 24.3 0 1 0-48.6 0Z" fill="#D50000" /><path d="M512.5 230.9m-24.3 0a24.3 24.3 0 1 0 48.6 0 24.3 24.3 0 1 0-48.6 0Z" fill="#D50000" /><path d="M572.9 230.9m-24.3 0a24.3 24.3 0 1 0 48.6 0 24.3 24.3 0 1 0-48.6 0Z" fill="#D50000" /><path d="M483.9 180.1m-24.3 0a24.3 24.3 0 1 0 48.6 0 24.3 24.3 0 1 0-48.6 0Z" fill="#D50000" /><path d="M544.3 180.1m-24.3 0a24.3 24.3 0 1 0 48.6 0 24.3 24.3 0 1 0-48.6 0Z" fill="#D50000" /><path d="M498.4 453.9c0-9.2-3.7-17.6-9.7-23.7 6-6.1 9.7-14.5 9.7-23.7 0-18.7-15.2-33.9-33.9-33.9-3.7 0-7.3 0.8-10.7 1.9 2.4-4.6 3.9-9.8 3.9-15.4 0-18.7-15.2-33.9-33.9-33.9-13.1 0-24.4 7.6-30 18.5-5.1-3.1-11-5-17.4-5-16.7 0-30.5 12.1-33.3 28-2.4-0.5-4.8-0.9-7.4-0.9-16.7 0-30.5 12.1-33.3 28-2.4-0.5-4.8-0.9-7.4-0.9-18.7 0-33.9 15.2-33.9 33.9 0 0.2 0.1 0.5 0.1 0.7-2.2-0.5-4.5-0.7-6.8-0.7-18.7 0-33.9 15.2-33.9 33.9 0 2.5 0.3 5 0.9 7.4-15.9 2.8-28 16.6-28 33.3 0 5.5 1.4 10.6 3.7 15.2-13.9 4.2-24.1 17-24.1 32.3 0 9.8 4.2 18.5 10.8 24.7-10.4 5.8-17.6 16.8-17.6 29.5 0 9.2 3.7 17.6 9.7 23.7-6 6.1-9.7 14.5-9.7 23.7 0 12.8 7.1 23.8 17.6 29.5-6.6 6.2-10.8 14.9-10.8 24.7 0 15.3 10.2 28 24.1 32.3-2.3 4.6-3.7 9.7-3.7 15.2 0 18.7 15.2 33.9 33.9 33.9 0.2 0 0.5-0.1 0.7-0.1-0.5 2.2-0.7 4.5-0.7 6.8 0 18.7 15.2 33.9 33.9 33.9 2.3 0 4.6-0.2 6.8-0.7 0 0.2-0.1 0.5-0.1 0.7 0 18.7 15.2 33.9 33.9 33.9 5 0 9.7-1.1 13.9-3.1 1.9 16.9 16.1 30.2 33.5 30.2 8 0 15.2-2.9 21-7.4 2.9 15.8 16.7 27.8 33.3 27.8 16.7 0 30.5-12.1 33.3-28 6.1 8.7 16.2 14.5 27.7 14.5 18.7 0 33.9-15.2 33.9-33.9 0-11.1-5.4-20.9-13.7-27.1 8.3-6.2 13.7-16 13.7-27.1s-5.4-20.9-13.7-27.1c8.3-6.2 13.7-16 13.7-27.1 0-13.5-7.9-25.1-19.4-30.5 11.4-5.5 19.4-17 19.4-30.5 0-11.1-5.4-20.9-13.7-27.1 8.3-6.2 13.7-16 13.7-27.1 0-13.5-7.9-25.1-19.4-30.5 11.4-5.5 19.4-17 19.4-30.5s-7.9-25.1-19.4-30.5c11.4-5.5 19.4-17 19.4-30.5s-7.9-25.1-19.4-30.5c11.5-5.7 19.4-17.3 19.4-30.7z" fill="#FF1744" /><path d="M392.4 493.3m-31 0a31 31 0 1 0 62 0 31 31 0 1 0-62 0Z" fill="#D50000" /><path d="M392.4 616.5m-31 0a31 31 0 1 0 62 0 31 31 0 1 0-62 0Z" fill="#D50000" /><path d="M392.4 739.8m-31 0a31 31 0 1 0 62 0 31 31 0 1 0-62 0Z" fill="#D50000" /><path d="M299.4 554.9m-31 0a31 31 0 1 0 62 0 31 31 0 1 0-62 0Z" fill="#D50000" /><path d="M299.4 678.2m-31 0a31 31 0 1 0 62 0 31 31 0 1 0-62 0Z" fill="#D50000" /><path d="M525.6 453.9c0-9.2 3.7-17.6 9.7-23.7-6-6.1-9.7-14.5-9.7-23.7 0-18.7 15.2-33.9 33.9-33.9 3.7 0 7.3 0.8 10.7 1.9-2.4-4.6-3.9-9.8-3.9-15.4 0-18.7 15.2-33.9 33.9-33.9 13.1 0 24.4 7.6 30 18.5 5.1-3.1 11-5 17.4-5 16.7 0 30.5 12.1 33.3 28 2.4-0.5 4.8-0.9 7.4-0.9 16.7 0 30.5 12.1 33.3 28 2.4-0.5 4.8-0.9 7.4-0.9 18.7 0 33.9 15.2 33.9 33.9 0 0.2-0.1 0.5-0.1 0.7 2.2-0.5 4.5-0.7 6.8-0.7 18.7 0 33.9 15.2 33.9 33.9 0 2.5-0.3 5-0.9 7.4 15.9 2.8 28 16.6 28 33.3 0 5.5-1.4 10.6-3.7 15.2 13.9 4.2 24.1 17 24.1 32.3 0 9.8-4.2 18.5-10.8 24.7 10.4 5.8 17.6 16.8 17.6 29.5 0 9.2-3.7 17.6-9.7 23.7 6 6.1 9.7 14.5 9.7 23.7 0 12.8-7.1 23.8-17.6 29.5 6.6 6.2 10.8 14.9 10.8 24.7 0 15.3-10.2 28-24.1 32.3 2.3 4.6 3.7 9.7 3.7 15.2 0 18.7-15.2 33.9-33.9 33.9-0.2 0-0.5-0.1-0.7-0.1 0.5 2.2 0.7 4.5 0.7 6.8 0 18.7-15.2 33.9-33.9 33.9-2.3 0-4.6-0.2-6.8-0.7 0 0.2 0.1 0.5 0.1 0.7 0 18.7-15.2 33.9-33.9 33.9-5 0-9.7-1.1-13.9-3.1-1.9 16.9-16.1 30.2-33.5 30.2-8 0-15.2-2.9-21-7.4-2.9 15.8-16.7 27.8-33.3 27.8-16.7 0-30.5-12.1-33.3-28-6.1 8.7-16.2 14.5-27.7 14.5-18.7 0-33.9-15.2-33.9-33.9 0-11.1 5.4-20.9 13.7-27.1-8.3-6.2-13.7-16-13.7-27.1s5.4-20.9 13.7-27.1c-8.3-6.2-13.7-16-13.7-27.1 0-13.5 7.9-25.1 19.4-30.5-11.4-5.5-19.4-17-19.4-30.5 0-11.1 5.4-20.9 13.7-27.1-8.3-6.2-13.7-16-13.7-27.1 0-13.5 7.9-25.1 19.4-30.5-11.4-5.5-19.4-17-19.4-30.5s7.9-25.1 19.4-30.5c-11.4-5.5-19.4-17-19.4-30.5s7.9-25.1 19.4-30.5c-11.5-5.7-19.4-17.3-19.4-30.7z" fill="#FF1744" /><path d="M631.6 493.3m-31 0a31 31 0 1 0 62 0 31 31 0 1 0-62 0Z" fill="#D50000" /><path d="M631.6 616.5m-31 0a31 31 0 1 0 62 0 31 31 0 1 0-62 0Z" fill="#D50000" /><path d="M631.6 739.8m-31 0a31 31 0 1 0 62 0 31 31 0 1 0-62 0Z" fill="#D50000" /><path d="M724.6 554.9m-31 0a31 31 0 1 0 62 0 31 31 0 1 0-62 0Z" fill="#D50000" /><path d="M724.6 678.2m-31 0a31 31 0 1 0 62 0 31 31 0 1 0-62 0Z" fill="#D50000" /></svg>