<?xml version="1.0" standalone="no"?><!DOCTYPE svg PUBLIC "-//W3C//DTD SVG 1.1//EN" "http://www.w3.org/Graphics/SVG/1.1/DTD/svg11.dtd"><svg class="icon" width="48px" height="48.00px" viewBox="0 0 1024 1024" version="1.1" xmlns="http://www.w3.org/2000/svg"><path d="M855.9104 310.1184c32.8192-20.0192 39.936-79.9744 40.6528-86.9376a15.4112 15.4112 0 0 0-5.5808-13.4656c-3.9936-3.2768-9.3696-4.3008-14.336-2.7136-0.4096 0.1536-41.0624 12.6976-94.9248 3.2768-8.3456-1.4336-16.3328 4.1472-17.7664 12.4928-1.4848 8.3456 4.1472 16.3328 12.4928 17.7664 35.6864 6.2464 66.048 4.0448 85.76 0.9728-4.352 17.5104-12.032 37.2224-23.0912 42.9568-15.9744 8.2432-20.4288 21.1456-23.7056 30.5664-3.84 11.1104-6.5024 18.4832-41.2672 18.0224h-0.2048c-6.5536 0-12.3904 4.1472-14.5408 10.3936a15.36 15.36 0 0 0 5.2736 17.2544c17.5104 13.2608 27.1872 27.0848 28.7744 41.0624 1.6384 14.6944-6.1952 25.2416-8.6528 28.1088-11.9808 14.1312-8.0384 36.608-3.9424 55.552-26.4192-7.9872-62.3616-23.1424-65.8944-32.4096-5.376-26.3168-36.7616-49.8176-60.6208-56.576 15.4112-2.6624 29.9008-6.8096 40.8064-15.616 30.3104-24.6272 17.8688-55.1424 11.1616-71.5264-1.024-2.4576-1.9456-4.7616-2.7136-6.912-0.6656-1.9456 4.1472-7.7824 9.0112-10.9056 5.3248-3.3792 8.0896-9.6768 6.912-15.872s-6.0416-11.0592-12.2368-12.2368c-0.9216-0.2048-23.1424-4.1984-59.0336 2.816-16.384 3.2256-21.3504 0.1024-32.1536-6.7072-6.0928-3.84-13.7216-8.6016-24.32-12.7488-1.9968-0.768-4.1984-1.4848-6.4512-2.0992-0.7168-0.2048-1.4848-0.3072-2.2016-0.3584-1.2288-5.2224-2.6112-10.3424-4.096-15.3088 29.5936-12.8 84.4288-28.8768 140.2368-5.3248 7.7824 3.328 16.8448-0.3584 20.1216-8.192 3.2768-7.8336-0.3584-16.8448-8.192-20.1216-65.9456-27.8016-129.5872-9.5744-163.9424 5.2224-2.2528-3.6864-4.6592-6.8096-7.2192-9.0624-12.0832-10.8032-16.128-59.5968-18.1248-83.0464-0.4096-4.7616-2.9696-9.1136-7.0144-11.6736-4.0448-2.56-9.0624-3.1232-13.5168-1.4848-5.5296 1.9968-18.0736-2.4064-24.9856-6.3488-4.5056-2.6112-10.0352-2.7136-14.6432-0.3584a15.3088 15.3088 0 0 0-8.2944 12.1344c-2.1504 21.2992-3.2768 59.0848 9.8816 92.416-6.2976-4.5568-12.4928-9.216-18.1248-13.4656-4.1472-3.1232-8.0384-6.0416-11.6224-8.6528-32.2048-23.6032-98.7136-14.1824-106.1888-13.056-4.1984 0.6656-7.936 2.7648-10.3424 6.2464-2.4064 3.4816-3.2768 7.5776-2.4064 11.7248 0.1536 0.9728 1.1776 9.6256-8.2432 18.8416-15.7696 15.4112-16.128 28.6208-11.3664 39.3728-107.4688 28.2624-179.0464 90.368-207.4624 180.48-35.584 112.896-16.0768 233.1648 53.5552 330.0352 74.5984 103.7824 193.2288 164.7616 325.5296 167.3216 9.2672 0.2048 18.7392 0.3072 28.3648 0.3072 111.36 0 242.0224-14.4384 327.8848-98.7648 64.9728-63.7952 96.512-157.44 96.3584-286.1568-0.3072-91.8016-28.2624-164.7616-83.3536-217.2416zM334.1312 262.2464c-0.1536 0.4608-2.816 2.9696-11.776 3.84-5.632 0.7168-10.9568 1.536-16.0256 2.4576 8.96-2.7648 18.176-5.2224 27.7504-7.4752 0.1536 0.5632 0.1536 0.9728 0.0512 1.1776z m-66.56 61.3376l-0.4096-2.1504c-0.1024-0.4608-0.3584-1.9456 1.4848-4.5056 2.5088-3.4304 14.1312-15.0528 57.0368-20.3776 6.8608-0.6656 12.4416-2.0992 17.1008-3.9936-0.8192 10.4448 0.6656 21.6064 2.0992 32 1.1776 8.704 2.5088 18.5856 1.4336 23.1424-1.5872 6.7584-1.9968 20.0192 12.8 32.8704 20.1728 17.5104 60.672 26.6752 81.3568 18.6368 6.4-1.4336 31.488 5.12 48.0768 9.472l3.5328 0.9216c-7.6288 3.5328-17.5616 6.8608-29.7984 8.3968-13.2096 1.6896-31.1808 6.144-50.2784 10.9056-30.464 7.5776-76.4928 19.0464-91.2384 13.312-27.1872-10.5472-58.624-2.5088-77.2096 12.9536-4.7616-8.2944-9.0112-20.1728-9.984-33.0752-0.8704-12.2368 0.9728-29.5424 14.9504-42.4448 25.6-20.6848 21.8112-41.1136 19.0464-56.064z m267.52 95.9488c8.0896 1.3824 15.7696 2.2016 22.7328 2.2016 13.0048 0 23.808-2.8672 31.1296-10.4448 5.2224-5.4272 18.0736-8.1408 31.6928-10.1376-17.3056 9.728-36.5056 29.7472-46.3872 57.9584-24.832-7.8848-39.8336-16.8448-39.168-39.5776z m64.512-133.9904c12.8 8.0384 26.0608 16.4352 54.4256 10.8544 7.3728-1.4336 14.0288-2.3552 19.8656-2.8672-1.5872 5.7856-1.6896 12.1856 0.5632 18.8928 0.9216 2.6624 2.048 5.5296 3.328 8.6016 7.3216 17.9712 9.3696 26.7776-2.0992 36.0448-8.96 7.2704-27.9552 9.6768-46.336 12.032-23.6544 3.0208-48.0768 6.0928-62.208 20.736-8.3968 5.5808-50.5856-5.4784-70.8096-10.752-33.7408-8.8576-53.504-13.568-66.56-8.4992-6.0928 2.3552-24.5248 0.8704-40.7552-6.912-8.7552-4.1984-11.9808-8.0896-12.6464-9.3696 2.1504-9.9328 0.6144-21.4528-1.024-33.6896-1.536-11.3152-3.84-28.3648 0.3072-33.4848 1.3312-1.6896 4.5056-2.304 6.9632-2.5088 24.9856-2.304 38.5536-10.6496 45.9264-19.0976 13.568 6.0928 32.768 12.9536 46.4896 10.5472 2.7648-0.4608 8.448-1.28 16.0768-2.1504-2.3552 7.3216-5.12 14.2336-8.1408 20.3776-1.9456 4.0448-4.9152 7.2704-8.0384 10.6496-6.7072 7.3216-17.9712 19.5584-9.4208 39.3216 2.2016 5.12 6.8608 15.872 39.5264 15.872 16.6912 0 40.704-2.816 75.4688-10.5984 7.7312-1.7408 12.8512-9.216 11.8784-17.0496 0-0.0512-0.7168-5.5808 0.0512-16.896 0.256-6.5024-0.7168-20.0192-2.9184-35.9424 3.6352 1.8432 6.912 3.8912 10.0864 5.888zM512.512 126.2592c3.7376 39.5776 9.472 72.6528 26.9312 88.2176 1.6384 1.4848 3.4304 4.5568 5.1712 8.704 0.256 1.6384 0.6656 3.2768 1.4848 4.8128 0.2048 0.4608 0.5632 0.768 0.8192 1.1776 8.0384 23.04 15.5648 65.28 14.7968 84.6336-0.2048 3.072-0.3072 5.7856-0.3584 8.2432-28.1088 5.5296-55.3984 8.3456-66.8672 6.912 0.9216-1.0752 2.048-2.304 3.0208-3.3792 3.84-4.1984 9.1136-9.9328 13.056-18.0224 7.7824-16.0256 31.1808-71.6288 6.7072-114.1248-12.1856-21.1456-14.6944-48.6912-14.4896-68.9664 3.072 0.8192 6.3488 1.4336 9.728 1.792zM347.648 216.7808c10.6496-10.3936 15.0528-21.248 16.7424-29.952 24.0128-2.1504 56.8832-1.3312 70.912 8.96 3.4304 2.56 7.2704 5.376 11.264 8.448 15.104 11.3664 33.536 25.2416 50.688 34.56 0 1.1776-0.1024 2.304-0.1536 3.4816-11.6224 1.0752-21.6064 2.3552-27.392 3.3792-6.5024 1.1264-26.5728-6.6048-40.6016-14.2336a15.37536 15.37536 0 0 0-22.6304 12.2368c-0.8704 2.4064-7.0144 8.3968-26.7264 10.24-5.632 0.512-10.6496 1.8432-15.104 3.84-1.024-8.704-5.3248-17.4592-12.4928-24.7808-2.6112-2.7136-7.8848-8.0896-9.1136-10.5984 0.4096-0.8192 1.536-2.6112 4.608-5.5808z m473.5488 574.8736c-85.0944 83.5584-223.232 91.8016-334.1312 89.6512-122.5216-2.3552-232.2944-58.6752-301.1584-154.5728-63.8976-88.8832-81.8176-199.2704-49.2032-302.848 18.6368-59.1872 57.2928-103.8848 115.2512-133.632-3.1232 2.6624-5.7856 5.4784-8.0384 8.448-6.2464 8.4992-8.7552 18.5344-7.0144 28.16l0.4096 2.2528c2.4064 13.1072 3.2256 17.5104-8.448 26.8288-0.256 0.2048-0.512 0.4096-0.768 0.6656-18.2272 16.5888-27.1872 40.6528-25.1904 67.6864 1.9968 27.7504 15.616 56.064 32.4096 67.328 3.84 2.56 8.6528 3.2768 13.056 1.9456 4.4032-1.3312 7.9872-4.608 9.728-8.9088 3.8912-9.6256 30.2592-22.1184 51.5584-13.824 22.1184 8.5504 59.4432 0.3584 109.7728-12.1856 18.1248-4.5056 35.2768-8.8064 46.6944-10.24 16.2304-2.048 29.5936-6.6048 39.936-11.52 8.7552 37.1712 48.4352 48.5888 71.7824 55.296l2.7648 0.8192a15.32928 15.32928 0 0 0 19.3024-11.776c7.3216-36.608 34.816-55.3984 42.0864-56.064h0.256c8.7552 0 39.2192 17.92 42.496 33.9456 8.192 40.0896 110.6432 61.3888 111.6672 61.5424a15.42144 15.42144 0 0 0 14.592-6.0416c5.888-7.8848 3.7888-17.5616 0.6144-32.1536-1.6896-7.68-6.144-28.1088-3.4304-32.8192 4.4544-5.2224 18.688-24.4224 15.7184-51.3536-1.4848-13.312-6.8096-26.0096-15.872-37.9392 17.408-4.5056 25.9584-13.2096 31.3344-23.4496 45.6704 46.2336 68.9152 110.1312 69.0176 190.4128 0.1024 120.1664-28.416 206.592-87.1936 264.3456z" fill="#4169E1" /><path d="M818.176 639.0784c-7.9872-2.816-16.7936 1.3824-19.6096 9.3696-17.8176 50.6368-52.3264 92.8256-102.6048 125.4912a15.36 15.36 0 0 0-4.5056 21.248c2.9184 4.5056 7.8848 7.0144 12.9024 7.0144 2.8672 0 5.7856-0.8192 8.3456-2.4576 55.296-35.9424 95.0272-84.6848 114.8416-141.056 2.816-8.0384-1.3824-16.7936-9.3696-19.6096zM841.1648 574.208a15.37024 15.37024 0 0 0-30.6176 2.56c0 0.0512 0.4096 5.5808-0.1536 14.848a15.39072 15.39072 0 0 0 14.3872 16.2816c0.3072 0 0.6656 0.0512 0.9728 0.0512a15.36 15.36 0 0 0 15.3088-14.4384c0.7168-11.52 0.1536-18.5344 0.1024-19.3024z" fill="#4169E1" /></svg>