<?xml version="1.0" standalone="no"?><!DOCTYPE svg PUBLIC "-//W3C//DTD SVG 1.1//EN" "http://www.w3.org/Graphics/SVG/1.1/DTD/svg11.dtd"><svg class="icon" width="48px" height="48.00px" viewBox="0 0 1024 1024" version="1.1" xmlns="http://www.w3.org/2000/svg"><path d="M285.9008 683.287893c-91.275947 0-171.475627 47.5648-217.634133 119.394987 46.155093 71.816533 126.358187 119.38816 217.634133 119.38816 91.27936 0 171.472213-47.571627 217.634133-119.38816-46.16192-71.8336-126.354773-119.394987-217.634133-119.394987z" fill="#92DD31" /><path d="M285.9008 942.547627c-95.232 0-183.02976-48.145067-234.861227-128.791894a20.476587 20.476587 0 0 1 0-22.142293c51.82464-80.653653 139.625813-128.802133 234.86464-128.802133 95.235413 0 183.033173 48.14848 234.86464 128.79872a20.473173 20.473173 0 0 1-0.003413 22.145706c-51.838293 80.643413-139.636053 128.791893-234.86464 128.791894zM93.044053 802.679467c44.94336 62.17728 116.08064 98.90816 192.853334 98.90816 76.772693 0 147.909973-36.73088 192.853333-98.90816-44.939947-62.184107-116.077227-98.914987-192.853333-98.914987-76.776107 0.003413-147.9168 36.73088-192.853334 98.914987z" fill="#39C117" /><path d="M738.106027 683.287893c-91.282773 0-171.475627 47.5648-217.63072 119.394987 46.15168 71.816533 126.35136 119.38816 217.63072 119.38816 91.272533 0 171.4688-47.571627 217.627306-119.38816-46.155093-71.8336-126.354773-119.394987-217.627306-119.394987z" fill="#92DD31" /><path d="M738.106027 942.547627c-95.232 0-183.02976-48.145067-234.857814-128.791894a20.476587 20.476587 0 0 1 0-22.142293c51.82464-80.653653 139.618987-128.802133 234.861227-128.802133 95.232 0 183.02976 48.14848 234.857813 128.802133a20.476587 20.476587 0 0 1 0 22.142293c-51.838293 80.643413-139.63264 128.791893-234.861226 128.791894z m-192.84992-139.86816c44.936533 62.17728 116.073813 98.90816 192.84992 98.90816 76.76928 0 147.90656-36.73088 192.846506-98.90816-44.936533-62.184107-116.0704-98.914987-192.846506-98.914987-76.77952 0.003413-147.920213 36.734293-192.84992 98.914987z" fill="#39C117" /><path d="M870.10304 470.575787c5.2224 201.60512-59.118933 323.426987-196.491947 335.602346-74.799787 6.62528-76.509867-26.084693-163.054933-27.542186-80.387413 8.413867-76.929707 35.80928-146.40128 27.439786-184.398507-33.365333-212.415147-203.946667-210.46272-335.499946 12.151467-209.09056 208.663893-326.908587 406.893227-368.64 43.537067 100.747947 304.2816 166.505813 309.517653 368.64z" fill="#FF9999" /><path d="M387.887787 828.122453c-8.01792 0-16.581973-0.559787-26.180267-1.716906a24.169813 24.169813 0 0 1-1.19808-0.180907c-153.914027-27.849387-230.38976-147.613013-227.293867-355.956053 0.003413-0.293547 0.013653-0.590507 0.034134-0.884054 5.983573-103.000747 53.510827-191.095467 141.257386-261.8368 92.020053-74.185387 204.069547-109.28128 281.859414-125.65504a20.48 20.48 0 0 1 23.01952 11.915947c13.940053 32.259413 59.501227 64.354987 107.73504 98.33472 89.060693 62.74048 199.901867 140.823893 203.451733 277.899947 2.73408 105.547093-13.233493 189.494613-47.455573 249.511253-36.727467 64.406187-93.149867 100.41344-167.703894 107.021653a235.298133 235.298133 0 0 1-20.681386 0.965974c-30.160213 0-48.954027-6.888107-67.1232-13.544107-18.896213-6.925653-38.434133-14.083413-76.161707-14.865067-32.310613 3.505493-49.599147 10.30144-64.8704 16.30208-16.59904 6.526293-32.283307 12.68736-58.688853 12.68736z m-20.681387-42.308266c7.703893 0.91136 14.475947 1.35168 20.677973 1.35168 18.64704 0 28.6208-3.915093 43.71456-9.85088 17.00864-6.683307 38.181547-15.005013 76.827307-19.049814 0.822613-0.085333 1.64864-0.129707 2.47808-0.105813 45.45536 0.768 69.546667 9.59488 90.801493 17.384107 16.841387 6.171307 30.139733 11.042133 53.03296 11.042133 5.29408 0 11.035307-0.273067 17.066667-0.805547 153.361067-13.58848 181.353813-178.619733 177.82784-314.671786-3.017387-116.50048-100.283733-185.023147-186.098347-245.476694-48.653653-34.276693-91.480747-64.447147-113.728853-100.317866-101.638827 23.790933-361.472 107.895467-375.637333 346.013013-2.68288 187.337387 60.474027 290.218667 193.037653 314.487467z" fill="#FF6E6E" /><path d="M534.58944 797.569707a20.753067 20.753067 0 0 1-2.194773-0.119467c-49.554773-5.28384-98.768213-34.921813-131.652267-79.291733-37.669547-50.827947-51.258027-116.24448-38.260053-184.19712 2.126507-11.1104 12.87168-18.37056 23.9616-16.27136a20.48 20.48 0 0 1 16.267946 23.965013c-10.820267 56.572587 0.167253 110.595413 30.938454 152.1152 26.18368 35.328 64.720213 58.862933 103.082666 62.952107a20.476587 20.476587 0 0 1 18.193067 22.534826 20.48 20.48 0 0 1-20.33664 18.312534z" fill="#FF6E6E" /><path d="M228.67968 531.664213l-0.33792-0.003413a20.48 20.48 0 0 1-20.145493-20.80768c1.61792-99.898027 46.820693-196.406613 115.15904-245.865813a20.48 20.48 0 1 1 24.016213 33.1776c-58.248533 42.161493-96.805547 125.904213-98.22208 213.346986a20.48 20.48 0 0 1-20.46976 20.15232z" fill="#FFFFFF" /><path d="M443.6992 208.16896c-6.683307 0.52224-45.54752 19.360427-49.585493 23.15264" fill="#FF2C2C" /><path d="M394.11712 251.8016a20.48 20.48 0 0 1-14.015147-35.416747c6.714027-6.301013 49.964373-27.692373 62.006614-28.634453a20.466347 20.466347 0 0 1 22.012586 18.824533 20.48 20.48 0 0 1-17.312426 21.835094c-6.970027 2.02752-33.908053 14.943573-39.7312 18.766506a20.40832 20.40832 0 0 1-12.960427 4.625067z" fill="#FFFFFF" /></svg>