<?xml version="1.0" standalone="no"?><!DOCTYPE svg PUBLIC "-//W3C//DTD SVG 1.1//EN" "http://www.w3.org/Graphics/SVG/1.1/DTD/svg11.dtd"><svg class="icon" width="48px" height="48.00px" viewBox="0 0 1024 1024" version="1.1" xmlns="http://www.w3.org/2000/svg"><path d="M650.5 941.4c-18.4 0-37.2-1.4-56.2-4.1-16.2-2.3-33.6-0.6-52.1 1.3-24 2.4-48.9 4.9-72.7-1.9-11.3-3.2-17.9-15.1-14.6-26.4 3.2-11.3 15.1-17.9 26.4-14.6 15.9 4.6 35.7 2.6 56.6 0.5 20.2-2 41.1-4.1 62.4-1.1 45.3 6.5 88.8 4.3 129.3-6.5 39-10.5 73.5-28.5 102.5-53.6 26.8-23.2 47.7-51.6 62.3-84.3 15.2-34.2 22.9-72.3 22.9-113.1 0-32-6.5-65.5-19.4-99.7-12.1-32.3-29.5-64.3-51.8-95.3C803.9 383.8 747 333.3 690 303.9c-10.5-5.4-14.6-18.3-9.2-28.7s18.3-14.6 28.7-9.2c62.8 32.4 125.2 87.7 171.2 151.8 24.4 34 43.6 69.4 57.1 105.2 14.7 39 22.1 77.6 22.1 114.7 0 92.3-35.5 173.9-99.9 229.7-33.9 29.3-74 50.4-119.4 62.6-28.8 7.5-59 11.4-90.1 11.4zM338.2 441.8c-4.5 0-9-1.4-12.8-4.3-9.4-7.1-11.3-20.5-4.2-29.9 46-60.9 104.6-111.5 165-142.4 10.5-5.4 23.3-1.2 28.7 9.3 5.4 10.5 1.2 23.3-9.3 28.7-54 27.6-108.8 75.1-150.4 130.1-4.2 5.6-10.6 8.5-17 8.5z" fill="#4169E1" /><path d="M490.5 308.3c-8.4 0-16.3-4.9-19.7-13.1-4.5-10.9 0.6-23.4 11.5-27.9 9.6-4 17.4-11.3 22-20.7 5.2-10.6 18-15 28.5-9.8 10.6 5.2 15 18 9.8 28.5-9.1 18.6-24.7 33.3-43.9 41.3-2.7 1.1-5.5 1.7-8.2 1.7z" fill="#4169E1" /><path d="M696.7 304.6c-3.6 0-7.3-0.9-10.6-2.8-14.9-8.6-26.8-21.3-34.3-36.7-5.2-10.6-0.7-23.4 9.9-28.5 10.6-5.2 23.4-0.7 28.5 9.9 3.8 7.7 9.7 14.1 17.2 18.4 10.2 5.9 13.7 18.9 7.9 29.1-4 6.7-11.2 10.6-18.6 10.6z" fill="#4169E1" /><path d="M656.3 273c-3.7-6.4-8.2-14.3-13.5-23.5-7.3-12.8-16.5-28.7-27-46.9-1.9-3.2-4.6-5.9-7.8-7.8-10.2-5.9-23.3-2.4-29.1 7.8L538.2 273l-37-21.3 40.6-70.4c8.5-14.8 22.3-25.4 38.9-29.8 16.5-4.4 33.8-2.2 48.6 6.4 9.7 5.6 17.8 13.7 23.4 23.4 10.5 18.2 19.7 34.1 27 47 5.3 9.2 9.8 17 13.5 23.4L656.3 273z" fill="#4169E1" /><path d="M362.7 960c-79.5 0-154.2-28.6-210.6-80.6C95.3 826.9 64 757.1 64 682.7c0-37.5 8.8-74.2 26-109.1 16.2-32.6 38.9-62.2 67.8-87.8 57.3-51.1 132-80.4 204.9-80.4s147.5 29.3 204.9 80.4c28.8 25.7 51.6 55.2 67.8 87.8 17.3 34.9 26 71.6 26 109.1 0 74.4-31.3 144.3-88.1 196.7-56.4 52-131.2 80.6-210.6 80.6z m0-512c-62.5 0-126.8 25.4-176.5 69.6-24.7 22-44.2 47.2-57.9 74.9-14.3 29-21.6 59.3-21.6 90.2 0 129.4 114.8 234.7 256 234.7s256-105.3 256-234.7c0-30.9-7.3-61.2-21.6-90.2-13.7-27.7-33.2-52.9-57.9-74.9-49.7-44.2-114-69.6-176.5-69.6z" fill="#4169E1" /><path d="M362.7 896c-62.5 0-121.3-22.1-165.5-62.1-44.6-40.3-69.1-94-69.1-151.2s24.5-110.9 69.1-151.2c44.3-40.1 103.1-62.1 165.5-62.1s121.3 22.1 165.5 62.1c44.6 40.3 69.1 94 69.1 151.2s-24.5 110.9-69.1 151.2c-44.3 40-103.1 62.1-165.5 62.1z m0-405.3c-117.6 0-213.3 86.1-213.3 192s95.7 192 213.3 192c117.6 0 213.3-86.1 213.3-192s-95.7-192-213.3-192z" fill="#4169E1" /><path d="M352.680637 569.653794a21.300852 21.300852 0 1 0 2.971745-42.497928 21.300852 21.300852 0 1 0-2.971745 42.497928Z" fill="#4169E1" /><path d="M377.068338 639.884856a21.3 21.3 0 1 0 21.93871-36.516475 21.3 21.3 0 1 0-21.93871 36.516475Z" fill="#4169E1" /><path d="M441.080477 610.889301a21.3 21.3 0 1 0 34.895877-24.434356 21.3 21.3 0 1 0-34.895877 24.434356Z" fill="#4169E1" /><path d="M477.981885 731.960742a21.3 21.3 0 1 0 12.456457-40.738148 21.3 21.3 0 1 0-12.456457 40.738148Z" fill="#4169E1" /><path d="M392.332039 809.984391a21.3 21.3 0 1 0 39.498589-15.956862 21.3 21.3 0 1 0-39.498589 15.956862Z" fill="#4169E1" /><path d="M285.58711 820.473413a21.3 21.3 0 1 0 21.3-36.892682 21.3 21.3 0 1 0-21.3 36.892682Z" fill="#4169E1" /><path d="M203.034839 714.849242a21.3 21.3 0 1 0 42.075988-6.66117 21.3 21.3 0 1 0-42.075988 6.66117Z" fill="#4169E1" /><path d="M234.334361 613.159026a21.3 21.3 0 1 0 31.187594-29.018855 21.3 21.3 0 1 0-31.187594 29.018855Z" fill="#4169E1" /><path d="M424.742187 700.243659a21.298935 21.298935 0 1 0 0.743435-42.591382 21.298935 21.298935 0 1 0-0.743435 42.591382Z" fill="#4169E1" /><path d="M375.550739 750.10491a21.3 21.3 0 1 0 37.258079-20.654191 21.3 21.3 0 1 0-37.258079 20.654191Z" fill="#4169E1" /><path d="M315.040524 761.575698a21.3 21.3 0 1 0 21.93871-36.516475 21.3 21.3 0 1 0-21.93871 36.516475Z" fill="#4169E1" /><path d="M288.362462 707.357711a21.298935 21.298935 0 1 0 0.743435-42.591382 21.298935 21.298935 0 1 0-0.743435 42.591382Z" fill="#4169E1" /><path d="M301.141276 635.506323a21.3 21.3 0 1 0 37.258079-20.654191 21.3 21.3 0 1 0-37.258079 20.654191Z" fill="#4169E1" /><path d="M829.5 711.2m-21.3 0a21.3 21.3 0 1 0 42.6 0 21.3 21.3 0 1 0-42.6 0Z" fill="#4169E1" /><path d="M836.6 668.4c-0.9 0-1.7-0.1-2.6-0.2-11.7-1.4-20-12.1-18.6-23.8 4-32.2-1.3-64.7-15.1-93.8-13.5-28.4-34.5-52.5-60.7-69.8-9.9-6.5-12.6-19.7-6.1-29.5 6.5-9.9 19.7-12.6 29.5-6.1 32.8 21.5 59 51.7 75.9 87.1 17.3 36.5 23.9 77.1 18.9 117.3-1.4 10.9-10.6 18.8-21.2 18.8z" fill="#4169E1" /></svg>