<?xml version="1.0" standalone="no"?><!DOCTYPE svg PUBLIC "-//W3C//DTD SVG 1.1//EN" "http://www.w3.org/Graphics/SVG/1.1/DTD/svg11.dtd"><svg class="icon" width="48px" height="48.00px" viewBox="0 0 1024 1024" version="1.1" xmlns="http://www.w3.org/2000/svg"><path d="M588.5 272l-12.7-163 110.4-25.6c13.2-3.1 22.8 12.7 14.6 23.9-21.3 28.9-30.6 96.5-5 154.8L588.5 272" fill="#FFFFFE" /><path d="M592.6 121.3L603 254.8l70.9-6.5c-17.8-57.1-8.5-117.8 13.2-148.9l-94.5 21.9z m-4.1 166.4c-3.7 0-7.3-1.3-10.1-3.7-3.2-2.7-5.2-6.6-5.6-10.8l-12.7-162.9c-0.6-7.8 4.6-14.8 12.2-16.6l110.3-25.6c12.3-2.9 24.7 2.2 31.8 12.8 7.3 11 6.9 25.1-0.9 35.7-16.9 23-27.4 84.1-3.2 139.1 2 4.6 1.7 10-0.9 14.3s-7.1 7.2-12.1 7.7l-107.3 10h-1.5z" fill="#4169E1" /><path d="M557.114 597.524c137.591-74.837 145.547-266.3 111.131-304.356l-83.251-20.756c-66.662 132.612-200.094 227.552-431.319 126.1-13.561-5.958-29.151 2.007-29.99 17.36-6.287 107.06 185.448 316.465 433.429 181.652" fill="#FFFFFE" /><path d="M556.75 598.155l0.097 0.024-0.097-0.024z m-411.07-184.94c-1.746-0.436-3.346-0.217-4.68 0.585-1.236 0.825-1.939 1.99-1.962 3.736-2.616 44.386 35.897 117.68 112.326 166.211 51.536 32.637 158.764 76.274 297.786 0.66 85.852-46.717 109.806-137.829 116.137-174.795 8.627-50.308 1.763-87.678-6.783-101.764l-65.786-16.402c-47.82 88.458-151.31 204.674-353.834 154.282-28.624-7.137-59.287-17.667-91.99-32.005-0.34-0.29-0.825-0.412-1.213-0.508zM324.75 649.04c-37.939-9.46-68.581-25.035-90.297-38.797-77.23-49.04-130.615-130.887-126.896-194.579 0.744-12.079 6.873-22.609 16.959-28.751 10.45-6.361 23.619-7.097 35.045-2.084 237.824 104.334 354.631-7.015 410.829-118.738 3.415-6.672 10.86-10.073 17.942-8.307l83.252 20.757c3.008 0.75 5.798 2.374 7.885 4.75 19.78 21.936 26.605 74.756 16.867 131.588-7.056 41.527-34.107 143.821-132.227 197.168-95.138 51.72-177.066 52.524-239.36 36.993z" fill="#4169E1" /><path d="M787.9 574.2c50.9-189.3-17.7-352.6-107.1-339.2l-58.1 34.7c11.6 63.3 17.1 372-357.4 494.3-12 3.9-18.2 17.2-11.6 28.4 53.7 91.8 458.4 64.1 534.2-218.2" fill="#FFFFFE" /><path d="M639.9 277.7C654.6 389 615.5 666.3 270.1 779c-1.6 0.5-2.8 1.6-3.2 2.8-0.3 0.9-0.3 1.7 0.3 2.6 15.8 27 85.8 48.5 184.1 35.2 127.6-17.2 279-91.8 321.4-249.6 36.6-136.1 8.5-248.3-33-294.8-11.5-12.8-29.7-27.3-53.6-25.1l-46.2 27.6zM393.2 855.2c-74.4 0-132.7-20-153.2-54.8-5.4-9.1-6.3-20-2.6-29.8 3.9-10.3 12.2-18.2 22.9-21.6 398.2-130 347.5-473.2 346.9-476.6-1.2-6.5 1.8-13 7.4-16.4l58.1-34.7c1.8-1 3.7-1.7 5.7-2.1 30.5-4.5 60.5 7.8 84.7 34.9 48.6 54.4 79.8 175.8 39.9 324-46.4 172.7-210 254.1-347.6 272.7-21.5 3-42.4 4.4-62.2 4.4z" fill="#4169E1" /><path d="M715.3 535.3c-0.5 0-1.1 0-1.6-0.1-8.7-0.9-15-8.6-14.1-17.3 0.7-6.4 0.9-12.8 0.9-18.9-0.1-8.7 6.9-15.9 15.6-16 9 0.1 15.8 6.9 15.9 15.6 0.1 7.3-0.3 14.9-1 22.5-0.9 8.2-7.8 14.2-15.7 14.2M524.5 767.2c-6.1 0-11.9-3.6-14.5-9.6-3.4-8 0.3-17.3 8.3-20.7 75.8-32.5 136-90.4 165.1-158.8 3.4-8 12.6-11.7 20.7-8.3 8 3.4 11.7 12.7 8.3 20.7-32.2 75.9-98.5 139.8-181.7 175.5-2 0.8-4.1 1.2-6.2 1.2M217.4 529c-2.2-4.4-1.6-10 1.8-13.9 4.6-5.3 12.7-5.9 18-1.3 50.5 43.7 114 66.9 174.2 63.8 7-0.4 13 5 13.4 12.1 0.4 7-5 13-12.1 13.4-66.7 3.5-136.7-22-192.2-70-1.3-1.3-2.4-2.6-3.1-4.1" fill="#4169E1" /></svg>