<?xml version="1.0" standalone="no"?><!DOCTYPE svg PUBLIC "-//W3C//DTD SVG 1.1//EN" "http://www.w3.org/Graphics/SVG/1.1/DTD/svg11.dtd"><svg class="icon" width="48px" height="48.00px" viewBox="0 0 1024 1024" version="1.1" xmlns="http://www.w3.org/2000/svg"><path d="M400.96 414.24a68.16 68.16 0 0 0-36.32 32 128 128 0 0 0 76.64 25.92 88 88 0 0 1-48 35.52 134.56 134.56 0 0 0 90.88 16l136.16-121.12c5.44-18.08 9.6-73.12-7.04-92.48A130.72 130.72 0 0 1 576 347.04s-11.36-70.56-28.96-88.32a148.16 148.16 0 0 0-44.64 48 152.64 152.64 0 0 0-64-49.28c-17.92 21.12-10.08 65.12-10.08 65.12a114.56 114.56 0 0 0-86.4 3.2 116.96 116.96 0 0 0 58.24 87.84z" fill="#46C373" /><path d="M577.92 476.8a8 8 0 0 1-6.56-3.36 300 300 0 0 0-83.36-82.88 112 112 0 0 0-40.96-17.28 8 8 0 0 1-7.04-8.8 7.84 7.84 0 0 1 8.8-7.04 124.16 124.16 0 0 1 48 19.52A315.84 315.84 0 0 1 584.48 464a8 8 0 0 1-6.56 12.64z" fill="#7B365D" /><path d="M477.28 334.4s24.96 23.84 15.04 49.44" fill="#00A362" /><path d="M492.16 391.84a8 8 0 0 1-7.52-10.88c7.84-20.16-12.8-40.48-13.12-40.64a8 8 0 0 1 11.04-11.52c1.12 1.12 28.64 28 16.96 58.08a8 8 0 0 1-7.36 4.96z" fill="#7B365D" /><path d="M542.24 332.32a142.08 142.08 0 0 1-3.68 89.12" fill="#00A362" /><path d="M538.56 429.44h-2.4a8 8 0 0 1-5.28-10.08 136.96 136.96 0 0 0 4-83.36 8 8 0 0 1 14.88-5.92 149.28 149.28 0 0 1-3.52 94.56 8 8 0 0 1-7.68 4.8z" fill="#7B365D" /><path d="M432 438.88s40.32 2.72 81.6-40.48" fill="#00A362" /><path d="M432 446.88h-1.92a8 8 0 0 1 0.96-16c1.44 0 37.44 1.6 75.36-37.92a8 8 0 0 1 11.52 11.04A123.68 123.68 0 0 1 432 446.88z" fill="#7B365D" /><path d="M474.24 486.24s27.36 1.44 91.68-33.6" fill="#00A362" /><path d="M474.56 494.24a8 8 0 0 1 0-16c1.12 0 27.68 0 87.52-32a8 8 0 1 1 7.68 14.08c-60.64 32.48-89.76 33.92-95.2 33.92z" fill="#7B365D" /><path d="M612.8 308.96a130.72 130.72 0 0 1-36.8 38.08s-11.36-70.56-28.96-88.32a148.16 148.16 0 0 0-44.64 48 152.64 152.64 0 0 0-64-49.28 69.28 69.28 0 0 0-11.84 43.68 38.72 38.72 0 0 1 5.28-8.48 152.64 152.64 0 0 1 64 49.28 148.16 148.16 0 0 1 44.64-48c17.6 17.76 28.96 88.32 28.96 88.32a130.72 130.72 0 0 0 36.32-38.08c10.08 11.84 12.48 36.8 11.68 58.72l1.76-1.6c6.24-17.28 10.24-72.96-6.4-92.32z" fill="#009E43" /><path d="M462.56 532.96a166.08 166.08 0 0 1-73.28-18.4l-16-8 16.8-6.56a109.6 109.6 0 0 0 35.36-21.28 123.84 123.84 0 0 1-65.92-26.88l-4.8-3.84 2.72-5.44A70.88 70.88 0 0 1 384 413.28a121.44 121.44 0 0 1-50.08-86.08v-5.6l5.12-2.4a121.92 121.92 0 0 1 80-7.2 87.04 87.04 0 0 1 13.28-59.04l3.52-4.16 5.12 1.76a151.68 151.68 0 0 1 60.32 43.2A139.68 139.68 0 0 1 544 251.84l5.28-3.04 4.32 4.32c14.56 14.72 24.48 57.28 28.8 80A126.56 126.56 0 0 0 606.08 304l5.76-9.28 7.04 8.16c19.04 22.08 14.72 80 8.64 100v2.08l-1.76 1.44-137.28 122.4h-1.92a91.04 91.04 0 0 1-24 4.16z m-50.24-25.76a122.08 122.08 0 0 0 67.52 8.32l132.96-118.4a161.12 161.12 0 0 0 0-72.96 135.68 135.68 0 0 1-32 29.76l-10.24 6.4-1.92-12a284.48 284.48 0 0 0-23.04-78.88 152.16 152.16 0 0 0-35.68 41.92l-6.08 10.88-7.84-10.08a150.4 150.4 0 0 0-54.4-44.32 96 96 0 0 0-5.28 54.08l2.56 14.4-13.6-5.6a108.32 108.32 0 0 0-74.72 0 109.92 109.92 0 0 0 53.28 75.68l16 8.64-17.76 6.08a62.88 62.88 0 0 0-28.64 22.08 126.72 126.72 0 0 0 67.52 20.8h12.8l-5.76 11.2a82.72 82.72 0 0 1-35.68 31.84z" fill="#7B365D" /><path d="M798.24 312l-3.2 4.32a224 224 0 0 0-36 72l-4.48 16a11.36 11.36 0 0 1-16-3.36l-4-5.92a29.28 29.28 0 0 1-29.28-28.16v-2.72a22.56 22.56 0 0 1-24.48-22.4 10.24 10.24 0 0 1 6.4-9.6l13.6-5.44A128 128 0 0 0 752 288l6.88-8.48 38.72 32z" fill="#BFDA82" /><path d="M674.88 342.4a57.76 57.76 0 0 1-27.04-6.4 50.24 50.24 0 0 1-20.8-67.84 44 44 0 0 1 59.52-18.24 39.04 39.04 0 0 1 16 52.8 19.36 19.36 0 0 1-34.24-18.08 8 8 0 0 1 14.08 7.52 3.36 3.36 0 0 0 1.44 4.48 3.2 3.2 0 0 0 2.56 0 3.36 3.36 0 0 0 1.92-1.6 23.04 23.04 0 0 0-9.6-31.2 28 28 0 0 0-37.92 11.52A34.24 34.24 0 0 0 656 321.6a41.6 41.6 0 0 0 30.4 3.52 8 8 0 1 1 4.16 16 58.24 58.24 0 0 1-15.68 1.28z" fill="#7B365D" /><path d="M798.24 312l-3.2 4.32a224 224 0 0 0-36 72l-4.48 16a11.36 11.36 0 0 1-16-3.36l-2.56-6.08a11.36 11.36 0 0 0 4.16-1.6l4.48-16a224 224 0 0 1 36-72l3.2-4.32z" fill="#B7CE7A" /><path d="M748.64 413.44a19.36 19.36 0 0 1-16-8.48l-1.76-2.72a37.12 37.12 0 0 1-32-31.2 30.4 30.4 0 0 1-24.96-29.92 18.24 18.24 0 0 1 11.52-16.96l13.6-5.44a120.32 120.32 0 0 0 48-35.36l12-14.72 50.72 42.08-7.68 10.4a215.04 215.04 0 0 0-34.72 69.44l-5.28 18.4-2.56 1.6a19.36 19.36 0 0 1-10.88 2.88z m-35.04-58.56v11.2a21.12 21.12 0 0 0 21.28 20.48h4.32l6.4 9.44a3.36 3.36 0 0 0 2.24 1.44l3.36-11.36a231.52 231.52 0 0 1 36-72.8l-26.56-22.08-1.92 2.24a136.32 136.32 0 0 1-54.4 40l-13.6 5.44a2.24 2.24 0 0 0-1.44 2.08 14.4 14.4 0 0 0 4.64 10.72 14.72 14.72 0 0 0 11.04 3.68z" fill="#7B365D" /><path d="M683.2 339.52a64 64 0 0 0-43.52 21.12l-44.64 49.92a652 652 0 0 1-228.48 164.16 259.2 259.2 0 0 0-109.76 89.28 94.08 94.08 0 0 0-16 70.88 94.08 94.08 0 0 0 92.48 77.12 248 248 0 0 0 112.96-27.2L448 784a587.68 587.68 0 0 0 172-133.12 587.68 587.68 0 0 0 110.4-182.72l16-42.88a64 64 0 0 0 2.72-35.68 64 64 0 0 0-66.08-50.08z" fill="#80C15A" /><path d="M749.12 389.6a64 64 0 0 0-34.08-43.68 61.44 61.44 0 0 1 2.88 50.72l-16 42.88A587.68 587.68 0 0 1 419.2 755.52h-1.28A248 248 0 0 1 305.12 784a93.44 93.44 0 0 1-50.56-16 93.92 93.92 0 0 0 79.2 43.68 248 248 0 0 0 112.96-27.2L448 784a587.68 587.68 0 0 0 282.24-315.68l16-42.88a64 64 0 0 0 2.88-35.84z" fill="#75AD50" /><path d="M567.68 564.8a8 8 0 0 1-5.76-13.6 916.96 916.96 0 0 0 128-171.36 8 8 0 0 1 13.76 8 932.64 932.64 0 0 1-129.92 174.4 8 8 0 0 1-6.08 2.56zM525.28 605.76a8 8 0 0 1-5.28-13.76l13.12-12A8 8 0 1 1 544 592l-13.44 12.32a8 8 0 0 1-5.28 1.44zM332.64 721.44a8 8 0 0 1-1.92-16s67.52-16.96 154.24-84.64a8 8 0 0 1 9.92 12.64c-89.6 69.92-157.44 86.88-160 87.52z" fill="#FFFFFF" /><path d="M273.92 681.12A259.2 259.2 0 0 1 384 592a652 652 0 0 0 227.68-164.32L656 377.76a64 64 0 0 1 43.52-21.12 64 64 0 0 1 39.52 11.04 64 64 0 0 0-56.64-28.16 64 64 0 0 0-43.52 21.12l-44.64 49.92a652 652 0 0 1-227.68 164.16 259.2 259.2 0 0 0-109.76 89.28 93.6 93.6 0 0 0 19.84 128 93.12 93.12 0 0 1-2.72-112z" fill="#FFFFFF" /><path d="M333.76 820a102.08 102.08 0 0 1-83.52-160 266.08 266.08 0 0 1 63.04-64 8 8 0 1 1 9.28 12.96 250.4 250.4 0 0 0-59.36 60 86.08 86.08 0 0 0 70.4 135.36 240.96 240.96 0 0 0 109.28-26.24 579.84 579.84 0 0 0 280-312.64l16-42.88a55.36 55.36 0 0 0 2.24-32 54.72 54.72 0 0 0-57.76-43.68 55.52 55.52 0 0 0-38.4 18.4L600.64 416a664.8 664.8 0 0 1-230.88 166.08 8 8 0 1 1-6.4-14.72 648.8 648.8 0 0 0 225.28-162.24l44.64-49.92a71.68 71.68 0 0 1 120.8 72.8l-16 42.88a595.68 595.68 0 0 1-286.24 320 258.4 258.4 0 0 1-118.08 29.12z" fill="#7B365D" /></svg>