<?xml version="1.0" standalone="no"?><!DOCTYPE svg PUBLIC "-//W3C//DTD SVG 1.1//EN" "http://www.w3.org/Graphics/SVG/1.1/DTD/svg11.dtd"><svg class="icon" width="48px" height="48.00px" viewBox="0 0 1024 1024" version="1.1" xmlns="http://www.w3.org/2000/svg"><path d="M766.221653 666.66496a20.48 20.48 0 0 1-20.476586-20.33664c-1.7408-250.525013-241.742507-487.307947-244.165974-489.669973a20.473173 20.473173 0 0 1-0.372053-28.95872 20.48 20.48 0 0 1 28.95872-0.372054c2.60096 2.532693 64.395947 63.136427 127.225173 157.14304 58.453333 87.456427 128.33792 221.17376 129.314134 361.5744a20.486827 20.486827 0 0 1-20.33664 20.62336l-0.146774-0.003413z" fill="#1E8C03" /><path d="M270.37696 678.877867a20.486827 20.486827 0 0 1-20.19328-17.21344c-18.589013-114.920107 18.684587-244.032853 107.78624-373.38112 66.474667-96.494933 137.393493-158.665387 140.38016-161.266347a20.48 20.48 0 0 1 26.89024 30.897493c-3.15392 2.75456-275.606187 243.85536-234.622293 497.210027a20.48 20.48 0 0 1-20.241067 23.753387z" fill="#1E8C03" /><path d="M502.330027 158.477653c-259.525973 0-350.829227-70.23616-355.252907-73.772373a20.48 20.48 0 0 1 25.473707-32.07168c2.075307 1.573547 124.811947 91.736747 490.161493 56.756907a20.48 20.48 0 0 1 3.908267 40.772266c-61.026987 5.843627-115.63008 8.31488-164.29056 8.31488z" fill="#1E8C03" /><path d="M852.26496 600.630613c-24.070827 0-80.35328 14.257493-100.068693 14.848-19.698347-1.10592-76.01152-14.848-100.07552-14.848-57.033387 0-107.055787 40.645973-103.273814 123.927894 3.785387 83.27168 54.084267 209.906347 131.601067 224.515413 26.968747 5.74464 110.424747 10.489173 147.565227 0 66.665813-15.28832 123.74016-141.247147 127.522133-224.515413 3.781973-83.28192-46.237013-123.927893-103.2704-123.927894z" fill="#FF1515" /><path d="M762.395307 975.766187c-31.699627 0-67.781973-2.778453-85.98528-6.61504-90.13248-17.216853-143.878827-152.511147-148.026027-243.667627-2.048-45.090133 10.161493-82.83136 35.304107-109.141333 22.30272-23.343787 53.7088-36.194987 88.429226-36.194987 15.588693 0 39.970133 4.49536 63.546027 8.84736 14.39744 2.655573 29.26592 5.399893 36.78208 5.973333 7.72096-0.416427 23.58272-3.3792 38.94272-6.253226 22.528-4.20864 45.820587-8.567467 60.873387-8.567467 34.720427 0 66.123093 12.854613 88.425813 36.194987 25.142613 26.313387 37.348693 64.054613 35.304107 109.144746-3.843413 84.57216-62.76096 224.525653-142.8992 243.428694-16.387413 4.543147-40.17152 6.85056-70.69696 6.85056zM652.117333 621.110613c-23.425707 0-44.311893 8.35584-58.815146 23.534934-17.227093 18.029227-25.52832 45.339307-23.995734 78.984533 3.433813 75.53024 49.913173 193.068373 114.93376 205.318827l0.474454 0.095573c13.11744 2.792107 44.803413 5.761707 77.684053 5.761707 26.299733 0 47.622827-1.931947 60.050773-5.444267 0.32768-0.088747 0.65536-0.177493 0.989867-0.252587 53.248-12.209493 108.032-126.112427 111.639893-205.482666 1.529173-33.641813-6.76864-60.955307-23.995733-78.984534-14.49984-15.17568-35.386027-23.534933-58.811733-23.534933-11.260587 0-33.621333 4.181333-53.346987 7.871147-19.094187 3.570347-35.584 6.652587-46.11072 6.966613a17.92 17.92 0 0 1-1.764693-0.023893c-9.762133-0.546133-25.081173-3.372373-42.81344-6.64576-19.729067-3.6352-44.274347-8.164693-56.118614-8.164694z" fill="#CC0202" /><path d="M623.9232 710.929067c-1.283413 22.213973 1.959253 44.858027 10.38336 67.106133" fill="#FF2C2C" /><path d="M634.309973 798.522027a20.486827 20.486827 0 0 1-19.155626-13.236907c-9.233067-24.39168-13.161813-49.80736-11.677014-75.537067 0.651947-11.29472 10.45504-19.909973 21.62688-19.268266a20.483413 20.483413 0 0 1 19.268267 21.62688c-1.153707 19.95776 1.90464 39.697067 9.089707 58.6752a20.48 20.48 0 0 1-11.902294 26.402133c-2.389333 0.907947-4.840107 1.338027-7.24992 1.338027z" fill="#FFFFFF" /><path d="M371.892907 600.630613c-24.07424 0-80.35328 14.257493-100.07552 14.848-19.69152-1.10592-76.004693-14.848-100.07552-14.848-57.033387 0-107.055787 40.645973-103.2704 123.927894 3.785387 83.27168 54.084267 209.906347 131.597653 224.515413 26.968747 5.74464 110.424747 10.489173 147.572053 0 66.665813-15.28832 123.733333-141.247147 127.522134-224.515413 3.781973-83.28192-46.237013-123.927893-103.2704-123.927894z" fill="#FF1515" /><path d="M282.023253 975.766187c-0.003413 0-0.003413 0 0 0-31.699627 0-67.785387-2.778453-85.988693-6.61504-90.13248-17.216853-143.878827-152.511147-148.022613-243.667627-2.051413-45.090133 10.15808-82.83136 35.300693-109.141333 22.30272-23.343787 53.7088-36.194987 88.429227-36.194987 15.59552 0 39.97696 4.498773 63.556266 8.850773 14.394027 2.655573 29.262507 5.39648 36.77184 5.96992 7.727787-0.416427 23.59296-3.3792 38.95296-6.253226 22.524587-4.212053 45.817173-8.567467 60.869974-8.567467 34.717013 0 66.123093 12.854613 88.425813 36.194987 25.142613 26.313387 37.348693 64.054613 35.300693 109.144746-3.843413 84.57216-62.764373 224.525653-142.895786 243.428694-16.397653 4.54656-40.18176 6.85056-70.700374 6.85056z m-110.2848-354.655574c-23.425707 0-44.315307 8.35584-58.815146 23.534934-17.227093 18.029227-25.524907 45.339307-23.995734 78.984533 3.433813 75.53024 49.916587 193.068373 114.93376 205.318827l0.47104 0.095573c13.120853 2.792107 44.803413 5.761707 77.687467 5.761707 26.299733 0 47.62624-1.931947 60.054187-5.444267 0.32768-0.088747 0.65536-0.177493 0.986453-0.252587 53.244587-12.209493 108.032-126.112427 111.643307-205.482666 1.529173-33.641813-6.76864-60.955307-23.995734-78.984534-14.49984-15.17568-35.386027-23.534933-58.811733-23.534933-11.257173 0-33.61792 4.181333-53.343573 7.871147-19.0976 3.570347-35.587413 6.652587-46.12096 6.966613a17.851733 17.851733 0 0 1-1.76128-0.023893c-9.75872-0.546133-25.074347-3.372373-42.8032-6.642347-19.729067-3.638613-44.27776-8.168107-56.128854-8.168107z" fill="#CC0202" /><path d="M143.551147 710.929067c-1.286827 22.213973 1.962667 44.858027 10.38336 67.106133" fill="#FF2C2C" /><path d="M153.93792 798.522027a20.486827 20.486827 0 0 1-19.155627-13.236907c-9.239893-24.405333-13.16864-49.824427-11.677013-75.543893a20.48 20.48 0 0 1 40.891733 2.372266c-1.153707 19.93728 1.90464 39.676587 9.09312 58.668374a20.48 20.48 0 0 1-11.902293 26.402133c-2.389333 0.907947-4.840107 1.338027-7.24992 1.338027z" fill="#FFFFFF" /></svg>