<?xml version="1.0" standalone="no"?><!DOCTYPE svg PUBLIC "-//W3C//DTD SVG 1.1//EN" "http://www.w3.org/Graphics/SVG/1.1/DTD/svg11.dtd"><svg class="icon" width="48px" height="48.00px" viewBox="0 0 1024 1024" version="1.1" xmlns="http://www.w3.org/2000/svg"><path d="M512 1024C229.69129 1024 0 794.322539 0 512S229.69129 0 512 0 1024 229.69129 1024 512 794.322539 1024 512 1024z m0-987.036435c-261.939338 0-475.022606 213.097097-475.022606 475.022607s213.097097 475.036435 475.022606 475.036434 475.036435-213.097097 475.036435-475.036434S773.939338 36.963565 512 36.963565z"  /><path d="M877.625388 529.963214c-40.614288-0.193599-81.242404 0-121.856691 0-39.383552 0-78.822417-0.248913-118.150655 0.138285-11.422336 0.110628-23.964781-1.382849-34.737178 3.332667-15.363457 6.775962-14.87946 23.245699-5.531397 35.594544 7.785442 10.205429 17.35476 19.097151 26.453909 28.210129 53.931128 54.014099 107.654828 108.166482 161.931668 161.793382 23.370155 23.107414 49.879379 25.776313 71.424173 9.679946a57.872248 57.872248 0 0 0 17.202647-16.884591 420.759595 420.759595 0 0 0 62.933477-146.48524c10.454342-48.136989-10.786226-75.185523-59.669953-75.379122zM577.782147 604.097772c-8.90555-8.877893-19.152465-17.852586-32.400162-11.823363a19.512005 19.512005 0 0 0-3.540094 2.074274c-4.701688 2.627414-8.131155 8.020527-9.845888 16.082539a106.825118 106.825118 0 0 0-2.01896 21.945821c-0.193599 40.614288-0.096799 81.242404-0.082971 121.870519 0 42.467306-0.442512 84.94844 0.138285 127.415747 0.580797 42.674733 28.016529 64.731182 68.769101 56.558541a423.151924 423.151924 0 0 0 142.820689-57.526536 118.662309 118.662309 0 0 0 9.915031-6.914247l0.802052-0.511654c31.708737-21.088454 36.175341-57.733964 9.27892-85.031412-60.845375-61.813369-122.437488-122.866172-183.836003-184.140229zM146.374612 494.036786c40.614288 0.193599 81.242404 0 121.842863 0 39.39738 0 78.822417 0.27657 118.150655-0.138285 13.012613-0.138285 25.969912 1.272221 37.641161-5.918596 13.441296-8.297097 11.367022-21.461823 2.558271-33.022444-7.771614-10.205429-17.340932-19.097151-26.453909-28.223957-53.931128-54.014099-107.654828-108.166482-161.931668-161.793382-23.370155-23.107414-49.893207-25.790142-71.424173-9.679946a57.30528 57.30528 0 0 0-17.202647 16.884591A420.607481 420.607481 0 0 0 86.704659 418.630007c-10.46817 48.178474 10.758569 75.199352 59.669953 75.406779zM446.217853 419.8884c6.762134 6.748305 14.658204 14.229521 24.891289 13.662552 11.214909-0.622282 18.682296-9.596975 20.894855-19.982174a108.484537 108.484537 0 0 0 2.005132-21.959649c0.193599-40.614288 0.082971-81.242404 0.082971-121.87052 0-42.467306 0.45634-84.94844-0.124457-127.401918-0.580797-42.688562-28.030358-64.731182-68.769101-56.558541a422.529642 422.529642 0 0 0-142.820689 57.540365 120.681269 120.681269 0 0 0-9.928859 6.914247l-0.802053 0.511654c-31.708737 21.074625-36.175341 57.720135-9.278919 85.031411 60.873032 61.799541 122.465145 122.852343 183.849831 184.112573zM537.485915 426.277164c8.781094 10.136286 20.286401 8.836408 31.50131 0.290398 10.205429-7.771614 19.097151-17.340932 28.210128-26.453909 54.014099-53.931128 108.166482-107.654828 161.793383-161.931668 23.107414-23.370155 25.776313-49.893207 9.679946-71.424173a57.747792 57.747792 0 0 0-16.884592-17.202647 420.579824 420.579824 0 0 0-146.443754-62.850506c-48.150817-10.454342-75.185523 10.758569-75.39295 59.683781-0.193599 40.614288 0 81.242404 0 121.842863 0 39.39738-0.248913 78.822417 0.138284 118.150655 0.138285 12.777529-2.4753 25.707171 5.227171 37.018879a31.459824 31.459824 0 0 0 2.171074 2.876327zM604.097772 446.217853c-8.877893 8.90555-17.852586 19.166293-11.823363 32.400162a19.608805 19.608805 0 0 0 2.074274 3.540094c2.627414 4.674031 8.020527 8.117326 16.082539 9.83206a108.37391 108.37391 0 0 0 21.945821 2.005131c40.614288 0.193599 81.242404 0.082971 121.870519 0.082971 42.467306 0 84.94844 0.45634 127.415747-0.124456 42.674733-0.580797 64.731182-28.030358 56.558541-68.769102a422.958325 422.958325 0 0 0-57.526536-142.834517 120.76424 120.76424 0 0 0-6.914247-9.928859c-0.165942-0.262741-0.331884-0.539311-0.511654-0.802053-21.088454-31.708737-57.733964-36.175341-85.031412-9.278919-61.813369 60.900689-122.866172 122.492802-184.140229 183.877488zM487.288481 597.100554c-8.297097-9.320405-22.04262-7.481215-32.289534 0.290398s-19.097151 17.35476-28.223957 26.45391c-54.014099 53.931128-108.166482 107.654828-161.793383 161.931667-23.107414 23.370155-25.790142 49.879379-9.679946 71.424173a57.443565 57.443565 0 0 0 16.884592 17.202647 420.80108 420.80108 0 0 0 146.457582 62.864335c48.164646 10.454342 75.199352-10.758569 75.392951-59.669953 0.193599-40.614288 0-81.242404 0-121.856691 0-39.383552 0.27657-78.822417-0.138285-118.150655-0.138285-11.57445 1.977475-24.89129-3.40181-35.622201a23.010614 23.010614 0 0 0-3.20821-4.86763zM419.8884 577.782147c8.891722-8.90555 17.852586-19.152465 11.851019-32.400162a20.231087 20.231087 0 0 0-2.088102-3.540094c-2.627414-4.68786-8.020527-8.131155-16.082539-9.845888a106.935746 106.935746 0 0 0-21.959649-2.01896c-40.614288-0.193599-81.242404-0.096799-121.87052-0.082971-42.467306 0-84.94844-0.442512-127.401918 0.138285-42.688562 0.594625-64.731182 28.030358-56.600027 68.741444a422.667927 422.667927 0 0 0 57.581851 142.848346 118.593167 118.593167 0 0 0 6.914247 9.915031l0.511654 0.802052c21.074625 31.708737 57.720135 36.175341 85.031411 9.27892 61.799541-60.845375 122.852343-122.437488 184.112573-183.836003z" fill="#F88475" /></svg>