<?xml version="1.0" standalone="no"?><!DOCTYPE svg PUBLIC "-//W3C//DTD SVG 1.1//EN" "http://www.w3.org/Graphics/SVG/1.1/DTD/svg11.dtd"><svg class="icon" width="48px" height="48.00px" viewBox="0 0 1024 1024" version="1.1" xmlns="http://www.w3.org/2000/svg"><path d="M868.245414 570.126229c-8.731874-34.894103-26.429361-75.61502-46.681297-109.307029 11.737107 0.634438 23.824825 1.168702 36.764026 1.485921l17.096441-1.25218v-19.801152l-0.851483-2.571144c-0.584351-1.753053-0.734613-3.856717-1.051832-6.07725a99.256192 99.256192 0 0 0-1.936706-11.052582 45.262159 45.262159 0 0 1-1.168702-9.316225l-0.333915-3.272365c-7.329431-36.647156-16.211566-65.430616-27.631454-89.856489-15.577128-38.049598-33.341399-65.413921-55.84726-86.066554-25.828314-23.991783-60.505372-33.808879-96.801918-27.714934-23.390736 2.754798-42.190142 10.718667-56.398219 23.490911l-97.169224-32.389742-0.818092-1.235485h-2.888363L204.539546 85.84951l-10.568405 31.68852 300.990853 100.324719-53.793683 89.355616c-17.029658-9.032397-34.894103-15.009473-53.326203-16.779221-58.31823-5.693248-117.437856 24.7097-161.69827 83.128104-42.941451 54.962386-71.441084 132.731156-80.239741 218.947972-8.464742 82.994538 4.541242 165.054114 36.814113 231.369605 34.443318 67.066799 86.734384 108.672591 145.086006 114.248969h13.356595c52.441328 0 103.129604-28.716678 146.722188-83.211582 34.493405-44.143544 59.436845-103.112908 72.576395-169.211355 16.962875 51.57315 44.04337 96.801917 78.102685 129.325225 33.708705 31.822086 69.020201 47.966869 104.966136 47.966869 10.050837 0 19.751064-1.936706 29.902075-4.057065 44.744591-13.623726 78.353121-52.040631 94.464514-107.520585 16.829309-50.487927 16.962875-114.883407 0.35061-181.299072zM646.091859 265.378834c8.98231-15.376779 24.559438-24.175436 48.417655-27.013712 18.866189-3.122104 46.213816-2.370795 69.45429 19.2168 18.832798 17.263398 33.959141 40.821091 47.916782 74.897102 10.434839 22.372296 18.448796 48.334176 25.193876 81.625487 0.100174 2.804885 0.484177 8.331176 1.803141 14.191382-62.642427-2.521057-109.624248-9.683531-143.499911-21.871423-29.518073-9.833793-50.67158-24.859961-62.525557-44.143545-16.645656-29.434595-5.459508-62.859472 7.078995-86.150033 2.738102-5.476204 5.459508-9.616748 5.643161-9.917271m-33.291311-9.249442a78.603558 78.603558 0 0 0-1.135311 2.086968l-9.383007 16.144783c-2.137055 3.673063-3.890108 7.496389-5.392725 11.436584l-29.968859-44.94494 45.879902 15.276605z m-89.77301-20.953157l69.470986 104.214827a98.838798 98.838798 0 0 0 12.12111 39.017951c1.702966 2.771493 3.589585 5.426116 5.526291 8.047348-23.557693 19.700977-42.490666 49.018701-53.943946 83.962891-6.260904-23.407432-14.241469-45.863206-24.359089-66.649405-16.946179-32.990788-38.249947-59.737368-62.241729-79.137822l53.426377-89.45579z m12.421633 396.590677c-8.164218 80.022696-34.226273 151.680824-73.227529 201.634487-36.914288 46.130338-78.586862 70.522818-120.526568 70.522818l-11.753803 0.083479c-45.195376-4.374285-87.836303-39.435345-116.820113-95.866956-29.434595-60.488677-41.305268-136.153783-33.458269-213.054375 8.164218-80.039392 34.209577-151.69752 73.494661-201.985098 34.443318-45.462508 78.152773-70.773254 121.428138-70.773254 3.539497 0 7.062299 0.166957 10.585101 0.500872 45.195376 4.374285 87.836303 39.435345 116.820113 95.866956 29.401203 60.488677 41.288572 136.153783 33.458269 213.071071z m301.091028 108.889635c-13.039375 44.928244-38.717428 75.297801-70.723167 85.131593-7.730129 1.552704-15.026169 3.005234-21.771249 3.005234-27.130582 0-54.728645-13.072767-81.976098-38.784211-35.211322-33.625226-63.310257-85.432116-77.134332-142.247729-13.239724-52.958897-13.874162-106.268404-1.636183-150.628993 9.09918-37.698987 27.163974-68.619503 50.254186-86.834559 14.174686 11.102669 31.287822 20.11837 51.389497 26.830059 25.544487 9.199354 56.63196 15.660607 95.149039 19.684281 23.641172 33.090962 46.51434 81.642183 56.264653 120.593351 15.092952 60.321719 15.226518 118.072294 0.183654 163.250974z" fill="#4169E1" /><path d="M302.593645 432.069131c-4.541242 2.053576-111.126865 52.007239-91.542759 215.892651l33.157746-3.956891c-16.578873-138.591362 68.536025-179.829847 72.175696-181.516117l-6.945429-15.193126-6.845254-15.226517zM656.109305 457.379877l-28.833548-16.846005c-3.021929 5.158985-73.093962 127.572172 5.96038 235.359888L660.149675 656.142696c-65.914793-89.88988-6.594818-194.355143-4.04037-198.762819z" fill="#4169E1" /></svg>