<?xml version="1.0" standalone="no"?><!DOCTYPE svg PUBLIC "-//W3C//DTD SVG 1.1//EN" "http://www.w3.org/Graphics/SVG/1.1/DTD/svg11.dtd"><svg class="icon" width="48px" height="47.54px" viewBox="0 0 1034 1024" version="1.1" xmlns="http://www.w3.org/2000/svg"><path d="M797.501859 182.72119q-4.758364-62.810409-39.97026-159.881041l76.133829 0q40.921933 80.892193 53.29368 159.881041l-89.457249 0zM325.472119 0q-29.501859 151.315985-93.263941 236.01487l0 787.98513-88.505576 0 0-685.204461q-64.713755 45.680297-142.750929 84.698885l0-58.052045q182.72119-115.152416 231.256506-365.442379l93.263941 0zM1033.516729 872.684015q0 59.003717-29.501859 86.126394t-95.167286 25.219331l-101.828996 0q-141.799257 3.806691-137.992565-115.152416l0-494.869888 88.505576 0 0 485.35316q-3.806691 70.423792 71.375465 66.6171l66.6171 0q71.375465 4.758364 71.375465-57.100372l0-44.728625 66.6171 0 0 48.535316zM1024.951673 294.066914l-405.412639 0q-8.565056 471.078067-315.95539 729.933086l0-79.94052q216.981413-248.386617 227.449814-649.992565l-227.449814 0 0-62.810409 227.449814 0 0-13.32342q3.806691-15.226766 3.806691-26.64684l0-191.286245 89.457249 0 0 231.256506 400.654275 0 0 62.810409z" fill="#1296db" /></svg>