<?xml version="1.0" standalone="no"?><!DOCTYPE svg PUBLIC "-//W3C//DTD SVG 1.1//EN" "http://www.w3.org/Graphics/SVG/1.1/DTD/svg11.dtd"><svg class="icon" width="48px" height="48.00px" viewBox="0 0 1024 1024" version="1.1" xmlns="http://www.w3.org/2000/svg"><path d="M250.12 579.58a310.03 307.9 0 1 0 620.06 0 310.03 307.9 0 1 0-620.06 0Z" fill="#4F8DFC" /><path d="M511.34 70.39c-247.42 0-448 199.2-448 444.92s200.58 444.91 448 444.91 448-199.2 448-444.91-200.58-444.92-448-444.92z m357.56 594.9a388.08 388.08 0 0 1-357.56 235.38A388 388 0 0 1 237 787.8c-0.49-0.48-1-1-1.47-1.48a390 390 0 0 1-41-48.35 382.91 382.91 0 0 1-40.76-72.68 379.59 379.59 0 0 1-30.1-133.17q-0.37-8.39-0.37-16.81A382.72 382.72 0 0 1 237 242.81a391 391 0 0 1 368.3-101.52 388.2 388.2 0 0 1 263.59 224A380.41 380.41 0 0 1 899 499.42q0.33 7.92 0.33 15.89a380.64 380.64 0 0 1-30.43 149.98z" fill="#181818" /><path d="M899 499.42a124.74 124.74 0 0 0-20.42 4.58 83.17 83.17 0 0 1-24.91 3.73c-49.26 0-100.75-40.75-130.56-87.69-19.17-30.16-69.13-31.45-149-23.49-42.77 4.27-75.6 4.55-107-7.24-31.66-11.87-58.83-35.26-88.07-75.82-23.74-32.94-20.85-59.64-14.25-76.25 10.09-25.38 35.63-45.38 78-61.13 32.43-12 71.34-20.51 105.13-27.21a487.54 487.54 0 0 1 57.36-7.62 388.33 388.33 0 0 1 135 62.81c-24.56-3-108-11.19-180.62 3.21-31.45 6.23-67.43 14-95.86 24.59-35.32 13.11-42.06 24.16-43.28 27.24-2.15 5.41 3.61 14.66 7.24 19.69 44.75 62.08 72.5 65.25 140.36 58.48 44.86-4.47 81.33-6.53 113.54-2 43.18 6 73.32 23.37 92.14 53 26.87 42.31 67.3 65 86.77 58.93a183.54 183.54 0 0 1 31.43-6.95 380.79 380.79 0 0 1 7 59.14zM581.65 706c-15.11 30.09-44.76 60.26-79.33 80.69-28.15 16.64-56.55 25.17-82.68 25.17a106.94 106.94 0 0 1-33.35-5.12c-15.89-5.19-30.25-11.27-44.14-17.15-37.5-15.9-59.88-24.36-83.41-13.43-8.54 4-16.27 7.34-23.25 10.17a390 390 0 0 1-41-48.35 355.15 355.15 0 0 0 38.79-15.75c22.55-10.48 46.1-13.15 72-8.17 20.78 4 40.89 12.51 60.33 20.75 12.72 5.39 25.87 11 39.31 15.35 38 12.4 102.55-30 123-70.71 3.26-6.5 2-8.72 1.16-10.2-6.25-11-33.08-22.28-50.66-23.73-31-2.57-75.19-16.89-110.1-70.55-18.54-28.51-41.1-45-101.54-45-35.41 0-54.29 19.51-70.95 36.72-8.56 8.85-15.95 16.5-25.58 21.44-10.36 5.3-23.21 7.18-39 5.67a379.7 379.7 0 0 1-7.65-61.67c8.23 2 15.62 3 19.51 2.63 2.31-1.94 6.37-6.13 9.46-9.33 19.91-20.57 53.23-55 114.18-55 73.53 0 119 21.59 151.91 72.23 17.4 26.76 39.18 41.41 64.72 43.52 19.67 1.63 75.61 14.49 97.93 53.87 11.49 20.11 11.58 43.54 0.34 65.95z" fill="#181818" /></svg>