<?xml version="1.0" standalone="no"?><!DOCTYPE svg PUBLIC "-//W3C//DTD SVG 1.1//EN" "http://www.w3.org/Graphics/SVG/1.1/DTD/svg11.dtd"><svg class="icon" width="48px" height="44.08px" viewBox="0 0 1115 1024" version="1.1" xmlns="http://www.w3.org/2000/svg"><path d="M305.110204 459.755102m-275.853061 0a275.853061 275.853061 0 1 0 551.706122 0 275.853061 275.853061 0 1 0-551.706122 0Z" fill="#4F8DFC" /><path d="M594.895238 580.963265H236.843537c-15.32517 0-27.863946-12.538776-27.863945-27.863945s12.538776-27.863946 27.863945-27.863946h358.051701c15.32517 0 27.863946 12.538776 27.863946 27.863946s-12.538776 27.863946-27.863946 27.863945zM532.201361 412.386395H274.459864c-15.32517 0-27.863946-12.538776-27.863946-27.863946s12.538776-27.863946 27.863946-27.863946h257.741497c15.32517 0 27.863946 12.538776 27.863945 27.863946s-12.538776 27.863946-27.863945 27.863946z" fill="#181818" /><path d="M834.52517 1024c-268.887075 0-443.036735-15.32517-519.662585-47.368707-125.387755-51.548299-222.911565-149.072109-274.459864-274.459864S-13.931973 440.25034 39.009524 314.862585C144.892517 55.727891 441.643537-68.266667 700.778231 39.009524c123.994558 51.548299 217.338776 149.072109 263.314286 275.853061 43.189116 119.814966 40.402721 252.168707-6.965986 374.770068L1114.557823 1019.820408l-47.368707 1.393197c-83.591837 1.393197-161.610884 2.786395-232.663946 2.786395zM508.517007 55.727891c-176.936054 0-346.906122 105.882993-417.959184 280.032653-45.97551 111.455782-45.97551 234.057143 0 345.512925s133.746939 197.834014 245.202721 243.809524c59.907483 25.077551 229.877551 51.548299 692.419048 40.402721l-130.960544-274.459864 4.179591-11.145578c47.368707-112.84898 50.155102-236.843537 11.145579-346.906122-40.402721-111.455782-123.994558-197.834014-232.663946-242.416327C622.759184 66.873469 565.638095 55.727891 508.517007 55.727891z" fill="#181818" /></svg>