<?xml version="1.0" standalone="no"?><!DOCTYPE svg PUBLIC "-//W3C//DTD SVG 1.1//EN" "http://www.w3.org/Graphics/SVG/1.1/DTD/svg11.dtd"><svg class="icon" width="48px" height="48.00px" viewBox="0 0 1024 1024" version="1.1" xmlns="http://www.w3.org/2000/svg"><path d="M868.09 432.8v250.1C820 792 711 868.07 584.11 868.07c-140.73 0-259.57-93.7-297.53-222.12A308.74 308.74 0 0 1 275.25 587q-1.35-14.41-1.36-29.19a310.31 310.31 0 0 1 594.2-125z" fill="#4F8DFC" /><path d="M349.22 465.15a119.6 119.6 0 1 1 119.6-119.6 119.74 119.74 0 0 1-119.6 119.6z m0-179.2a59.6 59.6 0 1 0 59.6 59.6 59.67 59.67 0 0 0-59.6-59.55zM868.09 396.14l-0.81 0.85s0.1 0.11 0.31 0.3a45.21 45.21 0 0 0-20.12-8.85c-1.24-0.22-2.5-0.38-3.76-0.49-15.61-1.41-32.52 5.06-50.36 19.29-62.8 50.09-89.58 131.47-113.22 203.27-22.9 69.58-42.68 129.67-92.13 151.43a86 86 0 0 1-35 7.4c-16 0-32.7-4.29-50-12.86-23.12-11.46-45.16-29-68.5-47.56-43.5-34.6-88.5-70.37-138.5-64.38q-4.74 0.57-9.39 1.41c-37.67 6.85-70.22 27.28-96.88 60.84a221.75 221.75 0 0 0-31.79 54.61V652c32.88-34.53 72.87-56.7 117.34-65q6.74-1.24 13.6-2.07c74.93-9 134.85 38.69 183 77 43.07 34.28 70.76 54.41 92 45.06 25-11 41.65-61.64 59.3-115.27 25-75.82 56-170.18 132.79-231.41 15.42-12.3 30.2-20.34 44-25.36 25.25-9.21 47-8.23 63-4.63q2.67 0.6 5.19 1.32z" fill="#181818" /><path d="M848 98.23H178c-44.09 0-80 36-80 80.28v669.42c0 44.27 35.88 80.29 80 80.29h670c44.09 0 80-36 80-80.29V178.51c0-44.27-35.88-80.28-80-80.28z m20.06 749.7A20.12 20.12 0 0 1 848 868.07H178a20.12 20.12 0 0 1-20.06-20.14V178.51A20.13 20.13 0 0 1 178 158.37h670a20.13 20.13 0 0 1 20.06 20.14z" fill="#181818" /></svg>