<?xml version="1.0" standalone="no"?><!DOCTYPE svg PUBLIC "-//W3C//DTD SVG 1.1//EN" "http://www.w3.org/Graphics/SVG/1.1/DTD/svg11.dtd"><svg class="icon" width="48px" height="48.00px" viewBox="0 0 1024 1024" version="1.1" xmlns="http://www.w3.org/2000/svg"><path d="M608.8 607.6m-287.37 0a287.37 287.37 0 1 0 574.74 0 287.37 287.37 0 1 0-574.74 0Z" fill="#4F8DFC" /><path d="M847.63 895.64H709.24A80.33 80.33 0 0 1 668 884.22L392.91 707.64a20 20 0 0 0-24.59 3.1l-132.95 161A80.3 80.3 0 0 1 98 815.3l-0.09-273.06a30.12 30.12 0 0 1 60.23 0l0.09 273.06a20.08 20.08 0 0 0 34.34 14.12l133-161A80.13 80.13 0 0 1 423.86 656l275.07 176.56a20 20 0 0 0 10.31 2.86h138.39a20.11 20.11 0 0 0 20.07-20l0.07-272.13a30.12 30.12 0 0 1 30.11-30h0.12a30.12 30.12 0 0 1 30 30.19l-0.08 272.13a80.43 80.43 0 0 1-80.29 80.03z" fill="#181818" /><path d="M516.25 97.45c-112 0.28-203.45 91.77-203.7 203.76 0 4.67 0.14 9.29 0.44 13.89a202.56 202.56 0 0 0 24.82 84.9l7.29 12.19L463.32 610l0.43 0.82a54.61 54.61 0 0 0 47.47 28.66h0.57a54.61 54.61 0 0 0 47.48-27.67l0.17-0.31 126.69-195.59 4.41-6.81a202.48 202.48 0 0 0 29.52-87.69c0.47-4.94 0.76-9.94 0.88-15v-4.78C721 188.89 629.09 97.17 516.25 97.45z m-4.17 465.48l-37-61.32L403 382.42a139.35 139.35 0 0 1-10.87-18c-13.86-27.43-18.92-60-11.47-94.07 10.29-47 57.74-94.45 104.75-104.75 90.59-19.86 170.9 48.91 170.9 136.07v3.29a137.81 137.81 0 0 1-22.1 71.7l-1.26 1.92-81.54 124.34z" fill="#181818" /></svg>