<?xml version="1.0" standalone="no"?><!DOCTYPE svg PUBLIC "-//W3C//DTD SVG 1.1//EN" "http://www.w3.org/Graphics/SVG/1.1/DTD/svg11.dtd"><svg class="icon" width="48px" height="48.00px" viewBox="0 0 1024 1024" version="1.1" xmlns="http://www.w3.org/2000/svg"><path d="M568.57 578.61m-287.48 0a287.48 287.48 0 1 0 574.96 0 287.48 287.48 0 1 0-574.96 0Z" fill="#4F8DFC" /><path d="M602.46 173l-2.48-0.36c-24.66-3.55-46.7 16-46.7 41.58v318.32a16.61 16.61 0 0 1-16.39 16.81H226.65c-24.75 0-43.79 22.32-40.61 47.48 0.13 1 0.25 2 0.38 2.94C211.05 784 364.11 925.94 549.24 925.94c202.3 0 366.29-169.44 366.29-378.45 0-190.34-135.99-347.85-313.07-374.49z m170.88 606.58a315.62 315.62 0 0 1-100.81 70.24 308.58 308.58 0 0 1-246.58 0 315.73 315.73 0 0 1-100.81-70.24 327.89 327.89 0 0 1-68.05-104.29 333.61 333.61 0 0 1-16.81-53.45c-2.53-11.29 5.77-22.07 17.06-22.07h279.55c36.21 0 65.57-30.1 65.57-67.23V246.09c0-11.65 10.65-20.22 21.69-17.46a307.5 307.5 0 0 1 48.38 16.53 315.46 315.46 0 0 1 100.81 70.24 327.74 327.74 0 0 1 68.06 104.29 339.79 339.79 0 0 1 0 255.6 327.74 327.74 0 0 1-68.06 104.29z" fill="#181818" /><path d="M479.36 95.66h-4C273 95.63 109 265.07 109 474.08v1.86c0 2.5 0 5 0.1 7.48 0.55 23.86 19.49 42.94 42.77 42.94h309.28c37.22 0 67.39-30.93 67.39-69.08V139.66c0-23.75-18.44-43.09-41.58-43.84q-3.79-0.12-7.6-0.16z m0 361.62a18.44 18.44 0 0 1-18.21 18.66H160a1.83 1.83 0 0 1-1.81-1.86 335.54 335.54 0 0 1 24.95-127.79A327.93 327.93 0 0 1 251.22 242 316 316 0 0 1 352 171.75a306.15 306.15 0 0 1 123.3-25.7h2.21a1.86 1.86 0 0 1 1.82 1.89z" fill="#181818" /></svg>