<?xml version="1.0" standalone="no"?><!DOCTYPE svg PUBLIC "-//W3C//DTD SVG 1.1//EN" "http://www.w3.org/Graphics/SVG/1.1/DTD/svg11.dtd"><svg class="icon" width="48px" height="48.00px" viewBox="0 0 1024 1024" version="1.1" xmlns="http://www.w3.org/2000/svg"><path d="M509.322876 646.52548999m-372.12026201 0a372.120261 372.120261 0 1 0 744.24052301 0 372.120261 372.120261 0 1 0-744.24052299 0Z" fill="#4F8DFC" /><path d="M512 1024c-131.179085 0-262.35816999-49.526797-361.411765-149.91895401-199.445752-199.445752-199.445752-523.37777801 0-722.82352999C246.96470599 54.88104599 375.466667 1.33856201 512 1.33856201v53.542484c-121.80914999 0-236.92548999 48.188235-323.93202599 133.85620899C10.039216 366.766013 10.039216 657.233987 188.06797401 835.262745c178.02875801 178.02875801 468.496732 178.02875801 646.52548999 0 178.02875801-178.02875801 178.02875801-468.496732 0-646.52549l37.479739-37.479739c199.445752 199.445752 199.445752 523.37777801 0 722.82353001-99.053595 99.053595-228.89411799 149.91895401-360.073203 149.91895399z" fill="#181818" /><path d="M534.755556 615.73856201c-5.354248 0-12.047059-1.33856201-16.06274601-5.35424802L279.090196 418.969935c-12.047059-9.369935-13.385621-25.43268-4.01568601-37.479739 9.369935-12.047059 25.43268-13.385621 37.47973801-4.01568599L509.322876 531.40914999V53.542484h-26.77124199V0h52.20392199c14.724183 0 26.77124199 12.047059 26.771241 26.77124199v497.94509801l176.690196-175.35163401 37.479739 37.47973801-222.201307 220.86274599c-5.354248 5.354248-12.047059 8.031373-18.739869 8.031372z" fill="#181818" /></svg>