<?xml version="1.0" standalone="no"?><!DOCTYPE svg PUBLIC "-//W3C//DTD SVG 1.1//EN" "http://www.w3.org/Graphics/SVG/1.1/DTD/svg11.dtd"><svg class="icon" width="48px" height="48.00px" viewBox="0 0 1024 1024" version="1.1" xmlns="http://www.w3.org/2000/svg"><path d="M0 509.8a512 509.8 0 1 0 1024 0 512 509.8 0 1 0-1024 0Z" fill="#EEAAF2" /><path d="M927.1 808.4L521.4 548.9 446 697.5 407.7 791l311.7 185.1c81.4-39.1 157.1-94 207.7-167.7z" fill="#549BD6" /><path d="M1023.7 491.8L586 215.9l-96.4 233.2 473.3 302.6c41.4-73.6 61.2-151.6 61.2-241.9-0.1-6-0.2-12-0.4-18z" fill="#549BD6" /><path d="M338.9 559v17c0.1 1.1 0.3 2.2 0.4 3.3 3.8 32.7 4.2 65.8-0.4 98.4v43.4H685V559H338.9z" fill="#FFF2EE" /><path d="M338.9 559a173.1 76.8 0 1 0 346.2 0 173.1 76.8 0 1 0-346.2 0Z" fill="#FFF2EE" /><path d="M338.9 722.1a173.1 86.3 0 1 0 346.2 0 173.1 86.3 0 1 0-346.2 0Z" fill="#FFF2EE" /><path d="M356.9 576.4a155.1 68.8 0 1 0 310.2 0 155.1 68.8 0 1 0-310.2 0Z" fill="#E7A4ED" /><path d="M612.2 296.4l-7.5-54.8c-2.3-16.7-20.2-29.7-40-29.8l-101.5-0.5c-19.8-0.1-37.9 12.8-40.3 29.4 0 0-4 27.3-8.1 54.7l197.4 1z" fill="#FFFFFF" /><path d="M684.9 687.6c-18.2 39.8-83.8 69.4-161.9 69.7v-0.1h-19.4c-0.1-1.9-0.1-1.9 0 0H495c-75.4-1.7-138.1-30.9-155.9-69.6 0.2 5.2 0.4 10.3 0.3 15.4 8.9 12.4 22.1 23.7 39.4 33.3 31.3 17.5 72.3 27.5 116.2 28.5v0.1h28c46.1-0.2 89.5-10.3 122.2-28.6 17.3-9.6 30.5-21 39.4-33.3-0.1-5.1 0.1-10.2 0.3-15.4zM513.1 445.2c-35.4-0.2-62.3-10.5-79.8-30.4-15-17.2-22.2-41.6-19.2-65.3l7.7-60.4 183.9 1 7.2 60.5c2 16.8-2.5 42.3-21.2 63.4-12.7 14.2-36.4 31.2-77.8 31.2h-0.8z" fill="#EEAAF2" /><path d="M426.9 294.8l173.8 1 6.6 55.5c1.9 15.6-2.4 39.3-19.8 58.9-17 19.2-42.4 29.3-73.5 29.3h-0.9c-18-0.1-33.8-3-47-8.5-11.4-4.7-21-11.5-28.5-20-14-16-20.7-38.7-17.8-60.8l7.1-55.4m-10.1-11.5c-3.3 25.7-6.5 50.5-8.4 65.4-5.2 40.4 16.9 101.6 104.6 102.2h0.9c79.5 0 109.4-60.6 104.6-101l-7.8-65.5-193.9-1.1z" fill="#FFFFFF" /><path d="M606.7 369.2c-6.9 4-15.2 3-22.6 1.8-6.9-1.1-14-3.4-21-2.7-7.9 0.8-14.3 5.6-20.3 10.8-5.8 5-11.6 10.4-18.9 12.5-7.9 2.3-16.2 0.3-23.3-3.7-6.8-3.9-12.5-9.7-19-14-7.1-4.8-14.5-6-22.6-3.1-8.8 3.2-14.7 12.1-23.6 15.7-6.9 2.7-14.6 2.5-22.2 2 8.5 30 36.6 59.9 98.3 60.3 74 0.4 104.5-50.6 101.9-86.3-1.5 2.6-3.8 5-6.7 6.7z" fill="#9AE2CF" /><path d="M426.9 294.8l173.8 1 6.6 55.5c1.9 15.6-2.4 39.3-19.8 58.9-17 19.2-42.4 29.3-73.5 29.3h-0.9c-18-0.1-33.8-3-47-8.5-11.4-4.7-21-11.5-28.5-20-14-16-20.7-38.7-17.8-60.8l7.1-55.4m-10.1-11.5c-3.3 25.7-6.5 50.5-8.4 65.4-5.2 40.4 16.9 101.6 104.6 102.2h0.9c79.5 0 109.4-60.6 104.6-101l-7.8-65.5-193.9-1.1z" fill="#FFFFFF" /></svg>