<?xml version="1.0" standalone="no"?><!DOCTYPE svg PUBLIC "-//W3C//DTD SVG 1.1//EN" "http://www.w3.org/Graphics/SVG/1.1/DTD/svg11.dtd"><svg class="icon" width="48px" height="48.00px" viewBox="0 0 1024 1024" version="1.1" xmlns="http://www.w3.org/2000/svg"><path d="M169.6 426.3c-13-22.4 9.8-65.9 9.8-65.9s276.5-164.5 275.2 11.5c-1.4 176-285 54.4-285 54.4z" fill="#EDB850" /><path d="M345.6 475.3c-24 0-51.5-3.6-82.3-10.7-52.6-12.2-95-30.2-96.8-31l-2.4-1-1.3-2.3c-14.8-25.4 7.1-68.7 9.6-73.6l1.1-2 1.9-1.2c7.1-4.2 175.4-103.3 251.2-59.9 24.3 13.9 36.4 40.3 36.1 78.3-0.3 38.8-13.8 67.2-40 84.4-19.4 12.7-45.2 19-77.1 19z m-170.2-55.2c21.8 8.9 171.1 67 238.4 23 21.8-14.3 32.5-37.5 32.8-71.1 0.2-32.3-8.9-53.3-28.1-64.3-27.5-15.8-76.6-10.7-141.9 14.8-44.3 17.3-82.2 38.6-91.2 43.8-5.8 11.7-16.1 38.8-10 53.8z"  /><path d="M741.7 313.7c30.2 50.3 42.7 103.1 40.1 154.9-293.6 52.1-543.7 327.6-543.7 327.6-44.5-21.9-83.2-56.6-112.3-105.1-40.3-67.2-69.7-152.8-47.1-231 10.7-37.2 331.8-64.4 336-81.8 5.9-24.3-317 1.2-302.2-42.1 21.7-63.4 71.7-114.3 131.1-150.7C413.7 81.3 647 155.9 741.7 313.7z" fill="#9E4A26" /><path d="M781.8 468.6C776.3 579.3 702.3 686 586.5 757c-117.8 72.2-248 88.5-348.4 39.2 0 0.1 250.1-275.5 543.7-327.6z" fill="#5E362A" /><path d="M365.5 832.5c-46.8 0-91.3-9.6-130.9-29-47.7-23.4-86.6-59.8-115.7-108.2-22.9-38.2-39.1-76.4-48-113.7-10.7-44.5-10.7-86.2 0.1-123.7 2.9-9.9 14.6-21.2 80.9-36 41.6-9.3 94.4-17.8 141-25.3 29.4-4.7 57.1-9.2 78.2-13.2 11-2.1 18.8-3.9 24.3-5.3-5.6-0.8-13.5-1.7-24.8-2.4-21.2-1.3-48.4-1.9-77.2-2.6-40-0.9-81.3-1.8-115.3-4.8-42.7-3.7-64-9.8-71.3-20.3-3-4.3-3.7-9.4-2-14.5 26-75.8 87.5-126.1 134.5-154.9 78.8-48.3 175.3-61.8 271.9-38.1 48.7 11.9 95.8 33.3 136.4 61.9 41.5 29.3 76.4 66.3 100.9 107.1 30.1 50.2 44 103.8 41.2 159.4-2.7 55.5-22.7 111.9-57.6 163.2-34.4 50.5-83.3 96-141.5 131.6-74 45.6-152.3 68.8-225.1 68.8z m-123.9-43.4c96.4 47.3 223.8 32.8 340.7-38.9C697 680 768.6 574.6 773.8 468.2c2.6-52.4-10.5-103-38.9-150.4-47.4-79-130.2-137.9-227.3-161.7-92.4-22.6-184.7-9.8-259.7 36.2C203 219.8 144.5 267.5 120 338.8v0.1c0.4 0.6 3 3.7 15.2 6.9 9.8 2.6 23.9 4.8 41.7 6.4 33.9 3.1 76.1 4.1 116.9 5 87.4 1.9 118.7 3.5 126.7 13.9 2.1 2.7 2.8 5.9 2 9.1-2.6 10.8-18.1 14.7-127.1 32.2-46 7.4-98.1 15.8-139.1 24.9-64.3 14.3-69.6 24-69.9 25.1-25 86.7 18.3 178 46.3 224.7 27.3 45.6 64 80 108.9 102z"  /><path d="M244 801.7l-11.8-10.8c0.6-0.7 64.2-70.3 162.8-145.3 58-44.1 116.6-81.4 174.3-110.9 72.3-37 143.3-61.9 211.1-73.9l2.8 15.8c-150.1 26.6-288.7 113.6-378.5 181.8C307.2 732.5 244.6 801 244 801.7z"  /><path d="M579.7 234.9c10.4 6.5 21 13.8 31.6 21.9" fill="#FFFFFF" /><path d="M611.4 264.9c-1.7 0-3.4-0.5-4.9-1.7-10.2-7.8-20.6-15.1-31-21.5-3.8-2.3-4.9-7.3-2.6-11 2.3-3.8 7.3-4.9 11-2.6 10.8 6.7 21.7 14.2 32.3 22.4 3.5 2.7 4.2 7.7 1.5 11.2-1.6 2.1-3.9 3.2-6.3 3.2zM226 291.9c-1.9 0-3.8-0.7-5.4-2.1-3.3-3-3.5-8-0.6-11.3 1.4-1.5 34.9-38.2 90.9-65.9 33-16.3 67-26.1 101-29 42.6-3.7 85.2 3.4 126.7 21 4.1 1.7 6 6.4 4.2 10.5-1.7 4.1-6.4 6-10.5 4.2-70.8-30.1-142.8-27.6-213.9 7.4-53.5 26.3-86.4 62.2-86.7 62.5-1.3 1.8-3.5 2.7-5.7 2.7zM196.8 706.7c-1.8 0-3.7-0.6-5.2-1.9-42.3-36.2-60.6-86.4-68.6-122.3-1-4.3 1.8-8.6 6.1-9.5 4.3-1 8.6 1.8 9.5 6.1 7.4 33.4 24.5 80.3 63.4 113.6 3.4 2.9 3.8 7.9 0.9 11.3-1.6 1.7-3.8 2.7-6.1 2.7z"  /><path d="M124.5 532.3s0 8.3 1.7 21.7" fill="#FFFFFF" /><path d="M126.2 562c-4 0-7.4-3-7.9-7-1.7-13.7-1.7-22.3-1.7-22.7 0-4.4 3.6-8 8-8s8 3.6 8 8c0 0.1 0.1 8.1 1.6 20.8 0.5 4.4-2.6 8.4-7 8.9h-1z"  /><path d="M744 528.1c116.3 0.4 211.4 103.1 211.1 200.1-0.1 36.8-13.9 67.4-37.3 91.3-181.8-67-350.9-4.5-350.9-4.5-20.9-23.5-33-53.1-32.9-88.1 0.4-97 93.8-199.2 210-198.8z" fill="#9E4A26" /><path d="M917.8 819.4l-350.9-4.5s169.1-62.4 350.9 4.5zM566.9 814.9l350.9 4.5c-38.4 39.1-102.7 60.1-174.9 59.8-74.2-0.2-139-22.7-176-64.3z" fill="#5E362A" /><path d="M744.1 887.3h-1.2c-77.9-0.2-144.2-24.7-182-67-23.3-26.1-35-57.6-34.9-93.4 0.2-49.8 23.4-101.4 63.9-141.5 42.4-42 96.9-65.2 153.5-65.2h0.7c29.2 0.1 57.9 6.3 85.3 18.5 25.7 11.4 49.1 27.4 69.6 47.7 41 40.5 64.4 92.3 64.2 142-0.1 37.1-13.8 70.5-39.6 96.8-38.9 39.4-104.2 62.1-179.5 62.1z m-171.2-77.7c34.7 39 96.7 61.4 170.1 61.7h1.2c71 0 132.1-20.9 168-57.4 23.2-23.6 35-52.4 35.1-85.7 0.1-45.5-21.5-93-59.5-130.5-39.9-39.5-91-61.3-143.7-61.5h-0.6c-52.3 0-102.8 21.5-142.2 60.5-37.4 37.1-59 84.6-59.1 130.2-0.2 31.8 10.1 59.6 30.7 82.7z"  /><path d="M915.1 826.9c-92.4-34.1-181.5-33.4-240-26.9-63.3 7.1-105 22.3-105.4 22.4l-5.5-15c1.8-0.7 43.9-16 109.2-23.3 60.2-6.7 151.9-7.3 247.3 27.8l-5.6 15z"  /><path d="M592.4 678.3c-1.2 0-2.3-0.3-3.5-0.8-4-1.9-5.7-6.7-3.7-10.7 15.7-32.6 46.3-75.2 103.3-92.2 4.2-1.3 8.7 1.1 10 5.4 1.3 4.2-1.1 8.7-5.4 10-51.4 15.4-79.2 54.1-93.5 83.8-1.3 2.8-4.2 4.5-7.2 4.5z"  /><path d="M574.8 724.3s1.6-11.3 7-27.8" fill="#FFFFFF" /><path d="M574.8 732.3c-0.4 0-0.8 0-1.1-0.1-4.4-0.6-7.4-4.7-6.8-9 0.1-0.5 1.8-12.2 7.4-29.2 1.4-4.2 5.9-6.5 10.1-5.1 4.2 1.4 6.5 5.9 5.1 10.1-5.1 15.5-6.7 26.3-6.7 26.4-0.6 4-4 6.9-8 6.9z"  /></svg>