<?xml version="1.0" standalone="no"?><!DOCTYPE svg PUBLIC "-//W3C//DTD SVG 1.1//EN" "http://www.w3.org/Graphics/SVG/1.1/DTD/svg11.dtd"><svg class="icon" width="48px" height="36.93px" viewBox="0 0 1331 1024" version="1.1" xmlns="http://www.w3.org/2000/svg"><path d="M0.634056 795.581424a662.588235 228.101548 0 1 0 1325.17647 0 662.588235 228.101548 0 1 0-1325.17647 0Z" fill="#51150B" /><path d="M526.583282 492.027245m-491.076161 0a491.076161 491.076161 0 1 0 982.152322 0 491.076161 491.076161 0 1 0-982.152322 0Z" fill="#51150B" /><path d="M1002.442105 434.169659c0.158514-5.072446 0.158514-10.144892 0.158514-15.217337 0-21.082353-1.268111-41.689164-3.804334-62.137461C940.14613 151.222291 750.880495 0.79257 526.424768 0.79257 255.682972 0.79257 33.763467 224.1387 35.348607 494.880495c0.475542 70.380186 15.692879 137.273065 42.640247 197.666873 0.317028 0.317028 0.475542 0.79257 0.79257 1.109598 45.017957 68.95356 114.922601 118.092879 194.972136 137.590093 44.700929 10.937461 91.145511 16.643963 138.699691 16.643963 257.902167 0.317028 480.931269-168.024768 589.988854-413.721363z" fill="#AF6A3C" /><path d="M434.328173 775.291641c244.904025-23.143034 443.204954-163.110836 545.44644-329.550465 16.168421-26.313313 22.98452-57.540557 19.180186-88.29226v-0.475541C940.463158 151.856347 751.990093 1.585139 528.326935 0.951084 257.109598 0 37.250774 217.798142 35.665635 489.173994c0 4.913932 0 9.66935 0.158514 14.583282 2.694737 113.337461 85.280495 208.287307 190.69226 249.817956 58.808669 23.301548 154.709598 26.630341 207.811764 21.716409z" fill="#BA784A" /><path d="M858.669969 650.382663c12.839628-13.473684 25.362229-27.42291 37.250774-42.006192-71.014241-274.387616-320.198142-477.126935-616.777709-477.126935-31.544272 0-62.454489 2.219195-92.73065 6.657585-3.011765 3.011765-6.182043 6.023529-9.193808 9.035294l-0.158514 0.158514c-3.011765 3.011765-5.865015 6.023529-8.87678 9.193808l-0.158514 0.158514c-5.865015 6.340557-11.571517 12.681115-17.119505 19.338699 29.325077-4.121362 59.442724-6.340557 89.8774-6.340557 298.006192 0 548.141176 204.641486 617.887306 480.93127z" fill="#5B1F1A" /><path d="M909.394427 710.934985c-46.286068-300.859443-302.920124-532.289783-615.034055-539.264397 309.102167 25.679257 555.749845 272.168421 581.270588 581.429102 12.047059-13.31517 23.301548-27.42291 33.763467-42.164705z" fill="#51150B" /><path d="M600.701093 783.397168a366.801238 387.40805 63.637 1 0 694.234223-344.06225 366.801238 387.40805 63.637 1 0-694.234223 344.06225Z" fill="#FFF1B6" /><path d="M784.960991 282.630341c191.643344-94.949845 420.06192-24.886687 509.939319 156.611764 39.628483 80.049536 45.810526 168.341796 23.935603 250.134985-34.873065 85.439009-101.448916 160.099071-192.752941 205.275542-191.643344 94.949845-420.06192 24.886687-509.939319-156.611765-39.628483-80.049536-45.810526-168.341796-23.935603-250.134985 34.714551-85.280495 101.290402-159.940557 192.752941-205.275541z" fill="#FFF4CF" /><path d="M590.62291 493.612384c0.475542-1.902167 0.951084-3.64582 1.426626-5.547988 34.873065-85.439009 101.448916-160.099071 192.752941-205.275542 191.643344-94.949845 420.06192-24.886687 509.939319 156.611765 16.802477 33.763467 27.42291 68.95356 32.65387 104.619195-1.902167 20.131269-5.547988 39.945511-10.46192 59.601239C1280.79257 695.242105 1210.887926 774.974613 1114.352941 822.84582c-125.543034 62.295975-266.778947 55.955418-379.165325-4.755418-116.190712-63.088545-176.743034-196.398762-144.564706-324.478018z" fill="#FFFAE9" /><path d="M749.929412 488.856966c16.168421-0.951084 39.152941-67.685449 81.159133-94.31579 42.006192-26.630341 106.83839-29.959133 100.973375-63.881114-2.536223-14.266254-78.939938-8.559752-129.188855 35.190093-80.842105 70.697214-76.879257 124.433437-52.943653 123.006811z" fill="#FFFFFF" /><path d="M235.868731 212.091641c10.937461 7.608669-24.728173 39.786997-55.796904 95.108359-30.434675 54.370279-56.272446 102.558514-66.89288 95.108359-10.620433-7.450155-8.242724-31.068731 21.716409-85.121981 30.593189-54.687307 90.035913-112.703406 100.973375-105.094737z" fill="#FFFFFF" /></svg>