<?xml version="1.0" standalone="no"?><!DOCTYPE svg PUBLIC "-//W3C//DTD SVG 1.1//EN" "http://www.w3.org/Graphics/SVG/1.1/DTD/svg11.dtd"><svg class="icon" width="48px" height="48.00px" viewBox="0 0 1024 1024" version="1.1" xmlns="http://www.w3.org/2000/svg"><path d="M885.607386 94.044989h-299.853587a86.95754 86.95754 0 0 0 1.226673-13.629709 80.41528 80.41528 0 1 0-160.83056 0 86.95754 86.95754 0 0 0 1.226674 13.629709H138.154171A74.145614 74.145614 0 0 0 64.144854 168.190603v781.663783a74.009317 74.009317 0 0 0 74.009317 74.145614h747.453215a74.009317 74.009317 0 0 0 74.009317-74.145614V168.190603a74.145614 74.145614 0 0 0-74.009317-74.145614zM506.156301 34.61946a45.932118 45.932118 0 1 1-45.932118 46.068414 46.068415 46.068415 0 0 1 45.932118-46.068414zM853.850165 857.581259a56.56329 56.56329 0 0 1-56.56329 56.56329H226.474683a56.56329 56.56329 0 0 1-56.563291-56.56329V650.137096h252.831093l7.360043-25.896446 46.886197 244.108079 95.407959-250.922934 11.448956 37.072807h270.004525z m0-260.736324h-235.793957l-42.660988-131.799281-83.004925 219.847198-53.29216-276.955676-52.065486 184.409956H169.911392V260.46373a56.56329 56.56329 0 0 1 56.563291-56.563291h570.812192a56.56329 56.56329 0 0 1 56.56329 56.563291z" fill="#55398E" /></svg>