<?xml version="1.0" standalone="no"?><!DOCTYPE svg PUBLIC "-//W3C//DTD SVG 1.1//EN" "http://www.w3.org/Graphics/SVG/1.1/DTD/svg11.dtd"><svg class="icon" width="48px" height="48.00px" viewBox="0 0 1024 1024" version="1.1" xmlns="http://www.w3.org/2000/svg"><path d="M448 320H192c-106 0-192 86-192 192v448c0 35.25 28.75 64 64 64h512c35.25 0 64-28.75 64-64V512c0-106-86-192-192-192z m-128 512c-88.25 0-160-71.75-160-160s71.75-160 160-160 160 71.75 160 160-71.75 160-160 160z m128-768c0-35.25-28.75-64-64-64h-128c-35.25 0-64 28.75-64 64v192h256V64z m315.562 39.156C766 101.938 768 98.718 768 96c0-2.75-2-5.938-4.438-7.156L704 64 679.124 4.438C677.938 2 674.75 0 672 0s-5.938 2-7.188 4.438L640 64l-59.562 24.844C578 90.062 576 93.25 576 96c0 2.718 2 5.938 4.438 7.156L640 128l24.812 59.562C666.062 190 669.25 192 672 192s5.938-2 7.124-4.438L704 128l59.562-24.844zM896 128l24.812 59.562C922.062 190 925.25 192 928 192s5.938-2 7.124-4.438L960 128l59.562-24.844C1022 101.938 1024 98.718 1024 96c0-2.75-2-5.938-4.438-7.156L960 64 935.124 4.438C933.938 2 930.75 0 928 0s-5.938 2-7.188 4.438L896 64l-59.562 24.844C834 90.062 832 93.25 832 96c0 2.718 2 5.938 4.438 7.156L896 128z m64 320l-24.876-59.562C933.938 386 930.75 384 928 384s-5.938 2-7.188 4.438L896 448l-59.562 24.844C834 474.062 832 477.25 832 480c0 2.718 2 5.938 4.438 7.156L896 512l24.812 59.562C922.062 574 925.25 576 928 576s5.938-2 7.124-4.438L960 512l59.562-24.844C1022 485.938 1024 482.718 1024 480c0-2.75-2-5.938-4.438-7.156L960 448z m-68.438-152.844C894 293.938 896 290.718 896 288c0-2.75-2-5.938-4.438-7.156L832 256l-24.876-59.562C805.938 194 802.75 192 800 192s-5.938 2-7.188 4.438L768 256l-59.562 24.844C706 282.062 704 285.25 704 288c0 2.718 2 5.938 4.438 7.156L768 320l24.812 59.562C794.062 382 797.25 384 800 384s5.938-2 7.124-4.438L832 320l59.562-24.844z" fill="#ffffff" /></svg>