<?xml version="1.0" standalone="no"?><!DOCTYPE svg PUBLIC "-//W3C//DTD SVG 1.1//EN" "http://www.w3.org/Graphics/SVG/1.1/DTD/svg11.dtd"><svg class="icon" width="48px" height="48.00px" viewBox="0 0 1024 1024" version="1.1" xmlns="http://www.w3.org/2000/svg"><path d="M512 927.744c-11.264 0-20.48-9.216-20.48-20.48v-51.2c0-11.264 9.216-20.48 20.48-20.48s20.48 9.216 20.48 20.48v51.2c0 11.264-9.216 20.48-20.48 20.48zM716.8 861.696c-7.168 0-13.824-3.584-17.92-10.24l-25.6-44.544c-5.632-9.728-2.048-22.528 7.68-28.16 9.728-5.632 22.528-2.048 28.16 7.68l25.6 44.544c5.632 9.728 2.048 22.528-7.68 28.16-3.072 2.048-6.656 2.56-10.24 2.56zM294.4 861.696c-3.584 0-7.168-1.024-10.24-2.56-9.728-5.632-13.312-18.432-7.68-28.16l25.6-44.544c5.632-9.728 17.92-13.312 28.16-7.68 9.728 5.632 13.312 18.432 7.68 28.16l-25.6 44.544c-4.096 6.656-10.752 10.24-17.92 10.24zM512 167.936c-11.264 0-20.48-9.216-20.48-20.48v-40.96c0-11.264 9.216-20.48 20.48-20.48s20.48 9.216 20.48 20.48v40.96c0 11.264-9.216 20.48-20.48 20.48z" fill="#181818" /><path d="M900.608 546.816H123.392c10.752-205.312 180.736-368.64 388.608-368.64 207.872 0 377.856 163.328 388.608 368.64z" fill="#4F8DFC" /><path d="M512 219.136c89.6 0 174.592 34.304 240.128 96.256 54.272 51.712 90.112 118.272 102.912 190.464H169.472c12.8-72.192 48.64-138.752 102.912-190.464C337.408 252.928 422.4 219.136 512 219.136m0-40.96c-207.872 0-377.856 163.328-388.608 368.64h777.216c-10.752-205.312-180.736-368.64-388.608-368.64z" fill="#181818" /><path d="M512 792.576c-124.416 0-225.28-100.864-225.28-225.28 0-11.264 9.216-20.48 20.48-20.48h409.6c11.264 0 20.48 9.216 20.48 20.48 0 123.904-100.864 225.28-225.28 225.28z m-183.296-204.8c10.24 92.16 88.576 163.84 183.296 163.84s173.056-71.68 183.296-163.84H328.704z" fill="#181818" /><path d="M512 137.216c-237.056 0-430.08 193.024-430.08 430.08 0 11.264 9.216 20.48 20.48 20.48h819.2c11.264 0 20.48-9.216 20.48-20.48 0-237.056-193.024-430.08-430.08-430.08z m-388.608 409.6c10.752-205.312 180.736-368.64 388.608-368.64 207.872 0 377.856 163.328 388.608 368.64H123.392z" fill="#181818" /><path d="M323.584 393.728c-5.632 0-10.752-2.048-14.848-6.144-7.68-8.192-7.68-20.992 0.512-29.184 16.384-15.872 35.328-29.696 54.784-40.96 9.728-5.632 22.528-2.048 28.16 7.68 5.632 9.728 2.048 22.528-7.68 28.16-16.896 9.728-32.768 21.504-47.104 35.328-3.584 3.584-8.704 5.12-13.824 5.12z" fill="#181818" /></svg>