<?xml version="1.0" standalone="no"?><!DOCTYPE svg PUBLIC "-//W3C//DTD SVG 1.1//EN" "http://www.w3.org/Graphics/SVG/1.1/DTD/svg11.dtd"><svg class="icon" width="48px" height="48.00px" viewBox="0 0 1024 1024" version="1.1" xmlns="http://www.w3.org/2000/svg"><path d="M776.192 131.072c56.32 0 102.4 46.08 102.4 102.4v571.392c0 56.32-46.08 102.4-102.4 102.4h-260.096c-56.32 0-102.4-46.08-102.4-102.4V233.472c0-56.32 46.08-102.4 102.4-102.4h260.096m0-40.96h-260.096c-78.848 0-143.36 64.512-143.36 143.36v571.392c0 78.848 64.512 143.36 143.36 143.36h260.096c78.848 0 143.36-64.512 143.36-143.36V233.472c0-78.848-64-143.36-143.36-143.36z" fill="#181818" /><path d="M422.4 153.088c41.472 0 80.384 25.6 95.744 66.56l178.688 476.16c19.968 52.736-7.168 112.128-59.904 132.096l-200.704 75.264c-11.776 4.608-24.064 6.656-35.84 6.656-41.472 0-80.384-25.6-95.744-66.56l-178.688-476.16c-19.968-53.76 7.168-112.64 59.904-132.608l200.704-75.264c11.776-4.096 24.064-6.144 35.84-6.144m0-40.96c-17.408 0-34.304 3.072-50.176 9.216L171.52 196.096C97.28 223.744 59.904 306.688 87.552 380.928l178.688 476.16c20.992 55.808 74.752 93.184 134.144 93.184 17.408 0 34.304-3.072 50.176-9.216l200.704-75.264c74.24-27.648 111.616-110.592 83.968-184.832l-178.688-476.16c-20.48-55.296-74.752-92.672-134.144-92.672z" fill="#181818" /><path d="M776.192 907.264h-260.096c-56.32 0-102.4-46.08-102.4-102.4V233.472c0-56.32 46.08-102.4 102.4-102.4h260.096c56.32 0 102.4 46.08 102.4 102.4v571.392c0 56.32-45.568 102.4-102.4 102.4z" fill="#4F8DFC" /><path d="M776.192 172.032c33.792 0 61.44 27.648 61.44 61.44v571.392c0 33.792-27.648 61.44-61.44 61.44h-260.096c-33.792 0-61.44-27.648-61.44-61.44V233.472c0-33.792 27.648-61.44 61.44-61.44h260.096m0-40.96h-260.096c-56.32 0-102.4 46.08-102.4 102.4v571.392c0 56.32 46.08 102.4 102.4 102.4h260.096c56.32 0 102.4-46.08 102.4-102.4V233.472c0-56.32-45.568-102.4-102.4-102.4z" fill="#181818" /><path d="M522.24 476.672v-322.56c0-11.264 9.216-20.48 20.48-20.48s20.48 9.216 20.48 20.48v322.56c0 11.264-9.216 20.48-20.48 20.48s-20.48-9.216-20.48-20.48z" fill="#181818" /><path d="M263.68 548.864l-114.176-302.08c-4.096-10.752 1.536-22.528 11.776-26.624 10.752-4.096 22.528 1.536 26.624 11.776l114.176 302.08c4.096 10.752-1.536 22.528-11.776 26.624s-22.528-1.536-26.624-11.776zM268.288 359.424L211.968 215.04c-4.096-10.752 1.536-22.528 11.776-26.624s22.528 1.536 26.624 11.776l56.32 144.384c4.096 10.752-1.536 22.528-11.776 26.624s-22.528-1.024-26.624-11.776z" fill="#181818" /><path d="M594.944 312.832v-158.72c0-11.264 9.216-20.48 20.48-20.48s20.48 9.216 20.48 20.48v158.72c0 11.264-9.216 20.48-20.48 20.48s-20.48-9.216-20.48-20.48zM661.504 551.424v322.56c0 11.264 9.216 20.48 20.48 20.48s20.48-9.216 20.48-20.48v-322.56c0-11.264-9.216-20.48-20.48-20.48s-20.48 9.216-20.48 20.48zM734.208 715.264v158.72c0 11.264 9.216 20.48 20.48 20.48s20.48-9.216 20.48-20.48v-158.72c0-11.264-9.216-20.48-20.48-20.48s-20.48 9.216-20.48 20.48z" fill="#181818" /></svg>