<?xml version="1.0" standalone="no"?><!DOCTYPE svg PUBLIC "-//W3C//DTD SVG 1.1//EN" "http://www.w3.org/Graphics/SVG/1.1/DTD/svg11.dtd"><svg class="icon" width="48px" height="48.00px" viewBox="0 0 1024 1024" version="1.1" xmlns="http://www.w3.org/2000/svg"><path d="M768 891.904H256c-67.584 0-122.88-55.296-122.88-122.88v-512c0-11.264 9.216-20.48 20.48-20.48h716.8c11.264 0 20.48 9.216 20.48 20.48v512c0 68.096-55.296 122.88-122.88 122.88zM174.08 277.504v491.52c0 45.056 36.864 81.92 81.92 81.92h512c45.056 0 81.92-36.864 81.92-81.92v-491.52H174.08z" fill="#181818" /><path d="M870.4 275.456H153.6c-39.424 0-71.68-32.256-71.68-71.68s32.256-71.68 71.68-71.68h716.8c39.424 0 71.68 32.256 71.68 71.68s-32.256 71.68-71.68 71.68z m-716.8-102.4c-16.896 0-30.72 13.824-30.72 30.72s13.824 30.72 30.72 30.72h716.8c16.896 0 30.72-13.824 30.72-30.72s-13.824-30.72-30.72-30.72H153.6zM257.024 969.728c-11.264 0-20.48-9.216-20.48-20.48v-75.264c0-11.264 9.216-20.48 20.48-20.48s20.48 9.216 20.48 20.48v75.264c0 11.264-9.216 20.48-20.48 20.48zM384.512 969.728c-11.264 0-20.48-9.216-20.48-20.48v-75.264c0-11.264 9.216-20.48 20.48-20.48s20.48 9.216 20.48 20.48v75.264c0 11.264-9.216 20.48-20.48 20.48zM512 969.728c-11.264 0-20.48-9.216-20.48-20.48v-75.264c0-11.264 9.216-20.48 20.48-20.48s20.48 9.216 20.48 20.48v75.264c0 11.264-9.216 20.48-20.48 20.48zM639.488 969.728c-11.264 0-20.48-9.216-20.48-20.48v-75.264c0-11.264 9.216-20.48 20.48-20.48s20.48 9.216 20.48 20.48v75.264c0 11.264-9.216 20.48-20.48 20.48zM766.976 969.728c-11.264 0-20.48-9.216-20.48-20.48v-75.264c0-11.264 9.216-20.48 20.48-20.48s20.48 9.216 20.48 20.48v75.264c0 11.264-9.216 20.48-20.48 20.48z" fill="#181818" /><path d="M747.52 276.992V599.04c0 56.32-46.08 102.4-102.4 102.4H378.88c-56.32 0-102.4-46.08-102.4-102.4V276.992h471.04m0-40.96H276.48c-22.528 0-40.96 18.432-40.96 40.96V599.04c0 78.848 64.512 143.36 143.36 143.36h266.24c78.848 0 143.36-64.512 143.36-143.36V276.992c0-22.528-18.432-40.96-40.96-40.96z" fill="#181818" /><path d="M645.12 701.44H378.88c-56.32 0-102.4-46.08-102.4-102.4V276.992h471.04V599.04c0 56.32-46.08 102.4-102.4 102.4z" fill="#4F8DFC" /><path d="M706.56 317.952V599.04c0 33.792-27.648 61.44-61.44 61.44H378.88c-33.792 0-61.44-27.648-61.44-61.44V317.952h389.12m40.96-40.96H276.48V599.04c0 56.32 46.08 102.4 102.4 102.4h266.24c56.32 0 102.4-46.08 102.4-102.4V276.992z" fill="#181818" /><path d="M618.496 574.464m-30.72 0a30.72 30.72 0 1 0 61.44 0 30.72 30.72 0 1 0-61.44 0Z" fill="#181818" /><path d="M512 574.464m-30.72 0a30.72 30.72 0 1 0 61.44 0 30.72 30.72 0 1 0-61.44 0Z" fill="#181818" /><path d="M405.504 574.464m-30.72 0a30.72 30.72 0 1 0 61.44 0 30.72 30.72 0 1 0-61.44 0Z" fill="#181818" /></svg>