<?xml version="1.0" standalone="no"?><!DOCTYPE svg PUBLIC "-//W3C//DTD SVG 1.1//EN" "http://www.w3.org/Graphics/SVG/1.1/DTD/svg11.dtd"><svg class="icon" width="48px" height="48.00px" viewBox="0 0 1024 1024" version="1.1" xmlns="http://www.w3.org/2000/svg"><path d="M906.752 789.504c-11.264 0-20.48-9.216-20.48-20.48V176.64c0-17.92-13.824-32.256-30.72-32.256s-30.72 14.336-30.72 32.256v592.384c0 11.264-9.216 20.48-20.48 20.48s-20.48-9.216-20.48-20.48V176.64c0-40.448 32.256-73.216 71.68-73.216s71.68 32.768 71.68 73.216v592.384c0 11.264-9.216 20.48-20.48 20.48zM731.648 912.384h-512c-67.584 0-122.88-55.296-122.88-122.88v-512c0-67.584 55.296-122.88 122.88-122.88h512c11.264 0 20.48 9.216 20.48 20.48v716.8c0 11.264-8.704 20.48-20.48 20.48z m-512-716.8c-45.056 0-81.92 36.864-81.92 81.92v512c0 45.056 36.864 81.92 81.92 81.92h491.52v-675.84h-491.52z" fill="#181818" /><path d="M710.144 297.984v471.04H388.096c-56.32 0-102.4-46.08-102.4-102.4v-266.24c0-56.32 46.08-102.4 102.4-102.4h322.048m0-40.96H388.096c-78.848 0-143.36 64.512-143.36 143.36v266.24c0 78.848 64.512 143.36 143.36 143.36h322.048c22.528 0 40.96-18.432 40.96-40.96v-471.04c0-23.04-18.432-40.96-40.96-40.96zM855.552 963.584c-39.424 0-71.68-32.256-71.68-71.68s32.256-71.68 71.68-71.68 71.68 32.256 71.68 71.68-32.256 71.68-71.68 71.68z m0-102.4c-16.896 0-30.72 13.824-30.72 30.72s13.824 30.72 30.72 30.72 30.72-13.824 30.72-30.72-13.824-30.72-30.72-30.72z" fill="#181818" /><path d="M285.696 666.624v-266.24c0-56.32 46.08-102.4 102.4-102.4h322.048v471.04H388.096c-56.832 0-102.4-46.08-102.4-102.4z" fill="#4F8DFC" /><path d="M669.184 338.944v389.12H388.096c-33.792 0-61.44-27.648-61.44-61.44v-266.24c0-33.792 27.648-61.44 61.44-61.44h281.088m40.96-40.96H388.096c-56.32 0-102.4 46.08-102.4 102.4v266.24c0 56.32 46.08 102.4 102.4 102.4h322.048v-471.04z" fill="#181818" /></svg>