<?xml version="1.0" standalone="no"?><!DOCTYPE svg PUBLIC "-//W3C//DTD SVG 1.1//EN" "http://www.w3.org/Graphics/SVG/1.1/DTD/svg11.dtd"><svg class="icon" width="48px" height="48.00px" viewBox="0 0 1024 1024" version="1.1" xmlns="http://www.w3.org/2000/svg"><path d="M898.56 122.368V798.72c0 56.832-46.08 102.4-102.4 102.4H225.28c-56.832 0-102.4-46.08-102.4-102.4v-92.672h194.56v-194.56h192v-194.56h194.56v-194.56h194.56m0-40.96h-194.56c-22.528 0-40.96 18.432-40.96 40.96v153.6h-153.6c-22.528 0-40.96 18.432-40.96 40.96v153.6H317.44c-22.528 0-40.96 18.432-40.96 40.96v153.6H122.88c-10.752 0-21.504 4.096-29.184 11.776s-11.776 17.92-11.776 29.184V798.72c0 79.36 64.512 143.36 143.36 143.36h570.368c79.36 0 143.36-64.512 143.36-143.36V122.368c0.512-22.528-17.92-40.96-40.448-40.96zM150.528 512a20.608 20.608 0 0 1-20.48-20.48V338.432c0-11.264 9.216-20.48 20.48-20.48s20.48 9.216 20.48 20.48v103.424l325.12-325.12c8.192-8.192 20.992-8.192 29.184 0 8.192 8.192 8.192 20.992 0 29.184L164.864 505.856c-3.584 3.584-9.216 6.144-14.336 6.144z" fill="#181818" /><path d="M123.904 706.048h194.56v-194.56h192v-194.56h194.56v-194.56h194.56V798.72c0 56.832-46.08 102.4-102.4 102.4H226.816c-56.832 0-102.4-46.08-102.4-102.4l-0.512-92.672z" fill="#4F8DFC" /><path d="M859.136 163.328V798.72c0 33.792-27.648 61.44-61.44 61.44H226.816c-33.792 0-61.44-27.648-61.44-61.44v-51.712h153.6c22.528 0 40.96-18.432 40.96-40.96v-153.6h151.04c22.528 0 40.96-18.432 40.96-40.96v-153.6h153.6c22.528 0 40.96-18.432 40.96-40.96v-153.6h112.64m40.96-40.96h-194.56v194.56h-194.56v194.56H318.464v194.56h-194.56V798.72c0 56.832 46.08 102.4 102.4 102.4h570.368c56.832 0 102.4-46.08 102.4-102.4V122.368h1.024z" fill="#181818" /></svg>