<?xml version="1.0" standalone="no"?><!DOCTYPE svg PUBLIC "-//W3C//DTD SVG 1.1//EN" "http://www.w3.org/Graphics/SVG/1.1/DTD/svg11.dtd"><svg class="icon" width="48px" height="48.00px" viewBox="0 0 1024 1024" version="1.1" xmlns="http://www.w3.org/2000/svg"><path d="M780.648718 42.420451v160.680186h-168.231026V42.420451H414.645064v160.680186H243.355524V42.420451H45.587138v939.159098h272.873795v-226.330076c0-110.734346 69.38289-201.327462 180.117236-201.327462h26.852146c110.730104 0 180.117236 90.584632 180.117236 201.327462v226.330076h272.869553V42.420451H780.648718z" fill="#E3BA91" /><path d="M66.797364 63.630677h155.347934v34.767802H66.797364z" fill="#FFFFFF" /><path d="M914.285866 426.457039h42.921012v533.912284h-42.921012zM914.285866 98.406963V305.427249H100.521622v40.430932h856.685256V98.406963z" fill="#6E6E96" /><path d="M559.370918 98.406963h53.046774V224.319346h-53.046774zM188.896149 98.406963H243.351282V224.319346H188.896149zM765.814286 960.369323v-245.453215c0-11.309292-8.48409-233.30824-265.836242-233.30824-231.895639 0-246.038618 233.30824-246.038617 233.30824v245.453215h56.037416v-205.11985c0-110.734346 69.38289-201.327462 180.117236-201.327462h26.852146c110.730104 0 180.117236 90.584632 180.117236 201.327462v205.11985h68.750825z" fill="#6E6E96" /><path d="M66.797364 98.406963h33.724258v861.96236H66.797364zM435.85529 83.559805h-17.180283v137.866467h53.025564v-123.019309h119.506896V63.630677H435.85529v19.929128zM801.858944 63.630677v19.920644h-14.126011v137.866467h53.025565v-123.019309h116.44838V63.630677H801.858944z" fill="#FFFFFF" /><path d="M978.417104 21.210226H780.648718a21.210226 21.210226 0 0 0-21.210226 21.210225v139.46996h-125.810574V42.420451a21.210226 21.210226 0 0 0-21.210226-21.210225H414.645064a21.210226 21.210226 0 0 0-21.210225 21.210225v139.46996H264.56575V42.420451a21.210226 21.210226 0 0 0-21.210226-21.210225H45.587138c-11.712287 0-21.210226 9.502181-21.210226 21.210225v939.159098a21.210226 21.210226 0 0 0 21.210226 21.210225h272.873795a21.210226 21.210226 0 0 0 21.210226-21.210225v-226.330076c0-106.051128 65.344463-180.117236 158.90701-180.117236h26.852146c93.562547 0 158.907011 74.066108 158.90701 180.117236v226.330076c0 11.720771 9.493697 21.210226 21.210226 21.210225h272.869553c11.716529 0 21.210226-9.489455 21.210226-21.210225V42.420451a21.210226 21.210226 0 0 0-21.210226-21.210225zM243.355524 224.310862H414.645064a21.210226 21.210226 0 0 0 21.210226-21.210225V63.630677h155.352177v139.46996a21.210226 21.210226 0 0 0 21.210225 21.210225h168.231026a21.210226 21.210226 0 0 0 21.210226-21.210225V63.630677h155.347934v279.974979H66.797364V63.630677h155.347934v139.46996a21.210226 21.210226 0 0 0 21.210226 21.210225zM66.797364 827.1988h230.453343v133.170523H66.797364V827.1988z m458.632951-294.487015h-26.852146c-116.656241 0-201.327462 93.588-201.327462 222.537688V784.778349H66.797364V386.026107h890.409514v398.752242h-230.449101v-29.528876c0-128.945446-84.671221-222.537688-201.327462-222.537688zM957.206878 827.1988v133.170523h-230.449101V827.1988h230.449101z" fill="#6E6E96" /><path d="M100.521622 827.1988h153.417805v34.767802H100.521622zM765.814286 827.1988h148.47158v34.767802h-148.47158z" fill="#FFFFFF" /></svg>