<?xml version="1.0" standalone="no"?><!DOCTYPE svg PUBLIC "-//W3C//DTD SVG 1.1//EN" "http://www.w3.org/Graphics/SVG/1.1/DTD/svg11.dtd"><svg class="icon" width="48px" height="43.50px" viewBox="0 0 1130 1024" version="1.1" xmlns="http://www.w3.org/2000/svg"><path d="M900.181264 719.311835l0.009116-0.022789c-1.14858 2.365528-117.779576 236.283851-341.529322 236.283851-141.407505 0-233.681315-66.567498-329.104603-237.427873a22.784726 22.784726 0 1 0-39.79009 22.219551c103.445117 185.235856 210.322299 260.786889 368.894693 260.786889 252.614652 0 377.349517-251.256411 382.531801-261.9537a22.789284 22.789284 0 0 0-41.011595-19.885929z" fill="#6E6E96" /><path d="M136.735702 578.847806L45.578567 369.186396l505.922098-323.607829 533.269239 323.607829-104.830705 209.66141z" fill="#78B4DF" /><path d="M157.633475 569.754882l-91.157134-209.66141a22.789284 22.789284 0 0 1-8.618908 28.286059l505.922098-323.607829a22.789284 22.789284 0 0 1-24.101946 0.287145l533.269239 323.607829a22.780168 22.780168 0 0 1-8.564213-29.671648l-104.830705 209.656852A22.798399 22.798399 0 0 1 979.939199 556.058522H136.735702a22.780168 22.780168 0 0 1 20.897773 13.69636z m842.693017 19.284292l104.830705-209.66141a22.784726 22.784726 0 0 0-8.564213-29.676206l-533.269238-323.607828a22.789284 22.789284 0 0 0-24.101947 0.287145l-505.922098 323.607828a22.789284 22.789284 0 0 0-8.618907 28.286059l91.157135 209.66141A22.784726 22.784726 0 0 0 136.735702 601.63709h843.203497a22.802957 22.802957 0 0 0 20.387293-12.597916z" fill="#6E6E96" /><path d="M141.152265 421.469571l410.66745-349.04067L74.224697 377.914692z" fill="#9FD1F5" /><path d="M949.032372 459.618831l-184.073602-112.460557 106.353029 135.213378H234.729622l-52.583993-34.220388 369.674086-375.722363-410.66745 349.04067 17.670811 11.50403-84.598379-55.058909 83.408778 191.84019 801.918431-1.103002 113.394918-179.985204z" fill="#6E6E96" /><path d="M764.95877 347.158274l45.583125 135.213378h60.769904z" fill="#9FD1F5" /><path d="M478.61142 308.019958a112.788723 82.041421 90 1 0 164.082843 0 112.788723 82.041421 90 1 0-164.082843 0Z" fill="#FFE600" /><path d="M560.652842 350.362448c-37.593202 0-59.252138-42.342489-49.024307-92.137074-1.996341 9.726466-33.017114 29.908656-33.017115 40.514788 0 62.292228 36.736325 112.793281 82.041422 112.793281 45.309654 0 82.041421-50.501053 82.041421-112.793281 0-10.606133-30.446483-29.425523-32.429151-39.151989 9.639867 48.431786-12.01451 90.774275-49.61227 90.774275z" fill="#FFB624" /><path d="M619.904979 308.019958c0 48.787299-27.132921 89.999439-59.252137 89.99944s-59.252138-41.212141-59.252138-89.99944 27.132921-90.003997 59.252138-90.003997 59.252138 41.216698 59.252137 90.003997z m-59.256695-135.582564c-57.802739 0-104.830705 60.82004-104.830705 135.582564 0 74.757966 47.027966 135.578007 104.830705 135.578007 57.807297 0 104.830705-60.82004 104.830705-135.578007 0.004558-74.757966-47.027966-135.582564-104.830705-135.582564z" fill="#6E6E96" /></svg>