<?xml version="1.0" standalone="no"?><!DOCTYPE svg PUBLIC "-//W3C//DTD SVG 1.1//EN" "http://www.w3.org/Graphics/SVG/1.1/DTD/svg11.dtd"><svg class="icon" width="48px" height="41.97px" viewBox="0 0 1171 1024" version="1.1" xmlns="http://www.w3.org/2000/svg"><path d="M699.534884 228.613953H1028.762791c52.390698 0 95.255814 42.865116 95.255814 95.255814v557.246512c0 52.390698-42.865116 95.255814-95.255814 95.255814H142.883721c-52.390698 0-95.255814-42.865116-95.255814-95.255814V323.869767c0-52.390698 42.865116-95.255814 95.255814-95.255814h329.23267" fill="#F0F0FF" /><path d="M264.334884 228.613953H142.883721c-52.390698 0-95.255814 42.865116-95.255814 95.255814v121.451163L264.334884 228.613953z" fill="#FFFFFF" /><path d="M569.453544 461.990698h409.6v47.627907h-409.6zM569.453544 585.823256h249.922679v47.627907h-249.922679zM569.453544 704.893023H907.311628v47.627907h-337.858084z" fill="#6E6E96" /><path d="M699.534884 252.427907H1028.762791c39.393042 0 71.44186 32.048819 71.44186 71.44186v557.246512c0 39.393042-32.048819 71.44186-71.44186 71.441861H142.883721c-39.393042 0-71.44186-32.048819-71.441861-71.441861V323.869767c0-39.393042 32.048819-71.44186 71.441861-71.44186h329.23267V204.8H142.883721C77.228651 204.8 23.813953 258.214698 23.813953 323.869767v557.246512c0 65.65507 53.414698 119.069767 119.069768 119.069768h885.87907c65.65507 0 119.069767-53.414698 119.069767-119.069768V323.869767c0-65.65507-53.414698-119.069767-119.069767-119.069767h-329.227907v47.627907z" fill="#6E6E96" /><path d="M457.008819 342.92093V133.748688C457.008819 81.148428 504.974884 38.102326 563.604837 38.102326h41.307684c58.634716 0 106.596019 43.046102 106.596019 95.646362V342.92093" fill="#F0F0FF" /><path d="M480.822772 342.92093V133.748688c0-39.607367 37.135479-71.832409 82.782065-71.832409h41.307684c45.646586 0 82.782065 32.225042 82.782065 71.832409V342.92093h47.627907V133.748688C735.322493 67.879293 676.816372 14.288372 604.912521 14.288372h-41.307684c-71.908614 0-130.409972 53.590921-130.409972 119.460316V342.92093h47.627907z" fill="#6E6E96" /><path d="M207.481451 476.27907h228.613954v290.530232h-228.613954z" fill="#85D4FF" /><path d="M207.481451 500.093023h228.613954a23.813953 23.813953 0 0 1-23.813954-23.813953v290.530232a23.813953 23.813953 0 0 1 23.813954-23.813953h-228.613954a23.813953 23.813953 0 0 1 23.813954 23.813953v-290.530232a23.813953 23.813953 0 0 1-23.813954 23.813953z m0 290.530233h228.613954a23.813953 23.813953 0 0 0 23.813953-23.813954v-290.530232a23.813953 23.813953 0 0 0-23.813953-23.813954h-228.613954a23.813953 23.813953 0 0 0-23.813953 23.813954v290.530232a23.813953 23.813953 0 0 0 23.813953 23.813954z" fill="#6E6E96" /><path d="M1053.862698 232.100316c2.190884 8.011014 3.476837 16.398288 3.476837 25.090382v557.246511c0 77.79066-17.465153 95.255814-95.255814 95.255814H76.204651c-8.692093 0-17.079367-1.285953-25.090381-3.476837C62.211572 946.504633 99.185116 976.372093 142.883721 976.372093h885.87907c52.390698 0 95.255814-42.865116 95.255814-95.255814V323.869767c0-43.698605-29.86746-80.672149-70.155907-91.769451zM231.295405 500.093023v242.902326h48.91386v-200.037209h132.072186v-42.865117z" fill="#6E6E96" /><path d="M280.209265 542.95814H314.344186v78.586046h-34.134921z" fill="#FFFFFF" /></svg>