<?xml version="1.0" standalone="no"?><!DOCTYPE svg PUBLIC "-//W3C//DTD SVG 1.1//EN" "http://www.w3.org/Graphics/SVG/1.1/DTD/svg11.dtd"><svg class="icon" width="48px" height="48.00px" viewBox="0 0 1024 1024" version="1.1" xmlns="http://www.w3.org/2000/svg"><path d="M982.54251 858.17004c0 68.404858-55.967611 124.37247-124.37247 124.37247H165.82996c-68.404858 0-124.37247-55.967611-124.37247-124.37247V165.82996c0-68.404858 55.967611-124.37247 124.37247-124.37247h692.34008c68.404858 0 124.37247 55.967611 124.37247 124.37247v692.34008z" fill="#FF859B" /><path d="M41.45749 257.036437h941.08502v41.45749H41.45749zM41.45749 489.198381h941.08502v41.457489H41.45749zM41.45749 717.214575h941.08502v41.45749H41.45749z" fill="#6E6E96" /><path d="M489.198381 41.45749h41.457489v236.307692h-41.457489zM692.340081 277.765182h41.45749v232.161944h-41.45749zM286.05668 277.765182h41.45749v232.161944H286.05668zM489.198381 509.927126h41.457489v228.016194h-41.457489zM692.340081 737.94332h41.45749v244.59919h-41.45749zM286.05668 737.94332h41.45749v244.59919H286.05668z" fill="#6E6E96" /><path d="M961.813765 681.287514H62.186235V717.214575h899.62753v-35.927061z m0-228.02034H62.186235V489.198381h899.62753v-35.931207z m0-232.161943H62.186235V257.036437h899.62753v-35.931206z m-103.643725 693.107044H165.82996c-68.404858 0-124.37247-55.967611-124.37247-124.372469V858.17004c0 68.404858 55.967611 124.37247 124.37247 124.37247h692.34008c68.404858 0 124.37247-55.967611 124.37247-124.37247v-68.330234c0 68.404858-55.967611 124.37247-124.37247 124.372469z" fill="#C25F72" /><path d="M961.813765 858.17004c0 57.14915-46.494575 103.643725-103.643725 103.643725H165.82996c-57.14915 0-103.643725-46.494575-103.643725-103.643725V165.82996c0-57.14915 46.494575-103.643725 103.643725-103.643725h692.34008c57.14915 0 103.643725 46.494575 103.643725 103.643725v692.34008z m41.45749-692.34008c0-80.00881-65.092405-145.101215-145.101215-145.101215H165.82996C85.82115 20.728745 20.728745 85.82115 20.728745 165.82996v692.34008c0 80.00881 65.092405 145.101215 145.101215 145.101215h692.34008c80.00881 0 145.101215-65.092405 145.101215-145.101215V165.82996z" fill="#6E6E96" /></svg>