<?xml version="1.0" standalone="no"?><!DOCTYPE svg PUBLIC "-//W3C//DTD SVG 1.1//EN" "http://www.w3.org/Graphics/SVG/1.1/DTD/svg11.dtd"><svg class="icon" width="48px" height="47.22px" viewBox="0 0 1041 1024" version="1.1" xmlns="http://www.w3.org/2000/svg"><path d="M118.127203 9.017921m146.427856 0l512.484903 0q146.427856 0 146.427856 146.427856l0 402.670307q0 146.427856-146.427856 146.427857l-512.484903 0q-146.427856 0-146.427856-146.427857l0-402.670307q0-146.427856 146.427856-146.427856Z" fill="#FFFFF3" /><path d="M777.052556 713.549266H264.542465A155.622105 155.622105 0 0 1 109.109283 558.103489V155.433182A155.60951 155.60951 0 0 1 264.542465 0h512.510091a155.60951 155.60951 0 0 1 155.433183 155.433182v402.670307a155.622105 155.622105 0 0 1-155.433183 155.445777zM264.542465 18.023246a137.573669 137.573669 0 0 0-137.397341 137.409936v402.670307a137.573669 137.573669 0 0 0 137.397341 137.422531h512.510091a137.573669 137.573669 0 0 0 137.397341-137.422531V155.433182a137.573669 137.573669 0 0 0-137.397341-137.409936z" fill="#86D8FF" /><path d="M1033.282413 948.254505a67.62181 67.62181 0 0 1-67.432887 67.495861H75.745495A67.62181 67.62181 0 0 1 8.312608 948.317479V387.606853c0-37.091866 26.73889-53.11253 59.43515-35.593077L461.349766 562.864347c32.746639 17.519452 86.19923 17.519452 118.895489 0l393.602008-210.863166c32.746639-17.519452 59.43515-1.498788 59.43515 35.593078z" fill="#F4B0CC" /><path d="M965.849526 1023.987405H75.745495A75.833659 75.833659 0 0 1 0 948.254505V387.606853c0-20.983039 7.645081-37.104461 21.512023-45.3415s31.650886-7.443563 50.152737 2.518972l393.614602 210.762408c30.089123 16.121422 80.947173 16.121422 111.036297 0L969.930261 344.696161c18.514446-9.924751 36.32358-10.756011 50.152737-2.518972s21.512023 24.408841 21.512023 45.3415v560.735816a75.833659 75.833659 0 0 1-75.745495 75.7329zM42.570631 353.260667a24.030995 24.030995 0 0 0-12.594861 3.262069c-8.665265 5.189083-13.426122 16.247371-13.426122 31.147092v560.584677a59.195848 59.195848 0 0 0 59.132873 59.195847h890.167005a59.195848 59.195848 0 0 0 59.132873-59.195847V387.606853c0-14.899721-4.760858-25.958009-13.426122-31.147091s-20.630383-4.168899-33.792012 2.871628L584.149662 570.181961c-34.938145 18.728559-91.766159 18.728559-126.704303 0L63.830757 359.33139c-7.619891-4.080735-14.849341-6.070723-21.260126-6.070723z" fill="#86D8FF" /><path d="M401.914616 364.999078a71.047612 71.047612 0 0 1-18.980456-2.619732c-71.866278-19.912476-105.620506-151.818457-107.05632-157.435765l28.288058-7.065717c8.438557 33.640874 40.442099 123.706727 86.589671 136.477916 19.06862 5.163893 40.517668-3.778458 63.591454-26.814459 107.837202-107.862391 168.141397-119.386689 182.235047-120.545417 13.388337-4.080735 87.559475-24.685928 125.003997 12.758595 24.245108 24.245108 26.877434 65.493278 7.834004 122.661353l-27.620531-9.194249c10.504114-31.487153 18.892292-73.150954-0.755692-92.861911-22.947837-22.985622-77.987381-11.511703-97.232328-5.126109l-4.622314 0.743097c-0.239302 0-55.694476 3.513966-164.312559 112.094264-24.5096 24.559979-48.981415 36.928133-72.962031 36.928134z" fill="#86D8FF" /><path d="M675.714303 607.676863c0 15.025669-0.654933 16.159207-0.654932 16.159207a411.033295 411.033295 0 0 1-34.006126 49.119959c-10.214432 12.22961-27.532367 32.922967-38.489896 45.971243l-53.03696 63.226203-23.451632 27.960592a4.521555 4.521555 0 0 1-6.964958 0.453415l-24.156944-26.814459-56.185675-62.445322c-11.398349-12.657836-29.497165-32.746639-40.227987-44.749542s-23.388657-35.114473-28.124325-51.487793c0 0-13.539476-46.76472 21.083797-71.576596a86.703024 86.703024 0 0 1 50.44242-15.756171c23.653149 0 37.532686 9.446146 37.532686 9.446146 14.081055 9.584689 28.514766 20.668167 32.066517 24.635548a8.111091 8.111091 0 0 0 12.594861-0.100759c3.362828-4.017761 18.615205-13.489096 33.892771-21.033418 0 0 49.787486-24.585169 85.34278-0.806071 21.108987 14.118839 32.343604 35.844975 32.343603 57.797818z" fill="#F14950" /><path d="M522.283704 817.11681a9.395766 9.395766 0 0 1-7.002743-3.13612l-120.558011-134.009324c-11.196832-12.456318-24.308082-36.462123-29.220078-53.47778-0.591958-2.040368-14.131434-50.543178 23.010811-77.168715a91.463882 91.463882 0 0 1 53.427402-16.713381c24.937825 0 39.787167 9.912156 40.404314 10.340381 12.846758 8.740834 28.691094 20.655572 33.011132 25.454215 0.717907 0.806071 1.360245 1.536573 2.518972 1.259486a3.148715 3.148715 0 0 0 2.330049-1.259486c4.383012-5.277247 21.587592-15.4413 35.530104-22.318094 2.141126-1.083158 52.898417-25.643137 90.456293-0.478605 21.663161 14.48409 34.560299 37.67123 34.560299 62.067476 0 16.37332-0.692717 17.632806-1.259486 18.703369a419.912672 419.912672 0 0 1-34.48473 49.87565l-115.003678 137.158039a10.075889 10.075889 0 0 1-7.556917 3.715484zM441.941085 542.838518a81.22426 81.22426 0 0 0-47.482627 14.824151c-31.29823 22.444043-19.244948 65.493278-19.131594 65.984478 4.496365 15.516869 16.864519 38.187619 27.078951 49.522994l120.558012 134.009323 22.67075-28.288058 91.526856-109.184852a408.564702 408.564702 0 0 0 33.023726-47.633765c0.138543-1.183917 0.41563-4.748263 0.415631-14.370736 0-20.945254-11.247211-40.958489-30.051339-53.52816-32.64588-21.826894-79.750661 0.919425-80.241861 1.133537-16.625217 8.21185-29.963175 17.015657-32.217655 19.723553a13.388337 13.388337 0 0 1-9.987725 4.886806c-4.09333-0.390441-7.632486-1.612142-10.340381-4.647504s-16.37332-13.740994-31.134497-23.816882c-0.138543-0.113354-13.086061-8.614885-34.686247-8.614885z" fill="#FF7BAC" /></svg>