<?xml version="1.0" standalone="no"?><!DOCTYPE svg PUBLIC "-//W3C//DTD SVG 1.1//EN" "http://www.w3.org/Graphics/SVG/1.1/DTD/svg11.dtd"><svg class="icon" width="48px" height="48.00px" viewBox="0 0 1024 1024" version="1.1" xmlns="http://www.w3.org/2000/svg"><path d="M338.88 673.94h461.76v180.05H338.88z" fill="#EE8C98" /><path d="M717.11 673.94h83.53v180.05h-83.53z" fill="#D96478" /><path d="M231.33 763.97a27.61 90.03 0 1 0 55.22 0 27.61 90.03 0 1 0-55.22 0Z" fill="#7BA2D5" /><path d="M177.05 188.89H75.84l84.93 165.42h101.21z" fill="#EE8C98" /><path d="M177.05 582.58H75.84l84.93-165.42h101.21z" fill="#D96478" /><path d="M261.98 369.17H160.77c-5.57 0-10.68-3.12-13.22-8.08L62.62 195.68a14.86 14.86 0 0 1 0.54-14.54c2.7-4.42 7.51-7.12 12.69-7.12h101.22c5.57 0 10.68 3.12 13.22 8.08l84.93 165.42a14.86 14.86 0 0 1-0.54 14.54 14.896 14.896 0 0 1-12.7 7.11z m-92.13-29.72h67.79l-69.66-135.69h-67.8l69.67 135.69zM177.05 597.44H75.84c-5.18 0-9.99-2.7-12.69-7.12-2.7-4.42-2.9-9.93-0.54-14.54l84.93-165.42c2.55-4.96 7.65-8.08 13.22-8.08h101.21c5.18 0 9.99 2.7 12.69 7.12 2.7 4.42 2.9 9.93 0.54 14.54l-84.93 165.42a14.827 14.827 0 0 1-13.22 8.08z m-76.87-29.73h67.8l69.66-135.69h-67.79l-69.67 135.69z" fill="#49416F" /><path d="M196.48 385.73a372.43 232.54 0 1 0 744.86 0 372.43 232.54 0 1 0-744.86 0Z" fill="#A0C8EA" /><path d="M196.48 385.73a372.43 88 0 1 0 744.86 0 372.43 88 0 1 0-744.86 0Z" fill="#D0E2F3" /><path d="M568.91 153.2c-19.69 0-39.02 0.96-57.88 2.8 178.2 17.36 314.55 113.6 314.55 229.74S689.23 598.11 511.03 615.47c18.86 1.84 38.19 2.8 57.88 2.8 205.69 0 372.43-104.11 372.43-232.54 0.01-128.42-166.74-232.53-372.43-232.53z" fill="#7BA2D5" /><path d="M941.35 385.73c-0.01-26.89-51.07-50.96-131.52-67.1 10.24 21.25 15.76 43.78 15.76 67.11s-5.51 45.86-15.76 67.11c80.44-16.15 131.51-40.22 131.52-67.12z" fill="#A0C8EA" /><path d="M568.91 488.6c-100.6 0-195.34-9.3-266.77-26.17-79.98-18.9-120.53-44.7-120.53-76.69 0-31.99 40.55-57.8 120.53-76.69 71.43-16.88 166.17-26.17 266.77-26.17s195.34 9.3 266.77 26.17c79.98 18.9 120.53 44.7 120.53 76.69 0 31.99-40.55 57.8-120.53 76.69-71.43 16.88-166.17 26.17-266.77 26.17z m0-176.01c-98.36 0-190.67 9.01-259.93 25.38-77.23 18.25-97.64 39.22-97.64 47.76s20.41 29.51 97.64 47.76c69.26 16.36 161.57 25.38 259.93 25.38s190.67-9.01 259.93-25.38c77.23-18.25 97.64-39.22 97.64-47.76s-20.41-29.51-97.64-47.76c-69.25-16.36-161.56-25.38-259.93-25.38z" fill="#49416F" /><path d="M568.91 633.14c-102.23 0-198.55-24.99-271.22-70.36-74.85-46.74-116.07-109.61-116.07-177.04 0-67.43 41.22-130.3 116.07-177.04 72.67-45.38 169-70.36 271.22-70.36s198.55 24.99 271.22 70.36c74.85 46.74 116.07 109.61 116.07 177.04 0 67.43-41.22 130.3-116.07 177.04-72.67 45.37-168.99 70.36-271.22 70.36z m0-465.08c-96.73 0-187.46 23.39-255.48 65.85-65.83 41.11-102.09 95.02-102.09 151.82s36.26 110.71 102.09 151.82c68.01 42.47 158.74 65.85 255.48 65.85 96.73 0 187.46-23.39 255.48-65.85 65.83-41.11 102.09-95.02 102.09-151.82s-36.26-110.71-102.09-151.82c-68.01-42.46-158.74-65.85-255.48-65.85z" fill="#49416F" /><path d="M396.91 688.8c-8.21 0-14.86-6.65-14.86-14.86v-78.88c0-8.21 6.66-14.86 14.86-14.86s14.86 6.65 14.86 14.86v78.88c0.01 8.21-6.65 14.86-14.86 14.86zM740.91 688.8c-8.21 0-14.86-6.65-14.86-14.86v-77.79c0-8.21 6.66-14.86 14.86-14.86s14.86 6.65 14.86 14.86v77.79c0.01 8.21-6.65 14.86-14.86 14.86z" fill="#49416F" /><path d="M283.81 425.94H83.45c-1.51 0-2.74-1.23-2.74-2.74v-74.94c0-1.51 1.23-2.74 2.74-2.74h200.36c1.51 0 2.74 1.23 2.74 2.74v74.94c0 1.52-1.22 2.74-2.74 2.74z" fill="#EE8C98" /><path d="M246.34 440.81H120.92c-30.37 0-55.07-24.71-55.07-55.07 0-30.37 24.7-55.07 55.07-55.07h125.43c30.37 0 55.07 24.71 55.07 55.07s-24.71 55.07-55.08 55.07z m-125.42-80.42c-13.97 0-25.34 11.37-25.34 25.34s11.37 25.34 25.34 25.34h125.43c13.97 0 25.34-11.37 25.34-25.34s-11.37-25.34-25.34-25.34H120.92zM800.64 868.86H338.88c-8.21 0-14.86-6.65-14.86-14.86V673.94c0-8.21 6.66-14.86 14.86-14.86h461.76c8.21 0 14.86 6.65 14.86 14.86v180.05c0.01 8.21-6.65 14.87-14.86 14.87z m-446.89-29.73h432.03V688.8H353.75v150.33zM258.94 868.86c-10.23 0-24.39-6.4-33.74-36.87-5.64-18.38-8.74-42.53-8.74-68.02 0-25.48 3.1-49.64 8.74-68.02 9.35-30.48 23.5-36.87 33.74-36.87s24.39 6.4 33.74 36.87c5.64 18.38 8.74 42.53 8.74 68.02 0 25.48-3.1 49.64-8.74 68.02-9.35 30.47-23.51 36.87-33.74 36.87z m0-177.36c-5.42 9.15-12.75 34.33-12.75 72.47s7.33 63.32 12.75 72.47c5.42-9.15 12.75-34.33 12.75-72.47s-7.33-63.32-12.75-72.47z" fill="#49416F" /><path d="M800.64 778.83H286.55c-8.21 0-14.86-6.65-14.86-14.86 0-8.21 6.66-14.86 14.86-14.86h514.09c8.21 0 14.86 6.66 14.86 14.86 0.01 8.2-6.65 14.86-14.86 14.86z" fill="#49416F" /></svg>