<?xml version="1.0" standalone="no"?><!DOCTYPE svg PUBLIC "-//W3C//DTD SVG 1.1//EN" "http://www.w3.org/Graphics/SVG/1.1/DTD/svg11.dtd"><svg class="icon" width="48px" height="48.00px" viewBox="0 0 1024 1024" version="1.1" xmlns="http://www.w3.org/2000/svg"><path d="M1001.552694 800.143329l-357.351408-312.650934a16.977444 16.977444 0 0 0-22.350236 0l-149.729599 131.000052c-83.382642-71.947863-155.645981-159.402568-152.830968-245.0081l7.270501 2.421882-0.402839-4.673893c16.166914 1.164833 72.219658 9.124527 82.892442 63.842566 0.179578 0.92216 1.436628 0.956134 1.572525 0.024267 2.358787-16.49695 4.547703-73.515534-75.369561-83.261305-0.878478-0.106776-1.106592-1.295877-0.25238-1.543404 15.78349-4.499168 81.582004-18.030647 140.891427 47.306787 0.592124 0.650365 1.669594 0.150458 1.383239-0.679486-5.552372-16.288251-33.338496-83.965059-108.499357-72.331287l0.121336-0.47564c68.768839-53.130954 193.901044-76.427617 214.353574-79.951238 0.815383-0.140751 0.902746-1.305584 0.135897-1.621059-90.269718-36.998014-167.478745 14.60895-209.131238 53.397894l-0.116483 0.228113-0.063095-0.063095 0.179578-0.160164c10.963992-21.690165 21.442638-47.005873 25.587502-70.826711a0.805676 0.805676 0 0 0-0.888185-0.93672c-7.163724 0.737728-48.719148 9.124527-66.919666 104.563192-0.155311 0.805676-1.252196 0.985255-1.523991 0.208699-1.446335-4.188546-4.639919-12.643294-10.017565-23.296664l-0.009707 0.077656-0.009707-0.11163 0.019414 0.033974c16.429001-110.105857 124.311968-167.89129 144.745084-177.904001 0.771702-0.378571 0.378571-1.567671-0.480494-1.553111-103.577938 1.490016-148.404601 64.0998-167.765099 121.438713l-0.024268-0.024268-0.257234 0.897893a260.534356 260.534356 0 0 0-4.387538 14.531294l0.169871 0.198992-0.063095 0.232967-0.160164-0.242674 0.053388-0.189285-0.766849-0.883332-0.184432-0.276648c-0.019414-0.01456-0.033974 0.01456-0.053388 0-34.100492-39.580061-93.531251-77.602158-191.668447-58.03296-0.834797 0.165018-0.95128 1.378386-0.135897 1.640473 19.865259 6.372608 129.8789 43.909358 183.922306 108.708057l0.004854-0.058241 0.024267 0.097069-0.029121-0.033974c-1.092031 12.827725-1.067764 22.185219-0.990108 25.786495 0.01456 0.679486-0.781409 0.970694-1.310437 0.548442C137.828887 225.443756 35.774939 355.837124 20.141907 377.774816c-0.509615 0.71346 0.33489 1.50943 1.082324 1.053203 98.962286-60.634421 229.015911-32.804615 248.881171-28.048212 0.791116 0.189285 0.732874 1.27161-0.033974 1.533697-102.117043 35.110014-105.728025 100.088291-105.281507 113.983781 0.024267 0.820237 1.077471 1.043496 1.485163 0.334889 34.284923-59.697701 91.017153-82.518724 122.579279-90.939497 1.198807 47.932886 23.981003 143.429793 156.029405 266.635169L264.499642 800.143329c-11.793936 10.318481-4.494315 29.742074 11.172692 29.742074h714.707668c15.667006 0 22.966628-19.428447 11.172692-29.742074zM318.557609 301.900494c0.660072 1.242489 1.28617 2.46071 1.888 3.654664l-2.067579-3.111075 0.179579-0.543589z" fill="#0D3F70" /><path d="M314.039027 534.488561a16.977444 16.977444 0 0 0-22.350237 0L36.498106 757.757962c-11.793936 10.318481-4.494315 29.742074 11.172692 29.742074H240.203163l181.510131-158.805591-107.674267-94.205884z" fill="#D34D5B" /></svg>