<?xml version="1.0" standalone="no"?><!DOCTYPE svg PUBLIC "-//W3C//DTD SVG 1.1//EN" "http://www.w3.org/Graphics/SVG/1.1/DTD/svg11.dtd"><svg class="icon" width="48px" height="48.00px" viewBox="0 0 1024 1024" version="1.1" xmlns="http://www.w3.org/2000/svg"><path d="M145.2 104.9h704.5l20.5 67.4 5.8 738.1-33.7 16.1-199.1-79.1L500 763.9 205.3 926.5h-60.1l-20.5-121.6z" fill="#E60012" /><path d="M869.3 94.7C849.7 74.9 824 63.9 797 63.9H203.7c-58.1 0-105.4 49.3-105.4 109.9V871c0 35.3 14.7 64 40.5 79 24.7 14.3 55.2 13.2 83.6-3l279.1-162.8 276.1 162.6c15.1 8.9 30.9 13.4 46.1 13.4 12.9 0 25.5-3.3 36.9-9.7 25.8-14.6 41.1-44.4 41.1-79.4v-696c0.2-30.1-11.6-59.3-32.4-80.4z m-27.8 776.4c0 13.1-4.1 23.4-10.8 27.2-5.4 3.2-13.6 2-22.4-3.2L501.7 714.5 192.4 894.9c-9.2 5.2-17.7 6.4-23.5 3.1-6.6-3.8-10.5-13.9-10.5-27V173.9c0-27.5 20.3-49.8 45.3-49.8H797c10.7 0 21.2 4.6 29.5 12.9 9.6 9.7 15 23.4 14.9 37.6v696.5z" fill="#231815" /><path d="M301.7 282.8h396.4c13.7 0 24.8 11.1 24.8 24.8 0 13.7-11.1 24.7-24.8 24.7H301.7c-13.7 0-24.7-11.1-24.7-24.7 0-13.7 11-24.8 24.7-24.8z" fill="#231815" /></svg>