<?xml version="1.0" standalone="no"?><!DOCTYPE svg PUBLIC "-//W3C//DTD SVG 1.1//EN" "http://www.w3.org/Graphics/SVG/1.1/DTD/svg11.dtd"><svg class="icon" width="48px" height="48.00px" viewBox="0 0 1024 1024" version="1.1" xmlns="http://www.w3.org/2000/svg"><path d="M880 576v53.6c-42.4-16-64 3.52-64 26.4v128H576c0-93.6 6.24-116-18.72-141.28A64 64 0 0 0 448 688v96H208c0-136.8 3.2-138.24-9.44-150.56s-36.48-10.4-54.56-3.84V576l240-368h256z" fill="#FFE5C0" /><path d="M579.68 576H144l240-368h192l110.88 170.08A128 128 0 0 1 579.68 576zM768 576v64a96 96 0 0 1-96 96H144V576z" fill="#FEF5E3" /><path d="M608 176v32H416v-32a48 48 0 0 1 48-48h96a48 48 0 0 1 48 48z" fill="#FD7504" /><path d="M544 176v32h-128v-32a48 48 0 0 1 48-48h32a48 48 0 0 1 48 48z" fill="#FD8F07" /><path d="M208 656v160a32 32 0 0 1-32 32H112a32 32 0 0 1-32-32v-96c0-94.4 128-125.92 128-64zM944 720v96a32 32 0 0 1-32 32h-64a32 32 0 0 1-32-32c0-168.96-3.52-169.92 9.44-182.56 27.2-28 118.56 7.52 118.56 86.56zM576 688v128a32 32 0 0 1-32 32h-64a32 32 0 0 1-32-32v-128a64 64 0 0 1 128 0z" fill="#FD7504" /><path d="M160 625.44V768a32 32 0 0 1-32 32H80v-80a96 96 0 0 1 80-94.56zM896 768a32 32 0 0 1-32 32h-48v-144c0-25.76 27.84-43.84 71.52-23.36 11.36 24.96 8.48 35.84 8.48 135.36zM528 768a32 32 0 0 1-32 32h-48v-112a64 64 0 0 1 78.4-62.4c1.6 10.56 1.6 2.08 1.6 142.4z" fill="#FD8F07" /><path d="M640 448a128 128 0 1 1-128-128 128 128 0 0 1 128 128z" fill="#2DE0C7" /><path d="M418.72 535.68c-92.16-98.24 12.48-256 138.56-208 92 98.72-13.28 256.64-138.56 208z" fill="#93E6D9" /><path d="M192 688v-32a16 16 0 0 0-16-16c-25.44 0-29.76 10.72-41.12 2.72C125.92 636.48 128 632.64 128 576c0-6.88-4.48 2.08 92.16-146.08A16 16 0 0 1 247.04 448L160 580.8v28.32a53.28 53.28 0 0 1 50.08 13.12C227.36 640 224 658.24 224 688a16 16 0 0 1-32 0zM816 800H576a16 16 0 0 1-16-16c0-98.24 4.64-111.04-14.08-130.08a49.12 49.12 0 0 0-55.2-8.96 16 16 0 0 1-21.44-7.04c-14.24-28.32 58.56-46.72 99.2-6.56C599.36 662.56 592 693.12 592 768h208v-112c0-27.84 21.76-52.96 64-46.88V580.8L631.36 224H392.64l-112 171.04a16 16 0 0 1-26.88-17.6l116.32-178.24c6.88-10.24-6.56-7.2 269.44-7.2 13.12 0-3.04-18.08 253.44 375.2 3.36 5.44 2.56 3.68 2.56 62.4a16 16 0 0 1-21.44 15.04c-9.44-3.52-29.6-8.32-37.6 0S832 647.04 832 784a16 16 0 0 1-16 16zM448 800H208a16 16 0 0 1-16-16v-32a16 16 0 0 1 32 0v16h208v-80c0-29.6 34.4-23.36 32-2.4V784a16 16 0 0 1-16 16z" fill="#35214C" /><path d="M608 224H416a16 16 0 0 1-16-16v-32a64 64 0 0 1 64-64h96a64 64 0 0 1 64 64v32a16 16 0 0 1-16 16z m-176-32h160v-16a32 32 0 0 0-32-32h-96a32 32 0 0 0-32 32zM176 864H112a48 48 0 0 1-48-48v-96c0-93.76 108.32-136.48 146.08-97.76C227.36 640 224 658.24 224 688a16 16 0 0 1-32 0c0-34.08 1.28-37.28-4.64-43.04-16-16-91.36 8.16-91.36 75.04v96a16 16 0 0 0 16 16h64a16 16 0 0 0 16-16v-64a16 16 0 0 1 32 0v64a48 48 0 0 1-48 48zM912 864h-64a48 48 0 0 1-48-48c0-172.64-4.64-176 14.24-194.08C851.36 583.84 960 625.92 960 720v48a16 16 0 0 1-32 0v-48c0-67.84-76.16-90.72-91.04-75.36-6.88 6.56-4.96-2.88-4.96 171.36a16 16 0 0 0 16 16c68.32 0 71.84 2.56 77.92-8.16a16 16 0 0 1 21.76-6.08c21.44 11.84-2.88 46.24-35.68 46.24zM544 864h-64a48 48 0 0 1-48-48v-133.92a16 16 0 0 1 32 3.52V816a16 16 0 0 0 16 16h64a16 16 0 0 0 16-16v-128a48 48 0 0 0-69.28-43.04 16 16 0 0 1-14.4-28.48A80 80 0 0 1 592 688v128a48 48 0 0 1-48 48zM512 592a144 144 0 1 1 61.76-274.24 16 16 0 0 1-13.76 28.96 112 112 0 1 0 42.88 35.68 16 16 0 0 1 25.92-18.56A144 144 0 0 1 512 592zM336 592H144a16 16 0 0 1 0-32h192a16 16 0 0 1 0 32zM880 592H688a16 16 0 0 1 0-32h192a16 16 0 0 1 0 32z" fill="#35214C" /></svg>