<?xml version="1.0" standalone="no"?><!DOCTYPE svg PUBLIC "-//W3C//DTD SVG 1.1//EN" "http://www.w3.org/Graphics/SVG/1.1/DTD/svg11.dtd"><svg class="icon" width="48px" height="34.83px" viewBox="0 0 1411 1024" version="1.1" xmlns="http://www.w3.org/2000/svg"><path d="M338.025787 586.149723l96.808337 98.191313a406.318419 406.318419 0 0 1 540.328816 0l96.808337-98.191313a543.509661 543.509661 0 0 0-734.775275 0zM705.482574 56.054931A922.445151 922.445151 0 0 0 67.23904 312.597023l96.808337 97.499825a788.296456 788.296456 0 0 1 1083.423584 0l96.808337-97.499825A922.445151 922.445151 0 0 0 705.482574 56.054931z m-95.148765 805.168766L705.482574 957.202248l95.010467-95.978551a162.499708 162.499708 0 0 0-190.159232 0z" fill="#FFFFFF" /><path d="M338.025787 586.149723l96.808337 98.191313a414.892871 414.892871 0 0 1 81.872193-56.148835L415.749052 526.266852a550.424543 550.424543 0 0 0-77.723265 59.882871zM67.23904 312.597023l96.808337 97.499825a802.126218 802.126218 0 0 1 73.850931-61.404145l-98.053015-98.053015a940.423842 940.423842 0 0 0-72.606253 61.957335z m826.4666 315.733475a414.892871 414.892871 0 0 1 81.872193 56.148836l96.808337-98.191313A550.56284 550.56284 0 0 0 995.216096 526.266852z m377.69081-377.69081l-98.053015 98.053015a802.126218 802.126218 0 0 1 73.712634 61.404145l96.808336-97.499825a940.423842 940.423842 0 0 0-72.467955-61.957335z m-661.062641 610.584009L705.482574 957.202248l95.010467-95.978551a162.499708 162.499708 0 0 0-190.159232 0z" fill="#F7D54A" /><path d="M691.652811 941.159723h27.659525v-27.659524h-27.659525z m-55.319049-53.52118V885.840674h-1.797869z m27.659525 27.659525V913.500199h-2.074465zM721.525098 941.159723H719.312336v2.212762z m-29.872287 2.212762V941.159723h-2.351059z m82.978575-55.319049l1.659571-1.659572H774.631386zM748.908028 913.500199H746.971861v1.936166z m-133.733803-55.31905H636.333762v-11.893596a164.850768 164.850768 0 0 0-21.159537 11.893596zM746.971861 835.915232a160.978434 160.978434 0 0 0-27.659525-5.393608v27.659525h27.659525zM746.971861 858.181149v27.659525h27.659525v-27.659525z m-110.638099 0v27.659525h27.659525v-27.659525z m138.297624-11.893596V858.181149h21.021239a164.989065 164.989065 0 0 0-21.021239-12.031893zM719.312336 913.500199h27.659525v-27.659525h-27.659525z m-55.319049-27.659525v27.659525h27.659524v-27.659525z m27.659524-55.31905a161.116732 161.116732 0 0 0-27.659524 4.840417V858.181149h27.659524z m27.659525 55.31905v-27.659525h-27.659525v27.659525z"  /><path d="M860.375912 839.925863a217.542162 217.542162 0 0 0-309.786677 0 27.659525 27.659525 0 0 0-8.297857 19.77656 27.659525 27.659525 0 0 0 11.06381 22.68081l132.765718 133.457207a27.659525 27.659525 0 0 0 38.723335 0l133.733802-135.116778a27.659525 27.659525 0 0 0 9.819132-20.882941 27.659525 27.659525 0 0 0-8.297858-19.776561zM705.482574 957.202248l-95.010468-95.978551a162.499708 162.499708 0 0 1 190.159233 0zM1401.672812 291.160892A978.732283 978.732283 0 0 0 8.600848 291.160892a27.659525 27.659525 0 0 0 3.042547 42.595668l129.169981 130.414659a27.659525 27.659525 0 0 0 22.265917 11.617 27.659525 27.659525 0 0 0 19.914858-8.71275 734.222085 734.222085 0 0 1 1044.561953 0 27.659525 27.659525 0 0 0 20.191453 9.127643 26.691441 26.691441 0 0 0 20.606346-9.957429l132.350826-133.595504a27.659525 27.659525 0 0 0 9.957428-21.021239 27.659525 27.659525 0 0 0-8.989345-20.468048z m-154.616743 118.935956a788.296456 788.296456 0 0 0-1083.423585 0l-96.808337-97.499825a923.136639 923.136639 0 0 1 1276.487068 0zM1131.439255 566.096568a598.137223 598.137223 0 0 0-851.913362 0 27.659525 27.659525 0 0 0-8.297858 19.77656 27.659525 27.659525 0 0 0 11.478703 22.542513l129.169981 130.552956a27.659525 27.659525 0 0 0 41.489287 2.627655 353.350429 353.350429 0 0 1 502.158672 0 27.659525 27.659525 0 0 0 20.32975 9.265941 26.691441 26.691441 0 0 0 20.606346-9.957429l132.489124-133.733802a27.659525 27.659525 0 0 0 9.819131-20.882941 27.659525 27.659525 0 0 0-8.297857-19.77656z m-155.861422 118.244468a406.318419 406.318419 0 0 0-540.328816 0l-96.808337-98.191313a543.509661 543.509661 0 0 1 734.775275 0z"  /></svg>