<?xml version="1.0" standalone="no"?><!DOCTYPE svg PUBLIC "-//W3C//DTD SVG 1.1//EN" "http://www.w3.org/Graphics/SVG/1.1/DTD/svg11.dtd"><svg class="icon" width="48px" height="48.00px" viewBox="0 0 1024 1024" version="1.1" xmlns="http://www.w3.org/2000/svg"><path d="M499.80604 800.60665l-0.292655 107.892159L185.104316 726.95513l0.292655-107.794608 314.409069 181.446128z" fill="#B8D9F6" /><path d="M185.396971 619.160522l137.54787-79.992379 314.40907 181.543679-137.547871 79.894828L185.396971 619.160522z" fill="#E0EFFB" /><path d="M699.884538 916.10784l-0.292655 107.89216-171.495856-99.014957 0.292655-107.892159 171.495856 99.014956z" fill="#B8D9F6" /><path d="M699.884538 916.10784l137.45032-79.894827-0.292655 107.89216-137.45032 79.894827 0.292655-107.89216z" fill="#99C9F2" /><path d="M528.388682 817.092884l137.547871-79.894827 171.398305 99.014956-137.45032 79.894827-171.495856-99.014956z" fill="#E0EFFB" /><path d="M357.380585 534.875869l-0.292655 127.207393L185.592074 563.068305l0.390207-127.207392 171.398304 99.014956z" fill="#B8D9F6" /><path d="M357.380585 534.875869l137.547871-79.894827-0.390207 127.207393-137.450319 79.894827 0.292655-127.207393z" fill="#99C9F2" /><path d="M185.982281 435.860913l137.450319-79.894827 171.495856 99.014956-137.547871 79.894827L185.982281 435.860913z" fill="#E0EFFB" /><path d="M700.372297 733.491093l-0.390207 127.207392-300.068972-173.251786 0.390207-127.207393 300.068972 173.251787z" fill="#B8D9F6" /><path d="M700.372297 733.491093L837.920168 653.596266l-0.390207 127.109841-137.547871 79.992378 0.390207-127.207392z" fill="#99C9F2" /><path d="M400.303325 560.239306l137.547871-79.894827L837.920168 653.596266l-137.547871 79.894827-300.068972-173.251787z" fill="#E0EFFB" /><path d="M486.539011 418.008955l-0.390207 127.207393L186.079832 371.964561l0.390207-127.207392L486.539011 418.008955z" fill="#B8D9F6" /><path d="M486.539011 418.008955L624.086882 338.114128l-0.390207 127.207392-137.547871 79.894828 0.390207-127.207393z" fill="#99C9F2" /><path d="M186.470039 244.757169l137.547871-79.894827L624.086882 338.114128l-137.547871 79.894827L186.470039 244.757169z" fill="#E0EFFB" /><path d="M700.957607 541.802039l-0.390207 127.207392-171.495856-99.014956 0.390207-127.109841 171.495856 98.917405z" fill="#B8D9F6" /><path d="M700.957607 541.802039l137.450319-79.894827-0.292655 127.207392-137.547871 79.894827 0.390207-127.207392z" fill="#99C9F2" /><path d="M529.461751 442.884634l137.547871-79.992379 171.398304 99.014957-137.450319 79.894827L529.461751 442.884634z" fill="#E0EFFB" /><path d="M358.453653 178.909784l-0.390206 107.892159L186.665142 187.786987 186.957797 79.894827l171.495856 99.014957z" fill="#B8D9F6" /><path d="M358.453653 178.909784l137.45032-79.894827-0.292655 107.794608-137.547871 79.992378 0.390206-107.892159z" fill="#99C9F2" /><path d="M186.957797 79.894827L324.408117 0l171.495856 99.014957-137.45032 79.894827L186.957797 79.894827z" fill="#E0EFFB" /><path d="M701.347814 376.939697l-0.292655 107.89216-314.40907-181.543679 0.390207-107.89216 314.311518 181.543679z" fill="#B8D9F6" /><path d="M701.347814 376.939697l137.54787-79.894827-0.292655 107.794608-137.54787 79.992379 0.292655-107.89216z" fill="#99C9F2" /><path d="M387.036296 195.396018l137.450319-79.894827 314.409069 181.543679-137.54787 79.894827L387.036296 195.396018z" fill="#E0EFFB" /><path d="M312.604363 808.020577L543.509193 941.373726c48.775841 0 80.382586-27.802229 80.480137-79.504621a200.956464 200.956464 0 0 0-21.266266-83.504239 241.34286 241.34286 0 0 1-13.949891-74.431933A231.392588 231.392588 0 0 1 601.552444 624.330761a28.289988 28.289988 0 0 0 3.804515-15.218062 62.920835 62.920835 0 0 0-6.731066-26.534057c1.268172 11.120892-2.438792 19.510336-9.755168 21.949128a70.724969 70.724969 0 0 0-23.997714 12.19396 101.941507 101.941507 0 0 0-30.143469 41.264361l-4.487378 12.584167a4.097171 4.097171 0 0 1-4.09717 3.609412 7.316376 7.316376 0 0 1-3.706964-1.073068 17.754406 17.754406 0 0 1-7.218825-9.169858l-7.121272-17.169096A313.726207 313.726207 0 0 1 477.75936 519.170049a150.229589 150.229589 0 0 1 16.973992-73.846623c-69.944556-17.266648-121.25674 26.729161-121.549395 113.940364v11.413546q-0.682862 64.189006-40.971706 41.16681l-1.853482-0.975517a64.774316 64.774316 0 0 1-29.265504-47.897875c1.951034-45.946842 12.876822-81.943412 30.338573-106.038678-58.531009-7.023721-101.161094 49.653806-101.453749 145.742212a299.288559 299.288559 0 0 0 4.877584 55.506907c7.121273 47.117462 36.094122 101.258645 77.74869 149.839382z" fill="#5CA8EA" /></svg>