<?xml version="1.0" standalone="no"?><!DOCTYPE svg PUBLIC "-//W3C//DTD SVG 1.1//EN" "http://www.w3.org/Graphics/SVG/1.1/DTD/svg11.dtd"><svg class="icon" width="48px" height="48.00px" viewBox="0 0 1024 1024" version="1.1" xmlns="http://www.w3.org/2000/svg"><path d="M208.952504 754.750856l-1.137672-438.003888L573.576521 111.871123l1.042866 438.098695-365.666883 204.781038z" fill="#99C9F2" /><path d="M207.814832 754.750856L15.263772 642.879733 14.220905 204.781039l192.551061 111.965929 1.042866 438.003888z" fill="#B8D9F6" /><path d="M165.626146 390.695676L45.69651 320.823627l-0.284419-29.579483 119.929637 69.872049 0.284418 29.579483zM165.626146 456.206648L45.69651 386.334599l-0.284419-29.579484L165.341728 426.627164l0.284418 29.579484zM165.626146 669.330618L45.69651 599.458569l-0.284419-29.579484 119.929637 69.872049 0.284418 29.579484zM64.278493 464.928803l-18.676789-10.713082-0.189613-26.166466 18.581984 10.807888 0.284418 26.07166zM98.029442 484.932877l-18.581983-10.713083-0.284419-26.07166 18.581984 10.713083 0.284418 26.07166zM131.875197 504.178502l-18.676789-10.807888-0.284419-26.07166 18.67679 10.713082 0.284418 26.166466zM165.626146 523.992964L146.949357 513.185075l-0.284419-26.07166 18.67679 10.713083 0.284418 26.166466z" fill="#5CA8EA" /><path d="M207.909638 317.315804L14.220905 204.781039 379.982594 0l192.55106 111.871123-364.624016 205.444681z" fill="#E0EFFB" /><path d="M426.532358 889.375428l-1.042866-438.003888L791.156374 246.495695l1.042867 438.098694-365.666883 204.781039z" fill="#99C9F2" /><path d="M425.489492 889.375428l-192.645866-111.871123-1.042867-438.098694 192.55106 111.965929 1.137673 438.003888z" fill="#B8D9F6" /><path d="M383.205999 525.320248l-119.929636-69.872049-0.284418-29.579483 119.929636 69.872049 0.284418 29.579483zM383.205999 590.831219l-119.929636-69.872049-0.284418-29.484677 119.929636 69.777243 0.284418 29.579483zM383.205999 803.955189l-119.929636-69.872049-0.284418-29.579483 119.929636 69.872049 0.284418 29.579483zM281.858346 599.553375l-18.581983-10.713082-0.284418-26.166467 18.581983 10.807889 0.284418 26.07166zM315.704101 619.652254l-18.676789-10.807888-0.284418-26.07166 18.676789 10.713082 0.284418 26.166466zM349.45505 638.803074l-18.676789-10.807888-0.284418-26.07166 18.676789 10.713082 0.284418 26.166466zM383.205999 658.617535l-18.676789-10.807888-0.189612-26.07166 18.581983 10.713082 0.284418 26.166466z" fill="#5CA8EA" /><path d="M425.489492 451.940376L231.800759 339.405611l365.761689-204.781039L790.113508 246.495695 425.489492 451.940376z" fill="#E0EFFB" /><path d="M644.112212 1024l-1.042867-438.003889 365.666883-204.781038 1.042867 438.003888-365.666883 204.781039z" fill="#99C9F2" /><path d="M643.069345 1024l-192.645866-111.871123-1.042866-438.003889 192.55106 111.871123 1.137672 438.003889z" fill="#B8D9F6" /><path d="M600.785853 659.94482l-119.929636-69.872049-0.284418-29.579483 119.929636 69.872049 0.284418 29.579483zM600.785853 725.455791l-119.929636-69.872049-0.284418-29.579483 119.929636 69.966855 0.284418 29.484677zM600.785853 938.579761l-119.929636-69.872049-0.284418-29.579483 119.929636 69.872049 0.284418 29.579483zM499.4382 734.177946l-18.581983-10.713082-0.284418-26.07166 18.581983 10.713082 0.284418 26.07166zM533.283955 754.276826l-18.676789-10.807888-0.284418-26.07166 18.676789 10.713082 0.284418 26.166466zM567.034904 773.427646l-18.676789-10.807889-0.284418-26.07166 18.676789 10.713083 0.284418 26.166466zM600.785853 793.242107l-18.581983-10.713082-0.284418-26.166466 18.581983 10.713082 0.284418 26.166466z" fill="#5CA8EA" /><path d="M643.069345 586.659754L449.380613 474.124988 815.142302 269.249144l192.55106 111.965929-364.624017 205.444681z" fill="#E0EFFB" /></svg>