<?xml version="1.0" standalone="no"?><!DOCTYPE svg PUBLIC "-//W3C//DTD SVG 1.1//EN" "http://www.w3.org/Graphics/SVG/1.1/DTD/svg11.dtd"><svg class="icon" width="48px" height="48.00px" viewBox="0 0 1024 1024" version="1.1" xmlns="http://www.w3.org/2000/svg"><path d="M905.372424 647.628832L523.166763 428.974224l-73.347925 42.230624L830.357501 692.452564z" fill="#E0EFFB" /><path d="M118.178791 188.926472l380.538663 222.266437v612.807091L118.178791 801.733562V188.926472z" fill="#B8D9F6" /><path d="M830.26489 218.654608L447.874007 0 118.178791 188.926472l380.538663 221.247716z" fill="#E0EFFB" /><path d="M161.891191 358.960297v353.403635l23.245364 13.150765V372.01845l-23.245364-13.150764v0.092611zM226.348457 396.65298V750.149227l23.245365 13.058153V409.711133l-23.245365-13.058153zM290.713113 434.345663v353.496247l23.245365 13.058153V447.496428l-23.245365-13.150765zM355.077769 472.130958v353.403635l23.245365 13.150765V485.189111l-23.245365-13.150764v0.092611zM419.535036 509.823641v353.496247l23.245365 13.058153V522.881794l-23.245365-13.058153zM161.891191 295.521751v28.524193l23.245364 13.150764v-28.524193l-23.245364-13.150764zM226.348457 333.307045v28.524193l23.245365 13.058153V346.365199l-23.245365-13.150765v0.092611zM290.713113 370.999729v28.524192l23.245365 13.058154v-28.431582l-23.245365-13.150764zM355.077769 408.692412v28.524193l23.245365 13.150764v-28.524193l-23.245365-13.150764zM419.535036 446.477706v28.524193l23.245365 13.058153v-28.524192l-23.245365-13.150765v0.092611z" fill="#5CA8EA" /><path d="M159.668526 748.389617l280.889211 163.736276v45.194176L159.668526 793.583793v-45.101565z" fill="#5CA8EA" /><path d="M830.26489 693.471285V218.654608l-331.547436 192.075246v612.807091l406.747581-240.418197V647.628832l-75.200145 45.842453z" fill="#99C9F2" /></svg>