<?xml version="1.0" standalone="no"?><!DOCTYPE svg PUBLIC "-//W3C//DTD SVG 1.1//EN" "http://www.w3.org/Graphics/SVG/1.1/DTD/svg11.dtd"><svg class="icon" width="48px" height="48.00px" viewBox="0 0 1024 1024" version="1.1" xmlns="http://www.w3.org/2000/svg"><path d="M548.092588 992.27683l174.417583-101.394436c54.468085-31.60346 114.562544-90.381108 158.376432-192.733224 40.222586-93.73299 50.757073-218.710311 52.552724-306.936638l-174.417583 101.394436c-1.795651 88.226327-11.971008 213.203647-52.552724 306.936637-43.813888 102.352116-104.028057 161.129764-158.376432 192.733225z" fill="#99C9F2" /><path d="M598.610241 44.412439L264.259995 0 90.560673 100.915595l334.350246 44.532149 334.948796 342.610241 173.579612-100.915595L598.610241 44.412439z" fill="#B8D9F6" /><path d="M424.910919 151.672668L90.560673 107.739069a1451.364975 1451.364975 0 0 0 50.517653 365.235446c80.205752 283.353753 228.646247 500.507833 277.009118 543.36404a23.942015 23.942015 0 0 0 4.668693 3.471592 20.470423 20.470423 0 0 0 4.548983 1.915362c42.377367 11.971008 193.451485-19.153612 280.241291-221.822773 39.983166-93.37386 50.517653-217.75263 52.313304-305.619827z" fill="#E0EFFB" /></svg>