<?xml version="1.0" standalone="no"?><!DOCTYPE svg PUBLIC "-//W3C//DTD SVG 1.1//EN" "http://www.w3.org/Graphics/SVG/1.1/DTD/svg11.dtd"><svg class="icon" width="48px" height="35.46px" viewBox="0 0 1386 1024" version="1.1" xmlns="http://www.w3.org/2000/svg"><path d="M0 307.004264v433.028084C0 896.922217 310.467284 1023.849434 692.604029 1023.849434s692.604029-127.228349 692.604029-283.967652V307.004264z" fill="#99C9F2" /><path d="M0 307.907661a693.356859 307.907661 0 1 0 1386.713719 0 693.356859 307.907661 0 1 0-1386.713719 0Z" fill="#E0EFFB" /><path d="M617.320982 262.135568c4.968681-2.860756 7.377739-7.377739 5.42038-11.894721l-30.113219-68.357006c-4.065285-9.184532-23.187178-12.195854-34.479635-5.42038a31.167181 31.167181 0 0 1-29.059256 0L414.056756 107.654757a31.167181 31.167181 0 0 0-29.059256 0l-25.596235 15.056609a9.335098 9.335098 0 0 0 0 17.315101l114.731363 68.808704a9.335098 9.335098 0 0 1 0 17.465667c-11.292457 6.624908-6.17321 18.067931 9.033965 20.627555l114.129099 18.369063a30.113219 30.113219 0 0 0 20.02529-3.161888zM1027.312454 494.910748a9.335098 9.335098 0 0 0 0-17.465666l-114.580797-68.808705a9.335098 9.335098 0 0 1 0-17.465667c11.292457-6.775474 6.17321-18.067931-9.033965-20.627555l-114.279665-18.218497a30.113219 30.113219 0 0 0-19.874725 3.161888c-4.968681 2.860756-7.377739 7.377739-5.420379 11.894721l30.113219 68.357007c4.065285 9.184532 23.187178 12.195854 34.329069 5.570945a31.317747 31.317747 0 0 1 29.209822 0l114.580797 68.808705a31.167181 31.167181 0 0 0 29.059256 0zM359.401265 508.160565c-4.968681-2.860756-7.377739-7.377739-5.42038-11.894722l30.113219-68.357006c4.065285-9.184532 23.187178-12.195854 34.479635-5.420379a31.167181 31.167181 0 0 0 29.059256 0l114.731363-68.808705a31.167181 31.167181 0 0 1 29.059256 0l25.596236 15.056609a9.335098 9.335098 0 0 1 0 17.315101l-114.731363 68.808705a9.335098 9.335098 0 0 0 0 17.465666c11.292457 6.624908 6.17321 18.067931-9.033966 20.627555L379.275989 511.924717a30.113219 30.113219 0 0 1-19.874724-3.764152zM769.543302 246.928393a9.335098 9.335098 0 0 1 0-17.465667l114.580797-68.808705a9.335098 9.335098 0 0 0 0-17.465666c-11.292457-6.775474-6.17321-18.067931 9.033966-20.627555l114.129099-18.067931a30.113219 30.113219 0 0 1 19.874724 3.161888c4.968681 2.860756 7.377739 7.377739 5.420379 11.894721l-30.113218 68.357006c-4.065285 9.184532-23.187178 12.195854-34.32907 5.570946a31.317747 31.317747 0 0 0-29.209822 0l-114.580797 68.808704a31.167181 31.167181 0 0 1-29.059256 0z" fill="#5CA8EA" /></svg>