<?xml version="1.0" standalone="no"?><!DOCTYPE svg PUBLIC "-//W3C//DTD SVG 1.1//EN" "http://www.w3.org/Graphics/SVG/1.1/DTD/svg11.dtd"><svg class="icon" width="48px" height="44.32px" viewBox="0 0 1109 1024" version="1.1" xmlns="http://www.w3.org/2000/svg"><path d="M660.330123 0l13.247214 406.89254-29.878753-15.084419L660.330123 0zM941.325779 148.620208l13.247214 406.795845-29.878753-14.987724 16.631539-391.808121z" fill="#E0EFFB" /><path d="M0 563.151653l592.740321 320.543909v140.304438L0 703.456091v-140.207744z" fill="#B8D9F6" /><path d="M50.861568 637.316714l380.108026 206.54051v15.374504L50.861568 652.594523v-15.277809zM50.861568 681.506327l380.108026 206.54051v15.374504L50.861568 696.880831v-15.374504zM468.874032 863.002833l56.953352 31.715958v59.274032l-56.953352-31.619263v-59.370727z" fill="#5CA8EA" /><path d="M1105.610576 605.987535l-512.483475 277.708027v140.304438l512.483475-277.708026V605.987535z" fill="#99C9F2" /><path d="M1109.284986 606.08423L513.643815 290.084986 0 563.248347l592.740321 319.673655z" fill="#E0EFFB" /><path d="M715.63966 527.277809l-51.441737 29.975449-80.450237-46.510293 51.538433-29.878753 80.353541 46.413597zM612.756185 587.132011l-51.538432 29.878754-80.353541-46.413598 51.441737-29.878753 80.450236 46.413597zM369.471577 565.955807l-51.441738 29.878754-31.812653-18.372049c-26.881209-15.471199-26.977904-40.708593 0-56.179792l3.190935-1.837205zM575.431917 446.344098l-51.538433 29.878754-80.450236-46.413598 3.190935-1.837205a106.84797 106.84797 0 0 1 96.694995 0zM472.451747 506.101605l-51.441738 29.975449-80.450236-46.413598 51.538433-29.975448 80.353541 46.413597zM752.963928 668.065722l-51.441737 29.975449-80.450236-46.413598 51.441737-29.975448 80.450236 46.413597zM509.776015 646.986213L458.237583 676.864967l-80.353541-46.413598 51.441737-29.878753 80.450236 46.413597zM649.983758 727.919924l-3.190935 1.837205a106.364495 106.364495 0 0 1-96.694995 0l-31.812653-18.372049 51.441737-29.878753zM807.306516 580.169972c26.881209 15.471199 26.977904 40.708593 0 56.179792l-3.190935 1.837205-80.450236-46.413598 51.828517-29.975448z" fill="#5CA8EA" /></svg>