<?xml version="1.0" standalone="no"?><!DOCTYPE svg PUBLIC "-//W3C//DTD SVG 1.1//EN" "http://www.w3.org/Graphics/SVG/1.1/DTD/svg11.dtd"><svg class="icon" width="48px" height="48.00px" viewBox="0 0 1024 1024" version="1.1" xmlns="http://www.w3.org/2000/svg"><path d="M631.237997 301.379909a77.963524 77.963524 0 0 1 35.375084 61.264113l-1.778635 636.257454c0 22.529383-16.00772 31.620187-35.572711 19.762617L179.761011 759.576185A77.963524 77.963524 0 0 1 144.385927 698.312072L146.164562 62.15343C146.263375 39.525234 162.172282 30.533243 181.836086 41.797935z m-0.592879 591.396314l1.482196-533.590659L180.551516 98.813085l-1.482196 533.590659 451.575798 260.767731m-225.985525-35.869149c16.00772 9.28843 29.643926 1.877449 29.643925-16.600599A63.932066 63.932066 0 0 0 404.758406 790.50468c-16.106533-9.28843-29.643926-1.877449-29.643926 16.600598a63.932066 63.932066 0 0 0 29.051047 50.197048" fill="#E0EFFB" /><path d="M631.237997 301.379909a77.963524 77.963524 0 0 1 35.375084 61.264113l-1.778635 636.257454c0 22.529383-16.00772 31.620187-35.572711 19.762617L179.761011 759.576185A77.963524 77.963524 0 0 1 144.385927 698.312072L146.164562 62.15343C146.263375 39.525234 162.172282 30.533243 181.836086 41.797935z m-0.592879 591.396314l1.482196-533.590659L180.551516 98.813085l-1.482196 533.590659 451.575798 260.767731m-225.985525-35.869149c16.00772 9.28843 29.643926 1.877449 29.643925-16.600599A63.932066 63.932066 0 0 0 404.758406 790.50468c-16.106533-9.28843-29.643926-1.877449-29.643926 16.600598a63.932066 63.932066 0 0 0 29.051047 50.197048" fill="#E0EFFB" /><path d="M664.834446 998.802663l-0.691692 7.806234-2.075075 6.521664-3.359645 4.940654-4.347775 3.557271-5.237094 1.976262-6.027598 0.296439-6.71929-1.482196-7.114542-3.359645L179.761011 759.576185l-7.114542-4.940655-6.71929-6.225224-6.027598-7.213355-5.237093-8.00386-4.248963-8.596739-3.260832-8.794364-2.075075-8.794365-0.691691-8.695551 1.778635-636.158642 0.790505-7.806233 2.075075-6.521664 3.260832-5.039467 4.347775-3.458458 5.335907-1.976262 6.027598-0.296439 6.620477 1.482196 7.213355 3.260832L631.237997 301.379909l7.213355 4.940655 6.620477 6.225224 6.027598 7.213355 5.237093 8.00386 4.347776 8.497925 3.260832 8.893178 1.976262 8.794365 0.691691 8.695551-1.778635 636.158641" fill="#E0EFFB" /><path d="M730.248708 324.008106V312.051722l-0.494066-1.877448v-1.877449l-2.964392-1.976261-0.592879-1.778636v-1.778636l-0.691691-1.679822-0.494066-1.185757v-0.494065l-0.790504-1.679823-0.889318-1.877448-0.790505-1.482197-0.988131-1.778635-0.494065-0.988131-0.988131-1.482196L717.50182 286.557947l-2.075075-2.964393-1.581009-2.075075-1.28457-1.581009-1.383384-1.58101-1.383383-1.482196-0.988131-0.988131-1.482196-1.482196-0.691691-0.691692-1.58101-1.383383-0.691691-0.592878h-0.494066l-1.581009-1.185757-3.656084-3.754897-1.482197-0.988131-1.482196-0.889318L245.3729 4.841841l-1.086944-0.592878L243.199012 3.458458h-1.778636L239.93818 2.173888 238.554797 1.679822h-4.347776L232.626012 0h-7.608608L223.436395 1.086944a17.094664 17.094664 0 0 0-2.766767 1.28457L156.539936 39.525234a17.094664 17.094664 0 0 1 2.766767-1.28457l2.173888-0.592879h9.584869l2.964392 0.790505 4.051337 1.086944 3.557271 1.778636 449.599537 260.076039 3.557271 2.272701 3.656084 2.667954 2.964392 2.667953 2.964393 2.964392 3.952523 4.248963 2.86558 3.656084 2.371514 3.458458 1.482196 2.272701 1.185757 1.877449 0.494066 0.988131 1.778635 3.260831 1.976262 4.15015q0.889318 2.075075 1.679822 4.051336 0.790505 2.075075 1.383384 4.248963 0.592879 2.075075 1.086943 4.051337c0 1.383383 0.592879 2.766766 0.790505 4.150149 0 1.383383 0 2.766766 0.494066 4.15015v4.051336l-1.778636 636.257455v7.213355q0 1.581009-0.790505 2.964392v0.494066a25.987841 25.987841 0 0 1-0.988131 2.56914 22.331757 22.331757 0 0 1-1.383383 2.56914c-0.691692 1.086944 57.509215-31.027309 57.509216-31.027308a17.094664 17.094664 0 0 0 2.964392-2.272701l0.691692-0.592879a19.169738 19.169738 0 0 0 2.470327-3.063206 22.232944 22.232944 0 0 0 1.383383-2.470327l0.691692-1.581009v-6.225224-1.679823-1.679822L730.248708 326.083181v-2.075075z" fill="#99C9F2" /><path d="M404.659593 857.302326c16.00772 9.28843 29.643926 1.877449 29.643925-16.600599A63.932066 63.932066 0 0 0 404.758406 790.50468c-16.106533-9.28843-29.643926-1.877449-29.643926 16.600598a63.932066 63.932066 0 0 0 29.051047 50.197048M630.645118 892.776223l1.58101-533.393033L180.551516 98.615459l-1.482196 533.393033 451.575798 260.767731" fill="#5CA8EA" /></svg>