<?xml version="1.0" standalone="no"?><!DOCTYPE svg PUBLIC "-//W3C//DTD SVG 1.1//EN" "http://www.w3.org/Graphics/SVG/1.1/DTD/svg11.dtd"><svg class="icon" width="48px" height="46.02px" viewBox="0 0 1068 1024" version="1.1" xmlns="http://www.w3.org/2000/svg"><path d="M944.5070807 913.875H114.14376772a21.25835047 21.25835047 0 0 1-21.17331712-19.22969613c-4.19093179-44.83689807-11.21226169-163.73788852 14.18843079-299.28113086C122.65925608 512.67526401 147.70766645 437.01983194 181.59955075 370.48726959c41.77569562-81.98434643 97.36324502-150.70348279 165.20775129-204.28667358 50.94715512-40.22079868 109.1221496-72.12047223 172.89720017-94.75150424a21.27049832 21.27049832 0 0 1 13.36239212-0.27939579c60.9932439 18.91385761 116.98166519 46.683337 166.42251397 82.60387565 297.19173806 215.47463955 273.88043839 654.85437204 266.1909895 740.73810828a21.25835047 21.25835047 0 0 1-21.1733171 19.36332009zM133.73789299 871.35829907h791.11432479c3.12194092-49.59876847 5.85515698-157.22675958-16.89735196-276.38285009-15.56111233-81.51058906-40.3665705-155.1130719-73.74825384-218.77879422C793.65782692 298.75552139 739.90456941 235.44208035 674.61106464 188.05417996c-43.85293972-31.81463937-93.36667483-56.76586936-147.28999905-74.22201123-56.77801721 20.94251194-108.59980161 49.80527793-154.12911355 85.70152085-63.00975037 49.80527793-114.71005866 113.75039603-153.67965188 190.2197189-32.02114966 62.90042212-55.81835458 134.70505582-70.56557612 213.34880402C127.57904533 717.19274277 130.08145704 818.91698547 133.73789299 871.35829907z" fill="#2c2c2c" /><path d="M297.00202412 766.90083948h464.47673429c4.06945568-31.15866742 27.16209805-232.2262197-110.883556-366.77335583-40.69455606-39.67415579-84.89977789-63.31344104-121.35481155-77.74482403a381.98218689 381.98218689 0 0 0-117.01810796 79.06891579c-135.71330905 135.05733711-118.90099045 329.90530243-115.22025878 365.44926407z" fill="#4169E1" /><path d="M761.47875841 788.15918995H297.00202412a21.25835047 21.25835047 0 0 1-21.14902222-19.07177728 563.90507557 563.90507557 0 0 1 5.53931928-151.27442139c16.39929886-93.41526545 55.36889209-171.28156558 115.80334525-231.46091868a402.56027051 402.56027051 0 0 1 123.52923688-83.41776727 21.25835047 21.25835047 0 0 1 16.32641335-0.29154282c49.06427261 19.37546796 92.32197885 47.04776614 128.38828848 82.25159436a376.91662582 376.91662582 0 0 1 80.68455039 116.16777439c16.16849368 36.00557199 27.68444604 75.67972696 34.21986987 117.92917996a547.48148182 547.48148182 0 0 1 2.22301593 150.63059729 21.25835047 21.25835047 0 0 1-21.08828292 18.53728144z m-444.90690473-42.51670093h425.78653683a517.57401983 517.57401983 0 0 0-4.0451608-120.11575315c-13.36239129-86.11454059-47.82521421-156.82588769-102.56242923-210.15397842a341.05682566 341.05682566 0 0 0-106.09738989-69.80027508 358.57370681 358.57370681 0 0 0-102.45310098 70.94215227c-54.10553879 53.83829087-89.07856183 124.05158486-103.92296457 208.65981995a524.46172494 524.46172494 0 0 0-6.70549136 120.46803443z" fill="#2c2c2c" /><path d="M507.86056428 322.41910236h42.51670092v444.48173712h-42.51670092z" fill="#2c2c2c" /></svg>