<?xml version="1.0" standalone="no"?><!DOCTYPE svg PUBLIC "-//W3C//DTD SVG 1.1//EN" "http://www.w3.org/Graphics/SVG/1.1/DTD/svg11.dtd"><svg class="icon" width="48px" height="48.00px" viewBox="0 0 1024 1024" version="1.1" xmlns="http://www.w3.org/2000/svg"><path d="M891.813084 1015.52648H156.809969c-64.697819 0-117.433022-52.635514-117.433022-117.433022V117.433022c0-64.797508 52.735202-117.433022 117.433022-117.433022h533.433022c64.697819 0 117.433022 52.635514 117.433021 117.433022v168.274143H891.813084c64.697819 0 117.433022 52.635514 117.433022 117.433022v495.052959c0 64.598131-52.635514 117.333333-117.433022 117.333334zM156.809969 77.557632c-21.931464 0-39.775701 17.844237-39.775701 39.775701v780.660436c0 21.931464 17.844237 39.775701 39.775701 39.775701H891.813084c21.931464 0 39.775701-17.844237 39.775701-39.775701V403.040498c0-21.931464-17.844237-39.775701-39.775701-39.7757h-84.137072v430.155763h-77.557632V117.433022c0-21.931464-17.844237-39.775701-39.775701-39.775701H156.809969z" fill="#27282A" /><path d="M223.601246 599.52648h396.161994v82.94081H223.601246zM223.601246 445.009346h396.161994v82.94081H223.601246zM223.601246 754.143302h396.161994v82.94081H223.601246z" fill="#27282A" /><path d="M223.601246 208.548287h127.003115v127.003115H223.601246zM410.915888 208.548287H537.919003v127.003115H410.915888z" fill="#4169E1" /></svg>