<?xml version="1.0" standalone="no"?><!DOCTYPE svg PUBLIC "-//W3C//DTD SVG 1.1//EN" "http://www.w3.org/Graphics/SVG/1.1/DTD/svg11.dtd"><svg class="icon" width="48px" height="48.00px" viewBox="0 0 1024 1024" version="1.1" xmlns="http://www.w3.org/2000/svg"><path d="M512 418.886151m-201.872844 0a201.872844 201.872844 0 1 0 403.745688 0 201.872844 201.872844 0 1 0-403.745688 0Z" fill="#4169E1" /><path d="M512 0C289.43519 0 108.254312 181.180877 108.254312 403.745688c0 76.206999 19.682602 149.890586 56.524397 212.471168 35.83243 60.814194 87.814687 110.525382 149.890586 143.834401v28.76688c0.252341 46.935436 38.103499 84.786594 84.786595 84.786594h225.08822c46.935436-0.252341 84.786594-38.103499 84.786595-84.786594v-28.76688c62.328241-33.309019 114.058157-83.020207 149.890586-143.834401 36.841794-62.580582 56.524396-136.011828 56.524397-212.471168C915.745688 181.180877 734.56481 0 512 0z m131.217348 687.377033c-17.663874 7.822573-28.76688 25.234105-28.262198 44.412026V756.266141c0 12.617053-10.345983 22.963036-22.963036 22.963036h-159.984228c-12.617053 0-22.963036-10.345983-22.963036-22.963036v-23.720059-0.757023c0.504682-19.17792-10.598324-36.841794-28.262198-44.412026-109.768359-47.9448-178.152785-156.703795-178.152785-283.631345C202.629867 232.910793 341.165106 94.375554 512 94.375554S821.370133 232.910793 821.370133 403.745688c0 126.927551-68.132085 235.686545-178.152785 283.631345zM612.936422 923.063578h-201.872844c-27.757516 0-50.468211 22.710695-50.468211 50.468211s22.710695 50.468211 50.468211 50.468211h201.872844c27.757516 0 50.468211-22.710695 50.468211-50.468211s-22.710695-50.468211-50.468211-50.468211z" fill="#0D0A16" /></svg>