<?xml version="1.0" standalone="no"?><!DOCTYPE svg PUBLIC "-//W3C//DTD SVG 1.1//EN" "http://www.w3.org/Graphics/SVG/1.1/DTD/svg11.dtd"><svg class="icon" width="48px" height="48.00px" viewBox="0 0 1024 1024" version="1.1" xmlns="http://www.w3.org/2000/svg"><path d="M512 1024C229.228475 1024 0 794.771525 0 512S229.228475 0 512 0s512 229.228475 512 512-229.228475 512-512 512z m0-43.389831c258.807322 0 468.610169-209.802847 468.610169-468.610169S770.807322 43.389831 512 43.389831 43.389831 253.192678 43.389831 512s209.802847 468.610169 468.610169 468.610169z" fill="#2c2c2c" /><path d="M452.976814 506.984136c-55.556339 23.72122-99.649085 79.832949-118.784 150.961898-6.703729 24.905763 362.725966 25.586983 355.605694 0-20.119864-72.296136-66.108746-130.156475-123.600271-152.862373 19.863864-16.384 32.507661-41.04678 32.507661-68.634034 0-49.334237-40.430644-89.330983-90.307254-89.330983s-90.311593 39.992407-90.311593 89.330983c0 28.672 13.659119 54.189559 34.889763 70.534509zM512 837.423729c-179.725017 0-325.423729-145.698712-325.423729-325.423729s145.698712-325.423729 325.423729-325.423729 325.423729 145.698712 325.423729 325.423729-145.698712 325.423729-325.423729 325.423729z" fill="#4169E1" /><path d="M633.877695 127.205966A69.250169 69.250169 0 0 1 685.559322 104.135593c38.343593 0 69.423729 31.080136 69.423729 69.423729 0 5.159051-0.564068 10.183593-1.627119 15.021559C851.79878 262.161356 915.525424 379.639322 915.525424 512c0 222.858847-180.666576 403.525424-403.525424 403.525424s-403.525424-180.666576-403.525424-403.525424 180.666576-403.525424 403.525424-403.525424c42.478644 0 83.421288 6.564881 121.877695 18.73139z m-17.460068 40.031458A360.135593 360.135593 0 0 0 512 151.864407c-198.898983 0-360.135593 161.23661-360.135593 360.135593s161.23661 360.135593 360.135593 360.135593 360.135593-161.23661 360.135593-360.135593c0-116.519051-55.335051-220.107932-141.155796-285.938983A69.154712 69.154712 0 0 1 685.559322 242.983051c-38.343593 0-69.423729-31.080136-69.423729-69.423729 0-2.130441 0.095458-4.239186 0.282034-6.321898zM685.559322 212.610169a39.050847 39.050847 0 1 0 0-78.101694 39.050847 39.050847 0 0 0 0 78.101694z" fill="#2c2c2c" /><path d="M147.525424 876.474576m-86.779661 0a86.779661 86.779661 0 1 0 173.559322 0 86.779661 86.779661 0 1 0-173.559322 0Z" fill="#2c2c2c" /><path d="M147.525424 876.474576m-52.067797 0a52.067797 52.067797 0 1 0 104.135593 0 52.067797 52.067797 0 1 0-104.135593 0Z" fill="#2c2c2c" /></svg>