<?xml version="1.0" standalone="no"?><!DOCTYPE svg PUBLIC "-//W3C//DTD SVG 1.1//EN" "http://www.w3.org/Graphics/SVG/1.1/DTD/svg11.dtd"><svg class="icon" width="48px" height="48.00px" viewBox="0 0 1024 1024" version="1.1" xmlns="http://www.w3.org/2000/svg"><path d="M692.853448 97.880885L249.971285 355.982928l-0.510258 245.94458 94.420001 54.531101 0.510258-245.944581L787.273449 152.411985l-94.420001-54.5311z" fill="#4169E1" /><path d="M961.670919 278.689863v-1.397665-1.46422c0-0.488073 0-1.020517-0.155296-1.50859s0-0.953961-0.133111-1.419849-0.155296-0.998332-0.244037-1.508591-0.155296-0.909591-0.244036-1.353294-0.221852-1.042702-0.354963-1.55296-0.177481-0.865221-0.288407-1.286739-0.332777-1.020517-0.488073-1.552961-0.221852-0.798665-0.354962-1.197998l-0.598999-1.575146c-0.155296-0.377148-0.266222-0.754295-0.421518-1.131442s-0.488073-1.042702-0.73211-1.575146-0.288407-0.68774-0.465888-1.042702-0.576814-1.064887-0.865221-1.619516l-0.488074-0.909591c-0.310592-0.554629-0.665555-1.087072-0.998331-1.619516l-0.510259-0.820851c-0.377148-0.554629-0.77648-1.087072-1.175813-1.641701l-0.510258-0.68774c-0.399333-0.554629-0.843036-1.064887-1.264554-1.575145l-0.554629-0.665555c-0.465888-0.532444-0.953961-1.064887-1.442034-1.575146l-0.532444-0.554628c-0.532444-0.554629-1.109258-1.064887-1.708257-1.597331l-0.399332-0.377148c-0.598999-0.532444-1.242368-1.042702-1.885738-1.55296l-0.377148-0.310592c-0.68774-0.532444-1.41985-1.042702-2.218515-1.552961l-0.221851-0.155296c-0.820851-0.554629-1.663886-1.087072-2.529108-1.575146l-405.988257-234.386117a44.370301 44.370301 0 0 0-44.370301 0L85.734615 240.398293l-1.109258 0.687739-1.331109 0.820851-1.064887 0.77648c-0.443703 0.310592-0.887406 0.621184-1.308924 0.953962l-0.998332 0.798665-1.242368 1.042702L77.858886 246.255173l-1.197998 1.131442L75.640371 248.473688c-0.377148 0.399333-0.754295 0.798665-1.109257 1.220183l-0.776481 0.953961-1.042702 1.264554c-0.266222 0.332777-0.488073 0.68774-0.73211 1.020517s-0.643369 0.865221-0.931776 1.331109-0.443703 0.709925-0.665555 1.042702l-0.865221 1.375479c-0.199666 0.377148-0.377148 0.754295-0.576813 1.109258l-0.776481 1.41985-0.510258 1.175813c-0.221852 0.465888-0.465888 0.953961-0.665555 1.442034s-0.310592 0.820851-0.465888 1.220184l-0.554629 1.46422-0.399332 1.286738c-0.155296 0.488073-0.310592 0.976147-0.443703 1.486405s-0.199666 0.887406-0.310592 1.331109-0.244037 0.976147-0.354963 1.486406-0.155296 0.909591-0.221851 1.375479-0.199666 0.976147-0.266222 1.486405l-0.133111 1.442035c0 0.488073 0 0.976147-0.155296 1.46422s0 0.976147 0 1.46422v1.397664L62.329281 745.110471a44.370301 44.370301 0 0 0 22.18515 38.557792l405.988258 234.386117a44.370301 44.370301 0 0 0 15.019347 5.346621c1.41985 0.221852 2.861884 0.421518 4.303919 0.510258h6.810841c0.598999 0 1.197998 0 1.796998-0.177481l1.264553-0.199666c0.532444 0 1.064887-0.155296 1.575146-0.266222l1.331109-0.310592c0.488073-0.110926 0.998332-0.199666 1.486405-0.332777l1.353294-0.421518 1.41985-0.421518 1.331109-0.488073 1.419849-0.532444 1.242369-0.576814c0.488073-0.199666 0.953961-0.399333 1.442035-0.643369l1.153628-0.598999 1.375479-0.754295 403.326039-234.386117a44.370301 44.370301 0 0 0 22.185151-38.225015l1.308924-466.487163v-0.199667zM511.423286 95.640185l317.35858 183.249344-159.533418 92.711745-155.296055 90.271378-317.247655-183.249345zM152.179141 355.472669l182.62816 105.446022 134.73042 77.803323-1.020517 364.213619L151.069883 719.664103z m719.508807 364.191434l-314.430141 182.739086 0.510259-178.479537 0.510258-185.201638 314.452326-182.739086z" fill="#0D0A16" /></svg>