<?xml version="1.0" standalone="no"?><!DOCTYPE svg PUBLIC "-//W3C//DTD SVG 1.1//EN" "http://www.w3.org/Graphics/SVG/1.1/DTD/svg11.dtd"><svg class="icon" width="48px" height="48.00px" viewBox="0 0 1024 1024" version="1.1" xmlns="http://www.w3.org/2000/svg"><path d="M512 25.6a486.4 486.4 0 0 1 436.6848 700.928 25.6 25.6 0 0 1-45.9264-22.6304A435.2 435.2 0 1 0 512 947.2a433.0496 433.0496 0 0 0 256.2048-83.3536 25.6 25.6 0 1 1 30.208 41.3696A484.2496 484.2496 0 0 1 512 998.4a486.4 486.4 0 0 1 0-972.8z" fill="#ffffff" /><path d="M665.6 665.6m-102.4 0a102.4 102.4 0 1 0 204.8 0 102.4 102.4 0 1 0-204.8 0Z" fill="#ffffff" fill-opacity=".5" /><path d="M358.4 358.4m-102.4 0a102.4 102.4 0 1 0 204.8 0 102.4 102.4 0 1 0-204.8 0Z" fill="#ffffff" fill-opacity=".5" /><path d="M665.6 537.6a128 128 0 1 0 0 256 128 128 0 0 0 0-256z m0 51.2a76.8 76.8 0 1 1 0 153.6 76.8 76.8 0 0 1 0-153.6zM358.4 230.4a128 128 0 1 0 0 256 128 128 0 0 0 0-256z m0 51.2a76.8 76.8 0 1 1 0 153.6 76.8 76.8 0 0 1 0-153.6z" fill="#ffffff" /><path d="M734.9248 289.0752a25.6 25.6 0 0 1 2.9184 32.6656l-2.9184 3.584-409.6 409.6a25.6 25.6 0 0 1-39.168-32.6656l2.9184-3.584 409.6-409.6a25.6 25.6 0 0 1 32.6656-2.9184l3.584 2.9184z" fill="#ffffff" /></svg>