<?xml version="1.0" standalone="no"?><!DOCTYPE svg PUBLIC "-//W3C//DTD SVG 1.1//EN" "http://www.w3.org/Graphics/SVG/1.1/DTD/svg11.dtd"><svg class="icon" width="48px" height="48.00px" viewBox="0 0 1024 1024" version="1.1" xmlns="http://www.w3.org/2000/svg"><path d="M921.6 76.8a76.8 76.8 0 0 1 76.4416 69.4272L998.4 153.6v101.0176a25.6 25.6 0 0 1-50.7904 4.608L947.2 254.6176V153.6a25.6 25.6 0 0 0-20.992-25.1904L921.6 128h-819.2a25.6 25.6 0 0 0-25.1904 20.992L76.8 153.6v716.8a25.6 25.6 0 0 0 20.992 25.1904L102.4 896h819.2a25.6 25.6 0 0 0 25.1904-20.992L947.2 870.4V412.9792a25.6 25.6 0 0 1 50.7904-4.608l0.4096 4.608V870.4a76.8 76.8 0 0 1-69.4272 76.4416L921.6 947.2h-819.2a76.8 76.8 0 0 1-76.4416-69.4272L25.6 870.4v-716.8A76.8 76.8 0 0 1 95.0272 77.1584L102.4 76.8h819.2z" fill="#ffffff" /><path d="M287.5392 257.0752m51.2 0l204.8 0q51.2 0 51.2 51.2l0 102.4q0 51.2-51.2 51.2l-204.8 0q-51.2 0-51.2-51.2l0-102.4q0-51.2 51.2-51.2Z" fill="#ffffff" fill-opacity=".5" /><path d="M430.0288 563.2m51.2 0l204.8 0q51.2 0 51.2 51.2l0 102.4q0 51.2-51.2 51.2l-204.8 0q-51.2 0-51.2-51.2l0-102.4q0-51.2 51.2-51.2Z" fill="#ffffff" fill-opacity=".5" /><path d="M543.5392 233.7792h-204.8c-41.1648 0-74.496 33.3312-74.496 74.496v102.4c0 41.1136 33.3312 74.4448 74.496 74.4448h204.8c41.1136 0 74.4448-33.3312 74.4448-74.4448v-102.4c0-41.1648-33.3312-74.496-74.4448-74.496z m-204.8 46.5408h204.8c15.36 0 27.904 12.4928 27.904 27.9552v102.4a27.904 27.904 0 0 1-27.904 27.904h-204.8a27.904 27.904 0 0 1-27.9552-27.904v-102.4c0-15.4624 12.4928-27.9552 27.9552-27.9552zM686.0288 539.904h-204.8c-41.1648 0-74.496 33.3824-74.496 74.496v102.4c0 41.1136 33.3312 74.496 74.496 74.496h204.8c41.1136 0 74.4448-33.3824 74.4448-74.496v-102.4c0-41.1136-33.3312-74.496-74.4448-74.496z m-204.8 46.592h204.8c15.36 0 27.904 12.4928 27.904 27.904v102.4a27.904 27.904 0 0 1-27.904 27.904h-204.8a27.904 27.904 0 0 1-27.9552-27.904v-102.4c0-15.4112 12.4928-27.904 27.9552-27.904z" fill="#ffffff" /><path d="M206.1312 333.568a25.6 25.6 0 0 1 4.608 50.7904l-4.608 0.4096h-27.8528a25.6 25.6 0 0 1-4.608-50.7904l4.608-0.4096h27.8528zM844.8 640a25.6 25.6 0 0 1 4.608 50.7904L844.8 691.2h-26.4704a25.6 25.6 0 0 1-4.608-50.7904l4.608-0.4096H844.8zM843.8784 333.568a25.6 25.6 0 0 1 4.608 50.7904l-4.608 0.4096h-171.8784a25.6 25.6 0 0 1-4.608-50.7904l4.608-0.4096h171.8784zM349.2352 640.768a25.6 25.6 0 0 1 4.608 50.7904l-4.608 0.4096H178.2784a25.6 25.6 0 0 1-4.608-50.7904l4.608-0.4096h171.008z" fill="#ffffff" /></svg>