<?xml version="1.0" standalone="no"?><!DOCTYPE svg PUBLIC "-//W3C//DTD SVG 1.1//EN" "http://www.w3.org/Graphics/SVG/1.1/DTD/svg11.dtd"><svg class="icon" width="48px" height="48.00px" viewBox="0 0 1024 1024" version="1.1" xmlns="http://www.w3.org/2000/svg"><path d="M512 255.8464m-230.4 0a230.4 230.4 0 1 0 460.8 0 230.4 230.4 0 1 0-460.8 0Z" fill="#ffffff" fill-opacity=".5" /><path d="M512 435.2c136.192 0 261.9392 62.976 343.8592 168.448a25.6 25.6 0 1 1-40.448 31.3856A384 384 0 0 0 128 870.4a25.6 25.6 0 0 0 21.0432 25.1904l4.608 0.4096h398.7968a25.6 25.6 0 0 1 4.608 50.7904l-4.608 0.4096H153.6a76.8 76.8 0 0 1-76.8-76.8 435.2 435.2 0 0 1 435.2-435.2z m422.4 329.984c8.448 34.1504 12.8 69.4272 12.8 105.216a76.8 76.8 0 0 1-69.4272 76.4416l-7.3728 0.3584h-72.3456a25.6 25.6 0 0 1-4.608-50.7904l4.608-0.4096H870.4a25.6 25.6 0 0 0 25.6-25.6c0-31.6416-3.84-62.7712-11.264-92.8768a25.6 25.6 0 1 1 49.664-12.3392z" fill="#ffffff" /><path d="M512 25.4464a230.4 230.4 0 1 1 0 460.8 230.4 230.4 0 0 1 0-460.8z m0 51.2a179.2 179.2 0 1 0 0 358.4 179.2 179.2 0 0 0 0-358.4z" fill="#ffffff" /><path d="M586.9056 649.0624a76.8 76.8 0 0 1 76.4416 69.4272l0.3584 7.3728v186.8288l207.36-237.3632a76.8 76.8 0 0 1 49.5616-25.8048l8.2432-0.4608h4.096a25.6 25.6 0 0 1 4.608 50.7904l-4.608 0.4096h-4.096a25.6 25.6 0 0 0-16.128 5.7344l-3.1744 3.072-243.2 278.4256a30.72 30.72 0 0 1-53.4528-15.2064l-0.4096-5.0176V725.8624a25.6 25.6 0 0 0-20.992-25.1904l-4.608-0.4096h-49.0496a25.6 25.6 0 0 1-4.608-50.7904l4.608-0.4096h49.0496z" fill="#ffffff" /></svg>