<?xml version="1.0" standalone="no"?><!DOCTYPE svg PUBLIC "-//W3C//DTD SVG 1.1//EN" "http://www.w3.org/Graphics/SVG/1.1/DTD/svg11.dtd"><svg class="icon" width="48px" height="48.00px" viewBox="0 0 1024 1024" version="1.1" xmlns="http://www.w3.org/2000/svg"><path d="M657.2544 855.296l-109.7216 109.7728a43.008 43.008 0 0 1-60.7744 0l-109.7728-109.7728h280.2688z m198.0416-478.3104l109.7728 109.7728a43.008 43.008 0 0 1 0 60.7744l-109.7728 109.7216V376.9856z m-676.352 0.0512v280.1664l-109.7216-109.6704a43.008 43.008 0 0 1 0-60.7744l109.6704-109.7216z m368.64-307.8144l109.6192 109.6704H377.0368l109.7216-109.6704a43.008 43.008 0 0 1 60.7744 0z" fill="#ffffff" fill-opacity=".5" /><path d="M693.4016 855.296l-127.744 127.8464a68.608 68.608 0 0 1-97.024 0l-127.8464-127.8464H413.184l91.648 91.648a17.408 17.408 0 0 0 21.504 2.5088l3.072-2.5088 91.648-91.648h72.3456zM178.8928 340.7872V413.184L87.3472 504.832a17.408 17.408 0 0 0-2.5088 21.504l2.5088 3.072 91.5456 91.648v72.3456L51.2 565.6576A68.608 68.608 0 0 1 46.08 474.2144L51.2 468.6336l127.744-127.8464z m676.4032 0l127.8464 127.8464a68.608 68.608 0 0 1 0 97.024l-127.8464 127.744V621.056l91.648-91.5456a17.408 17.408 0 0 0 2.5088-21.504l-2.5088-3.072-91.648-91.648V340.736zM468.6336 51.2a68.608 68.608 0 0 1 97.024 0l127.744 127.744H621.056l-91.5456-91.5456a17.408 17.408 0 0 0-21.504-2.5088l-3.072 2.5088-91.648 91.5456H340.736z" fill="#ffffff" /><path d="M812.3392 153.344c37.888 0 68.608 30.72 68.608 68.608a25.6 25.6 0 0 1-50.7904 4.608l-0.4096-4.608a17.408 17.408 0 0 0-13.8752-17.0496l-3.5328-0.3584H221.952a17.408 17.408 0 0 0-17.0496 13.8752l-0.3584 3.5328v590.3872a17.408 17.408 0 0 0 13.8752 17.0496l3.5328 0.3584h590.3872a17.408 17.408 0 0 0 17.0496-13.8752l0.3584-3.5328v-445.952a25.6 25.6 0 0 1 50.7904-4.608l0.4096 4.608v445.952a68.608 68.608 0 0 1-61.952 68.3008l-6.656 0.3072H221.952A68.608 68.608 0 0 1 153.6 818.9952l-0.3072-6.656V221.952A68.608 68.608 0 0 1 215.296 153.6l6.656-0.3072h590.3872z" fill="#ffffff" /><path d="M693.3504 395.5712a25.6 25.6 0 0 1 37.0176 35.072l-3.1744 3.328-234.1376 206.336a35.84 35.84 0 0 1-44.6464 2.2016l-4.2496-3.584-122.4704-121.088a25.6 25.6 0 0 1 32.4096-39.3728l3.584 2.9184 112.2304 111.0016 223.4368-196.8128z" fill="#ffffff" /></svg>