<?xml version="1.0" standalone="no"?><!DOCTYPE svg PUBLIC "-//W3C//DTD SVG 1.1//EN" "http://www.w3.org/Graphics/SVG/1.1/DTD/svg11.dtd"><svg class="icon" width="48px" height="47.08px" viewBox="0 0 1044 1024" version="1.1" xmlns="http://www.w3.org/2000/svg"><path d="M44.032 630.784c15.36-21.504 52.224-31.744 109.568-31.744 87.04 0 112.64-20.48 182.272-41.984 69.632-21.504 177.152-67.584 224.256-139.264s50.176-126.976 68.608-144.384c18.432-16.384 55.296 0 89.088 0 22.528 0 94.208 6.144 214.016 19.456 20.48 1.024 30.72 10.24 30.72 27.648 0 25.6-1.024 72.704 0 128s11.264 104.448 11.264 131.072v112.64c-97.28 34.816-190.464 51.2-279.552 51.2s-274.432-17.408-556.032-51.2l-94.208-61.44z" fill="#D3444A" /><path d="M881.664 631.808c7.168-19.456 34.816-88.064 80.896-203.776V313.344c-3.072-12.288-12.288-19.456-29.696-20.48-119.808-13.312-191.488-19.456-214.016-19.456-5.12 0-9.216 0-14.336-1.024-26.624 68.608-50.176 120.832-70.656 154.624-31.744 52.224-94.208 100.352-120.832 114.688-26.624 14.336-152.576 49.152-164.864 69.632-8.192 13.312-8.192 43.008 0 89.088l493.568 10.24c18.432-33.792 32.768-60.416 39.936-78.848z" fill="#C01A20" /><path d="M973.824 692.224v-30.72c-32.768 10.24-59.392 15.36-79.872 15.36H388.096c-126.976 0-237.568-22.528-278.528-35.84-20.48-6.144-37.888-13.312-52.224-22.528-5.12 3.072-9.216 7.168-13.312 12.288l94.208 61.44c281.6 33.792 466.944 51.2 556.032 51.2s182.272-16.384 279.552-51.2z" fill="#A1080E" /><path d="M931.84 508.928l-26.624 57.344H701.44l27.648 52.224-230.4 12.288V655.36l-88.064-50.176 99.328-39.936v15.36h97.28l-16.384-53.248c151.552-13.312 238.592-20.48 262.144-20.48 24.576 2.048 50.176 2.048 78.848 2.048z" fill="#FD8D3C" /><path d="M358.4 586.752c-4.096 0-7.168-2.048-9.216-6.144l-12.288-26.624c-2.048-5.12 0-11.264 5.12-13.312s11.264 0 13.312 5.12l12.288 26.624c2.048 5.12 0 11.264-5.12 13.312-2.048 0-3.072 1.024-4.096 1.024zM434.176 555.008c-3.072 0-7.168-2.048-8.192-5.12L409.6 524.288c-3.072-5.12-2.048-11.264 3.072-14.336 5.12-3.072 11.264-2.048 14.336 3.072l16.384 25.6c3.072 5.12 2.048 11.264-3.072 14.336-2.048 1.024-4.096 2.048-6.144 2.048zM507.904 519.168c-3.072 0-5.12-1.024-7.168-3.072l-18.432-20.48c-4.096-4.096-3.072-10.24 1.024-14.336 4.096-4.096 10.24-3.072 14.336 1.024l18.432 20.48c4.096 4.096 3.072 10.24-1.024 14.336-2.048 1.024-4.096 2.048-7.168 2.048zM568.32 474.112c-2.048 0-3.072 0-5.12-1.024l-27.648-16.384c-5.12-3.072-6.144-9.216-4.096-14.336 3.072-5.12 9.216-6.144 14.336-4.096l27.648 16.384c5.12 3.072 6.144 9.216 4.096 14.336-2.048 3.072-5.12 5.12-9.216 5.12zM610.304 406.528c-1.024 0-2.048 0-3.072-1.024l-28.672-10.24c-5.12-2.048-8.192-8.192-6.144-13.312s8.192-8.192 13.312-6.144l28.672 10.24c5.12 2.048 8.192 8.192 6.144 13.312-2.048 4.096-6.144 7.168-10.24 7.168z" fill="#FFF3F3" /><path d="M44.032 631.01952c17.408 12.288 38.912 22.528 66.56 30.72 40.96 13.312 151.552 35.84 278.528 35.84h505.856c19.456 0 44.032-4.096 73.728-13.312 7.168-2.048 13.312 2.048 15.36 8.192 0 1.024 0 2.048 1.024 3.072 2.048 59.392-5.12 89.088-20.48 89.088-54.272 11.264-261.12 0-345.088 0H279.552c-41.984 0-184.32-20.48-244.736-69.632-14.336-11.264-11.264-38.912 9.216-83.968z" fill="#FCDADB" /><path d="M973.824 736.49152c-14.336 10.24-36.864 14.336-67.584 11.264H284.672c-114.688 0-217.088-35.84-240.64-51.2-8.192-5.12-13.312-11.264-16.384-18.432-3.072 18.432-1.024 30.72 7.168 36.864 60.416 49.152 202.752 69.632 244.736 69.632h339.968c83.968 0 290.816 11.264 345.088 0 12.288 0 19.456-18.432 20.48-56.32-4.096 3.072-7.168 5.12-11.264 8.192z" fill="#F8BDBF" /></svg>