<?xml version="1.0" standalone="no"?><!DOCTYPE svg PUBLIC "-//W3C//DTD SVG 1.1//EN" "http://www.w3.org/Graphics/SVG/1.1/DTD/svg11.dtd"><svg class="icon" width="48px" height="48.00px" viewBox="0 0 1024 1024" version="1.1" xmlns="http://www.w3.org/2000/svg"><path d="M753.95 375.85c-21 0.12-38.13-16.81-38.25-37.81a38.025 38.025 0 0 1 11.25-27.23l73.02-73.02c15.02-15.02 39.37-15.02 54.38 0 15.02 15.02 15.02 39.37 0 54.38l-73.02 73.02a37.966 37.966 0 0 1-27.38 10.66z m-203.84-121.7V102.03c0-21-17.03-38.03-38.03-38.03s-38.03 17.03-38.03 38.03v152.12c0 21 17.03 38.03 38.03 38.03s38.03-17.02 38.03-38.03z" fill="#382451" /><path d="M588.14 140.06H436.02c-21 0-38.03-17.03-38.03-38.03S415.02 64 436.02 64h152.12c21 0 38.03 17.03 38.03 38.03s-17.02 38.03-38.03 38.03z m192.82 170.76c-148.5-148.54-389.29-148.58-537.83-0.08-148.54 148.5-148.58 389.29-0.08 537.83s389.29 148.58 537.83 0.08l0.08-0.08c148.46-148.51 148.46-389.24 0-537.75z" fill="#6D32BA" /><path d="M495.35 615.44c-11.97 0-23.24-5.64-30.42-15.21l-114.1-152.12c-12.6-16.8-9.2-40.64 7.61-53.24 16.8-12.6 40.64-9.2 53.24 7.61L525.77 554.6c12.6 16.8 9.2 40.64-7.61 53.24a38.038 38.038 0 0 1-22.81 7.6z" fill="#412466" /><path d="M514.36 596.43c-11.97 0-23.24-5.64-30.42-15.21L369.85 429.09c-12.6-16.8-9.2-40.64 7.61-53.24 16.8-12.6 40.64-9.2 53.24 7.61l114.09 152.12c12.6 16.8 9.2 40.64-7.61 53.24a38.012 38.012 0 0 1-22.82 7.61z" fill="#9D60F4" /></svg>