<?xml version="1.0" standalone="no"?><!DOCTYPE svg PUBLIC "-//W3C//DTD SVG 1.1//EN" "http://www.w3.org/Graphics/SVG/1.1/DTD/svg11.dtd"><svg class="icon" width="48px" height="48.00px" viewBox="0 0 1024 1024" version="1.1" xmlns="http://www.w3.org/2000/svg"><path d="M560.795235 294.271263H429.008105l30.397031-91.291085h70.993067zM520.199199 202.880187h-50.695049l10.199004-81.09208h30.397032z" fill="#FFD508" /><path d="M489.802168 0.09999h10.099014v121.688117h-10.099014z" fill="#1B03FF" /><path d="M500.101162 121.888097h-10.398984V0h10.398984v121.888097z m-10.199004-0.299971h9.899033V0.19998h-9.899033v121.388146z" fill="#1B03FF" /><path d="M600.891319 938.008398c-20.497998-47.395372-35.096573-172.483156-35.096572-319.368812 0-159.084464 17.19832-292.571429 40.296064-329.467825H378.613026c23.097744 36.896397 40.296065 170.383361 40.296065 329.467825 0 146.885656-14.598574 271.97344-35.096573 319.368812h217.078801z" fill="#1B03FF" /><path d="M378.313055 406.760277c-0.399961 0-0.699932-0.19998-0.899912-0.499951-0.299971-0.499951-0.09999-1.099893 0.399961-1.299873L610.990333 283.172346c0.499951-0.299971 1.099893-0.09999 1.299873 0.399961 0.299971 0.499951 0.09999 1.099893-0.399961 1.299873L378.813007 406.660287c-0.19998 0.09999-0.299971 0.09999-0.499952 0.09999zM388.412069 477.753344c-0.399961 0-0.699932-0.19998-0.899912-0.499951-0.299971-0.499951-0.09999-1.099893 0.399961-1.299873l233.177229-121.688116c0.499951-0.299971 1.099893-0.09999 1.299873 0.399961 0.299971 0.499951 0.09999 1.099893-0.399961 1.299873L388.91202 477.553364c-0.09999 0.09999-0.299971 0.19998-0.499951 0.19998zM398.611073 548.646421c-0.399961 0-0.699932-0.19998-0.899912-0.499951-0.299971-0.499951-0.09999-1.099893 0.399961-1.299873l233.177229-121.688116c0.499951-0.299971 1.099893-0.09999 1.299873 0.399961 0.299971 0.499951 0.09999 1.099893-0.399961 1.299873L399.011034 548.546431c-0.09999 0.09999-0.299971 0.09999-0.399961 0.09999zM398.611073 619.639488c-0.399961 0-0.699932-0.19998-0.899912-0.499951-0.299971-0.499951-0.09999-1.099893 0.399961-1.299873l233.177229-121.688116c0.499951-0.299971 1.099893-0.09999 1.299873 0.399961 0.299971 0.499951 0.09999 1.099893-0.399961 1.299873L399.011034 619.539498c-0.09999 0.09999-0.299971 0.09999-0.399961 0.09999zM388.412069 700.731569c-0.399961 0-0.699932-0.19998-0.899912-0.499951-0.299971-0.499951-0.09999-1.099893 0.399961-1.299873l233.177229-121.688116c0.499951-0.299971 1.099893-0.09999 1.299873 0.39996 0.299971 0.499951 0.09999 1.099893-0.399961 1.299874L388.91202 700.631579c-0.09999 0.09999-0.299971 0.09999-0.499951 0.09999zM388.412069 771.724636c-0.399961 0-0.699932-0.19998-0.899912-0.499951-0.299971-0.499951-0.09999-1.099893 0.399961-1.299873l233.177229-121.688116c0.499951-0.299971 1.099893-0.09999 1.299873 0.399961 0.299971 0.499951 0.09999 1.099893-0.399961 1.299873L388.91202 771.624646c-0.09999 0-0.299971 0.09999-0.499951 0.09999zM388.412069 842.717703c-0.399961 0-0.699932-0.19998-0.899912-0.499951-0.299971-0.499951-0.09999-1.099893 0.399961-1.299873l233.177229-121.688116c0.499951-0.299971 1.099893-0.09999 1.299873 0.399961 0.299971 0.499951 0.09999 1.099893-0.399961 1.299873L388.91202 842.517723c-0.09999 0.09999-0.299971 0.19998-0.499951 0.19998zM378.313055 923.809784c-0.399961 0-0.699932-0.19998-0.899912-0.499951-0.299971-0.499951-0.09999-1.099893 0.399961-1.299873L610.990333 800.221853c0.499951-0.299971 1.099893-0.09999 1.299873 0.399961 0.299971 0.499951 0.09999 1.099893-0.399961 1.299873L378.813007 923.609804c-0.19998 0.09999-0.299971 0.19998-0.499952 0.19998zM408.710087 974.504834c-0.399961 0-0.699932-0.19998-0.899912-0.499952-0.299971-0.499951-0.09999-1.099893 0.399961-1.299873L641.387365 851.016893c0.499951-0.299971 1.099893-0.09999 1.299873 0.399961 0.299971 0.499951 0.09999 1.099893-0.399961 1.299873L409.210038 974.304853c-0.19998 0.09999-0.299971 0.19998-0.499951 0.199981z" fill="#FFFFFF" /><path d="M528.398399 974.104873c-0.299971 0-0.599941-0.09999-0.799922-0.399961L367.41412 771.324675c-0.299971-0.399961-0.299971-1.099893 0.19998-1.399863 0.399961-0.299971 1.099893-0.299971 1.399863 0.199981l160.184357 202.380236c0.299971 0.399961 0.299971 1.099893-0.19998 1.399863-0.19998 0.09999-0.399961 0.19998-0.599941 0.199981zM612.290206 960.506201c-0.299971 0-0.599941-0.09999-0.799922-0.399961l-233.977151-320.668685c-0.299971-0.399961-0.19998-1.099893 0.199981-1.399863 0.399961-0.299971 1.099893-0.19998 1.399863 0.19998l233.977151 320.668685c0.299971 0.399961 0.19998 1.099893-0.199981 1.399863-0.19998 0.19998-0.399961 0.19998-0.599941 0.199981zM641.887316 862.915731c-0.299971 0-0.599941-0.09999-0.799922-0.399961L367.314129 477.253393c-0.299971-0.499951-0.19998-1.099893 0.199981-1.399863s1.099893-0.19998 1.399863 0.19998l273.673274 385.262377c0.299971 0.499951 0.19998 1.099893-0.19998 1.399863-0.09999 0.19998-0.299971 0.19998-0.499951 0.199981zM631.788302 741.327605c-0.299971 0-0.599941-0.19998-0.799922-0.499951L377.513133 355.565277c-0.299971-0.499951-0.19998-1.099893 0.299971-1.399863s1.099893-0.19998 1.399863 0.29997l253.475247 385.262377c0.299971 0.499951 0.19998 1.099893-0.299971 1.399863-0.299971 0.09999-0.399961 0.19998-0.599941 0.199981z" fill="#FFFFFF" /><path d="M591.192266 548.646421c-0.299971 0-0.699932-0.19998-0.899912-0.499951L441.206913 289.671712c-0.299971-0.499951-0.09999-1.099893 0.399961-1.399864s1.099893-0.09999 1.399864 0.399961l149.185431 258.474759c0.299971 0.499951 0.09999 1.099893-0.399961 1.399863-0.19998 0.09999-0.399961 0.09999-0.599942 0.09999z" fill="#FFFFFF" /></svg>