<?xml version="1.0" standalone="no"?><!DOCTYPE svg PUBLIC "-//W3C//DTD SVG 1.1//EN" "http://www.w3.org/Graphics/SVG/1.1/DTD/svg11.dtd"><svg class="icon" width="48px" height="48.00px" viewBox="0 0 1024 1024" version="1.1" xmlns="http://www.w3.org/2000/svg"><path d="M502.35 107.26s-50.77 15.73-50.77 77.01c0 61.27 0 78.77-34.99 101.51-35.03 22.76-54.28 33.28-54.28 68.28 0 35.01-1.76 47.25-31.5 77.01-29.76 29.75-51.51 103.32 16.25 117.3 67.77 13.99 81.79-7.03 109.79 22.74 28.02 29.76 75.27 33.27 117.29 13.99 42-19.23 46.62-29.17 81.07-37.34 34.43-8.16 44.93-53.66 11.68-81.66-33.25-28.01 29.78-50.77-31.5-96.28-61.25-45.5-49.01-47.26-43.76-70.02 5.25-22.74 8.77-49.01-17.49-70.03-26.28-21.02-92.76-40.24-71.79-122.51z" fill="#FFFFFF" /><path d="M502.35 679.78c-118.99 0-216.92-24.11-229.9-55.11 6.18 28.13 29.31 137.34 33.86 223.56 0 0 45.54 73.51 196.04 73.51 150.53 0 196.09-73.51 196.09-73.51 4.51-86.22 27.64-195.44 33.84-223.56-12.99 31-110.88 55.11-229.93 55.11z" fill="#F9DE2A" /><path d="M729.09 639.6c1.29-6.18 2.39-11.28 3.2-14.93-2.8 6.7-9.81 13.07-19.93 18.97 5.8-1.28 11.39-2.63 16.73-4.04zM566.73 899.52c-150.52 0-196.06-73.51-196.06-73.51-2.8-53.36-12.72-115.5-21.37-161.79-41.86-9.91-70.27-23.83-76.85-39.54 6.18 28.13 29.31 137.34 33.86 223.56 0 0 45.54 73.51 196.04 73.51 65.92 0 111.7-14.09 142.34-29.93-22.18 4.68-47.9 7.7-77.96 7.7z" fill="#F8BC00" /><path d="M502.35 934.77c-155.96 0-205.1-76.43-207.11-79.7a12.878 12.878 0 0 1-1.94-6.16c-4.42-83.8-26.81-190.67-33.55-221.45a12.993 12.993 0 0 1 8.77-15.21c6.49-2.09 13.35 1.17 15.96 7.38 8.27 19.76 88.58 47.12 217.87 47.12 129.31 0 209.66-27.36 217.93-47.12 2.61-6.21 9.56-9.44 15.92-7.38 6.43 2.03 10.24 8.65 8.79 15.21-6.74 30.69-29.13 137.4-33.55 221.45-0.11 2.19-0.79 4.3-1.94 6.16-2.02 3.26-51.15 79.7-207.15 79.7z m-183.24-91.06c9.33 11.87 58.09 65.01 183.24 65.01 126.2 0 174.06-52.93 183.3-64.94 3.68-63.52 16.91-138.36 26.24-185.16-46.64 23.33-132.53 34.19-209.54 34.19-76.99 0-162.88-10.86-209.52-34.19 9.33 46.85 22.58 121.7 26.28 185.09z" fill="#342A26" /><path d="M502.35 871.2c-7.19 0-13.01-5.83-13.01-13.02v-178.4c0-7.2 5.82-13.03 13.01-13.03 7.21 0 13.03 5.83 13.03 13.03v178.4c0 7.19-5.82 13.02-13.03 13.02zM438.01 869.21c-7.1 0-12.9-5.68-13.03-12.8-1.4-80.02-13.01-177.55-13.14-178.54-0.86-7.13 4.22-13.61 11.38-14.48 7.23-0.84 13.62 4.24 14.49 11.37 0.11 1 11.9 99.83 13.34 181.2 0.13 7.2-5.63 13.12-12.8 13.25h-0.24zM368.48 850.62h-0.18c-7.19-0.1-12.94-6-12.85-13.2 1.06-86.3-18.57-169.19-18.78-170.01-1.67-6.99 2.64-14.04 9.63-15.72 6.95-1.65 14.04 2.64 15.71 9.63 0.84 3.49 20.58 86.73 19.48 176.42-0.09 7.16-5.9 12.88-13.01 12.88zM566.73 869.21h-0.22c-7.19-0.13-12.92-6.05-12.8-13.25 1.42-81.37 13.19-180.2 13.3-181.2 0.88-7.13 7.35-12.21 14.49-11.37 7.17 0.86 12.24 7.35 11.39 14.48-0.13 0.99-11.74 98.52-13.14 178.54-0.12 7.13-5.93 12.8-13.02 12.8zM636.28 850.62c-7.13 0-12.94-5.72-13.03-12.87-1.1-89.69 18.64-172.94 19.48-176.42 1.69-6.99 8.77-11.29 15.71-9.63 6.99 1.67 11.31 8.73 9.62 15.72-0.2 0.82-19.82 83.7-18.76 170.01 0.09 7.2-5.68 13.1-12.85 13.2-0.08-0.01-0.12-0.01-0.17-0.01z" fill="#342A26" /><path d="M693.18 582.52c-9.06 19-24.12 27.32-24.12 27.32-31.25 17.1-93.53 28.26-166.37 28.26-76.33 0-144.19-10.66-171.6-31.23-10.03-7.53-16.28-15.97-20.18-24.08-25.23 9.94-40.02 21.94-40.02 34.89 0 34.31 103.63 62.11 231.46 62.11 127.87 0 231.52-27.8 231.52-62.11 0-13.06-15.08-25.16-40.69-35.16z" fill="#F8BC00" /><path d="M521.47 610.09c-29.53 0-55.86-10.68-74.12-30.06-11.41-12.13-17.94-13.21-33.68-13.21l-12.36 0.05c-14.31 0-32.24-0.68-56.88-5.74-34.65-7.17-47.55-27.52-52.28-43.32-9.96-33.24 7.75-74.24 29.46-95.96 26.67-26.68 27.69-35.36 27.69-67.8 0-40.24 23-55.13 54.85-75.73l5.34-3.46c29.08-18.9 29.08-29.86 29.08-90.6 0-56.05 39.2-83.05 59.94-89.46 4.49-1.4 9.4-0.25 12.81 3 3.41 3.23 4.82 8.09 3.65 12.64-14.72 57.78 18.64 78.26 48.09 96.34 7.04 4.32 13.71 8.42 19.19 12.8 34.81 27.86 26.19 65.19 22.05 83.12-0.79 3.41-1.71 6.41-2.55 9.14-2.98 9.63-4.24 13.6 41.39 47.5 42.47 31.54 34.42 57.89 29.1 75.35-3.7 12.13-4.3 15.23 3.04 21.43 19.77 16.63 28.7 41.14 23.27 63.9-4.87 20.44-19.97 35.56-40.36 40.39-19.18 4.55-27.6 9.35-41.55 17.29-9 5.11-20.2 11.47-37.09 19.23-18.77 8.6-38.85 13.16-58.08 13.16z m-107.79-69.31c18.42 0 33.99 1.57 52.64 21.39 13.28 14.09 32.87 21.87 55.16 21.87 15.51 0 31.83-3.74 47.21-10.77 15.87-7.28 26.06-13.08 35.06-18.2 14.31-8.14 25.61-14.57 48.43-19.98 10.62-2.52 18.49-10.41 21.03-21.12 3.18-13.33-2.32-27.5-14.7-37.93-20.79-17.51-15.01-36.44-11.18-48.98 4.66-15.21 8.02-26.19-19.72-46.79-53.34-39.61-58.5-51.18-50.73-76.16 0.68-2.17 1.42-4.53 2.05-7.25 5.75-24.9 5.46-42.19-12.94-56.93-4.22-3.38-10.21-7.04-16.55-10.93-25.57-15.73-66.1-40.57-64.03-96.32-10.39 9.69-20.79 25.83-20.79 51.58 0 62.46 0 85.83-40.92 112.45l-5.39 3.48c-32.64 21.08-42.95 28.98-42.95 53.85 0 37.7-2.89 53.79-35.33 86.22-16.25 16.25-29.62 47.66-22.91 70.06 3.97 13.31 14.65 21.58 32.58 25.28 22.36 4.62 38.64 5.23 51.63 5.23l12.35-0.05z" fill="#342A26" /><path d="M699.7 546.9c0-7.9-5.95-15.4-16.5-22.22-5.01 11.16-14.7 19.92-28 23.07-34.45 8.17-39.07 18.11-81.07 37.34-42.02 19.27-89.27 15.77-117.29-13.99-28-29.76-42.02-8.74-109.79-22.74-15.29-3.14-25.84-9.47-32.94-17.5-5.45 5.09-8.45 10.48-8.45 16.05 0 0-7.82 34.97 25.43 59.96 27.41 20.58 95.27 31.23 171.6 31.23 72.84 0 135.11-11.16 166.37-28.26 0-0.01 33.37-18.32 30.64-62.94z" fill="#927B55" /><path d="M502.69 651.11c-40.4 0-138.71-3.28-179.41-33.83-35.82-26.93-31.92-63.78-30.61-71.73 0.41-8.64 4.62-16.78 12.53-24.21 2.57-2.39 6.04-3.72 9.52-3.51 3.52 0.18 6.81 1.75 9.15 4.4 5.77 6.51 14.45 11.02 25.83 13.37 22.34 4.62 38.62 5.23 51.62 5.23l12.36-0.05c18.42 0 33.99 1.57 52.64 21.39 13.28 14.12 32.87 21.87 55.16 21.87 15.51 0 31.83-3.74 47.21-10.77 15.87-7.28 26.06-13.08 35.06-18.2 14.31-8.14 25.61-14.57 48.43-19.98 8.72-2.09 15.51-7.66 19.14-15.75 1.55-3.46 4.55-6.06 8.18-7.14 3.63-1.07 7.57-0.51 10.76 1.55 14.9 9.64 22.46 20.78 22.46 33.17 3.18 51.45-35.75 73.43-37.42 74.35-34.21 18.68-98.74 29.84-172.61 29.84zM318.17 551.06c-0.75 5.7-2.05 28.28 20.74 45.41 23.53 17.65 86.28 28.6 163.78 28.6 68.65 0 130.03-10.19 160.11-26.64 0.97-0.57 26.06-15.34 23.9-50.7-0.02-0.97-0.32-2.09-1.06-3.36-7.19 7.89-16.68 13.51-27.46 16.06-19.18 4.55-27.6 9.35-41.55 17.29-9 5.11-20.2 11.47-37.09 19.23-18.76 8.59-38.84 13.15-58.07 13.15-29.53 0-55.86-10.68-74.12-30.06-11.41-12.13-17.94-13.21-33.68-13.21l-12.36 0.05c-14.31 0-32.24-0.68-56.88-5.74-10.01-2.1-18.78-5.46-26.26-10.08z" fill="#342A26" /><path d="M502.35 692.8c-117.77 0-244.49-23.52-244.49-75.13 0-18.57 16.23-34.39 48.29-47.03 6.34-2.49 13.53 0.34 16.5 6.49 3.56 7.38 9.02 13.88 16.26 19.34 23.53 17.65 86.28 28.6 163.78 28.6 68.65 0 130.03-10.19 160.11-26.64 0 0 11.61-6.85 18.62-21.5 2.91-6.16 10.12-9.02 16.46-6.53 32.51 12.7 48.99 28.58 48.99 47.28 0.01 51.6-126.75 75.12-244.52 75.12z m-196.77-93.52c-16.84 8.08-21.67 15.13-21.67 18.39 0 16.65 77.1 49.08 218.45 49.08 141.37 0 218.49-32.43 218.49-49.08 0-3.28-4.94-10.43-22.21-18.64-9.99 14.54-21.69 21.33-23.26 22.2-34.27 18.72-98.81 29.89-172.67 29.89-40.4 0-138.71-3.28-179.41-33.83-7.03-5.29-12.96-11.32-17.72-18.01z" fill="#342A26" /><path d="M687.19 654.95c2.16-7.12 3.38-15.36 2.79-24.94 0-8-6.45-15.52-17.7-22.31-1.92 1.4-3.22 2.14-3.22 2.14-31.25 17.1-93.53 28.26-166.37 28.26-75 0-141.69-10.3-170.03-30.17-10.98 6.71-17.29 14.17-17.29 22.08 0 0-2.41 10.91 1.44 24.68 42.2 15.2 109.48 25.1 185.54 25.1 75.65-0.01 142.59-9.78 184.84-24.84z" fill="#927B55" /><path d="M502.35 692.8c-75.11 0-144.35-9.44-189.95-25.87a12.942 12.942 0 0 1-8.12-8.74c-3.9-13.94-2.59-25.48-1.92-29.56 0.56-11.9 8.46-22.61 23.49-31.81 4.46-2.7 10.05-2.54 14.29 0.45 24.48 17.15 86.75 27.8 162.56 27.8 68.65 0 130.03-10.19 160.11-26.64-0.04 0 0.76-0.49 1.85-1.29 4.21-3.07 9.9-3.31 14.36-0.58 15.92 9.58 23.99 20.86 23.99 33.45 0.59 9.41-0.54 19.36-3.36 28.71-1.19 3.94-4.19 7.1-8.09 8.49-45.61 16.26-114.59 25.59-189.21 25.59z m-174.31-48.05c42.52 13.85 106.86 22 174.31 22 67.14 0 131.36-8.11 173.88-21.85 0.81-4.53 1.06-9.18 0.76-14.12-0.02-1.62-1.26-4.27-5.3-7.65-35.3 17.62-97.82 27.97-168.99 27.97-37.09 0-124.44-2.79-169.53-27.6-3.67 3.13-4.78 5.46-4.78 6.49 0 0.93-0.11 1.88-0.31 2.79 0 0.02-0.96 4.98-0.04 11.97zM446.85 575.17c-3.32 0-6.65-1.28-9.2-3.82-1.31-1.32-32.17-32.6-31.02-68.09 0.56-16.76 7.84-31.41 21.67-43.56 5.91-5.22 11.9-10 17.63-14.57 27.01-21.53 35.82-30 25.34-50.09-21.85-41.89-15.46-67.57 23.63-94.85 0.9-0.64 1.89-1.14 2.91-1.53 0 0 7.13-3 9.7-10.04 2.91-7.97-0.99-18.22-4.76-25.39-3.33-6.36-7.26-12.8-11.29-19.41-21.84-35.96-51.74-85.23 1.11-145.2 4.76-5.39 12.99-5.9 18.37-1.15 5.39 4.76 5.93 12.98 1.17 18.37-40.18 45.6-19.89 79.05 1.62 114.45 4.3 7.1 8.48 14.01 12.06 20.8 9.24 17.5 11.23 33.31 5.98 47.05-5.75 14.99-18.19 21.96-23.06 24.17-27.62 19.48-30.1 30.5-14.36 60.66 20.94 40.15-7.28 62.66-32.21 82.5-5.39 4.33-11.07 8.82-16.68 13.76-8.32 7.31-12.51 15.45-12.81 24.85-0.77 23.97 23.15 48.61 23.38 48.84 5.1 5.09 5.1 13.36 0 18.41-2.51 2.56-5.83 3.84-9.18 3.84z" fill="#342A26" /><path d="M574.11 598.11c-2.79 0-5.59-0.89-7.98-2.72-3.76-2.92-36.81-29.39-39.57-60.48-1.13-12.58 2.93-24.39 11.7-34.13 6.52-7.24 13.53-14.17 20.2-20.78 11.48-11.31 27.19-26.81 26.65-33.41-0.07-1.16-1.6-2.88-4.08-4.65-46.69-33.53-28.25-88.3-4.08-137.43 3.16-6.43 11-9.08 17.43-5.92 6.45 3.18 9.11 10.99 5.93 17.42-32.51 66.06-25.14 89.65-4.08 104.76 9.13 6.57 14.13 14.58 14.85 23.78 1.46 18.68-15.11 35.05-34.31 54.01-6.34 6.26-12.98 12.79-19.16 19.66-3.97 4.4-5.61 8.98-5.1 14.4 1.49 16.87 22.39 36.63 29.6 42.22 5.68 4.4 6.72 12.6 2.3 18.27-2.57 3.26-6.41 5-10.3 5z" fill="#342A26" /></svg>