<?xml version="1.0" standalone="no"?><!DOCTYPE svg PUBLIC "-//W3C//DTD SVG 1.1//EN" "http://www.w3.org/Graphics/SVG/1.1/DTD/svg11.dtd"><svg class="icon" width="48px" height="47.72px" viewBox="0 0 1030 1024" version="1.1" xmlns="http://www.w3.org/2000/svg"><path d="M518.826667 512m-512 0a512 512 0 1 0 1024 0 512 512 0 1 0-1024 0Z" fill="#049BFF" /><path d="M177.568427 301.438293c23.149227-19.305813 40.18176-43.554133 51.0976-72.74496h563.69152c5.290667 25.51808 23.42912 49.7664 54.429013 72.74496 30.99648 22.975147 67.310933 37.410133 108.946773 43.308374H68.266667c49.718613-9.567573 86.152533-24.00256 109.30176-43.308374z" fill="#FBF9E9" /><path d="M228.693333 163.84h27.306667v75.093333h-27.306667zM764.586667 163.84h27.306666v75.093333h-27.306666z" fill="#FBF9E9" /><path d="M68.266667 344.746667h887.466666l-74.663253 37.546666H143.27808z" fill="#050408" /><path d="M69.51936 483.925333C100.1472 475.97568 124.760747 465.99168 143.36 453.973333h740.693333c6.2464 10.509653 29.88032 20.493653 70.894934 29.952 41.0112 9.46176 64.027307 15.353173 69.051733 17.677654H6.826667c11.168427-3.836587 32.068267-9.728 62.692693-17.677654z" fill="#FDFCEA" /><path d="M0 501.602987h1024L955.733333 539.306667H68.266667z" fill="#050408" /><path d="M955.733333 539.306667H68.266667v129.706666h887.466666z" fill="#D76565" /><path d="M1006.298453 669.023573C940.01152 874.973867 746.820267 1024 518.826667 1024 290.833067 1024 97.645227 874.973867 31.35488 669.023573h974.943573z" fill="#0734AB" /><path d="M792.357547 228.693333c1.194667 5.75488 3.037867 11.441493 5.536426 17.066667H221.30688a186.7776 186.7776 0 0 0 7.359147-17.066667h563.69152zM143.36 436.906667h740.693333v17.066666H143.36z" fill="#FFDC37" /><path d="M143.36 436.906667h740.693333v-54.613334H143.36z" fill="#D76565" /><path d="M546.133333 344.746667v71.68h-54.613333v-71.68z" fill="#FFDC37" /><path d="M532.48 358.4h-27.306667v44.373333h27.306667z" fill="#D76565" /><path d="M145.066667 576.853333a25.6 25.6 0 0 1 25.6 25.6V669.013333H119.466667v-66.56a25.6 25.6 0 0 1 25.6-25.6zM636.586667 576.853333a25.6 25.6 0 0 1 25.6 25.6V669.013333h-51.2v-66.56a25.6 25.6 0 0 1 25.6-25.6zM267.946667 576.853333a25.6 25.6 0 0 1 25.6 25.6V669.013333H242.346667v-66.56a25.6 25.6 0 0 1 25.6-25.6zM759.466667 576.853333a25.6 25.6 0 0 1 25.6 25.6V669.013333h-51.2v-66.56a25.6 25.6 0 0 1 25.6-25.6zM390.826667 576.853333a25.6 25.6 0 0 1 25.6 25.6V669.013333h-51.2v-66.56a25.6 25.6 0 0 1 25.6-25.6zM882.346667 576.853333a25.6 25.6 0 0 1 25.6 25.6V669.013333h-51.2v-66.56a25.6 25.6 0 0 1 25.6-25.6zM513.706667 576.853333a25.6 25.6 0 0 1 25.6 25.6V669.013333h-51.2v-66.56a25.6 25.6 0 0 1 25.6-25.6z" fill="#050408" /><path d="M392.533333 669.013333h242.346667v23.893334h-242.346667z" fill="#FFFBFA" /><path d="M368.64 716.8h293.546667v23.893333h-293.546667zM327.68 764.586667h365.226667v23.893333H327.68zM225.28 815.786667h559.786667v23.893333H225.28zM215.04 866.986667h566.613333v23.893333H215.04zM781.656747 921.6v29.88032l-1.42336 0.853333H257.419947a512.83968 512.83968 0 0 1-42.386774-28.16L215.04 921.6h566.616747zM727.606613 979.636907C663.845547 1008.14848 593.189547 1024 518.826667 1024c-74.359467 0-145.01888-15.85152-208.779947-44.363093h417.559893z" fill="#F9F9F9" /><path d="M375.466667 689.493333h276.48v30.72h-276.48zM337.92 737.28h348.16v30.72H337.92zM296.96 785.066667h430.08v30.72H296.96zM225.28 836.266667h556.373333v30.72H225.28zM232.106667 890.88h552.96v30.72H232.106667zM785.885867 948.92032a510.5664 510.5664 0 0 1-58.279254 30.72H310.050133a510.5664 510.5664 0 0 1-58.279253-30.72h534.111573z" fill="#050408" /><path d="M365.4144 669.013333l46.045867 0.67584-170.635947 272.336214a514.382507 514.382507 0 0 1-82.705067-66.658987L365.417813 669.013333zM646.78912 669.013333l219.777707 218.781014a513.805653 513.805653 0 0 1-88.07424 65.570133L600.746667 669.68576l46.042453-0.67584z" fill="#F9F9F9" /><path d="M491.52 348.16v68.266667l-126.293333-68.266667z" fill="#050408" /></svg>