<?xml version="1.0" standalone="no"?><!DOCTYPE svg PUBLIC "-//W3C//DTD SVG 1.1//EN" "http://www.w3.org/Graphics/SVG/1.1/DTD/svg11.dtd"><svg class="icon" width="48px" height="48.00px" viewBox="0 0 1024 1024" version="1.1" xmlns="http://www.w3.org/2000/svg"><path d="M870.4 25.6a76.8 76.8 0 0 1 76.4416 69.4272L947.2 102.4v106.752a25.6 25.6 0 0 1-50.7904 4.608l-0.4096-4.608V102.4a25.6 25.6 0 0 0-20.992-25.1904L870.4 76.8H153.6a25.6 25.6 0 0 0-25.1904 20.992L128 102.4v819.2a25.6 25.6 0 0 0 16.6912 24.0128l4.608 1.1776 332.4416-142.4896a76.8 76.8 0 0 1 53.1456-2.7136l7.3728 2.7136 332.3904 142.4896a25.6 25.6 0 0 0 20.9408-20.5824L896 921.6V412.9792a25.6 25.6 0 0 1 50.7904-4.608l0.4096 4.608V921.6a76.8 76.8 0 0 1-69.4272 76.4416L870.4 998.4l-10.0864-2.048-338.2272-144.9984a25.6 25.6 0 0 0-16.2304-1.28l-3.9424 1.28-338.2272 144.9984L153.6 998.4a76.8 76.8 0 0 1-76.4416-69.4272L76.8 921.6V102.4A76.8 76.8 0 0 1 146.2272 25.9584L153.6 25.6h716.8z" fill="#ffffff" /><path d="M509.7984 619.264L379.904 687.616a25.6 25.6 0 0 1-37.12-26.9824l24.7808-144.64a10.24 10.24 0 0 0-2.9184-9.0624l-105.1136-102.4a25.6 25.6 0 0 1 14.2336-43.6736l145.2032-21.1456a10.24 10.24 0 0 0 7.68-5.5808l64.9728-131.584a25.6 25.6 0 0 1 45.9264 0l64.9216 131.584a10.24 10.24 0 0 0 7.68 5.632l145.2544 21.0944a25.6 25.6 0 0 1 14.1824 43.6224L664.576 506.88a10.24 10.24 0 0 0-2.9696 9.0624l24.832 144.64a25.6 25.6 0 0 1-37.1712 26.9824l-129.8944-68.3008a10.24 10.24 0 0 0-9.5232 0z" fill="#ffffff" fill-opacity=".5" /><path d="M525.9264 190.8736a25.6 25.6 0 0 1 11.6224 11.6224l64.9216 131.584a10.24 10.24 0 0 0 7.68 5.632l145.2544 21.0944a25.6 25.6 0 0 1 14.1824 43.6224L664.576 506.88a10.24 10.24 0 0 0-2.9696 9.0624l24.832 144.64a25.6 25.6 0 0 1-37.1712 26.9824l-129.8944-68.3008a10.24 10.24 0 0 0-9.5232 0L379.904 687.616a25.6 25.6 0 0 1-37.12-26.9824l24.7808-144.64a10.24 10.24 0 0 0-2.9184-9.0624l-105.1136-102.4a25.6 25.6 0 0 1 14.2336-43.6736l145.2032-21.1456a10.24 10.24 0 0 0 7.68-5.5808l64.9728-131.584a25.6 25.6 0 0 1 34.304-11.6224z m-11.3664 80.7936l-41.984 85.0944a61.44 61.44 0 0 1-39.68 32.256l-6.5536 1.3312-93.952 13.6192L400.384 470.2208a61.44 61.44 0 0 1 18.432 47.7184l-0.768 6.656-16.0768 93.4912 83.968-44.1344a61.44 61.44 0 0 1 50.3808-3.072l6.8608 3.072 83.968 44.1344-16.0256-93.4912a61.44 61.44 0 0 1 13.1072-49.4592l4.5568-4.9152 67.8912-66.2528-93.8496-13.6192a61.44 61.44 0 0 1-43.008-27.8016l-3.2768-5.7856-41.984-85.0944z" fill="#ffffff" /></svg>