<?xml version="1.0" standalone="no"?><!DOCTYPE svg PUBLIC "-//W3C//DTD SVG 1.1//EN" "http://www.w3.org/Graphics/SVG/1.1/DTD/svg11.dtd"><svg class="icon" width="48px" height="48.00px" viewBox="0 0 1024 1024" version="1.1" xmlns="http://www.w3.org/2000/svg"><path d="M819.2 412.9792a25.6 25.6 0 0 1 25.1904 20.992l0.4096 4.608V947.2a25.6 25.6 0 0 1-50.7904 4.608L793.6 947.2V438.5792a25.6 25.6 0 0 1 25.6-25.6z m-614.4 0a25.6 25.6 0 0 1 25.1904 20.992l0.4096 4.608V947.2a25.6 25.6 0 0 1-50.7904 4.608L179.2 947.2V438.5792a25.6 25.6 0 0 1 25.6-25.6zM785.0496 51.2c33.6384 0 56.8832 31.9488 59.4944 69.632L844.8 128v101.0176a25.6 25.6 0 0 1-50.7904 4.608L793.6 229.0176V128c0-13.824-4.9664-23.04-7.5776-25.1392L785.0496 102.4H238.9504c-1.7408 0-6.9632 7.4752-8.2432 19.968L230.4 128v101.0176a25.6 25.6 0 0 1-50.7904 4.608L179.2 229.0176V128C179.2 89.6512 200.4992 55.4496 232.7552 51.5584L238.8992 51.2h546.1504z" fill="#ffffff" /><path d="M332.8 230.4m51.2 0l256 0q51.2 0 51.2 51.2l0 153.6q0 51.2-51.2 51.2l-256 0q-51.2 0-51.2-51.2l0-153.6q0-51.2 51.2-51.2Z" fill="#ffffff" fill-opacity=".5" /><path d="M640 204.8H384a76.8 76.8 0 0 0-76.8 76.8v153.6A76.8 76.8 0 0 0 384 512h256a76.8 76.8 0 0 0 76.8-76.8v-153.6A76.8 76.8 0 0 0 640 204.8zM384 256h256a25.6 25.6 0 0 1 25.6 25.6v153.6a25.6 25.6 0 0 1-25.6 25.6H384a25.6 25.6 0 0 1-25.6-25.6v-153.6A25.6 25.6 0 0 1 384 256zM435.2 588.8a25.6 25.6 0 0 1 4.608 50.7904L435.2 640H332.8a25.6 25.6 0 0 1-4.608-50.7904L332.8 588.8h102.4zM435.2 691.2a25.6 25.6 0 0 1 4.608 50.7904L435.2 742.4H332.8a25.6 25.6 0 0 1-4.608-50.7904L332.8 691.2h102.4z" fill="#ffffff" /><path d="M921.6 921.6a25.6 25.6 0 0 1 4.608 50.7904L921.6 972.8H102.4a25.6 25.6 0 0 1-4.608-50.7904L102.4 921.6h819.2zM797.3888 307.9168a25.6 25.6 0 0 1 31.0272-10.496l4.1472 2.048 77.9264 47.7184c20.5312 12.544 33.8432 33.8944 36.352 57.5488L947.2 412.672v94.976a76.8 76.8 0 0 1-1.536 15.4624l-1.9968 7.5264-100.0448 318.5152a25.6 25.6 0 0 1-49.8176-10.8032l1.024-4.5568 99.9936-318.464 0.8704-3.7888 0.3072-3.8912V412.672a25.6 25.6 0 0 0-8.704-19.2l-3.5328-2.6112-77.9264-47.7184a25.6 25.6 0 0 1-8.448-35.2256zM226.6112 307.9168a25.6 25.6 0 0 0-31.0272-10.496l-4.1472 2.048-77.9264 47.7184a76.8 76.8 0 0 0-36.3008 57.5488L76.8 412.672v94.976c0 5.2224 0.512 10.3936 1.536 15.4624l1.9968 7.5264 100.0448 318.5152a25.6 25.6 0 0 0 49.8176-10.8032l-0.9728-4.5568-100.0448-318.464-0.8704-3.7888L128 507.648V412.672a25.6 25.6 0 0 1 8.704-19.2l3.5328-2.6112 77.9264-47.7184a25.6 25.6 0 0 0 8.448-35.2256z" fill="#ffffff" /></svg>