<?xml version="1.0" standalone="no"?><!DOCTYPE svg PUBLIC "-//W3C//DTD SVG 1.1//EN" "http://www.w3.org/Graphics/SVG/1.1/DTD/svg11.dtd"><svg class="icon" width="48px" height="48.00px" viewBox="0 0 1024 1024" version="1.1" xmlns="http://www.w3.org/2000/svg"><path d="M870.4 25.6c40.7552 0 73.0112 33.792 76.4928 75.7248l0.3072 7.4752v99.0208a25.6 25.6 0 0 1-50.7904 4.608l-0.4096-4.608V108.8c0-16.4864-9.8816-29.184-21.6064-31.5904L870.4 76.8H153.6c-12.0832 0-23.1424 11.1104-25.2416 26.624l-0.3584 5.376v806.4c0 16.4864 9.8816 29.184 21.6064 31.5904L153.6 947.2h716.8c12.0832 0 23.1424-11.1104 25.2416-26.624l0.3584-5.376V385.3312a25.6 25.6 0 0 1 50.7904-4.608l0.4096 4.608v529.8688c0 42.8032-30.0544 78.9504-69.6832 82.8416L870.4 998.4H153.6c-40.7552 0-73.0112-33.792-76.4928-75.7248l-0.3072-7.4752V108.8c0-42.8032 30.0544-78.9504 69.6832-82.8416L153.6 25.6h716.8z" fill="#ffffff" /><path d="M233.472 588.8a25.6 25.6 0 0 1 25.6 25.6c0 93.5424 66.816 179.6096 161.4336 224.256a25.6 25.6 0 1 1-21.8112 46.2848C287.5392 832.512 207.872 729.9072 207.872 614.4a25.6 25.6 0 0 1 25.6-25.6z m555.6224 0a25.6 25.6 0 0 1 25.6 25.6c0 115.2512-78.4384 217.3952-189.2352 270.4896a25.6 25.6 0 0 1-22.1184-46.1824c94.3616-45.2096 160.1536-130.8672 160.1536-224.3072a25.6 25.6 0 0 1 25.6-25.6z" fill="#ffffff" /><path d="M692.6336 156.5696a25.6 25.6 0 0 1 4.608 50.7904l-4.608 0.4096h-358.4a25.6 25.6 0 0 1-4.608-50.7904l4.608-0.4096h358.4z" fill="#ffffff" /><path d="M513.0752 767.9488a172.8 172.8 0 0 0 172.8-172.8c0-63.6416-57.6-159.6416-172.8-288-115.2 128.3584-172.8 224.3584-172.8 288a172.8 172.8 0 0 0 172.8 172.8z" fill="#ffffff" fill-opacity=".5" /><path d="M513.0752 268.8l-19.0464 21.248A1653.504 1653.504 0 0 0 423.3216 373.76l-19.6608 25.856c-59.1872 80.128-88.9856 144.7936-88.9856 195.4816a198.4 198.4 0 0 0 396.8 0c0-69.376-55.7056-164.864-166.2976-290.4576l-32.1024-35.84z m0 76.9536l4.7616 5.4784c95.232 110.2848 142.4384 192.768 142.4384 243.9168a147.2 147.2 0 0 1-294.4 0c0-48.9984 43.4176-126.8224 130.8672-230.2976l16.3328-19.0976z" fill="#ffffff" /></svg>