<?xml version="1.0" standalone="no"?><!DOCTYPE svg PUBLIC "-//W3C//DTD SVG 1.1//EN" "http://www.w3.org/Graphics/SVG/1.1/DTD/svg11.dtd"><svg class="icon" width="48px" height="48.00px" viewBox="0 0 1024 1024" version="1.1" xmlns="http://www.w3.org/2000/svg"><path d="M870.4 410.368a76.8 76.8 0 0 1 76.4416 69.4272l0.3584 7.3728v106.752a25.6 25.6 0 0 1-50.7904 4.608L896 593.92V487.168a25.6 25.6 0 0 0-20.992-25.1904l-4.608-0.4096h-716.8a25.6 25.6 0 0 0-25.1904 20.992L128 487.168v434.432a25.6 25.6 0 0 0 20.992 25.1904l4.608 0.4096h716.8a25.6 25.6 0 0 0 25.1904-20.992l0.4096-4.608v-150.2208a25.6 25.6 0 0 1 50.7904-4.608l0.4096 4.608v150.2208a76.8 76.8 0 0 1-69.4272 76.4416l-7.3728 0.3584h-716.8a76.8 76.8 0 0 1-76.4416-69.4272L76.8 921.6V487.168a76.8 76.8 0 0 1 69.4272-76.4416l7.3728-0.3584h716.8z" fill="#ffffff" /><path d="M207.1552 53.76m51.2 0l512 0q51.2 0 51.2 51.2l0 204.8q0 51.2-51.2 51.2l-512 0q-51.2 0-51.2-51.2l0-204.8q0-51.2 51.2-51.2Z" fill="#ffffff" fill-opacity=".5" /><path d="M770.3552 53.76a51.2 51.2 0 0 1 51.2 51.2v204.8a51.2 51.2 0 0 1-51.2 51.2h-512a51.2 51.2 0 0 1-51.2-51.2V104.96a51.2 51.2 0 0 1 51.2-51.2h512z m0 51.2h-512v204.8h512V104.96z" fill="#ffffff" /><path d="M793.6 563.2a25.6 25.6 0 0 1 4.608 50.7904l-4.608 0.4096H230.4a25.6 25.6 0 0 1-4.608-50.7904L230.4 563.2h563.2zM540.16 676.1472a25.6 25.6 0 0 1 4.608 50.7904l-4.608 0.4096h-307.2a25.6 25.6 0 0 1-4.608-50.7904l4.608-0.4096h307.2z" fill="#ffffff" /><path d="M539.8528 790.8864a25.6 25.6 0 0 1 4.608 50.7904l-4.608 0.4096h-307.2a25.6 25.6 0 0 1-4.608-50.7904l4.608-0.4096h307.2z" fill="#ffffff" /></svg>