<?xml version="1.0" standalone="no"?><!DOCTYPE svg PUBLIC "-//W3C//DTD SVG 1.1//EN" "http://www.w3.org/Graphics/SVG/1.1/DTD/svg11.dtd"><svg class="icon" width="48px" height="48.00px" viewBox="0 0 1024 1024" version="1.1" xmlns="http://www.w3.org/2000/svg"><path d="M897.7472 556.1344c-6.0096 0-11.2 4.192-12.4608 10.0672a255.0272 255.0272 0 0 1-35.264 85.1712c-3.264 5.0432-2.56 11.6864 1.696 15.936l25.984 25.984-62.5408 62.6176-26.0224-26.0224a12.7488 12.7488 0 0 0-15.936-1.696 255.0336 255.0336 0 0 1-85.1648 35.264 12.7488 12.7488 0 0 0-10.0736 12.4672v36.8448L589.4656 812.8v-36.8768c0-6.0032-4.192-11.2-10.0672-12.4608a255.0848 255.0848 0 0 1-85.1712-35.264 12.736 12.736 0 0 0-15.936 1.6896l-26.112 26.1184-62.5856-62.5792 26.1248-26.1184a12.7488 12.7488 0 0 0 1.6896-15.936 255.0592 255.0592 0 0 1-35.264-85.1712 12.7424 12.7424 0 0 0-12.4672-10.0672H332.8l0.032-88.4992h36.8448c6.0096 0 11.2-4.1984 12.4672-10.0736a255.0592 255.0592 0 0 1 35.264-85.1712c3.264-5.0432 2.56-11.68-1.696-15.936L389.696 330.432l62.5792-62.5792 26.0224 26.0288a12.7488 12.7488 0 0 0 15.936 1.6896 255.0912 255.0912 0 0 1 85.1712-35.264 12.7424 12.7424 0 0 0 10.0672-12.4608V211.2l88.4992 0.032v36.6208c0 6.0032 4.1984 11.2 10.0736 12.4608a255.0976 255.0976 0 0 1 85.1648 35.264c5.0496 3.264 11.6864 2.56 15.936-1.6896l25.888-25.8944 62.5792 62.5792-25.888 25.888a12.7488 12.7488 0 0 0-1.696 15.936 255.072 255.072 0 0 1 35.264 85.1648 12.7488 12.7488 0 0 0 12.4608 10.0736h36.6208L934.4 556.1344h-36.6528z" fill="#E9F2FE" /><path d="M915.1488 440.3008a16 16 0 0 0-16-16h-49.28a351.5712 351.5712 0 0 0-38.8672-93.888l34.8416-34.8416a16 16 0 0 0 0-22.624l-101.184-101.184a16 16 0 0 0-22.624 0l-34.848 34.8416a351.5968 351.5968 0 0 0-93.888-38.8736v-49.28a16 16 0 0 0-16-16L434.2144 102.4h-0.0064a16 16 0 0 0-16 16v49.3248a351.5584 351.5584 0 0 0-93.8944 38.8736l-35.0144-35.0144a16.0064 16.0064 0 0 0-22.6304 0l-101.184 101.184a16 16 0 0 0 0 22.6304l35.0144 35.0144a351.5904 351.5904 0 0 0-38.8736 93.888h-49.5616a16 16 0 0 0-16 16L96 583.3984a16 16 0 0 0 16 16h49.6128a351.616 351.616 0 0 0 38.8736 93.9008l-35.1296 35.136a16 16 0 0 0 0 22.624l101.184 101.184a16 16 0 0 0 22.6304 0l35.1296-35.136a351.648 351.648 0 0 0 93.8944 38.88v49.6128a16 16 0 0 0 16 16h0.0064l143.0976-0.0512a16 16 0 0 0 16-16v-49.5616a351.5584 351.5584 0 0 0 93.888-38.88l35.0144 35.0144a16 16 0 0 0 11.3152 4.6912h0.0064a16 16 0 0 0 11.3152-4.6976l101.1264-101.2352a16 16 0 0 0-0.0064-22.624l-34.9568-34.9632a351.6288 351.6288 0 0 0 38.8736-93.888h49.3248a15.9936 15.9936 0 0 0 16-16.0128l-0.0512-143.0912zM450.2016 134.4l111.0912 0.0384v45.9712a16 16 0 0 0 12.64 15.6416 320.2176 320.2176 0 0 1 106.912 44.2688 16 16 0 0 0 20-2.1248l32.5056-32.4992 78.5536 78.5536-32.5056 32.4992a16 16 0 0 0-2.1184 20 320.1856 320.1856 0 0 1 44.2624 106.912 16 16 0 0 0 15.648 12.64h45.9648l0.0384 111.0912h-46.0096a16 16 0 0 0-15.6416 12.64 320.1344 320.1344 0 0 1-44.2688 106.9184 16 16 0 0 0 2.1248 19.9936l32.6208 32.6272-78.5024 78.592-32.6656-32.6592a16 16 0 0 0-20-2.1248 320.1408 320.1408 0 0 1-106.9184 44.2688 16 16 0 0 0-12.6336 15.6416v46.2592l-111.0976 0.0384v-46.2912a16 16 0 0 0-12.64-15.6416 320.2048 320.2048 0 0 1-106.9184-44.2688 15.9936 15.9936 0 0 0-20 2.1248l-32.7808 32.7808-78.5536-78.5536 32.7872-32.7872a16 16 0 0 0 2.1184-20 320.1728 320.1728 0 0 1-44.2688-106.9184 16 16 0 0 0-15.6416-12.64h-46.2912l0.0384-111.0912h46.2528a16 16 0 0 0 15.6416-12.64 320.1728 320.1728 0 0 1 44.2688-106.912 16 16 0 0 0-2.1248-20l-32.672-32.672 78.56-78.5536 32.672 32.672a16 16 0 0 0 20 2.1184 320.2176 320.2176 0 0 1 106.912-44.2624 16 16 0 0 0 12.64-15.6416V134.4z m26.0864 107.1488c-61.3888 6.624-119.2896 34.3552-163.0272 78.0992-51.3792 51.3792-79.68 119.6864-79.68 192.3456 0 72.6592 28.3008 140.9728 79.68 192.3456 51.3728 51.3792 119.68 79.6736 192.3456 79.6736 72.6592 0 140.9664-28.2944 192.3456-79.6736 43.7632-43.7632 71.5008-101.6896 78.0992-163.1104 6.5088-60.4992-7.5904-122.0672-39.6864-173.3632a16.0064 16.0064 0 0 0-27.1296 16.9728c59.5904 95.232 45.6448 217.312-33.92 296.8704-45.3312 45.3376-105.6 70.2976-169.7088 70.2976-64.1152 0-124.384-24.96-169.7152-70.2976C290.5536 636.384 265.5872 576.1088 265.5872 512s24.9664-124.384 70.304-169.7152c79.5072-79.5072 201.5296-93.4848 296.7424-33.9968a15.9936 15.9936 0 1 0 16.9536-27.136c-51.2896-32.0512-112.8384-46.1056-173.2992-39.5904z" fill="#2A83FC" /><path d="M505.6 691.0208c4.2112 0 8.3392 1.696 11.3088 4.672 2.9824 2.9888 4.6912 7.104 4.6912 11.328 0 4.2048-1.7152 8.32-4.6912 11.296a16.0448 16.0448 0 0 1-11.3088 4.6912 16.0576 16.0576 0 0 1-11.3088-4.6912 16.0768 16.0768 0 0 1-4.6912-11.296c0-4.224 1.7152-8.352 4.6912-11.328a16.1024 16.1024 0 0 1 11.3088-4.672z m161.408-226.976c26.4704 0 48.0064 21.5296 48.0064 48s-21.536 48-48 48c-20.8832 0-38.6752-13.3952-45.2672-32.0448H585.408v164.6976a16 16 0 0 1-32.0064 0V512a16 16 0 0 1 16-16h52.3712c6.624-18.5984 24.3968-31.9552 45.2352-31.9552zM505.6 305.0368c29.9968 0 54.4 24.4096 54.4064 54.4064 0 24.4352-16.192 45.152-38.4 52V652.8a16 16 0 0 1-32.0064 0V411.4432c-22.208-6.848-38.4-27.5648-38.4-52 0-29.9968 24.4032-54.4 54.4-54.4zM344.192 464.0448c20.8448 0 38.6176 13.3568 45.2352 31.9552h52.3712a16 16 0 0 1 16 16v129.6064a16 16 0 0 1-32 0v-113.6h-36.3392c-6.592 18.6432-24.384 32.0448-45.2672 32.0448-26.4704 0-48-21.536-48-48 0-26.4704 21.5296-48.0064 48-48.0064z m0 32a16.0192 16.0192 0 0 0-16 16c0 8.832 7.1808 16 16 16 8.8256 0 16-7.168 16-16 0-8.8192-7.1744-16-16-16z m322.816 0a16.0192 16.0192 0 0 0-16 16c0 8.832 7.1808 16 16 16 8.8256 0 16-7.168 16-16 0-8.8192-7.1744-16-16-16zM505.6 337.0432c-12.352 0-22.4 10.048-22.4 22.4s10.048 22.4 22.4 22.4 22.4-10.048 22.4-22.4-10.048-22.4-22.4-22.4z" fill="#2BD2FC" /></svg>