<?xml version="1.0" standalone="no"?><!DOCTYPE svg PUBLIC "-//W3C//DTD SVG 1.1//EN" "http://www.w3.org/Graphics/SVG/1.1/DTD/svg11.dtd"><svg class="icon" width="48px" height="48.00px" viewBox="0 0 1024 1024" version="1.1" xmlns="http://www.w3.org/2000/svg"><path d="M793.6 665.6H492.8V364.8h300.8z" fill="#E9F2FE" /><path d="M569.6 438.4H454.4a16 16 0 0 0-16 16v115.2a16 16 0 0 0 16 16h115.2a16 16 0 0 0 16-16V454.4a16 16 0 0 0-16-16zM243.2 102.4c29.9968 0 54.4 24.4032 54.4 54.4 0 24.448-16.2112 45.1776-38.4512 52.0128V396.8H355.2v-25.6a16 16 0 0 1 16-16h124.8V256.7488c-22.208-6.848-38.4-27.5648-38.4-52 0-29.9968 24.4032-54.4 54.4-54.4 29.9968 0 54.4 24.4032 54.4 54.4 0 24.4352-16.192 45.1456-38.4 52V355.2H595.2V243.1488a16 16 0 0 1 16-16h105.632a16 16 0 0 1 0 32H627.2V355.2h25.6a16 16 0 0 1 16 16v124.8h98.4512c6.848-22.208 27.5712-38.4 52-38.4 29.9904 0 54.4 24.4032 54.4 54.4 0 29.9968-24.4032 54.4-54.4 54.4-24.4288 0-45.1456-16.192-52-38.4H668.8V595.2h112.0512a16 16 0 0 1 16 16v204.0192c22.1824 6.8672 38.3488 27.5712 38.3488 51.9808 0 29.9968-24.4032 54.4-54.4 54.4-29.9968 0-54.4-24.4032-54.4-54.4 0-24.448 16.2112-45.1776 38.4512-52.0064V627.2H668.8v25.6a16 16 0 0 1-16 16H528v98.4512c22.208 6.848 38.4 27.5648 38.4 51.9936 0 30.0032-24.4032 54.4-54.4 54.4-29.9968 0-54.4-24.4032-54.4-54.4 0-24.4288 16.192-45.1392 38.4-51.9936V668.8H428.8v112.0448a16 16 0 0 1-16 16H307.1616a16 16 0 0 1 0-32H396.8V668.8h-25.6a16 16 0 0 1-16-16V528H256.7424c-6.848 22.208-27.5584 38.4-51.9936 38.4-29.9968 0-54.4-24.4032-54.4-54.4 0-29.9968 24.4032-54.4 54.4-54.4 24.4288 0 45.1456 16.192 52 38.4H355.2V428.8H243.1488a16 16 0 0 1-16-16V208.7808C204.9664 201.92 188.8 181.216 188.8 156.8c0-29.9968 24.4032-54.4 54.4-54.4z m537.6 742.4c-12.352 0-22.4 10.048-22.4 22.4s10.048 22.4 22.4 22.4 22.4-10.048 22.4-22.4-10.048-22.4-22.4-22.4z m-268.8-47.9552c-12.352 0-22.4 10.048-22.4 22.4s10.048 22.4 22.4 22.4 22.4-10.048 22.4-22.4-10.048-22.4-22.4-22.4zM156.8 726.4c29.9968 0 54.4 24.4032 54.4 54.4 0 29.9968-24.4032 54.4-54.4 54.4-29.9968 0-54.4-24.4032-54.4-54.4 0-29.9968 24.4032-54.4 54.4-54.4z m0 32c-12.352 0-22.4 10.048-22.4 22.4s10.048 22.4 22.4 22.4 22.4-10.048 22.4-22.4-10.048-22.4-22.4-22.4z m93.6 6.4448c4.2048 0 8.3328 1.7152 11.3088 4.6912 2.976 2.976 4.6912 7.104 4.6912 11.3088 0 4.2112-1.7088 8.3392-4.6912 11.3152a16.1152 16.1152 0 0 1-11.3088 4.6848 16.128 16.128 0 0 1-11.3088-4.6848 16.1152 16.1152 0 0 1-4.6912-11.3152c0-4.2048 1.7088-8.3328 4.6912-11.3088a16.1152 16.1152 0 0 1 11.3088-4.6912zM636.8 387.2h-249.6v249.6h249.6v-249.6z m-83.2 83.2v83.2h-83.2v-83.2h83.2z m265.6512 19.2c-12.352 0-22.4 10.048-22.4 22.4s10.048 22.4 22.4 22.4 22.4-10.048 22.4-22.4-10.048-22.4-22.4-22.4z m-614.5024 0c-12.352 0-22.4 10.048-22.4 22.4s10.048 22.4 22.4 22.4 22.4-10.048 22.4-22.4-10.048-22.4-22.4-22.4z m662.4512-300.8c29.9968 0 54.4 24.4032 54.4 54.4 0 29.9968-24.4032 54.4-54.4 54.4-29.9968 0-54.4-24.4032-54.4-54.4 0-29.9968 24.4032-54.4 54.4-54.4z m0 32c-12.352 0-22.4 10.048-22.4 22.4s10.048 22.4 22.4 22.4 22.4-10.048 22.4-22.4-10.048-22.4-22.4-22.4z m-93.568 6.3488a16.128 16.128 0 0 1 11.3088 4.6912c2.976 2.976 4.6912 7.104 4.6912 11.3088 0 4.2112-1.7088 8.3392-4.6912 11.3152a16.1216 16.1216 0 0 1-11.3088 4.6912c-4.224 0-8.3328-1.7152-11.328-4.6912a16.1024 16.1024 0 0 1-4.672-11.3088c0-4.2112 1.696-8.3392 4.672-11.3152a16.128 16.128 0 0 1 11.328-4.6848z m-261.632-44.8c-12.352 0-22.4 10.048-22.4 22.4s10.048 22.4 22.4 22.4 22.4-10.048 22.4-22.4-10.048-22.4-22.4-22.4zM243.2 134.4c-12.352 0-22.4 10.048-22.4 22.4S230.848 179.2 243.2 179.2s22.4-10.048 22.4-22.4S255.552 134.4 243.2 134.4z" fill="#2A83FC" /><path d="M569.6 438.4H454.4a16 16 0 0 0-16 16v115.2a16 16 0 0 0 16 16h115.2a16 16 0 0 0 16-16V454.4a16 16 0 0 0-16-16z m83.2-83.2a16 16 0 0 1 16 16v281.6a16 16 0 0 1-16 16H371.2a16 16 0 0 1-16-16V371.2a16 16 0 0 1 16-16z m-16 32h-249.6v249.6h249.6v-249.6z m-83.2 83.2v83.2h-83.2v-83.2h83.2z" fill="#2BD2FC" /></svg>