<?xml version="1.0" standalone="no"?><!DOCTYPE svg PUBLIC "-//W3C//DTD SVG 1.1//EN" "http://www.w3.org/Graphics/SVG/1.1/DTD/svg11.dtd"><svg class="icon" width="48px" height="48.00px" viewBox="0 0 1024 1024" version="1.1" xmlns="http://www.w3.org/2000/svg"><path d="M880.6848 212.672c0-39.6288-32.2816-71.872-71.968-71.872H474.8032c-39.68 0-71.968 32.2432-71.968 71.872v592.2496c0 39.6288 32.288 71.8784 71.968 71.8784h329.0816c42.4128 0 76.8-34.3872 76.8-76.8V212.672z" fill="#E9F2FE" /><path d="M698.7968 102.4c44.2112 0 80.1792 35.8208 80.1792 79.8464v214.3872c8.8704-3.776 18.624-5.8624 28.864-5.8624 40.6656 0 73.7536 32.9536 73.7536 73.4592v210.6304c0 45.952-11.4048 91.7056-32.992 132.3136l-55.456 104.3328a16.0448 16.0448 0 0 1-21.6768 6.6432 15.936 15.936 0 0 1-6.6688-21.5872l55.456-104.3328a250.9888 250.9888 0 0 0 29.2736-117.376v-210.624c0-22.8928-18.7072-41.5232-41.696-41.5232-22.9888 0-41.6896 18.624-41.6896 41.5232v133.9904c0 5.2416-2.5792 10.144-6.912 13.1264l-14.6368 10.0992c-57.8112 39.8592-92.32 105.4656-92.32 175.488v107.0976a16.0064 16.0064 0 0 1-16.0384 15.9744H326.7904c-44.2112 0-80.1728-35.8208-80.1728-79.8464v-61.4848l-59.1808-18.112c-24.064-7.36-40.2368-29.152-40.2368-54.2272a56.0256 56.0256 0 0 1 19.3728-42.6048A56.352 56.352 0 0 1 147.2 621.0432a56.0256 56.0256 0 0 1 19.3728-42.5984A56.352 56.352 0 0 1 147.2 535.7568a56.0256 56.0256 0 0 1 19.3728-42.6048A56.352 56.352 0 0 1 147.2 450.464a56.128 56.128 0 0 1 23.1168-45.632 56.6272 56.6272 0 0 1 50.5856-8.6016l25.7152 7.872V182.2464c0-44.032 35.968-79.8464 80.1728-79.8464z m-78.592 731.3728H278.688v6.3872c0 26.4128 21.5744 47.904 48.1024 47.904h293.4144v-54.2912z m78.592-699.4368H326.7904c-26.528 0-48.1088 21.4912-48.1088 47.9104v231.6672l16.608 5.0816c24.064 7.36 40.2368 29.1584 40.2368 54.2336a56.0256 56.0256 0 0 1-19.3728 42.5984 56.3584 56.3584 0 0 1 19.3728 42.688 56.0256 56.0256 0 0 1-19.3728 42.6048 56.3584 56.3584 0 0 1 19.3728 42.688 56.0256 56.0256 0 0 1-19.3728 42.6048 56.3584 56.3584 0 0 1 19.3728 42.688 56.128 56.128 0 0 1-23.1168 45.632 56.6336 56.6336 0 0 1-33.6832 11.1488h-0.0448v15.9552h341.5232v-4.896c0-80.5056 39.68-155.9296 106.1376-201.7536l7.7312-5.3376V464.2304c0-15.5008 4.864-29.888 13.12-41.7472a16.0576 16.0576 0 0 1-0.288-2.9696V220.5696H378.88a16 16 0 0 1-16.032-15.968 16 16 0 0 1 16.032-15.968h368.0192v-6.3872c0-26.4192-21.5744-47.9104-48.1024-47.9104zM204.096 681.5232c-5.2352 0-10.3552 1.6576-14.72 4.8704a24.5312 24.5312 0 0 0-10.112 19.9424c0 10.9632 7.072 20.48 17.5936 23.6992l74.3872 22.7648a24.7488 24.7488 0 0 0 22.1056-3.7568 24.5376 24.5376 0 0 0 10.112-19.9488c0-10.9568-7.072-20.48-17.5936-23.6992l-24.0448-7.36-50.3616-15.4048a25.2416 25.2416 0 0 0-7.3664-1.1072z m0-85.2928c-5.2352 0-10.3552 1.664-14.72 4.8704a24.5312 24.5312 0 0 0-10.112 19.9424c0 10.9632 7.072 20.4864 17.5936 23.7056l50.5536 15.4688 23.8336 7.296a24.7616 24.7616 0 0 0 22.1056-3.7632 24.5376 24.5376 0 0 0 10.112-19.9424c0-10.9632-7.072-20.4864-17.5936-23.7056l-24.0448-7.36-50.3616-15.4048a25.2416 25.2416 0 0 0-7.3664-1.1072z m0-85.2928a24.768 24.768 0 0 0-14.72 4.8704 24.5312 24.5312 0 0 0-10.112 19.9488c0 10.9568 7.072 20.48 17.5872 23.6992l50.56 15.4688 23.8336 7.296a24.7424 24.7424 0 0 0 22.1056-3.7632 24.5376 24.5376 0 0 0 10.1056-19.9424c0-10.9568-7.0656-20.48-17.5872-23.7056l-24.0448-7.3536-50.368-15.4112a25.2416 25.2416 0 0 0-7.36-1.1072z m0-85.2928c-5.2352 0-10.3552 1.664-14.72 4.8768a24.5312 24.5312 0 0 0-10.112 19.9424c0 10.9568 7.072 20.48 17.5936 23.6992l50.5536 15.4688 23.8336 7.296a24.768 24.768 0 0 0 22.1056-3.7632 24.5376 24.5376 0 0 0 10.112-19.9424c0-10.9568-7.072-20.48-17.5936-23.6992L211.4816 426.752a25.2608 25.2608 0 0 0-7.3856-1.1136z m117.8688-237.0112c4.2176 0 8.3328 1.7024 11.3344 4.672 2.9824 2.976 4.6976 7.0976 4.6976 11.296 0 4.1984-1.7152 8.32-4.6976 11.2896a16.2112 16.2112 0 0 1-11.3344 4.672 16.192 16.192 0 0 1-11.3344-4.672 16.0448 16.0448 0 0 1-4.704-11.2896c0-4.1984 1.7152-8.32 4.704-11.2896a16.1792 16.1792 0 0 1 11.328-4.6784z" fill="#2A83FC" /><path d="M512.7936 743.8848c4.224 0 8.3584 1.7088 11.3344 4.672 2.9888 2.9888 4.704 7.0976 4.704 11.296 0 4.1984-1.7216 8.32-4.704 11.2896a16.128 16.128 0 0 1-11.328 4.6784 16.0192 16.0192 0 0 1-16.032-15.968c-0.0064-4.1984 1.7088-8.32 4.6912-11.2896a16.192 16.192 0 0 1 11.3344-4.6784z m0-479.5328c33.6 0 60.9344 27.2256 60.9344 60.6848 0 27.9296-19.0528 51.5008-44.896 58.528v168.864l109.9776-56.2944v-41.3184a53.2352 53.2352 0 0 1-22.0352-88.6336c20.8768-20.7872 54.848-20.7872 75.7248 0a53.2352 53.2352 0 0 1-21.6192 88.4992v51.2c0 5.9904-3.3664 11.4688-8.704 14.208L528.832 588.3328v107.2a16 16 0 0 1-16.0384 15.9616 16 16 0 0 1-16.032-15.968v-46.304l-107.4944-106.048a15.936 15.936 0 0 1-4.7488-11.3472v-38.976c-21.6128-6.8608-37.312-27.04-37.312-50.8032 0-29.408 24.0256-53.3312 53.5488-53.3312 29.5296 0 53.5488 23.9232 53.5488 53.3312 0 23.9168-15.8976 44.2048-37.7152 50.944v32.1728l80.1728 79.104V383.5584c-25.8432-7.0272-44.896-30.5984-44.896-58.528 0-33.4592 27.328-60.6848 60.928-60.6848zM400.7552 420.6592c-11.84 0-21.472 9.5936-21.472 21.3888a21.4592 21.4592 0 0 0 21.472 21.3888c11.84 0 21.4784-9.6 21.4784-21.3888a21.4592 21.4592 0 0 0-21.4784-21.3888z m269.0688-31.8912a21.568 21.568 0 0 0-30.3744 0 21.3504 21.3504 0 0 0 0 30.2464 21.5616 21.5616 0 0 0 30.3744 0 21.3504 21.3504 0 0 0 0-30.2464z m-157.0304-92.48c-15.9104 0-28.864 12.896-28.864 28.7488 0 15.8464 12.9536 28.736 28.864 28.736 15.9168 0 28.864-12.8896 28.864-28.736 0-15.8528-12.9472-28.7488-28.864-28.7488z" fill="#2BD2FC" /></svg>