<?xml version="1.0" standalone="no"?><!DOCTYPE svg PUBLIC "-//W3C//DTD SVG 1.1//EN" "http://www.w3.org/Graphics/SVG/1.1/DTD/svg11.dtd"><svg class="icon" width="48px" height="48.00px" viewBox="0 0 1024 1024" version="1.1" xmlns="http://www.w3.org/2000/svg"><path d="M715.37 306.4c-16.06 0.04-30.34-10.19-35.48-25.4l-20.17-60.88c-5.14-15.21-19.42-25.44-35.48-25.4H416.58c-16.06-0.04-30.34 10.19-35.48 25.4L360.93 281c-6.5 19.6-27.65 30.21-47.25 23.72s-30.21-27.65-23.72-47.25l20.17-60.88c15.28-45.79 58.17-76.64 106.44-76.57h207.66c48.27-0.07 91.16 30.78 106.44 76.57l20.17 60.88c7.03 18.73-2.45 39.62-21.18 46.65a36.283 36.283 0 0 1-14.29 2.28z m207.66 485.53V343.74H101.35v448.19c0 61.88 50.16 112.05 112.05 112.05h597.58c61.88 0 112.05-50.17 112.05-112.05z" fill="#32353F" /><path d="M101.35 469.61l375.36 186.74c10.47 5.2 22.77 5.2 33.24 0l410.84-205.42h1.87V343.74h-821.3v125.87z" fill="#18191C" /><path d="M84.54 428.9l410.84 205.42c10.47 5.2 22.77 5.2 33.24 0L939.46 428.9A37.347 37.347 0 0 0 960 395.66V306.4c0-20.63-16.72-37.35-37.35-37.35h-821.3C80.72 269.05 64 285.77 64 306.4v88.89a37.35 37.35 0 0 0 20.54 33.61z" fill="#676B77" /></svg>