<?xml version="1.0" standalone="no"?><!DOCTYPE svg PUBLIC "-//W3C//DTD SVG 1.1//EN" "http://www.w3.org/Graphics/SVG/1.1/DTD/svg11.dtd"><svg class="icon" width="48px" height="48.00px" viewBox="0 0 1024 1024" version="1.1" xmlns="http://www.w3.org/2000/svg"><path d="M924 1004H100c-44.182 0-80-35.818-80-80V100c0-44.182 35.818-80 80-80h824c44.182 0 80 35.818 80 80v824c0 44.182-35.818 80-80 80z" fill="#C8ADFF" /><path d="M784 320H240c-26.51 0-48-21.49-48-48V176c0-26.51 21.49-48 48-48h544c26.51 0 48 21.49 48 48v96c0 26.51-21.49 48-48 48z" fill="#FFFFFF" /><path d="M1004 638c-5.26 0-10.42-2.14-14.14-5.86S984 623.26 984 618s2.138-10.42 5.86-14.14c3.72-3.72 8.88-5.86 14.14-5.86s10.42 2.14 14.138 5.86c3.72 3.72 5.862 8.88 5.862 14.14s-2.14 10.42-5.862 14.14A20.144 20.144 0 0 1 1004 638z"  /><path d="M1004 562.562c11.044 0 20-8.954 20-20V100c0-55.14-44.86-100-100-100H100C44.86 0 0 44.86 0 100v824c0 55.14 44.86 100 100 100h824c55.14 0 100-44.86 100-100V695.336c0-11.046-8.956-20-20-20s-20 8.954-20 20V924c0 33.084-26.916 60-60 60H100c-33.084 0-60-26.916-60-60V100c0-26.072 16.722-48.304 40-56.56v111.226c0 11.046 8.956 20 20 20s20-8.954 20-20V40h804c33.084 0 60 26.916 60 60v442.562c0 11.046 8.956 20 20 20z"  /><path d="M100 206.66c-5.26 0-10.42 2.14-14.14 5.86S80 221.4 80 226.66c0 5.28 2.138 10.42 5.86 14.14 3.72 3.74 8.88 5.86 14.14 5.86s10.42-2.12 14.138-5.86A20.118 20.118 0 0 0 120 226.66c0-5.26-2.14-10.42-5.862-14.14A20.144 20.144 0 0 0 100 206.66zM784 340H240c-37.496 0-68-30.504-68-68V176c0-37.496 30.504-68 68-68h544c37.496 0 68 30.504 68 68v96c0 37.496-30.504 68-68 68zM240 148c-15.44 0-28 12.56-28 28v96c0 15.44 12.56 28 28 28h544c15.44 0 28-12.56 28-28V176c0-15.44-12.56-28-28-28H240z"  /><path d="M630.022 649.478l-4.02-5.576a170.004 170.004 0 0 1-32.096-99.41c0-46.54 40.644-82.636 86.858-77.14l59.08 7.026c67.786 8.062 112.666 74.358 94.966 140.29a433.886 433.886 0 0 0-14.836 112.49v115.42c0 44.898-36.396 81.294-81.294 81.294-46.636 0-83.712-39.152-81.174-85.718l4.36-80.018a169.998 169.998 0 0 0-31.844-108.658z" fill="#FFCC9C" /><path d="M738.68 943.876c-28.104 0-54.222-11.238-73.546-31.644-19.326-20.406-29.126-47.098-27.598-75.162l4.362-80.02c1.86-34.114-8.12-68.164-28.098-95.876l-4.018-5.574c-23.47-32.556-35.876-70.976-35.876-111.106a97.754 97.754 0 0 1 32.818-73.038 97.74 97.74 0 0 1 76.402-23.964l59.08 7.026c38.078 4.528 72.244 25.338 93.74 57.092s28.122 71.208 18.18 108.244a414.07 414.07 0 0 0-14.152 107.306v115.42c0 55.854-45.44 101.296-101.294 101.296z m-67.076-457.066a57.734 57.734 0 0 0-38.318 14.554 57.732 57.732 0 0 0-19.378 43.13c0 31.68 9.792 62.012 28.322 87.714l4.018 5.574h0.002c25.304 35.104 37.944 78.234 35.59 121.444l-4.362 80.02c-0.926 16.98 5.006 33.132 16.7 45.48s27.498 19.148 44.504 19.148c33.798 0 61.294-27.498 61.294-61.294v-115.42c0-39.72 5.22-79.312 15.52-117.676a91.97 91.97 0 0 0-12.672-75.45 91.96 91.96 0 0 0-65.338-39.794l-59.08-7.026a57.624 57.624 0 0 0-6.802-0.404zM666.58 426.18c-5.282 0-10.42-2.12-14.14-5.86a20.116 20.116 0 0 1-5.86-14.14c0-5.26 2.138-10.42 5.86-14.14 3.72-3.72 8.88-5.86 14.14-5.86s10.42 2.14 14.138 5.86c3.72 3.72 5.862 8.88 5.862 14.14s-2.14 10.42-5.862 14.14a20.058 20.058 0 0 1-14.138 5.86zM728.08 426.18c-5.282 0-10.42-2.12-14.16-5.86a20.096 20.096 0 0 1-5.84-14.14c0-5.26 2.12-10.42 5.84-14.14 3.74-3.72 8.9-5.86 14.16-5.86 5.24 0 10.4 2.14 14.138 5.86 3.72 3.72 5.862 8.88 5.862 14.14s-2.14 10.42-5.862 14.14a20.058 20.058 0 0 1-14.138 5.86zM789.54 443.54c-5.26 0-10.42-2.12-14.138-5.86a20.118 20.118 0 0 1-5.862-14.14c0-5.26 2.14-10.42 5.862-14.14 3.718-3.72 8.878-5.86 14.138-5.86s10.42 2.14 14.14 5.86c3.72 3.74 5.86 8.88 5.86 14.14s-2.138 10.42-5.86 14.14a20.074 20.074 0 0 1-14.14 5.86zM840.92 473.82c-5.282 0-10.42-2.14-14.16-5.86-3.72-3.72-5.84-8.88-5.84-14.14s2.12-10.42 5.84-14.14c3.74-3.72 8.9-5.86 14.16-5.86 5.24 0 10.4 2.14 14.138 5.86 3.72 3.72 5.862 8.88 5.862 14.14s-2.14 10.42-5.862 14.14a20.18 20.18 0 0 1-14.138 5.86zM593.9 438.72c-5.262 0-10.4-2.14-14.14-5.86-3.72-3.72-5.86-8.88-5.86-14.14s2.138-10.42 5.86-14.14a20.148 20.148 0 0 1 14.14-5.86c5.28 0 10.42 2.14 14.138 5.86 3.74 3.72 5.862 8.88 5.862 14.14s-2.122 10.42-5.862 14.14a20.144 20.144 0 0 1-14.138 5.86z"  /><path d="M393.978 649.478l4.02-5.576a169.99 169.99 0 0 0 32.096-99.41c0-46.54-40.644-82.636-86.858-77.14l-59.08 7.026c-67.786 8.062-112.666 74.358-94.966 140.29a433.886 433.886 0 0 1 14.836 112.49v115.42c0 44.898 36.396 81.294 81.294 81.294 46.636 0 83.712-39.152 81.174-85.718l-4.36-80.018a169.998 169.998 0 0 1 31.844-108.658z" fill="#FFCC9C" /><path d="M285.32 943.876c-55.854 0-101.294-45.44-101.294-101.294v-115.42c0-36.22-4.762-72.324-14.152-107.306a131.948 131.948 0 0 1 18.18-108.244 131.944 131.944 0 0 1 93.74-57.092l59.08-7.026a97.764 97.764 0 0 1 76.402 23.964 97.75 97.75 0 0 1 32.818 73.038c0 40.13-12.404 78.55-35.874 111.104l-4.02 5.576c-19.978 27.712-29.958 61.762-28.098 95.876l4.362 80.018c1.53 28.064-8.272 54.756-27.598 75.162-19.324 20.404-45.442 31.644-73.546 31.644z m67.076-457.066c-2.26 0-4.532 0.132-6.8 0.404l-59.08 7.026a91.96 91.96 0 0 0-65.338 39.794 91.97 91.97 0 0 0-12.672 75.45 454.072 454.072 0 0 1 15.52 117.676v115.42c0 33.798 27.496 61.294 61.294 61.294 17.006 0 32.81-6.8 44.504-19.148s17.626-28.5 16.7-45.482l-4.362-80.018c-2.354-43.21 10.286-86.34 35.59-121.444h0.002l4.02-5.576c18.528-25.702 28.32-56.032 28.32-87.712a57.732 57.732 0 0 0-19.378-43.13 57.748 57.748 0 0 0-38.32-14.554zM357.42 426.18c-5.26 0-10.42-2.12-14.14-5.86a20.116 20.116 0 0 1-5.86-14.14c0-5.26 2.138-10.42 5.86-14.14 3.72-3.72 8.88-5.86 14.14-5.86s10.42 2.14 14.138 5.86a20.154 20.154 0 0 1 5.862 14.14c0 5.28-2.14 10.42-5.862 14.14a20.058 20.058 0 0 1-14.138 5.86zM295.94 426.18c-5.26 0-10.42-2.12-14.16-5.84a20.2 20.2 0 0 1-5.86-14.16c0-5.26 2.138-10.42 5.86-14.14 3.74-3.72 8.9-5.86 14.16-5.86 5.24 0 10.4 2.14 14.12 5.86a20.068 20.068 0 0 1 5.862 14.14c0 5.28-2.122 10.42-5.862 14.16a20.12 20.12 0 0 1-14.12 5.84zM234.458 443.54c-5.28 0-10.42-2.12-14.138-5.84-3.72-3.74-5.862-8.9-5.862-14.16s2.14-10.42 5.862-14.14a20.112 20.112 0 0 1 14.138-5.86c5.26 0 10.42 2.14 14.14 5.86 3.72 3.72 5.86 8.88 5.86 14.14 0 5.28-2.138 10.42-5.86 14.16a20.132 20.132 0 0 1-14.14 5.84zM183.08 473.82c-5.26 0-10.4-2.14-14.14-5.86-3.72-3.72-5.86-8.88-5.86-14.14s2.138-10.42 5.86-14.14c3.74-3.72 8.88-5.86 14.14-5.86s10.42 2.14 14.16 5.86c3.718 3.72 5.84 8.88 5.84 14.14s-2.122 10.42-5.84 14.14a20.234 20.234 0 0 1-14.16 5.86zM430.1 438.72c-5.28 0-10.42-2.14-14.14-5.86-3.718-3.72-5.86-8.88-5.86-14.14s2.14-10.42 5.86-14.14a20.088 20.088 0 0 1 14.14-5.86c5.26 0 10.42 2.14 14.14 5.86 3.718 3.72 5.86 8.88 5.86 14.14s-2.14 10.42-5.86 14.14a20.152 20.152 0 0 1-14.14 5.86zM512 210.66c-5.26 0-10.42-2.12-14.14-5.86a20.152 20.152 0 0 1-5.86-14.14c0-5.24 2.138-10.4 5.86-14.14 3.72-3.72 8.88-5.86 14.14-5.86s10.42 2.14 14.138 5.86A20.154 20.154 0 0 1 532 190.66c0 5.28-2.14 10.42-5.862 14.14a20.058 20.058 0 0 1-14.138 5.86zM512 268c-5.26 0-10.42-2.14-14.14-5.86S492 253.26 492 248s2.138-10.42 5.86-14.14c3.72-3.72 8.88-5.86 14.14-5.86s10.42 2.14 14.138 5.86c3.72 3.72 5.862 8.88 5.862 14.14s-2.14 10.42-5.862 14.14A20.144 20.144 0 0 1 512 268zM420.568 244H320c-11.044 0-20-8.954-20-20s8.956-20 20-20h100.568c11.044 0 20 8.954 20 20s-8.954 20-20 20zM704 244h-100.568c-11.044 0-20-8.954-20-20s8.956-20 20-20H704c11.044 0 20 8.954 20 20s-8.956 20-20 20z"  /></svg>