<?xml version="1.0" standalone="no"?><!DOCTYPE svg PUBLIC "-//W3C//DTD SVG 1.1//EN" "http://www.w3.org/Graphics/SVG/1.1/DTD/svg11.dtd"><svg class="icon" width="48px" height="48.00px" viewBox="0 0 1024 1024" version="1.1" xmlns="http://www.w3.org/2000/svg"><path d="M519.8 435.9m-39.2 0a39.2 39.2 0 1 0 78.4 0 39.2 39.2 0 1 0-78.4 0Z" fill="#F9DAF9" /><path d="M519.8 420.8c8.3 0 15.1 6.8 15.1 15.1s-6.8 15.1-15.1 15.1-15.1-6.8-15.1-15.1 6.7-15.1 15.1-15.1m0-24.1c-21.6 0-39.2 17.5-39.2 39.2s17.5 39.2 39.2 39.2c21.6 0 39.2-17.5 39.2-39.2s-17.6-39.2-39.2-39.2zM365.7 254.9c-3.7 0-7.4-1.7-9.7-4.9-3.9-5.4-2.8-12.9 2.6-16.8 47-34.4 102.7-52.6 161.2-52.6 58.4 0 114.1 18.2 161.1 52.6 5.4 3.9 6.5 11.4 2.6 16.8s-11.4 6.5-16.8 2.6c-42.9-31.3-93.7-47.9-146.9-47.9-53.3 0-104.1 16.6-147 47.9-2.1 1.6-4.6 2.3-7.1 2.3z" fill="#313232" /><path d="M415.3 305.2c-3.7 0-7.4-1.7-9.7-4.9-3.9-5.4-2.8-12.9 2.6-16.8 32.5-23.8 71.1-36.4 111.6-36.4s79 12.6 111.6 36.4c5.4 3.9 6.5 11.4 2.6 16.8s-11.4 6.5-16.8 2.6c-28.4-20.8-62.1-31.8-97.4-31.8-35.3 0-69 11-97.4 31.8-2.1 1.5-4.6 2.3-7.1 2.3zM457.9 357.7c-3.7 0-7.4-1.7-9.7-4.9-3.9-5.4-2.8-12.9 2.6-16.8 20.1-14.7 44-22.5 69-22.5s48.9 7.8 69 22.5c5.4 3.9 6.5 11.4 2.6 16.8s-11.5 6.5-16.8 2.6c-16-11.7-34.9-17.9-54.8-17.9s-38.8 6.2-54.8 17.9c-2.2 1.5-4.7 2.3-7.1 2.3z" fill="#313232" /><path d="M186.7 619.2m-71.4 0a71.4 71.4 0 1 0 142.8 0 71.4 71.4 0 1 0-142.8 0Z" fill="#FFFFFF" /><path d="M186.7 571.8c26.1 0 47.4 21.3 47.4 47.4 0 26.1-21.3 47.4-47.4 47.4-26.1 0-47.4-21.3-47.4-47.4 0-26.2 21.2-47.4 47.4-47.4m0-24.1c-39.5 0-71.4 32-71.4 71.4s32 71.4 71.4 71.4c39.5 0 71.4-32 71.4-71.4s-32-71.4-71.4-71.4z" fill="#313232" /><path d="M841.1 619.2m-71.4 0a71.4 71.4 0 1 0 142.8 0 71.4 71.4 0 1 0-142.8 0Z" fill="#FFFFFF" /><path d="M841.1 571.8c26.1 0 47.4 21.3 47.4 47.4 0 26.1-21.3 47.4-47.4 47.4-26.1 0-47.4-21.3-47.4-47.4 0.1-26.2 21.3-47.4 47.4-47.4m0-24.1c-39.5 0-71.4 32-71.4 71.4s32 71.4 71.4 71.4 71.4-32 71.4-71.4-31.9-71.4-71.4-71.4z" fill="#313232" /><path d="M514.6 619.2m-99.1 0a99.1 99.1 0 1 0 198.2 0 99.1 99.1 0 1 0-198.2 0Z" fill="#CEFDDB" /><path d="M514.6 544.1c41.4 0 75.1 33.7 75.1 75.1 0 41.4-33.7 75.1-75.1 75.1-41.4 0-75.1-33.7-75.1-75.1 0.1-41.4 33.7-75.1 75.1-75.1m0-24c-54.7 0-99.1 44.4-99.1 99.1 0 54.7 44.4 99.1 99.1 99.1 54.7 0 99.1-44.4 99.1-99.1 0-54.8-44.3-99.1-99.1-99.1z" fill="#313232" /><path d="M729 845.5c-6.6 0-12-5.4-12-12 0-78-45.6-149.9-116.3-183.2-6-2.8-8.6-10-5.8-16s10-8.6 16-5.8c79 37.2 130.1 117.6 130.1 204.9 0 6.7-5.4 12.1-12 12.1zM300.3 845.5c-6.6 0-12-5.4-12-12 0-87.3 51.1-167.7 130.1-204.9 6-2.8 13.2-0.2 16 5.8s0.3 13.2-5.8 16C358 683.6 312.3 755.5 312.3 833.5c0 6.6-5.4 12-12 12zM184 564.5c-6.6 0-12-5.4-12-12v-87.4c0-6.6 5.4-12 12-12s12 5.4 12 12v87.4c0 6.6-5.3 12-12 12z" fill="#313232" /><path d="M288.5 477.1H76.2c-6.6 0-12-5.4-12-12s5.4-12 12-12h212.3c6.6 0 12 5.4 12 12s-5.4 12-12 12zM516.3 543.6c-6.6 0-12-5.4-12-12V465c0-6.6 5.4-12 12-12s12 5.4 12 12v66.6c0 6.7-5.4 12-12 12zM842.8 568.5c-6.6 0-12-5.4-12-12v-87.4c0-6.6 5.4-12 12-12s12 5.4 12 12v87.4c0.1 6.6-5.3 12-12 12z" fill="#313232" /><path d="M947.3 481.1H735c-6.6 0-12-5.4-12-12s5.4-12 12-12h212.3c6.6 0 12 5.4 12 12s-5.4 12-12 12zM423.6 626.4H258.1c-6.6 0-12-5.4-12-12s5.4-12 12-12h165.5c6.6 0 12 5.4 12 12 0.1 6.6-5.3 12-12 12zM777.5 626.4H612c-6.6 0-12-5.4-12-12s5.4-12 12-12h165.5c6.6 0 12 5.4 12 12s-5.3 12-12 12z" fill="#313232" /></svg>