<?xml version="1.0" standalone="no"?><!DOCTYPE svg PUBLIC "-//W3C//DTD SVG 1.1//EN" "http://www.w3.org/Graphics/SVG/1.1/DTD/svg11.dtd"><svg class="icon" width="48px" height="48.00px" viewBox="0 0 1024 1024" version="1.1" xmlns="http://www.w3.org/2000/svg"><path d="M247.155898 36.790842V1024H0.00053V182.700779c-0.035308-4.678298 1.765395-9.180057 5.031377-12.551962C61.242099 113.055927 145.557388 66.608372 247.155898 36.790842z" fill="#3B97D3" /><path d="M370.733583 1024h282.463278V25.633543a17.653955 17.653955 0 0 0-15.323633-17.653955 997.324874 997.324874 0 0 0-251.816013 0 17.653955 17.653955 0 0 0-15.323632 17.653955V1024z" fill="#24AE5F" /><path d="M370.733583 1024h282.463278V25.633543a17.653955 17.653955 0 0 0-15.323633-17.653955 997.324874 997.324874 0 0 0-251.816013 0 17.653955 17.653955 0 0 0-15.323632 17.653955V1024z" fill="#24AE5F" /><path d="M370.733583 141.302255v882.697745h-123.577685V36.790842z" fill="#2980BA" /><path d="M441.349402 105.994345m17.653955 0l105.923729 0q17.653955 0 17.653955 17.653955l0 423.694918q0 17.653955-17.653955 17.653955l-105.923729 0q-17.653955 0-17.653955-17.653955l0-423.694918q0-17.653955 17.653955-17.653955Z" fill="#D1D4D1" /><path d="M158.886124 653.266947H88.270304a17.653955 17.653955 0 0 1-17.653955-17.653955V274.324805a17.653955 17.653955 0 0 1 7.85601-14.68809l70.61582-47.083098a17.653955 17.653955 0 0 1 27.4519 14.705744V635.612992a17.653955 17.653955 0 0 1-17.653955 17.653955z" fill="#D1D4D1" /><path d="M158.886124 670.920902H88.270304a35.30791 35.30791 0 0 1-35.30791-35.30791V274.324805a35.30791 35.30791 0 0 1 15.729674-29.376181l70.61582-47.083097A35.30791 35.30791 0 0 1 194.194034 227.241707V635.612992a35.30791 35.30791 0 0 1-35.30791 35.30791z m0-443.679195l-70.61582 47.083098V635.612992h70.61582V227.241707z" fill="#285680" /><path d="M511.965222 829.806496m-70.61582 0a70.61582 70.61582 0 1 0 141.231639 0 70.61582 70.61582 0 1 0-141.231639 0Z" fill="#2C3E50" /><path d="M511.965222 918.076271a88.269774 88.269774 0 1 1 0-176.539549 88.269774 88.269774 0 0 1 0 176.539549z m0-141.23164a52.961865 52.961865 0 1 0 0 105.92373 52.961865 52.961865 0 0 0 0-105.92373z" fill="#4C8056" /><path d="M70.616349 829.806496a70.61582 52.961865 90 1 0 105.92373 0 70.61582 52.961865 90 1 0-105.92373 0Z" fill="#2C3E50" /><path d="M123.578214 918.076271c-38.944625 0-70.61582-39.597821-70.61582-88.269775s31.671195-88.269774 70.61582-88.269774 70.61582 39.597821 70.61582 88.269774-31.671195 88.269774-70.61582 88.269775z m0-141.23164c-19.136887 0-35.30791 24.256534-35.30791 52.961865s16.171023 52.961865 35.30791 52.961865 35.30791-24.256534 35.30791-52.961865-16.171023-52.961865-35.30791-52.961865z" fill="#285680" /><path d="M776.774545 36.790842V1024h247.155369V182.700779c0.035308-4.678298-1.765395-9.180057-5.031377-12.551962C962.688344 113.055927 878.373056 66.608372 776.774545 36.790842z" fill="#3B97D3" /><path d="M653.196861 141.302255v882.697745h123.577684V36.790842z" fill="#2980BA" /><path d="M865.04432 653.266947h70.615819a17.653955 17.653955 0 0 0 17.653955-17.653955V274.324805a17.653955 17.653955 0 0 0-7.85601-14.68809l-70.615819-47.083098a17.653955 17.653955 0 0 0-27.4519 14.705744V635.612992a17.653955 17.653955 0 0 0 17.653955 17.653955z" fill="#D1D4D1" /><path d="M829.73641 635.612992V227.241707a35.30791 35.30791 0 0 1 54.886146-29.446796l70.615819 47.083097A35.30791 35.30791 0 0 1 970.968049 274.324805V635.612992a35.30791 35.30791 0 0 1-35.30791 35.30791h-70.615819a35.30791 35.30791 0 0 1-35.30791-35.30791z m35.30791 0h70.615819V274.324805l-70.615819-47.083098V635.612992z" fill="#285680" /><path d="M847.390365 829.806496a70.61582 52.961865 90 1 0 105.923729 0 70.61582 52.961865 90 1 0-105.923729 0Z" fill="#2C3E50" /><path d="M829.73641 829.806496c0-48.671954 31.671195-88.269774 70.61582-88.269774s70.61582 39.597821 70.615819 88.269774-31.671195 88.269774-70.615819 88.269775-70.61582-39.597821-70.61582-88.269775z m35.30791 0c0 28.705331 16.171023 52.961865 35.30791 52.961865s35.30791-24.256534 35.307909-52.961865-16.171023-52.961865-35.307909-52.961865-35.30791 24.256534-35.30791 52.961865z" fill="#285680" /><path d="M582.581041 229.57203h-141.231639a17.653955 17.653955 0 0 1 0-35.30791h141.231639a17.653955 17.653955 0 0 1 0 35.30791zM582.581041 300.187849h-141.231639a17.653955 17.653955 0 0 1 0-35.30791h141.231639a17.653955 17.653955 0 0 1 0 35.30791zM582.581041 370.803669h-141.231639a17.653955 17.653955 0 0 1 0-35.30791h141.231639a17.653955 17.653955 0 0 1 0 35.30791zM582.581041 441.419488h-141.231639a17.653955 17.653955 0 0 1 0-35.307909h141.231639a17.653955 17.653955 0 0 1 0 35.307909zM582.581041 512.035308h-141.231639a17.653955 17.653955 0 0 1 0-35.30791h141.231639a17.653955 17.653955 0 0 1 0 35.30791z" fill="#2C3E50" /><path d="M564.927086 582.651128h-105.923729a35.30791 35.30791 0 0 1-35.30791-35.30791V123.6483a35.30791 35.30791 0 0 1 35.30791-35.30791h105.923729a35.30791 35.30791 0 0 1 35.30791 35.30791v423.694918a35.30791 35.30791 0 0 1-35.30791 35.30791zM459.003357 123.6483v423.694918h105.923729V123.6483h-105.923729z" fill="#4C8056" /><path d="M370.733583 141.302255v882.697745h-35.30791V111.467071zM688.504771 111.467071V1024h-35.30791V141.302255z" fill="#285680" /></svg>