<?xml version="1.0" standalone="no"?><!DOCTYPE svg PUBLIC "-//W3C//DTD SVG 1.1//EN" "http://www.w3.org/Graphics/SVG/1.1/DTD/svg11.dtd"><svg class="icon" width="48px" height="48.00px" viewBox="0 0 1024 1024" version="1.1" xmlns="http://www.w3.org/2000/svg"><path d="M871.936 872.96h-716.8c-39.424 0-71.68-32.256-71.68-71.68v-102.4c0-39.424 32.256-71.68 71.68-71.68h716.8c39.424 0 71.68 32.256 71.68 71.68v102.4c0 39.424-31.744 71.68-71.68 71.68z m-716.8-204.8c-16.896 0-30.72 13.824-30.72 30.72v102.4c0 16.896 13.824 30.72 30.72 30.72h716.8c16.896 0 30.72-13.824 30.72-30.72v-102.4c0-16.896-13.824-30.72-30.72-30.72h-716.8z" fill="#181818" /><path d="M513.536 109.568c141.312 0 256 114.688 256 256V624.64h-512V365.568c0-141.824 114.688-256 256-256m0-40.96c-163.84 0-296.96 133.12-296.96 296.96V624.64c0 22.528 18.432 40.96 40.96 40.96h512c22.528 0 40.96-18.432 40.96-40.96V365.568c0-163.84-133.12-296.96-296.96-296.96zM236.032 945.152c-11.264 0-20.48-9.216-20.48-20.48V870.4c0-11.264 9.216-20.48 20.48-20.48s20.48 9.216 20.48 20.48v54.784c0 10.752-9.216 19.968-20.48 19.968zM541.184 768.512H486.4c-11.264 0-20.48-9.216-20.48-20.48s9.216-20.48 20.48-20.48h54.784c11.264 0 20.48 9.216 20.48 20.48s-9.216 20.48-20.48 20.48zM787.968 945.152c-11.264 0-20.48-9.216-20.48-20.48V870.4c0-11.264 9.216-20.48 20.48-20.48s20.48 9.216 20.48 20.48v54.784c0 10.752-9.216 19.968-20.48 19.968z" fill="#181818" /><path d="M769.536 624.64h-512V365.568c0-141.312 114.688-256 256-256s256 114.688 256 256V624.64z" fill="#4F8DFC" /><path d="M513.536 150.528c118.784 0 215.04 96.256 215.04 215.04V583.68h-430.08V365.568c0-118.784 96.768-215.04 215.04-215.04m0-40.96c-141.312 0-256 114.688-256 256V624.64h512V365.568c0-141.824-114.176-256-256-256z" fill="#181818" /><path d="M595.456 541.696c-5.12 0-10.24-2.048-14.336-6.144-8.192-8.192-8.192-20.992 0-29.184l34.304-34.304c8.192-8.192 20.992-8.192 29.184 0 8.192 8.192 8.192 20.992 0 29.184l-34.304 34.304c-4.608 4.096-9.728 6.144-14.848 6.144zM513.536 514.048c-5.12 0-10.24-2.048-14.336-6.144-8.192-8.192-8.192-20.992 0-29.184l88.576-88.576c8.192-8.192 20.992-8.192 29.184 0 8.192 8.192 8.192 20.992 0 29.184l-88.576 88.576c-4.096 4.096-9.216 6.144-14.848 6.144z" fill="#181818" /></svg>