<?xml version="1.0" standalone="no"?><!DOCTYPE svg PUBLIC "-//W3C//DTD SVG 1.1//EN" "http://www.w3.org/Graphics/SVG/1.1/DTD/svg11.dtd"><svg class="icon" width="48px" height="48.00px" viewBox="0 0 1024 1024" version="1.1" xmlns="http://www.w3.org/2000/svg"><path d="M931.84 662.528H112.64c-11.264 0-20.48-9.216-20.48-20.48s9.216-20.48 20.48-20.48h819.2c11.264 0 20.48 9.216 20.48 20.48s-9.216 20.48-20.48 20.48zM880.64 787.968H163.84c-11.264 0-20.48-9.216-20.48-20.48s9.216-20.48 20.48-20.48h716.8c11.264 0 20.48 9.216 20.48 20.48s-9.216 20.48-20.48 20.48zM829.44 913.408H215.04c-11.264 0-20.48-9.216-20.48-20.48s9.216-20.48 20.48-20.48h614.4c11.264 0 20.48 9.216 20.48 20.48s-9.216 20.48-20.48 20.48zM522.24 233.472c-11.264 0-20.48-9.216-20.48-20.48v-81.92c0-11.264 9.216-20.48 20.48-20.48s20.48 9.216 20.48 20.48v81.92c0 11.264-9.216 20.48-20.48 20.48zM777.728 303.104c-4.608 0-9.216-1.536-13.312-4.608-8.704-7.168-9.728-19.968-2.56-28.672l52.736-62.976c7.168-8.704 19.968-9.728 28.672-2.56 8.704 7.168 9.728 19.968 2.56 28.672l-52.736 62.976c-4.096 4.608-9.728 7.168-15.36 7.168zM266.752 303.104c-5.632 0-11.776-2.56-15.872-7.168L198.656 232.96c-7.168-8.704-6.144-21.504 2.56-28.672 8.704-7.168 21.504-6.144 28.672 2.56l52.736 62.976c7.168 8.704 6.144 21.504-2.56 28.672-3.584 2.56-8.192 4.608-13.312 4.608z" fill="#181818" /><path d="M522.24 328.192c161.28 0 292.352 131.072 292.352 292.352H229.888c0-161.28 131.072-292.352 292.352-292.352m0-40.96c-183.808 0-333.312 149.504-333.312 333.312 0 22.528 18.432 40.96 40.96 40.96h584.704c22.528 0 40.96-18.432 40.96-40.96 0-183.808-149.504-333.312-333.312-333.312z" fill="#181818" /><path d="M229.888 620.544c0-161.28 131.072-292.352 292.352-292.352s292.352 131.072 292.352 292.352H229.888z" fill="#4F8DFC" /><path d="M522.24 369.152c124.416 0 228.352 91.136 247.808 210.432H274.432c19.456-119.296 123.392-210.432 247.808-210.432m0-40.96c-161.28 0-292.352 131.072-292.352 292.352h584.704c0-161.28-131.072-292.352-292.352-292.352z" fill="#181818" /></svg>