<?xml version="1.0" standalone="no"?><!DOCTYPE svg PUBLIC "-//W3C//DTD SVG 1.1//EN" "http://www.w3.org/Graphics/SVG/1.1/DTD/svg11.dtd"><svg class="icon" width="48px" height="48.00px" viewBox="0 0 1024 1024" version="1.1" xmlns="http://www.w3.org/2000/svg"><path d="M768 942.08H256c-67.584 0-122.88-55.296-122.88-122.88V204.8c0-67.584 55.296-122.88 122.88-122.88h512c67.584 0 122.88 55.296 122.88 122.88v614.4c0 67.584-55.296 122.88-122.88 122.88zM256 122.88c-45.056 0-81.92 36.864-81.92 81.92v614.4c0 45.056 36.864 81.92 81.92 81.92h512c45.056 0 81.92-36.864 81.92-81.92V204.8c0-45.056-36.864-81.92-81.92-81.92H256z" fill="#181818" /><path d="M870.4 311.808H153.6c-11.264 0-20.48-9.216-20.48-20.48V204.8c0-67.584 55.296-122.88 122.88-122.88h512c67.584 0 122.88 55.296 122.88 122.88v86.528c0 11.264-9.216 20.48-20.48 20.48z m-696.32-40.96h675.84V204.8c0-45.056-36.864-81.92-81.92-81.92H256c-45.056 0-81.92 36.864-81.92 81.92v66.048zM512 412.16c107.52 0 194.56 87.04 194.56 194.56s-87.04 194.56-194.56 194.56-194.56-87.04-194.56-194.56 87.04-194.56 194.56-194.56m0-40.96c-130.048 0-235.52 105.472-235.52 235.52s105.472 235.52 235.52 235.52 235.52-105.472 235.52-235.52-105.472-235.52-235.52-235.52z" fill="#181818" /><path d="M748.032 217.088h-153.6c-11.264 0-20.48-9.216-20.48-20.48s9.216-20.48 20.48-20.48h153.6c11.264 0 20.48 9.216 20.48 20.48s-9.216 20.48-20.48 20.48z" fill="#181818" /><path d="M512 606.72m-194.56 0a194.56 194.56 0 1 0 389.12 0 194.56 194.56 0 1 0-389.12 0Z" fill="#4F8DFC" /><path d="M512 453.12c84.48 0 153.6 69.12 153.6 153.6s-69.12 153.6-153.6 153.6-153.6-69.12-153.6-153.6 69.12-153.6 153.6-153.6m0-40.96c-107.52 0-194.56 87.04-194.56 194.56s87.04 194.56 194.56 194.56 194.56-87.04 194.56-194.56-87.04-194.56-194.56-194.56z" fill="#181818" /><path d="M430.08 560.128c-4.608 0-9.216-1.536-12.8-4.608-8.704-7.168-9.728-19.968-2.56-28.672 8.704-10.24 18.432-18.944 29.696-26.624 9.728-6.144 22.016-3.072 28.16 6.144 6.144 9.728 3.072 22.016-6.144 28.16-7.68 5.12-14.336 10.752-19.968 17.92-4.608 5.12-10.24 7.68-16.384 7.68z" fill="#181818" /></svg>