<?xml version="1.0" standalone="no"?><!DOCTYPE svg PUBLIC "-//W3C//DTD SVG 1.1//EN" "http://www.w3.org/Graphics/SVG/1.1/DTD/svg11.dtd"><svg class="icon" width="48px" height="48.00px" viewBox="0 0 1024 1024" version="1.1" xmlns="http://www.w3.org/2000/svg"><path d="M430.08 246.272c127.488 0 230.4 102.912 230.4 230.4v76.8c0 56.32-46.08 102.4-102.4 102.4H302.08c-56.32 0-102.4-46.08-102.4-102.4v-76.8c0-127.488 102.912-230.4 230.4-230.4m0-40.96c-149.504 0-271.36 121.856-271.36 271.36v76.8c0 78.848 64.512 143.36 143.36 143.36h256c78.848 0 143.36-64.512 143.36-143.36v-76.8c0-150.016-121.856-271.36-271.36-271.36z" fill="#181818" /><path d="M839.68 942.08c-11.264 0-20.48-9.216-20.48-20.48V204.8c0-45.056-36.864-81.92-81.92-81.92h-204.8c-45.056 0-81.92 36.864-81.92 81.92 0 11.264-9.216 20.48-20.48 20.48s-20.48-9.216-20.48-20.48c0-67.584 55.296-122.88 122.88-122.88h204.8c67.584 0 122.88 55.296 122.88 122.88v716.8c0 11.776-9.216 20.48-20.48 20.48zM430.08 847.872c-11.264 0-20.48-9.216-20.48-20.48v-81.92c0-11.264 9.216-20.48 20.48-20.48s20.48 9.216 20.48 20.48v81.92c0 11.264-9.216 20.48-20.48 20.48zM686.592 820.736c-5.632 0-11.776-2.56-15.872-7.168l-52.736-62.976c-7.168-8.704-6.144-21.504 2.56-28.672 8.704-7.168 21.504-6.144 28.672 2.56l52.736 62.976c7.168 8.704 6.144 21.504-2.56 28.672-3.072 3.072-8.192 4.608-12.8 4.608zM173.056 820.736c-4.608 0-9.216-1.536-13.312-4.608-8.704-7.168-9.728-19.968-2.56-28.672L209.92 724.48c7.168-8.704 19.968-9.728 28.672-2.56 8.704 7.168 9.728 19.968 2.56 28.672l-52.736 62.976c-3.584 4.608-9.216 7.168-15.36 7.168z" fill="#181818" /><path d="M558.08 655.872H302.08c-56.32 0-102.4-46.08-102.4-102.4v-76.8c0-127.488 102.912-230.4 230.4-230.4s230.4 102.912 230.4 230.4v76.8c0 56.32-46.08 102.4-102.4 102.4z" fill="#4F8DFC" /><path d="M430.08 287.232c104.448 0 189.44 84.992 189.44 189.44v76.8c0 33.792-27.648 61.44-61.44 61.44H302.08c-33.792 0-61.44-27.648-61.44-61.44v-76.8c0-104.448 84.992-189.44 189.44-189.44m0-40.96c-127.488 0-230.4 102.912-230.4 230.4v76.8c0 56.32 46.08 102.4 102.4 102.4h256c56.32 0 102.4-46.08 102.4-102.4v-76.8c0-127.488-103.424-230.4-230.4-230.4z" fill="#181818" /><path d="M501.76 567.808c-6.656 0-13.824-3.584-17.408-9.728-5.632-9.728-3.072-22.016 6.656-28.16 16.384-9.728 30.72-22.016 43.008-36.864 7.168-8.704 20.48-9.728 28.672-2.048s9.728 20.48 2.048 28.672c-15.36 17.92-33.28 32.768-52.736 45.056-3.072 2.048-6.656 3.072-10.24 3.072z" fill="#181818" /></svg>