<?xml version="1.0" standalone="no"?><!DOCTYPE svg PUBLIC "-//W3C//DTD SVG 1.1//EN" "http://www.w3.org/Graphics/SVG/1.1/DTD/svg11.dtd"><svg class="icon" width="48px" height="48.00px" viewBox="0 0 1024 1024" version="1.1" xmlns="http://www.w3.org/2000/svg"><path d="M821.76 81.92h-614.4c-67.584 0-122.88 55.296-122.88 122.88v614.4c0 67.584 55.296 122.88 122.88 122.88h614.4c67.584 0 122.88-55.296 122.88-122.88V204.8c0-67.584-55.296-122.88-122.88-122.88z m81.92 737.28c0 45.056-36.864 81.92-81.92 81.92h-614.4c-45.056 0-81.92-36.864-81.92-81.92V204.8c0-45.056 36.864-81.92 81.92-81.92h614.4c45.056 0 81.92 36.864 81.92 81.92v614.4z" fill="#181818" /><path d="M212.992 196.608m-30.72 0a30.72 30.72 0 1 0 61.44 0 30.72 30.72 0 1 0-61.44 0Z" fill="#181818" /><path d="M306.688 196.608m-30.72 0a30.72 30.72 0 1 0 61.44 0 30.72 30.72 0 1 0-61.44 0Z" fill="#181818" /><path d="M924.16 311.808h-819.2c-11.264 0-20.48-9.216-20.48-20.48V204.8c0-67.584 55.296-122.88 122.88-122.88h614.4c67.584 0 122.88 55.296 122.88 122.88v86.528c0 11.264-9.216 20.48-20.48 20.48z m-798.72-40.96h778.24V204.8c0-45.056-36.864-81.92-81.92-81.92h-614.4c-45.056 0-81.92 36.864-81.92 81.92v66.048zM924.16 374.272h-819.2c-11.264 0-20.48 9.216-20.48 20.48V819.2c0 67.584 55.296 122.88 122.88 122.88h614.4c67.584 0 122.88-55.296 122.88-122.88V394.752c0-11.264-9.216-20.48-20.48-20.48z m-20.48 444.928c0 45.056-36.864 81.92-81.92 81.92h-614.4c-45.056 0-81.92-36.864-81.92-81.92V415.232h778.24V819.2z" fill="#181818" /><path d="M796.672 217.088h-153.6c-11.264 0-20.48-9.216-20.48-20.48s9.216-20.48 20.48-20.48h153.6c11.264 0 20.48 9.216 20.48 20.48s-9.216 20.48-20.48 20.48z" fill="#181818" /><path d="M903.68 415.232V819.2c0 45.056-36.864 81.92-81.92 81.92h-614.4c-45.056 0-81.92-36.864-81.92-81.92V415.232h778.24z" fill="#4F8DFC" /><path d="M862.72 456.192V819.2c0 22.528-18.432 40.96-40.96 40.96h-614.4c-22.528 0-40.96-18.432-40.96-40.96V456.192h696.32m40.96-40.96h-778.24V819.2c0 45.056 36.864 81.92 81.92 81.92h614.4c45.056 0 81.92-36.864 81.92-81.92V415.232z" fill="#181818" /><path d="M768 808.448h-71.68c-11.264 0-20.48-9.216-20.48-20.48s9.216-20.48 20.48-20.48h71.68c11.264 0 20.48 9.216 20.48 20.48s-9.216 20.48-20.48 20.48z" fill="#181818" /></svg>