<?xml version="1.0" standalone="no"?><!DOCTYPE svg PUBLIC "-//W3C//DTD SVG 1.1//EN" "http://www.w3.org/Graphics/SVG/1.1/DTD/svg11.dtd"><svg class="icon" width="48px" height="48.00px" viewBox="0 0 1024 1024" version="1.1" xmlns="http://www.w3.org/2000/svg"><path d="M356.864 942.08c-8.192 0-16.384-5.12-19.456-13.312-4.096-10.752 1.536-22.528 12.288-26.112l310.784-113.664c10.752-4.096 22.528 1.536 26.112 12.288 4.096 10.752-1.536 22.528-12.288 26.112L363.52 941.056c-2.048 0.512-4.608 1.024-6.656 1.024z" fill="#181818" /><path d="M667.136 942.08c-2.56 0-4.608-0.512-7.168-1.024l-310.784-113.664c-10.752-4.096-15.872-15.872-12.288-26.112 4.096-10.752 15.872-15.872 26.112-12.288l310.784 113.664c10.752 4.096 15.872 15.872 12.288 26.112-2.56 8.192-10.24 13.312-18.944 13.312z" fill="#181818" /><path d="M512 871.936c-11.264 0-20.48-9.216-20.48-20.48v-137.728c0-11.264 9.216-20.48 20.48-20.48s20.48 9.216 20.48 20.48v137.728c0 11.264-9.216 20.48-20.48 20.48zM802.816 183.296C762.88 125.44 637.952 81.92 512 81.92c-126.464 0-248.32 41.984-289.28 99.84-15.36 22.016-19.456 45.568-11.264 68.608 20.48 58.368 68.096 195.072 145.408 284.16 4.096 4.608 9.728 7.168 15.36 7.168h276.48c6.144 0 11.776-2.56 15.36-7.168 72.192-83.456 119.808-208.896 142.848-269.312 2.048-5.12 3.584-9.728 5.12-13.824 8.704-23.04 5.632-46.08-9.216-68.096z m-28.672 52.736c-1.536 4.096-3.584 8.704-5.632 14.336-21.504 56.32-65.536 172.032-129.536 249.856H381.44c-68.608-83.456-112.64-208.896-131.584-263.68-2.56-6.144-4.096-16.384 6.144-30.72 28.672-40.96 132.608-82.944 256-82.944s229.376 43.52 257.024 83.456c9.216 13.824 7.168 23.552 5.12 29.696z" fill="#181818" /><path d="M774.144 236.032c-1.536 4.096-3.584 8.704-5.632 14.336-21.504 56.32-65.536 172.032-129.536 249.856H381.44c-68.608-83.456-112.64-208.896-131.584-263.68-2.56-6.144-4.096-16.384 6.144-30.72 28.672-40.96 132.608-82.944 256-82.944s229.376 43.52 257.024 83.456c9.216 13.824 7.168 23.552 5.12 29.696z" fill="#4F8DFC" /><path d="M512 163.84c115.2 0 201.728 39.936 221.696 63.488-1.024 2.048-1.536 4.096-2.56 6.656l-0.512 1.536v0.512c-18.944 50.176-57.344 151.04-111.104 223.232H401.92c-56.32-74.752-93.696-180.224-111.616-230.912C310.784 201.728 399.872 163.84 512 163.84m0-40.96c-123.392 0-226.816 41.984-256 82.944-10.24 14.336-8.704 24.576-6.144 31.232C268.8 291.84 312.832 417.28 381.44 500.736h257.536C702.976 422.4 747.008 307.2 768.512 250.88c2.048-5.12 3.584-10.24 5.632-14.336 2.56-6.144 4.096-15.872-5.12-29.696C741.376 166.4 634.88 122.88 512 122.88z" fill="#181818" /><path d="M375.296 734.72c-129.024 0-235.008-161.28-242.688-173.056-29.184-40.96-39.936-74.24-33.792-101.376 4.608-18.432 16.384-32.768 35.328-43.008 23.552-12.288 84.48-31.232 142.848 64 4.096 6.656 9.216 15.36 14.336 25.088 12.288 22.016 31.232 55.296 42.496 65.024 2.56 2.048 13.312 6.144 38.4 7.168h275.968c26.624-1.024 38.912-5.12 41.472-7.168 11.264-9.728 30.208-43.008 42.496-65.024 5.12-9.216 10.24-17.92 14.336-25.088 58.368-94.72 119.296-76.288 142.848-64 18.944 10.24 31.232 24.576 35.328 43.008 6.656 27.136-4.608 60.416-33.792 101.376-7.68 11.776-113.664 173.056-242.688 173.056H375.296z m-200.704-286.72c-6.656 0-13.824 1.536-20.992 5.632-11.264 6.144-13.824 12.288-14.848 16.384-2.048 8.192-1.024 28.16 27.648 68.608 0 0.512 0.512 0.512 0.512 1.024 1.024 1.536 98.816 152.576 206.336 154.624H650.752c108.032-1.536 205.824-153.088 206.336-154.624 0-0.512 0.512-0.512 0.512-1.024 28.672-40.448 29.184-60.416 27.648-68.608-1.024-4.096-3.584-10.24-14.848-16.384-36.352-19.456-68.608 15.872-88.576 49.152-3.584 6.144-8.192 14.336-13.312 23.552-19.968 35.328-35.84 62.976-52.224 76.288-12.288 10.24-34.304 15.872-67.072 16.896H371.2c-31.232-1.536-51.2-6.656-63.488-16.896-15.872-13.312-32.256-41.472-52.224-76.288-5.12-9.216-9.728-17.408-13.312-23.552-15.872-26.624-39.936-54.784-67.584-54.784z" fill="#181818" /></svg>