<?xml version="1.0" standalone="no"?><!DOCTYPE svg PUBLIC "-//W3C//DTD SVG 1.1//EN" "http://www.w3.org/Graphics/SVG/1.1/DTD/svg11.dtd"><svg class="icon" width="48px" height="48.00px" viewBox="0 0 1024 1024" version="1.1" xmlns="http://www.w3.org/2000/svg"><path d="M0 0h1024v1024H0z" fill="#13227a" /><path d="M792.04 641.94c0 158-129.77 240.84-285.89 240.84s-284.87-82.89-284.87-240.84 126.56-286.05 282.68-286.05 288.08 128.07 288.08 286.05z" fill="#FEF1E5" /><path d="M221.87 659.07c-0.17 0 189.11-28 220.32-13.49 0 0 67.75-86.58 126.27-4.19 0 0 196.34-22.21 223 8.35l-1.49-53.27c-102.23 9.38-196.12 2.66-274.62-33.77z" fill="#FED7B4" /><path d="M296.02 524.86a80.66 67.91 0 1 0 161.32 0 80.66 67.91 0 1 0-161.32 0Z" fill="#FFFFFF" /><path d="M376.67 593.05c-44.63 0-80.95-30.59-80.95-68.19s36.32-68.2 80.95-68.2 81 30.6 81 68.23-36.35 68.16-81 68.16z m0-135.82c-44.33 0-80.39 30.34-80.39 67.63s36.08 67.63 80.39 67.63 80.4-30.34 80.4-67.6-36.06-67.66-80.4-67.66z"  /><path d="M349.295345 555.543288a51.38 49.71 55.84 1 0 82.267344-55.82491 51.38 49.71 55.84 1 0-82.267344 55.82491Z"  /><path d="M376.68 530.97a16.8 17.01 0 1 0 33.6 0 16.8 17.01 0 1 0-33.6 0Z" fill="#FFFFFF" /><path d="M568.07 524.86a80.66 67.91 0 1 0 161.32 0 80.66 67.91 0 1 0-161.32 0Z" fill="#FFFFFF" /><path d="M648.73 593.05c-44.63 0-80.94-30.59-80.94-68.19s36.31-68.2 80.94-68.2 81 30.6 81 68.2-36.36 68.19-81 68.19z m0-135.82c-44.32 0-80.38 30.34-80.38 67.63s36.06 67.63 80.38 67.63 80.39-30.34 80.39-67.63-36.06-67.63-80.39-67.63z"  /><path d="M597.73001 552.792469a51.38 49.71 55.84 1 0 82.267344-55.82491 51.38 49.71 55.84 1 0-82.267344 55.82491Z"  /><path d="M622.07 524.86a16.8 17.01 0 1 0 33.6 0 16.8 17.01 0 1 0-33.6 0Z" fill="#FFFFFF" /><path d="M710.42 290.6a333.56 333.56 0 0 0-415.35 7.43c-71.08 59.09-93.62 157.69-93.62 256.23 0 36.46 9.66 71.06 19.54 103 44.48-10.54 170.53-38.8 219.12-20a8.74 8.74 0 0 0 10.8-4.08c12-21.73 70.47-64.28 111.9-0.42a8.77 8.77 0 0 0 9.46 3.76c28.92-7.23 149.29-34.81 219.47 9 9.21-32.08 17.46-66 17.46-101.71 0-102.7-22.38-194.23-98.78-253.21zM372.06 598.66c-51.14 0-92.61-37.92-92.61-84.7s41.47-84.7 92.61-84.7 92.61 37.92 92.61 84.7-41.46 84.7-92.61 84.7z m282.24-0.77c-51.75 0-93.7-37.59-93.7-83.95s42-84 93.7-84 93.71 37.59 93.71 84-41.95 83.95-93.71 83.95z" fill="#3498CE" /><path d="M219.85 659.32l-0.47-1.51c-9.92-32.14-19.6-66.61-19.6-103.55 0-54.16 6.8-102.42 20.23-143.44 15.69-47.95 40.59-86.34 74-114.11a334.59 334.59 0 0 1 417.43-7.47c36.57 28.24 62.29 64.55 78.61 111 14 39.9 20.83 86.87 20.83 143.62 0 36.14-8.42 70.47-17.51 102.18l-0.62 2.14-1.88-1.17c-65.38-40.8-174.37-19.74-218.19-8.78a10.44 10.44 0 0 1-11.26-4.48c-14.65-22.59-32.57-33.65-53.24-32.91-24.94 0.91-48.43 19.88-55.79 33.23a10.36 10.36 0 0 1-12.88 4.82c-32.7-12.67-110.18-5.56-218.14 20z m287.53-435.91a330.93 330.93 0 0 0-211.25 75.93c-61.71 51.3-93 137.07-93 254.92 0 35.89 9.31 69.57 19 101 76.64-18.1 176.16-36 218.59-19.54a7 7 0 0 0 8.74-3.33c7.45-13.51 31.24-34 58.6-35 21.62-0.79 41 11.12 56.16 34.43a7.12 7.12 0 0 0 7.66 3c43.82-10.95 152.23-31.89 218.87 8 8.79-30.88 16.78-64.2 16.78-99.11 0-120.19-31.18-200.24-98.12-251.92-58.09-44.68-127.94-68.38-202.03-68.38z m-135.32 377c-52 0-94.29-38.76-94.29-86.4s42.3-86.4 94.29-86.4 94.29 38.76 94.29 86.4-42.3 86.35-94.29 86.35z m0-169.4c-50.14 0-90.93 37.23-90.93 83s40.79 83 90.93 83 90.93-37.24 90.93-83-40.79-83.05-90.93-83.05z m282.24 168.6c-52.59 0-95.38-38.42-95.38-85.65s42.79-85.65 95.38-85.65 95.37 38.42 95.37 85.65-42.77 85.65-95.37 85.65z m0-167.91c-50.74 0-92 36.9-92 82.26s41.28 82.25 92 82.25 92-36.9 92-82.25-41.25-82.26-92-82.26z"  /><path d="M444.01 490.28a2.8 2.8 0 0 1-2.19-1.07c-0.22-0.27-22.4-27.83-57.95-31.29-25.22-2.45-51.1 7.57-76.92 29.78a2.77 2.77 0 0 1-3.94-0.33 2.85 2.85 0 0 1 0.32-4c27-23.26 54.34-33.72 81.14-31.09 37.94 3.72 60.77 32.18 61.73 33.39a2.87 2.87 0 0 1-0.44 4 2.78 2.78 0 0 1-1.75 0.61zM721.67 490.15a2.81 2.81 0 0 1-1.89-0.73c-30.66-28.3-62.82-37-95.61-25.8a108.31 108.31 0 0 0-40.62 25.63 2.78 2.78 0 0 1-3.95 0.15 2.85 2.85 0 0 1-0.16-4 112 112 0 0 1 42.73-27.08c24-8.25 61.1-10.27 101.38 26.91a2.85 2.85 0 0 1 0.19 4 2.8 2.8 0 0 1-2.07 0.92zM506.34 659c-8.5-0.11-13.94-2.66-16.17-7.57-5.87-12.92 14.05-37.35 14.9-38.38l2.58 2.18c-5.42 6.58-18.57 25.67-14.43 34.78 1.64 3.61 6.07 5.5 13.17 5.59z"  /><path d="M684.61 350.7a44.7 44.7 0 0 1 5.1-9c4.32-6.36 8.86-12.58 13.45-18.75a524.7 524.7 0 0 1 48.64-57.06c12.4-12.47 25.33-24.54 39.72-34.64 13.53-9.48 30.5-19.49 47.15-21.55a9 9 0 0 1 6.77 1.57c4.58 3.36 7.14 10.82 6.52 16.37-0.2 1.75-6.18 15-6.18 15s18.15-3.09 26.82-0.15c12.68 4.29 7.32 20.86 0.5 28.19l-33.36 35.85c4-4.36 10.34-8.06 15.62-10.56 2.92-1.38 7.43-3.39 10.65-1.81 4.95 2.43 5.43 10.32 4.95 15.09-0.63 6.31-4.42 13.88-9.41 17.81 0 0-92.39 72.74-139.1 75.08-10.85 0.54-24.39-7.92-30.87-16a38.15 38.15 0 0 1-7.69-17.4 52.59 52.59 0 0 1-0.6-12.09 19.59 19.59 0 0 1 1.32-5.95z" fill="#FFFFFF" /><path d="M721.44 403.3c-11 0-24.1-8.18-30.73-16.41a39.4 39.4 0 0 1-7.92-17.91 54.49 54.49 0 0 1-0.62-12.35 20.91 20.91 0 0 1 1.4-6.34 45.57 45.57 0 0 1 5.21-9.24c4.45-6.55 9.11-12.9 13.49-18.79a522.24 522.24 0 0 1 48.74-57.21c11-11.11 24.43-23.94 39.88-34.77 18.46-12.95 34-20.07 47.64-21.75a10.19 10.19 0 0 1 7.57 1.78c5.16 3.79 7.6 11.83 7 17.41-0.17 1.52-3.64 9.49-5.42 13.49 5.06-0.72 18.13-2.23 25.31 0.2a11.58 11.58 0 0 1 8 8.38c1.8 7.23-2.29 16.56-7 21.67l-24.63 26.43c2.11-1.22 4-2.2 5.53-2.9 2.72-1.28 7.77-3.68 11.61-1.8 5.06 2.48 6.2 10 5.57 16.23-0.68 6.82-4.82 14.63-9.83 18.58-0.89 0.72-92.86 73-139.74 75.32-0.35-0.03-0.71-0.02-1.06-0.02z m118.75-192.61a11.42 11.42 0 0 0-1.39 0.09c-13.22 1.64-28.48 8.63-46.64 21.36-15.3 10.74-28.59 23.47-39.57 34.52a518.94 518.94 0 0 0-48.53 57c-4.37 5.86-9 12.19-13.43 18.71a43.78 43.78 0 0 0-5 8.76 19 19 0 0 0-1.24 5.66 51.56 51.56 0 0 0 0.58 11.82 37.06 37.06 0 0 0 7.46 16.88c6.35 7.88 19.6 16.08 29.94 15.55 45.9-2.3 137.55-74.12 138.47-74.85 4.58-3.6 8.36-10.76 9-17 0.52-5.21-0.3-12-4.32-14-2.88-1.41-7.48 0.77-9.69 1.81-3.8 1.8-10.83 5.53-15.29 10.32l-1.66-1.52 0.12-0.14 33.29-35.77c4.41-4.74 8-13.35 6.5-19.56a9.33 9.33 0 0 0-6.54-6.78c-8.31-2.81-26.1 0.17-26.28 0.2l-2.08 0.35 0.87-1.94c2.9-6.43 6-13.69 6.09-14.7 0.54-4.83-1.62-12.06-6.07-15.32a7.46 7.46 0 0 0-4.59-1.45z"  /><path d="M773.01 312.77s64.61-67.87 72.74-70" fill="#FFFFFF" /><path d="M773.81 313.55l-1.61-1.57c6.64-7 65.07-68.15 73.26-70.34l0.57 2.2c-5.74 1.52-46.36 42.53-72.22 69.71z"  /><path d="M805.53 334.79s32.51-29.27 35.42-28.93" fill="#FFFFFF" /><path d="M806.27 335.64l-1.49-1.7c12.17-10.95 32.93-29.21 36.21-29.21h0.09l-0.27 2.25h0.14c-2.36 0.46-19.63 15.11-34.68 28.66z"  /><path d="M356.06 357.6a45.11 45.11 0 0 0-5.1-9c-4.32-6.37-8.87-12.58-13.45-18.75a525.81 525.81 0 0 0-48.64-57.09c-12.4-12.47-25.33-24.55-39.72-34.64-13.53-9.49-30.5-19.5-47.15-21.56a9 9 0 0 0-6.77 1.58c-4.58 3.36-7.15 10.82-6.52 16.36 0.2 1.76 6.17 15 6.17 15s-18.14-3.09-26.81-0.16c-12.68 4.29-7.33 20.86-0.5 28.19l33.36 35.86c-4-4.36-10.34-8.07-15.63-10.57-2.91-1.38-7.43-3.38-10.65-1.8-4.94 2.42-5.42 10.32-4.94 15.09 0.63 6.31 4.42 13.87 9.41 17.8 0 0 92.39 72.75 139.1 75.09 10.85 0.54 24.39-7.93 30.87-16a38 38 0 0 0 7.68-17.39 52.65 52.65 0 0 0 0.61-12.09 20.19 20.19 0 0 0-1.32-5.92z" fill="#FFFFFF" /><path d="M319.23 410.2h-1.07c-47.31-2.37-139-74.65-139.79-75.38-4.95-3.89-9.09-11.71-9.78-18.53-0.62-6.21 0.52-13.74 5.58-16.22 3.83-1.88 8.89 0.51 11.61 1.8 1.47 0.7 3.42 1.68 5.52 2.89l-24.55-26.38c-4.75-5.11-8.84-14.44-7.05-21.67a11.6 11.6 0 0 1 8-8.37c7.18-2.43 20.25-0.93 25.31-0.21-1.78-4-5.25-12-5.42-13.48-0.63-5.58 1.81-13.62 7-17.41a10.13 10.13 0 0 1 7.57-1.78c13.59 1.68 29.17 8.79 47.64 21.75 15.43 10.81 28.81 23.68 39.87 34.74a523.49 523.49 0 0 1 48.74 57.22c4.38 5.89 9 12.24 13.48 18.79a45.56 45.56 0 0 1 5.22 9.23 20.66 20.66 0 0 1 1.39 6.34 53.94 53.94 0 0 1-0.61 12.35 39.35 39.35 0 0 1-7.93 17.92c-6.63 8.22-19.74 16.4-30.73 16.4zM177.37 301.62a5 5 0 0 0-2.23 0.47c-4 2-4.84 8.75-4.32 13.95 0.63 6.27 4.41 13.43 9 17 0.92 0.72 92.4 72.54 138.47 74.84 10.36 0.54 23.6-7.66 29.95-15.54a37.1 37.1 0 0 0 7.43-16.85 51 51 0 0 0 0.59-11.82 18.67 18.67 0 0 0-1.25-5.66 43.57 43.57 0 0 0-5-8.77c-4.42-6.51-9.06-12.84-13.43-18.71a521 521 0 0 0-48.53-57c-11-11-24.27-23.78-39.57-34.51-18.17-12.74-33.42-19.73-46.65-21.36a7.82 7.82 0 0 0-6 1.37c-4.45 3.25-6.61 10.48-6.07 15.31 0.13 1 3.19 8.28 6.08 14.71l0.88 1.94-2.08-0.36c-0.18 0-18-3-26.28-0.19a9.31 9.31 0 0 0-6.55 6.78c-1.54 6.21 2.1 14.82 6.51 19.56l33.35 35.75 0.13 0.13-1.66 1.51c-4.47-4.74-11.47-8.47-15.31-10.28-1.7-0.79-4.81-2.27-7.46-2.27z"  /><path d="M267.67 319.67s-64.61-67.86-72.74-70" fill="#FFFFFF" /><path d="M266.85 320.46c-25.88-27.19-66.47-68.19-72.21-69.72l0.57-2.19c8.19 2.18 66.62 63.37 73.26 70.34z"  /><path d="M235.14 341.7s-32.47-29.28-35.42-28.93" fill="#FFFFFF" /><path d="M234.4 342.54c-15-13.55-32.32-28.19-34.69-28.64h0.14l-0.26-2.25c3-0.39 24 18.14 36.29 29.2z"  /><path d="M486.45 374.08l66.54-1.05 18 36.88h48.92l-98.56-180.48-100.6 180.46h49.11z m33.88-80.57l29.16 49.5h-56.28z" fill="#FFFFFF" /><path d="M429.67 725.23c64.32 0.68 201-9.08 201.54-9.22 4.07-6.39-191.69 171.64-201.54 9.22z" fill="#F4EDED" /><path d="M482.32 794.35a51.3 51.3 0 0 1-21.52-4.3c-18.92-8.63-29.57-30.43-31.65-64.79v-0.61h0.6c62.12 0.67 192.32-8.51 201-9.17 0.63-0.37 0.75-0.26 1-0.06a0.66 0.66 0 0 1 0 0.89l-0.12 0.18-0.21 0.06h-0.32c-0.9 0.61-3.23 2.45-6.08 4.69-12.35 9.82-41.35 32.71-73.1 50.2-27.68 15.25-50.98 22.91-69.6 22.91z m-52-68.55c2.13 33.55 12.55 54.82 30.95 63.22 32.05 14.62 86.9-8.47 163.05-68.63 2.13-1.69 3.61-2.85 4.64-3.64-18.62 1.37-138.74 9.62-198.65 9.05z"  /><path d="M431.23 736.29s48.09 80.92 199.31-20.22c4.44 2.91-178.93 165.34-199.31 20.22z" fill="#F2EBEB" /><path d="M486.2 797.07q-3.27 0-6.45-0.31c-27.32-2.7-43.83-23-49.07-60.39l-0.39-2.75 1.42 2.38c0.12 0.21 12.65 20.72 44 27.89 28 6.4 77.52 3.22 154.53-48.29l0.3-0.2 0.31 0.2a0.83 0.83 0 0 1 0.26 1c-1.14 3.31-24 24.75-54.38 44.77-25.17 16.67-60.54 35.7-90.53 35.7z m-54.06-58.49c5.92 37.84 23.91 57.13 53.52 57.35h0.52c31.06 0 68-20.57 93.56-37.89 25.74-17.43 44.95-35 49.36-40.34-33.43 22.19-64.43 37.12-92.23 44.45-22.76 6-43.44 7-61.46 2.83-25.95-5.94-39.21-20.97-43.27-26.4z"  /></svg>