<?xml version="1.0" standalone="no"?><!DOCTYPE svg PUBLIC "-//W3C//DTD SVG 1.1//EN" "http://www.w3.org/Graphics/SVG/1.1/DTD/svg11.dtd"><svg class="icon" width="48px" height="48.00px" viewBox="0 0 1024 1024" version="1.1" xmlns="http://www.w3.org/2000/svg"><path d="M458.752 52.224h-19.456c-67.584 3.072-130.048 19.456-177.152 47.104-44.032 25.6-68.608 58.368-66.56 90.112 3.072 68.608 118.784 121.856 253.952 115.712 67.584-3.072 130.048-19.456 177.152-46.08 44.032-25.6 68.608-58.368 66.56-90.112-3.072-65.536-108.544-116.736-234.496-116.736z" fill="#F9A058" /><path d="M438.272 32.768c-70.656 3.072-137.216 20.48-186.368 49.152-51.2 29.696-78.848 68.608-76.8 109.568 3.072 78.848 112.64 136.192 253.952 136.192H450.56c70.656-3.072 137.216-20.48 186.368-49.152 51.2-29.696 78.848-68.608 76.8-109.568-3.072-82.944-123.904-142.336-275.456-136.192z m188.416 227.328c-46.08 26.624-109.568 43.008-177.152 46.08-135.168 5.12-250.88-48.128-253.952-115.712-1.024-32.768 22.528-64.512 66.56-90.112C309.248 71.68 371.712 55.296 439.296 53.248h19.456c125.952 0 232.448 51.2 234.496 116.736 1.024 31.744-22.528 63.488-66.56 90.112z" fill="#9A2E2C" /><path d="M722.944 224.256s-105.472 6.144-105.472-65.536 59.392-84.992 84.992-84.992 98.304-13.312 157.696 32.768c59.392 46.08 117.76 72.704 138.24 203.776 0 0-62.464-89.088-114.688-101.376-52.224-14.336-160.768 15.36-160.768 15.36z" fill="#37EFC3" /><path d="M999.424 320.512c-3.072 0-6.144-2.048-8.192-4.096-1.024-1.024-60.416-86.016-108.544-97.28C833.536 206.848 728.064 235.52 727.04 235.52h-2.048c-2.048 0-63.488 3.072-95.232-26.624-13.312-12.288-20.48-28.672-20.48-49.152 0-75.776 60.416-95.232 95.232-95.232 4.096 0 8.192 0 14.336-1.024 33.792-2.048 96.256-6.144 149.504 35.84 7.168 6.144 15.36 11.264 22.528 16.384 52.224 37.888 101.376 74.752 119.808 193.536 1.024 5.12-2.048 9.216-6.144 11.264-3.072-1.024-4.096 0-5.12 0zM850.944 194.56c13.312 0 25.6 1.024 35.84 4.096 33.792 8.192 69.632 44.032 94.208 71.68-20.48-77.824-59.392-106.496-102.4-138.24-7.168-5.12-15.36-11.264-22.528-17.408-47.104-36.864-102.4-33.792-136.192-31.744-6.144 0-11.264 1.024-15.36 1.024-12.288 0-74.752 4.096-74.752 74.752 0 14.336 4.096 25.6 13.312 33.792 24.576 22.528 71.68 21.504 79.872 21.504 9.216-2.048 74.752-19.456 128-19.456z m-128 29.696z" fill="#9A2E2C" /><path d="M511.789509 721.823023a174.08 295.936 48.458 1 0 442.998314-392.511093 174.08 295.936 48.458 1 0-442.998314 392.511093Z" fill="#FFB176" /><path d="M612.352 771.072c-45.056 0-82.944-14.336-107.52-43.008-33.792-37.888-39.936-94.208-18.432-159.744 20.48-63.488 65.536-128 125.952-181.248 60.416-53.248 130.048-90.112 195.584-103.424 67.584-13.312 122.88 0 155.648 37.888 67.584 75.776 19.456 229.376-107.52 340.992-60.416 53.248-130.048 90.112-195.584 103.424-17.408 3.072-32.768 5.12-48.128 5.12z m242.688-471.04c-14.336 0-28.672 1.024-44.032 4.096-61.44 12.288-128 47.104-185.344 98.304-57.344 51.2-100.352 112.64-119.808 172.032-18.432 58.368-13.312 107.52 14.336 139.264 28.672 31.744 76.8 43.008 137.216 31.744 61.44-12.288 128-47.104 185.344-98.304C960.512 542.72 1007.616 402.432 948.224 334.848c-21.504-22.528-53.248-34.816-93.184-34.816z" fill="#9A2E2C" /><path d="M17.408 215.04s177.152 46.08 256 138.24S450.56 503.808 588.8 438.272 733.184 700.416 523.264 634.88 182.272 431.104 129.024 332.8 17.408 215.04 17.408 215.04z" fill="#3AEDA0" /><path d="M575.488 653.312c-17.408 0-35.84-3.072-55.296-9.216-208.896-65.536-344.064-201.728-400.384-307.2-50.176-94.208-105.472-112.64-105.472-113.664-5.12-2.048-8.192-7.168-6.144-12.288 1.024-4.096 7.168-7.168 12.288-6.144 7.168 2.048 181.248 48.128 261.12 141.312 94.208 109.568 190.464 136.192 303.104 82.944 47.104-22.528 75.776-1.024 88.064 13.312 32.768 37.888 33.792 110.592 2.048 159.744-22.528 33.792-57.344 51.2-99.328 51.2zM78.848 244.736c18.432 18.432 39.936 45.056 59.392 82.944 54.272 102.4 185.344 233.472 388.096 296.96 58.368 18.432 104.448 6.144 131.072-34.816 26.624-40.96 26.624-104.448 0-135.168-15.36-17.408-37.888-20.48-63.488-8.192-121.856 58.368-226.304 29.696-327.68-88.064-47.104-53.248-130.048-92.16-187.392-113.664z" fill="#9A2E2C" /><path d="M684.032 497.664c-2.048 0-4.096-1.024-6.144-2.048-5.12-3.072-6.144-9.216-3.072-14.336 2.048-3.072 56.32-82.944 150.528-102.4 5.12-1.024 11.264 2.048 12.288 8.192s-2.048 11.264-8.192 12.288c-87.04 18.432-137.216 93.184-138.24 94.208-1.024 2.048-4.096 4.096-7.168 4.096z" fill="#9A2E2C" /><path d="M618.496 155.648c-1.024 0-3.072 0-4.096-1.024-73.728-30.72-148.48 0-149.504 0-5.12 2.048-11.264 0-13.312-5.12-2.048-5.12 0-11.264 5.12-13.312 3.072-1.024 83.968-33.792 165.888 0 5.12 2.048 8.192 8.192 5.12 13.312-2.048 4.096-5.12 6.144-9.216 6.144z" fill="#9A2E2C" /><path d="M201.644565 866.350838a259.072 137.216 24.412 1 0 113.421416-249.896989 259.072 137.216 24.412 1 0-113.421416 249.896989Z" fill="#FF9852" /><path d="M369.664 916.48c-51.2 0-111.616-13.312-172.032-40.96C133.12 845.824 77.824 804.864 43.008 759.808c-36.864-47.104-47.104-93.184-30.72-130.048 16.384-36.864 58.368-59.392 117.76-62.464 57.344-3.072 123.904 11.264 188.416 39.936 64.512 29.696 119.808 70.656 154.624 115.712 36.864 47.104 47.104 93.184 30.72 130.048-19.456 41.984-69.632 63.488-134.144 63.488zM147.456 586.752h-15.36c-51.2 3.072-87.04 21.504-100.352 51.2C18.432 667.648 27.648 706.56 59.392 747.52c32.768 41.984 84.992 80.896 146.432 109.568 122.88 55.296 250.88 50.176 279.552-12.288 13.312-29.696 3.072-68.608-27.648-108.544-32.768-41.984-84.992-80.896-146.432-109.568-56.32-26.624-113.664-39.936-163.84-39.936z" fill="#9A2E2C" /><path d="M533.504 803.84s-95.232-45.056-121.856 21.504c-26.624 66.56 22.528 101.376 47.104 111.616s86.016 49.152 158.72 28.672 136.192-22.528 203.776-137.216c0 0-91.136 58.368-144.384 51.2-54.272-7.168-143.36-75.776-143.36-75.776z" fill="#37EFC3" /><path d="M575.488 982.016c-46.08 0-83.968-18.432-107.52-29.696-5.12-2.048-9.216-4.096-13.312-6.144-7.168-3.072-31.744-14.336-47.104-37.888-11.264-17.408-21.504-46.08-5.12-86.016 7.168-18.432 19.456-30.72 36.864-37.888 41.984-16.384 96.256 9.216 98.304 11.264 1.024 0 1.024 1.024 2.048 1.024 1.024 1.024 88.064 66.56 138.24 73.728 40.96 6.144 113.664-33.792 137.216-50.176 4.096-2.048 9.216-2.048 12.288 1.024 3.072 3.072 4.096 8.192 2.048 12.288C768 936.96 708.608 952.32 646.144 967.68c-9.216 2.048-18.432 4.096-26.624 7.168-15.36 5.12-29.696 7.168-44.032 7.168zM470.016 799.744c-8.192 0-16.384 1.024-23.552 4.096-12.288 5.12-20.48 13.312-25.6 26.624-10.24 25.6-9.216 48.128 3.072 67.584 12.288 18.432 32.768 27.648 37.888 30.72 4.096 2.048 8.192 4.096 14.336 6.144 29.696 14.336 79.872 37.888 137.216 21.504 9.216-3.072 18.432-5.12 27.648-7.168 52.224-13.312 99.328-25.6 147.456-90.112-32.768 16.384-79.872 35.84-113.664 31.744-53.248-7.168-136.192-69.632-146.432-76.8-5.12-3.072-31.744-14.336-58.368-14.336z" fill="#9A2E2C" /><path d="M404.48 847.872c-87.04 0-148.48-59.392-150.528-61.44-4.096-4.096-4.096-10.24 0-14.336 4.096-4.096 10.24-4.096 14.336 0 1.024 1.024 58.368 56.32 137.216 56.32h2.048c5.12 0 10.24 4.096 10.24 10.24s-4.096 10.24-10.24 10.24c-1.024-1.024-2.048-1.024-3.072-1.024z" fill="#9A2E2C" /></svg>