<?xml version="1.0" standalone="no"?><!DOCTYPE svg PUBLIC "-//W3C//DTD SVG 1.1//EN" "http://www.w3.org/Graphics/SVG/1.1/DTD/svg11.dtd"><svg class="icon" width="48px" height="48.00px" viewBox="0 0 1024 1024" version="1.1" xmlns="http://www.w3.org/2000/svg"><path d="M546.0992 497.3056H194.7648c-53.4016 0-96.7168-43.3152-96.7168-96.7168V193.9968C98.048 140.5952 141.3632 97.28 194.7648 97.28h322.8672c53.4528 0 96.768 43.3152 96.768 96.7168v234.9568c0 37.7344-30.5664 68.352-68.3008 68.352z" fill="#402AD2" /><path d="M534.3232 497.3056H176.4864c-43.3152 0-78.4384-35.1232-78.4384-78.4384V205.1072c0-43.3152 35.1232-78.4384 78.4384-78.4384h329.4208c43.3152 0 78.4384 35.1232 78.4384 78.4384v242.176c0 27.648-22.3744 50.0224-50.0224 50.0224z" fill="#534FFF" /><path d="M715.264 497.3056h131.7888c51.2512 0 92.8256-41.5744 92.8256-92.8256V190.1056c0-51.2512-41.5744-92.8256-92.8256-92.8256h-103.3728c-51.2512 0-92.8256 41.5744-92.8256 92.8256v242.8416c0.0512 35.5328 28.8768 64.3584 64.4096 64.3584z" fill="#7518ED" /><path d="M700.9792 497.3056h132.352c43.3152 0 78.4384-35.1232 78.4384-78.4384V205.1072c0-43.3152-35.1232-78.4384-78.4384-78.4384h-103.936c-43.3152 0-78.4384 35.1232-78.4384 78.4384v242.176c0.0512 27.648 22.4256 50.0224 50.0224 50.0224z" fill="#9539FC" /><path d="M486.9632 533.9136h363.0592c49.6128 0 89.856 40.2432 89.856 89.856v218.3168c0 49.6128-40.2432 89.856-89.856 89.856h-334.6432c-49.6128 0-89.856-40.2432-89.856-89.856v-246.7328c0-33.9456 27.4944-61.44 61.44-61.44z" fill="#402AD2" /><path d="M475.4944 561.3568h357.8368c43.3152 0 78.4384 35.1232 78.4384 78.4384v213.7088c0 43.3152-35.1232 78.4384-78.4384 78.4384H503.9616c-43.3152 0-78.4384-35.1232-78.4384-78.4384v-242.176c0-27.5968 22.3744-49.9712 49.9712-49.9712z" fill="#534FFF" /><path d="M333.6704 533.9136h-157.184c-43.3152 0-78.4384 35.1232-78.4384 78.4384v241.2032c0 43.3152 35.1232 78.4384 78.4384 78.4384h128.768c43.3152 0 78.4384-35.1232 78.4384-78.4384v-269.6192c0-27.648-22.4256-50.0224-50.0224-50.0224z" fill="#E51F4E" /><path d="M308.8384 561.3568H176.4864c-43.3152 0-78.4384 35.1232-78.4384 78.4384v213.7088c0 43.3152 35.1232 78.4384 78.4384 78.4384h103.936c43.3152 0 78.4384-35.1232 78.4384-78.4384v-242.176c0-27.5968-22.4256-49.9712-50.0224-49.9712z" fill="#F5536C" /></svg>