<?xml version="1.0" standalone="no"?><!DOCTYPE svg PUBLIC "-//W3C//DTD SVG 1.1//EN" "http://www.w3.org/Graphics/SVG/1.1/DTD/svg11.dtd"><svg class="icon" width="48px" height="48.00px" viewBox="0 0 1024 1024" version="1.1" xmlns="http://www.w3.org/2000/svg"><path d="M571.56 19c0.568 4.372 2.572 7.188 7.356 7.78 117.364 14.532 214.576 67.86 295.084 153.352 2.22 2.356 5.18 4.016 7.792 5.996 0.368 8.012 5.604 12.364 11.936 15.892 4.5 7.692 11.488 14.132 12.012 23.832-9.232 14.4-16.344 29.172-6.192 46.152-8.464 2.384-11.336-2.076-13.936-6.752-3.876-6.94-9.516-9.348-16.32-5.072-11.428 7.18-24.08 4.924-36.344 5.768-6.468-3.308-12.772-7.02-19.448-9.852-22.916-9.72-46.216-15.552-70.652-5.164l-7.448 2.184c-4.712-2.656-7.656-0.544-9.84 3.636-33.656 12.672-54.324 36.932-63.644 71.32-9.508 15.292-5.496 31.988-5.02 48.32-18.94 32.524-48.488 50.484-83.596 60.68-6.2 1.8-5.264 6.704-5.668 11.168-5.444-3.488-10.816-7.084-16.344-10.452-27.4-16.692-60.864-12.596-81.828 10.848-15.36 17.188-14.152 38.504-12.616 59.6-19.664 16.708-41.208 30.28-63.836 42.86-12.156 6.756-27.6 8.74-36.448 21.26-4.856-3.276-10.264-5.964-14.492-9.916-47.62-44.512-124.692-36.328-161.2 17.308-0.516 5.404 1.524 8.604 7.344 8.556 4.104 3.036 4.344 7.36 3.996 11.884-4.148 3.928-1.932 6.14 2.116 7.86l2.468 7.916c-6.964 11.176 1.64 19.9 5.512 28.648 9.428 21.3 20.34 41.928 30.652 62.84-21.276-11.916-23.808-36.072-35.712-54.084-9.504-14.388-5.428-35.412-23.072-45.392-1-6.308 7.008-11.856 1.668-18.624-16.42 13.652-24.196 39.144-17.896 58.38l-0.096 7.752c0.36 12.112 5.076 26.036-7.088 34.452-11.356 7.868-19.832 15.82-16.936 32.048-3.844-9.98-7.944-17.524-18.68-18.664-9.684-1.032-19.304-2.712-28.952-4.104-12.444-16.804-16.248-37.26-23.804-56.148-9.28-23.188-8.984-49.008-20.112-71.632 6.272-36.776-7.792-72.74-1.3-110.564 6.68-38.956 12.172-77.944 24.992-115.32 23.876-69.6 61.68-131.4 113.956-182.848 76.864-75.64 169.552-121.204 276.896-135.636 5.62-0.752 10.672-0.944 11.312-8.068h103.428zM185.188 285.668c-18.372 13.82-22.412 33.64-26.184 55.04-3.768 21.38 10.188 67.572 28.708 80.916-1.528 7.808 0.948 13.816 7.192 18.948 28.992 23.808 60.792 35.776 98.448 24.38 40.124-4.784 77.948-44.804 85.568-90.552 7.952-47.728-15.752-94.104-57.78-113.044l-11.964-5.72c-1.964-2.728-4.576-3.464-7.736-2.508l-8.5-2.416c-26.112-14-84.472 2.596-107.752 34.956z m410.016 6.588c28.044-25.496 37.688-57.276 32.152-94.228 2.896-4.084 1.056-7.132-2.148-9.888-0.604-2.032-1.212-4.076-1.808-6.108-6.076-47.84-81.316-101.452-147.076-71.012-28.04 12.98-53.128 29.592-59.284 63.432-3.968 4.58-5.128 10.1-5.38 15.932-6.544 12.52-4.636 26.032-2.716 38.804 6.812 45.332 32.9 76.64 76.056 90.072 40.816 12.708 79.564 6.82 110.204-27.004zM120.252 692.952c-26.304-67.072-43.796-135.736-40.116-208.428 3.66-72.216 21.3-140.628 56.544-204.408-75.82 71.856-85.164 318.212-16.428 412.836zM676.44 87.84c-64.332-45.412-275.192-41.556-333.816 8.128 57.816-19.64 111.252-32.788 167.54-33.756 57.208-0.984 111.82 10.784 166.276 25.628z m189.592 140.992c-9.804-26.832-57.972-73.924-79.432-77.832 28.376 23.988 54.272 50.532 79.432 77.832zM219.804 175.536c25.784-20.056 53.304-37.8 78.452-58.704-31.14 12.948-59.08 30.132-78.452 58.704z m563.496-26.676c-13.416-22.024-70.384-54.012-95.716-54.264 34.192 16.72 63.296 32.968 95.716 54.264zM140.804 271.184c18.148-21.544 33.228-44.98 50.364-66.976-25.356 16.092-39.308 40.644-50.364 66.976z m166.46-159.788c10.94-1.228 20.716-4.784 32.204-16.38-15.892 2.772-24.632 8.404-32.204 16.38z m-95.04 74.728c-0.428-5.508-1.728-7.256-3.76-6.348-2.084 0.932-4.548 2.752-5.204 4.736-0.984 2.944 1.348 4.592 4.28 3.788 2.36-0.648 4.504-2.088 4.684-2.176z m659.236 52.72l3.264 1.436c0.476-1.088 1.556-2.412 1.252-3.208-0.288-0.776-2-1.028-3.088-1.504l-1.428 3.276z" fill="#EEEFEF" /><path d="M567.624 448.244c0.404-4.468-0.532-9.372 5.668-11.168 35.108-10.196 64.656-28.156 83.592-60.68 10.952 49.932 44.744 78.908 90.604 94.584 11.384 3.888 26.604 7.004 38.704-3.168l7.684-0.856c3.864 2.208 7.004 2.344 8.292-2.868 17.772-4.284 30.78-16.34 44.48-27.256 4.18-0.504 7.3-2.2 6.812-7.04-0.392-3.912-3.56-4.672-6.752-5.176-14.956-57.752-41.1-109.536-81.92-153.5-3.46-3.728-8.456-6.92-6.06-13.372 40.332 1.176 75.288 13.344 99.036 48.432 10.028 18.404 15.168 38.276 17.62 62.848 11.02-28.136 1.256-48.276-12.416-67.644-7.192-14.192-19.568-23.988-30.024-35.416 12.264-0.852 24.916 1.408 36.344-5.776 6.804-4.28 12.444-1.872 16.32 5.072 2.6 4.672 5.472 9.136 13.936 6.752-10.152-16.976-3.04-31.752 6.192-46.152 3.436 0.376 6.776 1.352 8.056 4.832 13.252 36.196 38.096 66.408 52 102.476a444.444 444.444 0 0 1 27.584 114.624c1.432 13.744 8.564 26.448 7.768 40.652-11.436-2.78-25.712 7.8-33.344-0.424-7.124-7.672-1.064-22.872-5.96-34.132-1.224-2.812 0.036-6.588-0.492-9.816-7.136-44.156-14.916-88.128-39.676-126.768-1.16-14.64-8.248-26.332-18.58-36.424 1.22 14.608 6.832 27.052 18.46 36.536-0.18 6.668 0.788 12.928 3.612 19.24 23.912 53.304 30.16 110.068 32.212 167.608l-0.012 0.02c-7.376-0.344-13.58 1.684-20.312 5.504-30.876 17.516-59.62 38.112-88.34 58.796-11.212-7.092-20.248-17.528-33.328-21.768-16.248-10.392-33.5-15.828-52.904-10.832l-11.624 0.984c-45.056-0.036-96 55.844-95.068 95.828 0.468 20.008 3.28 39.192 8.884 58.188-8.82-0.444-16.528 3.668-24.688 5.948-13.656 3.824-19.468 19.244-33.444 22.576-27.556-31.676-62.696-45.084-103.812-39.624-30.064 3.996-58.064 13.964-73.492 43.748l-0.268 0.44c-8.36 3.68-11.864 10.344-11.792 19.204-2.608 7.74-5.224 15.472-7.836 23.216-4.308 2.052-6.244 4.528-1.48 8.208l-0.028 32.096c-3.932 3.228-2.908 5.768 1.072 7.916l0.304 14.344c-23.344 13.712-46.584 27.608-70.088 41.052-8.952 5.116-18.34 9.376-22.188 19.996-1.44 1.316-2.872 2.632-4.304 3.952-15.008 1.984-19.816 15.32-27.848 25.064-4.284-1.712-8.976-2.784-12.788-5.24-80.752-51.84-145.216-118.416-185.96-206.34l0.148-8.316c9.648 1.396 19.268 3.076 28.952 4.104 10.736 1.14 14.832 8.684 18.68 18.664-2.896-16.228 5.58-24.18 16.936-32.048 12.168-8.416 7.452-22.34 7.088-34.452 12.16 11.264 16.092 34.688 7.996 47.64-12.032 19.264-8.516 26.296 14.672 27.768 7.756 0.496 12.792 2.772 18.136 9.112 12.412 14.724 37.168 13.544 50.688-0.984l7.64 0.116 4.176 4.18-0.124 10.768c-2.592 1.136-6.668-0.832-8.092 4.696 10.952-0.76 21.66 3.348 31.832-2.7 45.604-7.048 74.608-33.42 89.168-76.604 13.184-33.216 7.728-64.424-11.168-93.588-2.884-4.456-6.332-7.96-6.204-13.528 8.848-12.524 24.296-14.504 36.448-21.26 22.628-12.584 44.172-26.152 63.836-42.86 1.908 11.348 9.976 18.064 18.42 24.5 17.38 20.76 47.916 25.72 73.372 11.916 25.016-13.568 37.68-41.992 30.316-68.068 0.92-11.336-8.9-18.364-11.324-28.352z m-417.78 294.8c-0.032 5.764-0.064 11.54 7.968 11.92 1.136 15.22 10.392 24.664 22.62 31.996-5.56-12.076-10.452-24.628-22.56-32.064-0.044-5.712-2.712-9.672-7.944-11.932-0.52-3.728-0.488-7.856-5.288-8.912-0.528-0.108-2.004 1.46-2.076 2.328-0.42 5.184 3.272 6.148 7.28 6.664z m143.276 142.872c1.192-1.632 2.388-3.268 3.58-4.912l-63.796-45.652-3.08 4.22c18.496 19.02 39.172 35.044 63.296 46.344z m-103.504-86.712c5.112 13.388 13.904 22.548 29.256 25.148-9.504-8.176-19.004-16.344-29.256-25.148z m671.216-384.636l-1.42 3.288c1.088 0.464 2.444 1.54 3.196 1.216 0.804-0.34 1.036-2.016 1.512-3.104a300.32 300.32 0 0 0-3.288-1.4z" fill="#F7F7F7" /><path d="M312.632 894.048c1.432-1.32 2.868-2.636 4.308-3.952 10.26 7.188 18.172 1.328 26.584-4.272 17.876-11.916 35.58-26.44 56.628-29.7 16.672-2.584 20.124-7.908 16.416-22.188 6.416 1.356 12.88 2.516 19.248 4.08 54.648 13.44 109.436 13.28 164.248 1.376 13.172-2.864 25.864-7.288 24.848-24.856 2.468-2.432 2.556-5.264 1.404-8.32l0.808-7.452c3.256-13.272-0.392-26.528-0.072-39.788 11.46 1.016 11.392-6.416 12.428-14.964 2.716-22.312 12.92-27.176 31.98-16.904 7.136 3.844 14.232 10.392 23.3 3.996 14.972 8.112 28.62 19.18 46.484 20.868 10.532 9.248 15.172-1.152 20.712-6.624 39.324-38.908 63.384-87 82.532-138.008 9.252 4.86 3.924 11.776 1.52 17.088-17.852 39.532-32.7 80.816-63.844 112.872-2.984 3.072-8.676 6.26-5.004 11.248 1.68 2.284 7.14 2.336 10.908 2.436 42.888 1.088 93.664-51.796 88.552-93.112-2.248-18.204-7.052-36.088-10.7-54.124 1.328-8.396-2.664-15.364-6.028-22.496 21.224-19.272 45.248-34.648 69.14-50.272 10.908-7.14 27.568-8.632 28.336-26.692l0.012-0.02c14.352 8.44 26.136 21.588 43.84 23.864-1.556 45.104-10.8 88.704-25.672 131.204-9.968 6.14-11.416 17.452-15.38 26.852-35.312 83.728-89.532 153.068-164.06 204.248-141.476 97.16-293.42 119.592-455.244 55.568-11.232-16.328-21.776-33.036-28.232-51.956z m521.568-83.292c-17.468 5.28-25.664 22.064-39.548 32a904.44 904.44 0 0 1-94.808 59.436c5.396 5.744 9.48 2.408 13.44 0.512 35.884-17.212 69.148-38.596 98.92-64.94 8.552-7.568 19.664-14.108 21.76-27.248 2.436-0.424 5.268-0.372 5.872-3.54 0.108-0.584-1.472-2.192-2.056-2.084-3.176 0.58-3.06 3.472-3.58 5.864z m-403.436 38.492c33.732 68.288 131.368 59.076 164.956 14.8 2.632-3.472 8.532-6.452 4.96-11.384-2.828-3.9-8.816-3.036-13.02-1.476-13.74 5.116-27.588 7.704-42.416 7.444-37.836-0.632-75.852 2.584-114.48-9.384z m258.328 60.5c-18.756 0.988-34.78 9.392-50.924 17.436 18.392-1.996 35.656-7.024 50.924-17.436z" fill="#DBDBDB" /><path d="M340.868 945.992c161.824 64.028 313.768 41.592 455.244-55.568 74.528-51.184 128.748-120.524 164.06-204.248 3.96-9.4 5.412-20.712 15.38-26.852-44.86 139.252-134.012 241.116-268.84 295.656-189.752 76.748-364.496 44.016-518.064-91.76-48.592-42.964-84.076-96.64-109.928-156.34 2.444 0.224 4.884 0.436 7.316 0.652 40.744 87.924 105.204 154.5 185.96 206.34 3.812 2.452 8.504 3.528 12.788 5.236 17.464 11.524 36.196 20.42 56.084 26.884z" fill="#7E7E7E" /><path d="M1001.224 528.12c-17.704-2.276-29.488-15.424-43.84-23.864-2.052-57.544-8.3-114.304-32.212-167.608-2.824-6.312-3.792-12.572-3.612-19.24l0.116-0.112c24.76 38.644 32.54 82.612 39.676 126.768 0.528 3.228-0.732 7.004 0.492 9.816 4.9 11.26-1.164 26.46 5.96 34.132 7.632 8.224 21.908-2.356 33.344 0.424 0.02 13.232 0.048 26.464 0.076 39.684z" fill="#EEEFEF" /><path d="M86.036 707.532c-2.432-0.216-4.872-0.428-7.316-0.652-21.6-42.608-32.82-87.996-36.452-135.444 11.128 22.624 10.832 48.444 20.112 71.632 7.556 18.888 11.36 39.344 23.804 56.148l-0.148 8.316z" fill="#DBDBDB" /><path d="M893.728 202.02c-6.332-3.528-11.572-7.876-11.936-15.892 10.388 0.484 12.364 7.284 11.936 15.892z" fill="#F7F7F7" /><path d="M793.88 466.956l-7.684 0.856c-2.876-3.536-6.984-3.548-10.768-2.984-20.98 3.116-31.788-4.124-35.228-26.7-2.276-14.972-7.692-31.052-21.548-41.312l0.18 0.176c-7.808-27.448-22.212-49.492-50.92-58.264-7.044-2.156-3.268-7.62-6-10.656 9.32-34.388 29.988-58.648 63.644-71.316 4.392 1.784 7.736 0.744 9.84-3.636l7.448-2.184c5.3 2.264 10.588 4.532 15.888 6.804-2.4 6.448 2.596 9.644 6.06 13.372 40.82 43.968 66.964 95.748 81.92 153.5-0.024 4.076-0.036 8.148-0.06 12.22-13.7 10.916-26.708 22.972-44.48 27.256-4.892-5.232-6.752-1.648-8.292 2.868zM373.928 679.48c-14.56 43.184-43.564 69.56-89.168 76.604-37.792-41.384-67.504-87.848-87.98-140.116-0.824-2.636-1.648-5.272-2.464-7.916 1.652-3.256 0.556-5.768-2.12-7.86 0.348-4.524 0.112-8.848-3.992-11.884-1.028-3.628-2.06-7.264-3.084-10.9 6.208-3.684 13.448-6.324 18.428-11.248 14.084-13.924 32.4-17.424 50.264-21.36 23.568-5.188 37 4.58 44.304 27.256 4.616 14.356 10.212 28.984 18.444 41.468 16.1 24.4 27.884 53.056 57.368 65.956z" fill="#505050" /><path d="M321.14 261.352c42.028 18.936 65.736 65.316 57.78 113.044-7.62 45.748-45.44 85.768-85.568 90.552 3.804-14.124-12.084-22.768-8.692-36.352-6.32 0.4-4.656 8.624-10.872 7.84-1.328-5.592 1.984-10.36 2.46-15.428 1.312-13.98-3.032-24.748-18.98-26.748-28.216-3.544-43.052-24.872-29.008-48.264 18.476-30.764 32.232-66.82 69.4-82.376 4.604-1.924 2.672-6.924 3.78-10.496 3.16-0.956 5.772-0.22 7.736 2.516 0.788 4.624-1.832 11.02 4.984 12.712 4.892 1.22 6.076-3.2 6.98-7z" fill="#7E7E7E" /><path d="M411.66 190.384c0.252-5.832 1.412-11.352 5.38-15.932l5.256-0.028c20.456-3.812 40.916-7.628 61.376-11.436 2.924 1.912 5.752 2.12 8.388-0.524l51.564 0.08c2.64 2.448 5.452 2.584 8.416 0.62l55.4 11.98c3.532 6.432 9.796 6.528 15.956 6.888 0.596 2.036 1.204 4.076 1.796 6.108-1.66 3.824-1.432 7.22 2.16 9.888 5.536 36.952-4.108 68.732-32.152 94.228-6.416-11.236-18.12-11.848-28.884-14.732-26.916-7.208-54.648-1.916-83.996-5.056 19.212-11.972 39.164-3.68 57.104-9.5-8.52-1.208-17.348-2.764-25.4-0.916-24.7 5.668-40.424-13.044-60.212-20.596-4.084-1.556-4.056-3.016-1.656-7.028 6.384-10.664-3.624-31.04-16.264-34.544 0.796-4.524 9.056-3.06 7.704-9.5h-31.936z" fill="#505050" /><path d="M411.66 190.384h31.944c1.352 6.44-6.908 4.976-7.704 9.5 12.64 3.5 22.652 23.88 16.264 34.544-2.4 4.012-2.428 5.472 1.656 7.028 19.784 7.552 35.508 26.264 60.212 20.596 8.052-1.848 16.88-0.288 25.4 0.916-17.94 5.82-37.896-2.476-57.104 9.5 29.348 3.136 57.084-2.152 83.996 5.056 10.76 2.884 22.464 3.496 28.884 14.732-30.64 33.824-69.388 39.712-110.2 27.004-43.16-13.432-69.244-44.74-76.056-90.072-1.928-12.772-3.836-26.284 2.708-38.804z m134.164 94.336l1.7-1.916h-54.608l-0.008 1.916h52.916z" fill="#7E7E7E" /><path d="M567.624 448.244c2.42 9.988 12.244 17.016 11.324 28.34-2.584 13.532-10.34 21.508-23.696 26.108-26.92 9.268-53.356 19.952-79.996 30.044-8.444-6.432-16.516-13.148-18.42-24.5-1.536-21.096-2.744-42.412 12.616-59.6 20.964-23.444 54.428-27.544 81.828-10.848 5.528 3.372 10.9 6.968 16.344 10.456zM301.44 253.124c-1.104 3.572 0.828 8.572-3.78 10.496-37.168 15.56-50.924 51.612-69.4 82.376-14.044 23.392 0.792 44.72 29.008 48.264 15.944 2 20.288 12.768 18.98 26.748-0.476 5.068-3.788 9.836-2.46 15.428 6.216 0.78 4.552-7.444 10.872-7.84-3.388 13.584 12.496 22.228 8.692 36.352-37.656 11.396-69.452-0.572-98.444-24.38-6.248-5.132-8.724-11.14-7.196-18.948 16.048-57.036 42.204-108.548 83.06-152.032 3.164-3.372 6.576-6.752 3.9-12.056 6.088-2.276 12.18-4.548 18.268-6.828l8.5 2.42z" fill="#505050" /><path d="M274.668 257.532c2.676 5.304-0.736 8.68-3.9 12.056-40.856 43.484-67.012 94.996-83.06 152.032-18.516-13.34-32.476-59.532-28.704-80.916 3.776-21.4 7.816-41.22 26.184-55.04 6.172 1.676 11.484 0.016 16.42-3.864 21.428-16.848 46.456-22.956 73.06-24.268z" fill="#F7F7F7" /><path d="M373.928 679.48c-29.484-12.904-41.268-41.556-57.364-65.948-8.236-12.484-13.828-27.112-18.444-41.468-7.304-22.68-20.736-32.444-44.304-27.256-17.864 3.932-36.18 7.432-50.264 21.36-4.984 4.924-12.22 7.568-18.408 11.24-1.416 0.776-2.848 1.572-4.284 2.356 36.508-53.636 113.58-61.82 161.2-17.308 4.228 3.948 9.636 6.636 14.492 9.916-0.128 5.568 3.324 9.072 6.204 13.528 18.9 29.156 24.356 60.364 11.172 93.58zM718.652 396.816c13.856 10.256 19.268 26.34 21.548 41.312 3.436 22.576 14.248 29.816 35.228 26.7 3.784-0.564 7.896-0.552 10.768 2.984-12.096 10.172-27.32 7.056-38.704 3.168-45.864-15.676-79.652-44.652-90.604-94.584-0.472-16.332-4.484-33.024 5.024-48.32 2.732 3.032-1.044 8.5 6 10.656 28.712 8.772 43.112 30.816 50.92 58.264-2.844 0.484-6.304 0.212-6.032 4.656 0.032 0.456 0.78 1.212 1.236 1.24 4.444 0.252 4.1-3.264 4.616-6.076z m18.308 60.08c-2.78-10.272-2.036-21.94-13.816-33.932 3.28 15.368 6.092 25.6 13.816 33.932z" fill="#7E7E7E" /><path d="M249.332 739.024c-13.52 14.528-38.276 15.708-50.688 0.984-5.344-6.34-10.38-8.616-18.136-9.112-23.192-1.472-26.704-8.504-14.672-27.768 8.1-12.952 4.168-36.376-7.996-47.64l0.096-7.752c12.708-10.272 3.332-29.556 16.228-39.752 17.64 9.98 13.568 31.004 23.072 45.392 11.904 18.016 14.436 42.168 35.72 54.08 0.196 1.264 0.328 2.544 0.4 3.824 0.584 11.972 10.504 18.576 15.976 27.744z" fill="#FDFDFD" /><path d="M120.252 692.952C51.516 598.328 60.86 351.972 136.68 280.116c-35.244 63.776-52.888 132.188-56.544 204.408-3.68 72.696 13.816 141.36 40.116 208.428z" fill="#DBDBDB" /><path d="M623.4 182.032c-6.16-0.356-12.424-0.452-15.956-6.888 1.708-8.26 0.232-15.44-5.82-21.868-63.332-67.296-153.48-37.088-179.324 21.148l-5.256 0.028c6.156-33.84 31.244-50.456 59.284-63.432 65.756-30.44 140.996 23.168 147.072 71.012z" fill="#7E7E7E" /><path d="M676.44 87.84c-54.456-14.848-109.072-26.616-166.276-25.632-56.288 0.968-109.724 14.12-167.54 33.756 58.624-49.676 269.484-53.536 333.816-8.124zM233.352 711.272a39.448 39.448 0 0 0-0.4-3.824c-10.316-20.904-21.228-41.532-30.656-62.832-3.876-8.752-12.476-17.472-5.512-28.648 20.472 52.268 50.184 98.736 87.98 140.116-10.172 6.048-20.88 1.936-31.832 2.7 1.424-5.528 5.5-3.56 8.096-4.68 2.196-0.836 5.92-1.248 6.304-2.604 1.328-4.704-2.636-6.516-6.18-8.18l-4.176-4.184c-4.612-12.052-10.136-23.332-23.624-27.864z" fill="#DBDBDB" /><path d="M758.732 257.74l-15.888-6.804c24.436-10.388 47.736-4.556 70.652 5.164 6.676 2.832 12.98 6.544 19.448 9.852 10.456 11.432 22.832 21.228 30.02 35.42l-5.2 4.796c-23.744-35.084-58.7-47.252-99.032-48.428zM274.668 257.532c-26.604 1.312-51.632 7.42-73.06 24.268-4.936 3.88-10.248 5.54-16.42 3.864 23.276-32.356 81.636-48.956 107.748-34.96-6.088 2.28-12.18 4.552-18.268 6.828z" fill="#7E7E7E" /><path d="M866.032 228.832c-25.16-27.3-51.056-53.84-79.432-77.832 21.46 3.904 69.628 51 79.432 77.832zM219.804 175.536c19.376-28.572 47.316-45.756 78.452-58.704-25.148 20.904-52.672 38.648-78.452 58.704zM783.3 148.86c-32.42-21.296-61.524-37.544-95.716-54.264 25.332 0.248 82.3 32.236 95.716 54.264zM140.804 271.184c11.056-26.332 25.008-50.884 50.364-66.976-17.136 22-32.216 45.436-50.364 66.976zM174.164 607.98c-12.896 10.196-3.516 29.476-16.228 39.752-6.304-19.232 1.472-44.724 17.896-58.376 5.34 6.768-2.668 12.316-1.668 18.624zM307.264 111.396c7.572-7.976 16.308-13.604 32.204-16.38-11.488 11.592-21.264 15.152-32.204 16.38z" fill="#DBDBDB" /><path d="M321.14 261.352c-0.904 3.8-2.084 8.22-6.984 7-6.816-1.692-4.192-8.088-4.984-12.712 3.988 1.9 7.98 3.804 11.968 5.712z" fill="#505050" /><path d="M212.224 186.124c-0.18 0.088-2.324 1.528-4.684 2.176-2.932 0.804-5.264-0.844-4.28-3.788 0.66-1.98 3.12-3.8 5.204-4.736 2.036-0.908 3.332 0.84 3.76 6.348zM180.86 579.756c1.436-0.784 2.868-1.58 4.284-2.356 1.004 3.644 2.036 7.28 3.064 10.912-5.824 0.052-7.868-3.152-7.348-8.556z" fill="#DBDBDB" /><path d="M627.356 198.028c-3.592-2.668-3.82-6.064-2.16-9.888 3.216 2.756 5.052 5.804 2.16 9.888z" fill="#7E7E7E" /><path d="M871.46 238.836l1.428-3.268c1.088 0.476 2.8 0.728 3.088 1.504 0.3 0.796-0.776 2.116-1.252 3.208-1.088-0.476-2.172-0.956-3.264-1.444z" fill="#DBDBDB" /><path d="M735.396 253.12c-2.104 4.38-5.448 5.42-9.84 3.636 2.184-4.176 5.128-6.288 9.84-3.636z" fill="#7E7E7E" /><path d="M192.2 600.196c2.676 2.088 3.772 4.6 2.12 7.86-4.052-1.72-6.268-3.932-2.12-7.86z" fill="#DBDBDB" /><path d="M741.248 751.964c-17.864-1.688-31.512-12.752-46.484-20.868-11.036-12.62-25.032-23.012-30.084-40.12-5.604-18.996-8.416-38.18-8.888-58.188-0.932-39.984 50.012-95.864 95.068-95.828-1.648 10.484-12.088 19.128-6.424 32.052l7.48-9.272c6.808 8.028 5.096 22.512 18.436 24.968 17.404 3.212 29.8 17.076 47.308 20.556 16.336 3.248 15.032 13.708 7.556 25.824-4.432 7.18-6.544 15.752-10.172 23.476-17.672 37.684-45.556 67.68-73.796 97.4z" fill="#7E7E7E" /><path d="M624.916 814.532c1.016 17.568-11.676 21.992-24.848 24.856-54.812 11.908-109.6 12.068-164.248-1.376-6.368-1.564-12.832-2.724-19.252-4.08-1.34-3.288-4.028-4.556-7.348-4.888l-0.304-14.344c2.536-3.032 1.36-5.556-1.072-7.916l0.028-32.096c2.232-2.42 3.04-5.1 1.48-8.208 2.612-7.744 5.228-15.476 7.836-23.216 9.612-2.916 11.308-10.696 11.792-19.204l0.264-0.44c13.712-11.92 27.756-8.652 44.644-5.78 35.084 5.968 70.844 9.716 106.72 9.532 0.94 0 1.884 0.98 3.432 1.832l-10.24 8.396c23.528 3.216 27.224 22.492 34.424 38.856 4.092 9.304 4.904 21.392 18.904 22.304l-0.808 7.452c-3.476 0.676-8.756-0.724-8.9 4.588-0.112 4.26 4.496 3.332 7.496 3.732z" fill="#505050" /><path d="M627.124 798.756c-14-0.916-14.808-13-18.904-22.304-7.204-16.364-10.9-35.64-34.424-38.856 4.216-3.448 7.084-5.804 10.24-8.396-1.552-0.852-2.492-1.832-3.432-1.832-35.876 0.184-71.632-3.564-106.72-9.532-16.884-2.872-30.932-6.14-44.644 5.78 15.428-29.78 43.428-39.752 73.496-43.748 41.116-5.456 76.256 7.948 103.816 39.624 6.836 13.156 13.664 26.312 20.504 39.468-0.32 13.272 3.328 26.524 0.068 39.796z m-134.412-87.876l0.552 1.824h63.684l-0.28-1.824h-63.956z" fill="#7E7E7E" /><path d="M741.248 751.964c28.24-29.724 56.12-59.716 73.796-97.404 3.628-7.728 5.74-16.296 10.172-23.476 7.476-12.116 8.78-22.576-7.556-25.824-17.508-3.48-29.908-17.344-47.308-20.556-13.34-2.456-11.628-16.94-18.436-24.968l-7.48 9.272c-5.664-12.92 4.776-21.568 6.424-32.052l11.624-0.984c7.728 8.348 39.948 14.952 52.904 10.832 13.08 4.244 22.116 14.676 33.328 21.768l0.764 4.272 0.176 13.392c-3.152 4.08-4.58 8.564-3.116 13.692l-2.052 7.4c-19.148 51.008-43.208 99.1-82.532 138.008-5.536 5.476-10.176 15.876-20.708 6.628z" fill="#505050" /><path d="M475.26 532.74c26.636-10.092 53.072-20.776 79.996-30.044 13.356-4.596 21.112-12.576 23.696-26.108 7.364 26.076-5.3 54.5-30.316 68.068-25.46 13.8-55.996 8.844-73.376-11.916z" fill="#7E7E7E" /><path d="M627.056 758.968c-6.84-13.156-13.668-26.312-20.504-39.468 13.972-3.332 19.784-18.752 33.44-22.576 8.16-2.28 15.868-6.396 24.688-5.948 5.056 17.108 19.052 27.5 30.084 40.12-9.072 6.396-16.164-0.152-23.3-3.996-19.06-10.272-29.264-5.412-31.98 16.904-1.04 8.552-0.968 15.98-12.428 14.964zM409.216 829.048c3.32 0.332 6.008 1.596 7.348 4.888 3.712 14.28 0.26 19.6-16.412 22.188-21.052 3.256-38.752 17.78-56.628 29.7-8.412 5.6-16.324 11.46-26.584 4.272 3.848-10.62 13.236-14.88 22.188-19.996 23.5-13.444 46.744-27.344 70.088-41.052zM849.484 572.864l-0.764-4.284c28.72-20.684 57.464-41.276 88.34-58.796 6.736-3.82 12.936-5.848 20.312-5.504-0.768 18.06-17.428 19.552-28.336 26.692-23.896 15.624-47.916 31-69.136 50.26-3.584-2.648-5.048-7.944-10.416-8.368zM340.868 945.992c-19.892-6.464-38.62-15.36-56.084-26.888 8.032-9.74 12.84-23.076 27.848-25.06 6.456 18.924 17 35.632 28.236 51.948zM293.12 885.916c-24.124-11.296-44.804-27.32-63.296-46.344 1.024-1.412 2.052-2.812 3.08-4.22l63.796 45.652-3.58 4.912z" fill="#EEEFEF" /><path d="M857.764 306.168l5.2-4.796c13.68 19.368 23.44 39.508 12.42 67.644-2.452-24.568-7.592-44.444-17.62-62.848z" fill="#DBDBDB" /><path d="M815.392 546.808c-12.952 4.12-45.176-2.484-52.904-10.832 19.404-4.996 36.656 0.44 52.904 10.832z" fill="#7E7E7E" /><path d="M189.616 799.204c10.252 8.804 19.752 16.972 29.256 25.148-15.356-2.6-24.144-11.764-29.256-25.148zM921.56 317.408c-11.628-9.484-17.244-21.928-18.46-36.536 10.328 10.088 17.416 21.784 18.58 36.424l-0.12 0.112zM157.872 754.9c12.108 7.432 17 19.988 22.56 32.064-12.232-7.332-21.484-16.776-22.62-31.996l0.06-0.068zM233.352 711.272c13.492 4.532 19.012 15.808 23.62 27.864-2.548-0.04-5.092-0.08-7.64-0.112-5.472-9.168-15.392-15.772-15.98-27.752z" fill="#EEEFEF" /><path d="M428.976 724.064c-0.484 8.508-2.176 16.284-11.792 19.204-0.072-8.86 3.432-15.524 11.792-19.204z" fill="#7E7E7E" /><path d="M846.652 436.832c0.024-4.072 0.036-8.144 0.06-12.22 3.196 0.504 6.364 1.268 6.752 5.176 0.488 4.844-2.632 6.536-6.812 7.044z" fill="#DBDBDB" /><path d="M149.84 743.044c-4.004-0.516-7.696-1.48-7.276-6.66 0.068-0.868 1.544-2.436 2.076-2.328 4.8 1.056 4.764 5.184 5.288 8.912a0.8 0.8 0 0 0-0.088 0.076z" fill="#EEEFEF" /><path d="M157.812 754.964c-8.032-0.384-8-6.156-7.968-11.92l0.084-0.08c5.232 2.26 7.9 6.224 7.944 11.932l-0.06 0.068zM261.148 743.32c3.544 1.664 7.504 3.476 6.18 8.18-0.384 1.356-4.108 1.768-6.304 2.604l0.124-10.784z" fill="#EEEFEF" /><path d="M407.84 806.784c2.432 2.364 3.608 4.888 1.072 7.916-3.98-2.144-5.004-4.688-1.072-7.916z" fill="#DBDBDB" /><path d="M793.88 466.956c1.544-4.512 3.404-8.096 8.292-2.868-1.288 5.212-4.428 5.076-8.292 2.868z" fill="#7E7E7E" /><path d="M409.348 766.48c1.56 3.104 0.752 5.784-1.48 8.208-4.764-3.68-2.828-6.156 1.48-8.208zM860.844 414.56c1.092 0.468 2.18 0.932 3.272 1.408-0.476 1.088-0.708 2.764-1.512 3.104-0.752 0.324-2.104-0.752-3.196-1.216l1.436-3.296z" fill="#DBDBDB" /><path d="M844.492 607.332l2.052-7.4c4.356-0.456 8.712-0.924 13.068-1.388 2.104 1.728 4.208 3.456 6.312 5.192 3.648 18.036 8.452 35.92 10.7 54.124 5.112 41.316-45.664 94.204-88.552 93.112-3.764-0.1-9.228-0.152-10.908-2.436-3.672-4.984 2.02-8.176 5.004-11.248 31.144-32.056 45.992-73.34 63.844-112.872 2.404-5.308 7.736-12.224-1.52-17.084zM430.764 849.248c38.628 11.968 76.644 8.752 114.48 9.388 14.828 0.256 28.68-2.328 42.416-7.444 4.204-1.56 10.192-2.42 13.02 1.476 3.572 4.928-2.328 7.912-4.96 11.384-33.588 44.268-131.224 53.484-164.956-14.804z" fill="#FDFDFD" /><path d="M833.968 810.52c-2.096 13.136-13.212 19.68-21.76 27.248-29.772 26.344-63.04 47.732-98.92 64.94-3.96 1.896-8.048 5.232-13.44-0.512a905.1 905.1 0 0 0 94.808-59.436c13.884-9.936 22.08-26.72 39.548-32l-0.236-0.24zM689.092 909.748c-15.268 10.416-32.536 15.44-50.924 17.436 16.144-8.048 32.168-16.448 50.924-17.436zM865.92 603.74c-2.104-1.736-4.208-3.464-6.32-5.184-1.26-5.76-5.444-9.164-9.94-12.312l-0.176-13.392c5.368 0.436 6.832 5.736 10.416 8.38 3.356 7.144 7.348 14.112 6.02 22.508zM624.916 814.532c-2.996-0.4-7.604 0.528-7.496-3.732 0.14-5.312 5.42-3.916 8.9-4.588 1.148 3.052 1.064 5.884-1.404 8.32z" fill="#7E7E7E" /><path d="M834.2 810.756c0.52-2.396 0.408-5.284 3.584-5.864 0.584-0.104 2.164 1.504 2.056 2.084-0.6 3.168-3.432 3.112-5.872 3.54l0.232 0.24z" fill="#7E7E7E" /><path d="M422.296 174.424c25.844-58.24 115.992-88.444 179.324-21.148 6.052 6.424 7.528 13.608 5.82 21.868l-55.4-11.98c-2.472-4.748-5.196-6.036-8.416-0.62l-51.564-0.08c-3.14-5.276-5.872-4.148-8.388 0.524l-61.376 11.436z" fill="#F7F7F7" /><path d="M543.624 162.544c3.224-5.416 5.944-4.124 8.416 0.62-2.96 1.96-5.776 1.828-8.416-0.62zM483.672 162.988c2.516-4.668 5.248-5.8 8.388-0.524-2.636 2.644-5.46 2.436-8.388 0.524z" fill="#DBDBDB" /><path d="M545.824 284.72h-52.92l0.008-1.916h54.608l-1.696 1.916zM736.96 456.896c-7.728-8.332-10.536-18.56-13.816-33.932 11.78 11.992 11.036 23.66 13.816 33.932zM718.652 396.816c-0.516 2.812-0.172 6.328-4.616 6.072-0.452-0.028-1.204-0.784-1.236-1.24-0.272-4.444 3.188-4.172 6.032-4.656l-0.18-0.176zM492.712 710.88h63.952l0.28 1.824h-63.684l-0.548-1.824z" fill="#505050" /><path d="M849.66 586.244c4.496 3.148 8.68 6.552 9.94 12.312-4.348 0.452-8.704 0.92-13.06 1.38-1.456-5.132-0.032-9.616 3.12-13.692z" fill="#DBDBDB" /></svg>