<?xml version="1.0" standalone="no"?><!DOCTYPE svg PUBLIC "-//W3C//DTD SVG 1.1//EN" "http://www.w3.org/Graphics/SVG/1.1/DTD/svg11.dtd"><svg class="icon" width="48px" height="48.00px" viewBox="0 0 1024 1024" version="1.1" xmlns="http://www.w3.org/2000/svg"><path d="M934.638933 279.8592s6.263467 11.707733 6.024534 27.8528c-0.238933 16.145067 0 137.045333 0 137.045333s1.723733 19.933867-20.599467 29.832534c-13.141333 5.922133-48.878933 24.797867-52.9408 73.591466-1.877333 40.226133 18.875733 63.0784 29.969067 71.6288 11.093333 8.5504 14.370133 10.564267 23.739733 14.711467 9.3696 4.164267 19.746133 12.629333 19.746133 30.1568v136.430933s-0.2048 62.549333-64.853333 68.096h-361.472" fill="#257AE7" /><path d="M872.482133 239.5136h-7.3216v-29.713067a56.149333 56.149333 0 0 0-56.149333-56.149333H216.9856a56.149333 56.149333 0 0 0-56.149333 56.149333v29.713067h-7.304534A68.1984 68.1984 0 0 0 85.333333 307.712v136.1408c0 13.192533 8.6016 24.5248 20.992 29.013333a86.715733 86.715733 0 0 1 54.510934 60.8256v41.335467a86.903467 86.903467 0 0 1-54.528 60.842667c-12.373333 4.488533-20.974933 15.803733-20.974934 29.013333v136.123733a68.1984 68.1984 0 0 0 68.1984 68.1984H531.114667c220.8256-107.895467 381.098667-325.768533 403.456-588.458666a6.4 6.4 0 0 0 0.0512-0.938667 68.181333 68.181333 0 0 0-62.1568-40.277333z" fill="#5195EC" /><path d="M106.325333 635.869867c-12.3904 4.488533-20.992 15.803733-20.992 29.013333V757.76C405.026133 723.217067 668.910933 477.866667 720.554667 153.6H216.9856a56.149333 56.149333 0 0 0-56.149333 56.149333v29.730134h-7.304534A68.1984 68.1984 0 0 0 85.333333 307.6608v136.1408c0 13.192533 8.6016 24.5248 20.992 29.013333a86.715733 86.715733 0 0 1 54.510934 60.8256v41.335467a86.698667 86.698667 0 0 1-54.528 60.893867z" fill="#7CAFF0" /><path d="M479.9488 153.6512H216.9856a56.149333 56.149333 0 0 0-56.149333 56.149333v29.713067h-7.304534A68.1984 68.1984 0 0 0 85.333333 307.712v136.1408c0 13.192533 8.6016 24.5248 20.992 29.013333a86.869333 86.869333 0 0 1 30.6176 19.2 711.662933 711.662933 0 0 0 343.005867-338.432z" fill="#A9CAF6" /><path d="M711.68 470.186667H314.333867a39.594667 39.594667 0 0 1 0-79.138134H711.68a39.594667 39.594667 0 0 1 0 79.138134z m0 227.328H314.333867a39.594667 39.594667 0 0 1 0-79.138134H711.68a39.594667 39.594667 0 0 1 0 79.138134z" fill="#FFFFFF" /></svg>