<?xml version="1.0" standalone="no"?><!DOCTYPE svg PUBLIC "-//W3C//DTD SVG 1.1//EN" "http://www.w3.org/Graphics/SVG/1.1/DTD/svg11.dtd"><svg class="icon" width="48px" height="48.00px" viewBox="0 0 1024 1024" version="1.1" xmlns="http://www.w3.org/2000/svg"><path d="M192 48m80 0l480 0q80 0 80 80l0 768q0 80-80 80l-480 0q-80 0-80-80l0-768q0-80 80-80Z" fill="#FFDA64" /><path d="M752 48H272a80 80 0 0 0-80 80v32a80 80 0 0 1 80-80h480a80 80 0 0 1 80 80V128a80 80 0 0 0-80-80z" fill="#FFFFFF" /><path d="M752 912H272a80 80 0 0 1-80-80v64a80 80 0 0 0 80 80h480a80 80 0 0 0 80-80v-64a80 80 0 0 1-80 80z" fill="#FFB666" /><path d="M284 138.72H744v312H284z" fill="#FFFFFF" /><path d="M284 412.32H744v38.4H284z" fill="#EAEAF4" /><path d="M752 32H272a96 96 0 0 0-96 96v768a96 96 0 0 0 96 96h480a96 96 0 0 0 96-96V128a96 96 0 0 0-96-96z m64 864a64 64 0 0 1-64 64H272a64 64 0 0 1-64-64V128a64 64 0 0 1 64-64h480a64 64 0 0 1 64 64z" fill="#3A394B" /><path d="M752 112H304a48 48 0 0 0-48 48v304a16 16 0 0 0 16 16h448a48 48 0 0 0 48-48V128a16 16 0 0 0-16-16z m-32 320H304V160h416zM384 588.16h-16v-16a32 32 0 0 0-64 0v16h-16a32 32 0 0 0 0 64h16v16a32 32 0 0 0 64 0v-16h16a32 32 0 0 0 0-64z" fill="#3A394B" /><path d="M637.28 659.52m-40 0a40 40 0 1 0 80 0 40 40 0 1 0-80 0Z" fill="#3A394B" /><path d="M728 580.8m-40 0a40 40 0 1 0 80 0 40 40 0 1 0-80 0Z" fill="#3A394B" /><path d="M416 770.24m8 0l64 0q8 0 8 8l0 16q0 8-8 8l-64 0q-8 0-8-8l0-16q0-8 8-8Z" fill="#3A394B" /><path d="M528 770.24m8 0l64 0q8 0 8 8l0 16q0 8-8 8l-64 0q-8 0-8-8l0-16q0-8 8-8Z" fill="#3A394B" /></svg>