<?xml version="1.0" standalone="no"?><!DOCTYPE svg PUBLIC "-//W3C//DTD SVG 1.1//EN" "http://www.w3.org/Graphics/SVG/1.1/DTD/svg11.dtd"><svg class="icon" width="48px" height="48.00px" viewBox="0 0 1024 1024" version="1.1" xmlns="http://www.w3.org/2000/svg"><path d="M147.769599 97.285219L697.973881 418.576962v605.423038L147.769599 702.708257v-605.423038z" fill="#B8D9F6" /><path d="M876.156144 315.863812L697.973881 418.576962v605.423038l174.215698-102.71315z" fill="#99C9F2" /><path d="M876.156144 315.863812L322.924747 0 151.944931 97.285219 697.973881 417.533129z" fill="#E0EFFB" /><path d="M594.947581 478.179817a20.876656 20.876656 0 0 1 5.845464 5.42793l24.425688 31.314985 26.40897 34.3421c6.99368 9.081346 6.889297 20.876656 0 21.711723l-26.513353 3.757798-24.530072 3.444648a9.290112 9.290112 0 0 1-5.949847-1.461366 24.425688 24.425688 0 0 1-11.169011-19.206524 24.425688 24.425688 0 0 0-11.064628-19.206524l-30.793068-17.745158a7.61998 7.61998 0 0 0-8.141896-0.6263l-76.61733 51.043426c-3.966565 2.609582-3.966565 10.438328 0 17.327624l76.095413 139.769215a22.859939 22.859939 0 0 0 8.141896 8.872579l30.688685 17.745158c6.158614 3.549032 11.169011 0.730683 11.169012-6.36738s5.427931-9.707645 11.169011-6.36738a20.876656 20.876656 0 0 1 5.845464 5.323547l24.425688 31.314985 26.40897 34.3421c6.99368 9.081346 6.889297 20.876656 0 21.711723l-26.513354 3.757798-24.530071 3.444648a9.290112 9.290112 0 0 1-5.949847-1.461366 24.425688 24.425688 0 0 1-11.169011-19.206524 24.425688 24.425688 0 0 0-11.064628-19.206524L520.313534 772.43629l-89.456473-163.151071a22.964322 22.964322 0 0 0-8.141896-8.872579 7.724363 7.724363 0 0 0-8.246279-0.6263l-89.874006 60.020388L273.029538 630.266259c-6.158614-3.549032-11.169011-0.730683-11.169011 6.36738s-5.427931 9.707645-11.169011 6.36738a20.876656 20.876656 0 0 1-5.845464-5.42793L220.837897 605.423038l-26.826504-34.02895c-6.889297-8.976962-6.889297-20.876656 0-21.711723L220.837897 545.924567l24.425688-3.131499a9.290112 9.290112 0 0 1 5.845464 1.461366 24.530071 24.530071 0 0 1 11.482161 18.893374 24.425688 24.425688 0 0 0 10.438328 19.206524l31.314985 17.640775a7.61998 7.61998 0 0 0 8.141896 0.6263l76.617329-51.147809c3.966565-2.609582 3.966565-10.438328 0-17.327625l-76.304179-139.142915a23.068705 23.068705 0 0 0-8.455046-8.872579l-30.688685-17.745158c-5.845464-3.549032-11.064628-1.043833-11.064628 6.36738s-5.427931 9.707645-11.169011 6.367381a20.876656 20.876656 0 0 1-5.845464-5.427931L220.837897 341.959633l-26.095821-34.3421c-6.889297-8.976962-6.889297-20.876656 0-21.711723L221.359813 281.834862l24.530072-3.444648a9.290112 9.290112 0 0 1 5.949847 1.461366A24.425688 24.425688 0 0 1 262.59121 299.371254a24.425688 24.425688 0 0 0 11.064628 19.206524L325.221179 348.118247 414.782036 511.478084a22.964322 22.964322 0 0 0 8.141896 8.872579 7.724363 7.724363 0 0 0 8.246279 0.626299l89.978389-60.12477L572.609559 490.601427c6.158614 3.549032 11.169011 0.730683 11.169011-6.36738s5.323547-9.394495 11.169011-6.05423z" fill="#5CA8EA" /></svg>