<?xml version="1.0" standalone="no"?><!DOCTYPE svg PUBLIC "-//W3C//DTD SVG 1.1//EN" "http://www.w3.org/Graphics/SVG/1.1/DTD/svg11.dtd"><svg class="icon" width="48px" height="48.00px" viewBox="0 0 1024 1024" version="1.1" xmlns="http://www.w3.org/2000/svg"><path d="M663.954302 270.989949v-13.794737l-0.6131-2.145848v-2.145848l-0.715283-2.145848-0.715282-2.043665v-2.043665l-0.817466-2.043665-0.6131-1.430565v-0.510916l-0.919649-1.941482-1.021832-2.145848L653.735978 235.021449l-1.226199-2.145848-0.6131-1.021832-1.124015-1.839299-1.634932-2.656764-2.554581-3.678596-1.839298-2.350215-1.532749-1.839298-1.634932-1.839299-1.634932-1.737115-1.124015-1.226199-1.737115-1.737115h-0.510916l-0.817466-0.817465-1.839299-1.634932-0.817466-0.715283h-0.613099l-1.839298-1.328382-2.861131-4.08733-1.737115-1.124015-1.737115-1.021833L283.117371 5.620078l-1.226199-0.715283-1.737115-0.919649H278.416942l-1.532749-1.430565L275.657995 1.941482h-0.91965L273.61433 1.430565h-3.372047L268.402985 0H259.615226l-2.248031 1.226199a19.619182 19.619182 0 0 0-3.167681 1.430565l-66.827838 38.829631a19.619182 19.619182 0 0 1 3.167681-1.430565l2.452397-0.715283H204.129727l3.576414 1.021832 3.882963 1.532749 4.087329 2.145848 340.270185 196.396185 4.08733 2.656764 3.78078 2.758947 3.47423 3.065497 3.372047 3.372047 3.47423 3.882963a96.154428 96.154428 0 0 1 6.233177 8.379026l1.634932 2.554581 1.430565 2.248031 0.6131 1.021833 2.043665 3.882963q1.226199 2.350214 2.248031 4.700429t1.941481 4.700429q0.919649 2.452398 1.634932 4.904795 0.715283 2.350214 1.226199 4.700429c0 1.634932 0.715283 3.269864 0.919649 4.904796 0 1.634932 0 3.269864 0.6131 4.802612v4.700429l-1.941482 683.4015v4.496063q0 1.941482-0.510916 3.780779 0 1.737115-0.919649 3.372047v0.6131a30.654972 30.654972 0 0 1-1.124016 2.86113 25.750176 25.750176 0 0 1-1.634932 2.963314 22.07158 22.07158 0 0 1-2.86113 3.47423l-0.715283 0.715283a19.823548 19.823548 0 0 1-3.47423 2.656764l66.623472-38.727447a19.823548 19.823548 0 0 0 3.47423-2.656764l0.715282-0.715283a22.07158 22.07158 0 0 0 2.861131-3.47423 25.750176 25.750176 0 0 0 1.532749-2.758948l0.817466-1.941481V963.587941l0.510916-2.043665v-2.043665-1.941481V956.639481L663.954302 272.829247v-1.839298z" fill="#99C9F2" /><path d="M556.764084 240.74371a90.023433 90.023433 0 0 1 40.873296 70.812985l-1.941482 683.4015c0 26.056726-18.495166 36.479416-40.873295 23.399962L214.348051 821.961972a89.92125 89.92125 0 0 1-40.873295-70.710801L175.416237 67.84967c0-26.056726 18.495166-36.581599 40.873296-23.502144z m-0.613099 631.696782l1.430565-505.909215L214.961151 168.704527 213.530585 674.409375l342.6204 198.031117m-171.667841 10.72924c18.597349 10.218324 33.618286 2.145848 33.720468-19.210449a73.878482 73.878482 0 0 0-33.516102-58.040079c-18.597349-10.218324-33.618286-2.145848-33.720469 19.210448a73.878482 73.878482 0 0 0 33.516103 58.04008m-35.9685-703.633782c-6.028811-3.47423-10.831423-0.715283-10.831424 6.233178A23.808695 23.808695 0 0 0 348.41246 204.366477l75.922147 43.83661c6.028811 3.47423 10.831423 0.715283 10.933606-6.233178a23.808695 23.808695 0 0 0-10.831423-18.699532l-75.922146-43.83661" fill="#E0EFFB" /><path d="M348.514644 179.53595c-6.028811-3.47423-10.831423-0.715283-10.831424 6.233178A23.808695 23.808695 0 0 0 348.41246 204.366477l75.922147 43.83661c6.028811 3.47423 10.831423 0.715283 10.933606-6.233178a23.808695 23.808695 0 0 0-10.831423-18.699532l-75.922146-43.83661M556.150985 872.440492l1.430565-505.807032L214.961151 168.704527l-1.430566 505.909215 342.6204 197.82675M384.585327 883.169732c18.597349 10.218324 33.618286 2.145848 33.720469-19.210449a73.878482 73.878482 0 0 0-33.516103-58.040079c-18.597349-10.218324-33.618286-2.145848-33.720468 19.210448a73.878482 73.878482 0 0 0 33.516102 58.04008" fill="#5CA8EA" /></svg>