<?xml version="1.0" standalone="no"?><!DOCTYPE svg PUBLIC "-//W3C//DTD SVG 1.1//EN" "http://www.w3.org/Graphics/SVG/1.1/DTD/svg11.dtd"><svg class="icon" width="48px" height="48.00px" viewBox="0 0 1024 1024" version="1.1" xmlns="http://www.w3.org/2000/svg"><path d="M254.57883 832.710585H180.583272L143.632865 880.556625l36.950407 47.84604h73.995558l36.950408-47.84604-36.950408-47.84604z" fill="#B8D9F6" /><path d="M365.051073 784.864545h-73.995559l-36.950407 47.84604 36.950407 47.84604h73.995559l36.950407-47.84604-36.950407-47.84604z" fill="#99C9F2" /><path d="M365.051073 880.556625h-73.995559l-36.950407 47.84604 36.950407 47.751295h73.995559l36.950407-47.751295-36.950407-47.84604z" fill="#E0EFFB" /><path d="M476.849741 832.710585h-73.995559l-36.950407 47.84604 36.950407 47.84604h73.995559l36.950407-47.84604-36.950407-47.84604z" fill="#B8D9F6" /><path d="M476.849741 928.402665h-73.995559l-36.950407 47.751295 36.950407 47.84604h73.995559l36.950407-47.84604-36.950407-47.751295z" fill="#99C9F2" /><path d="M621.145818 684.340489h-73.995559l-36.950407 47.846039 36.950407 47.84604h73.995559l36.950407-47.84604-36.950407-47.846039z" fill="#B8D9F6" /><path d="M731.618061 636.494449h-73.900815l-37.045151 47.84604 37.045151 47.846039h73.900815l36.950407-47.846039-36.950407-47.84604z" fill="#99C9F2" /><path d="M731.618061 732.186528h-73.900815l-37.045151 47.84604 37.045151 47.84604h73.900815l36.950407-47.84604-36.950407-47.84604z" fill="#E0EFFB" /><path d="M843.416728 684.340489h-73.900814l-37.045152 47.846039 37.045152 47.84604h73.900814l36.950407-47.84604-36.950407-47.846039z" fill="#B8D9F6" /><path d="M843.416728 780.032568h-73.900814l-37.045152 47.84604 37.045152 47.84604h73.900814l36.950407-47.84604-36.950407-47.84604z" fill="#99C9F2" /><path d="M502.336047 513.136936l3.221318-15.443376-42.824574-38.940044-6.53738 12.88527 28.991858 26.054774-16.106588 14.780163-7.105848-20.085862-4.263508 4.452998 6.53738 20.180607-22.549223 20.843819 4.263508 6.34789 20.84382-19.327905 18.569948 57.320504-38.182087-34.771281-7.76906 15.253886 39.792746 35.813471-25.770541 12.222058-9.474463-21.128053-3.88453 4.831976 7.863805 18.854182-23.30718 11.085122 2.084382 7.295337 24.159881-11.4641 28.233901 67.0792-53.435973-48.509252-9.00074 17.622502 50.688379 45.572168h-32.592154l-17.717247-39.129533-4.831976 5.968912 13.927461 33.160621h-30.697261l-1.515914 9.284974h36.097705l28.044411 66.700223-55.141376-50.214656-9.00074 17.717246 47.751295 42.919319h-31.455218l-17.717247-39.129533-4.926721 5.968911 14.022206 33.160622h-30.792006l-1.42117 9.284974h36.097706l27.570688 65.658031-65.563286-59.689119-10.800888 21.128054 75.985196 68.31088 4.263508-20.65433 0.947447 2.368616 3.69504-17.148779-27.19171-59.973353h37.708365l5.305699 4.831977 3.600296-17.622502 1.515914 3.505551 3.695041-17.148778-27.19171-59.973354h38.655811l2.46336 2.179127 4.358253-21.222798-3.69504-3.316062 2.652849-12.032569-26.907476-59.31014 28.707624-13.643227 8.811251 7.863804 3.695041-18.190969-5.589933-5.116211 1.800148-5.874167-22.170245-62.341969 18.854182-17.527757 11.65359 10.42191zM519.863805 341.649149h10.611399s0 239.988157 60.352331 465.006662l-15.822354 5.779422s-69.068838-295.792746-55.141376-470.786084z" fill="#B8D9F6" /><path d="M601.817913 816.319763l-10.990378-9.474463s-56.088823-117.199112-60.352331-465.006662h7.484826s3.600296 276.464841 63.857883 474.481125z" fill="#99C9F2" /><path d="M682.72983 855.165063L465.764619 885.293856l98.913397-48.319763 108.861584 18.948927-8.053294-14.969652-80.343449-13.927461 71.721688-36.287195-7.674316-11.274611-7.295336-15.443376-5.589934-1.23168-2.558105-9.474463-74.185048-18.948927 55.520355-34.487047-4.926721-8.242783 14.969653-2.179126-9.474464-19.706884-7.579571 1.042191-1.515914-10.516654-56.84678-28.991858 35.623982-31.455219-4.452997-4.737231 18.285714-1.800148-8.527017-20.085863-14.211695 1.42117 2.842339-9.474464-37.897854-32.213175 28.42339-31.739452h2.65285l-6.063656-20.938564-72.195411-1.136936-3.316062 20.84382h9.474463v13.453738l27.286455 21.791265L494.188009 569.794226l3.031828 12.885271 36.855663-41.592894 42.350851 33.823834-79.111769 7.863804-13.264249 1.326425-0.852702 21.033309 97.681718-9.474464-39.129534 32.118431-47.372317-23.591414-6.34789 6.916359 45.098445 23.686158-49.646188 40.740193 4.358253 10.800888 53.435974-47.372317 60.257587 32.686899-129.136936 18.759437v21.033309l134.442635-18.948927-62.341969 37.897853-61.015544-16.864544-4.642487 7.295336 53.720207 16.769801-62.910436 37.897853 2.747594 13.358993 75.227239-46.709104 78.353812 24.444115-153.581051 21.791266-5.779422 0.852702v30.602517s33.160622 5.874167 72.574389 12.790525l-81.859364 38.561066c0 0.852702 1.136936 10.706144 1.705404 15.159141l-6.632125 0.947447v24.159881L693.151739 877.714286z m-180.014804-355.102887l56.84678 0.947447-24.823094 26.244263z m-28.42339 307.541081l166.087343-24.065137L560.509252 822.572909z" fill="#99C9F2" /><path d="M482.629164 341.080681c-3.126573 356.80829-157.370836 522.516654-157.370837 522.516654l-4.452998-18.948926c139.558845-218.860104 150.264989-510.957809 150.264989-510.957809z" fill="#B8D9F6" /><path d="M341.080681 855.165063l-9.474463-0.947446S480.355292 665.96003 482.629164 341.080681l8.432272 1.894893s-3.789785 290.108068-149.980755 512.189489z" fill="#99C9F2" /><path d="M490.11399 345.723168S483.766099 720.059215 416.686899 958.247224l12.316802-1.989637a2645.649149 2645.649149 0 0 0 68.121392-610.629164z" fill="#B8D9F6" /><path d="M427.866765 956.068098l18.948927 6.726869s61.489267-202.848261 71.532198-621.145818h-19.706883S472.396743 788.370096 427.866765 956.068098zM539.949667 341.080681s-5.589933 261.021466 165.42413 580.595115l20.085863-20.085863S601.817913 769.610659 560.509252 341.080681z" fill="#99C9F2" /><path d="M429.666913 323.173945l88.775722 51.825315v15.064397l-88.775722-51.256847z" fill="#B8D9F6" /><path d="M607.218357 323.173945l-88.775722 51.825315v15.064397l88.775722-51.256847z" fill="#99C9F2" /><path d="M607.218357 323.173945l-88.775722-51.256847-88.775722 51.256847 88.775722 51.825315z" fill="#E0EFFB" /><path d="M460.364175 301.666913l58.07846 33.918579v22.738712l-58.07846-33.5396z" fill="#B8D9F6" /><path d="M576.61584 301.666913l-58.07846 33.918579v22.738712l58.07846-33.5396z" fill="#99C9F2" /><path d="M429.666913 273.717246l88.775722 51.825315V341.080681l-88.775722-51.256847z" fill="#B8D9F6" /><path d="M607.218357 273.717246l-88.775722 51.825315V341.080681l88.775722-51.256847z" fill="#99C9F2" /><path d="M607.218357 273.717246l-88.775722-51.256846-88.775722 51.256846 88.775722 51.825315z" fill="#E0EFFB" /><path d="M475.239082 202.848261l43.298298 25.296817v76.932642L475.239082 279.970392z" fill="#B8D9F6" /><path d="M561.835677 202.848261l-43.298297 25.296817v76.932642l43.298297-25.012583z" fill="#99C9F2" /><path d="M561.835677 202.848261l-43.298297-25.012584L475.239082 202.848261l43.298298 25.296817z" fill="#E0EFFB" /><path d="M500.914878 137.948187l17.527757 10.23242v64.710585l-17.527757-10.137676z" fill="#B8D9F6" /><path d="M536.065137 137.948187l-17.527757 10.23242v64.710585l17.527757-10.137676z" fill="#99C9F2" /><path d="M536.065137 137.948187l-17.527757-10.137676-17.527757 10.137676 17.527757 10.23242z" fill="#E0EFFB" /><path d="M518.442635 137.948187V41.024426l-4.074019 96.923761h4.074019zM518.442635 137.948187V41.024426L522.611399 137.948187h-4.168764z" fill="#E0EFFB" /><path d="M573.773501 65.468542c-0.568468-1.800148-1.042191-3.695041-1.610659-5.495189S570.836417 56.84678 569.983716 54.762398A44.340489 44.340489 0 0 0 555.866765 37.897853a55.046632 55.046632 0 0 1 0 77.406366A44.435233 44.435233 0 0 0 569.983716 98.723908c0.852702-1.705403 1.515914-3.505551 2.179126-5.210955s1.042191-3.600296 1.610659-5.495188 0.663212-3.695041 0.947446-5.589934 0-3.789785 0-5.684678v-5.684678c0-1.894893-0.568468-3.789785-0.947446-5.589933zM614.324204 42.635085a70.963731 70.963731 0 0 0-21.601776-26.717987 85.838638 85.838638 0 0 1 0 120.988898 71.058475 71.058475 0 0 0 21.507032-26.717987 78.92228 78.92228 0 0 0 5.684678-16.580311 86.407106 86.407106 0 0 0 1.989637-17.527757 86.69134 86.69134 0 0 0-1.894893-17.527757 79.111769 79.111769 0 0 0-5.684678-15.917099zM658.00148 33.72909A89.723168 89.723168 0 0 0 630.904515 0a109.051073 109.051073 0 0 1 13.264249 16.390822 108.766839 108.766839 0 0 1 9.474463 101.092524 109.99852 109.99852 0 0 1-23.212435 35.055514 89.912657 89.912657 0 0 0 27.096965-33.729089 100.713546 100.713546 0 0 0 0-86.028128zM463.206514 88.017765c0.568468 1.800148 1.042191 3.695041 1.610658 5.495188s1.326425 3.505551 2.179127 5.210955a44.340489 44.340489 0 0 0 14.11695 16.95929 55.046632 55.046632 0 0 1 0-77.406366 44.435233 44.435233 0 0 0-14.11695 16.959289c-0.852702 1.705403-1.515914 3.505551-2.179127 5.210955s-1.042191 3.600296-1.610658 5.495189-0.663212 3.695041-0.947447 5.589933 0 3.789785 0 5.684678v5.684678c0 1.894893 0.568468 3.316062 0.947447 5.116211zM422.655811 110.851221a70.963731 70.963731 0 0 0 21.507031 26.717987 85.838638 85.838638 0 0 1 0-120.988897 71.058475 71.058475 0 0 0-21.507031 26.054774 78.92228 78.92228 0 0 0-5.684679 16.580311 86.407106 86.407106 0 0 0-1.989637 17.527757 86.69134 86.69134 0 0 0 1.894893 17.527757 79.111769 79.111769 0 0 0 5.779423 16.580311zM378.88379 119.757217a89.723168 89.723168 0 0 0 27.19171 33.729089 109.051073 109.051073 0 0 1-13.264249-16.390821 108.766839 108.766839 0 0 1-9.474463-101.092524A109.99852 109.99852 0 0 1 406.454478 0a89.912657 89.912657 0 0 0-27.096965 33.72909 100.713546 100.713546 0 0 0 0 86.028127z" fill="#5CA8EA" /></svg>