<?xml version="1.0" standalone="no"?><!DOCTYPE svg PUBLIC "-//W3C//DTD SVG 1.1//EN" "http://www.w3.org/Graphics/SVG/1.1/DTD/svg11.dtd"><svg class="icon" width="48px" height="48.00px" viewBox="0 0 1024 1024" version="1.1" xmlns="http://www.w3.org/2000/svg"><path d="M517.423262 342.027815c-27.1872 0-49.230769-22.043569-49.23077-49.230769V66.953846c0-27.1872 22.043569-49.230769 49.23077-49.230769s49.230769 22.043569 49.230769 49.230769v225.8432c0 27.1872-22.043569 49.230769-49.230769 49.230769z" fill="#B0A7F7" /><path d="M517.387815 342.031754c-25.363692 0-46.749538-19.385108-49.002338-44.894523a58.683077 58.683077 0 0 1-0.2048-5.340554c-1.480862-56.367262-128.003938-72.865477-159.460431-73.928862-27.171446-0.917662-48.458831-23.689846-47.541169-50.86523 0.917662-27.171446 23.713477-48.427323 50.865231-47.54117 2.386708 0.082708 59.179323 2.185846 116.724184 20.409108 27.675569 8.763077 65.4336 24.820185 94.44037 52.558769C565.456738 157.999262 630.153846 133.277538 716.047754 118.803692c26.8288-4.541046 52.208246 13.556185 56.725661 40.365293 4.517415 26.813046-13.552246 52.208246-40.365292 56.725661-146.648615 24.713846-164.316554 71.853292-165.750154 76.823631v0.082708c0 26.344369-20.739938 48.021662-47.060677 49.183507-0.740431 0.031508-1.476923 0.047262-2.209477 0.047262z" fill="#B0A7F7" /><path d="M517.431138 243.566277c-187.651938 0-340.318523 170.704738-340.318523 380.526277s152.666585 380.526277 340.318523 380.526277c187.651938 0 340.318523-170.704738 340.318524-380.526277s-152.666585-380.526277-340.318524-380.526277z m149.314954 602.171077l-78.501415-78.501416 78.336-78.336 65.323323 65.323324c-15.966523 35.650954-38.266092 66.819938-65.157908 91.514092z m-363.0592-89.856l66.973539-66.977477 78.339938 78.336-79.639631 79.639631c-27.0336-24.493292-49.514338-55.492923-65.673846-90.998154z m-28.112738-131.7888c0-9.791015 0.433231-19.463877 1.272123-29.002831l24.190031 24.193969-24.788677 24.788677a332.051692 332.051692 0 0 1-0.673477-19.979815z m98.875077-227.312246l74.5472 74.543261-78.336 78.332062-63.885785-63.885785c16.943262-34.957785 40.069908-65.307569 67.674585-88.989538z m65.839261 222.499446l78.332062-78.336 78.339938 78.336-78.336 78.336-78.336-78.336z m288.586831-131.914831l-62.294646 62.294646-78.339939-78.336 73.468062-73.464123c27.462892 23.882831 50.412308 54.409846 67.166523 89.505477z m7.329477 131.914831l21.9648-21.9648a330.279385 330.279385 0 0 1 1.118523 26.7776 334.887385 334.887385 0 0 1-0.527754 17.746708l-22.555569-22.559508z m-165.021538-270.143016l-52.566647 52.566647-53.06683-53.07077a208.805415 208.805415 0 0 1 51.881353-6.6048c18.475323 0 36.4544 2.5088 53.752124 7.108923z m-113.207139 548.371693l60.648369-60.644431 60.096985 60.096985a209.006277 209.006277 0 0 1-61.290339 9.200246 209.152 209.152 0 0 1-59.455015-8.6528z" fill="#594BC8" /></svg>