<?xml version="1.0" standalone="no"?><!DOCTYPE svg PUBLIC "-//W3C//DTD SVG 1.1//EN" "http://www.w3.org/Graphics/SVG/1.1/DTD/svg11.dtd"><svg class="icon" width="48px" height="48.00px" viewBox="0 0 1024 1024" version="1.1" xmlns="http://www.w3.org/2000/svg"><path d="M567.630769 246.1696V94.523077c0-27.1872-22.047508-49.230769-49.230769-49.230769-27.1872 0-49.230769 22.043569-49.230769 49.230769v59.825231c-12.043815-2.138585-25.540923-3.375262-40.759139-3.375262-54.906092 0-120.284554 16.0256-184.08763 45.130831-61.711754 28.148185-115.515077 65.697477-151.492924 105.731938-61.345477 68.253538-51.365415 120.398769-39.95963 145.404062 11.102523 24.343631 42.897723 65.185477 131.060184 65.185477 54.906092 0 120.284554-16.029538 184.09157-45.134769 111.958646-51.066092 208.238277-139.539692 199.609107-221.120985zM327.156185 377.710277c-50.510769 23.04-102.715077 36.253538-143.230031 36.253538-25.186462 0-37.521723-5.159385-41.184492-7.786338 0.641969-16.785723 42.472369-74.893785 142.4384-120.489354 50.510769-23.04 102.715077-36.253538 143.226092-36.253538 25.186462 0 37.525662 5.159385 41.184492 7.786338-0.638031 16.785723-42.468431 74.889846-142.434461 120.489354zM742.463015 643.639138c-1.591138 0-3.198031-0.078769-4.824615-0.236307-27.061169-2.634831-46.867692-26.698831-44.2368-53.76 4.608-47.407262-53.846646-83.499323-54.437415-83.845908-23.532308-13.623138-31.554954-43.740554-17.931816-67.272861 13.623138-23.528369 43.732677-31.558892 67.268923-17.935754 42.354215 24.5248 111.734154 89.733908 103.101046 178.573784-2.481231 25.4464-23.902523 44.477046-48.939323 44.477046z" fill="#B0A7F7" /><path d="M666.155323 203.953231c-0.901908-0.244185-1.807754-0.401723-2.709661-0.590769a428.788185 428.788185 0 0 1-14.225724 98.233107c131.753354 40.109292 222.995692 162.6112 222.995693 301.213539a314.761846 314.761846 0 0 1-181.496123 285.31003h-266.775631a314.722462 314.722462 0 0 1-181.177108-271.757784l-0.547446 0.007877c-33.811692 0-66.686031-4.0448-98.197661-11.638154a413.144615 413.144615 0 0 0 249.911138 377.840246 49.262277 49.262277 0 0 0 19.475692 4.017231h287.8464c6.699323 0 13.327754-1.370585 19.475693-4.017231a413.176123 413.176123 0 0 0 249.946584-379.762215c-0.003938-186.021415-125.231262-350.038646-304.521846-398.855877z" fill="#594BC8" /></svg>