<?xml version="1.0" standalone="no"?><!DOCTYPE svg PUBLIC "-//W3C//DTD SVG 1.1//EN" "http://www.w3.org/Graphics/SVG/1.1/DTD/svg11.dtd"><svg class="icon" width="48px" height="48.00px" viewBox="0 0 1024 1024" version="1.1" xmlns="http://www.w3.org/2000/svg"><path d="M660.613908 984.119138H342.764308a49.230769 49.230769 0 0 1-46.674708-33.571446l-44.874831-133.773784a49.222892 49.222892 0 0 1 46.674708-64.886154h407.6032a49.230769 49.230769 0 0 1 46.670769 64.886154l-44.878769 133.773784a49.222892 49.222892 0 0 1-46.670769 33.571446z m-282.438893-98.461538h247.028185l11.846892-35.312246H366.332062l11.842953 35.312246z" fill="#B0A7F7" /><path d="M302.099692 498.727385m-45.296246 0a45.296246 45.296246 0 1 0 90.592492 0 45.296246 45.296246 0 1 0-90.592492 0Z" fill="#B0A7F7" /><path d="M858.809108 850.345354H187.600738c-35.875446 0-87.744985-15.757785-131.119261-90.832739-21.673354-37.517785-31.964554-73.814646-33.067323-77.831877a49.226831 49.226831 0 0 1 47.474215-62.2592h886.252308c27.1872 0 49.230769 22.043569 49.230769 49.23077 0 105.212062-82.601354 161.9968-131.402831 178.959754-5.194831 1.811692-10.657477 2.733292-16.159507 2.733292zM146.400492 717.883077c8.759138 13.520738 24.741415 34.000738 41.196308 34.000738H848.777846c6.931692-3.339815 18.372923-9.6768 29.380923-19.448123 5.218462-4.635569 9.743754-9.475938 13.571939-14.552615H146.400492z" fill="#594BC8" /><path d="M942.332062 299.433354a49.218954 49.218954 0 0 0-53.8112 11.275815l-85.972677 88.339693c-13.044185-31.680985-31.866092-60.668062-55.524431-86.157785V109.315938a49.234708 49.234708 0 0 0-69.718646-44.768492L326.380308 225.150031c-0.082708 0.035446-0.1536 0.082708-0.236308 0.122092a420.7104 420.7104 0 0 0-15.706585 6.6048c-6.624492 1.882585-11.019815 3.710031-12.453415 4.340185a49.112615 49.112615 0 0 0-11.653908 7.238892c-36.970338 19.136985-72.869415 44.130462-106.562954 74.543262-59.009969 53.267692-118.551631 131.962092-118.55163 187.695261 0 53.244062 54.075077 129.2288 100.383507 178.112985a49.081108 49.081108 0 0 0 35.749416 15.375754c12.154092 0 24.327877-4.474092 33.847138-13.489231 19.739569-18.699815 20.586338-49.856985 1.886523-69.596554-47.123692-49.750646-70.837169-96.090585-73.294769-110.332062 2.784492-14.674708 31.247754-66.670277 90.505846-118.7328 20.566646-18.069662 52.665108-42.716554 92.408123-61.6448 4.568615-0.508062 11.539692-0.397785 18.199631 3.237416 8.916677 4.867938 30.853908 23.748923 41.976123 93.770831 3.847877 24.237292 24.772923 41.519262 48.561231 41.519261 2.563938 0 5.167262-0.200862 7.7824-0.618338 26.852431-4.265354 45.166277-29.4912 40.900923-56.343631-7.104985-44.7488-19.396923-81.384369-36.647385-109.827939 77.032369 0.728615 145.656123 23.906462 193.543877 65.543877 43.819323 38.104615 67.954215 88.898954 67.954216 143.02917 0 40.235323-13.083569 80.431262-37.840739 116.235815-15.466338 22.366523-9.869785 53.031385 12.4928 68.493785 22.3744 15.466338 53.031385 9.873723 68.493785-12.4928 17.557662-25.387323 31.058708-52.483938 40.349538-80.5376l79.824739 83.152738a49.222892 49.222892 0 0 0 53.889969 11.583015 49.226831 49.226831 0 0 0 30.857846-45.674338V345.048615a49.250462 49.250462 0 0 0-30.708184-45.615261z m-293.769847-58.943016c-20.267323-9.976123-41.905231-18.3296-64.712861-24.887138l64.712861-29.617231v54.504369z m226.008616 283.588924l-27.963077-29.128862 27.963077-28.731077v57.859939z" fill="#594BC8" /></svg>