<?xml version="1.0" standalone="no"?><!DOCTYPE svg PUBLIC "-//W3C//DTD SVG 1.1//EN" "http://www.w3.org/Graphics/SVG/1.1/DTD/svg11.dtd"><svg class="icon" width="48px" height="48.00px" viewBox="0 0 1024 1024" version="1.1" xmlns="http://www.w3.org/2000/svg"><path d="M785.28 679.04m-162.986667 0a162.986667 162.986667 0 1 0 325.973334 0 162.986667 162.986667 0 1 0-325.973334 0Z" fill="#4169E1" /><path d="M257.706667 209.066667m-38.4 0a38.4 38.4 0 1 0 76.8 0 38.4 38.4 0 1 0-76.8 0Z" fill="#4169E1" /><path d="M834.133333 866.346667H149.333333a73.813333 73.813333 0 0 1-73.6-73.6v-102.186667a73.173333 73.173333 0 0 1 52.693334-70.4 70.4 70.4 0 0 0 0-134.613333 72.96 72.96 0 0 1-52.693334-70.186667v-102.186667A73.813333 73.813333 0 0 1 149.333333 239.573333h9.6v64H149.333333a9.6 9.6 0 0 0-9.6 9.6v102.186667a10.24 10.24 0 0 0 7.253334 9.173333 134.186667 134.186667 0 0 1 0 256 9.813333 9.813333 0 0 0-7.253334 9.173334v102.186666a9.6 9.6 0 0 0 9.6 9.6h684.8a9.6 9.6 0 0 0 9.6-9.6v-101.333333a9.813333 9.813333 0 0 0-7.253333-9.173333 134.186667 134.186667 0 0 1 0-256 10.24 10.24 0 0 0 7.253333-9.173334v-103.04a9.6 9.6 0 0 0-9.6-9.6H338.56v-64H834.133333a73.813333 73.813333 0 0 1 73.6 73.6v102.186667a73.173333 73.173333 0 0 1-52.48 70.186667 70.4 70.4 0 0 0 0 134.613333 73.386667 73.386667 0 0 1 52.48 70.4v102.186667a73.813333 73.813333 0 0 1-73.6 73.6z" fill="#2c2c2c" /><path d="M562.346667 271.573333h64v562.773334h-64z" fill="#2c2c2c" /></svg>