<?xml version="1.0" standalone="no"?><!DOCTYPE svg PUBLIC "-//W3C//DTD SVG 1.1//EN" "http://www.w3.org/Graphics/SVG/1.1/DTD/svg11.dtd"><svg class="icon" width="48px" height="48.00px" viewBox="0 0 1024 1024" version="1.1" xmlns="http://www.w3.org/2000/svg"><path d="M458.397538 246.283815c-9.086031-48.789662 4.478031-155.009969 120.847754-207.812923 24.7808-11.236431 53.945108-0.263877 65.173662 24.489354 11.236431 24.761108 0.267815 53.937231-24.489354 65.173662-31.432862 14.265108-51.7632 34.961723-60.416 61.518769-6.896246 21.149538-4.225969 39.112862-4.194462 39.294031l-0.122092-0.689231-96.799508 18.026338z" fill="#B0A7F7" /><path d="M907.791754 354.296123c0-91.671631-74.582646-166.254277-166.254277-166.254277-88.316062 0-160.736492 69.2224-165.927385 156.254523-0.6656 3.229538-1.020062 6.573292-1.020061 9.999754 0 37.383877-30.416738 67.800615-67.796677 67.800615-37.368123 0-67.773046-30.389169-67.800616-67.749415v-0.047261c0-91.675569-74.586585-166.262154-166.262153-166.262154S106.472369 262.624492 106.472369 354.300062c0 80.183138 57.056492 147.290585 132.706462 162.859323a165.206646 165.206646 0 0 0-15.675077 70.368492c0 80.7424 57.863877 148.196431 134.2976 163.142892a165.249969 165.249969 0 0 0-16.923569 72.999385c0 91.675569 74.586585 166.262154 166.258215 166.262154s166.254277-74.586585 166.254277-166.262154a165.234215 165.234215 0 0 0-16.923569-72.999385c76.429785-14.946462 134.293662-82.400492 134.293661-163.142892a165.316923 165.316923 0 0 0-15.675077-70.380308c75.646031-15.560862 132.706462-82.668308 132.706462-162.851446z m-702.857846 0.003939c0-37.383877 30.416738-67.800615 67.800615-67.800616 37.372062 0 67.776985 30.393108 67.796677 67.761231v0.090585c-0.027569 37.360246-30.432492 67.749415-67.796677 67.749415-37.383877 0-67.800615-30.416738-67.800615-67.800615z m117.031384 233.227815c0-37.383877 30.4128-67.796677 67.796677-67.796677s67.796677 30.4128 67.796677 67.796677-30.4128 67.796677-67.796677 67.796677-67.796677-30.4128-67.796677-67.796677z m185.170708 303.942892c-37.383877 0-67.796677-30.416738-67.796677-67.800615s30.4128-67.796677 67.796677-67.796677c37.383877 0 67.792738 30.4128 67.792738 67.796677s-30.408862 67.800615-67.792738 67.800615z m117.370092-236.146215c-37.383877 0-67.800615-30.4128-67.800615-67.796677s30.416738-67.796677 67.800615-67.796677c37.379938 0 67.792738 30.4128 67.792739 67.796677s-30.408862 67.796677-67.792739 67.796677z m117.031385-233.235692c-37.379938 0-67.792738-30.4128-67.792739-67.792739s30.4128-67.792738 67.792739-67.792738 67.792738 30.4128 67.792738 67.792738-30.4128 67.792738-67.792738 67.792739z" fill="#594BC8" /></svg>