<?xml version="1.0" standalone="no"?><!DOCTYPE svg PUBLIC "-//W3C//DTD SVG 1.1//EN" "http://www.w3.org/Graphics/SVG/1.1/DTD/svg11.dtd"><svg class="icon" width="48px" height="48.00px" viewBox="0 0 1024 1024" version="1.1" xmlns="http://www.w3.org/2000/svg"><path d="M725.333333 725.333333m-181.333333 0a181.333333 181.333333 0 1 0 362.666667 0 181.333333 181.333333 0 1 0-362.666667 0Z" fill="#4169E1" /><path d="M434.986667 129.706667m-42.666667 0a42.666667 42.666667 0 1 0 85.333333 0 42.666667 42.666667 0 1 0-85.333333 0Z" fill="#4169E1" /><path d="M786.346667 429.653333h-64v-129.493333a74.666667 74.666667 0 0 0-74.453334-74.453333h-155.733333v-64h155.733333a138.666667 138.666667 0 0 1 138.453334 138.453333zM288.426667 429.653333h-64v-129.493333A138.666667 138.666667 0 0 1 362.666667 161.706667v64a74.453333 74.453333 0 0 0-74.453334 74.453333zM865.066667 822.613333h-64v-196.48a85.333333 85.333333 0 0 0-85.333334-85.333333H295.68a85.333333 85.333333 0 0 0-85.333333 85.333333v196.48h-64v-196.48a149.333333 149.333333 0 0 1 149.333333-149.333333h419.413333a149.333333 149.333333 0 0 1 149.333334 149.333333z" fill="#2c2c2c" /><path d="M164.693333 646.613333h681.386667v64H164.693333z" fill="#2c2c2c" /></svg>