<?xml version="1.0" standalone="no"?><!DOCTYPE svg PUBLIC "-//W3C//DTD SVG 1.1//EN" "http://www.w3.org/Graphics/SVG/1.1/DTD/svg11.dtd"><svg class="icon" width="48px" height="48.00px" viewBox="0 0 1024 1024" version="1.1" xmlns="http://www.w3.org/2000/svg"><path d="M166.994262 690.600076m109.445988-109.445987l304.706454-304.706454q109.445988-109.445988 218.891975 0l0 0q109.445988 109.445988 0 218.891975l-304.706454 304.706454q-109.445988 109.445988-218.891975 0l0 0q-109.445988-109.445988 0-218.891975Z" fill="#4169E1" /><path d="M331 949a256 256 0 0 1-181-437l121.71-121.75A32 32 0 1 1 317 435.51L195.22 557.25a192 192 0 0 0 0 271.53c74.86 74.86 196.66 74.86 271.53 0L588.49 707a32 32 0 0 1 45.26 45.26L512 874a254.33 254.33 0 0 1-181 75zM729.66 643.12A32 32 0 0 1 707 588.5l121.78-121.75a192 192 0 1 0-271.52-271.53L435.5 317a32 32 0 1 1-45.25-45.26L512 150a256 256 0 0 1 362 362L752.29 633.75a31.9 31.9 0 0 1-22.63 9.37z" fill="#2c2c2c" /><path d="M376.24 679.76a32 32 0 0 1-22.63-54.62l271.53-271.53a32 32 0 0 1 45.25 45.25L398.86 670.39a31.89 31.89 0 0 1-22.62 9.37z" fill="#2c2c2c" /></svg>