<?xml version="1.0" standalone="no"?><!DOCTYPE svg PUBLIC "-//W3C//DTD SVG 1.1//EN" "http://www.w3.org/Graphics/SVG/1.1/DTD/svg11.dtd"><svg class="icon" width="48px" height="48.00px" viewBox="0 0 1024 1024" version="1.1" xmlns="http://www.w3.org/2000/svg"><path d="M777.924923 356.572554l-2.213415-9.042708c-10.893785-44.658215-21.181046-86.839138-44.512493-111.1552-15.938954-16.612431-46.824369-25.2416-80.655753-22.508308-29.999262 2.418215-52.960492 13.552246-59.336862 22.795816L510.148923 180.767508c24.851692-36.040862 74.373908-60.356923 132.474092-65.043693 63.480123-5.131815 123.175385 14.493538 159.621908 52.48 41.668923 43.425477 56.253046 103.231015 69.123939 155.994585l2.170092 8.877292-95.614031 23.496862zM470.6304 907.094646c-260.875815 0-414.751508-177.2544-440.694154-303.115815-22.197169-107.681477 5.021538-215.394462 76.650339-303.293046 77.012677-94.507323 196.828554-153.214031 312.694153-153.214031 181.3504 0 230.191262 73.412923 267.8784 155.199015 11.382154 24.694154 0.582892 53.937231-24.107323 65.315446-24.698092 11.378215-53.937231 0.582892-65.315446-24.111261-25.214031-54.720985-45.126892-97.941662-178.455631-97.941662-87.008492 0-177.577354 44.811815-236.36283 116.952616-52.570585 64.512-72.6528 143.076431-56.544493 221.215507 7.565785 36.702523 37.037292 93.278523 97.067323 141.989416 46.406892 37.655631 126.960246 82.542277 247.189662 82.542277 61.270646 0 155.191138-17.274092 226.910523-55.8592 23.957662-12.882708 53.799385-3.914831 66.682092 20.027077 12.882708 23.945846 3.914831 53.799385-20.027077 66.682092-76.343138 41.074215-183.721354 67.611569-273.565538 67.611569z" fill="#594BC8" /><path d="M566.575262 749.032369c-94.645169 0-189.054031-48.738462-234.921354-121.277046-15.702646-24.828062-25.095877-51.314215-27.923693-78.725908-2.788431-27.045415 16.876308-51.231508 43.921723-54.019938 27.061169-2.788431 51.231508 16.876308 54.019939 43.921723 1.252431 12.154092 5.695015 24.335754 13.197785 36.1984 27.644062 43.716923 91.4432 75.441231 151.7056 75.441231 19.396923 0 39.939938-3.875446 62.802707-11.846893 20.767508-7.234954 41.432615-17.077169 61.408493-26.59643 39.959631-19.030646 81.270154-38.703262 125.459692-38.703262 10.070646 0 20.117662 1.035815 29.873231 3.072 11.898092 2.489108 21.949046 3.694277 30.72 3.694277 8.164431 0 14.5408-1.043692 19.487507-3.190154 3.603692-1.555692 6.376369-3.780923 8.073846-6.459077 3.406769-5.372062 2.942031-12.670031 1.953477-17.845169a51.778954 51.778954 0 0 0-1.725046-6.589046l-0.059077 0.023631 0.059077-0.023631a48.072862 48.072862 0 0 0-1.209107-3.272862l-1.224862-3.2768c-2.307938-6.931692-5.994338-11.697231-11.275815-14.572307-5.305108-2.898708-13.044185-4.348062-23.063631-4.348062-11.015877 0-24.2688 1.642338-38.301539 3.3792l-4.6592 0.578954c-16.773908 2.067692-34.725415 4.084185-53.598523 4.084185-33.283938 0-61.794462-6.5536-87.16603-20.038893-27.840985-14.788923-59.053292-27.384123-90.238031-36.411077-33.799877-9.783138-64.949169-14.7456-92.589293-14.7456-27.1872 0-49.230769-22.039631-49.230769-49.230769 0-27.1872 22.043569-49.230769 49.230769-49.230769 36.907323 0 77.268677 6.266092 119.965539 18.628923 37.592615 10.881969 75.311262 26.108062 109.067815 44.043815 11.094646 5.899815 23.721354 8.526769 40.956062 8.52677 13.292308 0 27.813415-1.654154 41.542892-3.347693l4.600123-0.575015c16.380062-2.032246 33.319385-4.131446 50.416246-4.131446 27.088738 0 50.057846 5.356308 70.226708 16.380061 18.7904 10.236062 43.858708 30.393108 56.981662 68.265354 0.476554 1.201231 0.980677 2.5088 1.496615 3.918769l0.3072 0.854647a151.126646 151.126646 0 0 1 6.199138 22.6304c6.199138 32.472615 0.838892 63.259569-15.509661 89.028923-12.311631 19.440246-30.345846 34.701785-52.129477 44.110769-17.506462 7.589415-36.686769 11.283692-58.592492 11.283692-15.616 0-32.252062-1.890462-50.865231-5.781661a47.584492 47.584492 0 0 0-9.728-0.988554c-21.945108 0-51.652923 14.150892-83.109415 29.128861-22.382277 10.661415-45.512862 21.681231-71.360985 30.684554-33.429662 11.677538-64.575015 17.348923-95.192615 17.348923z" fill="#B0A7F7" /></svg>