<?xml version="1.0" standalone="no"?><!DOCTYPE svg PUBLIC "-//W3C//DTD SVG 1.1//EN" "http://www.w3.org/Graphics/SVG/1.1/DTD/svg11.dtd"><svg class="icon" width="48px" height="47.63px" viewBox="0 0 1032 1024" version="1.1" xmlns="http://www.w3.org/2000/svg"><path d="M48.39801 320.955224v-119.721393c0-87.880597 71.323383-160.477612 160.477612-160.477612h294.208955C590.965174 40.756219 662.288557 112.079602 662.288557 201.233831v119.721393c0 87.880597-71.323383 160.477612-160.477612 160.477612h-292.935323c-87.880597 0-160.477612-72.597015-160.477612-160.477612z" fill="#4F8DFC" /><path d="M137.552239 1024c-8.915423 0-17.830846-1.273632-28.019901-3.820896-57.313433-12.736318-109.532338-70.049751-109.532338-122.268656V238.169154C0 106.985075 106.985075 0 238.169154 0h556.577115c131.18408 0 238.169154 106.985075 238.169154 238.169154v659.741294c0 52.218905-48.39801 109.532338-103.164179 123.542288-22.925373 5.094527-81.512438 10.189055-118.447761-66.228855-22.925373-47.124378-17.830846-140.099502-12.736319-230.527364 2.547264-48.39801 6.368159-113.353234 1.273632-135.004975h-534.925373c-7.641791 21.651741-6.368159 92.975124-5.094527 140.099503 1.273632 87.880597 2.547264 179.58209-20.37811 225.432836-24.199005 44.577114-59.860697 68.776119-101.890547 68.776119zM238.169154 50.945274C135.004975 50.945274 50.945274 135.004975 50.945274 238.169154v659.741294c0 25.472637 33.114428 63.681592 71.323383 72.597015 29.293532 7.641791 53.492537-6.368159 70.049751-39.482587 17.830846-34.38806 16.557214-127.363184 15.283582-201.233831-1.273632-101.890547-1.273632-156.656716 21.651741-179.58209 7.641791-7.641791 16.557214-11.462687 26.746269-11.462686h552.756219c10.189055 0 19.104478 3.820896 26.746269 11.462686 21.651741 22.925373 20.378109 76.41791 14.00995 177.034826-3.820896 75.144279-10.189055 169.393035 7.641791 205.054726 15.283582 31.840796 36.935323 45.850746 61.134328 39.482588 34.38806-7.641791 64.955224-47.124378 64.955224-73.870647V238.169154C981.970149 135.004975 897.910448 50.945274 794.746269 50.945274H238.169154z" fill="#181818" /><path d="M771.820896 473.791045c-14.00995 0-25.472637-11.462687-25.472637-25.472637V212.696517c0-14.00995 11.462687-25.472637 25.472637-25.472636s25.472637 11.462687 25.472636 25.472636v235.621891c0 14.00995-11.462687 25.472637-25.472636 25.472637z" fill="#181818" /><path d="M887.721393 355.343284H652.099502c-14.00995 0-25.472637-11.462687-25.472636-25.472637s11.462687-25.472637 25.472636-25.472637h235.621891c14.00995 0 25.472637 11.462687 25.472637 25.472637s-11.462687 25.472637-25.472637 25.472637zM280.199005 461.054726c-71.323383 0-129.910448-58.587065-129.910448-129.910447S208.875622 202.507463 280.199005 202.507463s129.910448 58.587065 129.910448 129.910447S351.522388 461.054726 280.199005 461.054726z m0-207.60199c-43.303483 0-78.965174 35.661692-78.965174 78.965174s35.661692 78.965174 78.965174 78.965175 78.965174-35.661692 78.965174-78.965175-35.661692-78.965174-78.965174-78.965174z" fill="#181818" /></svg>