<?xml version="1.0" standalone="no"?><!DOCTYPE svg PUBLIC "-//W3C//DTD SVG 1.1//EN" "http://www.w3.org/Graphics/SVG/1.1/DTD/svg11.dtd"><svg class="icon" width="48px" height="48.00px" viewBox="0 0 1024 1024" version="1.1" xmlns="http://www.w3.org/2000/svg"><path d="M855.607138 368.852677l-100.690707-176.206769V69.486277c0-27.1872-22.043569-49.230769-49.230769-49.230769H362.692923c-27.1872 0-49.230769 22.043569-49.230769 49.230769v121.434585l-115.975877 175.53723-0.070892 0.106339-0.212677 0.322954c-0.216615 0.326892-0.385969 0.673477-0.594708 1.004307-0.634092 1.012185-1.256369 2.028308-1.819569 3.083816-0.279631 0.527754-0.512 1.067323-0.771939 1.602954-0.445046 0.913723-0.890092 1.823508-1.276061 2.7648-0.279631 0.681354-0.504123 1.370585-0.752246 2.059815-0.291446 0.815262-0.594708 1.622646-0.84677 2.4576-0.252062 0.831015-0.441108 1.669908-0.645907 2.5088-0.173292 0.712862-0.366277 1.417846-0.508062 2.142523-0.196923 0.996431-0.326892 1.9968-0.456861 2.997169-0.078769 0.594708-0.185108 1.1776-0.244185 1.780185-0.114215 1.185477-0.1536 2.370954-0.177231 3.556431-0.011815 0.393846-0.063015 0.779815-0.063015 1.181538V955.592862c0 27.1872 22.039631 49.230769 49.230769 49.230769h575.015385c27.1872 0 49.230769-22.043569 49.230769-49.230769V394.027323v-0.070892-0.019693-0.063015-0.031508-0.031507a48.986585 48.986585 0 0 0-6.915939-24.958031z m-152.961969-69.226339l25.812677 45.170216h-55.658338l29.845661-45.170216zM411.923692 118.717046h244.5312v37.769846H411.923692v-37.769846z m-22.752492 136.231385h224.980677l-59.360492 89.848123H329.810708l59.360492-89.848123zM764.061538 906.362092H287.507692V443.258092h241.167754V821.169231c0 27.1872 22.043569 49.230769 49.230769 49.230769s49.230769-22.043569 49.23077-49.230769v-377.911139H764.061538v463.104z" fill="#594BC8" /></svg>