<?xml version="1.0" standalone="no"?><!DOCTYPE svg PUBLIC "-//W3C//DTD SVG 1.1//EN" "http://www.w3.org/Graphics/SVG/1.1/DTD/svg11.dtd"><svg class="icon" width="48px" height="48.00px" viewBox="0 0 1024 1024" version="1.1" xmlns="http://www.w3.org/2000/svg"><path d="M83.968 96.597333m170.666667 0l59.733333 0q170.666667 0 170.666667 170.666667l0 59.733333q0 170.666667-170.666667 170.666667l-59.733333 0q-170.666667 0-170.666667-170.666667l0-59.733333q0-170.666667 170.666667-170.666667Z" fill="#ffffff" /><path d="M538.624 96.597333m170.666667 0l59.733333 0q170.666667 0 170.666667 170.666667l0 59.733333q0 170.666667-170.666667 170.666667l-59.733333 0q-170.666667 0-170.666667-170.666667l0-59.733333q0-170.666667 170.666667-170.666667Z" fill="#ffffff" /><path d="M83.968 555.008m170.666667 0l59.733333 0q170.666667 0 170.666667 170.666667l0 59.733333q0 170.666667-170.666667 170.666667l-59.733333 0q-170.666667 0-170.666667-170.666667l0-59.733333q0-170.666667 170.666667-170.666667Z" fill="#ffffff" /><path d="M890.538667 688.469333h-302.762667a34.133333 34.133333 0 0 1 0-68.266666h302.762667a34.133333 34.133333 0 1 1 0 68.266666zM890.538667 891.221333h-302.762667a34.133333 34.133333 0 0 1 0-68.266666h302.762667a34.133333 34.133333 0 1 1 0 68.266666z" fill="#ffffff" /></svg>