<?xml version="1.0" standalone="no"?><!DOCTYPE svg PUBLIC "-//W3C//DTD SVG 1.1//EN" "http://www.w3.org/Graphics/SVG/1.1/DTD/svg11.dtd"><svg class="icon" width="48px" height="48.00px" viewBox="0 0 1024 1024" version="1.1" xmlns="http://www.w3.org/2000/svg"><path d="M99.669333 642.048a136.533333 136.533333 0 0 0 136.533334 136.533333h551.594666a136.533333 136.533333 0 0 0 136.533334-136.533333v-16.042667H99.669333zM787.797333 139.605333H236.202667a136.533333 136.533333 0 0 0-136.533334 136.533334v315.733333h824.661334V276.138667a136.533333 136.533333 0 0 0-136.533334-136.533334z" fill="#ffffff" /><path d="M512 879.274667a34.133333 34.133333 0 0 1-34.133333-34.133334v-75.434666a34.133333 34.133333 0 1 1 68.266666 0v75.434666a34.133333 34.133333 0 0 1-34.133333 34.133334z" fill="#ffffff" /><path d="M716.8 913.066667H307.2a34.133333 34.133333 0 0 1 0-68.266667h409.6a34.133333 34.133333 0 0 1 0 68.266667z" fill="#ffffff" /></svg>