<?xml version="1.0" standalone="no"?><!DOCTYPE svg PUBLIC "-//W3C//DTD SVG 1.1//EN" "http://www.w3.org/Graphics/SVG/1.1/DTD/svg11.dtd"><svg class="icon" width="48px" height="48.00px" viewBox="0 0 1024 1024" version="1.1" xmlns="http://www.w3.org/2000/svg"><path d="M651.264 296.618667a34.133333 34.133333 0 0 1-34.133333-34.133334 105.130667 105.130667 0 0 0-210.261334 0 34.133333 34.133333 0 0 1-34.133333 34.133334 34.133333 34.133333 0 0 1-34.133333-34.133334 173.397333 173.397333 0 0 1 346.794666 0 34.133333 34.133333 0 0 1-34.133333 34.133334z" fill="#ffffff" /><path d="M856.064 821.930667l-68.266667-494.250667a114.688 114.688 0 0 0-114.688-92.16h-324.266666a114.688 114.688 0 0 0-113.664 92.16l-68.266667 494.250667c-11.605333 85.333333 41.984 158.72 119.808 158.72h449.536c77.824 0 131.413333-73.386667 119.808-158.72z m-222.890667-232.448l-83.626666 83.626666a48.128 48.128 0 0 1-68.266667 0l-83.968-83.626666a83.626667 83.626667 0 1 1 118.101333-118.101334 81.237333 81.237333 0 0 1 85.333334-20.821333 83.968 83.968 0 0 1 32.426666 138.922667z" fill="#ffffff" /></svg>