<svg viewBox="0 0 400 400" xmlns:xlink="http://www.w3.org/1999/xlink" xmlns="http://www.w3.org/2000/svg" id="图层_1"><defs><style>.cls-1{fill:url(#未命名的渐变_23);}.cls-2{fill:url(#未命名的渐变_36);}.cls-3{fill:url(#未命名的渐变_36-2);}.cls-4{fill:url(#未命名的渐变_10);}.cls-5{fill:url(#未命名的渐变_10-2);}.cls-6{fill:url(#未命名的渐变_10-3);}.cls-7{fill:#f0e6e5;}.cls-8{fill:url(#未命名的渐变_27);}.cls-9{fill:url(#未命名的渐变_27-2);}.cls-10{fill:url(#未命名的渐变_27-3);}.cls-11{fill:url(#未命名的渐变_9);}.cls-12{fill:url(#未命名的渐变_9-2);}</style><linearGradient gradientUnits="userSpaceOnUse" y2="376.58" x2="200" y1="218.52" x1="200" id="未命名的渐变_23"><stop stop-color="#f8f1f0" offset="0"></stop><stop stop-color="#fdfbfb" offset="0.48"></stop><stop stop-color="#fff" offset="1"></stop></linearGradient><linearGradient gradientUnits="userSpaceOnUse" gradientTransform="translate(79.12 -161.63) rotate(-12.77)" y2="469" x2="110.97" y1="452.71" x1="110.97" id="未命名的渐变_36"><stop stop-color="#fdfbfa" offset="0"></stop><stop stop-color="#f8efef" offset="0.24"></stop><stop stop-color="#f3e2e2" offset="0.64"></stop><stop stop-color="#f1dede" offset="1"></stop></linearGradient><linearGradient xlink:href="#未命名的渐变_36" gradientTransform="translate(-282.87 314.85) rotate(23.16)" y2="-344.43" x2="314.43" y1="-369.31" x1="314.43" id="未命名的渐变_36-2"></linearGradient><linearGradient gradientUnits="userSpaceOnUse" y2="160.55" x2="76.45" y1="225.17" x1="85.86" id="未命名的渐变_10"><stop stop-opacity="0.2" stop-color="#fdfbfa" offset="0"></stop><stop stop-opacity="0.37" stop-color="#fcf7f6" offset="0.12"></stop><stop stop-opacity="0.56" stop-color="#faf3f2" offset="0.27"></stop><stop stop-opacity="0.72" stop-color="#f8f0ef" offset="0.43"></stop><stop stop-opacity="0.84" stop-color="#f7edec" offset="0.58"></stop><stop stop-opacity="0.93" stop-color="#f7eceb" offset="0.72"></stop><stop stop-opacity="0.98" stop-color="#f6eae9" offset="0.87"></stop><stop stop-color="#f6eae9" offset="1"></stop></linearGradient><linearGradient xlink:href="#未命名的渐变_10" y2="56.11" x2="261.96" y1="137.25" x1="273.77" id="未命名的渐变_10-2"></linearGradient><linearGradient xlink:href="#未命名的渐变_10" y2="197.75" x2="313.49" y1="231.25" x1="318.37" id="未命名的渐变_10-3"></linearGradient><linearGradient gradientUnits="userSpaceOnUse" y2="176.65" x2="250.27" y1="176.65" x1="150.51" id="未命名的渐变_27"><stop stop-color="#f0e0df" offset="0"></stop><stop stop-color="#f0dedd" offset="0.05"></stop><stop stop-color="#ecd2d0" offset="0.54"></stop><stop stop-color="#ebcecc" offset="1"></stop></linearGradient><linearGradient xlink:href="#未命名的渐变_27" y2="230.51" x2="196.22" y1="230.51" x1="141.1" id="未命名的渐变_27-2"></linearGradient><linearGradient xlink:href="#未命名的渐变_27" y2="230.51" x2="258.9" y1="230.51" x1="203.78" id="未命名的渐变_27-3"></linearGradient><linearGradient gradientUnits="userSpaceOnUse" y2="255.96" x2="124.6" y1="131.59" x1="199.09" id="未命名的渐变_9"><stop stop-opacity="0.3" stop-color="#fff" offset="0"></stop><stop stop-opacity="0.28" stop-color="#fff" offset="0.03"></stop><stop stop-opacity="0.16" stop-color="#fff" offset="0.29"></stop><stop stop-opacity="0.07" stop-color="#fff" offset="0.55"></stop><stop stop-opacity="0.02" stop-color="#fff" offset="0.79"></stop><stop stop-opacity="0" stop-color="#fff" offset="1"></stop></linearGradient><linearGradient xlink:href="#未命名的渐变_9" y2="256.69" x2="125.82" y1="132.32" x1="200.31" id="未命名的渐变_9-2"></linearGradient></defs><ellipse ry="78.92" rx="189.11" cy="300.54" cx="200" class="cls-1"></ellipse><circle r="8.15" cy="263.29" cx="289.24" class="cls-2"></circle><circle r="12.44" cy="109.62" cx="146.94" class="cls-3"></circle><path d="M111.39,191.35c-.23,0-.45,0-.68,0-3.31-9.51-15.29-16.55-29.58-16.55-15.3,0-28,8.08-30.15,18.61-8.64,2.24-14.74,7.71-14.74,14.09,0,8.39,10.52,15.19,23.5,15.19a30.93,30.93,0,0,0,16.66-4.48,40.76,40.76,0,0,0,4.73.27,39.41,39.41,0,0,0,16.68-3.57,21.73,21.73,0,0,0,13.58,4.45c10.29,0,18.63-6.27,18.63-14S121.68,191.35,111.39,191.35Z" class="cls-4"></path><path d="M305.84,94.78c-.29,0-.57,0-.86,0C300.83,82.88,285.78,74,267.84,74,248.62,74,232.71,84.19,230,97.41c-10.85,2.82-18.52,9.67-18.52,17.7,0,10.53,13.21,19.07,29.51,19.07,8.18,0,15.58-2.15,20.92-5.62a55.32,55.32,0,0,0,5.95.33,49.47,49.47,0,0,0,21-4.48,27.32,27.32,0,0,0,17,5.59c12.92,0,23.39-7.88,23.39-17.61S318.76,94.78,305.84,94.78Z" class="cls-5"></path><path d="M331.61,213.71l-.36,0c-1.71-4.93-7.93-8.58-15.33-8.58-7.94,0-14.51,4.19-15.64,9.65-4.48,1.16-7.64,4-7.64,7.31,0,4.34,5.45,7.87,12.18,7.87a16.07,16.07,0,0,0,8.64-2.32,22,22,0,0,0,2.46.14,20.42,20.42,0,0,0,8.65-1.85,11.26,11.26,0,0,0,7,2.31c5.33,0,9.65-3.26,9.65-7.28S336.94,213.71,331.61,213.71Z" class="cls-6"></path><ellipse ry="9.86" rx="43.74" cy="276.67" cx="200" class="cls-7"></ellipse><path d="M247.53,171.7l-44-24.9a5.88,5.88,0,0,0-6.23,0l-44,24.9a5.84,5.84,0,0,0,0,9.9l44,24.9a5.84,5.84,0,0,0,6.23,0l44-24.9A5.84,5.84,0,0,0,247.53,171.7Z" class="cls-8"></path><path d="M193.16,213.19,149.9,187a5.84,5.84,0,0,0-8.63,4.84l-.16,50.59a5.85,5.85,0,0,0,3,5.43l43.26,26.21a5.85,5.85,0,0,0,8.64-4.84l.16-50.59A5.86,5.86,0,0,0,193.16,213.19Z" class="cls-9"></path><path d="M258.73,191.82A5.84,5.84,0,0,0,250.1,187l-43.26,26.21a5.86,5.86,0,0,0-3.05,5.43l.16,50.59a5.85,5.85,0,0,0,8.64,4.84l43.26-26.21a5.85,5.85,0,0,0,3-5.43Z" class="cls-10"></path><path d="M141.27,191.82l-.16,50.59a5.85,5.85,0,0,0,3,5.43l3.64,2.2,30.42-45.91L149.9,187A5.84,5.84,0,0,0,141.27,191.82Z" class="cls-11"></path><path d="M203.5,146.8a5.88,5.88,0,0,0-6.23,0l-44,24.9a5.84,5.84,0,0,0,0,9.9l29,16.41,30.47-46Z" class="cls-12"></path></svg>