<svg viewBox="0 0 400 400" xmlns:xlink="http://www.w3.org/1999/xlink" xmlns="http://www.w3.org/2000/svg" id="图层_1"><defs><style>.cls-1{fill:url(#未命名的渐变_23);}.cls-2{fill:url(#未命名的渐变_36);}.cls-3{fill:url(#未命名的渐变_36-2);}.cls-4{fill:url(#未命名的渐变_10);}.cls-5{fill:url(#未命名的渐变_10-2);}.cls-6{fill:url(#未命名的渐变_10-3);}.cls-7{fill:#f0e6e5;}.cls-8{fill:url(#未命名的渐变_27);}.cls-9{fill:url(#未命名的渐变_9);}.cls-10{fill:url(#未命名的渐变_9-2);}.cls-11{fill:url(#未命名的渐变_9-3);}.cls-12{fill:url(#未命名的渐变_9-4);}</style><linearGradient gradientUnits="userSpaceOnUse" y2="376.58" x2="200" y1="218.52" x1="200" id="未命名的渐变_23"><stop stop-color="#f8f1f0" offset="0"></stop><stop stop-color="#fdfbfb" offset="0.48"></stop><stop stop-color="#fff" offset="1"></stop></linearGradient><linearGradient gradientUnits="userSpaceOnUse" gradientTransform="translate(188.59 -508.44) rotate(-12.77)" y2="798.32" x2="-64.09" y1="782.03" x1="-64.09" id="未命名的渐变_36"><stop stop-color="#fdfbfa" offset="0"></stop><stop stop-color="#f8efef" offset="0.24"></stop><stop stop-color="#f3e2e2" offset="0.64"></stop><stop stop-color="#f1dede" offset="1"></stop></linearGradient><linearGradient xlink:href="#未命名的渐变_36" gradientTransform="translate(-663.92 849.31) rotate(23.16)" y2="-945.49" x2="445.46" y1="-970.37" x1="445.46" id="未命名的渐变_36-2"></linearGradient><linearGradient gradientUnits="userSpaceOnUse" y2="157.71" x2="66.17" y1="222.33" x1="75.58" id="未命名的渐变_10"><stop stop-opacity="0.2" stop-color="#fdfbfa" offset="0"></stop><stop stop-opacity="0.37" stop-color="#fcf7f6" offset="0.12"></stop><stop stop-opacity="0.56" stop-color="#faf3f2" offset="0.27"></stop><stop stop-opacity="0.72" stop-color="#f8f0ef" offset="0.43"></stop><stop stop-opacity="0.84" stop-color="#f7edec" offset="0.58"></stop><stop stop-opacity="0.93" stop-color="#f7eceb" offset="0.72"></stop><stop stop-opacity="0.98" stop-color="#f6eae9" offset="0.87"></stop><stop stop-color="#f6eae9" offset="1"></stop></linearGradient><linearGradient xlink:href="#未命名的渐变_10" y2="52.76" x2="240.28" y1="133.9" x1="252.09" id="未命名的渐变_10-2"></linearGradient><linearGradient xlink:href="#未命名的渐变_10" y2="191.37" x2="313.49" y1="224.88" x1="318.37" id="未命名的渐变_10-3"></linearGradient><linearGradient gradientUnits="userSpaceOnUse" y2="268.36" x2="260.29" y1="162.56" x1="151.29" id="未命名的渐变_27"><stop stop-color="#f0e0df" offset="0"></stop><stop stop-color="#f0dedd" offset="0.05"></stop><stop stop-color="#ecd2d0" offset="0.54"></stop><stop stop-color="#ebcecc" offset="1"></stop></linearGradient><linearGradient gradientUnits="userSpaceOnUse" y2="266.65" x2="143.27" y1="141.28" x1="208.45" id="未命名的渐变_9"><stop stop-opacity="0.3" stop-color="#fff" offset="0"></stop><stop stop-opacity="0.28" stop-color="#fff" offset="0.03"></stop><stop stop-opacity="0.16" stop-color="#fff" offset="0.29"></stop><stop stop-opacity="0.07" stop-color="#fff" offset="0.55"></stop><stop stop-opacity="0.02" stop-color="#fff" offset="0.79"></stop><stop stop-opacity="0" stop-color="#fff" offset="1"></stop></linearGradient><linearGradient xlink:href="#未命名的渐变_9" y2="269.84" x2="149.41" y1="144.47" x1="214.59" id="未命名的渐变_9-2"></linearGradient><linearGradient xlink:href="#未命名的渐变_9" y2="265.61" x2="141.27" y1="140.24" x1="206.45" id="未命名的渐变_9-3"></linearGradient><linearGradient xlink:href="#未命名的渐变_9" y2="261.62" x2="133.6" y1="136.25" x1="198.77" id="未命名的渐变_9-4"></linearGradient></defs><ellipse ry="78.92" rx="189.11" cy="300.54" cx="200" class="cls-1"></ellipse><circle r="8.15" cy="276.35" cx="300.79" class="cls-2"></circle><circle r="12.44" cy="143.01" cx="122.8" class="cls-3"></circle><path d="M101.11,188.51l-.68,0C97.12,179,85.14,172,70.85,172c-15.3,0-28,8.08-30.15,18.61C32.06,192.84,26,198.31,26,204.69c0,8.39,10.52,15.19,23.5,15.19a30.93,30.93,0,0,0,16.66-4.48,43.1,43.1,0,0,0,4.73.27,39.41,39.41,0,0,0,16.68-3.57,21.73,21.73,0,0,0,13.58,4.45c10.29,0,18.63-6.28,18.63-14S111.4,188.51,101.11,188.51Z" class="cls-4"></path><path d="M284.16,91.43c-.29,0-.57,0-.86,0-4.15-11.93-19.2-20.77-37.14-20.77-19.22,0-35.12,10.14-37.86,23.36-10.85,2.82-18.51,9.68-18.51,17.7,0,10.53,13.21,19.07,29.51,19.07,8.17,0,15.57-2.15,20.91-5.62a52.86,52.86,0,0,0,5.95.33,49.59,49.59,0,0,0,21-4.47,27.34,27.34,0,0,0,17.05,5.59c12.92,0,23.39-7.89,23.39-17.61S297.08,91.43,284.16,91.43Z" class="cls-5"></path><path d="M331.61,207.34h-.36c-1.71-4.92-7.93-8.57-15.33-8.57-7.94,0-14.51,4.19-15.64,9.64-4.48,1.17-7.64,4-7.64,7.31,0,4.35,5.45,7.88,12.18,7.88a16.07,16.07,0,0,0,8.64-2.32c.8.08,1.62.13,2.46.13a20.42,20.42,0,0,0,8.65-1.85,11.26,11.26,0,0,0,7,2.31c5.33,0,9.65-3.25,9.65-7.27S336.94,207.34,331.61,207.34Z" class="cls-6"></path><ellipse ry="6.63" rx="57.43" cy="278.25" cx="208.29" class="cls-7"></ellipse><path d="M164.1,158.86h88.38a9.13,9.13,0,0,1,9.11,9.12v99.83a9.12,9.12,0,0,1-9.11,9.11H164.1a9.12,9.12,0,0,1-9.11-9.11V168a9.13,9.13,0,0,1,9.11-9.12Zm25.71-13.4h36.32a1.22,1.22,0,0,1,1.22,1.22V155a1.22,1.22,0,0,1-1.22,1.21H189.81a1.22,1.22,0,0,1-1.22-1.21v-8.36a1.22,1.22,0,0,1,1.22-1.22ZM171,172.3c-4,0-3.64-.38-3.64,3.65v84.33c0,4-.38,3.64,3.64,3.64h74c4,0,3.65.39,3.65-3.64V176c0-4,.38-3.65-3.65-3.65Zm69.79,7.29a.61.61,0,0,1,.61.61v20.22a.61.61,0,0,1-.61.61H175.23a.61.61,0,0,1-.61-.61V180.2a.61.61,0,0,1,.61-.61Zm-66.14,28.69a.62.62,0,0,1,.61-.61h65.53a.62.62,0,0,1,.61.61v20.88a.63.63,0,0,1-.61.61H175.23a.62.62,0,0,1-.61-.61Zm0,28.74a.61.61,0,0,1,.61-.61h65.53a.62.62,0,0,1,.61.61v19a.61.61,0,0,1-.61.61H175.23a.61.61,0,0,1-.61-.61Zm0,0" class="cls-8"></path><path d="M174.62,180.2v20.22a.61.61,0,0,0,.61.61h15.83l10.4-21.44H175.23A.61.61,0,0,0,174.62,180.2Z" class="cls-9"></path><path d="M175.23,207.67a.62.62,0,0,0-.61.61v20.88a.62.62,0,0,0,.61.61h1.89l10.71-22.1Z" class="cls-10"></path><path d="M188.59,146.68V155a1.22,1.22,0,0,0,1.22,1.21h23L218,145.46h-28.2A1.22,1.22,0,0,0,188.59,146.68Z" class="cls-11"></path><path d="M155,168v99.83a9,9,0,0,0,1.36,4.76l11-22.63V176c0-4-.38-3.65,3.64-3.65h34l6.52-13.44H164.1A9.13,9.13,0,0,0,155,168Z" class="cls-12"></path></svg>