<svg viewBox="0 0 400 400" xmlns:xlink="http://www.w3.org/1999/xlink" xmlns="http://www.w3.org/2000/svg" id="图层_1"><defs><style>.cls-1{fill:url(#未命名的渐变_23);}.cls-2{fill:url(#未命名的渐变_36);}.cls-3{fill:url(#未命名的渐变_36-2);}.cls-4{fill:url(#未命名的渐变_10);}.cls-5{fill:url(#未命名的渐变_10-2);}.cls-6{fill:url(#未命名的渐变_10-3);}.cls-7{fill:#f0e6e5;}.cls-8{fill:url(#未命名的渐变_27);}.cls-9{fill:url(#未命名的渐变_27-2);}.cls-10{fill:url(#未命名的渐变_27-3);}.cls-11{fill:url(#未命名的渐变_9);}.cls-12{fill:url(#未命名的渐变_9-2);}</style><linearGradient gradientUnits="userSpaceOnUse" y2="379.32" x2="200" y1="221.26" x1="200" id="未命名的渐变_23"><stop stop-color="#f8f1f0" offset="0"></stop><stop stop-color="#fdfbfb" offset="0.48"></stop><stop stop-color="#fff" offset="1"></stop></linearGradient><linearGradient gradientUnits="userSpaceOnUse" gradientTransform="translate(-64.43 -145.56) rotate(-12.77)" y2="495.49" x2="261.49" y1="479.2" x1="261.49" id="未命名的渐变_36"><stop stop-color="#fdfbfa" offset="0"></stop><stop stop-color="#f8efef" offset="0.24"></stop><stop stop-color="#f3e2e2" offset="0.64"></stop><stop stop-color="#f1dede" offset="1"></stop></linearGradient><linearGradient xlink:href="#未命名的渐变_36" gradientTransform="translate(-27.49 367.19) rotate(23.16)" y2="-259.58" x2="45" y1="-284.46" x1="45" id="未命名的渐变_36-2"></linearGradient><linearGradient gradientUnits="userSpaceOnUse" y2="166.5" x2="80.11" y1="231.11" x1="89.52" id="未命名的渐变_10"><stop stop-opacity="0.2" stop-color="#fdfbfa" offset="0"></stop><stop stop-opacity="0.37" stop-color="#fcf7f6" offset="0.12"></stop><stop stop-opacity="0.56" stop-color="#faf3f2" offset="0.27"></stop><stop stop-opacity="0.72" stop-color="#f8f0ef" offset="0.43"></stop><stop stop-opacity="0.84" stop-color="#f7edec" offset="0.58"></stop><stop stop-opacity="0.93" stop-color="#f7eceb" offset="0.72"></stop><stop stop-opacity="0.98" stop-color="#f6eae9" offset="0.87"></stop><stop stop-color="#f6eae9" offset="1"></stop></linearGradient><linearGradient xlink:href="#未命名的渐变_10" y2="70.03" x2="270.37" y1="162.63" x1="283.84" id="未命名的渐变_10-2"></linearGradient><linearGradient xlink:href="#未命名的渐变_10" y2="203.85" x2="311.04" y1="237.36" x1="315.92" id="未命名的渐变_10-3"></linearGradient><linearGradient gradientUnits="userSpaceOnUse" y2="223.67" x2="165.42" y1="223.67" x1="140.81" id="未命名的渐变_27"><stop stop-color="#f0e0df" offset="0"></stop><stop stop-color="#f0dedd" offset="0.05"></stop><stop stop-color="#ecd2d0" offset="0.54"></stop><stop stop-color="#ebcecc" offset="1"></stop></linearGradient><linearGradient xlink:href="#未命名的渐变_27" y2="205.21" x2="212.64" y1="205.21" x1="188.03" id="未命名的渐变_27-2"></linearGradient><linearGradient xlink:href="#未命名的渐变_27" y2="240.18" x2="259.19" y1="240.18" x1="234.58" id="未命名的渐变_27-3"></linearGradient><linearGradient gradientUnits="userSpaceOnUse" y2="272.92" x2="136.45" y1="126.16" x1="175.02" id="未命名的渐变_9"><stop stop-opacity="0.3" stop-color="#fff" offset="0"></stop><stop stop-opacity="0.28" stop-color="#fff" offset="0.03"></stop><stop stop-opacity="0.16" stop-color="#fff" offset="0.29"></stop><stop stop-opacity="0.07" stop-color="#fff" offset="0.55"></stop><stop stop-opacity="0.02" stop-color="#fff" offset="0.79"></stop><stop stop-opacity="0" stop-color="#fff" offset="1"></stop></linearGradient><linearGradient xlink:href="#未命名的渐变_9" y2="279.75" x2="162.44" y1="132.99" x1="201.01" id="未命名的渐变_9-2"></linearGradient></defs><ellipse ry="78.92" rx="189.11" cy="303.28" cx="200" class="cls-1"></ellipse><circle r="8.15" cy="271.91" cx="298.34" class="cls-2"></circle><circle r="12.44" cy="133.98" cx="121.23" class="cls-3"></circle><path d="M115.05,197.29c-.23,0-.45,0-.68,0-3.31-9.5-15.29-16.54-29.58-16.54-15.3,0-28,8.08-30.15,18.61-8.64,2.24-14.74,7.7-14.74,14.09,0,8.38,10.52,15.18,23.5,15.18a31,31,0,0,0,16.66-4.47,43.12,43.12,0,0,0,4.73.26,39.41,39.41,0,0,0,16.68-3.56,21.79,21.79,0,0,0,13.58,4.45c10.29,0,18.63-6.28,18.63-14S125.34,197.29,115.05,197.29Z" class="cls-4"></path><path d="M320.44,114.16c-.33,0-.65,0-1,0-4.73-13.62-21.91-23.71-42.39-23.71-21.93,0-40.08,11.58-43.2,26.67-12.39,3.21-21.14,11-21.14,20.2,0,12,15.08,21.76,33.68,21.76,9.33,0,17.78-2.45,23.88-6.41a62.89,62.89,0,0,0,6.78.37A56.58,56.58,0,0,0,301,148a31.23,31.23,0,0,0,19.46,6.37c14.74,0,26.69-9,26.69-20.09S335.18,114.16,320.44,114.16Z" class="cls-5"></path><path d="M329.16,219.82h-.36c-1.71-4.92-7.92-8.57-15.33-8.57-7.94,0-14.5,4.19-15.63,9.65-4.48,1.16-7.65,4-7.65,7.3,0,4.35,5.46,7.88,12.19,7.88a16.06,16.06,0,0,0,8.63-2.32,22,22,0,0,0,2.46.13,20.57,20.57,0,0,0,8.65-1.84,11.31,11.31,0,0,0,7,2.3c5.33,0,9.66-3.25,9.66-7.27S334.49,219.82,329.16,219.82Z" class="cls-6"></path><ellipse ry="7.09" rx="66.32" cy="273.45" cx="200" class="cls-7"></ellipse><path d="M160.42,175.43H145.81a5.15,5.15,0,0,0-5,5.29v85.91a5.14,5.14,0,0,0,5,5.28h14.61a5.14,5.14,0,0,0,5-5.28V180.72A5.15,5.15,0,0,0,160.42,175.43Z" class="cls-8"></path><path d="M207.64,138.52H193a5.14,5.14,0,0,0-5,5.28V266.63a5.14,5.14,0,0,0,5,5.28h14.61a5.14,5.14,0,0,0,5-5.28V143.8A5.14,5.14,0,0,0,207.64,138.52Z" class="cls-9"></path><path d="M254.19,208.45H239.58a5.15,5.15,0,0,0-5,5.28v52.9a5.14,5.14,0,0,0,5,5.28h14.61a5.14,5.14,0,0,0,5-5.28v-52.9A5.15,5.15,0,0,0,254.19,208.45Z" class="cls-10"></path><path d="M160.42,175.43H145.81a5.15,5.15,0,0,0-5,5.29v85.91a5.14,5.14,0,0,0,5,5.28h5.05l14.56-32.85V180.72A5.15,5.15,0,0,0,160.42,175.43Z" class="cls-11"></path><path d="M207.64,138.52H193a5.14,5.14,0,0,0-5,5.28v44.25l21.72-49A4.69,4.69,0,0,0,207.64,138.52Z" class="cls-12"></path></svg>