<svg viewBox="0 0 400 400" xmlns:xlink="http://www.w3.org/1999/xlink" xmlns="http://www.w3.org/2000/svg" id="图层_1"><defs><style>.cls-1{fill:url(#未命名的渐变_23);}.cls-2{fill:url(#未命名的渐变_36);}.cls-3{fill:url(#未命名的渐变_36-2);}.cls-4{fill:url(#未命名的渐变_10);}.cls-5{fill:url(#未命名的渐变_10-2);}.cls-6{fill:url(#未命名的渐变_10-3);}.cls-7{fill:#f0e6e5;}.cls-8{fill:url(#未命名的渐变_27);}.cls-9{fill:url(#未命名的渐变_27-2);}.cls-10{fill:#e8c2c1;}.cls-11{fill:#fff;}.cls-12{fill:url(#未命名的渐变_9);}.cls-13{fill:url(#未命名的渐变_9-2);}</style><linearGradient gradientUnits="userSpaceOnUse" y2="379.32" x2="200" y1="221.26" x1="200" id="未命名的渐变_23"><stop stop-color="#f8f1f0" offset="0"></stop><stop stop-color="#fdfbfb" offset="0.48"></stop><stop stop-color="#fff" offset="1"></stop></linearGradient><linearGradient gradientUnits="userSpaceOnUse" gradientTransform="translate(-76.72 -255.4) rotate(-12.77)" y2="591.12" x2="259.68" y1="574.83" x1="259.68" id="未命名的渐变_36"><stop stop-color="#fdfbfa" offset="0"></stop><stop stop-color="#f8efef" offset="0.24"></stop><stop stop-color="#f3e2e2" offset="0.64"></stop><stop stop-color="#f1dede" offset="1"></stop></linearGradient><linearGradient xlink:href="#未命名的渐变_36" gradientTransform="translate(-67.54 562.62) rotate(23.16)" y2="-464.75" x2="-3.91" y1="-489.63" x1="-3.91" id="未命名的渐变_36-2"></linearGradient><linearGradient gradientUnits="userSpaceOnUse" y2="165.17" x2="68.83" y1="229.78" x1="78.24" id="未命名的渐变_10"><stop stop-opacity="0.2" stop-color="#fdfbfa" offset="0"></stop><stop stop-opacity="0.37" stop-color="#fcf7f6" offset="0.12"></stop><stop stop-opacity="0.56" stop-color="#faf3f2" offset="0.27"></stop><stop stop-opacity="0.72" stop-color="#f8f0ef" offset="0.43"></stop><stop stop-opacity="0.84" stop-color="#f7edec" offset="0.58"></stop><stop stop-opacity="0.93" stop-color="#f7eceb" offset="0.72"></stop><stop stop-opacity="0.98" stop-color="#f6eae9" offset="0.87"></stop><stop stop-color="#f6eae9" offset="1"></stop></linearGradient><linearGradient xlink:href="#未命名的渐变_10" y2="85.84" x2="270.81" y1="167.37" x1="282.68" id="未命名的渐变_10-2"></linearGradient><linearGradient xlink:href="#未命名的渐变_10" y2="204.54" x2="310.16" y1="238.05" x1="315.04" id="未命名的渐变_10-3"></linearGradient><linearGradient gradientUnits="userSpaceOnUse" y2="174.82" x2="279.45" y1="174.82" x1="137.13" id="未命名的渐变_27"><stop stop-color="#f0e0df" offset="0"></stop><stop stop-color="#f0dedd" offset="0.05"></stop><stop stop-color="#ecd2d0" offset="0.54"></stop><stop stop-color="#ebcecc" offset="1"></stop></linearGradient><linearGradient xlink:href="#未命名的渐变_27" y2="227.58" x2="279.45" y1="227.58" x1="137.13" id="未命名的渐变_27-2"></linearGradient><linearGradient gradientUnits="userSpaceOnUse" y2="282.24" x2="123.78" y1="140.36" x1="193.84" id="未命名的渐变_9"><stop stop-opacity="0.3" stop-color="#fff" offset="0"></stop><stop stop-opacity="0.28" stop-color="#fff" offset="0.03"></stop><stop stop-opacity="0.16" stop-color="#fff" offset="0.29"></stop><stop stop-opacity="0.07" stop-color="#fff" offset="0.55"></stop><stop stop-opacity="0.02" stop-color="#fff" offset="0.79"></stop><stop stop-opacity="0" stop-color="#fff" offset="1"></stop></linearGradient><linearGradient xlink:href="#未命名的渐变_9" y2="283.77" x2="126.87" y1="141.88" x1="196.93" id="未命名的渐变_9-2"></linearGradient></defs><ellipse ry="78.92" rx="189.11" cy="303.28" cx="200" class="cls-1"></ellipse><circle r="8.15" cy="255.73" cx="305.43" class="cls-2"></circle><circle r="12.44" cy="121.54" cx="116.92" class="cls-3"></circle><path d="M103.77,196c-.23,0-.45,0-.68,0-3.31-9.5-15.29-16.54-29.58-16.54-15.3,0-28,8.08-30.15,18.61-8.64,2.24-14.74,7.7-14.74,14.09,0,8.38,10.52,15.18,23.5,15.18a31,31,0,0,0,16.66-4.47,43.12,43.12,0,0,0,4.73.26,39.41,39.41,0,0,0,16.68-3.56A21.79,21.79,0,0,0,103.77,224c10.29,0,18.63-6.28,18.63-14S114.06,196,103.77,196Z" class="cls-4"></path><path d="M316.15,124.66c-.3,0-.59,0-.89,0-4.32-11.93-20-20.78-38.65-20.78-20,0-36.55,10.15-39.4,23.37-11.29,2.82-19.27,9.68-19.27,17.7,0,10.53,13.75,19.07,30.71,19.07,8.51,0,16.21-2.15,21.77-5.62a57.09,57.09,0,0,0,6.19.33,53.41,53.41,0,0,0,21.8-4.47,29.18,29.18,0,0,0,17.74,5.58c13.44,0,24.34-7.88,24.34-17.61S329.59,124.66,316.15,124.66Z" class="cls-5"></path><path d="M328.28,220.51h-.35C326.21,215.6,320,212,312.59,212c-7.93,0-14.5,4.19-15.63,9.64-4.48,1.17-7.65,4-7.65,7.31,0,4.35,5.46,7.88,12.19,7.88a16.12,16.12,0,0,0,8.64-2.32c.8.08,1.62.13,2.45.13a20.36,20.36,0,0,0,8.65-1.85,11.26,11.26,0,0,0,7,2.31c5.34,0,9.66-3.25,9.66-7.27S333.62,220.51,328.28,220.51Z" class="cls-6"></path><ellipse ry="7.09" rx="78.93" cy="265.05" cx="208.29" class="cls-7"></ellipse><path d="M279.45,185.71V171.93a8,8,0,0,0-8-8H145.13a8,8,0,0,0-8,8v13.78Z" class="cls-8"></path><path d="M137.13,193.3v60.56a8,8,0,0,0,8,8H271.45a8,8,0,0,0,8-8V193.3Z" class="cls-9"></path><polygon points="222.19 252.41 229.3 252.41 236.26 233.4 229.15 233.4 222.19 252.41" class="cls-10"></polygon><polygon points="221.72 233.4 214.77 233.4 207.81 252.41 214.77 252.41 221.72 233.4" class="cls-10"></polygon><polygon points="243.68 233.4 236.72 252.41 260.83 252.41 267.79 233.4 243.68 233.4" class="cls-10"></polygon><polygon points="223.27 249.7 230.38 249.7 237.34 230.69 230.23 230.69 223.27 249.7" class="cls-11"></polygon><polygon points="222.81 230.69 215.85 230.69 208.9 249.7 215.85 249.7 222.81 230.69" class="cls-11"></polygon><polygon points="244.76 230.69 237.8 249.7 261.92 249.7 268.87 230.69 244.76 230.69" class="cls-11"></polygon><path d="M145.13,163.93a8,8,0,0,0-8,8v13.78h73.6c5.25-8.35,9.94-15.89,13.51-21.78Z" class="cls-12"></path><path d="M137.13,253.86a8,8,0,0,0,8,8h17c9-13.93,28-43.49,43.84-68.56H137.13Z" class="cls-13"></path></svg>