<svg xml:space="preserve" style="enable-background:new 0 0 1024 1024;" viewBox="0 0 1024 1024" y="0px" x="0px" xmlns:xlink="http://www.w3.org/1999/xlink" xmlns="http://www.w3.org/2000/svg" id="图层_1" version="1.1">
<style type="text/css">
	.st0{opacity:0.3;fill:#0F82F8;enable-background:new    ;}
	.st1{fill:url(#SVGID_1_);}
	.st2{fill:url(#SVGID_2_);}
	.st3{fill:url(#SVGID_3_);}
	.st4{fill:#FFFFFF;}
	.st5{fill:url(#SVGID_4_);}
	.st6{fill:url(#SVGID_5_);}
	.st7{fill:url(#SVGID_6_);}
	.st8{fill:#8BBDEA;}
	.st9{fill:#B6DCFF;}
	.st10{fill:#75ADFF;}
	.st11{fill:#5299FF;}
</style>
<path d="M440.2,477.6C605,390.5,850.7,463,868.1,494.3s-25.6,215.5-190.3,302.5s-388.9,44-406.3,12.8
	C254.1,778.3,275.5,564.7,440.2,477.6z" class="st0"></path>
<g>
	<g>
		<g>
			<linearGradient y2="517.183" x2="712.9153" y1="521.1407" x1="599.5833" gradientUnits="userSpaceOnUse" id="SVGID_1_">
				<stop style="stop-color:#1968F4" offset="0"></stop>
				<stop style="stop-color:#31A0F9" offset="1"></stop>
			</linearGradient>
			<polygon points="710.1,685.5 603.2,623.3 602.4,352.9 709.3,415" class="st1"></polygon>
		</g>
		<g>
			<linearGradient y2="351.5893" x2="821.16" y1="351.5893" x1="602.3841" gradientUnits="userSpaceOnUse" id="SVGID_2_">
				<stop style="stop-color:#81C1F9" offset="4.235351e-07"></stop>
				<stop style="stop-color:#7ABBF8" offset="5.255668e-02"></stop>
				<stop style="stop-color:#60A5F6" offset="0.2695"></stop>
				<stop style="stop-color:#4E95F5" offset="0.4949"></stop>
				<stop style="stop-color:#448CF4" offset="0.732"></stop>
				<stop style="stop-color:#4089F4" offset="1"></stop>
			</linearGradient>
			<polygon points="709.3,415 602.4,352.9 714.2,288.2 821.2,350.3" class="st2"></polygon>
		</g>
		<linearGradient y2="517.8864" x2="821.9267" y1="517.8864" x1="709.3478" gradientUnits="userSpaceOnUse" id="SVGID_3_">
			<stop style="stop-color:#6AB1F9" offset="2.014342e-03"></stop>
			<stop style="stop-color:#2B7CF4" offset="1"></stop>
		</linearGradient>
		<polygon points="821.2,350.3 821.9,620.7 710.1,685.5 709.3,415" class="st3"></polygon>
	</g>
	<g>
		<g>
			<g>
				<polygon points="757.5,434.9 757.7,460.2 739.3,470.8 739.2,445.5" class="st4"></polygon>
			</g>
			<g>
				<polygon points="793.9,413.1 794,438.4 775.7,449 775.5,423.7" class="st4"></polygon>
			</g>
		</g>
		<g>
			<g>
				<polygon points="757.5,486.9 757.7,512.2 739.3,522.8 739.2,497.5" class="st4"></polygon>
			</g>
			<g>
				<polygon points="793.9,465.2 794,490.4 775.7,501 775.5,475.8" class="st4"></polygon>
			</g>
		</g>
		<g>
			<g>
				<polygon points="757.5,538.9 757.7,564.2 739.3,574.8 739.2,549.5" class="st4"></polygon>
			</g>
			<g>
				<polygon points="793.9,517.2 794,542.4 775.7,553 775.5,527.8" class="st4"></polygon>
			</g>
		</g>
		<g>
			<g>
				<polygon points="757.5,590.9 757.7,616.2 739.3,626.8 739.2,601.5" class="st4"></polygon>
			</g>
			<g>
				<polygon points="793.9,569.2 794,594.4 775.7,605 775.5,579.8" class="st4"></polygon>
			</g>
		</g>
	</g>
</g>
<g>
	<g>
		<g>
			<linearGradient y2="412.2523" x2="567.8248" y1="615.1418" x1="278.0686" gradientUnits="userSpaceOnUse" id="SVGID_4_">
				<stop style="stop-color:#1968F4" offset="0"></stop>
				<stop style="stop-color:#31A0F9" offset="1"></stop>
			</linearGradient>
			<polygon points="515.2,798.6 332,692.1 330.7,228.8 513.9,335.3" class="st5"></polygon>
		</g>
		<g>
			<linearGradient y2="230.4416" x2="692.6025" y1="230.4416" x1="330.6561" gradientUnits="userSpaceOnUse" id="SVGID_5_">
				<stop style="stop-color:#81C1F9" offset="4.235351e-07"></stop>
				<stop style="stop-color:#7ABBF8" offset="5.255668e-02"></stop>
				<stop style="stop-color:#60A5F6" offset="0.2695"></stop>
				<stop style="stop-color:#4E95F5" offset="0.4949"></stop>
				<stop style="stop-color:#448CF4" offset="0.732"></stop>
				<stop style="stop-color:#4089F4" offset="1"></stop>
			</linearGradient>
			<polygon points="513.9,335.3 330.7,228.8 509.3,125.6 692.6,232.1" class="st6"></polygon>
		</g>
		<linearGradient y2="515.3686" x2="693.9161" y1="515.3686" x1="513.9237" gradientUnits="userSpaceOnUse" id="SVGID_6_">
			<stop style="stop-color:#6AB1F9" offset="2.014342e-03"></stop>
			<stop style="stop-color:#2B7CF4" offset="1"></stop>
		</linearGradient>
		<polygon points="692.6,232.1 693.9,695.5 515.2,798.6 513.9,335.3" class="st7"></polygon>
	</g>
	<g>
		<g>
			<polygon points="516.8,287.4 419.6,230.9 418.9,209.5 516.1,266" class="st8"></polygon>
		</g>
		<g>
			<polygon points="516.1,266 418.9,209.5 513.7,154.8 610.9,211.3" class="st4"></polygon>
		</g>
		<polygon points="610.9,211.3 611.6,232.6 516.8,287.4 516.1,266" class="st9"></polygon>
	</g>
	<g>
		<polygon points="665.7,316.8 666,340.7 547.3,409.2 547,385.3" class="st4"></polygon>
		<polygon points="665.7,394.8 666,418.7 547.3,487.3 547,463.3" class="st4"></polygon>
		<polygon points="665.7,472.8 666,496.7 547.3,565.3 547,541.3" class="st4"></polygon>
		<polygon points="665.7,550.8 666,574.7 547.3,643.3 547,619.3" class="st4"></polygon>
		<polygon points="665.7,628.8 666,652.8 547.3,721.3 547,697.4" class="st4"></polygon>
	</g>
</g>
<g>
	<ellipse ry="11.2" rx="31.6" cy="755.6" cx="355.1" class="st0"></ellipse>
	<path d="M357.6,755.8c-24.9,4.1-86.4-166.2-60.8-182.4c11.1-7,37,16.1,46.9,26.6C395.5,655.1,375.5,752.8,357.6,755.8
		z" class="st10"></path>
	<path d="M360.1,755.8c9.8-13.6-67-95.3-82.3-86.1c-7.6,4.6-0.7,31.8,10.1,49.4C309.1,753.3,354,764.3,360.1,755.8z" class="st11"></path>
	<path d="M306.3,591.1c8.2,12.2,15.6,24.9,22.4,38c6.7,13.1,12.8,26.5,18,40.3c2.6,6.9,4.9,13.9,7,21
		c2,7.1,3.7,14.3,5,21.5c1.2,7.3,2.1,14.6,2.4,22s0,14.7-0.9,22h-0.1c0.6-7.3,0.6-14.7,0.1-22s-1.5-14.6-2.8-21.8
		c-2.6-14.4-6.7-28.5-11.7-42.3s-10.9-27.2-17.6-40.3c-6.6-13.1-13.8-25.9-21.9-38.2L306.3,591.1z" class="st4"></path>
	<path d="M290.7,691.8c2.2,3.2,4.5,6.4,6.8,9.6c2.3,3.2,4.7,6.3,7.1,9.4c4.9,6.2,9.9,12.2,15.3,17.9
		c2.7,2.9,5.4,5.7,8.3,8.3c2.9,2.7,5.8,5.2,8.9,7.6c3.1,2.4,6.3,4.6,9.7,6.5c3.4,2,7,3.6,10.8,4.6c-7.7-1.7-14.7-5.8-21.1-10.4
		c-6.3-4.7-12.1-10.2-17.5-15.9c-5.3-5.8-10.4-11.8-15.1-18.1C299.2,705.1,294.7,698.6,290.7,691.8z" class="st4"></path>
</g>
</svg>
