<?xml version="1.0" standalone="no"?><!DOCTYPE svg PUBLIC "-//W3C//DTD SVG 1.1//EN" "http://www.w3.org/Graphics/SVG/1.1/DTD/svg11.dtd"><svg class="icon" width="48px" height="48.00px" viewBox="0 0 1024 1024" version="1.1" xmlns="http://www.w3.org/2000/svg"><path d="M770.952533 579.8912l66.986667-28.484267 0.341333 241.271467h37.9392s24.951467 0.9216 24.951467 26.0096v46.301867s-1.297067 24.9344-26.5728 24.9344H398.933333l313.480534-174.1824s22.306133-16.247467 30.481066-35.362134c8.123733-19.063467 28.0576-100.488533 28.0576-100.488533z" fill="#257AE7" /><path d="M738.167467 119.466667H299.6224a100.113067 100.113067 0 0 0-100.113067 100.113066v573.098667H163.191467c-14.711467 0-26.658133 11.946667-26.658134 26.6752v43.861333c0 14.728533 11.946667 26.6752 26.658134 26.6752H417.28a748.066133 748.066133 0 0 0 421.000533-328.977066V219.648A100.130133 100.130133 0 0 0 738.167467 119.466667z" fill="#5195EC" /><path d="M766.805333 123.665067A99.464533 99.464533 0 0 0 738.1504 119.466667H299.6224a100.113067 100.113067 0 0 0-100.113067 100.113066v493.2608c284.433067-64.5632 512-293.2224 567.296-589.175466z" fill="#7CAFF0" /><path d="M514.628267 119.466667H299.6224a100.113067 100.113067 0 0 0-100.113067 100.113066v217.856A734.037333 734.037333 0 0 0 514.628267 119.466667z" fill="#A9CAF6" /><path d="M470.562133 678.280533a35.2768 35.2768 0 0 1-35.259733 35.2768h-98.2528a35.2768 35.2768 0 0 1-35.2768-35.2768V580.096c0-19.490133 15.8208-35.259733 35.2768-35.259733h98.2016c19.490133 0 35.259733 15.8208 35.259733 35.259733v98.2016h0.0512z m0-245.0944a35.2768 35.2768 0 0 1-35.259733 35.259734h-98.2528a35.2768 35.2768 0 0 1-35.2768-35.259734v-98.2016c0-19.490133 15.8208-35.259733 35.2768-35.259733h98.2016c19.490133 0 35.259733 15.803733 35.259733 35.259733v98.2016h0.0512z m265.506134 245.0944a35.2768 35.2768 0 0 1-35.2768 35.2768h-98.235734a35.2768 35.2768 0 0 1-35.2768-35.2768V580.096c0-19.490133 15.8208-35.259733 35.2768-35.259733h98.2016c19.490133 0 35.259733 15.8208 35.259734 35.259733v98.2016h0.0512z m0-245.0944a35.2768 35.2768 0 0 1-35.2768 35.259734h-98.235734a35.2768 35.2768 0 0 1-35.2768-35.259734v-98.2016c0-19.490133 15.8208-35.259733 35.2768-35.259733h98.2016c19.490133 0 35.259733 15.803733 35.259734 35.259733v98.2016h0.0512z" fill="#FFFFFF" /></svg>