<?xml version="1.0" standalone="no"?><!DOCTYPE svg PUBLIC "-//W3C//DTD SVG 1.1//EN" "http://www.w3.org/Graphics/SVG/1.1/DTD/svg11.dtd"><svg class="icon" width="48px" height="48.00px" viewBox="0 0 1024 1024" version="1.1" xmlns="http://www.w3.org/2000/svg"><path d="M850.341647 844.453647H182.543059A84.690824 84.690824 0 0 1 97.882353 759.777882V265.366588A84.690824 84.690824 0 0 1 182.543059 180.705882h667.798588a84.690824 84.690824 0 0 1 84.660706 84.660706v494.411294a84.630588 84.630588 0 0 1-84.660706 84.675765z" fill="#257AE7" /><path d="M856.033882 180.705882H176.911059A79.013647 79.013647 0 0 0 97.882353 259.734588v505.73553c0 43.670588 35.373176 79.028706 79.028706 79.028706h446.704941c161.28-121.042824 277.278118-302.336 311.446588-516.141177v-68.623059A79.073882 79.073882 0 0 0 856.033882 180.705882z" fill="#5195EC" /><path d="M753.724235 180.705882H176.911059A79.013647 79.013647 0 0 0 97.882353 259.734588v505.73553c0 5.300706 0.527059 10.405647 1.536 15.420235C413.033412 731.166118 675.177412 497.739294 753.724235 180.705882z" fill="#7CAFF0" /><path d="M469.082353 180.705882H176.911059A79.013647 79.013647 0 0 0 97.882353 259.734588v234.872471A792.801882 792.801882 0 0 0 469.082353 180.705882z" fill="#A9CAF6" /><path d="M381.620706 505.675294h-138.390588a35.990588 35.990588 0 1 1 0-71.981176h138.330353a35.990588 35.990588 0 0 1 0.060235 71.981176zM97.882353 315.120941h837.180235v71.936H97.882353v-71.936z" fill="#F7F8F8" /></svg>