<?xml version="1.0" standalone="no"?><!DOCTYPE svg PUBLIC "-//W3C//DTD SVG 1.1//EN" "http://www.w3.org/Graphics/SVG/1.1/DTD/svg11.dtd"><svg class="icon" width="48px" height="48.00px" viewBox="0 0 1024 1024" version="1.1" xmlns="http://www.w3.org/2000/svg"><path d="M192.5632 453.256533l92.142933-213.5552h456.925867l96.392533 219.630934z" fill="#FFFFFF" /><path d="M878.353067 443.5968l-90.4192-208.725333a73.847467 73.847467 0 0 0-67.805867-44.544h-113.834667V142.7456c0-12.8512-10.410667-23.278933-23.261866-23.278933h-130.218667c-12.8512 0-23.278933 10.410667-23.278933 23.278933v47.581867h-118.9888a73.557333 73.557333 0 0 0-68.608 46.455466L159.880533 441.787733A92.3136 92.3136 0 0 0 85.333333 532.343467v198.929066a40.823467 40.823467 0 0 0 40.8064 40.823467h29.815467v78.216533a64.4096 64.4096 0 1 0 128.853333 0V772.096H749.738667v78.216533a64.4096 64.4096 0 1 0 128.836266 0V772.096h26.146134a40.823467 40.823467 0 0 0 40.789333-40.823467V532.343467a92.3648 92.3648 0 0 0-67.1744-88.746667z m-645.307734-3.4816l71.338667-178.295467a6.587733 6.587733 0 0 1 6.161067-4.1472h409.531733c2.628267 0 5.0176 1.570133 6.126933 4.010667l77.312 178.4832H233.045333v-0.0512z" fill="#257AE7" /><path d="M878.353067 443.5968l-90.4192-208.725333a73.847467 73.847467 0 0 0-67.805867-44.544h-113.834667V142.7456c0-12.8512-10.410667-23.278933-23.261866-23.278933h-130.218667c-12.8512 0-23.278933 10.410667-23.278933 23.278933v47.581867h-118.9888a73.557333 73.557333 0 0 0-68.608 46.455466L159.880533 441.787733A92.3136 92.3136 0 0 0 85.333333 532.343467v198.929066a40.823467 40.823467 0 0 0 40.8064 40.823467h29.815467v78.216533a64.4096 64.4096 0 1 0 128.853333 0V772.096h400.4864a728.200533 728.200533 0 0 0 206.813867-323.3792 91.272533 91.272533 0 0 0-13.755733-5.12z m-645.307734-3.4816l71.338667-178.295467a6.587733 6.587733 0 0 1 6.161067-4.1472h409.531733c2.628267 0 5.0176 1.570133 6.126933 4.010667l77.312 178.4832H233.045333v-0.0512z" fill="#5195EC" /><path d="M304.4352 261.819733a6.587733 6.587733 0 0 1 6.161067-4.1472h408.6272a733.354667 733.354667 0 0 0 17.629866-65.3312 74.478933 74.478933 0 0 0-16.725333-1.911466h-113.834667V142.830933c0-12.8512-10.410667-23.261867-23.261866-23.261866h-130.218667c-12.8512 0-23.278933 10.410667-23.278933 23.261866v47.598934h-118.9888a73.557333 73.557333 0 0 0-68.608 46.455466L159.880533 441.890133A92.3136 92.3136 0 0 0 85.333333 532.445867v198.929066c0 11.264 4.590933 21.504 11.997867 28.859734 219.1872-21.981867 413.832533-142.216533 533.2992-320.119467H233.045333l71.389867-178.295467z" fill="#7CAFF0" /><path d="M297.745067 440.1152h-64.699734l71.338667-178.295467a6.587733 6.587733 0 0 1 6.161067-4.1472h160.853333a713.864533 713.864533 0 0 0 71.0656-138.103466h-89.6512c-12.8512 0-23.278933 10.410667-23.278933 23.261866v47.598934h-118.9888a73.557333 73.557333 0 0 0-68.608 46.455466L159.880533 441.890133A92.3136 92.3136 0 0 0 85.333333 532.445867v15.138133a719.906133 719.906133 0 0 0 212.411734-107.4688z" fill="#A9CAF6" /><path d="M150.9888 570.538667a61.5424 61.5424 0 1 0 123.101867 0 61.5424 61.5424 0 0 0-123.101867 0zM754.926933 568.4736a59.221333 59.221333 0 1 0 118.408534 0 59.221333 59.221333 0 0 0-118.408534 0z" fill="#FFFFFF" /></svg>