<?xml version="1.0" standalone="no"?><!DOCTYPE svg PUBLIC "-//W3C//DTD SVG 1.1//EN" "http://www.w3.org/Graphics/SVG/1.1/DTD/svg11.dtd"><svg class="icon" width="48px" height="48.00px" viewBox="0 0 1024 1024" version="1.1" xmlns="http://www.w3.org/2000/svg"><path d="M97.882353 223.864471c0 42.300235 60.355765 81.377882 158.328471 102.535529 97.957647 21.142588 218.669176 21.142588 316.641882 0 97.972706-21.157647 158.313412-60.235294 158.313412-102.550588 0-65.385412-141.763765-118.392471-316.641883-118.392471-174.878118 0-316.641882 53.007059-316.641882 118.40753z" fill="#5195EC" /><path d="M729.539765 211.666824C713.246118 152.003765 578.409412 105.411765 414.524235 105.411765 239.646118 105.411765 97.882353 158.418824 97.882353 223.804235c0 65.400471 141.763765 118.407529 316.641882 118.40753 127.503059 0 237.372235-28.190118 287.548236-68.818824a816.564706 816.564706 0 0 0 27.467294-61.726117z" fill="#7CAFF0" /><path d="M414.524235 105.456941c-174.878118 0-316.641882 53.007059-316.641882 118.40753 0 45.191529 67.764706 84.48 167.303529 104.417882A820.901647 820.901647 0 0 0 462.471529 106.812235c-15.661176-0.918588-31.653647-1.355294-47.947294-1.355294z" fill="#A9CAF6" /><path d="M414.524235 490.616471c161.430588 0 281.856-46.832941 316.641883-97.28v-120.71153c0 65.385412-141.763765 118.392471-316.641883 118.392471-174.878118 0-316.641882-53.007059-316.641882-118.392471v120.666353c34.785882 50.447059 155.211294 97.340235 316.641882 97.340235z" fill="#5195EC" /><path d="M97.882353 272.624941v120.666353c34.846118 50.447059 155.211294 97.28 316.641882 97.28 53.594353 0 102.640941-5.195294 145.573647-13.914353a834.846118 834.846118 0 0 0 100.773647-129.671529c-58.066824 26.834824-146.793412 44.032-246.347294 44.032C239.646118 391.077647 97.882353 338.070588 97.882353 272.624941z" fill="#7CAFF0" /><path d="M97.882353 272.624941v120.666353c5.722353 8.327529 13.884235 16.519529 24.094118 24.470588a822.528 822.528 0 0 0 92.852705-53.293176C143.465412 342.829176 97.882353 309.729882 97.882353 272.624941z" fill="#A9CAF6" /><path d="M716.619294 475.934118c-120.425412 0-218.006588 97.626353-218.006588 218.006588 0 120.410353 97.626353 217.991529 218.006588 217.991529 120.425412 0 218.006588-97.626353 218.006588-217.991529 0-120.380235-97.581176-218.006588-218.006588-218.006588z m-2.800941 325.993411s-69.918118-84.434824-114.868706-107.264c71.258353-39.469176 113.769412-111.420235 113.769412-111.420235 11.610353 26.895059 71.032471 87.898353 108.423529 109.342118-69.255529 46.351059-107.324235 109.327059-107.324235 109.327059z" fill="#257AE7" /><path d="M716.619294 475.934118c-120.425412 0-218.006588 97.626353-218.006588 218.006588 0 54.497882 20.043294 104.327529 53.157647 142.531765a836.562824 836.562824 0 0 0 119.024941-82.251295c-22.648471-23.280941-50.115765-48.579765-71.80047-59.617882 71.273412-39.454118 113.769412-111.405176 113.769411-111.405176 7.137882 16.564706 32.481882 46.08 59.557647 71.318588a829.093647 829.093647 0 0 0 88.244706-124.280471 217.208471 217.208471 0 0 0-143.947294-54.302117zM458.902588 686.366118c-14.546824 0.722824-29.289412 1.159529-44.378353 1.159529-136.176941 0-251.015529-30.509176-316.641882-78.456471v64.813177c0 65.400471 141.763765 118.407529 316.641882 118.407529a835.614118 835.614118 0 0 0 64-2.409411c-13.688471-38.4-19.275294-72.914824-19.621647-103.514353z" fill="#5195EC" /><path d="M97.882353 609.129412v64.813176c0 16.323765 8.869647 31.894588 24.862118 46.064941a826.142118 826.142118 0 0 0 147.742117-44.875294c-72.086588-13.251765-131.84-36.276706-172.604235-66.002823z" fill="#7CAFF0" /><path d="M510.765176 534.046118a842.134588 842.134588 0 0 1-96.225882 5.345882c-136.192 0-251.030588-30.494118-316.656941-78.456471v80.489412c34.846118 50.447059 155.211294 97.28 316.641882 97.28 16.670118 0 32.918588-0.527059 48.670118-1.490823a232.448 232.448 0 0 1 47.570823-103.168z" fill="#5195EC" /><path d="M414.524235 539.407059c-136.176941 0-251.015529-30.509176-316.641882-78.456471v80.474353c30.162824 43.700706 124.566588 84.660706 254.238118 94.870588a835.719529 835.719529 0 0 0 146.447058-101.044705c-26.895059 2.710588-54.934588 4.141176-84.028235 4.141176z" fill="#7CAFF0" /><path d="M716.619294 879.841882c-101.436235 0-183.928471-82.492235-183.92847-183.92847 0-101.436235 82.492235-183.943529 183.92847-183.94353 101.436235 0 183.928471 82.507294 183.928471 183.94353s-82.492235 183.928471-183.928471 183.92847z m0-346.322823c-89.539765 0-162.394353 72.854588-162.394353 162.394353 0 89.524706 72.854588 162.394353 162.394353 162.394353 89.539765 0 162.394353-72.869647 162.394353-162.394353-0.045176-89.539765-72.854588-162.394353-162.394353-162.394353z" fill="#F7F8F8" /></svg>