<?xml version="1.0" standalone="no"?><!DOCTYPE svg PUBLIC "-//W3C//DTD SVG 1.1//EN" "http://www.w3.org/Graphics/SVG/1.1/DTD/svg11.dtd"><svg class="icon" width="48px" height="48.00px" viewBox="0 0 1024 1024" version="1.1" xmlns="http://www.w3.org/2000/svg"><path d="M451.191467 102.4a778.888533 778.888533 0 0 1-86.016 92.672h-62.805334a35.106133 35.106133 0 0 0-35.498666 34.304v42.325333a760.9344 760.9344 0 0 1-95.061334 53.76V153.6c0-28.330667 23.381333-51.2 52.224-51.2h227.157334z" fill="#A9CAF6" /><path d="M694.050133 153.6v124.416a944.1792 944.1792 0 0 1-94.549333 112.128v-160.768c0-9.216-3.925333-18.090667-10.752-24.576-6.656-6.314667-15.872-9.898667-25.2416-9.728H365.175467A779.042133 779.042133 0 0 0 451.208533 102.4h190.6176c28.842667 0 52.224 22.869333 52.224 51.2M541.4912 443.904a929.553067 929.553067 0 0 1-369.664 193.194667V325.461333c32.938667-15.701333 64.853333-33.621333 95.044267-53.76V409.6c0.512 18.602667 15.36 33.621333 33.962666 34.304h240.64z" fill="#7CAFF0" /><path d="M599.5008 390.144a912.964267 912.964267 0 0 1-58.0096 53.76H300.834133a35.2768 35.2768 0 0 1-33.962666-34.304v-137.898667c34.816-22.869333 67.754667-48.64 98.321066-76.629333h198.314667c9.3696-0.170667 18.5856 3.413333 25.2416 9.728 6.843733 6.485333 10.752 15.36 10.752 24.576v160.768z" fill="#3A78F3" /><path d="M794.914133 416.768v147.285333a999.867733 999.867733 0 0 1-49.664 51.541334V432.64a13.9264 13.9264 0 0 0-13.994666-12.8h-37.205334v242.346667c-157.525333 134.485333-354.645333 223.744-571.562666 247.978666-1.536-2.56-2.56-5.461333-2.901334-8.533333V870.4c-0.682667-6.144 1.536-12.117333 5.632-16.554667 4.266667-4.608 10.069333-6.997333 16.384-6.997333h30.208V637.098667a929.3312 929.3312 0 0 0 369.664-193.194667h20.48c9.386667 0.170667 18.432-3.413333 25.258667-9.898667 6.826667-6.314667 10.581333-15.189333 10.752-24.405333h1.536v-19.456c34.304-34.816 65.877333-72.192 94.549333-112.128v92.16h61.098667c36.181333 2.048 39.765333 15.872 39.765333 46.592" fill="#5195EC" /><path d="M745.762133 870.4v29.184c-0.341333 11.946667-9.898667 21.504-21.845333 22.016H141.602133c-8.192-0.341333-15.36-4.778667-19.114666-11.434667 216.917333-24.234667 414.037333-113.493333 571.562666-247.978666v187.221333h29.866667c11.776-0.170667 21.504 9.216 21.845333 20.992" fill="#257AE7" /><path d="M902.946133 280.576v141.141333a1050.999467 1050.999467 0 0 1-53.76 76.970667v-157.184a5.6832 5.6832 0 0 0-5.632-4.608h-66.901333c-1.536 0-5.290667-1.024-5.290667-4.096v-16.896a7.048533 7.048533 0 0 1 0-4.608c13.141333-13.824 33.962667-29.696 47.104-45.056-13.141333-18.432-40.277333-40.448-52.224-51.2-4.949333-4.437333-7.509333-10.581333-7.509333-17.237333 0-6.485333 2.56-12.629333 7.509333-17.066667 10.581333-9.898667 26.965333-9.898667 37.546667 0 14.165333 13.312 59.562667 52.224 86.186667 75.264 7.850667 5.802667 12.629333 14.848 12.970666 24.576" fill="#5195EC" /><path d="M884.002133 819.541333a74.632533 74.632533 0 0 1-59.392 23.210667 78.626133 78.626133 0 0 1-59.221333-24.234667 75.2128 75.2128 0 0 1-20.138667-59.733333v-143.189333c17.066667-16.554667 33.621333-33.621333 49.664-51.541334v192.170667c-1.024 7.68 1.365333 15.530667 6.656 21.333333 5.461333 5.802667 13.141333 9.045333 20.992 8.874667 13.653333 0 26.624-7.168 26.624-30.208V498.688a1047.6544 1047.6544 0 0 0 53.76-76.970667v338.090667a71.4752 71.4752 0 0 1-18.944 59.733333" fill="#257AE7" /><path d="M365.175467 195.072a778.717867 778.717867 0 0 1-98.304 76.629333v-42.325333a35.106133 35.106133 0 0 1 35.498666-34.304h62.805334zM599.5008 390.144V409.6h-1.536c-0.170667 9.216-3.908267 18.090667-10.752 24.405333-6.826667 6.485333-15.854933 10.069333-25.258667 9.898667h-20.462933c20.1216-17.066667 39.406933-34.986667 58.0096-53.76" fill="#FFFFFF" /><path d="M599.5008 229.376v160.768a912.964267 912.964267 0 0 1-58.0096 53.76H300.834133a35.2768 35.2768 0 0 1-33.962666-34.304v-137.898667a778.359467 778.359467 0 0 0 98.321066-76.629333h198.314667a35.874133 35.874133 0 0 1 25.2416 9.728c6.843733 6.485333 10.752 15.36 10.752 24.576" fill="#FFFFFF" /></svg>