<?xml version="1.0" standalone="no"?><!DOCTYPE svg PUBLIC "-//W3C//DTD SVG 1.1//EN" "http://www.w3.org/Graphics/SVG/1.1/DTD/svg11.dtd"><svg class="icon" width="48px" height="48.00px" viewBox="0 0 1024 1024" version="1.1" xmlns="http://www.w3.org/2000/svg"><path d="M939.279059 292.954353s6.309647 11.806118 6.068706 28.099765c-0.240941 16.293647 0 138.209882 0 138.209882s1.731765 20.088471-20.781177 30.057412c-13.251765 5.978353-49.287529 25.012706-53.383529 74.209882-1.882353 40.583529 19.034353 63.608471 30.208 72.237177 11.188706 8.628706 14.516706 10.646588 23.943529 14.848 9.456941 4.186353 19.907765 12.724706 19.907765 30.403764v137.577412s-0.180706 63.081412-65.385412 68.668235H515.358118" fill="#257AE7" /><path d="M876.574118 252.295529h-7.378824v-29.967058a56.621176 56.621176 0 0 0-56.621176-56.621177H215.597176a56.621176 56.621176 0 0 0-56.621176 56.621177v29.967058h-7.378824A68.773647 68.773647 0 0 0 82.823529 321.054118v137.291294c0 13.296941 8.673882 24.711529 21.157647 29.244235a87.446588 87.446588 0 0 1 54.979765 61.349647v41.682824a87.642353 87.642353 0 0 1-54.979765 61.334588c-12.483765 4.532706-21.157647 15.962353-21.157647 29.259294v137.291294a68.773647 68.773647 0 0 0 68.758589 68.758588h380.79247c222.674824-108.815059 384.301176-328.493176 406.844236-593.392941 0.060235-0.331294 0.060235-0.617412 0.060235-0.963765a68.743529 68.743529 0 0 0-62.704941-40.613647z" fill="#5195EC" /><path d="M103.981176 651.956706c-12.483765 4.532706-21.157647 15.962353-21.157647 29.259294v93.665882C405.202824 740.065882 671.292235 492.664471 723.395765 165.647059H215.582118a56.621176 56.621176 0 0 0-56.621177 56.621176v29.967059h-7.378823A68.773647 68.773647 0 0 0 82.823529 321.008941v137.291294c0 13.296941 8.673882 24.711529 21.157647 29.244236a87.446588 87.446588 0 0 1 54.979765 61.349647v41.682823a87.431529 87.431529 0 0 1-54.979765 61.379765z" fill="#7CAFF0" /><path d="M480.768 165.692235h-265.185882a56.621176 56.621176 0 0 0-56.621177 56.621177v29.967059h-7.378823A68.773647 68.773647 0 0 0 82.823529 321.054118v137.291294c0 13.296941 8.673882 24.711529 21.157647 29.244235a87.612235 87.612235 0 0 1 30.885648 19.380706 717.643294 717.643294 0 0 0 345.901176-341.278118z" fill="#A9CAF6" /><path d="M714.420706 484.894118H313.735529a39.905882 39.905882 0 0 1 0-79.811765h400.685177a39.905882 39.905882 0 0 1 0 79.811765z m0 229.225411H313.735529a39.905882 39.905882 0 0 1 0-79.796705h400.685177a39.905882 39.905882 0 0 1 0 79.811764z" fill="#FFFFFF" /></svg>