<?xml version="1.0" standalone="no"?><!DOCTYPE svg PUBLIC "-//W3C//DTD SVG 1.1//EN" "http://www.w3.org/Graphics/SVG/1.1/DTD/svg11.dtd"><svg class="icon" width="48px" height="48.00px" viewBox="0 0 1024 1024" version="1.1" xmlns="http://www.w3.org/2000/svg"><path d="M758.452706 150.588235H270.607059c-45.492706 0-83.365647 34.063059-86.979765 78.21553L135.815529 811.158588c-4.050824 49.438118 36.050824 91.738353 86.979765 91.738353h583.469177c50.928941 0 91.075765-42.315294 86.979764-91.738353l-47.811764-582.354823C841.818353 184.651294 803.945412 150.588235 758.452706 150.588235z" fill="#257AE7" /><path d="M845.432471 228.803765C841.818353 184.606118 803.945412 150.588235 758.452706 150.588235H270.607059c-45.492706 0-83.365647 34.063059-86.979765 78.21553L135.815529 811.158588a82.778353 82.778353 0 0 0 17.061647 57.584941c288.557176 43.218824 565.534118-88.666353 719.013648-318.674823l-26.458353-321.264941z" fill="#5195EC" /><path d="M814.260706 170.345412A88.259765 88.259765 0 0 0 758.452706 150.588235H270.607059c-45.492706 0-83.365647 34.063059-86.979765 78.21553L147.094588 673.520941c302.682353-11.941647 571.226353-211.440941 667.166118-503.175529z" fill="#7CAFF0" /><path d="M552.553412 150.588235H270.607059c-45.492706 0-83.365647 34.063059-86.979765 78.21553l-15.902118 193.475764A723.124706 723.124706 0 0 0 552.553412 150.588235z" fill="#A9CAF6" /><path d="M514.529882 681.095529c-111.405176 0-202.089412-81.152-202.089411-180.85647V325.421176c0-17.92 14.878118-32.421647 33.28-32.421647 18.416941 0 33.310118 14.501647 33.310117 32.436706v174.772706c0 63.939765 60.762353 115.983059 135.454118 115.983059 74.691765 0 135.454118-52.043294 135.454118-115.983059V325.421176c0-17.92 14.893176-32.436706 33.295058-32.436705 18.416941 0 33.295059 14.501647 33.295059 32.436705v174.772706c0.105412 99.749647-90.593882 180.901647-201.999059 180.901647z" fill="#FFFFFF" /></svg>