<?xml version="1.0" standalone="no"?><!DOCTYPE svg PUBLIC "-//W3C//DTD SVG 1.1//EN" "http://www.w3.org/Graphics/SVG/1.1/DTD/svg11.dtd"><svg class="icon" width="48px" height="42.12px" viewBox="0 0 1167 1024" version="1.1" xmlns="http://www.w3.org/2000/svg"><path d="M1027.5189 469.186712l-46.918671 300.279496H204.09622L75.06987401 469.186712z" fill="#4F8DFC" /><path d="M1039.248568 513.97938133H120.81557801c-9.38373401 0-17.59450199-5.86483399-21.11340201-14.075601L2.34593401 272.34822433c-3.5189-7.037801-2.34593401-15.248568 2.34593299-22.286369s11.729668-10.556701 19.94043499-10.556701h914.91409001v46.918672H58.648339L136.064147 467.06071033h886.762886l92.664376-259.225659-199.404353-148.966781L944.238259 21.33333333l213.479954 159.523482c8.210767 5.86483399 11.729668 16.421535 8.210768 26.978236l-104.394044 290.895762c-3.5189 8.210767-12.902635 15.248568-22.286369 15.248568zM340.160367 1045.33333333c-65.68614 0-119.642612-53.956472-119.642612-119.642612S274.474227 806.04811033 340.160367 806.04811033s119.642612 53.956472 119.64261101 119.642611S405.84650599 1045.33333333 340.160367 1045.33333333z m0-192.366552c-39.880871 0-72.72394 32.84306999-72.72394099 72.72394s32.84306999 72.72394 72.72394099 72.723941 72.72394-32.84306999 72.72394-72.723941-32.84306999-72.72394-72.72394-72.72394zM833.979381 1035.94959933c-65.68614 0-119.642612-53.956472-119.64261101-119.642612s53.956472-119.642612 119.64261101-119.642612 119.642612 53.956472 119.642612 119.642612-53.956472 119.642612-119.642612 119.642612z m0-191.193586c-39.880871 0-72.72394 32.84306999-72.72394 72.723941s32.84306999 72.72394 72.72394 72.72394 72.72394-32.84306999 72.72394099-72.72394-32.84306999-72.72394-72.72394099-72.723941z" fill="#181818" /><path d="M938.373425 836.325315H219.344788c-10.556701 0-18.767468-7.037801-22.286369-16.421535l-117.296678-360.10080199c-2.34593401-7.037801-1.172967-15.248568 3.5189-21.11340201s11.729668-9.38373401 18.76746899-9.38373401H1055.670103c7.037801 0 14.075601 3.5189 18.767469 9.38373401 4.691867 5.86483399 5.86483399 14.075601 3.5189 21.11340199L961.832761 819.90378c-3.5189 9.38373401-12.902635 16.421535-23.459336 16.421535z m-701.43413499-46.918671h685.0126l102.04810999-313.182131H134.89118l102.04811001 313.182131z" fill="#181818" /></svg>