<?xml version="1.0" standalone="no"?><!DOCTYPE svg PUBLIC "-//W3C//DTD SVG 1.1//EN" "http://www.w3.org/Graphics/SVG/1.1/DTD/svg11.dtd"><svg class="icon" width="48px" height="48.00px" viewBox="0 0 1024 1024" version="1.1" xmlns="http://www.w3.org/2000/svg"><path d="M945.230769 590.769231H78.769231v354.461538h866.461538z" fill="#4F8DFC" /><path d="M710.222769 585.728c21.031385 0 38.084923 17.368615 38.084923 38.833231 0 20.086154-14.966154 36.627692-34.185846 38.596923l-3.938461 0.236308h-296.802462l39.857231 64.827076a39.384615 39.384615 0 0 1-8.664616 51.081847l-3.387076 2.441846a37.612308 37.612308 0 0 1-50.097231-8.822154l-2.402462-3.465846L275.692308 585.728h434.530461zM313.777231 512A37.966769 37.966769 0 0 1 275.692308 474.112c0-19.574154 14.966154-35.721846 34.185846-37.651692l3.938461-0.196923h296.802462l-39.857231-63.212308a37.730462 37.730462 0 0 1 8.664616-49.821539l3.387076-2.363076a38.242462 38.242462 0 0 1 50.097231 8.585846l2.402462 3.387077L748.307692 512H313.777231z" fill="#181818" /><path d="M858.427077 196.923077a78.769231 78.769231 0 0 1 78.572308 73.255385l41.668923 590.76923a78.769231 78.769231 0 0 1-73.019077 84.086154l-5.553231 0.196923H123.904a78.769231 78.769231 0 0 1-78.769231-78.769231l0.039385-2.756923L87.04 270.178462A78.769231 78.769231 0 0 1 165.572923 196.923077h692.854154z m0 78.769231H165.572923L123.904 866.461538h776.192L858.427077 275.692308z" fill="#181818" /><path d="M512 0a236.307692 236.307692 0 0 1 236.150154 227.446154L748.307692 236.307692h-78.76923a157.538462 157.538462 0 0 0-314.88-7.876923L354.461538 236.307692H275.692308a236.307692 236.307692 0 0 1 236.307692-236.307692z" fill="#181818" /></svg>