<?xml version="1.0" standalone="no"?><!DOCTYPE svg PUBLIC "-//W3C//DTD SVG 1.1//EN" "http://www.w3.org/Graphics/SVG/1.1/DTD/svg11.dtd"><svg class="icon" width="48px" height="48.00px" viewBox="0 0 1024 1024" version="1.1" xmlns="http://www.w3.org/2000/svg"><path d="M512 0c282.763636 0 512 229.236364 512 512s-229.236364 512-512 512S0 794.763636 0 512 229.236364 0 512 0z m0 93.090909C280.669091 93.090909 93.090909 280.669091 93.090909 512s187.578182 418.909091 418.909091 418.909091 418.909091-187.578182 418.909091-418.909091S743.330909 93.090909 512 93.090909z" fill="#181818" /><path d="M512 0c282.763636 0 512 229.236364 512 512s-229.236364 512-512 512v-93.090909c231.330909 0 418.909091-187.578182 418.909091-418.909091S743.330909 93.090909 512 93.090909V0z" fill="#4F8DFC" /><path d="M512 162.909091C319.185455 162.909091 162.909091 319.185455 162.909091 512s156.276364 349.090909 349.090909 349.090909 349.090909-156.276364 349.090909-349.090909S704.814545 162.909091 512 162.909091z m0 93.090909c141.381818 0 256 114.618182 256 256s-114.618182 256-256 256-256-114.618182-256-256 114.618182-256 256-256z" fill="#181818" /><path d="M504.692364 861.021091C315.252364 857.134545 162.909091 702.370909 162.909091 512c0-192.814545 156.276364-349.090909 349.090909-349.090909s349.090909 156.276364 349.090909 349.090909h-93.090909c0-141.381818-114.618182-256-256-256s-256 114.618182-256 256 114.618182 256 256 256v93.090909z" fill="#4F8DFC" /><path d="M512 325.818182a186.181818 186.181818 0 1 1 0 372.363636 186.181818 186.181818 0 0 1 0-372.363636z m0 93.090909a93.090909 93.090909 0 1 0 0 186.181818 93.090909 93.090909 0 0 0 0-186.181818z" fill="#181818" /><path d="M512 605.090909a93.090909 93.090909 0 1 0 0-186.181818v-93.090909a186.181818 186.181818 0 1 1-186.181818 186.181818h93.090909a93.090909 93.090909 0 0 0 93.090909 93.090909z" fill="#181818" /></svg>