<?xml version="1.0" standalone="no"?><!DOCTYPE svg PUBLIC "-//W3C//DTD SVG 1.1//EN" "http://www.w3.org/Graphics/SVG/1.1/DTD/svg11.dtd"><svg class="icon" width="48px" height="48.00px" viewBox="0 0 1024 1024" version="1.1" xmlns="http://www.w3.org/2000/svg"><path d="M638.64 566.6m-287.37 0a287.37 287.37 0 1 0 574.74 0 287.37 287.37 0 1 0-574.74 0Z" fill="#4F8DFC" /><path d="M763.58 928.22H260.42a74.72 74.72 0 0 1-74.65-74.61V172.76a74.72 74.72 0 0 1 74.65-74.61h503.16a74.72 74.72 0 0 1 74.65 74.61v680.85a74.72 74.72 0 0 1-74.65 74.61zM260.42 154.11a18.68 18.68 0 0 0-18.66 18.65v680.85a18.68 18.68 0 0 0 18.66 18.65h503.16a18.68 18.68 0 0 0 18.66-18.65V172.76a18.68 18.68 0 0 0-18.66-18.65z" fill="#181818" /><path d="M320.06 542.23a30 30 0 0 1-28.14-40.41l92.74-250.74 0.76-1.5a69.6 69.6 0 0 1 62.52-38.53h0.12a69.61 69.61 0 0 1 62.51 38.73l0.72 1.44 92.95 250.39A30 30 0 0 1 548 522.49l-91.65-246.9a10 10 0 0 0-16.75-0.06l-91.4 247.1a30 30 0 0 1-28.14 19.6z" fill="#181818" /><path d="M367.61 383.72h157.75v60H367.61z" fill="#181818" /><path d="M320.06 735.84m31.96 0l256.14 0q31.96 0 31.96 31.96l0 0q0 31.96-31.96 31.96l-256.14 0q-31.96 0-31.96-31.96l0 0q0-31.96 31.96-31.96Z" fill="#181818" /><path d="M320.06 608.01m31.96 0l192.13 0q31.96 0 31.96 31.96l0 0q0 31.96-31.96 31.96l-192.13 0q-31.96 0-31.96-31.96l0 0q0-31.96 31.96-31.96Z" fill="#181818" /></svg>