<?xml version="1.0" standalone="no"?><!DOCTYPE svg PUBLIC "-//W3C//DTD SVG 1.1//EN" "http://www.w3.org/Graphics/SVG/1.1/DTD/svg11.dtd"><svg class="icon" width="48px" height="48.00px" viewBox="0 0 1024 1024" version="1.1" xmlns="http://www.w3.org/2000/svg"><path d="M790.186667 649.386667m-168.32 0a168.32 168.32 0 1 0 336.64 0 168.32 168.32 0 1 0-336.64 0Z" fill="#4169E1" /><path d="M325.12 164.48m-39.68 0a39.68 39.68 0 1 0 79.36 0 39.68 39.68 0 1 0-79.36 0Z" fill="#4169E1" /><path d="M804.266667 829.44H222.933333a87.893333 87.893333 0 0 1-87.68-87.68V279.68A87.893333 87.893333 0 0 1 222.933333 192h38.4v64h-38.4a23.68 23.68 0 0 0-23.68 23.68v462.08a23.68 23.68 0 0 0 23.68 23.68H804.266667a23.68 23.68 0 0 0 23.68-23.68V279.68A23.68 23.68 0 0 0 804.266667 256H405.333333V192h398.933334a87.893333 87.893333 0 0 1 87.68 87.68v462.08a87.893333 87.893333 0 0 1-87.68 87.68z" fill="#2c2c2c" /><path d="M167.253333 478.72h692.693334v64H167.253333zM442.026667 347.306667h143.36v64h-143.36zM442.026667 610.133333h143.36v64h-143.36z" fill="#2c2c2c" /></svg>