<?xml version="1.0" standalone="no"?><!DOCTYPE svg PUBLIC "-//W3C//DTD SVG 1.1//EN" "http://www.w3.org/Graphics/SVG/1.1/DTD/svg11.dtd"><svg class="icon" width="48px" height="48.00px" viewBox="0 0 1024 1024" version="1.1" xmlns="http://www.w3.org/2000/svg"><path d="M284.020296 281.89254m-268.605869 0a268.605868 268.605868 0 1 0 537.211737 0 268.605868 268.605868 0 1 0-537.211737 0Z" fill="#4F8DFC" /><path d="M798.57412199 489.95549801H552.626164a24.363344 24.363344 0 0 1 0-48.72668802h245.94795799a24.363344 24.363344 0 0 1 0 48.72668802zM323.488913 826.900547a24.363344 24.363344 0 0 1-24.363344-24.36334499V563.532797a24.363344 24.363344 0 0 1 48.726688 0v239.00440499a24.363344 24.363344 0 0 1-24.363344 24.36334501z"  /><path d="M298.394669 592.281543a296.136447 296.136447 0 1 1 296.01463-296.01463 296.380081 296.380081 0 0 1-296.01463 296.01463z m0-543.424389a247.409759 247.409759 0 1 0 247.287942 247.409759A247.653392 247.653392 0 0 0 298.394669 48.857154zM384.275456 1024a123.765788 123.765788 0 1 1 123.765788-123.765788 123.887605 123.887605 0 0 1-123.765788 123.765788z m0-198.804888a75.0391 75.0391 0 1 0 75.0391 75.0391 75.160916 75.160916 0 0 0-75.0391-75.0391zM897.976566 650.022669a123.765788 123.765788 0 1 1 123.765788-123.765788 123.887605 123.887605 0 0 1-123.765788 123.765788z m0-198.804888a75.0391 75.0391 0 1 0 75.0391 75.0391A75.0391 75.0391 0 0 0 897.976566 450.852331z"  /></svg>