<?xml version="1.0" standalone="no"?><!DOCTYPE svg PUBLIC "-//W3C//DTD SVG 1.1//EN" "http://www.w3.org/Graphics/SVG/1.1/DTD/svg11.dtd"><svg class="icon" width="48px" height="48.00px" viewBox="0 0 1024 1024" version="1.1" xmlns="http://www.w3.org/2000/svg"><path d="M0 0h1024v1024H0V0z" fill="#202425" /><path d="M34.133333 580.266667a34.133333 34.133333 0 0 1 34.133334-34.133334h887.466666a34.133333 34.133333 0 0 1 34.133334 34.133334v341.333333a34.133333 34.133333 0 0 1-34.133334 34.133333H68.266667a34.133333 34.133333 0 0 1-34.133334-34.133333V580.266667z" fill="#181818" /><path d="M102.4 102.4a34.133333 34.133333 0 0 1 34.133333-34.133333h750.933334a34.133333 34.133333 0 0 1 34.133333 34.133333v512a34.133333 34.133333 0 0 1-34.133333 34.133333h-136.533334a34.133333 34.133333 0 0 0-34.133333 34.133334v17.066666a34.133333 34.133333 0 0 1-34.133333 34.133334H341.333333a34.133333 34.133333 0 0 1-34.133333-34.133334V682.666667a34.133333 34.133333 0 0 0-34.133333-34.133334H136.533333a34.133333 34.133333 0 0 1-34.133333-34.133333V102.4z" fill="#4F8DFC" /><path d="M238.933333 238.933333a34.133333 34.133333 0 0 1 34.133334-34.133333h477.866666a34.133333 34.133333 0 1 1 0 68.266667H273.066667a34.133333 34.133333 0 0 1-34.133334-34.133334z m0 170.666667a34.133333 34.133333 0 0 1 34.133334-34.133333h477.866666a34.133333 34.133333 0 1 1 0 68.266666H273.066667a34.133333 34.133333 0 0 1-34.133334-34.133333z m102.4 443.733333a34.133333 34.133333 0 0 1 34.133334-34.133333h273.066666a34.133333 34.133333 0 1 1 0 68.266667h-273.066666a34.133333 34.133333 0 0 1-34.133334-34.133334z" fill="#FFFFFF" /></svg>