<?xml version="1.0" standalone="no"?><!DOCTYPE svg PUBLIC "-//W3C//DTD SVG 1.1//EN" "http://www.w3.org/Graphics/SVG/1.1/DTD/svg11.dtd"><svg class="icon" width="48px" height="48.00px" viewBox="0 0 1024 1024" version="1.1" xmlns="http://www.w3.org/2000/svg"><path d="M694.186667 652.8m-177.706667 0a177.706667 177.706667 0 1 0 355.413333 0 177.706667 177.706667 0 1 0-355.413333 0Z" fill="#4169E1" /><path d="M391.04 161.493333m-41.813333 0a41.813333 41.813333 0 1 0 83.626666 0 41.813333 41.813333 0 1 0-83.626666 0Z" fill="#4169E1" /><path d="M706.986667 763.093333H317.013333a135.893333 135.893333 0 0 1-135.68-135.68v-163.2a88.746667 88.746667 0 0 1-85.333333-96.64 91.093333 91.093333 0 0 1 89.813333-81.066666 134.613333 134.613333 0 0 1 130.133334-99.413334v64A70.613333 70.613333 0 0 0 245.76 320l-1.28 30.72H187.946667a27.52 27.52 0 0 0-27.946667 22.4 25.6 25.6 0 0 0 6.613333 19.2 24.96 24.96 0 0 0 18.346667 8.106667h59.733333V627.413333a71.893333 71.893333 0 0 0 71.68 71.68h390.613334a71.893333 71.893333 0 0 0 71.68-71.68V400.853333h60.373333a24.96 24.96 0 0 0 18.346667-8.106666 25.386667 25.386667 0 0 0 6.613333-19.2 27.52 27.52 0 0 0-27.946667-22.613334h-55.04L778.453333 320a71.04 71.04 0 0 0-70.826666-69.12H463.146667v-64h244.48a134.613333 134.613333 0 0 1 130.133333 99.413333 91.093333 91.093333 0 0 1 89.813333 81.066667 88.746667 88.746667 0 0 1-85.333333 96.64v163.2a135.893333 135.893333 0 0 1-135.253333 135.893333zM256 798.72h512v64H256z" fill="#2c2c2c" /></svg>