<?xml version="1.0" standalone="no"?><!DOCTYPE svg PUBLIC "-//W3C//DTD SVG 1.1//EN" "http://www.w3.org/Graphics/SVG/1.1/DTD/svg11.dtd"><svg class="icon" width="48px" height="48.00px" viewBox="0 0 1024 1024" version="1.1" xmlns="http://www.w3.org/2000/svg"><path d="M339.413333 659.2m-190.08 0a190.08 190.08 0 1 0 380.16 0 190.08 190.08 0 1 0-380.16 0Z" fill="#4169E1" /><path d="M753.28 245.333333m-44.8 0a44.8 44.8 0 1 0 89.6 0 44.8 44.8 0 1 0-89.6 0Z" fill="#4169E1" /><path d="M733.013333 851.2H270.72v-64h462.293333a45.866667 45.866667 0 0 0 44.586667-35.84L842.666667 490.666667a55.466667 55.466667 0 0 0-55.253334-52.053334h-141.226666a83.84 83.84 0 0 1-83.84-92.373333 518.826667 518.826667 0 0 1 12.16-66.346667c0-4.266667 1.92-8.533333 2.986666-12.8a110.506667 110.506667 0 0 0 5.546667-50.773333 18.346667 18.346667 0 0 0-13.226667-8.746667c-14.08 1.706667-30.506667 39.893333-38.186666 58.026667-2.773333 6.4-5.333333 12.373333-7.68 17.493333-6.186667 12.586667-11.946667 25.173333-17.706667 37.973334-14.72 32-29.866667 64-48 96.853333l-2.133333 3.84c-17.066667 30.08-45.653333 80.426667-95.146667 80.426667h-90.24v-64h90.24c8.106667 0 21.333333-16 39.466667-48l2.133333-3.84c16.64-29.44 30.72-59.733333 45.44-91.946667 5.973333-13.013333 11.946667-26.026667 18.133333-38.826667 2.133333-4.48 4.266667-9.6 6.613334-15.146666C488.106667 203.733333 512 149.333333 561.706667 143.146667a80.853333 80.853333 0 0 1 82.56 53.333333 157.866667 157.866667 0 0 1-4.693334 85.333333c0 4.053333-1.92 7.893333-2.773333 11.52a566.186667 566.186667 0 0 0-10.88 58.666667 21.333333 21.333333 0 0 0 5.12 15.36 19.84 19.84 0 0 0 15.146667 6.613333h141.226666a119.466667 119.466667 0 0 1 119.466667 119.466667v7.68L839.893333 765.866667a108.8 108.8 0 0 1-106.88 85.333333z" fill="#2c2c2c" /><path d="M355.413333 581.546667h64v230.4h-64z" fill="#2c2c2c" /></svg>