<?xml version="1.0" standalone="no"?><!DOCTYPE svg PUBLIC "-//W3C//DTD SVG 1.1//EN" "http://www.w3.org/Graphics/SVG/1.1/DTD/svg11.dtd"><svg class="icon" width="48px" height="48.00px" viewBox="0 0 1024 1024" version="1.1" xmlns="http://www.w3.org/2000/svg"><path d="M256 563.2h512v409.6h-512z" fill="#4F8DFC" /><path d="M802.133333 0h-580.266666A222.208 222.208 0 0 0 0 221.866667v477.866666A51.2 51.2 0 0 0 51.2 750.933333H204.8v221.866667A51.2 51.2 0 0 0 256 1024h512a51.2 51.2 0 0 0 51.2-51.2V750.933333h153.6a51.2 51.2 0 0 0 51.2-51.2v-477.866666A222.208 222.208 0 0 0 802.133333 0zM716.8 921.6H307.2v-307.2h409.6z m204.8-273.066667h-102.4v-85.333333a51.2 51.2 0 0 0-51.2-51.2h-512A51.2 51.2 0 0 0 204.8 563.2V648.533333H102.4V221.866667A119.466667 119.466667 0 0 1 221.866667 102.4h580.266666A119.466667 119.466667 0 0 1 921.6 221.866667z" fill="#181818" /><path d="M307.2 170.666667H238.933333a34.133333 34.133333 0 0 0 0 68.266666h68.266667a34.133333 34.133333 0 0 0 0-68.266666z" fill="#181818" /></svg>