<?xml version="1.0" standalone="no"?><!DOCTYPE svg PUBLIC "-//W3C//DTD SVG 1.1//EN" "http://www.w3.org/Graphics/SVG/1.1/DTD/svg11.dtd"><svg class="icon" width="48px" height="48.00px" viewBox="0 0 1024 1024" version="1.1" xmlns="http://www.w3.org/2000/svg"><path d="M307.2 409.6h580.266667v512H307.2z" fill="#4F8DFC" /><path d="M904.533333 989.866667h-785.066666A51.2 51.2 0 0 1 68.266667 938.666667v-853.333334A51.2 51.2 0 0 1 119.466667 34.133333H648.533333a51.2 51.2 0 0 1 34.133334 13.653334l256 238.933333a51.2 51.2 0 0 1 17.066666 37.546667v614.4a51.2 51.2 0 0 1-51.2 51.2zM170.666667 887.466667h682.666666V346.453333L628.394667 136.533333H170.666667z" fill="#181818" /><path d="M665.6 716.8h-307.2a51.2 51.2 0 0 1 0-102.4h307.2a51.2 51.2 0 0 1 0 102.4zM665.6 512h-307.2a51.2 51.2 0 0 1 0-102.4h307.2a51.2 51.2 0 0 1 0 102.4z" fill="#181818" /></svg>