<?xml version="1.0" standalone="no"?><!DOCTYPE svg PUBLIC "-//W3C//DTD SVG 1.1//EN" "http://www.w3.org/Graphics/SVG/1.1/DTD/svg11.dtd"><svg class="icon" width="48px" height="48.00px" viewBox="0 0 1024 1024" version="1.1" xmlns="http://www.w3.org/2000/svg"><path d="M874.7782 415.334967a357.317757 357.317757 0 0 0-19.111551-114.669309A358.34159 358.34159 0 0 0 324.297262 614.299869a530.004276 530.004276 0 0 0 90.097314 277.800052 1079.120103 1079.120103 0 0 0 102.383312 86.343259s358.000313-255.958279 358.000312-563.108213z" fill="#1296db" /><path d="M512 0A409.533246 409.533246 0 0 0 102.466754 409.533246c0 365.508422 366.873533 596.894706 382.572307 606.79176a51.191656 51.191656 0 0 0 53.921878 0C554.659713 1006.427952 921.533246 775.041668 921.533246 409.533246A409.533246 409.533246 0 0 0 512 0z m0 910.528917C432.482295 853.194263 204.850065 665.150247 204.850065 409.533246a307.149935 307.149935 0 0 1 614.29987 0c0 255.617001-227.632229 443.661017-307.149935 500.995671z" fill="#181818" /><path d="M512 375.405476m-102.383312 0a102.383312 102.383312 0 1 0 204.766624 0 102.383312 102.383312 0 1 0-204.766624 0Z" fill="#181818" /></svg>