<?xml version="1.0" standalone="no"?><!DOCTYPE svg PUBLIC "-//W3C//DTD SVG 1.1//EN" "http://www.w3.org/Graphics/SVG/1.1/DTD/svg11.dtd"><svg class="icon" width="48px" height="48.00px" viewBox="0 0 1024 1024" version="1.1" xmlns="http://www.w3.org/2000/svg"><path d="M365.76 390.99m-68.45 0a68.45 68.45 0 1 0 136.9 0 68.45 68.45 0 1 0-136.9 0Z" fill="#4169E1" /><path d="M658.23 633m-68.45 0a68.45 68.45 0 1 0 136.9 0 68.45 68.45 0 1 0-136.9 0Z" fill="#4169E1" /><path d="M365.74 727.07a38.35 38.35 0 0 1-29.53-62.8L604 340.67a38.35 38.35 0 0 1 59.1 48.9l-267.79 323.6a38.27 38.27 0 0 1-29.57 13.9z" fill="#2F3240" /><path d="M512 933.89C279.37 933.89 90.11 744.63 90.11 512S279.37 90.11 512 90.11 933.89 279.37 933.89 512 744.63 933.89 512 933.89z m0-767.07c-190.34 0-345.18 154.84-345.18 345.18S321.66 857.18 512 857.18 857.18 702.34 857.18 512 702.34 166.82 512 166.82z" fill="#2F3240" /></svg>