<?xml version="1.0" standalone="no"?><!DOCTYPE svg PUBLIC "-//W3C//DTD SVG 1.1//EN" "http://www.w3.org/Graphics/SVG/1.1/DTD/svg11.dtd"><svg class="icon" width="48px" height="48.00px" viewBox="0 0 1024 1024" version="1.1" xmlns="http://www.w3.org/2000/svg"><path d="M737.55 324.43V178.46H286.46v145.97" fill="#4169E1" /><path d="M768.64 324.43h-62.19V209.55h-388.9v114.88h-62.19v-146a31.09 31.09 0 0 1 31.1-31.09h451.09a31.09 31.09 0 0 1 31.09 31.09z" fill="#4169E1" /><path d="M512 714.84a31 31 0 0 1-19.44-6.84L182 459.25a31.09 31.09 0 1 1 38.88-48.53L512 643.9l291.1-233.18a31.09 31.09 0 1 1 38.9 48.53L531.44 708a31 31 0 0 1-19.44 6.84z" fill="#2F3240" /><path d="M822.54 876.64H201.46a31.1 31.1 0 0 1-31.1-31.09V435a31.1 31.1 0 0 1 31.1-31.1h621.08a31.1 31.1 0 0 1 31.1 31.1v410.55a31.1 31.1 0 0 1-31.1 31.09z m-590-62.19h558.9V466.08H232.55z" fill="#2F3240" /></svg>