<?xml version="1.0" standalone="no"?><!DOCTYPE svg PUBLIC "-//W3C//DTD SVG 1.1//EN" "http://www.w3.org/Graphics/SVG/1.1/DTD/svg11.dtd"><svg class="icon" width="48px" height="48.00px" viewBox="0 0 1024 1024" version="1.1" xmlns="http://www.w3.org/2000/svg"><path d="M203.9296 234.0352h-2.048c-65.8432 0-119.2448 53.4016-119.2448 119.2448s53.4016 119.2448 119.2448 119.2448h2.048c23.3472 0 42.24-18.8928 42.24-42.24V276.2752c0-23.296-18.8928-42.24-42.24-42.24zM826.9312 234.0352h-2.048c-23.3472 0-42.24 18.8928-42.24 42.24v153.9584c0 23.3472 18.8928 42.24 42.24 42.24h2.048c65.8432 0 119.2448-53.4016 119.2448-119.2448 0-65.792-53.3504-119.1936-119.2448-119.1936zM704.5632 841.7792h-139.8784v-110.3872H461.5168v110.3872H321.6384c-25.1904 0-45.6704 20.4288-45.6704 45.6704 0 25.1904 20.4288 45.6704 45.6704 45.6704h382.8736c25.1904 0 45.6704-20.4288 45.6704-45.6704s-20.4288-45.6704-45.6192-45.6704z" fill="#FFDF99" /><path d="M709.3248 97.1264H316.8768c-62.6688 0-113.4592 50.7904-113.4592 113.4592v256.5632c0 171.008 138.6496 309.6576 309.6576 309.6576s309.6576-138.6496 309.6576-309.6576V210.5344c0-62.6176-50.7904-113.408-113.408-113.408z" fill="#FF5D50" /><path d="M641.1776 350.8736l-48.1792-7.0144a35.33312 35.33312 0 0 1-26.624-19.3536l-21.5552-43.6736c-12.9536-26.2656-50.4832-26.2656-63.4368 0l-21.5552 43.6736a35.42016 35.42016 0 0 1-26.624 19.3536l-48.1792 7.0144c-29.0304 4.1984-40.6016 39.8848-19.6096 60.3136l34.8672 33.9968a35.38944 35.38944 0 0 1 10.1888 31.2832l-8.2432 47.9744c-4.9664 28.8768 25.3952 50.944 51.3024 37.2736L496.64 539.136a35.31776 35.31776 0 0 1 32.9216 0l43.1104 22.6816c25.9584 13.6192 56.2688-8.3968 51.3024-37.2736l-8.2432-47.9744c-1.9456-11.4688 1.8432-23.1936 10.1888-31.2832l34.8672-33.9968c20.992-20.5312 9.4208-56.2176-19.6096-60.416z" fill="#FFDF99" /></svg>