<?xml version="1.0" standalone="no"?><!DOCTYPE svg PUBLIC "-//W3C//DTD SVG 1.1//EN" "http://www.w3.org/Graphics/SVG/1.1/DTD/svg11.dtd"><svg class="icon" width="48px" height="48.00px" viewBox="0 0 1024 1024" version="1.1" xmlns="http://www.w3.org/2000/svg"><path d="M349.7472 448.1024H265.472c-48.3328 0-87.552-39.2192-87.552-87.552V276.2752c0-48.3328 39.2192-87.552 87.552-87.552h84.2752c48.3328 0 87.552 39.2192 87.552 87.552v84.2752c0 48.384-39.168 87.552-87.552 87.552zM802.6624 448.1024H718.336c-48.3328 0-87.552-39.2192-87.552-87.552V276.2752c0-48.3328 39.2192-87.552 87.552-87.552h84.2752c48.3328 0 87.552 39.2192 87.552 87.552v84.2752c0.0512 48.384-39.168 87.552-87.5008 87.552zM349.7472 892.16H263.5264c-48.3328 0-87.552-39.2192-87.552-87.552v-86.2208c0-48.3328 39.2192-87.552 87.552-87.552h86.2208c48.3328 0 87.552 39.2192 87.552 87.552v86.2208c0 48.384-39.168 87.552-87.552 87.552z" fill="#4169E1" /><path d="M342.9376 478.7712h-125.44c-70.6048 0-128-57.3952-128-128v-125.44c0-70.6048 57.3952-128 128-128h125.44c52.736 0 99.4304 31.6416 118.9376 80.64a25.6512 25.6512 0 0 1-14.2848 33.28 25.6512 25.6512 0 0 1-33.28-14.2848c-11.7248-29.3888-39.7312-48.384-71.3728-48.384h-125.44c-42.3424 0-76.8 34.4576-76.8 76.8v125.44c0 42.3424 34.4576 76.8 76.8 76.8h125.44c42.3424 0 76.8-34.4576 76.8-76.8v-84.48c0-14.1312 11.4688-25.6 25.6-25.6s25.6 11.4688 25.6 25.6v84.48c0 70.5536-57.3952 127.9488-128 127.9488zM795.904 478.7712h-125.44c-70.6048 0-128-57.3952-128-128v-125.44c0-70.6048 57.3952-128 128-128h125.44c70.6048 0 128 57.3952 128 128v125.44c0 70.6048-57.3952 128-128 128z m-125.3888-330.1888c-42.3424 0-76.8 34.4576-76.8 76.8v125.44c0 42.3424 34.4576 76.8 76.8 76.8h125.44c42.3424 0 76.8-34.4576 76.8-76.8v-125.44c0-42.3424-34.4576-76.8-76.8-76.8h-125.44zM342.9376 923.904h-125.44c-70.6048 0-128-57.3952-128-128v-125.44c0-70.6048 57.3952-128 128-128h125.44c70.6048 0 128 57.3952 128 128v125.44c0 70.6048-57.3952 128-128 128z m-125.44-330.1888c-42.3424 0-76.8 34.4576-76.8 76.8v125.44c0 42.3424 34.4576 76.8 76.8 76.8h125.44c42.3424 0 76.8-34.4576 76.8-76.8v-125.44c0-42.3424-34.4576-76.8-76.8-76.8h-125.44zM795.904 923.904h-125.44c-70.6048 0-128-57.3952-128-128v-79.36c0-14.1312 11.4688-25.6 25.6-25.6s25.6 11.4688 25.6 25.6v79.36c0 42.3424 34.4576 76.8 76.8 76.8h125.44c42.3424 0 76.8-34.4576 76.8-76.8v-125.44c0-42.3424-34.4576-76.8-76.8-76.8h-125.44c-32.2048 0-61.2352 20.3264-72.2432 50.5856a25.61536 25.61536 0 0 1-32.8192 15.36 25.61536 25.61536 0 0 1-15.36-32.8192c18.3296-50.432 66.6624-84.3264 120.3712-84.3264h125.44c70.6048 0 128 57.3952 128 128v125.44c0.0512 70.6048-57.344 128-127.9488 128z" fill="#44454A" /></svg>