<?xml version="1.0" standalone="no"?><!DOCTYPE svg PUBLIC "-//W3C//DTD SVG 1.1//EN" "http://www.w3.org/Graphics/SVG/1.1/DTD/svg11.dtd"><svg class="icon" width="48px" height="48.00px" viewBox="0 0 1024 1024" version="1.1" xmlns="http://www.w3.org/2000/svg"><path d="M228.352 666.965333L512 950.613333l283.648-283.648a307.2 307.2 0 0 0-567.296 0z" fill="#4F8DFC" /><path d="M512 1001.813333a51.2 51.2 0 0 1-36.181333-15.018666L84.309333 595.626667A288.426667 288.426667 0 0 1 492.202667 187.733333l19.797333 19.797334 19.797333-19.797334a288.426667 288.426667 0 0 1 407.893334 407.893334L548.181333 986.794667a51.2 51.2 0 0 1-36.181333 15.018666zM288.426667 204.8a186.026667 186.026667 0 0 0-131.413334 317.44L512 878.250667l354.986667-354.986667a186.026667 186.026667 0 0 0-262.826667-263.168l-55.978667 55.978667a51.2 51.2 0 0 1-72.362666 0L419.84 260.096A185.344 185.344 0 0 0 288.426667 204.8z" fill="#181818" /></svg>