<?xml version="1.0" standalone="no"?><!DOCTYPE svg PUBLIC "-//W3C//DTD SVG 1.1//EN" "http://www.w3.org/Graphics/SVG/1.1/DTD/svg11.dtd"><svg class="icon" width="48px" height="48.00px" viewBox="0 0 1024 1024" version="1.1" xmlns="http://www.w3.org/2000/svg"><path d="M285.696 945.493333L896.341333 334.848l12.970667 599.04-623.616 11.605333z" fill="#4F8DFC" /><path d="M938.666667 34.133333h-853.333334A51.2 51.2 0 0 0 34.133333 85.333333v853.333334A51.2 51.2 0 0 0 85.333333 989.866667h853.333334a51.2 51.2 0 0 0 51.2-51.2v-853.333334A51.2 51.2 0 0 0 938.666667 34.133333zM887.466667 136.533333v718.506667L456.021333 423.594667a52.565333 52.565333 0 0 0-72.362666 0L136.533333 670.72V136.533333zM136.533333 815.445333l283.306667-283.306666L775.168 887.466667H136.533333z" fill="#181818" /><path d="M716.8 307.2m-102.4 0a102.4 102.4 0 1 0 204.8 0 102.4 102.4 0 1 0-204.8 0Z" fill="#181818" /></svg>