<?xml version="1.0" standalone="no"?><!DOCTYPE svg PUBLIC "-//W3C//DTD SVG 1.1//EN" "http://www.w3.org/Graphics/SVG/1.1/DTD/svg11.dtd"><svg class="icon" width="48px" height="48.00px" viewBox="0 0 1024 1024" version="1.1" xmlns="http://www.w3.org/2000/svg"><path d="M204.828331 537.6h750.933333v409.6H204.828331z" fill="#4F8DFC" /><path d="M972.828331 128H648.561664L525.681664 34.133333a51.2 51.2 0 0 0-30.72-10.24h-443.733333A51.2 51.2 0 0 0 0.028331 76.8v853.333333a51.2 51.2 0 0 0 51.2 51.2h921.6a51.2 51.2 0 0 0 51.2-51.2v-750.933333a51.2 51.2 0 0 0-51.2-51.2z m-494.933334 0l122.88 92.16a51.2 51.2 0 0 0 30.72 10.24H921.628331v102.4H102.428331v-204.8z m-375.466666 750.933333v-443.733333h819.2v443.733333z" fill="#181818" /></svg>