<?xml version="1.0" standalone="no"?><!DOCTYPE svg PUBLIC "-//W3C//DTD SVG 1.1//EN" "http://www.w3.org/Graphics/SVG/1.1/DTD/svg11.dtd"><svg class="icon" width="48px" height="48.00px" viewBox="0 0 1024 1024" version="1.1" xmlns="http://www.w3.org/2000/svg"><path d="M836.266667 860.16V375.466667A322.901333 322.901333 0 0 0 750.933333 155.306667h-34.133333A324.266667 324.266667 0 0 0 392.533333 477.866667v382.293333z" fill="#4F8DFC" /><path d="M904.533333 853.333333H887.466667V375.466667a375.466667 375.466667 0 0 0-750.933334 0v477.866666h-17.066666a51.2 51.2 0 0 0 0 102.4H409.6a68.266667 68.266667 0 0 0 68.266667 68.266667h68.266666a68.266667 68.266667 0 0 0 68.266667-68.266667h290.133333a51.2 51.2 0 0 0 0-102.4zM238.933333 853.333333V375.466667a273.066667 273.066667 0 0 1 546.133334 0v477.866666z" fill="#181818" /></svg>