<?xml version="1.0" standalone="no"?><!DOCTYPE svg PUBLIC "-//W3C//DTD SVG 1.1//EN" "http://www.w3.org/Graphics/SVG/1.1/DTD/svg11.dtd"><svg class="icon" width="48px" height="48.00px" viewBox="0 0 1024 1024" version="1.1" xmlns="http://www.w3.org/2000/svg"><path d="M955.15 693.17C822.86 658.5 790.34 534.13 788.99 528.88l26.27-6.61c1.15 4.66 30.29 114.18 146.74 144.71l-6.85 26.19z" fill="#FFBC55" /><path d="M643.34 382.7H305.57v93.71H427.6v190.77h93.71V476.41h122.03z" fill="#3D90F4" /><path d="M232.46 407.4m-170.46 0a170.46 170.46 0 1 0 340.92 0 170.46 170.46 0 1 0-340.92 0Z"  /><path d="M232.46 407.4m-170.46 0a170.46 170.46 0 1 0 340.92 0 170.46 170.46 0 1 0-340.92 0Z" fill="#0C2E97" /><path d="M232.46 407.4m-98.03 0a98.03 98.03 0 1 0 196.06 0 98.03 98.03 0 1 0-196.06 0Z" fill="#FFFFFF" /><path d="M232.46 407.4m-49.68 0a49.68 49.68 0 1 0 99.36 0 49.68 49.68 0 1 0-99.36 0Z"  /><path d="M724.96 407.4m-170.46 0a170.46 170.46 0 1 0 340.92 0 170.46 170.46 0 1 0-340.92 0Z"  /><path d="M724.96 407.4m-170.46 0a170.46 170.46 0 1 0 340.92 0 170.46 170.46 0 1 0-340.92 0Z" fill="#0C2E97" /><path d="M724.96 407.4m-98.03 0a98.03 98.03 0 1 0 196.06 0 98.03 98.03 0 1 0-196.06 0Z" fill="#FFFFFF" /><path d="M767.99 432.22c-8.58 14.86-24.63 24.85-43.03 24.85-27.44 0-49.68-22.24-49.68-49.68s22.24-49.68 49.68-49.68c16.36 0 30.88 7.9 39.92 20.11l-39.92 29.56 43.03 24.84z"  /><path d="M474.46 787.06c-112.71 0-216.67-51.38-285.24-141.01l46.01-35.26c57.55 75.18 144.71 118.32 239.23 118.32s181.68-43.14 239.23-118.32l46.01 35.26c-68.57 89.63-172.53 141.01-285.24 141.01z" fill="#0C2E97" /></svg>