<?xml version="1.0" standalone="no"?><!DOCTYPE svg PUBLIC "-//W3C//DTD SVG 1.1//EN" "http://www.w3.org/Graphics/SVG/1.1/DTD/svg11.dtd"><svg class="icon" width="48px" height="48.00px" viewBox="0 0 1024 1024" version="1.1" xmlns="http://www.w3.org/2000/svg"><path d="M377.263158 485.052632H53.894737a53.894737 53.894737 0 0 1-53.894737-53.894737V107.789474a53.894737 53.894737 0 0 1 53.894737-53.894737h323.368421a53.894737 53.894737 0 0 1 53.894737 53.894737v323.368421a53.894737 53.894737 0 0 1-53.894737 53.894737zM107.789474 377.263158h215.578947V161.684211H107.789474z" fill="#1768E4" /><path d="M741.591579 565.355789a53.894737 53.894737 0 0 1-38.265263-15.629473L474.812632 320.673684a53.894737 53.894737 0 0 1 0-75.991579L703.326316 15.629474a53.894737 53.894737 0 0 1 75.991579 0l228.513684 228.513684a53.894737 53.894737 0 0 1 0 75.991579l-228.513684 228.513684a53.894737 53.894737 0 0 1-37.726316 16.707368z m-152.522105-282.947368l152.522105 152.522105 152.522105-152.522105-152.522105-152.522105z" fill="#8BB3F1" /><path d="M377.263158 1024H53.894737a53.894737 53.894737 0 0 1-53.894737-53.894737v-323.368421a53.894737 53.894737 0 0 1 53.894737-53.894737h323.368421a53.894737 53.894737 0 0 1 53.894737 53.894737v323.368421a53.894737 53.894737 0 0 1-53.894737 53.894737z m-269.473684-107.789474h215.578947v-215.578947H107.789474zM916.210526 1024h-323.368421a53.894737 53.894737 0 0 1-53.894737-53.894737v-323.368421a53.894737 53.894737 0 0 1 53.894737-53.894737h323.368421a53.894737 53.894737 0 0 1 53.894737 53.894737v323.368421a53.894737 53.894737 0 0 1-53.894737 53.894737z m-269.473684-107.789474h215.578947v-215.578947h-215.578947z" fill="#1768E4" /></svg>