<?xml version="1.0" standalone="no"?><!DOCTYPE svg PUBLIC "-//W3C//DTD SVG 1.1//EN" "http://www.w3.org/Graphics/SVG/1.1/DTD/svg11.dtd"><svg class="icon" width="48px" height="48.00px" viewBox="0 0 1024 1024" version="1.1" xmlns="http://www.w3.org/2000/svg"><path d="M77.760273 381.26432c-0.825694-0.722482-1.857812-1.341753-2.683506-2.167447A408.305807 408.305807 0 0 0 26.876865 576.747434a404.177336 404.177336 0 0 0 73.899635 239.244909 479.212301 479.212301 0 0 0 67.294082 76.47993c4.128471 3.509201 8.050519 7.018401 12.075778 10.321178A483.650407 483.650407 0 0 0 299.872026 980.511922 509.8662 509.8662 0 0 0 511.972237 1023.964082q188.87756 0 325.426746-115.700407C263.644691 1011.475457 112.542643 651.163128 77.760273 381.26432z" fill="#6B50A0" /><path d="M855.461045 892.575485a481.173324 481.173324 0 0 0 67.81014-76.47993A404.899818 404.899818 0 0 0 997.067609 576.747434 407.89296 407.89296 0 0 0 892.926922 299.314166a521.838766 521.838766 0 0 0-37.465877-38.188359 514.097883 514.097883 0 0 0-58.314656-46.961361l-3.922048-2.683506-4.02526 3.922048a263.912525 263.912525 0 0 1-33.130981 25.286886 177.627476 177.627476 0 0 1-47.064573 20.642356 422.136186 422.136186 0 0 1-44.587489 111.468724 137.065246 137.065246 0 0 1-29.51857 38.188359q-45.826031 39.220477-119.106395 4.541319A1119.538192 1119.538192 0 0 1 379.035463 340.598878a161.423226 161.423226 0 0 1-30.963535-25.080463v2.88993a125.092679 125.092679 0 0 1-33.440617 61.927069 135.620281 135.620281 0 0 1-16.617097 13.830379 107.133829 107.133829 0 0 1-80.195554 16.617097Q171.373359 402.525947 116.155056 396.539664a71.525764 71.525764 0 0 1-38.18836-15.275344C112.542643 651.163128 263.644691 1011.475457 837.398983 908.263675l6.399131-5.2638z" fill="#8558DD" /><path d="M494.21981 195.173478a105.379229 105.379229 0 0 0 3.096354 17.95885c10.321178-5.470224 20.642356-11.250084 30.241052-16.926732a159.668626 159.668626 0 0 1 14.243226-7.53446 115.597195 115.597195 0 0 1 32.098864-9.701907h2.477082a82.569425 82.569425 0 0 1 48.922385 9.28906l1.857812 1.13533a110.539818 110.539818 0 0 1 24.35798 19.403815l1.548177 1.857812a150.895624 150.895624 0 0 1 42.213618 96.399803A154.817672 154.817672 0 0 0 728.716978 288.064082a206.423563 206.423563 0 0 0 17.649214-14.965709c4.850954-4.438107 9.28906-8.876213 13.520744-13.211108 28.589663-30.344264 42.832889-57.076115 42.420042-80.608401a69.048682 69.048682 0 0 0-9.392272-28.280028 98.360828 98.360828 0 0 0-37.465877-34.369523A373.523437 373.523437 0 0 0 642.019081 75.551024a123.854138 123.854138 0 0 0-101.250757 22.190533 112.810477 112.810477 0 0 0-46.032455 78.647377 96.399804 96.399804 0 0 0 0 15.378556 7.018401 7.018401 0 0 0 0 1.961024zM97.2673 435.966564l25.390098 2.993142c39.942959 4.954166 77.718471 10.321178 112.913689 15.997826a94.954839 94.954839 0 0 0 83.807966-25.49331q35.298429-36.536971 35.298429-99.599369a166.480603 166.480603 0 0 0-31.479593-101.353969 125.505526 125.505526 0 0 0-8.153731-10.321178 160.184685 160.184685 0 0 0-21.158415-20.126298 113.532959 113.532959 0 0 0-68.94547-23.738709 15.584979 15.584979 0 0 1-3.096353 0 117.661431 117.661431 0 0 0-88.246073 43.658583C105.524242 251.320687 84.262615 299.314166 69.606542 360.209117a140.574446 140.574446 0 0 0-4.954165 45.929242v0.825695a32.614923 32.614923 0 0 0 32.614923 29.00251z" fill="#47931F" /><path d="M257.451984 123.854138a477.767336 477.767336 0 0 1 277.639692-69.358317 26.215792 26.215792 0 0 1 6.915189 25.802945c-4.231683 16.410673-13.727167 177.008205-13.727167 177.008205l-143.774011 28.486451s-165.13885-91.239215-127.053703-161.939284z" fill="#3F7221" /><path d="M325.365336 91.961697a66.674811 66.674811 0 0 1 19.300603 28.899299l1.13533 2.477083a631.965737 631.965737 0 0 1 25.699734 91.54885q7.740884 35.711276 16.307461 82.569425A118.899972 118.899972 0 0 1 408.760456 272.995162a105.585652 105.585652 0 0 1 8.876213-7.431249c3.405989-2.580295 6.915189-5.263801 10.321178-7.947307 5.470224-3.715624 11.456508-7.431248 17.855638-11.146872-4.128471-23.945133-7.947307-45.826031-11.353296-65.43627-3.096353-16.720309-5.676648-31.89244-8.153731-45.516395a14.759285 14.759285 0 0 1 0-2.993142c-6.089495-33.337405-10.321178-57.592174-13.314319-72.248247a128.498668 128.498668 0 0 0-8.876214-28.073604 63.888093 63.888093 0 0 0-15.894614-21.364839 50.573773 50.573773 0 0 0-37.981935-10.321178 49.128808 49.128808 0 0 0-34.1631 19.300603 49.438443 49.438443 0 0 0-10.321178 37.775512A50.367349 50.367349 0 0 0 325.158913 91.858485z" fill="#468E20" /><path d="M323.094677 293.121459a23.222651 23.222651 0 0 1-0.825694 2.477083 1.032118 1.032118 0 0 1 0 0.516059c-4.334895 21.674474 9.185849 42.832889 40.459018 63.062398 14.243226 9.082637 29.724993 18.578121 46.651725 28.38324 33.647041 19.09418 72.248247 38.910842 117.248584 59.656409 54.392609 25.286886 94.851627 14.656073 121.893114-31.582805a442.881754 442.881754 0 0 0 52.638008-136.342763 7.431248 7.431248 0 0 1 0-2.683506c0-2.373871 0.722482-4.747742 1.032118-7.018401a117.455007 117.455007 0 0 0-18.887756-75.344601 157.191543 157.191543 0 0 0-19.09418-23.841921A77.718471 77.718471 0 0 0 646.147553 156.159425c-13.107896-2.993142-26.422216-5.367013-39.839748-7.328036a90.619944 90.619944 0 0 0-19.507027 5.367012 140.368023 140.368023 0 0 0-18.474909 8.66979l-8.876213 4.850954q-26.835063 14.449649-54.392608 27.454333h-1.444965a1024.170506 1024.170506 0 0 1-98.670463 39.633324L398.439277 237.387097a17.133156 17.133156 0 0 1-2.993141 0.928906l-12.695049 5.057377A165.964544 165.964544 0 0 0 346.833387 263.809313a75.034965 75.034965 0 0 0-23.73871 29.312146z" fill="#40A511" /><path d="M607.959193 216.12547l15.481768 15.378555a16.926732 16.926732 0 0 0 7.431248 4.850954 21.571262 21.571262 0 0 0 17.95885 0 16.926732 16.926732 0 0 0 7.431248-4.850954l3.715624-4.64453a23.325863 23.325863 0 0 0 3.096354-11.766143l-0.825695-6.192707a22.396957 22.396957 0 0 0-5.986283-10.321178l-15.481767-15.481767a16.720309 16.720309 0 0 0-7.431248-4.747742 20.642356 20.642356 0 0 0-17.95885 0 16.720309 16.720309 0 0 0-7.431249 4.747742l-3.612412 4.747742a22.396957 22.396957 0 0 0-3.199565 11.766143l0.825694 6.089495a23.119439 23.119439 0 0 0 5.986283 10.321178z" fill="#CAFFAB" /><path d="M800.13953 374.761978a183.923394 183.923394 0 0 1 19.71345 21.364839l-3.612412-4.644531a171.021922 171.021922 0 0 1 21.880898 37.569089l-2.270659-5.883072c1.13533 2.786718 2.167447 5.573436 3.199565 8.360155a25.183675 25.183675 0 0 0 10.321178 13.830378 23.016227 23.016227 0 0 0 17.855638 2.373871A23.532286 23.532286 0 0 0 883.53465 419.452679a194.450996 194.450996 0 0 0-50.98662-77.512048 23.222651 23.222651 0 1 0-32.821347 32.821347zM884.15392 552.079818c29.931417 0 30.034628-46.548513 0-46.548513s-29.931417 46.548513 0 46.548513z" fill="#FFFFFF" /><path d="M529.208604 413.879243a80.608401 80.608401 0 0 0 25.596522 12.385414 41.284713 41.284713 0 0 0 30.963534-4.128471 13.93359 13.93359 0 1 0-14.036802-24.048346 22.809804 22.809804 0 0 1-3.5092 1.857813l3.302777-1.444965a28.176816 28.176816 0 0 1-5.77986 1.548176h3.715624a35.814488 35.814488 0 0 1-7.431248 0h3.612412a37.6723 37.6723 0 0 1-10.321178-2.88993l3.405989 1.444965a110.230182 110.230182 0 0 1-15.791403-8.773001 14.036802 14.036802 0 0 0-19.094179 4.954165 14.243226 14.243226 0 0 0 4.954165 19.09418z" fill="#40A511" /><path d="M471.513219 383.741403A132.420715 132.420715 0 0 0 522.293415 405.725512a95.883745 95.883745 0 0 0 61.927069-2.993141c35.092006-13.520743 72.248247-29.724993 98.773674-57.282539 12.488626-12.901473-7.224825-32.614923-19.71345-19.71345-21.880898 22.706592-51.605891 35.504853-80.298766 47.580631a73.693212 73.693212 0 0 1-47.683843 6.915189A112.500842 112.500842 0 0 1 491.329881 364.027953a14.346438 14.346438 0 0 0-19.713451 0 13.93359 13.93359 0 0 0 0 19.71345z" fill="#40A511" /><path d="M494.21981 396.33324a130.97575 130.97575 0 0 0 36.020912 30.963535c13.727167 7.844095 36.536971 19.816662 49.954502 5.160589a13.93359 13.93359 0 1 0-19.71345-19.713451c-1.548177 1.651389 1.13533 0 1.857812-0.928906s-1.238541 0 1.13533 0h0.309635a22.913015 22.913015 0 0 0-4.025259-1.135329 22.087321 22.087321 0 0 1-4.334895-1.651389c0.825694 0 1.857812 0.825694 0 0l-2.167448-1.651388c-1.444965-0.722482-2.88993-1.341753-4.334894-2.167448a82.569425 82.569425 0 0 1-8.360155-4.747742c-2.580295-1.548177-5.057377-3.302777-7.53446-5.057377s-1.651389-1.032118 0 0a18.887756 18.887756 0 0 1-1.651388-1.341753l-3.612413-3.096353a111.984783 111.984783 0 0 1-13.727167-14.243226 13.93359 13.93359 0 0 0-19.71345 0 14.243226 14.243226 0 0 0 0 19.71345z" fill="#40A511" /><path d="M530.13751 422.239397a14.036802 14.036802 0 0 0 0-27.970392 14.036802 14.036802 0 0 0 0 27.970392z" fill="#40A511" /><path d="M168.58664 237.387097a45.413184 45.413184 0 0 0 6.502343 12.798261 72.248247 72.248247 0 0 0 5.676648 6.708766 51.605891 51.605891 0 0 0 7.018401 5.573436 10.321178 10.321178 0 0 0 5.160589 1.651388 11.353296 11.353296 0 0 0 5.573436 0 11.043661 11.043661 0 0 0 4.747742-2.477082 10.940449 10.940449 0 0 0 3.612412-3.922048 14.243226 14.243226 0 0 0 1.444965-10.837237l-1.444965-3.302777a14.243226 14.243226 0 0 0-4.541318-5.160589l-1.961024-1.032118 2.786718 2.167447a34.059888 34.059888 0 0 1-6.089495-6.089495l2.167448 2.786718a34.472735 34.472735 0 0 1-4.438107-7.53446l1.444965 3.302777c0-0.619271-0.516059-1.238541-0.825694-1.961023a10.321178 10.321178 0 0 0-2.477083-4.747742 10.321178 10.321178 0 0 0-3.922048-3.509201 9.28906 9.28906 0 0 0-5.160589-1.651388 10.321178 10.321178 0 0 0-5.573436 0 14.759285 14.759285 0 0 0-8.360154 6.39913 13.93359 13.93359 0 0 0-1.341754 10.321178zM354.471059 21.158415a36.330547 36.330547 0 0 0 0 10.321178 31.995652 31.995652 0 0 0 2.064235 10.321178 10.321178 10.321178 0 0 0 2.477083 4.747742 11.043661 11.043661 0 0 0 3.922048 3.612413 11.250084 11.250084 0 0 0 5.160589 1.651388 10.321178 10.321178 0 0 0 5.573436 0l3.302777-1.341753a13.93359 13.93359 0 0 0 5.057377-5.057377l0.825694-4.128471a13.004684 13.004684 0 0 0 0-7.431249 27.351122 27.351122 0 0 1-1.548176-5.883071v3.715624a32.098864 32.098864 0 0 1 0-6.295919v3.715624a11.353296 11.353296 0 0 0 0-5.573436 10.321178 10.321178 0 0 0-1.651389-5.160589 11.043661 11.043661 0 0 0-3.612412-3.922048 10.321178 10.321178 0 0 0-4.747742-2.477082l-3.818836-1.032118a13.107896 13.107896 0 0 0-7.018401 1.961024l-2.786718 2.167447a12.695049 12.695049 0 0 0-3.612413 6.089495z" fill="#87CC5E" /></svg>