<?xml version="1.0" standalone="no"?><!DOCTYPE svg PUBLIC "-//W3C//DTD SVG 1.1//EN" "http://www.w3.org/Graphics/SVG/1.1/DTD/svg11.dtd"><svg class="icon" width="48px" height="48.00px" viewBox="0 0 1024 1024" version="1.1" xmlns="http://www.w3.org/2000/svg"><path d="M512 142.090657A369.909343 369.909343 0 1 1 142.090657 512 369.909343 369.909343 0 0 1 512 142.090657m0-142.090657a512 512 0 1 0 512 512A512 512 0 0 0 512 0z" fill="#F9BBB8" /><path d="M512 84.780759a426.27197 426.27197 0 1 0 426.27197 426.27197 426.27197 426.27197 0 0 0-426.27197-426.27197z m38.838113 421.061979v2.841813a37.417206 37.417206 0 0 1-10.419982 29.839038l-94.727104 99.937096a38.838113 38.838113 0 1 1-55.888992-53.99445L473.635523 495.896392V311.652174a38.838113 38.838113 0 0 1 77.676225 0z" fill="#F55E55" /></svg>