<?xml version="1.0" standalone="no"?><!DOCTYPE svg PUBLIC "-//W3C//DTD SVG 1.1//EN" "http://www.w3.org/Graphics/SVG/1.1/DTD/svg11.dtd"><svg class="icon" width="48px" height="48.00px" viewBox="0 0 1024 1024" version="1.1" xmlns="http://www.w3.org/2000/svg"><path d="M490.666667 740.266667a64 64 0 0 1 10.88-85.333334l5.333333-4.693333a44.586667 44.586667 0 0 1 29.653333-10.24 44.8 44.8 0 0 0 28.16-9.813333L733.013333 490.666667l-144.213333-4.053334-287.786667 227.2z" fill="#7986CB" /><path d="M384 682.666667a128 128 0 1 0 128 128 128 128 0 0 0-128-128z m0 192a64 64 0 1 1 64-64 64 64 0 0 1-64 64z" fill="#7986CB" /><path d="M502.4 554.666667h153.386667l77.226666-64-144.426666-4.053334L502.4 554.666667z" fill="#5C6BC0" /><path d="M686.293333 518.613333L789.333333 106.666667l-19.413333 4.48a151.893333 151.893333 0 0 0-107.946667 91.733333l-108.586666 272z" fill="#7986CB" /><path d="M597.333333 405.333333H384a42.666667 42.666667 0 0 1-42.666667-42.666666l-128 128h226.346667A72.533333 72.533333 0 0 1 490.666667 512a71.893333 71.893333 0 0 0 51.626666 21.333333H682.666667l217.6-174.08a99.84 99.84 0 0 0 36.693333-90.026666L930.986667 213.333333z" fill="#9FA8DA" /><path d="M213.333333 234.666667a128 128 0 1 0 128 128 128 128 0 0 0-128-128z m0 192a64 64 0 1 1 64-64 64 64 0 0 1-64 64z" fill="#9FA8DA" /><path d="M651.093333 458.666667m-32 0a32 32 0 1 0 64 0 32 32 0 1 0-64 0Z" fill="#5C6BC0" /></svg>