<?xml version="1.0" standalone="no"?><!DOCTYPE svg PUBLIC "-//W3C//DTD SVG 1.1//EN" "http://www.w3.org/Graphics/SVG/1.1/DTD/svg11.dtd"><svg class="icon" width="48px" height="36.01px" viewBox="0 0 1365 1024" version="1.1" xmlns="http://www.w3.org/2000/svg"><path d="M512 512m-142.222222 0a142.222222 142.222222 0 1 0 284.444444 0 142.222222 142.222222 0 1 0-284.444444 0Z" fill="#F9BBB8" /><path d="M1063.253333 0H302.08A302.08 302.08 0 0 0 0 302.08v419.84A302.08 302.08 0 0 0 302.08 1024h761.173333A302.08 302.08 0 0 0 1365.333333 721.92V302.08A302.08 302.08 0 0 0 1063.253333 0zM512 739.555556a227.555556 227.555556 0 1 1 227.555556-227.555556 227.555556 227.555556 0 0 1-227.555556 227.555556z m512-341.333334h-113.777778a56.888889 56.888889 0 0 1 0-113.777778h113.777778a56.888889 56.888889 0 0 1 0 113.777778z" fill="#F55E55" /></svg>