<?xml version="1.0" standalone="no"?><!DOCTYPE svg PUBLIC "-//W3C//DTD SVG 1.1//EN" "http://www.w3.org/Graphics/SVG/1.1/DTD/svg11.dtd"><svg class="icon" width="48px" height="48.00px" viewBox="0 0 1024 1024" version="1.1" xmlns="http://www.w3.org/2000/svg"><path d="M770.451445 96.784102c32.761419 0 59.328655 30.341816 59.328654 67.748872v694.861464c0 38.713641-27.801233 67.748872-59.256066 67.748871a52.9651 52.9651 0 0 1-20.15529-4.064932l-218.296543-89.525295a52.456984 52.456984 0 0 0-40.141206 0l-218.296543 89.525295a52.9651 52.9651 0 0 1-20.15529 4.064932c-31.454833 0-59.256067-29.035231-59.256066-67.748871V164.532974c0-37.407056 26.615628-67.748872 59.35285-67.748872h516.8755m0-96.784102H253.575945a152.967274 152.967274 0 0 0-114.785945 52.868316A169.106023 169.106023 0 0 0 97.438992 164.532974v694.861464a168.694691 168.694691 0 0 0 42.633397 113.140616 153.23343 153.23343 0 0 0 113.406772 51.464946A149.57983 149.57983 0 0 0 310.364017 1012.700456l201.625482-82.750408 201.625481 82.750408a149.555634 149.555634 0 0 0 56.884857 11.299544 153.23343 153.23343 0 0 0 113.406772-51.464946 168.743083 168.743083 0 0 0 42.633397-113.140616V164.532974a169.106023 169.106023 0 0 0-41.351008-111.664658A152.943078 152.943078 0 0 0 770.451445 0z" fill="#0D0A16" /><path d="M529.362245 240.532691L564.422286 311.52383a19.35682 19.35682 0 0 0 14.517616 10.573663l78.346731 11.396328a19.35682 19.35682 0 0 1 10.718839 33.003379l-56.691288 55.263722a19.35682 19.35682 0 0 0-5.565086 17.130787l13.380402 78.007986a19.35682 19.35682 0 0 1-28.091585 20.421446l-70.047495-36.850547a19.35682 19.35682 0 0 0-18.026039 0l-70.168474 36.850547a19.35682 19.35682 0 0 1-28.091586-20.421446l13.380403-78.007986a19.35682 19.35682 0 0 0-5.565086-17.130787l-56.691288-55.263722a19.35682 19.35682 0 0 1 10.743035-33.003379l78.322535-11.396328a19.35682 19.35682 0 0 0 14.517615-10.573663l35.035845-70.991139a19.35682 19.35682 0 0 1 34.914865 0z" fill="#4169E1" /></svg>