<?xml version="1.0" standalone="no"?><!DOCTYPE svg PUBLIC "-//W3C//DTD SVG 1.1//EN" "http://www.w3.org/Graphics/SVG/1.1/DTD/svg11.dtd"><svg class="icon" width="48px" height="48.00px" viewBox="0 0 1024 1024" version="1.1" xmlns="http://www.w3.org/2000/svg"><path d="M512 1024C229.232 1024 0 794.768 0 512 0 229.232 229.232 0 512 0c282.768 0 512 229.232 512 512 0 282.768-229.232 512-512 512z m0-40c260.68 0 472-211.32 472-472S772.68 40 512 40 40 251.32 40 512s211.32 472 472 472z" fill="#2c2c2c" /><path d="M512 220l277.708 201.768-106.076 326.464H340.368l-106.08-326.464z" fill="#4169E1" /><path d="M685.22 721.692l12.32-49.4 38.812 9.676-29.032 116.436-38.812-9.68 0.096-0.388-78.012-19.452 9.676-38.812 50.96 12.708-49.88-83.02 34.28-20.6 49.592 82.532zM365.292 743.64l50.14-8.84 6.944 39.392-118.176 20.84-6.948-39.396 0.4-0.068-13.964-79.18 39.392-6.948 9.12 51.72 55.552-79.336 32.768 22.944-55.228 78.872zM492 236.852l-36 36-28.284-28.28 84.852-84.856L540.852 188l-0.28 0.284 56.848 56.852-28.28 28.284L532 236.284v96.852h-40v-96.28z" fill="#2c2c2c" /></svg>