<?xml version="1.0" standalone="no"?><!DOCTYPE svg PUBLIC "-//W3C//DTD SVG 1.1//EN" "http://www.w3.org/Graphics/SVG/1.1/DTD/svg11.dtd"><svg class="icon" width="48px" height="47.31px" viewBox="0 0 1039 1024" version="1.1" xmlns="http://www.w3.org/2000/svg"><path d="M254.08 0m71.68 0l386.56 0q71.68 0 71.68 71.68l0 386.56q0 71.68-71.68 71.68l-386.56 0q-71.68 0-71.68-71.68l0-386.56q0-71.68 71.68-71.68Z" fill="#4169E1" /><path d="M372.8384 493.1328H254.08a51.2 51.2 0 0 1 0-102.4h118.7584a51.2 51.2 0 0 1 0 102.4z" fill="#0D0A16" /><path d="M865.28 205.3632H174.08a174.2592 174.2592 0 0 0-174.08 174.08v368.64a174.2592 174.2592 0 0 0 171.264 174.08A153.856 153.856 0 0 0 315.904 1024h409.6a153.8304 153.8304 0 0 0 144.64-101.9648 174.2336 174.2336 0 0 0 169.216-173.952v-368.64a174.2592 174.2592 0 0 0-174.08-174.08zM725.504 921.6h-409.6a51.2 51.2 0 1 1 0-102.4h409.6a51.2 51.2 0 0 1 0 102.4z m211.456-173.5168a71.68 71.68 0 0 1-66.56 71.4752A153.8048 153.8048 0 0 0 725.504 716.8h-409.6a153.8816 153.8816 0 0 0-144.9728 102.8864 71.68 71.68 0 0 1-68.5312-71.68v-368.64a71.68 71.68 0 0 1 71.68-71.68h691.2a71.68 71.68 0 0 1 71.68 71.68z" fill="#0D0A16" /></svg>