<?xml version="1.0" standalone="no"?><!DOCTYPE svg PUBLIC "-//W3C//DTD SVG 1.1//EN" "http://www.w3.org/Graphics/SVG/1.1/DTD/svg11.dtd"><svg class="icon" width="48px" height="48.00px" viewBox="0 0 1024 1024" version="1.1" xmlns="http://www.w3.org/2000/svg"><path d="M320.1 235.5c-35.2 0-64-28.9-64-64.2V64.2c0-35.3 28.8-64.2 64-64.2s64 28.9 64 64.2v107.1c0 35.3-28.8 64.2-64 64.2z m383.8 0c-35.2 0-64-28.9-64-64.2V64.2c0-35.3 28.8-64.2 64-64.2s64 28.9 64 64.2v107.1c-0.1 35.3-28.9 64.2-64 64.2z m17.8-7.5" fill="#ffffff" /><path d="M919.1 96.3H104.9C71 96.3 43 123.9 43 157.5v804.8c0 34 27.9 61.7 62.4 61.7h813.3c34.4 0 62.4-27.6 62.4-61.7V157.5c-0.6-33.6-28-61.2-62-61.2z m-147 460.4l-267.9 269c-15.5 15.5-40.9 15.5-56.4 0l-169-169.8c-15.5-15.5-15.5-41.1 0-56.6s40.9-15.5 56.4 0L476.3 741l239.9-241c15.5-15.5 40.9-15.5 56.4 0 14.9 15.6 14.9 41.1-0.5 56.7z m173.2-389.8c-0.5 12.1-0.5 29-1 49.5-0.5 17.4-0.5 34.8-0.5 48.5H128.3V145.3c0-3.7 3.2-6.9 7.4-6.9h802.9c4.2 0 7.4 3.2 7.4 6.9-0.7 6.3-0.7 14.2-0.7 21.6z m-45.5 18" fill="#ffffff" /></svg>