<?xml version="1.0" standalone="no"?><!DOCTYPE svg PUBLIC "-//W3C//DTD SVG 1.1//EN" "http://www.w3.org/Graphics/SVG/1.1/DTD/svg11.dtd"><svg class="icon" width="48px" height="48.00px" viewBox="0 0 1024 1024" version="1.1" xmlns="http://www.w3.org/2000/svg"><path d="M512 0c409.6 0 512 102.4 512 512S921.6 1024 512 1024 0 921.6 0 512 102.4 0 512 0z" fill="#242424" /><path d="M827.017509 367.335131h-119.661715L692.282514 313.051429c-4.686994-16.688274-19.204389-27.659703-36.571428-27.659703H391.694629c-17.36704 0-31.884434 11.088457-36.571429 27.659703l-15.084983 54.283702H220.388206c-20.913006 0-37.940663 16.91648-37.940663 37.829486v365.831314c0 20.913006 17.027657 37.829486 37.940663 37.829486h606.74048c20.918857 0 37.946514-16.91648 37.946514-37.829486v-365.831314a38.069394 38.069394 0 0 0-38.057691-37.829486zM523.702857 758.421211c-104.682057 0-189.597989-84.681874-189.597988-189.141577 0-104.459703 84.91008-189.141577 189.597988-189.141577 104.682057 0 189.597989 84.681874 189.597989 189.141577 0 104.342674-84.91008 189.141577-189.597989 189.141577z" fill="#000000" /><path d="M341.372343 534.059886a170.218057 170.218057 0 0 0 85.313828 147.467703 170.92608 170.92608 0 0 0 170.627658 0 170.218057 170.218057 0 0 0 85.313828-147.467703c0-94.050011-76.3904-170.288274-170.627657-170.288275S341.372343 440.015726 341.372343 534.059886zM214.969783 313.373257h88.456046a12.633234 12.633234 0 0 0 12.685897-12.57472 12.633234 12.633234 0 0 0-12.685897-12.568868H214.969783a12.633234 12.633234 0 0 0-12.685897 12.568868c0 6.857874 5.716846 12.57472 12.685897 12.57472z" fill="#FFFFFF" /><path d="M815.314651 332.22656h-119.661714L680.579657 277.942857c-4.686994-16.688274-19.204389-27.659703-36.571428-27.659703H379.991771c-17.36704 0-31.884434 11.088457-36.571428 27.659703l-15.084983 54.283703H208.685349c-20.913006 0-37.940663 16.91648-37.940663 37.829486v365.831314c0 20.913006 17.027657 37.829486 37.940663 37.829486h606.74048c20.918857 0 37.946514-16.91648 37.946514-37.829486v-365.831314a38.069394 38.069394 0 0 0-38.057692-37.829486zM512 723.31264c-104.682057 0-189.597989-84.681874-189.597989-189.141577 0-104.459703 84.91008-189.141577 189.597989-189.141577 104.682057 0 189.597989 84.681874 189.597989 189.141577 0 104.342674-84.91008 189.141577-189.597989 189.141577z" fill="#FFFFFF" /><path d="M665.717029 369.944869a11.42784 11.42784 0 1 0 22.85568 0 11.42784 11.42784 0 0 0-22.85568 0z" fill="#E93F33" /></svg>