<?xml version="1.0" standalone="no"?><!DOCTYPE svg PUBLIC "-//W3C//DTD SVG 1.1//EN" "http://www.w3.org/Graphics/SVG/1.1/DTD/svg11.dtd"><svg class="icon" width="48px" height="48.00px" viewBox="0 0 1024 1024" version="1.1" xmlns="http://www.w3.org/2000/svg"><path d="M945.05 310.01H78.95c-27.71 0-50.18 22.47-50.18 50.18v416.34c0 9.24 7.49 16.73 16.73 16.73h17.1c5.54 0 10.04-4.49 10.04-10.04V439.77c0-5.49 4.45-9.94 9.94-9.94h25.05c5.49 0 9.94 4.45 9.94 9.94v343.45c0 5.54 4.49 10.04 10.04 10.04h10.65c5.54 0 10.04-4.49 10.04-10.04V439.77c0-5.49 4.45-9.94 9.94-9.94h25.05c5.49 0 9.94 4.45 9.94 9.94v343.45c0 5.54 4.49 10.04 10.04 10.04h10.65c5.54 0 10.04-4.49 10.04-10.04V439.77c0-5.49 4.45-9.94 9.94-9.94h24.37c5.49 0 9.94 4.45 9.94 9.94v343.45c0 5.54 4.49 10.04 10.04 10.04h13.04c5.54 0 10.04-4.49 10.04-10.04V439.77c0-5.49 4.45-9.94 9.94-9.94h22.88c5.49 0 9.94 4.45 9.94 9.94v343.45c0 5.54 4.49 10.04 10.04 10.04h10.65c5.54 0 10.04-4.49 10.04-10.04V439.77c0-5.49 4.45-9.94 9.94-9.94h25.05c5.49 0 9.94 4.45 9.94 9.94v343.45c0 5.54 4.49 10.04 10.04 10.04h10.65c5.54 0 10.04-4.49 10.04-10.04V439.77c0-5.49 4.45-9.94 9.94-9.94h24.37c5.49 0 9.94 4.45 9.94 9.94v343.45c0 5.54 4.49 10.04 10.04 10.04h13.04c5.54 0 10.04-4.49 10.04-10.04V439.77c0-5.49 4.45-9.94 9.94-9.94h22.88c5.49 0 9.94 4.45 9.94 9.94v343.45c0 5.54 4.49 10.04 10.04 10.04h10.12c5.54 0 10.04-4.49 10.04-10.04V439.77c0-5.49 4.45-9.94 9.94-9.94h25.82c5.49 0 9.94 4.45 9.94 9.94v343.45c0 5.54 4.49 10.04 10.04 10.04h10.12c5.54 0 10.04-4.49 10.04-10.04V439.77c0-5.49 4.45-9.94 9.94-9.94h24.19c5.49 0 9.94 4.45 9.94 9.94v343.45c0 5.54 4.49 10.04 10.04 10.04h11.28c5.54 0 10.04-4.49 10.04-10.04V439.77c0-5.49 4.45-9.94 9.94-9.94h26.39c5.49 0 9.94 4.45 9.94 9.94v343.45c0 5.54 4.49 10.04 10.04 10.04h6.83c5.54 0 10.04-4.49 10.04-10.04V439.77c0-5.49 4.45-9.94 9.94-9.94h26.39c5.49 0 9.94 4.45 9.94 9.94v343.45c0 5.54 4.49 10.04 10.04 10.04h11.75c5.54 0 10.04-4.49 10.04-10.04V439.77c0-5.49 4.45-9.94 9.94-9.94h26.39c5.49 0 9.94 4.45 9.94 9.94v343.55c0 5.49 4.45 9.94 9.94 9.94h19.08c9.24 0 16.73-7.49 16.73-16.73V360.19c-0.22-27.72-22.68-50.18-50.39-50.18z m-39.59 42.5H99.82c0-11.42 9.25-20.67 20.67-20.67h764.3c11.42 0 20.67 9.25 20.67 20.67z" fill="#B0E3FE" /><path d="M588.95 222.11c-5.69-37.39-37.98-66.04-76.95-66.04-38.97 0-71.27 28.64-76.96 66.04-75.06 12.02-128 41.1-128 75.06h409.93c-0.01-33.97-52.96-63.04-128.02-75.06z" fill="#F7BF4D" /></svg>