<?xml version="1.0" standalone="no"?><!DOCTYPE svg PUBLIC "-//W3C//DTD SVG 1.1//EN" "http://www.w3.org/Graphics/SVG/1.1/DTD/svg11.dtd"><svg class="icon" width="48px" height="48.00px" viewBox="0 0 1024 1024" version="1.1" xmlns="http://www.w3.org/2000/svg"><path d="M256 914.3h512c20.2 0 36.6 16.4 36.6 36.6 0 20.2-16.4 36.6-36.6 36.6H256c-20.2 0-36.6-16.4-36.6-36.6 0-20.2 16.4-36.6 36.6-36.6zM877.7 36.5H146.3C65.5 36.5 0 102 0 182.8v512.1c0 80.8 65.5 146.3 146.3 146.3h731.4c80.8 0 146.3-65.5 146.3-146.3V182.8c0-80.8-65.5-146.3-146.3-146.3zM670.4 631.1c-21.1 21.8-55.8 22.4-77.6 1.3l-79.3-76.7-76.4 79c-21.1 21.8-55.8 22.4-77.6 1.3-21.8-21.1-22.4-55.8-1.3-77.6l76.4-79-78.5-75.9c-21.8-21.1-22.4-55.8-1.3-77.6 21.1-21.8 55.8-22.4 77.6-1.3l78.5 75.9 76.1-78.8c21.1-21.8 55.8-22.4 77.6-1.3 21.8 21.1 22.4 55.8 1.3 77.6l-76.1 78.8 79.3 76.7c21.7 21.1 22.3 55.9 1.3 77.6z" fill="#ffffff" /></svg>