<?xml version="1.0" standalone="no"?><!DOCTYPE svg PUBLIC "-//W3C//DTD SVG 1.1//EN" "http://www.w3.org/Graphics/SVG/1.1/DTD/svg11.dtd"><svg class="icon" width="48px" height="48.00px" viewBox="0 0 1024 1024" version="1.1" xmlns="http://www.w3.org/2000/svg"><path d="M245.2 912.5c-8.3 0-15.9-3.4-21.4-8.9s-8.9-13-8.9-21.4v-92.9c0-16.7 13.5-30.2 30.2-30.2 8.3 0 15.9 3.4 21.4 8.9s8.9 13 8.9 21.4v92.9c0.1 16.5-13.5 30.2-30.2 30.2z" fill="#90EB7A" /><path d="M370.5 912.5c-8.3 0-15.9-3.4-21.4-8.9s-8.9-13-8.9-21.4v-42.9c0-16.7 13.5-30.2 30.2-30.2 8.3 0 15.9 3.4 21.4 8.9s8.9 13 8.9 21.4v42.9c0.1 16.5-13.5 30.2-30.2 30.2z" fill="#00AD95" /><path d="M814.7 892c-8.3 0-15.9-3.4-21.4-8.9s-8.9-13-8.9-21.4v-92.9c0-16.7 13.5-30.2 30.2-30.2 8.3 0 15.9 3.4 21.4 8.9s8.9 13 8.9 21.4v92.9c0 16.5-13.5 30.2-30.2 30.2z" fill="#008486" /><path d="M541.3 342.9v545.4c0 6.2-5.1 11.3-11.3 11.3h-46.4c-6.2 0-11.3-5.1-11.3-11.3V342.9c0-6.2 5.1-11.3 11.3-11.3H530c6.2-0.1 11.3 4.9 11.3 11.3z" fill="#B05C25" /><path d="M541.3 342.9v545.4c0 6.2-5.1 11.3-11.3 11.3h-24.6v-568H530c6.2-0.1 11.3 4.9 11.3 11.3zM428.5 795.3c-5.1 0-9.5-3.9-10-9.1-9.2-105.8 32.4-239.2 34.2-244.8 1.7-5.3 7.3-8.2 12.5-6.5 5.3 1.7 8.2 7.3 6.5 12.5-0.1 0.3-10.7 34.2-20.1 80.3-8.6 42.3-17.9 103.8-13.3 156.8 0.5 5.5-3.6 10.4-9.1 10.8h-0.7zM393.4 725.2c-5.1 0-9.5-3.9-10-9.1-9.2-105.8 32.4-239.2 34.2-244.8 1.7-5.3 7.3-8.2 12.5-6.5 5.3 1.7 8.2 7.3 6.5 12.5-0.1 0.3-10.7 34.2-20.1 80.3-8.6 42.3-17.9 103.8-13.3 156.8 0.5 5.5-3.6 10.4-9.1 10.8h-0.7zM336.7 845.8c-5.1 0-9.5-3.9-10-9.1-9.2-105.8 32.4-239.2 34.2-244.8 1.7-5.3 7.3-8.2 12.5-6.5 5.3 1.7 8.2 7.3 6.5 12.5-0.1 0.3-10.7 34.2-20.1 80.3-8.6 42.3-17.9 103.8-13.3 156.8 0.5 5.5-3.6 10.4-9.1 10.8h-0.7zM253 789.2c-0.4 0-0.8 0-1.3-0.1-5.5-0.7-9.4-5.7-8.7-11.2 13.4-105.4 82.4-226.9 85.3-232 2.7-4.8 8.9-6.5 13.6-3.7 4.8 2.7 6.5 8.8 3.7 13.6-0.2 0.3-17.7 31.1-36.7 74.2-17.4 39.5-39.4 97.6-46.2 150.4-0.5 5.1-4.8 8.8-9.7 8.8zM627.7 805.2h-0.9c-5.5-0.5-9.6-5.3-9.1-10.8 2.6-29.3 2.3-80.3-13.3-157-9.4-46.1-20-79.7-20.1-80.1-1.7-5.3 1.3-10.9 6.5-12.5 5.3-1.7 10.9 1.3 12.5 6.5 1.8 5.6 43.4 139 34.2 244.8-0.3 5.2-4.7 9.1-9.8 9.1z" fill="#8E4A1F" /><path d="M597.6 739h-0.9c-5.5-0.5-9.6-5.3-9.1-10.8 2.5-29.3 2.3-80.2-13.3-156.8-9.4-46.1-20-79.9-20.1-80.3-1.7-5.3 1.3-10.9 6.5-12.5 5.3-1.7 10.9 1.3 12.5 6.5 1.8 5.6 43.4 139 34.2 244.8-0.3 5.3-4.6 9.1-9.8 9.1zM659.8 774.5c-1.3 0-2.7-0.3-4-0.8-5.1-2.2-7.4-8.1-5.2-13.1 11.7-27 27.5-75.5 36.9-153.2 5.6-46.7 6.2-81.9 6.2-82.3 0.1-5.5 4.5-9.9 10-9.9h0.2c5.5 0.1 9.9 4.6 9.9 10.1-0.1 5.9-2.6 145.6-44.7 243.1-1.7 3.9-5.4 6.1-9.3 6.1z" fill="#8E4A1F" /><path d="M787.8 748.5c-5 0-9.3-3.7-9.9-8.7-6.7-52.8-28.9-111.1-46.3-150.6-18.9-43-36.4-73.7-36.6-74-2.7-4.8-1.1-10.9 3.7-13.6 4.8-2.7 10.9-1.1 13.6 3.7 2.9 5.1 71.9 126.6 85.3 232 0.7 5.5-3.2 10.5-8.7 11.2h-1.1z" fill="#8E4A1F" /><path d="M955.8 501.2c0 59.3-66.2 107.4-147.8 107.4-10.1 0-19.9-0.7-29.4-2.1-25.9 16.3-59.7 26.2-96.7 26.2-30.8 0-59.4-6.9-83-18.5-25.6 15-58.1 24-93.5 24h-0.5c-42.6 0-80.9-13.2-107.8-34.2-34.2 18.1-76.2 28.7-121.7 28.7-114.5 0-207.2-67.4-207.2-150.6 0-42.6 24.3-81 63.5-108.4-3.1-10.4-4.8-21.2-4.8-32.3 0-72.8 71.1-133.6 165.7-147.5 42-54 121.3-90.8 212.4-92h4.5c106.3 0 197 48.4 232.7 116.5 109 4.3 195.6 69.9 195.6 150.3 0 22.1-6.6 43.2-18.4 62.1 22.7 18.8 36.4 43.4 36.4 70.4z" fill="#90EB7A" /><path d="M955.8 501.2c0 59.3-66.2 107.4-147.8 107.4-10.1 0-19.9-0.7-29.4-2.1-25.9 16.3-59.7 26.2-96.7 26.2-30.8 0-59.4-6.9-83-18.5-25.6 15-58.1 24-93.5 24h-0.5V101.8h4.5c106.3 0 197 48.4 232.7 116.5 109.1 4.3 195.7 69.9 195.7 150.3 0 22.1-6.6 43.2-18.4 62.1 22.7 18.9 36.4 43.5 36.4 70.5z" fill="#00D16C" /><path d="M126.9 341.5a207.2 150.6 0 1 0 414.4 0 207.2 150.6 0 1 0-414.4 0Z" fill="#00D16C" /><path d="M68.2 482.1a207.2 150.6 0 1 0 414.4 0 207.2 150.6 0 1 0-414.4 0Z" fill="#00AD95" /><path d="M534 525.3a147.8 107.4 0 1 0 295.6 0 147.8 107.4 0 1 0-295.6 0Z" fill="#008486" /><path d="M523.4 368.6a207.2 150.6 0 1 0 414.4 0 207.2 150.6 0 1 0-414.4 0Z" fill="#00AD95" /><path d="M643.6 496.7a157.3 114.3 0 1 0 314.6 0 157.3 114.3 0 1 0-314.6 0Z" fill="#008486" /><path d="M653.2 531c0 59.3-66.2 107.4-147.8 107.4h-0.5c-81.4-0.2-147.3-48.2-147.3-107.4s65.9-107.2 147.3-107.4h0.5c81.6-0.1 147.8 47.9 147.8 107.4z" fill="#90EB7A" /><path d="M653.2 531c0 59.3-66.2 107.4-147.8 107.4h-0.5V423.5h0.5c81.6 0 147.8 48 147.8 107.5z" fill="#00D16C" /><path d="M926.8 891.8c0 8.3-3.4 15.9-8.9 21.4s-13 8.9-21.4 8.9H117c-16.7 0-30.2-13.5-30.2-30.2 0-8.3 3.4-15.9 8.9-21.4s13-8.9 21.4-8.9h779.5c16.7 0.1 30.2 13.6 30.2 30.2z" fill="#00D16C" /><path d="M926.8 891.8c0 8.3-3.4 15.9-8.9 21.4s-13 8.9-21.4 8.9H505.4v-60.5h391.2c16.7 0.1 30.2 13.6 30.2 30.2z" fill="#00AD95" /><path d="M965.8 494.3c0-14.4-3.2-28.4-9.7-41.8-5.1-10.7-12.1-20.7-20.9-29.9 1.6-3.4 3.1-6.9 4.5-10.5 0.5-1.4 1-2.8 1.5-4.1v-0.1c0-0.1 0-0.2 0.1-0.3 0.5-1.5 0.9-2.6 1.2-3.7 0-0.1 0-0.1 0.1-0.2 0-0.1 0.1-0.2 0.1-0.3 0.4-1.4 0.7-2.6 1-3.6 0.1-0.3 0.2-0.5 0.2-0.8 0.3-1 0.5-2.2 0.9-3.5 0.1-0.3 0.1-0.6 0.2-0.8 0.2-1.1 0.5-2.2 0.7-3.4 0.1-0.3 0.1-0.7 0.2-1 0.2-1.2 0.4-2.3 0.6-3.3v-0.2c0-0.2 0.1-0.4 0.1-0.6v-0.3c0.1-1.1 0.3-2.2 0.4-3.2v-0.2c0-0.3 0.1-0.6 0.1-1 0.1-0.9 0.2-2 0.3-3.1v-0.3c0-0.3 0.1-0.6 0.1-0.9 0.1-0.9 0.1-1.8 0.2-2.6v-0.6c0-0.4 0-0.8 0.1-1.2 0.1-1.6 0.1-3 0.1-4.4 0-1.5 0-2.8-0.1-4.2v-1.3c0-0.8-0.1-1.7-0.1-2.5v-0.4-0.1l-0.1-1.4-0.1-0.8c0-0.6-0.1-1.2-0.2-1.8v-0.1c-0.1-0.5-0.1-1-0.2-1.6l-0.3-2.4v-0.2c0-0.3-0.1-0.5-0.1-0.8 0-0.2-0.1-0.4-0.1-0.6v-0.1l-0.1-0.8c-0.1-0.6-0.2-1.1-0.3-1.7-0.1-0.3-0.1-0.7-0.2-1 0-0.2-0.1-0.3-0.1-0.5v-0.2l-0.1-0.6-0.3-1.8c-0.1-0.4-0.2-0.7-0.2-1.1l-0.1-0.4v-0.2c-0.2-0.8-0.4-1.6-0.5-2.4l-0.3-1.3c-0.2-0.8-0.4-1.7-0.7-2.5v-0.1c-0.1-0.3-0.2-0.6-0.2-0.9l-0.1-0.5c-0.3-0.9-0.5-1.8-0.8-2.6v-0.1l-0.2-0.6-0.2-0.6c-0.3-0.8-0.6-1.7-0.8-2.5v-0.2c-0.1-0.4-0.3-0.8-0.4-1.2-0.3-0.9-0.6-1.7-1-2.6v-0.1l-0.2-0.5c-0.1-0.2-0.1-0.4-0.2-0.5 0-0.1-0.1-0.1-0.1-0.2-0.3-0.8-0.7-1.7-1.1-2.6-0.1-0.3-0.2-0.6-0.4-0.9l-0.1-0.2-1.2-2.7v-0.1c-0.1-0.3-0.3-0.6-0.4-0.9 0 0 0-0.1-0.1-0.2-0.4-0.8-0.8-1.7-1.3-2.6-0.2-0.3-0.3-0.6-0.5-0.9 0 0 0-0.1-0.1-0.1-0.5-0.9-0.9-1.8-1.4-2.7-0.2-0.3-0.3-0.7-0.5-1-0.5-1-1-1.8-1.5-2.7l-0.3-0.5-0.2-0.3v-0.1c-0.6-1-1.1-1.9-1.7-2.8v-0.1l-0.1-0.2c-0.1-0.2-0.2-0.4-0.4-0.6-0.6-0.9-1.2-1.8-1.7-2.7-0.1-0.1-0.1-0.2-0.2-0.3v-0.1c-0.1-0.1-0.2-0.3-0.3-0.4-0.7-1.1-1.3-1.9-1.9-2.7-0.1-0.2-0.3-0.4-0.5-0.7-0.7-1-1.4-1.9-2.1-2.9l-0.1-0.2-0.2-0.3v-0.1c-0.7-0.9-1.4-1.9-2.3-3 0-0.1-0.1-0.1-0.2-0.2 0-0.1-0.1-0.1-0.1-0.2-0.7-0.9-1.4-1.8-2.4-2.9-0.1-0.1-0.2-0.3-0.3-0.4-0.9-1.1-1.9-2.2-2.7-3.1 0-0.1-0.1-0.1-0.1-0.2-7.5-8.6-16.3-16.6-25.9-23.9-0.1-0.1-0.2-0.2-0.4-0.3-1.2-0.9-2.2-1.6-3.1-2.3l-0.9-0.6-0.3-0.2c-0.8-0.6-1.6-1.2-2.5-1.8-0.5-0.4-1.1-0.7-1.6-1.1-0.7-0.5-1.4-0.9-2.1-1.4h-0.1c-0.6-0.4-1.3-0.9-2-1.3l-1.8-1.2c-0.6-0.4-1.1-0.7-1.7-1.1l-0.6-0.4s-0.1 0-0.1-0.1c-0.2-0.1-0.4-0.2-0.6-0.4-0.3-0.2-0.5-0.3-0.8-0.5h-0.1c-0.9-0.5-1.7-1-2.6-1.5-0.2-0.1-0.3-0.2-0.5-0.3-0.2-0.2-0.5-0.3-0.7-0.4-0.9-0.5-1.8-1-2.8-1.6l-0.1-0.1c-0.1 0-0.1-0.1-0.2-0.1-0.2-0.1-0.5-0.3-0.8-0.4h-0.1c-1.1-0.6-2.2-1.2-3.2-1.7l-0.3-0.2-0.3-0.2s-0.1 0-0.1-0.1c-1.2-0.6-2.3-1.2-3.5-1.8h-0.1c-0.1-0.1-0.3-0.1-0.4-0.2-1.2-0.6-2.5-1.2-3.8-1.9h-0.1c-0.1 0-0.1-0.1-0.2-0.1-29.9-14.2-64.4-22.8-99.9-24.9-19.1-33.5-50.6-62.1-91.4-83-43.4-22.1-94.3-33.8-147.3-33.8h-4.7c-45.3 0.6-89.8 10-128.5 27.1-36.5 16.2-67.3 38.8-89.1 65.6-21.5 3.5-42 9.3-61.1 17.4-20 8.4-37.9 19.1-53.3 31.7-15.7 12.8-28.4 27.3-37.7 43.1-9.7 16.4-15.6 33.9-17.5 51.9v0.6c-0.1 1.1-0.2 2.2-0.3 3.5v0.5c-0.1 1.3-0.1 2.6-0.2 3.8v0.4c0 1.6-0.1 2.8-0.1 4v0.1c0 9.5 1.1 18.9 3.3 28.2l-0.1 0.1-0.4 0.3c-0.1 0.1-0.2 0.1-0.2 0.2-0.1 0.1-0.2 0.1-0.3 0.2-39.3 30-61 69.7-61 111.7v0.1c0 22.1 5.9 43.5 17.6 63.6 11.1 19.1 27 36.3 47.2 50.9 40.8 29.7 95 46 152.4 46 2.1 0 4.3 0 6.4-0.1-13.9 33.9-27.4 73-34.9 111.4h-1.8c-19.4 0-35.2 15.8-35.2 35.2v67.4h-92.8c-9.4 0-18.2 3.7-24.9 10.4-6.7 6.7-10.4 15.5-10.4 24.9 0 19.4 15.8 35.2 35.2 35.2h779.5c9.4 0 18.2-3.7 24.9-10.4 6.7-6.7 10.4-15.5 10.4-24.9 0-8.8-3.2-17.2-9.1-23.7-0.8-0.8-1.5-1.6-2.4-2.4-2.1-1.9-4.4-3.5-6.9-4.9-2.4-1.3-4.9-2.3-7.5-3-0.8-0.2-1.5-0.4-2.2-0.5-2.3-0.5-4.7-0.7-7.1-0.7h-46.7V768c0-9.4-3.7-18.2-10.4-24.9-6.7-6.7-15.5-10.4-24.9-10.4-6.1 0-11.9 1.6-16.9 4.4 0-0.2 0-0.4-0.1-0.6-4.8-37.7-16.7-77.5-30.2-113.2 4.1-1.9 8-4 11.8-6.3 6.4 0.5 12.9 0.8 19.2 0.8 1.6 0 3.2 0 4.8-0.1 1.6 0 3.1 0.1 4.7 0.1 41.6 0 80.8-11.9 110.4-33.4 14.7-10.7 26.3-23.2 34.4-37.2 8.6-14.8 13-30.5 13-46.8 0-1.1 0-2.2-0.1-3.4-0.5-0.4-0.5-1.5-0.5-2.7zM304 641.4c15.6-1.5 30.8-4.2 45.5-8.2-12.2 48.9-28.9 132.4-22.8 203.4 0.5 4.7 4.1 8.3 8.5 9v11h-54.8v-67.3c0-9.4-3.7-18.2-10.4-24.9-1.3-1.3-2.7-2.5-4.2-3.6 8.1-42.2 24-85.9 38.2-119.4z m79.4 74.8c0.5 5.2 4.9 9.1 10 9.1h0.7c5.5-0.4 9.6-5.3 9.1-10.8-2.6-29.7-0.8-62 2.8-92.2 7.5 4.5 15.5 8.5 24 11.9-8.8 45.9-15.8 102.1-11.4 152.1 0.5 5.2 4.9 9.1 10 9.1h0.7c5.5-0.4 9.6-5.3 9.1-10.8-4.1-47.8 3-102.5 10.8-143.9 4.3 1.2 8.7 2.3 13.2 3.2v212.7h-56.6v-17.3c0-9.4-3.7-18.2-10.4-24.9-6.7-6.7-15.5-10.4-24.9-10.4-9.8 0-18.6 4-25 10.5-1.2-47.8 6.9-99.4 14.4-136.3 4.1-20.3 8.5-38.3 12.1-52 4.8-1.8 9.5-3.6 14.1-5.7-3.8 31.6-5.4 64.8-2.7 95.7z m-38.2 124.6c1-1.7 1.5-3.8 1.3-5.9-0.1-1-0.2-2-0.2-3 3.1-10.4 12.8-17.9 24.1-17.9 6.7 0 13.1 2.6 17.9 7.4 4.8 4.8 7.4 11.1 7.4 17.9v17.3h-50.5v-15.8z m-125.3-51.6c0-13.9 11.3-25.2 25.1-25.2-0.8 4.6-1.5 9.2-2 13.8-0.7 5.5 3.2 10.5 8.7 11.2 0.5 0.1 0.9 0.1 1.3 0.1 4.9 0 9.2-3.7 9.7-8.8 0.3-2.6 0.7-5.3 1.1-7.9 4.2 4.7 6.6 10.6 6.6 16.9v67.3h-50.5v-67.4z m676.7 77.5c1.7 0 3.4 0.2 5.1 0.5 0.5 0.1 1 0.2 1.6 0.4 1.9 0.5 3.7 1.2 5.4 2.2 1.8 1 3.4 2.1 4.9 3.5 0.6 0.5 1.2 1.1 1.7 1.7 2.1 2.3 3.7 5 4.8 7.9 1.1 2.9 1.7 5.9 1.7 9.1 0 6.7-2.6 13.1-7.4 17.9-4.8 4.8-11.1 7.4-17.9 7.4H117c-13.9 0-25.2-11.3-25.2-25.2 0-6.7 2.6-13.1 7.4-17.9 4.8-4.8 11.1-7.4 17.9-7.4h779.5zM832.5 751c4.8 4.8 7.4 11.1 7.4 17.9v87.8h-50.5v-87.9c0-13.9 11.3-25.2 25.2-25.2 6.7-0.1 13.1 2.6 17.9 7.4z m-54.6-11.2c0.5 4.4 3.9 7.7 8 8.5-4.1 5.8-6.5 12.8-6.5 20.4v87.9H551.3V643.3c10.5-2.4 20.6-5.5 30.2-9.4 0.8-0.3 1.7-0.7 2.5-1.1l0.4-0.2c5.4 43.6 5 74.9 3.2 95.6-0.5 5.5 3.6 10.3 9.1 10.8h0.9c5.2 0 9.5-3.9 9.8-9.1 2.4-27.3 1.4-56.5-1.5-84.8 14.1 72.4 14.3 121 11.8 149.3-0.5 5.5 3.6 10.3 9.1 10.8h0.9c5.1 0 9.5-3.9 9.8-9.1 4.7-53.4-3.7-113.9-13.3-161.4 16.2 4.7 33.5 7.4 51.2 7.9h1c2.2 0 3.9 0.1 5.5 0.1h0.7c-9.4 57.5-22.1 95.2-31.9 117.9-2.2 5 0.1 10.9 5.2 13.1 1.3 0.5 2.7 0.8 4 0.8 3.9 0 7.6-2.2 9.3-6.1 17-39.2 27.5-85.3 34-126.8 16-1.6 31.4-5 45.8-10 12.5 33.6 24.3 72.2 28.9 108.2z m177.9-238.6c0 59.3-66.2 107.4-147.8 107.4-1.6 0-3.2 0-4.7-0.1-1.6 0-3.2 0.1-4.8 0.1-7.3 0-14.5-0.4-21.6-1.1-4.2 2.5-8.5 4.9-13.1 7.1-5.9 2.9-12.1 5.4-18.5 7.6-12.7 4.4-26.3 7.5-40.7 9.1-2.5 0.3-5.1 0.5-7.7 0.7h-0.1c-1.2 0.1-2.4 0.2-3.6 0.2h-0.2c-1.2 0.1-2.3 0.1-3.5 0.2h-0.2c-1.2 0-2.4 0.1-3.7 0.1H681.8c-1.8 0-3.5 0-5.2-0.1h-0.8c-19.1-0.6-37.3-3.8-53.9-9.1-6.8-2.2-13.3-4.7-19.6-7.6-1-0.4-2-0.9-2.9-1.4-0.2-0.1-0.4-0.2-0.5-0.3-5 2.9-10.3 5.6-15.8 8.1-0.3 0.2-0.7 0.3-1 0.5-0.5 0.2-0.9 0.4-1.4 0.6-1 0.4-2 0.8-3 1.3-11.3 4.6-23.5 8.2-36.4 10.5v221.5h-69v-221c-7.3-1.2-14.5-2.8-21.3-4.8-6.6-1.9-13-4.1-19.1-6.7-8.8-3.7-17-8-24.5-12.8-3.6-2.3-7-4.7-10.3-7.3-3.1 1.6-6.3 3.2-9.6 4.8-4 1.9-8.2 3.7-12.4 5.4-7.3 3-15 5.6-22.8 7.9-13.9 4-28.6 7-43.8 8.8-7.4 0.9-14.9 1.5-22.5 1.7-3.5 0.1-7 0.2-10.6 0.2-114.4 0-207.2-67.4-207.2-150.6v-0.1c0-40.2 21.7-76.7 57.1-103.7 0.1-0.1 0.3-0.2 0.4-0.3 1-0.8 2-1.5 3-2.2l0.9-0.6c0.7-0.5 1.3-1 2-1.5-3.1-10.4-4.8-21.2-4.8-32.2v-0.1c0-1.2 0-2.5 0.1-3.7v-0.3c0-1.2 0.1-2.3 0.2-3.5v-0.4c0.1-1.2 0.2-2.3 0.3-3.5v-0.2c7.1-67.6 75.6-122.7 165.1-135.9 21-27 51.3-49.7 87.7-65.8 36.4-16.1 79-25.6 124.6-26.2h4.6c106.3 0 196.9 48.4 232.7 116.4 37.5 1.5 72.3 10.2 101.8 24.3 0 0 0.1 0.1 0.2 0.1 1.3 0.6 2.5 1.2 3.7 1.8 0.1 0.1 0.3 0.2 0.4 0.2 1.1 0.6 2.3 1.2 3.4 1.8 0.2 0.1 0.5 0.2 0.7 0.4 1 0.6 2.1 1.1 3.1 1.7 0.3 0.2 0.6 0.4 1 0.5 0.9 0.5 1.9 1.1 2.8 1.6 0.4 0.2 0.8 0.5 1.2 0.7 0.8 0.5 1.7 1 2.5 1.5 0.5 0.3 1 0.6 1.4 0.9 0.7 0.5 1.5 0.9 2.2 1.4 0.6 0.4 1.1 0.7 1.7 1.1 0.6 0.4 1.3 0.8 1.9 1.2 0.7 0.5 1.3 0.9 2 1.4 0.5 0.3 1 0.7 1.5 1 0.8 0.6 1.6 1.1 2.4 1.7 0.4 0.2 0.7 0.5 1.1 0.8 1 0.7 2 1.5 3 2.2 0.1 0.1 0.3 0.2 0.4 0.3 9.1 7 17.3 14.6 24.5 22.7 0 0 0 0.1 0.1 0.1 0.9 1 1.7 2 2.5 3l0.2 0.2c0.8 1 1.6 1.9 2.3 2.9l0.3 0.3c0.7 0.9 1.5 1.8 2.2 2.8 0.1 0.2 0.2 0.3 0.3 0.4 0.7 0.9 1.3 1.8 2 2.7 0.1 0.2 0.2 0.4 0.4 0.5l1.8 2.7c0.1 0.2 0.3 0.4 0.4 0.6 0.6 0.9 1.1 1.8 1.7 2.7 0.2 0.2 0.3 0.5 0.4 0.7 0.5 0.9 1 1.7 1.6 2.6 0.2 0.3 0.3 0.5 0.5 0.8 0.5 0.8 1 1.7 1.4 2.6 0.2 0.3 0.3 0.6 0.5 0.8 0.5 0.8 0.9 1.7 1.3 2.5 0.2 0.3 0.3 0.6 0.5 0.9 0.4 0.8 0.8 1.7 1.2 2.5 0.2 0.3 0.3 0.6 0.5 1 0.4 0.8 0.8 1.7 1.1 2.5 0.2 0.3 0.3 0.7 0.4 1 0.4 0.8 0.7 1.6 1 2.4 0.1 0.4 0.3 0.7 0.4 1.1l0.9 2.4c0.1 0.4 0.3 0.8 0.4 1.2 0.3 0.8 0.5 1.6 0.8 2.4 0.1 0.4 0.3 0.8 0.4 1.2 0.2 0.8 0.5 1.6 0.7 2.4 0.1 0.4 0.2 0.8 0.4 1.3 0.2 0.8 0.4 1.6 0.6 2.3 0.1 0.4 0.2 0.9 0.3 1.3 0.2 0.8 0.4 1.5 0.5 2.3 0.1 0.5 0.2 0.9 0.3 1.4 0.2 0.8 0.3 1.5 0.5 2.3 0.1 0.5 0.2 0.9 0.3 1.4 0.1 0.8 0.2 1.6 0.4 2.3 0.1 0.5 0.2 1 0.2 1.4 0.1 0.8 0.2 1.6 0.3 2.3 0.1 0.5 0.1 1 0.2 1.4 0.1 0.8 0.1 1.6 0.2 2.4 0 0.5 0.1 0.9 0.1 1.4v0.1c0 0.8 0.1 1.6 0.1 2.5 0 0.4 0 0.8 0.1 1.2 0.1 1.3 0.1 2.5 0.1 3.8 0 1.3 0 2.7-0.1 4v1c0 1-0.1 2-0.2 3 0 0.4-0.1 0.7-0.1 1.1-0.1 1-0.2 2-0.3 2.9 0 0.3-0.1 0.7-0.1 1-0.1 1-0.2 2-0.4 3 0 0.3-0.1 0.6-0.1 0.9-0.2 1-0.3 2.1-0.5 3.1 0 0.2-0.1 0.5-0.1 0.8-0.2 1.1-0.4 2.2-0.7 3.2 0 0.2-0.1 0.4-0.1 0.6-0.3 1.1-0.5 2.2-0.8 3.3 0 0.2-0.1 0.3-0.1 0.5-0.3 1.2-0.6 2.3-1 3.5 0 0.1-0.1 0.2-0.1 0.4-0.4 1.2-0.8 2.4-1.1 3.6 0 0.1 0 0.1-0.1 0.2-0.4 1.3-0.9 2.5-1.4 3.8-2.1 5.4-4.5 10.8-7.4 15.9 20.5 19.3 32.8 43.5 32.8 69.8 0 1.2 0 2.4-0.1 3.5v3.5z" fill="#005E5E" /></svg>