<?xml version="1.0" standalone="no"?><!DOCTYPE svg PUBLIC "-//W3C//DTD SVG 1.1//EN" "http://www.w3.org/Graphics/SVG/1.1/DTD/svg11.dtd"><svg class="icon" width="48px" height="48.00px" viewBox="0 0 1024 1024" version="1.1" xmlns="http://www.w3.org/2000/svg"><path d="M779.2 444.9c0 81.4-59.5 148.9-137.4 161.3-14.7 33.8-48.5 57.5-87.7 57.5-15.1 0-29.4-3.5-42.1-9.7-12.7 6.2-27 9.7-42.1 9.7-39.2 0-73-23.6-87.7-57.5-77.9-12.4-137.4-79.9-137.4-161.3 0-69.2 43-128.3 103.7-152.1-9-14.6-14.2-31.8-14.2-50.2 0-52.8 42.8-95.6 95.6-95.6 2.1 0 4.2 0.1 6.3 0.2-0.6-3.9-0.9-7.9-0.9-12 0-42.4 34.4-76.8 76.8-76.8s76.8 34.4 76.8 76.8c0 4.1-0.3 8.1-0.9 12 2.1-0.1 4.2-0.2 6.3-0.2 52.8 0 95.6 42.8 95.6 95.6 0 18.4-5.2 35.6-14.2 50.2 60.5 23.8 103.5 82.9 103.5 152.1z" fill="#90EB7A" /><path d="M370.7 402.8a50.4 41.7 0 1 0 100.8 0 50.4 41.7 0 1 0-100.8 0Z" fill="#00AD95" /><path d="M779.2 444.9c0 81.4-59.5 148.9-137.4 161.3-14.7 33.8-48.5 57.5-87.7 57.5-15.1 0-29.4-3.5-42.1-9.7V58.4c42.4 0 76.8 34.4 76.8 76.8 0 4.1-0.3 8.1-0.9 12 2.1-0.1 4.2-0.2 6.3-0.2 52.8 0 95.6 42.8 95.6 95.6 0 18.4-5.2 35.6-14.2 50.2 60.6 23.8 103.6 82.9 103.6 152.1z" fill="#00D16C" /><path d="M250.4 919c-8.3 0-15.9-3.4-21.4-8.9s-8.9-13-8.9-21.4v-92.9c0-16.7 13.5-30.2 30.2-30.2 8.3 0 15.9 3.4 21.4 8.9s8.9 13 8.9 21.4v92.9c0.1 16.6-13.5 30.2-30.2 30.2z" fill="#90EB7A" /><path d="M695.3 919c-8.3 0-15.9-3.4-21.4-8.9s-8.9-13-8.9-21.4v-92.9c0-16.7 13.5-30.2 30.2-30.2 8.3 0 15.9 3.4 21.4 8.9s8.9 13 8.9 21.4v92.9c0 16.6-13.5 30.2-30.2 30.2z" fill="#008486" /><path d="M356.2 919c-8.3 0-15.9-3.4-21.4-8.9s-8.9-13-8.9-21.4v-58.6c0-16.7 13.5-30.2 30.2-30.2 8.3 0 15.9 3.4 21.4 8.9s8.9 13 8.9 21.4v58.7c0 16.5-13.5 30.1-30.2 30.1z" fill="#00AD95" /><path d="M574.2 904H449.8l56.8-723.7c0.3-3.3 2.8-5 5.4-5s5.2 1.6 5.5 5L574.2 904z" fill="#B05C25" /><path d="M574.2 904H512V175.3c2.6 0 5.2 1.6 5.5 5L574.2 904z" fill="#8E4A1F" /><path d="M932 901.9c0 8.3-3.4 15.9-8.9 21.4s-13 8.9-21.4 8.9H122.2c-16.7 0-30.2-13.5-30.2-30.2 0-8.3 3.4-15.9 8.9-21.4s13-8.9 21.4-8.9h779.5c16.7 0 30.2 13.5 30.2 30.2z" fill="#00D16C" /><path d="M932 901.9c0 8.3-3.4 15.9-8.9 21.4s-13 8.9-21.4 8.9H510.6v-60.5h391.2c16.7 0 30.2 13.5 30.2 30.2z" fill="#00AD95" /><path d="M721 447.9l-92 1.3-25.6 0.4h-1.1v-0.6l0.4-14.3 5.1 0.4 113.3 9.4c3.5 0.2 3.3 3.3-0.1 3.4z" fill="#8E4A1F" /><path d="M439.2 399.8l-21 111.7-0.9 5-13.9-3.4-0.6-0.2 0.3-1.1 7.2-24.6L436 399c1-3.3 4-2.6 3.2 0.8z" fill="#B05C25" /><path d="M549.1 244.1a36.5 28.3 0 1 0 73 0 36.5 28.3 0 1 0-73 0Z" fill="#008486" /><path d="M563.6 278.5a44.4 34.4 0 1 0 88.8 0 44.4 34.4 0 1 0-88.8 0Z" fill="#00AD95" /><path d="M665 449.2a46.7 40 0 1 0 93.4 0 46.7 40 0 1 0-93.4 0Z" fill="#008486" /><path d="M568.1 409.1a72.2 59.9 0 1 0 144.4 0 72.2 59.9 0 1 0-144.4 0Z" fill="#00AD95" /><path d="M256.6 436.9a82.3 68.1 0 1 0 164.6 0 82.3 68.1 0 1 0-164.6 0Z" fill="#00D16C" /><path d="M660.2 376.2l-41.6 59.4-0.7 1L525 569.2v-46.7l79.8-93.2 16.5-19.3 32.9-38.5c5-5.8 10.5-1.5 6 4.7z" fill="#8E4A1F" /><path d="M509.5 591.5l-10.1 22.8-6.7 6.7-11-12.2-116-128.5-0.8-0.9-48.6-53.8c-5.2-5.7-0.3-10.5 5.3-5.3l37.4 34.1 18.8 17.1 131.7 120z" fill="#B05C25" /><path d="M601 247.6l-76 73.6v-17.4l1.9-1.5 72-57.3c2.7-2.1 4.8 0.2 2.1 2.6z" fill="#8E4A1F" /><path d="M499.4 333.8v31.1l-16.5-27-61-100.1c-2.2-3.7 1-6 3.6-2.3l73.9 98.3z" fill="#B05C25" /><path d="M386.4 257.6a50.4 41.7 0 1 0 100.8 0 50.4 41.7 0 1 0-100.8 0Z" fill="#00D16C" /><path d="M927.9 878.2l-2.4-2.4c-2.1-1.9-4.4-3.5-6.9-4.9-0.5-0.3-1-0.5-1.5-0.8-1-0.5-2.1-0.9-3.2-1.3-0.6-0.2-1.3-0.4-2.1-0.7-3.2-1-6.6-1.4-10-1.4H730.5v-70.8c0-9.4-3.7-18.3-10.4-24.9-6.7-6.7-15.5-10.4-24.9-10.4-19.4 0-35.2 15.8-35.2 35.2v70.9h-83.7l-15.5-198.2c36.4-2.4 69-24.6 84.5-57.8 38.1-6.7 72.9-26.5 98.2-56 26.2-30.5 40.7-69.5 40.7-109.8 0-4.4-0.2-8.8-0.5-13.2-2.5-31.8-13.9-62.2-33.1-87.7-17.6-23.5-41-42-67.7-53.6 7.9-14.6 12-31 12-47.8 0-55.5-45.1-100.6-100.7-100.6h-0.6c0.2-2.2 0.3-4.5 0.3-6.8 0-45.1-36.7-81.8-81.8-81.8h-0.1c-21.8 0-42.3 8.6-57.8 24-15.4 15.5-23.9 36-23.9 57.8 0 2.3 0.1 4.6 0.3 6.8h-0.7c-55.5 0-100.6 45.1-100.6 100.6 0 16.7 4.1 33.1 12 47.8-28.8 12.5-53.5 32.6-71.5 58.6-19.6 28.2-30 61.4-30 95.9 0 40.3 14.5 79.3 40.7 109.8 25.4 29.5 60.2 49.3 98.2 56 15.5 33.2 48 55.4 84.5 57.8l-15.6 198.2h-56.3v-36.5c0-9.4-3.7-18.3-10.4-24.9s-15.5-10.4-24.9-10.4c-19.4 0-35.2 15.8-35.2 35.2v36.6h-35.3v-70.8c0-9.4-3.7-18.3-10.4-24.9-6.7-6.7-15.5-10.4-24.9-10.4-19.4 0-35.2 15.8-35.2 35.2v70.9h-92.8c-9.4 0-18.3 3.7-24.9 10.4S87 892.6 87 902c0 19.4 15.8 35.2 35.2 35.2h779.5c9.4 0 18.3-3.7 24.9-10.4 6.7-6.7 10.4-15.5 10.4-24.9 0-8.8-3.2-17.2-9.1-23.7zM670 795.8c0-13.9 11.3-25.2 25.2-25.2 6.7 0 13.1 2.6 17.9 7.4 4.8 4.8 7.4 11.1 7.4 17.9v70.8H670v-70.9zM473.6 664.1c0.1-1.4-0.4-2.7-1.3-3.8-0.9-1-2.2-1.6-3.6-1.6-35.6-0.5-67.8-21.8-81.9-54.5-0.7-1.6-2.1-2.7-3.8-2.9-36.8-5.9-70.5-24.7-94.9-53.1-24.7-28.7-38.3-65.4-38.3-103.3 0-32.5 9.7-63.7 28.2-90.2 18-25.9 43-45.7 72.3-57.2 1.4-0.5 2.4-1.7 2.9-3.1 0.5-1.4 0.3-2.9-0.5-4.2-8.8-14.3-13.5-30.7-13.5-47.6 0-50 40.6-90.6 90.6-90.6 2 0 4 0.1 6.1 0.2 1.5 0.1 3-0.5 4-1.6s1.5-2.6 1.2-4.1c-0.6-3.6-0.8-7.4-0.8-11.2 0-19.2 7.5-37.2 21-50.7 13.5-13.6 31.6-21 50.8-21.1 39.6 0 71.8 32.2 71.8 71.8 0 3.8-0.3 7.6-0.8 11.2-0.2 1.5 0.2 3 1.2 4.1 1 1.1 2.5 1.7 4 1.6 2.1-0.1 4-0.2 6-0.2 50 0 90.6 40.6 90.6 90.6 0 16.8-4.7 33.3-13.5 47.6-0.8 1.3-1 2.8-0.5 4.2 0.5 1.4 1.5 2.5 2.9 3.1 27.3 10.7 51.1 28.9 68.7 52.5 18 24 28.8 52.6 31.1 82.5 0.3 4.1 0.5 8.3 0.5 12.5 0 37.9-13.6 74.6-38.3 103.3-24.4 28.4-58.1 47.2-94.9 53.1-1.7 0.3-3.1 1.4-3.8 2.9-14.2 32.6-46.3 54-81.9 54.5-1.4 0-2.7 0.6-3.6 1.6s-1.4 2.4-1.3 3.8l15.9 202.6H457.7l15.9-202.7z m-142.7 166c0-13.9 11.3-25.2 25.2-25.2 6.7 0 13.1 2.6 17.9 7.4 4.8 4.8 7.4 11.1 7.4 17.9v36.5h-50.5v-36.6z m-105.8-34.3c0-13.9 11.3-25.2 25.2-25.2 6.7 0 13.1 2.6 17.9 7.4s7.4 11.1 7.4 17.9v70.8h-50.5v-70.9z m694.5 124c-4.8 4.8-11.1 7.4-17.9 7.4H122.2c-13.9 0-25.2-11.3-25.2-25.2 0-6.7 2.6-13.1 7.4-17.9 4.8-4.8 11.1-7.4 17.9-7.4h779.5c2.4 0 4.8 0.3 7.2 1 0.5 0.2 1 0.3 1.5 0.5 0.8 0.3 1.5 0.6 2.3 1 0.4 0.2 0.7 0.4 1.1 0.6 1.8 1 3.4 2.1 4.9 3.5 0.6 0.5 1.2 1.1 1.7 1.7 4.2 4.6 6.5 10.7 6.5 17 0 6.6-2.6 13-7.4 17.8z" fill="#005E5E" /></svg>