<?xml version="1.0" standalone="no"?><!DOCTYPE svg PUBLIC "-//W3C//DTD SVG 1.1//EN" "http://www.w3.org/Graphics/SVG/1.1/DTD/svg11.dtd"><svg class="icon" width="48px" height="48.00px" viewBox="0 0 1024 1024" version="1.1" xmlns="http://www.w3.org/2000/svg"><path d="M512 512m-512 0a512 512 0 1 0 1024 0 512 512 0 1 0-1024 0Z" fill="#E07F28" /><path d="M0 483.1744a512 483.1744 0 1 0 1024 0 512 483.1744 0 1 0-1024 0Z" fill="#F4C43D" /><path d="M856.9344 640c-50.2784 124.5696-157.0304 219.648-339.5584 219.648s-312.8832-113.152-343.7056-226.2016 161.1776-195.9936 343.7056-195.9936 383.232 94.6176 339.5584 202.5472z" fill="#EABA42" /><path d="M517.376 862.208c-85.504 0-165.0688-24.576-230.144-71.1168-57.7024-41.3696-99.9424-98.5088-115.8656-156.8256-8.0384-29.3888-1.7408-57.856 18.7392-84.6336 25.6-33.4336 71.68-62.2592 133.12-83.3024A616.6528 616.6528 0 0 1 517.376 435.2a587.1616 587.1616 0 0 1 198.2976 35.1232c62.4128 23.1424 109.6192 54.8352 133.12 89.2928 18.0224 26.7776 21.6064 54.2208 10.5472 81.6128l-2.2016-0.9216 2.2016 0.9216c-27.0848 66.9696-67.7888 120.0128-121.0368 157.5424-60.0064 42.0864-134.144 63.4368-220.928 63.4368z m0-422.3488a611.584 611.584 0 0 0-192.5632 30.72c-59.8016 20.48-106.3424 49.4592-130.9184 81.92-19.5584 25.6-25.6 52.6336-17.9712 80.5376 15.6672 57.2416 57.2416 113.4592 114.0736 154.1632 64.256 46.08 142.848 70.2464 227.3792 70.2464 85.6576 0 159.0272-21.0432 218.0096-62.6688 52.48-37.0176 92.6208-89.2928 119.3472-155.4432 10.24-25.6 7.0144-51.7632-10.24-77.1584-22.7328-33.6384-69.12-64.7168-130.6624-87.5008a581.0176 581.0176 0 0 0-196.4544-34.816z"  /><path d="M811.9296 638.1056a11.4176 9.728 90 1 0 19.456 0 11.4176 9.728 90 1 0-19.456 0Z" fill="#DD7C12" /><path d="M797.646444 721.961218a9.728 11.4176 27.77 1 0 10.639454-20.205157 9.728 11.4176 27.77 1 0-10.639454 20.205157Z" fill="#DD7C12" /><path d="M742.698226 781.505236a9.728 11.4176 50.01 1 0 17.495339-14.67513 9.728 11.4176 50.01 1 0-17.495339 14.67513Z" fill="#DD7C12" /><path d="M663.220206 824.762219a9.728 11.4176 67.49 1 0 21.095449-8.742335 9.728 11.4176 67.49 1 0-21.095449 8.742335Z" fill="#DD7C12" /><path d="M565.451195 847.28882a9.728 11.4176 82.68 1 0 22.649094-2.909452 9.728 11.4176 82.68 1 0-22.649094 2.909452Z" fill="#DD7C12" /><path d="M468.13756 855.608609a11.4176 9.728 7.32 1 0 2.478905-19.297434 11.4176 9.728 7.32 1 0-2.478905 19.297434Z" fill="#DD7C12" /><path d="MNaN NaNaNaN NaN NaN 1 0 NaN NaN NaN NaN NaN 1 0 NaN NaNZ" fill="#DD7C12" /><path d="M288.464347 781.67766a11.4176 9.728 39.99 1 0 12.503475-14.906343 11.4176 9.728 39.99 1 0-12.503475 14.906343Z" fill="#DD7C12" /><path d="M234.556232 716.273223a11.4176 9.728 62.23 1 0 17.215156-9.065006 11.4176 9.728 62.23 1 0-17.215156 9.065006Z" fill="#DD7C12" /><path d="M214.7328 638.1056a11.4176 9.728 90 1 0 19.456 0 11.4176 9.728 90 1 0-19.456 0Z" fill="#DD7C12" /><path d="M167.3728 608.768s-38.912-138.24-6.5536-227.1232h700.0576s29.2352 152.064 6.5024 227.1232-59.8016 203.8784-341.3504 211.456-345.1904-145.4592-358.656-211.456z" fill="#DB4944" /><path d="M506.0096 822.8352c-112.64 0-200.6016-26.5216-261.4272-79.0016A243.1488 243.1488 0 0 1 165.0688 609.28c-1.1776-4.1472-38.4-140.8512-6.4512-228.4544l0.5632-1.536h703.6416l0.3584 1.9456c0 0.3584 7.424 38.656 11.8272 85.6064 5.9904 63.1808 4.1472 111.1552-5.12 142.592l-0.512 1.5872c-11.3664 37.4784-26.88 88.832-74.8032 131.4304-56.9856 50.5856-144.7424 76.8-268.288 80.128-6.9632 0.1536-13.6704 0.256-20.2752 0.256zM162.5088 384c-30.72 87.04 6.7584 222.6688 7.1168 224.0512a238.4896 238.4896 0 0 0 78.0288 131.9936c63.4368 54.7328 157.0304 80.8448 278.272 77.568 277.8624-7.4752 315.904-133.12 338.688-208.1792l0.4608-1.5872c9.216-30.3616 11.008-79.0528 5.12-140.6976-3.84-40.96-9.8816-75.008-11.4176-83.3024z"  /><path d="M160.8192 381.6448a350.0032 211.2 0 1 0 700.0064 0 350.0032 211.2 0 1 0-700.0064 0Z" fill="#EABA42" /><path d="M510.8224 595.2c-93.9008 0-182.2208-22.0672-248.6784-62.1568S158.72 438.9376 158.72 381.6448 195.2768 270.6432 262.144 230.4s154.7776-62.3104 248.6784-62.3104 182.272 22.1184 248.7296 62.208 103.68 94.1056 103.68 151.3472-36.8128 111.0528-103.68 151.3984-154.7776 62.1568-248.7296 62.1568z m0-422.3488c-191.6416 0-347.5968 93.696-347.5968 208.7936s155.9552 208.8448 347.5968 208.8448 347.648-93.696 347.648-208.8448-155.9552-208.7936-347.648-208.7936z"  /><path d="M839.9872 359.4752a11.4176 11.0592 90 1 0 22.1184 0 11.4176 11.0592 90 1 0-22.1184 0Z" fill="#E5851C" /><path d="M823.948783 442.987859a11.0592 11.4176 30.87 1 0 11.716557-19.600221 11.0592 11.4176 30.87 1 0-11.716557 19.600221Z" fill="#E5851C" /><path d="M762.094616 502.34363a11.0592 11.4176 53.55 1 0 18.368078-13.566874 11.0592 11.4176 53.55 1 0-18.368078 13.566874Z" fill="#E5851C" /><path d="M672.401808 545.686267a11.0592 11.4176 69.95 1 0 21.451245-7.828821 11.0592 11.4176 69.95 1 0-21.451245 7.828821Z" fill="#E5851C" /><path d="M561.569498 568.518919a11.0592 11.4176 83.55 1 0 22.69066-2.565217 11.0592 11.4176 83.55 1 0-22.69066 2.565217Z" fill="#E5851C" /><path d="M449.802383 578.203473a11.4176 11.0592 6.45 1 0 2.484696-21.978397 11.4176 11.0592 6.45 1 0-2.484696 21.978397Z" fill="#E5851C" /><path d="M337.064395 552.210896a11.4176 11.0592 20.05 1 0 7.583074-20.777887 11.4176 11.0592 20.05 1 0-7.583074 20.777887Z" fill="#E5851C" /><path d="M246.119598 504.384716a11.4176 11.0592 36.45 1 0 13.141007-17.791502 11.4176 11.0592 36.45 1 0-13.141007 17.791502Z" fill="#E5851C" /><path d="M184.679768 438.842971a11.4176 11.0592 59.13 1 0 18.984967-11.348772 11.4176 11.0592 59.13 1 0-18.984967 11.348772Z" fill="#E5851C" /><path d="M161.8944 359.4752a11.4176 11.0592 90 1 0 22.1184 0 11.4176 11.0592 90 1 0-22.1184 0Z" fill="#E5851C" /><path d="M170.3424 351.488a340.48 191.8976 0 1 0 680.96 0 340.48 191.8976 0 1 0-680.96 0Z" fill="#F7E1C6" /><path d="M510.8224 545.7408c-91.3408 0-177.2544-20.0704-241.8688-56.32S167.9872 403.6608 167.9872 351.488s35.84-101.0688 100.9664-137.728 150.528-56.32 241.8688-56.32 177.2544 20.0704 241.92 56.32 100.9152 85.6064 100.9152 137.728-35.84 101.0688-100.9152 137.7792-150.5792 56.4736-241.92 56.4736z m0-383.744c-186.4192 0-337.92 84.992-337.92 189.44s151.6544 189.44 337.92 189.44 337.92-85.0432 337.92-189.44-151.5008-189.44-337.92-189.44z"  /><path d="M417.709807 242.18232m10.023557 7.7947l0.040417 0.03143q10.023557 7.794701 2.228856 17.818258l-148.507902 190.973006q-7.794701 10.023557-17.818258 2.228856l-0.040417-0.03143q-10.023557-7.794701-2.228856-17.818257l148.507902-190.973007q7.794701-10.023557 17.818258-2.228856Z" fill="#5F2A26" /><path d="M271.36 465.92a14.7968 14.7968 0 0 1-9.216-3.1744 15.0016 15.0016 0 0 1-2.6624-21.1456L408.064 250.88a15.36 15.36 0 0 1 23.8592 18.5344l-148.48 190.976A15.36 15.36 0 0 1 271.36 465.92z m-6.2976-6.912a10.24 10.24 0 0 0 14.4896-1.792l148.48-190.976a10.24 10.24 0 0 0 2.048-7.4752 10.24 10.24 0 0 0-18.432-5.12l-148.48 190.976a10.24 10.24 0 0 0 1.8432 14.4896z"  /><path d="M371.8144 257.1264l51.712-19.6096 22.7328 20.8896-14.7968 66.2528-9.0624-33.536s-28.0064 9.8816-39.6288 20.48 13.1072-27.904 7.2192-37.4784l-37.0176 3.6864s9.7792-17.2544 18.8416-20.6848z" fill="#DB4944" /><path d="M431.6672 334.592l-10.8544-40.3456c-6.9632 2.6112-27.2896 10.7008-36.4544 18.8928-1.3824 1.2288-3.7888 3.328-5.888 1.792s-1.1264-4.7104 2.6624-13.568C384 294.2976 389.4784 281.6 388.4544 276.48l-39.8336 3.9424 2.304-3.9936c0.4096-0.7168 10.24-17.7664 20.0704-21.504l53.0432-20.1216 24.832 22.8352z m-7.6288-46.5408l7.2192 26.6752 12.3392-55.5008-20.48-18.9952-50.3296 19.0976c-5.12 1.9968-11.3664 9.8304-15.0528 15.36l33.536-3.328 0.768 1.28c3.4816 5.7344-0.8704 17.2544-6.5536 30.72-0.5632 1.3824-1.2288 2.9184-1.792 4.352a174.4896 174.4896 0 0 1 37.9392-18.688z"  /><path d="M407.006496 272.98632a37.0688 40.192 37.87 1 0 49.345483-63.455581 37.0688 40.192 37.87 1 0-49.345483 63.455581Z" fill="#DB4944" /><path d="M428.6464 282.6752a37.2736 37.2736 0 0 1-23.0912-7.8336 37.7856 37.7856 0 0 1-14.3872-27.0336 44.9024 44.9024 0 0 1 36.8128-47.4112 37.8368 37.8368 0 0 1 29.7984 7.2704c17.152 13.3632 19.456 39.2704 5.12 57.8048a43.6224 43.6224 0 0 1-34.2528 17.2032zM434.688 204.8a38.0416 38.0416 0 0 0-5.888 0.4608 40.2944 40.2944 0 0 0-32.9216 42.3424A33.0752 33.0752 0 0 0 408.4736 271.36c15.36 11.7248 37.7856 7.936 50.5856-8.5504 12.8-16.4352 10.9056-39.3728-4.1984-51.2A32.7168 32.7168 0 0 0 434.688 204.8z"  /><path d="M757.577884 426.8269m-10.023556 7.7947l-0.040418 0.031431q-10.023557 7.794701-17.818257-2.228857l-148.507903-190.973006q-7.794701-10.023557 2.228856-17.818257l0.040418-0.031431q10.023557-7.794701 17.818257 2.228857l148.507903 190.973006q7.794701 10.023557-2.228856 17.818257Z" fill="#5F2A26" /><path d="M739.7376 439.6544h-1.9456a15.0016 15.0016 0 0 1-10.24-5.6832l-148.48-190.976a15.36 15.36 0 1 1 23.8592-18.5344l148.48 190.976a15.104 15.104 0 0 1-11.8784 24.32z m-148.48-216.3712a10.24 10.24 0 0 0-8.192 16.6912l148.48 190.976a10.24 10.24 0 0 0 6.912 3.8912 10.24 10.24 0 0 0 7.6288-2.0992 10.24 10.24 0 0 0 1.792-14.4896l-148.48-190.976a10.24 10.24 0 0 0-8.192-3.9936z"  /><path d="M639.3856 230.7072l-51.712-19.6608-22.7328 20.9408 14.7968 66.2528L588.8 264.704s28.0576 9.8816 39.6288 20.224-13.056-27.904-7.2192-37.4784l37.0688 3.6864s-9.8816-16.9984-18.8928-20.4288z" fill="#DB4944" /><path d="M579.5328 308.1728l-17.2032-76.8 24.832-22.8352L640 228.4544c9.728 3.6864 19.6608 20.7872 20.0704 21.504l2.304 3.9936-39.8336-3.9424c-1.024 5.12 4.3008 17.8688 7.3216 24.9344 3.7376 8.8576 5.12 11.8784 2.6624 13.568s-4.5056-0.5632-5.9392-1.792c-9.1648-8.192-29.44-16.2816-36.4032-18.8928z m-11.9808-75.3664l12.3904 55.5008 7.168-26.6752 2.4576 0.8192a175.616 175.616 0 0 1 37.9392 18.688c-0.5632-1.4336-1.2288-2.9696-1.8432-4.352-5.632-13.312-10.24-24.832-6.5024-30.72l0.768-1.28 33.6896 3.3792c-3.6864-5.5808-9.8304-13.4144-15.36-15.36l-50.3296-19.0976z"  /><path d="M550.276767 237.58854a40.192 37.0688 52.13 1 0 58.524638-45.510993 40.192 37.0688 52.13 1 0-58.524638 45.510993Z" fill="#DB4944" /><path d="M582.6048 256.256a37.0688 37.0688 0 0 1-6.7072-0.5632 44.032 44.032 0 0 1-27.5456-16.64c-14.3872-18.5344-12.1344-44.4416 5.12-57.8048a37.7344 37.7344 0 0 1 29.696-7.168 45.0048 45.0048 0 0 1 36.864 47.4112 37.7856 37.7856 0 0 1-14.3872 27.0336 37.12 37.12 0 0 1-23.04 7.7312z m-30.72-20.1216a39.2192 39.2192 0 0 0 24.7808 14.7456 32.768 32.768 0 0 0 38.656-30.0544 40.2944 40.2944 0 0 0-32.9216-42.3424 32.9728 32.9728 0 0 0-26.0608 6.3488c-15.36 11.776-16.9984 34.7136-4.1984 51.2z"  /><path d="M517.376 710.656c0 1.024 0.4608 1.4848 1.4848 1.4848 2.9696 0.512 9.3696 1.2288 19.2512 2.2528 12.3904 0.9728 21.5552 1.9456 27.4944 2.9696a232.448 232.448 0 0 0 28.928 3.6864 5.632 5.632 0 0 1 3.6864 0.768 3.6352 3.6352 0 0 1-0.7168 3.6864q-6.7072 12.5952-17.8176 9.6256a109.9264 109.9264 0 0 0-60.8256-17.0496 1.28 1.28 0 0 0-1.4848 1.4848c0 3.4816 0 9.8816 0.7168 19.3024v17.8176c0.512 8.9088-1.2288 13.312-5.12 13.312-2.9696-0.9728-4.7104-5.4272-5.12-13.312a101.9904 101.9904 0 0 0 0.768-14.1312v-22.9888c0-0.9728 0-1.4848-0.768-1.4848-31.1296 0-52.9408 3.2256-65.28 9.6256a7.0144 7.0144 0 0 1-11.8784-1.4848c-0.9728-1.4848-0.512-3.6864 1.4848-6.656 2.9696-2.9696 5.4272-4.1984 7.424-3.6864a7.8848 7.8848 0 0 0 7.424 0.7168 241.4592 241.4592 0 0 1 31.1808-3.6864c11.3664-0.512 20.992-0.768 28.928-0.768 1.4848 0 1.9456-0.256 1.4848-0.7168 0-6.9632 0.9728-10.24 2.9696-9.6768 3.2768 0.512 5.5296 3.4816 5.7856 8.9088zM472.1152 640a12.3392 12.3392 0 0 1-0.768 5.12 16.2816 16.2816 0 0 1 11.8784 12.5952c0.9728 3.4816-0.7168 6.4512-5.12 8.9088q-3.0208 2.2528 0 5.12a14.4896 14.4896 0 0 1 5.12 9.6256 21.8624 21.8624 0 0 1-14.848 14.08c-10.8544-0.9728-17.3056-4.4544-19.3024-10.24a12.2368 12.2368 0 0 1 4.4544-11.1104 2.9184 2.9184 0 0 0 2.2528-2.9696c0-0.9728-0.768-1.7408-2.2528-2.2016a7.9872 7.9872 0 0 1-5.9392-9.6768 11.3152 11.3152 0 0 1 7.424-8.1408c5.9392-3.9424 9.1648-7.68 9.6768-11.1616-1.024-2.4576 0-3.9424 2.9696-4.4032a3.8912 3.8912 0 0 1 4.4544 4.4544z m-8.192 11.8784c-3.9424 2.9696-6.1952 5.12-6.656 6.7072 0.4608 1.9456 3.9424 3.9424 10.24 5.9392a18.432 18.432 0 0 0 8.1408-6.7072c0-2.4576-2.2016-5.6832-6.656-9.6256a30.208 30.208 0 0 1-5.0688 3.84z m24.4736 78.6432a4.7104 4.7104 0 0 1 0 3.7376 53.1456 53.1456 0 0 1-17.0496 20.0192c-5.9392 3.4816-10.24 3.9936-13.3632 1.4848a11.4176 11.4176 0 0 1 5.12-11.8784q12.5952-6.7072 21.504-12.5952a3.7888 3.7888 0 0 1 3.7888-0.6144zM459.4688 680.96c0 2.9696 2.5088 5.12 7.424 5.9392s8.3968-1.2288 8.9088-5.12-1.7408-6.1952-8.1408-8.1408a11.4688 11.4688 0 0 0-8.192 7.3216z m60.1088-46.08a28.0064 28.0064 0 0 0-6.656 13.3632 65.9456 65.9456 0 0 1 14.08 1.4848c6.4 2.4576 9.3696 5.9392 8.9088 10.24a51.9168 51.9168 0 0 0-1.4848 20.0192 31.1808 31.1808 0 0 1-4.4544 16.3328 7.424 7.424 0 0 1-12.5952 0.7168 19.2512 19.2512 0 0 0-14.848 0c-5.12 3.9936-8.448 3.4816-10.24-1.4848-0.512-4.4544-1.2288-14.08-2.2528-28.928-0.4608-5.12-0.7168-8.3968-0.7168-10.24-0.9728-4.4544 0.7168-6.656 5.12-6.656a67.6864 67.6864 0 0 1 12.6464-1.4848 11.9296 11.9296 0 0 0 0.7168-13.3632q0-8.1408 5.12-8.1408c5.9392 1.5872 8.1408 4.3008 6.656 8.1408z m-17.0496 20.0192a5.12 5.12 0 0 0-4.4544 4.4544 12.8 12.8 0 0 0 0.7168 5.9392c0 1.4848 1.4848 2.2528 4.4544 2.2528a76.288 76.288 0 0 0 14.1312-0.768 9.472 9.472 0 0 1 8.9088 3.7376 47.36 47.36 0 0 0 0.7168-9.6768c0-2.9696-1.9968-5.12-5.9392-5.9392a39.1168 39.1168 0 0 0-18.5344 0.1024z m3.6864 19.3024h-2.2016a4.608 4.608 0 0 0-5.12 5.12v7.3728a3.9936 3.9936 0 0 0 4.4544 2.9696l8.9088-0.7168h8.9088a4.608 4.608 0 0 0 5.12-3.7376v-11.8272a13.824 13.824 0 0 1-8.192 1.4848c-2.4576 0.2048-6.4-0.0512-11.8784-0.5632z m31.8976 61.44a3.072 3.072 0 0 1 2.9696 0 272.9472 272.9472 0 0 0 23.04 15.36c3.4304 3.4816 3.6864 6.7072 0.7168 9.6768a10.8544 10.8544 0 0 1-11.8784-1.4848 66.56 66.56 0 0 1-15.36-21.5552 1.4336 1.4336 0 0 1 0.512-1.7408z m26.0096-98.7136c2.9696 0 3.6864 3.2256 2.2016 9.6768a20.8896 20.8896 0 0 1 11.8784 10.24c0.9728 3.9424-1.024 7.424-5.9392 10.24q-2.9696 1.4336 0 4.4544c5.9392 3.9424 8.3968 7.6288 7.424 11.1104 0.4608 2.4576-2.7136 6.1952-9.6256 11.1104a11.8272 11.8272 0 0 1-12.6464 2.9696c-9.8816-1.4848-14.592-3.9424-14.08-7.424q-3.0208-10.24 9.6256-17.0496c1.4848-1.4848 1.2288-2.7136-0.7168-3.6864a20.1216 20.1216 0 0 1-8.9088-5.12 9.0112 9.0112 0 0 1-0.768-8.1408 11.9296 11.9296 0 0 1 5.12-6.7072c6.912-2.9696 10.8544-5.6832 11.8784-8.1408 1.0752-3.0208 2.56-4.2496 4.5568-3.2768z m-14.1312 20.7872c0.512 3.4816 5.12 5.4784 14.1312 5.9392a5.9904 5.9904 0 0 0 5.12-5.9392c0-1.4848-2.2016-4.1984-6.656-8.1408-8.3968 3.7376-12.5952 6.4512-12.5952 8.3968z m1.4848 25.2416c1.024 2.4576 4.4544 3.9424 10.24 4.4544q7.424 0.768 8.9088-4.4544c0.512-2.4576-1.2288-5.4272-5.12-8.9088a2.1504 2.1504 0 0 1-1.4848-0.7168c-8.8064 3.6864-13.0048 6.912-12.544 9.8816z" fill="#F4C43D" /></svg>