<?xml version="1.0" standalone="no"?><!DOCTYPE svg PUBLIC "-//W3C//DTD SVG 1.1//EN" "http://www.w3.org/Graphics/SVG/1.1/DTD/svg11.dtd"><svg class="icon" width="48px" height="39.29px" viewBox="0 0 1251 1024" version="1.1" xmlns="http://www.w3.org/2000/svg"><path d="M1214.7309 0.007964H36.778137A36.067035 36.067035 0 0 0 0.000001 35.30701v953.358674A36.095479 36.095479 0 0 0 36.778137 1023.993173h1177.952763a36.095479 36.095479 0 0 0 36.806579-35.327489V35.30701A36.067035 36.067035 0 0 0 1214.7309 0.007964z" fill="#916EE4" /><path d="M483.776124 270.90894a11.377613 11.377613 0 0 1 11.377614-11.377613h190.973241a11.377613 11.377613 0 0 1 11.377614 11.377613v39.821647a11.718942 11.718942 0 0 1-11.690498 11.690498h-96.283054a17.578413 17.578413 0 0 0-17.436192 17.720633 17.578413 17.578413 0 0 0 17.436192 17.692189h76.628227a11.377613 11.377613 0 0 1 11.377613 11.377613v39.821647a11.718942 11.718942 0 0 1-11.690498 11.690498H589.445709a17.549969 17.549969 0 0 0-17.436192 17.692189v2.844403a17.578413 17.578413 0 0 0 17.436192 17.720633h102.199413a11.377613 11.377613 0 0 1 11.377613 11.377614v39.821647a11.747386 11.747386 0 0 1-11.690497 11.690498h-196.46294a11.377613 11.377613 0 0 1-11.377614-11.377614z" fill="#FFFFFF" /><path d="M188.128839 268.71875a12.06027 12.06027 0 0 1 12.031827-12.031827h60.671123a11.91805 11.91805 0 0 1 9.898524 5.319035l86.81119 131.525211-2.844403-41.983394V268.747194a12.031826 12.031826 0 0 1 12.031826-12.031827h60.870232a11.804274 11.804274 0 0 1 11.804274 11.804274v238.929883a12.06027 12.06027 0 0 1-12.031826 12.031826H363.884523a11.718942 11.718942 0 0 1-9.813192-5.347479l-86.868078-134.767831 2.844403 42.38161v85.701874a12.031826 12.031826 0 0 1-12.031826 12.031826H199.933113a11.832718 11.832718 0 0 1-11.77583-11.804274z" fill="#FFFFFF" /><path d="M1067.163253 799.029312c0 18.886838-10.040744 34.13284-22.413898 34.13284H193.163433c-12.373155 0-22.413898-15.331334-22.413898-34.13284v-45.368234c0-18.886838 10.040744-34.13284 22.413898-34.13284h851.585922c12.373155 0 22.413898 15.30289 22.413898 34.13284z" fill="#FFFFFF" /><path d="M1016.447541 520.192451a7.111008 7.111008 0 0 1-6.855012 5.688806h-72.532285a7.05412 7.05412 0 0 1-6.798124-5.688806l-23.011224-113.434806a6.883456 6.883456 0 0 0-13.624692 0.170664l-20.30904 112.979701a7.139452 7.139452 0 0 1-6.968788 6.001691h-72.475397a7.025676 7.025676 0 0 1-6.741236-5.404366l-62.576874-254.346548a7.367005 7.367005 0 0 1 6.940344-9.215867h70.626535a7.139452 7.139452 0 0 1 6.968789 6.030135l20.252152 115.767217a6.9119 6.9119 0 0 0 13.68158 0l17.663745-115.454333a7.167896 7.167896 0 0 1 6.997232-6.200799h66.246154a7.139452 7.139452 0 0 1 6.940344 6.087023l19.910824 117.104086a6.9119 6.9119 0 0 0 13.68158 0l20.365928-120.119153a6.997232 6.997232 0 0 1 6.855012-5.944804h65.762606a7.310117 7.310117 0 0 1 6.940344 9.045203z" fill="#FFFFFF" /></svg>