<?xml version="1.0" standalone="no"?><!DOCTYPE svg PUBLIC "-//W3C//DTD SVG 1.1//EN" "http://www.w3.org/Graphics/SVG/1.1/DTD/svg11.dtd"><svg class="icon" width="48px" height="39.77px" viewBox="0 0 1236 1024" version="1.1" xmlns="http://www.w3.org/2000/svg"><path d="M347.476499 725.452934c132.480414 57.67314 156.066834 248.597044 156.066835 248.597043l92.775543-1.10891s71.843638-200.982601 25.166372-348.310635M882.898546 692.219977c10.946808 101.023676 59.503333 98.329907 79.998543 140.699106 30.131934 62.290328 12.546386 133.069216 12.546386 133.069216l108.550526-1.300271s67.069436-196.1348 36.530247-317.511392c0 0-20.877932-89.193665-104.733127-120.31675" fill="#E3B8B8" /><path d="M1184.767436 586.431913c124.629723 236.246925-184.39311 254.79909-411.861981 254.799089-227.454151 0-411.857074-49.15514-411.857073-254.799089 0-205.653763 124.119428-372.37791 282.090054-372.377911 227.468871 0.004907 510.034874 312.491857 541.629 372.377911z" fill="#FFCFCF" /><path d="M686.783373 318.222861s15.259781-70.293126 153.569333-1.216857c138.309552 69.076269 312.653777 204.69696 359.973818 303.434122 0 0-193.637298-359.625444-534.215002-404.565745l20.671851 102.34848z" fill="#EBBFBF" /><path d="M755.786042 290.102667s-40.156285-12.772093-58.777144 7.168662c-18.920166 20.27441-16.128264 73.428496 9.298163 96.803929 0 0 94.335868 149.30052 75.121301 303.414495h104.247366s-4.651535-72.241079 54.738944-72.241079c72.481507 0 74.120338 62.609262 74.120338 62.609262s4.494521 75.459862 42.933468 97.932466c38.429133 22.472604 43.659656 219.529859 43.659656 219.52986h-46.461371s14.209751-125.630686-29.248732-175.330468c0 0-227.979166 13.831937-290.146827 10.475766 0 0 33.905173-199.162222-41.206315-234.48052 0 0-7.732931-178.578691-76.279278-232.346112 0 0 68.742615-63.021424 48.321004-157.75964 0.01472-0.01472 89.679427 21.805295 89.679427 74.223379z" fill="#EBBFBF" /><path d="M447.837773 757.940075c131.778758 59.243278 153.382879 250.451769 153.382879 250.45177h92.770637s64.306974-200.099399 19.396114-347.986795" fill="#FFCFCF" /><path d="M41.505623 419.21219S141.80311 571.039651 251.69316 573.242751c109.885143 2.18838 253.950234-144.786372 170.070505-214.475977-111.91651-92.991437-167.366923 134.472527-318.89017 24.754211 0.004907-0.004907-135.321383-111.769309-61.367872 35.691205z" fill="#F0F0FF" /><path d="M383.442478 337.977163c-88.369343-22.173296-147.33294 142.014097-280.568983 45.543822 0 0-73.781777-60.931177-82.594178-33.424318 38.409507 40.794154 105.778251 114.786919 177.239167 116.209857 71.706251 1.427844 157.955907-69.915312 185.923994-128.329361z" fill="#FCFCFC" /><path d="M498.116543 24.54813s177.886849 38.026786 163.912619 247.816881c-8.282479 124.438362-133.903352 170.502293-176.979113 101.23957-10.407073-16.726879-75.83277-73.855377-62.118594-73.683644 54.645717 0.686935 160.590795-137.779631 57.594633-234.735667 0.009813-0.004907-67.893759-64.836896 17.590455-40.63714z" fill="#F0F0FF" /><path d="M586.402473 226.713242c10.151925-125.017351-68.090026-174.452172-119.404107-199.289796-44.385845-3.846839 13.537536 37.756918 13.537536 37.756918 102.991255 96.956036-2.953823 235.417696-57.59954 234.735667-9.425736-0.107947 18.557071 26.864084 40.342739 49.160047 52.344484 2.311047 116.641645-42.5164 123.123372-122.362836z" fill="#FCFCFC" /><path d="M690.389784 540.608409c6.295273 161.743865-44.169951 308.463471-172.042991 334.984087-127.877946 26.500989-204.574293-102.137493-291.020216-238.98976-92.324129-146.174963 44.174858-308.478191 172.047898-334.974273 127.882853-26.51571 284.646436 75.008448 291.015309 238.979946z" fill="#EBBFBF" /><path d="M609.449158 496.222564c-0.858669 26.702163-90.312389 23.885728-195.23197 45.897103-104.924488 22.026095-111.85763 169.388476-182.788625 55.641774-75.754263-121.48454 36.250567-256.379041 141.175055-278.405136 104.924488-22.035909 231.619924 40.573353 236.84554 176.866259z" fill="#FFCFCF" /><path d="M470.712724 493.99493m-18.061496 0a18.061496 18.061496 0 1 0 36.122993 0 18.061496 18.061496 0 1 0-36.122993 0Z" fill="#6E6E96" /><path d="M340.886825 543.228578m-18.061496 0a18.061496 18.061496 0 1 0 36.122993 0 18.061496 18.061496 0 1 0-36.122993 0Z" fill="#6E6E96" /><path d="M574.984623 908.094358s18.15963-50.617332 75.930904-42.045358c57.766367 8.571973 4.808548 142.347752 4.808549 142.347751h38.267213s80.974973-226.095 41.77549-337.393267c0 0-126.523702 171.154882-178.436397 192.14076l17.654241 44.950114z" fill="#EBBFBF" /><path d="M456.200915 581.045001a149.786281 238.567786 73.209 1 0 86.540947 286.800253 149.786281 238.567786 73.209 1 0-86.540947-286.800253Z" fill="#F0F0FF" /><path d="M440.727991 591.839076c108.084391-27.762007 212.31213-3.439584 232.7779 54.33169 20.480491 57.756554-50.533918 127.102691-158.623215 154.869604-108.084391 27.762007-212.307223 3.429771-232.782808-54.321877-20.475584-57.781087 50.543731-127.112504 158.628123-154.879417z" fill="#FFFFFF" /><path d="M414.487055 679.732471a26.005415 26.005415 0 1 1-0.770349 51.996109 26.005415 26.005415 0 0 1 0.770349-51.996109z" fill="#6E6E96" /><path d="M521.982645 663.295086m-26.000508 0a26.000508 26.000508 0 1 0 52.001015 0 26.000508 26.000508 0 1 0-52.001015 0Z" fill="#6E6E96" /><path d="M968.902868 692.269043c9.739764 116.577858 58.335542 114.14905 78.310645 163.250217 29.381212 72.206732 11.241208 149.791188 11.241208 149.791188h108.560339s69.130243-221.374772 40.028712-361.691157" fill="#FFCFCF" /><path d="M1008.02875 671.793459s19.244007 86.666724 44.945207 112.372832c25.706107 25.706107 73.860284 130.488301 43.345629 221.993013l-33.703999-1.599578s14.440365-143.333995-36.917875-178.652292c-51.382774-35.31339-57.790901-145.640135-57.790901-145.640135l40.121939-8.47384z" fill="#EBBFBF" /></svg>