<?xml version="1.0" standalone="no"?><!DOCTYPE svg PUBLIC "-//W3C//DTD SVG 1.1//EN" "http://www.w3.org/Graphics/SVG/1.1/DTD/svg11.dtd"><svg class="icon" width="48px" height="48.00px" viewBox="0 0 1024 1024" version="1.1" xmlns="http://www.w3.org/2000/svg"><path d="M491.98 83.044c23.556-5.692 46.98-6.168 70.252 1.6 7.456 2.492 14.052 6.244 19.44 12.012-3.224 3.456-0.328 6.352 1.016 9.228 29.372 62.888 58.856 125.724 88.172 188.632 4.704 10.092 9.788 20.204 12.78 30.844 2.44 8.66 6.32 15.452 13.256 20.784 7.54 5.8 14.82 12.08 19.172 20.588 10.18 19.916 19.772 40.132 29.604 60.224-0.864 9.344-0.6 18.98-2.924 27.944-2.06 7.944 1.348 17.996-7.72 23.684l-8.024 7.352c-10.372-26.232-24.088-50.748-38.672-74.796-1.916-3.156-5.204-5.936-10.148-4.62 12.884 25.748 25.452 50.924 38.112 76.068 1.452 2.892 2.152 6.716 6.504 7.008-1.256 2.528-3.5 3.696-6.076 4.412-0.1-3.928-2.276-7.072-3.932-10.396-9.552-19.18-19.38-38.216-28.58-57.556-4.36-9.176-10.236-16.78-18.42-22.596-3.492-2.472-5.32-4.132-2.116-8.824 5-7.324-4.912-29.552-13.788-29.748-25.652-0.548-51.556-2.876-76.428 6.82-19.264 7.504-38.776 14.364-58.216 21.408-40.472 14.672-80.908 29.452-121.484 43.836-16.504 5.852-32.668 13.508-51.1 11.304-13.964-1.672-25.036-6.444-31.38-20.416-20.744-45.732-42.076-91.192-63.152-136.772-11.816-25.56-23.412-51.224-35.472-76.668-2.664-5.612-2.644-10.42 0.732-15.272 7.428-10.676 15.62-21.008 28.16-25.624 55.04-20.26 110.232-40.104 165.392-60.024 28.316-10.224 56.688-20.292 85.04-30.436z m135.704 248.184c-3.288 0.684-8.14-0.272-8.476 4.828-0.208 3.128 3.464 2.62 5.656 2.56 3.616-0.108 8.528 0.472 9.232-4.156 0.556-3.692-3.74-2.74-6.412-3.232z" fill="#FED328" /><path d="M925.176 411.62c6.54 13.94 14.132 27.5 19.332 41.924 5.772 15.992 8.868 32.876 11.544 49.736 2.38 11.548 5.12 23.028 7.024 34.644 1.456 8.872 4.996 17.876 0.376 26.888-6.072-0.7-7.94 2.712-7.848 8.028l0.036-0.032c-7.684 0.796-12.152-5.64-18.368-8.148 1.652-1.036 2.02-2.556 1.672-4.364-3.692-19.24-7.712-38.42-10.9-57.748-1.26-7.612-5.004-8.512-11.144-6.756 0.608-0.772 1.064-1.948 1.856-2.264 8.632-3.448 10.42-12.028 8.456-18.276-2.312-7.36-10.684-4.964-16.988-3.356-2.952 0.756-5.868 1.732-8.708 2.848-34.28 13.464-69.188 25.228-103.456 38.792-36.796 14.564-74.676 26.364-111.908 39.86-79.032 28.652-157.932 57.668-236.924 86.424-76.788 27.96-153.648 55.732-230.412 83.752-6.284 2.292-11.668 1.208-17.528-1.12-6.928-2.752-5.584-9.664-7.888-14.548-21.1-44.792-41.72-89.816-62.544-134.736-26.68-57.568-53.216-115.196-80.34-172.552-4.392-9.276-6.076-16.724 2.572-23.864l0.024-0.008c8.232-0.652 16.336-1.64 22.436-8.152l0.028-0.012c1.664 0.008 3.168-0.312 4.088-1.904l0.212-0.048c2.144-0.196 4.536 0.292 5.876-2.124l0.028-0.012c4.42-0.312 9.564 1.532 12.228-4.068l0.028-0.016c1.664 0.016 3.168-0.312 4.088-1.9l0.208-0.048c2.148-0.188 4.54 0.296 5.88-2.12l0.032-0.012c2.252-0.008 4.644 0.384 6.096-2.028l0.028-0.008c3.62-0.792 8.752 2.352 10.248-3.948l0.176-0.044 7.784-0.056c1.22 19.26-0.564 38.98 8.676 57.024-0.728 3.884 0.508 7.352 2.096 10.808 10.344 22.476 20.516 45.036 31.004 67.444 22.58 48.24 44.952 96.576 68.288 144.44 4.752 9.748 11.916 19.22 22.604 23.996 22.004 9.844 44.072 7.492 66.084-0.488 47.744-17.312 95.548-34.464 143.3-51.756 70.048-25.372 140.136-50.624 210.068-76.32 20.528-7.548 42.268-12.836 59.24-28.016 11.624-3.108 12.9-14.72 18.12-22.84 5.152-8.016 1.284-30.124-5.028-36.712 1.08-4.156 0.104-7.888-1.7-11.74-6.88-14.696-13.364-29.572-20.252-44.26-33.024-70.412-66.132-140.788-99.208-211.172 1.328-0.24 2.724-0.3 3.972-0.748 32.08-11.568 64.32-22.72 96.092-35.06 9.62-3.736 21.504-4.392 27.604-15 16.568-1.476 28.428 5.196 36.348 21.924 12.168 25.7 23.644 51.736 35.568 77.556 1.38 2.98 2.24 6.484 5.424 8.376 0.112 5.62 3.728 9.772 6.052 14.472 0.844 2.556 1.448 5.228 2.584 7.656 25.192 53.932 50.428 107.86 75.664 161.792z" fill="#FED328" /><path d="M53.088 376.752c-8.648 7.14-6.964 14.584-2.572 23.864 27.124 57.356 53.66 114.988 80.34 172.552 20.824 44.916 41.444 89.94 62.544 134.736 2.3 4.884 0.96 11.792 7.888 14.548 5.864 2.328 11.248 3.416 17.528 1.12 76.764-28.02 153.624-55.788 230.412-83.752 78.992-28.756 157.892-57.772 236.924-86.424 37.232-13.496 75.108-25.296 111.908-39.86 34.268-13.564 69.176-25.332 103.456-38.792 2.84-1.116 5.752-2.092 8.708-2.848 6.304-1.608 14.676-4 16.988 3.356 1.964 6.248 0.176 14.828-8.456 18.276-0.792 0.316-1.248 1.492-1.856 2.264l-8.3 3.404c-1.384 0.492-2.764 0.976-4.144 1.46-0.656 0.176-1.316 0.36-1.976 0.544l-4.164 1.616a1.776 1.776 0 0 1-1.68 0.524l-2.408 1.176-2.376 0.632-3.74 1.56c-0.684 0.192-1.372 0.384-2.064 0.584l-4.072 1.596a1.872 1.872 0 0 1-1.744 0.556l-2.336 1.152-2.352 0.68-3.772 1.552c-0.668 0.204-1.34 0.408-2.008 0.604-1.608-0.076-3.104 0.16-4.12 1.616-5.864 1.264-10.612 6.552-17.32 4.752-12.564 2.072-22.748 10.016-34.54 13.992-21.964 7.412-44.232 14.056-65.832 22.4-24.824 9.592-26.3 16.028-21.088 43.044-0.776 1.096-1.356 2.456-2.372 3.26-24.556 19.376-41.772 43.528-48.724 74.42-57.896 20.836-115.808 41.632-173.652 62.612-4.852 1.756-8.656 1.624-13.316-0.928-13.1-7.196-27.452-10.684-42.228-12.488-0.652-0.692-1.216-1.868-1.972-2.008-24.184-4.564-48.696-3.944-72.86-1.696-27.212 2.544-53.704 9.644-79.276 19.756-20.2 7.992-38.604 19.212-56.74 30.904-4.652 3-8.196 11.108-13.696 8.26-4.06-2.104-3.504-10.212-3.908-16-0.644-9.248-2.512-20.196-11.024-23.672-15.892-6.48-21.748-19.864-27.992-33.26-23.08-49.5-45.592-99.268-68.632-148.788-22.476-48.312-45.376-96.432-67.992-144.68-4.28-9.132-9.812-18.028-7.776-28.904 5.2-4.94 11.136-8.404 18.384-9.272z" fill="#F6AC21" /><path d="M743.94 497.364c-16.972 15.18-38.716 20.472-59.244 28.016-69.928 25.696-140.02 50.948-210.068 76.32-47.752 17.292-95.556 34.444-143.3 51.756-22.012 7.98-44.08 10.332-66.084 0.488-10.688-4.776-17.852-14.248-22.604-23.996-23.336-47.868-45.708-96.204-68.288-144.44-10.488-22.408-20.66-44.968-31.004-67.444-1.588-3.452-2.824-6.924-2.096-10.808 7.484 10.656 11.18 23.16 16.784 34.728 11.82 24.396 22.804 49.188 34.232 73.776a18379.12 18379.12 0 0 0 46.108 98.584c2.308 4.892 5.404 10.376 11.996 9.044 7.308-1.476 4.608-8.048 4.764-12.708 1.092-32.536-2.296-65.152 2.056-97.62 0.756-5.652-0.896-10.824-3.96-15.468-5.824-8.82-9.764-18.528-14.192-28.064-30.272-65.188-60.904-130.212-91.088-195.436-2.164-4.676-4.592-6.108-9.088-5.648 1.068-17.828 10.488-31.832 20.9-45.34 3.084-4 6.544-7.704 9.832-11.544-0.104 13.504-1.236 26.964 5.444 39.756 7.7 14.732 14.5 29.932 21.54 45 13.18 28.212 26.18 56.504 39.396 84.692 12.536 26.736 24.868 53.572 38.008 80.004 9.836 19.796 25.656 30.724 48.756 30.236 18.484-0.396 34.464-8.816 51.48-14.08 50.856-15.712 99.248-37.968 149.332-55.712 30.916-10.944 61.124-24.068 93.28-31.272 5.404-1.216 12.208-4.572 16.416-0.836 5.968 5.3 14.012 8.496 17.884 16.104-12.152-3.132-23.896-2.416-35.84 1.94-66.74 24.332-133.708 48.02-200.344 72.62-21.568 7.964-43.684 14.564-64.424 24.776-17.116 8.428-25.672 21.328-23.816 40.788 2.284 23.908 4.208 47.848 6.284 71.764-4.82 0.344-8.024-2.952-11.816-5.048-2.856-1.576-5.852-4.952-8.984-3.584-3.672 1.604-1.596 6.004-1.84 9.172-0.284 3.692-0.112 7.424-0.06 11.14 0.124 7.984 4.64 12.38 11.812 9.428 8.28-3.396 17.776-4.116 24.808-10.452 9.308 0.584 18.232-1.416 26.856-4.544 84.332-30.556 168.728-60.932 252.856-92.036 20.164-7.448 41.74-12.14 59.16-26 10.912-2.192 21.176-6.12 30.94-11.4 2.576-0.72 4.816-1.888 6.084-4.416 1.4-1.216 2.796-2.44 4.196-3.664l8.028-7.352c2.976 6.264 5.94 12.524 8.908 18.78z" fill="#926614" /><path d="M651.136 405.448c-3.872-7.612-11.916-10.808-17.884-16.104-4.212-3.732-11.016-0.376-16.416 0.836-32.156 7.208-62.364 20.328-93.28 31.272-50.084 17.744-98.476 40-149.332 55.712-17.016 5.26-32.996 13.684-51.48 14.08-23.1 0.492-38.916-10.436-48.756-30.236-13.144-26.432-25.476-53.268-38.008-80.004-13.212-28.188-26.212-56.48-39.396-84.692-7.04-15.068-13.84-30.264-21.54-45-6.68-12.792-5.548-26.248-5.444-39.756l-0.004-0.12 2.004-1.996 0.04-0.048 2-1.992 0.044-0.044 2-2 0.044-0.044 2-1.996 0.016 0.004 4.408-2.144C223.108 170.372 272.68 159.08 319.276 141.26c49.032-18.752 98.74-35.756 148.228-53.308 7.84-2.784 15.708-6.376 24.48-4.916-28.348 10.144-56.72 20.216-85.036 30.44-55.16 19.92-110.352 39.764-165.392 60.024-12.54 4.616-20.732 14.948-28.16 25.624-3.372 4.848-3.396 9.66-0.732 15.272 12.064 25.444 23.656 51.108 35.472 76.668 21.076 45.58 42.408 91.044 63.152 136.772 6.34 13.972 17.416 18.744 31.38 20.416 18.432 2.208 34.596-5.448 51.1-11.304 40.576-14.384 81.012-29.164 121.484-43.836 19.436-7.044 38.948-13.904 58.216-21.408 24.876-9.696 50.776-7.368 76.428-6.82 8.88 0.192 18.788 22.42 13.788 29.748-3.204 4.692-1.376 6.352 2.116 8.824 8.188 5.816 14.064 13.416 18.42 22.596 9.2 19.34 19.028 38.376 28.58 57.556 1.656 3.324 3.832 6.468 3.932 10.396-9.764 5.284-20.032 9.212-30.94 11.404 5.924-7.796 6.588-16.828 2.608-24.964-12.256-25.068-18.916-52.96-37.264-74.996z" fill="#F6AC21" /><path d="M446.58 726.116c14.776 1.804 29.128 5.292 42.228 12.488 4.66 2.556 8.46 2.688 13.316 0.928 57.844-20.98 115.756-41.776 173.656-62.612 9.416-1.168 17.596-6.248 26.688-8.448-0.712 9.672-0.024 19.536 0.296 29.016 0.324 9.408 1.864 18.708-0.204 28.128-15.552 0.54-28.888 8.504-43.04 13.424-42.924 14.944-85.5 30.896-128.176 46.548-3.148 1.16-7.716 1.036-7.072 6.736 2.248 19.864-19.448 34.44-35.604 35.252-7.588 0.384-9.444 2.64-9.812 9.84-0.332 6.532-0.816 13.608-5.292 19.264-2.748-0.652-3.764-2.452-3.764-5.204 0.008-20.256-12.816-29.144-30.164-34.152-3.136-0.908-7.16-0.948-8.78-4.392-5.276-11.256-14.164-10.492-24.148-8.256-4.872 1.092-10.292 1.388-15.164 0.46-10.476-1.992-19.04 2.388-27.932 6.468-9.424 4.324-17.108 11.12-24.9 17.596-19.888 16.536-33.168 36.508-30.268 63.972-7.116 0.444-11.236 8.3-18.812 7.604-2.044-26.948 10.376-47.276 28.528-65.776 12.888-13.132 28.268-23.264 41-36.464 2.976-3.084 5.876-6.252 3.18-10.64-2.512-4.088-6.316-2.576-10.024-1.476-13.088 3.84-26.624 7.312-40.004 4.048-9.052-2.208-17.88-3.484-27.048-3.456 1.604-1.752 3.008-3.752 4.84-5.216 45.728-36.592 97.348-56.7 156.476-55.68z m62.688 72.536c-1.324-13.044-10.232-20.668-23.432-19.816 6.044 9.136 13.356 15.676 23.432 19.816z m-107.96-51.292c8.384 2.268 16.496 1.244 23.968-3.748-8.528-3.392-16.332-1.44-23.968 3.748z" fill="#6A6A6A" /><path d="M446.58 726.116c-59.124-1.02-110.748 19.084-156.476 55.684-1.832 1.464-3.236 3.464-4.836 5.216-15.092 13.068-28.028 27.824-36.228 46.288-5.452 1.768-10.796 4.088-16.38 5.212-26.248 5.284-36.46 1.852-46.328-21.076-5.332-12.388-11.404-24.46-17.144-36.672 1.604-3.076 9.156-1.272 6.82-6.512-1.516-3.416-5.932-0.356-8.968 0.816-10.752 4.152-15.228 0.34-15-12.716 2.564 0.744 5.264 1.196 7.676 2.288 4.58 2.084 9.14 1.272 12.176-1.86 2.98-3.076-0.068-7.248-1.396-10.412-6.004-14.3-13.012-28.196-18.676-42.624-3.832-9.76-9.256-12.528-18.508-7.688-0.832-1.024-1.916-1.932-2.456-3.092-22.648-48.344-45.248-96.708-67.852-145.064 1.436-2.72 6.208-4.892 3.092-8.396-2.692-3.028-6.096-0.596-8.896 1.46a18.496 18.496 0 0 1-4.408 2.364c-10.22 3.824-15.576-0.488-14.92-11.928 6.868 2.86 13.616 2.38 20.864 0.788 6.028-1.32 6.188-3.684 4.32-8.328-8.448-21.028-16.584-42.2-29.388-61.132-3.468-16.8-7.288-33.532-10.28-50.412-2.232-12.596-0.2-24.248 11.32-32.292-2.036 10.868 3.496 19.764 7.776 28.896 22.612 48.248 45.512 96.368 67.992 144.68 23.04 49.52 45.556 99.288 68.632 148.788 6.248 13.4 12.1 26.78 27.992 33.26 8.512 3.476 10.384 14.424 11.024 23.672 0.404 5.788-0.156 13.896 3.908 16 5.5 2.848 9.044-5.26 13.696-8.26 18.136-11.692 36.536-22.912 56.74-30.904 25.572-10.112 52.064-17.216 79.276-19.756 24.168-2.248 48.676-2.868 72.86 1.696 0.756 0.148 1.32 1.324 1.976 2.016z" fill="#926614" /><path d="M963.448 564.812c4.62-9.012 1.084-18.016-0.376-26.888-1.904-11.616-4.644-23.096-7.024-34.644 5.136-2.756 4.916-7.112 4.116-12.088-2.24-13.912-7.984-26.8-11.412-40.356l1.748-1.528c8.528 18.268 16.968 36.576 25.68 54.756 1.328 2.776 1.548 6.84 5.844 7.468 0.252 0.544 0.504 1.096 0.74 1.652 2.492 14.548 8.484 27.504 17.752 38.96l0.116 0.216c-0.78 7.516 3.8 13.432 5.98 20.072l0.396 4.264c5.416 23.032 1.072 30.852-13.636 40.06-5.924 3.716-8.472 1.54-9.072-4.708-0.164-1.684 0.02-3.512-0.572-5.032-1.248-3.24 0.4-8.868-3.952-9.304-4.004-0.4-8.38 2.056-12.456 3.596-2.664 1.012-1.74 3.316-0.88 5.128 0.872 1.812 2.036 3.5 3.148 5.188 13.316 20.248 6.912 38.912-15.924 48.024-8.48 3.38-17.396 1.82-25.876 3.968-2.712-17.624-13.148-28.004-30.748-31.568-26.176-5.296-50.824 0.512-73.652 12.244-33.12 17.02-63.12 37.504-59.76 81.728-8.888 2.888-15.728 10.2-25.58 11.264-5.288 0.58-10.392 2.124-15.48-0.54 3.76-17.424 11.784-33.068 21.752-47.512 13.852-20.084 30.52-37.86 48.228-54.648 1.896-1.792 4.612-3.784 2.916-6.84-1.716-3.084-4.64-1.504-7.252-0.984-16.352 3.224-32.084 0.312-47.568-4.94 3.112-4.072 6.916-7.324 10.952-10.528 15.8-12.56 33.38-21.956 51.752-29.964 46.528-20.284 93.596-28.704 141.876-5.688 4.412 2.1 7.84 1.436 10.416-2.832l-0.036 0.032c3.368-1.928 6.092-4.504 7.844-8.028z m-88.312 54.328c31.26 1.86 61.4 2.664 77.096 36.124 6.012-26.044-36.164-47.168-77.096-36.124z m5.492-40.444c-10.94-3.836-18.772-1.74-26.248 3.188 8.456 2.852 16.324 1.016 26.248-3.188z" fill="#6A6A6A" /><path d="M138.868 268.444c4.496-0.46 6.924 0.972 9.088 5.648 30.184 65.228 60.816 130.248 91.088 195.436 4.424 9.536 8.368 19.244 14.192 28.064 3.064 4.644 4.72 9.82 3.96 15.468-4.352 32.468-0.964 65.084-2.056 97.62-0.16 4.66 2.54 11.232-4.764 12.708-6.588 1.332-9.684-4.152-11.996-9.044a17935.144 17935.144 0 0 1-46.108-98.584c-11.428-24.588-22.412-49.384-34.232-73.776-5.604-11.568-9.3-24.072-16.784-34.728-9.24-18.044-7.46-37.764-8.676-57.032l-0.692-2.812c2.484-20.928 0.52-41.916 0.732-62.872 0.052-6.312 0.664-12.08 6.248-16.096zM308.444 893.18c-2.9-27.464 10.38-47.436 30.268-63.972 7.792-6.476 15.476-13.272 24.9-17.596 8.892-4.084 17.456-8.46 27.932-6.468 4.872 0.924 10.288 0.632 15.164-0.46 9.988-2.236 18.872-3 24.148 8.256 1.62 3.44 5.644 3.484 8.78 4.392 17.348 5.008 30.172 13.896 30.164 34.152 0 2.752 1.016 4.552 3.764 5.204-6.936 19.832-21.388 33.412-38.372 44.288-26.792 17.156-55.756 25.508-87.868 18.916-16.804-3.46-29.272-12.932-38.88-26.712z m56.864-46.548c9.744 0 18.168-0.2 26.576 0.136 2.076 0.084 5.048 0.908 5.404 3.796 0.296 2.392-1.732 3.456-3.788 4.012-2.916 0.776-3.812 2.724-2.996 5.404 0.928 3.06 3.664 2.708 5.948 2.46 3.34-0.36 6.724-1.888 9.936-1.54 5.12 0.56 11.368 2.336 9.66 9.012-2.24 8.756-10.124 12.26-18.288 14.332-6.752 1.708-12.672-0.616-16.18-6.284-2.592-4.192-5.5-5.36-9.94-5.112-6.452 0.356-12.912 0.532-18.816-3.016-2.34-1.408-4.392-0.952-5.964 1.688-3.668 6.168-7.032 12.248-5.8 19.932 2.052 12.808 23.668 24.968 30.116 16.136 6.912-9.472 16.948-10.068 25.508-14.508 17.224-8.928 32.756-19.696 39.956-38.32 7.332-18.964 1.952-28.56-18.048-28.376-19.192 0.176-37.292 5.996-53.284 20.248zM37.876 537.412c-0.656 11.44 4.7 15.752 14.92 11.928a18.496 18.496 0 0 0 4.408-2.364c2.8-2.06 6.2-4.488 8.896-1.46 3.116 3.504-1.656 5.676-3.088 8.4-13.104 1.332-13.864 2.696-8.568 13.896 7.804 16.492 15.372 33.088 23.128 49.604 13.944 29.7 28.032 59.324 41.828 89.088 1.752 3.784 2.932 6.124 6.932 2.648l25.72 53.208c-0.232 13.056 4.248 16.868 14.996 12.716 3.032-1.172 7.448-4.232 8.968-0.816 2.332 5.24-5.216 3.436-6.82 6.512-3.052 0.08-6.116 0.288-9.168 0.192-6.316-0.204-7.852 2.036-5.032 7.948 9.932 20.832 19.268 41.96 29.496 62.64 4.412 8.92 10.704 16.572 22.088 17.408 4.636 0.344 7.2 3.416 7.752 8.048 0.84 7.044 1.652 14.088 2.48 21.136-19.48 3.676-30.388-1.32-38.768-19.224-32.368-69.132-64.4-138.424-96.664-207.616-20.124-43.156-40.3-86.292-60.732-129.304-8.228-17.312-11.108-35.42-10.048-54.34 0.156-2.76 1.32-5.168 3.856-6.656-0.844 3.964 1.32 7.252 2.756 10.532 6.732 15.36 13.752 30.596 20.664 45.876zM763.632 726.02c-3.36-44.224 26.64-64.708 59.76-81.728 22.828-11.732 47.476-17.54 73.652-12.244 17.596 3.564 28.036 13.94 30.748 31.568-1.416 11.308-3.864 22.252-11.048 31.54-3.66-3.336 0.196-6.244 0.788-9.164 1.776-8.752 2.968-17.44-1.056-25.784-7.848-16.296-43.564-20.74-54.908-11.772 9.536-1.472 18.068 1.288 26.744 2.168 22.284 2.252 30.648 24.828 18.116 47.108-2.052 3.656-6.628 7.352 0.96 9.984-29.176 30.048-64.076 44.788-106.272 38.808-14.792-2.096-27.44-9.168-37.484-20.484z m63.256-59.348c-14.388 1.32-21.488 12.32-27.66 22.864-6.676 11.388-1.652 22.864 10.82 28.072 7.8 3.256 16.116 4.236 24.68 2.988 20.08-2.924 36.072-13.196 49.416-27.792 11.42-12.504 10.828-30.188-0.64-37.848-11.036-7.376-48.564-0.312-56.696 10.7-0.148 0.196 0.076 0.66 0.116 0.992l-0.036 0.024z m9 73.56c-21.524-3.7-43.54-5.88-47.468-36.244-4.168 14.404-3.14 20.444 4.196 27.432 12.448 11.84 27.568 11.76 43.272 8.812z" fill="#4D3D1C" /><path d="M249.04 833.304c8.196-18.464 21.132-33.224 36.228-46.288 9.164-0.028 17.992 1.248 27.044 3.456 13.38 3.264 26.916-0.208 40.004-4.048 3.712-1.096 7.512-2.612 10.024 1.476 2.696 4.388-0.204 7.56-3.18 10.64-12.732 13.2-28.112 23.332-41 36.464-18.152 18.5-30.572 38.828-28.528 65.776-14.604 4.144-28.156 2.22-39.248-8.528-6.408-6.204-11.148 1.216-16.696 0.656 0.468-8.908-0.132-17.584-6.472-25.344 6.812-2.48 12.74-5.056 18.912-6.744 3.736-1.016 5.692-2.656 4.468-6.268-2.38-6.992-0.608-14.204-1.556-21.248zM635.872 170.64c33.076 70.388 66.184 140.76 99.208 211.172 6.892 14.692 13.376 29.568 20.252 44.26 1.804 3.852 2.776 7.584 1.7 11.74-1.94 1.264-3.816 3.076-5.564-0.384-1.792-3.56-3.852-6.984-5.792-10.472-9.832-20.092-19.424-40.308-29.604-60.224-4.352-8.508-11.632-14.788-19.172-20.588-6.936-5.332-10.816-12.124-13.256-20.784-2.992-10.64-8.08-20.752-12.78-30.844-29.316-62.912-58.8-125.748-88.172-188.632-1.344-2.876-4.24-5.772-1.016-9.228 15.252-5.408 15.24-5.404 23.004 10.092 9.856 19.668 19.736 39.32 29.6 58.98l1.592 4.912zM740.644 621.82c15.48 5.252 31.216 8.164 47.568 4.94 2.612-0.52 5.54-2.096 7.252 0.984 1.7 3.056-1.02 5.048-2.916 6.84-17.708 16.788-34.376 34.564-48.228 54.648-9.964 14.444-17.988 30.084-21.752 47.512-8.016-1.296-14.92-4.592-20.016-11.128 2.068-9.42 0.528-18.724 0.204-28.128-0.32-9.48-1.008-19.344-0.3-29.012 1.732-2.848 3.4-5.736 5.192-8.54 9.172-14.288 18.408-28.52 32.996-38.116z" fill="#4D3D1C" /><path d="M249.04 833.304c0.948 7.044-0.824 14.252 1.556 21.252 1.228 3.612-0.732 5.252-4.468 6.268-6.172 1.688-12.1 4.26-18.912 6.744 6.34 7.756 6.94 16.436 6.472 25.344-5.072 3.536-10.828 4.856-16.88 5.228-0.828-7.048-1.64-14.092-2.48-21.136-0.552-4.628-3.116-7.704-7.752-8.048-11.384-0.836-17.676-8.484-22.088-17.408-10.224-20.68-19.564-41.808-29.496-62.64-2.82-5.916-1.284-8.152 5.032-7.948 3.048 0.096 6.112-0.112 9.168-0.192 5.74 12.212 11.812 24.284 17.144 36.672 9.868 22.924 20.076 26.36 46.328 21.076 5.584-1.12 10.924-3.44 16.376-5.212z" fill="#6A6A6A" /><path d="M925.176 411.62c-25.236-53.932-50.472-107.86-75.656-161.808-1.136-2.428-1.744-5.1-2.584-7.664l5.08-2.54 5.484-0.236c3.684 2.232 5.284 5.828 7.08 9.584 4.144 8.696 6.76 18.248 13.692 25.452-1.328 5.168 1.912 9.052 3.844 13.248 11.668 25.308 23.316 50.628 35.18 75.852 6.648 14.152 7.412 29.968 13.02 44.42 2.236 5.792-2.796 3.296-5.14 3.692z" fill="#4D3D1C" /><path d="M37.876 537.412c-6.916-15.276-13.932-30.516-20.66-45.876-1.436-3.28-3.604-6.568-2.756-10.532 4.936-6.404 15.28-4.364 19.216-12.292 12.804 18.96 20.94 40.132 29.388 61.16 1.868 4.644 1.708 7.008-4.32 8.328-7.248 1.588-14 2.068-20.868-0.788zM1007.012 576.696c-0.128-1.42-0.26-2.844-0.396-4.26 0.668-7.48 0.376-14.684-5.98-20.076l-0.116-0.216c-3.36-14.148-10.288-26.676-17.752-38.96a50.752 50.752 0 0 0-0.74-1.652c5.592-7.108 10.888-7.856 14.312-0.584 8.28 17.592 18.52 34.412 23.36 53.464 2.46 9.684-2.784 14.436-12.688 12.284zM635.872 170.64l-1.592-4.912c25.872-11.596 52.916-20.06 79.56-29.58 16.404-5.864 32.04-14.252 49.708-16.32-6.1 10.608-17.984 11.264-27.604 15-31.772 12.34-64.016 23.496-96.092 35.06-1.26 0.452-2.652 0.512-3.98 0.752zM878.264 274.412c-6.928-7.204-9.548-16.756-13.692-25.452-1.792-3.756-3.396-7.352-7.076-9.576-6.608-7.992-7.828-18.836-14.232-26.944 3.328-6.06 10.796-7.376 13.4-1.28 8.136 19.064 20.412 36.42 24.276 57.268 0.464 2.472-0.408 4.604-2.676 5.984z" fill="#F6AC21" /><path d="M907.396 707.696c-7.588-2.632-3.012-6.328-0.96-9.984 12.532-22.28 4.168-44.856-18.116-47.108-8.676-0.88-17.208-3.64-26.744-2.168 11.344-8.964 47.06-4.524 54.908 11.772 4.024 8.344 2.832 17.032 1.056 25.784-0.592 2.92-4.448 5.828-0.788 9.164-1.608 5.308-5.328 9.036-9.356 12.54zM852.012 239.612l-5.08 2.54c-2.324-4.692-5.936-8.848-6.052-14.468 0.1-7.016-4.752-12.764-5.56-19.784 4.528-0.468 3.912 4.132 6.332 5.34l10.36 26.372z" fill="#6A6A6A" /><path d="M852.012 239.612l-10.356-26.368c0.54-0.264 1.08-0.532 1.612-0.804 6.404 8.108 7.62 18.952 14.232 26.944-1.836 0.072-3.656 0.148-5.488 0.228z" fill="#926614" /><path d="M75.548 368.592c-6.1 6.512-14.204 7.5-22.436 8.152 6.932-4.22 14.58-6.472 22.436-8.152zM98.004 360.42c-2.664 5.6-7.804 3.752-12.228 4.068 3.808-2.176 7.848-3.636 12.228-4.068zM124.612 350.336c-1.496 6.304-6.628 3.156-10.248 3.948l10.248-3.948zM131.88 347.42l0.692 2.816-7.784 0.056 7.092-2.872zM114.336 354.292c-1.456 2.416-3.844 2.02-6.096 2.028 1.576-2.052 3.984-1.6 6.096-2.028zM108.208 356.336c-1.34 2.416-3.732 1.932-5.88 2.12l5.88-2.12zM85.752 364.5c-1.34 2.416-3.732 1.928-5.876 2.124l5.876-2.124z" fill="#F6AC21" /><path d="M948.756 450.836c-1.384-1.476-3.16-4.012-1.46-4.972 2.684-1.516 1.856 2.436 3.204 3.444l-1.744 1.528z" fill="#6A6A6A" /><path d="M79.664 366.676c-0.92 1.588-2.428 1.912-4.088 1.904 0.952-1.52 2.364-2.044 4.088-1.904z" fill="#F6AC21" /><path d="M182.148 201.18l-4.408 2.144c1.004-1.68 2.364-2.612 4.408-2.144z" fill="#926614" /><path d="M102.124 358.504c-0.92 1.588-2.424 1.916-4.088 1.9 0.948-1.512 2.364-2.04 4.088-1.9z" fill="#F6AC21" /><path d="M173.64 207.404l-2 1.992 2-1.992zM171.596 209.44l-2.004 1.996 2.004-1.996zM175.68 205.36l-2 2 2-2zM177.724 203.32l-2 1.996 2-1.996z" fill="#926614" /><path d="M745.676 426.956c1.94 3.488 4 6.912 5.792 10.472 1.748 3.46 3.62 1.648 5.564 0.384 6.312 6.588 10.18 28.696 5.028 36.712-5.224 8.12-6.496 19.732-18.12 22.84-2.964-6.256-5.928-12.516-8.904-18.776 9.064-5.692 5.656-15.74 7.716-23.684 2.324-8.968 2.06-18.604 2.924-27.948z" fill="#F6AC21" /><path d="M727.008 485.94l-4.196 3.664c-4.36-0.292-5.06-4.116-6.512-7.008-12.66-25.144-25.232-50.324-38.112-76.068 4.944-1.316 8.236 1.464 10.148 4.62 14.58 24.044 28.3 48.56 38.672 74.792zM627.684 331.228c2.672 0.496 6.968-0.46 6.412 3.232-0.704 4.624-5.612 4.044-9.232 4.156-2.192 0.06-5.864 0.568-5.656-2.56 0.336-5.1 5.188-4.144 8.476-4.828z" fill="#FEFEFE" /><path d="M740.644 621.82c-14.588 9.592-23.824 23.828-32.992 38.116-1.792 2.804-3.46 5.692-5.192 8.54-9.084 2.2-17.264 7.276-26.684 8.444 6.944-30.896 24.164-55.048 48.72-74.42 1.016-0.804 1.592-2.164 2.372-3.26 4.764-0.908 6.48-5.736 10.08-7.944 26.768-16.46 54.688-30.392 85.732-36.956 10.468-2.22 20.98-4.208 31.476-6.296 4.384-0.04 8.772-0.072 13.152-0.116 24.728-0.28 48.348 4.036 69.964 16.74 6.216 2.508 10.684 8.944 18.368 8.148-2.576 4.268-6.004 4.932-10.416 2.832-48.276-23.016-95.348-14.596-141.876 5.688-18.372 8.008-35.948 17.408-51.752 29.964-4.036 3.196-7.84 6.452-10.952 10.52z" fill="#926614" /><path d="M937.268 564.66c-21.616-12.704-45.24-17.02-69.964-16.74-4.38 0.048-8.768 0.08-13.16 0.116-1.824-3.152-3.276-6.588-5.532-9.392-5.12-6.352-7.332-12.444-0.284-18.844 6.708 1.796 11.456-3.488 17.32-4.752 1.588 0 3.204 0.072 4.12-1.616l2.008-0.604c1.608 0.352 2.948 0.016 3.772-1.552l2.36-0.68 2.328-1.152a1.864 1.864 0 0 0 1.744-0.556c1.672 0.26 3.14 0.008 4.072-1.596l2.068-0.584c1.6 0.332 2.92-0.012 3.736-1.56l2.376-0.632 2.408-1.176a1.784 1.784 0 0 0 1.684-0.524c1.692 0.248 3.2 0.008 4.16-1.616 0.66-0.184 1.32-0.368 1.98-0.544 1.676 0.352 3.06-0.12 4.14-1.46l8.3-3.404c6.14-1.756 9.884-0.856 11.144 6.756 3.188 19.328 7.208 38.508 10.9 57.748 0.34 1.808-0.028 3.328-1.68 4.364z" fill="#FEFEFE" /><path d="M963.448 564.812c-1.752 3.524-4.476 6.096-7.848 8.028-0.092-5.316 1.78-8.728 7.848-8.028z" fill="#926614" /><path d="M848.328 519.804c-7.048 6.4-4.836 12.492 0.284 18.844 2.252 2.8 3.708 6.24 5.532 9.392-10.488 2.088-21 4.08-31.468 6.296-31.044 6.568-58.96 20.496-85.732 36.956-3.596 2.212-5.312 7.04-10.08 7.944-5.212-27.016-3.736-33.448 21.088-43.044 21.6-8.344 43.868-14.988 65.832-22.4 11.8-3.972 21.98-11.916 34.544-13.988zM902.476 501.204c-0.96 1.624-2.468 1.864-4.16 1.616l4.16-1.616zM908.596 499.196c-1.084 1.34-2.464 1.812-4.14 1.46 1.376-0.484 2.76-0.968 4.14-1.46zM891.852 505.152c-0.812 1.548-2.132 1.892-3.736 1.56l3.736-1.56zM886.052 507.292c-0.928 1.608-2.4 1.86-4.072 1.596l4.072-1.596zM875.552 511.276c-0.824 1.568-2.164 1.904-3.772 1.552l3.772-1.552zM869.768 513.432c-0.916 1.688-2.532 1.616-4.12 1.616 1.016-1.456 2.512-1.688 4.12-1.616zM896.632 503.34l-2.408 1.176c0.808-0.392 1.608-0.78 2.408-1.176zM880.24 509.444l-2.328 1.152 2.328-1.152z" fill="#FED328" /><path d="M651.136 405.448c18.348 22.036 25.008 49.928 37.26 75.004 3.98 8.136 3.316 17.168-2.608 24.964-17.42 13.856-38.996 18.548-59.16 26-84.128 31.1-168.524 61.48-252.856 92.036-8.628 3.128-17.552 5.128-26.856 4.54-6.48-1.144-10.228-5.864-13.92-10.652-2.076-23.916-4-47.86-6.284-71.764-1.856-19.46 6.7-32.36 23.816-40.788 20.744-10.212 42.86-16.812 64.424-24.776 66.636-24.596 133.604-48.288 200.344-72.62 11.948-4.364 23.688-5.076 35.84-1.944z" fill="#4D3D1C" /><path d="M332.996 617.336c3.692 4.788 7.44 9.508 13.92 10.652-7.032 6.34-16.528 7.064-24.808 10.456-7.172 2.948-11.688-1.444-11.812-9.428-0.056-3.716-0.228-7.448 0.06-11.14 0.248-3.168-1.832-7.568 1.84-9.172 3.132-1.368 6.128 2.012 8.984 3.584 3.792 2.096 6.996 5.392 11.816 5.048z" fill="#F6AC21" /><path d="M509.268 798.652c-10.08-4.14-17.392-10.68-23.432-19.816 13.204-0.852 22.108 6.772 23.432 19.816zM401.308 747.36c7.64-5.188 15.44-7.14 23.968-3.748-7.472 4.988-15.588 6.016-23.968 3.748z" fill="#FEFEFE" /><path d="M126.332 709.152c-4 3.476-5.18 1.136-6.932-2.648-13.792-29.764-27.884-59.392-41.828-89.088-7.752-16.516-15.324-33.112-23.128-49.604-5.3-11.2-4.54-12.564 8.568-13.896 22.604 48.352 45.2 96.716 67.848 145.06 0.544 1.16 1.624 2.072 2.456 3.084-2.028 2.66-6.036 3.372-6.984 7.092z" fill="#6A6A6A" /><path d="M126.332 709.152c0.952-3.72 4.96-4.432 6.988-7.092 9.252-4.832 14.676-2.068 18.508 7.696 5.664 14.428 12.668 28.324 18.676 42.624 1.328 3.16 4.376 7.336 1.396 10.412-3.036 3.132-7.596 3.94-12.176 1.86-2.412-1.092-5.112-1.548-7.676-2.288l-25.716-53.212z" fill="#F6AC21" /><path d="M875.136 619.14c40.928-11.044 83.104 10.08 77.096 36.124-15.696-33.46-45.832-34.264-77.096-36.124zM880.628 578.696c-9.924 4.204-17.792 6.04-26.248 3.188 7.476-4.928 15.308-7.024 26.248-3.188z" fill="#FEFEFE" /><path d="M982.764 513.184c7.464 12.284 14.396 24.812 17.752 38.96-9.268-11.456-15.26-24.412-17.752-38.96zM1000.636 552.36c6.356 5.392 6.648 12.592 5.98 20.076-2.18-6.644-6.76-12.56-5.98-20.076z" fill="#926614" /><path d="M365.308 846.632c15.996-14.252 34.092-20.076 53.288-20.248 20-0.184 25.38 9.412 18.048 28.376-7.2 18.624-22.732 29.392-39.956 38.32-8.56 4.44-18.596 5.036-25.508 14.508-6.448 8.832-28.068-3.328-30.116-16.136-1.232-7.684 2.128-13.764 5.8-19.932 1.572-2.64 3.624-3.092 5.964-1.688 5.904 3.548 12.364 3.372 18.816 3.016 4.44-0.248 7.348 0.92 9.94 5.112 3.508 5.668 9.424 7.992 16.18 6.284 8.164-2.072 16.048-5.576 18.288-14.332 1.712-6.676-4.54-8.452-9.66-9.012-3.212-0.348-6.596 1.18-9.936 1.54-2.284 0.248-5.016 0.596-5.948-2.46-0.816-2.68 0.084-4.624 2.996-5.404 2.056-0.556 4.084-1.62 3.788-4.012-0.356-2.892-3.328-3.716-5.404-3.796-8.412-0.336-16.84-0.136-26.58-0.136zM826.92 666.644c-0.044-0.332-0.264-0.796-0.116-0.992 8.132-11.012 45.66-18.076 56.696-10.7 11.468 7.66 12.064 25.344 0.64 37.848-13.344 14.596-29.336 24.868-49.416 27.792-8.564 1.248-16.88 0.268-24.68-2.988-12.472-5.208-17.496-16.684-10.82-28.072 6.172-10.544 13.272-21.544 27.66-22.864-3.188 2.936-6.448 5.792-9.544 8.82-3.004 2.948-3.848 7.14-1.752 10.256 4.4 6.528 12.62 9.308 16.972 16.552 0.832 1.388 3.536-7.672 8.568-9.224 3.24-1.004 4.688-3.792 3.344-7.336-1.708-4.52 0.664-6.24 4.648-6.828 2.192-0.32 5.204 0.764 5.776-2.552 0.536-3.1-2.04-4.7-4.028-6.544-7.252-6.744-15.748-3.732-23.948-3.168zM835.888 740.232c-15.704 2.948-30.824 3.032-43.272-8.808-7.336-6.988-8.364-13.032-4.196-27.432 3.928 30.36 25.944 32.54 47.468 36.24z" fill="#6A6A6A" /><path d="M826.92 666.644c8.2-0.568 16.696-3.58 23.952 3.176 1.988 1.844 4.564 3.44 4.028 6.544-0.576 3.316-3.584 2.232-5.776 2.552-3.984 0.588-6.356 2.308-4.648 6.828 1.344 3.544-0.104 6.332-3.344 7.336-5.032 1.552-7.736 10.608-8.568 9.224-4.352-7.244-12.576-10.024-16.972-16.552-2.096-3.116-1.252-7.308 1.752-10.256 3.092-3.028 6.356-5.884 9.544-8.82l0.032-0.032z" fill="#4D3D1C" /></svg>