<?xml version="1.0" standalone="no"?><!DOCTYPE svg PUBLIC "-//W3C//DTD SVG 1.1//EN" "http://www.w3.org/Graphics/SVG/1.1/DTD/svg11.dtd"><svg class="icon" width="48px" height="48.00px" viewBox="0 0 1024 1024" version="1.1" xmlns="http://www.w3.org/2000/svg"><path d="M416.256814 301.057537V32.003824A31.74373 31.74373 0 0 0 384.001088 0.004096h-116.223012a31.999728 31.999728 0 0 0-31.999728 31.999728v269.053713l-28.927754 43.263632A546.811352 546.811352 0 0 0 115.203373 647.166595V959.995936A63.999456 63.999456 0 0 0 179.202829 1023.995392h293.629504A63.999456 63.999456 0 0 0 537.599782 959.995936V647.166595a546.811352 546.811352 0 0 0-91.647221-302.845426z" fill="#94CFF7" /><path d="M518.911941 509.439766a549.883326 549.883326 0 0 0-73.727373-165.118597l-28.927754-43.263632V32.003824A31.74373 31.74373 0 0 0 384.001088 0.004096h-116.223012a31.999728 31.999728 0 0 0-31.999728 31.999728v269.053713l-28.927754 43.263632A546.811352 546.811352 0 0 0 115.203373 647.166595v233.726013c191.998368-14.591876 349.181032-165.88659 403.708568-371.452842z" fill="#AAD6F9" /><path d="M115.203373 639.998656H409.60087a25.599782 25.599782 0 0 1 25.599783 25.599782v204.79826a25.599782 25.599782 0 0 1-25.599783 25.599782H115.203373V639.998656z" fill="#F9E8F9" /><path d="M214.018533 96.00328m31.999728 0l159.99864 0q31.999728 0 31.999728 31.999728l0 0q0 31.999728-31.999728 31.999728l-159.99864 0q-31.999728 0-31.999728-31.999728l0 0q0-31.999728 31.999728-31.999728Z" fill="#F5AEF4" /><path d="M326.657575 691.198221a60.671484 60.671484 0 0 0-51.199564 28.927754 60.671484 60.671484 0 0 0-51.199565-28.927754 49.663578 49.663578 0 0 0-51.199565 51.199565 87.03926 87.03926 0 0 0 35.839695 67.07143A228.862055 228.862055 0 0 0 275.202013 844.796915a228.862055 228.862055 0 0 0 66.559434-35.071702 87.03926 87.03926 0 0 0 35.839695-67.327427 49.663578 49.663578 0 0 0-50.943567-51.199565z" fill="#F0A0F2" /><path d="M176.642851 509.695764c-2.30398 0-2.047983-8.19193-1.791985-10.239913a296.189482 296.189482 0 0 1 48.895584-123.390952c3.327972-4.607961 11.263904-8.959924 15.615867-7.167939a7.423937 7.423937 0 0 1 2.815976 11.263905c-4.607961 9.471919-25.599782 34.559706-38.655671 65.023447C183.81079 486.399962 179.202829 510.207759 176.642851 509.695764z" fill="#FFFFFF" /><path d="M252.162209 353.025095m-10.751909 0a10.751909 10.751909 0 1 0 21.503817 0 10.751909 10.751909 0 1 0-21.503817 0Z" fill="#FFFFFF" /><path d="M761.597878 691.966214h38.399674v307.197389h-38.399674z" fill="#F6DAF7" /><path d="M902.652679 1023.995392h-243.709928a6.143948 6.143948 0 0 1-3.327972-11.263904 174.334518 174.334518 0 0 1 97.023176-29.43975h56.319521a174.334518 174.334518 0 0 1 97.023175 29.43975 6.143948 6.143948 0 0 1-3.327972 11.263904zM780.797715 701.438134a120.830973 120.830973 0 0 1-120.830973-127.998912l18.431844-332.797171h204.798259l18.431843 332.797171a120.830973 120.830973 0 0 1-120.830973 127.998912z" fill="#F6DAF7" /><path d="M659.966742 573.69522a119.806982 119.806982 0 0 0 43.775628 99.327155 123.134953 123.134953 0 0 0 25.599783 2.815976 120.830973 120.830973 0 0 0 120.830973-127.998912l-16.895857-307.197388H678.398586z" fill="#F9E8F9" /></svg>