<?xml version="1.0" standalone="no"?><!DOCTYPE svg PUBLIC "-//W3C//DTD SVG 1.1//EN" "http://www.w3.org/Graphics/SVG/1.1/DTD/svg11.dtd"><svg class="icon" width="48px" height="48.00px" viewBox="0 0 1024 1024" version="1.1" xmlns="http://www.w3.org/2000/svg"><path d="M512 512m-436.9 0a436.9 436.9 0 1 0 873.8 0 436.9 436.9 0 1 0-873.8 0Z" fill="#FFFFFF" /><path d="M512 958.9c-60.3 0-118.8-11.8-173.9-35.1-53.2-22.5-101-54.7-142-95.8-41-41-73.3-88.8-95.8-142C77 630.8 65.1 572.3 65.1 512s11.8-118.8 35.1-173.9c22.5-53.2 54.7-101 95.8-142 41-41 88.8-73.3 142-95.8C393.2 77 451.7 65.1 512 65.1s118.8 11.8 173.9 35.1c53.2 22.5 101 54.7 142 95.8 41 41 73.3 88.8 95.8 142 23.3 55.1 35.1 113.6 35.1 173.9 0 60.3-11.8 118.8-35.1 173.9-22.5 53.2-54.7 101-95.8 142s-88.8 73.3-142 95.8C630.8 947 572.3 958.9 512 958.9z m0-873.8C276.6 85.1 85.1 276.6 85.1 512c0 235.4 191.5 426.9 426.9 426.9 235.4 0 426.9-191.5 426.9-426.9 0-235.4-191.5-426.9-426.9-426.9z" fill="#983BFF" /><path d="M512 943.8c-58.3 0-114.8-11.4-168.1-33.9-51.4-21.8-97.6-52.9-137.3-92.5-39.7-39.7-70.8-85.8-92.5-137.3C91.6 626.8 80.2 570.3 80.2 512s11.4-114.8 33.9-168.1c21.8-51.4 52.9-97.6 92.5-137.3s85.8-70.8 137.3-92.5C397.2 91.6 453.7 80.2 512 80.2s114.8 11.4 168.1 33.9c51.4 21.8 97.6 52.9 137.3 92.5 39.7 39.7 70.8 85.8 92.5 137.3 22.5 53.2 33.9 109.8 33.9 168.1s-11.4 114.8-33.9 168.1c-21.8 51.4-52.9 97.6-92.5 137.3-39.7 39.7-85.8 70.8-137.3 92.5-53.3 22.5-109.8 33.9-168.1 33.9z m0-843.6c-227.1 0-411.8 184.7-411.8 411.8 0 227.1 184.7 411.8 411.8 411.8 227.1 0 411.8-184.7 411.8-411.8 0-227.1-184.7-411.8-411.8-411.8z" fill="#6BAAFF" /><path d="M512 926.4c-55.9 0-110.2-11-161.3-32.6C301.3 873 257 843.1 219 805s-67.9-82.4-88.8-131.7C108.5 622.2 97.6 567.9 97.6 512c0-55.9 11-110.2 32.6-161.3C151 301.3 180.9 257 219 219s82.4-67.9 131.7-88.8c51.1-21.6 105.4-32.6 161.3-32.6 55.9 0 110.2 11 161.3 32.6C722.7 151 767 180.9 805 219s67.9 82.4 88.8 131.7c21.6 51.1 32.6 105.4 32.6 161.3 0 55.9-11 110.2-32.6 161.3C873 722.7 843.1 767 805 805s-82.4 67.9-131.7 88.8c-51.1 21.7-105.4 32.6-161.3 32.6z m0-808.8c-217.5 0-394.4 176.9-394.4 394.4 0 217.5 176.9 394.4 394.4 394.4 217.5 0 394.4-176.9 394.4-394.4 0-217.5-176.9-394.4-394.4-394.4z" fill="#5CFFF9" /><path d="M512 512m-399.2 0a399.2 399.2 0 1 0 798.4 0 399.2 399.2 0 1 0-798.4 0Z" fill="#5900A3" /><path d="M791.5 587.9c0 124.5-122.6 177.2-273.8 177.2S244 712.4 244 587.9s122.6-245.4 273.8-245.4 273.7 120.9 273.7 245.4z" fill="#FFCAA8" /><path d="M517.8 771.8c-80.6 0-148.7-14.8-197-42.8-26.5-15.4-47-34.7-61-57.4-14.9-24.2-22.5-52.4-22.5-83.7 0-62.4 30-126 82.3-174.3 26-24.1 56-43.1 89.1-56.5 34.9-14.1 71.6-21.3 109.1-21.3s74.2 7.2 109.1 21.3c33 13.4 63 32.4 89.1 56.5 52.3 48.4 82.3 111.9 82.3 174.3 0 31.4-7.6 59.5-22.5 83.7-14 22.7-34.5 42-61 57.4-48.4 28-116.5 42.8-197 42.8z m0-422.6c-142.3 0-267.1 111.5-267.1 238.7 0 56.4 25.9 99.9 76.9 129.5 46.3 26.8 112 41 190.2 41 78.2 0 144-14.2 190.2-41 51-29.6 76.9-73.2 76.9-129.5-0.1-127.1-124.9-238.7-267.1-238.7z" fill="#9A6500" /><path d="M738.7 583.6c0 97.7-98.9 117.4-221 117.4s-221-19.6-221-117.4 98.9-177 221-177 221 79.3 221 177z" fill="#FFF8DE" /><path d="M436 625.6c0 9.8-17.4 12.6-38.8 12.6s-38.8-2.7-38.8-12.6 17.4-14.7 38.8-14.7 38.8 4.8 38.8 14.7zM579.7 625.6c0 9.8 17.4 12.6 38.8 12.6s38.8-2.7 38.8-12.6-17.4-14.7-38.8-14.7-38.8 4.8-38.8 14.7z" fill="#FF7669" /><path d="M391.6 570.2a22.2 30.2 0 1 0 44.4 0 22.2 30.2 0 1 0-44.4 0Z" fill="#201600" /><path d="M579.7 570.2a22.2 30.2 0 1 0 44.4 0 22.2 30.2 0 1 0-44.4 0Z" fill="#201600" /><path d="M530.6 582.5c0 6.5-10.8 16.1-24.1 16.1s-24.1-9.6-24.1-16.1 10.8-7.9 24.1-7.9 24.1 1.4 24.1 7.9z" fill="#593E00" /><path d="M498.1 630.2a8.4 13.5 0 1 0 16.8 0 8.4 13.5 0 1 0-16.8 0Z" fill="#FF5F49" /><path d="M477 798.4l3-18.6c0.4-2.2-0.4-4.5-2-6.1l-13.7-13c-4.1-3.9-1.9-11 3.7-11.9l18.6-3c2.2-0.3 4.2-1.7 5.1-3.8l8.1-17c2.5-5.2 9.8-5.3 12.4-0.1l8.6 16.8c1 2 3 3.4 5.3 3.8l18.7 2.4c5.7 0.7 8 7.7 4 11.7l-13.4 13.3c-1.6 1.6-2.3 3.9-1.9 6.2l3.4 18.6c1 5.6-4.8 10-9.9 7.4l-16.8-8.6c-2-1.1-4.5-1-6.4 0.1l-16.6 8.9c-5.1 2.8-11.1-1.4-10.2-7.1z" fill="#FFFEBB" /><path d="M483.8 811.6c-2.4 0-4.8-0.7-6.9-2.1-3.8-2.7-5.8-7.2-5.1-11.9v-0.1l3-18.6c0.1-0.5-0.1-1.1-0.5-1.4l-13.7-13c-3.4-3.2-4.6-8-3.2-12.4 1.4-4.5 5.1-7.7 9.7-8.4l18.7-3c0.5-0.1 0.9-0.4 1.1-0.8l8.1-17.1c2-4.3 6.2-6.9 11-6.9 4.7 0 8.8 2.6 10.9 6.8l8.5 16.7c0.2 0.5 0.8 0.8 1.4 1l18.6 2.4c4.6 0.6 8.4 3.7 9.9 8.2 1.5 4.4 0.4 9.2-2.9 12.5L539 776.6c-0.2 0.2-0.6 0.8-0.5 1.5l3.4 18.6c0.8 4.6-1 9.2-4.7 12-3.7 2.8-8.6 3.2-12.7 1.1l-16.8-8.6c-0.5-0.3-1-0.3-1.4 0l-0.1 0.1-16.6 8.9c-1.8 0.9-3.8 1.4-5.8 1.4z m-1.6-12.4c-0.1 0.9 0.4 1.4 0.7 1.7 0.4 0.3 1 0.5 1.7 0.1l16.6-8.9c3.5-2 7.8-2 11.4-0.1l16.7 8.6c0.7 0.4 1.3 0.1 1.7-0.1 0.3-0.2 0.8-0.8 0.7-1.7l-3.4-18.6c-0.7-3.8 0.5-7.8 3.3-10.7l0.1-0.1 13.4-13.3c0.6-0.6 0.5-1.3 0.4-1.7-0.1-0.4-0.5-1-1.3-1.1l-18.8-2.5c-3.9-0.6-7.4-3.1-9.1-6.6l-8.6-16.8c-0.3-0.7-0.8-1-1.5-1-0.4 0-1.1 0.1-1.5 1l-8.1 17c-1.7 3.6-5.1 6.2-9.1 6.8l-18.6 3c-0.9 0.1-1.2 0.8-1.3 1.2-0.1 0.4-0.2 1.1 0.4 1.7l13.7 13c2.9 2.8 4.3 6.8 3.6 10.7l-3.1 18.4z" fill="#9A6500" /><path d="M733.7 311.2c0 39.3-75.1 75.9-223 75.9S279 348.9 279 309.6s79.5 32.9 227.3 32.9 227.4-70.6 227.4-31.3z" fill="#ADEAFF" /><path d="M510.8 392.1c-69.8 0-129.6-8.4-173-24.3-41.1-15.1-63.7-35.7-63.7-58.2 0-6.5 2-11.2 5.9-14 8.9-6.3 24.1-1.1 51.8 8.5 38.6 13.3 96.8 33.4 174.7 33.4 77.3 0 135.5-19.4 173.9-32.3 28.1-9.4 43.6-14.6 52.6-8.1 3.9 2.8 5.9 7.5 5.9 14 0 22.6-21.1 42.9-59.3 57.4-41 15.5-99.3 23.6-168.8 23.6z m-221-89.2c-1.8 0-3.2 0.3-4.1 0.9-1.4 1-1.7 3.7-1.7 5.8 0 17.7 20.8 35.5 57.2 48.8 29.5 10.8 82.9 23.7 169.6 23.7 68.3 0 125.5-7.9 165.1-22.9 34.1-12.9 52.8-29.9 52.8-48 0-3.1-0.6-5.1-1.7-5.9-4.8-3.5-22.8 2.5-43.5 9.5-39.1 13.1-98.1 32.8-177.1 32.8-79.6 0-138.8-20.4-178-33.9-16.4-5.8-31.1-10.8-38.6-10.8z" fill="#9A6500" /><path d="M328.4 264.6c-18.4-9.4-41-2.2-50.4 16.2-9.5 18.4-2.2 41 16.2 50.4 18.4 9.5 41 2.2 50.4-16.2 9.5-18.4 2.2-40.9-16.2-50.4z m-0.1 53.4c-9.4 0-17-7.6-17-17s7.6-17 17-17 17 7.6 17 17-7.6 17-17 17z" fill="#FFF8DE" /><path d="M311.2 342.3c-6.8 0-13.7-1.6-20.2-4.9-10.5-5.4-18.3-14.6-22-25.9-3.6-11.3-2.6-23.3 2.8-33.8 11.2-21.7 37.9-30.4 59.7-19.2 10.5 5.4 18.3 14.6 22 25.9 3.6 11.3 2.6 23.3-2.8 33.8-7.8 15.3-23.4 24.1-39.5 24.1z m0.2-74.9c-11.1 0-21.8 6.1-27.2 16.6-3.7 7.3-4.4 15.5-1.9 23.3 2.5 7.8 7.9 14.1 15.1 17.8 9.3 4.8 19.9 4.3 28.5-0.3-12-1.2-21.4-11.4-21.4-23.8 0-13.2 10.7-23.9 23.9-23.9 2.1 0 4.2 0.3 6.1 0.8-2.5-2.9-5.6-5.4-9.2-7.2-4.5-2.2-9.2-3.3-13.9-3.3z m16.9 23.5c-5.6 0-10.1 4.5-10.1 10.1s4.5 10.1 10.1 10.1 10.1-4.5 10.1-10.1c0-5.5-4.5-10.1-10.1-10.1z" fill="#9A6500" /><path d="M668 315c9.5 18.4 32 25.7 50.4 16.2 18.4-9.4 25.7-32 16.2-50.4s-32-25.6-50.4-16.2c-18.4 9.5-25.7 32-16.2 50.4z m-0.7-14c0-9.4 7.6-17 17-17s17 7.6 17 17-7.6 17-17 17-17-7.6-17-17z" fill="#FFF8DE" /><path d="M701.4 342.3c-16.1 0-31.7-8.8-39.5-24.1-11.2-21.8-2.6-48.5 19.2-59.7 21.8-11.2 48.5-2.6 59.7 19.2 5.4 10.5 6.4 22.5 2.8 33.8-3.6 11.3-11.4 20.5-22 25.9-6.5 3.3-13.4 4.9-20.2 4.9z m-14.7-17.5c8.6 4.6 19.2 5.1 28.5 0.3 7.3-3.7 12.6-10.1 15.1-17.8 2.5-7.8 1.8-16-1.9-23.3-7.7-15-26.1-20.9-41.1-13.2-3.6 1.8-6.7 4.3-9.1 7.2 2-0.5 4-0.8 6.1-0.8 13.2 0 23.9 10.7 23.9 23.9 0 12.3-9.4 22.5-21.5 23.7z m-2.4-33.9c-5.6 0-10.1 4.5-10.1 10.1s4.5 10.1 10.1 10.1 10.1-4.5 10.1-10.1c0-5.5-4.5-10.1-10.1-10.1z" fill="#9A6500" /><path d="M488.3 338.6l3-18.6c0.4-2.2-0.4-4.5-2-6.1l-13.7-13c-4.1-3.9-1.9-11 3.7-11.9l18.6-3c2.2-0.3 4.2-1.7 5.1-3.8l8.1-17c2.5-5.2 9.8-5.3 12.4-0.1l8.6 16.8c1 2 3 3.4 5.3 3.8l18.7 2.4c5.7 0.7 8 7.7 4 11.7l-13.4 13.3c-1.6 1.6-2.3 3.9-1.9 6.2l3.4 18.6c1 5.6-4.8 10-9.9 7.4l-16.8-8.6c-2-1.1-4.5-1-6.4 0.1l-16.6 8.9c-5.1 2.8-11-1.4-10.2-7.1z" fill="#FFFEBB" /><path d="M495.1 351.8c-2.4 0-4.8-0.7-6.9-2.1-3.8-2.7-5.8-7.2-5.1-11.9v-0.1l3-18.6c0.1-0.5-0.1-1.1-0.5-1.4l-13.7-13c-3.4-3.2-4.6-8-3.2-12.4 1.4-4.5 5.1-7.7 9.7-8.4l18.7-3c0.5-0.1 0.9-0.4 1.1-0.8l8.1-17.1c2-4.3 6.2-6.9 11-6.9 4.7 0 8.8 2.6 10.9 6.8l8.5 16.7c0.2 0.5 0.8 0.8 1.4 1l18.6 2.4c4.6 0.6 8.4 3.7 9.9 8.2 1.5 4.4 0.4 9.2-2.9 12.5l-13.3 13.2c-0.2 0.2-0.6 0.8-0.5 1.5l3.4 18.6c0.8 4.6-1 9.2-4.7 12-3.7 2.8-8.6 3.2-12.7 1.1l-16.8-8.6c-0.5-0.3-1-0.3-1.4 0l-0.1 0.1-16.6 8.9c-1.9 0.8-3.9 1.3-5.9 1.3z m-1.6-12.4c-0.1 0.9 0.4 1.4 0.7 1.7 0.4 0.3 1 0.5 1.7 0.1l16.6-8.9c3.5-2 7.8-2 11.4-0.1l16.7 8.6c0.7 0.4 1.3 0.1 1.7-0.1 0.3-0.2 0.8-0.8 0.7-1.7l-3.4-18.6c-0.7-3.8 0.5-7.8 3.3-10.7l0.1-0.1 13.4-13.3c0.6-0.6 0.5-1.3 0.4-1.7-0.1-0.4-0.5-1-1.3-1.1l-18.8-2.5c-3.9-0.6-7.4-3.1-9.1-6.6l-8.6-16.8c-0.3-0.7-0.8-1-1.5-1-0.4 0-1.1 0.1-1.5 1l-8.1 17c-1.7 3.6-5.1 6.2-9.1 6.8l-18.6 3c-0.9 0.1-1.2 0.8-1.3 1.2-0.1 0.4-0.2 1.1 0.4 1.7l13.7 13c2.9 2.8 4.3 6.8 3.6 10.7l-3.1 18.4z" fill="#9A6500" /><path d="M797.4 457.4c5.2 24.3-10.2 48.3-34.5 53.5-24.3 5.2-48.3-10.2-53.5-34.5-5.2-24.3 3.9-77.6 28.2-82.8 24.3-5.2 54.6 39.5 59.8 63.8z" fill="#FBB0FF" /><path d="M753.4 517.3c-23.2 0-44.1-16.2-49.2-39.7-2.9-13.3-1.6-33.9 3.1-51.1 6-21.8 16.3-35.3 29.2-38.1 12.9-2.8 27.9 5.3 42.3 22.6 11.4 13.7 21 31.9 23.9 45.3 5.9 27.1-11.5 54-38.6 59.9-3.7 0.7-7.2 1.1-10.7 1.1z m-11.8-118.8c-1 0-2 0.1-2.9 0.3-19.3 4.2-29.4 52.1-24.1 76.5 4.6 21.4 25.8 35.1 47.2 30.4 21.4-4.6 35.1-25.8 30.4-47.2-5-23.1-31.5-60-50.6-60z" fill="#9A6500" /><path d="M717.83 324.049l10.485-1.56 10.657 71.61-10.484 1.56z" fill="#9A6500" /><path d="M225.3 467.2c-5.2 24.3 10.2 48.3 34.5 53.5 24.3 5.2 48.3-10.2 53.5-34.5 5.2-24.3-3.9-77.6-28.2-82.8-24.2-5.3-54.5 39.4-59.8 63.8z" fill="#FBB0FF" /><path d="M269.4 527c-3.5 0-7.1-0.4-10.6-1.1-13.1-2.8-24.4-10.6-31.7-21.9-7.3-11.3-9.7-24.8-6.9-37.9 2.9-13.3 12.5-31.5 23.9-45.3 14.4-17.4 29.4-25.4 42.3-22.6 12.9 2.8 23.2 16.3 29.2 38.1 4.7 17.2 6 37.8 3.1 51.1-5.2 23.5-26.1 39.6-49.3 39.6z m11.8-118.8c-8.3 0-18.6 6.9-29 19.3-10.4 12.5-19.1 28.9-21.7 40.7-2.2 10.4-0.3 21 5.4 29.9s14.6 15.1 25 17.3c21.4 4.6 42.6-9 47.2-30.4 5.3-24.4-4.9-72.3-24.1-76.5-0.9-0.2-1.8-0.3-2.8-0.3z" fill="#9A6500" /><path d="M283.756 403.807l10.658-71.611 10.484 1.56-10.657 71.611z" fill="#9A6500" /><path d="M249.9 489.3l-3.1-7.3c-0.4-0.9-1.2-1.5-2.1-1.7l-7.8-1.5c-2.3-0.5-3.2-3.5-1.3-5.1l6-5.2c0.7-0.6 1.1-1.6 1-2.5l-0.9-7.9c-0.3-2.4 2.3-4.1 4.4-2.8l6.8 4.1c0.8 0.5 1.8 0.5 2.7 0.2l7.2-3.3c2.2-1 4.6 0.9 4 3.3l-1.8 7.7c-0.2 0.9 0 1.9 0.7 2.6l5.4 5.8c1.6 1.8 0.5 4.7-1.9 4.9l-7.9 0.7c-1 0.1-1.8 0.6-2.3 1.5l-3.9 6.9c-1.2 2-4.2 1.8-5.2-0.4z" fill="#FFFEBB" /><path d="M255.3 492.5c-0.9 0.5-1.9 0.8-2.9 0.8-2-0.1-3.7-1.3-4.5-3.1l-3.1-7.3c-0.1-0.2-0.3-0.4-0.5-0.4l-7.8-1.5c-1.9-0.4-3.4-1.8-3.9-3.7-0.5-1.9 0.1-3.9 1.6-5.2l6-5.3c0.2-0.1 0.2-0.3 0.2-0.5l-0.9-7.9c-0.2-2 0.7-3.9 2.3-4.9 1.7-1.1 3.7-1.1 5.4 0l6.8 4c0.2 0.1 0.5 0.1 0.7 0l7.2-3.3c1.8-0.8 3.8-0.6 5.4 0.7 1.5 1.2 2.2 3.2 1.8 5.1l-1.8 7.7c0 0.1 0 0.4 0.2 0.7l5.4 5.9c1.3 1.5 1.7 3.5 1 5.3-0.7 1.8-2.3 3.1-4.3 3.2l-7.9 0.7c-0.2 0-0.4 0.1-0.5 0.3l-3.9 6.9c-0.7 0.7-1.3 1.4-2 1.8z m-3.4-4.1c0.2 0.4 0.5 0.4 0.6 0.4 0.2 0 0.4 0 0.6-0.4l3.9-6.9c0.8-1.5 2.3-2.5 4-2.6l7.9-0.7c0.3 0 0.5-0.2 0.6-0.4 0.1-0.2 0.1-0.5-0.1-0.8l-5.4-5.8c-1.1-1.2-1.6-2.9-1.3-4.6v-0.1l1.8-7.7c0.1-0.4-0.1-0.6-0.2-0.7-0.1-0.1-0.4-0.2-0.7-0.1l-7.3 3.3c-1.5 0.7-3.3 0.6-4.7-0.3l-6.8-4.1c-0.3-0.2-0.5-0.2-0.7 0-0.1 0.1-0.4 0.3-0.3 0.7l0.9 7.9c0.2 1.7-0.4 3.3-1.7 4.5l-5.9 5.2c-0.3 0.3-0.3 0.6-0.2 0.7 0 0.2 0.2 0.4 0.5 0.5l7.8 1.5c1.7 0.3 3 1.5 3.7 3l3 7.5z" fill="#9A6500" /><path d="M285.2 483.7l-3.1-7.3c-0.4-0.9-1.2-1.5-2.1-1.7l-7.8-1.5c-2.3-0.5-3.2-3.5-1.3-5.1l6-5.2c0.7-0.6 1.1-1.6 1-2.5l-0.9-7.9c-0.3-2.4 2.3-4.1 4.4-2.8l6.8 4.1c0.8 0.5 1.8 0.5 2.7 0.2l7.2-3.3c2.2-1 4.6 0.9 4 3.3l-1.8 7.7c-0.2 0.9 0 1.9 0.7 2.6l5.4 5.8c1.6 1.8 0.5 4.7-1.9 4.9l-7.9 0.7c-1 0.1-1.8 0.6-2.3 1.5l-3.9 6.9c-1.1 2-4.2 1.9-5.2-0.4z" fill="#FFFEBB" /><path d="M290.6 486.9c-0.9 0.5-1.9 0.8-2.9 0.8-2-0.1-3.7-1.3-4.5-3.1l-3.1-7.3c-0.1-0.2-0.3-0.4-0.5-0.4l-7.8-1.5c-1.9-0.4-3.4-1.8-3.9-3.7-0.5-1.9 0.1-3.9 1.6-5.2l6-5.3c0.2-0.1 0.2-0.3 0.2-0.5l-0.9-7.9c-0.2-2 0.7-3.9 2.3-4.9 1.7-1.1 3.7-1.1 5.4 0l6.8 4c0.2 0.1 0.5 0.1 0.7 0l7.2-3.3c1.8-0.8 3.8-0.6 5.4 0.7 1.5 1.2 2.2 3.2 1.8 5.1l-1.8 7.7c0 0.1 0 0.4 0.2 0.7l5.4 5.9c1.3 1.5 1.7 3.5 1 5.3-0.7 1.8-2.3 3.1-4.3 3.2l-7.9 0.7c-0.2 0-0.4 0.1-0.5 0.3l-3.9 6.9c-0.7 0.8-1.3 1.4-2 1.8z m-3.3-4c0.2 0.4 0.5 0.4 0.6 0.4 0.2 0 0.4 0 0.6-0.4l3.9-6.9c0.8-1.5 2.3-2.5 4-2.6l7.9-0.7c0.3 0 0.5-0.2 0.6-0.4 0.1-0.2 0.1-0.5-0.1-0.8l-5.4-5.8c-1.1-1.2-1.6-2.9-1.3-4.6v-0.1l1.8-7.7c0.1-0.4-0.1-0.6-0.2-0.7-0.1-0.1-0.4-0.2-0.7-0.1l-7.3 3.3c-1.5 0.7-3.3 0.6-4.7-0.3l-6.8-4.1c-0.3-0.2-0.5-0.2-0.7 0-0.1 0.1-0.4 0.3-0.3 0.7l0.9 7.9c0.2 1.7-0.4 3.3-1.7 4.5l-5.9 5.2c-0.3 0.3-0.3 0.6-0.2 0.7 0 0.2 0.2 0.4 0.5 0.5l7.8 1.5c1.7 0.3 3 1.5 3.7 3l3 7.5z" fill="#9A6500" /><path d="M266.6 504.1l-3.1-7.3c-0.4-0.9-1.2-1.5-2.1-1.7l-7.8-1.5c-2.3-0.5-3.2-3.5-1.3-5.1l6-5.2c0.7-0.6 1.1-1.6 1-2.5l-0.9-7.9c-0.3-2.4 2.3-4.1 4.4-2.8l6.8 4.1c0.8 0.5 1.8 0.5 2.7 0.2l7.2-3.3c2.2-1 4.6 0.9 4 3.3l-1.8 7.7c-0.2 0.9 0 1.9 0.7 2.6l5.4 5.8c1.6 1.8 0.5 4.7-1.9 4.9l-7.9 0.6c-1 0.1-1.8 0.6-2.3 1.5l-3.9 6.9c-1.1 2.1-4.2 1.9-5.2-0.3z" fill="#FFFEBB" /><path d="M272 507.3c-0.9 0.5-1.9 0.8-2.9 0.8-2-0.1-3.7-1.3-4.5-3.1l-3.1-7.3c-0.1-0.2-0.3-0.4-0.5-0.4l-7.8-1.5c-1.9-0.4-3.4-1.8-3.9-3.7-0.5-1.9 0.1-3.9 1.6-5.2l6-5.3c0.2-0.1 0.2-0.3 0.2-0.5l-0.9-7.9c-0.2-2 0.7-3.9 2.3-4.9 1.7-1.1 3.7-1.1 5.4 0l6.8 4c0.2 0.1 0.5 0.1 0.7 0l7.2-3.3c1.8-0.8 3.8-0.6 5.4 0.7 1.5 1.2 2.2 3.2 1.8 5.1l-1.8 7.7c0 0.1 0 0.4 0.2 0.7l5.4 5.9c1.3 1.5 1.7 3.5 1 5.3-0.7 1.8-2.3 3.1-4.3 3.2l-7.9 0.7c-0.2 0-0.4 0.1-0.5 0.3l-3.9 6.9c-0.7 0.7-1.3 1.3-2 1.8z m-3.4-4.1c0.2 0.4 0.5 0.4 0.6 0.4 0.2 0 0.4 0 0.6-0.4l3.9-6.9c0.8-1.5 2.3-2.5 4-2.6l7.9-0.7c0.3 0 0.5-0.2 0.6-0.4 0.1-0.2 0.1-0.5-0.1-0.8l-5.4-5.8c-1.1-1.2-1.6-2.9-1.3-4.6v-0.1l1.8-7.7c0.1-0.4-0.1-0.6-0.2-0.7-0.1-0.1-0.4-0.2-0.7-0.1l-7.3 3.3c-1.5 0.7-3.3 0.6-4.7-0.3l-6.8-4.1c-0.3-0.2-0.5-0.2-0.7 0-0.1 0.1-0.4 0.3-0.3 0.7l0.9 7.9c0.2 1.7-0.4 3.3-1.7 4.5l-5.9 5.2c-0.3 0.3-0.3 0.6-0.2 0.7 0 0.2 0.2 0.4 0.5 0.5l7.8 1.5c1.7 0.3 3 1.5 3.7 3l3 7.5z" fill="#9A6500" /><path d="M742 504.1l-3.1-7.3c-0.4-0.9-1.2-1.5-2.1-1.7l-7.8-1.5c-2.3-0.5-3.2-3.5-1.3-5.1l6-5.2c0.7-0.6 1.1-1.6 1-2.5l-0.9-7.9c-0.3-2.4 2.3-4.1 4.4-2.8l6.8 4.1c0.8 0.5 1.8 0.5 2.7 0.2l7.2-3.3c2.2-1 4.6 0.9 4 3.3l-1.8 7.7c-0.2 0.9 0 1.9 0.7 2.6l5.4 5.8c1.6 1.8 0.5 4.7-1.9 4.9l-7.9 0.7c-1 0.1-1.8 0.6-2.3 1.5l-3.9 6.9c-1.2 2-4.3 1.8-5.2-0.4z" fill="#FFFEBB" /><path d="M747.3 507.3c-0.9 0.5-1.9 0.8-2.9 0.8-2-0.1-3.7-1.3-4.5-3.1l-3.1-7.3c-0.1-0.2-0.3-0.4-0.5-0.4l-7.8-1.5c-1.9-0.4-3.4-1.8-3.9-3.7-0.5-1.9 0.1-3.9 1.6-5.2l6-5.3c0.2-0.1 0.2-0.3 0.2-0.5l-0.9-7.9c-0.2-2 0.7-3.9 2.3-4.9 1.7-1.1 3.7-1.1 5.4 0l6.8 4c0.2 0.1 0.5 0.1 0.7 0l7.2-3.3c1.8-0.8 3.8-0.6 5.4 0.7 1.5 1.2 2.2 3.2 1.8 5.1l-1.8 7.7c0 0.1 0 0.4 0.2 0.7l5.4 5.9c1.3 1.5 1.7 3.5 1 5.3-0.7 1.8-2.3 3.1-4.3 3.2l-7.9 0.7c-0.2 0-0.4 0.1-0.5 0.3l-3.9 6.9c-0.6 0.7-1.2 1.3-2 1.8z m-3.3-4.1c0.2 0.4 0.5 0.4 0.6 0.4 0.2 0 0.4 0 0.6-0.4l3.9-6.9c0.8-1.5 2.3-2.5 4-2.6l7.9-0.7c0.3 0 0.5-0.2 0.6-0.4 0.1-0.2 0.1-0.5-0.1-0.8l-5.4-5.8c-1.1-1.2-1.6-2.9-1.3-4.6v-0.1l1.8-7.7c0.1-0.4-0.1-0.6-0.2-0.7-0.1-0.1-0.4-0.2-0.7-0.1l-7.3 3.3c-1.5 0.7-3.3 0.6-4.7-0.3l-6.8-4.1c-0.3-0.2-0.5-0.2-0.7 0-0.1 0.1-0.4 0.3-0.3 0.7l0.9 7.9c0.2 1.7-0.4 3.3-1.7 4.5l-5.9 5.2c-0.3 0.3-0.3 0.6-0.2 0.7 0 0.2 0.2 0.4 0.5 0.5l7.8 1.5c1.7 0.3 3 1.5 3.7 3l3 7.5z" fill="#9A6500" /><path d="M763.8 491.8l0.3-7.9c0-0.9-0.4-1.9-1.2-2.4l-6.4-4.7c-1.9-1.4-1.4-4.5 1-5.2l7.6-2.2c0.9-0.2 1.7-0.9 1.9-1.9l2.5-7.5c0.8-2.3 3.8-2.7 5.2-0.7l4.4 6.6c0.5 0.8 1.4 1.3 2.4 1.3l7.9 0.1c2.4 0 3.7 2.8 2.3 4.7l-4.9 6.2c-0.6 0.8-0.8 1.7-0.5 2.7l2.4 7.6c0.7 2.3-1.5 4.4-3.8 3.6l-7.4-2.8c-0.9-0.4-1.9-0.2-2.7 0.4l-6.5 4.6c-1.9 1.3-4.6-0.1-4.5-2.5z" fill="#FFFEBB" /><path d="M767.3 496.9c-1 0.1-2-0.1-3-0.5-1.7-0.9-2.8-2.7-2.7-4.7l0.3-7.9c0-0.2-0.1-0.4-0.3-0.6l-6.4-4.7c-1.6-1.2-2.3-3.1-2-5 0.4-1.9 1.7-3.5 3.6-4l7.7-2.2c0.2-0.1 0.3-0.2 0.4-0.4l2.5-7.6c0.6-1.9 2.3-3.2 4.2-3.5 2-0.2 3.8 0.6 4.9 2.3l4.4 6.6c0.1 0.2 0.4 0.3 0.6 0.3l7.9 0.1c2 0 3.7 1.1 4.6 2.9 0.9 1.8 0.6 3.8-0.6 5.4l-4.9 6.2c-0.1 0.1-0.2 0.4-0.1 0.7l2.4 7.6c0.6 1.9 0.1 3.9-1.4 5.3-1.4 1.3-3.4 1.8-5.3 1.1l-7.4-2.8c-0.2-0.1-0.4-0.1-0.6 0.1l-6.5 4.6c-0.7 0.3-1.5 0.6-2.3 0.7z m-1.3-5.1c0 0.4 0.2 0.6 0.4 0.7 0.2 0.1 0.4 0.1 0.7-0.1l6.5-4.6c1.4-1 3.2-1.2 4.8-0.6l7.4 2.7c0.3 0.1 0.6 0 0.7-0.1 0.1-0.1 0.3-0.4 0.2-0.7l-2.4-7.6c-0.5-1.5-0.2-3.3 0.8-4.7l4.9-6.2c0.2-0.3 0.2-0.6 0.1-0.7-0.1-0.1-0.2-0.4-0.6-0.4l-8-0.1c-1.7-0.1-3.2-0.9-4.1-2.3l-4.4-6.6c-0.2-0.3-0.4-0.4-0.7-0.3-0.2 0-0.5 0.1-0.6 0.5l-2.5 7.5c-0.5 1.6-1.8 2.8-3.5 3.3l-7.6 2.2c-0.4 0.1-0.5 0.4-0.5 0.6 0 0.2 0 0.5 0.3 0.7l6.4 4.7c1.4 1 2.1 2.6 2.1 4.3l-0.4 7.8z" fill="#9A6500" /></svg>