<?xml version="1.0" standalone="no"?><!DOCTYPE svg PUBLIC "-//W3C//DTD SVG 1.1//EN" "http://www.w3.org/Graphics/SVG/1.1/DTD/svg11.dtd"><svg class="icon" width="48px" height="48.00px" viewBox="0 0 1024 1024" version="1.1" xmlns="http://www.w3.org/2000/svg"><path d="M676.894118 614.4c0 12.047059-9.788235 21.835294-21.835294 21.835294H470.588235c-7.529412 0-13.552941-6.023529-13.552941-13.552941 0-6.023529 4.517647-12.047059 9.788235-12.8-0.752941-1.505882-0.752941-3.011765-0.752941-4.517647 0-3.764706 1.505882-6.776471 4.517647-9.035294V231.905882c0 14.305882 41.411765 25.6 91.858824 25.6 50.447059 0 91.858824-11.294118 91.858823-25.6v341.082353c6.776471 0 12.8 6.023529 12.8 12.8 0 3.764706-1.505882 6.776471-3.764706 9.035294 8.282353 3.764706 13.552941 11.294118 13.552942 19.576471z" fill="#ADADAD" /><path d="M655.058824 231.905882c0 14.305882-41.411765 25.6-91.858824 25.6-51.2 0-91.858824-11.294118-91.858824-25.6s41.411765-25.6 91.858824-25.6c50.447059 0 91.858824 11.294118 91.858824 25.6z" fill="#F1F1F1" /><path d="M636.235294 247.717647c-16.564706 6.023529-43.670588 10.541176-73.788235 10.541177-30.117647 0-56.470588-3.764706-73.788235-10.541177 5.270588-9.035294 36.141176-15.811765 73.788235-15.811765 37.647059 0 68.517647 6.776471 73.788235 15.811765z" fill="#D5D5D5" /><path d="M655.058824 231.905882v243.952942c0-11.294118-9.035294-12.8-12.8-10.541177-4.517647 2.258824-6.776471 7.529412-6.776471 12.8 0.752941 10.541176 6.023529 33.129412-6.023529 42.164706-15.811765 12.8-36.894118-5.270588-34.635295-23.341177 2.258824-18.070588-23.341176-21.082353-21.082353 3.011765 2.258824 24.094118 2.258824 38.4-12.8 39.905883-9.035294 0.752941-21.835294-1.505882-22.588235-24.847059-0.752941-23.341176-22.588235-29.364706-24.847059-4.517647-3.011765 26.352941-3.011765 41.411765-19.57647 42.917647-23.341176 2.258824-23.341176-30.117647-23.341177-30.117647V231.905882c0 14.305882 41.411765 25.6 91.858824 25.6 51.2 0 92.611765-11.294118 92.611765-25.6z" fill="#D5D5D5" /><path d="M655.058824 231.905882v97.129412c0-11.294118-9.035294-12.8-12.8-10.541176-4.517647 2.258824-6.776471 7.529412-6.776471 12.8 0.752941 10.541176 6.023529 33.129412-6.023529 42.164706-15.811765 12.8-36.894118-5.270588-34.635295-23.341177 2.258824-18.070588-23.341176-21.082353-21.082353 3.011765 2.258824 24.094118 2.258824 38.4-12.8 39.905882-9.035294 0.752941-21.835294-1.505882-22.588235-24.847059-0.752941-23.341176-22.588235-29.364706-24.847059-4.517647-3.011765 26.352941-3.011765 41.411765-19.57647 42.917647-23.341176 2.258824-23.341176-30.117647-23.341177-30.117647V231.905882c0 14.305882 41.411765 25.6 91.858824 25.6 51.2 0 92.611765-11.294118 92.611765-25.6z" fill="#F1F1F1" /><path d="M572.988235 249.223529c0 2.258824-4.517647 3.764706-10.541176 3.764706s-10.541176-1.505882-10.541177-3.764706 4.517647-3.764706 10.541177-3.764705 10.541176 1.505882 10.541176 3.764705z" fill="#E6D4B8" /><path d="M559.435294 249.223529v-27.858823c0-1.505882 1.505882-3.011765 3.011765-3.011765s3.011765 1.505882 3.011765 3.011765v27.858823c0 1.505882-6.023529 1.505882-6.02353 0z" fill="#ADADAD" /><path d="M561.694118 215.341176s-32.376471-8.282353-15.058824-33.882352 17.317647-34.635294 17.317647-34.635295 46.682353 60.235294-2.258823 68.517647z" fill="#E45B0C" /><path d="M561.694118 215.341176s-19.576471-5.270588-9.035294-20.329411c10.541176-15.811765 10.541176-21.082353 10.541176-21.082353s28.611765 36.141176-1.505882 41.411764z" fill="#EE8D00" /><path d="M563.2 591.058824c-64.752941 37.647059-155.858824 5.270588-155.858824 5.270588-28.611765 52.705882-129.505882 43.670588-129.505882 43.670588 7.529412 44.423529-52.705882 100.141176-52.705882 100.141176 72.282353-12.047059 124.235294 33.882353 124.235294 33.882353 54.964706-46.682353 122.729412-37.647059 122.729412-37.647058 15.058824-70.776471 111.435294-109.929412 111.435294-109.929412l-20.329412-35.388235z" fill="#03772B" /><path d="M581.270588 650.541176c-41.411765 43.670588-33.129412 120.470588-33.129412 120.470589-46.682353 12.8-57.976471 92.611765-57.97647 92.611764-33.129412-14.305882-88.094118 21.835294-88.094118 21.835295 23.341176-54.211765-3.764706-103.152941-3.764706-103.152942 46.682353-33.882353 52.705882-88.847059 52.705883-88.847058 57.976471 1.505882 106.917647-66.258824 106.917647-66.258824l23.341176 23.341176z" fill="#3BA435" /><path d="M551.152941 682.164706c-54.211765-51.952941-149.835294-41.411765-149.835294-41.411765-15.811765-57.976471-115.952941-72.282353-115.952941-72.282353 18.070588-41.411765-27.858824-109.929412-27.858824-109.929412 67.764706 28.611765 128.752941-4.517647 128.752942-4.517647C428.423529 512 496.188235 519.529412 496.188235 519.529412c-1.505882 72.282353 82.823529 133.270588 82.82353 133.270588l-27.858824 29.364706z" fill="#3BA435" /><path d="M562.447059 591.058824c64.752941 37.647059 155.858824 5.270588 155.858823 5.270588 28.611765 52.705882 129.505882 43.670588 129.505883 43.670588-7.529412 44.423529 52.705882 100.141176 52.705882 100.141176-72.282353-12.047059-124.235294 33.882353-124.235294 33.882353-54.964706-46.682353-122.729412-37.647059-122.729412-37.647058-15.058824-70.776471-111.435294-109.929412-111.435294-109.929412l20.329412-35.388235z" fill="#03772B" /><path d="M544.376471 650.541176c41.411765 43.670588 33.129412 120.470588 33.129411 120.470589 46.682353 12.8 57.976471 92.611765 57.976471 92.611764 33.129412-14.305882 88.094118 21.835294 88.094118 21.835295-23.341176-54.211765 3.764706-103.152941 3.764705-103.152942-46.682353-33.882353-52.705882-88.847059-52.705882-88.847058-57.976471 1.505882-106.917647-66.258824-106.917647-66.258824l-23.341176 23.341176z" fill="#3BA435" /><path d="M575.247059 682.164706c54.211765-51.952941 149.835294-41.411765 149.835294-41.411765 15.811765-57.976471 115.952941-72.282353 115.952941-72.282353-18.070588-41.411765 27.858824-109.929412 27.858824-109.929412-67.764706 28.611765-128.752941-4.517647-128.752942-4.517647C697.976471 512 629.458824 519.529412 629.458824 519.529412c1.505882 72.282353-82.823529 133.270588-82.82353 133.270588l28.611765 29.364706z" fill="#3BA435" /><path d="M841.035294 568.470588s-100.894118 14.305882-115.952941 72.282353c0 0-95.623529-10.541176-149.835294 41.411765l-16.564706-17.317647c54.211765-51.952941 149.835294-41.411765 149.835294-41.411765 15.811765-57.976471 115.952941-72.282353 115.952941-72.282353-10.541176-24.847059 1.505882-59.482353 12.8-83.57647 9.788235-1.505882 20.329412-4.517647 30.870588-9.035295 0.752941 0-44.423529 68.517647-27.105882 109.929412z" fill="#03772B" /><path d="M746.917647 623.435294c-8.282353 8.282353-14.305882 17.317647-17.317647 28.611765 0 0-60.235294-2.258824-109.929412 15.811765-3.764706-3.011765 3.011765-9.788235-0.752941-12.8 50.447059-20.329412 106.164706-14.305882 106.164706-14.305883 2.258824-9.035294 6.776471-16.564706 12.047059-23.341176 3.764706 2.258824 6.776471 3.764706 9.788235 6.023529zM379.482353 623.435294c8.282353 8.282353 14.305882 17.317647 17.317647 28.611765 0 0 60.235294-2.258824 109.929412 15.811765 3.764706-3.011765-3.011765-9.788235 0.752941-12.8-50.447059-20.329412-106.164706-14.305882-106.164706-14.305883-2.258824-9.035294-6.776471-16.564706-12.047059-23.341176-3.764706 2.258824-6.776471 3.764706-9.788235 6.023529z" fill="#058B36" /><path d="M284.611765 568.470588s100.894118 14.305882 115.952941 72.282353c0 0 95.623529-10.541176 149.835294 41.411765l16.564706-17.317647c-54.211765-51.952941-149.835294-41.411765-149.835294-41.411765-15.811765-57.976471-115.952941-72.282353-115.952941-72.282353 10.541176-24.847059-1.505882-59.482353-12.8-83.57647-9.788235-1.505882-20.329412-4.517647-30.870589-9.035295-0.752941 0 45.176471 68.517647 27.105883 109.929412z" fill="#03772B" /><path d="M503.717647 592.564706c-11.294118-30.870588 4.517647-64.752941 34.635294-76.047059 30.870588-11.294118 64.752941 4.517647 76.047059 34.635294 11.294118 30.870588-4.517647 64.752941-34.635294 76.047059-30.870588 11.294118-64.752941-4.517647-76.047059-34.635294z" fill="#D11E34" /><path d="M561.694118 630.211765c-31.623529 1.505882-59.482353-22.588235-61.741177-54.211765 10.541176 19.576471 31.623529 33.129412 55.717647 31.623529 32.376471-1.505882 57.223529-29.364706 55.717647-62.494117v-1.505883c3.764706 7.529412 6.023529 15.811765 6.776471 24.094118 1.505882 33.129412-23.341176 60.988235-56.470588 62.494118z" fill="#BC1931" /><path d="M566.964706 520.282353c0.752941 3.764706-6.023529 8.282353-15.811765 9.788235-9.035294 2.258824-17.317647 0.752941-18.070588-2.258823-0.752941-3.764706 6.023529-8.282353 15.811765-9.788236 9.035294-2.258824 17.317647-1.505882 18.070588 2.258824z" fill="#DE3055" /><path d="M443.482353 656.564706c0-36.141176 29.364706-65.505882 65.505882-65.505882 36.141176 0 65.505882 29.364706 65.505883 65.505882 0 36.141176-29.364706 65.505882-65.505883 65.505882-36.141176 0-65.505882-29.364706-65.505882-65.505882z" fill="#BB1523" /><path d="M481.129412 716.047059c-32.376471-15.058824-46.682353-52.705882-33.129412-85.082353 0 24.847059 14.305882 48.941176 38.4 59.482353 33.129412 15.058824 71.529412 0.752941 86.588235-32.376471 0-0.752941 0.752941-0.752941 0.752941-1.505882 0 9.035294-1.505882 18.070588-6.023529 27.105882-14.305882 33.129412-53.458824 47.435294-86.588235 32.376471z" fill="#97132A" /><path d="M542.117647 612.141176c-1.505882 3.764706-10.541176 3.764706-20.329412 0.752942-9.788235-3.011765-17.317647-9.035294-15.811764-12.8 1.505882-3.764706 10.541176-3.764706 20.329411-0.752942 9.788235 3.764706 17.317647 9.035294 15.811765 12.8z" fill="#DE3055" /><path d="M551.152941 679.152941c-12.8-33.882353 4.517647-71.529412 38.4-84.329412 33.882353-12.8 71.529412 4.517647 84.329412 38.4 12.8 33.882353-4.517647 71.529412-38.4 84.329412-33.882353 12.8-71.529412-4.517647-84.329412-38.4z" fill="#D11E34" /><path d="M616.658824 721.317647c-35.388235 2.258824-66.258824-24.847059-68.517648-60.235294 11.294118 21.835294 35.388235 36.141176 61.741177 34.635294 36.141176-2.258824 64-33.129412 61.741176-69.270588V624.941176c4.517647 8.282353 6.776471 17.317647 7.529412 27.105883 0.752941 36.141176-27.105882 67.011765-62.494117 69.270588z" fill="#BC1931" /><path d="M621.929412 599.341176c0.752941 3.764706-6.776471 9.035294-17.317647 11.294118-10.541176 2.258824-19.576471 0.752941-20.329412-3.011765-0.752941-3.764706 6.776471-9.035294 17.317647-11.294117 9.788235-2.258824 18.823529-0.752941 20.329412 3.011764z" fill="#DE3055" /></svg>