<?xml version="1.0" standalone="no"?><!DOCTYPE svg PUBLIC "-//W3C//DTD SVG 1.1//EN" "http://www.w3.org/Graphics/SVG/1.1/DTD/svg11.dtd"><svg class="icon" width="48px" height="48.00px" viewBox="0 0 1024 1024" version="1.1" xmlns="http://www.w3.org/2000/svg"><path d="M416.146119 266.520548h519.013698v177.680365H416.146119z" fill="#F7E94C" /><path d="M935.159817 252.493151H416.146119a14.027397 14.027397 0 0 0-14.027398 14.027397v177.680365a14.027397 14.027397 0 0 0 14.027398 14.027398h519.013698a14.027397 14.027397 0 0 0 14.027398-14.027398V266.520548a14.027397 14.027397 0 0 0-14.027398-14.027397z m-14.027397 28.054794v149.625571H430.173516V280.547945h490.958904z" fill="#221937" /><path d="M416.146119 266.520548l-322.630137 336.657534v163.652968l322.630137-322.630137z" fill="#72DDF5" /><path d="M406.018338 256.813589l-322.630137 336.657534A14.027397 14.027397 0 0 0 79.488584 603.178082v163.652968c0 12.498411 15.107507 18.75463 23.944768 9.91737l322.630137-322.630137A14.027397 14.027397 0 0 0 430.173516 444.200913V266.520548c0-12.643361-15.406758-18.834119-24.155178-9.706959zM402.118721 301.425388v136.958831l-294.575342 294.575343v-124.151818l294.575342-307.382356z" fill="#221937" /><path d="M935.159817 444.200913l-360.036529 322.630137H93.515982l322.630137-322.630137z" fill="#D23C71" /><path d="M935.159817 430.173516H416.146119a14.027397 14.027397 0 0 0-9.91737 4.110027l-322.630137 322.630137C74.761352 765.750941 81.017571 780.858447 93.515982 780.858447h481.607306a14.027397 14.027397 0 0 0 9.360949-3.581662l360.03653-322.630137c9.585388-8.589443 3.506849-24.473132-9.36095-24.473132z m-36.681643 28.054795l-328.727379 294.575342H127.378119l294.575342-294.575342h476.524713z" fill="#221937" /><path d="M453.552511 285.223744m-9.351598 0a9.351598 9.351598 0 1 0 18.703197 0 9.351598 9.351598 0 1 0-18.703197 0Z" fill="#221937" /><path d="M519.013699 285.223744m-9.351599 0a9.351598 9.351598 0 1 0 18.703197 0 9.351598 9.351598 0 1 0-18.703197 0Z" fill="#221937" /><path d="M584.474886 285.223744m-9.351598 0a9.351598 9.351598 0 1 0 18.703196 0 9.351598 9.351598 0 1 0-18.703196 0Z" fill="#221937" /><path d="M649.936073 285.223744m-9.351598 0a9.351598 9.351598 0 1 0 18.703196 0 9.351598 9.351598 0 1 0-18.703196 0Z" fill="#221937" /><path d="M715.39726 285.223744m-9.351598 0a9.351598 9.351598 0 1 0 18.703196 0 9.351598 9.351598 0 1 0-18.703196 0Z" fill="#221937" /><path d="M780.858447 285.223744m-9.351598 0a9.351598 9.351598 0 1 0 18.703197 0 9.351598 9.351598 0 1 0-18.703197 0Z" fill="#221937" /><path d="M846.319635 285.223744m-9.351598 0a9.351598 9.351598 0 1 0 18.703196 0 9.351598 9.351598 0 1 0-18.703196 0Z" fill="#221937" /><path d="M911.780822 285.223744m-9.351598 0a9.351598 9.351598 0 1 0 18.703196 0 9.351598 9.351598 0 1 0-18.703196 0Z" fill="#221937" /><path d="M420.821918 350.684932m-9.351598 0a9.351598 9.351598 0 1 0 18.703196 0 9.351598 9.351598 0 1 0-18.703196 0Z" fill="#221937" /><path d="M486.283105 350.684932m-9.351598 0a9.351598 9.351598 0 1 0 18.703196 0 9.351598 9.351598 0 1 0-18.703196 0Z" fill="#221937" /><path d="M551.744292 350.684932m-9.351598 0a9.351598 9.351598 0 1 0 18.703196 0 9.351598 9.351598 0 1 0-18.703196 0Z" fill="#221937" /><path d="M617.205479 350.684932m-9.351598 0a9.351598 9.351598 0 1 0 18.703197 0 9.351598 9.351598 0 1 0-18.703197 0Z" fill="#221937" /><path d="M682.666667 350.684932m-9.351599 0a9.351598 9.351598 0 1 0 18.703197 0 9.351598 9.351598 0 1 0-18.703197 0Z" fill="#221937" /><path d="M748.127854 350.684932m-9.351598 0a9.351598 9.351598 0 1 0 18.703196 0 9.351598 9.351598 0 1 0-18.703196 0Z" fill="#221937" /><path d="M813.589041 350.684932m-9.351598 0a9.351598 9.351598 0 1 0 18.703196 0 9.351598 9.351598 0 1 0-18.703196 0Z" fill="#221937" /><path d="M879.050228 350.684932m-9.351598 0a9.351598 9.351598 0 1 0 18.703196 0 9.351598 9.351598 0 1 0-18.703196 0Z" fill="#221937" /><path d="M453.552511 416.146119m-9.351598 0a9.351598 9.351598 0 1 0 18.703197 0 9.351598 9.351598 0 1 0-18.703197 0Z" fill="#221937" /><path d="M519.013699 416.146119m-9.351599 0a9.351598 9.351598 0 1 0 18.703197 0 9.351598 9.351598 0 1 0-18.703197 0Z" fill="#221937" /><path d="M584.474886 416.146119m-9.351598 0a9.351598 9.351598 0 1 0 18.703196 0 9.351598 9.351598 0 1 0-18.703196 0Z" fill="#221937" /><path d="M649.936073 416.146119m-9.351598 0a9.351598 9.351598 0 1 0 18.703196 0 9.351598 9.351598 0 1 0-18.703196 0Z" fill="#221937" /><path d="M715.39726 416.146119m-9.351598 0a9.351598 9.351598 0 1 0 18.703196 0 9.351598 9.351598 0 1 0-18.703196 0Z" fill="#221937" /><path d="M780.858447 416.146119m-9.351598 0a9.351598 9.351598 0 1 0 18.703197 0 9.351598 9.351598 0 1 0-18.703197 0Z" fill="#221937" /><path d="M846.319635 416.146119m-9.351598 0a9.351598 9.351598 0 1 0 18.703196 0 9.351598 9.351598 0 1 0-18.703196 0Z" fill="#221937" /><path d="M911.780822 416.146119m-9.351598 0a9.351598 9.351598 0 1 0 18.703196 0 9.351598 9.351598 0 1 0-18.703196 0Z" fill="#221937" /></svg>