<?xml version="1.0" standalone="no"?><!DOCTYPE svg PUBLIC "-//W3C//DTD SVG 1.1//EN" "http://www.w3.org/Graphics/SVG/1.1/DTD/svg11.dtd"><svg class="icon" width="48px" height="48.00px" viewBox="0 0 1024 1024" version="1.1" xmlns="http://www.w3.org/2000/svg"><path d="M473.2928 409.9584c-7.3216-9.1648-15.616-31.1808-11.008-58.7264 8.2432-91.6992-31.488-132.864-46.1312-144.7424-9.9328 7.0144-27.5456 25.1392-28.16 65.8944-0.9216 56.8832-23.8592 140.3392-87.1424 128.4096-63.2832-11.9296-24.7808 87.1424 0 102.7584-29.184 37.4272-84.6336 139.6224-79.104 257.7408 52.6848 42.9056 118.8864 70.656 178.3296 92.6208 6.6048 2.4576 12.288-5.4272 7.8336-10.8544-39.936-48.9472-75.3152-116.992-71.2704-170.1888 4.608-60.9792 59.648-94.0032 94.464-99.5328 34.8672-5.4784 24.7808-32.1024 23.8592-53.248 15.616-5.5296 11.9296-13.7216 4.608-29.3376 12.8512 0 14.6944-11.9296 8.2432-36.7616 33.8944-7.5264 12.8-34.8672 5.4784-44.032zM556.032 409.9584c7.3216-9.1648 15.616-31.1808 11.008-58.7264-8.2432-91.6992 31.488-132.864 46.1312-144.7424 9.9328 7.0144 27.5456 25.1392 28.16 65.8944 0.9216 56.8832 23.8592 140.3392 87.1424 128.4096 63.2832-11.9296 24.7808 87.1424 0 102.7584 29.184 37.4272 84.6336 139.6224 79.104 257.7408-52.6848 42.9056-118.8864 70.656-178.3296 92.6208-6.6048 2.4576-12.288-5.4272-7.8336-10.8544 39.936-48.9472 75.3152-116.992 71.2704-170.1888-4.608-60.9792-59.648-94.0032-94.464-99.5328-34.8672-5.4784-24.7808-32.1024-23.8592-53.248-15.616-5.5296-11.9296-13.7216-4.608-29.3376-12.8512 0-14.6944-11.9296-8.2432-36.7616-33.8944-7.5264-12.8-34.8672-5.4784-44.032z" fill="#FFD7B3" /><path d="M418.7648 195.9424c2.4064 3.072 1.8432 7.5776-1.4336 9.728-9.6256 6.4-28.672 24.32-29.3376 66.7136-0.9216 56.8832-23.8592 140.3392-87.1424 128.4096-63.2832-11.9296-24.7808 87.1424 0 102.7584-35.7888 45.8752-111.0016 188.9792-65.1264 339.4048-44.9536-28.416-116.48-121.088-119.2448-175.2064-7.3216 44.032-12.8512 77.9776-10.0864 111.0016-28.416-66.048-114.6368-240.3328-35.7888-457.728 29.3376-87.1424 119.2448-171.52 209.152-170.5984 79.7696 0.768 124.5184 26.7776 139.008 45.5168zM610.56 195.9424c-2.4064 3.072-1.8432 7.5776 1.4336 9.728 9.6256 6.4 28.672 24.32 29.3376 66.7136 0.9216 56.8832 23.8592 140.3392 87.1424 128.4096 63.2832-11.9296 24.7808 87.1424 0 102.7584 35.7888 45.8752 111.0016 188.9792 65.1264 339.4048 44.9536-28.416 116.48-121.088 119.2448-175.2064 7.3216 44.032 12.8512 77.9776 10.0864 111.0016 28.416-66.048 114.6368-240.3328 35.7888-457.728-29.3376-87.1424-119.2448-171.52-209.152-170.5984-79.7184 0.768-124.4672 26.7776-139.008 45.5168z" fill="#DD6C10" /><path d="M477.44 353.792l0.1536-1.1264c7.4752-83.2-21.9648-128.4608-42.24-149.3504a22.3232 22.3232 0 0 0-4.4032-16.7424c-17.9712-23.2448-68.3008-50.688-151.04-51.5072h-1.6384c-99.6352 0-192.8192 93.696-222.1056 180.736-76.8 211.6608-1.1264 384.1024 31.1808 457.728 1.792 4.0448 3.4304 7.8336 4.9152 11.264A15.32928 15.32928 0 0 0 110.08 793.6a15.33952 15.33952 0 0 0 11.5712-16.1792c-1.1776-14.1312-0.7168-28.5696 0.768-43.9808 26.5728 50.1248 72.3968 101.7856 105.0624 122.4192 2.5088 1.5872 5.376 2.3552 8.192 2.3552 3.2768 0 6.5536-1.0752 9.3184-3.1232 5.12-3.8912 7.2704-10.5472 5.376-16.6912a304.2816 304.2816 0 0 1-9.9328-44.3392c48.896 32.9216 104.6016 55.808 154.3168 74.1376 2.6112 0.9728 5.2224 1.4336 7.8336 1.4336 7.0144 0 13.7216-3.328 18.0736-9.4208a21.99552 21.99552 0 0 0-0.8704-27.0336c-33.7408-41.3696-71.7312-107.8784-67.8912-159.3344 4.1984-55.552 56.7296-81.6128 81.5616-85.504 43.52-6.8608 39.5776-42.1888 37.6832-59.136 0-0.1536-0.0512-0.3072-0.0512-0.4608 3.2256-2.4576 6.2976-5.7856 8.192-10.3936 2.8672-6.8608 2.1504-13.568-0.0512-20.3264 0.512-0.5632 1.024-1.1264 1.4336-1.6896 6.656-8.6016 6.8608-20.5824 4.864-32.7168 8.6528-4.864 12.6976-11.264 14.592-16.5888 6.8608-19.4048-8.96-39.2192-14.8992-46.6432-3.5328-4.5056-11.9808-21.6576-7.7824-46.592z m-383.1808 356.4032c-32.1536-84.3264-67.7376-222.6176-9.1136-384.256 26.0608-77.312 107.1104-160.1536 193.0752-160.1536h1.3824c66.3552 0.6656 105.1136 19.712 121.088 33.536-9.728 8.8576-20.6848 23.8592-25.5488 48.3328-0.1024 0.4608-0.1536 0.9216-0.256 1.3824-0.3072 1.7408-0.6144 3.584-0.8704 5.4272-0.1024 0.6656-0.2048 1.3824-0.256 2.048-0.2048 1.792-0.4096 3.6352-0.5632 5.4784-0.0512 0.7168-0.1536 1.4336-0.2048 2.2016-0.1536 2.56-0.3072 5.2224-0.3584 7.936v0.0512c-0.6656 38.5536-11.9296 86.2208-35.7376 105.6256-7.1168 5.7856-15.0016 8.704-23.9616 8.7552-1.4848 0-3.0208-0.0512-4.5568-0.2048-1.536-0.1536-3.1232-0.3584-4.7104-0.6656-2.1504-0.4096-4.1984-0.7168-6.144-0.9216-13.6192-1.4336-23.1936 1.6896-29.9008 6.2464 8.7552-61.4912-11.3152-115.0976-12.4416-118.016a15.3856 15.3856 0 0 0-28.7232 11.008c0.3072 0.8192 31.3344 83.6096-5.376 153.7024-12.9536 24.7808-31.5392 47.104-49.5104 68.7104-36.8128 44.288-74.8032 90.1632-70.6048 160.256-2.4064 15.1552-4.8128 29.5936-6.7072 43.52z m37.5296-43.264v-0.1536-0.1536c-4.1984-59.0336 28.7232-98.6624 63.5392-140.5952 18.9952-22.8352 38.6048-46.4384 53.0944-74.0864 1.4848-2.7648 2.816-5.5808 4.096-8.3968 1.1264 6.3488 2.816 12.7488 4.9152 19.0464 0.256 0.8192 0.512 1.5872 0.768 2.4064 0.1024 0.256 0.2048 0.4608 0.256 0.7168 5.5296 15.2576 13.568 29.5424 21.9648 39.5776-38.8096 55.7568-90.2144 171.008-70.0416 296.2432-37.9904-38.9632-76.8-99.4304-78.592-134.6048z m332.6976-228.0448c-4.096 0.8704-7.6288 3.4304-9.7792 6.9632s-2.816 7.8336-1.792 11.8784c2.4576 9.6256 3.072 15.0528 3.1232 17.9712-3.8912 0.9216-7.3216 3.2768-9.472 6.7072-2.816 4.4544-3.1744 10.0352-0.9216 14.7456 1.1776 2.5088 2.7648 5.8368 3.7888 8.448-6.144 2.3552-10.0864 8.3968-9.8304 15.0016 0.1536 4.0448 0.6144 8.0896 1.0752 11.9808 2.3552 21.1968 1.3312 23.296-11.9296 25.3952-38.7072 6.0928-102.0416 42.3424-107.4176 113.5616-3.84 51.2 24.3712 111.2064 56.8832 157.4912-47.9232-18.7904-98.9696-42.3936-141.2096-75.3664-2.6624-106.8032 45.824-199.6288 72.704-236.3904 0.0512-0.1024 0.1536-0.2048 0.2048-0.3072 1.0752-1.4336 2.0992-2.816 3.072-4.096 1.9968-2.56 3.1232-5.6832 3.2256-8.8576 0.0512-1.0752-0.0512-2.1504-0.2048-3.2256-0.768-4.2496-3.2768-8.0384-6.9632-10.3424-12.544-7.8848-32.9216-53.8624-26.0096-71.3728 0.1536-0.4096 0.4096-0.9728 0.8192-1.5872 0.1536-0.1536 0.3072-0.3584 0.512-0.512 0.1024-0.1024 0.2048-0.256 0.3584-0.3584 1.7408-1.3824 5.3248-2.3552 13.312-0.8704 2.7136 0.512 5.376 0.8704 8.0384 1.1264s5.2736 0.3072 7.8848 0.256c15.616-0.3072 30.0544-5.5808 42.3936-15.6672 33.5872-27.392 46.2848-84.5824 47.0016-128.9728 0.0512-2.56 0.1536-4.9664 0.3584-7.2704 0.0512-0.9216 0.1536-1.7408 0.256-2.6112 0.1536-1.3312 0.3072-2.6112 0.4608-3.84 0.1536-1.0752 0.3072-2.1504 0.512-3.1744 0.1536-0.8192 0.3072-1.5872 0.4608-2.3552 2.4064-11.6736 6.6048-19.8656 10.752-25.4464 14.9504 17.0496 36.8128 54.1696 30.8736 121.4976-5.1712 32.1536 4.4032 57.9072 14.2848 70.1952 8.3968 10.496 9.6768 15.36 9.8304 16.9472-0.768 0.5632-2.6624 1.5872-6.656 2.4576zM973.312 316.1088c-29.44-87.3984-122.5728-181.0944-222.2592-181.0944h-1.6384c-82.7392 0.8704-133.0688 28.2624-151.04 51.5072-3.6864 4.7616-5.2736 10.8544-4.4032 16.7424-20.3264 20.8384-49.7664 66.1504-42.24 149.3504l0.1536 1.1264c4.1472 24.9856-4.2496 42.0864-7.8336 46.592-5.9904 7.4752-21.76 27.2384-14.8992 46.6432 1.8944 5.3248 5.9392 11.7248 14.592 16.5888-1.9968 12.1344-1.792 24.1152 4.864 32.7168 0.4096 0.5632 0.9216 1.1264 1.4336 1.6896-2.2016 6.7584-2.8672 13.4656-0.0512 20.3264 1.8944 4.608 5.0176 7.936 8.192 10.3936 0 0.1536-0.0512 0.3072-0.0512 0.4608-1.8944 16.9472-5.7856 52.2752 37.6832 59.136 24.832 3.8912 77.3632 29.952 81.5616 85.504 3.84 51.456-34.1504 118.016-67.8912 159.3344-6.4 7.8848-6.7584 18.7392-0.8704 26.9824a22.10816 22.10816 0 0 0 25.9072 7.9872c49.7152-18.3296 105.4208-41.216 154.3168-74.1376-2.2016 14.6432-5.4272 29.44-9.9328 44.288-1.8944 6.144 0.256 12.8 5.376 16.6912 2.7648 2.0992 6.0416 3.1232 9.3184 3.1232 2.8672 0 5.6832-0.768 8.192-2.3552 32.6656-20.6848 78.4896-72.2944 105.0624-122.4192 1.4848 15.4112 1.9456 29.8496 0.768 43.9808-0.6144 7.5264 4.3008 14.336 11.5712 16.1792 7.3216 1.8432 14.848-1.8944 17.8176-8.8064 1.4848-3.4816 3.1232-7.2192 4.9152-11.3152 32.4096-73.472 108.032-245.9136 31.3856-457.216z m-322.1504 513.024c32.512-46.2848 60.7232-106.2912 56.8832-157.4912-5.3248-71.2192-68.7104-107.4688-107.4176-113.5616-13.312-2.0992-14.2848-4.2496-11.9296-25.3952 0.4096-3.8912 0.8704-7.936 1.0752-11.9808 0.3072-6.6048-3.6864-12.6464-9.8304-15.0016 1.024-2.6112 2.6112-5.9392 3.7888-8.448 2.2528-4.7616 1.7408-10.3424-1.0752-14.7456a15.36 15.36 0 0 0-9.3184-6.656c0.0512-2.9184 0.6144-8.3456 3.1232-18.0224 1.024-4.0448 0.4096-8.3456-1.792-11.8784s-5.7344-6.0416-9.7792-6.9632c-3.9936-0.8704-5.888-1.8944-6.656-2.4064 0.1536-1.5872 1.4336-6.4512 9.8304-16.9472 9.8304-12.3392 19.456-38.0416 14.2848-70.1952-5.9392-67.328 15.9232-104.3968 30.8736-121.4976 4.1984 5.5808 8.3456 13.7216 10.752 25.2928 0.1536 0.8192 0.3584 1.6896 0.512 2.56 0.1536 0.9728 0.3072 1.9968 0.4608 3.0208 0.2048 1.3312 0.3584 2.7136 0.512 4.096 0.1024 0.768 0.1536 1.5872 0.256 2.3552 0.2048 2.3552 0.3072 4.8128 0.3584 7.3728 0.3072 20.48 3.2768 43.6736 9.5744 65.4336 7.3728 25.3952 19.3536 48.7936 37.4272 63.5392 12.3392 10.0864 26.7776 15.36 42.3936 15.6672 5.2224 0.1024 10.5472-0.3584 15.9744-1.3824 4.7616-0.9216 7.9872-0.9216 10.1888-0.4608 3.6352 0.7168 4.4032 2.6624 4.8128 3.7376 6.8608 17.5104-13.4656 63.4368-26.0096 71.3728-2.6624 1.6384-4.6592 4.096-5.888 6.912-0.0512 0.1024-0.1536 0.2048-0.2048 0.3584-0.0512 0.1536-0.1024 0.3584-0.1536 0.5632-0.3072 0.8192-0.5632 1.6384-0.7168 2.56-0.2048 1.0752-0.256 2.1504-0.2048 3.2256 0.1024 3.2256 1.2288 6.2976 3.2256 8.8576 0.9728 1.28 2.048 2.6624 3.072 4.096 0.0512 0.1024 0.1536 0.2048 0.2048 0.256 26.8288 36.7104 75.3664 129.536 72.704 236.3904-42.3424 32.9216-93.3888 56.576-141.312 75.3664z m167.7824-27.5968c20.1728-125.2352-31.232-240.4864-70.0416-296.2432 8.3968-10.0352 16.4352-24.3712 21.9648-39.5776 0.1024-0.256 0.2048-0.4608 0.256-0.7168 0.3072-0.768 0.512-1.5872 0.768-2.4064 2.1504-6.2976 3.84-12.7488 4.9152-19.0464 1.28 2.816 2.6624 5.632 4.096 8.3968 14.4896 27.648 34.0992 51.2512 53.0944 74.0864 34.816 41.9328 67.7376 81.5616 63.5392 140.5952v0.3072c-1.792 35.1744-40.6016 95.6416-78.592 134.6048z m116.1216-91.3408c-1.8944-13.9264-4.3008-28.3648-6.8096-43.52 4.1472-70.0928-33.8432-115.9168-70.6048-160.256-17.9712-21.6064-36.5056-43.9808-49.5104-68.7104-36.5568-69.7856-5.6832-152.8832-5.376-153.7024 3.0208-7.936-0.9216-16.7936-8.8576-19.8144a15.36 15.36 0 0 0-19.8656 8.8576c-1.1264 2.9696-21.1968 56.5248-12.4416 118.016-5.6832-3.8912-13.5168-6.7584-24.2176-6.5536-3.584 0.0512-7.5264 0.4608-11.776 1.2288-8.0384 1.4848-15.3088 1.0752-21.9136-1.3824a37.632 37.632 0 0 1-11.264-6.5536c-12.9024-10.5472-22.1184-29.3888-27.9552-50.5856-4.9152-17.8688-7.4752-37.4272-7.7824-55.0912-0.0512-2.816-0.2048-5.4784-0.3584-8.0896l-0.1536-1.7408c-0.1536-2.048-0.3584-4.0448-0.6144-5.9904a20.3776 20.3776 0 0 0-0.256-1.7408c-0.256-1.9968-0.6144-3.9424-0.9216-5.7856-0.0512-0.3584-0.1536-0.7168-0.2048-1.0752-4.864-24.5248-15.8208-39.5776-25.5488-48.4352 16.0256-13.7728 54.784-32.8704 121.088-33.536h1.3824c85.9648 0 167.0144 82.8928 193.1776 160.512 58.5728 161.3824 22.9376 299.6224-9.216 383.9488z" fill="#333B44" /></svg>