<?xml version="1.0" standalone="no"?><!DOCTYPE svg PUBLIC "-//W3C//DTD SVG 1.1//EN" "http://www.w3.org/Graphics/SVG/1.1/DTD/svg11.dtd"><svg class="icon" width="48px" height="48.00px" viewBox="0 0 1024 1024" version="1.1" xmlns="http://www.w3.org/2000/svg"><path d="M678.8224 465.1392L610.1376 513.28c-25.5232 17.92-27.8144 49.5232-5.0432 69.76l48.2688 42.88c24.32 21.632 19.8016 55.8208-9.6768 72.6784l-234.752 134.3104 86.0544-109.2096c19.8144-25.152 7.3728-58.816-26.1632-70.8096l-66.56-23.8208c-32.1408-11.52-45.184-43.1104-28.16-68.1472L509.696 362.0224c16.896-24.7808 56.0512-32.5248 84.9536-16.8192L673.0368 387.84c32.8192 17.8176 35.6992 56.32 5.7856 77.2992z" fill="#507EEB" /><path d="M474.7136 485.12m-76.16 0a76.16 76.16 0 1 0 152.32 0 76.16 76.16 0 1 0-152.32 0Z" fill="#A8BFF7" /><path d="M352 897.7792a19.2 19.2 0 0 1-15.0912-31.0912l147.9808-187.8272c2.7776-3.52 3.6352-7.1936 2.56-10.9184-1.4976-5.2352-6.592-9.856-13.632-12.3776L295.68 591.8336c-18.2144-6.5152-31.7312-19.6736-37.12-36.3136a50.0096 50.0096 0 0 1 6.5536-43.8912L500.736 166.0032c18.3936-26.9824 58.2912-35.3664 88.9344-18.7008l191.6928 104.2048C799.0528 261.12 810.24 277.76 811.264 296.0256s-7.6032 34.9568-23.6928 46.2336L618.24 460.9792c-4.544 3.1872-7.168 7.232-7.4112 11.4048-0.2176 3.84 1.6256 7.68 5.3376 10.9952l127.7056 113.4592c13.1328 11.6736 19.6864 27.7632 17.984 44.1472-1.7664 17.0624-12.1472 32.2048-28.48 41.5488L361.5232 895.2448a19.2 19.2 0 0 1-9.5232 2.5344z m203.8016-720.4864c-9.4976 0-18.816 3.712-23.3344 10.3424l-235.6096 345.6a11.4432 11.4432 0 0 0-1.7664 10.3936c1.6512 5.12 6.6944 9.536 13.504 11.9808l178.1632 63.744c18.9184 6.7584 32.6144 20.5824 37.6064 37.9136a50.1504 50.1504 0 0 1-9.3184 45.2992L428.2112 812.8l286.1056-163.5968c5.4656-3.136 8.8832-7.5648 9.3568-12.1728 0.4224-4.0576-1.408-8.0256-5.2992-11.52l-127.6928-113.4592c-12.4544-11.0592-19.072-26.3296-18.176-41.9072 0.9088-15.9104 9.5488-30.72 23.6928-40.64l169.3312-118.72c5.0304-3.5328 7.68-8.0128 7.3984-12.6208-0.2816-4.9664-3.84-9.6896-9.9072-12.9536l-191.6928-104.1792a32.7552 32.7552 0 0 0-15.5264-3.7376z"  /></svg>