<?xml version="1.0" standalone="no"?><!DOCTYPE svg PUBLIC "-//W3C//DTD SVG 1.1//EN" "http://www.w3.org/Graphics/SVG/1.1/DTD/svg11.dtd"><svg class="icon" width="48px" height="48.00px" viewBox="0 0 1024 1024" version="1.1" xmlns="http://www.w3.org/2000/svg"><path d="M229.34 897.05c-10.8 0-19.59-9.68-19.59-21.58V150.13c0-47.52 35.27-86.19 78.62-86.19h483.09c25.04 0 45.34 20.3 45.34 45.34v725.03l-39.19-0.04V114.13c0-3.88-3.15-7.03-7.03-7.03H287.09v0.02c-20.13 0.71-36.76 18.35-38.05 40.26l-0.07-0.02-0.05 1.8v726.33c0.01 11.88-8.78 21.56-19.58 21.56z" fill="#0000FF" /><path d="M294.84 959.73c-20.34 0-39.79-7.4-55.74-21.4-18.89-16.59-30.51-40.79-30.32-63.18 0.19-21.84 11.79-45.38 30.28-61.44 18.43-16.01 41.58-23.24 65.28-20.51h512.45v120.51c0 25.03-19.4 45.39-44.43 45.39 0 0-474.11 0.63-477.52 0.63z m-0.35-126.01c-12.86 0-22.44 5.78-28.47 11.02-9.56 8.3-16.04 20.67-16.13 30.76-0.09 10.45 6.48 23.29 16.33 31.94 6.06 5.32 15.66 11.19 28.57 11.19 1.98 0 477.57-0.64 477.57-0.64 2.36 0 5.24-1.93 5.24-4.29v-79.4H301.72l-1.35-0.18c-2.03-0.27-3.99-0.4-5.88-0.4z" fill="#0000FF" /><path d="M816.79 634.78H333.93c-26.04 0-47.15-21.11-47.15-47.15V194.54c0-25.85 20.96-46.81 46.81-46.81h483.2v40.99h-483.1a5.92 5.92 0 0 0-5.92 5.92v390.95c0 4.53 3.67 8.2 8.2 8.2h480.82v40.99z" fill="#006837" /><path d="M756.63 860.11H290.48c-8.08 0-14.64 7.19-14.64 16.06 0 8.87 6.55 16.06 14.64 16.06H816.8V860.1h-60.17zM287.1 63.95h31.97v43.15H287.1zM317.68 834.08c0.01-0.24 0.07-0.47 0.07-0.72V693.12c0-8.72-6.57-15.78-14.67-15.78s-14.67 7.07-14.67 15.78v140.25c0 0.25 0.06 0.47 0.07 0.72h29.2z" fill="#0000FF" /></svg>