<?xml version="1.0" standalone="no"?><!DOCTYPE svg PUBLIC "-//W3C//DTD SVG 1.1//EN" "http://www.w3.org/Graphics/SVG/1.1/DTD/svg11.dtd"><svg class="icon" width="48px" height="48.00px" viewBox="0 0 1024 1024" version="1.1" xmlns="http://www.w3.org/2000/svg"><path d="M538.065455 505.250909V150.341818A354.909091 354.909091 0 1 0 889.018182 558.545455z" fill="#EB6363" /><path d="M893.207273 489.890909a280.436364 280.436364 0 0 0 3.258182-42.123636A285.556364 285.556364 0 0 0 610.909091 162.909091v284.858182z" fill="#D2A154" /><path d="M694.923636 327.912727h-16.523636a26.996364 26.996364 0 0 1 7.214545-16.290909 28.392727 28.392727 0 0 1 20.945455-8.378182 26.065455 26.065455 0 0 1 18.618182 6.981819 23.272727 23.272727 0 0 1 7.68 16.98909 20.014545 20.014545 0 0 1-3.258182 10.938182 23.272727 23.272727 0 0 1-9.774545 8.145455 24.901818 24.901818 0 0 1 13.032727 8.610909 24.436364 24.436364 0 0 1 4.654545 14.661818 27.229091 27.229091 0 0 1-9.076363 20.712727 32.814545 32.814545 0 0 1-23.272728 8.610909 30.021818 30.021818 0 0 1-21.643636-8.145454 30.952727 30.952727 0 0 1-9.076364-21.876364h17.221819a17.221818 17.221818 0 0 0 4.887272 10.705455 14.894545 14.894545 0 0 0 9.541818 3.258182 13.265455 13.265455 0 0 0 10.007273-3.723637 12.8 12.8 0 0 0 4.189091-9.541818 12.567273 12.567273 0 0 0-5.585454-10.472727 23.272727 23.272727 0 0 0-15.36-4.421818v-14.894546a26.298182 26.298182 0 0 0 9.30909-2.094545 9.774545 9.774545 0 0 0 4.654546-3.956364 9.309091 9.309091 0 0 0 1.861818-5.352727 7.447273 7.447273 0 0 0-2.792727-6.050909 9.309091 9.309091 0 0 0-6.749091-2.56 10.705455 10.705455 0 0 0-6.749091 2.327272 13.498182 13.498182 0 0 0-3.956364 5.818182zM777.076364 302.545455a29.556364 29.556364 0 0 1 17.221818 4.887272 29.789091 29.789091 0 0 1 11.170909 14.894546 80.989091 80.989091 0 0 1 3.956364 27.927272 80.523636 80.523636 0 0 1-3.956364 28.16 32.581818 32.581818 0 0 1-10.705455 14.894546 28.392727 28.392727 0 0 1-17.221818 4.887273 29.556364 29.556364 0 0 1-17.221818-4.887273 32.116364 32.116364 0 0 1-10.938182-14.429091 78.429091 78.429091 0 0 1-4.654545-26.996364 65.861818 65.861818 0 0 1 7.68-36.305454 27.461818 27.461818 0 0 1 24.669091-13.032727z m0 16.523636a11.869091 11.869091 0 0 0-7.68 2.56 19.316364 19.316364 0 0 0-5.352728 9.774545 90.065455 90.065455 0 0 0-1.629091 20.247273 51.2 51.2 0 0 0 3.956364 23.272727 12.334545 12.334545 0 0 0 10.705455 6.516364 11.170909 11.170909 0 0 0 10.007272-6.050909 52.130909 52.130909 0 0 0 4.654546-25.367273 50.734545 50.734545 0 0 0-3.723637-24.203636 11.403636 11.403636 0 0 0-10.472727-6.050909z" fill="#5D5C83" /><path d="M217.134545 353.978182l320.93091 151.272727V150.341818a354.909091 354.909091 0 0 0-320.93091 203.636364z" fill="#EBEBEC" /></svg>