<?xml version="1.0" standalone="no"?><!DOCTYPE svg PUBLIC "-//W3C//DTD SVG 1.1//EN" "http://www.w3.org/Graphics/SVG/1.1/DTD/svg11.dtd"><svg class="icon" width="48px" height="48.00px" viewBox="0 0 1024 1024" version="1.1" xmlns="http://www.w3.org/2000/svg"><path d="M1003.52 271.36c0 271.36-220.16 491.52-491.52 491.52S20.48 542.72 20.48 271.36h983.04z" fill="#E0E843" /><path d="M512 778.24C232.448 778.24 5.12 550.912 5.12 271.36c0-8.192 7.168-15.36 15.36-15.36h983.04c8.192 0 15.36 7.168 15.36 15.36C1018.88 550.912 791.552 778.24 512 778.24zM35.84 286.72C44.032 541.696 254.976 747.52 512 747.52s467.968-205.824 476.16-460.8h-952.32z" fill="#0F0F0F" /><path d="M902.144 277.504c0 215.04-174.08 390.144-390.144 390.144s-390.144-174.08-390.144-390.144h780.288z" fill="#ED5454" /><path d="M512 681.984c-223.232 0-405.504-182.272-405.504-405.504 0-8.192 7.168-15.36 15.36-15.36H901.12c8.192 0 15.36 7.168 15.36 15.36 1.024 224.256-181.248 405.504-404.48 405.504z m-373.76-389.12c8.192 198.656 172.032 358.4 373.76 358.4s366.592-159.744 373.76-358.4h-747.52z" fill="#0F0F0F" /><path d="M234.496 338.944a17.408 6.144 90 1 0 12.288 0 17.408 6.144 90 1 0-12.288 0Z" fill="#0F0F0F" /><path d="M303.104 338.944c-3.072 0-6.144 7.168-6.144 17.408 0 9.216 2.048 17.408 6.144 17.408 3.072 0 6.144-7.168 6.144-17.408-1.024-9.216-3.072-17.408-6.144-17.408zM280.576 406.528c-3.072 0-6.144 7.168-6.144 17.408 0 9.216 2.048 17.408 6.144 17.408 3.072 0 6.144-7.168 6.144-17.408-1.024-9.216-3.072-17.408-6.144-17.408zM404.48 384c-3.072 0-6.144 7.168-6.144 17.408 0 9.216 2.048 17.408 6.144 17.408 3.072 0 6.144-7.168 6.144-17.408 0-9.216-3.072-17.408-6.144-17.408zM483.328 338.944c-3.072 0-6.144 7.168-6.144 17.408 0 9.216 2.048 17.408 6.144 17.408 3.072 0 6.144-7.168 6.144-17.408 0-9.216-3.072-17.408-6.144-17.408zM574.464 316.416c-3.072 0-6.144 7.168-6.144 17.408 0 9.216 2.048 17.408 6.144 17.408 3.072 0 6.144-7.168 6.144-17.408-1.024-9.216-3.072-17.408-6.144-17.408z" fill="#0F0F0F" /><path d="M420.864 333.824a17.408 6.144 90 1 0 12.288 0 17.408 6.144 90 1 0-12.288 0Z" fill="#0F0F0F" /><path d="M438.272 463.872c-3.072 0-6.144 7.168-6.144 17.408 0 9.216 2.048 17.408 6.144 17.408 3.072 0 6.144-7.168 6.144-17.408s-3.072-17.408-6.144-17.408zM518.144 417.792c-3.072 0-6.144 7.168-6.144 17.408 0 9.216 2.048 17.408 6.144 17.408 3.072 0 6.144-7.168 6.144-17.408-1.024-9.216-3.072-17.408-6.144-17.408z" fill="#0F0F0F" /><path d="M454.656 412.672a17.408 6.144 90 1 0 12.288 0 17.408 6.144 90 1 0-12.288 0Z" fill="#0F0F0F" /><path d="M557.056 525.312a17.408 6.144 90 1 0 12.288 0 17.408 6.144 90 1 0-12.288 0Z" fill="#0F0F0F" /><path d="M642.048 463.872c-3.072 0-6.144 7.168-6.144 17.408 0 9.216 2.048 17.408 6.144 17.408 3.072 0 6.144-7.168 6.144-17.408-1.024-10.24-3.072-17.408-6.144-17.408zM585.728 441.344c-3.072 0-6.144 7.168-6.144 17.408 0 9.216 2.048 17.408 6.144 17.408 3.072 0 6.144-7.168 6.144-17.408-1.024-10.24-3.072-17.408-6.144-17.408zM675.84 486.4c-3.072 0-6.144 7.168-6.144 17.408 0 9.216 2.048 17.408 6.144 17.408 3.072 0 6.144-7.168 6.144-17.408s-3.072-17.408-6.144-17.408zM754.688 441.344c-3.072 0-6.144 7.168-6.144 17.408 0 9.216 2.048 17.408 6.144 17.408 3.072 0 6.144-7.168 6.144-17.408s-3.072-17.408-6.144-17.408z" fill="#0F0F0F" /><path d="M692.224 435.2a17.408 6.144 90 1 0 12.288 0 17.408 6.144 90 1 0-12.288 0Z" fill="#0F0F0F" /><path d="M585.728 361.472c-3.072 0-6.144 7.168-6.144 17.408 0 9.216 2.048 17.408 6.144 17.408 3.072 0 6.144-7.168 6.144-17.408-1.024-9.216-3.072-17.408-6.144-17.408zM687.104 327.68c-3.072 0-6.144 7.168-6.144 17.408 0 9.216 2.048 17.408 6.144 17.408 3.072 0 6.144-7.168 6.144-17.408 0-9.216-3.072-17.408-6.144-17.408zM777.216 316.416c-3.072 0-6.144 7.168-6.144 17.408 0 9.216 2.048 17.408 6.144 17.408 3.072 0 6.144-7.168 6.144-17.408 0-9.216-3.072-17.408-6.144-17.408zM720.896 372.736c-3.072 0-6.144 7.168-6.144 17.408 0 9.216 2.048 17.408 6.144 17.408 3.072 0 6.144-7.168 6.144-17.408 0-9.216-3.072-17.408-6.144-17.408zM788.48 361.472c-3.072 0-6.144 7.168-6.144 17.408 0 9.216 2.048 17.408 6.144 17.408 3.072 0 6.144-7.168 6.144-17.408 0-9.216-3.072-17.408-6.144-17.408zM653.312 372.736c-3.072 0-6.144 7.168-6.144 17.408 0 9.216 2.048 17.408 6.144 17.408 3.072 0 6.144-7.168 6.144-17.408-1.024-9.216-3.072-17.408-6.144-17.408z" fill="#0F0F0F" /><path d="M319.488 536.576a17.408 6.144 90 1 0 12.288 0 17.408 6.144 90 1 0-12.288 0Z" fill="#0F0F0F" /><path d="M420.864 581.632a17.408 6.144 90 1 0 12.288 0 17.408 6.144 90 1 0-12.288 0Z" fill="#0F0F0F" /><path d="M348.16 441.344c-3.072 0-6.144 7.168-6.144 17.408 0 9.216 2.048 17.408 6.144 17.408 3.072 0 6.144-7.168 6.144-17.408s-3.072-17.408-6.144-17.408z" fill="#0F0F0F" /><path d="M827.392 333.824a17.408 6.144 90 1 0 12.288 0 17.408 6.144 90 1 0-12.288 0Z" fill="#0F0F0F" /><path d="M726.016 322.56a17.408 6.144 90 1 0 12.288 0 17.408 6.144 90 1 0-12.288 0Z" fill="#0F0F0F" /></svg>