<?xml version="1.0" standalone="no"?><!DOCTYPE svg PUBLIC "-//W3C//DTD SVG 1.1//EN" "http://www.w3.org/Graphics/SVG/1.1/DTD/svg11.dtd"><svg class="icon" width="48px" height="48.00px" viewBox="0 0 1024 1024" version="1.1" xmlns="http://www.w3.org/2000/svg"><path d="M928.461824 870.4C610.202624 849.92 358.401024 585.216 358.401024 261.632c0-73.984 13.1584-144.8448 37.2224-210.432l118.5792 32.2048 71.168 61.4912h231.8336l121.9584 111.872 33.6384 328.9088-33.6384 280.832-10.752 3.8912z" fill="#4169E1" /><path d="M919.962624 358.4C911.361024 237.056 867.021824 191.9488 768.001024 191.9488h-179.2a102.4 102.4 0 0 1-83.3024-42.8544 270.7456 270.7456 0 0 1-6.144-9.0624c1.1776 1.8432-12.6976-20.0192-15.36-23.6544C476.314624 105.8816 469.351424 102.4 432.026624 102.4h-262.144C131.687424 102.4 102.401024 137.9328 102.401024 198.656l-0.0512 3.584L102.401024 204.8a51.2 51.2 0 1 1-102.0416-6.144H0.001024C0.001024 88.7296 67.431424 0 169.831424 0h262.144c115.968 0 133.4784 56.8832 156.8256 89.5488H768.001024c170.496 0 242.9952 102.7072 254.3616 268.8512H1024.001024v358.4a307.2 307.2 0 0 1-307.2 307.2H307.201024a307.2 307.2 0 0 1-307.2-307.2V358.4h919.9616zM921.601024 460.8H102.401024v256a204.8 204.8 0 0 0 204.8 204.8h409.6a204.8 204.8 0 0 0 204.8-204.8V460.8z m-355.9424 228.1472V819.2a51.2 51.2 0 0 1-51.2 51.2h-4.4032a51.2 51.2 0 0 1-51.2-51.2v-129.9456l-57.344 57.344a51.2 51.2 0 0 1-72.448 0l-3.072-3.072a51.2 51.2 0 0 1 0-72.3968l144.7936-144.8448a51.0464 51.0464 0 0 1 36.8128-14.9504 51.1488 51.1488 0 0 1 45.6192 14.08l144.8448 144.8448a51.2 51.2 0 0 1 0 72.3968l-3.1232 3.1232a51.2 51.2 0 0 1-72.3968 0l-56.832-56.832z" fill="#2c2c2c" /></svg>