<?xml version="1.0" standalone="no"?><!DOCTYPE svg PUBLIC "-//W3C//DTD SVG 1.1//EN" "http://www.w3.org/Graphics/SVG/1.1/DTD/svg11.dtd"><svg class="icon" width="48px" height="48.00px" viewBox="0 0 1024 1024" version="1.1" xmlns="http://www.w3.org/2000/svg"><path d="M777.6256 959.77472H140.40576v-58.05056H777.6256c25.08288 0 48.90624 0 57.7536-2.23232 1.38752-6.92736 1.38752-23.36256 1.38752-38.07232V463.40608h58.05056v398.01856c0 39.79776 0 66.09408-22.10304 83.47648-18.9184 14.8736-44.37504 14.8736-95.08864 14.8736z" fill="#4169E1" /><path d="M531.11808 728.91904l85.25824 57.96352c8.09984 5.504 21.06368 1.19808 21.06368-6.99904V472.87296c0-17.49504-18.91328-31.67744-42.24-31.67744h-161.28c-23.32672 0-42.24 14.1824-42.24 31.67744v307.01568c0 8.19712 12.96384 12.50816 21.06368 6.99904l85.25824-57.96352c9.3952-6.38976 23.72096-6.38976 33.11616-0.00512z" fill="#4169E1" /><path d="M749.4144 274.05312H466.4832l13.02528-30.35648c2.2016-5.13536 55.5008-126.47936 188.2368-188.34432 40.27392-18.76992 77.94176-14.46912 106.07616 12.0832 41.5744 39.23968 50.36544 117.38112 32.25088 162.9696-11.02336 27.74016-31.67232 43.648-56.65792 43.648z m-213.28384-43.54048h213.28384c6.48192 0 11.92448-5.44256 16.19456-16.18432 12.40576-31.21664 5.49888-89.57952-21.67296-115.2256-14.90432-14.06976-33.81248-15.4624-57.79968-4.28544-79.2576 36.9408-127.05792 98.81088-150.00576 135.69536z"  /><path d="M499.51744 252.28288S437.29408 127.83104 322.08896 75.0848C184.14592 11.9296 164.24448 252.28288 240.2816 252.28288h259.23584z" fill="#4169E1" /><path d="M878.592 973.51168h-727.04a32.0512 32.0512 0 0 1-32.01024-32.01024V433.32608h791.05536v508.17024a32.04096 32.04096 0 0 1-32.00512 32.01536z m-715.50976-43.54048h703.97952V476.86656H163.08224v453.10464z"  /><path d="M945.152 475.1104h-860.16a26.92096 26.92096 0 0 1-26.89024-26.89024v-174.08a26.92096 26.92096 0 0 1 26.89024-26.89024h860.16a26.92096 26.92096 0 0 1 26.89024 26.89024v174.08a26.92608 26.92608 0 0 1-26.89024 26.89024zM101.64224 431.56992h826.85952V290.7904H101.64224v140.77952z"  /></svg>