<?xml version="1.0" standalone="no"?><!DOCTYPE svg PUBLIC "-//W3C//DTD SVG 1.1//EN" "http://www.w3.org/Graphics/SVG/1.1/DTD/svg11.dtd"><svg class="icon" width="48px" height="48.00px" viewBox="0 0 1024 1024" version="1.1" xmlns="http://www.w3.org/2000/svg"><path d="M416.343413 1024c-83.897412 0-162.340691-27.591501-220.97263-77.801616-60.797551-51.974688-94.404641-123.279467-94.404641-200.43942h68.096466c0 117.825333 108.60143 210.14457 247.280805 210.14457 138.438751 0 246.879766-92.319237 246.879765-210.14457V619.672222c0-74.192262-50.049699-148.54494-130.578381-194.183207l33.607089-59.273602c48.445542 27.431085 89.431754 64.647528 118.306581 107.558728 30.559191 45.397644 46.761177 95.848382 46.761177 145.898081V745.678757c0 77.240161-33.446674 148.464732-94.164017 200.43942-58.551731 50.210115-136.914802 77.881823-220.812214 77.881823z" fill="#27282A" /><path d="M665.629414 297.477284L452.757777 510.348921c-16.683233 16.683233-43.953902 16.683233-60.637135 0l-63.283995-63.283994c-16.683233-16.683233-16.683233-43.953902 0-60.637136L541.708284 173.556155l123.92113 123.921129z" fill="#4169E1" /><path d="M324.2648 620.554509c-23.661316 0-45.959099-9.223903-62.72254-26.067552L181.173993 514.11869c-34.32896-34.32896-34.409168-90.554664-0.160416-125.364871l0.160416-0.160416L452.196322 117.811698c13.314503-13.314503 34.890415-13.314503 48.204919 0l157.688635 157.688635c6.33642 6.33642 10.025981 15.079076 10.025981 24.142563s-3.529145 17.645727-10.025981 24.142564l-271.102537 270.701497c-16.843649 16.763441-39.061223 26.067552-62.722539 26.067552zM229.378912 436.637906c-7.860369 8.020785-7.940577 21.415496-0.080208 29.275866L309.666971 546.282039c3.930185 3.930185 9.143695 6.095797 14.597829 6.095796 5.454134 0 10.667644-2.165612 14.597828-6.095796l247.040182-246.71935L476.258677 189.998764 229.378912 436.637906zM483.165376 48.151179l48.151179-48.151179 254.082431 254.082431-48.150378 48.151179zM31.826974 726.990327h222.416372v68.096466H31.826974zM2.711524 955.823327h826.942946v68.096465h-826.942946z" fill="#27282A" /></svg>