<?xml version="1.0" standalone="no"?><!DOCTYPE svg PUBLIC "-//W3C//DTD SVG 1.1//EN" "http://www.w3.org/Graphics/SVG/1.1/DTD/svg11.dtd"><svg class="icon" width="48px" height="48.00px" viewBox="0 0 1024 1024" version="1.1" xmlns="http://www.w3.org/2000/svg"><path d="M375.564536 835.689385a356.778737 356.778737 0 0 0 19.783143 116.652322 357.460915 357.460915 0 0 0 455.012271-455.012271A357.460915 357.460915 0 0 0 375.564536 835.689385z" fill="#4F8DFC" /><path d="M788.963991 313.482648L853.088659 63.464661A51.163299 51.163299 0 0 0 801.92536 0.022171h-579.85072A51.163299 51.163299 0 0 0 170.911341 63.464661l64.124668 250.017987a409.306391 409.306391 0 1 0 554.269071 0zM287.563662 102.348768h448.872676l-37.178664 148.032479a405.895504 405.895504 0 0 0-375.197525 0zM512 920.96155a306.979793 306.979793 0 1 1 306.979793-306.979793 306.979793 306.979793 0 0 1-306.979793 306.979793z" fill="#181818" /><path d="M512 409.328562a204.653195 204.653195 0 1 0 204.653195 204.653195 204.653195 204.653195 0 0 0-204.653195-204.653195z m0 306.979793a102.326598 102.326598 0 1 1 102.326598-102.326598 102.326598 102.326598 0 0 1-102.326598 102.326598z" fill="#181818" /></svg>