<?xml version="1.0" standalone="no"?><!DOCTYPE svg PUBLIC "-//W3C//DTD SVG 1.1//EN" "http://www.w3.org/Graphics/SVG/1.1/DTD/svg11.dtd"><svg class="icon" width="48px" height="48.00px" viewBox="0 0 1024 1024" version="1.1" xmlns="http://www.w3.org/2000/svg"><path d="M344.064 316.416a473.429333 473.429333 0 0 0-20.821333 609.962667 474.112 474.112 0 0 0 648.533333-265.216 474.112 474.112 0 0 1-627.712-344.746667z" fill="#4F8DFC" /><path d="M526.677333 1024A526.677333 526.677333 0 0 1 345.088 3.072 51.2 51.2 0 0 1 409.6 68.266667a423.253333 423.253333 0 0 0 546.133333 546.133333 51.2 51.2 0 0 1 65.877334 65.877333A528.725333 528.725333 0 0 1 526.677333 1024z m-238.933333-875.861333a423.936 423.936 0 1 0 588.117333 589.482666 512 512 0 0 1-68.266666 4.437334A527.36 527.36 0 0 1 281.941333 215.381333a512 512 0 0 1 4.437334-67.242666z" fill="#181818" /></svg>