<?xml version="1.0" standalone="no"?><!DOCTYPE svg PUBLIC "-//W3C//DTD SVG 1.1//EN" "http://www.w3.org/Graphics/SVG/1.1/DTD/svg11.dtd"><svg class="icon" width="48px" height="48.00px" viewBox="0 0 1024 1024" version="1.1" xmlns="http://www.w3.org/2000/svg"><path d="M341.333333 546.133333h614.4v341.333334H341.333333z" fill="#4F8DFC" /><path d="M972.8 102.4h-921.6A51.2 51.2 0 0 0 0 153.6v750.933333A51.2 51.2 0 0 0 51.2 955.733333h921.6a51.2 51.2 0 0 0 51.2-51.2v-750.933333A51.2 51.2 0 0 0 972.8 102.4zM921.6 204.8v136.533333H102.4V204.8zM102.4 853.333333V443.733333h819.2v409.6z" fill="#181818" /><path d="M614.4 750.933333m-34.133333 0a34.133333 34.133333 0 1 0 68.266666 0 34.133333 34.133333 0 1 0-68.266666 0Z" fill="#181818" /><path d="M716.8 750.933333m-34.133333 0a34.133333 34.133333 0 1 0 68.266666 0 34.133333 34.133333 0 1 0-68.266666 0Z" fill="#181818" /><path d="M819.2 750.933333m-34.133333 0a34.133333 34.133333 0 1 0 68.266666 0 34.133333 34.133333 0 1 0-68.266666 0Z" fill="#181818" /></svg>