<?xml version="1.0" standalone="no"?><!DOCTYPE svg PUBLIC "-//W3C//DTD SVG 1.1//EN" "http://www.w3.org/Graphics/SVG/1.1/DTD/svg11.dtd"><svg class="icon" width="48px" height="48.00px" viewBox="0 0 1024 1024" version="1.1" xmlns="http://www.w3.org/2000/svg"><path d="M733.866667 624.64l-443.733334-204.8v315.733333l433.152 187.733334 10.581334-298.666667z" fill="#4F8DFC" /><path d="M761.514667 8.192a51.541333 51.541333 0 0 0-49.152-3.413333L278.869333 204.8H51.2A51.2 51.2 0 0 0 0 256v512A51.2 51.2 0 0 0 51.2 819.2h227.669333l433.493334 200.021333A51.2 51.2 0 0 0 785.066667 972.8v-921.6a51.2 51.2 0 0 0-23.552-43.008zM102.4 307.2h136.533333v409.6H102.4z m580.266667 585.728l-341.333334-157.696V288.768l341.333334-157.696zM928.426667 225.28a51.2 51.2 0 0 0-81.92 61.44 375.466667 375.466667 0 0 1 0 450.901333 51.2 51.2 0 1 0 82.261333 61.098667 477.866667 477.866667 0 0 0 0-573.098667z" fill="#181818" /></svg>