<?xml version="1.0" standalone="no"?><!DOCTYPE svg PUBLIC "-//W3C//DTD SVG 1.1//EN" "http://www.w3.org/Graphics/SVG/1.1/DTD/svg11.dtd"><svg class="icon" width="48px" height="48.00px" viewBox="0 0 1024 1024" version="1.1" xmlns="http://www.w3.org/2000/svg"><path d="M539.865126 1022.567343a430.72 430.72 0 1 0 55.305639-859.662818 430.72 430.72 0 1 0-55.305639 859.662818Z" fill="#6DAFDF" /><path d="M335.232 939.84l-0.32 0.416c0.64 0.192 1.248 0.48 1.888 0.64l-1.568-1.056zM347.488 332.256l-0.768-1.792c7.264-0.608 8.064-5.632 13.632-7.136 6.336-1.632 4.064 0.448 10.208 0.64 4.96 0.128 7.744 3.904 13.568 1.664-1.504 2.336-3.872 3.84-6.208 5.376-4.896 3.008-9.856 6.112-15.488 7.008-5.6 0.896-12.032-0.896-14.944-5.76z" fill="#E8EFF3" /><path d="M408.608 720.96c-0.352 3.776-2.784 6.944-4.928 10.016a104.32 104.32 0 0 0-18.08 45.984c-2.176 15.776-2.752 35.36-17.056 42.24-8.16 3.872-19.2 2.368-24.928 9.44-1.792 2.144-2.752 4.896-3.712 7.488l-12.608 36.384a590.176 590.176 0 0 1-13.12-2.208c5.056 1.984 8.192 9.216 4.768 13.792-4.8-2.944-11.52-0.256-14.56 4.544-2.944 4.8-2.944 10.848-1.824 16.384 3.424 16.416 16.416 30.336 32.384 35.264-3.168 5.152-11.68 2.272-16.672-1.664a200.512 200.512 0 0 1-72-112.896c-3.584-15.648-5.44-32.192-13.536-45.984-6.784-11.648-17.536-20.544-24.288-32.224-9.472-16.608-10.08-37.568-21.28-53.024-6.272-8.8-16.096-19.776-9.504-28.32 2.656-3.552 8.064-6.72 6.272-10.72-0.608-1.312-1.92-2.176-2.912-3.328-3.808-4.64-0.544-11.36 1.856-16.864 4.032-9.6 4.704-20.096 3.936-30.688a88.608 88.608 0 0 1-21.184-34.752c-2.528-7.968-5.888-17.952-14.24-18.592-1.76-6.176-3.616-12.32-5.344-18.496a6.272 6.272 0 0 1-5.504 3.456A428.48 428.48 0 0 1 265.184 286.08c1.344-0.512 2.752-1.216 4.16-1.92 15.232-7.616 27.712-19.712 42.528-28.128 3.04-1.76 6.464-3.392 10.048-2.784 3.488 0.512 6.56 4.32 5.088 7.552a7.552 7.552 0 0 1-3.04 3.136 300.416 300.416 0 0 1-56.512 33.184c-2.4 1.024-4.928 2.208-6.144 4.48-2.208 3.872 0.768 9.056 4.864 10.784 4.096 1.728 8.8 1.152 13.152 0.448a21.28 21.28 0 0 0-3.968 17.92c3.968 0.64 5.568-4.736 6.976-8.448 5.824-14.752 30.24-19.328 29.696-35.296 6.304 3.84 13.408-3.328 17.792-9.312 4.384-6.048 13.632-11.712 18.144-5.856l0.384 9.408 26.176-4.864a12.832 12.832 0 0 0-4.736 15.712c2.464 5.44 9.312 8.512 14.976 6.72-0.384 4.576-4.704 7.808-8.576 10.272-9.888 6.496-20.48 13.152-31.68 15.936l2.176 5.408c-0.288 0.064-0.608 0.16-0.896 0.128-7.04 0.224-14.112-5.312-21.664-4.8-4.608 0.288-10.24-0.064-13.184 4.416-0.416 0.544-2.592 8.608-1.408 8 4.224-2.08 8.48-4.128 12.608-6.208a19.424 19.424 0 0 1 0.192 10.656 24 24 0 0 1 14.272 4.128 28.96 28.96 0 0 1-28.992 15.04l0.288-10.528c-9.472-1.376-17.792 6.272-23.072 14.144-5.376 7.936-9.696 17.152-18.016 21.888-5.088 3.008-11.104 3.872-16.512 6.272-5.344 2.496-10.432 7.52-9.76 13.344 0.32 2.752 1.888 5.408 1.632 8.224-0.64 5.216-6.912 7.264-11.232 10.4-7.392 5.376-9.824 15.968-17.632 20.64-5.696 3.456-12.864 2.88-19.328 4.416-6.432 1.536-13.184 7.456-11.04 13.728-3.168 0.864-6.816-1.696-6.912-5.024a212.8 212.8 0 0 0-26.112 68.992c5.28 4.256 11.488-4.224 12.992-10.88 1.6-6.624 8-15.008 13.184-10.688l-5.632 28.544c-0.416 1.824-0.736 3.776 0.032 5.472 0.928 2.112 3.2 3.136 4.864 4.704 4.672 4.608 3.52 12.128 3.392 18.656-0.224 8 1.92 15.936 5.632 23.008a62.72 62.72 0 0 1-0.704-4.16 27.072 27.072 0 0 0 21.6-5.152c3.2-2.528 5.952-5.856 9.824-6.976 3.968-1.216 8.192 0.128 12.096 1.472 12.128 4.192 25.024 8.832 32.64 19.104 3.872 5.216 6.08 11.616 10.784 16.032 10.656 10.24 29.984 7.296 39.616 18.56 7.712 9.088 5.28 22.784 2.272 34.432-5.44-3.456-13.536 3.808-10.56 9.568 3.232-3.104 6.944-6.4 11.328-6.112 4.48 0.192 7.968 6.56 4.48 9.184 8.416-9.408 27.2-4.096 29.44 8.448 10.848 1.472 21.792 2.976 32.608 4.544-2.88 15.776 30.496 18.912 28.8 34.912zM371.52 266.848a8.704 8.704 0 0 1-11.232-5.44 8.704 8.704 0 0 1 6.688-10.528c2.944-0.48 6.912 0.096 7.968-2.688 0.32-0.832 0.224-1.792 0.288-2.688 0.224-5.312 5.28-9.408 10.528-10.4 5.248-0.992 10.592 0.384 15.744 1.76 1.6 3.936 1.856 8.448 0.704 12.544l-10.784-0.224c-0.064 5.952-1.12 13.408-6.784 15.232-5.056 1.632-11.264-2.432-15.616 0.64M431.104 211.072c10.08-4.032 18.816-10.88 28.768-15.2 17.12-7.424 36.512-6.944 55.168-6.304l127.392 4.288-30.528 14.24c-8.32 3.872-17.728 7.84-26.368 4.768a13.76 13.76 0 0 0 12.448 14.432c-18.112 9.632-41.568-2.944-60.512 4.896-7.936 3.296-14.624 10.048-23.168 10.848-4.96 0.448-9.952-1.184-14.88-0.416-8.256 1.248-13.888 8.64-20.288 14.016-7.392 6.208-17.856 10.08-26.72 6.304-8.864-3.776-12.736-17.568-5.024-23.392 3.776-2.88 8.928-3.04 13.28-4.928 4.352-1.888 8.064-7.456 5.12-11.2-1.28-1.632-3.488-2.368-4.672-4.064-1.248-1.856-0.96-4.384-1.952-6.4-3.808-7.84-16.448 1.568-24.384-2.016M557.472 255.2c5.824-0.96 11.008-4.032 16.512-6.144 5.504-2.112 11.968-3.168 17.056-0.224 1.312 4-3.424 7.264-7.456 8.416a48.384 48.384 0 0 1-23.904 0.544M901.152 320.416a13.312 13.312 0 0 1-4.832-0.608c-7.2-2.016-12.384-8.032-18.336-12.512a50.784 50.784 0 0 0-49.408-6.208 29.824 29.824 0 0 0 6.336-18.144l-2.272 0.64c-24.512-16.416-53.376-33.696-81.824-25.568-6.56 1.92-12.64 5.056-19.296 6.88-7.072 1.984-14.816 2.464-21.024 6.368-6.304 3.904-10.112 13.12-5.312 18.592 4.096 4.672 11.168 3.936 17.248 4.928 5.984 0.96 12.512 7.456 8.864 12.384-27.456 10.72-54.976 21.568-82.432 32.384 12 4.768 19.168 19.2 15.744 31.68-9.056 0.992-17.344-5.024-26.336-6.176-13.088-1.536-26.368 9.248-27.52 22.336-1.248 13.12 10.048 26.048 23.168 26.688 9.824 0.544 19.84-4.768 29.216-1.632 0.96-8.928 7.584-16.096 14.304-22.112 13.024-11.456 31.264-21.44 47.2-14.336 5.216 2.272 9.568 6.176 13.792 10.048 9.312 8.416 18.624 16.928 27.936 25.44 3.328-3.008 6.624-6.016 9.952-8.928l15.04 18.048c2.848-1.664 5.792-3.232 8.608-4.928l4.96 15.456c1.152-5.504 2.176-10.88 3.2-16.288 6.4 0.608 13.184 1.248 19.232-1.312 6.016-2.432 10.752-9.184 8.704-15.36-1.056-3.296-3.904-6.016-4.288-9.44-0.832-6.88 9.184-10.944 15.328-7.392 6.016 3.424 8.672 10.72 10.88 17.408l5.536-19.456c5.088 16.352 12.896 31.872 22.944 45.696a105.792 105.792 0 0 0-60 2.208 31.392 31.392 0 0 0 25.504 14.624c4.576 0.192 9.696-0.544 13.024 2.592 2.496 2.4 2.944 6.048 3.2 9.376 0.96 9.44 1.92 18.784 2.784 28.096-9.952-9.344-25.184-9.344-38.88-10.496-13.696-1.28-29.472-6.08-33.728-19.168a27.52 27.52 0 0 0-7.808 22.624c-13.984-4.32-29.952-10.816-33.152-25.088-11.36 3.36-24.704-4.608-26.976-16.192-0.8-4.064-0.8-8.928-4.16-11.296-2.048-1.408-4.8-1.376-7.328-1.248-21.248 1.088-42.4 2.048-63.552 3.136-11.552 0.64-23.52 1.216-33.984 6.208-10.464 4.896-19.232 15.264-18.816 26.816a131.04 131.04 0 0 0-49.92 44.64c-3.904 5.792-7.36 12.512-6.432 19.392 0.64 5.312 3.84 10.016 4.576 15.232 1.28 8.96-4.32 17.184-7.04 25.824-7.616 24.512 9.728 49.152 26.016 69.152 7.712 9.28 16.608 19.424 28.64 20.672 7.456 0.768 14.784-2.08 21.952-4.352a156.96 156.96 0 0 1 63.968-6.528c-5.12 3.488-0.576 12.064 5.376 13.728 5.952 1.664 12.576 0.128 18.304 2.528 13.024 5.632 9.92 25.056 3.072 37.408l9.344-1.152c-1.92 4.16-3.84 8.352-5.792 12.416 18.112 3.52 23.488 27.968 18.048 45.664-5.344 17.728-17.088 33.568-18.56 52-0.736 10.112 1.728 20.128 4.224 29.952l18.624 74.816c21.6 4.032 35.936-22.88 56.704-30.24 7.808-2.816 16.768-2.912 23.072-8.192 6.08-5.088 5.056-17.92-2.336-18.4a21.824 21.824 0 0 0 20.16-19.104c0.288-2.816 0.064-5.664 0.64-8.448 0.928-3.936 3.68-7.296 6.336-10.528 16.896-21.184 28.544-45.92 40.16-70.336l9.152-19.52 34.464-72.96 13.568-28.608c-5.92 8.512-19.84 6.432-27.392-0.672-7.648-7.136-11.168-17.408-16.96-26.08-4.896-7.456-11.68-14.208-13.664-23.04-1.152-5.056-0.512-10.368-1.056-15.584-1.216-11.296-8-21.12-12.416-31.552-4.416-10.432-6.176-23.744 1.472-32.128a1246.496 1246.496 0 0 1 48.736 113.664 23.648 23.648 0 0 1 12.448-12.96c4.128-1.888 8.64-2.464 12.96-3.968 11.392-4.16 19.84-15.424 20.608-27.488a32.096 32.096 0 0 0-17.12-29.792c-5.376-2.688-11.648-3.872-16.704-7.424-5.056-3.456-8.384-10.784-4.736-15.744 3.424-4.672 10.912-4.096 15.872-1.024 4.96 3.168 8.448 8.16 13.12 11.68 3.36 2.56 7.328 4.384 10.976 6.752 19.776 13.088 23.104 40.16 25.888 63.776 1.536 12.704 3.36 25.312 5.664 37.76a428.32 428.32 0 0 0-95.456-308z m30.176 143.808c-2.816-0.384-5.312-2.4-7.424-4.288-3.52-3.168-6.976-6.784-7.744-11.424-0.928-5.536 2.112-11.584-0.48-16.64-1.216-2.432-3.552-4.032-5.472-5.824a30.464 30.464 0 0 1-9.6-17.696c-0.896-5.92 1.472-13.568 7.456-14.176a6.88 6.88 0 0 1 6.944 4.16l-4.128 1.888c6.656 1.216 9.12 11.52 3.68 15.552-0.736 0.64-1.632 1.152-1.696 2.144-0.032 0.576 0.32 1.184 0.768 1.6 3.904 4.832 10.016 6.88 15.264 10.176 5.28 3.168 10.272 8.768 9.024 14.72l-5.28 1.6c-1.984 1.728-0.736 5.12 1.12 7.104 1.824 1.984 4.224 3.968 4.16 6.72-0.224 2.944-3.68 4.768-6.592 4.384zM914.752 763.52l-7.328 4.512a19.04 19.04 0 0 1-12.192 21.344c-4.512 1.504-10.4 1.888-12.16 6.304-1.504 3.744 1.248 7.808 1.376 11.84 0.224 6.656-6.304 11.2-11.072 15.84-4.768 4.64-7.744 13.728-1.984 17.088 1.344 0.768 2.912 1.024 4.448 1.28 6.432 0.992 13.472 1.632 19.008-1.792 15.808-9.824 3.36-40 19.008-50.112 2.208-1.44 4.96-2.4 6.304-4.672 3.84-6.784-8.704-14.528-5.408-21.632z" fill="#E8EFF3" /><path d="M444.832 259.36a152.864 152.864 0 0 1-13.28 8.704 74.88 74.88 0 0 1-7.776 4.064c-8.288 8.192-16.832 16.032-24.832 24.544-8.128 8.672-15.712 17.76-23.488 26.72l-0.224 0.448c-22.848 40.192-47.136 80.032-76.256 116.064 381.536 205.728 515.424 420.352 393.056 564.96l0.8-0.32c95.296-39.744 160.512-134.56 152.896-237.568-11.168-151.2-141.184-329.952-400.896-507.616z" fill="#FFD93B" /><path d="M447.744 65.728l-62.048 10.816-21.856-21.856a17.184 17.184 0 0 0-24.288 24.256l4.8 4.8-27.552 4.8-18.08-18.08a17.152 17.152 0 1 0-24.288 24.256l0.992 1.024-71.936 12.512-54.08-54.08A208.384 208.384 0 0 0 89.312 11.808C72.544 4.128 53.76-1.6 38.592 1.344a15.296 15.296 0 0 0-12.064 12.064c-3.296 16.992 4.288 38.528 13.344 56.704a205.44 205.44 0 0 0 38.688 53.312l54.912 54.912-12.544 71.936-1.024-0.992a17.216 17.216 0 0 0-24.288 0 17.12 17.12 0 0 0 0 24.256l18.08 18.08-4.8 27.552-4.8-4.768a17.152 17.152 0 1 0-24.288 24.256l21.856 21.856-10.816 62.048a20.8 20.8 0 0 0 38.432 13.952l27.776-48.16c16.32 14.24 34.496 19.744 34.496 19.744s-6.4-21.472-23.552-38.688l18.592-32.192c16.832 15.712 36.672 21.696 36.672 21.696s-6.4-21.568-23.648-38.816c-0.64-0.704-1.344-1.248-2.016-1.888l27.712-48.032 69.728 69.728-19.328 86.624a30.88 30.88 0 0 0 20.48 35.36 31.008 31.008 0 0 0 37.728-16.448l25.952-63.2c16.896 2.784 33.824 2.528 41.792 0.256 8.384 5.184 14.016 8 14.016 8s-2.816-5.632-8-14.016c2.272-7.936 2.528-24.864-0.256-41.792l63.584-26.112a30.72 30.72 0 0 0 16.096-37.536 30.816 30.816 0 0 0-35.36-20.48l-86.624 19.328-69.76-69.76 48.032-27.712c0.64 0.672 1.184 1.376 1.856 2.048 17.248 17.248 38.816 23.648 38.816 23.648s-6.016-19.808-21.728-36.672l32.192-18.592c17.248 17.152 38.72 23.552 38.72 23.552s-5.504-18.144-19.744-34.496l48.16-27.776a20.8 20.8 0 0 0-13.92-38.4z" fill="#5A5F63" /><path d="M781.312 890.912c-2.848 20-2.624 19.776-15.68 58.88 7.488-28.032 10.72-34.496 12.48-59.2 15.392-107.744-58.016-243.488-126.08-317.44-34.08-41.216-80.192-86.752-124.48-123.2-38.144-31.84-55.36-43.072-87.36-65.92a15.648 15.648 0 0 1-4.16-22.08 16 16 0 0 1 22.4-4.16c0 0.32 0.32 0.32 0.64 0.64 31.392 24.416 44.992 33.696 86.08 71.04 46.752 42.528 89.472 89.344 121.92 131.84 70.4 86.752 131.072 211.456 114.24 329.6z" fill="#E9B02C" /></svg>